<svg xmlns="http://www.w3.org/2000/svg" viewBox="0 0 260 132" width="520" height="264">
<!-- rl-keyframes-injected -->
<style>
    @keyframes rlFade {
      0%, 100% { fill-opacity: 0.08; }
      50%      { fill-opacity: 1; }
    }
  
    svg [style*="animation"] {
      transform-box: fill-box;
      transform-origin: center;
      animation-play-state: var(--rl-play, paused) !important;
    }
  </style>
<rect x="46" y="24" width="172" height="92" rx="13" fill="#2D3BEA" fill-opacity=".05"></rect>
        <rect x="42" y="20" width="172" height="92" rx="13" fill="#FFFFFF" stroke="#2D3BEA" stroke-opacity=".35"></rect>
        <path d="M42 33a13 13 0 0 1 13-13h146a13 13 0 0 1 13 13v5H42z" fill="#2D3BEA" fill-opacity=".1"></path>
        <g fill="#2D3BEA" fill-opacity=".55"><rect x="66" y="14" width="4" height="12" rx="2"></rect><rect x="186" y="14" width="4" height="12" rx="2"></rect></g>
        <g fill="#2D3BEA" fill-opacity=".16">
          <rect x="56" y="50" width="18" height="12" rx="3"></rect><rect x="82" y="50" width="18" height="12" rx="3"></rect><rect x="108" y="50" width="18" height="12" rx="3"></rect><rect x="134" y="50" width="18" height="12" rx="3"></rect><rect x="160" y="50" width="18" height="12" rx="3"></rect><rect x="186" y="50" width="18" height="12" rx="3"></rect>
          <rect x="56" y="70" width="18" height="12" rx="3"></rect><rect x="160" y="70" width="18" height="12" rx="3"></rect><rect x="186" y="70" width="18" height="12" rx="3"></rect>
          <rect x="56" y="90" width="18" height="12" rx="3"></rect><rect x="82" y="90" width="18" height="12" rx="3"></rect><rect x="108" y="90" width="18" height="12" rx="3"></rect><rect x="134" y="90" width="18" height="12" rx="3"></rect><rect x="160" y="90" width="18" height="12" rx="3"></rect><rect x="186" y="90" width="18" height="12" rx="3"></rect>
        </g>
        <g fill="#03F9BE">
          <rect x="82" y="70" width="18" height="12" rx="3" style="animation:rlFade 4s ease-in-out 0s infinite"></rect><rect x="108" y="70" width="18" height="12" rx="3" style="animation:rlFade 4s ease-in-out .25s infinite"></rect><rect x="134" y="70" width="18" height="12" rx="3" style="animation:rlFade 4s ease-in-out .5s infinite"></rect>
        </g>
        <rect x="76" y="64" width="82" height="24" rx="7" fill="none" stroke="#2D3BEA" stroke-opacity=".5" stroke-dasharray="4 3"></rect>
      
</svg>