<?xml version="1.0" encoding="UTF-8"?>
<svg id="Layer_1" data-name="Layer 1" xmlns="http://www.w3.org/2000/svg" viewBox="0 0 460 124.59">
  <g>
    <path d="M460,96.67v10.3h-2.69s-.03-9.06-.03-9.06c0-1.12-.5-2.47-1.35-3.12-1.23-.93-2.79-.88-4.03-.14-1.03.62-1.91,1.83-1.91,3.22v9.09s-2.7,0-2.7,0v-21.77s2.69,0,2.69,0v9.32c1.36-2,3.59-2.92,5.85-2.51,2.46.45,3.64,2.44,4.17,4.68Z"/>
    <path d="M200.79,100.72c-2.52,6.75-9.53,6.9-16.17,6.25v-20.42c7.08-.94,14.52-.96,16.57,6.52.55,2.52.48,5.1-.4,7.65ZM198.52,93.84c-1.02-5.08-6.22-6.23-11.26-5.34v16.41c1.68.18,3.36.22,5.06-.07,5.29-.88,7.22-5.89,6.2-11Z"/>
    <path d="M285.12,106.95l-2.61.02-.06-9.77c0-1.14-.89-2.36-1.67-2.76-1.17-.61-2.46-.42-3.49.43-.8.66-1.5,1.88-1.5,2.98l-.02,9.12h-2.62s-.08-14.82-.08-14.82l2.28-.03.22,2.48c1.05-1.78,2.69-2.75,4.77-2.72,1.94.02,3.48,1.2,4.22,2.95,1.62-2.89,5.19-3.91,7.81-2.01,1.3.94,2.05,2.72,2.07,4.36l.07,9.79h-2.63s-.05-9.32-.05-9.32c0-1.17-.68-2.56-1.6-3.11-1.12-.67-2.34-.56-3.38.11-.73.47-1.67,1.64-1.67,2.75l-.03,9.56Z"/>
    <polygon points="395.48 106.92 392.78 106.97 392.78 97.33 382.76 97.33 382.76 106.97 380.12 106.95 380.12 86.38 382.76 86.37 382.76 94.99 392.78 94.99 392.78 86.37 395.48 86.38 395.48 106.92"/>
    <path d="M222.76,112.94h-2.63s-.08-20.8-.08-20.8l2.33-.05.2,2.55c1.46-2.08,3.62-3.03,6.21-2.72,4.62.55,6.64,6.23,4.84,11.04-1.14,3.05-4.2,4.68-7.39,4.12-1.44-.25-2.49-.97-3.47-2.12v7.97ZM230.95,102.57c.81-1.84.82-3.84.18-5.63-.71-1.98-2.54-3.15-4.6-2.87-3.53.49-4.21,4.06-3.63,7.76.29,1.87,2.04,3.06,3.61,3.23,1.89.21,3.63-.64,4.45-2.49Z"/>
    <path d="M360.11,103.91c-2.43,3.85-7.96,4.41-11.15,1.39-1.92-1.82-2.36-4.41-2.11-6.89.39-3.9,3.43-6.6,7.38-6.54,2.87.04,5.47,1.56,6.47,4.33.88,2.45.92,5.32-.59,7.72ZM357.51,103.18c1.3-2.08,1.31-4.63.33-6.75-.71-1.52-2.03-2.46-3.59-2.52s-3.03.62-3.86,2.08c-1.2,2.12-1.24,4.81-.08,6.94.77,1.41,2.11,2.21,3.58,2.25,1.38.03,2.76-.63,3.62-2Z"/>
    <path d="M238.35,106.39c-1.5-.97-1.91-2.63-1.66-4.25.54-3.56,5.12-4.58,8.74-4.51.29-2.05-.96-3.75-3.04-3.76-1.44,0-2.75.36-4.07,1.08l-.66-1.76c1.93-1.15,4.21-1.56,6.5-1.14,1.92.36,3.34,1.77,3.73,3.74.25,1.27.2,2.65.23,3.99l.17,7.21-2.37-.05-.23-1.9c-1.77,2.13-4.88,2.96-7.35,1.36ZM245.52,102.12l.05-2.66c-2.72,0-5.75.42-6.19,2.68-.19,1,.07,2.06.94,2.64,1,.66,2.29.54,3.37,0,.79-.39,1.8-1.49,1.82-2.66Z"/>
    <path d="M410.46,104.49l.47,1.86c-4.63,1.71-10.15,1.09-11.64-3.66-.78-2.47-.6-5.05.62-7.37,1.85-3.52,6.68-4.67,9.74-2.03,1.91,1.64,2.27,4.28,2.07,6.73h-10.26c-.16,2.78,1.75,5.05,4.56,5.13,1.52.04,2.55-.13,4.45-.65ZM409.21,98.07c-.09-2.02-.7-3.09-1.73-3.74-1.12-.71-2.69-.7-3.83-.03-1.36.81-1.99,2.24-2.19,3.82l7.74-.05Z"/>
    <path d="M309.48,104.49l.47,1.86c-4.63,1.71-10.15,1.09-11.64-3.66-.78-2.47-.6-5.05.62-7.37,1.85-3.52,6.68-4.67,9.74-2.03,1.91,1.64,2.27,4.28,2.07,6.73h-10.26c-.16,2.78,1.75,5.05,4.56,5.13,1.52.04,2.55-.13,4.45-.65ZM308.22,98.07c-.09-2.02-.7-3.09-1.73-3.74-1.12-.71-2.69-.7-3.83-.03-1.36.81-1.99,2.24-2.19,3.82l7.74-.05Z"/>
    <path d="M215.45,104.49l.47,1.86c-4.63,1.71-10.15,1.09-11.64-3.66-.78-2.47-.6-5.05.62-7.37,1.85-3.52,6.68-4.67,9.74-2.03,1.91,1.64,2.27,4.28,2.07,6.73h-10.26c-.16,2.78,1.75,5.05,4.56,5.13,1.52.04,2.55-.13,4.45-.65ZM214.19,98.07c-.09-2.02-.7-3.09-1.73-3.74-1.12-.71-2.69-.7-3.83-.03-1.36.81-1.99,2.24-2.19,3.82l7.74-.05Z"/>
    <path d="M415.86,106.39c-1.5-.97-1.91-2.63-1.66-4.25.54-3.56,5.12-4.58,8.74-4.51.29-2.05-.96-3.75-3.04-3.76-1.44,0-2.75.36-4.07,1.08l-.66-1.76c1.93-1.15,4.21-1.56,6.5-1.14,1.92.36,3.34,1.77,3.73,3.74.25,1.27.2,2.65.23,3.99l.17,7.21-2.37-.05-.23-1.9c-1.77,2.13-4.88,2.96-7.35,1.36ZM423.03,102.12l.05-2.66c-2.72,0-5.75.42-6.19,2.68-.19,1,.07,2.06.94,2.64,1,.66,2.29.54,3.37,0,.79-.39,1.8-1.49,1.82-2.66Z"/>
    <path d="M316.93,97.38l-.09,9.58h-2.68s-.08-14.84-.08-14.84h2.34s.2,2.41.2,2.41c1.85-2.82,5.81-3.64,8.45-1.34,1.12.98,1.76,2.67,1.76,4.18l.05,9.58h-2.7s-.03-9.06-.03-9.06c0-1.06-.46-2.35-1.23-3.02-1.06-.91-2.43-1-3.71-.47-.89.37-2.28,1.54-2.3,2.96Z"/>
    <path d="M367.65,94.18v12.78s-2.64,0-2.64,0v-12.76s-2.07-.04-2.07-.04l-.03-2.03,2.09-.02c0-1.74.07-3.51,1.02-4.96,1.41-2.17,4.13-2.67,6.59-1.79l-.38,2.07c-1.61-.6-3.36-.45-4.08,1.13-.48,1.05-.5,2.35-.51,3.56h3.6s0,2.06,0,2.06h-3.59Z"/>
    <path d="M444.28,106.85c-1.06.34-2.41.48-3.58.22-1.58-.35-2.7-1.83-2.71-3.49l-.06-9.39-2.28-.03-.02-2.04h2.31s0-3.55,0-3.55l2.63-.72v4.26s3.87,0,3.87,0v2.06s-3.88,0-3.88,0l.03,8.72c0,.73.57,1.88,1.29,1.99.78.12,1.46.06,2.29,0l.1,1.96Z"/>
    <path d="M338.02,106.85c-1.06.34-2.41.48-3.58.22-1.58-.35-2.7-1.83-2.71-3.49l-.06-9.39-2.28-.03-.02-2.04h2.31s0-3.55,0-3.55l2.63-.72v4.26s3.87,0,3.87,0v2.06s-3.88,0-3.88,0l.03,8.72c0,.73.57,1.88,1.29,1.99.78.12,1.46.06,2.29,0l.1,1.96Z"/>
    <path d="M270.13,106.85c-1.06.34-2.41.48-3.58.22-1.58-.35-2.7-1.83-2.71-3.49l-.06-9.39-2.28-.03-.02-2.04h2.31s0-3.55,0-3.55l2.63-.72v4.26s3.87,0,3.87,0v2.06s-3.88,0-3.88,0l.03,8.72c0,.73.57,1.88,1.29,1.99.78.12,1.46.06,2.29,0l.1,1.96Z"/>
    <rect x="430.02" y="85.17" width="2.7" height="21.8"/>
    <path d="M254.91,106.95h-2.63s-.08-14.78-.08-14.78l2.24-.07.23,2.81c.98-2,2.52-3.29,4.9-3l-.02,2.56c-2.33-.45-4.52,1.23-4.55,3.72l-.09,8.76Z"/>
  </g>
  <g>
    <polygon points="209.03 49.5 203.72 70.06 198.65 70.09 197.02 61.79 195.89 55.4 192.74 70.07 187.6 70.09 182.7 49.48 187.72 49.49 190.5 65.09 193.61 49.49 198.61 49.48 201.37 64.66 204.26 49.48 209.03 49.5"/>
    <path d="M313.19,64.83l-5.89-.04-1.47,5.26-4.87.04,6.29-20.6h6.15s6.39,20.57,6.39,20.57l-5.03.03-1.58-5.27ZM312.46,61.31l-2.29-8.3-2.17,8.32,4.46-.02Z"/>
    <path d="M283,61.1l-.04,8.98h-4.66s-.07-14.85-.07-14.85h3.97s.33,2.03.33,2.03c2.03-2.54,5.74-3.17,8.24-.95,1.18,1.04,1.76,2.83,1.77,4.41l.04,9.36h-4.7s0-8.64,0-8.64c0-.86-.4-1.84-1.1-2.35-.57-.42-1.77-.37-2.4-.04-.54.29-1.38,1.14-1.38,2.05Z"/>
    <path d="M336.1,55.23l.07,14.84h-3.95s-.33-2.05-.33-2.05c-1.94,2.5-5.47,3.15-7.99,1.18-1.25-.98-1.89-2.77-1.9-4.39l-.06-9.59h4.68s.05,8.83.05,8.83c0,1.34.89,2.37,2.02,2.49,1.06.11,2.67-.66,2.68-2.03l.07-9.29h4.66Z"/>
    <path d="M376.5,69.29c-1.43-1.06-1.84-2.67-1.66-4.31.42-3.79,4.7-4.98,8.71-4.99-.02-2.45-3.99-2.13-6.82-.86l-.89-2.85c2.36-1.16,5.03-1.53,7.68-1.14,3.01.44,4.7,2.82,4.74,5.85l.12,9.09h-4.11s-.36-1.5-.36-1.5c-2.01,1.93-5.1,2.43-7.44.7ZM380.01,66.67c.79.53,1.82.41,2.51.03.46-.25,1.12-1.03,1.14-1.61l.08-2.2-2.95.47c-.62.1-1.23.92-1.35,1.42-.13.55.05,1.54.57,1.89Z"/>
    <path d="M409.36,69.29c-1.43-1.06-1.84-2.67-1.66-4.31.42-3.79,4.7-4.98,8.71-4.99-.02-2.45-3.99-2.13-6.82-.86l-.89-2.85c2.36-1.16,5.03-1.53,7.68-1.14,3.01.44,4.7,2.82,4.74,5.85l.12,9.09h-4.11s-.36-1.5-.36-1.5c-2.01,1.93-5.1,2.43-7.44.7ZM412.88,66.68c.76.51,1.85.39,2.51.03.46-.26,1.12-1.04,1.14-1.61l.08-2.2-2.95.47c-.61.1-1.23.93-1.35,1.42s.05,1.54.58,1.89Z"/>
    <path d="M254.09,64.09c.51,3.3,5.05,3.18,8.49,2.2l.62,3.15c-4.45,1.49-10.48,1.41-12.63-2.68-1.19-2.27-1.22-4.94-.29-7.28,1.22-3.04,4.05-4.61,7.28-4.52,2.8.08,5.14,1.59,6.01,4.32.49,1.54.57,3.2.31,4.8h-9.78ZM259.69,60.92c-.02-1.46-.71-2.46-1.97-2.75-.82-.19-1.88,0-2.55.53-.59.47-.99,1.39-1.09,2.22h5.61Z"/>
    <path d="M213.55,64.09c.51,3.3,5.05,3.18,8.49,2.2l.62,3.15c-4.45,1.49-10.48,1.41-12.63-2.68-1.19-2.27-1.22-4.94-.29-7.28,1.22-3.04,4.05-4.61,7.28-4.52,2.8.08,5.14,1.59,6.01,4.32.49,1.54.57,3.2.31,4.8h-9.78ZM219.15,60.92c-.02-1.46-.71-2.46-1.97-2.75-.82-.19-1.88,0-2.55.53-.59.47-.99,1.39-1.09,2.22h5.61Z"/>
    <path d="M247.57,66.48l.05,3.51c-1.36.25-2.59.38-3.94.26-2.12-.19-3.76-1.89-3.79-4.08l-.1-7.51-1.98-.02v-3.41s1.99-.01,1.99-.01l.02-3.25,4.56-1.03-.02,4.28h3.35s0,3.41,0,3.41l-3.35.02v5.92c.01.51.4,1.61.84,1.74.64.2,1.3.17,2.38.16Z"/>
    <path d="M361.51,66.48l.04,3.51c-1.36.25-2.59.38-3.94.26-2.12-.19-3.76-1.89-3.79-4.08l-.1-7.51-1.98-.02v-3.41s1.99-.01,1.99-.01l.02-3.25,4.56-1.03-.02,4.28h3.35s0,3.41,0,3.41l-3.35.02v5.94c.01.49.4,1.57.85,1.72.63.21,1.29.17,2.37.16Z"/>
    <path d="M233.73,69.67c-2.78,1.06-5.67.79-8.44-.33l.82-3.34c2.55,1.27,5.97,1.58,6.03-.13.05-1.37-2.32-1.36-4.69-2.85-1.75-1.1-2.25-3.18-1.4-5.02,1.51-3.3,6.27-3.67,9.94-2.23l-.81,3.24c-2.16-.99-4.81-1.19-5.03.19-.07.4.4,1.04.82,1.21l2.93,1.18c1.76.71,2.79,2.28,2.75,4.03s-1.02,3.33-2.9,4.04Z"/>
    <path d="M347.67,69.67c-2.78,1.06-5.67.79-8.44-.33l.82-3.34c2.55,1.27,5.97,1.58,6.03-.13.05-1.37-2.32-1.36-4.69-2.85-1.75-1.1-2.25-3.18-1.4-5.02,1.51-3.3,6.27-3.67,9.94-2.23l-.81,3.24c-2.16-.99-4.79-1.2-5.03.2-.07.38.4,1.04.81,1.21l2.93,1.18c1.76.71,2.79,2.28,2.75,4.03s-1.02,3.33-2.9,4.04Z"/>
    <rect x="391.75" y="48.28" width="4.68" height="21.8"/>
    <path d="M271.21,70.07h-4.66s-.07-14.84-.07-14.84h3.97s.18,2.76.18,2.76c1.1-2.19,2.85-3.33,5.13-2.94l-.02,4.29c-2.39-.39-4.48.8-4.49,2.58l-.05,8.15Z"/>
    <path d="M369.08,70.07h-4.66s-.07-14.84-.07-14.84h3.97s.18,2.76.18,2.76c1.1-2.19,2.85-3.33,5.13-2.94l-.02,4.29c-2.39-.38-4.48.8-4.49,2.58l-.05,8.15Z"/>
    <rect x="400.15" y="55.23" width="4.68" height="14.85"/>
    <circle cx="402.6" cy="50.97" r="2.43"/>
  </g>
  <g>
    <path d="M289.68,33.41l-2.61.02-.06-9.77c0-1.14-.89-2.36-1.67-2.76-1.17-.61-2.46-.42-3.49.43-.8.66-1.5,1.88-1.5,2.98l-.02,9.12h-2.62s-.08-14.82-.08-14.82l2.28-.03.22,2.48c1.05-1.78,2.69-2.75,4.77-2.72,1.94.02,3.48,1.2,4.22,2.95,1.62-2.89,5.19-3.91,7.81-2.01,1.3.94,2.05,2.72,2.07,4.36l.07,9.79h-2.63s-.05-9.32-.05-9.32c0-1.17-.68-2.56-1.6-3.11-1.12-.67-2.34-.56-3.38.11-.73.47-1.67,1.64-1.67,2.75l-.03,9.56Z"/>
    <path d="M197.65,24.82h-4.23s.01-2.17.01-2.17h6.79s0,9.88,0,9.88c-6.51,2.37-14.52,1.4-16.48-5.65-.63-2.26-.67-4.57-.05-6.84,1.86-6.79,9.4-8.82,15.92-6.57l-.59,2.24c-5.05-2.01-11.04-.68-12.52,4.5-.64,2.25-.58,4.6.28,6.75,1.68,4.23,6.37,5.23,10.85,4.03l.03-6.17Z"/>
    <path d="M216.67,30.37c-2.43,3.85-7.96,4.41-11.15,1.39-1.92-1.82-2.36-4.41-2.11-6.89.39-3.9,3.43-6.6,7.38-6.54,2.87.04,5.47,1.56,6.47,4.33.88,2.45.92,5.32-.59,7.71ZM214.07,29.64c1.3-2.08,1.31-4.63.33-6.75-.71-1.52-2.03-2.46-3.59-2.52s-3.03.62-3.86,2.08c-1.2,2.12-1.24,4.81-.08,6.94.77,1.41,2.11,2.21,3.58,2.25,1.38.03,2.76-.63,3.62-2Z"/>
    <path d="M364.43,30.37c-2.43,3.85-7.96,4.41-11.15,1.39-1.92-1.82-2.36-4.41-2.11-6.89.39-3.9,3.43-6.6,7.38-6.54,2.87.04,5.47,1.56,6.47,4.33.88,2.45.92,5.32-.59,7.72ZM361.83,29.64c1.3-2.08,1.31-4.63.33-6.75-.71-1.52-2.03-2.46-3.59-2.52s-3.03.62-3.86,2.08c-1.2,2.12-1.24,4.81-.08,6.94.77,1.41,2.11,2.21,3.58,2.25,1.38.03,2.76-.63,3.62-2Z"/>
    <path d="M314.03,30.95l.47,1.86c-4.63,1.71-10.15,1.09-11.64-3.66-.78-2.47-.6-5.05.62-7.37,1.85-3.52,6.68-4.67,9.74-2.03,1.91,1.64,2.27,4.28,2.07,6.73h-10.26c-.16,2.78,1.75,5.05,4.56,5.13,1.52.04,2.55-.13,4.45-.65ZM312.78,24.53c-.09-2.02-.7-3.09-1.73-3.74-1.12-.71-2.69-.7-3.83-.03-1.36.81-1.99,2.24-2.19,3.82l7.74-.05Z"/>
    <path d="M245.91,30.95l.47,1.86c-4.63,1.71-10.15,1.09-11.64-3.66-.78-2.47-.6-5.05.62-7.37,1.85-3.52,6.68-4.67,9.74-2.03,1.91,1.64,2.27,4.28,2.07,6.73h-10.26c-.16,2.78,1.75,5.05,4.56,5.13,1.52.04,2.55-.13,4.45-.65ZM244.66,24.53c-.09-2.02-.7-3.09-1.73-3.74-1.12-.71-2.69-.7-3.83-.03-1.36.81-1.99,2.24-2.19,3.82l7.74-.05Z"/>
    <path d="M263.44,23.84l-.08,9.58h-2.68s-.08-14.84-.08-14.84h2.34s.2,2.41.2,2.41c1.85-2.82,5.81-3.64,8.45-1.34,1.12.98,1.76,2.67,1.76,4.18l.05,9.58h-2.7s-.03-9.06-.03-9.06c0-1.06-.46-2.35-1.22-3.02-1.04-.91-2.51-.96-3.68-.48-.93.38-2.31,1.55-2.32,2.97Z"/>
    <path d="M321.49,23.84l-.08,9.58h-2.68s-.08-14.84-.08-14.84h2.34s.2,2.41.2,2.41c1.85-2.82,5.81-3.64,8.45-1.34,1.12.98,1.76,2.67,1.76,4.18l.05,9.58h-2.7s-.03-9.06-.03-9.06c0-1.06-.46-2.35-1.22-3.02-1.05-.91-2.45-.99-3.7-.47-.91.38-2.29,1.55-2.31,2.96Z"/>
    <path d="M371.97,20.64v12.78s-2.64,0-2.64,0v-12.76s-2.07-.04-2.07-.04l-.03-2.03,2.09-.02c0-1.74.07-3.51,1.02-4.96,1.41-2.17,4.13-2.67,6.59-1.79l-.38,2.07c-1.61-.6-3.36-.45-4.08,1.13-.48,1.05-.5,2.35-.51,3.56h3.6s0,2.06,0,2.06h-3.59Z"/>
    <polygon points="230.23 18.63 233.08 18.59 227.28 33.4 224.67 33.42 219.05 18.61 221.94 18.55 226.1 30.62 230.23 18.63"/>
    <path d="M342.58,33.32c-1.06.34-2.41.48-3.58.22-1.58-.35-2.7-1.83-2.71-3.49l-.06-9.39-2.28-.03-.02-2.04h2.31s0-3.55,0-3.55l2.63-.72v4.26s3.87,0,3.87,0v2.06s-3.88,0-3.88,0l.03,8.72c0,.73.57,1.88,1.29,1.99.78.12,1.46.06,2.29,0l.1,1.96Z"/>
    <path d="M253.23,33.41h-2.63s-.08-14.78-.08-14.78l2.24-.07.23,2.81c.98-2,2.52-3.29,4.9-3l-.02,2.56c-2.33-.45-4.52,1.23-4.55,3.72l-.09,8.76Z"/>
  </g>
  <g>
    <path d="M96.09,124.59l-11.96-.02-11.89-.23-7.8-.35-16.29-.08c-6.93-.04-10.54-2.35-13.68-2.62L0,118.32c1.58-1.76,3.65-2.63,5.87-2.79l7.19-.52c3.34-.24,6.52-.89,9.48-2.49,3.89-2.09,3.51-14.79,3.18-20.06l-.46-7.24c-.21-3.3-.7-6.62.4-9.84l6.93-20.33c.61-1.79.4-3.71.29-5.58l1.08-10.81-1.7-13.82c-.28-2.26-.28-4.36.55-6.63,2.04,1.51,2.95,3.65,3.66,6.2l3.76-6.74c1.57,2.12,1.26,4.95.56,7.47l5.47,7.04c-1.25,1.93-3.71,2.64-4.75,5.31l-.44-2.12-1.42.12,3.09,6.54-1.66,4.53-2.61-1.17c1.09,3.04,3.61,5.03,6.49,6.29l.65-5.94c1.26,2.69.99,5.33.34,8.21l-5.46-.93c-.21-.03-.6.58-.53.78,2.52.81,5.16,1.83,7.82,1.96,2.08.1,4.01-.07,6.09-.1l-.86-1.75-1.51.62-5.37-.1c3.34-4.47.96-8.91-1.89-13.33,1.67-.19,3.03-.81,4.32-1.77,4.31-3.22,9.35-5.05,14.59-6.05.85,2.63-1.49,3.74-3.88,5.04-2.53,1.39-5.2,2.67-7.29,4.65-.91,1.37-.47,3.29.02,4.92l5.09-4.6c1.55-1.4,4.35.21,5.62,2.6l42.01-.03c.65-1.4,1.58-2.47,3.04-2.96.95-.32,1.93-.03,2.64.63l4.76,4.43c.4-1.44.96-2.54.79-3.81-.13-.98-1.3-2.05-2.14-2.56l-9.74-5.88c.06-.93.35-1.64.96-2.35,6.16,1.74,13.26,3.84,16.85,9.43-1.49,3.59-4.11,8.98-.79,10.85l-.49-3.43,3.32,1.25,5.13-5.62-2.5.77-1.96-4.88,3.52-6.4c-2.94.34-5.7-.61-7.06-3.17l5.83-7.54c-1.4-2.54-1.65-5.28.53-7.05l3.17,6.64,3.04-5.35c1.42.06,2.43,1.45,2.17,2.9l-1.75,9.75c-.47,2.6-.63,5.16-.4,7.78l1.36,15.42c.23,2.61,1.09,5.11,2.03,7.52l3.09,7.94c1.77,4.54,2.38,9.32,1.97,14.28-.46,5.65-.8,11.05-.61,16.74.09,2.69-.09,5.22.8,7.79.38,1.1.92,2.44,1.96,3.05,3.2,1.86,6.72,2.71,10.41,2.99l7.16.54c1.97.15,3.73.99,4.91,2.78l-11.86.92-18.36,1.69c-3.33.31-6.38,1.03-9.58,1.91-2.17.6-4.44.89-6.7.98l-8.3.31-11.63.15-4.22.27ZM74.94,86.36c.6.12,1.67-.1,2.04-.63l3.08-4.38c1.99-2.84,5.05-4.51,8.34-5.24l1.1-1.85,1.91,1.12c.9-.63,1.56-1.02,2.45-1.26,2.6,2.47,5.15,4.28,8.32,5.75.59.27,1.45,1.57,2.1,1.57l3.27-.1-3.43,7.38,3.75.94c2.86-9.5,4.24-18.96,3.69-28.71-.89-1.13-1.83-2.37-2.02-3.77-.25-1.85.96-3.19,2.01-4.54l-.11-5.3c-18.62-.73-37.01-.73-55.59,0l.04,5.67c1.65.97,2.09,2.8,1.54,4.62-1.39,4.66-1.54,10.15-1.21,15.1.32,5.87,1.43,11.43,3.48,17.09l7.14-1.95c.43-3.31,1.39-6.18,2.67-9.14l3.94-9.24c1.18-3.65,1.87-7.3,1.61-11.11l-7.38,1.6,4-5.42c.65-.88,1.96-1.48,2.94-1.45,1.05.03,2.18.64,2.88,1.58,2.89,3.88.34,11.94-1.06,17.08l-2.41,8.88c-.61,2.25-.72,5.4.91,5.73ZM113.5,55.62c3.23.15,5.72.22,8.46.08,2.01-.49,3.98-.76,5.43-2.45l-5.75.55-1.03,1.09-6.43-.83-.68,1.57ZM43.51,109.42l-2.07.87c.29.38.81.91,1.11.87l2.45-.31,10.78.72.17-2.63c5.79,1.95,11.41,3,17.5,2.29l-2.65-2.73c-2.97-3.06-5.69-6.21-7.98-9.9l12.16.87c2.86.2,5.53-.41,8.13-1.44,2.69.39,5.19,1.58,7.85,1.54,3.95-.06,7.77-.56,11.72-.88,1.16-.71,1.84-2.14,2.04-3.38-5.74-2.69-11.36,1.39-14.74.21-5.95-2.07-8.99-1.39-14.9.57-3.9-1.87-8.24-2.37-12.3-.92l-.04,2.98c-4.31-6.9-6.76-14.56-7.48-22.7l-.91-16.73c-2.47-1.03-4.95-1.24-7.42-.96l-.14,6.46-2.93.61c-.31.68-.58,1.37-.61,2.09l-.41,9.67-5.47-7.83c-.35,1.67.42,3.01,1.42,4.17,4.83,5.59,3.88,11.26,1.42,17.98-1.59,4.35-2.32,8.69-2.73,13.32l-1.03,11.68c5.42-1.68,10.28,1.09,15.65-.18-1.43-1.41-3.36-2.01-5.41-2.04l-8.44-.14,2.52-16.79c.53-3.54,1.13-6.88,1.86-10.37s.93-6.74.54-10.13c2.11,2.54,1.65,6.65.87,9.88-1.43,5.93-2.06,11.83-1.92,17.94l.09,3.96,1.29,1.38ZM123.89,109.64c1.84-3.57,1.65-8.2,1.24-12.27-.46-4.53-1.26-8.86-2.24-13.29-.71-3.2-.21-6.36,1.77-9.06l-.24-8.56c-.03-.95-1.35-1.97-2.03-2.43l-.91,9.21-.55-5.66-.63-9.62c-2.57-.57-5.09-.33-7.38.85l-.53,13.61c-.49,12.53-3.93,23.42-12.65,32.62l-5.9,6.22c6.17.53,11.85-.23,17.48-2.21l.95,2.28,7.11-.27c2.02-.08,3.69-.15,5.79,0l.74-1.65-2.01.22ZM131.05,115.8l-2.46-20.93c-.36-3.1-2.44-5.59-3.5-8.41-.51-3.89-.21-7.68,1.71-11.13l3.26-5.84c-2.83,1.77-4.43,4.63-5.23,7.69-.91,3.48-.72,6.98-.01,10.45l1.67,8.17,2.54,18.52c-4.25-1.22-10.28-1.23-13.9,1.1,4.62,1.96,10.18-1.15,15.92.39ZM149.92,117.4c-2.45-1.01-4.86-1.3-7.04-2.56-2.64-1.53-4.23-4.42-4.77-7.39l-1.28-7.02-1.39,1.81-.57-5.97c-.12-1.28-.74-2.44-1.28-3.71l-2.41,3.48c.12-2.76,1.83-4.53,3.26-6.84-2.56,1.03-4.72,2.93-3.82,5.79l1.3,4.18c.58,1.86-.11,4-.26,5.91l-.26,3.14,1.31-3.22.68,5.79c2.68-.99,4.81-.02,6.15,2.16,2.22,3.64,6.26,4.56,10.38,4.45ZM23.11,116.58c3.76-.52,6.15-4.56,6.67-8.43.64.88,1.31,2.09,2.35,2.6.89.43,2.15-.8,2.24-1.71l.98-10.1,1.05,4.57c1-3.94-.25-7.65-2.55-10.96-.58,1.54-1.04,3.13-1.33,4.81l-1.04,6.09-.73-6.82-1.54,9.15c-.3,1.79-.83,3.53-1.55,5.18-1.67,3.83-5.41,4.92-9.29,6.27l4.74-.66Z"/>
    <path d="M109.5,4.16c-3.33,1.86-4.13,4.81-4.25,8.52l2.76-4.75c.66-1.14,2.88-.85,4.03-.4-2.14,1.64-4.01,3.43-4.71,6.1,2.67.68,5.95,2.77,5.74,5.12-.18,1.92-1.03,3.52-2.02,4.98l3.01,1.89-1.15,5.15-1.99,3.63c-2.7-2.98-3.83-6.37-4.4-10.5-3.01,3.65-5.62,7.47-8.17,11.64,1.53.83,2.39,2.42,2.34,4.35-.16.54-.66,1.1-1.24,1.17-3.08.41-5.99.49-9.1.22-4.7-.42-9.18-.53-13.89-.21-2.88.2-5.74.35-8.57-.05-1.01-.37-.87-2.06-.62-2.81.39-1.18.97-1.91,2.15-2.35l-8.4-11.86c-.99,3.88-2.15,7.55-4.54,10.96l-3.64-9.65,3.19-.12c-.38-3.16-3.15-6.79-1-8.81,1.49-1.4,3.19-2.22,5.14-2.82-.87-2.6-2.87-4.28-4.89-6.02.96-.34,2.88-.83,3.6.06,1.02,1.3,1.74,2.76,2.7,4.17.63-3.27-1.13-5.94-3.65-7.7,1.45-.13,2.68-.1,4.02.19l.94,4.55c1.1-2.11.25-4.07-.93-6.31.89-.1,1.91.03,2.57.44l.58,4.8c.53-.61,1.33-1.92,1.15-2.54l-1.24-4.21,2.62,1.1,1.54-1.98.78,2.04,1.61-1.17.63,3.09,1.11-2.42,3.18,4.51c-5.52-.07-10.09,1.43-11.92,6.79-.74,2.15-.64,4.47-.2,6.69.74-1.66,1.16-3.2,2.22-4.46,3.2-3.82,8.99-3.78,13.08-.76.59.07,1.64-.53,1.88-1.11l-1.2-5.24,2.16.38-.19-1.99c1.77-1.15,3.22,1,4.78,3.02-.19.91-.79,1.63-1.59,2.25l1.37,3.03c2.6-1.63,5.42-2.49,8.54-2.23,3.66.3,6.38,2.66,7.29,6.39,2.04-5.25-1.19-11.01-6.7-12.21-1.73-.38-3.35-.48-5.16-.55l3.04-4.51,1.26,2.37.53-3.14h1.15s0,2.9,0,2.9c0,.32.31.81.67,1.13l.77-4.93c.92,2.09,1.03,3.97,1.35,6.16.24-.21.59-.86.6-1.21l.09-2.93c.02-.54,1.3-1.16,1.85-1.25l-.64,7.49c.94-.54,1.1-1.53,1.12-2.6l.05-2.82,2.66-.32c-1.01,2.37-1.95,4.56-.96,7.09l1.21-5.26c1.28-.55,2.62-.58,3.95-.19Z"/>
  </g>
</svg>