<?xml version="1.0" encoding="iso-8859-1"?>
<!-- Generator: Adobe Illustrator 30.6.0, SVG Export Plug-In . SVG Version: 9.03 Build 0)  -->
<svg version="1.1" id="Layer_1" xmlns="http://www.w3.org/2000/svg" xmlns:xlink="http://www.w3.org/1999/xlink" x="0px" y="0px"
	 viewBox="0 0 385.939 148.446" style="enable-background:new 0 0 385.939 148.446;" xml:space="preserve">
<g>
	<path d="M235.53,45.821c0.001,0.728-0.29,1.49-0.628,1.767c-1.232,1.011-4.24,0.912-5.371-1.204l-5.965-11.171
		c-0.25-0.124-0.812,0.387-0.813,0.646l-0.02,11.401c-0.325,0.533-1.199,0.932-1.689,0.966c-0.701,0.048-1.669-0.212-2.028-0.926
		l0.021-18.091c0.001-1.212,1.755-1.492,2.54-1.522c1.829-0.071,3.151,0.626,3.951,2.188l5.255,10.025
		c0.112,0.102,0.492,0.409,0.564,0.298l0.328-0.5l-0.011-10.946c0.487-0.798,1.304-1.093,2.064-1.064
		c0.57,0.021,1.772,0.489,1.773,1.31L235.53,45.821z"/>
	<path d="M272.037,73.846c0.002,1.594-1.12,2.132-2.416,2.147c-1.567,0.018-2.847-0.355-3.587-1.824l-5.788-10.925
		c-0.131-0.103-0.501-0.379-0.579-0.272l-0.354,0.483l0.017,11.244c-0.217,0.958-0.971,1.299-1.995,1.307
		c-0.558,0.004-1.863-0.29-1.862-1.111l0.029-17.873c0.003-1.536,5.031-2.346,6.438,0.442l5.281,10.016
		c0.114,0.099,0.505,0.383,0.581,0.273l0.342-0.494l-0.031-10.306c0.255-0.934,0.996-1.307,2.003-1.326
		c0.775-0.015,1.899,0.356,1.9,1.351L272.037,73.846z"/>
	<path d="M293.369,65.592c0.5,5.468-3.248,10.144-8.456,10.235l-6.449,0.113c-0.915,0.016-1.72-0.754-1.72-1.725V57.451
		c0-1.135,0.924-1.793,1.966-1.772l6.241,0.123C290.09,55.902,293.825,60.262,293.369,65.592z M288.834,68.071l0.038-4.381
		c-0.684-2.969-2.999-4.706-6.132-4.472c-0.378-0.215-1.725,0.15-1.724,0.719l0.01,11.546c0.001,0.656,1.528,1.02,1.962,0.76
		C285.905,72.591,288.081,70.899,288.834,68.071z"/>
	<path d="M267.101,46.742l-1.779-4.426c-0.353-0.878-1.128-1.675-1.901-2.152c-0.718-0.443-2.101-0.165-2.12,0.779l-0.119,6.17
		c-0.018,0.905-1.432,1.123-2.111,1.108c-0.877-0.02-2.115-0.3-2.115-1.362l0.008-17.391c0.001-1.354,1.516-1.801,2.541-1.777
		c2.439,0.057,4.73,0.006,7.005,0.454c2.612,0.515,4.296,2.546,4.4,5.058c0.095,2.293-0.882,3.879-2.655,5.195
		c-0.593,0.44,0.391,1.401,0.639,1.86c1.06,1.966,2.175,4.397,2.863,6.629c0.314,1.018-1.261,1.349-1.904,1.348
		C268.69,48.233,267.592,47.966,267.101,46.742z M263.247,36.661c1.471-0.221,2.542-0.642,3.061-1.965
		c0.318-0.81,0.071-1.926-0.538-2.527c-1.231-1.215-4.382-0.998-4.398-0.025l-0.058,3.462
		C261.3,36.495,262.406,36.787,263.247,36.661z"/>
	<path d="M245.815,71.443l-6.366,0.05c-2.027,1.15-0.831,4.899-4.181,4.493c-0.448-0.054-1.171-0.18-1.44-0.43
		c-0.28-0.259-0.287-1.088-0.134-1.532l5.711-16.524c0.561-1.623,1.731-2.091,3.334-2.032c1.686,0.062,2.629,0.612,3.18,2.207
		l5.932,17.179c-0.242,1.502-3.331,1.312-4.056,0.757C246.929,74.949,246.952,72.979,245.815,71.443z M243.899,67.916
		c0.358-0.001,0.878-0.698,0.747-1.093l-1.593-4.807c-0.053-0.159-0.332-0.46-0.446-0.556c-0.113-0.095-0.656,0.143-0.713,0.31
		l-1.716,5.025c-0.202,0.593,0.423,1.134,0.842,1.133L243.899,67.916z"/>
	<path d="M285.371,43.56l-5.495-0.024c-0.46-0.002-1.138,0.609-1.276,1.009l-0.96,2.779c-0.299,0.866-2.671,1.326-3.676,0.363
		c-0.314-0.301-0.299-1.035-0.111-1.581l5.649-16.346c0.59-1.708,1.581-2.101,3.285-2.125c1.97-0.028,2.773,0.712,3.393,2.541
		l5.682,16.761c0.357,1.054-1.408,1.333-2.059,1.304c-1.224-0.055-2.152-0.293-2.543-1.529l-0.683-2.158
		C286.469,44.207,285.785,43.562,285.371,43.56z M284.001,40.132c0.433-0.006,0.831-0.834,0.679-1.308l-1.522-4.751
		c-0.067-0.209-0.485-0.662-0.676-0.573c-0.153,0.071-0.491,0.418-0.546,0.589l-1.57,4.914c-0.183,0.573,0.494,1.175,0.929,1.169
		L284.001,40.132z"/>
	<path d="M208.255,39.288c-0.353,0.009-1.004,0.749-1.002,1.118l0.013,3.107c0.001,0.342,0.541,1.013,0.834,1.106l5.86,0.091
		c0.649,0.01,1.019,1.112,1.025,1.59c0.006,0.526-0.34,1.775-1.064,1.78l-9.317,0.054c-0.878,0.005-1.627-0.854-1.627-1.722
		l0.013-17.207c0.001-0.834,1.185-1.441,1.931-1.445l7.858-0.043c1.012-0.005,1.878,0.556,2.086,1.413
		c0.18,0.74-0.116,2.198-1.148,2.205l-5.321,0.036c-0.421,0.003-1.125,0.669-1.129,1.089l-0.021,2.281
		c-0.025,2.713,6.449-0.641,6.576,2.92c0.016,0.436-0.414,1.495-0.86,1.506L208.255,39.288z"/>
	<path d="M217.503,71.766c-1.375,4.45-6.953,5.358-11.052,3.768c-1.403-0.544-2.129-1.73-1.823-3.264
		c0.432-2.169,2.108,0.038,5.251,0.481c1.513,0.213,3.108-0.612,3.393-2.147c0.181-0.973-0.666-1.936-1.491-2.341l-3.539-1.74
		c-1.868-0.919-3.098-2.719-3.22-4.724c-0.124-2.037,0.43-3.834,2.052-5.012c2.239-1.627,4.961-1.883,7.533-0.979
		c1.385,0.487,2.366,1.482,2.031,3.125c-0.482,2.363-2.776-0.791-5.916,0.091c-0.476,0.134-1.072,0.708-1.228,1.094
		c-1.101,2.718,4.116,3.401,6.521,5.563C217.764,67.254,218.189,69.544,217.503,71.766z"/>
	<path d="M194.907,44.676c2.38-0.229,3.718-1.927,4.34-1.16c0.85,1.048,0.539,3.014-0.929,3.811
		c-4.13,2.242-10.303,1.168-12.459-3.487c-1.873-4.046-1.492-10.861,2.093-14.065c2.793-2.497,6.821-2.924,10.122-1.288
		c1.968,0.976,1.898,3.555,1.009,4.156c-0.904,0.611-2.663-2.041-6.093-1.149c-3.493,0.909-4.193,5.789-3.283,9.44
		C190.295,43.298,192.282,44.929,194.907,44.676z"/>
	<path d="M248.008,47c-0.001,1.092-1.439,1.209-2.131,1.207c-0.854-0.002-2.141-0.302-2.141-1.344l0.001-14.113
		c0-0.719-0.793-1.19-1.423-1.202l-2.866-0.058c-1.077-0.022-1.384-1.362-1.265-2.178c0.123-0.84,0.915-1.569,1.979-1.57
		l11.687-0.013c1.236-0.001,1.823,1.031,1.745,2.173c-0.058,0.852-0.558,1.64-1.496,1.644l-2.918,0.012
		c-0.634,0.003-1.152,0.522-1.152,1.194L248.008,47z"/>
	<path d="M231.301,72.33c0.883,0.019,1.153,1.24,1.169,1.758c0.016,0.518-0.392,1.76-1.046,1.764l-8.849,0.05
		c-0.778,0.004-1.425-1.179-1.424-1.915l0.034-17.2c0.178-0.779,1.427-1.277,2.033-1.286c0.879-0.013,1.876,0.357,2.341,1.212
		l-0.005,14.608c0.087,0.259,0.642,0.9,0.933,0.906L231.301,72.33z"/>
	<path d="M304.988,44.562c0.795,0.013,1.13,1.215,1.129,1.734c-0.001,0.52-0.37,1.764-1.062,1.769l-8.339,0.066
		c-1.141,0.009-1.734-0.897-1.732-1.95l0.034-17.214c0.002-1.109,1.412-1.274,2.126-1.283c1.24-0.015,2.029,0.517,2.07,1.726
		l-0.013,14.117c0.126,0.36,0.711,0.948,1.093,0.954L304.988,44.562z"/>
	<path d="M198.958,75.988c-0.588-0.048-1.307-0.156-1.61-0.366c-0.293-0.204-0.504-0.928-0.504-1.394l0.013-17.669
		c0.642-0.683,1.335-1.039,2.1-1.026c0.75,0.012,1.734,0.401,2.204,1.16l0.026,17.5C201.189,75.4,200.296,76.097,198.958,75.988z"/>
	<g>
		<path d="M215.924,94.433l-0.031,3.743c-0.003,0.362-0.749,0.949-1.106,0.997c-0.402,0.054-1.25-0.575-1.258-1.035l-0.079-4.484
			c-0.007-0.401-0.688-0.993-1.044-1.041c-0.401-0.055-1.345,0.575-1.365,1.017l-0.198,4.545c-0.016,0.371-0.714,0.94-1.064,0.999
			c-0.35,0.059-1.204-0.509-1.209-0.88l-0.08-6.347c-0.009-0.736,0.538-1.626,1.286-1.362c0.758,0.267,1.424,0.39,2.086,0.019
			c0.94-0.527,1.939-0.424,2.792,0.198c1.512,1.102,2.653-1.321,4.638-0.27c0.632,0.334,1.528,1.282,1.54,2.239l0.064,5.372
			c0.005,0.406-0.719,0.964-1.069,1.039c-0.351,0.075-1.231-0.496-1.238-0.906l-0.07-4.195c-0.01-0.623-0.499-1.457-1.199-1.425
			C216.557,92.688,215.93,93.631,215.924,94.433z"/>
		<path d="M244.105,96.39c-0.356,0.587,2.292,0.679,2.611,2.714c0.139,0.888-0.452,1.939-1.334,2.454
			c-1.501,0.877-3.409,0.831-5.046,0.262c-1.019-0.355-1.647-1.491-1.205-2.467c0.383-0.846,0.306-1.697,0.357-2.599
			c0.065-1.146,0.206-2.055-0.026-3.21c-0.182-0.909,0.44-2.026,1.053-2.513c0.919-0.729,1.913-0.713,3.058-0.665l1.882,0.079
			c0.511,0.021,1.376,0.628,1.227,1.08l-0.924,2.801C245.435,95.307,244.64,95.51,244.105,96.39z M243.639,93.242
			c0-0.518-0.42-0.938-0.939-0.938s-0.939,0.42-0.939,0.938s0.42,0.938,0.939,0.938S243.639,93.76,243.639,93.242z M243.927,99.4
			c-0.394-1.127-2.102-0.816-2.271,0.006c-0.138,0.668,0.701,0.996,1.218,0.974C243.317,100.36,244.086,99.855,243.927,99.4z"/>
		<path d="M296.594,98.42l-0.114-2.696c-0.015-0.36-0.214-1.089-0.492-1.281c-0.751-0.519-3.274-0.524-3.315,0.889l-0.083,2.839
			c-0.011,0.377-0.707,0.937-1.062,1.009c-0.4,0.081-1.339-0.575-1.339-1.009l0.008-9.727c0.088-0.374,0.992-0.969,1.354-0.894
			c0.363,0.075,1.018,0.656,1.036,1.034l0.111,2.414c0.045,0.982,2.241,1.331,3.324,0.647c0.295-0.186,0.436-0.91,0.454-1.331
			l0.079-1.883c0.013-0.322,0.727-0.875,1.048-0.868c0.367,0.007,0.915,0.454,1.324,0.874l0.006,9.752l-0.938,0.953
			C297.742,99.398,296.61,98.793,296.594,98.42z"/>
		<path d="M322.783,99.002c-1.4-0.462-0.18,2.457-1.755,3.154c-0.41,0.181-1.487-0.412-1.49-0.926l-0.052-9.538
			c-0.003-0.594,0.824-1.321,1.289-1.151c1.076,0.395,1.731,0.239,2.688-0.122c1.594-0.601,3.308,0.574,3.775,2.22
			c0.38,1.338,0.357,3.007-0.071,4.267C326.486,98.916,324.681,99.627,322.783,99.002z M324.002,96.861
			c1.457-1.036,1.39-3.311,0.011-4.167c-0.449-0.279-1.431,0.175-1.653,0.551c-0.611,1.039-0.605,2.391,0.132,3.244
			C322.736,96.772,323.642,97.117,324.002,96.861z"/>
		<path d="M117.805,88.526c0.189-0.606,1.099-1.055,1.485-0.912c0.463,0.172,0.989,0.855,0.835,1.324l-2.808,8.535
			c-0.284,0.862-0.854,1.574-1.587,1.687c-0.959,0.148-1.828-0.155-2.247-0.984l-3.127-9.43c0.035-0.362,0.535-1.045,0.895-1.137
			c0.459-0.117,1.184,0.278,1.614,0.666l1.952,6.139l0.473,0.438c0.132,0.122,0.629-0.297,0.701-0.527L117.805,88.526z"/>
		<path d="M203.418,94.127c-0.652-0.112-1.403,0.11-1.708,0.563c-0.28,0.415-0.278,1.287-0.004,1.717
			c0.837,1.314,3.576-0.324,4.081,1.581c0.114,0.429-0.708,1.16-1.116,1.159l-4.434-0.005c-0.416,0-1.201-0.709-1.201-1.157
			l-0.004-9.206c0-0.423,0.775-1.203,1.226-1.199l4.546,0.033c0.323,0.002,0.901,0.623,0.955,0.915
			c0.061,0.333-0.565,0.995-0.917,1.016l-2.555,0.15c-0.459,0.027-0.926,1.018-0.772,1.412c0.653,1.668,3.316,0.04,3.558,1.859
			C205.168,93.688,204.151,94.253,203.418,94.127z"/>
		<path d="M308.791,97.691c-1.628,2.25-5.226,2.174-6.73-0.03c-1.122-1.645-1.059-4,0.02-5.648c1.4-2.139,4.875-2.448,6.567-0.499
			C310.086,93.171,310.128,95.843,308.791,97.691z M305.869,97.071c1.031-0.28,1.337-1.564,1.351-2.369
			c0.016-0.87-0.334-2.084-1.428-2.279c-1.399-0.25-2.143,1.345-2.06,2.588C303.807,96.099,304.521,97.437,305.869,97.071z"/>
		<path d="M124.633,96.341c0.984,2.133,3.447,0.165,4.264,0.954c0.345,0.334,0.241,1.169-0.259,1.432
			c-1.79,0.942-4.058,0.84-5.608-0.514c-1.837-1.604-1.709-6.278,1.066-7.567c1.513-0.702,3.395-0.529,4.552,0.777
			c0.567,0.641,0.875,1.781,0.933,2.675c0.052,0.806-0.723,1.5-1.44,1.49l-2.682-0.037
			C125.168,95.547,124.496,96.044,124.633,96.341z M125.811,93.838c0.671,0.007,1.158-0.598,1.02-0.996
			c-0.099-0.285-0.698-0.592-1.123-0.595c-0.339-0.002-0.946,0.486-0.982,0.799C124.686,93.384,125.275,93.832,125.811,93.838z"/>
		<path d="M175.18,99.065c-2.362-0.392-3.419,0.842-5.164-0.448c-0.558-0.413-1.076-1.46-0.923-2.323
			c0.307-1.738,2.012-2.509,3.613-2.448c0.301,0.011,0.846-0.366,0.946-0.611s-0.329-0.849-0.595-0.909
			c-1.623-0.365-2.695,0.986-3.398-0.093c-0.496-0.761,0.848-1.99,3.533-1.993c1.736-0.002,3.033,1.224,3.049,2.962l0.045,4.791
			C176.289,98.423,175.601,99.135,175.18,99.065z M173.3,97.029c0.263-0.144,0.356-0.918,0.16-1.144
			c-0.195-0.226-0.906-0.299-1.138-0.103c-0.321,0.272-0.608,0.623-0.577,0.867s0.406,0.685,0.652,0.683
			C172.594,97.33,173.056,97.162,173.3,97.029z"/>
		<path d="M251.694,96.412c0.925,1.905,3.208,0.349,3.911,0.724c0.228,0.122,0.572,0.738,0.463,0.989
			c-0.656,1.508-5.028,1.66-6.354-0.231c-1.295-1.846-1.211-4.638,0.248-6.358c1.06-1.249,2.756-1.554,4.198-1.084
			c1.396,0.455,2.328,1.776,2.394,3.414c0.04,0.99-0.515,1.732-1.58,1.715l-2.436-0.039
			C252.216,95.538,251.547,96.11,251.694,96.412z M252.586,93.827c0.361-0.014,0.954-0.207,1.129-0.43
			c0.176-0.222-0.016-0.875-0.257-1.026c-0.24-0.151-0.936-0.216-1.163-0.042c-0.299,0.23-0.61,0.646-0.595,0.895
			C251.715,93.474,252.329,93.837,252.586,93.827z"/>
		<path d="M225.804,96.295c1.283,2.358,3.703-0.049,4.444,1.149c0.175,0.282-0.058,1.133-0.361,1.27
			c-1.994,0.905-4.842,0.713-5.899-0.75c-1.387-1.92-1.263-4.914,0.335-6.618c1.09-1.163,2.727-1.314,4.113-0.86
			c1.355,0.444,2.263,1.745,2.347,3.394c0.045,0.885-0.473,1.709-1.477,1.698l-2.598-0.029
			C226.409,95.546,225.727,96.05,225.804,96.295z M227.029,93.839c0.677,0.01,1.148-0.6,1.015-0.993
			c-0.1-0.297-0.716-0.634-1.108-0.618c-0.368,0.015-0.96,0.502-0.999,0.815C225.896,93.369,226.499,93.832,227.029,93.839z"/>
		<path d="M346.627,99.068c-2.211-0.479-4.407,1.127-5.704-1.088c-0.573-0.979-0.542-2.288,0.407-3.181
			c0.731-0.688,1.793-0.981,2.89-0.947c0.478,0.015,1.116-0.685,0.858-1.013c-1.271-1.607-3.21,0.663-3.946-0.593
			c-0.665-1.136,2.386-2.796,5.1-1.577c0.845,0.38,1.501,1.538,1.501,2.468l-0.001,4.947
			C347.732,98.523,346.989,99.146,346.627,99.068z M344.745,97.045c0.289-0.155,0.436-0.963,0.205-1.162
			c-0.198-0.171-0.814-0.309-1.059-0.217c-0.329,0.124-0.839,0.651-0.755,0.912c0.07,0.217,0.36,0.59,0.559,0.741
			C343.877,97.457,344.277,97.296,344.745,97.045z"/>
		<path d="M140.929,96.309c1.135,2.257,3.727,0.058,4.411,1.155c0.184,0.295-0.048,1.075-0.39,1.255
			c-1.752,0.922-3.923,0.833-5.461-0.413c-1.867-1.514-1.93-6.056,0.797-7.548c1.399-0.766,3.048-0.688,4.334,0.284
			c0.82,0.62,1.217,1.773,1.298,2.81c0.075,0.949-0.553,1.735-1.5,1.726l-2.67-0.026C141.481,95.548,140.801,96.054,140.929,96.309z
			 M142.1,93.863c0.635-0.018,1.199-0.496,1.109-0.947c-0.064-0.32-0.767-0.743-1.075-0.704c-0.309,0.039-0.803,0.435-1.057,0.828
			C140.9,93.313,141.634,93.877,142.1,93.863z"/>
		<path d="M192.627,91.877l-3.208,9.513c-0.435,0.334-0.913,0.673-1.25,0.832c-0.354,0.167-1.326-0.545-1.223-0.923l0.6-2.195
			l-2.691-7.58c-0.14-0.393,0.59-1.14,0.927-1.101c0.338,0.039,1.188,0.279,1.331,0.64l1.209,3.043
			c0.077,0.194,0.386,0.564,0.576,0.545s0.491-0.361,0.556-0.547l1.071-3.054c0.134-0.382,1.115-0.725,1.457-0.544
			C192.401,90.727,192.718,91.368,192.627,91.877z"/>
		<path d="M283.565,92.182l-2.949,8.875c-0.126,0.379-0.831,0.996-1.235,1.093c-0.36,0.086-0.977-0.04-1.146-0.26
			c-0.652-0.849,0.656-2.198,0.287-3.205l-2.595-7.074c-0.132-0.36,0.479-1.047,0.832-1.142c0.352-0.095,1.32,0.23,1.452,0.576
			l1.166,3.058c0.049,0.128,0.348,0.43,0.457,0.504c0.145,0.098,0.584-0.293,0.648-0.475l1.052-2.971
			c0.172-0.486,1.14-0.843,1.494-0.619C283.629,90.924,283.796,91.487,283.565,92.182z"/>
		<path d="M262.551,92.639c-0.749,0.193-1.318,1.037-1.33,1.685l-0.071,3.98c-0.006,0.322-0.73,0.812-1.036,0.878
			c-0.349,0.075-1.231-0.503-1.231-0.866l0.006-6.955c0.001-0.779,1.149-1.032,1.667-0.669c1.091,0.763,2.292-1.149,4.254-0.097
			c0.632,0.339,1.468,1.36,1.483,2.297l0.081,5.112c0.007,0.428-0.794,1.124-1.209,1.166c-0.476,0.048-1.313-0.651-1.313-1.168
			l0.003-4.169C263.858,93.294,263.31,92.443,262.551,92.639z"/>
		<path d="M161.988,93.54l-0.143,4.419c-0.015,0.475-0.647,1.111-1.042,1.203c-0.395,0.092-1.339-0.556-1.345-1.026l-0.073-5.991
			c-0.008-0.671,0.484-1.749,1.239-1.574c0.929,0.215,1.62,0.331,2.498-0.082c1.535-0.722,3.717,0.403,3.738,2.27l0.063,5.377
			c0.005,0.41-0.72,0.983-1.075,1.038c-0.399,0.062-1.273-0.575-1.278-0.997l-0.054-4.355c-0.006-0.461-0.643-1.099-1.042-1.196
			C163.077,92.527,162.003,93.075,161.988,93.54z"/>
		<path d="M337.087,94.824c0.053,2.855,1.722,2.037,2.017,3.061c0.071,0.246-0.221,0.8-0.466,0.976
			c-0.703,0.505-1.866,0.451-2.64,0.048c-0.589-0.307-1.209-1.25-1.239-2.076l-0.134-3.626l-1.047-1.72l1.401-2.559
			c0.13-0.238,0.688-0.599,0.959-0.591c0.317,0.009,0.866,0.434,1.018,0.724c0.835,1.595,1.675,1.463,2.14,2.328
			c0.117,0.217-0.368,0.754-0.605,0.854C337.366,92.713,337.065,93.641,337.087,94.824z"/>
		<path d="M314.11,99.264c-1.161-0.004-2.594-0.337-2.52-1.54c0.097-1.572,2.674,0.393,3.102-0.675
			c0.141-0.351-0.192-0.962-0.508-1.162l-1.821-1.152c-0.672-0.425-0.947-1.566-0.772-2.349c0.416-1.857,2.743-2.684,4.706-1.804
			c0.465,0.208,0.778,1.022,0.515,1.393c-0.645,0.911-2.074-0.298-2.577,0.577c-0.649,1.129,3.06,1.251,3.223,3.752
			C317.576,98.106,315.971,99.271,314.11,99.264z"/>
		<path d="M134.296,94.581c-0.059,3.047,2.013,2.36,2.111,3.286c0.022,0.208-0.175,0.67-0.355,0.861
			c-0.58,0.617-1.806,0.613-2.57,0.263c-0.583-0.267-1.322-1.162-1.343-1.99l-0.1-3.889l-1.279-1.599l1.698-2.615
			c0.143-0.22,0.572-0.568,0.796-0.566c0.269,0.002,0.76,0.429,0.888,0.708c0.862,1.876,2.005,1.401,2.278,2.349
			c0.081,0.283-0.441,0.855-0.739,0.935C134.512,92.637,134.317,93.488,134.296,94.581z"/>
		<path d="M271.362,96.358c1.115,1.747,2.566-0.295,3.389,0.672c0.232,0.272,0.141,0.995-0.179,1.315
			c-1.021,1.019-2.462,1.117-3.859,0.609c-1.143-0.415-1.977-1.632-2.176-3.106c-0.278-2.055,0.315-4.182,1.98-5.074
			c1.239-0.664,2.649-0.789,3.747,0.107c0.32,0.261,0.664,0.851,0.598,1.165c-0.315,1.49-2.388-0.637-3.56,1.205
			C270.799,94.039,270.841,95.541,271.362,96.358z"/>
		<path d="M352.373,98.092c0,0.419-0.748,1.028-1.099,1.083c-0.35,0.055-1.185-0.522-1.26-0.895l-0.017-10.388
			c-0.001-0.484,0.676-1.061,1.06-1.111c0.482-0.063,1.318,0.516,1.318,1.097L352.373,98.092z"/>
		<path d="M180.832,98.246c-0.014,0.418-0.916,1.017-1.257,0.919c-0.34-0.097-0.984-0.627-0.987-1.015l-0.05-6.227
			c-0.005-0.586,0.458-1.47,1.044-1.363c0.94,0.172,1.626,0.261,2.467-0.09c0.655-0.273,1.264-0.005,1.583,0.559
			c0.947,1.678-2.613,1.521-2.672,3.342L180.832,98.246z"/>
		<path d="M149.374,99.119c-1.203-0.103-1.282-1.295-1.287-2.126l-0.028-4.839c-0.002-0.377,0.171-1.085,0.393-1.329
			c0.661-0.726,1.813,0.25,2.9-0.291c0.822-0.409,1.409-0.173,1.795,0.507c0.936,1.652-2.631,1.586-2.656,3.324l-0.052,3.613
			C150.434,98.343,149.782,99.154,149.374,99.119z"/>
		<path d="M235.378,98.129c-0.005,0.317-0.656,0.884-0.94,1.02c-0.325,0.155-1.267-0.451-1.276-0.858l-0.122-5.876
			c-0.017-0.814,0.241-1.968,1.276-1.834c2.383,0.307,2.997-0.901,3.759,0.445c0.347,0.612-0.138,1.46-0.87,1.612
			c-1.084,0.226-1.763,0.976-1.779,2.094L235.378,98.129z"/>
		<path d="M332.108,98.242c-0.002,0.415-0.86,0.966-1.215,0.938s-1.174-0.544-1.178-0.945l-0.056-6.405
			c-0.005-0.572,0.542-1.16,1.031-1.331c0.438-0.154,1.456,0.397,1.453,0.988L332.108,98.242z"/>
		<path d="M157.194,98.11c-0.22,0.424-0.806,1.044-1.168,1.064s-0.945-0.454-1.3-0.842l-0.003-7.025
			c0.333-0.34,0.799-0.77,1.109-0.843c0.355-0.083,0.98,0.455,1.321,0.835L157.194,98.11z"/>
		<circle cx="330.899" cy="88.328" r="1.266"/>
		<circle cx="155.983" cy="88.327" r="1.255"/>
	</g>
	<path d="M368.041,79.441c0.107-1.978,4.611-1.765,6.885-6.191c1.119-2.178,2.265-4.411,2.984-6.797
		c0.74-2.456,0.412-5.029,0.393-7.554l-0.06-7.95c-0.003-0.372-0.106-0.992-0.294-1.214c-0.22-0.259-0.864-0.479-1.405-0.479
		l-59.315,0.002c-0.247-0.125-0.756-0.599-0.779-0.841c-0.027-0.282,0.428-0.836,0.728-0.999c3.029-1.648,6.758-0.026,10.11-0.882
		c1.045-0.267,1.962-1.396,1.768-2.472c-0.372-2.064-2.05-3.417-4.012-3.876c-2.328-0.544-5.214-1.408-5.389-3.505
		c-0.169-2.025,2.904-3.656,3.486-5.708c0.469-1.652,0.898-2.787,2.514-3.654c0.829-0.444,2.332-1.29,2.593-2.23
		c0.471-1.696-1.838-3.246-1.66-4.528c0.041-0.293,0.74-0.743,1.058-0.675c2.303,0.494,3.383,2.685,5.693,3.559
		c1.606,0.608,2.99,1.335,4.058,2.71l3.981,5.12c0.935,1.202,2.333,1.961,3.903,2.082c2.372,0.182,4.781,0.235,7.174-0.083
		c1.799-0.24,3.431-1.332,5.056-2.078l6.25-2.866c6.018-2.759,14.152,3.211,16.673,9.667c1.29,3.303,1.526,6.744,1.543,10.249
		l0.08,16.607l-0.253,2.381c-0.782,3.963-3.012,7.252-5.435,10.336C373.303,81.474,367.915,81.77,368.041,79.441z"/>
	<g>
		<path d="M79.189,0.02l2.16,0.208c3.72,0.358,6.741,4.245,8.107,4.238l11.061-0.059c1.974-0.011,3.349,1.499,3.39,3.438
			c0.035,1.639-0.075,3.381-1.039,4.764c-1.245,1.786-3.969,2.658-3.419,3.258c0.616,0.673,2.975,0.178,3.429,1.984
			c0.594,2.36-2.181,3.516-4.963,4.183l-6.747,1.618c-1.429,0.343-2.705,0.778-3.208,2.368c-0.854,2.7-1.309,5.724-1.09,8.621
			c0.026,0.339,0.425,1.026,0.592,1.341c2.744,2.736,5.432,5.219,8.611,7.546l24.815,0.001c1.406,0,2.663,0.173,3.715,1.16
			c0.975,0.915,1.745,2.732,1.744,3.954c0,0.268-0.8,0.576-0.968,0.414c-0.815-0.784-1.267-3.766-3.107-3.769l-26.54-0.046
			c-3.468-2.465-6.55-5.196-9.459-8.299c-0.683-0.729-0.976-1.76-0.99-2.729c-0.045-3.202,0.305-6.275,1.44-9.2
			c0.56-1.444,1.603-2.366,3.102-2.707l6.253-1.423c2.185-0.497,5.741-1.668,5.083-2.355l-0.643-0.671l-6.705,0.285
			c-0.275-0.162-0.697-0.525-0.699-0.783c-0.002-0.215,0.356-0.709,0.561-0.811c2.193-1.099,4.586-2.264,6.608-3.606
			c1.59-1.056,2.091-2.54,2.114-4.42c0.01-0.851-0.33-2.408-1.504-2.443C97.396,5.975,93.911,5.978,90.4,6.085
			c-1.12,0.034-1.925,0.1-2.864-0.643c-4.022-3.188-5.532-4.246-10.923-3.657c-1.166,0.127-2.661,0.662-3.598,1.332l-6.033,4.315
			c-2.202,1.575-4.373,3.255-5.992,5.494c-2.111,2.92-3.352,6.452-3.89,9.96c-0.311,2.031,1.24,3.505,3.12,3.478
			c2.437-0.035,4.424-1.207,6.243-2.695l8.713-7.124c0.28-0.229,1.338-0.023,1.295,0.294c-0.036,0.272-0.243,0.741-0.424,1.055
			l-7.42,6.038c-0.482,0.462-1.551,1.172-1.7,1.769c-0.581,3.049-1.07,5.841-1.863,8.771c-0.449,1.659-1.381,2.996-2.465,4.251
			l-3.679,4.258c-3.766,4.36-6.778,9.028-9.728,13.985l-8.938,15.017c-1.827,3.07-6.828,10.488-9.298,10.823
			c-3.589,0.486-7.083,0.082-10.507-0.963c-3.839-1.172-6.969-3.68-8.799-7.261L4.605,60.795c-0.135-0.264-0.486-0.601-0.68-0.739
			c-0.157-0.112-0.792,0.089-0.903,0.24c-2.019,4.642-2.058,9.956,0.544,14.505c2.864,5.008,6.707,9.343,11.29,12.849
			c2.552,1.952,5.229,3.224,8.433,3.589l6.895,0.785l2.409,0.453c0.726,0.136,1.752,1.029,1.638,1.842
			c-0.541,3.866-1.655,7.953,0.756,10.616c2.254,2.49,4.401,4.828,6.38,7.536c2.521,3.45,2.219,5.588,1.384,9.687
			c-0.465,2.283-1.726,3.996-3.478,5.367c-1.674,1.569-2.071,3.798-0.512,5.544c1.308,3.386,2.419,6.74,3.383,10.255
			c0.53,1.93,1.802,3.264,4.007,3.467c2.955,0.272,6.006,0.231,9.029,0.071c0.86-0.046,1.83-0.832,2.139-1.416
			c0.393-0.74,0.19-1.881-0.317-2.607c-1.091-1.56-3.057-2.113-4.934-1.775c-1.574,0.283-2.994-0.397-3.671-1.863l-2.487-5.387
			c-0.718-1.556-0.319-3.089,1.09-4.065c8.318-5.764,11.481-6.726,17.462-16.058c1.354-2.113,2.361-4.402,2.646-6.863
			c0.439-3.788,0.17-7.435-1.648-10.782c-1.317-2.425-5.045-4.101-2.927-6.831c1.358-1.75,2.72-3.438,4.297-5.055l10.042-10.297
			l6.931-6.286c3.174-2.879,6.286-5.615,9.229-8.733c2.286-2.422,1.422-6.039,2.769-5.465c0.351,0.15,0.598,0.724,0.569,1.091
			c-0.205,2.613-1.21,4.575-3.022,6.378c-8.02,7.981-17.067,14.952-24.817,23.809l-4.611,5.271c-0.408,0.467-0.351,1.42,0.03,1.845
			l2.058,2.296c2.235,2.992,2.876,6.664,2.84,10.331c-0.034,3.394-0.784,6.327-2.541,9.235c-5.884,9.739-9.116,11.074-17.773,16.933
			c-1.07,0.724-1.656,1.613-1.064,2.884l2.353,5.053c0.872,1.872,4.288-0.312,7.502,2.351c1.723,1.427,2.392,3.928,1.104,5.888
			c-0.626,0.954-2.083,1.71-3.316,1.702l-9.08-0.058c-3.008-0.019-4.671-2.117-5.449-4.754c-0.962-3.263-1.635-6.651-3.304-9.616
			c-1.505-2.675-1.546-5.577,1.063-7.698c1.607-1.306,2.734-3.1,3.052-5.28c0.474-3.26,0.867-4.687-1.359-7.721
			c-1.771-2.414-3.673-4.568-5.718-6.753c-3.299-3.525-2.535-6.753-1.797-11.536c0.126-0.817-0.971-1.214-1.68-1.28
			c-3.265-0.305-6.366-0.602-9.56-1.227c-7.026-1.376-14.366-9.47-18.276-15.54c-3.644-5.656-4.043-12.623-0.817-18.545
			c0.217-0.398,0.945-0.839,1.323-0.852c1.425-0.051,3.037,3.578,4.201,5.849l5.435,10.599c2.908,5.671,9.458,7.319,15.652,7.376
			c1.643,0.015,2.926-0.471,4.031-1.769c1.806-2.121,3.45-4.328,4.988-6.732c3.138-4.904,6.016-9.73,8.9-14.818
			c4.041-7.127,8.5-13.693,14.106-19.681c1.524-1.627,2.624-3.359,3.087-5.544l1.046-4.947c0.081-0.383-0.905-0.763-1.277-0.593
			c-1.744,0.799-3.753,1.052-5.545,0.311c-1.88-0.778-2.759-2.931-2.499-4.969c0.801-6.27,3.694-11.633,8.851-15.357l7.64-5.517
			c1.62-1.17,3.539-1.532,5.363-1.794L79.189,0.02z"/>
		<path d="M155.757,74.698l-0.28-6.947l-0.644-13.472l-0.333-6.887l-0.191-4.073l-0.271-5.987l-0.226-4.074
			c-0.11-1.99-0.006-3.854-0.456-5.826c-1.027,0.25-1.015,0.99-1.259,1.752l-3.901,12.163l-3.042,9.376
			c-0.375,1.157-1.241,1.535-2.438,1.454l-3.415-0.232c-0.683-0.046-1.356-1.039-1.541-1.757l-0.627-2.433
			c-0.062-0.241-0.567-0.64-0.794-0.64c-0.272,0-0.734,0.366-0.868,0.62l-1.276,2.426c-0.319,0.607-1.051,1.902-1.797,1.914
			l-3.404,0.053l-6.068,0.018l-31.235,0.041c-0.683,0.304-1.106,1.067-1.561,1.589l-7.035,8.072
			c-0.175,0.201-0.682,0.496-0.929,0.487s-0.67-0.316-0.868-0.542l-5.376-6.142c-1.379-1.575-2.664-3.094-3.215-5.202
			c-0.725-2.771,1.331-5.747,4.265-5.694c1.827,0.033,3.252,1.339,4.591,2.376c1.28,0.992,2.594-2.279,6.023-2.375
			c1.951-0.055,3.8,1.633,4.136,3.459c0.139,0.753,0.347,1.548,0.995,1.936l29.613,0.002l7.95,0.066
			c0.893,0.007,1.805-0.203,2.256-1.027l3.313-6.052c0.155-0.282,0.71-0.671,1.007-0.693c0.298-0.021,0.869,0.442,0.948,0.731
			l1.398,5.086c0.334,1.216,0.86,1.874,2.213,1.89c0.428,0.005,1.266,0.007,1.6-0.173c0.33-0.178,0.627-0.843,0.778-1.296
			l1.739-5.225l3.889-12.146l3.774-11.792c0.105-0.329,0.807-0.752,1.088-0.63s0.842,0.692,0.856,1.034l0.181,4.58l0.251,5.319
			l0.321,5.087l0.225,5.987l0.212,3.598l0.216,6.066l0.508,9.985l0.227,4.224l0.202,6.423l0.335,0.527
			c0.089,0.141,0.559-0.115,0.635-0.224l2.928-12.417l0.623-2.546l1.294-4.883c0.627-2.366,5.502-0.321,8.144-1.753l3.562-2.627
			c0.796-0.587,1.772-0.598,2.587,0.011l2.647,1.977c0.438,0.327,1.197,1.187,1.885,1.186l29.605-0.028l2.059-0.028l3.986-0.011
			l3.894,0.003c2.624,0.002,5.125-0.091,7.811-0.091l147.128-0.031l0.675,0.881c0.154,0.201-0.377,0.695-0.665,1.001l-64.649,0.15
			l-21.951,0.038l-5.344,0.016l-75.607,0.202l-27.658,0.111l-3.921-3.114c-0.602-0.478-1.602-0.599-2.198-0.111l-2.024,1.658
			c-0.658,0.539-1.52,1.502-2.493,1.518l-4.98,0.084c-0.473,0.008-1.077,1.006-1.205,1.408l-2.304,9.686l-4.202,17.295
			c-0.149,0.615-1.089,1.449-1.489,0.889c-0.723-1.012-0.638-2.466-0.687-3.664L155.757,74.698z"/>
	</g>
</g>
</svg>
