<?xml version="1.0" encoding="UTF-8"?>
<svg id="Layer_1" data-name="Layer 1" xmlns="http://www.w3.org/2000/svg" viewBox="0 0 298.24 101.3">
  <polygon points="118.54 97.14 118.47 84.39 113.77 97.07 112.4 97.07 107.7 84.39 107.62 97.14 106.2 97.14 106.2 82.63 108.34 82.64 113.13 95.44 117.83 82.64 119.92 82.61 119.92 97.14 118.54 97.14"/>
  <polygon points="39.8 97.14 39.72 84.37 35.02 97.06 33.65 97.08 28.97 84.57 28.86 97.1 27.48 97.15 27.48 82.62 29.6 82.65 34.38 95.43 39.09 82.63 41.19 82.62 41.19 97.14 39.8 97.14"/>
  <g>
    <polygon points="99.78 65.64 95.98 65.66 95.98 46.38 99.35 46.37 109.38 59.77 109.14 46.4 112.92 46.32 112.95 65.6 109.51 65.63 99.49 52.49 99.78 65.64"/>
    <polygon points="16.95 65.52 13.17 65.7 13.17 57.78 4.48 57.76 4.48 65.62 .81 65.6 .81 46.33 4.48 46.37 4.48 54.21 13.15 54.22 13.16 46.39 16.93 46.37 16.95 65.52"/>
    <polygon points="148.81 51.04 152.43 51.06 147.51 65.57 144.95 65.61 141.56 57.84 138.36 65.6 135.79 65.58 130.94 51.08 134.52 51.03 137.49 60.26 140.48 53.46 142.73 53.21 145.86 60.13 148.81 51.04"/>
    <path d="M50.3,65.57l-3.51.15-.15-1.85c-1.42,1.44-3.21,2.22-5.29,2.04-1.78-.16-3.58-1.25-4.67-3.01-1.73-2.81-1.74-6.39,0-9.21,1.04-1.68,2.81-2.66,4.47-2.89,2.17-.3,4.02.37,5.49,1.9l.12-1.68,3.52.03v14.52ZM41.5,62.53c2.05.81,4.21-.27,4.98-2.2.48-1.22.47-2.64.05-3.87-.65-1.88-2.52-2.89-4.4-2.54-1.7.32-2.95,1.89-3.12,3.78s.51,4.05,2.49,4.83Z"/>
    <path d="M80.67,65.66l-.12-9.87c-.02-1.37-1.69-2.06-2.85-1.95-1.59.15-3.11,1.24-3.11,2.91l-.03,8.91-3.54-.04-.03-20.35,3.58-.05.02,7.53c2.07-1.99,4.93-2.77,7.44-1.24,1.1.67,2.07,2.22,2.08,3.6l.1,10.53-3.52.02Z"/>
    <path d="M127.69,61.23l1.88,2.47c-1.8,1.58-3.93,2.24-6.29,2.22-4.81-.04-8.13-4.15-7.33-8.85.46-2.71,2.14-4.98,4.45-5.83,2.79-1.02,5.65-.61,7.7,1.4,1.72,1.69,2.22,4.09,1.85,6.49h-10.55c.21,1.89,1.67,3.19,3.48,3.52s3.27.04,4.81-1.42ZM126.69,56.74c-.26-1.87-1.79-3.01-3.66-2.91-1.75.1-3.27,1.09-3.58,2.92h7.24Z"/>
    <path d="M31.12,61.22l1.95,2.48c-2.48,1.99-5.62,2.79-8.61,1.85-3.5-1.09-5.45-4.26-5.12-7.86.24-2.59,1.6-4.88,3.61-5.99,2.41-1.33,5.18-1.37,7.44.01,2.58,1.59,3.56,4.62,3.02,7.42h-10.61c.37,1.98,1.82,3.3,3.78,3.57,1.66.23,3.15-.09,4.54-1.48ZM30.14,56.75c-.27-1.85-1.76-2.98-3.58-2.91s-3.36,1.08-3.68,2.91h7.26Z"/>
    <polygon points="65.69 65.61 62.27 65.6 62.27 54.32 59.43 54.3 59.39 51.07 62.28 51.02 62.28 47.41 65.68 47.41 65.68 51.04 68.86 51.03 68.88 54.27 65.68 54.33 65.69 65.61"/>
    <g>
      <path d="M263.95,65.72l-.35-1.59c-1.45,1.42-3.32,2.01-5.49,1.72-1.69-.22-3.51-1.3-4.57-3.09-1.76-2.99-1.66-6.85.52-9.62,2.38-3.03,6.7-3.15,9.6-.66l.02-7.26,3.53.06.02,15.56c0,1.91,1.37,3.33,2.49,4.75l-5.78.14ZM262.59,61.74c1.41-1.61,1.56-3.95.69-5.77-.72-1.53-2.18-2.3-3.79-2.18-1.35.11-2.7,1.02-3.24,2.51-.96,2.66,0,5.87,2.68,6.54,1.32.33,2.71,0,3.67-1.1Z"/>
      <polygon points="177.27 65.65 162.01 65.66 162.02 63.01 171.86 49.87 162.69 49.78 162.75 46.31 176.97 46.32 176.85 49.11 167.13 62.14 177.28 62.22 177.27 65.65"/>
      <path d="M210.35,65.52l-3.48.23-.13-1.86c-2.03,1.93-4.98,2.73-7.52,1.38-2.35-1.25-3.56-3.73-3.75-6.36s.65-5.1,2.66-6.74c2.62-2.15,6.27-1.9,8.59.55l.12-1.71,3.49.07.04,14.44ZM200.62,62.03c1.34,1.12,3.2.92,4.45.11s1.83-2.33,1.78-3.97-.72-3.04-1.96-3.76c-1.33-.78-3.02-.82-4.3.26-2.14,1.8-2.22,5.47.03,7.35Z"/>
      <path d="M234.32,65.57l-3.45.16-.17-1.86c-1.43,1.45-3.19,2.21-5.27,2.05-1.8-.14-3.57-1.23-4.69-3-1.72-2.71-1.71-6.28-.07-9.07,1.01-1.72,2.76-2.77,4.38-3.01,2.19-.32,3.94.19,5.58,1.78l.22-1.6,3.47.07v14.49ZM230.69,59.87c.5-1.83.14-3.72-1.14-4.98s-3.14-1.33-4.55-.51-1.96,2.35-1.97,4.04c-.02,2.06,1.19,3.9,3.14,4.3s3.95-.73,4.53-2.85Z"/>
      <path d="M191.21,61.18l1.8,2.54c-2.84,2.39-6.73,2.94-9.99,1.18-2.55-1.37-3.8-4.11-3.68-6.97.1-2.37,1.24-4.52,2.94-5.78,1.99-1.48,4.57-1.87,6.9-1.03,3.27,1.18,4.97,4.7,4.26,8.01h-10.54c.13,1.68,1.43,3.05,3.17,3.44,1.85.42,3.56.17,5.16-1.4ZM190.15,56.71c-.33-2-1.64-2.8-3.27-2.86-1.88-.07-3.57.98-3.92,2.91l7.19-.05Z"/>
      <path d="M241.01,55.95l-.16,9.69h-3.53s.02-14.58.02-14.58l3.25-.04.34,1.71c1.95-1.97,4.74-2.7,7.23-1.29,1.22.69,2.18,2.23,2.2,3.73l.14,10.41-3.6.1-.02-9.18c0-1.57-.95-2.69-2.72-2.66-1.03.02-3.13.68-3.16,2.11Z"/>
      <rect x="213.6" y="45.22" width="3.53" height="20.43"/>
    </g>
    <rect x="53.51" y="45.22" width="3.61" height="20.43"/>
  </g>
  <path d="M243.97,89.44c1.75.33,2.72,1.63,2.8,3.47.1,2.21-1.26,4.15-3.66,4.18l-7.07.08v-14.56s6.88.13,6.88.13c2.16.04,3.48,2.08,3.13,4.07-.13,1.19-.6,2.02-2.08,2.63ZM244.72,86.09c0-1.24-.92-2.15-2.05-2.18l-5.19-.15v5.3s4.93-.13,4.93-.13c1.46-.04,2.47-1.3,2.32-2.84ZM245.38,93.23c.18-1.57-.89-2.88-2.4-2.91l-5.51-.13v5.82s5.43-.1,5.43-.1c1.45-.03,2.52-1.1,2.48-2.67Z"/>
  <polygon points="166.77 97.08 165.43 97.15 165.41 89.99 156.79 90 156.79 97.11 155.39 97.14 155.39 82.64 156.78 82.59 156.8 88.82 165.42 88.82 165.42 82.62 166.77 82.62 166.77 97.08"/>
  <path d="M192.71,86.87c.09-.27,1.15-.21,1.21-.02l-3.31,10.22-1.34.08-2.3-8.84-2.34,8.82-1.49-.03-3.16-10.37,1.22.05,2.68,8.67,2.42-8.7,1.39.02,2.3,8.55,2.71-8.45Z"/>
  <path d="M171.06,97.08c-1.35-.56-1.81-1.8-1.68-3.07.11-1.06.96-2.19,2.27-2.44l4.69-.9c.57-.18.47-1.67.18-2.15-.38-.63-1.31-1.03-2.14-1.05-1.38-.04-2.62.27-3.1,1.59l-.24.65c-.07.19-.67.16-1.11.12-.1-1.17.59-2.4,1.82-2.96,1.14-.52,2.53-.59,3.77-.36,1.44.28,2.42,1.35,2.44,2.82l.07,6.94h1.07c.16-.02.24.44.2.6-.15.6-1.73.54-2.12.12-.21-.23-.34-.75-.47-1.21-1.37,1.5-3.6,2.15-5.63,1.3ZM173.11,96.33c1.42-.08,2.86-.51,3.39-1.87.28-.71.26-1.91.25-2.67l-4.24.63c-1.21.18-2.02,1.2-1.87,2.23.16,1.12,1.09,1.76,2.46,1.68Z"/>
  <path d="M250.51,97.06c-1.3-.56-1.78-1.81-1.65-3.04.12-1.12,1.07-2.24,2.4-2.48l4.54-.82c.54-.2.5-1.72.19-2.19-1.03-1.53-4.42-1.46-5.18.41l-.33.81c-.08.19-.72.13-1.11.09-.02-1.15.63-2.38,1.82-2.93,1.28-.59,2.78-.65,4.12-.29s2.1,1.38,2.11,2.7l.06,6.94,1.07.03c.22,0,.22.8.02.88-.37.14-1.18.2-1.53.08-.43-.15-.75-.87-.9-1.45-1.35,1.51-3.62,2.15-5.64,1.27ZM252.81,96.33c1.37-.14,2.79-.62,3.23-1.99.22-.68.22-1.88.23-2.54l-4.1.6c-1.31.19-2.19,1.11-2.01,2.32.17,1.12,1.21,1.76,2.64,1.62Z"/>
  <path d="M91.13,97.33c-1.59-.34-2.43-1.5-2.44-2.88,0-1.3.81-2.59,2.33-2.88l4.67-.88c.54-.27.47-1.67.18-2.14-.99-1.61-4.48-1.41-5.16.31l-.32.82c-.07.19-.65.17-1.1.16-.13-1.11.51-2.32,1.65-2.9,1.38-.7,3.01-.75,4.5-.26,1.05.34,1.81,1.34,1.83,2.48l.1,7.12,1.08-.03c.16,0,.2.46.17.62-.1.57-1.61.57-2.1.13-.23-.21-.34-.76-.45-1.23-1.24,1.3-3.03,1.97-4.93,1.56ZM92.48,96.34c1.52-.07,3.38-.67,3.48-2.22l.15-2.32-4.25.62c-1.22.18-2.04,1.21-1.89,2.26.17,1.12,1.11,1.73,2.51,1.66Z"/>
  <path d="M45.64,97.2c-1.39-.45-2.07-1.71-1.99-2.95s1.03-2.45,2.45-2.71l4.62-.85c.48-.45.39-1.83-.01-2.33-1.08-1.34-4.39-1.25-5.08.57l-.32.84c-.07.19-.76.1-1.14.05.04-1.38.86-2.68,2.33-3.14,1.14-.36,2.45-.39,3.61-.07,1.24.33,2.13,1.4,2.14,2.71l.06,6.93,1.03.04c.22,0,.23.79.02.87-.38.15-1.17.21-1.51.08-.45-.17-.74-.84-.89-1.46-1.29,1.44-3.35,2.07-5.33,1.42ZM47.62,96.34c1.46-.11,3.21-.79,3.32-2.33l.16-2.21-4.12.61c-1.33.2-2.16,1.12-1.98,2.31s1.15,1.74,2.62,1.63Z"/>
  <path d="M124.59,97.25c-1.45-.44-2.23-1.68-2.16-2.98.06-1.21,1-2.45,2.42-2.71l4.65-.84c.44-.59.41-1.75-.03-2.39-.38-.54-1.3-.83-2.09-.86-1.61-.06-2.98.57-3.18,2.31l-1.24.04c.1-1.65,1.09-2.84,2.66-3.24,1.08-.27,2.4-.25,3.45.06,1.35.4,1.97,1.55,1.98,2.91l.05,6.66,1.17.06c.19.01.17.76,0,.83-.34.14-1.11.25-1.45.16-.42-.12-.81-.74-1.11-1.38-1.31,1.26-3.19,1.92-5.11,1.35ZM126.08,96.34c1.46-.03,3-.53,3.52-1.95.25-.67.22-1.92.19-2.59l-4.09.6c-1.19.17-2.01,1.02-1.95,2.05.06,1.13.9,1.91,2.33,1.88Z"/>
  <path d="M62.86,97.3c-1.53-.4-2.29-1.52-2.31-2.85s.82-2.6,2.37-2.89l4.66-.86c.49-.46.44-1.79-.03-2.38-.42-.53-1.29-.83-2.11-.86-1.61-.05-3.02.57-3.14,2.36h-1.25c.09-1.64,1.08-2.85,2.63-3.24,2.71-.68,5.39.31,5.42,2.47l.11,7.24,1.13-.03c.15,0,.16.45.13.59-.09.54-1.47.61-2.07.17-.25-.19-.35-.79-.43-1.27-1.36,1.28-3.16,2.04-5.11,1.54ZM64.15,96.34c1.5-.03,2.98-.52,3.56-1.94.27-.68.24-1.92.19-2.6l-4.12.6c-1.16.17-2,1.06-1.95,2.05.06,1.12.92,1.91,2.32,1.88Z"/>
  <path d="M13.24,96.04c3.36,1.42,4.78-2.04,4.73-2.04l1.2-.06c-.44,2.24-2.3,3.59-4.62,3.53-2.05-.06-3.73-1.16-4.33-3.16-1.13-3.79.58-7.64,3.99-7.92,1.83-.15,3.5.54,4.39,2.24.54,1.03.69,2.29.73,3.58h-8.13c-.08,1.6.67,3.26,2.03,3.83ZM18.03,91.15c-.07-2.2-1.08-3.22-2.56-3.59-2.22-.54-3.9,1.1-4.33,3.63l6.89-.05Z"/>
  <path d="M212.87,94.99c.21-.3.29-.84.5-.97s.75-.1,1.27-.1c-.4,2.22-2.35,3.65-4.71,3.55-2.21-.09-3.9-1.43-4.38-3.58s-.28-4.24,1.12-5.93c1.68-2.02,4.93-2.17,6.74-.23,1.12,1.2,1.38,2.84,1.34,4.49h-8.11c-.07,1.58.62,3.1,1.85,3.73,1.46.74,3.34.53,4.37-.95ZM213.5,91.15c-.18-1.76-.71-2.68-1.64-3.23s-2.24-.6-3.19-.11c-1.28.66-1.9,1.96-2.04,3.39l6.87-.05Z"/>
  <polygon points="204.01 96.99 202.76 97.16 198.87 91.33 196.87 93.16 196.85 97.13 195.66 97.04 195.67 82.65 196.84 82.62 196.89 91.6 201.89 86.77 203.58 86.74 199.75 90.44 204.01 96.99"/>
  <path d="M226.7,96.62c-.96.67-2.23.86-3.33.83-2.08-.06-3.64-1.46-3.77-3.57l1.25.06c.23.73.56,1.61,1.16,1.95,1.07.61,2.44.59,3.52.12.7-.31,1.09-1.1,1.05-1.81-.03-.55-.71-1.28-1.36-1.43l-3.14-.75c-1.17-.28-2.1-1.14-2.22-2.2s.31-2.33,1.38-2.9c1.45-.77,3.28-.76,4.76.02,1.01.54,1.54,1.7,1.54,2.72l-1.02-.03c-.21,0-.44-2.78-3.91-2.06-.83.17-1.39.85-1.44,1.62s.57,1.42,1.39,1.65l3.37.96c.98.28,1.77,1.2,1.91,2.04.17.98-.15,2.09-1.12,2.77Z"/>
  <path d="M264.1,99.36c-.62,1.63-2.11,2.35-3.55,1.71l.04-1.01c.4.07,1.43.12,1.71-.17.61-.63,1.18-2.01,1.21-2.86l-3.97-10.31,1.33-.07,3.38,8.99,3.34-8.92h1.33s-4.82,12.64-4.82,12.64Z"/>
  <polygon points="6.31 97.06 4.91 97.14 4.91 83.78 .36 83.77 .35 82.59 10.9 82.59 10.9 83.77 6.3 83.77 6.31 97.06"/>
  <path d="M79.44,86.72l1.21-.04v10.17c-.01.15-.64.36-.96.34-.29-.02-.29-.67-.36-1.32-1.03,1.18-2.31,1.69-3.81,1.59-1.87-.14-3.14-1.47-3.14-3.35v-7.41s1.17.01,1.17.01l.03,7.4c0,1.27.98,2.1,2.18,2.24,1.82.22,3.55-1.06,3.58-3l.1-6.62Z"/>
  <path d="M141.37,86.72l1.17-.04v10.16c.08.15-.69.46-.89.33-.24-.15-.29-.63-.43-1.29-1.48,1.73-4,2.18-5.87.74-.62-.48-1.11-1.69-1.11-2.49l-.02-7.44h1.24s.03,7.4.03,7.4c0,1.19.84,2.02,1.94,2.22,1.9.34,3.79-.92,3.83-2.98l.1-6.6Z"/>
  <path d="M57.14,95.88c0,.43,1.41.55,1.9.37l.09.79c.03.27-1.49.69-2.56.11-.34-.19-.69-.95-.69-1.4l-.04-8.11-1.31.04c-.22,0-.14-.82-.08-.99l1.42-.03v-2.88s1.23-.01,1.23-.01v2.89s1.89.02,1.89.02l.05.99-1.97.03.06,8.18Z"/>
  <path d="M131.03,84.49h-8.21c-.22-.02-.67-.4-.71-.61-.05-.26.39-.78.67-.78h8.12c.28,0,.78.41.76.62s-.3.52-.63.76Z"/>
  <g>
    <path d="M263.6,33.66h-7.4s0-24.02,0-24.02h6.96s.35,3.16.35,3.16c2.34-3.09,6.06-4.5,9.72-3.19l-1.97,8.05c-.98-.32-1.97-.65-3.02-.69-2.49-.09-4.61,1.81-4.62,4.33l-.03,12.36Z"/>
    <path d="M298.24,9.82v23.7s-7.57.16-7.57.16l-.18-2.47c-2.46,2.31-5.34,3.23-8.77,2.73-7.41-1.09-11.22-11.09-7.36-18.95,2.13-4.33,6.65-6.57,11.42-5.65,1.98.38,3.59,1.44,4.93,2.89l.1-2.6,7.43.2ZM289.52,25.94c1.87-2.53,1.73-5.87.23-8.35-.92-1.51-2.54-2.17-4.12-2.22s-3.26.58-4.25,2.08c-1.65,2.51-1.72,6.07.17,8.56s6.06,2.52,7.97-.07Z"/>
    <path d="M253.43,17.71c0,9.14-7.42,16.54-16.58,16.54s-16.58-7.41-16.58-16.54,7.42-16.54,16.58-16.54,16.58,7.41,16.58,16.54ZM242.4,24.64c3.9-3.67,3.91-9.8.32-13.55s-9.8-3.14-12.67,1.09c-2.41,3.54-2.27,8.47.52,11.77s8.46,3.86,11.83.69Z"/>
  </g>
  <rect x="145.3" y="86.66" width="1.23" height="10.49"/>
  <rect x=".81" y="73.88" width="269.09" height="1.71"/>
  <path d="M217.33,87.12c-.22-.81.71-1.24.68-2.24,0-.26-.41-.55-.65-.86-.1-.25-.11-1.02,0-1.28s.82-.17,1.38-.13v2.61c0,.82-.54,1.57-1.4,1.9Z"/>
  <rect x="145.25" y="82.59" width="1.32" height="1.81" transform="translate(-.22 .38)"/>
  <g>
    <polygon points="173.22 33.63 165.8 33.68 165.79 16.11 161.52 16.08 161.52 9.65 165.79 9.64 165.79 3.63 173.21 3.63 173.24 9.63 177.82 9.63 177.85 16.05 173.22 16.13 173.22 33.63"/>
    <path d="M113.92,0l1.15.25.06,11.6c4.1-3.21,9.76-3.96,13.15-.33,1.62,1.73,2.26,4.07,2.18,6.44l.06,15.7h-7.31s-.23-15.7-.23-15.7c-.03-1.87-2.34-2.84-3.99-2.59-1.55.24-3.74,1.31-3.75,3.11l-.11,15.18h-7.37s0-33.41,0-33.41l1.35-.26h4.8Z"/>
    <polygon points="97.87 2.12 105.72 2 96.2 33.64 90.23 33.7 83.21 17.08 76.76 33.69 70.61 33.68 61.11 2.09 69.09 1.99 74.68 21.69 75.67 18.81 80.36 6.19 86.71 6.19 92.38 21.47 97.87 2.12"/>
    <path d="M158.77,33.64l-7.38.05-.31-2.39c-2.44,2.25-5.34,3.15-8.8,2.63-7.12-1.07-10.84-10.63-7.51-18.35,2.33-5.4,8.35-7.94,13.78-5.55,1.04.46,1.92,1.28,2.79,2.01l.13-2.38h7.3s0,23.98,0,23.98ZM150.67,25.27c1.27-2.42,1.17-5.36-.18-7.63-.89-1.49-2.53-2.19-4.08-2.27s-3.31.57-4.29,2.01c-1.73,2.54-1.73,6.03.04,8.54,1.05,1.49,2.75,2.02,4.5,1.9,1.49-.1,3.14-.89,4.01-2.55Z"/>
    <path d="M203.28,9.64v24.02s-6.94,0-6.94,0l-.32-2.66c-2.37,2.27-5.15,3.52-8.39,3.12-3.82-.47-7.13-3.54-7.15-7.58l-.1-16.91h7.35s.03,14.3.03,14.3c0,1.3.61,2.53,1.49,3.38,2.35,1.49,5.36.53,6.5-2.01l.07-15.67h7.46Z"/>
  </g>
  <g>
    <path d="M33.65,26.58c3.14,1.79,6.82,1.32,9.6-.94l3.47,4.95c-4.57,3.83-11.06,4.69-16.37,2.03-4.89-2.45-7.07-7.79-6.29-13.03,1.02-6.86,7.01-11.36,13.91-10.35,5,.73,8.98,4.55,9.48,9.67.15,1.51.15,2.96.12,4.4h-16.31c.22,1.3,1.06,2.52,2.38,3.27ZM40.69,18.67c-.45-2.19-2.11-3.17-4.05-3.32-2.38-.18-4.71.96-5.38,3.34l9.43-.02Z"/>
    <polygon points="17.18 33.69 9.32 33.67 9.31 8.97 3.21 8.93 0 2.03 26.76 2.01 26.79 8.91 17.18 8.97 17.18 33.69"/>
  </g>
</svg>