<?xml version="1.0" encoding="iso-8859-1"?>
<!-- Generator: Adobe Illustrator 30.6.0, SVG Export Plug-In . SVG Version: 9.03 Build 0)  -->
<svg version="1.1" id="Layer_1" xmlns="http://www.w3.org/2000/svg" xmlns:xlink="http://www.w3.org/1999/xlink" x="0px" y="0px"
	 viewBox="0 0 194.202 170.627" style="enable-background:new 0 0 194.202 170.627;" xml:space="preserve">
<g>
	<g>
		<g>
			<path d="M13.804,48.666c0.13-0.234,1.027-0.2,1.156,0.011l-2.955,10.104c-0.166,0.569-0.31,1.053-0.847,1.053
				c-0.502,0-0.84-0.425-0.984-0.919l-2.429-8.332c-0.353,0.112-0.625,0.331-0.697,0.581L4.611,59.57
				c-0.282,0.206-0.989,0.202-1.411,0.038l-3.183-10.83c0.225-0.164,0.598-0.354,0.784-0.314c0.186,0.039,0.51,0.438,0.561,0.624
				l2.054,7.518c0.054,0.198,0.364,0.564,0.547,0.556s0.43-0.354,0.493-0.571l2.352-7.994c0.432-0.073,1.044-0.063,1.411,0.018
				l2.501,8.586l0.653,0.133L13.804,48.666z"/>
			<path d="M46.749,56.907l-5.841,0.015l-1.164,2.524c-0.166,0.36-1.184,0.394-1.336,0.231l4.881-11.068l0.888-0.127
				c0.24-0.034,0.462,0.492,0.57,0.799l4.268,10.005c-0.115,0.235-0.29,0.493-0.441,0.538c-0.202,0.06-0.784-0.195-0.867-0.412
				L46.749,56.907z M46.154,55.801l-2.317-5.664l-2.451,5.702L46.154,55.801z"/>
			<path d="M99.458,58.69c-0.947,0.753-1.892,1.375-2.929,1.283c-1.129-0.1-2.152-0.693-2.804-1.655
				c-1.008-1.486-0.965-3.302,0.077-4.625c1.067-1.355,3.028-1.936,4.641-1.06c0.389,0.211,0.787,0.342,1.259,0.443l0.007-5.323
				l1.019,0.037l-0.005,11.924c-0.233,0.045-0.726,0.097-0.79-0.036L99.458,58.69z M99.661,55.584
				c-0.24-1.702-1.697-2.559-3.177-2.34c-1.421,0.211-2.386,1.562-2.251,3.166c0.136,1.623,1.641,2.768,3.143,2.505
				C98.864,58.654,99.904,57.307,99.661,55.584z"/>
			<path d="M16.156,56.429c-0.17,1.187,0.687,2.039,1.506,2.366c1.909,0.762,3.44-1.037,3.572-0.81l0.416,0.717
				c-1.592,1.579-3.603,1.557-5.257,0.59c-1.525-1.304-1.982-3.27-1.107-5.002c0.921-1.822,3.078-2.655,5.051-1.664
				c1.323,0.665,1.93,2.287,1.748,3.764L16.156,56.429z M20.862,55.394c0.015-1.521-0.919-2.182-2.185-2.135
				c-0.588,0.022-1.372,0.148-1.773,0.483c-0.389,0.325-0.599,1.059-0.614,1.631L20.862,55.394z"/>
			<path d="M77.267,56.277c1.036-1.021,2.837-1.097,4.285-1.119c0.397-0.271,0.21-1.603-0.387-1.752
				c-0.752-0.187-2.037-0.343-2.634-0.002l-0.782,0.447c-0.165,0.094-0.553-0.399-0.657-0.678c0.628-0.506,1.574-0.825,2.51-0.966
				c1.461-0.22,3.265,0.625,3.286,2.338l0.065,5.241c-0.524,0.082-0.954-0.307-1.249-0.897c-1.217,1.052-2.663,1.487-4.098,0.622
				C76.648,58.934,76.228,57.301,77.267,56.277z M81.801,56.179c-1.188-0.014-1.974-0.033-2.957,0.21
				c-0.596,0.147-1.05,1.048-0.947,1.534c0.132,0.621,0.697,1.099,1.448,1.092c0.747-0.007,1.67-0.317,1.974-0.776
				C81.747,57.594,81.845,56.931,81.801,56.179z"/>
			<path d="M68.652,55.712l3.816,3.96c-1.985,0.805-2.804-2.103-5.233-3.799l-0.153,3.902l-0.962-0.042l0.013-12l0.865,0.013
				c0.106,0.002,0.12,0.324,0.122,0.469l0.095,7.451l3.414-3.145c0.257-0.237,1.186-0.222,1.554-0.155L68.652,55.712z"/>
			<path d="M90.317,59.768l0.023-3.657c0.006-0.894-0.246-2.053-0.697-2.678c-1.434-0.559-3.427-0.055-3.48,1.566l-0.146,4.474
				c-0.01,0.312-1.155,0.382-1.155,0.068l-0.007-6.675c0-0.146,0.279-0.679,0.39-0.594l0.463,0.354l0.477,0.428
				c0.282,0.253,1.536-1.395,3.675-0.62c0.777,0.282,1.498,1.446,1.497,2.49l-0.002,4.817L90.317,59.768z"/>
			<path d="M56.212,52.203c0.931,0.546,0.48,1.615,0.487,2.307l0.023,2.074l0.087,3.332l-1.647-0.725
				c-1.019,0.643-1.976,0.925-3.051,0.634c-0.821-0.222-1.769-1.104-1.781-2.238l-0.058-5.232l0.826,0.029
				c0.151,0.005,0.218,0.463,0.221,0.623l0.084,4.493c0.02,1.08,1.108,1.455,1.947,1.504c0.816,0.048,1.866-0.546,2.07-1.62
				C55.922,54.733,55.054,52.565,56.212,52.203z"/>
			<path d="M28.304,58.925c-1.516,1.641-4.08,1.274-5.284-0.227l0.876-0.664c0.818,0.974,1.803,1.19,2.98,0.717
				c0.405-0.162,0.779-0.802,0.698-1.272c-0.162-0.949-1.578-0.823-3.49-1.688c-0.945-0.427-1.001-2.033-0.305-2.694
				c2.102-1.995,5.033-0.028,4.455,0.444l-0.541,0.441c0.101-0.083-1.486-1.362-3.003-0.452c-0.302,0.181-0.266,1.208-0.064,1.455
				l2.997,0.91c0.41,0.124,0.952,0.846,1.095,1.237C28.862,57.525,28.677,58.521,28.304,58.925z"/>
			<path d="M64.074,53.836c-1.196-0.889-3.07-0.783-3.888,0.089c-0.726,0.773-0.907,3.615,0.372,4.585
				c1.985,1.506,3.495-1.035,4.307,0.313c-1.566,1.537-3.982,1.507-5.372,0.053c-1.479-1.548-1.579-3.739-0.274-5.311
				c1.385-1.669,3.974-1.842,5.642-0.329L64.074,53.836z"/>
			<path d="M33.399,58.917c0.259-0.063,0.656-0.021,0.813,0.067c0.158,0.088-0.069,0.634-0.232,0.732
				c-0.803,0.479-2.484,0.39-2.858-0.659c-0.651-1.825,0.061-4.015-0.545-5.803c-0.55,0.079-1.426-0.117-1.367-0.423
				c0.104-0.539,0.935-0.625,1.611-0.489l0.094-2.162l0.76,0.056c0.151,0.011,0.228,0.451,0.231,0.611l0.031,1.451l1.818,0.032
				c0.135,0.002,0.471,0.266,0.559,0.369c0.116,0.136-0.354,0.56-0.547,0.565l-1.848,0.045l-0.011,4.517
				C31.906,58.585,32.496,59.136,33.399,58.917z"/>
			<path d="M74.817,59.651c-0.001,0.258-1.043-0.053-1.043-0.355l0.021-11.523l1.055-0.002L74.817,59.651z"/>
		</g>
		<g>
			<g>
				<path d="M22.122,119.672c-0.574,0-1.258-0.412-1.258-0.996l-0.023-20.835c-0.001-0.993-0.706-2.52-1.307-3.14
					c-2.668-2.752-8.88-0.792-11.834,1.917L7.693,118.68c0,0.674-0.863,1.035-1.426,1.023l-6.263-0.123L0,73.413
					c0.329-0.528,1.211-0.802,1.828-0.875l4.37-0.512c0.418-0.049,1.485,0.112,1.486,0.645l0.02,17.025
					c0.501-0.03,0.984-0.192,1.402-0.469c2.512-1.665,5.39-2.568,8.391-2.742l2.622,0.069c5.704,0.558,8.704,5.297,8.702,10.833
					l-0.005,21.317c0,0.501-0.55,0.965-0.958,0.965L22.122,119.672z"/>
				<path d="M60.197,114.42c-3.646,5.031-9.927,6.623-16.063,5.749c-5.737-0.817-10.115-4.646-11.721-10.185
					c-0.485-1.674-0.843-3.352-0.868-5.166l-0.027-1.954c-0.119-8.633,6.194-16.201,14.956-16.354l2.029-0.035
					c4.279-0.075,8.511,1.607,11.34,5.002c2.766,3.318,3.7,7.601,3.73,11.876C63.603,107.43,62.573,111.142,60.197,114.42z
					 M50.567,113.525c5.246-2.292,5.657-10.966,3.756-16.287c-1.006-2.814-3.358-4.408-6.275-4.548
					c-3.597-0.172-6.455,1.801-7.531,5.253c-1.517,4.867-1.059,13.779,3.897,15.654C46.261,114.296,48.617,114.377,50.567,113.525z"
					/>
				<path d="M84.426,118.284c-5.877,3.507-12.555,2.206-18.732-0.299c-0.36-0.146-0.577-1-0.467-1.341l1.19-3.662
					c0.188-0.578,0.781-0.89,1.303-0.695l2.676,1.003l3.11,0.762c2.175,0.533,4.632,0.682,6.553-0.584
					c0.991-0.653,1.529-1.924,1.387-2.968c-0.562-4.12-7.629-4.142-12.254-7.248c-2.497-1.677-3.94-4.38-3.993-7.199
					c-0.055-2.968,1.47-5.72,4.008-7.374c5.249-3.419,12.783-2.569,18.467,0.188l-0.723,2.888c-0.225,0.897-0.592,1.791-1.175,2.595
					c-4.697-1.811-12.355-3.455-12.449,1.47c-0.023,1.178,0.706,2.221,1.965,2.75l6.227,2.614c2.045,0.858,4.14,1.769,5.55,3.56
					C90.504,109.106,89.184,115.445,84.426,118.284z"/>
			</g>
			<g>
				<path d="M91.837,131.163l0.036-11.96l0.069-3.373l-0.07-3.379l-0.006-5.952l-0.002-2.675l0.003-11.7l0.06-3.052
					c0.008-0.394,0.149-1.14,0.377-1.392c0.229-0.252,0.999-0.382,1.385-0.381l4.134,0.016c0.297,0.001,0.938,0.231,1.113,0.465
					c0.204,0.272,0.352,1.032,0.344,1.373l-0.015,0.667c-0.004,0.157,0.546,0.141,0.672,0.058c3.105-2.794,7.329-3.81,11.552-3.093
					c3.91,0.664,7.035,3.234,8.881,6.743c1.716,3.263,2.277,6.831,2.157,10.565c-0.297,9.254-6.329,17.222-15.87,16.313
					c-1.999-0.19-3.746-0.93-5.429-2.029c-0.392-0.256-0.988-0.386-1.47-0.381l-0.012,15.105c0,0.439-1.028,0.97-1.495,0.968
					l-4.999-0.019c-0.347-0.001-1.102-0.434-1.145-0.767L91.837,131.163z M112.999,109.772c1.905-4.132,1.78-10.875-0.998-14.612
					c-3.475-3.705-8.596-2.546-12.177,0.949l-0.017,14.625c1.233,1.616,2.953,2.711,4.926,3.14
					C108.249,114.64,111.436,113.162,112.999,109.772z"/>
				<g>
					<path d="M184.746,113.861c3.271-0.251,5.964-1.73,6.557-1.564c0.174,0.048,0.448,0.47,0.5,0.657l1.09,3.928
						c0.204,0.737-0.65,1.245-1.28,1.489c-8.047,3.108-18.548,3.321-24.091-3.696c-2.241-2.837-3.146-6.251-3.459-9.804
						l-0.006-2.765c0.348-3.885,1.513-7.634,4.164-10.522c3.235-3.525,7.708-5.166,12.48-5.064l3.718,0.474
						c7.67,2.145,10.341,9.641,9.689,17.313c-0.222,0.501-1.246,0.977-1.875,0.977l-19.857,0.005
						c0.347,4.245,3.131,7.851,7.423,8.556l2.365,0.216L184.746,113.861z M186.364,100.116c0.149-3.242-1.208-5.826-3.788-7.155
						c-2.576-0.669-5.3-0.442-7.249,1.377c-1.623,1.516-2.564,3.61-2.677,5.802L186.364,100.116z"/>
					<path d="M150.754,113.806c3.568,0.659,7.06,0.534,10.294-0.906c0.305-0.091,0.805-0.217,1.04-0.183s0.484,0.557,0.555,0.794
						l0.965,3.2c0.197,0.652-0.06,1.34-0.74,1.649c-9.259,4.194-21.573,2.401-24.67-7.979c-2.751-9.219,0.103-20.213,10.124-23.164
						c4.454-1.312,10.699-0.856,15.024,1.514c-0.143,2.041-0.598,3.857-1.453,5.794c-3.393-1.681-7.129-2.494-10.811-1.319
						c-2.872,0.917-4.684,3.63-5.324,6.576c-0.474,2.181-0.269,4.514-0.084,6.739C146.128,109.706,147.771,112.335,150.754,113.806z
						"/>
				</g>
				<path d="M132.332,119.63l-4.818,0.052c-0.415,0.005-1.47-0.522-1.47-0.997l-0.001-30.416c0-0.49,1.062-0.948,1.497-0.951
					l4.577-0.03c0.503-0.003,1.357,0.33,1.703,0.757l0.024,29.913C133.845,118.854,133.486,119.618,132.332,119.63z"/>
			</g>
		</g>
		<g>
			<path d="M145.624,62.927l-4.195-1.04c-7.345-1.821-13.482-6.278-17.443-12.757c-2.143-3.168-3.565-6.593-4.373-10.417
				l4.815-1.408c5.82,8.744,12.936,13.183,23.554,14.129l6.228,12.156C151.28,63.756,148.533,63.454,145.624,62.927z"/>
			<path d="M144.078,72.922l-4.221-0.284c-9.155-0.979-16.964-6.033-21.572-14.002c-3.034-5.247-5.172-10.936-5.939-16.998
				c2.144-0.488,3.85-1.078,5.74-2.201c1.908,7.971,6.083,15.252,12.996,19.91c2.562,3.333,5.178,6.525,8.172,9.497L144.078,72.922z
				"/>
			<path d="M165.736,45.952c-11.439,4.667-22.964,5.874-33.16-2.036c-2.714-1.894-4.78-4.349-6.709-7.224
				c2.872-1.211,4.985-3.076,6.104-5.803c2.141,3.013,4.728,5.075,7.766,6.851C147.742,42.186,156.411,44.927,165.736,45.952z"/>
			<path d="M124.785,82.568c-2.915-1.102-5.063-3.168-7.159-5.268c-7.865-9.16-9.904-20.662-9.179-32.499l0.196-3.201l2.358,0.183
				c1.051,8.03,3.671,15.437,8.521,21.927C120.616,70.113,122.419,76.065,124.785,82.568z"/>
			<path d="M119.974,30.003c0.43,2.751-0.252,6.427-2.585,8.145c-1.832,1.348-3.991,1.994-6.332,2.325
				c-1.328,0.188-2.95-0.372-3.889-1.366c-0.379-5.63,1.92-11.081,6.629-14.194c0.633-7.852,3.887-17.449,10.813-21.522
				c5.554-3.266,12.066-4.837,17.873-1.654c-2.419-0.387-4.48-0.714-6.798-0.745c-7.594-0.104-13.983,4.405-16.628,11.501
				c-1.402,3.762-2.327,7.583-2.511,11.677c1.356-0.051,2.634,0.753,2.837,2.05L119.974,30.003z"/>
			<path d="M130.821,28.549c0.087,4.522-5.856,7.474-10.327,8.345c0.539-1.798,1.1-3.405,0.917-5.064l-0.831-7.544
				c-0.607-5.511-0.31-12.291,3.586-16.33c-0.574,1.501-1.288,2.829-1.347,4.395l-0.149,3.96c-0.09,2.391,0.426,4.766,0.847,7.222
				l2.078-0.187C127.751,23.152,130.787,26.797,130.821,28.549z"/>
			<path d="M155.883,62.386l-6.032-10.914l4.945-0.495l2.915-0.465l2.718-0.571l4.498,6.483c0.101,0.146,0.23,0.603,0.194,0.772
				c-0.226,1.084-5.462,2.89-7.867,3.765C156.675,61.209,156.381,61.51,155.883,62.386z"/>
			<path d="M131.114,80.971c-1.699,0.216-3.142,0.043-4.94-0.109c-1.276-3.087-2.443-6.216-3.278-9.556l-1.435-5.736
				c3.342,3.495,6.951,5.756,11.437,7.311l0.665,4.591C133.793,79.067,132.795,80.757,131.114,80.971z"/>
		</g>
	</g>
	<g>
		<path d="M42.124,145.307c0.138,0,0.528,0.082,0.526,0.186l-0.016,0.762l-4.271,0.016l0.024,3.338l4.421,0.012
			c0.173,0,0.546,0.272,0.63,0.378c0.113,0.143-0.37,0.581-0.596,0.581l-5.454,0.001l-0.014-8.645
			c0.018-0.143,0.086-0.596,0.211-0.598l0.556-0.009l2.354-0.039c0.714-0.012,1.986-0.046,2.576,0.162
			c0.21,0.074-0.208,0.775-0.433,0.774l-4.259-0.02l-0.022,3.094L42.124,145.307z"/>
		<path d="M62.878,152.534c0.546-0.253,0.989-1.724,0.754-2.293l-2.114-5.13c-0.628,0.01-2.122,0.17-2.445,0.704
			c-0.975,1.615-0.227,3.425-0.678,4.792c-0.05,0.151-0.678-0.181-0.677-0.371l0.043-5.639c0.354-0.012,0.689,0.163,1.112,0.482
			l1.356-0.692l2.071,0.211l1.4,3.695c0.098,0.258,0.252,0.582,0.424,0.651c0.172,0.069,0.493-0.282,0.565-0.47l1.516-3.963
			c0.298,0.033,0.798,0.096,0.756,0.201l-0.194,0.494l-2.902,7.373c-0.167,0.424-0.731,0.915-1.073,1.065
			c-0.416,0.182-1.234,0.09-1.482-0.383L62.878,152.534z"/>
		<path d="M51.729,149.115c0.873,1.057,2.751,1.075,3.679-0.026l0.521,0.515c-1.362,1.431-3.471,1.45-4.659,0.16
			c-1.331-1.445-1.204-3.586,0.426-4.784c0.95-0.699,2.106-0.795,3.142-0.249c0.918,0.484,1.493,1.674,1.471,2.948l-4.763,0.067
			C51.515,147.965,51.541,148.887,51.729,149.115z M55.36,146.915c-0.298-1.593-1.309-1.706-2.371-1.595
			c-0.933,0.098-1.599,0.642-1.413,1.655L55.36,146.915z"/>
		<path d="M48.708,144.886c0.061-0.16,0.837-0.486,0.841-0.336c0.005,0.202-0.048,0.499-0.157,0.777l-1.77,4.48
			c-0.121,0.307-0.474,0.822-0.752,0.818s-0.68-0.477-0.805-0.794l-2.002-5.039c0.009-0.078,0.5-0.354,0.623-0.26
			c0.124,0.095,0.339,0.371,0.41,0.548l1.289,3.23l0.178,0.445c0.052,0.132,0.588,0.129,0.664,0.025L48.708,144.886z"/>
		<g>
			<path d="M80.059,149.879l0.005-6.198l-0.557-0.022c-0.096-0.004-0.15,0.24-0.205,0.363l-3.025,6.83l-3.044-6.938l-0.802-0.033
				l0.03,5.933l0.061,0.56c0.014,0.13-0.432,0.331-0.512,0.228l-0.388-0.494l0.029-8.62c0.288-0.303,1.261-0.358,1.431,0.034
				l2.68,6.155c0.093,0.213,0.41,0.538,0.593,0.547c0.182,0.009,0.431-0.345,0.517-0.546l2.313-5.398
				c0.13-0.304,0.459-0.761,0.677-0.934c0.218-0.174,0.943-0.061,1.173,0.194l0.025,8.963l-0.775,0.005
				C80.136,150.51,80.058,150.034,80.059,149.879z"/>
			<path d="M95.376,149.757l-0.027,0.613c-0.006,0.142-0.423,0.263-0.487,0.137c-0.524-1.03,0.082-2.648-0.441-4.693
				c-0.199-0.779-1.264-0.725-1.823-0.559c-0.493,0.147-1.179,0.826-1.194,1.551l-0.072,3.472c-0.002,0.1-0.283,0.443-0.353,0.377
				c-0.106-0.1-0.43-0.492-0.429-0.692l0.022-5.377c0.367,0.043,0.754,0.232,1.121,0.479c0.732-0.474,1.797-1.083,2.691-0.414
				c1.466,1.097,1.959-0.462,3.454-0.281c0.504,0.061,1.481,0.659,1.589,1.202c1.047,5.27-0.586,5.968-0.636,4.311l-0.116-3.834
				c-0.017-0.578-1.178-0.992-1.683-0.938c-0.627,0.067-1.445,0.703-1.478,1.46L95.376,149.757z"/>
			<path d="M102.572,149.281c1.313,1.509,3.699-0.197,3.723-0.168l0.31,0.383c0.085,0.105-1.813,2.012-3.926,0.862
				c-1.187-0.646-1.753-1.938-1.547-3.383c0.233-1.639,1.725-2.743,3.255-2.613c1.594,0.135,2.751,1.673,2.541,3.352l-4.813,0.018
				C102.124,148.326,102.245,148.904,102.572,149.281z M105.983,146.912c-0.123-0.849-0.431-1.332-0.947-1.55
				c-0.465-0.197-1.174-0.2-1.678-0.05c-0.868,0.258-1.347,0.987-1.135,1.744L105.983,146.912z"/>
			<path d="M85.314,150.649c-1.514-0.284-2.548-1.507-2.66-2.838c-0.127-1.498,0.877-2.852,2.393-3.308
				c2.037-0.613,3.825,0.828,3.993,2.831C89.204,149.31,87.4,151.04,85.314,150.649z M86.812,149.672
				c0.802-0.307,1.319-1.332,1.308-2.095c-0.011-0.714-0.409-1.66-1.027-2.053c-0.988-0.629-2.234-0.325-2.785,0.326
				c-0.782,0.923-0.916,2.005-0.363,2.905C84.49,149.643,85.534,150.161,86.812,149.672z"/>
			<path d="M109.404,146.396l-0.108,3.625c-0.005,0.182-0.212,0.524-0.333,0.582c-0.12,0.057-0.513-0.087-0.517-0.219l-0.018-0.576
				l-0.096-5.339l1.391,0.579c0.763-0.553,1.569-0.803,2.388-0.565c0.756,0.22,1.498,1.045,1.5,2.052l0.008,3.661
				c0,0.152-0.552,0.558-0.628,0.442c-0.102-0.154-0.313-0.584-0.323-0.802l-0.185-4.17c-0.022-0.495-1.296-0.65-1.733-0.521
				C110.314,145.272,109.422,145.797,109.404,146.396z"/>
			<path d="M116.795,149.731l1.916,0.178c-0.178,0.907-0.984,1.085-1.699,0.768c-0.727-0.322-1.049-0.898-1.047-1.751l0.008-3.63
				l-0.982-0.009c-0.197-0.002-0.513-0.55-0.377-0.613l1.167-0.225c0.245-0.047,0.181-0.769,0.22-1.016l0.088-0.554
				c0.022-0.138,0.417-0.267,0.471-0.137c0.053,0.129,0.176,0.494,0.194,0.637l0.122,0.971c0.031,0.25,0.788,0.158,1.03,0.225
				l0.695,0.192c0.175,0.048-0.239,0.522-0.431,0.529l-1.385,0.047L116.795,149.731z"/>
		</g>
		<g>
			<path d="M30.167,153.516c-1.509,0.539-2.889,0.084-4.103-0.84l0.542-0.773c1.026,1.141,2.642,1.429,3.867,0.6
				c0.818-0.553,0.881-1.831,0.511-2.779c-1.455,1.311-3.146,1.022-4.303-0.092c-1.134-1.091-1.142-2.998-0.117-4.207
				c1.069-1.261,2.966-1.407,4.278-0.311c0.48-0.308,0.847-0.492,1.303-0.606l-0.042,6.523
				C32.096,152.104,31.178,153.155,30.167,153.516z M31.159,147.087c-0.137-1.42-1.313-2.018-2.422-1.875
				c-1.286,0.167-1.955,1.164-1.883,2.493c0.076,1.42,1.207,2.259,2.436,2.06C30.588,149.554,31.309,148.64,31.159,147.087z"/>
			<path d="M5.71,149.619c0.157,0.001,0.597,0.149,0.737,0.21c0.188,0.082,0.01,0.768-0.212,0.766l-4.79-0.044l-0.05-9.159
				l0.633-0.167c0.186-0.049,0.379,0.506,0.379,0.708l-0.006,7.671L5.71,149.619z"/>
			<path d="M19.988,147.256l0.161,2.581c0.012,0.195-0.24,0.654-0.372,0.784c-0.132,0.13-0.627-0.353-0.626-0.574l0.029-5.558
				l0.923,0.501c0.46,0.25,1.344-1.056,3.002-0.409c0.637,0.249,1.297,1.077,1.311,1.974l0.053,3.492
				c0.003,0.2-0.502,0.724-0.622,0.585c-0.121-0.14-0.346-0.581-0.354-0.777l-0.155-3.911c-0.033-0.844-1.399-0.899-1.94-0.712
				C20.647,145.493,19.915,146.094,19.988,147.256z"/>
			<path d="M14.313,144.829c0.093-0.253,0.958-0.311,0.947-0.126l-2.137,5.396c-0.073,0.184-0.433,0.478-0.567,0.502
				c-0.177,0.033-0.614-0.257-0.684-0.428l-2.244-5.454c-0.006-0.067,0.635-0.307,0.773-0.162s0.33,0.477,0.419,0.713l1.368,3.628
				l0.652-0.072L14.313,144.829z"/>
			<path d="M8.422,150.015c0.002,0.301-0.619,0.678-0.797,0.496l-0.249-5.166c-0.011-0.22,0.277-0.701,0.419-0.829
				c0.142-0.128,0.6,0.368,0.601,0.563L8.422,150.015z"/>
			<path d="M17.278,149.979c0,0.157-0.25,0.578-0.372,0.622c-0.122,0.045-0.481-0.089-0.478-0.218l0.013-0.569l0.05-5.216
				l0.79,0.018L17.278,149.979z"/>
		</g>
	</g>
	<g>
		<path d="M8.415,165.57l-0.209,0.765c-0.049,0.178-0.734-0.084-0.738-0.313l-0.081-3.898l-4.94-0.16l-0.057,3.865
			c-0.002,0.157-0.27,0.523-0.37,0.618c-0.134,0.127-0.613-0.366-0.613-0.558l0.009-8.531c0.252-0.174,0.451-0.317,0.54-0.236
			c0.118,0.109,0.427,0.553,0.431,0.743l0.07,3.211l4.948,0.041l0.054-3.449c0.002-0.143,0.26-0.555,0.358-0.649
			c0.13-0.125,0.533,0.361,0.589,0.507L8.415,165.57z"/>
		<path d="M134.69,167.936c-1.037,1.873-3.474,2.031-5.036,0.911l-0.568-0.407c-0.113-0.081,0.306-0.481,0.465-0.615
			c0.806,0.652,1.837,1.121,2.953,0.889c1.476-0.307,2.128-1.775,1.556-3.192c-1.429,1.171-3.029,1.163-4.192,0.114
			c-1.124-1.015-1.535-2.55-0.661-3.91c0.751-1.17,2.354-2.017,3.776-1.289c0.219,0.112,0.709,0.518,0.905,0.41l1.058-0.584
			c0.134,0.347,0.186,1.112,0.18,1.672l-0.02,1.848C135.092,165.055,135.414,166.628,134.69,167.936z M134.159,163.718
			c0.21-1.235-0.264-2.245-1.432-2.623c-0.968-0.313-2.144,0.043-2.693,1.142c-0.335,0.67-0.401,1.57,0.004,2.22
			c0.291,0.467,1.012,0.966,1.625,1.1C133.016,165.853,133.949,164.946,134.159,163.718z"/>
		<path d="M105.274,168.994c-0.454-0.304-0.774-0.509-0.713-0.698c0.061-0.188,0.613-0.448,0.776-0.302
			c0.952,0.854,2.898,1.223,3.893-0.026c0.462-0.58,0.533-1.39,0.507-2.348l-1.38,0.547c-1.268,0.503-2.752-0.003-3.492-0.965
			c-0.853-1.108-0.78-2.509-0.088-3.697c0.648-1.111,2.404-1.662,3.588-1.176c0.257,0.106,0.672,0.652,0.865,0.552l1.281-0.66
			c-0.014,2.351,0.238,4.774-0.12,7.077C110.037,169.582,106.933,170.104,105.274,168.994z M109.737,163.284
			c0-1.261-1.023-2.284-2.284-2.284s-2.284,1.023-2.284,2.284s1.023,2.284,2.284,2.284S109.737,164.545,109.737,163.284z"/>
		<path d="M66.469,166.51c-0.77-2.14,0.467-4.029-0.673-5.252c-0.335-0.359-1.502-0.383-1.936-0.182
			c-0.5,0.231-1.011,1.011-1.018,1.746l-0.031,3.018c-0.001,0.146-0.289,0.522-0.388,0.619c-0.133,0.129-0.571-0.442-0.571-0.652
			l-0.006-8.445c0-0.169,0.149-0.579,0.223-0.708c0.075-0.128,0.547-0.08,0.747-0.042l0.014,4.083l1.189-0.363
			c0.486-0.148,1.483-0.221,1.952,0.019c0.426,0.218,1.059,1.02,1.079,1.548l0.145,3.816
			C67.203,165.908,66.818,166.345,66.469,166.51z"/>
		<path d="M70.924,165.608c1.052,0.244,2.084-0.126,2.805-0.668c0.13,0.114,0.404,0.335,0.351,0.393l-0.417,0.454
			c-0.846,0.922-2.65,0.928-3.711,0.193c-1.778-1.233-1.796-3.787-0.231-5.105c0.999-0.842,2.187-0.978,3.319-0.344
			c0.939,0.526,1.599,1.722,1.334,2.991l-4.54,0.032C69.529,164.334,69.916,165.374,70.924,165.608z M73.458,162.708
			c-0.245-1.623-1.251-1.775-2.077-1.697c-0.96,0.091-1.742,0.656-1.605,1.771L73.458,162.708z"/>
		<path d="M10.981,163.552c0.026,1.182,0.605,1.766,1.294,2.009c0.724,0.255,1.823,0.103,2.323-0.288l0.423-0.331
			c0.106-0.083,0.365,0.162,0.589,0.374c-0.713,1.032-2.037,1.339-3.424,1.035c-1.055-0.231-2.069-1.458-2.139-2.692
			c-0.074-1.315,0.48-2.562,1.789-3.196c0.968-0.469,2.047-0.397,2.88,0.194c0.855,0.607,1.292,1.711,1.153,2.873L10.981,163.552z
			 M14.941,162.725c-0.261-1.681-1.277-1.819-2.266-1.71c-0.744,0.082-1.486,0.718-1.611,1.731L14.941,162.725z"/>
		<path d="M148.404,166.261c-0.623,0.344-1.184-0.064-1.694-0.565l-2.511-2.469l-0.191,2.604c-0.01,0.134-0.109,0.424-0.142,0.512
			c-0.05,0.132-0.624-0.072-0.628-0.213l-0.066-2.698l0.002-4.9c0-0.658-0.139-1.529,0.379-2.051
			c0.285,0.147,0.513,0.725,0.515,0.987l0.057,5.581l2.511-2.301c0.3-0.275,0.735-0.435,1.358-0.307l-2.683,2.649L148.404,166.261z"
			/>
		<path d="M83.709,166.056c-1.477,0.727-3.126,0.459-4.038-0.673c-1.233-1.529-0.859-3.455,0.5-4.554
			c1.41-1.139,3.421-0.798,4.524,0.603C85.803,162.84,85.482,165.184,83.709,166.056z M84.431,163.333
			c0-1.272-1.031-2.303-2.303-2.303s-2.303,1.031-2.303,2.303c0,1.272,1.031,2.303,2.303,2.303
			C83.4,165.636,84.431,164.605,84.431,163.333z"/>
		<path d="M46.997,163.333c0,1.754-1.422,3.176-3.177,3.176s-3.177-1.422-3.177-3.176s1.422-3.176,3.177-3.176
			S46.997,161.579,46.997,163.333z M44.356,165.584c1.256-0.254,1.642-1.288,1.67-2.31c0.037-1.362-1.117-2.306-2.296-2.28
			c-1.322,0.03-2.26,1.129-2.123,2.553c0.064,0.663,0.394,1.454,0.867,1.764C42.869,165.571,43.804,165.696,44.356,165.584z"/>
		<path d="M137.769,163.031c0.78-0.288,1.799-0.277,2.793-0.304c0.16-0.101,0.167-1.164-0.105-1.4
			c-0.705-0.611-2.187-0.524-2.952,0.253l-0.608-0.577c1.3-0.911,2.894-1.284,4.153-0.139c0.446,0.406,0.669,1.729,0.656,2.349
			l-0.067,3.226l-1.223-0.592c-1.036,0.757-2.662,0.917-3.531-0.166C136.22,164.852,136.574,163.472,137.769,163.031z
			 M140.703,163.445c-1.016-0.051-2.057,0.021-2.686,0.265c-0.332,0.129-0.513,1.015-0.409,1.334
			c0.273,0.832,2.042,0.85,2.698,0.106C140.625,164.789,140.77,164.038,140.703,163.445z"/>
		<path d="M112.675,163.331c1.299-0.984,2.839-0.275,3.468-0.756c0.189-0.144,0.051-0.86-0.109-1.037
			c-0.778-0.864-2.277-0.841-3.226,0.078l-0.477-0.586c1.135-0.944,2.786-1.299,4.095-0.247c0.508,0.408,0.627,1.561,0.635,2.23
			l0.029,2.406c0.003,0.289,0.004,1.057-0.223,0.956l-1.078-0.48c-0.931,0.656-2.278,0.831-3.182,0.11
			C111.753,165.323,111.64,164.115,112.675,163.331z M116.184,163.553c-1.135-0.143-1.932-0.157-2.811,0.246
			c-0.338,0.155-0.503,1.071-0.322,1.396c0.401,0.72,2.062,0.648,2.755-0.098C116.06,164.823,116.192,164.049,116.184,163.553z"/>
		<path d="M90.788,164.958c-0.26-1.584,1.572-2.247,2.922-2.222l1.054,0.019c0.264,0.005,0.215-0.956,0.057-1.207
			c-0.881-1.397-3.315-0.057-3.281-0.018l-0.361-0.42c-0.157-0.182,1.221-1.171,2.802-0.928c0.61,0.094,1.771,0.738,1.78,1.545
			l0.053,4.723l-0.874-0.473c-0.202-0.109-0.691,0.053-0.963,0.2C92.852,166.786,91.035,166.46,90.788,164.958z M94.957,163.453
			c-1.187-0.067-1.941-0.063-2.729,0.276c-0.348,0.149-0.674,0.949-0.528,1.269c0.453,0.997,2.321,0.828,2.834,0.169
			C94.819,164.801,94.978,164.015,94.957,163.453z"/>
		<path d="M149.825,163.366c0.909-0.673,2.207-0.723,3.291-0.627c0.144-0.146,0.323-0.716,0.249-0.93
			c-0.342-0.993-1.905-1.167-3.367-0.376l-0.431-0.452c1.036-0.805,2.304-1.089,3.371-0.618c1.262,0.556,1.305,1.813,1.315,2.972
			l0.028,3.079l-1.332-0.521c-0.911,0.656-2.061,0.756-3.071,0.175C148.986,165.555,148.827,164.105,149.825,163.366z
			 M153.279,163.552c-0.93-0.204-1.825-0.163-2.601,0.152c-0.367,0.149-0.658,0.951-0.54,1.29c0.103,0.296,0.722,0.717,1.068,0.719
			c0.728,0.004,1.377-0.163,1.75-0.582C153.207,164.848,153.358,164.092,153.279,163.552z"/>
		<path d="M24.66,164.82c-0.27-2.332,3.629-1.946,4.238-2.233c0.176-0.083,0.069-0.744-0.056-0.946
			c-0.462-0.743-1.743-0.882-2.672-0.479l-0.624,0.271c-0.132,0.057-0.41-0.455-0.383-0.454c1.078-0.85,2.365-1.12,3.529-0.513
			c0.868,0.452,1.04,1.354,1.093,2.341l0.137,2.591c0.014,0.265-0.08,1.088-0.281,0.987l-0.929-0.47
			c-1.004,0.445-2.18,0.869-3.28,0.174C25.111,165.886,24.703,165.188,24.66,164.82z M28.841,163.36l-2.43,0.281
			c-0.448,0.052-0.863,1.029-0.702,1.417c0.158,0.377,0.892,0.745,1.323,0.702C28.435,165.62,29.203,164.625,28.841,163.36z"/>
		<path d="M39.103,165.783c0,0.146-0.299,0.738-0.388,0.644c-0.089-0.095-0.393-0.456-0.393-0.586l-0.002-3.001
			c-0.001-1.139-0.564-1.928-1.514-1.915c-1.022,0.014-1.917,0.54-1.948,1.743l-0.077,2.987c-0.003,0.132-0.069,0.473-0.104,0.568
			c-0.053,0.143-0.408,0.149-0.7,0.138l-0.003-9.758l0.83-0.034l-0.005,4.116l0.987-0.262c0.726-0.193,1.489-0.387,2.185-0.034
			c0.541,0.274,1.14,1.168,1.139,1.889L39.103,165.783z"/>
		<path d="M101.763,161.859c-0.033-1.081-1.441-1.039-2.021-0.83c-0.673,0.242-1.208,0.883-1.212,1.784l-0.013,3.042
			c-0.001,0.127-0.276,0.497-0.375,0.59c-0.132,0.124-0.59-0.375-0.589-0.636l0.027-5.561l1.246,0.682
			c0.708-0.595,1.646-1.04,2.567-0.656c0.702,0.292,1.372,1.157,1.393,2.15l0.075,3.42c0.003,0.136-0.302,0.529-0.411,0.61
			c-0.147,0.109-0.561-0.374-0.566-0.571L101.763,161.859z"/>
		<path d="M160.385,160.653c0.003-0.106,0.521-0.428,0.583-0.337c0.064,0.092,0.313,0.44,0.311,0.578l-0.065,4.678l-0.084,0.764
			c-0.018,0.164-0.581-0.231-0.739-0.306c-0.671-0.318-2.068,0.991-3.426,0.147c-0.414-0.257-0.941-1.111-0.944-1.645l-0.029-4.141
			l0.782,0.028l0.119,4.208c0.026,0.906,1.203,1.19,1.874,1.044c0.712-0.156,1.515-0.743,1.539-1.757L160.385,160.653z"/>
		<path d="M52.713,160.523l0.752-0.183l-0.003,6.181c-1.472-1.365-2.205,0.495-3.985-0.241c-0.536-0.222-1.205-1.101-1.228-1.869
			l-0.096-3.249c-0.006-0.196,0.142-0.582,0.236-0.705c0.094-0.122,0.603-0.054,0.727,0.01l0.142,4.398
			c0.023,0.714,1.342,0.915,1.876,0.815c0.543-0.102,1.435-0.763,1.461-1.543L52.713,160.523z"/>
		<path d="M123.093,162.623l-0.099,3.492c-0.005,0.163-0.556,0.285-0.788,0.255l0.028-6.124l0.955,0.58
			c0.376,0.229,1.545-1.321,3.135-0.343c0.517,0.318,1.176,1.339,1.138,2.151l-0.152,3.198c-0.007,0.137-0.292,0.509-0.383,0.607
			c-0.09,0.097-0.378-0.462-0.382-0.611l-0.109-3.875c-0.025-0.879-1.23-1.139-1.827-1.003
			C123.955,161.099,123.123,161.555,123.093,162.623z"/>
		<path d="M88.86,161.16c-2.23,0.292-0.211,4.734-2.025,5.434l-0.071-6.365l1.153,0.616l1.873-0.778
			c0.102,0.161,0.288,0.933,0.125,0.954L88.86,161.16z"/>
		<path d="M21.63,165.668c0.002,0.353-0.443,0.832-0.786,0.671l-0.068-5.267c-0.002-0.121-0.111-0.489-0.138-0.59
			c-0.04-0.151,0.509-0.142,0.633-0.045c0.144,0.113,0.501,0.489,0.656,0.412l0.715-0.356l0.783-0.364
			c0.215-0.1,0.618,0.493,0.582,0.771c-1.287,0.029-2.396,0.596-2.39,1.913L21.63,165.668z"/>
		<path d="M55.879,167.943l-0.814,0.132l0.647-2.26c0.04-0.141,0.251-0.467,0.353-0.574c0.136-0.143,0.742,0.026,0.748,0.12
			L55.879,167.943z"/>
		<rect x="138.026" y="157.474" width="2.961" height="0.8"/>
		<path d="M45.13,158.267h-2.193c-0.133,0-0.443-0.278-0.533-0.374c-0.09-0.097,0.431-0.423,0.562-0.42l2.52,0.056
			C45.627,157.531,45.312,158.267,45.13,158.267z"/>
		<path d="M28.855,158.266l-2.221-0.004c-0.129,0-0.439-0.275-0.528-0.37s0.436-0.419,0.566-0.417l2.523,0.041
			C29.32,157.539,29.012,158.266,28.855,158.266z"/>
	</g>
</g>
</svg>
