<?xml version="1.0" encoding="iso-8859-1"?>
<!-- Generator: Adobe Illustrator 30.6.0, SVG Export Plug-In . SVG Version: 9.03 Build 0)  -->
<svg version="1.1" id="Layer_1" xmlns="http://www.w3.org/2000/svg" xmlns:xlink="http://www.w3.org/1999/xlink" x="0px" y="0px"
	 viewBox="0 0 439.155 71.947" style="enable-background:new 0 0 439.155 71.947;" xml:space="preserve">
<g>
	<path d="M199.466,35.236c0.67-2.542,0.785-4.983,0.763-7.396l-10.143,0.016l0.019-5.12l15.905,0.005
		c0.359,10.312,0.002,20.202-10.459,24.261c-9.115,2.831-19.719-0.244-22.223-9.853c-0.647-2.482-1.106-4.898-1.104-7.48
		l0.009-11.719c0.002-3.163,0.714-6.171,1.946-8.999c1.459-3.351,3.951-5.882,7.281-7.352c1.997-0.882,4.025-1.245,6.25-1.491
		c7.163-0.791,14.276,2.781,17.331,9.767l-5.074,2.459l-1.573-2.328c-1.813-2.683-4.716-4.132-7.967-4.276
		c-2.433-0.108-4.807,0.073-6.953,1.248c-3.939,2.157-5.385,6.73-5.384,11.195l0.004,12.447c0.001,4.952,2.192,10.048,7.142,11.429
		C191.331,43.749,197.812,41.511,199.466,35.236z"/>
	<polygon points="155.435,26.452 135.512,26.485 135.518,41.62 158.782,41.637 158.778,47.128 129.662,47.123 129.654,0.923 
		158.778,0.92 158.79,6.325 135.527,6.334 135.505,21.009 155.406,21.044 	"/>
	<path d="M246.4,36.452l-18.988-0.029l-3.841,10.788l-5.949-0.046L234.2,0.949l5.626,0.032l16.328,46.228l-5.995-0.004L246.4,36.452
		z M244.382,30.947l-7.498-21.374l-7.589,21.398L244.382,30.947z"/>
	<polygon points="298.309,41.739 298.297,47.174 269.184,47.172 269.185,0.961 275.002,1.003 275.002,41.728 	"/>
	<polygon points="116.262,41.739 116.258,47.174 87.124,47.172 87.125,0.961 92.942,1.003 92.941,41.727 	"/>
	<g>
		<path d="M436.65,30.887c-0.001,2.931-0.664,5.639-1.729,8.166c-1.49,3.533-4.259,6.028-7.859,7.252
			c-1.978,0.547-3.957,0.951-6.045,0.952l-16.891,0.003l-0.007-46.324l16.798-0.02c2.506-0.003,4.842,0.481,7.126,1.315
			c6.164,2.506,8.614,9.219,8.612,15.589L436.65,30.887z M430.767,17.816c0.003-1.999-0.455-3.77-1.063-5.47
			c-0.806-2.254-2.423-3.85-4.62-4.816c-1.638-0.558-3.395-0.963-5.166-0.964l-9.825-0.005l-0.008,35.185l10.615-0.029
			c2.52-0.007,4.876-0.857,6.772-2.403c2.338-2.419,3.272-5.548,3.276-8.93L430.767,17.816z"/>
		<path d="M358.196,36.451l-18.988-0.026l-3.841,10.802l-5.946-0.061l16.575-46.214l5.627,0.02l16.328,46.236l-5.985-0.009
			L358.196,36.451z M356.179,30.947l-7.52-21.356l-7.57,21.378L356.179,30.947z"/>
		<rect x="380.961" y="0.92" width="5.908" height="46.343"/>
	</g>
	<path d="M98.587,59.669l1.06-0.048l-2.419,10.696c-0.441,0.107-1.236,0.109-1.651,0.002c-0.803-2.9-1.442-5.467-2.457-8.367
		l-2.397,8.271c-0.379,0.269-1.249,0.28-1.617-0.016l-2.368-10.516l1.02-0.044l2.221,9.257c1.065-3.169,1.772-6.003,2.61-9.159
		l1.14-0.094c0.849,3.051,1.487,5.843,2.649,9.096C97.367,65.479,97.893,62.68,98.587,59.669z"/>
	<polygon points="227.379,70.296 226.162,70.4 220.344,61.229 220.225,70.388 219.176,70.386 219.171,59.714 220.535,59.572 
		226.192,68.248 226.316,59.708 227.374,59.654 	"/>
	<path d="M351.15,70.367l-1.16-3.702c-0.187-0.596-0.965-1.231-1.585-1.241l-2.535-0.04v4.959l-1.129-0.023l-0.005-10.68
		l4.168,0.022c1.542,0.008,2.651,0.898,2.917,2.21c0.32,1.575-0.41,2.759-2.055,3.291c0.648,0.644,1.2,1.199,1.38,1.74l1.135,3.415
		L351.15,70.367z M349.46,64.483c0.975-0.019,1.285-1.308,1.271-1.925c-0.014-0.613-0.421-1.829-1.189-1.853l-3.616-0.114
		l-0.012,3.963L349.46,64.483z"/>
	<path d="M203.79,70.423l-1.224-3.881c-0.151-0.478-0.933-1.101-1.437-1.111l-2.64-0.054l-0.007,4.964l-1.147-0.018l0.003-10.682
		l4.498,0.039c1.469,0.013,2.453,1.168,2.643,2.447c0.215,1.451-0.607,2.56-2.176,3.053c0.779,0.67,1.34,1.252,1.568,1.973
		l0.994,3.144L203.79,70.423z M203.329,62.545c-0.025-1.102-0.634-1.92-1.736-1.925l-3.076-0.014l0.015,3.921l2.91,0.068
		C202.656,64.623,203.358,63.823,203.329,62.545z"/>
	<path d="M263.901,67.508l-4.903-0.041l-0.985,2.913l-1.099-0.039l3.687-10.645l1.704-0.037l3.681,10.66l-1.18,0.09L263.901,67.508z
		 M263.418,66.529l-2.086-5.749l-2.033,5.772L263.418,66.529z"/>
	<path d="M431.03,67.483l-4.87-0.004l-0.974,2.829l-1.105,0.031l3.692-10.684l1.687-0.002l3.691,10.667l-1.167,0.094L431.03,67.483z
		 M430.671,66.518l-2.057-5.805l-2.083,5.845L430.671,66.518z"/>
	<path d="M372.384,67.495l-4.924-0.021l-0.99,2.96l-1.059-0.104l3.695-10.671l1.684-0.002l3.695,10.682h-1.207L372.384,67.495z
		 M372.006,66.535l-2.065-5.927l-2.052,5.938L372.006,66.535z"/>
	<path d="M286.796,59.761l1.149-0.142l-0.023,7.403c-0.007,2.325-1.731,3.605-3.971,3.613c-2.092,0.007-4.051-1.11-4.068-3.443
		l-0.056-7.529l1.147-0.025l0.029,7.581c0.006,1.55,1.253,2.446,2.735,2.413c0.738-0.016,1.6-0.158,2.167-0.574
		c0.463-0.34,0.89-1.376,0.89-2.054L286.796,59.761z"/>
	<path d="M137.472,70.678c-1.529-0.237-2.827-0.565-3.718-1.846l0.672-0.902c0.783,1.396,2.002,1.786,3.467,1.8
		c1.227,0.012,2.124-0.563,2.331-1.727c0.185-1.042-0.422-1.944-1.582-2.296l-2.94-0.892c-0.853-0.259-1.462-1.174-1.596-1.861
		c-0.186-0.956,0.02-2.135,0.87-2.675c1.902-1.208,4.492-0.933,6.001,0.576l-0.701,0.657c-1.265-1.074-3.086-1.361-4.535-0.464
		c-0.872,0.54-0.796,2.488,0.218,2.797l2.952,0.899c1.837,0.559,2.885,1.905,2.476,3.682
		C141.014,70.047,139.355,70.97,137.472,70.678z"/>
	<path d="M305.873,70.68c-1.627-0.248-2.921-0.556-3.863-1.929l0.786-0.785c0.689,1.369,2.05,1.768,3.485,1.772
		c1.165,0.004,2.044-0.633,2.252-1.681c0.201-1.01-0.392-1.983-1.515-2.328l-2.732-0.839c-1.322-0.406-2.005-1.535-1.929-2.807
		c0.078-1.312,1.097-2.232,2.539-2.464c1.398-0.225,3.121,0.066,4.169,0.983c0.2,0.175-0.159,0.837-0.42,0.885
		c-1.308-0.998-3.211-1.37-4.711-0.389c-0.401,0.262-0.528,1.317-0.406,1.767c0.166,0.615,0.802,1.117,1.485,1.299l2.478,0.66
		c1.694,0.451,2.574,2.017,2.221,3.536C309.324,70.036,307.709,70.96,305.873,70.68z"/>
	<polygon points="119.744,65.399 114.857,65.394 114.86,69.612 120.409,69.614 120.4,70.572 113.744,70.569 113.752,59.731 
		120.347,59.734 120.353,60.612 114.912,60.615 114.887,64.533 119.762,64.53 	"/>
	<path d="M182.445,65.375l-4.898,0.032l0.003,4.201l5.392,0.011c0.175,0.073,0.263,0.685,0.211,0.942l-6.672,0.005l-0.006-10.831
		l6.531-0.002l0.015,0.877h-5.407l0.031,3.93l4.539-0.022C182.33,64.518,182.495,65.101,182.445,65.375z"/>
	<polygon points="327.294,70.279 326.271,70.366 326.274,60.589 322.807,60.532 322.831,59.655 330.739,59.655 330.772,60.549 
		327.295,60.555 	"/>
	<polygon points="159.015,70.31 157.948,70.388 157.948,60.553 154.45,60.551 154.462,59.657 162.509,59.651 162.486,60.547 
		159.012,60.551 	"/>
	<polygon points="394.82,69.548 394.947,70.429 388.505,70.434 388.499,59.721 389.64,59.621 389.647,69.559 	"/>
	<rect x="408.918" y="59.617" width="1.129" height="10.818"/>
	<g>
		<path d="M62.779,70.358H3.364c-1.31-0.465-2.554-1.248-3.093-2.444c-0.602-1.335-0.09-2.675,0.467-4.04L37.384,0.653l5.167,9.465
			l-28.93,51.011l43.533,0.014L62.779,70.358z"/>
		<path d="M45.075,33.621l-14.31,24.04l-11.078,0.008l20.941-35.932c1.224-1.462,2.527-2.874,4.449-2.972
			c1.836-0.093,3.085,1.268,4.278,2.635l29.311,49.149L67.513,70.59L45.075,33.621z"/>
	</g>
</g>
</svg>
