<?xml version="1.0" encoding="UTF-8"?>
<svg id="Layer_1" data-name="Layer 1" xmlns="http://www.w3.org/2000/svg" viewBox="0 0 563.52 114.43">
  <polygon points="416.22 0 563.43 0 563.52 .24 511.67 114.43 415.7 75.65 416.22 0"/>
  <polygon points="0 74.86 0 5.7 13.16 5.69 13.15 62.32 41.59 62.34 41.74 74.91 0 74.86"/>
  <path d="M302.26,60.63l-28.28-.07-5.65,14.38-13.72-.07,26.69-69.17,13.45-.02,26.69,69.18-13.71.1-5.46-14.32ZM297.45,47.79l-9.25-23.82-9.41,23.88,18.66-.05Z"/>
  <path d="M350.21,58.28c-3.31-10.54-.56-23.33,7.85-30.49,9.4-8.02,22.13-7.13,31.04,1.54l.06-25.35,12.88-.04v70.94s-12.75.05-12.75.05l-.23-5.29c-6.01,5.63-14.23,8.02-22.13,5.59-8.05-2.48-14.17-8.82-16.72-16.94ZM376.93,64.45c5.46-.51,9.68-3.73,11.61-8.68,1.82-4.67,1.69-9.67-.64-14.16s-6.89-7.31-12.06-7.4-9.45,2.4-12.03,6.75c-3.56,6-2.88,13.65,1.61,18.98,2.87,3.41,6.94,4.93,11.51,4.5Z"/>
  <g>
    <path d="M199.36,69.67c-7.33,6.81-17.32,8.61-26.26,3.78-11.51-6.21-16.05-19.34-12.94-31.92,1.35-5.46,4.14-10.24,8.41-13.88,9.15-7.81,22.13-6.93,30.78,1.6l.1-5.53,12.95-.03v51.22s-12.74.02-12.74.02l-.3-5.26ZM186.84,64.35c4.78-.33,8.86-2.8,11.1-6.95s2.66-9.43,1.04-14.01-5.41-7.99-9.82-8.95c-5-1.09-9.93.36-13.24,4.09-4.95,5.58-5.26,13.74-1.19,19.88,2.7,4.08,7.06,6.29,12.12,5.94Z"/>
    <g>
      <path d="M101.67,78.67l14.06-.1c2.82,2.92,6.63,4.34,10.75,4.37,6.16.05,12.68-1.13,14.61-7.3.72-2.31.93-4.68.7-7.17-9,9.1-24.04,8.12-32.6-.93-9.78-10.34-10.17-27.49-.18-38.27,8.83-9.54,23.55-9.42,32.79-.32l.32-5.22h12.59s-.15,47.61-.15,47.61c-.02,4.72-1.33,9.18-3.63,13.17-1.87,3.24-4.76,5.6-8.06,7.28-7.45,3.79-17.32,3.81-25.41,1.78-7.45-1.87-13.35-7.1-15.79-14.9ZM142.91,48.71c0-7.95-6.45-14.39-14.42-14.39s-14.42,6.44-14.42,14.39,6.45,14.39,14.42,14.39,14.42-6.44,14.42-14.39Z"/>
      <path d="M83.29,60l10.81,5.15c-3.47,5.05-8.45,8.51-14.33,10.15-12.58,3.3-26.18-.47-32.69-12.11-5.33-9.52-4.57-21.38,1.85-30.16,5-6.84,12.71-10.51,21.16-10.53,7.04-.01,13.6,2.14,18.86,6.83,6.8,6.09,8.88,14.54,8.73,23.63l-41.49.02c.65,5.35,4.31,9.67,9.57,11.22,6.13,1.94,12.61.37,17.54-4.21ZM84.76,42.98c-1.16-4.2-3.92-6.9-7.49-8.49-8.56-3.24-17.33.14-20.36,8.49h27.86Z"/>
    </g>
  </g>
  <rect x="222.07" y="3.93" width="12.91" height="70.98"/>
  <rect x="328.93" y="23.71" width="12.84" height="51.2"/>
  <polygon points="216.3 84.75 219.97 84.72 215.58 104.09 212.02 104.25 208.23 92.07 204.75 104.17 201.09 104.21 196.69 84.8 200.58 84.72 203.44 96.61 206.96 84.76 209.91 84.73 213.47 96.86 216.3 84.75"/>
  <polygon points="344.1 84.74 339.72 104.14 336.12 104.15 332.37 92.03 328.78 104.2 325.35 104.19 320.93 84.75 324.65 84.64 327.59 96.51 331.04 84.86 334.08 84.77 337.6 96.45 340.42 84.78 344.1 84.74"/>
  <ellipse cx="335.67" cy="10.34" rx="8.04" ry="8.02"/>
  <polygon points="179.77 104.14 176.29 104.24 167.87 91.61 167.76 104.18 164.08 104.19 164.08 84.74 167.7 84.79 175.94 97.19 176.18 84.72 179.77 84.74 179.77 104.14"/>
  <path d="M264.03,94.42c0,5.64-4.58,10.21-10.23,10.21s-10.23-4.57-10.23-10.21,4.58-10.21,10.23-10.21,10.23,4.57,10.23,10.21ZM260.54,94.46c0-3.64-2.96-6.59-6.61-6.59s-6.61,2.95-6.61,6.59,2.96,6.59,6.61,6.59,6.61-2.95,6.61-6.59Z"/>
  <polygon points="310.34 104.02 306.7 104.22 306.68 95.72 300.1 95.68 300.08 104.17 296.4 104.2 296.4 84.74 300.08 84.74 300.09 92.02 306.68 92.03 306.7 84.72 310.33 84.73 310.34 104.02"/>
  <path d="M358.97,100.13l-8.07-.07-1.6,4.11-3.81-.08,7.46-19.24,3.82-.14,7.41,19.44-3.8.09-1.41-4.11ZM357.47,96.36l-2.64-6.51-2.75,6.64,5.39-.13Z"/>
  <path d="M267.46,99.26l-.24-14.5,3.74-.02.03,13.42c0,1.59,1.2,2.72,2.54,2.85s3.15-.72,3.16-2.33l.04-14.05,3.74-.02-.02,13.7c0,3.8-3.12,6.43-6.86,6.25-2.88-.14-6.06-2.03-6.11-5.3Z"/>
  <polygon points="389.81 95.4 382.84 95.47 382.79 100.61 389.79 100.66 389.77 104.29 379.23 104.28 379.17 84.73 389.77 84.72 389.78 88.36 382.8 88.4 382.8 91.92 389.77 91.93 389.81 95.4"/>
  <polygon points="194.73 95.42 187.74 95.43 187.72 100.62 194.75 100.65 194.71 104.27 184.17 104.28 184.14 84.73 194.71 84.71 194.77 88.4 187.73 88.39 187.73 91.92 194.77 91.93 194.73 95.42"/>
  <path d="M402.33,102.93c-1.75,1.66-4.04,2.02-6.25,1.39-1.84-.53-3.59-1.94-4.53-4l3.2-1.93c.61,1.51,1.73,2.4,3.32,2.57,1.04.11,2.52-.99,2.13-2.18-1-3.05-9.17-5.93-7.31-11.37.44-1.29,1.61-2.5,3.23-3.03,2.86-.92,5.81.5,7.41,2.89l-2.86,2.32c-.82-1.06-1.7-1.77-3.05-1.85-.41-.02-1.18.51-1.33.89-.2.51.19,1.28.62,1.67l5.22,4.67c2.26,2.02,2.49,5.78.19,7.96Z"/>
  <path d="M239.51,102.85c-1.67,1.66-3.98,2.09-6.19,1.52-1.93-.5-3.72-1.92-4.62-4.05l2.99-1.85c.84,1.16,1.8,2.24,3.36,2.53.71.13,1.99-.67,2.23-1.39.28-.82-.36-1.77-.94-2.29l-4.22-3.73c-1.19-1.05-2.35-2.59-2.43-4.24-.17-3.34,3.04-5.61,6.23-5.07,1.92.33,3.35,1.47,4.69,2.91l-2.65,2.4c-1.45-1.61-3.48-2.46-4.46-1.33-.27.31-.17,1.38.14,1.65l5.21,4.67c2.38,2.13,3.1,5.84.66,8.28Z"/>
  <polygon points="290.16 104.13 286.47 104.2 286.47 88.46 282.96 88.36 282.96 84.74 293.79 84.71 293.83 88.36 290.12 88.43 290.16 104.13"/>
  <polygon points="376.26 100.65 376.24 104.04 367.05 104.06 367.05 84.75 370.85 84.71 370.82 100.58 376.26 100.65"/>
</svg>