<?xml version="1.0" encoding="UTF-8"?>
<svg id="Layer_1" data-name="Layer 1" xmlns="http://www.w3.org/2000/svg" viewBox="0 0 391.68 114.46">
  <path d="M101.22,0c.13.57.52,1.57,1.04,2.09l10.82,10.86.04,34.54-.06,53.48-12.01,11.89-38.89.04-.21-10.63-10.82.02.09,10.55H12.19s-11.11-10.93-11.11-10.93L0,100.94V12.38S12.22.89,12.22.89h29.37s15.04,14.92,15.04,14.92l12.6-12.52c1-1.06,1.83-2.13,2.56-3.29h29.43ZM96.51,101.42l5.09-5.44V18.04s-5.55-5.73-5.55-5.73l-19.55.07-19.89,19.64-19.86-19.65-19.62-.04-5.52,5.59v78.2s5.6,5.46,5.6,5.46l22.53-.16v-10.65s33.75,0,33.75,0l.11,10.71,22.93-.08Z"/>
  <g>
    <polygon points="191.74 100.68 191.7 112.64 181.26 112.91 181.27 90.45 161.57 90.47 161.53 112.84 151.08 112.89 151.07 62.81 161.52 62.73 161.59 81.86 181.25 81.85 181.28 62.79 191.7 62.68 191.74 100.68"/>
    <path d="M221.43,102.06l10.19.03c-1.71,7.17-8.48,11.5-15.87,12.27-5.54.58-11.11-1.44-15.29-5.06-2.79-2.42-4.42-5.54-5.03-9.15s-.56-7.36.06-11.04c1.06-6.28,5.36-11.29,11.38-13.31,5.03-1.68,10.31-1.4,15.18.66,4.91,2.22,8.57,6.51,9.35,11.93l.78,8.64-27.35.07c.03,3.33,1.37,6.15,4,7.9,1.94,1.03,4.1,1.4,6.33,1.33,2.69-.25,4.96-1.66,6.28-4.26ZM222.06,90.59c-.66-4.66-3.04-7.25-7.62-7.74-5.22-.56-8.79,2.72-9.33,7.83l16.95-.09Z"/>
    <path d="M234.22,101.56c.59-4.91,3.88-8.98,8.78-9.81l10.89-1.84c1.58-.27,3.57-1.45,3.73-3.21s-1.75-3.38-3.4-3.77-3.27-.38-4.85-.12c-2.56.43-4.23,2.43-4.59,5.02l-9.37-.03c.15-1.72.43-3.14.88-4.64,1.28-3.31,3.71-5.89,7.15-7.02,6.19-2.05,14.35-1.88,19.81,1.76,2.94,1.96,4.03,4.93,4.05,8.35l.12,23.44,2.48,3.03-10.7.29-1.86-3.81c-4.59,3.92-9.33,6.32-15.27,4.53-5.34-1.62-8.54-6.48-7.85-12.16ZM254.23,105.54c3.41-2.15,3.42-6.3,3.44-10.29l-9.87,2.33c-1.55.37-3.23,1.79-3.73,3.39-.43,1.39.08,3.95,1.28,4.85,2.62,1.96,6.21,1.35,8.87-.27Z"/>
    <g>
      <path d="M333.12,112.89l.03-24.19c-.55-1.92-.94-3.97-2.77-5.01-2.4-1.37-5.94-1.08-8.11.76-1.71,1.44-2.95,3.8-2.96,6.08l-.1,22.37-9.79-.04v-49.89s9.81-.15,9.81-.15v17.58c2.76-3.86,6.69-5.77,11.31-5.63,3.32.1,6.47.95,8.91,3.26,2.39,2.25,3.52,5.24,3.67,8.56l-.08,26.23-9.91.07Z"/>
      <path d="M306.19,106.31l-.18,7.05c-3.69.26-7.42.35-11.03-.74-2.21-.67-4.51-2.34-4.52-4.86l-.05-24.71-5.25-.1.08-6.78,5.15-.08.02-10.3,9.63-.02.05,10.32,5.95.02.14,6.88-6.13.07.04,22.32,6.09.93Z"/>
      <rect x="272.88" y="62.72" width="9.83" height="50.19"/>
    </g>
  </g>
  <path d="M166.56,0l9.07,39.54L185.02,0h15.4s-.4,50.98-.4,50.98l-9.84-.16-.28-39.64-9.29,39.78h-10.25s-9.3-39.8-9.3-39.8l-.26,39.81h-9.74s.04-46.87.04-46.87c0-1.44.72-2.87,1-4.1h14.44Z"/>
  <g>
    <path d="M381.82,51.04l-.06-23.86c-.42-1.75-.63-3.72-2.1-4.91-2.04-1.66-5.37-1.74-7.68-.51-2.16,1.15-3.37,3.3-4.02,5.61l-.22,23.64-9.74-.05V.95s9.82-.02,9.82-.02v17.52c4.3-5.82,11.26-6.87,17.46-4.16,3.6,1.77,5.88,4.99,6.4,9.03v27.64s-9.86.08-9.86.08Z"/>
    <path d="M282.95,42.91c-.68-5.2,1.22-9.85,6.1-12.02,6.67-2.95,15.55-2.01,17.11-4.94.9-1.7-.61-4.18-3.03-4.85-1.77-.49-3.72-.46-5.52-.1-2.38.48-3.77,2.44-4.06,4.78l-9.48.11.46-3.32c.95-3.96,3.72-7.14,7.67-8.4,6.38-2.04,15.46-1.73,20.63,2.47,2.18,1.77,3.04,4.08,3.05,6.84l.14,22.64c.01,1.75,1.58,3.05,2.16,4.73l-10.64.19-1.36-4.01c-5.57,5.71-14.62,7.26-20.49,1.8-1.67-1.55-2.45-3.7-2.74-5.93ZM304.76,42.18c.77-1.7,1.21-3.31,1.34-5.05l.27-3.67-10.88,2.53c-1.88.44-3.08,3.05-2.95,4.84.18,2.56,2.43,4.35,4.9,4.34,2.76,0,5.25-1.15,7.33-2.98Z"/>
    <path d="M242.4,32.49c0,10.93-8.87,19.79-19.82,19.79s-19.82-8.86-19.82-19.79,8.87-19.79,19.82-19.79,19.82,8.86,19.82,19.79ZM223.43,44.1c3.66-.37,6.51-2.76,7.35-6.21s.86-7.29-.03-10.83c-.93-3.73-4.14-6.08-7.92-6.2-3.97-.12-7.45,2.23-8.47,6.15-.95,3.62-.96,7.49.02,11.13,1.08,4,4.84,6.39,9.05,5.97Z"/>
    <path d="M329.59,51.36c-5.8-1.35-9.85-6.17-9.71-12.19l9.75.13c.56,1.47.91,3.16,2.16,3.98,4.98,3.3,12.93.96,12.51-2.09-.14-1.04-1.25-2.47-2.34-2.76l-12.66-3.44c-2.17-.59-4.3-1.64-5.88-3.23-2.2-2.21-2.9-5.52-2.29-8.57,2.2-10.96,17.25-12.85,26.55-7.74,3.48,1.91,5.1,5.86,5.23,9.64l-9.48.08c-.39-2.18-1.72-3.81-3.79-4.59-1.72-.54-3.42-.51-5.29-.22-1.37.47-3.16,1.23-3.62,2.83-.23,1.07,1.09,2.79,2.21,3.09l13.84,3.72c3.98,1.07,6.85,4.75,7.23,8.71.55,5.79-2.81,10.52-8.18,12.27s-10.66,1.66-16.23.37Z"/>
    <path d="M268.75,24.53c-.07-2.67-5.94-5.08-10.16-2.2-1.61,1.11-3.27,3.12-3.3,5.57l-.21,23.07h-9.64s0-37.06,0-37.06l9.44.03.15,5.06c1.89-2.67,3.97-4.66,7.02-5.45,3.37-.88,6.99-.76,10.23.53,4.12,1.65,6.81,5.42,6.82,9.89l.11,27.01-10.09-.02v-12.88s-.37-13.55-.37-13.55Z"/>
  </g>
</svg>