<?xml version="1.0" encoding="UTF-8"?>
<svg id="Layer_1" data-name="Layer 1" xmlns="http://www.w3.org/2000/svg" viewBox="0 0 443.52 114.25">
  <path d="M443.52,68.44v.17s-6.79,16.21-6.79,16.21c-.67,1.62-1.73,2.83-3.17,3.32-1.68.58-3.45.34-4.93-.69.59-2.07,3.01-.56,4.77-1.4.88-.42,1.49-1.84,1.52-2.8l-6.73-14.76c.62-.31,1.5-.45,2.23-.25l5.79,12.7,4.9-12.34c.32-.81,1.95-.56,2.41-.17Z"/>
  <rect x="121.38" y="8.61" width="1.84" height="105.24"/>
  <g>
    <polygon points="143.47 47.58 138.54 47.76 138.53 19.78 143.4 19.74 143.35 31.35 157.22 31.34 157.25 19.74 162.19 19.61 162.14 47.58 157.23 47.85 157.24 35.86 143.31 35.9 143.47 47.58"/>
    <path d="M257.2,47.69l-4.91.15-.24-14.66c-.99-2.13-3.25-3.07-5.48-2.67-2.07.49-3.87,2.22-3.87,4.63v12.61s-4.88-.1-4.88-.1v-29.24s4.86-.09,4.86-.09l.06,11.19c1.44-1.25,2.56-2.29,4.13-2.9,2.21-.85,4.73-.72,6.81.63,1.62,1.05,3.32,3.14,3.34,5.46l.17,14.99Z"/>
    <path d="M192.43,47.26c-2.67-1.37-3.94-4.09-3.44-6.84,1.12-6.15,8.65-6.14,14.53-4.88.19-1.3-.12-2.59-.99-3.63-2.05-2.44-6.76-1.34-10.35-.37l-1.35-3.66c3.19-1.24,6.58-1.72,10.02-1.45,4.48.34,7.48,3.77,7.49,8.21l.03,13.06-4.19.16-.92-2.44c-2.9,2.74-7.11,3.74-10.83,1.83ZM202.84,42.72c.97-1.2.88-2.83.89-4.24-4.05-1.07-9.49-1.43-10.12,2.62-.2,1.26.42,2.46,1.64,3.04,2.41,1.15,5.77.84,7.59-1.41Z"/>
    <path d="M178.57,44.28c1.73-.4,3.01-1.24,4.64-2.18l2.55,2.25c-2.37,2.86-5.75,4.18-9.4,3.9-3.34-.26-6.66-1.96-8.57-5.05-2.67-4.33-2.13-9.92,1.31-13.73s9.32-4.54,13.49-1.5c3.38,2.46,4.77,6.62,4.11,10.81h-15.53c.18,3.74,3.6,6.38,7.41,5.49ZM182.01,35.66c-.12-3.33-2.28-5.48-5.17-5.71-3.23,0-5.73,2.6-5.72,5.81l10.89-.1Z"/>
    <path d="M233.94,43.44l.29,3.63c-2.17,1.12-4.64,1.45-6.91.71s-3.5-2.53-3.53-4.75l-.15-12.53-2.2.35c-.37-.65-.6-1.49-.52-2.19l.23-1.91,2.47-.28.14-5.7,4.8.06.04,5.7,5.84.12-.35,4-5.58-.05.28,11.93c.17.39.59.88.93,1.18,1.45.38,2.45.46,4.24-.27Z"/>
    <rect x="200.65" y="30.68" width="29.53" height="4.86" transform="translate(182.27 248.51) rotate(-89.99)"/>
  </g>
  <path d="M329.6,113.57l-9.38.25-.02-21.02,9.32.09c5.42.05,9.42,4.92,9.53,10.12s-3.81,10.09-9.46,10.56ZM334.58,109.24c2.78-3.51,2.81-8.28.06-11.68-1.33-1.58-3.12-2.41-5.18-2.47l-6.9-.2v16.88s8.03-.37,8.03-.37c1.56-.07,2.85-1.05,3.99-2.16Z"/>
  <path d="M242.33,73.92l-10.79.07-.2,7.39,13.11.03v2.16s-15.42-.04-15.42-.04l-.04-21.09,15.44-.04.04,2.15h-13.1s.07,7.35.07,7.35h10.72c.32.18.8.5.98.71.21.24-.43.97-.81,1.31Z"/>
  <path d="M377.99,81.65c-2.38-2.32-2.88-5.79-1.82-8.85,1.14-3.27,4.32-5.41,7.79-5.07,2.08.2,3.66,1.37,5.23,2.88l.11-8.79c.91-.2,1.56-.24,2.31-.15l-.04,21.29-1.71.73-.8-3.06c-2.85,3.75-7.72,4.3-11.08,1.02ZM389.6,75.76c0-3.28-2.67-5.94-5.95-5.94s-5.95,2.66-5.95,5.94,2.67,5.94,5.95,5.94,5.95-2.66,5.95-5.94Z"/>
  <path d="M238.48,113.1l-2.28.81-.11-9.8-12.34.05-.36,9.72c-.91-.23-1.56-.59-2.16-1.2l.06-19.57c.78-.34,1.47-.39,2.37-.18l.04,9.2,12.41.1v-8s.3-1.44.3-1.44l2.07.17.02,20.13Z"/>
  <path d="M353.21,83.32c-4.15,1.25-8.28.03-11.46-2.76l1.26-1.63c2.98,2.39,6.93,4.01,10.3,2.15,1.02-.56,1.94-1.91,1.96-3.14.02-1.04-1.1-2.58-2.14-2.9l-7.21-2.2c-1.95-.6-3.33-2.57-3.5-4.36-.2-2.05.79-4.16,2.66-5.16,3.79-2.02,8.38-1.3,11.63,1.28l-1.52,1.57c-1.96-1.33-3.91-2.14-6.24-2.05-2.13.09-4.22,1.47-4.22,3.83,0,.98,1.21,2.6,2.18,2.88l6.39,1.87c1.62.47,3.25,1.63,3.87,3.27,1.18,3.13-.7,6.35-3.96,7.33Z"/>
  <path d="M137.89,81.6c-.7-.49-1.43-1.54-.74-2.15.47-.27,1.65.24,2.18.54,1.81,1,3.55,1.82,5.62,1.93,2.46.12,5-1.35,5.18-3.98.07-1.09-1.27-2.66-2.3-2.97l-7.27-2.22c-1.5-.46-2.83-2.13-3.16-3.7-.37-1.75.31-4.09,1.8-5.16,3.79-2.71,8.88-2.06,12.28.77l-1.16,1.66c-1.96-1.32-3.8-2.19-6.08-2.19s-4.58,1.33-4.64,3.82c-.02,1.01,1.24,2.55,2.2,2.85l7.57,2.38c1.52.48,2.77,2.31,3.02,3.85.49,3.01-1.6,5.58-4.45,6.35-3.41.92-7.07.3-10.03-1.76Z"/>
  <path d="M214.83,83.34l-.34-9.91c-.05-1.46-.58-2.64-2.02-3.24-1.33-.55-2.91-.75-4.24-.07-1.1.56-2.68,1.82-2.7,3.33l-.14,10.05h-2.26s0-21.94,0-21.94l2.28-.04.03,8.44c3.05-2.2,6.09-3.29,9.04-1.21,1.25.88,2.39,2.58,2.41,4.45l.1,10.31-2.15-.19Z"/>
  <path d="M305.9,113.54c-.35-3.79.08-7.38-.5-11.14-.27-1.72-3.08-2.71-4.62-2.39s-3.48,1.21-3.73,2.7c-.7,4.16.02,10.14-.98,10.83-.29.2-1.11.15-1.67.04v-21.52s2.23.02,2.23.02l.05,8.49c2.15-2.26,5.11-3.37,8.04-2.12,1.95.84,3.34,2.99,3.36,5.18l.08,9.96-2.27-.05Z"/>
  <path d="M194.51,114.19c-2.55.06-4.79-1.33-5.73-3.53-.6-1.4-.21-2.87.55-4.06,1.83-2.88,6.74-2.18,10.7-2.02.1-1.05-.16-2.23-.76-3.07-1.52-2.17-5.65-1.51-8.83-.49l-.13-1.79c2.37-.95,4.81-1.5,7.29-1.01,2.73.55,4.21,2.43,4.61,5.1.52,3.44.45,6.92-.03,10.4-.38.2-1.5.26-1.66-.11l-.78-1.7c-1.48,1.35-3.11,2.24-5.22,2.28ZM198.79,111.09c1.17-.92,1.72-3.01,1.09-4.3-2.2-1.1-4.95-1.25-7.22-.36-1.11.43-2.17,1.96-1.98,3.11.2,1.24,1.47,2.47,2.66,2.75,1.86.44,3.96-.01,5.45-1.19Z"/>
  <path d="M248.16,112.06c2.48.78,4.67-.27,6.7-1.63.39-.26,1.23.53,1.17.97-2.58,3.08-6.82,3.59-10.2,1.63s-4.6-5.9-3.41-9.63c1.4-4.38,6.19-6.85,10.43-4.67,2.93,1.5,4.39,4.93,3.83,8.09l-12.31.22c.31,2.2,1.56,4.32,3.79,5.02ZM254.62,105.17c-.15-1.82-.75-3.28-2.03-4.32-1.58-1.28-3.8-1.4-5.51-.39s-2.78,2.77-2.58,4.76l10.12-.05Z"/>
  <path d="M246.93,77.85c1.02-4.34,7.24-4.2,11.55-3.46.1-1.46-.47-3.44-1.93-4.04-2.37-.97-5.03-.45-7.49.27-.42-.23-.56-1.16-.35-1.74,2.62-1.06,5.65-1.47,8.41-.56,2.38.78,3.57,3.19,3.56,5.57l-.05,9.69c-1.21.13-2.03-.75-2.57-1.86-2.86,2.41-6.81,2.93-9.7.58-1.2-.98-1.79-2.87-1.42-4.46ZM254.73,82.02c2.79-.69,4.41-3.19,3.74-5.88-3.8-.6-8.27-1.24-9.53,2.19.04.87.36,2.02.98,2.64,1.29,1.28,3.03,1.49,4.81,1.05Z"/>
  <path d="M171.21,75.77c0,4.5-3.66,8.15-8.17,8.15s-8.17-3.65-8.17-8.15,3.66-8.15,8.17-8.15,8.17,3.65,8.17,8.15ZM169.09,75.77c0-3.34-2.71-6.05-6.06-6.05s-6.06,2.71-6.06,6.05,2.71,6.05,6.06,6.05,6.06-2.71,6.06-6.05Z"/>
  <path d="M170.27,106.05c0,4.5-3.66,8.15-8.17,8.15s-8.17-3.65-8.17-8.15,3.66-8.15,8.17-8.15,8.17,3.65,8.17,8.15ZM168.16,106.05c0-3.34-2.71-6.05-6.06-6.05s-6.06,2.71-6.06,6.05,2.71,6.05,6.06,6.05,6.06-2.71,6.06-6.05Z"/>
  <path d="M294.3,81.82c2.38.7,4.61-.32,6.42-1.77.54.12,1.13.54,1.38.9-3.11,4.14-9.86,3.63-12.58-.2-2.23-3.14-2.12-7.46.38-10.47,2-2.41,5.47-3.33,8.38-2.09,3.2,1.37,5.05,4.86,4.27,8.3l-12.35.04c.28,2.4,1.67,4.56,4.1,5.28ZM300.45,75.05c-.04-1.7-.52-2.9-1.44-3.97-1.9-2.14-5.04-2.2-7.02-.13-1.08,1.13-1.72,2.55-1.83,4.05l10.29.05Z"/>
  <path d="M416.53,80.58c4.59,3.61,7.5-.34,8.57-.37.42-.01,1.18.44,1.22.87-2.27,2.84-6.45,3.55-9.58,1.97s-4.97-5.29-4.26-8.93c.83-4.25,4.71-7.27,9.07-6.28,3.8.86,6.31,4.81,5.34,8.66l-12.33.1c.19,1.37.85,2.81,1.97,3.99ZM424.91,75.05c.13-3.19-2.32-5.76-5.32-5.58s-4.84,2.81-4.85,5.56l10.17.02Z"/>
  <path d="M259.71,112.07c-1.05-1.25-1.31-3.11-.64-4.56.6-1.3,2.15-2.93,3.69-2.94l7.54-.04c.14-1.26-.26-2.45-1.13-3.32-.83-.82-2.17-1.42-3.48-1.2l-4.42.76c-.46.08-.97-1.31-.59-1.6,2.09-.83,4.23-1.23,6.44-1.07,3.12.23,5.44,2.76,5.41,5.85l-.12,10.06c-1.03-.5-1.72-1.18-2.38-2.07-3.09,2.79-7.8,3.13-10.31.13ZM269.71,110.33c.78-1.02,1.22-3.04.08-3.87-1.92-.7-4.32-.66-6.34-.26-1.59.32-2.83,2.03-2.49,3.57.4,1.81,2.27,2.71,3.97,2.71,1.91,0,3.55-.55,4.77-2.14Z"/>
  <path d="M360.84,86.14c2.11.96,4.79-.18,5.29-2.43l-7.06-15.5,2.28-.05,5.88,12.75,5.07-12.63,1.8-.3c.07.45.14,1.19-.01,1.55l-6.8,16.2c-.85,2.03-3.27,3.23-5.28,2.72l-2.53-.98c.38-.49.77-.9,1.36-1.32Z"/>
  <path d="M319.3,73.85l-.16,9.18c-.62.26-1.34.4-2.1.45l-.03-15.14c.42-.19,1.14-.39,1.67-.49l.5,2.33c1.43-1.02,2.75-1.95,4.44-2.38,3.43-.86,7.05,1.77,7.06,5.36l.04,10.12c-.72.2-1.41.17-2.15-.08l-.47-11.21c-.06-1.41-2-1.99-3.13-2.18-2.69-.45-5.63,1.07-5.68,4.05Z"/>
  <path d="M174.04,68.73c.47-.5,1.41-.7,2.17-.62l.22,8.69c.02.97.03,2.19.53,2.99,1.12,1.8,3.16,2.44,5.17,1.92,1.76-.46,3.43-2.04,3.44-4.21l.05-9.06,2.15-.47.04,15.08c-.46.4-1.17.62-1.76.7l-.59-2.49c-2.15,2.51-5.64,3.39-8.57,1.71-1.69-.96-2.73-2.98-2.75-4.96l-.1-9.28Z"/>
  <path d="M398.02,74.05l-.11,8.98c-.67.29-1.33.42-2.19.44v-15.13s1.61-.5,1.61-.5l.58,2.34c3.03-2.3,5.81-3.48,8.93-1.51,1.22.77,2.54,2.45,2.57,4.32l.16,9.9c-.7.4-1.45.62-2.27.68l-.36-11.06c-.05-1.53-1.72-2.39-3.04-2.69-2.81-.64-5.84,1.15-5.88,4.23Z"/>
  <path d="M355.48,114.07c-2.7.2-5.06-.69-7.21-2.09l.35-.99c.09-.26.91-.18,1.21-.1l4.86,1.4c1.65.48,3.4-.88,3.41-2.42,0-.59-.65-1.8-1.2-2l-5.46-2c-1.17-.43-2.42-1.85-2.51-3.11-.17-2.32,1.72-4.23,3.9-4.64,2.55-.47,4.84.18,6.93,1.7l-.76,1.36c-1.97-.82-3.86-1.58-6.06-1.2-1,.17-1.85,1.64-2.03,2.67.94,1,2.29,1.58,3.59,2.1l3.76,1.52c1.71.69,2.36,2.61,1.82,4.3-.65,2.02-2.34,3.31-4.58,3.47Z"/>
  <path d="M177.8,100.59c-2.35,1.4-3.33,3.97-2.93,6.55.37,2.37,2.28,4.61,4.9,5.08,2.13.39,4.03-.73,5.55-2.12l1.46,1.07c-2.83,3.46-7.69,4.04-11.27,1.19s-4.02-8.44-.75-11.91,8.76-3.41,11.95.26l-1.19,1.4-2.17-1.37c-1.65-1.04-3.75-1.22-5.55-.15Z"/>
  <path d="M273.29,82.78c-3.41,1.9-7.22,1-10.07-1.49l2.01-.77c3.03,1.94,7.23,2.28,7.98-.57.18-.68-.58-2.14-1.28-2.4l-5.34-1.98c-1.02-.38-2.21-1.6-2.45-2.74-.33-1.54.57-3.51,1.93-4.26,2.86-1.56,6.21-.87,8.74.95-.25.59-.7,1.16-1.17,1.35-1.65-.77-3.26-1.41-5.11-1.28-.98.07-2.41,1.3-2.3,2.33s1.42,1.88,2.3,2.2l4.07,1.5c1.17.43,2.32,1.34,2.62,2.64.36,1.6-.39,3.65-1.93,4.5Z"/>
  <path d="M395.6,110.61c2.84,2.72,5.62,1.79,8.88-.36.36.12.85.59,1.13,1.01-1.4,1.54-3.01,2.57-5.08,2.86-3.81.54-7.35-1.73-8.66-5.14s-.04-7.63,3.04-9.65,7.39-1.83,10.3.93l-.75,1.82-2.87-1.6c-2.16-1.21-4.42-.6-6.05.99-2.69,2.62-2.75,6.49.04,9.15Z"/>
  <path d="M287.37,111.69c1.22.56,2.49.23,3.79.26.06.72-.31,1.5-.91,1.8-1.42.72-2.89.55-4.28-.3-1.06-.65-2-2.07-2-3.67v-9.29c-1.23-.08-2.17-.51-2.26-1.7l2.1-.63.17-3.43c.02-.35.27-.97.51-1.17s1.09-.24,1.23.07c.63,1.37.62,3,.65,4.62l3.3.02c1.05,0,1.84.62,1.87,1.72l-5.24.32-.08,8.58c0,.78.36,2.42,1.14,2.78Z"/>
  <path d="M370.83,111.94c.17.3.25,1.15.19,1.66-1.08.4-2.25.65-3.23.52-2.66-.33-3.81-2.36-3.83-4.77l-.05-8.96-1.62-.29c-.36-.06-.91-1.03-.59-1.16l2.02-.74.49-4.56c.25-.44,1.69-.38,1.82.08l.4,4.53,2.97-.02c1.09,0,2.1.63,2.19,1.81l-5.37.28.06,9.17c0,.59.44,1.92.95,2.19.89.49,2.23.33,3.6.24Z"/>
  <path d="M416.41,112c.02.5-.22,1.43-.6,1.69-.4.27-1.2.47-1.8.48-2.5.04-4.67-1.62-4.67-4.23v-9.57s-1.64-.14-1.64-.14c-.38-.03-.81-.95-.65-1.34l2.08-.74.33-4.11c.05-.45,1.33-.81,1.74-.56l.6,4.82,4.75.11c.14.57.07,1.31-.18,1.75l-4.87.18.27,10.9c1.48.9,2.69.91,4.63.76Z"/>
  <path d="M150.38,111.71c.9,0,1.59.34,2.05.9-.59.79-1.28,1.08-2.18,1.08l-12.31.04-.02-20.68,2.26-.02v18.69s10.2-.02,10.2-.02Z"/>
  <path d="M195.9,81.42l3.7.37c.17.02.63.28.58.41l-.29.76c-2.47,1.6-5.74.86-6.94-1.9l-.2-11.16-1.95-.11c-.38-.02-.65-1.3-.28-1.39l2.13-.52.35-4.6h2.09s.23,4.74.23,4.74l4.66-.03.03,1.84-4.84.08v9.73c.05.42.41,1.39.75,1.76Z"/>
  <path d="M282.65,81.53c1.24.4,2.45.26,3.65.01.03,1.05-.69,1.92-1.71,2.14-1.98.42-3.93-.35-5.2-1.96l-.27-11.59-1.93-.34c-.4-.1-.37-1.42.06-1.56l1.81-.6.27-4.02c.03-.44,1.16-.76,1.53-.54.34,1.23.45,2.6.49,3.88l.03.75c0,.2.55.28.75.29l4.1.21.17,1.65-5.13.08.07,9.71c0,.75.47,1.61,1.32,1.88Z"/>
  <path d="M308.15,83.48l-2.42.03.03-15.51c.66-.04,1.5.03,2.32.17l.15,2.74,5.36-3.5,1.16,1.84-3.33,1.72c-1.65.85-3.2,2.64-3.22,4.58l-.05,7.93Z"/>
  <path d="M376.52,113.62l-2.29.08.06-15.35,2-.08.45,3.14c1.78-1.68,3.38-2.79,5.7-3.69l.68,2.01c-3.78,1.6-6.34,2.77-6.44,6.97l-.16,6.91Z"/>
  <rect x="206.37" y="91.77" width="2.32" height="22.13" transform="translate(-.22 .44)"/>
  <rect x="276.65" y="91.76" width="2.2" height="22.15"/>
  <rect x="342.78" y="98.18" width="2.34" height="15.7"/>
  <path d="M387.98,112.98c-.69.48-1.49.74-2.26.75l-.13-13.02c0-.86.19-1.81.68-2.57.48-.08,1.3.28,1.6.68l.12,14.16Z"/>
  <g>
    <g>
      <path d="M0,45.84v-.57c5.55-3.86,11.67-7.07,18.05-9.67,2.27,8.64,4.93,15.32,11.87,21.07-9.55.28-18.61-2.02-26.71-6.52-1.74-.97-2.79-2.53-3.21-4.32Z"/>
      <path d="M58.19,58.38c-2.57.1-4.5-1.83-5.29-3.96-1.01-2.75-.81-5.42-.41-8.34,2.08-11.62,9.12-21.35,18.62-28.58,2.07,8.6,2.61,17.3,1.12,25.95-.47,2.71-1.05,5.13-2.38,7.5-2.38,4.24-6.52,7.24-11.67,7.44Z"/>
      <path d="M51.73,57.84c-7.31,1.99-13.87-3.07-16.29-9.72-.87-2.39-1.28-4.78-1.57-7.32-.17-7.62-.65-15.85,1.65-23.39,7.1,5.57,13.02,12.15,16.73,20.56-2.27,6.79-3.73,13.2-.53,19.87Z"/>
      <path d="M32.32,20.45c-1.96,12.36-2.61,26.84,5.8,36.47-6.55-.25-11.11-5.48-13.84-10.86-5.62-11.04-5.55-25.07-4.05-37.31,5,1.68,9.48,4.12,14.08,6.81-1.15,1.39-1.81,2.98-1.99,4.88Z"/>
      <path d="M86.28,33.27c-1.79,10.51-6.42,21.93-18.02,23.81,2.5-2.91,4.49-5.89,5.64-9.59,2.25-10.69,2.01-21.67-1.02-32.2,4.3-2.64,8.54-4.93,13.42-6.52,1.17,8.11,1.28,16.32-.02,24.5Z"/>
      <path d="M63.57,21.16c-4.2,3.94-7.36,8.51-10,13.63-3-5.26-6.45-9.74-10.42-14.11,2.45-7.27,5.62-14.07,10.05-20.68,3.41,4.75,6.11,9.84,8.16,15.29l2.21,5.87Z"/>
      <path d="M103.07,50.23c-8.12,4.45-17.04,6.59-26.31,6.47l3.03-3.07c2.24-2.5,4.43-5.12,5.51-8.37l3.2-9.65c6.55,2.85,12.84,5.66,18.16,10.19-.5,2.09-1.73,3.4-3.59,4.41Z"/>
      <path d="M100.85,29.04c-1.35,2.66-2.82,4.97-4.67,7.27l-7.33-3.07.93-9.99,10.31-.22c1.05-.02,1.61.77,1.81,1.78-.16,1.42-.52,2.74-1.05,4.21Z"/>
      <path d="M17.66,33.11l-7.32,3.22c-2.89-3.9-6.15-8.01-5.25-13.11l11.84-.12.73,10.01Z"/>
      <path d="M65.03,17.72l-4.01-9.21c3.07-2.35,6.06-4.45,9.38-6.21l2.88,9.87-8.25,5.56Z"/>
      <path d="M41.49,17.73l-7.95-5.45c.6-3.38,1.46-6.57,2.64-9.92,3.45,1.72,6.34,3.78,9.28,6.22l-3.97,9.16Z"/>
      <path d="M37.7,62.19c-6.08,1.35-14.75,3.45-18.51-1.24.16-.64.47-1.26.87-1.82l9.94.8c3.45.28,6.84,0,10.3-.06,2.96,0,5.79,0,8.59.85-4,.33-7.5.65-11.2,1.47Z"/>
      <path d="M66.29,61.78l-7.95-1.3,4.54-.45c2.86-.28,5.65-.05,8.5.1,2.46.12,4.85-.15,7.3-.41l6.3-.67c.62-.07,1.71.36,2.15.74.32,1.46-.76,2.57-2.06,3.01-6.66,2.23-12.35.03-18.78-1.02Z"/>
    </g>
    <g>
      <path d="M71.21,106.98l-3.01,4.22-2.88-3.85-.83,6.64c-1.57-3.33-1.62-7.04-.26-10.5l3.93,5.07c1.35-1.9,2.62-3.52,4.24-4.97.82,3.51.77,6.85-.27,10.39-.69-2.2-.85-4.35-.93-7Z"/>
      <path d="M51.07,113.92c-2.28-.67-2.57-3.7-5.49-3.54l-.5,2.78c-.05.3-.89.44-1.14.22s-.35-.71-.35-1.18l.08-8.19,5.19.24c1.13.05,2.58,1.35,2.62,2.47.06,1.43-1.03,2.55-1.87,3.55l1.46,3.65ZM49.58,108.3c.44-.29.33-1.77-.08-2.12-1.31-.6-2.86-.74-4.32-.34l.26,3.16c1.4.36,2.81.18,4.14-.7Z"/>
      <path d="M23.78,108.95c0,2.75-2.24,4.98-4.99,4.98s-4.99-2.23-4.99-4.98,2.24-4.98,4.99-4.98,4.99,2.23,4.99,4.98ZM22.23,108.97c0-1.91-1.55-3.45-3.46-3.45s-3.46,1.55-3.46,3.45,1.55,3.45,3.46,3.45,3.46-1.55,3.46-3.45Z"/>
      <path d="M91.64,113.91c-2.33-1.88-3.99-4.12-6.09-6.63l-.39,6.34-1.19.24c-.48-3.52-.4-6.85.16-10.38l6.35,7.09c.09-2.65,0-4.68.95-6.93.97,3.42.88,6.58.2,10.27Z"/>
      <path d="M60.94,114c-2.3-2.22-4.01-4.39-5.99-6.87l-.14,3.42c-.05,1.24-.31,2.46-.88,3.69-1.31-3.49-1.04-7.13-.25-10.8l6.21,7.2.75-6.73c1.13,2.22,1.31,4.72.86,7.12l-.56,2.97Z"/>
      <path d="M5.28,109.47c.06,1.53,1.11,2.56,2.2,2.85,1.47.39,2.82.11,3.68-1.39-.72-.69-1.61-1.11-2.69-1.58.85-.8,2.34-1.36,3.42-.79.96.51,1.03,1.89.79,2.98-.17.76-.97,1.67-1.96,2.05-3.1,1.19-6.61-.66-7.1-3.96-.46-3.05,1.79-5.47,4.78-5.57,1.51-.05,3.08.1,3.71,1.86-1.95.24-3.88-.91-5.13-.19s-1.75,2.2-1.69,3.74Z"/>
      <path d="M81.51,108.81l-5.08,1.13-.07,2.2,5.84.81c-2.57.86-5.05.89-7.55.87v-9.69c2.34.06,4.47.08,6.82.76l-4.8.82-.36,2.18,5.21.93Z"/>
      <path d="M41.4,108.8l-5.07,1.19.16,2.14,5.39.83c-2.42.87-4.79.88-7.26.76l.03-9.56c2.28-.06,4.43-.03,6.71.73l-5,.88-.09,2.17,5.12.87Z"/>
      <path d="M33.17,104.71l-4.24,9.51c-.96-1.02-1.84-2.21-2.39-3.56l-1.61-3.94c-.37-.9-.48-1.74-.35-2.68.87.31,1.2.7,1.47,1.33l2.57,6.03,3.2-7.25c.37-.08.93.18,1.34.56Z"/>
      <path d="M97.8,113.4c-.18.05-.77.12-.85.11l-.35-8.03c-1.53.51-2.86.25-3.3-1.26l8.22-.03c-.34,1.43-1.57,1.79-3.07,1.3l-.65,7.9Z"/>
    </g>
    <g>
      <polygon points="83.74 80.1 78.8 99.29 71.69 99.45 63.51 68.52 70.69 68.29 75.38 87.52 80.51 68.3 87.05 68.24 92.11 87.75 97.01 68.22 104.03 68.49 95.76 99.28 88.76 99.48 83.74 80.1"/>
      <polygon points="35.75 99.29 28.41 99.25 11.34 79.55 11.25 99.35 4.25 99.36 4.25 68.35 11.59 68.31 28.54 87.99 28.82 68.32 35.76 68.38 35.75 99.29"/>
      <path d="M56.47,99.31c-6.49,1.92-13.55.1-18.62-4.3l4.2-4.82c3.42,3.33,10.79,5.5,13.65,2.4.46-.5.8-1.55.66-2.18-.99-4.47-18-2.54-17.27-13.64.27-4.08,2.72-7.27,6.71-8.49,5.59-1.65,11.55-.31,16.32,3.21l-3.61,5.18c-3.96-3.13-12-4.72-12.59-.51-.13.88.72,2.59,1.69,2.9l7.87,2.48c5.3,1.67,8.63,4.94,7.48,10.62-.7,3.44-2.85,6.07-6.48,7.14Z"/>
    </g>
  </g>
</svg>