<?xml version="1.0" encoding="UTF-8"?>
<svg id="Layer_1" data-name="Layer 1" xmlns="http://www.w3.org/2000/svg" viewBox="0 0 335.54 116.04">
  <g>
    <path d="M249.24,40.96c.09-3.4,2.19-6.56,5.55-7.37l13.49-3.25c.56-1.01.7-2.72-.3-3.51-2.98-2.35-8.59-1.6-10.27,2.35l-7.8-1.31,1.91-3.92c.94-1.3,2.02-2.32,3.56-2.97,5.8-2.43,12.42-2.5,18.12.38,2.06,1.05,3.45,3.49,3.48,5.88l.26,17.91,1.62,4.32-7.67.05c-.82-.78-1.51-1.7-2.06-2.63-5.44,3.65-12.32,5.01-17.22.57-1.86-1.69-2.76-3.78-2.68-6.51ZM257.83,40.22c-.05,1.95,1.59,3.26,2.71,3.82,1.71.86,3.32.36,4.84-.36,3.04-1.45,4.29-4.71,2.94-7.99l-8.15,1.89c-.89.21-2.31,1.66-2.34,2.64Z"/>
    <path d="M326.7,39.74l8.57,1.54c-1.43,3.98-4.59,6.94-8.69,8.19-7.53,2.29-16.39-.21-19.33-7.88-1.76-4.59-1.61-9.71.29-14.25,2.94-7,11.57-9.52,18.54-7.19,5.17,1.72,8.53,6.11,9.1,11.53l.1,5.6-20.43.09c.46,3.78,2.34,6.38,6.28,6.61,2.68.16,4.94-1.38,5.57-4.23ZM327.12,32.21c.14-3.85-2.68-6.51-6.26-6.6-1.76-.04-3.36.63-4.43,1.86s-1.46,3.02-1.03,4.76l11.72-.02Z"/>
    <path d="M231.61,43.65c2.99.01,5.6-2.25,5.76-5.73l8.67,1.45c-1.45,5.44-4.11,8.62-9.8,10.22-5.24,1.48-10.94.45-15.28-2.86-1.96-1.49-3.12-3.64-3.91-5.94-1.4-4.05-1.35-8.4.11-12.42.74-2.03,1.8-4,3.51-5.35,5.42-4.31,12.82-4.97,18.97-1.92,1.44.71,2.76,1.59,3.54,2.98l2.56,4.53-8.28,1.86c-.81-1.6-1.4-3-2.81-3.95-2.49-1.68-6.47-1.06-8.17,1.56-2.15,3.32-2.12,7.45-.83,11.06.92,2.58,3.13,4.49,5.94,4.5Z"/>
    <path d="M293.62,30.98l-.43,18.51-8.24.02v-29.49s7.57-.03,7.57-.03l.28,3.22c3.73-4.17,7.57-5.41,12.27-2.19l-2.37,6.89-3.32-1.25c-2.79-1.05-5.72,2.66-5.76,4.32Z"/>
  </g>
  <path d="M150.14,20.78c-1.84,2.84-4.61,4.45-7.85,4.99-3.65.62-7.19.67-10.9.58l-.06,23.05-3.12-.02V.17s8.38.05,8.38.05l3.75.31c5.09-.05,9.28,2.94,10.98,7.7,1.5,4.18,1.31,8.69-1.19,12.55ZM145.86,6.15c-2.01-1.82-4.53-2.58-7.12-2.65l-7.37-.2-.04,19.92c3.22.09,6.4.08,9.56-.51,3.64-.68,6.52-3.31,7.52-6.43,1.18-3.69.27-7.57-2.55-10.13Z"/>
  <path d="M166.92,47.07c2.65-.22,4.83-1.63,6.55-3.36l3.05-3.09c.87.1,1.74.71,2.29,1.52-3.61,6.94-12.31,10.06-19.52,6.74-3.59-1.65-6.44-4.82-7.71-8.55-2.62-7.72.26-18.31,8.75-20.99,3.52-1.11,7.31-1.03,10.77.3,5.99,2.31,9.01,8.64,8.78,15.06l-25.77.03c-1.02,7.19,5.67,12.94,12.82,12.34ZM176.69,31.55c-.89-5-4.44-8.57-9.04-9.69-3.17-.54-6.26.11-8.96,1.82-2.65,1.83-4.4,4.64-4.72,7.89l22.72-.02Z"/>
  <g>
    <path d="M83.42,94.9c-8.36,8.51-22.5,14.44-34.14,16.94l-19.29,4.15-9.09-15.94c-3.87-6.79-6.76-13.84-8.83-21.36-1.28-5.21-2.14-10.31-1.59-15.62.98-9.34,5.25-16.39,14.84-18.25,7.08-1.37,14.24.49,20.06,4.65,5,3.56,6.83,8.15,9.12,13.81l8.19-5.59c4.97-3.4,11.41-3.46,16.69-.4,8.07,4.66,12.48,13.99,11.2,23.2-.78,5.58-3.27,10.44-7.18,14.42ZM52.68,100.55l.1-10.83,10.33.03c.93-.43,1.69-1.19,2.04-2.12l-.2-8.37-12.12-.2-.18-12.04-10.38-.09-.19,12.21-11.76.03c-.71,3.63-.68,7.02-.11,10.5l11.94.08v11.75s6.39.62,6.39.62c1.45.14,3.27-.32,4.14-1.56Z"/>
    <ellipse cx="102.53" cy="62.97" rx="10.77" ry="10.75"/>
    <g>
      <ellipse cx="46.79" cy="20.17" rx="20.21" ry="20.17"/>
      <ellipse cx="83.39" cy="39.16" rx="15.72" ry="15.69"/>
      <ellipse cx="10.03" cy="34.77" rx="10.03" ry="10.01"/>
    </g>
  </g>
  <path d="M139.04,80.47l-7.46-16.94-.29,16.87-3.07-.04-.02-22.3,4.3.04,7.48,16.93,7.48-17.09,4,.15v22.25s-2.42.04-2.42.04l-.35-17.6-7.26,16.49c-.32.72-1.43,1.08-2.4,1.2Z"/>
  <path d="M198.39,46.74l.23,2.62c-2.99,1.44-6.65,1.3-9.15-.88-1.75-1.52-2.36-3.89-2.36-6.16l.04-21.45-4.74-.38c-.34-.55-.58-1.25-.72-2.07l4.86-.48c.26-.03.6-.46.61-.71l.08-5.01,3.01-1.09.11,6.94,8.91.02v2.45s-8.95.02-8.95.02v21.27c-.01,1.78.73,3.42,1.86,4.62,1.98.8,3.62.76,6.2.29Z"/>
  <path d="M180.37,80.92c-3.3-.1-5.79-2.32-6.87-4.95-1.24-3.02-.4-6.09,1.75-8.48,1.96-2.18,4.94-3.12,7.8-2.05l3.36,1.83c.05-3.42-.15-6.8-.54-10.32l3.08-.18v23.44s-1.91.25-1.91.25l-.99-1.86c-1.61,1.44-3.42,2.39-5.69,2.31ZM186.33,72.98c0-2.9-2.35-5.25-5.26-5.25s-5.26,2.35-5.26,5.25,2.35,5.25,5.26,5.25,5.26-2.35,5.26-5.25Z"/>
  <path d="M161.72,78.13c2.45.63,4.49-.63,6.4-2.02.57.46,1.07,1.14,1.46,1.97-2.94,3.62-8.49,3.87-11.71.65s-3.22-8.7.46-11.83c2.49-2.13,5.71-2.57,8.55-.87,2.58,1.55,4.06,4.65,3.22,7.92l-11.63.1c.44,1.67,1.38,3.58,3.26,4.07ZM167.53,71.49c-.69-2.61-2.47-3.93-4.7-3.94-2.05.42-3.63,1.76-4.52,3.92l9.23.03Z"/>
  <rect x="193.99" y="33.16" width="28.3" height="4.46" transform="translate(172.69 243.51) rotate(-89.98)"/>
  <g>
    <path d="M215.38,74.36c.76-1.58,2.39-2.57,4-2.81l6.21-.94c-.58-1.95-2.22-3.24-4.29-2.88-1.53.27-2.81.92-4.32,1.64-.49-.63-.87-1.34-1.16-2.09,2.39-1.88,5.22-2.81,8.17-1.99,3.23.9,3.77,2.54,3.88,5.98l.29,9.27-3.37-1.02c-2.56,1.9-6.27,1.97-8.7-.39-1.17-1.14-1.43-3.25-.69-4.77ZM224.52,76.96c.75-1.05,1-2.39.32-3.51-2.14-.3-4.43.02-6.34,1.07-.46.71-.55,2.39.1,3.06,1.22,1.26,4.25,1.71,5.92-.62Z"/>
    <path d="M209.2,77.98l2.95-1.25,1.31,1.84c-1.63,1.31-3.47,2.27-5.56,2.4-4.49.29-7.81-3.01-7.89-7.37-.05-2.75.66-5.45,3.03-7.11,3.34-2.34,7.81-1.79,10.75,1.29l-2.52,1.44c-1.33-.71-2.64-1.57-4.13-1.49-1.92.11-3.6,1.91-4.04,3.29-.69,2.19-.28,4.04,1.06,5.65,1.22,1.46,3.09,2.14,5.05,1.31Z"/>
  </g>
  <rect x="232.42" y="56.66" width="2.56" height="23.77"/>
  <g>
    <path d="M335.47,71.58v2.1c-.3,3.52-2.18,6.39-5.78,7.13-2.72.56-5.2-.14-7.23-2.51l-.09,9.1h-2.48s.01-21.68.01-21.68l3.12.87,2.96-1.22c4.49-1.32,8.82,1.73,9.48,6.21ZM332.09,75.2c.6-1.82.42-3.73-.47-5.21-1.51-2.49-4.46-3.09-6.8-1.45-1.68,1.18-2.64,3.11-2.37,5.17.24,1.81,1.5,3.43,3.34,4.22,2.46,1.04,5.41-.03,6.3-2.73Z"/>
    <path d="M260.35,70.79v-3.14s7.68,0,7.68,0l.02,11.58c-3.29,1.56-6.93,2.29-10.57,1.73-4.42-.67-8.01-3.54-9.13-7.94-.63-2.49-.64-5.32-.02-7.79.54-2.17,1.96-3.71,3.57-5.05,4.73-3.9,11.51-3.83,16.04.26-.23,1.05-1.64,2.24-2.53,1.8-2.49-1.61-5.17-2.55-8.29-1.62-2.29.68-4.79,2.59-5.64,5.36-.63,2.06-.72,4.5.02,6.56,1.55,4.35,6.24,6.72,10.59,5.49l3.33-.95.1-6.32h-5.18Z"/>
    <path d="M298.86,73c0,4.44-3.61,8.04-8.05,8.04s-8.05-3.6-8.05-8.04,3.61-8.04,8.05-8.04,8.05,3.6,8.05,8.04ZM295.99,73c0-2.88-2.34-5.21-5.22-5.21s-5.22,2.33-5.22,5.21,2.34,5.21,5.22,5.21,5.22-2.33,5.22-5.21Z"/>
    <path d="M312.82,66.42c.63-.57,1.71-.76,2.51-.62l-.06,14.66-2.94-.81c-4.11,1.96-7.37,1.84-9.76-1.99l-.21-11.89,2.58-.02-.03,8.84c0,1.51,1.08,3.23,2.52,3.64,2.11.6,4.22-.79,5.03-2.68l.37-9.14Z"/>
    <path d="M275.96,71.04l-.25,9.16-2.45.18.02-14.68,2.98.83c2.27-1.42,5.33-2.24,5.24-.56l-.11,2.05c-3.15.42-4.28-.07-5.43,3.01Z"/>
  </g>
  <rect x="193.62" y="65.73" width="2.48" height="14.7"/>
  <ellipse cx="208.21" cy="10.33" rx="3.2" ry="3.19"/>
  <ellipse cx="194.85" cy="59.86" rx="2.02" ry="2.01"/>
  <g>
    <path d="M309.5,115.64l-3.39-1.33c-1.65-.65-2.58-2.29-3.23-3.86l-1.87-.1v5.43s-3.07,0-3.07,0l-.02-5.4-1.97.03c-1.32,3.01-3.53,4.33-6.7,5.25v-1.9c1.7-.61,2.88-1.71,3.74-3.36l-3.5-.05-.21-1.68h8.59s.06-1.58.06-1.58h-7.64s.03-5.35.03-5.35l-1.1-.02.04-1.67c1.52-.99,2.51-2.38,3.01-4.16l2.77-.04-.09,1.31h2.94s.05-1.72.05-1.72l3.03-.05.13,1.74,7.92.02.03,1.49h-7.83c-.17.26-.19.87-.09,1.31l7.87.03.09,1.44-7.88.05c-.35,0-.18,1.3.18,1.3l7.63.05.02,1.44h-8.01s0,1.36,0,1.36h8.01s-.02,1.47-.02,1.47h-7.94s-.04,1.57-.04,1.57h8.51s-.11,1.67-.11,1.67l-3.65.07c.88,1.63,1.94,2.72,3.69,3.31l.03,1.92ZM297.91,99.99l-.03-1.38h-3.83s-.99,1.34-.99,1.34l4.85.04ZM297.94,101.43h-4.83s0,1.38,0,1.38h4.83s0-1.38,0-1.38ZM293.11,104.26v1.38h4.83v-1.38h-4.83Z"/>
    <g>
      <path d="M192.94,114.48l-10.99.92v-1.75s4.7,0,4.7,0l-.02-2.02-4.28.02-.03-1.46h4.28s.05-1.15.05-1.15l-4.12-.02v-7.09s4.11-.01,4.11-.01v-1.13s-4.71,0-4.71,0v-1.69s4.68.02,4.68.02l.04-1.17h-4.39s.07-1.62.07-1.62l8.02-.15,2.85-.54-.07,1.89-4.15.49-.1,1.07,4.51.04-.15,1.66h-4.36s.01,1.13.01,1.13h4.07s0,5.08,0,5.08c0,1.06-.7,1.98-1.8,2.01l-2.29.05-.02,1.16,4.11-.03-.02,1.44h-4.08s0,1.79,0,1.79l4.09-.45v1.49ZM186.66,103.6h-2.03s0,1.2,0,1.2h2.03s0-1.2,0-1.2ZM188.82,103.61v1.17h2.23v-1.17h-2.23ZM186.64,106.2h-2s0,1.21,0,1.21h2s0-1.21,0-1.21ZM191.03,106.23h-1.9c-.22,0-.5.74-.33.87s.51.26.8.31c.84.13,1.44-.33,1.43-1.18Z"/>
      <path d="M199.36,100.66l-1.52-.08-.52,8.07c-.47,2.88-1.68,5.48-4.08,7.34-.22-2.9,1.81-5.54,1.85-8.25l.12-7.15-1.49-.04-.02-1.85,1.52-.06v-3.21s2.61-.02,2.61-.02v3.26s3.88.05,3.88.05l.02,6.37-.07,9.35c-.22.48-1.21,1.07-1.72,1.09l-2.79.1v-1.91c.92-.08,1.51-.16,2.17-.46l.05-12.58Z"/>
    </g>
    <g>
      <path d="M225.18,99.59c.27,5.75-.59,11.94-4.92,16.19l-.1-2.49c2.28-3.9,2.96-8.25,2.84-12.77.05-.21.1-.99-.12-.99h-.98c-.22,0-.25.59-.26.85-.15,5.83-1.63,11.21-5.23,15.21-.47-1.74-.01-2.73.62-3.99,1.7-3.38,2.15-7.19,2.33-10.84l-2.89,2.3c-.56-1.19-.13-1.91.52-2.77,1.03-1.37,1.43-3.02,1.49-4.82l2.63-.08-.52,2.17,8.05.02-.02,15.8c0,.86-1.02,1.87-1.8,1.9l-2.89.11-.02-1.83,2.19-.39v-13.57s-.93-.02-.93-.02Z"/>
      <path d="M212.28,109.09l-3.27.33.02-2.21,3.26-.33v-6.24s-1.13.04-1.13.04c-.26,1.79-1.15,3.16-2.53,4.15-.43-1.4.34-2.49.65-3.83l.23-4.28,1.87-.02v2.17s.9-.01.9-.01l-.02-3.44,2.61-.02v3.47s1.57.03,1.57.03v1.66s-1.59.03-1.59.03l.02,5.73,1.95-.5.04,1.77-2.01.86v7.32s-2.59.02-2.59.02v-6.69Z"/>
    </g>
    <g>
      <path d="M135.41,112.32c-2.35.93-4.67,1.65-7.17,2.08l-.07-2.37,2.4-.36v-6.31s-1.95,0-1.95,0v-1.69s1.95-.03,1.95-.03v-4.99s-2.22-.03-2.22-.03l.04-1.92h6.97s0,1.92,0,1.92l-1.98.05v4.99s1.75.05,1.75.05v1.65s-1.75.03-1.75.03v5.64s1.95-.54,1.95-.54l.07,1.86Z"/>
      <path d="M136.24,106.5l-.19-1.65c2.32-.71,3.97-1.98,5.26-3.96l2.83-.11-2.44-2.46c-1.9,1.97-3.82,3.71-6.63,4.67l-.09-1.86c2.37-1.39,4.07-3.12,5.3-5.67l2.83-.06c1.21,2.51,2.89,4.41,5.46,5.65l.05,2.05-4.34-2.3-1.53,2.26c-1.75,1.85-3.75,2.77-6.51,3.44Z"/>
      <path d="M135.46,115.99l-.05-1.82c4.14-1.31,7.65-2.9,10.3-6.53l2.86.02c-2.51,4.93-7.6,7.18-13.12,8.33Z"/>
      <path d="M146.51,104.12c-2.16,4-6,5.85-10.42,6.94l.02-1.9c3.1-.81,5.6-2.44,7.47-5.04h2.93Z"/>
    </g>
    <g>
      <path d="M254.45,114.37c-.01.6-1.44,1.2-1.95,1.19h-15.4s-.01-7.75-.01-7.75h5.37s0-.92,0-.92h-6.64s.02-1.48.02-1.48l10.39-.05,9.48.05.2,1.47h-6.76s0,.92,0,.92h5.44s-.13,6.56-.13,6.56ZM244.64,106.88v.93h2.35v-.93h-2.35ZM242.21,109.15l-2.36-.15c-.21.31-.18,1.27.02,1.44,1.13-.14,1.85-.46,2.34-1.29ZM251.65,111.49l-3.01-.15c-.45-.02-1.3-.32-1.39-.7l-.39-1.58-2.23.04c-.91,2.56-3.25,1.8-5.05,3l12.28.07c.08-.21-.03-.67-.22-.68ZM251.76,109.1l-2.56-.07c.05,1.1.78,1.24,1.62,1.19l1.04-.07c.21-.01.11-1.05-.1-1.06ZM250.59,114.34c.72,0,1.32-.28,1.4-1.17h-12.25s-.05,1.14-.05,1.14l10.9.02Z"/>
      <path d="M241.53,97.67l1.16.58,2.85-.02-.04.94c0,.21-.69.1-.91.11l-.86.03c-.21,0-.09.75.06.83l2.2.08.03.95-2.26.18,2.04,1.16c.27.59.4,1.69.37,2.32h-7.4c-.78.3-2.32-.2-2.33-1.21l-.06-7.56h9.94s-.03,1.22-.03,1.22h-7.79s.04,6.19.04,6.19c.35-.65.63-1.02,1.13-1.31l1.4-.81-2.22-.19-.03-.95,2.33-.04c.24,0,.29-.87.13-.92l-2.44.67c.04-1.44,1.38-2.5,2.68-2.25ZM245.39,103.64l-2.78-1.31-3.2,1.29,5.98.02Z"/>
      <path d="M246.68,105.17l-.15-1.21,2.42-.58-2-1.83c1.92-.13,2.74-.22,4.07,1.14l1.64-1.64-6.14-.04.03-1.22,8.68-.04c.4.48.21,1.57-.27,1.97l-2,1.67,2.91.53-.03,1.27-4.97-.7-4.18.71Z"/>
      <path d="M253.46,99.29c-.96,0-1.54-.63-1.67-1.66l-1.92-.15c-.3,1.37-1.28,1.83-2.68,1.94-.33.02-.98-.12-.98-.39.01-1.14,1.38-.64,1.42-2.95l6.44-.02.15,1.79.9.34c.16.06.64.03.66.18l.11.89-2.43.02Z"/>
    </g>
    <g>
      <path d="M174.6,110.99l-5.88.02.05.71h5.75s.13,1.17.13,1.17l-5.97.1.13,1.32h4.26s.31-1.03.31-1.03l2.18-.06c.38.78-.08,2.43-1.21,2.45l-6.33.12c-.64.01-1.87-.67-1.88-1.37l-.11-8.59h4.89c.69.01,1.31-.46,1.39-1.33l-6.25-.03v-5.56s2.55-.02,2.55-.02l.06,1.52h6.68s-.01,1.24-.01,1.24h-6.64s0,1.59,0,1.59h6.09s-.04,2.38-.04,2.38c-.01.59-1.03,1.45-1.62,1.45l-4.46.02.04.93h5.81s.08,1.01.08,1.01h-5.88s0,.93,0,.93h5.74s.13,1.02.13,1.02Z"/>
      <path d="M160.65,114.27c1.11.27,1.69-.19,1.86-1.04l-3.91-.08v2.65s-2.58-.04-2.58-.04v-9.72s8.89,0,8.89,0l.03,7.2c.03.92-.35,1.8-.98,2.42l-3.34.38.03-1.77ZM162.32,109.1l.14-1.57-3.92.02.23,1.56h3.55ZM158.58,110.35v1.39h3.87v-1.39h-3.87Z"/>
      <polygon points="172.31 98.17 158.26 98.17 158.06 99.26 155.59 99.26 155.59 96.51 163.8 96.52 163.95 95.15 166.83 95.16 166.91 96.51 175.04 96.51 175.06 99.27 172.51 99.26 172.31 98.17"/>
      <path d="M165.38,103.67l-.08,1.45h-10.17s-.02-1.45-.02-1.45h2.14s-.59-1.49-.59-1.49l2.33-.03c.13.86.52,1.55,1.21,1.59.88.05,1.41-.47,1.42-1.52l2.41-.11-.56,1.54,1.91.02Z"/>
      <polygon points="165.09 101.44 155.61 101.44 155.57 99.98 158.93 99.98 159.16 98.89 161.8 98.89 162.03 99.98 165.16 99.97 165.09 101.44"/>
    </g>
    <g>
      <path d="M275.43,115.55l-3.27.26v-1.66s1.62-.15,1.62-.15l.1-3.23h-4.59s.01-3.81.01-3.81l-1.38.37.18-1.51,1.73-1.08c-.39-.33-.8-.7-.9-.97l-.57-1.56,1.79-.08.76,1.83,1.94-2.24-4.73-.07.02-1.44,5.29-.02.27-1.06,2.49-.03-.21,1.1,6.07.02v1.45s-4.69.04-4.69.04l1.91,2.32.6-1.86,2.08.07c-.31,1.22-.56,1.92-1.37,2.53l1.87.91.21,1.69-1.8-.62-.06,2.44c-.02.92-1.04,1.61-1.88,1.61h-2.71s0,3.4,0,3.4c0,.36-.42,1.35-.79,1.38ZM277.29,104.74l-2.15-2.56-2.03,2.63,4.18-.06ZM278.51,106.2h-6.86s0,.94,0,.94h6.86s0-.94,0-.94ZM277.21,109.58c.68,0,1.17-.47,1.23-1.17l-6.77-.03c0,.38.14,1,.33,1.17l5.21.03Z"/>
      <path d="M265.14,108.22l-2.65.35v-2.44s2.66-.3,2.66-.3l.04-3.44-2.66-.49-.04-2.44,2.69.46v-3s7.51.01,7.51.01l.18-1.51h3.13s.03,1.51.03,1.51h6.76s-.04,1.7-.04,1.7h-15.26s.08,10.75.08,10.75c.02,2.8-1.41,5.34-4.17,6.52v-2.08c1.44-1.51,1.91-3.28,1.74-5.61Z"/>
      <path d="M279.55,111.36c1.58,2.55,4.01,2.4,2.75,3.93-2.44-.49-4.22-1.71-4.93-4l2.17.08Z"/>
      <path d="M267.76,115.11c-1.07-1.84,1.67-1.2,2.58-3.81l2.26.04c-.65,2.11-2.54,3.56-4.85,3.78Z"/>
    </g>
    <g>
      <path d="M335.54,96.21v17.48c-.41.89-1.28,1.83-2.51,1.84l-16.22.03v-19.27s18.74-.08,18.74-.08ZM333.25,111.9l-.05-13.96h-14.05s0,15.72,0,15.72h13.42c.36-.45.57-1.05.68-1.76Z"/>
      <path d="M325.64,111.92c.02-.42,1.45.03,2.07-.65.23-.25.16-1.18-.18-1.33l-7.77-.06-.05-1.22h7.99s.07-.91.07-.91h-7.82s-.06-1.23-.06-1.23l5.09-.03v-.42s-4.15-.08-4.15-.08l-.02-4.89,4.17-.14v-.42s-5.04.06-5.04.06v-1.45s4.66-.1,4.66-.1c1.14-.95,2.21-.86,3.32.02l4.46.09c.29.23.21,1.33-.14,1.4h-4.62s-.02.42-.02.42l4.34.1v3.04c-.02.39-.55,1.18-.75,1.47.67.64,1.25,1.46,1.54,2.28l-2.34.29c.38.99,2.3.22,2.31.63v.98c0,.22-.77.14-1,.16l-.93.08c-.37.03.04,3.17-2.47,3.18l-2.74.02.07-1.28ZM322.89,102.28v.73h2.08v-.73h-2.08ZM329.78,102.27h-2.24s0,.74,0,.74h2.24s0-.74,0-.74ZM324.98,104.05h-2.08s0,.74,0,.74h2.08s0-.74,0-.74Z"/>
      <polygon points="321.88 112.12 321.08 110.31 323.32 110.19 324.4 112.02 321.88 112.12"/>
    </g>
  </g>
</svg>