<?xml version="1.0" encoding="UTF-8"?>
<svg id="Layer_1" data-name="Layer 1" xmlns="http://www.w3.org/2000/svg" viewBox="0 0 336.71 114.51">
  <path d="M336.71,51.53v.17l-4.15.04-.27-2.18c-1.22,1.81-3.03,2.52-5.04,2.41-1.72-.09-3.44-.99-4.51-2.6-1.59-2.38-1.76-5.37-.83-8.09,1.08-3.17,4.19-4.94,7.49-4.26.96.2,1.75.73,2.51,1.39v-7.99s4.55,0,4.55,0l.25,21.1ZM331.9,45.5l-.06-2.82c-.03-1.26-1.27-2.14-2.22-2.27-1.18-.17-2.33.28-2.94,1.32-.9,1.53-.95,3.49-.14,5.07.63,1.23,1.97,1.74,3.22,1.47,1.19-.25,2.17-1.37,2.14-2.76Z"/>
  <polygon points="104.55 87.63 99.99 87.67 100 79.22 92.32 79.22 92.32 87.66 87.76 87.65 87.76 67.54 92.32 67.54 92.32 75.2 100 75.2 99.99 67.54 104.55 67.54 104.55 87.63"/>
  <path d="M96.74,45.98c-.35-1.25-1.22-2.15-2.5-2.17l-1.92-.04v7.96s-4.56,0-4.56,0v-19.95c5.57-.63,13.74-1.42,14.57,4.35.37,2.59-.84,4.95-3.51,6.05,1.09.6,2.02,1.57,2.38,2.84l1.91,6.68-4.76.03-1.61-5.75ZM95.58,40.29c1.37-.09,2.12-1.36,2.23-2.36.13-1.16-.31-2.4-1.54-2.85s-2.66-.38-3.95-.19v5.61s3.26-.21,3.26-.21Z"/>
  <path d="M268.1,46.52l-5.79.02-1.42,5.19h-4.77s6.18-20.11,6.18-20.11h6.03s6.26,20.13,6.26,20.13l-4.96-.02-1.53-5.21ZM267.4,43.09l-2.27-7.97-2.11,7.99,4.38-.03Z"/>
  <path d="M143.16,93.64h-4.55s-.08-20.58-.08-20.58h3.88s.32,2,.32,2c1.4-1.73,3.26-2.48,5.51-2.19,1.77.23,3.57,1.48,4.45,3.39,1.17,2.55,1.15,5.57-.11,8.11-1.41,2.86-4.64,4.24-7.64,3.19-.71-.25-1.28-.8-1.78-1.35v7.43ZM148.58,82.37c.47-1.34.43-2.87-.04-4.12s-1.58-1.95-2.85-1.84c-1.05.09-2.25.96-2.42,2.26-.39,2.86-.11,5.55,2.41,5.7,1.3.08,2.41-.58,2.9-2Z"/>
  <path d="M172.67,44.49l-.02,7.24h-4.55s0-19.96,0-19.96c3.1-.4,6.21-.61,9.29-.14,3.42.52,5.67,3.3,5.29,6.69-.13,2.49-1.6,4.48-3.89,5.44-1.91.71-3.78.89-6.13.74ZM178.13,38.36c.18-1.1-.13-2.31-1.15-2.92-1.31-.78-2.99-.71-4.33-.39l.02,5.89c2.66.32,5.08-.28,5.46-2.59Z"/>
  <path d="M132.41,47.82c-1.76,4.92-3.94,9.85-9.17,10.58l-.99-3.88c1.85-.44,3.42-1.45,4.19-3.27l-5.63-14.08,5.07-.06,2.97,9.89,2.45-9.89h4.93s-3.82,10.7-3.82,10.7Z"/>
  <path d="M122.58,80.35c0,4.25-3.45,7.7-7.71,7.7s-7.71-3.45-7.71-7.7,3.45-7.7,7.71-7.7,7.71,3.45,7.71,7.7ZM117.16,77.47c-.48-.96-1.44-1.48-2.42-1.42-2.66.16-3.54,4.15-2.23,6.99.47,1.03,1.44,1.61,2.48,1.58,2.6-.08,3.62-4.26,2.17-7.15Z"/>
  <path d="M119.94,44.42c0,4.25-3.45,7.7-7.71,7.7s-7.71-3.45-7.71-7.7,3.45-7.7,7.71-7.7,7.71,3.45,7.71,7.7ZM114.52,41.54c-.48-.96-1.44-1.48-2.42-1.42-2.66.16-3.54,4.15-2.23,6.99.47,1.03,1.44,1.61,2.48,1.58,2.6-.08,3.62-4.26,2.17-7.15Z"/>
  <path d="M209.46,42.61l-.1,9.12h-4.54s-.09-14.6-.09-14.6h3.88s.34,1.99.34,1.99c1.92-2.44,5.43-3.09,7.9-1.06,1.12.92,1.82,2.62,1.83,4.1l.06,9.58h-4.56s-.03-8.59-.03-8.59c0-1.35-.8-2.46-2.1-2.56-.9-.07-2.56.62-2.58,2.03Z"/>
  <path d="M176.39,86.95c-1.46-1.05-1.92-2.71-1.7-4.3.52-3.74,4.62-4.81,8.59-4.84,0-2.53-3.96-2.23-6.76-.88l-.83-2.89c2.49-1.14,4.99-1.46,7.58-1.07,2.82.43,4.56,2.67,4.6,5.51l.13,9.14-3.93.07-.44-1.5c-1.9,1.87-4.95,2.41-7.25.76ZM183.43,82.71l.04-2.05-3.16.54c-.5.09-1.04.95-1.14,1.4-.11.48.16,1.48.61,1.75.79.48,1.69.38,2.42.03.49-.23,1.22-1.1,1.23-1.66Z"/>
  <path d="M138.5,51.02c-1.46-1.05-1.92-2.71-1.7-4.3.52-3.74,4.62-4.81,8.59-4.84,0-2.53-3.96-2.23-6.76-.88l-.83-2.89c2.49-1.14,4.99-1.46,7.58-1.07,2.82.43,4.56,2.67,4.6,5.51l.13,9.14-3.93.07-.44-1.5c-1.9,1.87-4.95,2.41-7.25.76ZM145.53,46.79l.04-2.05c-1.99.09-3.93.34-4.3,1.93-.12.5.16,1.47.61,1.75.78.48,1.71.37,2.41.03.5-.24,1.23-1.11,1.24-1.67Z"/>
  <path d="M318.01,48.03l.61,3.09c-2.56.85-5.16,1.15-7.75.58-2.85-.62-4.81-2.76-5.21-5.61-.37-2.62.14-5.32,2.12-7.24,2.39-2.33,6.48-2.75,9.18-.69,2.33,1.77,2.77,4.87,2.32,7.58h-9.39c.6,3.32,4.43,3.28,8.12,2.29ZM315.17,42.62c-.02-1.91-1.22-2.78-2.78-2.69-1.27.08-2.38,1.15-2.48,2.71l5.27-.03Z"/>
  <path d="M247.02,48.03l.61,3.09c-2.56.85-5.16,1.15-7.75.58-2.85-.62-4.81-2.76-5.21-5.61-.37-2.62.14-5.32,2.12-7.24,2.39-2.33,6.48-2.75,9.18-.69,2.33,1.77,2.77,4.87,2.32,7.58h-9.39c.6,3.32,4.43,3.28,8.12,2.29ZM244.18,42.62c-.02-1.91-1.22-2.78-2.78-2.69-1.27.08-2.38,1.15-2.48,2.71l5.27-.03Z"/>
  <path d="M290.18,40.48v11.25s-4.56,0-4.56,0v-11.24s-1.92-.02-1.92-.02v-3.34s1.93-.03,1.93-.03c-.07-2.11.39-4.24,2.02-5.63,1.74-1.49,4.15-1.51,6.29-1.05l-.18,3.54c-.97-.24-2.12-.37-2.83.29-.76.7-.83,1.84-.76,2.85h2.92s0,3.36,0,3.36h-2.91Z"/>
  <path d="M172.93,84.1v3.52c-1.38.2-2.54.33-3.82.22-2.18-.2-3.72-1.95-3.75-4.17l-.09-7.25-1.94-.02v-3.34s1.94-.01,1.94-.01l.03-3.18,4.48-1v4.2s3.28,0,3.28,0v3.35s-3.28,0-3.28,0v5.77c0,.44.28,1.49.65,1.7.6.34,1.46.3,2.5.23Z"/>
  <path d="M133.19,87.19c-2.75,1.14-5.79.86-8.44-.27l.81-3.24c2.46,1.21,5.72,1.52,5.88,0,.04-.38-.4-1.08-.75-1.23l-2.97-1.22c-1.02-.42-2.1-1.46-2.42-2.52-.72-2.4.73-4.6,3.01-5.44s4.75-.55,6.91.34l-.83,3.13c-2.28-1.06-4.84-1.09-4.93.27-.02.32.39.94.71,1.08l2.89,1.17c1.68.68,2.71,2.1,2.77,3.73.06,1.76-.8,3.42-2.66,4.19Z"/>
  <path d="M228.65,48.18c1.34.39,2.75.15,4-.21l.55,3.39c-2.07.65-4.22.81-6.32.38-3.32-.68-5.38-3.38-5.53-6.71-.16-3.57,1.79-6.68,5.25-7.71,2.15-.64,4.3-.6,6.61.07l-.67,3.35c-1.21-.24-2.49-.48-3.68-.22-1.91.42-2.88,2.17-2.82,4.01.06,1.66.85,3.12,2.62,3.64Z"/>
  <rect x="191.61" y="66.34" width="4.56" height="21.32"/>
  <rect x="153.72" y="30.42" width="4.56" height="21.32"/>
  <rect x="276.99" y="30.42" width="4.56" height="21.32"/>
  <path d="M300.01,51.72h-4.54s-.09-14.6-.09-14.6h3.89s.17,2.74.17,2.74c1.04-2.1,2.65-3.29,5.01-2.93l.03,4.23-1.82.03c-1.52.03-2.62,1.41-2.62,2.86v7.67Z"/>
  <path d="M189.69,51.72h-4.54s-.09-14.6-.09-14.6h3.89s.17,2.74.17,2.74c1.04-2.1,2.65-3.29,5.01-2.93l.03,4.23-1.82.03c-1.52.03-2.62,1.41-2.62,2.86v7.67Z"/>
  <rect x="196.65" y="37.12" width="4.56" height="14.61"/>
  <rect x="156.59" y="73.05" width="4.56" height="14.61"/>
  <circle cx="198.82" cy="32.96" r="2.39"/>
  <circle cx="158.77" cy="68.88" r="2.39"/>
  <g>
    <path d="M33.76,114.47c-1.1-.27-1.21-1.89-2.89-3.76-1.52-1.68-1.08-3.59-2.81-3.63-1.35-.03-2.25-.83-2.26-2.06s.97-2.11,2.43-2.14v-3.48c-2.46-1.3-4.72-2.64-7.05-4.19-.79-.53-1.67-.84-2.61-1.01-1.57.08-2.71-.74-3.39-2.09-1.36-.29-2.34-1.09-2.54-2.46-1.4-.8-2.24-2-2.39-3.61C4.19,80.11.67,72.3.08,63.86c-.9-12.94,5.42-25.16,16.58-32.07-1.5-2.21-1.1-5.12,1.2-6.51,1.05-.63,2.09-1.06,3.34-1.6l-1.02-3.21c-.84-.08-2.31-.99-2.03-1.9.48-1.55.97-2.84.09-4.59,2.04,1.86,4.23,2.51,6.74,1.62,1.16-.41,2.15-1.15,2.78-2.24.97.93,2.13,1.29,3.4,1.28,1.74-.02,3.1-.83,3.76-2.51.72,1.76,2.12,2.66,3.95,2.52,1.11-.08,2.18-.59,3.17-1.21,2.04,3,6.21,3.38,9.2.88l-.41,2.55c.48.61.84,1.23.78,1.91-.1,1.21-1.88,1.29-2.19,2.12l-.99,2.7c1.33.64,2.54,1.16,3.66,1.91,2.14,1.45,2.51,4.21.98,6.25,15.16,9.21,20.93,28.18,13.55,44.18-3.63,7.89-10,14.16-18.05,17.55l-.82,1.36-3.67,2.16c-.91.53-2.26,1.24-2.72,2.21l-1.65,3.5c1.01.2,2,.41,2.72.94.89.65.81,2.22-.09,2.84s-2.09.74-3.2.85c-.37,1.83-1.2,3.23-2.55,4.45l-1.09,2.3c-.18.39-1.31.47-1.78.36ZM48.62,18.43l.51-.95c-9.55-2.08-18.53-2.6-28.09.26-.04.36.57.81,1.01.69,8.74-2.47,17.8-2.33,26.57,0ZM34.57,21.7l-3.07-1.45,3.09-1.68-4.15-.06c.61.64.62.94.65,1.58l.11,2.09,3.37-.49ZM39.9,21.27l-.65.75,6.46,1.01v-1.03c-.01-.22.73-.32.86-.15l.62.78,1.05-2.62c-4.37-1.07-8.66-1.65-13.29-1.51l3.25,1.68-3.28,1.61,3.72.35c-.5-1.31-.05-3.18.54-3.32,1.33-.32.52.96.72,2.45ZM24.03,22.95l6.11-.96-.61-3.15c-1.16.04-2.16.09-3.18.29l-4.78.94,1.07,2.73c.16-.38.58-1.1.84-1.06.26.11.47.86.54,1.21ZM51.4,30.92c.57-.59.89-1.56.82-2.5-.18-2.38-7.06-4.09-10.46-4.53-5.58-.72-11.14-.55-16.68.46-2.75.5-7.53,2.15-7.67,4.3-.05.71.36,1.66.83,2.23,11.31-5.58,21.74-5.71,33.15.04ZM67.6,63.85c-1.03,13.75-10.4,25.15-23.55,29.13.86.4,1.85.13,2.71-.2,10.81-4.11,18.6-13.5,20.85-24.19,2.55-12.13-1.49-24.19-10.46-32.11-13.59-11.99-33.94-11.03-46.34,1.76-12.37,12.77-12.61,33.05-.27,46.16l-.17-1.25C-1.66,69.63-.4,49.16,12.99,37.16c13.29-12.09,34-11.08,46.16,2.3,5.97,6.58,9.14,15.18,8.45,24.39ZM54.56,43.49c10.65,11.66,9.03,29.54-3.39,39.1-2.99,2.3-6.28,4.02-10.08,4.81l-1.3,4.46c1.42.58,2.45.42,3.73.05,12.14-3.51,21.05-13.86,22.7-26.06,1.74-12.86-4.35-25.38-15.67-31.8-8.52-4.84-18.93-5.49-27.97-1.67-5.9,2.49-10.84,6.7-14.29,12.03-7.76,11.95-6.36,27.74,3.15,38.21.26-.74.63-1.65.96-2.15,1.04-.28,1.92-.5,2.84-.91-4.67-5.44-7.27-11.91-7.01-18.97.45-12.06,8.85-22.31,20.6-25.09,9.37-2.22,19.24.87,25.73,7.98ZM59.71,63.25c-.73,8.74-6.01,16.52-13.79,20.42-1.37.69-2.73.89-3.73,2.09,5.72-1.6,10.45-5.12,13.77-10.03,5.53-8.15,5.88-18.69.82-27.25-4.71-7.96-13.66-12.85-23.24-12.37-11.81.6-21.99,9.6-23.64,21.25,1.09-.64.69-1.85.98-2.67.45-1.26.91-2.33,1.49-3.55,4.34-9.19,13.79-15.12,24.05-14.41,13.72.94,24.41,13.06,23.29,26.51ZM34.98,62.37v22.53s1.12.07,1.12.07l.03-24.11,15.08-.04c.33-1.89.81-3.56,1.56-5.2.89-1.57,2.15-2.64,3.99-3.1-1.71-3.74-3.97-6.84-7.06-9.3l-.63,1.99-2.51-.18-.4-2.07c-.83,1.59-1.89,1.9-3.35,1.42-.36-.12-.71-.27-.9-.44-.15-.14.02-.92.16-1.1.19-.23.78.29,1.04.79-.05.06.47-.36.64-.53.16-.15-.2-.54-.41-.6l-.95-.29,1.11-.62-.24-.94c-.06-.25.82-.57.94-.35.1.19.24.62.34.95.08.3.49.62.92.92l-1.2.62c.05.29.24.88.37.76l.44-.43c.73-.7,1.36-1.13,2.45-1.58-1.42-.7-3.06-2.01-4.85-2.01h-16.52s-4.19,2.09-4.19,2.09l3.06.22-.4,3.25,5.33-.03-.34-2.1c-.81.99-1.34,1.51-2.2,1.67s-1.92-.6-2.24-1.26c-.1-.2.45-.75.58-.61l.6.68c.13.15.52.06.63-.09s.17-.68,0-.74l-.65-.21c-.14-.04-.6-.26-.48-.34l.41-.24c.12-.07.57-.14.54-.27l-.16-.69c-.04-.17.24-.59.41-.56l.73.1c-.08.95.12,1.42,1.06,1.88l-1.38.22.42,1.11c1.96-1.93,2.57-2.25,5.27-1.6l-.58,3.08,2.66.02v15.98c-.76.17-1.66.4-2.39.4l-14.42.04.03.81,16.52.03ZM21.97,45.1l-.72-2.97-3.32,2.91,4.04.06ZM19.95,49.7c1.22-.32,1.96.47,3.02-.11l2.99-1.63-2.05-.18c.25-1.13-.11-1.9-1.14-2.11l-1.1,2.04-1.29-1.75c-.31,1.79,1.1,2.18,2.31,2.94-.73.3-1.52.08-2.26-.25l-.48,1.05ZM28.36,48.75c.32-.2.83.63.78,1.04l.83-.06c.37-.03.2-1.28-2.92-1.89-.57-.11-.88.98-.68,1.47l-1.88-.14c.61.97,1.27.59,2.14.65.7.05,1.21-.42,1.71-1.06ZM26.03,53.44c.18.02.39.59.3.74l-.46.69,1.9-.19.7-.82c.36-.42.53.94,1,1.12.12.05.52.1.51-.03-.19-2.34-3.17-1.59-5.86-2.01l-.63-2.21c-1.03.36-1.37.92-1.83,2.07l-.88-1.28c-.06-.11-.66.18-.58.31l.31.5c.46.76,1.15,1.14,2.11,1.59-.9.86-2.09-.36-2.23.05l-.25.73,2.98.03c.69-.71,2.03-1.38,2.9-1.3ZM14.95,62.34c.22.51-.06,1.87-.56,2.03l-2.86.13c.2.46.85,1.21,1.32,1.18.54-.03,1.24-.28,1.93-.54.5.8-.31,2.29-1.22,2.57-.3-.35-.87-.98-1.12-.76-.32.3-.66.71-.76.99s.57.93.88.94c3.4.03,6.66-7.63,2.72-13.48-.81-1.2-2.49-1.87-3.03-1.12-.16.22-.22.84-.09.98.5.18,1.34.4,1.55.71.45.66.18,1.82-.35,2.26-.62.51-1.18.68-2.24.74-.09.01.2.97.5,1l1.88.2c-1.01.63-2.26,1.57-1.65,2.75.42.23.98-.55,1.22-1.09s1.57-.23,1.89.51ZM56.37,61.69l1.26,1.51.36-1.3-1.76-1.75,1.73-.18c.29-.03.56-.97.46-1.03-1.18.03-1.86-.29-2.43-1.01-.45-.57-.65-1.82.25-2.28.35-.18,1.34-.07,1.31-.92-.01-.41-.85-.84-1.31-.79-.36.04-1,.35-1.29.69-4.95,5.84-1.53,13.97,1.84,14.26.49.04,1.07-.56,1.08-1s-.49-.99-.89-1.06l-1.12.98c-.79-.74-1.3-1.65-1.26-2.66l2.3.59c.38.1,1-1,.98-1.21l-2.56-.15c-.58-.04-.85-1.41-.72-1.99.12-.53,1.41-1.13,1.77-.71ZM26.19,58.71c.26.1-.05.93-.28,1.18h1.73c.25-.48.38-.76.55-.92s.79.16.81.38c.03.38.13.79.33.8.24,0,.71-.14.66-.33-.36-1.34-1.86-1.58-3.58-1.63l-2.23-.06-.77-2.33c-1.18.64-1.37,1.26-1.72,2.18l-1.22-1.58c-.42,1.63,1.08,2.09,2.12,2.69-.65.48-1.31.31-2.07-.17l-.45.96,3.09-.02c.72-.74,1.99-1.43,3.03-1.15ZM9.83,63.3c.3-1.55.44-2.86-.2-4.2-.15,2.99-.15,5.86.65,8.74,1.19-1.51-.74-3.07-.46-4.54ZM41.36,67.19l-.54,1.02c.62.15,2.07.49,2.68.18l3.16-1.61-1.63-.27c-.62-.1-.13-1.74-1.1-2.01-.16-.05-.58.11-.68.27l-.95,1.61-.58-1.81-.92.91c.64,1.07,1.24,1.68,2.44,1.98-.61.67-1.26.57-1.88-.28ZM21.33,66.26c.8.42,2.17,1.41,3.06.97l4.78-2.39,1.29.89c-.15-1.14-1.25-1.25-2-.9l-2.61,1.23c-1.77.83-3.84.28-5.18-1.08l-1.01,1.38,1.66-.1ZM49.86,67.62c-.07.17-.31.76-.1.82l1.02.3c.22-1.49-2.5-2.53-4.03-1.74l.6.94-2.08.22,3.37.39c.01-.38,0-.99.19-.98l1.04.06ZM24.29,80.69c.17.2,1.15.02,1.6-.35.33-.27.26-.99-.13-1.58l-.97,1.69.21-2.83c-2.25-1.29-3.95-3.62-3.62-6.23l.39-3.12-1.28-.65-.27,1.32c.4,1.09.65,2.07.82,3.2l.46,3.16c-.68-.84-.77-1.84-.95-2.94l-.39-2.48c-.29,2.37.07,6.11,1.97,6.88,1.51.61,2.15,1.88,2.16,3.94ZM29.69,86.27c.73-2.31,2.66-2.8,4.77-2.24-.14-.56-.9-1.04-1.59-.99-1.67.13-2.92.92-3.89,2.36l-3.35-1.05c-.55-1.82-1.9-2.93-3.72-3.24-.85-1.92-2.77-2.81-4.88-2.57-2.14-2.1-3.66-4.59-4.89-7.32-.45-1-.91-1.93-1.61-2.77.98,4.39,3.53,7.97,6.42,11.02,1.99-.6,3.67.43,4.51,2.12,2.16.79,3.73,2.45,4.33,4.77,4.35,3.5,9.23,6.16,14.66,7.57,1.47.38,2.89.54,4.41.36-7.05-1.29-13.25-4.22-19.06-8.74l3.89.74ZM30.41,70.17l-.55-.7-3.17,9.28-.35-.32,3.18-9.91-.46-.04-3.11,8.01c-.31.8-.06,1.84.37,2.49l2.15-.39,1.94-8.42ZM41.15,72.53l-.36.91,2.48.16c.36.02.88-.36,1.17-.7l2.16-.94c-.63-.11-1.43-.2-1.73-.46-.51-.44-.22-1.81-.86-1.87-.15-.01-.65.14-.73.27l-1,1.57-.53-1.71-.95,1,1.29,1.58.96-.48c.11.08.19,1-.09,1.12-.9.36-1.69-.74-1.81-.44ZM50.38,73.64c.68-.81-.16-1.14-.76-1.33-.79-.25-1.79-.75-2.51-.31-.45.28.24,1.29.66,1.39l.75.18c.15.04.11-.74.22-.84.34-.32,1.3.31,1.63.9ZM41.14,77.64l-.35.91,3.25.15c.49-1.26,1.6-1.04,2.59-1.56-1.08-.25-1.98-.12-2.05-1.26-.02-.24-.18-.75-.31-.94s-.82-.2-.94,0l-1.05,1.7-.63-1.74-.91.85,1.45,1.83.9-.67c.1.58-.05,1.3-.32,1.29-.98-.02-1.54-.81-1.63-.58ZM50.47,78.5c-.2.5.05-.13.24-.59l-2.9-.99c-.22-.08-.78.15-.84.34-.24.67.53,1.21,1.61,1.54.04-.6.33-1.2.65-1.01l1.24.71ZM19.26,82.37l.49-.59c.28-.34-3.05-2.52-4.77-.16,3-.81,3.99,1.09,4.28.74ZM15.27,85.24c.34-.43.68-1.17.56-1.48s-.48-.72-.83-1.05c-.47-.45-1.4-.4-1.65.12.96.78,1.6,1.4,1.92,2.41ZM16.81,90.46c-.41.35-.77.95-.63,1.36,2.43,1.03,5.6.54,7.11-1.71,1.84-2.73-.07-7.04-1.05-6.27l-.99.79,1.4.84c.5,1.88-.11,4.16-1.77,5.26-1.4.93-2.82.87-4.07-.28ZM12.74,85.97l-.32-1.93c-.82,1.58-.66,3.88.9,4.13,1.11.18-.4-1.13-.58-2.2ZM16.14,88.36c.37,1.61,1.84,1.96,3.14,1.58,1.55-.46,2.48-1.62,2.33-3.14-.14-1.44-1.25-2.78-2.98-2.45.24.56.79,1.56.78,2.08-.02,1.73-1.88,2.33-3.27,1.93ZM17.93,86.64l-.52-2.34c-.58.64-.48,1-.38,1.78l-1.98.51c.67,1,2.17.84,2.88.04ZM38.71,91.35c.56-2.57,1.25-4.52,2.53-6.54-2.5-1.25-3.47,2.81-4.2,6.01l1.67.53ZM31.98,87.68l1.85-2.41c-.69-.72-1.59-.5-2.28.18-.38.38-1.01,1.2-1.09,1.71-.09.6,1.08,1.08,1.51.52ZM23.86,93.27c2.83,1.76,5.4,3.07,8.22,4.41l4.43-3.75c-3.98-1.43-7.31-3.46-10.54-5.92-.41,1.41.35,2.3,1.78,2.83l-1.92,2.22-1.23-.94c-.34-.09-1.09.93-.75,1.14ZM39.71,101.02c.16-.19.37-.47.29-.52l-.43-.21c-5.95-.77-11.58-2.77-16.46-6.23l-.69-.41c-.16-.09-.59.35-.69.51,5.22,4.02,11.36,6.24,17.98,6.85ZM35.2,98.62l3.33-3.4-1.47-.33-3.11,3.25,1.25.49ZM32.82,103.51c-.48-.02-1.69-.08-1.82-.56l-.67-2.56c-.39.89-.34,3.09.88,3.42l5.74.29c.7.04,1.62-.9,1.19-1.68-.23-.42-1.28-.73-1.83-.7-1.37.09-1.07,1.87-3.51,1.78ZM39.47,105.72l2.3-.86c-.55-.45-1.26-.75-1.8-.69-.46.05-1.39.51-1.6.98l-2.05,4.39.12-4.39h-3.81s-.07,4.41-.07,4.41l-2.11-4.47c-.37-.79-1.95-1.07-2.67-.76-.17.07-.58.57-.46.71s.55.39.75.4c3.86.18,2.44,4.05,4.54,4.9.33.13.87-.77.81-1.13l-.6-3.4,3.18-.12c-.26,1.82-.36,3.15-.29,4.85,2.94-.66,1.26-3.85,3.79-4.8Z"/>
    <path d="M11.2,74.93c-1.17.42-1.99.79-3.17,1.57-.43-.69-.72-1.74-.59-2.63l1.59-.12,1.01-1.73c.03,1.04-.13,1.53-.46,2.58l1.31-.7.31,1.05Z"/>
    <path d="M13.77,42.44l1.31.52-.78.84-2.59-2.41c.23-.75,1.46-1.56,2.13-1.26.4,1.13,1.02,1.35,2.35,1.61l-2.42.69Z"/>
    <path d="M54.07,42.15c-.51-.78-.7-1.54-.93-2.46l-.51.84c-.12.19-.78-.42-.88-.56l2.18-2.56c.71.07,1.49,1.08,1.4,1.91l-1.27.66.02,2.16Z"/>
    <path d="M61.81,57.34l1.55.16-.08-1.4-1.57.57-.06-1.04,3.49-.49c.06.09.18.69.03.73l-.68.19c-.16.05-.7-.03-.7.13l.02.94c0,.2.67.1.88.06l.67-.13c.14-.03.13.43.14.86l-3.41.49-.28-1.07Z"/>
    <path d="M59.41,49.17l-1.42-2,3.28-1.65c.27.41.92,1.55.9,2.13-.05,1.19-1.47,2.08-2.77,1.52ZM58.85,47.77c.8,1.25,1.59.96,2.25.44.53-.41.65-1.27.11-1.83l-2.36,1.39Z"/>
    <path d="M21.28,38.01l-.72.38c-.35-1.28-.89-1.95-2-3.1,1.22-.19,2.05.19,3.37.6l-.95-1.47c-.08-.12.08-.58.22-.52s.51.32.58.48l1.17,2.75-2.69-.96,1.02,1.84Z"/>
    <path d="M7.52,71.13c-1.04.28-1.96-.28-2.21-1.13-.22-.74.24-1.69,1.08-2.06s1.94.05,2.35.81c.46.85-.08,2.07-1.22,2.38ZM8.31,69.04c-.37-.74-1.33-.6-1.77-.39-.34.17-.93.83-.8,1.23.19.61,1.22.71,1.71.54.42-.14,1.08-.94.86-1.38Z"/>
    <path d="M12.21,46.58l-.65.9c-.96-1.11-1.58-1.53-2.97-1.84.65-1.38,1.82-2.1,2.36-1.57.68.67,0,1.82.19,1.93l1.07.58Z"/>
    <path d="M31.89,33.85l.38-.4c.06-.06.26.11.27.2.02.13-.07.67-.2.7l-2.34.47-.33-3.61,1.97-.32c.22-.04.26.99.17.84l-1.03-.35c-.26-.09-.44.98-.17.94l.92-.11c.21-.03.37.68.36.74-.52-.02-.79-.09-.95.07s-.38.81-.21.95c.21.17.97.09,1.16-.11Z"/>
    <path d="M6.64,58.99c-.16,1.08,1.4.79.99,1.87l-3.63-2.06,4.04-1.45c-.05.49-.15,1.13-.22,1.3-.57.02-1.14.08-1.18.33Z"/>
    <path d="M40.89,34.47c-.44-.51-1-1.03-1.4-.99l-.28,1.06c-.05.19-.7-.24-.84-.37l2.44-3.18.84,3.42c.04.15-.27.64-.35.55l-.41-.48Z"/>
    <path d="M65.63,61.62c.24.28.23,1.16.05,1.46-.23.38-.9.79-1.4.86-.9.12-1.59-.17-1.95-.82-.31-.56-.29-1.53.32-1.95.9-.62,2.13-.57,2.98.45ZM65.36,62.47c-.02-.77-.98-1.09-1.43-1.07-.4.02-1.33.44-1.35.84-.03.63.88,1.06,1.38,1.12.43.05,1.41-.46,1.4-.9Z"/>
    <path d="M61.97,73.17c-.21-.33-.23-1.04-.22-1.53l-1.35-.35.32-.95,3.33,1.32-.53,1.31c-.14.36-1.35.52-1.56.2Z"/>
    <path d="M52.26,82.6l.48-.65c.27-.37.84.49,1.65.29.19-.05.13-.55.05-.74l-.25-.66c-.06-.17.55-.4.64-.37l1.09,3.7-3.67-1.56Z"/>
    <path d="M64.65,68.7c-.11.04-.74-.01-.68-.09l.37-.47.36-.35c.1-.1-.01-.35-.16-.63l-1.73,1.24c-.39.28-1.24-.58-1.24-1.05,0-.64.29-1.67,1.26-1.25l-.66.73c-.15.17-.03.85.04.92.81-.65,1.67-1.4,2.64-1.01.65.26.51,1.7-.2,1.95Z"/>
    <path d="M5.2,65.22l-.52.45c-.11.09-.53-.51-.43-.6l1.32-1.22-1.14-.55-.4-.19c-.12-.06.17-.59.3-.53,1.98.9,3.45,1.07,3.45,1.1l.06.69c-1.17-.43-1.81.12-2.65.86Z"/>
    <path d="M5.79,54.59c-.21.07-.86.27-.82.1l.22-1.03,2.97.89-.02-1.89.82.51-.43,2.31-2.74-.89Z"/>
    <path d="M25.82,35.11l1.58-.08c-.23.7-1.32.86-1.97.62-.52-.19-1.03-.97-1.13-1.77-.15-1.12,1.98-2.31,2.3-1.89.16.21.45.77.5.92l-1.63-.32c-.76.68-.51,2.13.35,2.52Z"/>
    <path d="M58.66,81.39l-.7-.3.99-.93-2.83-1.65.67-.83,2.37,2.07.27-.7c.07-.18.44-.24.84-.25l-1.59,2.59Z"/>
    <path d="M44.61,35.69l1.88.13c-.85,1.08-1.63.42-2.68-.1l1.3-3.35.95.36c-.7,1.05-1.13,1.95-1.46,2.96Z"/>
    <path d="M57.52,44.82l-.54.46-1.62-1.68,2.57-2.31c.2-.07.63.4.82.74l-2.69,1.67,1.46,1.12Z"/>
    <path d="M50.4,35.46l-1.11,1.74c-.07.11-.18.62-.21.76-.03.18-.44,0-.6-.07s-.34-.55-.22-.73l1.61-2.4c.99-.14,1.98.74,1.66,1.65-.26-.38-.82-.96-1.14-.95Z"/>
    <path d="M50.53,85.21c-.1-.16-.67-.57-.78-.43l-.45.62-.31.42c-.07.09-.39-.09-.41-.21s.06-.54.15-.61l1.66-1.21,1.99,2.97-.72.36-1.14-1.9Z"/>
    <path d="M61.73,76.84l-2.49-1.36c-.13-.07-.79-.08-.72-.19l.45-.75,2.59,1.22c.11.05.54.2.49.32l-.32.76Z"/>
    <path d="M17.8,40.13l-1.56-1.94c-.1-.12-.74-.37-.63-.48l.64-.67,1.76,2.12c.11.14.51.4.63.49.16.11-.72.62-.84.47Z"/>
    <path d="M46.55,55.14c-.26.26.33,1.2.72,1.49l-.9,2.45-2.37-.3c.17-.94,1.04-1.27,1.82-1.36-.56-.88-.93-1.72-.8-2.85l-2.05,1.58c-.4.31-2.36.1-3.01-.93-.15-.25.31-1.21.56-1.07l1.6.86.52-1.53,2.44.52c.08.02.36.5.38.41l.17-.6-2.95-1.62c-.4-.22-1.14-.3-1.45-.08l-1.56,1.15c-.23-.35-.38-.66-.54-.66l-.82.03.33-1.43,2.65-.1-.61-2.65-.91-.77c-.32-.45-.56-.62-1.22-.97l2.4-.75.42,2.09.7-.68c.17.34.34.76.54.75l1.04-.05c-.34-.12-1.08-.65-.91-.83.51-.51,1.59-1.01,2.37-1.29,1.28,1.41,1.26,3.15.76,4.94-.29,1.03.24,2.33,1.02,3.11.3.3,1.14.17,1.6-.19l-1.75-1.2c-.37-.25-.7-1.2-.49-1.65.42-.91,1.95-.74,2.52-1.41.21-.25,0-.99-.25-1.45l-.16,1.19-1.4.76-.46-1.45,1.95-1.5c.64.44,1.1,1.26,1.08,2.05-.01.74-.56,1.26-1.39,1.58l1.11.05c.22,0,.21.87.04,1.02-.32.28-1.04.3-1.89.42l1.37.65c.29.15.65.81.59,1.13-.25,1.19-1.72.6-2.83,1.16Z"/>
    <polygon points="41.27 45.14 38.57 45.2 38.01 41.85 41.72 41.74 41.27 45.14"/>
    <path d="M37.78,42.34c-.27.72-1.38,1.89-2.18,2.34l-2.02-2.1,1.54-1.77c.1-.11.38-.45.51-.39.16.09.43.31.59.45l1.56,1.45Z"/>
    <path d="M33,95.24c-.11.48-1.33.6-1.74.4s-1.12-.95-.98-1.4c.19-.63,1.15-.77,1.66-.6.46.15,1.26.75,1.07,1.6Z"/>
    <g>
      <path d="M26.37,0l3.26,1.27c3.77,1.39,7.66,1.16,11.33-.36.9-.37,1.86-.61,2.68-.91h2.4c1.41.57,2.75,1.23,4.1,2.19,1.99-1.16,4.39-.88,5.81.79s1.32,4.14-.25,5.73-3.18,3.27-4.29,5.18l-.71-.69c-.2-.2-2.81,2.83-5.69,1.24-1.16-.64-1.96-1.73-2.62-2.95-1.11,1.55-3.11,2.54-4.91,1.62-1.22-.62-1.98-1.88-2.63-3.09-.68,1.48-1.57,2.78-3.06,3.27s-2.84-.08-3.93-1.12c-.47-.45-.63-1.39-.39-1.84l1.37-.58c-1.07-.21-1.56-.57-1.89-1.44-.26,1.67-.82,1.24-1.56,2.12-.06.07.4-.01.5,0l.95.02c.71.02.21,3.24-2.51,4.21-3,1.07-5.09-1.73-5.38-1.39l-.65.76c-1.06-2.01-2.49-3.72-4.2-5.3s-1.69-4.19-.28-5.83,3.86-1.78,5.78-.64c1.38-1.03,2.73-1.68,4.15-2.24h2.64ZM40.35,2.88c-3.65.72-7.03.77-10.83,0,2.87,2.94,7.78,3.09,10.83,0ZM33.23,10.18l2.12-1.63c.21-.16.06-.97-.17-.94l-1.05.15c-.18.03.1.71.12.82-.43.05-1.14.14-1.12.43l.1,1.17ZM42.54,11.03c.46-.43.6-.63.79-.66l.73-.1-1.18-1.64-1.73,1.24,1,.33c.21.07.3.65.38.84Z"/>
      <path d="M49.96,28.11l-3.71-.22c.33-.74.43-1.05.63-1.88l3.08,2.1Z"/>
      <polygon points="19.77 29 18.87 27.24 22.36 26.65 19.77 29"/>
      <path d="M43.42,25.89l-3.66.31c.38-.77.46-1.04.4-1.81l3.26,1.5Z"/>
      <polygon points="36.55 24.71 33.56 25.67 33.12 23.83 36.55 24.71"/>
      <polygon points="28.59 25.27 25.77 26.8 25.33 25.1 28.59 25.27"/>
      <path d="M46.06,21.4c-1.42,1.14-3.04,1.04-4.56.36-.76-.34-1.22-.97-.97-1.87,1.96-1.08,4.42-.6,5.53,1.5Z"/>
      <path d="M29.57,20.46c-1.22,2.32-4.9,2.01-5.46,1.08-.16-.27.02-1,.3-1.2,1.66-1.21,4.28-1.49,5.16.13Z"/>
    </g>
  </g>
</svg>