<?xml version="1.0" encoding="UTF-8"?>
<svg id="Layer_1" data-name="Layer 1" xmlns="http://www.w3.org/2000/svg" viewBox="0 0 457.34 134.21">
  <rect x="145.5" y="93.78" width="311.84" height="2.79"/>
  <path d="M157.15,69.54v-3.61s13.5,0,13.5,0v16.28s-2.67.03-2.67.03l-1.05-4.02c-2.42,3.07-5.53,4.52-9.32,4.71s-7.48-.75-10.26-3.4c-4.62-4.41-5.26-12.68-3.45-18.65,2.56-8.45,10.71-11.92,19.01-9.12,4.04,1.36,6.59,4.65,7.21,9.1l-4.15.09c-.55-3.57-3.07-5.66-6.44-6.31-4.99-.97-9.77,1.48-11.38,6.46-1.31,4.04-1.21,8.57.24,12.54,1.29,3.51,4.13,5.47,7.79,5.68,3.1.18,6.24-.48,8.38-2.84,1.7-1.88,2.18-4.41,2.18-6.92h-9.59Z"/>
  <polygon points="331.22 82.19 326.98 82.24 326.98 67.86 311.25 67.86 311.24 82.24 307.01 82.22 307.01 51.57 311.25 51.56 311.25 64.26 326.98 64.26 326.98 51.56 331.21 51.56 331.22 82.19"/>
  <path d="M385.42,91.07l-3.7.03v-30.9s3.58-.02,3.58-.02l.09,2.56c2.17-2.61,5.12-3.77,8.59-3.1,2.76.53,5.41,2.73,6.45,5.79,1.22,3.61,1.07,7.61-.08,11.24-1.31,4.13-5.1,6.61-9.33,6.27-2.3-.19-4.01-1.13-5.57-3.01l-.02,11.15ZM396.47,76.27c1.34-3.23,1.29-6.97.12-10.12-.83-2.27-2.78-3.52-5.11-3.57-2.46-.05-4.44,1.28-5.3,3.63-1.85,5.05-1.31,13.14,4.49,13.61,2.43.2,4.74-1,5.79-3.54Z"/>
  <path d="M260.54,75.65c.37-3.65,3.22-5.55,6.57-5.99l6.57-.85c1.16-.15,1.68-1.08,1.73-2.16.08-1.65-.57-3.08-2.21-3.62-1.49-.5-3.22-.58-4.78-.26-2,.41-3.13,2.02-3.16,4.11l-3.55.03c-.18-3.22,1.48-5.81,4.53-6.79,5.44-1.75,12.75.03,12.78,4.61l.09,14.61c.58.51,1.47.53,2.42.37l.04,2.8c-1.32.47-2.85.65-4.2.11-1.23-.49-1.7-1.75-1.85-3.13-2.6,2.63-6.15,3.97-9.8,3.26-3.36-.65-5.56-3.61-5.2-7.11ZM275.28,74.5l.04-3.32-4.47,1.04-3.79.71c-1.77.33-2.68,1.97-2.62,3.6s1.35,2.96,3.11,3.21c3.38.49,7.66-1.51,7.71-5.24Z"/>
  <path d="M425.81,75.65c.37-3.65,3.22-5.55,6.57-5.99l6.57-.85c1.16-.15,1.68-1.08,1.73-2.16.08-1.65-.57-3.08-2.21-3.62-1.49-.5-3.22-.58-4.78-.26-2,.41-3.13,2.02-3.16,4.11l-3.55.03c-.18-3.22,1.48-5.81,4.53-6.79,5.44-1.75,12.75.03,12.78,4.61l.09,14.61c.58.51,1.47.53,2.42.37l.04,2.8c-1.32.47-2.85.65-4.2.11-1.23-.49-1.7-1.75-1.85-3.13-2.6,2.63-6.15,3.97-9.8,3.26-3.36-.65-5.56-3.61-5.2-7.11ZM440.55,74.5l.04-3.32-4.47,1.04-3.79.71c-1.77.33-2.68,1.97-2.62,3.6s1.35,2.96,3.11,3.21c3.38.49,7.66-1.51,7.71-5.24Z"/>
  <path d="M232.56,79.83c2.97.01,5.32-1.56,6.07-4.5l3.78-.07c-.9,4.46-4.35,7.27-8.77,7.68-4.9.45-9.31-2.27-10.66-7.11-1.53-5.49-.21-12.27,4.93-15.13,3.13-1.74,6.86-1.6,9.98.03,4.37,2.28,4.89,6.64,4.85,11.45h-16.28c.16,4.12,1.73,7.63,6.12,7.65ZM238.82,69.05c-.14-1.59-.49-3.38-1.71-4.72-1.7-1.88-4.64-2.24-7-1.17-2.14.96-3.49,3.32-3.57,5.88h12.28Z"/>
  <path d="M185.31,79.83c2.97.01,5.32-1.56,6.07-4.5l3.78-.07c-.9,4.46-4.35,7.27-8.77,7.68-4.9.45-9.31-2.27-10.66-7.11-1.53-5.49-.21-12.27,4.93-15.13,3.13-1.74,6.86-1.6,9.98.03,4.37,2.28,4.89,6.64,4.85,11.45h-16.28c.16,4.12,1.72,7.63,6.12,7.65ZM191.57,69.05c-.14-1.59-.49-3.38-1.71-4.72-1.7-1.88-4.64-2.24-7-1.17-2.14.96-3.49,3.32-3.57,5.88h12.28Z"/>
  <path d="M355.24,76.75c-1.51,4.04-4.78,5.98-8.86,6.21-4.64.27-8.75-2.14-10.12-6.74-.99-3.33-.93-7,.28-10.26,1.57-4.25,5.36-6.67,9.87-6.52,4.09.14,7.87,2.43,9.18,6.4,1.17,3.53.95,7.42-.35,10.91ZM346.03,79.83c2.46-.02,4.36-1.13,5.23-3.31,1.23-3.06,1.5-6.41.64-9.6-.76-2.82-3.12-4.42-6-4.36-2.29.05-4.23,1.09-5.2,3.22-1.47,3.22-1.65,6.95-.41,10.25.94,2.49,2.98,3.82,5.74,3.79Z"/>
  <path d="M372.74,82.3c-3.09.97-6.48.93-9.38-.28-2.68-1.11-3.93-3.98-4.1-6.73l3.65-.02c0,2.08,1.13,3.65,3.06,4.18,2.18.6,4.57.54,6.51-.61,1.13-.68,1.59-1.9,1.41-3.12-.17-1.15-1.2-1.89-2.46-2.23l-6.79-1.83c-1.57-.42-3.35-1.33-4.11-2.82-1.7-3.34.18-7.32,3.63-8.64,2.64-1.01,5.54-1,8.2-.08s4.58,3.56,4.46,6.31h-3.52c-.11-1.66-.95-2.89-2.45-3.39-2.99-1-6.84-.44-7.16,2.1-.34,2.71,2.5,3.21,4.8,3.86l5.79,1.65c1.19.34,2.3,1.31,2.78,2.48,1.51,3.67-.37,7.93-4.34,9.18Z"/>
  <path d="M212.66,63.3c-1.87-1.21-4.35-.85-6.06.32-1.6,1.1-2.66,3.02-2.66,5.21l-.04,13.41h-3.77s0-22.28,0-22.28l3.58-.02.03,2.9c2.99-3.97,9.92-4.48,12.66-1.45,1.25,1.38,1.86,3.33,1.86,5.28l.05,15.58h-3.84s-.04-15.09-.04-15.09c0-1.37-.54-3.06-1.76-3.84Z"/>
  <g>
    <path d="M32.71,73.72l-.25,11.61-.22,12.01c-.11,6.03-1.19,11.82-3.12,17.62-3.13,1.17-6.56.48-9.2-1.61-4.23-3.35-5.43-9.47-5.28-14.85.35-12.72-1.59-27.14-14.26-32.8,6.68-4.38,14.17-3.03,19.95,2.05,3.33-6.07,9.19-10.03,15.95-10.58,4.34-.35,8.98,1.98,12.74,4.58,5.54-8.03,14.97-21.04,25.38-20.52,2.02.1,4.45,1.01,5.7,2.62s1.92,3.71,3.1,5.44c5.83-17.83,19.47-35.82,39.44-36.08-10.78,11.48-18.15,24.42-21.68,39.71-1.52,6.59-2.32,13.05-2.47,19.79l-.32,14.52c-.14,6.35-.43,12.43-1.45,18.69l-1.44,8.92c-11.5.88-20.58-6.5-22.49-17.64-.83-4.84-.81-9.59-.91-14.53l-.27-14.36c-.08-4.2-.37-8.18-1.58-12.32-1.97,3.2-3.21,6.63-3.66,10.33l-1.22,10.1-4.05,38.62c-6.99,1.42-13.17-.81-16.91-7.01-2.57-4.25-3.44-8.9-3.5-13.86l-.22-19.62c-.04-3.63-2.31-6.62-4.83-8.85-1.35,2.54-2.86,5-2.93,8.01Z"/>
    <path d="M.25,100.15v-29.37s.84-1.78.84-1.78c2.43.94,4.24,2.97,4.97,5.55l.24,17.02,1.11,28.42c2.87.67,5.58.9,8.43.82l13.22.86,52.48.09c5.16-.49,10-.73,15.12-.9,2.87-.09,5.49-.23,8.41-.9l.85-18.65.79-24.84c.2-6.29.04-12.28-.32-18.51-.24-4.14-.2-8.13-.01-12.26.09-2.04.5-4.02,1.36-5.85l2.59-5.5c1.12,1.84,1.94,3.6,1.94,5.76l-.02,62.87-.93,4.86-.31,13.86c-.03,1.22-.84,2.5-1.06,3.77l-9.19,1.01-16.06.57-5.09.65-47.42.02-4.82-.71-14.39-.42-10.72-1.06-.73-6.18-.18-8.92c-.11-3.52-.35-6.81-1.08-10.29Z"/>
    <path d="M.83,62.39C.2,58.07-.2,53.61.11,49.27l.37-5.15c.38-5.33.95-10.44.92-15.8-.02-3.73.18-7.32,1.11-10.94,5.24.2,10.13-1.01,15.4-.92l15.2-.36,10.1-.7,30.91-.06c-1.21,2.17-2.52,3.96-4.12,5.83l-31.6.17c-10.44,1.15-20.49.67-30.89,1.58l-1.18,26-.28,11.55c-1.59,1.01-3.14,1.57-5.22,1.92Z"/>
    <path d="M71.35,33.15l2.16-4.02c.71-1.32,1.05-2.84,1.12-4.33l-2.78-.98c-1.22-.43,1.01-4.64,5.53-6.84,3.26-1.59,6.84-.92,9.44,1.52,1.91,1.79,2.93,4.04,2.92,6.71s-.46,4.95-1.76,7.14c-2.42,4.1-7.26,6.1-11.82,4.71-2.07-.63-3.6-1.87-4.82-3.92Z"/>
    <path d="M39.69,51.79c-1.03-3.96.56-7.74,3.59-10.29l-3.31.67c-.66.13-1.94-.17-2.13-.86.49-1.69,1.93-2.68,3.35-3.48,2.4-1.36,5.24-1.96,7.88-.99,3.22,1.18,5.34,4.11,5.96,7.42s-.29,6.26-2.52,8.54c-2.08,2.14-5.04,3.37-8.19,2.92-2.21-.31-4.03-1.6-4.64-3.93Z"/>
    <path d="M14.19,60.7c-1.73-1.73-2.2-4.52-1.19-6.67.48-1.02.91-1.69,1.55-2.84l-3.37.52c-.45-1.16-.03-2.2.88-2.99,1.98-1.71,4.67-3,7.37-2.15,3.29,1.04,5.6,4.42,5.66,7.83s-2.17,5.67-4.99,6.94c-1.98.88-4.18,1.09-5.91-.64Z"/>
  </g>
  <path d="M422.92,79.37v2.92s-3.87.13-3.87.13c-1.81.06-3.38-1.6-3.39-3.6l-.09-15.73-3-.02v-3.12s3.01,0,3.01,0v-6.22s3.8,0,3.8,0v6.23s3.54,0,3.54,0v3.13s-3.54,0-3.54,0v14.58c0,.79.58,1.6,1.38,1.63l2.17.08Z"/>
  <rect x="450.45" y="51.56" width="3.74" height="30.68"/>
  <rect x="285.17" y="51.56" width="3.74" height="30.68"/>
  <path d="M251.25,82.21l-3.74.02v-22.28s3.53-.02,3.53-.02l.09,3.23c2.16-2.59,3.72-3.99,7.2-3.7v3.94c-3.59-.71-7.01,1.63-7.02,5.37l-.06,13.43Z"/>
  <rect x="405.48" y="60.18" width="3.81" height="22.06"/>
  <rect x="405.48" y="51.56" width="3.81" height="4.33"/>
  <g>
    <path d="M192.38,134.21l-3.57-.03c-2.26-.54-4.45-1.42-4.91-4.2l1.98-.05c.58,2.71,3.82,3.27,6.5,2.6,2.86-.72,3.72-3.86,3.58-7.03-1.21,1.55-2.65,2.4-4.58,2.67-3.15.44-6.07-1.2-7.17-4.27s-1.02-6.34.46-9.11c1.15-2.16,3.42-3.1,5.67-3.09s4.37,1.15,5.6,3.14l.07-2.67,1.81.03-.11,15.74c-.02,3.32-2.32,5.73-5.31,6.28ZM195.03,124.01c1.35-2.7,1.26-5.97-.18-8.53-1.02-1.8-2.91-2.54-4.89-2.29-4.33.56-5.46,6.05-3.9,10.3.73,1.98,2.4,3.19,4.31,3.29s3.7-.82,4.67-2.77Z"/>
    <path d="M153.94,127.59c-2.31.81-4.71.82-6.98.26-3.07-.75-4.96-3.35-4.84-6.58l2,.03c.14,1.99,1.06,3.77,2.87,4.58,3.03,1.35,7.44.65,8.41-1.96.53-1.42.56-2.85-.33-3.96-.75-.94-2.01-1.51-3.19-1.82l-5.11-1.34c-2.34-.62-3.98-2.4-4.16-4.68s.85-4.36,3.02-5.45,4.98-1.24,7.43-.48c2.64.83,4.2,3.27,4.09,5.92h-1.95c.06-1.66-.67-3.18-2.2-3.97-2.98-1.54-7.28-.58-8.16,2.04-.41,1.23-.34,2.54.52,3.47s2.13,1.36,3.32,1.69l5.83,1.59c2.26.62,3.33,2.83,3.32,5.09-.02,2.55-1.35,4.71-3.89,5.6Z"/>
    <polygon points="219.32 127.71 217.27 127.75 217.28 117.21 204.53 117.21 204.51 127.74 202.46 127.73 202.46 106.2 204.51 106.17 204.52 115.52 217.28 115.53 217.27 106.19 219.32 106.21 219.32 127.71"/>
    <path d="M242.87,127.89c-2.02-.63-3.1-2.37-3.07-4.34s1.26-3.87,3.42-4.25l4.48-.79,2.56-.55c.99-1.48.51-3.71-1.19-4.43-1.5-.63-3.36-.53-4.82.11-1.19.52-1.68,1.69-1.86,2.97l-1.82.04c.01-2.11,1.26-3.92,3.35-4.54,1.71-.51,3.52-.55,5.27-.16,1.98.44,3.24,2.04,3.38,4.06v9.57c.07.27.23.93.46.92l1.34-.08c-.02-.15.08.69.11,1.01.07.59-2.32.87-3.07.21-.34-.29-.53-1.08-.73-1.84-2.01,2.12-5.01,2.96-7.82,2.09ZM244.41,126.72c3.25.32,6.18-1.5,6.24-3.54l.1-3.26-3.86.73c-1.05.2-2.2.24-3.19.57-1.39.47-2.06,1.71-1.93,3.04.11,1.23,1.07,2.3,2.64,2.46Z"/>
    <path d="M230.64,126.77c2.21-.1,3.88-1.32,4.38-3.48l2.01-.09c-.66,3.28-3.27,5.04-6.51,5.06-2.95.02-5.57-1.35-6.61-4.23-.93-2.59-.93-5.48.1-8.01,1.2-2.93,3.85-4.57,6.99-4.32,4.52.36,6.26,4.13,6.22,8.63h-12.04c-.05,3.5,1.81,6.61,5.45,6.44ZM235.31,118.87c-.1-3.7-2.2-5.94-5.35-5.72-2.78.2-4.48,2.74-4.8,5.72h10.15Z"/>
    <path d="M282.79,127.73l-.02-10.78c0-.96-.38-2.28-1.11-2.9-1.4-1.19-3.46-1.17-5.06-.34-1.38.71-2.49,2.38-2.5,4.22l-.04,9.82-1.81-.02v-21.52s1.79-.04,1.79-.04l.08,8.01c1.97-2.15,4.06-2.87,6.59-2.33,2.37.51,3.87,2.41,3.87,4.88v10.98s-1.8.02-1.8.02Z"/>
    <path d="M176.66,114.11c-1.43-1.29-3.53-1.22-5.11-.4-1.38.71-2.49,2.38-2.5,4.22l-.05,9.84-1.8-.03v-15.54s1.78-.04,1.78-.04l.15,2.06c1.85-2.15,4.08-2.99,6.73-2.31,2.11.53,3.65,2.3,3.65,4.59l.03,11.24h-1.82s-.01-10.78-.01-10.78c0-.88-.34-2.19-1.05-2.84Z"/>
    <path d="M269.34,126.66v1.32s-2.57.22-2.57.22c-1.28.11-2.25-1.1-2.25-2.37l-.02-12.2h-2.19s-.02-1.46-.02-1.46h2.21s0-4.3,0-4.3h1.82s0,4.3,0,4.3h2.9s0,1.44,0,1.44l-2.89.02v11.93c.02.3.44,1.15.75,1.15l2.28-.05Z"/>
    <rect x="257.66" y="106.18" width="1.82" height="21.58"/>
    <rect x="160.99" y="112.17" width="1.82" height="15.59"/>
    <rect x="160.9" y="106.18" width="1.99" height="2.65"/>
  </g>
  <g>
    <path d="M162.15,30.65c-3.99,1.72-8.49,2.06-12.56.65-4.3-1.48-6.8-5.43-6.57-9.94h3.96c0,2.84,1.3,5.41,3.96,6.43,2.96,1.14,6.35.99,9.2-.27,2.05-.91,2.97-2.83,2.79-4.97-.15-1.71-1.01-3.15-2.72-3.59l-6.09-1.56c-4.43-1.14-9.84-1.51-10.09-7.61-.17-4.04,2.04-7.67,5.96-9.01s8-.99,11.59.77c3.08,1.51,4.62,4.38,4.52,8.02l-3.94.07c-.23-2.29-1.13-4.29-3.22-5.19-2.26-.98-4.79-1.04-7.19-.46-2.78.67-4.47,3.6-3.43,6.27.51,1.33,1.85,2,3.2,2.34l9.88,2.5c3.89.98,5.84,4.32,5.64,8.16-.17,3.33-1.65,5.97-4.89,7.37Z"/>
    <path d="M218.35,34.09l3.78-.02c.38,3.55,4.54,4.22,7.74,3.18,3.55-1.15,3.72-5.13,3.6-9.05-1.53,2.19-3.53,3.11-6.07,3.24-3.81.2-7.61-1.74-8.91-5.46-1.14-3.26-1.11-6.83-.2-10.14.68-2.46,2.27-4.57,4.46-5.81,3.68-2.09,8.28-1.28,10.86,2l.08-2.65,3.41.03v20.81c0,4.62-1.63,8.77-6.13,10.04-5.25,1.48-12.32.06-12.63-6.17ZM227.53,28.31c2.42-.14,4.28-1.41,5.21-3.56,1.19-2.78,1.25-6.06.26-8.93-.88-2.53-3.23-3.93-5.82-3.77-2.32.14-4.19,1.46-4.95,3.71-.93,2.74-1.04,5.83-.25,8.62.72,2.54,2.83,4.11,5.56,3.95Z"/>
    <path d="M310.46,34.09l3.78-.02c.38,3.55,4.54,4.22,7.74,3.18,3.55-1.15,3.72-5.13,3.6-9.05-1.53,2.19-3.53,3.11-6.07,3.24-3.81.2-7.61-1.74-8.91-5.46-1.14-3.26-1.11-6.83-.2-10.14.68-2.46,2.27-4.57,4.46-5.81,3.68-2.09,8.28-1.28,10.86,2l.08-2.65,3.41.03v20.81c0,4.62-1.63,8.77-6.13,10.04-5.25,1.48-12.32.06-12.63-6.17ZM319.64,28.31c2.42-.14,4.28-1.41,5.21-3.56,1.19-2.78,1.25-6.06.26-8.93-.88-2.53-3.23-3.93-5.82-3.77-2.32.14-4.19,1.46-4.95,3.71-.93,2.74-1.04,5.83-.25,8.62.72,2.54,2.83,4.11,5.56,3.95Z"/>
    <path d="M262.94,24.86c.37-3.65,3.22-5.55,6.57-5.99l6.57-.85c1.16-.15,1.68-1.08,1.73-2.16.08-1.65-.57-3.08-2.21-3.62-1.49-.5-3.22-.58-4.78-.26-2,.41-3.13,2.02-3.16,4.11l-3.55.03c-.18-3.22,1.48-5.81,4.53-6.79,5.44-1.75,12.75.03,12.78,4.61l.09,14.61c.58.51,1.47.53,2.42.37l.04,2.8c-1.32.47-2.85.65-4.2.11-1.23-.49-1.7-1.75-1.85-3.13-2.6,2.63-6.15,3.97-9.8,3.26-3.36-.65-5.56-3.61-5.2-7.11ZM277.67,23.71l.04-3.32-4.47,1.04-3.79.71c-1.77.33-2.68,1.97-2.62,3.6s1.35,2.96,3.11,3.21c3.38.49,7.66-1.51,7.71-5.24Z"/>
    <path d="M180.75,29.04c2.97.01,5.32-1.56,6.07-4.5l3.78-.07c-.9,4.46-4.35,7.27-8.77,7.68-4.9.45-9.31-2.27-10.66-7.11-1.53-5.49-.21-12.27,4.93-15.13,3.13-1.74,6.86-1.6,9.98.03,4.37,2.28,4.89,6.64,4.85,11.45h-16.28c.16,4.12,1.72,7.63,6.12,7.65ZM187.01,18.26c-.14-1.59-.49-3.38-1.71-4.72-1.7-1.88-4.64-2.24-7-1.17-2.14.96-3.49,3.32-3.57,5.88h12.28Z"/>
    <polygon points="260.92 31.37 256.18 31.45 249.19 20.12 246.15 23.1 246.15 31.45 242.52 31.43 242.52 .78 246.14 .77 246.15 18.57 255.62 9.2 260.42 9.2 251.99 17.41 260.92 31.37"/>
    <path d="M207.86,12.51c-1.87-1.21-4.35-.85-6.06.32-1.6,1.1-2.66,3.02-2.66,5.21l-.04,13.41h-3.77s0-22.28,0-22.28l3.58-.02.03,2.9c2.99-3.97,9.92-4.48,12.66-1.45,1.25,1.38,1.86,3.33,1.86,5.28l.05,15.58h-3.84s-.04-15.09-.04-15.09c0-1.37-.54-3.06-1.76-3.84Z"/>
    <path d="M299.98,12.51c-1.87-1.21-4.35-.85-6.06.32-1.6,1.1-2.66,3.02-2.66,5.21l-.04,13.41h-3.77s0-22.28,0-22.28l3.58-.02.03,2.9c2.99-3.97,9.92-4.48,12.66-1.45,1.25,1.38,1.86,3.33,1.86,5.28l.05,15.58h-3.84s-.04-15.09-.04-15.09c0-1.37-.54-3.06-1.76-3.84Z"/>
  </g>
</svg>