<?xml version="1.0" encoding="UTF-8"?>
<svg id="Layer_1" data-name="Layer 1" xmlns="http://www.w3.org/2000/svg" viewBox="0 0 520.02 114.34">
  <path d="M520.02,79.21v2.14c-1.09,3.97-6.37,4.43-10.32,2.59l.74-2.29c1.49.85,3.14,1.4,4.87,1.03,1.08-.23,1.82-1,1.9-1.95.07-.85-.39-1.87-1.25-2.28l-3.42-1.59c-1.55-.73-2.43-2.23-2.38-3.77s.87-3,2.41-3.77c2.17-1.08,4.81-.88,6.95.27l-.75,2.14c-1.28-.67-2.68-1.11-4.11-.8-.97.21-1.66,1.06-1.68,1.91s.53,1.6,1.35,1.97l2.99,1.33c1.38.62,2.29,1.73,2.71,3.06Z"/>
  <rect x="125.9" y="6.58" width="2.32" height="101.16"/>
  <path d="M198.53,84.68l-2.83.02-.09-10.39c0-1.16-.88-2.44-1.63-2.87-1.21-.69-2.5-.53-3.62.34-.82.63-1.65,1.95-1.65,3.08l-.03,9.84h-2.83s0-11.25,0-11.25l-.16-4.55h2.54s.28,2.5.28,2.5c1.2-2.06,3.16-2.96,5.53-2.74,1.84.18,3.18,1.54,3.9,3.1,1.47-3,5.2-4.1,7.97-2.27,1.4.93,2.35,2.76,2.37,4.5l.09,10.7h-2.85s0-8.88,0-8.88c0-.83-.19-1.87-.43-2.64-.55-1.8-2.45-2.63-4.15-1.91-1.41.59-2.4,2.03-2.4,3.6v9.81Z"/>
  <path d="M225.63,84.68l-2.83.02-.09-10.39c0-1.16-.88-2.44-1.63-2.87-1.21-.69-2.5-.53-3.62.34-.82.63-1.65,1.95-1.65,3.08l-.03,9.84h-2.83s0-11.25,0-11.25l-.16-4.55h2.54s.28,2.5.28,2.5c1.2-2.06,3.16-2.96,5.53-2.74,1.84.18,3.18,1.54,3.9,3.1,1.47-3,5.2-4.1,7.97-2.27,1.4.93,2.35,2.76,2.37,4.5l.09,10.7h-2.85s0-8.88,0-8.88c0-.83-.19-1.87-.43-2.64-.55-1.8-2.45-2.63-4.15-1.91-1.41.59-2.4,2.03-2.4,3.6v9.81Z"/>
  <polygon points="333.14 84.66 330.26 84.71 330.27 74.52 319.71 74.52 319.71 84.7 316.87 84.69 316.87 62.92 319.71 62.91 319.71 72.01 330.27 72.01 330.26 62.91 333.14 62.92 333.14 84.66"/>
  <path d="M398.89,84.7l-.05-9.55c0-1.44-.64-2.95-1.85-3.64s-2.61-.59-3.82.16c-.8.49-1.91,1.74-1.92,3.01l-.06,10.01h-2.87s0-22.98,0-22.98h2.87s.02,9.64.02,9.64c1.78-2.64,5.26-3.64,8.03-1.85,1.48.96,2.45,2.83,2.46,4.65l.06,10.53h-2.87Z"/>
  <path d="M151.67,70.71c-1.22,4.42,0,9.56,4.38,11.19,2.73,1.01,5.57.73,8.21-.26l.57,2.35c-2.24.88-4.48,1.02-6.75.94-6.01-.21-9.81-4.77-9.95-10.53-.17-6.54,4.4-11.79,11.16-11.76,1.87,0,3.76.15,5.63.93l-.73,2.41c-5.04-2.06-11.03-.65-12.52,4.73Z"/>
  <path d="M421.29,84.45c-3.04.94-6.11.57-8.99-.8l.75-2.52c3.55,2.16,8.81,2.01,9.47-1.47.29-1.52-.26-3.22-1.75-3.89l-3.15-1.43c-1.57-.71-3.15-1.58-4.1-3.06s-.99-3.31-.26-5.04c1.63-3.84,7.33-4.44,11.37-2.6l-.73,2.45c-1.89-.87-3.59-1.29-5.46-.91-1.48.3-2.55,1.33-2.73,2.73-.16,1.31.56,2.74,1.91,3.36l4.24,1.94c2.47,1.13,3.8,3.26,3.65,5.86-.14,2.36-1.61,4.57-4.23,5.38Z"/>
  <path d="M174.22,84.98c-3.72,0-6.57-2.27-7.33-5.8-.31-1.43-.31-3.11-.01-4.55.77-3.75,3.95-6.06,7.7-6.01,3.4.05,6.27,2.01,7.17,5.36.38,1.41.45,2.99.23,4.47-.57,3.86-3.73,6.54-7.75,6.53ZM178.17,80.49c1.32-2.31,1.26-5.07.07-7.33-.8-1.51-2.24-2.35-3.79-2.35s-2.99.66-3.84,2.06c-1.39,2.27-1.44,5.23-.17,7.56.81,1.48,2.26,2.33,3.79,2.36s3.07-.76,3.94-2.3Z"/>
  <path d="M349.26,81.96l.53,2.1c-1.95.72-3.81.91-5.85.88-4.13-.08-7.09-3.09-7.21-7.19-.14-5.04,2.44-9.1,7.45-9.13,2.49-.01,4.61,1.19,5.67,3.49.77,1.66.92,3.49.74,5.34h-11.02c-.09,2.39,1.29,4.39,3.48,5.06,2.07.39,3.87.29,6.21-.55ZM347.9,75.36c-.05-1.6-.44-2.63-1.26-3.68-1.64-1.36-4.14-1.36-5.63.28-.84.93-1.26,2.14-1.49,3.4h8.38Z"/>
  <path d="M505.91,81.96l.53,2.1c-1.95.72-3.81.91-5.85.88-4.13-.08-7.09-3.09-7.21-7.19-.14-5.04,2.44-9.1,7.45-9.13,2.49-.01,4.61,1.19,5.67,3.49.77,1.66.92,3.49.74,5.34h-11.02c-.09,2.39,1.29,4.39,3.48,5.06,2.07.39,3.87.29,6.21-.55ZM504.55,75.36c-.05-1.6-.44-2.63-1.26-3.68-1.64-1.36-4.14-1.36-5.63.28-.84.93-1.26,2.14-1.49,3.4h8.38Z"/>
  <path d="M440.66,81.96l.53,2.1c-1.95.72-3.81.91-5.85.88-4.13-.08-7.09-3.09-7.21-7.19-.14-5.04,2.44-9.1,7.45-9.13,2.49-.01,4.61,1.19,5.67,3.49.77,1.66.92,3.49.74,5.34h-11.02c-.09,2.39,1.29,4.39,3.48,5.06,2.07.39,3.87.29,6.21-.55ZM439.3,75.36c-.05-1.6-.44-2.63-1.26-3.68-1.64-1.36-4.14-1.36-5.63.28-.84.93-1.26,2.14-1.49,3.4h8.38Z"/>
  <path d="M307.27,68.95l-5.25,13.67c-1.56,4.06-3.72,8.13-7.94,9.24l-.79-2.48c2.51-.93,4.36-2.77,5.19-5.37l-6.04-15.08h3.22s2.54,6.85,2.54,6.85l1.88,5.43,4.08-12.28,3.12.03Z"/>
  <path d="M362.6,82.71c-2.05,2.74-6.5,2.99-8.47.76-.94-1.06-1.21-2.36-1.04-3.81.48-3.95,5.27-5.17,9.3-5.02.27-1.95-.85-3.69-2.89-3.84-1.63-.12-3.17.31-4.69,1.13l-.66-1.91c1.73-1.12,3.6-1.39,5.62-1.4,3.21-.01,5.42,2.27,5.49,5.56l.23,10.49-2.53.02-.36-2ZM362.5,79.37l.03-2.75c-2.74-.08-6.06.45-6.53,2.78-.22,1.1.01,2.26.89,2.89,1.1.79,2.49.67,3.7.04.89-.46,1.89-1.6,1.91-2.96Z"/>
  <path d="M253.26,68.91l.12,15.8h-2.55s-.27-2.46-.27-2.46c-1.91,2.8-5.89,3.73-8.67,1.59-1.25-.96-1.99-2.81-2-4.4l-.07-10.54h2.88s.06,9.53.06,9.53c0,1.26.53,2.78,1.5,3.49,1.29.94,2.85.75,4.13,0,1.1-.64,1.99-1.94,1.99-3.44v-9.58s2.88,0,2.88,0Z"/>
  <path d="M260.75,74.79l-.06,9.91h-2.87s0-9.57,0-9.57l-.16-6.23h2.59s.24,2.49.24,2.49c1.31-2,3.32-2.92,5.77-2.73,2.6.2,4.84,2.34,4.87,5.12l.11,10.92h-2.87s-.06-9.76-.06-9.76c0-1.27-.66-2.69-1.68-3.33-1.21-.76-2.56-.72-3.84-.02-.86.47-2.05,1.75-2.06,3.2Z"/>
  <polygon points="467.05 68.95 470.17 68.9 463.99 84.72 461.18 84.71 455.2 68.91 458.38 68.91 462.72 81.64 467.05 68.95"/>
  <path d="M485.99,82.41c1.77.47,3.42.18,5.11-.57l.5,2.28c-1.51.61-3.07.82-4.66.85-4.57.1-7.63-3.27-7.76-7.69-.14-4.83,3.25-8.69,8.24-8.64,1.45.01,2.85.25,4.27.74l-.68,2.35c-2.18-1.03-4.87-1.16-6.84.42-1.76,1.41-2.25,3.76-1.91,5.92s1.6,3.78,3.74,4.35Z"/>
  <path d="M290.65,82.35l.19,2.3-2.82.31c-2.09.23-3.92-1.52-3.94-3.73l-.08-10.09-2.41-.08v-2.16s2.42,0,2.42,0v-3.8s2.84-.74,2.84-.74v4.54s4.11,0,4.11,0v2.2s-4.13,0-4.13,0l.03,9.03c0,.61.37,1.72.81,2.03.88.62,1.8.49,2.98.2Z"/>
  <path d="M384.69,82.35l.19,2.3-2.82.31c-2.09.23-3.92-1.52-3.94-3.73l-.08-10.09-2.41-.08v-2.16s2.42,0,2.42,0v-3.8s2.84-.74,2.84-.74v4.54s4.11,0,4.11,0v2.2s-4.13,0-4.13,0l.03,9.03c0,.61.37,1.72.81,2.03.88.62,1.8.49,2.98.2Z"/>
  <rect x="369.85" y="61.71" width="2.88" height="22.99"/>
  <path d="M448.49,84.69h-2.84s-.14-15.78-.14-15.78h2.51s.13,3.17.13,3.17c.92-2.34,2.74-3.77,5.31-3.4v2.81c-1.89-.33-3.57.33-4.36,2.1-.33.74-.62,1.85-.62,2.69v8.4Z"/>
  <rect x="472.76" y="68.9" width="2.88" height="15.81"/>
  <rect x="275.81" y="68.9" width="2.88" height="15.81"/>
  <circle cx="474.11" cy="64.68" r="1.82"/>
  <circle cx="277.16" cy="64.68" r="1.82"/>
  <g>
    <path d="M422.59,41.87l3.63,3.77h-3.52s-2.05-2.12-2.05-2.12c-2.53,2.36-6.23,3.06-9.45,1.83-2.67-1.02-4-3.62-3.66-6.41.29-2.38,1.93-4.16,4.17-5.34-.85-1.25-1.65-2.65-1.76-4.19-.24-3.45,2.38-5.9,5.72-5.83,2.58.06,4.7,1.69,4.81,4.37.13,3.19-2.1,4.73-4.85,6.13l5.35,6.02c1.19-2.02,1.71-3.98,2.07-6.31l2.69-.03c-.48,2.92-1.22,5.7-3.13,8.11ZM414.29,32.57l2.53-1.8c1.43-1.01,1.54-3.22.28-4.51-.73-.75-1.97-.83-2.92-.42-.8.34-1.5,1.34-1.6,2.35-.16,1.73.5,3.07,1.71,4.39ZM414.48,43.74c1.82.07,3.69-.64,4.78-1.95l-6.14-6.68c-2.56,1.41-3.62,4.07-2.26,6.52.64,1.15,1.98,2.05,3.62,2.12Z"/>
    <path d="M248.85,51.21l.65-2.29c2.17,1.06,4.36,1.52,6.69.88,2.66-.74,3.32-3.62,3.03-6.6-1.25,1.79-3.08,2.54-5.28,2.48-2.72-.08-4.95-1.81-5.9-4.43-1.79-4.95.61-11.16,5.89-11.61,2.2-.19,4.21.44,5.52,2.43l.23-2.22,2.58.02-.16,3.11-.12,12.75c-.03,3.11-2.04,5.6-4.98,6.29-2.75.65-5.36.5-8.17-.81ZM259.23,39.34l.03-3.26c.02-1.95-1.3-3.6-3.01-4.06s-3.74.14-4.79,1.82c-1.35,2.15-1.43,4.97-.34,7.26.88,1.86,2.83,2.71,4.78,2.31,1.74-.36,3.31-1.93,3.33-4.06Z"/>
    <path d="M196.97,36.52l-4.45-.03v-2.32s7.25,0,7.25,0v10.57c-5.38,1.84-12.04,1.97-15.73-2.53-1.71-2.2-2.28-4.79-2.29-7.57,0-4.97,3.07-9.25,7.93-10.53,3.12-.82,6.35-.67,9.46.43l-.65,2.44c-5.23-2.09-11.67-.83-13.24,4.69-.65,2.28-.59,4.67.24,6.91,1.69,4.56,6.7,5.78,11.46,4.46l.02-6.53Z"/>
    <polygon points="306.28 45.62 303.4 45.67 303.4 35.48 292.84 35.48 292.84 45.66 290 45.65 290 23.89 292.84 23.87 292.84 32.97 303.4 32.97 303.4 23.87 306.28 23.88 306.28 45.62"/>
    <path d="M344.61,52.12h-2.83s-.02-16.5-.02-16.5l-.16-5.76h2.62s.23,2.53.23,2.53c1.63-2.17,3.77-3.05,6.49-2.72,4.95.6,6.96,6.96,4.98,11.92-1.15,2.89-3.9,4.55-6.96,4.32-1.8-.13-3.14-.82-4.34-2.28l-.02,8.5ZM353.25,40.7c.71-1.94.71-3.94.03-5.78-.71-1.93-2.4-3.16-4.42-3.01-1.73.13-3.45,1.3-4,3.2-.32,1.09-.24,2.4-.29,3.6-.08,2.38,1.22,4.37,3.51,4.86,2.09.45,4.32-.58,5.16-2.88Z"/>
    <path d="M157.41,45.42c-3.04.94-6.11.57-8.99-.8l.75-2.52c3.55,2.16,8.81,2.01,9.47-1.47.29-1.52-.26-3.22-1.75-3.89l-3.15-1.43c-1.57-.71-3.15-1.58-4.1-3.06s-.99-3.31-.26-5.04c1.63-3.84,7.33-4.44,11.37-2.6l-.73,2.45c-1.89-.87-3.59-1.29-5.46-.91-1.48.3-2.55,1.33-2.73,2.73-.16,1.31.56,2.74,1.91,3.36l4.24,1.94c2.47,1.13,3.8,3.26,3.65,5.86-.14,2.36-1.61,4.57-4.23,5.38Z"/>
    <path d="M317.44,45.94c-3.72,0-6.57-2.27-7.33-5.8-.31-1.43-.31-3.11-.01-4.55.77-3.75,3.95-6.06,7.7-6.01,3.4.05,6.27,2.01,7.17,5.36.38,1.41.45,2.99.23,4.47-.57,3.86-3.73,6.54-7.75,6.53ZM321.38,41.45c1.32-2.31,1.26-5.07.07-7.33-.8-1.51-2.24-2.35-3.79-2.35s-2.99.66-3.84,2.06c-1.39,2.27-1.44,5.23-.17,7.56.81,1.48,2.26,2.33,3.79,2.36s3.07-.76,3.94-2.3Z"/>
    <path d="M226.76,45.94c-3.72,0-6.57-2.27-7.33-5.8-.31-1.43-.31-3.11-.01-4.55.77-3.75,3.95-6.06,7.7-6.01,3.4.05,6.27,2.01,7.17,5.36.38,1.41.45,2.99.23,4.47-.57,3.86-3.73,6.54-7.75,6.53ZM230.71,41.45c1.32-2.31,1.26-5.07.07-7.33-.8-1.51-2.24-2.35-3.79-2.35s-2.99.66-3.84,2.06c-1.39,2.27-1.44,5.23-.17,7.56.81,1.48,2.26,2.33,3.79,2.36s3.07-.76,3.94-2.3Z"/>
    <path d="M215.4,42.92l.53,2.1c-1.95.72-3.81.91-5.85.88-4.12-.08-7.09-3.09-7.21-7.19-.14-5.06,2.44-9.11,7.44-9.13,2.48-.01,4.61,1.19,5.67,3.49.77,1.66.92,3.49.74,5.34h-11.02c-.09,2.39,1.29,4.39,3.48,5.06,2.07.39,3.87.29,6.21-.55ZM214.04,36.32c-.05-1.6-.44-2.63-1.26-3.68-1.64-1.36-4.14-1.36-5.63.28-.84.93-1.26,2.14-1.49,3.4h8.38Z"/>
    <path d="M278.01,42.92l.53,2.1c-1.95.72-3.81.91-5.85.88-4.13-.08-7.09-3.09-7.21-7.19-.14-5.04,2.44-9.1,7.45-9.13,2.49-.01,4.61,1.19,5.67,3.49.77,1.66.92,3.49.74,5.34h-11.02c-.09,2.39,1.29,4.39,3.48,5.06,2.07.39,3.87.29,6.21-.55ZM276.65,36.32c-.05-1.6-.44-2.63-1.26-3.68-1.64-1.36-4.14-1.36-5.63.28-.84.93-1.26,2.14-1.49,3.4h8.38Z"/>
    <path d="M387.07,43.67c-2.05,2.74-6.5,2.99-8.47.76-.94-1.06-1.21-2.36-1.04-3.81.48-3.95,5.27-5.17,9.3-5.02.27-1.95-.85-3.69-2.89-3.84-1.63-.12-3.17.31-4.69,1.13l-.66-1.91c1.73-1.12,3.6-1.39,5.62-1.4,3.21-.01,5.42,2.27,5.49,5.56l.23,10.49-2.53.02-.36-2ZM386.97,40.34l.03-2.75c-2.74-.08-6.06.45-6.53,2.78-.22,1.1.01,2.26.89,2.89,1.1.79,2.49.67,3.7.04.89-.46,1.89-1.6,1.91-2.96Z"/>
    <path d="M375.09,43.31l.19,2.3-2.82.31c-2.09.23-3.92-1.52-3.94-3.73l-.08-10.09-2.41-.08v-2.16s2.42,0,2.42,0v-3.8s2.84-.74,2.84-.74v4.54s4.11,0,4.11,0v2.2s-4.13,0-4.13,0l.03,9.03c0,.61.37,1.72.81,2.03.88.62,1.8.49,2.98.2Z"/>
    <path d="M172.63,43.31l.19,2.3-2.82.31c-2.09.23-3.92-1.52-3.94-3.73l-.08-10.09-2.41-.08v-2.16s2.42,0,2.42,0v-3.8s2.84-.74,2.84-.74v4.54s4.11,0,4.11,0v2.2s-4.13,0-4.13,0l.03,9.03c0,.61.37,1.72.81,2.03.88.62,1.8.49,2.98.2Z"/>
    <path d="M334.85,45.57c-2.41.66-4.77.39-6.99-.66l.75-2.3c2.63,1.7,6.33,1.56,6.72-.68.17-.98-.27-2.06-1.23-2.51l-3.41-1.59c-1.56-.73-2.43-2.23-2.38-3.77s.88-3,2.4-3.77c2.14-1.07,4.65-.89,6.93.22l-.72,2.19c-1.31-.67-2.67-1.11-4.14-.8-.85.18-1.56,1-1.65,1.66-.13,1,.42,1.8,1.34,2.22l2.96,1.33c1.87.84,2.84,2.43,2.76,4.36s-1.26,3.53-3.36,4.1Z"/>
    <rect x="394.32" y="22.67" width="2.88" height="22.99"/>
    <path d="M241.23,45.65h-2.84s-.14-15.78-.14-15.78h2.51s.13,3.17.13,3.17c.92-2.34,2.74-3.77,5.31-3.4v2.81c-1.89-.33-3.57.33-4.36,2.1-.33.74-.62,1.85-.62,2.69v8.4Z"/>
    <rect x="360.25" y="29.86" width="2.88" height="15.81"/>
    <circle cx="361.61" cy="25.64" r="1.82"/>
  </g>
  <g>
    <path d="M59.92,0l2.19.15c27.35,1.89,50.35,24.83,52.37,52.49,1.17,16.07-3.98,31.17-14.8,43.02-9.64,10.55-22.8,17.47-37.09,18.48l-2.71.19-5.64-.03c-4.62-.29-9.02-.99-13.46-2.34C21.03,105.94,5.92,89.73,1.37,69.62c-2.17-9.59-1.76-20.26,1.27-29.62C8.06,23.22,20.71,9.88,37.22,3.59,42.9,1.43,48.71.3,54.64,0h5.27ZM87.11,26.41c7.92,7.67,12.69,17.97,13.09,29.09l12.66.06C111.97,25.45,87.15,1.74,57.38,1.71S2.64,25.46,1.79,55.57l12.66-.06c.37-10.55,4.71-20.37,11.87-27.88,16.41-17.2,43.63-17.81,60.78-1.21ZM98.48,57.17c0-22.69-18.43-41.09-41.16-41.09S16.17,34.48,16.17,57.17s18.43,41.09,41.16,41.09,41.16-18.4,41.16-41.09ZM100.23,57.35c0,11.99-5.11,23.07-13.67,31.11-15.83,14.87-40.51,15.45-57,1.31-9.45-8.11-15.09-19.74-15.16-32.43H1.78c.04,13.78,5.17,26.92,14.38,37,13.59,14.87,32.99,20.92,52.18,17.17,25.74-5.03,44.68-28.3,44.5-54.17h-12.62Z"/>
    <path d="M64.79,28.88l-1.58,1.39c-1.56,1.36.64,2.41,2.89,4.16l3-5.93c1.45-2.1,2.58-3.98,3.43-6.46.62,1.43.73,2.55.76,4.12l5.13,2.7c1.92,1.01,3.62,2.14,5.2,3.47-.44,1.62-.79,2.91-1.79,4.13l-2.46.44c-1.08.19-1.99,1.17-2.88,1.91-.33,4.5-.58,9.64,1.2,13.94,3.14-.82,5.63-2.99,8.58-3.52,3.76,2.12,9.19,4.62,9.48,8.96-.45,1.11-2.9,1.78-3.79.8l-2.3-2.56c-1.07-1.19-3.11-1.94-4.65-1.21-1.78.84-3.2,2.27-4.63,3.6,5.81,1.02,11.82,1.76,11.39,8.18-1,.61-2.3.98-3.38.94l-.93-2.6c-.37-1.03-1.56-1.57-2.61-1.42-6.06.83-10.39-1.95-14.17.99l.44,3.57c.21,1.69.9,3.19,2.5,4.13l.33-2.83c.09-.79.65-1.66,1.53-1.78,2.5,2.4,2.74,6.88,4.6,10.33,1.82.32,4.04-1.83,3.6-3.63-2.02-2.19-4.13-4.08-5.13-7.02.77-.87,1.78-1.52,3.06-2.07,2.84,2.93,6.13,4.9,10.06,6.42l-3.15,2.49c-1.06,6.39-6.22,7.46-8.97,10.87-1.58,1.96-3.26,6.34-6.25,6.65l-11.23,1.13c-1.11.11-2.28-.11-3.12-.77l-3-2.33c-.37-.29-1.49.05-1.94.23-1.22.49-2.55-.16-3.72-.53l-5.27,2.1c-1.73.69-3.53.77-5.42.69-.55-2.39,2.21-4.05,4.31-5.83-1.37-.64-2.78-.92-4.45-1.09l.29-6.71c.23-5.21-.57-4.44-3.37-7.87-3.14-3.85-2.05-5.6-5.77-6.02-1.65-.19-3.22.18-3.68,2.16-.37,1.62-.18,3.54.09,5.29.35,2.29.63,5.83-.25,6.36s-2.58-.65-3.52-1.87c-4.12-5.33-5.6-14.15.3-16.59,4.19-1.73,5.61.73,10.01,1.21.69-1.18,1.16-2.17,1.91-3.25.89-1.29,2.6-2.32,4.12-2.74l7.86-2.16c-.18-2.93.23-5.52.91-8.25l-3.1.15c-3.64.18-7.84.36-7.57,4.14l.25,3.53c-.87.15-1.42-.12-2.24-.43l-3.02-1.14c-.97-.37-.91-2.51-1.45-2.98-.9-.79-3.5.71-5.64-1.23-2.86-2.6-1.04-7.35,1.23-10.64,1.41-1,2.27-2.27,2.75-3.97,2.63-3.48,6.16-6.25,10.37-7.56,1.16-.36,2.29-.65,3.31-1.25,2.92-1.73,6.15-.37,8.5,1.92,1.23,1.2,2.72,2,4.44,1.91l1.07-1.39-2.26-1.59-2.26-1.74c2.45-2.15,5.37-1.07,8.37-1.73,1.97-.43,4.59.32,5.12,2.52.42,1.73-.63,3.61-1.36,4.97l-.11.19ZM65.44,24.09c-.18-1.26-.97-1.72-1.94-1.88-1.73-.16-3.41.46-4.17,2.19l6.11-.31ZM57.75,24.69l.43-1.52c-.97-.56-1.97-1.05-3.16-.47.66.99,1.58,1.56,2.73,1.98ZM26.93,39.23c-.16.98-.28,1.93.42,2.62.51.51,1.23.78,2.28,1.26-1.33.4-2.43.19-3.95-.14-.42.52-.38,1.79-.04,2.43.9,1.71,3.25,1.8,5.26,1.4l-.51-2.15,2.06,1.45c.43.3,1.41.42,1.92.18l3.68-8.08c1.04-2.28,2.93-3.78,4.97-5.11,2.92-1.89,5.61-3.7,8.45-5.81-2.28-2.36-4.94-3.77-7.41-2.07,1.4.98,2.87,1.48,4.04,2.88-4.2-1.32-8.01-3.34-11.69-.36-.37.3-.73,1.43-.3,1.57,1.92.66,3.52,1.15,5.21,2.09-1.61.24-2.73-.51-4.13-.87-2.34-.6-6.69.83-6.57,3.59l5.02,1.44-5.39.35c-1.89.12-3,1.48-3.31,3.33ZM64.77,28.47l.49-2.64c-2.14-.66-4.14-.72-6.06.2-1.57.75-2.58,2.38-2.24,4.13.53.49,1.66.9,2.23.82l.95-1.18c1.68.06,3.14-.45,4.42-1.21l.22-.13ZM73.28,39.47c.83-.46,1.5-1.41.9-2.41l-1.73-2.84c-.07-.12,0-.74.12-.69l.47.19c1.21,1.37,2.88,1.88,4.66,1.44l2.25-.56c.1.48.24,1.09.49,1.21s.74-.24,1.07-.48c.85-.65,1.5-2.47.32-3.16l-7.78-4.48c-1.01-.58-3.28-.04-3.4,1.25-.16,1.63.53,3.11.75,4.82l-2.05-1.4.65,4.25-1.46-1.12.06,3.09-1.31-.87c-1.03,1.56-1.61,3.17-1.61,5.05,1.49-.13,2.73-.58,3.97-1.27l3.64-2.02ZM60.54,32.08c-1.03-.03-2.58.23-3.22-.29-2.55-2.08-3.56-4.65-5.34-2.53,2.39,2.53,7.35,5.79,8.57,2.81ZM68.36,70.15c.61.96.77,2.02.66,3.07,0,.65.15,1.39.51,1.92l5.99.64c-.11-.49-.26-.82-.42-.93l-3.74-2.59c-1.8-4.31-2.66-11.6-4.92-14.46-1.52-1.92-3.38-3.45-5.06-5.24s-3.3-3.3-4.95-4.8l1.53-.9c-.41-4.02,3.27-5.53,4.52-9.23.58,1.01,1.22,1.81,2.19,2.19,1.29-1.1,1.39-2.88.46-4.2-.68-.96-1.61-1.74-2.62-2.51l-1.43.76c-1.35,1.01-2.7,1.13-4.22.42-.35-.16-1.12-.46-1.38-.73-1.16-1.2-2.39-2.47-4.03-2.91-1.8-.48-3.6.22-5.07,1.3-2,1.47-4.19,2.65-6.07,4.21-2.6,2.16-3.22,8.87-7.1,12.15-.49.42-.5,1.39-.25,2.07.23.62.95,1.11,1.74,1.04-.02-.41-.11-1.37.21-1.5l1.2-.48,1.84-4.35,3.53-7.49c2.59-1.34,5.05-2.44,7.97-2.96l.13,2.09c.44.37,1.59.8,2.34,1.06l-.34.63c-.07.13.16.35.42.7l-1.46.86c-.2.12-.25.74-.03.71l2.15-.27c-.37,1-1.26,1.65-2.2,2.07-.71,2.26-1.43,4.41-1.84,6.78-.25,1.44.17,3.68,1.57,4.38,4.68,2.35,9.38,4.13,14.28,6.23.46,3.72,1.84,7.02,3.88,10.27ZM43.11,44.48l5.51-1.04-.27-6.71c-3.49.8-6.34.64-7.22,4.01l-1.42,3.97c1.19-.03,2.31-.04,3.39-.24ZM64.12,41.27l-1.65-1.26-.77,1.87,2.42-.6ZM73.03,61.07c3.1,1.9,6.59,2.4,10.17,1.66,3.78-.79,4.58,1.98,6.42,1.22-2.27-4.68-6.74-3.26-11.24-4.45-2.08-.55-3.85-1.84-5.7-2.8l.29-1.27,2.38,1.25c.76-2.5.79-4.82.48-7.25l-1.15-8.97c-3.54,1.02-5.43,3.28-9.09,4.62-1.77.65-2.7,1.85-3.62,3.39-.52.87-.93,1.56-.24,2.57,2.44,3.56,6.07,6.19,6.65,7.9l1.3,3.83c.32.16,1.43-.19,1.46-.59.11-1.24-1.96-1.69-1.35-3.09l3.23,1.97ZM61.72,46.6c.18-.89.05-1.95-.18-2.86-.64-.17-1.69-.05-2.26.39l-.09,4.03c1.26.33,2.27-.27,2.53-1.56ZM84.37,54.43c1.5-1.09,3.31-.78,4.64.25,1.24.96,2.69,1.37,4.25.7-1.78-2.84-4.77-4.03-8.19-4.71l-5.29,2.39c-1.64.74-3.02,2.28-3.05,4.14,0,.46.94,1.05,1.39,1.11s1.29-.27,1.74-.6l4.51-3.27ZM41.2,73.82l.14,3.44-.14,6.87c3.53,1.4,6.74,2.59,10.26,3.7l-.55-1.09-6.67-3.74c-.29-2.96-.21-7.61,1.6-9.46l4.75-4.86c1.08-1.11,1.49-2.83,2.27-4.13l.07,3.41c4-.27,7.6-.72,11.37-2.19l-.71-4.9-13.84-5.58c-5.99-.16-13.28.93-14.41,7.3-1.03.27-2.15.32-3.13,0l-4.19-1.37c-2.32-.76-5.27.2-6.57,2.33-2.83,4.64,3.46,14.7,4.43,13.89.92-.77.19-5-.68-7.15-.92-2.27-2.04-4.62-.64-6.11,1.67-1.78,7.05-.31,10.26.52.71,2.11,1.28,4.25,2.74,5.92,1.03,1.17,2.36,2.1,3.62,3.22ZM94.78,57.74c-.76-.82-1.74-.83-2.29-.34,0,.49.69,1.12,1.1,1.03s1.02-.44,1.18-.69ZM27.09,64.45c-1.08.01-1.76.38-1.98.97-.25.67-.16,1.37.37,2.18l1.6-3.15ZM62.71,73.75l8.47,7.95c1.5-.58,2.79-1.21,4.08-1.96-.09-1.13-.5-2.29-1.19-2.85-1.93-1.55-5.15.16-6.15-2.26,0-2.33-.28-4.31-1.84-6.2-.36-.44-.84-1.02-1.54-.88l-6.94,1.44c-1.08.22-1.77,1.2-1.88,2.25l-.67,6.69c2.76,1.56,5.5,2.68,8.5,2.61l-2.17-4.74c-.15-.33-.04-1.24.16-1.5s.76-.5,1.15-.55ZM60.32,91.7c1.91.8,4.32.81,6.15-.56l-3.69-.47c-.67-.09-1.64-.47-2.08-.93l-2.49-2.57c.4-.24,1.15-.31,1.42-.08l2.24,1.93c1.94,1.68,3.86-.28,6.32,2.09,3.98.17,6.79-.23,8.82-3.7,1.72-2.92,3.86-5.16,6.67-6.97,2.06-1.33,3.31-3.33,3.64-5.72l1.76-2.72-7.12-4.36c-.47,0-1.21.58-1.42,1.06.82,2.48,2.5,4.4,4.83,5.82-.61,1.86-1.84,3.43-3.33,4.77l-6.82,1.8c-.84.22-1.8.76-2.43,1.43-.34.37-.14,1.49-.04,2.02-2.71-.59-3.21-3.46-6.06-5.43-1.37-.95-2.73-2.66-3.5-4.01-.12-.22-.86-.26-.86-.05v1.02s4.52,6.99,4.52,6.99c.5,1.17.82,2.22.29,3.59l-1.44-2.26-4.07.69-3.01-1.19c-2.41-.96-4.87-.26-6.9,1.42,1.99,1.87,6.69,5.62,8.6,6.42ZM76.71,79.18l2.24-.12c-.35-3.67-1.63-6.85-3.61-9.72-1.19,2.73.39,4.1,1.42,6.23-.51,1.17-.46,2.46-.05,3.61ZM57.96,82.03c.72.21,1.51.05,2.12-.47-2.35-1.22-4.32-2.06-6.74-3.04.4-3.08.95-5.9,1.54-8.93l-3.21-.03c-2.13,2.58-1.24,6.24-1.13,9.85.94.48,1.87,1.01,2.8,1.28l4.63,1.34ZM53.59,82.66c-1.36-.89-2.79-1.39-4.43-1.94l-.54-7.23c-2.18-.44-2.95,2.59-3.1,5.18l-.17,2.97c2.66,2.44,4.66,2.98,8.24,1.01ZM64.5,82.93c-.4-.85-1.07-1.13-1.83-1.12-.47,0-1.04.57-1.3,1.16.82.95,2.23,1.17,3.13-.04ZM48.99,88.59c-3.16-1.98-6.18-.5-8.06,2.55,2.81.66,5.66-.98,8.06-2.55ZM53.49,89.31c.24-.07.74-.6.56-.78-.15-.14-.61-.4-.81-.43s-.86.35-.77.54l.29.65c.07.16.49.09.73.01Z"/>
    <path d="M22.99,89.07c0,1.99-1.61,3.6-3.6,3.6s-3.6-1.61-3.6-3.6,1.61-3.6,3.6-3.6,3.6,1.61,3.6,3.6ZM20.81,90.33c.81-.83.77-1.92.19-2.61-.7-.82-1.79-.81-2.67-.22-1.05.71-1.32,2.08-.42,3.05.68.73,2.01.68,2.9-.23Z"/>
    <path d="M42.35,107.8l-.49-2.46c-.07-.34-1.04-.66-1.31-.59l-.76,2.22-1.57-.51,2.09-6.46,3.74,1.28c.75.26,1.27,1.27,1.19,1.93-.12.91-.68,1.78-1.76,1.9l.75,3.18-1.89-.5ZM42.65,103.89c.28.07.84-.2.94-.42.08-.18,0-.81-.2-.88l-1.93-.72-.51,1.62,1.7.41Z"/>
    <path d="M85.44,100.17l-3.19,1.97c.12.41.33,1.06.18,1.28-.17.26-.7.47-1.35.72l-.57-7.27c.08-.4.96-.93,1.38-.89l6.4,4.03-1.63.93-1.22-.78ZM84.29,99.39l-2.24-1.41.22,2.71,2.03-1.29Z"/>
    <path d="M14.9,76.14l-4.51,1.54c-1.68.58-3.39-1.43-3.43-3.5-.02-1.21.68-2.1,1.78-2.48l4.08-1.41.57,1.58c-1.53.54-2.99.98-4.52,1.7-.84.39-.14,2.7.88,2.52,1.6-.29,3.03-.9,4.52-1.41l.62,1.46Z"/>
    <path d="M28.27,93.09l1.26.88-3.18,3.66c-.92,1.07-2.35.77-3.38-.04-.84-.66-2.24-2-1.56-3.24.84-1.54,2.11-2.79,3.26-4.3l1.32.99-2.96,3.63c-.29.35.15,1.31.47,1.59s1.4.64,1.7.3l3.07-3.49Z"/>
    <path d="M91.48,88.07l1.04-1.28,3.72,2.92c.32.25,1.29-.27,1.54-.58.28-.35.62-1.37.27-1.66l-3.64-3.04,1.02-1.21c1.36,1.27,2.88,2.29,4.03,3.66.94,1.11-.27,2.86-1.02,3.63-1.12,1.14-2.42,1.21-3.58.27l-3.37-2.71Z"/>
    <path d="M50.15,106.53l-2.32-.31c-.29.15-.45,1.03-.36,1.4l3.01.47-.26,1.38-4.7-.74,1.06-6.72,4.5.69-.07,1.39-3.03-.43-.09,1.14,2.43.34-.17,1.39Z"/>
    <path d="M56.95,108.91c-.78,1.44-3.06,1.3-5.1.59l-.08-1.78c1.7,1.1,3.74,1.2,3.92.33.04-.19-.31-.61-.51-.69l-1.92-.68c-.79-.28-1.3-1.02-1.3-1.72,0-.83.47-1.66,1.4-1.9,1.11-.29,2.24-.17,3.45.12l.03,1.61c-1.13-.46-2.26-.78-3.27-.24-1.15.61,2.22,1.03,3.43,2.27.45.46.26,1.54-.05,2.1Z"/>
    <polygon points="70.63 105.17 70.94 106.61 73.97 105.68 74.29 107.03 69.82 108.45 67.75 102 72.08 100.57 72.52 101.89 69.75 102.78 70.09 103.9 72.51 103.13 72.99 104.42 70.63 105.17"/>
    <path d="M91.72,97.13l-1.47-1.26c1.71-.33,3.16-1.26,2.87-2.52-.04-.18-.57-.24-.74-.17l-2.78,1.25c-1,.45-2.17-1.23-1.94-2.13.36-1.46,1.48-2.32,2.73-3.09l1.28,1.08c-1.36.53-2.64.99-2.49,2.7l3.46-1.52c.59-.26,1.58.61,1.84,1.1.89,1.73-.69,3.21-2.75,4.57Z"/>
    <path d="M16.31,84.59c.24.96-.7,1.75-1.25,1.94-1.79.65-3.47-1.39-3.91-3.67l1.21-1.01c.3,1.72.94,3.44,2.07,3.29.23-.03.4-.63.33-.85l-.58-1.84c-.28-.9.05-1.85.76-2.28.78-.47,1.89-.37,2.57.41s1.13,1.68,1.6,2.65l-1.33.95c-.3-1.44-.87-2.8-1.89-2.86-.14,0-.3.42-.26.56l.67,2.7Z"/>
    <path d="M64.15,107.84c1.42.56,2.55-.16,3.67-.86l.1,1.77c-1.34.54-2.74.94-4.17.62s-2.28-1.66-2.49-2.95c-.23-1.36.31-2.88,1.7-3.59,1.13-.58,2.33-.56,3.77-.54l.32,1.62c-1.37-.21-2.38-.44-3.35.18-1.24.8-1,3.17.45,3.75Z"/>
    <polygon points="104.2 75.02 103.18 77.36 105.73 78.48 105.02 80 98.78 77.32 100.57 73.14 101.97 73.59 100.72 76.32 101.9 76.86 102.89 74.55 104.2 75.02"/>
    <polygon points="32.59 99.22 31.92 100.44 29.75 99.08 28.21 101.46 26.92 100.48 30.49 94.77 34.46 97.25 33.61 98.43 31.2 96.88 30.39 97.85 32.59 99.22"/>
    <polygon points="101.63 80.6 100.36 82.76 102.67 84.21 101.8 85.61 96.03 82.12 98.42 78.05 99.59 78.84 98.07 81.46 99.19 82.08 100.49 79.85 101.63 80.6"/>
    <path d="M37.86,101.95c.04.27-.27.98-.49,1.26l-2.26-1.1-1.21,2.38-1.49-.81,3.08-5.93,4.13,2.01-.61,1.33-2.7-1.37-.5,1.17,2.04,1.05Z"/>
    <polygon points="108.86 69.02 103.62 68.01 103.28 69.9 101.8 69.79 102.89 64.04 104.32 64.43 103.93 66.36 109.15 67.35 108.86 69.02"/>
    <polygon points="10.71 67.98 5.55 68.98 5.15 67.34 10.32 66.33 9.97 64.29 11.4 64.06 12.5 69.71 11.02 70.03 10.71 67.98"/>
    <polygon points="80.01 103.09 80.61 104.5 76.13 106.38 73.48 100.18 75 99.49 77.07 104.35 80.01 103.09"/>
    <rect x="103.58" y="68.81" width="1.74" height="6.91" transform="translate(4.72 150.93) rotate(-72.94)"/>
    <path d="M61.36,9.67l.28-1.2,2.74.24-.28,2.9c-1.58.64-3.47.57-4.96-.38-1.07-.69-1.5-1.81-1.39-3.02.1-1.07.75-2.29,1.94-2.75,1.52-.58,3.14-.34,4.52.46l-.06,1.5c-1.3-.61-2.36-1.15-3.55-.82s-1.52,2-.93,3c.56.94,2.14,1.55,3.31.59l-1.61-.52Z"/>
    <path d="M33.19,16.24l-.64-1.2,2.41-1.41,1.47,2.51c-.99,1.24-2.39,2.48-4.2,2.6-1.92.13-3.77-1.96-3.4-3.9.4-2.07,2.43-3.2,4.32-3.39l.89,1.26c-1.24.18-2.41.36-3.25,1.24-.76.79-.43,2.12.21,2.73.82.79,2.07.71,3,0l.59-.45c.16-.12-.17-.6-.25-.69l-1.15.72Z"/>
    <path d="M55.29,11.6c-.66.09-.77-2.49-2.89-2.1l.23,2.25-1.61.31-.61-6.52c1.6-.19,3.07-.33,4.72-.06.51.08.98,1.24.96,1.74-.03.57-.51,1.29-.89,1.66l1.75,2.48-1.66.23ZM54.32,7.98c.26-.26.23-1.29-.13-1.29h-1.96s.03,1.67.03,1.67l2.06-.37Z"/>
    <path d="M88.99,17.56c0,1.89-1.53,3.42-3.42,3.42s-3.42-1.53-3.42-3.42,1.53-3.42,3.42-3.42,3.42,1.53,3.42,3.42ZM87.18,18.38c.55-.95.23-1.99-.52-2.45-.84-.52-1.94-.27-2.52.5-.73.97-.64,2.28.4,2.83.87.45,2.02.19,2.63-.87Z"/>
    <path d="M49.12,9.75c0,1.89-1.54,3.43-3.44,3.43s-3.44-1.54-3.44-3.43,1.54-3.43,3.44-3.43,3.44,1.54,3.44,3.43ZM47.42,9.39c-.21-1.21-1.16-1.82-2.24-1.57-.85.19-1.39,1.11-1.28,2.08.15,1.22.91,1.9,1.98,1.79,1.13-.12,1.77-.95,1.54-2.3Z"/>
    <polygon points="12.6 47.11 6.57 45.07 7.01 43.53 9.36 44.3 10.29 41.8 7.88 41.02 8.39 39.48 14.51 41.54 14.04 43.06 11.46 42.23 10.63 44.72 13.19 45.6 12.6 47.11"/>
    <polygon points="79.85 17.43 78.41 16.86 79.56 14.37 77.13 13.22 75.97 15.6 74.56 14.92 77.34 9.11 78.77 9.87 77.7 12.05 80.1 13.25 81.25 10.98 82.55 11.84 79.85 17.43"/>
    <path d="M101.67,46.72c-.28-.54-.52-1.11-.53-1.39s.45-.64.86-1l-.98-3.27c-.46-.11-1.2-.19-1.38-.44-.21-.29-.36-1.06-.34-1.31l6.9,1.1c.37.18.65,1.24.44,1.6l-4.97,4.72ZM104.86,41.61l-2.56-.44.69,2.24,1.86-1.8Z"/>
    <polygon points="70.18 10.71 67.74 10.08 67.51 11.41 70.31 12.18 69.94 13.5 65.53 12.31 67.16 6.07 71.37 7.14 71.09 8.42 68.39 7.77 68.09 8.78 70.46 9.37 70.18 10.71"/>
    <polygon points="38.44 12.7 39 13.97 41.58 12.85 42.24 14.1 37.94 15.76 35.51 9.81 39.42 8.21 40.12 9.35 37.54 10.46 37.89 11.45 40.07 10.58 40.74 11.67 38.44 12.7"/>
    <polygon points="13.29 37.14 14.57 37.78 15.86 35.26 17.13 35.81 14.98 39.82 9.27 36.94 11.26 32.99 12.46 33.61 11.19 36.06 12.17 36.59 13.24 34.43 14.43 35.05 13.29 37.14"/>
    <path d="M19.26,31.73l-1.52-.9c1.38-.65,2.67-1.68,2.48-2.7-.04-.18-.7-.31-.86-.19l-1.67,1.2c-.65.47-1.59.42-2.18-.05-.55-.44-.94-1.38-.55-2.18.51-1.03,1.29-1.86,2.09-2.54l1.26.96c-1.2.73-2.41,1.32-1.9,2.81l2.87-1.79c.56-.35,1.64.24,2.01.76,1.04,1.45-.27,3.12-2.03,4.63Z"/>
    <path d="M90.21,25.62c-1.44-.51-2.24-1.67-2.79-2.91l.99-1.25c.53,1.69,1.45,3.09,2.56,2.65.2-.08.12-.64.02-.84l-1.1-2.15c-.24-.46.31-1.46.7-1.77,1.39-1.1,3.14.37,4.35,2.22l-1.12,1.11c-.46-1.14-.88-2.18-2.3-2.35-.23,1.71,1.8,2.82.95,4.3-.37.65-1.37,1.31-2.26.99Z"/>
    <path d="M94.56,27.18l-1.87,1.33-1.01-1.22,5.21-3.82,1.87,2.58c.59.82.62,1.81.03,2.51-.54.64-1.57,1.14-2.44.59-.68-.42-1.08-.99-1.79-1.97ZM96.68,27.76c.12.13.89-.02.92-.18s.07-.67-.03-.82l-.81-1.23-1.3.97,1.21,1.27Z"/>
    <polygon points="12.1 51.71 7.14 50.87 6.77 52.8 5.39 52.55 6.3 47.16 7.71 47.42 7.37 49.26 12.42 50.13 12.1 51.71"/>
    <polygon points="102.97 35.87 98.41 38.03 97.68 36.62 102.25 34.43 101.4 32.73 102.68 32.13 105 37.01 103.81 37.76 102.97 35.87"/>
    <path d="M24.07,25.99l-3.6-3.54-1.24,1.25c-.26-.07-.83-.47-1.16-.75l3.81-3.99.98.99-1.33,1.4,3.71,3.48-1.17,1.16Z"/>
    <path d="M103.32,49.18l.51,3.01c-.41.07-1.21.13-1.49.1l-.74-4.44,6.39-1.06.26,1.62-4.92.77Z"/>
    <polygon points="100.9 29.14 101.76 30.54 96.21 33.94 95.34 32.54 100.9 29.14"/>
    <polygon points="26.25 21.71 27.28 22.82 26.25 23.78 25.21 22.67 26.25 21.71"/>
    <path d="M76.46,30.96l-1.72,1.14-.69-1.03c.89-.19,1.2-.25,2.41-.11Z"/>
    <path d="M63.91,27.74l-1.25-.26c-.24-.05-.16-.97.09-1,.29-.04,1.09.02,1.1.27l.06,1Z"/>
  </g>
</svg>