<?xml version="1.0" encoding="UTF-8"?>
<svg id="Layer_1" data-name="Layer 1" xmlns="http://www.w3.org/2000/svg" viewBox="0 0 363.43 128.32">
  <rect x="148.66" y="108.92" width="214.7" height="2.4"/>
  <polygon points="275.59 101.22 273.1 101.25 261.73 84.59 261.67 101.22 259.67 101.22 259.67 81.85 262.16 81.83 273.51 98.28 273.57 81.85 275.59 81.85 275.59 101.22"/>
  <polygon points="163.99 101.18 161.97 101.24 161.96 91.9 151.35 91.9 151.35 101.23 149.34 101.21 149.34 81.85 151.35 81.84 151.35 90.21 161.97 90.21 161.97 81.83 163.99 81.84 163.99 101.18"/>
  <polygon points="320.27 88.33 322.27 88.32 318.22 101.21 316.14 101.21 312.68 90.77 309.27 101.2 307.2 101.22 303.13 88.29 305.14 88.28 308.29 98.74 311.79 88.33 313.64 88.33 317.18 98.74 320.27 88.33"/>
  <path d="M197.92,107.71v-19.35s1.87-.02,1.87-.02l.07,2.17c1.79-2.34,4.66-3.02,7.44-2.02,2.48.89,4.13,3.41,4.13,6.27s-1.65,5.38-4.13,6.27c-2.78.99-5.63.32-7.47-2.02l-.02,8.75-1.89-.06ZM209.67,94.77c0-2.83-2.3-5.13-5.14-5.13s-5.14,2.3-5.14,5.13,2.3,5.13,5.14,5.13,5.14-2.3,5.14-5.13Z"/>
  <path d="M290.25,97.83l1.44,1.06c-1.18,1.64-2.87,2.38-4.87,2.57-3.97.38-7.23-2.5-7.34-6.48-.08-2.71,1.36-5.21,3.64-6.27,2.5-1.16,5.52-.83,7.41,1.13,1.41,1.45,1.79,3.44,1.61,5.43h-10.65c-.01,2.06,1.32,3.89,3.13,4.49,2.05.68,4.17.16,5.63-1.92ZM290.28,93.77c-.22-1.88-.72-2.6-1.62-3.5-1.42-.88-3.17-1.1-4.71-.25-1.27.7-2.36,2.07-2.44,3.8l8.77-.05Z"/>
  <path d="M233.53,101.39c-1.99-.29-3.31-1.7-3.46-3.47-.37-4.28,4.7-4.6,9.04-4.62.16-1.18-.14-2.66-1.28-3.26-1.96-1.04-4.23-.54-5.94.97l-1.06-1.29c1.97-1.53,4.31-1.95,6.64-1.48s3.47,2.51,3.5,4.85l.12,8.1-1.65.07-.22-2.09c-1.35,1.89-3.34,2.57-5.69,2.23ZM233.69,99.82c1.56.47,3.19.1,4.2-.89,1.08-1.06,1.44-2.58,1.21-4.17-3.09-.03-7.07.25-7.11,2.74-.02,1.05.53,1.96,1.7,2.31Z"/>
  <polygon points="356.34 94.37 363.43 101.18 360.74 101.24 354.13 94.55 354.06 101.24 352.2 101.2 352.2 80.62 354.07 80.59 354.11 94.28 360.07 88.52 362.72 88.57 356.34 94.37"/>
  <path d="M181.95,94.76c0,3.78-3.07,6.85-6.86,6.85s-6.86-3.07-6.86-6.85,3.07-6.85,6.86-6.85,6.86,3.07,6.86,6.85ZM180.22,94.77c0-2.83-2.29-5.12-5.12-5.12s-5.12,2.29-5.12,5.12,2.29,5.12,5.12,5.12,5.12-2.29,5.12-5.12Z"/>
  <path d="M338.33,94.76c0,3.78-3.07,6.85-6.86,6.85s-6.86-3.07-6.86-6.85,3.07-6.85,6.86-6.85,6.86,3.07,6.86,6.85ZM336.59,94.77c0-2.83-2.29-5.12-5.12-5.12s-5.12,2.29-5.12,5.12,2.29,5.12,5.12,5.12,5.12-2.29,5.12-5.12Z"/>
  <g>
    <path d="M242.43,35.4l-.05-2.2c-1.05,1.5-2.64,2.24-4.47,2.38-4.02.31-7.14-2.7-7.12-6.7.01-2.77,1.57-5.27,3.96-6.19,2.76-1.07,5.65-.52,7.64,1.93l.03-10.07h1.88s0,20.78,0,20.78l-1.88.08ZM242.82,28.89c0-2.83-2.3-5.13-5.13-5.13s-5.13,2.3-5.13,5.13,2.3,5.13,5.13,5.13,5.13-2.3,5.13-5.13Z"/>
    <path d="M210.59,35.49c-3.15.86-6.33.15-8.49-2.45l1.7-1.34c1.69,2.56,4.85,3.2,7.28,1.56,1.13-.76,1.62-1.94,1.49-3.29-.1-1.09-.91-2.36-2.21-2.82l-4.04-1.43c-2.23-.79-3.66-2.43-3.75-4.64s1.19-4.3,3.45-5.11c2.96-1.06,6.25-.54,8.35,1.81l-1.6,1.3c-1.73-2.22-4.79-2.56-6.96-.93-.97.73-1.33,1.93-1.2,3.13.11,1.02.97,2.1,2.14,2.53l4.74,1.74c1.44.53,2.59,1.82,2.95,3.24.75,2.98-.8,5.86-3.86,6.7Z"/>
    <path d="M274.9,31.95l1.44,1.06c-1.18,1.64-2.87,2.38-4.87,2.57-3.97.38-7.23-2.5-7.34-6.48-.08-2.71,1.36-5.21,3.64-6.27,2.5-1.16,5.52-.83,7.41,1.13,1.41,1.45,1.79,3.44,1.61,5.43h-10.65c-.01,2.06,1.32,3.89,3.13,4.49,2.05.68,4.17.16,5.63-1.92ZM274.93,27.89c-.22-1.88-.72-2.6-1.62-3.5-1.42-.88-3.17-1.1-4.71-.25-1.27.7-2.36,2.07-2.44,3.8l8.77-.05Z"/>
    <path d="M222.03,39.69c-.9,2.26-3.24,2.78-5.28,2.14l.09-1.7c1.67.65,3.08.05,3.7-1.53l1.25-3.2-5.5-12.86,2.09-.02,4.42,10.89,4.01-10.87h2.06s-6.84,17.15-6.84,17.15Z"/>
    <path d="M284.62,39.69c-.9,2.26-3.24,2.78-5.28,2.14l.09-1.7c1.67.65,3.08.05,3.7-1.53l1.25-3.2-5.5-12.86,2.09-.02,4.42,10.89,4.01-10.87h2.06s-6.84,17.15-6.84,17.15Z"/>
    <path d="M251.21,27.67l-.09,7.68h-1.87s-.04-12.86-.04-12.86h1.69s.24,2.13.24,2.13c.94-1.67,2.58-2.43,4.52-2.46,2.52-.05,4.68,1.76,4.7,4.41l.08,8.77h-1.89s-.06-8.37-.06-8.37c0-1.01-.64-2.22-1.27-2.69-.96-.72-2.18-.83-3.35-.45-1.46.47-2.65,2.11-2.67,3.84Z"/>
    <g>
      <path d="M173.94,35.36l-.03-7.94c0-1.06-.42-2.43-1.22-3.08-1.14-.93-2.68-.93-3.98-.26-1,.52-2.07,1.94-2.09,3.38l-.1,7.89-1.87-.03V14.59s1.88.03,1.88.03v9.84c1.13-1.56,2.56-2.26,4.48-2.31,2.5-.06,4.71,1.69,4.74,4.37l.09,8.81h-1.89Z"/>
      <path d="M190.24,31.95l1.44,1.06c-1.18,1.64-2.87,2.38-4.87,2.57-3.97.38-7.23-2.5-7.34-6.48-.08-2.71,1.36-5.21,3.64-6.27,2.5-1.16,5.52-.83,7.41,1.13,1.41,1.45,1.79,3.44,1.61,5.43h-10.65c-.01,2.06,1.32,3.89,3.13,4.49,2.05.68,4.17.16,5.63-1.92ZM190.26,27.89c-.22-1.88-.72-2.6-1.62-3.5-1.42-.88-3.17-1.1-4.71-.25-1.27.7-2.36,2.07-2.44,3.8l8.77-.05Z"/>
      <polygon points="155.62 35.3 153.63 35.33 153.63 17.64 147.08 17.64 147.09 15.95 162.11 15.95 162.14 17.64 155.62 17.64 155.62 35.3"/>
    </g>
  </g>
  <g>
    <g>
      <g>
        <path d="M69.5,92.78c-3.3-.31-6.33-1.15-9.33-2.18,3.6-8.67,9.66-17.6,17.31-22.63,4.72-3.11,11.09-3.93,14.81.4-3.82,11.32-11.97,19.25-22.79,24.42Z"/>
        <path d="M59.8,107.24c-1.29-1.91-1.64-4.04-1.57-6.25l.08-3.04c3.95-.76,7.58-1.88,11.27-3.43,3.42.28,6.81.73,10.21.13l5.86-1.03c-4.68,6.11-20.13,22.08-25.84,13.62Z"/>
        <path d="M87.47,91.25c-4.91,1.73-9.9,2.45-14.9,1.84,9.86-5.4,16.92-12.62,20.84-22.85,3.09,7.01-1.77,15.01-5.94,21.01Z"/>
        <path d="M66.33,94.03c-2.63,1.01-4.92,1.64-7.77,2.2l1.02-4.05,6.74,1.85Z"/>
      </g>
      <g>
        <path d="M53.09,96.82c-9.23-.1-18.44-4.06-25.94-9.3-3.97-2.91-7.36-6.19-10.23-10.32,1.09-3.34,3.46-6.03,6.53-7.79,7.86,8.13,17.08,14.61,27.33,19.36,1.25,2.58,1.96,5.06,2.3,8.06Z"/>
        <path d="M50.67,103.35c-2.16,1.62-4.73,1.73-7.32,1.25-7.5-1.39-14.43-4.76-20.29-9.61-2.32-1.93-4.13-4.09-5.56-6.68-1.27-2.82-1.86-5.8-1.14-8.99,7.12,9.42,17.73,15.63,29.18,18.34,2.54.52,4.84.73,7.5.78-.18,1.75-.79,3.74-2.37,4.92Z"/>
        <path d="M31.86,69.15c7.7,2.84,13.83,9.77,17.75,17.23-9.1-4.37-17.37-10.3-24.56-17.63,2.37-.63,4.62-.4,6.8.4Z"/>
      </g>
    </g>
    <g>
      <g>
        <path d="M79.93,60.09c-5.11-1.92-4.12-8.15-2.45-12.98,1.5-4.32,3.65-8.21,6.18-12.01,1.49-2.23,3.22-4.11,5.59-5.64,3.6,9.47,5.7,20.52,4.79,30.58-4.69.97-9.58,1.61-14.11.04Z"/>
        <path d="M119.09,41.8c-.88,5.62-6.25,10.57-11.49,13.34-1.49-10.77-6.62-20.04-14.11-27.8,7.59-2.21,16.34.35,22.27,5.4,2.73,2.32,3.89,5.53,3.34,9.06Z"/>
        <path d="M95.78,59.66c.29-4.57.12-8.94-.59-13.53-.86-6.05-2.26-11.79-4.53-17.44l1.49-.75c3.69,3.72,6.81,7.76,9.28,12.44,2.61,4.89,4.3,10.01,4.98,15.55-3.36,1.47-6.61,2.69-10.63,3.74Z"/>
      </g>
      <g>
        <g>
          <path d="M72.15,0c3.6.3,7.21.85,10.52,2.6,6.65,3.5,8.31,11.73,5.64,18.68l-.75.74-3.24-4.79c-1.84-2.72-5.26-5.85-7.92-7.87-6.47-4.89-13.83-6.93-22.14-7.32C58.06.82,61.88.35,65.72,0h6.43Z"/>
          <path d="M49.51,29.48c-4.49-1.69-9.35-4.37-12.33-8.33l5.59-3.18,1.15-.28c.44-.33,1.08-.8,1.54-.86.9-.12,3.49-1.7,8.23-2.31l1.44-.19c10.8-1.4,21.23,2.03,30.06,7.98.72.48,1.76,1.41,1.4,2.18-2.27,3.75-5.54,6.35-9.68,7.45-3.58.96-7.21,1.56-10.87,1.11-.37-.05-.6-.07-.97.03-4.97-.29-9.84-1.46-14.52-3.22l-1.04-.39Z"/>
          <path d="M71.86,14.1c-5.01-1.57-11.74-2.19-16.99-1.5-6.67.88-12.71,3.41-18.45,7.12-1.56-2.64-1.07-6.02.46-8.2l.44.06c.1.02-.05-.36-.13-.56,1.64-2.55,7.09-6.06,9.57-6.52,6.19-1.17,12.55-.82,18.58,1.04,7,2.16,13.4,6.95,17.88,12.99-1.37.02-2.38-.95-3.63-1.49-2.6-1.11-5.05-2.12-7.72-2.95Z"/>
        </g>
        <g>
          <path d="M26.4,59.2c-1.44,2.27-2.85,4.18-4.53,6.1-3.11-3.75-5.71-7.62-7.72-12.05,3.34-11.88,10.38-22.24,20.16-30.05,2.27,5.75,1.1,12.6-.4,18.5-1.73,6.18-4.24,11.88-7.51,17.5Z"/>
          <path d="M11.45,67.92c-1.34-.91-2.44-2.18-3.23-3.7-2.47-4.79-4.6-9.63-6.27-14.77s-3.11-11.72-.61-16.1c3.25-5.69,10.88-10.19,17.15-12.64-6.54,9.63-10.72,21.65-5.97,32.56l-.75,3.7c-.72,3.57-.68,7.02-.31,10.95Z"/>
          <path d="M13.27,50.46c-1.63-3.9-1.55-8.3-.7-12.6,1.31-6.69,4.4-12.66,8.52-18.06,4.97-1.72,9.59-2.55,12.45,2.05-9.42,7.35-16.23,16.99-20.27,28.6Z"/>
          <path d="M20.73,66.29c-2.05,1.98-4.86,3.4-7.46,2.52-.86-4.38-.71-8.65.32-13.01,2.1,3.92,4.35,7.16,7.14,10.49Z"/>
        </g>
      </g>
    </g>
  </g>
  <path d="M192.92,100.54c-2.69,1.65-6.27,1.15-8.44-1.28l1.45-1.26c1.36,1.9,3.59,2.58,5.7,1.55.68-.33,1.04-1.27.95-2.02-.07-.59-.75-1.35-1.46-1.56l-3.17-.91c-1.36-.39-2.52-1.22-2.77-2.45-.28-1.37.1-2.88,1.34-3.66,2.47-1.56,5.91-1.15,7.74,1.22l-1.45,1.13c-1.22-1.85-3.38-2.33-5.22-1.21-.47.29-.8,1.3-.68,1.77.15.55.81,1.22,1.38,1.38l3.39.95c1.33.37,2.46,1.36,2.67,2.52.25,1.37-.08,3-1.45,3.84Z"/>
  <path d="M228.1,99.57l.11,1.57c-1.23.31-2.37.47-3.54.12-1.22-.37-1.97-1.64-1.97-2.89v-8.62s-2.67,0-2.67,0l-.02-1.46h2.69s0-3.62,0-3.62h1.88s0,3.62,0,3.62h3.66s0,1.45,0,1.45h-3.66s.01,8.22.01,8.22c0,.48.3,1.48.7,1.73.78.5,1.7.36,2.82-.12Z"/>
  <path d="M301.97,99.57l.11,1.57c-1.23.31-2.37.47-3.54.12-1.22-.37-1.97-1.64-1.97-2.89v-8.62s-2.67,0-2.67,0l-.02-1.46h2.69s0-3.62,0-3.62h1.88s0,3.62,0,3.62h3.66s0,1.45,0,1.45h-3.66s.01,8.22.01,8.22c0,.48.3,1.48.7,1.73.78.5,1.7.36,2.82-.12Z"/>
  <rect x="245.71" y="80.4" width="1.88" height="20.84"/>
  <path d="M344.19,101.21h-1.88s-.04-12.85-.04-12.85l1.72.03.21,2.11c1.07-2.01,3.24-2.78,5.36-2.35l-.28,1.74c-1.21-.22-2.37-.25-3.4.49-.68.49-1.57,1.8-1.59,2.86l-.1,7.96Z"/>
  <rect x="215.46" y="88.34" width="1.89" height="12.91"/>
  <circle cx="216.41" cy="83.38" r="1.33"/>
  <g>
    <path d="M207.59,66.22c-1.49,1.72-3.56,2.46-5.85,2.12-3.02-.46-4.83-2.91-4.65-5.93.28-4.61,4.19-8.09,8.81-7.29,1.44.25,2.57,1.14,3.34,2.3l1.78-10.04h1.87s-3.67,20.7-3.67,20.7l-1.84.16.21-2ZM204.32,66.81c2.79-.7,4.44-3.31,4.49-6.06.03-1.32-.47-2.56-1.33-3.31-.96-.85-2.29-1.12-3.61-.94-2.92.41-4.7,3.01-4.83,5.93-.06,1.42.35,2.76,1.33,3.61s2.44,1.15,3.94.77Z"/>
    <path d="M150.53,61.1c.34,3.59,3.14,5.85,6.54,5.86,2.56.01,4.78-.94,6.39-2.94l1.49,1.11c-2.28,2.82-5.88,3.89-9.46,3.42-4.33-.58-7.2-3.94-7.17-8.28.04-7.12,6.08-12.83,13.19-11.87,2.09.28,3.94,1.2,5.08,2.96l-1.78,1.21c-2.14-3.57-7.29-3.19-10.52-.56-2.67,2.17-4.11,5.53-3.77,9.1Z"/>
    <path d="M176.84,68.16l1.41-8.13c.17-.96-.1-2.42-.88-2.99-1.36-1.01-3.24-.69-4.51.34-1.07.88-1.83,2.27-2.08,3.65l-1.27,7.15-1.85-.02,3.66-20.75,1.86-.03-1.7,9.87c1.88-2.35,5.01-3.06,7.45-1.32,1.21.86,1.44,2.47,1.26,3.88l-1.48,8.35h-1.87Z"/>
    <path d="M229.63,66.96c1.9-.03,3.24-.93,4.37-2.25l1.14,1.11c-1.77,2.15-4.48,2.92-7.18,2.45s-4.57-2.8-4.49-5.61c.14-4.56,3.86-8.1,8.39-7.65,2.48.25,4.6,1.97,4.44,4.54l-.16,2.63h-10.72c-.38,2.54,1.44,4.82,4.2,4.77ZM234.46,60.74c.09-1.4-.05-2.29-.7-3.14-.5-.65-1.57-1.1-2.57-1.15-2.75-.14-4.98,1.83-5.47,4.31l8.75-.02Z"/>
    <path d="M244.42,57.56c-1.33,1.02-1.99,2.54-2.27,4.07l-1.16,6.54h-1.86s2.23-12.91,2.23-12.91l1.71-.05-.08,2.01c1.79-2.34,4.96-3.03,7.41-1.29,1.07.76,1.5,2.36,1.27,3.66l-1.49,8.56h-1.88s1.4-7.9,1.4-7.9c.17-.97-.07-2.44-.85-3.01-1.31-.96-3.15-.69-4.45.31Z"/>
    <path d="M266.77,67.79c-2.45,1.19-6.3.76-8.15-1.62l1.63-1.14c1.24,1.86,3.34,2.34,5.41,1.61.75-.26,1.35-1.01,1.41-1.75.05-.68-.46-1.63-1.16-1.91l-2.95-1.16c-1.27-.5-2.17-1.48-2.28-2.67-.13-1.35.43-2.56,1.64-3.29,2.41-1.44,6.06-1.21,7.74,1.11l-1.5,1.06c-1.13-1.69-3.06-1.97-4.86-1.23-.75.31-1.28,1.1-1.24,1.85.15,2.83,7.33,1.32,6.36,6.68-.16.86-.99,1.93-2.05,2.44Z"/>
    <rect x="182.57" y="56.81" width="21.4" height="1.9" transform="translate(102.88 238.09) rotate(-80.02)"/>
    <path d="M216.28,68.17h-1.85s2.24-12.95,2.24-12.95l1.69.04-.12,1.98c1.4-1.72,3.05-2.56,5.38-2.18l-.42,1.55c-1.42-.37-2.97-.14-4.04,1.01-.88.95-1.46,2.28-1.68,3.56l-1.2,6.98Z"/>
    <polygon points="185.39 68.11 183.5 68.19 185.79 55.29 187.64 55.3 185.39 68.11"/>
    <polygon points="257.59 55.13 255.93 55.24 258.89 48.81 260.89 48.79 257.59 55.13"/>
    <circle cx="187.48" cy="50.33" r="1.31"/>
  </g>
  <g>
    <path d="M297.5,124.68c-.84.84-1.96,1.23-3.13.8-1.04-.38-1.8-1.41-1.84-2.69s.62-2.4,1.66-2.85c1.21-.52,2.43-.27,3.39.75l.02-4.19.8.04v8.82s-.65.06-.65.06c-.1.01-.15-.33-.25-.74ZM297.76,122.67c0-1.23-1-2.23-2.23-2.23s-2.23,1-2.23,2.23,1,2.23,2.23,2.23,2.23-1,2.23-2.23Z"/>
    <path d="M187.89,124.68c-.84.84-1.96,1.23-3.13.8-1.04-.38-1.8-1.41-1.84-2.69s.62-2.4,1.66-2.85c1.21-.52,2.43-.27,3.39.75l.02-4.19.8.04v8.82s-.65.06-.65.06c-.1.01-.15-.33-.26-.74ZM188.15,122.67c0-1.23-1-2.23-2.23-2.23s-2.23,1-2.23,2.23,1,2.23,2.23,2.23,2.23-1,2.23-2.23Z"/>
    <path d="M238.45,122.8c.07.98.67,1.8,1.39,2.03.97.32,1.78-.02,2.49-.82l.57.55c-1.07,1.16-2.59,1.4-3.8.74-1.31-.71-1.81-2.36-1.27-3.81.51-1.37,1.9-2.03,3.25-1.77s2.2,1.51,2.03,3.06h-4.66ZM242.32,122.07c-.22-1.41-1.07-1.75-2.12-1.67-.77.06-1.5.7-1.78,1.66h3.9Z"/>
    <path d="M164.81,122.8c.07.98.67,1.8,1.39,2.03.97.32,1.78-.02,2.49-.82l.57.55c-1.07,1.16-2.59,1.4-3.8.74-1.31-.71-1.81-2.36-1.27-3.81.51-1.37,1.9-2.03,3.25-1.77s2.2,1.51,2.03,3.06h-4.66ZM168.69,122.07c-.22-1.41-1.07-1.75-2.12-1.67-.77.06-1.5.7-1.78,1.66h3.9Z"/>
    <path d="M250.44,122.8c.07.98.67,1.8,1.39,2.03.97.32,1.78-.02,2.49-.82l.57.55c-1.07,1.16-2.59,1.4-3.8.74-1.31-.71-1.81-2.36-1.27-3.81.51-1.37,1.9-2.03,3.25-1.77s2.2,1.51,2.03,3.06h-4.66ZM254.31,122.07c-.22-1.41-1.07-1.75-2.12-1.67-.77.06-1.5.7-1.78,1.66h3.9Z"/>
    <path d="M286.65,122.8c.07.98.67,1.8,1.39,2.03.97.32,1.78-.02,2.49-.82l.57.55c-1.07,1.16-2.59,1.4-3.8.74-1.31-.71-1.81-2.36-1.27-3.81.51-1.37,1.9-2.03,3.25-1.77s2.2,1.51,2.03,3.06h-4.66ZM290.53,122.07c-.22-1.41-1.07-1.75-2.12-1.67-.77.06-1.5.7-1.78,1.66h3.9Z"/>
    <path d="M277.37,125.39l-.12-4.08c-.02-.55-1.06-1.01-1.55-.96s-1.46.69-1.48,1.29l-.14,3.77-.78-.02v-9.03s.82-.02.82-.02l.03,4.31c.67-.77,1.48-1.12,2.43-.94s1.58,1.07,1.58,2.12l.02,3.57h-.8Z"/>
    <path d="M202.61,122.67c0,1.67-1.35,3.02-3.02,3.02s-3.02-1.35-3.02-3.02,1.35-3.02,3.02-3.02,3.02,1.35,3.02,3.02ZM201.81,122.67c0-1.23-1-2.22-2.23-2.22s-2.23,1-2.23,2.22,1,2.22,2.23,2.22,2.23-1,2.23-2.22Z"/>
    <path d="M332.36,122.67c0,1.67-1.35,3.02-3.02,3.02s-3.02-1.35-3.02-3.02,1.35-3.02,3.02-3.02,3.02,1.35,3.02,3.02ZM331.57,122.67c0-1.23-1-2.22-2.23-2.22s-2.23,1-2.23,2.22,1,2.22,2.23,2.22,2.23-1,2.23-2.22Z"/>
    <path d="M154.63,125.55c-.58-.21-1.11-.83-1.2-1.25-.11-.53.12-1.63.6-1.86,1.11-.53,2.04-.58,3.36-.69,0-.45-.38-1.2-.78-1.28-.5-.1-1.32-.07-1.69.11l-.64.31c-.16.08-.45-.29-.48-.42,1.04-1.07,3.67-1.28,4.13.43.4,1.48.16,3.08.2,4.58-.42-.16-.6-.37-.77-.74-.59.56-1.57,1.21-2.74.79ZM157.38,122.53l-2.44.3c-.39.05-.79.88-.71,1.23.08.3.6.83.92.87.7.09,1.42-.14,1.74-.54.36-.45.5-1.18.49-1.86Z"/>
    <path d="M314.37,125.55c-.58-.21-1.11-.83-1.2-1.25-.11-.52.13-1.63.6-1.86,1.12-.53,2.04-.58,3.37-.69,0-.45-.38-1.2-.78-1.28-.5-.1-1.32-.07-1.68.11l-.66.32c-.16.08-.45-.29-.48-.42,1.04-1.07,3.67-1.28,4.13.43.4,1.48.16,3.08.2,4.58-.42-.16-.6-.37-.77-.74-.59.56-1.57,1.21-2.74.79ZM317.11,122.53l-2.43.3c-.39.05-.8.88-.71,1.23.07.3.6.83.91.87.7.09,1.42-.14,1.74-.54.36-.45.5-1.18.48-1.86Z"/>
    <path d="M257.77,125.55c-.58-.21-1.12-.83-1.21-1.26-.11-.5.12-1.61.61-1.85,1.11-.54,2.04-.58,3.36-.69,0-.45-.38-1.2-.78-1.28-.5-.1-1.31-.07-1.68.11l-.65.31c-.16.08-.45-.29-.48-.42,1.04-1.07,3.67-1.28,4.13.43.4,1.48.16,3.08.2,4.58-.42-.16-.6-.37-.77-.74-.59.56-1.57,1.21-2.74.79ZM260.51,122.53l-2.45.3c-.35.04-.77.88-.68,1.22.07.3.6.83.91.87.71.09,1.42-.14,1.74-.54.36-.45.5-1.19.48-1.85Z"/>
    <path d="M211,125.55c-.58-.21-1.11-.83-1.2-1.25-.11-.53.12-1.63.6-1.86,1.11-.54,2.04-.58,3.36-.69,0-.45-.38-1.2-.78-1.28-.51-.1-1.32-.07-1.68.11l-.66.32c-.16.08-.45-.29-.48-.42,1.04-1.07,3.67-1.28,4.13.43.4,1.48.16,3.08.2,4.58-.42-.16-.6-.37-.77-.74-.59.56-1.57,1.21-2.74.79ZM213.74,122.53l-2.44.3c-.38.05-.79.88-.7,1.23.07.3.59.83.92.87.7.09,1.42-.14,1.74-.54.36-.46.5-1.17.49-1.86Z"/>
    <path d="M177.9,125.55c-.58-.21-1.12-.83-1.2-1.25-.11-.54.12-1.62.6-1.86,1.11-.54,2.04-.58,3.36-.69,0-.45-.38-1.2-.78-1.28-.51-.1-1.32-.07-1.69.11l-.64.31c-.16.08-.45-.29-.48-.42,1.04-1.07,3.67-1.28,4.13.43.4,1.48.16,3.08.2,4.58-.42-.16-.6-.37-.77-.74-.59.56-1.57,1.21-2.74.79ZM180.64,122.53l-2.44.3c-.38.05-.78.88-.7,1.23.07.3.59.83.92.87.7.09,1.42-.14,1.74-.54.36-.46.5-1.17.49-1.86Z"/>
    <path d="M227.17,119.98l-2.83,7.2c-.37.93-1.67,1.51-2.36.83-.19-.19.65-.53,1.06-.51.51-.34,1.05-1.54,1.09-2.21l-2.29-5.37c.13-.09.85-.05.92.12l1.84,4.44,1.65-4.33c.06-.17.55-.25.91-.17Z"/>
    <path d="M334.91,121.64l-.14,3.52c0,.14-.5.25-.78.23l-.03-5.58c.29,0,.66-.02.69.08l.22.75c.56-.76,1.45-1.11,2.39-.93s1.57,1.07,1.57,2.12v3.57s-.81,0-.81,0l-.11-4.09c-.01-.53-1.05-1.03-1.52-.96s-1.44.46-1.47,1.28Z"/>
    <path d="M304.61,120.14c0-.22.78-.23.78.01l.04,5.21c-.07.04-.54.11-.61-.02l-.35-.61c-.55.68-1.43,1.1-2.35.9s-1.56-1.1-1.56-2.12v-3.57s.8,0,.8,0l.11,4.09c.01.51,1.06,1.02,1.53.97.5-.06,1.47-.66,1.49-1.3l.12-3.55Z"/>
    <path d="M247.5,125.42c-1.28.56-2.62.16-3.37-.83l.39-.37c.1-.09.47.11.58.23.68.74,2.23.79,2.5-.33.32-1.32-2.49-.99-3.09-2.1-.24-.45-.1-1.33.2-1.69.98-1.17,2.88-.57,3.46.18.05.07-.12.6-.19.57l-.51-.24-1.29-.48c-.31-.11-1.03.44-1.04.8-.07,1.44,2.79.83,3.22,2.29.23.78-.16,1.66-.88,1.98Z"/>
    <path d="M308.03,122.5c-.05.82.4,1.76.88,2.08.7.47,1.64.44,2.28.07l.62-.36c.14-.08.43.5.28.65-.83.78-3,1.06-4.01-.03s-1.26-2.78-.33-4.11c.87-1.24,2.85-1.54,4.11-.53.11.08.45.42.34.48l-.54.29c-.61-.51-1.45-.83-2.27-.54-.67.24-1.29,1.02-1.35,2Z"/>
    <path d="M267.74,122.5c-.05.82.4,1.76.88,2.08.7.47,1.64.44,2.28.07l.62-.36c.14-.08.43.5.28.65-.83.78-3,1.06-4.01-.03s-1.26-2.78-.33-4.11c.87-1.24,2.86-1.54,4.11-.53.11.09.45.42.35.48l-.54.29c-.61-.51-1.45-.83-2.27-.54-.67.24-1.29,1.02-1.35,2Z"/>
    <path d="M217.13,122.5c-.05.82.4,1.76.88,2.08.7.47,1.64.44,2.28.07l.62-.36c.14-.08.43.5.28.65-.83.78-3,1.06-4.01-.03s-1.26-2.78-.33-4.11c.87-1.24,2.85-1.54,4.11-.53.11.09.45.42.34.48l-.54.29c-.61-.51-1.45-.83-2.27-.54-.67.24-1.29,1.02-1.35,2Z"/>
    <path d="M204.66,122.5c-.05.82.4,1.76.88,2.08.7.47,1.64.44,2.28.07l.62-.36c.14-.08.43.5.28.65-.84.79-3,1.07-4.02-.02s-1.26-2.78-.33-4.11c.87-1.24,2.85-1.54,4.11-.53.11.08.45.42.34.48l-.54.29c-.61-.51-1.45-.83-2.27-.54-.67.24-1.29,1.02-1.35,2Z"/>
    <path d="M148.29,122.5c-.05.82.4,1.76.88,2.08.7.47,1.64.44,2.28.07l.62-.36c.14-.08.43.5.28.65-.84.79-3,1.07-4.02-.02s-1.26-2.78-.33-4.11c.87-1.24,2.86-1.54,4.11-.53.11.09.45.42.35.48l-.54.29c-.61-.51-1.45-.83-2.27-.54-.67.24-1.29,1.02-1.35,2Z"/>
    <path d="M194.59,120.16c.09-.22.67-.34.94-.23l-2.15,5.36-.99.08-2.21-5.44c.13-.09.85-.06.92.12l1.78,4.44,1.72-4.34Z"/>
    <path d="M320.79,124.24c.03.37,1.21.54,1.55.49,0,.79-.86.84-1.49.62s-.93-.83-.93-1.58v-3.17s-1.04.01-1.04.01c-.19,0-.14-.67.06-.68l.86-.06c.21-.01.12-.67.16-.89l.09-.6c.02-.12.52-.12.55,0l.2.81c.04.15-.15.72,0,.72h.8s.62.01.62.01c.16,0,.12.55.07.68l-1.55.05.05,3.59Z"/>
    <path d="M161.11,125.17c0,.27-.77.28-.77.02l-.03-5.33c.26-.04.66-.08.69.02l.21.77c.53-.78,1.36-1.09,2.27-.96l-.07.44c-.05.32-2.18.16-2.22,1.74l-.07,3.3Z"/>
    <path d="M234.5,125.17c0,.27-.77.28-.77.02l-.03-5.33c.26-.04.66-.08.69.02l.21.77c.53-.78,1.36-1.09,2.27-.96l-.07.44c-.05.32-2.18.16-2.22,1.74l-.07,3.3Z"/>
    <path d="M264,125.17c0,.27-.77.28-.77.02l-.03-5.33c.26-.03.66-.08.69.02l.21.77c.53-.78,1.36-1.09,2.27-.96l-.07.44c-.05.32-2.18.16-2.22,1.74l-.07,3.3Z"/>
    <rect x="323.66" y="119.81" width=".83" height="5.62"/>
    <polygon points="171.53 127 170.81 127.08 171.59 124.27 172.46 124.22 171.53 127"/>
    <polygon points="228.13 127 227.42 127.08 228.19 124.27 229.06 124.22 228.13 127"/>
    <polygon points="280.65 127 279.94 127.08 280.71 124.27 281.58 124.22 280.65 127"/>
  </g>
</svg>