<?xml version="1.0" encoding="iso-8859-1"?>
<!-- Generator: Adobe Illustrator 30.6.0, SVG Export Plug-In . SVG Version: 9.03 Build 0)  -->
<svg version="1.1" id="Layer_1" xmlns="http://www.w3.org/2000/svg" xmlns:xlink="http://www.w3.org/1999/xlink" x="0px" y="0px"
	 viewBox="0 0 500.952 99.6" style="enable-background:new 0 0 500.952 99.6;" xml:space="preserve">
<g>
	<g>
		<g>
			<path d="M256.504,58.192c-0.163,0.827-0.609,1.683-0.068,2.386l15.994,0.04c0.628,0.002,0.507,1.306,0.411,1.78l-1.252,6.136
				c-0.123,0.602-0.58,1.375-1.27,1.374l-26.76-0.016c-0.711-0.53-0.153-1.643-0.028-2.251l1.146-5.578l0.943-4.582l1.061-5.148
				l0.94-4.558l1.027-4.979l0.981-4.76l0.984-4.778l1.029-4.997c0.114-0.552,0.35-1.273,0.768-1.68l26.435,0.005
				c0.231,0.99,0.096,1.746-0.093,2.655l-1.118,5.39c-0.081,0.391-0.658,1.254-1.074,1.254l-14.866,0.012
				c-0.565,0-0.768,1.085-0.881,1.578l-1.03,4.487c-0.078,0.341,0.322,1.131,0.711,1.132l14.014,0.011
				c0.456,0.953,0.112,1.581-0.065,2.421l-1.043,4.958c-0.141,0.672-0.499,1.412-0.958,1.972l-13.629-0.014
				c-0.669-0.001-1.288,0.581-1.409,1.198L256.504,58.192z"/>
			<path d="M438.998,58.108c-0.185,0.887-0.31,1.728-0.04,2.485l16.399,0.017c0.294,0.937,0.023,1.479-0.14,2.276l-1.18,5.781
				c-0.156,0.767-0.558,1.244-1.41,1.243l-26.495-0.014c-0.402-0.507-0.352-1.175-0.227-1.757l1.198-5.549l0.944-4.581l1.021-4.953
				l0.987-4.785l1.021-4.95l0.98-4.756l1.028-4.989l1.036-5.155c0.101-0.502,0.361-1.823,1.08-1.823l25.591-0.026
				c0.596-0.001,1.03,0.602,0.894,1.126l-0.632,2.442l-1.344,5.736l-15.856,0.031l-1.306,5.187c-0.132,0.525-0.5,1.951,0.341,1.954
				l13.571,0.056c0.358,0.001,0.886,0.59,0.819,0.908l-1.558,7.46c-0.096,0.458-0.621,0.982-1.15,0.982l-13.42-0.001
				c-0.575,0-1.116,0.677-1.214,1.147L438.998,58.108z"/>
			<path d="M366.174,26.6c0.63,0.001,0.225,1.059,0.042,1.405l-21.387,40.324c-0.341,0.643-0.832,1.563-1.577,1.565l-11.287,0.016
				c-0.526,0.001-0.981-0.591-1.032-1.071l-0.769-7.339l-0.916-8.453l-0.672-6.362l-0.981-9.097l-1.002-9.285
				c-0.04-0.369-0.055-0.927,0.025-1.192s0.717-0.488,1.027-0.536l9.381,0.004c0.419,0.092,0.804,0.583,0.831,1.019l0.582,9.283
				l0.858,13.526l0.419,6.731l0.33,0.556c0.089,0.15,0.549-0.287,0.626-0.475l2.065-5.08L353.834,28.3
				c0.337-0.724,0.713-1.721,1.656-1.72L366.174,26.6z"/>
			<path d="M235.44,62.864c-1.61,3.641-4.966,7.03-8.785,7.031l-22.039,0.011c-0.468,0-0.671-0.858-0.583-1.211l0.979-3.915
				l1.04-4.097l17.76-0.026c0.679-0.001,1.581-0.682,1.945-1.226c0.481-0.719,0.21-1.742-0.385-2.369l-11.645-12.279
				c-2.442-2.575-2.947-6.227-2.001-9.654c1.388-5.029,5.773-8.512,11.127-8.521l20.023-0.034c0.229,0.99,0.088,1.761-0.111,2.66
				l-1.164,5.25c-0.259,1.169-0.92,1.376-1.98,1.376l-15.819-0.001c-1.03,0-2.413,0.836-2.123,1.938
				c0.24,0.909,1.068,1.853,1.746,2.551l6.613,6.808c1.861,1.916,3.46,3.927,4.787,6.224
				C236.532,56.334,236.812,59.761,235.44,62.864z"/>
			<path d="M488.645,68.852c-1.167,0.606-2.351,1.049-3.626,1.049l-21.936,0.001c-0.435-0.752-0.322-1.402-0.176-2.169l1.126-5.896
				c0.107-0.56,0.738-1.172,1.363-1.171l16.521,0.006c0.766,0,1.504-0.457,1.99-0.951c0.714-0.727,0.737-1.624,0.016-2.401
				l-12.552-13.533c-2.517-2.714-2.025-7.122-0.622-10.368c1.773-4.102,5.692-6.758,10.229-6.778l18.921-0.084
				c0.33-0.001,0.921,0.099,1.053,0.312c0.158,0.256,0.157,0.927,0.095,1.275l-1.046,5.935c-0.104,0.59-0.278,1.324-0.707,1.762
				l-16.912,0.011c-0.879,0.001-2.647,0.668-2.392,1.721c0.335,1.381,1.646,2.599,2.625,3.608l6.61,6.811
				c1.917,1.975,3.463,4.193,4.604,6.653c1.116,2.406,1.277,4.953,0.348,7.369C493.088,64.851,491.468,67.386,488.645,68.852z"/>
			<path d="M405.263,60.658l13.172,0.022c0.418,0.313,0.426,1.247,0.329,1.737l-1.234,6.229c-0.128,0.644-0.623,1.263-1.362,1.26
				l-15.109-0.063c-5.432-0.023-9.841-3.84-11.71-8.82c-1.577-4.203-0.947-9.542,0.268-13.966l1.093-3.982
				c2.226-8.109,10.438-16.413,19.456-16.437l14.896-0.039c0.439-0.001,0.658,0.877,0.577,1.249l-0.912,4.173
				c-0.284,1.301-0.493,2.491-1.029,3.823L412.1,35.838c-4.005-0.002-7.519,1.913-9.747,5.205c-1.584,2.34-2.259,4.943-2.857,7.703
				c-1,4.618-1.756,9.674,3.236,11.389C403.455,60.382,404.338,60.657,405.263,60.658z"/>
			<path d="M367.568,59.882l1.004-4.881l0.985-4.78l1.023-4.955l1.025-4.952l0.944-4.551l1.033-4.976l0.515-2.927
				c0.086-0.488,0.726-1.277,1.271-1.277h9.14c0.376,0,0.862,0.533,0.769,0.98l-8.487,40.849c-0.184,0.884-0.382,1.498-1.409,1.497
				l-9.114-0.01c-0.387,0-0.653-0.867-0.579-1.203l0.924-4.157L367.568,59.882z"/>
			<path d="M295.932,53.698l-1.311,5.818l-1.015,4.93l-0.824,4.184c-0.17,0.865-0.644,1.29-1.577,1.287l-9.27-0.03
				c-0.161-0.909-0.077-1.61,0.102-2.427l1.123-5.141l0.998-4.749l0.957-4.552l0.998-4.746l1.041-4.949l1-4.75l0.999-4.741
				l1.006-5.022c0.115-0.576,0.683-1.588,1.361-1.674c6.812-0.864,14.123-1.761,20.699,0.232c3.343,1.013,6.305,3.108,7.443,6.442
				c0.866,2.536,0.702,5.366-0.159,7.824c-1.004,2.865-3.024,4.946-5.588,6.422l-2.293,1.064c-0.211,0.098-0.626,0.446-0.683,0.653
				c-0.214,0.771,1.325,1.065,2.249,3.504c0.284,0.748,0.596,1.609,0.679,2.391l0.747,7.091l0.532,5.519l0.248,1
				c0.065,0.262-0.597,0.559-0.91,0.63h-9.361c-0.429-0.09-1.059-0.588-1.099-1.016l-1.023-10.733
				c-0.166-1.738-1.005-3.592-2.748-4.203C298.927,53.491,297.574,53.6,295.932,53.698z M308.276,41.448
				c0.593-1.238,0.832-2.65,0.122-4.045c-1.352-2.654-5.198-2.854-8.436-2.344c-0.598,1.503-0.814,2.864-1.143,4.427l-1.013,4.808
				c-0.055,0.262,0.089,1.067,0.347,1.098l0.956,0.117C302.474,45.921,306.702,44.737,308.276,41.448z"/>
		</g>
		<g>
			<path d="M19.171,0l1.111,6.124l0.949,5.511l1.05,6.108l1.015,5.952l0.973,5.74l1.005,5.937l1.012,5.985
				c0.384,2.273,0.72,4.463,0.981,6.84c1.169,0.008,1.3-0.921,1.756-1.777L53.141,1.16L53.474,0h21.35
				c-0.025,0.501-0.185,0.887-0.516,1.482L36.889,68.843c-0.323,0.581-0.759,1.059-1.43,1.059l-20.822,0.001
				c-0.781,0-1.27-0.56-1.39-1.226l-0.946-5.27l-1.033-5.45l-0.991-5.228l-0.99-5.226l-1.029-5.432l-0.953-5.03l-1.034-5.459
				l-1.03-5.433l-0.952-5.03l-1.025-5.424l-0.988-5.229l-0.957-5.07L0.684,2.159C0.113,1.483-0.214,0.896,0-0.004L19.171,0z"/>
			<path d="M215.157,0l-0.988,5.45l-0.895,4.613l-1.465,6.9l-20.762,0.028l-1.402,5.695l-1.016,4.742l-0.976,4.545l-0.938,4.352
				l-1.014,4.707l-1.015,4.716l-1.02,4.743l-0.977,4.542l-1.014,4.717l-1.02,4.743l-0.856,4.182
				c-0.138,0.676-0.563,1.228-1.366,1.228h-19.157c-0.254,0-0.865-0.257-0.898-0.491s0.058-0.641,0.145-1.044l10.841-50.38
				c0.042-0.195,0.008-0.702-0.128-0.758l-0.634-0.26l-20.094,0.02c-0.318-0.132-0.709-0.321-0.835-0.502
				c-0.101-0.145-0.056-0.546-0.005-0.789l3.2-15.7L215.157,0z"/>
			<path d="M142.951,0c0.125,0.598,0.055,1.338-0.104,2.048l-1.192,5.307l-0.986,4.512l-0.866,4.188
				c-0.104,0.505-0.486,1.033-1.216,1.033l-59.396,0.001c-0.598-0.158-0.813-0.535-0.72-0.959l0.749-3.412l1.034-4.708l0.991-4.512
				l0.776-3.496L142.951,0z"/>
			<path d="M133.788,43.815l-60.121-0.002c-0.713,0-0.676-1.017-0.574-1.454l1.147-4.908l1.028-4.735l0.944-4.541
				c0.138-0.666,0.474-1.488,1.382-1.488l59.184-0.002c0.644,0,0.997,0.56,0.887,1.037l-0.913,3.946l-1.073,4.936l-0.868,4.113
				C134.587,41.776,134.411,42.666,133.788,43.815z"/>
			<path d="M68.802,69.905c-0.563,0-1.051-0.617-0.986-0.905l0.883-3.955l1.106-5.129l1.242-5.757c0.17-0.79,0.389-1.31,1.427-1.309
				l59.157,0.001c0.56,0,0.849,0.562,0.757,0.992l-3.197,15.019c-0.07,0.327-0.545,1.042-0.93,1.042L68.802,69.905z"/>
		</g>
	</g>
	<g>
		<path d="M302.741,97.966c-0.113,0.533-0.31,1.048-0.632,1.634H12.084c-0.255-0.65-0.341-1.255-0.349-1.913l0.005-14.375
			c0-0.46,0.437-0.976,1.035-0.976l292.494,0.001c0.511,0,0.622,0.842,0.546,1.182l-1.188,5.327l-1.032,4.947L302.741,97.966z"/>
		<path d="M374.862,84.354c0.363-1.525,1.409-2.335,3.01-1.971c0.204-0.272,1.524,0.311,1.345,0.7l-7.58,16.501l-3.906,0.015
			l0.041-10.057l-0.05-0.607c-0.013-0.159-0.601-0.114-0.661,0.034l-1.278,3.17l-3.257,7.482l-3.897-0.033l-0.225-3.578
			l-0.157-6.806l-0.14-6.333c1.083-0.882,3.671-0.793,3.768,0.279l-0.218,9.744l0.295,0.641c0.07,0.153,0.436-0.171,0.575-0.339
			l3.271-8.216c0.295-0.74,0.714-2.219,1.524-2.465c0.992-0.302,2.16-0.178,3.293-0.108c0.309,0.571,0.351,1.376,0.325,2.098
			l-0.268,7.439c-0.02,0.552,0.121,1.16,0.732,1.338l1.843-4.933L374.862,84.354z"/>
		<path d="M457.125,99.568l-7.93,0.052c-0.299-0.512-0.334-1.333-0.194-1.968l1.046-4.739l1.068-5.176l0.933-4.629
			c0.509-0.515,1.647-0.734,2.481-0.827c3.088-0.342,7.017,0.032,8.088,2.558c0.924,2.178-0.367,4.371-2.597,5.21
			c0.076,0.82,0.893,1.237,1.308,1.842c1.589,2.317,0.248,5.247-2.169,6.566L457.125,99.568z M457.522,88.801
			c1.068-0.359,1.835-1.438,1.439-2.475c-0.46-1.201-2.504-1.885-3.44-0.864c-0.781,0.852-0.912,2.388-0.624,3.498
			C455.661,89.174,456.678,89.084,457.522,88.801z M457.467,95.61c0.675-0.618,0.843-2.034,0.236-2.739
			c-0.859-0.998-2.52-1.428-3.753-0.789l-1.085,4.272C454.513,97.111,456.138,96.828,457.467,95.61z"/>
		<path d="M331.233,99.616l-3.36-0.024l0.258-2.375l0.871-3.882c0.12-0.535-0.61-0.979-1.035-0.98L324,92.347
			c-0.396-0.001-1.09,0.311-1.179,0.718l-1.417,6.53l-3.375,0.004c-0.072-0.577-0.097-1.201,0.012-1.699l1.077-4.949l1.032-4.967
			l1.036-4.978c0.136-0.653,1.76-0.76,2.376-0.674l0.99,0.138c0.259,0.036,0.352,0.822,0.284,1.1l-1.048,4.315
			c-0.148,0.61,0.467,1.11,0.957,1.111l4.183,0.012c0.562,0.002,1.108-0.672,1.233-1.3l0.962-4.817
			c0.429-0.471,1.57-0.705,2.28-0.57l1.12,0.214c0.237,0.045,0.314,0.71,0.251,0.996l-1.204,5.473l-0.989,4.781l-0.815,3.947
			L331.233,99.616z"/>
		<path d="M393.34,96.396c0.466,1.137,0.767,2.05,0.867,3.202l-3.633-0.011l-2.639-6.991c-1.407-0.11-1.994,1.148-2.227,2.196
			l-1.07,4.814l-3.259-0.029c-0.282-0.699-0.038-1.499,0.115-2.229l1.083-5.152l1.043-4.96c0.307-1.459,0.459-3.109,1.078-4.434
			c0.832-0.764,2.348-0.631,3.406-0.06c-0.069,2.219-1.644,6.291-1.054,6.121l0.815-0.236l5.201-6.181l3.851-0.129
			c0.451,0.989-0.321,1.299-0.803,1.797l-4.453,4.612c-0.892,0.924-0.892,1.39-0.428,2.525L393.34,96.396z"/>
		<path d="M347.665,96.541c-0.048-0.471-0.362-1.476-0.761-1.48l-3.407-0.031c-1.051-0.009-1.46,1.062-1.798,1.801l-1.277,2.788
			l-3.405-0.042c-0.279-0.661,0.044-1.195,0.35-1.799l7.241-14.298c0.166-0.328,0.71-1.086,1.073-1.094l3.335-0.066
			c0.303-0.006,0.921,0.496,0.953,0.782l0.669,5.947l0.881,8.501c0.072,0.69,0.064,1.336-0.061,2.046l-3.479,0.005L347.665,96.541z
			 M346.425,92.214c0.541-0.009,0.936-0.679,0.896-1.204l-0.277-3.626c-0.017-0.227-0.192-0.612-0.309-0.772
			c-0.087-0.119-0.58,0.177-0.647,0.326l-1.961,4.349c-0.064,0.142-0.097,0.53-0.045,0.659c0.053,0.129,0.474,0.302,0.634,0.299
			L346.425,92.214z"/>
		<path d="M476.573,96.815c-0.038-0.461-0.271-1.668-0.719-1.685l-3.292-0.129c-1.058-0.041-1.511,0.757-1.869,1.542l-1.389,3.044
			l-3.508,0.017c-0.045-0.884,0.215-1.379,0.587-2.112l6.027-11.898l1.798-3.215l3.694-0.052c0.397-0.006,0.949,0.643,0.992,1.049
			l0.554,5.227l0.848,8.534c0.088,0.884,0.159,1.591,0.006,2.461l-3.502-0.001L476.573,96.815z M476.162,91.782l-0.247-4.815
			c-0.009-0.182-0.46-0.674-0.577-0.543c-0.087,0.098-0.301,0.377-0.358,0.505l-1.493,3.313c-0.268,0.595-0.673,1.271-0.442,1.863
			C474.078,92.389,475.224,92.349,476.162,91.782z"/>
		<path d="M405.431,92.231c-1.488,0.061-2.131,2.84-1.346,4.191l4.911,0.004c0.213,0,0.708,0.144,0.873,0.246
			c0.206,0.127,0.349,0.703,0.286,0.942l-0.523,1.985l-10.244,0.002l0.238-2.37l0.906-4.359l1.069-5.144l0.924-4.392
			c0.15-0.71,0.971-1.025,1.645-1.018l8.277,0.085c0.755,0.812,0.215,2.941-0.846,2.976l-5.256,0.172
			c-0.687,0.022-1.792,3.363-0.641,3.423l4.691,0.244c0.908,0.047,0.659,2.784-0.311,2.824L405.431,92.231z"/>
		<path d="M432.492,99.574l-6.46,0.046l-1.219-1.091c-0.287-0.875,0.404-2.629,1.471-2.693c1.517,0.509,3.105,1.188,4.732,0.6
			c0.611-0.221,1.616-1.196,1.551-1.812c-0.233-2.195-4.194-2.544-5.479-5.422c-0.989-2.215,0.193-4.726,2.22-5.951
			c2.493-1.507,5.569-1.726,8.189-0.349c0.136,0.762-0.617,2.341-0.97,2.685c-0.633,0.617-3.237-1.398-5.427,0.456
			c-0.57,0.482-0.434,1.809,0.238,2.238l2.664,1.701c1.241,0.792,2.401,2.067,2.506,3.66c0.132,1.988-1.045,3.816-2.611,4.932
			L432.492,99.574z"/>
		<path d="M499.28,84.017l-6.429,8.532l-0.829,3.953l-0.702,3.1h-3.448l0.146-1.865c0.138-1.761,1.432-3.853,0.911-5.606
			l-2.814-9.474c1.289-0.403,2.59-0.45,3.72-0.092c1.211,2.453,0.895,5.784,1.828,6.27c0.203,0.106,0.711-0.235,0.832-0.446
			l2.105-3.67c0.394-0.687,1.039-1.932,1.795-2.203c0.89-0.293,2.333-0.267,3.151-0.046
			C500.376,82.694,499.585,83.612,499.28,84.017z"/>
		<path d="M419.491,88.347c-0.329,0.518-1.711,0.93-2.235,0.606c-0.928-0.575,0.838-2.116,1.49-4.678
			c0.366-1.44,1.192-2.236,2.703-2.246c0.415-0.003,1.26,0.085,1.287,0.409c0.027,0.329-0.153,1.039-0.328,1.315L419.491,88.347z"/>
	</g>
</g>
</svg>
