<?xml version="1.0" encoding="UTF-8"?>
<svg id="Layer_1" data-name="Layer 1" xmlns="http://www.w3.org/2000/svg" viewBox="0 0 297.95 109.63">
  <rect x="1" y="73.72" width="268.62" height="1.59"/>
  <g>
    <path d="M43.29,25.61l3.45,4.79c-3.34,2.93-7.69,3.95-12.08,3.37-5.58-.74-9.78-4.87-10.47-10.46-.3-2.39.02-4.78.95-6.99,1.99-4.76,6.55-7.46,11.69-7.22,5.76.26,10.34,4.48,10.74,10.29l.06,3.76h-16.36c.31,1.5,1.23,2.56,2.45,3.39,3.07,1.64,6.56,1.47,9.58-.93ZM40.83,18.6c-.38-2.23-2.16-3.31-4.23-3.41-2.38-.11-4.67.99-5.31,3.48l9.54-.07Z"/>
    <polygon points="17.19 33.49 9.51 33.48 9.51 8.82 3.4 8.79 .21 2.02 26.82 2.03 26.8 8.77 17.2 8.83 17.19 33.49"/>
  </g>
  <g>
    <polygon points="97.94 2.05 105.62 2.04 96.17 33.42 90.27 33.47 83.23 16.85 76.75 33.5 70.7 33.47 61.23 2.06 69.1 2 74.72 21.75 76.74 16.05 80.45 6.13 86.7 6.19 92.37 21.6 97.94 2.05"/>
    <path d="M130.44,33.49l-7.25-.03-.06-14.44c0-2.22-1.26-3.93-3.84-3.8-1.61.08-4.1,1.22-4.12,3.22l-.15,15.02-7.21.03V.21s3.67-.21,3.67-.21l3.51.18.06,11.75c3.85-3.18,9.21-4.04,12.8-.81,1.63,1.46,2.24,3.51,2.53,5.65l.06,16.71Z"/>
    <path d="M158.61,33.43l-7.28.04-.3-2.42c-2.42,2.34-5.48,3.23-8.85,2.68-7.32-1.19-10.88-11.2-7.12-18.83,1.96-3.98,5.97-6.17,10.35-5.72,2.33.24,4.34,1.19,5.86,3.01l.24-2.52,7.14-.04-.03,23.8ZM150.62,25.24c1.17-2.14,1.18-4.58.35-6.75-.74-1.95-2.51-3.09-4.37-3.25-2.04-.17-3.97.71-4.97,2.61-1.3,2.46-1.2,5.6.35,7.91,1.04,1.56,2.82,2.13,4.62,2.01,1.5-.1,3.13-.92,4.01-2.53Z"/>
    <path d="M203.09,9.66v23.79s-6.82.02-6.82.02l-.39-2.66c-2.46,2.43-5.49,3.6-8.74,3.07-3.68-.6-6.08-3.28-6.79-6.98l-.12-17.25h7.27s.09,14.67.09,14.67c0,1.11.87,2.52,1.72,3.03,2.4,1.45,5.43.25,6.38-2.29l.06-15.4h7.33Z"/>
    <polygon points="173.02 33.44 165.71 33.48 165.71 15.97 161.54 15.93 161.5 9.63 165.71 9.66 165.71 3.62 173.03 3.62 173.07 9.65 177.71 9.62 177.71 15.9 173.02 15.99 173.02 33.44"/>
  </g>
  <g>
    <path d="M297.95,9.87v23.6s-7.51-.01-7.51-.01l-.25-2.46c-2.4,2.31-5.47,3.29-8.83,2.73-7.64-1.26-11.01-11.56-7.09-19.08,1.95-3.74,5.74-5.79,9.9-5.52,2.5.17,4.59,1.2,6.27,3.1l.14-2.59,7.38.23ZM289.35,25.75c1.9-2.7,1.75-6.36-.27-8.83-1.89-2.31-5.8-2.32-7.7,0-2.12,2.59-2.13,6.56-.01,9.15,2,2.44,6.13,2.32,7.98-.32Z"/>
    <path d="M253.13,17.61c0,9.09-7.38,16.46-16.49,16.46s-16.49-7.37-16.49-16.46,7.38-16.46,16.49-16.46,16.49,7.37,16.49,16.46ZM242.28,24.5c4-3.83,3.85-10.26-.13-13.91-3.44-3.16-9.09-2.67-11.98.98-2.67,3.37-2.76,8.24-.27,11.74,2.81,3.96,8.77,4.65,12.38,1.19Z"/>
    <path d="M263.28,33.44l-7.33.02V9.63s6.93.04,6.93.04l.32,3.16c2.39-3.13,6.04-4.49,9.72-3.27l-1.98,7.94c-1.27-.46-2.34-.69-3.53-.7-2.33.28-4.09,2.03-4.09,4.46l-.04,12.18Z"/>
  </g>
  <circle cx="134.08" cy="85.95" r="1.49"/>
  <g>
    <polygon points="112.9 65.34 109.53 65.38 99.36 52.03 99.77 65.4 96.05 65.39 96.05 46.34 99.35 46.28 109.5 59.85 109.2 46.34 112.84 46.24 112.9 65.34"/>
    <polygon points="16.98 65.19 13.33 65.48 13.3 57.52 4.63 57.51 4.64 65.37 1 65.35 .99 46.26 4.62 46.26 4.63 54.09 13.31 54.13 13.31 46.3 16.96 46.32 16.98 65.19"/>
    <path d="M263.73,65.42l-.33-1.56c-2.76,2.53-7.1,2.46-9.5-.58-2.54-3.22-2.39-8.03.56-10.91,2.5-2.45,6.21-2.23,9.05.01v-7.26s3.41,0,3.41,0v15.42c-.01,1.92,1.3,3.38,2.5,4.8l-5.69.08ZM262.21,61.84c1.62-1.85,1.92-4.48.64-6.51-.84-1.33-2.29-1.99-3.86-1.76-1.25.18-2.59,1.12-3.08,2.62-.82,2.52-.09,5.39,2.43,6.44,1.52.35,2.7.13,3.87-.8Z"/>
    <polygon points="177.06 65.4 161.94 65.41 162.05 62.71 171.87 49.64 162.67 49.54 162.72 46.25 176.77 46.26 176.75 48.82 166.93 61.99 177.1 62.08 177.06 65.4"/>
    <polygon points="148.75 50.99 152.27 50.93 147.4 65.34 144.96 65.4 141.5 57.53 138.26 65.33 135.81 65.38 130.96 50.98 134.43 50.92 137.43 60.21 140.49 53.27 142.65 53.12 145.8 60.1 148.75 50.99"/>
    <path d="M234.06,65.31l-3.41.11-.19-1.82c-1.45,1.49-3.22,2.2-5.32,2.02-1.72-.15-3.46-1.22-4.52-2.91-1.73-2.75-1.73-6.2-.1-9.02,1-1.73,2.79-2.77,4.41-2.99,2.24-.3,4,.3,5.5,1.82l.26-1.62,3.36.02v14.38ZM230.01,60.86c.96-1.5.97-3.36.29-4.88-.64-1.42-1.9-2.27-3.29-2.36s-2.88.63-3.6,1.98c-.82,1.54-.84,3.36-.09,4.93.63,1.32,1.94,2.09,3.25,2.14s2.63-.52,3.45-1.8Z"/>
    <path d="M210.11,65.31l-3.39.15-.04-1.93c-1.78,1.6-3.76,2.46-6.17,1.99-1.88-.37-3.62-1.86-4.47-3.9-1.15-2.74-1.01-5.75.68-8.22,1.09-1.58,2.79-2.58,4.43-2.75,2.12-.22,3.99.36,5.32,2l.3-1.75,3.34.02v14.37ZM206.27,60.41c.79-1.69.64-3.59-.32-5.06-.77-1.19-2.04-1.8-3.39-1.74-1.18.05-2.36.72-3.06,1.86-1.12,1.82-.98,4.24.39,5.9.88,1.05,2.17,1.45,3.52,1.23,1.08-.17,2.25-.91,2.85-2.2Z"/>
    <path d="M50.31,65.32l-3.37.1-.27-1.8c-2.69,2.87-7.1,2.73-9.43-.39s-2.32-7.18,0-10.2,6.76-3.25,9.46-.49l.24-1.62h3.36s.02,14.4.02,14.4ZM46.96,58.26c.04-1.81-.65-3.31-1.99-4.09s-2.98-.84-4.27.21c-2.36,1.9-2.3,5.8.14,7.62,1.31.98,3.01.82,4.28.01,1.17-.74,1.81-2.09,1.85-3.75Z"/>
    <path d="M80.75,65.4l-.03-9.19c0-1.6-1.21-2.71-2.88-2.62-1.43.08-3.22,1.08-3.23,2.69l-.08,9.11-3.4-.03-.04-20.23,3.46-.02v7.55c2.05-1.99,4.94-2.8,7.47-1.28,1.03.62,2.02,2.13,2.03,3.43l.06,10.57h-3.37Z"/>
    <path d="M127.64,61.1l1.8,2.42c-2.89,2.34-6.83,2.88-10.03,1.07-2.94-1.66-4-5.1-3.3-8.26.82-3.69,3.84-5.93,7.65-5.71,4.19.24,6.88,4.06,6.1,8.28l-10.56.03c.33,2.1,1.83,3.27,3.62,3.61,1.71.27,3.14.03,4.72-1.44ZM126.69,56.6c-.38-2.3-1.94-3.05-3.69-2.99-1.75.11-3.28,1.03-3.67,3.02l7.36-.03Z"/>
    <path d="M191.06,61.03l1.74,2.5c-2.81,2.34-6.91,2.91-10.18.97-2.49-1.48-3.53-4.27-3.31-7.09.35-4.4,4.08-7.39,8.52-6.7,3.81.6,6.17,4.33,5.44,8.21l-10.55-.02c.13,1.91,1.65,3.34,3.57,3.62,1.8.38,3.56-.17,4.78-1.5ZM190.04,56.58c-.28-2.22-1.77-2.95-3.45-2.97-1.91-.02-3.54,1.14-3.82,3.04l7.27-.06Z"/>
    <path d="M26.35,62.51c1.9.43,3.56-.12,4.9-1.39l1.83,2.37c-2.42,1.98-5.62,2.74-8.62,1.76-3.34-1.1-5.21-4.12-4.94-7.6.21-2.71,1.7-5.2,3.99-6.28,2.57-1.22,5.6-1.03,7.76.82,1.93,1.65,2.63,4.18,2.26,6.69l-10.66.07c.37,1.97,1.67,3.16,3.49,3.57ZM30.31,56.6c-.23-1.89-1.82-3.14-3.79-3-1.82.13-3.33,1.21-3.57,3.04l7.36-.04Z"/>
    <path d="M240.85,55.53c-.56,3.31-.1,6.47-.31,9.85l-3.35.02.03-14.45,3.15-.03.26,1.76c1.28-1.23,2.69-2,4.54-2.05,2.34-.06,4.79,1.55,4.84,4.11l.18,10.63-3.4.04-.09-9.56c0-.9-.68-1.67-1.6-2.04-1.21-.49-3.96.02-4.25,1.74Z"/>
    <polygon points="65.71 65.35 62.33 65.35 62.33 54.06 59.49 54.09 59.44 50.93 62.33 50.91 62.34 47.31 65.7 47.32 65.68 50.92 68.89 50.91 68.91 54.06 65.68 54.1 65.71 65.35"/>
    <rect x="45.26" y="53.5" width="20.3" height="3.53" transform="translate(.14 110.66) rotate(-89.99)"/>
    <rect x="213.47" y="45.11" width="3.45" height="20.29"/>
  </g>
  <g>
    <path d="M78.8,109.62h-3.72s-3.37-1.53-3.37-1.53l1.04-1.69c2.38,1.64,5.41,2,7.53.12,1.32-1.17,1.44-3.12,1.16-4.86-1.87,1.98-4.3,2.81-6.93,1.95-4.22-1.38-5.55-6.63-3.5-10.39,1.05-1.92,2.93-3.04,4.87-3.24,2.2-.22,4.03.63,5.54,2.25l.32-2.06,1.81.25v12.94c-.02,3.04-2.05,5.41-4.75,6.27ZM81.84,96.94c0-2.75-2.23-4.97-4.98-4.97s-4.98,2.23-4.98,4.97,2.23,4.97,4.98,4.97,4.98-2.23,4.98-4.97Z"/>
    <polygon points="21.12 85.82 23.36 85.7 17.95 103.51 16.2 103.67 11.56 92.92 7.16 103.53 5.37 103.56 0 85.73 2.16 85.66 6.49 100.35 10.59 89.94 12.59 89.82 16.81 100.37 21.12 85.82"/>
    <path d="M99.41,103.37l-1.89.37-.28-2.08c-1.65,1.83-3.85,2.66-6.31,2.09-2.04-.47-3.79-2.14-4.44-4.42-.68-2.41-.39-5,1.16-7.01,1.18-1.53,2.95-2.33,4.75-2.38s3.56.76,4.84,2.24l.27-1.92,1.9.02v13.09ZM97.78,96.94c0-2.72-2.21-4.93-4.94-4.93s-4.94,2.21-4.94,4.93,2.21,4.93,4.94,4.93,4.94-2.21,4.94-4.93Z"/>
    <path d="M52.73,103.48l-1.99.28-.12-2.18c-1.44,1.54-3,2.41-5.04,2.36-1.89-.05-3.79-.97-4.9-2.72-1.5-2.36-1.64-5.29-.42-7.78.93-1.92,2.68-3.12,4.48-3.41,2.3-.37,4.24.4,5.9,2.17l.12-1.94,1.94.03v13.19ZM50.61,98.58c.3-1.09.27-2.41-.02-3.38-.61-2.04-2.33-3.34-4.28-3.39s-3.69,1.07-4.43,2.99c-.51,1.35-.52,2.93,0,4.28.75,1.97,2.59,3.14,4.57,2.99s3.59-1.4,4.16-3.48Z"/>
    <path d="M34.98,103.73v-8.01c0-1.16-.32-2.61-1.24-3.33-1.16-.92-2.62-.75-3.89-.15-.97.46-2.15,1.64-2.16,3l-.05,8.43-1.91-.03v-18.9s1.93-.04,1.93-.04l.02,7.55c1.49-1.56,3.21-2.5,5.3-2.28s3.79,1.72,3.83,3.9l.19,9.78-2.02.08Z"/>
    <path d="M64.21,92.22c-2.25-1.06-4.63-.21-5.74,1.93l-.25,9.5h-1.95s0-13.37,0-13.37l1.91-.05.14,1.95c1.99-2.22,5.04-3.05,7.45-1.39,1.43.98,1.71,2.82,1.71,4.43v8.38s-2.02.08-2.02.08v-8.69c0-1.06-.4-2.02-1.24-2.78Z"/>
    <path d="M104.99,94.45l-.06,9.16-2.01.09v-13.36s1.83-.17,1.83-.17l.28,2.01c1.29-1.39,2.84-2.24,4.77-2.24,2.3,0,4.28,1.75,4.3,4.12l.06,9.59-1.95.03-.05-9.1c0-.76-.63-1.99-1.23-2.3-2.27-1.2-4.85-.15-5.93,2.18Z"/>
    <path d="M128.99,90.29v13.34s-1.86.08-1.86.08l-.32-1.86c-1.98,2.19-5.06,2.89-7.45,1.07-.98-.75-1.64-2.3-1.64-3.56l-.02-9.08h1.98s.04,8.78.04,8.78c0,.89.68,1.92,1.22,2.53,1.25.65,2.31.71,3.72.28.72-.4,2.24-1.34,2.25-2.57l.11-9h1.97Z"/>
    <rect x="133.07" y="90.27" width="2.01" height="13.43"/>
  </g>
</svg>