<?xml version="1.0" encoding="iso-8859-1"?>
<!-- Generator: Adobe Illustrator 30.6.0, SVG Export Plug-In . SVG Version: 9.03 Build 0)  -->
<svg version="1.1" id="Layer_1" xmlns="http://www.w3.org/2000/svg" xmlns:xlink="http://www.w3.org/1999/xlink" x="0px" y="0px"
	 viewBox="0 0 491.334 145.761" style="enable-background:new 0 0 491.334 145.761;" xml:space="preserve">
<g>
	<path d="M77.391,3.271l0.773,0.22c36.474,2.176,64.948,32.388,65.154,68.429c0.586,36.041-27.259,66.794-63.69,69.837l-2.014,0.168
		l-7.162-0.002l-2.051-0.16c-34.31-2.679-61.54-30.325-63.708-64.582l-0.226-0.119l0.143-8.578
		C6.97,33.091,35.021,5.315,70.483,3.393L77.391,3.271z M54.064,85.612c-2.011,3.411-2.265,7.258-1.35,11.081l1.389,5.805
		c0.182,0.76-0.175,2.06-0.751,2.47l-3.434,2.444c-0.413,0.294-0.845,1.325-0.75,1.808c0.244,1.246,3.702,2.386,2.65,5.159
		c-0.206,0.543-1.255,1.113-1.667,1.624c-0.398,0.494,0.48,1.45,0.949,1.641l1.808,0.739l-1.587,1.625
		c-0.246,0.252-0.055,1.271,0.262,1.384l1.159,0.412c0.477,0.169,1.014,0.318,1.253,0.553c0.746,0.734-1.985,3.462,0.48,6.138
		c1.611,1.748,3.967,2.336,6.351,1.95c4.378-0.708,9.555-0.605,12.634,2.531c1.976,2.012,2.748,4.724,2.801,7.637
		c24.476-0.766,46.804-14.839,58.131-36.675c10.906-21.023,10.198-46.253-2.483-66.917C120.746,18.832,100.643,6.173,78.606,4.902
		c3.466,1.466,1.998,2.975,2.284,5.864c3.293,4.735,7.002,10.591,7.865,16.148c0.737,4.744-3.653,5.634-1.634,9.071
		c1.381,2.352,3.369,4.235,5.407,6.06l3.18,2.848c0.632,0.566,1.065,1.456,0.876,2.292c-0.125,0.552-0.763,1.279-1.35,1.677
		l-3.139,2.128c-0.999,0.678-1.099,2.009-0.407,2.928l1.745,2.319c-0.067,1.602-1.297,2.153-2.956,2.168l1.138,0.896
		c0.529,0.416,0.976,1.106,0.894,1.809c-0.189,1.611-3.144,2.417-3.214,4.29c-0.043,1.142,0.453,2.452,0.693,3.566
		c0.717,3.317-1.308,6.117-4.669,6.504c-5.142,0.593-9.842-0.576-15.117-0.377C63.049,75.365,57.591,79.627,54.064,85.612z"/>
	<path d="M379.99,127.358l-9.761,0.011l2.003-0.713c0.403-0.143,0.657-1.237,0.656-1.682l-0.006-12.922
		c0-0.461-0.259-1.238-0.548-1.485c-0.334-0.285-0.954-0.381-1.682-0.405l-0.362-0.44l9.441,0.065
		c5.396,0.037,8.682,3.878,8.445,9.38C387.983,123.653,384.702,127.126,379.99,127.358z M384.968,116.319
		c-0.387-2.159-1.765-3.943-3.326-4.827c-2.048-1.161-4.287-1.121-6.227-0.464v15.144c2.079,0.622,4.314,0.665,6.331-0.543
		C384.859,123.764,385.611,119.912,384.968,116.319z"/>
	<path d="M219.936,127.298l-10.173,0.066l1.906-0.672c0.432-0.152,0.718-1.184,0.717-1.72l-0.012-13.088
		c0-0.365-0.291-1.094-0.535-1.321c-0.284-0.264-0.973-0.379-1.653-0.396l-0.396-0.444l9.461,0.069
		c2.128,0.015,4.265,0.674,5.8,2.108c2.112,1.973,2.815,4.758,2.595,7.605C227.325,123.651,224.322,126.928,219.936,127.298z
		 M224.421,121.008c0.437-2.089,0.303-4.074-0.315-5.994c-1.442-3.706-5.383-5.305-9.188-4.001l-0.009,15.122
		C219.058,127.637,223.478,125.519,224.421,121.008z"/>
	<path d="M250.287,118.703v6.797c0,0.517,0.511,1.112,1.011,1.11l4.311-0.017c3.054-0.012,3.142-2.673,4.804-3.747l-1.483,4.61
		l-13.698-0.048l1.52-0.571c0.558-0.21,1.023-0.885,1.022-1.604l-0.008-13.204c0-0.474-0.205-1.39-0.572-1.525l-1.987-0.73
		l13.706-0.073l0.139,3.895c-1.163-0.377-0.305-3.057-3.421-3.037l-5.349,0.033v7.236l4.615-0.003
		c1.277-0.001,1.756-1.096,2.01-2.098l0.127-0.499c0.03-0.117,0.403,0.203,0.403,0.317l0.005,5.433c0,0.079-0.244,0.455-0.288,0.39
		c-0.504-0.728-0.302-2.665-2.256-2.665L250.287,118.703z"/>
	<path d="M410.785,118.706v6.797c0,0.484,0.505,1.123,0.992,1.118l4.732-0.057c2.629-0.031,2.945-2.978,4.404-3.676l-1.492,4.57
		l-13.681-0.063c0.94-0.558,2.48-0.477,2.484-1.678l0.042-13.68c0.001-0.486-0.221-1.401-0.586-1.534l-1.993-0.727l13.739-0.077
		c0.063,1.342,0.144,2.768,0.006,4.071c-0.912-1.382-0.802-3.078-2.421-3.102l-6.224-0.094l-0.008,7.275l4.826-0.059
		c1.542-0.019,1.48-1.423,2.175-2.741l0.172,5.778c0.004,0.15-0.217,0.623-0.293,0.53c-0.525-0.643-0.262-2.651-2.28-2.65
		L410.785,118.706z"/>
	<path d="M314.937,121.452l-1.569,3.781c-0.101,0.244-0.111,0.895,0.04,1.111c0.577,0.827,1.835,0.356,2.029,1.047l-5.854-0.042
		c1.367-0.707,2.046-1.108,2.55-2.272l6.981-16.12l6.864,16.179c0.517,1.219,1.311,1.529,2.733,2.238l-7.184,0.068
		c0.12-0.168,0.418-0.418,0.588-0.487l0.98-0.398c0.278-0.113,0.301-1.01,0.175-1.327l-1.479-3.725L314.937,121.452z
		 M321.409,120.619l-3.007-7.064l-3.095,7.055L321.409,120.619z"/>
	<path d="M179.482,121.469l-1.614,3.814c-0.19,0.449,0.158,1.357,0.544,1.463c0.696,0.191,1.009,0.253,1.569,0.596l-5.903-0.007
		c1.16-0.644,1.974-0.869,2.412-1.876l7.158-16.469l6.835,16.083c0.532,1.253,1.323,1.601,2.784,2.287l-7.271,0.066
		c0.033-0.62,0.797-0.263,1.683-0.908c0.216-0.157,0.29-0.861,0.186-1.121l-1.572-3.926L179.482,121.469z M185.912,120.575
		l-2.978-7.068l-3.094,7.137L185.912,120.575z"/>
	<path d="M292.931,122.477l-1.463,4.992l-13.843-0.056l2.145-0.849c0.413-0.164,0.514-1.383,0.538-1.802l-0.002-12.489
		c-0.045-0.545-0.241-1.621-0.679-1.77l-2.049-0.696l8.265-0.079c-0.165,0.892-3.026-0.15-3.026,2.411l-0.004,13.195
		c0,0.36,0.457,1.154,0.792,1.18c2.061,0.16,4.215,0.157,6.132-0.212C291.455,125.522,291.549,124,292.931,122.477z"/>
	<path d="M353.031,127.34l-7.483,0.014l1.847-0.696c0.402-0.152,0.649-1.151,0.648-1.668l-0.033-13.435
		c-0.003-1.281-1.453-1.193-2.559-1.724l7.698-0.004l-1.831,0.634c-0.416,0.144-0.751,0.985-0.748,1.572l0.078,13.881
		C350.654,126.888,352.306,126.922,353.031,127.34z"/>
	<g>
		<path d="M198.21,32.19l4.245-10.942c0.008-0.458-0.039-1.261-0.236-1.576c-0.188-0.299-0.774-0.443-1.42-0.511
			c-0.096-0.075-0.264-0.308-0.51-0.708l5.549-0.011c0.469,1.016-1.153,0.352-1.825,2.075l-7.788,19.948l-5.567-13.996
			l-6.139,13.972l-8.091-19.611c-0.891-2.16-2.391-1.322-2.066-2.387l9.026-0.007c0.053,0.036,0.311,0.492,0.187,0.526l-0.631,0.171
			c-0.323,0.088-0.928,0.243-1.047,0.502c-0.12,0.259-0.113,0.847-0.104,1.264l4.854,11.916l3.347-7.975l-1.783-4.319
			c-0.377-0.914-1.431-1.436-2.448-1.415l-0.125-0.67l10.335,0.015c0.182,1.032-0.88,0.404-2.02,1.003
			c-0.264,0.139-0.333,0.983-0.224,1.264L198.21,32.19z"/>
		<path d="M327.341,34.524l2.689,1.978c1.693,1.246,3.426-1.158,3.448-1.145l0.557,0.342c-0.781,1.351-1.605,2.737-2.949,3.657
			c-1.366,0.935-3.413,1.066-4.761,0.13l-2.635-1.828c-4.372,3.164-11.509,3.495-13.34-1.084c-1.636-4.092,1.746-7.194,6.09-8.916
			c-0.538-1.754-1.026-3.599-0.538-5.398c0.753-2.771,3.368-4.327,6.162-4.251c1.614,0.044,3.114,0.483,4.088,1.82
			c1.026,1.408,0.747,3.465-0.563,4.708c-1.207,1.146-2.67,1.748-4.334,2.478c1.498,2.4,3.164,4.456,5.138,6.598
			c1.555-1.51,2.911-4.076,2.067-5.194c-0.681-0.902-1.908-0.464-1.454-1.428l6.433-0.005l0.074,0.658
			c-1.266,0.111-2.035,0.825-2.718,1.826L327.341,34.524z M323.205,24.224c0.651-1.465,0.141-3.014-0.69-4.139
			c-0.495-0.67-1.376-0.951-2.12-0.644c-1.972,0.814-0.93,4.087,0.31,6.557C321.631,25.7,322.777,25.186,323.205,24.224z
			 M318.983,37.578c1.363,0.354,2.689-0.284,3.689-0.941c-2.41-2.523-4.265-5.062-5.741-7.927c-1.189,0.504-2.391,1.297-2.45,2.674
			C314.365,34.08,316.229,36.863,318.983,37.578z"/>
		<path d="M230.579,39.631c-0.184,0-0.305-0.621-0.153-0.651c0.664-0.082,1.431-0.696,1.43-1.439l-0.017-8.888
			c-0.001-0.416-0.377-1.134-0.655-1.385c-1.111-1.005-3.458,1.013-3.464,1.809l-0.053,8.249c-0.012,1.774,1.894,1.282,1.626,2.287
			l-7.443,0.018c-0.827-0.899,1.436-0.407,1.434-2.322l-0.01-9.851c-0.002-1.714-1.845-1.125-1.617-2.154l5.994-0.025l0.148,1.815
			c1.24-1.33,2.544-2.201,4.309-2.245c1.794-0.045,3.261,0.902,3.894,2.723c2.034-2.64,5.508-3.659,7.519-1.806
			c0.668,0.615,1.266,1.843,1.274,2.949l0.069,8.82c0.011,1.432,1.297,1.095,1.619,1.755c0.054,0.111-0.358,0.344-0.529,0.343
			l-7.171-0.025l0.379-0.76c0.678-0.093,1.268-0.743,1.267-1.41l-0.008-8.866c0-0.317-0.29-0.945-0.46-1.172
			c-0.696-0.929-2.705-0.145-3.726,1.556l-0.005,8.295c-0.001,2,2.225,1.417,1.51,2.364L230.579,39.631z"/>
		<path d="M411.175,39.639c-2.726,1.166-5.475-0.271-6.645-2.801c-2.057-4.446-0.601-10.896,4.208-11.895
			c1.787-0.371,3.241,0.249,4.594,1.761l-0.01-6.202c-0.001-0.821-0.636-1.516-1.668-1.286l-0.52-0.759l6.64-0.024l-0.001,18.376
			c0,0.647,0.63,1.169,1.139,1.246l0.572,0.087c0.107,0.016,0.041,0.466,0.009,0.629l-6.147,1.276l-0.024-2.19
			C412.56,38.53,411.971,39.299,411.175,39.639z M413.337,35.571l-0.065-6.711c-0.008-0.794-1.65-3.551-3.419-2.796
			c-2.214,0.945-2.208,11.297,0.272,12.123C411.685,38.706,413.352,37.124,413.337,35.571z"/>
		<path d="M377.599,28.52c-0.001-0.486-0.406-1.172-0.696-1.345c-1.008-0.6-2.388,0.35-3.151,1.774l0.008,8.414
			c0.001,0.822,0.529,1.465,1.401,1.576l0.045,0.678l-7.308,0.013l-0.17-0.521c-0.081-0.249,1.609-0.128,1.609-1.574l0.002-16.766
			c0-0.971-0.496-1.595-1.529-1.667c-0.104-0.019,0.039-0.664,0.215-0.664l5.719,0.01l0.017,8.674
			c2.166-2.267,4.683-3.071,6.773-1.407c0.843,0.671,1.441,1.954,1.454,3.249l0.081,8.557c0.008,0.837,0.559,1.403,1.496,1.406
			l0.037,0.691l-7.344,0.009l-0.044-0.671c0.819-0.162,1.402-0.822,1.401-1.638L377.599,28.52z"/>
		<path d="M351.359,34.964c0.932,2.431,3.039,3.686,5.491,3.789c3.073,0.128,5.383-1.378,7.496-3.815l0.058,1.725
			c-4.408,4.891-13.536,4.341-17.436-0.524c-3.341-4.167-3.076-10.018,0.408-14.083c3.585-4.183,9.357-5.086,14.362-2.795
			c0.395,0.181,1.191,0.277,1.54,0.163c0.865-0.282,0.619-1.815,1.501-1.264l0.001,7.072c-0.246,0.039-0.637,0.081-0.675-0.055
			l-0.187-0.668c-0.851-3.044-3.434-5.159-6.473-5.196c-3.081-0.037-5.664,2.064-6.547,5.138
			C349.917,27.868,350.044,31.535,351.359,34.964z"/>
		<path d="M268.46,37.192c-0.004,0.975,0.496,1.646,1.396,1.743l0.02,0.692l-7.411-0.022c-0.336-0.96,1.568-0.514,1.568-2.052
			l0.003-10.097c0.001-1.546-1.578-1.435-1.579-1.642l-0.002-0.523l6.015-0.002l0.026,1.881c1.619-1.812,3.454-2.769,5.654-2.119
			c1.529,0.452,2.508,2.038,2.523,3.678l0.082,8.8c0.014,1.522,1.684,1.332,1.591,1.59l-0.183,0.508l-7.221-0.005l-0.032-0.663
			c0.77-0.156,1.404-0.806,1.402-1.594l-0.019-8.971c-0.001-0.334-0.434-1.026-0.701-1.219c-1.108-0.799-3.095,1.291-3.1,2.396
			L268.46,37.192z"/>
		<path d="M455.073,37.23c-0.004,0.942,0.5,1.633,1.411,1.703l0.04,0.684l-7.306,0.013l-0.171-0.52
			c-0.081-0.246,1.608-0.135,1.608-1.551v-10.11c0-0.604-0.464-1.242-0.918-1.393l-0.678-0.225c-0.119-0.04,0.131-0.539,0.25-0.539
			l5.679-0.004l0.15,1.859c1.199-1.284,2.337-2.12,3.912-2.283c2.399-0.249,4.214,1.504,4.238,3.918l0.088,8.742
			c0.008,0.846,0.563,1.408,1.506,1.406l0.034,0.692l-7.335,0.007c-0.046-0.064-0.072-0.615,0.01-0.674
			c0.633-0.123,1.403-0.855,1.321-1.631l0.002-8.921c-0.161-0.415-0.445-0.987-0.691-1.208c-1.003-0.899-3.112,1.342-3.115,2.235
			L455.073,37.23z"/>
		<path d="M212.326,40.035c-1.784-0.065-3.337-0.52-4.497-1.774c-3.01-3.254-3.065-8.653,0.271-11.784
			c2.959-2.776,7.986-1.931,10.059,1.475c1.61,2.644,1.615,5.92,0.268,8.581C217.254,38.852,215.025,40.133,212.326,40.035z
			 M214.416,37.193c0.389-3.253,0.532-6.445,0.032-9.527c-0.16-0.988-1.14-1.731-1.874-1.73c-0.894,0.001-1.812,0.621-1.97,1.655
			c-0.484,3.175-0.557,6.452-0.071,9.626c0.16,1.044,1.18,1.755,2.026,1.741C213.351,38.944,214.286,38.272,214.416,37.193z"/>
		<path d="M259.628,35.699l0.446-0.533c0.105-0.125,0.419,0.592,0.327,0.751c-0.415,0.715-1.244,2.065-1.99,2.719
			c-2.276,1.992-5.874,1.887-8.018-0.158c-3.195-3.048-3.043-10.696,1.949-13.057c2.776-1.313,5.836-0.322,7.266,2.405
			c0.625,1.192,0.838,2.544,0.95,4.092l-7.997,0.013c-0.078,3.009,1.982,6.012,4.724,5.483
			C258.115,37.255,258.962,36.493,259.628,35.699z M256.687,30.843c0.069-2.328-0.27-4.861-1.916-4.93
			c-1.641-0.069-2.446,2.549-2.364,4.926L256.687,30.843z"/>
		<path d="M439.415,31.933c-0.13,2.929,1.823,5.904,4.545,5.507c0.915-0.134,1.809-0.887,2.459-1.725l0.374-0.483
			c0.075-0.097,0.448,0.033,0.444,0.156c-0.043,1.324-2.09,3.899-4.116,4.409c-2.308,0.58-4.497,0.128-6.01-1.415
			c-3.105-3.167-2.914-10.785,2.279-13.048c2.57-1.12,5.458-0.251,6.886,2.205c0.736,1.266,0.987,2.724,1.113,4.381L439.415,31.933z
			 M443.51,30.844c0.119-2.473-0.402-5.089-2.093-4.927c-1.589,0.152-2.248,2.677-2.178,4.922L443.51,30.844z"/>
		<path d="M394.03,39.627l0.308-0.771c1.033,0.035,1.509-0.674,1.509-1.513l-0.002-16.63c0-0.842-0.497-1.561-1.488-1.508
			l-0.361-0.752l6.245-0.018l0.008,18.842c0,0.823,0.407,1.607,1.366,1.548l0.488,0.786L394.03,39.627z"/>
		<path d="M484.041,31.337c2.137,1.522,2.861,3.753,1.89,5.919c-0.971,2.167-3.297,3.264-5.713,2.575l-2.282-0.65l-1.239,1.02
			l-0.129-5.556c1.339,1.899,1.865,3.574,3.958,4.203c0.822,0.247,1.812,0.021,2.249-0.76c0.294-0.527,0.135-1.723-0.502-2.186
			l-3.891-2.831c-1.352-0.984-2.248-2.401-2.162-4.046c0.078-1.488,0.912-3.063,2.426-3.758c1.686-0.774,3.539-0.407,5.098,0.526
			l1.525-1.117l0.174,5.585l-1.679-2.591c-0.57-0.88-1.547-1.637-2.655-1.734c-0.569-0.05-1.299,0.386-1.554,0.829
			c-0.237,0.412,0.023,1.393,0.502,1.735L484.041,31.337z"/>
		<path d="M297.321,31.436c1.935,1.385,2.633,3.432,1.909,5.456c-0.727,2.035-2.652,3.423-5.017,3.097l-2.136-0.546
			c-0.258-0.066-0.816-0.337-1.001-0.192l-1.176,0.923l-0.319-4.758c-0.008-0.115,0.141-0.602,0.232-0.554
			c0.771,0.405,1.275,3.211,3.815,3.97c0.909,0.272,1.839,0.052,2.291-0.715c0.343-0.582,0.165-1.726-0.512-2.224l-3.995-2.942
			c-1.948-1.435-2.589-3.771-1.497-5.838c1.064-2.016,3.595-2.856,5.87-1.844c0.43,0.191,1.171,0.525,1.486,0.303l1.199-0.845
			l0.235,5.302c-1.161,0.019-1.134-3.176-3.975-4.023c-0.756-0.225-1.635,0.092-1.992,0.774c-0.318,0.608,0.069,1.426,0.755,1.917
			L297.321,31.436z"/>
		<path d="M421.501,39.633c-0.048-0.026-0.278-0.527-0.171-0.557l0.533-0.152c0.495-0.141,1.098-0.655,1.099-1.318l0.005-10.248
			c0.001-1.49-1.969-1.359-1.712-1.716c0.095-0.132,0.442-0.359,0.63-0.359l5.447,0.009l0.085,2.776
			c1.58-2.308,4.267-4.141,5.884-2.81c0.41,0.337,0.659,1.087,0.644,1.75c-0.017,0.717-0.536,1.567-1.061,1.777
			c-1.449,0.577-2.279-0.694-3.216-0.916c-1.012-0.24-2.26,2.009-2.272,4.132l-0.031,5.551c-0.004,0.803,0.564,1.447,1.599,1.291
			l0.403,0.766L421.501,39.633z"/>
		<path d="M385.192,39.63c-0.041-0.059-0.233-0.534-0.119-0.564l0.592-0.152c0.506-0.13,1.173-0.72,1.173-1.377l0.003-10.072
			c0-0.648-0.619-1.348-1.116-1.456l-0.62-0.135c-0.165-0.036,0.169-0.593,0.389-0.592l5.735,0.014l0.033,12.055
			c0.002,0.828,0.464,1.561,1.496,1.502l0.329,0.758L385.192,39.63z"/>
		<path d="M284.115,28.127l-0.862,0.076l-1.927-7.039c-0.065-1.073,0.135-2.115,0.91-2.7c0.779-0.588,1.953-0.627,2.857,0.001
			c0.726,0.504,1.029,1.719,0.804,2.765L284.115,28.127z"/>
		<path d="M470.946,28.099c0.061,0.11-0.809,0.129-0.892-0.036l-1.884-7.003c-0.305-1.133,0.314-2.133,0.944-2.607
			c0.809-0.609,1.97-0.549,2.73-0.051c0.876,0.573,1.071,1.756,0.881,2.817L470.946,28.099z"/>
		<ellipse cx="389.056" cy="20.265" rx="2.341" ry="2.338"/>
	</g>
	<g>
		<path d="M198.58,78.073l-11.111,0.02c-0.045-0.048-0.266-0.453-0.168-0.471l0.69-0.131c0.538-0.102,1.267-0.25,1.708-0.498
			c0.368-0.207,0.649-1.084,0.648-1.579l-0.014-7.59l-7.473-0.005l0.004,7.821c0,0.876,0.663,1.586,1.48,1.702l1.519,0.215
			l-0.005,0.522l-11.137,0.001l-0.007-0.521l1.54-0.214c0.827-0.115,1.464-0.817,1.464-1.718l0.005-16.059
			c0-0.523-0.23-1.318-0.56-1.536c-0.342-0.226-1.195-0.45-1.592-0.455l-0.663-0.009c-0.156-0.002-0.158-0.346-0.13-0.643
			l11.017-0.001c0.033,0.119,0.129,0.602,0.026,0.608l-0.792,0.039c-0.403,0.02-1.262,0.225-1.583,0.456s-0.583,1.051-0.583,1.514
			l-0.009,7l7.505-0.004l-0.078-7.595c-0.011-1.076-1.524-1.332-2.21-1.392l-0.711-0.062c-0.129-0.011,0.057-0.56,0.094-0.566
			l11.006,0.004c0.019,0.174,0.063,0.547-0.028,0.557l-0.695,0.07c-0.405,0.041-1.233,0.217-1.593,0.429
			c-0.375,0.221-0.677,1.045-0.677,1.613l-0.004,15.77c0,1.187,0.708,2.066,2.006,2.039
			C197.909,77.392,198.398,77.379,198.58,78.073z"/>
		<path d="M228.628,84.932c-1.658-0.679,1.302-0.412,1.301-2.166l-0.001-16.699c0-0.808-0.531-1.466-1.217-1.598l-0.533-0.102
			c-0.128-0.025-0.019-0.449,0.026-0.606l6.083-0.014l0.132,1.716c1.071-1.36,2.384-2.178,4.059-2.135
			c1.528,0.039,3.051,0.762,4.024,2.23c2.075,3.131,2.062,7.444,0.076,10.655c-0.859,1.389-2.366,2.094-3.673,2.252
			c-1.778,0.215-3.139-0.34-4.538-1.784l-0.012,5.993c-0.004,1.937,2.731,1.602,2.28,1.936l-0.441,0.326L228.628,84.932z
			 M237.903,77.258c0.289-0.2,0.823-0.798,0.922-1.182c0.904-3.498,0.959-10.049-1.236-10.913c-1.621-0.637-3.22,1.478-3.222,2.308
			l-0.019,8.049C235.371,76.945,236.974,77.902,237.903,77.258z"/>
		<path d="M267.328,77.736c-1.761-1.694-0.525-4.685,1.127-5.577l5.665-3.058c0.097-1.171,0.205-2.747-0.255-3.78
			c-0.574-1.287-3.134-1.112-3.658-0.06c-0.366,0.736,1.249,1.486,0.892,2.937c-0.13,0.531-0.83,1.143-1.448,1.288
			c-1.377,0.323-2.916-0.549-2.891-1.996c0.056-3.173,5.332-4.99,8.98-3.796c1.281,0.419,2.713,1.6,2.737,3.067l0.154,9.294
			c0.405,0.362,1.144,0.171,1.913-0.041c-0.613,1.704-2.262,2.645-4.033,2.485c-1.288-0.116-2.15-0.979-2.332-2.291
			C271.916,78.177,269.073,79.415,267.328,77.736z M274.033,74.938c0.295-1.51,0.153-3.047,0.104-4.71
			c-1.382,0.76-2.484,1.717-3.15,2.971c-0.49,0.922-0.159,2.024,0.539,2.511C272.079,76.096,273.83,75.978,274.033,74.938z"/>
		<path d="M206.816,78.514c-2.381-0.03-4.244-0.986-5.44-2.906c-2.111-3.388-1.79-8.157,1.388-10.859
			c2.797-2.377,7.362-1.746,9.509,1.2c1.975,2.712,2.002,6.383,0.494,9.247C211.604,77.406,209.379,78.546,206.816,78.514z
			 M208.892,75.506c0.342-3.169,0.427-6.24,0.032-9.235c-0.136-1.033-1.065-1.832-1.889-1.866c-0.88-0.036-1.857,0.663-2.008,1.708
			c-0.457,3.156-0.534,6.391-0.076,9.524c0.158,1.078,1.187,1.852,2.062,1.802C207.867,77.39,208.771,76.62,208.892,75.506z"/>
		<path d="M281.863,78.091c-0.064-0.184-0.147-0.581-0.047-0.606l0.526-0.131c0.57-0.142,1.165-0.746,1.165-1.489l0.003-16.53
			c0-0.864-0.481-1.536-1.217-1.703l-0.558-0.127c-0.154-0.035,0.168-0.587,0.374-0.587l5.792,0.002l0.015,18.936
			c0.001,0.816,0.553,1.392,1.179,1.533l0.502,0.113c0.094,0.021,0.071,0.358,0.056,0.577L281.863,78.091z"/>
		<path d="M223.931,69.755c1.981,1.422,2.854,3.33,2.155,5.487c-0.674,2.08-2.599,3.536-5.014,3.221l-2.465-0.648
			c-0.199-0.052-0.735-0.127-0.877,0.003l-0.972,0.894c-0.251-1.93-0.412-3.601-0.141-5.589c1.207,2.041,1.902,3.618,3.954,4.231
			c0.773,0.231,1.766-0.029,2.137-0.705c0.381-0.695,0.162-1.793-0.569-2.333l-3.987-2.945c-1.323-0.977-2.052-2.409-1.944-3.998
			c0.1-1.469,0.971-3.024,2.504-3.672c1.661-0.702,3.439-0.37,5.005,0.576l1.581-1.122l0.212,5.586
			c-1.529-1.403-1.817-4.316-4.692-4.337c-0.438-0.003-1.174,0.555-1.327,0.929c-0.189,0.463,0.131,1.33,0.606,1.671L223.931,69.755
			z"/>
		<path d="M261.9,76.693c1.097,0.629,1.831-1.11,2.694-1.362c-0.079,1.617-1.466,2.563-2.484,2.917
			c-1.617,0.562-3.106,0.255-4.241-0.791c-0.75-0.691-1.041-1.751-1.042-2.769l-0.006-9.382l-1.712-0.035
			c-0.183-0.004-0.184-0.624,0.028-0.76c2.339-1.496,4.15-3.727,5.852-6.366c0.337,1.929,0.222,3.602,0.219,5.584l3.455,0.036
			l0.066,1.499l-3.522,0.024l0.023,10.23C261.229,75.856,261.62,76.532,261.9,76.693z"/>
		<path d="M253.56,78.102l-7.461-0.039c-0.547-0.938,1.648-0.477,1.645-2.181l-0.018-10.07c-0.001-0.713-0.611-1.338-1.376-1.295
			l-0.453-0.753l6.242-0.009l0.006,12.111c0,0.826,0.559,1.376,1.215,1.529l0.525,0.122
			C254.024,77.548,253.743,78.103,253.56,78.102z"/>
		<ellipse cx="249.956" cy="58.741" rx="2.339" ry="2.337"/>
	</g>
</g>
</svg>
