<svg width="202" height="50" viewBox="0 0 202 50" fill="none" xmlns="http://www.w3.org/2000/svg">
<rect x="0.432617" y="0.643433" width="200.567" height="48.4005" rx="24.2002" fill="url(#paint0_linear_500_574)"/>
<path d="M26.3125 23.7656V25.4609H18.5156V23.7656H26.3125ZM23.3281 20.5781V28.8594H21.5078V20.5781H23.3281ZM32.0312 18.625H36.0547C36.9193 18.625 37.6562 18.7552 38.2656 19.0156C38.875 19.276 39.3411 19.6615 39.6641 20.1719C39.9922 20.6771 40.1562 21.3021 40.1562 22.0469C40.1562 22.6146 40.0521 23.1146 39.8438 23.5469C39.6354 23.9792 39.3411 24.3438 38.9609 24.6406C38.5807 24.9323 38.1276 25.1589 37.6016 25.3203L37.0078 25.6094H33.3906L33.375 24.0547H36.0859C36.5547 24.0547 36.9453 23.9714 37.2578 23.8047C37.5703 23.638 37.8047 23.4115 37.9609 23.125C38.1224 22.8333 38.2031 22.5052 38.2031 22.1406C38.2031 21.7448 38.125 21.401 37.9688 21.1094C37.8177 20.8125 37.5833 20.5859 37.2656 20.4297C36.9479 20.2682 36.5443 20.1875 36.0547 20.1875H33.9922V30H32.0312V18.625ZM38.5234 30L35.8516 24.8906L37.9062 24.8828L40.6172 29.8984V30H38.5234ZM51.1797 24V24.625C51.1797 25.4844 51.0677 26.2552 50.8438 26.9375C50.6198 27.6198 50.2995 28.2005 49.8828 28.6797C49.4714 29.1589 48.9766 29.526 48.3984 29.7812C47.8203 30.0312 47.1797 30.1562 46.4766 30.1562C45.7786 30.1562 45.1406 30.0312 44.5625 29.7812C43.9896 29.526 43.4922 29.1589 43.0703 28.6797C42.6484 28.2005 42.3203 27.6198 42.0859 26.9375C41.8568 26.2552 41.7422 25.4844 41.7422 24.625V24C41.7422 23.1406 41.8568 22.3724 42.0859 21.6953C42.3151 21.013 42.638 20.4323 43.0547 19.9531C43.4766 19.4688 43.974 19.1016 44.5469 18.8516C45.125 18.5964 45.763 18.4688 46.4609 18.4688C47.1641 18.4688 47.8047 18.5964 48.3828 18.8516C48.9609 19.1016 49.4583 19.4688 49.875 19.9531C50.2917 20.4323 50.612 21.013 50.8359 21.6953C51.0651 22.3724 51.1797 23.1406 51.1797 24ZM49.2188 24.625V23.9844C49.2188 23.349 49.1562 22.7891 49.0312 22.3047C48.9115 21.8151 48.7318 21.4062 48.4922 21.0781C48.2578 20.7448 47.9688 20.4948 47.625 20.3281C47.2812 20.1562 46.8932 20.0703 46.4609 20.0703C46.0286 20.0703 45.6432 20.1562 45.3047 20.3281C44.9661 20.4948 44.6771 20.7448 44.4375 21.0781C44.2031 21.4062 44.0234 21.8151 43.8984 22.3047C43.7734 22.7891 43.7109 23.349 43.7109 23.9844V24.625C43.7109 25.2604 43.7734 25.8229 43.8984 26.3125C44.0234 26.8021 44.2057 27.2161 44.4453 27.5547C44.6901 27.888 44.9818 28.1406 45.3203 28.3125C45.6589 28.4792 46.0443 28.5625 46.4766 28.5625C46.9141 28.5625 47.3021 28.4792 47.6406 28.3125C47.9792 28.1406 48.2656 27.888 48.5 27.5547C48.7344 27.2161 48.9115 26.8021 49.0312 26.3125C49.1562 25.8229 49.2188 25.2604 49.2188 24.625ZM59.125 27.0703C59.125 26.8359 59.0885 26.6276 59.0156 26.4453C58.9479 26.263 58.8255 26.0964 58.6484 25.9453C58.4714 25.7943 58.2214 25.6484 57.8984 25.5078C57.5807 25.362 57.1745 25.2135 56.6797 25.0625C56.138 24.8958 55.638 24.7109 55.1797 24.5078C54.7266 24.2995 54.3307 24.0599 53.9922 23.7891C53.6536 23.513 53.3906 23.1979 53.2031 22.8438C53.0156 22.4844 52.9219 22.0703 52.9219 21.6016C52.9219 21.138 53.0182 20.7161 53.2109 20.3359C53.4089 19.9557 53.6875 19.6276 54.0469 19.3516C54.4115 19.0703 54.8411 18.8542 55.3359 18.7031C55.8307 18.5469 56.3776 18.4688 56.9766 18.4688C57.8203 18.4688 58.5469 18.625 59.1562 18.9375C59.7708 19.25 60.2422 19.6693 60.5703 20.1953C60.9036 20.7214 61.0703 21.3021 61.0703 21.9375H59.125C59.125 21.5625 59.0443 21.2318 58.8828 20.9453C58.7266 20.6536 58.487 20.4245 58.1641 20.2578C57.8464 20.0911 57.4427 20.0078 56.9531 20.0078C56.4896 20.0078 56.1042 20.0781 55.7969 20.2188C55.4896 20.3594 55.2604 20.5495 55.1094 20.7891C54.9583 21.0286 54.8828 21.2995 54.8828 21.6016C54.8828 21.8151 54.9323 22.0104 55.0312 22.1875C55.1302 22.3594 55.2812 22.5208 55.4844 22.6719C55.6875 22.8177 55.9427 22.9557 56.25 23.0859C56.5573 23.2161 56.9193 23.3411 57.3359 23.4609C57.9661 23.6484 58.5156 23.8568 58.9844 24.0859C59.4531 24.3099 59.8438 24.5651 60.1562 24.8516C60.4688 25.138 60.7031 25.4635 60.8594 25.8281C61.0156 26.1875 61.0938 26.5964 61.0938 27.0547C61.0938 27.5339 60.9974 27.9661 60.8047 28.3516C60.612 28.7318 60.3359 29.0573 59.9766 29.3281C59.6224 29.5938 59.1953 29.7995 58.6953 29.9453C58.2005 30.0859 57.6484 30.1562 57.0391 30.1562C56.4922 30.1562 55.9531 30.0833 55.4219 29.9375C54.8958 29.7917 54.4167 29.5703 53.9844 29.2734C53.5521 28.9714 53.2083 28.5964 52.9531 28.1484C52.6979 27.6953 52.5703 27.1667 52.5703 26.5625H54.5312C54.5312 26.9323 54.5938 27.2474 54.7188 27.5078C54.849 27.7682 55.0286 27.9818 55.2578 28.1484C55.487 28.3099 55.7526 28.4297 56.0547 28.5078C56.362 28.5859 56.6901 28.625 57.0391 28.625C57.4974 28.625 57.8802 28.5599 58.1875 28.4297C58.5 28.2995 58.7344 28.1172 58.8906 27.8828C59.0469 27.6484 59.125 27.3776 59.125 27.0703ZM67.5078 18.625V30H65.5625V18.625H67.5078ZM71.0781 18.625V20.1875H62.0234V18.625H71.0781ZM80.0234 28.4453V30H73.9844V28.4453H80.0234ZM74.5391 18.625V30H72.5781V18.625H74.5391ZM79.2344 23.375V24.9062H73.9844V23.375H79.2344ZM79.9844 18.625V20.1875H73.9844V18.625H79.9844ZM81.625 18.625H85.6484C86.513 18.625 87.25 18.7552 87.8594 19.0156C88.4688 19.276 88.9349 19.6615 89.2578 20.1719C89.5859 20.6771 89.75 21.3021 89.75 22.0469C89.75 22.6146 89.6458 23.1146 89.4375 23.5469C89.2292 23.9792 88.9349 24.3438 88.5547 24.6406C88.1745 24.9323 87.7214 25.1589 87.1953 25.3203L86.6016 25.6094H82.9844L82.9688 24.0547H85.6797C86.1484 24.0547 86.5391 23.9714 86.8516 23.8047C87.1641 23.638 87.3984 23.4115 87.5547 23.125C87.7161 22.8333 87.7969 22.5052 87.7969 22.1406C87.7969 21.7448 87.7188 21.401 87.5625 21.1094C87.4115 20.8125 87.1771 20.5859 86.8594 20.4297C86.5417 20.2682 86.138 20.1875 85.6484 20.1875H83.5859V30H81.625V18.625ZM88.1172 30L85.4453 24.8906L87.5 24.8828L90.2109 29.8984V30H88.1172ZM97.7812 18.625V30H95.8203V18.625H97.7812ZM109.242 18.625V30H107.281L102.18 21.8516V30H100.219V18.625H102.18L107.297 26.7891V18.625H109.242ZM116.359 18.625H118.109L121.398 27.3984L124.68 18.625H126.43L122.086 30H120.695L116.359 18.625ZM115.562 18.625H117.227L117.516 26.2188V30H115.562V18.625ZM125.562 18.625H127.234V30H125.273V26.2188L125.562 18.625ZM131.656 18.625V30H129.695V18.625H131.656ZM143.117 18.625V30H141.156L136.055 21.8516V30H134.094V18.625H136.055L141.172 26.7891V18.625H143.117ZM151.836 18.625H153.789V26.2266C153.789 27.0911 153.602 27.8151 153.227 28.3984C152.852 28.9818 152.341 29.4219 151.695 29.7188C151.055 30.0104 150.339 30.1562 149.547 30.1562C148.729 30.1562 148 30.0104 147.359 29.7188C146.719 29.4219 146.214 28.9818 145.844 28.3984C145.479 27.8151 145.297 27.0911 145.297 26.2266V18.625H147.25V26.2266C147.25 26.7734 147.344 27.224 147.531 27.5781C147.719 27.9271 147.984 28.1849 148.328 28.3516C148.672 28.5182 149.078 28.6016 149.547 28.6016C150.016 28.6016 150.419 28.5182 150.758 28.3516C151.102 28.1849 151.367 27.9271 151.555 27.5781C151.742 27.224 151.836 26.7734 151.836 26.2266V18.625ZM160.602 18.625V30H158.656V18.625H160.602ZM164.172 18.625V20.1875H155.117V18.625H164.172ZM173.117 28.4453V30H167.078V28.4453H173.117ZM167.633 18.625V30H165.672V18.625H167.633ZM172.328 23.375V24.9062H167.078V23.375H172.328ZM173.078 18.625V20.1875H167.078V18.625H173.078ZM180.703 27.0703C180.703 26.8359 180.667 26.6276 180.594 26.4453C180.526 26.263 180.404 26.0964 180.227 25.9453C180.049 25.7943 179.799 25.6484 179.477 25.5078C179.159 25.362 178.753 25.2135 178.258 25.0625C177.716 24.8958 177.216 24.7109 176.758 24.5078C176.305 24.2995 175.909 24.0599 175.57 23.7891C175.232 23.513 174.969 23.1979 174.781 22.8438C174.594 22.4844 174.5 22.0703 174.5 21.6016C174.5 21.138 174.596 20.7161 174.789 20.3359C174.987 19.9557 175.266 19.6276 175.625 19.3516C175.99 19.0703 176.419 18.8542 176.914 18.7031C177.409 18.5469 177.956 18.4688 178.555 18.4688C179.398 18.4688 180.125 18.625 180.734 18.9375C181.349 19.25 181.82 19.6693 182.148 20.1953C182.482 20.7214 182.648 21.3021 182.648 21.9375H180.703C180.703 21.5625 180.622 21.2318 180.461 20.9453C180.305 20.6536 180.065 20.4245 179.742 20.2578C179.424 20.0911 179.021 20.0078 178.531 20.0078C178.068 20.0078 177.682 20.0781 177.375 20.2188C177.068 20.3594 176.839 20.5495 176.688 20.7891C176.536 21.0286 176.461 21.2995 176.461 21.6016C176.461 21.8151 176.51 22.0104 176.609 22.1875C176.708 22.3594 176.859 22.5208 177.062 22.6719C177.266 22.8177 177.521 22.9557 177.828 23.0859C178.135 23.2161 178.497 23.3411 178.914 23.4609C179.544 23.6484 180.094 23.8568 180.562 24.0859C181.031 24.3099 181.422 24.5651 181.734 24.8516C182.047 25.138 182.281 25.4635 182.438 25.8281C182.594 26.1875 182.672 26.5964 182.672 27.0547C182.672 27.5339 182.576 27.9661 182.383 28.3516C182.19 28.7318 181.914 29.0573 181.555 29.3281C181.201 29.5938 180.773 29.7995 180.273 29.9453C179.779 30.0859 179.227 30.1562 178.617 30.1562C178.07 30.1562 177.531 30.0833 177 29.9375C176.474 29.7917 175.995 29.5703 175.562 29.2734C175.13 28.9714 174.786 28.5964 174.531 28.1484C174.276 27.6953 174.148 27.1667 174.148 26.5625H176.109C176.109 26.9323 176.172 27.2474 176.297 27.5078C176.427 27.7682 176.607 27.9818 176.836 28.1484C177.065 28.3099 177.331 28.4297 177.633 28.5078C177.94 28.5859 178.268 28.625 178.617 28.625C179.076 28.625 179.458 28.5599 179.766 28.4297C180.078 28.2995 180.312 28.1172 180.469 27.8828C180.625 27.6484 180.703 27.3776 180.703 27.0703Z" fill="white"/>
<defs>
<linearGradient id="paint0_linear_500_574" x1="100.716" y1="0.643433" x2="100.716" y2="49.0439" gradientUnits="userSpaceOnUse">
<stop stop-color="#03D5AB"/>
<stop offset="0.901042" stop-color="#24D9DC"/>
</linearGradient>
</defs>
</svg>
