<?xml version="1.0" encoding="UTF-8"?>
<svg id="Layer_1" xmlns="http://www.w3.org/2000/svg" xmlns:xlink="http://www.w3.org/1999/xlink" version="1.1" viewBox="0 0 9449 7170">
  <!-- Generator: Adobe Illustrator 29.5.1, SVG Export Plug-In . SVG Version: 2.1.0 Build 141)  -->
  <defs>
    <style>
      .st0 {
        mask: url(#mask);
      }

      .st1, .st2 {
        fill: #e0e0e0;
      }

      .st2, .st3, .st4, .st5, .st6, .st7, .st8, .st9, .st10, .st11 {
        stroke-miterlimit: 10;
      }

      .st2, .st3, .st6, .st7, .st8, .st9, .st10, .st11 {
        stroke: #03f9be;
      }

      .st12 {
        fill: #aa6550;
      }

      .st13 {
        fill: #b78876;
      }

      .st14 {
        fill: #60cefd;
      }

      .st15 {
        fill: #ffbe9d;
      }

      .st16, .st6 {
        fill: #03f9be;
      }

      .st17, .st10 {
        fill: #ebebeb;
      }

      .st3, .st4, .st8 {
        fill: none;
      }

      .st4 {
        stroke-width: 3px;
      }

      .st4, .st5 {
        stroke: #fff;
      }

      .st18 {
        fill: #2d3bea;
      }

      .st19 {
        fill: #263238;
      }

      .st5, .st8 {
        stroke-width: 2px;
      }

      .st5, .st11 {
        fill: #fafafa;
      }

      .st20 {
        fill: #eb996e;
      }

      .st21, .st9 {
        fill: #fff;
      }

      .st7 {
        fill: #f5f5f5;
      }

      .st22 {
        opacity: .3;
      }

      .st23 {
        fill: #e8505b;
      }

      .st24 {
        fill: #455a64;
      }
    </style>
    <mask id="mask" x="58.89" y="0" width="9331.22" height="7170" maskUnits="userSpaceOnUse">
      <g id="mask0_2132_3">
        <path class="st21" d="M9390.11,0H58.89v7170h9331.22V0Z"/>
      </g>
    </mask>
  </defs>
  <g class="st0">
    <g>
      <path class="st1" d="M8930.76,5883c-.82.17-3.67-9.72-8.16-27.8-4.58-18.05-10.32-44.37-16.96-77-13.31-65.21-28.61-155.91-45.11-255.96-16.51-100.11-33.06-190.32-47.33-255.15-7.04-32.44-13-58.65-17.35-76.7-4.27-18.09-6.24-28.21-5.43-28.45.8-.24,4.32,9.44,9.98,27.19,5.77,17.7,13.03,43.66,21.16,75.95,16.47,64.56,34.44,154.92,50.96,255.12,16.03,98.77,30.51,188.14,41.59,256.4,5.19,30.82,9.6,56.78,13.13,77.62,3.04,18.34,4.35,28.59,3.52,28.78Z"/>
      <path class="st1" d="M8617.7,6849.24c-.37.2-2.57-3.24-6.45-10-4.42-8.07-9.83-17.93-16.37-29.86-14.11-25.98-33.56-64.12-56.95-111.55-46.85-94.84-107.45-227.88-172.33-375.58-64.94-147.77-124.21-281.19-169.02-376.87-21.92-46.49-39.98-84.74-53.4-113.17-5.74-12.34-10.47-22.52-14.35-30.89-3.16-7.11-4.66-10.94-4.28-11.16.38-.17,2.58,3.27,6.46,10.03,4.43,8.07,9.83,17.91,16.38,29.83,14.11,26,33.54,64.13,56.93,111.57,46.87,94.83,107.45,227.88,172.37,375.63,64.91,147.73,124.18,281.13,168.98,376.83,21.96,46.48,39.99,84.74,53.4,113.15,5.76,12.35,10.49,22.55,14.37,30.89,3.15,7.13,4.64,10.97,4.26,11.15Z"/>
      <path class="st7" d="M8697.15,2592.08c-60.67,151.9-157.84,397.5-202.43,510.32-13.16,33.27,3.11,70.89,36.36,84.13l415.03,165.3c33.3,13.25,71.05-2.98,84.31-36.28l201.37-505.59c29.45-73.94-6.61-157.74-80.54-187.19l29.61-74.35-271.79-108.25-27.99,70.3-1.02-.37c-73.12-26.5-154.07,9.77-182.91,81.98Z"/>
      <path class="st2" d="M8905.31,2449.62l-13.47,33.82,267.94,117.9,17.32-43.47-271.79-108.25Z"/>
      <path class="st10" d="M8960.18,2340.34l253.34,100.91c22.62,9,33.68,34.69,24.66,57.31l-26.87,67.46c-5.81,14.61-22.39,21.74-37,15.94l-282.39-112.48c-14.61-5.82-21.74-22.39-15.92-37l26.86-67.47c9.01-22.62,34.7-33.67,57.32-24.67Z"/>
      <path class="st2" d="M8908.17,2476.54c-1.98-.78,8.4-31.5,23.17-68.57,14.77-37.1,28.35-66.53,30.31-65.75,1.98.79-8.39,31.49-23.17,68.59-14.77,37.08-28.34,66.51-30.31,65.73Z"/>
      <path class="st2" d="M8943.98,2490.8c-1.97-.79,8.41-31.49,23.18-68.57,14.78-37.1,28.35-66.52,30.32-65.74,1.97.79-8.41,31.48-23.19,68.57-14.77,37.09-28.34,66.52-30.31,65.74Z"/>
      <path class="st2" d="M8979.79,2505.07c-1.96-.79,8.41-31.49,23.18-68.58,14.78-37.09,28.35-66.52,30.32-65.73,1.97.78-8.41,31.49-23.19,68.57-14.76,37.09-28.34,66.52-30.31,65.74Z"/>
      <path class="st2" d="M9015.62,2519.33c-1.98-.78,8.4-31.49,23.17-68.57,14.77-37.09,28.34-66.52,30.31-65.74,1.98.78-8.4,31.48-23.17,68.58-14.77,37.09-28.34,66.52-30.31,65.73Z"/>
      <path class="st2" d="M9051.43,2533.59c-1.97-.78,8.41-31.48,23.18-68.57,14.78-37.1,28.35-66.53,30.32-65.73,1.97.78-8.41,31.48-23.19,68.57-14.77,37.09-28.34,66.53-30.31,65.73Z"/>
      <path class="st2" d="M9087.24,2547.87c-1.97-.79,8.42-31.49,23.19-68.58,14.77-37.1,28.34-66.52,30.31-65.73,1.98.78-8.41,31.48-23.18,68.58-14.76,37.07-28.34,66.52-30.32,65.73Z"/>
      <path class="st2" d="M9123.07,2562.13c-1.97-.78,8.4-31.49,23.17-68.57,14.78-37.1,28.36-66.53,30.32-65.74,1.97.78-8.4,31.48-23.18,68.58-14.77,37.08-28.34,66.51-30.31,65.73Z"/>
      <path class="st1" d="M9158.88,2576.4c-1.97-.8,8.41-31.5,23.18-68.58,14.76-37.1,28.34-66.52,30.32-65.74,1.97.79-8.41,31.49-23.19,68.59-14.77,37.07-28.34,66.51-30.31,65.73Z"/>
      <path class="st10" d="M9113.02,2842.56l-348.8-138.93c-11.22-4.45-23.94,1.02-28.41,12.23l-86.41,216.96c-4.46,11.22,1.01,23.94,12.23,28.41l348.79,138.92c11.22,4.47,23.94-1.01,28.41-12.22l86.41-216.96c4.47-11.22-1.01-23.94-12.22-28.41Z"/>
      <path class="st1" d="M9011.69,3080.16c-.06-.14.41-1.64,1.4-4.42l4.47-12.13c4.22-11.13,10.01-26.34,17.28-45.49,15.31-39.47,36.86-95.08,63.07-162.68l1.71,3.96c-94.06-37.23-212.8-84.22-341.62-135.21-1.11.45,9.41-4.08,4.94-2.13l-.02.05-.04.12-.1.23-.18.47-.37.93-.74,1.86-1.48,3.72-2.96,7.42-5.88,14.77c-3.92,9.81-7.8,19.55-11.66,29.23-7.72,19.34-15.34,38.38-22.81,57.08-14.96,37.37-29.38,73.36-43.09,107.57l-1.97-4.58c99.3,40.31,183.81,74.62,244.3,99.17,29.58,12.21,53.26,21.99,70.27,29.01,7.75,3.28,13.98,5.91,18.82,7.95,4.31,1.87,6.58,2.92,6.66,3.1.08.19-2.04-.51-6.21-2.02-4.75-1.77-10.86-4.06-18.49-6.91-17-6.51-40.65-15.59-70.22-26.95-61.34-23.96-147.05-57.45-247.74-96.79l-3.28-1.28,1.31-3.31c13.57-34.27,27.84-70.31,42.66-107.73,7.44-18.72,15.01-37.79,22.69-57.13,3.85-9.68,7.73-19.43,11.63-29.25l5.88-14.77,2.95-7.42,1.48-3.72.74-1.86.37-.93.19-.47.1-.23.04-.12.02-.05c-4.45,1.89,6.09-2.65,5.04-2.18,128.59,51.54,247.13,99.05,341.02,136.68l2.86,1.15-1.15,2.82c-27.74,67.84-50.55,123.65-66.76,163.27-7.77,18.64-13.95,33.44-18.46,44.27l-4.89,11.34c-1.12,2.52-1.73,3.73-1.78,3.59Z"/>
      <path class="st3" d="M9011.69,3080.16c-.06-.14.41-1.64,1.4-4.42l4.47-12.13c4.22-11.13,10.01-26.34,17.28-45.49,15.31-39.47,36.86-95.08,63.07-162.68l1.71,3.96c-94.06-37.23-212.8-84.22-341.62-135.21-1.11.45,9.41-4.08,4.94-2.13l-.02.05-.04.12-.1.23-.18.47-.37.93-.74,1.86-1.48,3.72-2.96,7.42-5.88,14.77c-3.92,9.81-7.8,19.55-11.66,29.23-7.72,19.34-15.34,38.38-22.81,57.08-14.96,37.37-29.38,73.36-43.09,107.57l-1.97-4.58c99.3,40.31,183.81,74.62,244.3,99.17,29.58,12.21,53.26,21.99,70.27,29.01,7.75,3.28,13.98,5.91,18.82,7.95,4.31,1.87,6.58,2.92,6.66,3.1ZM9011.69,3080.16c.08.19-2.04-.51-6.21-2.02-4.75-1.77-10.86-4.06-18.49-6.91-17-6.51-40.65-15.59-70.22-26.95-61.34-23.96-147.05-57.45-247.74-96.79l-3.28-1.28,1.31-3.31c13.57-34.27,27.84-70.31,42.66-107.73,7.44-18.72,15.01-37.79,22.69-57.13,3.85-9.68,7.73-19.43,11.63-29.25l5.88-14.77,2.95-7.42,1.48-3.72.74-1.86.37-.93.19-.47.1-.23.04-.12.02-.05c-4.45,1.89,6.09-2.65,5.04-2.18,128.59,51.54,247.13,99.05,341.02,136.68l2.86,1.15-1.15,2.82c-27.74,67.84-50.55,123.65-66.76,163.27-7.77,18.64-13.95,33.44-18.46,44.27l-4.89,11.34c-1.12,2.52-1.73,3.73-1.78,3.59Z"/>
      <path class="st2" d="M9019.11,2907.89c-.79,1.97-53.36-17.12-117.4-42.62-64.07-25.53-115.36-47.8-114.58-49.77.8-1.97,53.35,17.11,117.42,42.63,64.04,25.51,115.34,47.79,114.56,49.76Z"/>
      <path class="st2" d="M9003.39,2947.33c-.78,1.97-53.34-17.12-117.39-42.63-64.06-25.52-115.35-47.79-114.57-49.76.78-1.97,53.34,17.1,117.41,42.63,64.05,25.5,115.34,47.79,114.55,49.76Z"/>
      <path class="st2" d="M8988.31,2985.21c-.78,1.98-53.36-17.11-117.4-42.63-64.07-25.51-115.35-47.78-114.57-49.76.79-1.97,53.35,17.12,117.42,42.63,64.04,25.5,115.33,47.79,114.55,49.76Z"/>
      <path class="st2" d="M9136.65,2614.25c-.79,1.97-58.11-19.01-128-46.84-69.93-27.86-125.96-52.02-125.18-54,.78-1.97,58.1,19.01,128.01,46.85,69.91,27.84,125.95,52.02,125.17,53.99Z"/>
      <path class="st9" d="M8528.79,3082.04c-.49-.19,2.45-8.89,8.21-24.44,6.37-16.69,14.81-38.82,25.04-65.62,21.46-55.28,51.59-131.45,85.31-215.39,16.95-41.89,33.1-81.8,47.85-118.26,14.65-36.32,31.67-68.78,53.89-89.7,21.93-21.05,46.04-30.08,62.68-31.99,8.38-1.13,14.95-.49,19.32-.08,4.37.77,6.59,1.32,6.55,1.58-.06.8-9.26-1.34-25.41,1.44-15.94,2.76-38.73,12.22-59.33,32.94-20.85,20.54-36.92,52.2-51.14,88.48-14.58,36.52-30.54,76.49-47.28,118.45-33.72,83.95-64.65,159.8-87.4,214.56-11.15,26.42-20.36,48.25-27.31,64.69-6.6,15.22-10.49,23.54-10.98,23.34Z"/>
      <path class="st9" d="M8995.19,3348.99c-.38.37-6.18-4.36-16.33-13.22-5.03-4.49-11.22-9.91-18.77-15.79-7.49-5.94-15.71-13.08-25.55-20.02-19.11-14.58-42.96-30.47-70.31-46.57-27.59-15.71-58.81-31.41-92.8-45.11-34.11-13.41-67.58-23.48-98.42-31.03-30.94-7.11-59.19-11.96-83.09-14.51-11.91-1.73-22.79-2.17-32.31-3.02-9.53-.92-17.75-1.24-24.48-1.43-13.47-.55-20.94-1.11-20.95-1.63,0-.53,7.45-.99,20.98-1.36,6.77-.27,15.06-.38,24.66.13,9.61.44,20.6.51,32.64,1.91,24.18,1.87,52.79,6.21,84.15,13.01,31.24,7.25,65.17,17.23,99.67,30.79,34.36,13.86,65.86,29.93,93.53,46.14,27.45,16.61,51.21,33.13,70.05,48.38,9.7,7.27,17.74,14.76,25.01,21.06,7.33,6.23,13.28,12.01,18.01,16.85,9.58,9.58,14.68,15.04,14.31,15.42Z"/>
      <path class="st2" d="M1229.72,3236.58L87.57,3786.35c-17.68,8.5-25.11,29.73-16.6,47.4l766.71,1592.83c8.51,17.68,29.73,25.11,47.41,16.61l1142.16-549.77c17.67-8.51,25.1-29.74,16.59-47.41l-766.7-1592.84c-8.52-17.67-29.74-25.1-47.42-16.59Z"/>
      <path class="st11" d="M1211.36,3288.89L139.91,3804.63l742.36,1542.24,1071.46-515.74-742.37-1542.24Z"/>
      <path class="st6" d="M904.75,3465.25c-43.69-33.75-102.7-39.9-152.42-15.91l-32.84-65.18c-23.97-49.81-83.79-70.76-133.59-46.78-49.81,23.97-70.75,83.79-46.78,133.59l32.94,68.43-22.82,11.45c-48.65,24.41-79.65,73.89-80.38,128.32l-.45,33.91,466.49-224.54-30.15-23.29ZM655.77,3475.88c-26.81,12.91-59.01,1.63-71.91-25.18-12.9-26.81-1.63-59.01,25.18-71.91,26.81-12.91,59.01-1.63,71.91,25.18,12.91,26.8,1.63,59-25.18,71.91Z"/>
      <path class="st2" d="M642.2,3831.97c.92,1.91-63.38,34.77-143.59,73.39-80.24,38.62-146.02,68.37-146.94,66.46-.92-1.91,63.36-34.76,143.61-73.39,80.22-38.61,146-68.36,146.92-66.46Z"/>
      <path class="st2" d="M515.27,3953.43c.92,1.91-29.68,18.55-68.34,37.15-38.67,18.62-70.76,32.16-71.68,30.25-.92-1.92,29.67-18.55,68.34-37.17,38.66-18.6,70.75-32.14,71.67-30.23Z"/>
      <path class="st2" d="M1263.55,3761.39c.92,1.91-179.35,90.59-402.6,198.05-223.33,107.5-405.05,193.07-405.97,191.16-.92-1.92,179.32-90.58,402.64-198.07,223.25-107.47,405.02-193.05,405.94-191.14Z"/>
      <path class="st2" d="M1300.66,3838.49c.93,1.92-179.35,90.6-402.6,198.06-223.33,107.5-405.05,193.06-405.98,191.15-.92-1.91,179.32-90.58,402.65-198.08,223.25-107.45,405.02-193.04,405.93-191.13Z"/>
      <path class="st2" d="M1337.78,3915.6c.93,1.91-179.36,90.6-402.6,198.05-223.33,107.5-405.06,193.07-405.98,191.15-.92-1.91,179.32-90.57,402.65-198.07,223.24-107.46,405.02-193.04,405.93-191.13Z"/>
      <path class="st2" d="M1374.9,3992.7c.91,1.92-179.36,90.6-402.61,198.06-223.33,107.49-405.05,193.06-405.97,191.15-.92-1.91,179.32-90.57,402.64-198.07,223.25-107.46,405.01-193.04,405.94-191.14Z"/>
      <path class="st2" d="M1412.01,4069.81c.92,1.91-179.35,90.59-402.61,198.05-223.32,107.49-405.05,193.06-405.97,191.15-.92-1.9,179.32-90.57,402.64-198.07,223.25-107.46,405.02-193.04,405.94-191.13Z"/>
      <path class="st2" d="M1449.12,4146.91c.92,1.91-179.36,90.59-402.6,198.06-223.33,107.49-405.06,193.05-405.98,191.15-.92-1.92,179.32-90.59,402.65-198.08,223.25-107.45,405.01-193.05,405.93-191.13Z"/>
      <path class="st2" d="M1078.3,4411.04c.23.47-5.21,3.65-15.24,8.99-11.54,5.92-25.85,13.26-42.8,21.96-36.27,18.23-86.62,42.94-142.43,69.81-55.83,26.87-106.56,50.81-143.44,67.79-17.37,7.82-32.03,14.43-43.85,19.75-10.43,4.51-16.3,6.77-16.53,6.3-.23-.47,5.21-3.66,15.24-8.99,11.53-5.91,25.84-13.26,42.79-21.96,36.28-18.22,86.63-42.94,142.46-69.82,55.81-26.86,106.53-50.8,143.41-67.78,17.37-7.82,32.03-14.43,43.85-19.76,10.43-4.5,16.31-6.77,16.54-6.29Z"/>
      <path class="st2" d="M1205.89,3552.03c.92,1.91-27.33,17.41-63.09,34.63-35.77,17.21-65.5,29.62-66.42,27.71-.92-1.92,27.32-17.41,63.09-34.63s65.5-29.63,66.42-27.71Z"/>
      <path class="st2" d="M975.41,4667.51c.92,1.91-45.35,26.09-103.34,54-58.01,27.92-105.76,49-106.68,47.09-.92-1.91,45.34-26.08,103.35-54.01,57.99-27.91,105.75-48.99,106.67-47.08Z"/>
      <path class="st2" d="M1016.1,4734.14c.92,1.92-46.13,26.47-105.09,54.85-58.97,28.39-107.51,49.84-108.43,47.93-.92-1.92,46.13-26.46,105.1-54.85,58.95-28.38,107.5-49.84,108.42-47.93Z"/>
      <path class="st1" d="M1579.4,4363.83c.93,1.92-21.05,14.4-49.08,27.9-28.04,13.5-51.51,22.88-52.42,20.97-.92-1.92,21.06-14.4,49.09-27.9,28.03-13.48,51.5-22.88,52.41-20.97Z"/>
      <path class="st1" d="M1613.24,4425.16c.92,1.92-21.06,14.4-49.08,27.89-28.04,13.5-51.51,22.88-52.42,20.98-.93-1.92,21.05-14.4,49.09-27.9,28.02-13.48,51.49-22.88,52.41-20.97Z"/>
      <path class="st2" d="M953.47,4854.83c.92,1.9-20.28,14.02-47.33,27.05-27.07,13.03-49.76,22.03-50.68,20.12-.92-1.9,20.27-14.02,47.34-27.05,27.06-13.03,49.75-22.03,50.67-20.12Z"/>
      <path class="st1" d="M1652.12,4496.99c.92,1.9-14.79,11.37-35.09,21.14-20.3,9.78-37.5,16.15-38.42,14.23-.92-1.91,14.79-11.37,35.09-21.15,20.3-9.76,37.5-16.14,38.42-14.22Z"/>
      <path class="st2" d="M928.9,5071.12c-.09-.16,1.3-1.21,4.08-3.14l12.43-8.27c11.67-7.49,27.66-17.74,47.69-30.57,42.02-26.39,100.85-63.33,171.22-107.52l3.37-2.11,1.45,3.71c7.75,19.71,9.12,43.06,1.89,64.99-6.75,21.83-23.59,42.48-47.14,51.08-22.95,8.59-51.35,7.45-72.97-8.22-21.98-15.54-31.04-45.54-24.44-71.83,2.48-9.87,7.21-19.24,14.11-26.77,1.64-1.96,3.52-3.67,5.52-5.26,1.92-1.64,3.85-3.32,6.7-4.59,2.63-1.34,7.13-1.75,10.3.35,3.09,1.95,4.57,4.56,5.84,6.77,9.16,17.14,14.03,35.94,15.01,54.58.97,18.64-1.89,37.17-8.43,53.94-6.35,16.64-16.33,32.56-31.73,42.03-15.44,9.92-35.91,7.9-49.81-1.1-14.25-8.82-24.45-22.3-29.56-37.04-9.62-29.81-3.56-58.64.47-83.24l.92-5.62,3.77,4.23c17.6,19.75,25.75,43.15,28.1,63.58,2.57,20.6-.6,38.56-4.93,52.31-4.48,13.82-10.48,23.49-14.83,29.69-2.24,3.06-4.24,5.18-5.48,6.67-1.29,1.44-1.99,2.14-2.09,2.05-1.02-.56,11.31-11.99,19.54-39.29,3.79-13.53,6.42-31.04,3.52-50.88-2.66-19.68-10.92-41.97-27.83-60.44l4.69-1.4c-3.78,24.64-9.05,52.8.19,80.28,4.71,13.23,14.25,25.56,27.01,33.29,12.63,7.85,29.44,9.34,42.67.85,13.27-8.22,22.65-22.83,28.53-38.6,6.1-15.8,8.74-33.31,7.77-50.91-.95-17.58-5.64-35.36-14.19-51.3-.99-1.84-2.15-3.36-3.1-3.9-.88-.51-1.65-.55-3.24.11-3.01,1.56-6.9,4.85-9.66,8.01-5.94,6.49-10.1,14.69-12.31,23.46-5.91,23.54,2.28,50.34,21.45,63.82,19,13.93,45,15.22,65.88,7.43,21.3-7.7,36.6-26.14,43.04-46.36,6.83-20.22,5.68-42.04-1.33-60.33l4.83,1.6c-70.96,43.22-130.3,79.36-172.67,105.17-20.43,12.18-36.75,21.91-48.66,29.02-5.24,3-9.51,5.45-12.96,7.41-2.96,1.64-4.54,2.41-4.63,2.26Z"/>
      <path class="st1" d="M1694.76,4699.26c.32.09-.15,4.96-2.47,13.85-1.24,4.39-3.02,9.88-6.68,15.64-3.66,5.7-9.73,11.57-18.52,14.09-4.33,1.24-9.48,1.38-14.34-.47-4.88-1.8-9.02-5.42-12.27-9.57-6.41-8.5-10.77-18.18-16.53-28.12-11.13-20.29-23.43-42.75-36.68-66.91l6.73-1.55c-1.19,33.82-2.48,70.72-3.84,109.4-.35,9.2-.7,18.31-1.05,27.26l-.57,15.26-6.68-13.71c-20.16-41.45-38.97-80.13-55.39-113.88l6.12-.6c-11.5,41.6-13.93,77.79-14.04,102.88-.04,25.18,1.71,39.54.86,39.63-.32.05-1.12-3.5-2.13-10.21-.96-6.72-2.04-16.65-2.56-29.35-1.02-25.32.47-62.14,11.52-104.66l2.21-8.48,3.91,7.88c16.71,33.63,35.85,72.13,56.36,113.4l-7.25,1.55c.33-8.95.67-18.06,1.01-27.27,1.54-38.66,3.02-75.55,4.37-109.38l.53-13.25,6.19,11.7c12.88,24.35,24.85,46.98,35.66,67.44,5.49,9.97,9.93,20.15,15.4,27.77,5.41,7.83,13.85,11.17,21.37,9.01,15.58-4.15,21.11-18.36,24.08-26.22,2.96-8.46,4.22-13.25,4.68-13.13Z"/>
      <path class="st1" d="M1693.16,4644.02c1.2,1.76-59.67,45.23-135.93,97.1-76.29,51.88-139.09,92.51-140.28,90.75-1.19-1.75,59.67-45.22,135.95-97.11,76.27-51.86,139.08-92.5,140.26-90.74Z"/>
      <path class="st1" d="M1767.96,4656.95c1.38,1.61-43.25,42.24-99.68,90.74-56.45,48.53-103.32,86.54-104.7,84.93-1.38-1.6,43.24-42.23,99.69-90.76,56.43-48.5,103.31-86.52,104.69-84.91Z"/>
      <path class="st16" d="M2307.56,1479.31h-62.06l-135.47-188.78v-123.91s-95.94-5.89-84.65,156.34c11.3,162.25-.93,120.94-.93,120.94,0,0-203.71.78-220.64,18.48-12.31,12.86-17.88,215.22-20.01,324.96-1.07,55.25,32.82,106.63,84.2,119.69,7.29,1.87,14.68,2.95,21.92,2.95,50.81,0,310.42-41.31,310.42-41.31h107.22v-389.36Z"/>
      <path class="st16" d="M2485.26,1445.29l-38.19,424.54h-106.29v-415.99l144.48-8.55Z"/>
      <path class="st4" d="M7095.69,1516.93c-16.03-129.16-125.31-249.61-255.45-249.67-76.88-.05-149.97,40.13-202.5,96.26-22.98,24.55-38.71,42.46-51.34,60.89-8.74-20.56-20.65-41.21-38.35-69.8-40.45-65.37-104.21-119.15-179.58-134.24-127.62-25.55-258.46,71.03-299.6,194.5-41.13,123.48-6.89,262.12,60.76,373.31,67.64,111.19,184.14,256.55,398.72,328.68,147.94-18.96,346.08-150.19,434.29-245.89,88.2-95.7,149.07-224.88,133.05-354.04Z"/>
      <path class="st5" d="M7048.78,1748.91c-.02.15-1.48.16-4.31.03l-12.55-.81c-11.72-.96-27.82-2.29-48.18-3.96-42.54-3.9-102.83-9.41-177.03-16.21l3.19-1.96c-21.34,55.64-46.33,120.81-73.75,192.28l-4.45,11.58-2.91-12.08c-22.47-93.31-47.65-197.84-74.18-308-8.15-34.11-16.19-67.67-24.02-100.43l7.49,1.48c-48.11,66.14-93.62,128.73-135.1,185.77l-1.31,1.79-2.17-.23c-127.23-13.28-234.61-24.49-311.01-32.46-37.26-4.16-66.92-7.46-88.04-9.82-9.68-1.21-17.38-2.18-23.27-2.92-5.28-.71-7.98-1.19-7.96-1.4.02-.22,2.77-.14,8.08.17,5.92.45,13.66,1.02,23.38,1.74,21.17,1.85,50.91,4.44,88.25,7.69,76.48,7.23,183.98,17.37,311.33,29.4l-3.47,1.56c41.29-57.18,86.6-119.92,134.49-186.23l5.36-7.42,2.13,8.91c7.86,32.76,15.91,66.32,24.1,100.42,26.26,110.22,51.19,214.82,73.43,308.17l-7.35-.49c27.94-71.26,53.42-136.23,75.18-191.72l.87-2.2,2.33.25c74.07,7.94,134.27,14.4,176.75,18.95,20.29,2.36,36.33,4.23,48.01,5.6,5.05.68,9.14,1.23,12.47,1.68,2.8.42,4.23.72,4.22.87Z"/>
      <path class="st16" d="M3893.13,2323.4h-97.39v436.43h97.39v-436.43Z"/>
      <path class="st16" d="M3626.21,2492.92v97.39h436.44v-97.39h-436.44Z"/>
      <path class="st16" d="M4206.89,2542.66c-.13,0-.36-1.99-.69-5.88-.3-4.25-.73-9.96-1.25-17.25-.25-3.83-.53-8.06-.82-12.69-.53-4.66-1.54-9.69-2.38-15.17-1.77-10.96-3.45-23.66-7.68-37.46-6.49-28.04-19.69-61.14-40.45-96.22-20.91-34.92-51.06-71.4-92.06-102.33-40.87-30.64-92.42-56.7-151.91-67.21-59.08-10.12-125.77-8.28-189.27,15.87-16.15,5.18-31.34,13.17-46.96,20.67-14.79,8.94-30.37,17.19-44.14,28.39-14.64,10.05-27.44,22.63-40.84,34.74-12.1,13.41-24.84,26.52-35.27,41.74-21.42,29.76-40.13,62.83-51.45,99.18-11.73,36.13-18.04,74.51-18.57,113.57.52,39.07,6.82,77.47,18.55,113.62,11.31,36.37,30.02,69.44,51.45,99.21,10.44,15.22,23.15,28.35,35.27,41.76,13.41,12.1,26.2,24.69,40.84,34.75,13.78,11.19,29.36,19.44,44.15,28.39,15.62,7.5,30.81,15.5,46.97,20.68,63.52,24.14,130.2,25.99,189.29,15.85,59.5-10.5,111.05-36.56,151.91-67.21,41-30.94,71.14-67.42,92.06-102.34,20.75-35.07,33.95-68.18,40.43-96.21,4.23-13.8,5.91-26.5,7.68-37.45.84-5.48,1.86-10.52,2.38-15.16.29-4.65.57-8.88.82-12.7.52-7.28.95-12.99,1.25-17.25.33-3.89.56-5.89.69-5.89.14,0,.16,2,.1,5.91-.12,4.27-.29,10-.49,17.32l-.47,12.79c-.39,4.69-1.28,9.77-2.01,15.31-1.55,11.04-3.02,23.88-7.05,37.85-6.09,28.38-19,61.97-39.64,97.68-20.82,35.55-51.05,72.78-92.45,104.46-41.27,31.39-93.53,58.17-154.03,69.16-60.08,10.59-128.02,8.95-192.88-15.48-16.49-5.24-32.02-13.33-47.96-20.96-15.12-9.08-31.03-17.48-45.12-28.86-14.95-10.24-28.04-23.03-41.74-35.39-12.39-13.65-25.38-27.04-36.07-42.56-21.91-30.35-41.04-64.12-52.64-101.26-12-36.91-18.45-76.13-18.98-116.02.53-39.87,7-79.08,19-115.98,11.61-37.12,30.73-70.88,52.64-101.23,10.69-15.51,23.69-28.9,36.08-42.55,13.69-12.34,26.78-25.13,41.73-35.37,14.08-11.38,29.99-19.78,45.11-28.85,15.94-7.62,31.46-15.71,47.95-20.97,64.85-24.41,132.78-26.07,192.85-15.46,60.49,10.96,112.77,37.76,154.03,69.15,41.41,31.68,71.64,68.89,92.47,104.45,20.65,35.7,33.55,69.31,39.65,97.68,4.02,13.98,5.5,26.81,7.05,37.87.71,5.53,1.62,10.6,2.01,15.29l.47,12.79c.2,7.32.37,13.06.49,17.34.06,3.9.04,5.89-.1,5.89Z"/>
      <path class="st8" d="M4206.89,2542.66c-.13,0-.36-1.99-.69-5.88-.3-4.25-.73-9.96-1.25-17.25-.25-3.83-.53-8.06-.82-12.69-.53-4.66-1.54-9.69-2.38-15.17-1.77-10.96-3.45-23.66-7.68-37.46-6.49-28.04-19.69-61.14-40.45-96.22-20.91-34.92-51.06-71.4-92.06-102.33-40.87-30.64-92.42-56.7-151.91-67.21-59.08-10.12-125.77-8.28-189.27,15.87-16.15,5.18-31.34,13.17-46.96,20.67-14.79,8.94-30.37,17.19-44.14,28.39-14.64,10.05-27.44,22.63-40.84,34.74-12.1,13.41-24.84,26.52-35.27,41.74-21.42,29.76-40.13,62.83-51.45,99.18-11.73,36.13-18.04,74.51-18.57,113.57.52,39.07,6.82,77.47,18.55,113.62,11.31,36.37,30.02,69.44,51.45,99.21,10.44,15.22,23.15,28.35,35.27,41.76,13.41,12.1,26.2,24.69,40.84,34.75,13.78,11.19,29.36,19.44,44.15,28.39,15.62,7.5,30.81,15.5,46.97,20.68,63.52,24.14,130.2,25.99,189.29,15.85,59.5-10.5,111.05-36.56,151.91-67.21,41-30.94,71.14-67.42,92.06-102.34,20.75-35.07,33.95-68.18,40.43-96.21,4.23-13.8,5.91-26.5,7.68-37.45.84-5.48,1.86-10.52,2.38-15.16.29-4.65.57-8.88.82-12.7.52-7.28.95-12.99,1.25-17.25.33-3.89.56-5.89.69-5.89ZM4206.89,2542.66c.14,0,.16,2,.1,5.91-.12,4.27-.29,10-.49,17.32l-.47,12.79c-.39,4.69-1.28,9.77-2.01,15.31-1.55,11.04-3.02,23.88-7.05,37.85-6.09,28.38-19,61.97-39.64,97.68-20.82,35.55-51.05,72.78-92.45,104.46-41.27,31.39-93.53,58.17-154.03,69.16-60.08,10.59-128.02,8.95-192.88-15.48-16.49-5.24-32.02-13.33-47.96-20.96-15.12-9.08-31.03-17.48-45.12-28.86-14.95-10.24-28.04-23.03-41.74-35.39-12.39-13.65-25.38-27.04-36.07-42.56-21.91-30.35-41.04-64.12-52.64-101.26-12-36.91-18.45-76.13-18.98-116.02.53-39.87,7-79.08,19-115.98,11.61-37.12,30.73-70.88,52.64-101.23,10.69-15.51,23.69-28.9,36.08-42.55,13.69-12.34,26.78-25.13,41.73-35.37,14.08-11.38,29.99-19.78,45.11-28.85,15.94-7.62,31.46-15.71,47.95-20.97,64.85-24.41,132.78-26.07,192.85-15.46,60.49,10.96,112.77,37.76,154.03,69.15,41.41,31.68,71.64,68.89,92.47,104.45,20.65,35.7,33.55,69.31,39.65,97.68,4.02,13.98,5.5,26.81,7.05,37.87.71,5.53,1.62,10.6,2.01,15.29l.47,12.79c.2,7.32.37,13.06.49,17.34.06,3.9.04,5.89-.1,5.89Z"/>
      <path class="st14" d="M8698.8,5548.48s431.66-102.9,445.9-121.07l-355-914.3c-49.6-127.74-133.25-240.98-246.01-318.86-51.5-35.56-107.89-64.23-167.99-84.67-230.7-78.44-419.27-64.74-419.27-64.74l-599.3-31.79c-186.07,10.91-345.29,65.52-472.79,130.87-202.01,103.51-357.78,279.2-443.91,489.23l-268.66,671.36,677.84,141.73,25.76,721.22-102.22,995.2h1871.87l-13.05-1577.44,66.83-36.74Z"/>
      <g class="st22">
        <path class="st21" d="M9070.87,5308c.63,2.02-111.36,38.54-250.11,81.57-138.78,43.03-251.77,76.26-252.4,74.24-.62-2.03,111.35-38.55,250.13-81.58,138.74-43.02,251.75-76.25,252.38-74.23Z"/>
      </g>
      <path class="st19" d="M7112.51,4665.18c-.46.27-4.55-5.35-11.52-15.71-6.85-10.44-17.35-25.17-30.89-42.86-13.45-17.78-30.66-38.02-50.81-59.47-20.43-21.18-43.98-43.43-70.33-64.87-26.52-21.24-53.25-39.56-78.27-55.07-25.22-15.19-48.63-27.74-68.84-37.13-20.16-9.51-36.76-16.66-48.41-21.16-11.6-4.63-17.96-7.45-17.79-7.95.16-.5,6.84,1.35,18.81,5.15,12.01,3.64,29.04,10.07,49.64,19.01,20.66,8.84,44.57,21.01,70.24,36.01,25.48,15.33,52.63,33.69,79.45,55.16,26.63,21.67,50.3,44.34,70.66,66.02,20.07,21.93,37.01,42.71,50,61.05,13.1,18.25,22.97,33.54,29.06,44.52,6.23,10.89,9.45,17.04,9,17.3Z"/>
      <path class="st19" d="M7024.1,4883.41c2.11.22-18.79,220.44-46.69,491.82-27.89,271.47-52.21,491.3-54.32,491.09-2.11-.22,18.78-220.4,46.69-491.87,27.88-271.38,52.21-491.26,54.32-491.04Z"/>
      <path class="st19" d="M8497.76,4475.3c-1.2.15-3.84-17.14-9.65-44.68-5.77-27.54-15.31-65.25-29.76-105.63-14.53-40.37-31.12-75.56-44.17-100.5-13.02-24.94-21.97-39.96-20.95-40.62.45-.28,3.18,3.16,7.74,9.64,4.63,6.45,10.79,16.13,17.96,28.36,14.37,24.45,31.96,59.7,46.66,100.53,14.6,40.84,23.41,79.22,27.86,107.22,2.25,14.01,3.63,25.41,4.16,33.32.6,7.91.68,12.3.15,12.36Z"/>
      <path class="st19" d="M8535.26,5245.3c-.54.06-1.8-7.64-3.64-21.64-1.86-13.99-4.12-34.27-6.54-59.37-4.9-50.19-10.01-119.72-12.73-196.66-2.68-76.94-2.47-146.67-1.12-197.09.67-25.21,1.49-45.6,2.37-59.68.85-14.08,1.57-21.85,2.1-21.84.53.02.82,7.83.89,21.92.03,15.51.05,35.57.08,59.67.03,50.36.67,119.95,3.36,196.76,2.72,76.79,6.96,146.23,10.45,196.47,1.67,24.05,3.06,44.06,4.12,59.54.92,14.06,1.18,21.87.66,21.92Z"/>
      <path class="st21" d="M7629.05,5116.52c-157.28,9.15-315.27,6.2-472.11-8.81v61.32h472.11v-52.51Z"/>
      <g class="st22">
        <path class="st21" d="M8098.57,4096.65c.19-.02.81,3.16,1.82,9.31,1,6.68,2.37,15.72,4.11,27.21,2.99,23.85,7.12,58.81,10.51,103.14,7.07,88.66,13.23,214.63,15.4,363.38l.08,5.67-5.09-2.48c-94.12-45.76-199.68-95.65-309.5-150.53-209.29-104.74-398.74-199.55-536.43-268.45-68.09-34.49-123.36-62.48-162.14-82.13-18.69-9.64-33.38-17.23-43.91-22.67-4.66-2.49-8.4-4.49-11.32-6.06-2.52-1.41-3.8-2.19-3.73-2.31.06-.1,1.45.44,4.1,1.61,3.02,1.4,6.87,3.18,11.69,5.4,10.68,5.12,25.6,12.29,44.57,21.39,39.05,19.13,94.7,46.39,163.27,79.97,137.95,68.39,327.73,162.47,537.41,266.42,109.8,54.87,215.12,104.9,308.99,151.02l-5.01,3.2c-1.57-148.56-6.74-274.51-12.61-363.12-2.77-44.33-6.23-79.28-8.52-103.19-1.27-11.54-2.27-20.62-3.01-27.31-.63-6.21-.87-9.44-.68-9.47Z"/>
      </g>
      <g class="st22">
        <path class="st21" d="M6971.65,5370.88c-.08.25-2.77-.21-7.82-1.34-5.89-1.42-13.16-3.16-22.03-5.29-20.13-5.11-47.42-12.05-80.67-20.5-68.08-17.43-162.19-41.3-266.4-66.51-104.25-25.2-198.87-46.97-267.39-62.58-33.44-7.67-60.89-13.97-81.14-18.63-8.85-2.15-16.12-3.92-22-5.36-5.01-1.3-7.61-2.12-7.55-2.37.05-.26,2.76.05,7.87.86,5.96,1.06,13.32,2.36,22.3,3.95,19.34,3.57,47.25,9.11,81.67,16.25,68.85,14.24,163.73,35.2,268.05,60.41,104.27,25.23,198.23,49.95,265.99,68.73,33.88,9.38,61.23,17.21,80.07,22.87,8.71,2.68,15.87,4.89,21.64,6.68,4.93,1.61,7.47,2.57,7.41,2.83Z"/>
      </g>
      <path class="st19" d="M8016.17,3985.03c.69-2.17,40.53,19.13,79.69,76.99,38.48,57.72,74.55,147.28,94.87,250.33,10.03,51.55,15.03,101.4,17.2,146.78.32,22.71.98,44.3.3,64.47-1.1,20.15-1.33,38.97-3.11,56.03-1.82,16.89-3.48,32.28-4.96,46.01-1.88,13.47-4.16,25-5.83,34.43-3.49,18.82-5.93,29.12-6.97,28.95-1.05-.17-.61-10.79,1.05-29.77.92-9.84,1.98-21.36,3.21-34.52.79-13.67,1.68-28.98,2.65-45.79,1.08-16.95.68-35.57,1.22-55.5.13-19.94-1-41.24-1.69-63.64-2.93-44.72-8.28-93.75-18.14-144.48-19.95-101.3-53.91-189.99-88.91-247.38-17.61-28.59-35.96-49.24-49.18-62.56-13.34-13.35-22.05-19.32-21.4-20.35Z"/>
      <path class="st19" d="M7345.58,3989.24c1.45,1.3-10.92,16.45-31.17,44.87-20.27,28.4-46.39,71.94-69.44,129.67-23.45,57.61-40.61,130.2-51.56,211.96-10.75,81.83-15.35,173.25-21.34,268.91-4.97,95.47-5.21,186.88-5.34,270.02-.04,83.08-.07,157.95-.11,221.09-.46,62.98-1.61,113.98-3.49,149.19-1.79,35.22-3.89,54.64-5.42,54.6-1.66-.04-2.58-19.53-3.55-54.69-.91-35.85-2.22-86.55-3.83-148.95-1.59-62.89-3.7-137.8-4.83-221.1-1.04-83.3-1.45-175.01,3.56-271.4,6.02-95.98,11.24-187.47,23.32-270.59,12.26-82.91,31.53-156.97,57.53-215.26,25.6-58.44,54.54-101.68,77.33-128.86,22.81-27.21,37.46-40.32,38.34-39.46Z"/>
      <path class="st19" d="M8337.22,5222.27c-1.05,0-2.04-17.35-2.9-48.72-.87-31.37-1.62-76.76-2.22-132.84-.24-28.12-.5-58.82-.78-91.74-.6-32.9.59-68.47-1.99-104.7-2.74-35.92-12.06-74.12-37.64-103.01-24.97-29.03-63.34-48.68-104-49.17-40.71-.73-79.85,16.61-108.66,42.16-29.39,25.46-45.78,60.83-54.94,95.71-9.12,35.09-12.98,70.35-18.45,102.86-5.15,32.52-9.95,62.84-14.36,90.61-8.89,55.38-16.35,100.15-21.86,131.05-5.49,30.89-9.04,47.9-10.08,47.74-1.05-.16.49-17.46,4.17-48.62,3.68-31.16,9.51-76.18,17.03-131.76,3.83-27.84,8.01-58.27,12.5-90.89,4.94-32.57,8.23-67.68,17.35-104.56,9.09-36.4,26.55-75.31,58.62-103.37,31.17-27.88,73.59-47.03,118.96-46.29,45.31.57,87.73,22.52,115.1,54.68,28.43,32.52,37.94,74.56,40.37,111.78,2.29,37.8.56,72.79.61,105.8-.39,32.92-.76,63.63-1.09,91.74-.79,56.09-1.69,101.47-2.67,132.84-.97,31.36-2,48.7-3.07,48.7Z"/>
      <path class="st19" d="M8194.9,4547.86c-4.77,51.67-21.36,109.59-57.2,147.11,31.29-6.81,64.18-6.18,95.19,1.83-22.37-44.82-25.97-98.85-25.34-148.94"/>
      <path class="st19" d="M8337.78,4883.41c-2.81.49-4.47-24.75-23.41-58.52-9.37-16.75-23.36-35.26-42.86-51.27-19.22-16.16-44.36-29.36-72.58-34.56-28.32-4.8-56.4-.81-79.9,7.98-23.65,8.72-42.93,21.6-57.11,34.52-28.69,25.96-38.02,49.53-40.55,48.17-1.35-.15,4.43-26.1,33.02-56,14.11-14.78,34.16-29.67,59.55-39.89,25.19-10.3,56.12-15.27,87.65-9.91,31.45,5.76,58.83,20.84,79.11,38.91,20.59,17.97,34.61,38.58,43.31,57.04,17.55,37.38,15.13,63.78,13.77,63.53Z"/>
      <path class="st15" d="M8732.47,6554.34c87.85-.31,166.32-63.3,207.7-140.78,41.38-77.49,51.83-167.5,55.91-255.24,10.84-232.2-17.85-466.18-84.43-688.87l-384.98,67.22,104.84,1036.71,100.96-19.04Z"/>
      <path class="st19" d="M7175.46,6683.45l1253.37-45.68,304-1468.73-1320.14,73.34-237.23,1441.07Z"/>
      <path class="st24" d="M7820.65,5217.16l18.87-37.45,100.03-7.35s25.39-65.62,168.33-72.31c128.14-6.01,133.38,58.44,133.38,58.44h69.1v31.46l-489.71,27.21Z"/>
      <path class="st15" d="M8519.46,6210.14l95.02-27.7c17.89-5.21,36.77-6.05,55.04-2.43,22.3,4.41,42.73,15.2,58.93,31.14,31.46,30.99,82.14,82.18,89.37,97.43,10.6,22.34,10.63,60.93,0,75.15-10.62,14.21,23.32,87.34,19.08,111.71-4.24,24.39-10.57,48.76-19.08,58.92-8.5,10.16-.02,44.9-21.24,71.2-21.21,26.3-40.3,42.55-40.3,42.55,0,0-260.96,12.19-286.42,0s-70.02-58.91-70.02-58.91c0,0-23.33-42.66,12.73-46.72l-148.54-56.88c-17.82-6.82-28.43-26.73-21.54-44.52,2.37-6.15,6.41-11.48,13.08-14.38,0,0-66.67-21.09-82.09-27.9-30.82-13.59-42.47-85.33,21.31-76.15,33.71,4.84,79.2,14.67,79.2,14.67,0,0-24.3-39.61,9.69-63.17,20.66-14.33,113.63,3.14,113.63,3.14l122.15-87.15Z"/>
      <path class="st20" d="M8552.55,6601.83c-.12,2.01-35.48.48-77.17-11.52-41.93-11.5-72.32-30.31-71.12-32.11,1.03-1.83,32.08,13.44,73.23,24.72,40.93,11.8,75.3,16.7,75.06,18.91Z"/>
      <path class="st20" d="M8495.79,6509.09c-.52,2.06-54.77-10.01-121.13-26.96-66.4-16.94-119.78-32.34-119.25-34.4.52-2.05,54.75,10.02,121.14,26.96,66.37,16.94,119.76,32.35,119.24,34.4Z"/>
      <path class="st20" d="M8526.67,6416.75c-.48,2.05-58.87-9.84-130.39-26.56-71.55-16.74-129.15-31.98-128.66-34.04.48-2.06,58.86,9.83,130.41,26.56,71.52,16.72,129.13,31.97,128.64,34.04Z"/>
      <path class="st20" d="M8623.27,6297.86c.23,1.04-12.6,5.04-33.51,10.67-11.38,2.94-23.68,6.12-36.8,9.5-7.09,1.76-14.38,3.56-21.88,5.41-7.9,2.08-16.48,2.91-25.08,2.4-8.61-.48-16.79-2.16-24.46-4.01-7.51-1.7-14.81-3.37-21.9-4.98-13.19-3.17-25.56-6.13-37-8.88-21.02-5.28-33.92-9.07-33.7-10.11.2-1.04,13.5.87,34.86,4.8,11.57,2.25,24.08,4.69,37.43,7.29,14.15,2.47,29.48,7.12,45.21,8.22,15.75,1.29,30.34-4.32,44.68-6.97,13.32-2.83,25.8-5.48,37.34-7.94,21.3-4.3,34.57-6.43,34.81-5.4Z"/>
      <path class="st20" d="M8640.03,6347.85c.8-.54,4.33,2.66,7.2,9.67,2.87,6.86,4.54,17.85,1,29.15-3.56,11.3-11.18,19.36-17.46,23.37-6.36,4.11-11.08,4.72-11.42,3.83-1.16-1.83,15.47-10.03,21.55-29.5,6.11-19.46-2.85-35.68-.87-36.52Z"/>
      <path class="st20" d="M8634.59,6448.69c1.85-.86,7.76,9.64,6.91,23.96-.75,14.32-7.79,24.1-9.53,23.04-1.98-.97,1.26-10.96,1.86-23.47.8-12.49-1.31-22.78.76-23.53Z"/>
      <path class="st20" d="M8636.14,6558.2c1.93-.73,5.87,6.37,4,15.61-1.83,9.27-8.19,14.31-9.7,12.89-1.7-1.37.82-7.18,2.16-14.39,1.53-7.17,1.45-13.49,3.54-14.11Z"/>
      <path class="st20" d="M8664.55,6291.84c-.19,1.04-9.78.47-25.09-1.28-8.74-1.13-17.64-2.29-26.82-3.48-10.23-1.62-20.7-3.23-31.94-1.56-10.22,1.47-20.27,7.68-28.39,12.76-8.17,5.53-15.3,11.6-22.16,15.65-13.78,8.28-23.95,8.98-24.05,8.23-.42-1.27,8.95-3.88,21.03-12.76,11.97-8.45,26.89-26.15,52.58-31.5,6.16-.76,12.07-.86,17.91-.42,6.01.6,10.92,1.77,16.06,2.6,9.14,1.75,17.99,3.45,26.68,5.11,15.14,3.15,24.38,5.61,24.19,6.65Z"/>
      <path class="st20" d="M8815.33,6559.25c-.54-.25,2.22-6.81,6.67-18.76,4.18-11.92,10.77-29.56,10.48-52.02-.05-11.18-2.23-23.37-5.58-36.21-3.05-12.98-9-25.88-12.32-41.41-3.79-15.89,1.11-32.68,3.21-48.2,2.16-15.68-1.27-32.11-8.5-47.45-7.2-15.4-17.16-29.11-27.16-42.02-10.15-12.87-20.09-25.33-29.98-36.57-19.69-22.56-40.91-39.83-61.72-48.28-20.72-8.76-39.51-9.63-51.87-7.86-12.52,1.66-18.93,5.04-19.23,4.31-.11-.24,1.43-1.15,4.48-2.7,3.1-1.41,7.85-3.27,14.25-4.55,12.68-2.77,32.45-2.75,54.39,5.76,22.12,8.19,44.63,25.87,64.97,48.6,10.27,11.37,20.28,23.7,30.63,36.64,10.23,13.03,20.55,27.11,28.2,43.44,7.69,16.17,11.5,34.49,9.01,51.62-2.46,16.84-6.98,31.7-3.73,45.94,2.8,14.19,8.67,27.83,11.54,41.16,3.18,13.26,5.14,26.04,4.84,37.78-.45,23.68-8.1,41.46-13.15,53.15-5.35,11.73-9,17.83-9.43,17.63Z"/>
      <path class="st15" d="M7937.93,5832.74l-1029.13,163.46,45.71-537.1-572.31-110.59-69.6,795.21-12.05,182.27c-8.17,123.49,48.42,242.34,149.42,313.86,91.8,65.01,208.93,82.77,315.88,47.91l221.13-72.07,1078.52-383.68"/>
      <path class="st15" d="M8560.62,5721.98c4.13-17.78-11.1-34.31-29.36-34.38-58.02-.23-214.62.65-269.95,16.34-68.45,19.41-323.38,128.79-323.38,128.79l108.06,399.07,391.34,4.15s142.95-65.71,144.72-94.12c.92-14.54-3.54-53.28-3.54-53.28l43.12-23.12c64.31-40.81,23.09-119.07,23.09-119.07,0,0,44.23-24.81,46.59-69.64,2.49-47.29-34.53-65.99-34.53-65.99,0,0,17.74-63.1-15.22-80.09-32.95-16.99-88.72,4.85-88.72,4.85,3.88-3.02,6.47-7.88,7.78-13.51Z"/>
      <path class="st20" d="M8583.11,5728.55c.13.52-4.14,1.98-12.02,4.21-7.86,2.21-19.42,4.8-33.8,7.25-28.74,5.14-68.78,9.46-112.82,14.19-44.05,4.75-83.75,10.11-111.76,17.03-28.16,6.59-43.89,15.32-44.55,14.16-.26-.46,3.53-2.89,10.72-6.94,7.31-3.75,18.36-8.27,32.42-12.47,28.14-8.4,68.18-14.65,112.33-19.42,44.17-4.74,84.11-8.19,112.86-11.92,28.76-3.54,46.32-7.25,46.62-6.09Z"/>
      <path class="st20" d="M8656.71,5808.41c.42.85-9.73,6.98-27.45,14.08-17.67,7.17-42.98,14.77-71.34,20.75-28.39,5.97-54.31,9.75-73.08,12.19-18.77,2.41-30.45,3.45-30.64,2.4-.46-2.48,45.78-10.69,102.12-22.11,28.13-5.92,53.23-12.58,71.11-18.36,17.91-5.67,28.78-10.01,29.28-8.95Z"/>
      <path class="st20" d="M8645.58,5947.06c.73,1.84-35.93,17.73-83.83,28.48-47.89,10.94-87.8,12.4-87.92,10.42-.21-2.25,38.94-7.1,86.22-17.91,47.31-10.62,84.74-23.11,85.53-20.99Z"/>
      <path class="st20" d="M8621.63,6065.43c.77,1.86-27.34,14.81-64.32,23.68-36.95,8.99-67.87,10.28-68.04,8.27-.23-2.21,29.87-6.88,66.24-15.74,36.4-8.72,65.33-18.29,66.12-16.21Z"/>
      <path class="st20" d="M8417.57,5994.66c.3.9-4.01,3.51-11.94,4.24-7.8.79-19.4-.96-29.59-8.19-10.18-7.24-15.66-17.61-17.49-25.23-1.92-7.74-.88-12.66.07-12.67,2.07-.53,4.24,19.11,21.87,31.64,17.63,12.51,36.9,8.08,37.08,10.21Z"/>
      <path class="st20" d="M8409.38,6118.31c.34,2.07-15.3,3.03-28.67-9.01-13.49-11.9-14.33-27.55-12.23-27.45,2.16-.48,5.96,11.84,17.35,21.72,11.1,10.17,23.77,12.54,23.55,14.74Z"/>
      <path class="st20" d="M8364.05,5867.14c.84,2.04-10,5.46-19.98-2.14-10.05-7.53-9.72-18.89-7.52-18.64,2.14-.25,4.78,7.18,12.15,12.51,7.14,5.63,15,6.14,15.35,8.27Z"/>
      <path class="st20" d="M7937.93,5832.74c-.04-.11.99-.67,3.07-1.67,2.42-1.13,5.49-2.56,9.29-4.33,8.72-3.85,20.83-9.21,36.31-16.05,31.73-13.82,78.04-33.68,136.47-57.66,29.26-11.93,61.48-24.98,96.77-38.08,17.74-6.21,35.88-13.71,56.17-17.44,20.01-3.79,40.79-5.91,62.18-7.68,42.81-3.32,88.09-4.8,135.42-5.51,11.84-.1,23.8-.2,35.89-.3l18.22-.04c5.94-.21,13.61.64,19.47,4.03,12.11,6.22,20.79,20.63,16.74,35.56-1.48,3.24-3.08,3.9-4.53,5.11-1.48,1.05-2.94,1.91-4.4,2.71-2.95,1.6-5.91,2.92-8.9,4.18-6.05,2.5-11.94,4.69-18.59,6.43-1.98.52-4.01-.67-4.53-2.66-.52-1.96.68-3.98,2.62-4.53,15.9-4.56,32.06-8.29,48.79-10.88,16.68-2.5,33.9-4.29,51.6-1.81,8.7,1.44,18.12,4.14,25.28,10.96,7.09,6.71,10.76,15.92,12.51,24.85,3.3,18.17,1,36.15-3.3,53.84l-1.97-4.47c8.4,4.68,15.57,11.23,21.66,19.1,15.27,19.86,18.8,46.77,11.26,69.8-7.85,23.22-24.95,41.14-44.85,53.47l1.5-5.08c10.15,21.47,15.43,44.85,12.42,68.14-2.66,23.5-17.99,43.93-36.89,55.81l-.24.13c-14.62,7.82-28.98,15.5-43.15,23.07l1.88-3.59c1.13,10.33,2.1,20.54,2.83,30.74.35,5.09.64,10.18.75,15.31.05,2.56.03,5.15-.1,7.81-.43,3.36-1.67,6.26-3.21,8.54-6.24,9.21-14.36,15.16-22.23,21.19-7.99,5.85-16.17,11.14-24.37,16.15-32.9,19.88-65.67,36.16-97.14,50.89-.43.19-.89.28-1.33.28-118.5-1.82-216.18-3.31-284.8-4.36-33.67-.72-60.17-1.28-78.8-1.68-8.69-.28-15.54-.51-20.64-.67-4.67-.21-7.07-.39-7.06-.55,0-.16,2.39-.3,7.07-.4,5.11-.06,11.95-.14,20.65-.24,18.63,0,45.15-.01,78.82-.01,68.62.41,166.32.98,284.83,1.68l-1.34.29c31.14-14.79,63.79-31.23,96.18-51.01,8.07-4.99,16.1-10.22,23.82-15.93,7.55-5.72,15.49-11.94,20.39-19.34,1.26-1.83,1.84-3.67,2.12-5.27.1-2.34.12-4.76.06-7.22-.11-4.93-.42-9.93-.79-14.96-.75-10.03-1.74-20.21-2.89-30.42-.17-1.51.62-2.91,1.88-3.59,14.15-7.62,28.5-15.34,43.09-23.19l-.23.14c17.47-11.19,30.95-29.23,33.41-50.65,2.81-21.11-2.31-43.77-11.71-63.55-.88-1.84-.2-4.03,1.5-5.09,18.12-11.22,34.44-28.44,41.28-49.22,6.78-20.63,3.56-45.21-10.08-62.76-5.3-6.97-12.29-13.16-19.01-16.89-1.62-.89-2.38-2.77-1.97-4.47,4.05-16.45,6.2-34.14,3.2-50.29-1.57-8.01-4.75-15.6-10.27-20.8-5.41-5.23-13.21-7.65-21.18-8.98-16.2-2.32-33.03-.7-49.29,1.75-16.29,2.48-32.38,6.18-47.79,10.55l-1.92-7.19c5.7-1.48,11.78-3.66,17.41-6,2.83-1.19,5.64-2.44,8.24-3.84,2.58-1.01,5.08-3.86,6.1-3.6,0-4.92.3-10.76-2.48-15.49-2.42-4.82-6.49-8.87-11.31-11.37-4.97-2.73-9.91-3.38-16.09-3.24l-18.19-.04c-12.06.07-24,.13-35.81.19-47.23.53-92.43,1.81-135.01,4.89-21.27,1.64-41.93,3.63-61.53,7.23-19.48,3.42-37.7,10.74-55.38,16.81-35.26,12.78-67.58,25.54-96.92,37.15-58.16,23.57-104.73,42.42-137.27,55.61-15.68,6.36-27.95,11.34-36.77,14.91l-9.56,3.73c-2.17.8-3.29,1.16-3.33,1.06Z"/>
      <path class="st20" d="M6912.96,5995.23c1.37,2.13-40.6,22.36-76.09,65.58-36.07,42.75-48.32,87.7-50.67,86.74-.85-.22.99-11.66,7.67-29.1,6.62-17.4,18.82-40.54,37.09-62.56,18.34-21.96,38.86-38.16,54.78-47.84,15.94-9.74,26.85-13.63,27.22-12.82Z"/>
      <path class="st15" d="M8256.79,2813.11c-21.22-270.09-246.31-478.55-517.23-479.11l-26.92-.05c-290.31,16.35-438.6,272.04-414.2,561.78l50.08,1161.57c.83,19.49,12.44,36.92,30.1,45.2l651.52,305.76-20.13-609.61s279.14-42.82,283.16-321.81c1.94-134.74-16.64-412.52-36.38-663.73Z"/>
      <path class="st20" d="M8012.32,3798.24s-178.19,10.37-365.35-107.73c0,0,85.56,200.96,364.01,176.4l1.34-68.67Z"/>
      <path class="st19" d="M8157.86,2986.36c.71,21.04-16.53,38.99-38.5,40.12-21.91,1.13-40.29-14.96-40.99-36.01-.7-21.03,16.53-39,38.46-40.14,21.96-1.13,40.34,15,41.03,36.03Z"/>
      <path class="st19" d="M8196.52,2949.49c-4.94,5.19-35.07-17.22-77.95-17.18-42.83-.6-74.35,21.4-78.98,16.14-2.28-2.33,2.77-11.71,16.49-21.65,13.51-9.9,36.53-19.52,63.24-19.34,26.7.19,49.15,10.07,62.04,20.16,13.16,10.15,17.61,19.55,15.16,21.87Z"/>
      <path class="st19" d="M7736.39,2999.39c.71,21.04-16.54,38.99-38.5,40.12-21.91,1.13-40.29-14.95-40.99-36.01-.69-21.03,16.54-39,38.47-40.14,21.96-1.13,40.33,15,41.02,36.03Z"/>
      <path class="st19" d="M7775.08,2956.63c-4.96,5.18-35.14-17.21-77.98-17.19-42.82-.59-74.34,21.41-78.98,16.14-2.27-2.33,2.73-11.69,16.5-21.64,13.51-9.91,36.53-19.51,63.23-19.36,26.71.21,49.16,10.08,62.06,20.17,13.12,10.15,17.59,19.56,15.17,21.88Z"/>
      <path class="st19" d="M7930.02,3274.9c-.19-2.43,26.47-6.99,69.66-12.42,10.95-1.11,21.31-3.26,23.17-10.73,2.6-7.9-1.95-19.71-7.23-32.46-10.24-26.52-20.95-54.31-32.21-83.43-44.72-118.8-77.06-216.45-72.27-218.21,4.81-1.76,44.95,93.09,89.66,211.88,10.77,29.29,21.05,57.2,30.84,83.93,4.12,12.45,11.23,26.58,5.59,42.98-2.96,8.16-11,14.09-18.02,15.96-7.02,2.13-13.19,2.24-18.61,2.55-43.47,2.25-70.42,2.39-70.58-.05Z"/>
      <path class="st19" d="M7803.79,3304.3c6.97-.39,6.96,46.15,46.72,79.26,39.71,33.22,89.32,28.09,89.67,34.6.64,2.92-11.07,9.01-32.01,9.55-20.53.66-50.51-6.01-74.85-26.26-24.26-20.3-34.65-47.35-36.2-66.45-1.74-19.45,3.48-30.98,6.67-30.7Z"/>
      <path class="st19" d="M7786.5,2788.63c-4.26,11.65-47.05,6.03-97.36,11.99-50.44,4.95-91.04,19.59-97.69,9.13-2.96-5.01,4.13-15.97,20.56-27.22,16.27-11.23,42.23-21.88,72.44-25.19,30.2-3.23,57.84,1.62,76.14,9.1,18.46,7.48,27.73,16.65,25.91,22.19Z"/>
      <path class="st19" d="M8181.03,2825.38c-7.57,9.72-37.08-.45-72.6-.99-35.48-1.8-65.6,6.4-72.49-3.8-3.04-4.95,1.72-14.69,14.88-23.89,12.96-9.16,34.64-16.62,59.05-15.83,24.39.83,45.52,9.69,57.87,19.69,12.52,10.04,16.62,20.08,13.29,24.82Z"/>
      <path class="st15" d="M7340.17,3102.37c-4.75-2.07-191.58-57.1-185.88,133.65,5.71,190.75,196.04,145.68,196.2,140.2.17-5.48-10.32-273.85-10.32-273.85Z"/>
      <path class="st20" d="M7306.85,3305.7c-.86-.58-3.26,2.43-8.8,5.17-5.4,2.66-14.77,4.68-24.83,1.25-20.36-6.8-38.29-38.28-40.25-72.63-1-17.35,2.15-33.99,7.89-47.85,5.4-14.14,14.14-24.16,24.23-26.26,10.03-2.64,17.39,3.22,19.88,8.52,2.72,5.26,1.62,9.1,2.64,9.4.56.46,4.01-3.32,2.23-11.15-.9-3.76-3.27-8.2-7.86-11.72-4.69-3.59-11.47-5.29-18.52-4.31-14.68,1.46-27.52,15.38-33.84,30.6-7.11,15.33-11.06,34.04-9.92,53.52,2.37,38.4,23.12,73.78,50.94,80.93,13.52,3.1,24.59-1.29,30.24-5.96,5.77-4.9,6.64-9.18,5.97-9.51Z"/>
      <path class="st19" d="M7465.21,2535.34l795.44,17.53c-24.73-54.87-68.9-98.8-116.86-135.17-103.38-78.39-230.45-127.35-360.17-129.63-129.73-2.26-393.8,155.74-487.78,245.2-75.2,71.58-74.72,133.52-74.72,133.52-11.94,103.12,45.78,220.36,68.72,321.61,11.85,52.23,34.7,210.22,34.7,210.22h.02c43.83-.15,60.11-35.03,53.45-78.35l-8.21-170s149.07-105.93,78.45-299.81c-11.36-15.43-35.53-86.26,16.96-115.12Z"/>
      <path class="st20" d="M7632.25,3138.62c-2.56.5-5.09-1.36-5.64-4.17-.55-2.79,1.07-5.48,3.63-5.98,2.56-.51,5.09,1.35,5.64,4.16.56,2.79-1.07,5.48-3.63,5.99Z"/>
      <path class="st20" d="M7714.2,3120.2c-2.56.51-5.15-1.69-5.79-4.9-.63-3.22.94-6.23,3.49-6.74,2.57-.5,5.16,1.7,5.79,4.9.64,3.21-.93,6.24-3.49,6.74Z"/>
      <path class="st20" d="M7769.37,3118.95c-2.6.32-5.12-2.85-5.65-7.1-.52-4.23,1.16-7.92,3.75-8.24,2.58-.33,5.12,2.85,5.64,7.09.52,4.23-1.15,7.93-3.74,8.25Z"/>
      <path class="st20" d="M7672.41,3190.11c-2.61,0-4.72-1.36-4.72-3.04s2.12-3.01,4.73-3.01c2.61.01,4.73,1.37,4.72,3.03,0,1.68-2.12,3.03-4.73,3.02Z"/>
      <path class="st20" d="M7747.58,3172.83c-2.61.22-4.91-1.99-5.16-4.94-.25-2.96,1.65-5.54,4.25-5.76,2.6-.21,4.91,2,5.17,4.96.25,2.95-1.66,5.53-4.26,5.74Z"/>
      <path class="st20" d="M8138.65,3126.96c-2.56.51-5.1-1.42-5.67-4.32-.58-2.89,1.03-5.64,3.6-6.15,2.56-.5,5.1,1.42,5.67,4.31.57,2.9-1.04,5.65-3.6,6.16Z"/>
      <path class="st20" d="M8194.48,3121.97c-2.6.25-4.96-2.2-5.27-5.48-.32-3.28,1.53-6.14,4.13-6.39,2.6-.25,4.97,2.21,5.27,5.48.32,3.29-1.53,6.14-4.13,6.39Z"/>
      <path class="st20" d="M8089.34,3128.24c-2.56.52-4.99-.9-5.44-3.15-.45-2.25,1.27-4.48,3.83-4.99,2.55-.5,5,.91,5.44,3.15.44,2.25-1.27,4.49-3.83,4.99Z"/>
      <path class="st20" d="M8130.61,3184.16c-2.39,1.05-5.31-.34-6.52-3.1-1.21-2.77-.27-5.87,2.12-6.91,2.4-1.05,5.32.34,6.53,3.1,1.22,2.76.26,5.86-2.13,6.91Z"/>
      <path class="st20" d="M8178.31,3174.73c-2.51-.7-4.08-2.97-3.5-5.09.58-2.11,3.1-3.28,5.62-2.58,2.51.7,4.08,2.97,3.49,5.09-.58,2.12-3.09,3.27-5.61,2.58Z"/>
      <path class="st19" d="M7290.61,2544.15c-20.32-69.67-.08-147.27,44.64-204.41,44.73-57.15,117.8-90.92,190.31-87.95,37.15,1.52,74.07,12.05,111.03,8.01,68.82-7.52,121.9-62.69,185.72-89.49,99.46-41.76,225.97-3.81,286.02,85.81,24.19,36.12,40.08,80.76,77.15,103.51,32.05,19.68,72.44,18.04,108.45,28.88,72.82,21.94,122.71,99.25,118.92,175.21-3.78,75.96-57.01,145.5-126.99,175.27-70,29.77-153.37,21.46-219.83-15.52-60.01-33.39-113.76-90.35-182.4-88.34-71.12,2.07-133.25,69.13-203.03,55.22-36.57-7.28-64.76-35.45-91.54-61.41-26.77-25.95-57.59-52.39-94.82-54.59-37.24-2.19-56.63,48.97-43.31,83.8l-160.32-114Z"/>
      <path class="st24" d="M8245.2,2451.91c.12.06-.32,1-1.28,2.78-.96,1.77-2.36,4.45-4.62,7.69-4.33,6.57-11.48,15.93-22.79,25.89-11.27,9.93-26.94,20.37-47.3,27.4-20.23,7.01-45.55,10.03-72.18,4.3-26.47-5.53-54.45-19.43-76.12-43.3-21.74-23.87-34.63-55.78-54.86-83.82-10.1-14.01-22.72-26.65-38.52-34.85-15.87-8.02-34.18-11.93-52.74-11.6-18.57.45-37.35,5.46-54.14,14.58-16.75,9.41-30.57,23.51-39.91,41.05-9.6,17.47-16.48,36.66-28.04,53.66-11.04,17.23-30.36,30.19-50.93,31-20.48,1.14-39.42-6.49-55.52-16.04-16.35-9.55-29.91-22.46-42.23-34.96-24.53-24.78-48.76-49.49-78.88-56.17-29.79-7.09-58.97,3.87-79.88,18.77-21.34,15.27-35.07,35.49-43.9,54.34-8.83,18.98-13.45,36.64-16.4,51.14-2.95,14.53-4.33,26.02-5.27,33.78-.94,7.78-1.38,11.89-1.68,11.87-.13-.01-.19-1.05-.18-3.07.02-2.01.06-5.01.31-8.93.45-7.84,1.36-19.43,3.89-34.2,2.52-14.73,6.76-32.76,15.44-52.38,8.62-19.45,22.54-40.73,44.59-56.95,21.59-15.78,52.19-27.9,84.51-20.58,32.6,7.05,57.9,32.94,82.43,57.37,12.44,12.45,25.37,24.61,41.01,33.68,15.36,9.06,33.15,15.93,51.28,14.81,18.18-.88,34.73-11.81,45.12-27.81,10.79-15.86,17.67-34.86,27.6-53.03,9.73-18.4,25.05-34.14,42.91-44.01,17.98-9.77,37.95-15.01,57.69-15.45,19.74-.29,39.27,3.92,56.3,12.63,17.05,8.91,30.53,22.65,40.86,37.2,20.75,29.24,33.25,60.79,53.89,83.73,20.41,22.9,47.11,36.58,72.52,42.23,25.57,5.85,49.93,3.35,69.68-3.07,19.86-6.43,35.39-16.21,46.71-25.59,22.67-19.12,29.77-34.79,30.63-34.09Z"/>
      <path class="st24" d="M8389.36,2454.74c.35-.07,2.24,5.25,3.24,15.34,1.01,10.05.65,24.97-4.02,42.61-4.79,17.53-14.17,37.67-29.82,56.15-15.58,18.53-37.5,34.59-62.91,45.79-51.43,22.54-103.61,20.51-138.75,15.68-17.8-2.53-31.98-5.74-41.67-8.31-9.68-2.56-14.91-4.45-14.79-4.92.28-1.29,21.81,4.08,57.1,7.84,34.9,3.4,85.56,4.39,135.02-17.33,24.45-10.78,45.52-25.96,60.63-43.37,15.22-17.37,24.72-36.39,29.97-53.05,10.42-33.86,4.29-56.44,6-56.43Z"/>
      <path class="st1" d="M7031.9,5527.9c2.68,31.8,16.36,60.49,33.41,82.66,17.05,22.17,51.74,43.86,79.67,42.28,0,0,69.68,5.95,107.19-53.78,33.98-54.11,42.36-166.63,15.11-233.16-18.74-45.74-60.84-88.28-110.26-89.45-64.88-1.53-105.57,45.36-119.43,92.81"/>
      <path class="st19" d="M7037.58,5369.26s1.46-12.36,12.01-31.81c5.29-9.64,12.94-21,24.35-31.92,11.27-10.97,26.77-21.14,45.94-26.97,9.56-2.81,19.95-4.77,30.85-4.93,10.84-.55,22.53.73,33.76,4.44,22.62,7.29,43.58,22.88,60.25,43.2,16.87,20.22,29.3,45.87,35.41,73.76,6.32,27.83,8.24,57.39,6.59,87.41-2.99,46.19-12.06,92.15-37.64,127.29-12.93,17.2-30.61,29.65-48.96,36.91-18.48,7.34-37.31,10.16-55.42,9.33h.43c-14.86.58-28.16-4.25-39.72-9.84-11.53-5.87-21.5-13.04-29.88-20.84-16.74-16-25.93-33.82-32.54-48.49-6.39-14.87-9.07-27.35-10.31-35.82-.58-4.24-.88-7.51-.92-9.72-.08-2.21-.05-3.35.12-3.36,1.12-.26,1.08,18.53,14.39,47.43,6.86,14.05,16.56,31.46,32.69,46.21,8.18,7.32,17.9,14.05,28.97,19.45,11.06,5.17,23.73,9.42,36.85,8.71h.1s.35,0,.35,0c33.25,1.18,73.65-11.63,98.03-44.4,23.81-32.9,32.97-78.1,35.8-123.29,3.16-58.35-6.62-117.14-39.83-156.27-15.82-19.59-35.63-34.54-56.74-41.61-10.55-3.61-21.24-4.94-31.63-4.57-10.41-.01-20.32,1.71-29.48,4.21-18.33,5.23-33.37,14.59-44.53,24.92-11.29,10.24-19.11,21.03-24.68,30.24-11.14,18.59-13.75,30.66-14.61,30.33Z"/>
      <path class="st1" d="M6997.37,5530.82c2.69,31.8,16.35,60.49,33.42,82.66,17.04,22.17,51.73,43.87,79.66,42.27,0,0,69.68,5.95,107.19-53.78,33.98-54.1,42.36-166.62,15.12-233.14-18.74-45.76-60.84-88.29-110.27-89.46-64.88-1.53-105.57,45.36-119.43,92.82"/>
      <path class="st19" d="M7003.06,5372.19s1.45-12.37,12-31.82c5.29-9.64,12.95-20.99,24.35-31.91,11.27-10.99,26.77-21.15,45.93-26.97,9.57-2.82,19.96-4.78,30.86-4.94,10.84-.55,22.53.73,33.76,4.44,22.63,7.29,43.57,22.89,60.25,43.2,16.87,20.21,29.3,45.88,35.42,73.76,6.31,27.82,8.23,57.38,6.59,87.4-3.01,46.19-12.08,92.16-37.64,127.29-12.94,17.22-30.62,29.66-48.97,36.92-18.47,7.34-37.31,10.16-55.43,9.32h.45c-14.87.59-28.17-4.24-39.73-9.84-11.54-5.85-21.5-13.04-29.89-20.83-16.72-16-25.92-33.82-32.54-48.49-6.38-14.88-9.07-27.35-10.3-35.81-.57-4.26-.88-7.52-.92-9.73-.08-2.2-.04-3.35.12-3.36,1.12-.27,1.09,18.53,14.39,47.43,6.86,14.05,16.56,31.46,32.69,46.21,8.18,7.31,17.9,14.05,28.97,19.45,11.06,5.18,23.73,9.42,36.85,8.71h.11s.33,0,.33,0c33.25,1.16,73.66-11.65,98.05-44.42,23.8-32.9,32.96-78.09,35.79-123.27,3.16-58.36-6.62-117.16-39.83-156.28-15.82-19.58-35.64-34.54-56.75-41.62-10.53-3.61-21.23-4.92-31.62-4.57-10.41-.01-20.32,1.71-29.47,4.22-18.35,5.24-33.39,14.59-44.54,24.91-11.29,10.25-19.12,21.04-24.68,30.26-11.13,18.58-13.74,30.64-14.6,30.33Z"/>
      <path class="st1" d="M7059.98,5355.58c-32.26-6.42-65.57,15.73-79.22,45.65-13.64,29.92-10.61,65.19.19,96.25,5.49,15.81,13.07,31.19,24.55,43.36,11.5,12.17,27.28,20.89,44.01,21.4,24.55.74,46.61-16.01,60.9-35.99,23.03-32.21,30.87-74.83,20.79-113.14-6.72-25.58-25.54-51.79-51.98-52.49"/>
      <path class="st19" d="M7079.22,5360.63c0-.22,2.01-.47,5.87-.16,3.83.38,9.54,1.74,16,5.42,12.94,7.17,27.72,24.94,33.72,50.76,6.28,25.36,5.55,58.4-9.09,90.29-7.35,15.73-17.84,31.44-33.07,43.41-14.73,11.98-36.3,19.67-56.91,13.62-20.36-5.7-35.85-20.82-45.48-37.16-9.76-16.52-15.38-33.98-18.94-50.96-7.1-33.95-1.34-67.56,14.73-89.1,15.79-21.69,37.07-30.82,51.46-32.71,7.29-1.18,13.04-.52,16.82-.05,3.78.8,5.69,1.34,5.65,1.59-.08.89-8.08-1.5-21.95,1.4-13.57,2.68-33.29,12.14-47.55,32.91-14.4,20.42-19.39,52.08-12.23,84.54,3.57,16.19,9.24,33.14,18.44,48.48,9.08,15.23,23.23,28.65,41.09,33.66,17.82,5.21,36.48-1.2,50.25-12.16,14.06-10.89,24.13-25.59,31.27-40.47,14.25-30.09,15.58-61.62,10.22-86.07-5.05-24.7-18.34-41.97-30.01-49.43-11.84-7.69-20.5-6.91-20.29-7.81Z"/>
      <path class="st19" d="M7134.37,5598.06c-1.17.29-2.79-4.65-7.84-10.58-4.94-5.94-13.83-12.58-25.18-16.14-11.46-3.55-22.76-4.14-30.96-4.8-8.25-.6-13.46-1.28-13.49-2.36-.02-1.04,5.04-2.28,13.44-3.07,8.34-.71,20.41-1.07,33.31,2.9,12.99,4.05,22.84,12.6,27.3,20.33,4.61,7.79,4.3,13.62,3.42,13.72Z"/>
      <path class="st19" d="M7145.95,5335.49c.68.67-2.27,5.28-9.13,10.71-6.81,5.42-17.86,11.17-31.1,13.58-13.24,2.37-25.61.86-33.88-1.85-8.33-2.69-12.7-5.97-12.31-6.83.8-2.13,20.42,5.81,44.83,1.12,24.51-4.14,40.1-18.46,41.59-16.73Z"/>
      <path class="st19" d="M3081.91,2755.64c1.84-64.25-57.6-113.9-117.4-137.44-59.82-23.53-126.3-32.4-179.63-68.29-47.21-31.78-78.95-81.34-118.91-121.86-98.05-99.39-251.13-140.6-385.83-103.85-134.68,36.74-245.63,149.98-279.62,285.39-22.97,91.51-7.28,199.69,64.84,260.5,83.72,70.57,207.84,54.9,315.1,32.95,107.28-21.95,228.68-43.61,318.25,19.38,54.01,37.99,84.96,99.79,117.98,156.98,33.02,57.19,74.45,115.58,136.9,137.08,62.44,21.49,147.21-15.63,149.65-81.62"/>
      <path class="st19" d="M3077.58,2790.91c-7.07,53.86,31.91,102.07,70.71,140.1,38.79,38.02,82.62,78.34,89.47,132.23,7.99,62.94-37.96,124.93-24.62,186.96,8.46,39.37,39.08,69.71,57.66,105.44,26.07,50.19,27.42,110.88,11.43,165.12s-41.47,175.36-79.18,217.51c-104.26,116.56-270.26,217.15-422.67,252.16-152.41,35.02-310.72,35.22-466.81,25.62-127.78-7.86-274.72-1.99-381.2-177.78-55.15-91.05-82.47-212.1-111.78-314.43-25.24-88.12-47.07-182.48-20.84-270.29,15.29-51.17,46.08-96.66,61.14-147.88,18.84-64.01,11.98-132.45,19.55-198.72,16.41-143.5,105.46-276.78,231.73-346.88,126.29-70.07,286.51-75.12,416.95-13.13"/>
      <path class="st15" d="M1941.58,3011.72c11.96-183.36,133.97-408.1,316.66-388.37l570.28,145.48c55.5,6,97.19,53.46,95.96,109.27l-64.11,1375.8c1.36.31,2.6.57,3.96.86,0,0-129.99,388.07-507.09,269.51-74.78-23.5-108.91-105.29-123.74-189.42l-3.86.49c-.14-9.99-.27-19.28-.39-28.83-12.44-97.09-2.25-188.92-2.25-188.92-1.06-111.08-.94-156.63-1.01-155.6,0,0-234.22-39.42-282.08-345.22-23.81-152.07-15.62-401.32-2.33-605.05Z"/>
      <path class="st19" d="M2033.43,3195.96c-.78,20.7,16.11,38.43,37.72,39.64,21.55,1.21,39.71-14.55,40.49-35.26.77-20.7-16.12-38.45-37.67-39.65-21.61-1.22-39.77,14.57-40.54,35.27Z"/>
      <path class="st19" d="M1995.36,3141.51c4.85,5.13,34.6-16.78,76.79-16.58,42.14-.41,73.06,21.37,77.65,16.21,2.25-2.27-2.68-11.51-16.14-21.36-13.24-9.8-35.86-19.36-62.14-19.31-26.29.1-48.41,9.72-61.13,19.59-13,9.92-17.41,19.16-15.03,21.45Z"/>
      <path class="st19" d="M2448.11,3195.97c-.79,20.69,16.1,38.42,37.71,39.63,21.56,1.2,39.71-14.55,40.49-35.26.77-20.7-16.12-38.45-37.68-39.65-21.6-1.22-39.75,14.57-40.52,35.28Z"/>
      <path class="st19" d="M2410.03,3150.31c4.86,5.12,34.64-16.79,76.81-16.58,42.13-.41,73.05,21.37,77.64,16.21,2.24-2.28-2.64-11.52-16.14-21.37-13.26-9.81-35.86-19.36-62.15-19.3-26.27.08-48.39,9.71-61.13,19.58-12.96,9.92-17.41,19.17-15.03,21.46Z"/>
      <path class="st19" d="M2256.24,3462.82c.2-2.39-26.01-6.98-68.49-12.5-10.78-1.14-20.97-3.31-22.77-10.66-2.52-7.79,2-19.38,7.26-31.91,10.19-26.05,20.85-53.35,32.05-81.96,44.49-116.7,76.74-212.66,72.02-214.4-4.71-1.76-44.63,91.41-89.12,208.1-10.7,28.77-20.96,56.21-30.7,82.45-4.1,12.23-11.15,26.1-5.68,42.27,2.88,8.05,10.78,13.92,17.68,15.79,6.9,2.12,12.96,2.25,18.29,2.57,42.76,2.41,69.29,2.66,69.46.25Z"/>
      <path class="st20" d="M2225.99,3961.99s205.62,13.71,409.65-108.3c0,0-103.41,211.39-409.31,182.1l-.34-73.8Z"/>
      <path class="st20" d="M2273.85,3564.55c15.21-20.04,41.83-30.99,68.21-28.09,18.3,2.02,36.78,10.88,47.88,25.81,11.08,14.93,13.36,36.11,3.23,50.29-11.42,15.99-35.22,19.63-55.34,13.87-20.13-5.77-37.42-19.06-53.85-32.3-4.54-3.67-9.19-7.49-12.02-12.5-2.84-5.01-3.43-11.56.1-15.7"/>
      <path class="st19" d="M2380.33,3492.29c-6.86-.42-7.05,45.38-46.32,77.79-39.19,32.53-88,27.28-88.37,33.67-.64,2.87,10.85,8.93,31.45,9.53,20.21.74,49.73-5.69,73.76-25.51,23.96-19.88,34.3-46.45,35.9-65.24,1.79-19.14-3.3-30.49-6.42-30.24Z"/>
      <path class="st19" d="M2391.22,3076.4c4.13,11.48,46.26,6.14,95.74,12.21,49.62,5.09,89.49,19.67,96.08,9.39,2.95-4.92-3.99-15.72-20.1-26.86-15.97-11.13-41.48-21.72-71.18-25.09-29.71-3.32-56.92,1.33-74.96,8.63-18.2,7.29-27.36,16.27-25.58,21.72Z"/>
      <path class="st19" d="M2011.14,3019.45c7.41,9.6,36.49-.28,71.43-.67,34.93-1.61,64.54,6.58,71.37-3.43,3-4.86-1.65-14.46-14.56-23.56-12.72-9.06-34.01-16.5-58.04-15.83-24.01.71-44.84,9.34-57.01,19.13-12.37,9.82-16.45,19.68-13.19,24.36Z"/>
      <path class="st19" d="M3041.98,3774.58c-84.07,16.94-175.63-8.9-238.45-67.29-62.82-58.39-95.26-147.82-84.48-232.9,9.51-75.08,49.97-151.47,23.95-222.53-34.41-93.95-166.11-122.85-201.06-216.6-20.31-54.5-2.09-118.24-25.11-171.64-21.64-50.22-74.48-79.13-125.91-97.72-51.42-18.6-106.55-31.43-149.73-64.99-43.18-33.57-70.1-96.9-42.25-143.96,228.05,27.33,452.82,81.94,668,162.3,49.88,18.63,102.29,41.04,131.79,85.38,31.21,46.91,29.71,107.55,27.09,163.83-12.81,274.49-25.63,548.97-38.43,823.47"/>
      <path class="st24" d="M3022.8,3879.67c.14.18,1.82-.89,4.93-3.16,3.72-2.82,8.18-6.23,13.61-10.35,11.82-9.26,29.19-23.03,50.63-41.95,21.32-19,46.99-43.15,71.88-75.64,24.63-32.22,48.83-74.22,57.16-125.83,9.11-50.2,2.43-113.4-39.42-160.85-20.61-23.25-47.07-40.67-71.23-60.73-24.57-19.64-44.97-44.62-55.55-75.78-22.62-62.32-12.54-134.48-21.27-208.22-9.67-73.38-35.9-149.14-86.67-210.64-25.35-30.42-55.78-56.75-90.66-74.09-34.68-18.3-72.27-25.85-106.97-36.1-35.05-9.68-67.19-24.18-93.87-46.27-26.87-21.61-48.86-47.98-68.14-75.13-38.4-54.54-66.8-112.65-103.38-161.11-18.2-24.19-37.98-46.23-60.23-63.95-22.25-17.73-46.66-30.79-71.42-38.9-49.34-16.84-101.43-11.26-135.77,13.54-33.93,25.8-46.35,62.98-48.23,91.51-1.42,29.39,8.52,51.43,18.39,62.96,4.84,5.96,9.16,9.81,12.47,11.94,3.11,2.34,4.74,3.42,4.87,3.23.14-.19-1.23-1.66-3.99-4.29-2.97-2.43-6.86-6.51-11.18-12.53-8.87-11.64-17.46-32.93-15.34-60.95,2.52-27.23,15.45-62.45,47.38-85.76,32.27-22.45,81.46-27.3,128.37-10.64,23.56,8.02,46.84,20.81,67.93,37.96,21.16,17.18,40.21,38.74,57.8,62.52,35.45,47.67,63.29,105.64,102.21,161.61,19.55,27.8,42.08,55.18,70.2,77.99,27.78,23.28,62.66,39.06,98.22,48.89,35.42,10.52,71.94,18.04,104.59,35.37,33.08,16.49,62.06,41.58,86.39,70.75,48.73,58.95,74.42,132.48,83.97,203.72,8.89,71.3-1.43,144.54,22.69,210.84,11.29,33.09,34.26,60.75,59.66,80.63,25.05,20.46,50.99,37.38,70.45,59.06,39.24,43.66,46.59,103.29,38.36,151.89-7.43,49.8-30.15,90.72-53.81,122.86-23.85,32.31-48.73,56.8-69.37,76.27-20.8,19.4-37.61,33.8-48.85,43.73-11.28,9.91-17.11,15.23-16.81,15.6Z"/>
      <path class="st19" d="M3078.61,3917.59c62.83-60.74,170.19-7.92,222.92,61.77,52.74,69.7,90.11,159.53,170.17,194.59,80.02,35.03,184.2,4.9,251.4,60.71,92.65,76.97,40.62,255.34,140.78,322.24,39.78,26.57,92.22,25.62,134.73,47.54,100.16,51.64,98.98,192.93,83.49,304.56-21.72,156.65-45.52,319.03-131.96,451.47-86.44,132.42-254.72,225.6-404.39,174.5-143.83-49.11-217.65-204.29-276.15-344.57-80.93-194.06-161.88-388.13-242.83-582.2-46.82-112.27-94.1-226.23-109.35-346.91s5.26-251.01,82-345.39"/>
      <path class="st18" d="M3118.91,3783.75c45.67-5.51,80.51,50.43,68.5,94.84-12.02,44.41-54.65,74.02-98.09,89.21-24.29,8.48-50.52,13.71-75.76,8.75-25.24-4.97-49.27-21.74-57.37-46.16-8.53-25.68-1.96-43.01,20.99-57.35,30.05-18.78,47.66-33.53,71.36-46.61,36.27-20,34.1-22.68,70.37-42.68Z"/>
      <path class="st14" d="M2068.22,4275.66l177.4-134.4,668.24-42.72,26.89,89.61-217.37,1356.45,171.48,1618.31h-932.29l105.65-2887.25Z"/>
      <g class="st22">
        <path d="M2783.77,6588.78c-21.31-22.76-56.28-54.08-87.45-54.77-223.21-4.92-451.24-27.23-674.46-32.15l-17.86,661.35c53.4-94.14,103.93-192.1,117.99-299.42,6.15-46.87,14.02-102.89,56.82-122.97,24.21-11.36,52.56-6.91,78.8-1.73,80.63,15.95,160.73,36.77,242.75,41.88,82.04,5.1,167.89-6.87,236.79-51.68,23.65-15.37,45.54-35.25,56.65-61.18,11.09-25.93,9.25-58.74-10.03-79.33Z"/>
      </g>
      <path class="st14" d="M2212.78,4303.01l-20.66-193.96c-3.63-34.15,21.4-64.67,55.62-67.76l615.21-55.59c16.66-1.5,31.13,11.34,31.64,28.06l6.93,230.75-178.14,302.29-183.12,58.27h-223.9l-128.79-137.52,25.21-164.54Z"/>
      <path class="st19" d="M2810.7,4170.51c-.12.63-8.81-.91-24.6-2.52-15.78-1.53-38.75-2.8-67.05-1.14-28.29,1.63-61.78,6.31-98.49,14.18-36.75,7.71-76.68,18.54-118.99,28.83-42.3,10.26-83.22,18.64-121.13,21.56-37.86,3.06-72.5.33-100.42-6.78-28.03-6.84-49.13-17.5-62.67-26.05-6.74-4.35-11.73-8.09-14.96-10.8-3.21-2.75-4.81-4.28-4.65-4.49.42-.53,7.36,4.94,21.14,12.72,13.8,7.64,34.78,17.31,62.39,23.33,27.49,6.29,61.36,8.41,98.58,5.02,37.27-3.26,77.74-11.74,119.92-21.98,42.16-10.25,82.27-20.91,119.36-28.29,37.05-7.55,71.01-11.74,99.67-12.67,28.66-.99,51.87,1.14,67.68,3.59,7.89,1.3,14,2.48,18.07,3.55,4.09,1.03,6.2,1.68,6.15,1.94Z"/>
      <g class="st22">
        <path d="M2227.45,4200.98c-16.46,45.29-16.93,101.37,16.48,136.09,27.24,28.29,70.99,35.37,109.5,27.68,38.52-7.69,73.19-27.94,106.93-48.03,84.69-50.41,170.75-102.59,266.96-123.96,6.17-1.38,12.74-2.81,17.28-7.21,4.53-4.41,5.67-12.93.55-16.65-2.26-1.64-5.17-2.01-7.96-2.29-85.09-8.53-169.56,15.52-253,34.25-83.43,18.74-172.52,31.99-252.96,2.97"/>
      </g>
      <path class="st19" d="M2344.97,4035.06c.62,1.1-11.96,4.07-21.05,20.12-9.7,15.6-9.18,42.07-8.41,70.68,1.59,57.42,11.06,103.31,8.82,103.77-.99.22-4.61-11-8.34-29.66-3.73-18.64-7.28-44.8-8.15-73.87-.32-14.55-.47-28.3.83-41.12,1.34-12.76,4.96-24.39,10.64-32.66,5.56-8.3,12.3-13.26,17.36-15.44,5.08-2.26,8.22-2.24,8.3-1.82Z"/>
      <path class="st19" d="M2507.53,4203.69c-2.4-.24,3.1-42.53-4.41-93.9-7.07-51.44-24.12-90.53-21.88-91.42.87-.4,6.27,8.86,12.59,24.97,6.33,16.08,13.15,39.16,16.89,65.37,3.69,26.21,3.56,50.28,1.95,67.48-1.59,17.23-4.19,27.63-5.14,27.5Z"/>
      <path class="st19" d="M2705.57,4002.1c.77-.42,6.39,7.78,11.73,22.84,5.38,14.96,9.65,37.06,8.06,61.51-1.67,24.45-8.82,45.8-16.13,59.93-7.3,14.2-13.94,21.58-14.65,21.07-2.24-1.06,20.38-34.13,23.11-81.51,3.57-47.31-14.48-83.08-12.12-83.84Z"/>
      <path class="st17" d="M1843.01,4362.89s-209.71,140.47-264.82,394.18c-43.32,199.42-162,1252.78-162,1252.78l-207.76,404.57,135.67,322.71c116.21,8.23,231.61-24.77,325.93-93.19l91.31-66.24,167.41-248.37-85.74-1966.44Z"/>
      <path class="st17" d="M2198.6,4176.88l-355.59,186.01-83.9,275.76-74.78,799.26,140.77,937.04-246.9,785.1,425.81,3.16,10.11-460.22,42.51-1489.71,41.77-948.96,100.2-87.44Z"/>
      <path class="st19" d="M2026.4,5418.67c-.23.13-2.5-3.69-6.62-11.09-4.36-8.05-10.25-18.93-17.67-32.62-7.36-14.33-14.5-32.75-23.73-53.7-4.38-10.58-7.96-22.31-12.35-34.52-4.26-12.27-9.01-25.17-12.56-39.14-33.49-110.38-55.63-269.82-50.97-445.66.46-13.62.98-27.09,1.91-40.5l.16-2.33,2.17-.91c21.16-8.89,41.93-17.61,62.24-26.15l-.9,6.44c-21.37-17.17-42.13-33.86-62.14-49.94l-1.3-1.04-.06-1.54c-2.91-66.26,13.19-125.87,28.31-177.79,15.65-52.02,32.79-96.84,47.77-133.68,15.07-36.81,28.14-65.63,37.48-85.2,4.68-9.78,8.37-17.28,10.99-22.29,2.6-5.02,4.07-7.56,4.27-7.47.2.09-.9,2.82-3.13,8.01-2.49,5.75-5.77,13.3-9.89,22.78-8.62,19.85-21.02,48.91-35.45,85.88-14.35,36.98-30.91,81.86-46.03,133.74-14.64,51.67-30.11,111.23-27.01,175.44l-1.36-2.57c20.05,16.03,40.87,32.65,62.28,49.77l4.97,3.97-5.86,2.47c-20.3,8.57-41.07,17.32-62.2,26.24l2.33-3.24c-.89,13.16-1.41,26.62-1.87,40.14-4.63,175.04,16.54,333.81,48.49,443.92,3.38,13.96,7.94,26.82,11.99,39.09,4.19,12.22,7.57,23.95,11.73,34.54,8.8,20.98,15.5,39.49,22.42,53.96,6.86,13.92,12.3,24.97,16.33,33.16,3.67,7.62,5.48,11.7,5.26,11.83Z"/>
      <path class="st19" d="M1747.41,5978.36c-.26.06-1.44-3.92-3.44-11.56-2.09-8.36-4.88-19.53-8.39-33.53-3.68-14.57-7.9-32.45-12.01-53.37-4.2-20.91-9.55-44.62-13.76-71.15-4.65-26.45-9.6-55.44-13.59-86.78-4.76-31.22-8-64.82-11.77-100.13-6.4-70.73-10.68-148.77-10.76-230.76.38-82.01,4.96-160.05,11.62-230.76,3.9-35.3,7.27-68.89,12.15-100.11,4.11-31.31,9.16-60.3,13.91-86.73,4.31-26.51,9.75-50.2,14.03-71.09,4.18-20.91,8.47-38.77,12.2-53.31,3.57-14,6.4-25.16,8.52-33.5,2.03-7.63,3.22-11.62,3.47-11.55.26.07-.42,4.17-1.96,11.92-1.78,8.42-4.14,19.66-7.12,33.79-3.27,14.63-7.13,32.55-10.91,53.52-3.87,20.92-8.92,44.64-12.87,71.15-4.41,26.43-9.14,55.39-12.97,86.67-4.57,31.17-7.71,64.69-11.41,99.91-6.25,70.55-10.6,148.35-10.98,230.11.08,81.73,4.15,159.53,10.13,230.09,3.56,35.24,6.57,68.75,11.04,99.95,3.7,31.29,8.33,60.26,12.62,86.71,3.86,26.51,8.82,50.25,12.63,71.2,3.69,20.98,7.48,38.91,10.7,53.56,2.93,14.14,5.25,25.4,6.99,33.83,1.51,7.75,2.19,11.85,1.93,11.92Z"/>
      <path class="st19" d="M1843.58,6697.9c.85.43-5.14,14.41-17.26,35.77-12.09,21.36-30.72,49.86-54.48,78.91-23.8,29.02-48.09,52.89-66.65,68.95-18.56,16.09-31.07,24.71-31.67,23.97-.74-.91,10.53-10.99,27.99-27.97,17.48-16.94,40.85-41.13,64.4-69.82,23.48-28.71,42.59-56.39,55.77-76.86,13.19-20.47,20.87-33.51,21.9-32.95Z"/>
      <path class="st17" d="M3477.54,4340.1c151.91,58.83,264.61,189.23,300.62,348.08,116.29,512.78,315.34,1194.84,318.47,1414.89,3.97,280.26-118.57,472.11-278.54,507.48-126.52,27.97-1273.27-34.79-1273.27-34.79l-53.62-427.26,928.61-136.7-127.16-710.5,125.85-984.07,59.04,22.87Z"/>
      <path class="st17" d="M3418.5,4317.23l-256.75-104.92-270.69-158.59-1.7,46.39c33.13,56.77,44.57,123.61,32.19,188.17l-225.23,1175.08,51.1,858.51,104.81,841.34h814.36l-373.94-879.86,131.99-1185.65-6.14-780.47Z"/>
      <path class="st19" d="M3656.36,6617.73c.01.13-1.86.38-5.54.77-4.02.39-9.46.92-16.4,1.58-14.45,1.58-35.85,1.43-63.48,2.15-55.27.26-135.47-1.2-235.26-4.46-199.56-6.66-477.44-20.02-791.07-38.2l-3.17-.19-.39-3.14c-6.39-50.91-13.15-104.59-20-159.09-11.54-92.21-22.79-182.1-33.57-268.17l-.46-3.66,3.64-.53c283.63-41.23,531.61-77.28,709.1-103.09,88.34-12.53,159.11-22.57,208.21-29.54,24.08-3.27,42.84-5.82,55.96-7.59,6.11-.76,10.91-1.36,14.49-1.81,3.27-.37,4.94-.5,4.96-.38.01.11-1.63.47-4.86,1.06l-14.4,2.45c-13.07,2.08-31.76,5.05-55.77,8.87-49.02,7.48-119.68,18.27-207.88,31.74-177.39,26.47-425.25,63.43-708.72,105.72l3.18-4.18c10.83,86.07,22.14,175.96,33.74,268.15,6.83,54.5,13.57,108.19,19.94,159.09l-3.55-3.31c313.56,18.41,591.36,32.69,790.81,40.71,99.73,3.93,179.86,6.18,235.07,6.78,27.57-.29,49,.3,63.39-.81,6.95-.37,12.37-.65,16.4-.87,3.7-.15,5.61-.17,5.63-.05Z"/>
      <path class="st19" d="M3285.21,5229.51c.26,0,.95,2.75,2,7.9,1.19,6.04,2.66,13.56,4.47,22.75,3.83,20.89,9.03,49.3,15.37,83.93,12.53,71.96,29.52,169.52,48.31,277.32,17.98,107.98,34.27,205.67,46.28,277.72,5.44,34.78,9.9,63.32,13.17,84.31,1.3,9.27,2.35,16.88,3.21,22.98.64,5.27.86,8.06.6,8.1-.26.04-.99-2.65-2.13-7.84-1.23-6.04-2.75-13.56-4.62-22.74-3.89-20.9-9.16-49.28-15.59-83.9-12.82-70.9-30.02-168.94-48.5-277.34-18.48-108.35-34.75-206.55-46.09-277.71-5.34-34.79-9.73-63.34-12.96-84.34-1.24-9.3-2.25-16.91-3.05-23.04-.58-5.34-.73-8.1-.47-8.1Z"/>
      <path class="st19" d="M3009.16,4136.47c.1-.02.45.93,1.03,2.86l2.37,8.58c1.88,7.6,5.19,18.74,8.22,33.42,6.6,29.23,14.3,72.25,19.6,126.46,5.37,54.2,7.66,119.61,4.88,192.94-2.51,73.33-10.29,154.47-21.35,240.41l-.34,2.73-2.72.5c-26.76,4.95-55.12,10.22-83.94,15.56l2.87-5.18c4.77,12.89,9.75,26.76,13.57,41.1,27.3,99.69,15.32,200.51-9.58,284.85-25.32,85.08-63.97,155.59-98.62,212.43-35.03,56.84-66.72,100.56-88.48,130.79-10.78,14.62-19.28,26.16-25.46,34.55-2.76,3.58-5,6.5-6.81,8.85-1.56,1.97-2.42,2.94-2.53,2.86-.1-.08.54-1.2,1.89-3.32,1.64-2.47,3.68-5.52,6.19-9.3,5.89-8.58,14.01-20.4,24.28-35.35,21-30.75,51.98-74.92,86.28-131.89,33.93-56.98,71.81-127.37,96.46-211.61,24.29-83.58,35.77-183.05,8.98-280.82-3.76-14.08-8.64-27.67-13.3-40.32l-1.6-4.35,4.47-.83c28.82-5.31,57.19-10.53,83.96-15.46l-3.07,3.23c11.21-85.78,19.27-166.64,22.21-239.69,3.22-73.06,1.5-138.19-3.18-192.24-4.61-54.05-11.52-97.03-17.29-126.36-2.61-14.72-5.49-25.94-6.94-33.64-.68-3.5-1.24-6.36-1.71-8.73-.34-1.98-.46-3-.34-3.03Z"/>
      <path class="st1" d="M3009.12,5341.79v-187.46s2.44-46.26-36.52-36.52c-38.95,9.74-31.65,82.78-31.65,82.78,0,0-7.3,284.84,9.74,282.4,17.04-2.42,23.59-24.34,23.59-24.34v-109.55l34.84-7.31Z"/>
      <path class="st19" d="M3171.16,5353.47c0,2.12-44.96,3.84-100.43,3.84s-100.43-1.72-100.43-3.84,44.96-3.84,100.43-3.84,100.43,1.72,100.43,3.84Z"/>
      <path class="st19" d="M3542.11,4451.31c.15.56-7.43,3.11-21,7.77-13.49,4.97-32.91,12.41-55.71,24.12-45.42,23.1-104.68,65.03-150.69,128.39-11.67,15.63-21.51,32-29.62,48.25-7.5,16.64-13.64,33.28-17.81,49.65-8.9,32.6-12.73,63.04-14.96,88.58-2.18,25.58-2.61,46.41-2.77,60.78-.15,14.39,0,22.36-.53,22.41-.54.04-1.69-7.9-2.46-22.34-.75-14.43-1.17-35.38.35-61.24,1.56-25.82,4.85-56.68,13.52-90.01,4.07-16.72,10.19-33.83,17.85-51.03,8.35-16.97,18.36-33.66,30.22-49.57,46.91-64.59,107.87-106.61,154.48-128.74,23.42-11.22,43.34-17.96,57.21-22.08,13.96-3.83,21.8-5.41,21.92-4.94Z"/>
      <path class="st19" d="M236.6,6009.87l1341.6,496.89,1130.9,172.87-1344.61-655.5-1127.89-14.26Z"/>
      <path class="st15" d="M810.76,6545.66c-10.65-71.47-35.04-140.85-71.45-203.26-7.14-12.23-14.83-24.45-18.3-38.17-3.47-13.73-1.98-29.62,7.59-40.05,17.22-18.75,48.7-10.4,69.85,3.76,43.82,29.34,73.14,76.63,90.34,126.47,17.2,49.85,23.42,102.71,29.54,155.09"/>
      <path class="st15" d="M1333.64,6417.91h-66.71c-13.22-13.98-33.48-26.46-58.5-33.62-15.37-4.38-30.51,3.8-44.13,17.19,29.82-49.13,61.96-103.21,68.14-118.03,12.01-28.81-14.41-50.42-57.63-50.42s-232.9,268.92-232.9,268.92c0,0,117.89-216.3,129.31-249.34,28.55-82.6-61.75-88.76-94.55-48.91-40.7,49.45-205.24,298.25-205.24,298.25,0,0-31.21,50.42-9.6,98.44,21.61,48.02,84.04,28.81,84.04,28.81,0,0-.48,42.01,44.03,66.76,48.17,26.78,111.56-4.27,111.56-4.27l245.38,55.17s38.96-3.93,88.82-8.89c124.29-12.34,224.29-107.67,242.54-231.22l-244.56-88.84Z"/>
      <path class="st20" d="M1168.26,6397.77c2.74,1.66-29.87,53.05-72.28,114.63-21.22,30.83-40.84,58.45-55.37,78.2-14.53,19.76-23.98,31.66-24.85,31.06-.87-.61,7-13.61,20.38-34.15,13.39-20.55,32.31-48.64,53.51-79.46,21.19-30.81,40.65-58.51,54.9-78.45,6.28-8.67,11.91-16.44,17.01-23.5,4.19-5.6,6.12-8.18,6.7-8.33Z"/>
      <path class="st20" d="M1153.57,6671.52c-.99-.55,7.19-16.07,21.77-40.18,14.5-24.19,35.18-57.17,57.87-93.62,11.28-18.24,22.19-35.64,31.1-51.72,9.31-15.44,8.66-32.46,5.4-45.52-7.2-26.73-22.31-38.15-20.96-39.08.28-.31,4.09,2.04,9.55,7.96,5.34,5.94,12.32,15.68,16.64,29.66,4.25,13.56,5.54,33.02-4.37,50.28-8.81,16.7-19.5,34.15-30.83,52.48-22.74,36.53-44.16,69.04-59.82,92.46-15.75,23.38-25.48,37.76-26.35,37.28Z"/>
      <path class="st20" d="M1282.61,6695.96c-1-.3,3.11-15.38,13.05-38.28,5.34-12.17,11.21-25.57,17.54-40,6.37-15.03,13.69-31.64,18.01-49.54,4.35-17.37,1.41-36.04-7.75-47.95-4.43-5.9-11.12-9.39-17.52-12.5-6.37-2.94-12.7-4.93-18.31-5.09-11.02.53-20.31,6.6-26.43,9.22-6.22,3.1-9.84,4.59-10.1,4.11-.24-.45,2.82-2.78,8.61-6.69,2.92-1.93,6.53-4.27,11-6.63,4.55-2.17,9.66-5.12,16.89-5.45,6.88-.16,13.9,1.81,20.9,4.7,6.76,2.96,14.63,6.67,20.47,13.89,11.31,14.15,14.43,34.8,9.72,54.11-4.62,19.06-12.24,35.66-19.03,50.71-6.94,14.99-13.59,28.22-19.06,39.37-11.15,22.21-16.96,36.34-17.99,36.02Z"/>
      <path class="st20" d="M1327.81,6463.72c.17-.44,3.96.47,10.44,3.16,6.49,2.67,15.54,7.49,25.64,15.07,20.12,14.79,44.15,43.24,52.79,81.59,8.49,38.39-1.16,74.36-13.08,96.3-5.93,11.16-12.06,19.37-16.8,24.55-4.73,5.19-7.77,7.61-8.12,7.3-1.1-.92,9.82-12.08,20.05-34.24,10.25-21.76,18.45-56.04,10.46-92.24-8.15-36.15-30.15-63.69-48.69-79.02-18.67-15.72-33.3-21.18-32.69-22.47Z"/>
      <path class="st20" d="M895.7,6322.65c1.76,1.19-23.12,41-55.55,88.92-32.44,47.93-60.16,85.81-61.91,84.61-1.76-1.18,23.11-40.99,55.55-88.92,32.43-47.91,60.15-85.79,61.91-84.61Z"/>
      <path class="st15" d="M2487.18,6164.56l-153.36-34.78-147.29-138.74c-17.9-16.85-41.16-26.86-65.7-28.28l-268.04-15.43c-26.73-1.53-53.04,7.24-73.5,24.52l-191.65,161.91,835.9,407.49,114.71,10.15-51.07-386.84Z"/>
      <path class="st20" d="M2032.82,6092.95c-.23,1.22-19.89-2.42-51.65-6.44-31.28-3.45-77.25-7.82-121.37,12.59-21.99,9.82-40.83,23.61-57.85,36.14-16.96,12.73-32.16,24.52-45.59,33.56-13.4,9.11-24.94,15.47-33.15,19.31-8.29,3.7-13.06,5.25-13.25,4.8-.52-1.16,17.68-9.27,43.26-28.53,12.86-9.5,27.6-21.65,44.44-34.77,16.92-12.93,36.02-27.24,58.97-37.51,22.77-10.76,46.97-14.62,68.46-15.31,21.61-.6,40.88,1.8,56.84,4.33,15.96,2.61,28.7,5.53,37.45,7.66,8.76,2.16,13.53,3.65,13.44,4.17Z"/>
      <path class="st20" d="M2087.78,6242.18c-.51,1.22-10.99-3.59-28.92-5.48-17.82-2.09-43.11.08-68.95,9.59-25.87,9.55-47.46,22.92-63.11,32.39-15.63,9.6-25.45,15.46-26.07,14.56-.58-.84,8.09-8.25,23.07-19.08,14.98-10.68,36.54-25.13,63.49-35.09,26.97-9.95,53.84-11.37,72.34-7.75,18.65,3.43,28.57,10.2,28.15,10.86Z"/>
      <path class="st20" d="M2432.76,6266.96c-1.88,1.16-23.5-30.86-51.97-68.94-28.39-38.18-52.89-68.04-51.24-69.51,1.5-1.37,28.78,26.43,57.39,64.9,28.7,38.42,47.56,72.5,45.82,73.55Z"/>
      <path class="st23" d="M2010.66,5963.21l339.81-316.5c14.68-13.68,13.55-37.28-2.37-49.49-12.39-9.51-29.79-8.84-41.42,1.59l-398.45,357.34"/>
      <g class="st22">
        <path class="st18" d="M2010.66,5963.21l339.81-316.5c14.68-13.68,13.55-37.28-2.37-49.49-12.39-9.51-29.79-8.84-41.42,1.59l-398.44,357.34"/>
      </g>
      <path class="st13" d="M4786.94,2913.86c-5.27-2.11-211.02-56.08-198.58,151.99,12.45,208.05,218.76,152.64,218.77,146.65.01-5.99-20.19-298.64-20.19-298.64Z"/>
      <path class="st12" d="M4738.86,3137.48c-.95-.61-3.47,2.75-9.42,5.92-5.82,3.09-15.98,5.61-27.07,2.18-22.46-6.74-43.06-40.53-46.31-77.98-1.66-18.9,1.22-37.17,7.04-52.51,5.43-15.59,14.65-26.82,25.6-29.44,10.85-3.21,19.08,2.95,21.98,8.65,3.14,5.65,2.06,9.88,3.19,10.17.61.5,4.26-3.74,2.07-12.24-1.11-4.08-3.84-8.84-8.97-12.55-5.24-3.75-12.7-5.39-20.36-4.1-15.99,2.08-29.54,17.71-35.93,34.53-7.27,16.96-10.97,37.52-9.1,58.74,3.84,41.85,27.65,79.8,58.25,86.69,14.86,2.94,26.81-2.21,32.83-7.49,6.13-5.52,6.95-10.24,6.2-10.57Z"/>
      <path class="st19" d="M5306.49,2170.56c105.72,0,213.36,0,345.71,69.1,83.46,43.58,135.5,112.66,178.99,196.16,33.29,63.91,53.02,147.62,49.19,219.57-3.82,71.95-4.09,122.26-32.83,188.35"/>
      <path class="st13" d="M5264.23,2186.89c312.87-21.85,583.09,216.87,599.46,530.07,13.63,260.64,25.62,542.57,22.74,684.53-6.2,304.67-311.34,349.63-311.34,349.63,0,0,6.73,90.34,14.25,202.43,15.16,225.73-159.15,419.5-385.22,428.07-221.64,8.39-408.06-164.6-416.25-386.23l-45.32-1228.03c-11.17-302.53,219.67-559.39,521.68-580.47Z"/>
      <path class="st12" d="M5575.09,3751.12s-187.26,9.73-390.91-120.46c0,0,92.16,221.69,396.43,196.66l-5.52-76.2Z"/>
      <path class="st19" d="M5746.99,2886.49c.64,22.98-18.32,42.48-42.32,43.58-23.94,1.08-43.91-16.62-44.53-39.6-.63-22.98,18.31-42.5,42.26-43.6,23.99-1.1,43.97,16.64,44.59,39.62Z"/>
      <path class="st19" d="M5789.19,2824.89c-5.44,5.63-38.2-19.03-85.05-19.29-46.76-.92-81.31,22.9-86.36,17.12-2.47-2.55,3.11-12.74,18.16-23.53,14.83-10.74,40.03-21.08,69.19-20.72,29.17.39,53.62,11.32,67.63,22.43,14.32,11.15,19.12,21.46,16.43,23.99Z"/>
      <path class="st19" d="M5287.78,2886.49c.62,22.99-18.33,42.47-42.32,43.57-23.94,1.09-43.91-16.6-44.54-39.59-.64-22.99,18.32-42.5,42.28-43.6,23.98-1.1,43.93,16.64,44.58,39.62Z"/>
      <path class="st19" d="M5328.84,2829.95c-5.44,5.63-38.26-19.04-85.04-19.28-46.77-.92-81.34,22.9-86.38,17.12-2.46-2.55,3.06-12.76,18.17-23.52,14.81-10.75,40.02-21.09,69.18-20.73,29.17.38,53.61,11.32,67.64,22.42,14.28,11.17,19.1,21.47,16.43,23.99Z"/>
      <path class="st19" d="M5496.01,3178.57c-.19-2.67,28.95-7.47,76.17-13.11,11.97-1.14,23.3-3.44,25.39-11.57,2.88-8.61-2.01-21.55-7.71-35.51-11.01-29.03-22.54-59.45-34.63-91.32-48.08-130.04-82.76-236.92-77.52-238.81,5.26-1.88,48.48,101.98,96.55,232,11.56,32.06,22.63,62.62,33.15,91.86,4.4,13.63,12.07,29.1,5.83,46.98-3.3,8.9-12.13,15.33-19.81,17.32-7.67,2.29-14.41,2.35-20.32,2.67-47.5,2.17-76.94,2.15-77.1-.51Z"/>
      <path class="st19" d="M5357.95,3209.86c7.62-.37,7.32,50.45,50.52,86.87,43.15,36.54,97.37,31.26,97.71,38.37.69,3.2-12.15,9.78-35.02,10.21-22.45.59-55.14-6.87-81.58-29.16-26.36-22.33-37.55-51.95-39.11-72.81-1.77-21.26,4.01-33.8,7.48-33.48Z"/>
      <path class="st19" d="M5342.4,2646.54c-4.72,12.69-51.43,6.28-106.4,12.47-55.14,5.07-99.57,20.81-106.76,9.32-3.2-5.48,4.61-17.4,22.62-29.59,17.86-12.16,46.28-23.63,79.29-27.04,33-3.34,63.16,2.13,83.11,10.43,20.1,8.3,30.18,18.38,28.14,24.41Z"/>
      <path class="st19" d="M5782.63,2658.18c-8.32,10.58-40.47-.72-79.28-1.54-38.75-2.21-71.68,6.56-79.15-4.62-3.27-5.43,1.98-16.04,16.42-25.99,14.22-9.92,37.94-17.94,64.59-16.92,26.64,1.06,49.67,10.88,63.07,21.89,13.63,11.03,18.03,22.03,14.35,27.18Z"/>
      <path class="st19" d="M4746.12,2862.45s13.25,70.46,16.79,102.26c1.31,11.61-.21,140.72,31.14,147.17,26.97,5.55,80.59-19.01,104.46-72.4,23.87-53.39,69.28-181.52,64.37-239.79-6.7-79.48-10.39-160.21,5.48-238.38,15.88-78.16,53.24-154.39,116.07-203.51,62.83-49.14,153.39-66.36,224.68-30.59,43.99,22.08,76.91,61.18,117.91,88.41,36.88,24.51,81.87,39.2,125.66,32.71,43.8-6.51,85.18-37.02,97.13-79.65,13.05-46.51-10.91-97.44-48.12-128.24-37.22-30.8-85.32-44.93-132.69-54.34-131.41-26.1-270.72-20.91-395.59,27.63-124.87,48.52-235.67,141.73-289.05,264.61-61.72,142.1-54.53,229.22-38.24,384.11Z"/>
      <path class="st19" d="M5442.67,2888.47c-1.19.1.13-18.47-7.93-50.19-7.97-31.12-28.72-76.86-75.5-112.24-23.19-17.28-52.37-31.95-86.02-37.84-33.4-5.66-71.09-4.57-106.94,9.12-18.06,6.28-35.46,15.78-51.45,27.76-16.17,11.75-30.85,26.33-42.94,43.22-25.02,33.28-39.1,76.06-39.51,120.13.4,44.09,14.48,86.88,39.5,120.18,12.09,16.9,26.77,31.49,42.94,43.23,16,11.99,33.4,21.48,51.46,27.77,35.85,13.68,73.55,14.78,106.97,9.11,33.63-5.88,62.82-20.55,86-37.83,46.78-35.39,67.53-81.14,75.49-112.24,8.06-31.73,6.74-50.29,7.93-50.18.13,0,.2,1.13.21,3.36l-.11,9.87c.02,4.36-.21,9.75-1.26,16.03-.83,6.32-1.62,13.65-3.87,21.65-7.2,31.76-27.51,78.92-75.09,115.82-23.58,18.02-53.49,33.44-88.14,39.79-34.41,6.13-73.34,5.24-110.55-8.73-18.72-6.42-36.79-16.17-53.4-28.52-16.79-12.12-32.06-27.18-44.65-44.67-26.01-34.46-40.73-78.89-41.11-124.64.4-45.72,15.11-90.14,41.12-124.59,12.59-17.47,27.85-32.54,44.65-44.65,16.61-12.36,34.67-22.1,53.39-28.53,37.19-13.95,76.13-14.85,110.54-8.72,34.65,6.35,64.56,21.75,88.12,39.78,47.6,36.89,67.92,84.06,75.12,115.83,2.25,7.99,3.04,15.32,3.87,21.64,1.05,6.29,1.28,11.67,1.26,16.03l.11,9.89c0,2.22-.08,3.36-.21,3.36Z"/>
      <path class="st19" d="M5979.02,2888.47c-1.19.1.13-18.47-7.93-50.19-7.97-31.12-28.73-76.86-75.51-112.24-23.18-17.28-52.36-31.95-86.01-37.84-33.41-5.66-71.1-4.57-106.95,9.12-18.05,6.28-35.45,15.78-51.44,27.76-16.17,11.75-30.85,26.33-42.94,43.22-25.02,33.28-39.1,76.06-39.52,120.13.41,44.09,14.49,86.88,39.49,120.18,12.11,16.9,26.79,31.49,42.96,43.23,15.99,11.99,33.4,21.48,51.45,27.77,35.86,13.68,73.56,14.78,106.97,9.11,33.64-5.88,62.83-20.55,86.01-37.83,46.78-35.39,67.52-81.14,75.49-112.24,8.06-31.73,6.74-50.29,7.93-50.18.13,0,.2,1.13.21,3.36-.03,2.68-.06,5.93-.12,9.87.03,4.36-.2,9.75-1.25,16.03-.84,6.32-1.62,13.65-3.87,21.65-7.2,31.76-27.51,78.92-75.11,115.82-23.56,18.02-53.47,33.44-88.12,39.79-34.41,6.13-73.34,5.24-110.55-8.73-18.72-6.42-36.79-16.17-53.4-28.52-16.8-12.12-32.06-27.18-44.65-44.67-26.01-34.46-40.73-78.89-41.11-124.64.4-45.72,15.11-90.14,41.12-124.59,12.59-17.47,27.85-32.54,44.65-44.65,16.61-12.36,34.67-22.1,53.39-28.53,37.19-13.95,76.13-14.85,110.54-8.72,34.65,6.35,64.56,21.75,88.12,39.78,47.59,36.89,67.92,84.06,75.11,115.83,2.26,7.99,3.04,15.32,3.88,21.64,1.05,6.29,1.28,11.67,1.25,16.03.06,3.95.09,7.19.12,9.89,0,2.22-.08,3.36-.21,3.36Z"/>
      <path class="st19" d="M5569.79,2866.37c-.66,1.05-7.48-2.75-19.12-6.6-11.6-3.91-28.36-7.17-46.94-5.98-18.57,1.28-34.76,6.74-45.74,12.14-11.02,5.37-17.27,10.04-18.08,9.08-.58-.63,4.51-6.9,15.46-13.83,10.85-6.95,27.99-13.7,47.85-15.06,19.86-1.29,37.75,3.14,49.42,8.59,11.77,5.42,17.66,10.96,17.15,11.66Z"/>
      <path class="st19" d="M5652.88,2352.31c2.99-15.81-2.21-24.67,6.69-31.13,10.16-7.4,29.35,12,36.38,19.72,2.24,2.45,9.4-7.17,12.18-9.02,2.24-1.49,5.67-17.54,5.35-20.22-1.32-11-18.62-13.98-26.77-21.49s-18.26-12.62-28.71-16.29c-9.13-3.21-20.42-4.97-27.51,1.61-5.42,5.04-6.34,13.23-6.13,20.62.21,7.33,1.21,14.74,4.16,21.46,2.94,6.72,7.98,12.71,14.66,15.72"/>
      <path class="st17" d="M4734.8,2700.5s149.37,54.78,227.15,87.73l-4.39-76.41-217.35-85.96s-5.53,56.77-5.41,74.64Z"/>
      <path class="st17" d="M4748.75,2581.82c.82-1.96,48.18,16.19,105.75,40.54,57.59,24.36,103.59,45.68,102.77,47.64-.83,1.94-48.17-16.21-105.77-40.56-57.56-24.35-103.58-45.68-102.75-47.62Z"/>
      <path class="st18" d="M4793.79,4191.32l-11.56-361.59s71.84,330.93,448.09,326.61c359.59-4.12,353.01-291.55,353.01-291.55l12.82,145.74v588.73l-234.54,960.4-299.5,38-331.02-1312.85,62.7-93.49Z"/>
      <path class="st19" d="M5549.88,4075.59c.21.14-1.28,2.78-4.34,7.7-3.29,4.75-7.2,12.49-14.26,20.97-12.95,17.82-35.02,41.48-66.97,64.82-31.84,23.48-74.65,44.84-125.12,58.75-50.45,13.73-108.74,19.12-168.77,11.68-59.92-8.04-115.08-26.38-162.14-48.79-47.22-22.31-86.8-47.92-118.41-71.36-31.64-23.46-55.68-44.37-71.72-59.4-8.15-7.38-14.05-13.57-18.18-17.62-4.06-4.11-6.11-6.36-5.92-6.56.18-.18,2.59,1.69,6.98,5.44,5,4.32,11.33,9.78,19.11,16.5,16.59,14.31,41.08,34.49,72.92,57.24,31.8,22.73,71.36,47.64,118.21,69.35,46.73,21.82,101.17,39.66,160.13,47.58,58.94,7.31,116.24,2.23,165.97-10.9,49.72-13.31,92.06-33.78,123.79-56.33,31.86-22.42,54.22-45.17,67.77-62.26,13.7-16.97,20.27-27.25,20.95-26.81Z"/>
      <path class="st17" d="M5288.77,7162.21l-5.43-1706.65-484.65-1245.56-16.29-374.86-295.29,223.35s-430,1479.79-436.62,1428.49c-6.64-51.3-.17,1675.23-.17,1675.23h1238.45Z"/>
      <path class="st19" d="M5277.13,7157.48c-2.12,0-3.84-384.56-3.84-858.84s1.72-858.93,3.84-858.93,3.84,384.48,3.84,858.93-1.72,858.84-3.84,858.84Z"/>
      <path class="st1" d="M4491.41,4302.26l59.93,45.37-42.13,276.09,707.46,741.02-642.56-843.75,54.76-218.73h-137.46Z"/>
      <path class="st17" d="M5315.3,6287.94l-1085.69-318.34-35.97-824.65,297.77-1086.46s-709.81,354.12-758.1,579.47c-48.28,225.33-164.74,773.15-177.15,1169.08-11.09,354.03-12.7,590.72,68.14,703.72,231.5,323.63,1757.23,381.43,2366.79-.46"/>
      <path class="st19" d="M5230.32,5382.66c-.11.08-1.3-1.27-3.53-3.99-2.44-3.04-5.66-7.07-9.75-12.17-8.71-11.16-21.09-27-36.88-47.23-32.04-41.59-77.91-101.15-134.48-174.59-113.21-148.18-269.15-352.3-441.4-577.75-11.15-14.64-22.23-29.2-33.21-43.61l-1.12-1.47.44-1.8c18.98-75.56,37.36-148.81,54.9-218.69l3.58,4.59c-47.46-.06-93.34-.13-137.45-.18h-3.52v-3.51c.22-89.31.42-171.22.58-243.77v-1.46s1.15-.87,1.15-.87c89.54-68.04,162.45-123.45,213.39-162.16,25.1-18.84,44.78-33.6,58.57-43.96,6.49-4.75,11.59-8.49,15.38-11.27,3.51-2.52,5.34-3.74,5.44-3.63.09.12-1.58,1.58-4.9,4.31-3.68,2.95-8.61,6.91-14.88,11.95-13.56,10.64-32.91,25.83-57.61,45.21-50.56,39.2-122.94,95.31-211.82,164.21l1.15-2.33c.16,72.55.36,154.46.58,243.77l-3.51-3.52c44.11-.05,89.99-.12,137.45-.18h4.74l-1.15,4.6c-17.46,69.9-35.75,143.17-54.62,218.75l-.67-3.25c10.98,14.42,22.07,28.98,33.22,43.61,171.54,225.99,326.86,430.6,439.6,579.13,55.76,74.06,100.97,134.11,132.55,176.06,15.31,20.6,27.29,36.74,35.74,48.11,3.82,5.29,6.84,9.46,9.14,12.62,2.02,2.87,3.01,4.39,2.9,4.47Z"/>
      <path class="st17" d="M5714.32,3994.27c-86.61-151.45-131.51-135.69-131.51-135.69l4.52,53.98.09,113.43-41.04,486.64-263.04,1057.44,5.42,1592.14h994.3l123.76-1943.51-11.24-837.26-681.26-387.17Z"/>
      <path class="st17" d="M6395.59,4381.44s257.37,190,279.65,495.64c18.11,248.28,59.67,928.05,67.18,1076.05,11.71,230.46-167.75,770.14-634.99,617.27-280.18-91.67-1315.43-443.57-1315.43-443.57l68.87-439.64,1228.75,73.21,24.4-1024.84,281.57-354.12Z"/>
      <path class="st13" d="M4846.87,5737.82s-347.77-37.6-428.32-18.15c-77.4,18.67-187.63,113.37-187.63,113.37l1.57,137.4,559.5,156.39,54.88-389.01Z"/>
      <path class="st19" d="M5283.34,5411.1c-.12-.04.4-1.64,1.54-4.73,1.33-3.44,3.06-7.93,5.23-13.58,4.94-12.35,11.91-29.76,20.81-51.98,18.55-45.46,45.1-110.45,77.81-190.57,33.17-80.49,72.59-176.12,116.33-282.27,11.04-26.43,21.96-54.03,35.62-80.98,13.11-27.22,28.59-53.9,44.54-80.88,32.72-53.48,69.79-106.83,110.43-159.37,20.06-25.88,40.27-51.08,61.19-75.22l-.69,3.91c-14.76-37.52-29.21-74.29-43.33-110.18l-1.43-3.65,3.72-1.27c63.46-21.56,124.16-42.21,181.25-61.6l-1.87,5.06c-84.08-140.38-155.16-259.05-205.49-343.09-24.88-41.63-46.12-74.87-68.65-88.55-11.05-6.85-20.92-9.52-27.48-11.12-6.6-1.6-10.09-2.2-10.06-2.45,0,0,3.57.1,10.3,1.34,6.69,1.25,16.82,3.6,28.39,10.34,11.66,6.66,23.41,18.57,34.86,33.82,11.46,15.29,23.69,33.42,36.14,54.35,50.94,83.72,122.87,201.95,207.97,341.82l2.23,3.66-4.1,1.4c-57.02,19.56-117.67,40.36-181.08,62.11l2.28-4.91c14.16,35.87,28.66,72.63,43.47,110.12l.84,2.15-1.53,1.77c-20.68,23.93-40.89,49.13-60.86,74.89-40.48,52.35-77.44,105.44-110.07,158.57-15.9,26.8-31.33,53.28-44.41,80.23-13.59,26.68-24.45,53.9-35.63,80.41-44.32,105.92-84.25,201.35-117.85,281.66-33.67,79.73-60.98,144.41-80.09,189.66-9.45,21.98-16.88,39.2-22.13,51.42-2.47,5.53-4.43,9.93-5.93,13.29-1.38,2.98-2.14,4.48-2.27,4.42Z"/>
      <path class="st19" d="M6536.78,6484.86c.1.1-1.37,1.63-4.31,4.56-3.24,3.14-7.62,7.39-13.22,12.84-11.81,11.1-30.46,26.25-56.47,42.84-26.34,15.98-60.83,32.41-103.39,43.33-42.47,11.03-93.11,15.25-148.07,9.42-27.48-3.09-55.9-9.15-84.77-17.96-28.84-9.19-57.74-20.46-88.25-31.21-60.73-22.03-125.83-44.96-194.37-69.02-137.11-48.01-288.32-99.41-447.61-151.67-318.65-104.67-609.19-192.88-819.76-255.75-105.09-31.1-190.26-56.3-249.56-73.84-29.16-8.67-51.94-15.43-67.83-20.15-7.46-2.3-13.29-4.1-17.59-5.43-3.95-1.26-5.96-1.97-5.93-2.1.05-.13,2.13.33,6.15,1.35,4.35,1.14,10.24,2.7,17.79,4.69,15.99,4.4,38.9,10.7,68.23,18.77,59.2,16.5,144.75,40.81,250.28,71.5,211,61.54,501.87,148.96,820.62,253.66,159.34,52.27,310.54,103.9,447.56,152.3,68.48,24.24,133.53,47.4,194.18,69.7,30.38,10.83,59.6,22.39,87.88,31.55,28.43,8.84,56.47,15,83.61,18.22,54.26,6.1,104.3,2.31,146.4-8.19,42.19-10.41,76.51-26.27,102.89-41.72,26.04-16.09,44.88-30.76,56.97-41.44,5.81-5.2,10.36-9.26,13.71-12.26,3.12-2.73,4.76-4.09,4.86-3.99Z"/>
      <path class="st19" d="M4232.49,5972.91c-.25,1.6-19.52-2.6-50.69-1.38-15.55.69-34,3.21-53.71,8.87-19.62,5.95-40.47,14.9-60.49,27.57-40.07,25.72-67.55,60.16-84.12,86.44-16.49,26.55-23.6,44.84-24.97,44.26-.49-.19.99-4.84,4.13-13.15,2.91-8.39,8.46-20.01,16.19-33.9,15.65-27.47,43.23-63.54,84.63-90.12,20.67-13.08,42.34-22.16,62.7-27.91,20.48-5.48,39.55-7.48,55.5-7.49,15.93.12,28.82,1.36,37.48,3.35,8.72,1.74,13.45,2.94,13.35,3.46Z"/>
      <path class="st19" d="M3890.47,5865.16c-.24-.12.24-1.43,1.39-3.88,1.15-2.41,3.24-5.9,6.82-9.65,6.83-7.82,20.51-15.71,38.57-19.16,18.08-3.83,40.1-2.93,63.77.15,23.75,3.1,49.58,9.04,75.62,18.38,52.37,18.47,94.31,47.95,119.97,73.43,12.8,12.84,22.01,24.28,27.81,32.55,5.62,8.4,8.51,13.17,8.07,13.46-1.24.91-13.39-17.94-39.61-42.08-26.16-23.99-67.52-52.03-118.82-70.12-25.53-9.16-50.78-15.18-74.02-18.61-23.28-3.42-44.46-4.8-61.83-1.81-17.36,2.64-30.38,9.24-37.43,15.96-7.21,6.6-9.65,11.78-10.31,11.38Z"/>
      <path class="st19" d="M4295.81,4918.06c-.53.02-2.3-8.02-4.97-22.39-2.18-6.99-5.41-15.41-8.74-25.24-4.72-9.29-9.33-20.28-16.07-31.52-13.22-22.69-31.95-47.92-55.36-73.62-24.02-25.08-52-51.35-84.78-74.59-65.25-46.96-133.99-74.47-185.4-85.15-25.83-4.61-46.96-7.95-61.73-7.85-14.72-.7-22.92-1.34-22.94-1.87-.04-.53,8.13-.91,23.02-1.13,14.92-1.01,36.38,1.52,62.72,5.52,52.41,9.45,122.68,36.64,188.82,84.25,33.21,23.55,61.46,50.35,85.53,76.05,23.44,26.33,42.01,52.29,54.85,75.72,6.56,11.62,10.93,23,15.34,32.61,3.04,10.2,5.88,18.9,7.65,26.13,1.85,14.91,2.58,23.05,2.06,23.08Z"/>
      <path class="st19" d="M6357.06,6179.04c-.13-.01-.26-1.8-.37-5.27l-.34-15.42c-.41-13.55-.94-33.54-2.91-59.18-4.21-51.08-12.96-125.84-43.66-212.55-7.62-21.6-16.29-44.17-29.77-64.94-13.26-20.87-33.06-38.36-57.54-48.79-49.4-21.28-108.86-18.46-169.33-21.88-121.75-5.11-255.52-10.73-395.93-16.64-327.17-14.23-618.2-26.51-801.03-36.29l2.44-1.97c-11.04,67.17-19.8,120.43-25.88,157.41-3.07,17.88-5.48,31.8-7.19,41.7-.82,4.44-1.49,7.97-2.01,10.72-.48,2.4-.78,3.61-.89,3.6-.11-.01-.02-1.25.25-3.69l1.37-10.79c1.42-9.95,3.42-23.94,5.97-41.89,5.57-37.07,13.61-90.47,23.73-157.81l.32-2.07,2.14.09c183.57,7.64,474.26,19.73,801.1,33.31,140.42,6.13,274.18,11.95,395.92,17.25,30.43,1.53,60.05,2.23,89.01,4.6,28.84,2.52,57.23,7.3,82.58,18.53,25.44,10.94,46.4,29.69,59.94,51.38,13.82,21.6,22.41,44.59,29.93,66.38,30.27,87.6,38.2,162.83,41.52,214.13,1.51,25.76,1.55,45.81,1.48,59.38-.19,6.46-.33,11.56-.44,15.43-.14,3.48-.28,5.27-.41,5.27Z"/>
      <path class="st19" d="M6122.73,5217.09c2.14,0,3.85,119.01,3.85,265.79s-1.71,265.82-3.85,265.82-3.84-119-3.84-265.82,1.73-265.79,3.84-265.79Z"/>
      <path class="st19" d="M3741.87,4611.34s-.92,3.37-3.04,9.8c-1.96,6.5-5.77,15.86-8.88,28.78-7.16,25.54-16.23,63.71-26.41,113.41-20.55,99.37-45.85,244.78-74.21,426.84-14.08,91.04-29.1,191.24-43.86,299.52-7.51,54.06-12.17,110.46-16.08,168.82-3.86,58.35-6.97,118.61-9.23,180.62-4.48,124-7.12,255-3.53,391.47,1.04,34.09,2.29,68.57,5.14,103.2.87,17.42,3.71,34.52,5.87,51.84,3.63,17.03,6.77,34.32,12.57,50.92,10.6,33.42,26.64,65.56,48.86,93.4,22.1,27.56,50.99,51.46,83.87,64.61l.48.18.14.08c68.06,35.15,142.6,60.63,218.69,83.52,76.24,22.83,155.01,41.26,235.02,57.72,179.01,36.57,356.55,58.04,528.05,64.3,85.79,2.6,169.91-.63,252.06-6.57,82.15-5.68,162.2-14.26,239.66-25.76,154.99-22.4,299.56-56.83,430.11-99.98,130.63-43.08,246.88-95.34,347.79-149.22l.38,4.77c-202.48-71.67-365-129.2-477.13-168.9-55.78-19.92-98.98-35.34-128.46-45.87-14.49-5.27-25.56-9.28-33.21-12.06-7.47-2.75-11.22-4.34-11.22-4.34,0,0,3.92,1.11,11.47,3.63,7.71,2.62,18.86,6.41,33.45,11.37,29.59,10.22,72.94,25.22,128.93,44.56,112.31,39.17,275.09,95.94,477.91,166.66l5.63,1.97-5.26,2.82c-100.98,54.35-217.41,107.08-348.3,150.55-130.83,43.55-275.73,78.33-431.07,100.99-77.63,11.63-157.85,20.32-240.14,26.09-82.23,6.03-166.77,9.35-252.83,6.79-172.03-6.15-349.93-27.62-529.35-64.27-80.21-16.49-159.16-34.98-235.65-57.92-76.39-23.02-151.16-48.56-220.09-84.21l.61.26c-35.38-14.15-64.38-38.6-87.36-67.08-22.87-28.69-39.28-61.69-50.08-95.84-5.9-16.98-9.1-34.58-12.78-51.93-2.17-17.58-5.03-35.08-5.88-52.52-2.83-34.83-4.05-69.38-5.06-103.55-3.43-136.76-.6-267.82,4.11-391.93,2.36-62.06,5.59-122.38,9.58-180.79,4.05-58.39,8.86-114.99,16.54-169.19,15.05-108.32,30.37-208.47,44.78-299.5,29.03-181.99,55.1-327.34,76.47-426.62,10.59-49.66,20.09-87.78,27.71-113.24,3.33-12.87,7.36-22.22,9.54-28.64,2.33-6.37,3.69-9.56,3.69-9.56Z"/>
      <path class="st1" d="M4230.92,5870.99c181.55-201,173.57-558.44,69.38-812.06-9.62,274.76-42.02,518.38-66.86,785.37"/>
      <path class="st19" d="M4300.68,5110.4c.26.02.23,3.06-.05,8.8-.44,6.57-.97,14.88-1.65,25.09-1.78,22.79-4.24,54.03-7.24,92.17-6.48,78.72-15.29,185.72-25.03,303.97-9.27,118.3-17.66,225.35-23.82,304.09-2.88,38.15-5.23,69.39-6.95,92.17l-2.18,25.05c-.57,5.72-1.01,8.72-1.27,8.71-.27-.02-.35-3.04-.27-8.8.2-6.58.43-14.9.74-25.13.74-21.83,2.33-53.38,4.5-92.36,4.47-77.95,11.91-185.58,21.59-304.35,9.69-118.73,19.55-226.14,27.29-303.84,4-38.05,7.28-69.22,9.68-91.95,1.25-10.17,2.26-18.43,3.06-24.96.79-5.7,1.34-8.68,1.6-8.66Z"/>
      <path class="st19" d="M4748.25,4747.21c2.12,0,3.84,69.79,3.84,155.85s-1.72,155.87-3.84,155.87-3.84-69.77-3.84-155.87,1.72-155.85,3.84-155.85Z"/>
      <path class="st1" d="M4629.98,5265.06c2.69,31.8,16.36,60.48,33.41,82.66,17.05,22.17,51.74,43.87,79.66,42.27,0,0,69.69,5.95,107.2-53.78,33.98-54.09,42.35-166.62,15.11-233.14-18.74-45.76-60.84-88.29-110.27-89.45-64.88-1.55-105.57,45.35-119.43,92.8"/>
      <path class="st19" d="M4635.67,5106.43s1.44-12.37,12-31.82c5.29-9.64,12.95-20.99,24.35-31.91,11.27-10.99,26.77-21.14,45.93-26.97,9.56-2.82,19.96-4.78,30.86-4.94,10.84-.55,22.53.73,33.75,4.44,22.62,7.29,43.58,22.89,60.25,43.2,16.88,20.21,29.3,45.88,35.43,73.76,6.3,27.82,8.23,57.38,6.59,87.4-3.01,46.19-12.08,92.16-37.64,127.29-12.94,17.22-30.62,29.66-48.97,36.92-18.47,7.34-37.31,10.16-55.43,9.32h.45c-14.87.59-28.18-4.24-39.73-9.84-11.54-5.85-21.5-13.04-29.89-20.83-16.72-16-25.92-33.82-32.54-48.49-6.38-14.88-9.07-27.34-10.3-35.81-.58-4.26-.89-7.52-.93-9.74-.08-2.19-.03-3.34.13-3.35,1.12-.27,1.09,18.53,14.39,47.43,6.86,14.04,16.55,31.47,32.69,46.21,8.18,7.31,17.9,14.04,28.97,19.45,11.05,5.17,23.73,9.42,36.85,8.71h.44c33.25,1.17,73.66-11.64,98.05-44.41,23.8-32.89,32.95-78.09,35.78-123.27,3.17-58.36-6.61-117.16-39.82-156.28-15.82-19.58-35.64-34.54-56.75-41.62-10.53-3.61-21.24-4.92-31.62-4.56-10.41-.02-20.32,1.7-29.47,4.22-18.35,5.23-33.39,14.58-44.55,24.9-11.29,10.25-19.11,21.05-24.67,30.26-11.13,18.58-13.75,30.64-14.6,30.33Z"/>
      <path class="st1" d="M4595.45,5267.98c2.69,31.8,16.36,60.49,33.41,82.66,17.05,22.17,51.74,43.87,79.67,42.28,0,0,69.68,5.95,107.19-53.78,33.98-54.11,42.36-166.63,15.11-233.16-18.74-45.74-60.84-88.27-110.26-89.45-64.89-1.53-105.57,45.36-119.43,92.81"/>
      <path class="st19" d="M4601.13,5109.35s1.45-12.37,12.01-31.82c5.28-9.64,12.94-21,24.34-31.92,11.27-10.98,26.77-21.14,45.94-26.97,9.56-2.8,19.96-4.77,30.86-4.92,10.84-.56,22.53.72,33.75,4.43,22.62,7.29,43.58,22.89,60.25,43.2,16.88,20.22,29.3,45.87,35.43,73.76,6.3,27.83,8.22,57.39,6.59,87.41-3.01,46.19-12.08,92.15-37.64,127.29-12.93,17.2-30.62,29.66-48.97,36.91-18.47,7.34-37.31,10.16-55.43,9.33h.45c-14.88.58-28.18-4.25-39.74-9.84-11.53-5.86-21.49-13.04-29.88-20.84-16.73-16-25.92-33.82-32.54-48.48-6.39-14.88-9.07-27.36-10.31-35.83-.57-4.24-.88-7.51-.92-9.72-.08-2.21-.03-3.35.13-3.36,1.12-.26,1.09,18.53,14.39,47.44,6.86,14.04,16.55,31.45,32.68,46.21,8.18,7.31,17.9,14.04,28.97,19.45,11.06,5.16,23.74,9.41,36.86,8.71h.11s.33,0,.33,0c33.25,1.17,73.65-11.64,98.04-44.41,23.8-32.9,32.96-78.1,35.79-123.29,3.16-58.34-6.61-117.14-39.82-156.27-15.83-19.59-35.64-34.54-56.75-41.61-10.54-3.61-21.24-4.94-31.62-4.57-10.42-.01-20.32,1.71-29.49,4.21-18.33,5.23-33.37,14.6-44.53,24.92-11.29,10.24-19.11,21.03-24.68,30.25-11.13,18.58-13.74,30.65-14.6,30.33Z"/>
      <path class="st1" d="M4658.05,5092.74c-32.25-6.42-65.56,15.72-79.21,45.64-13.65,29.92-10.62,65.19.18,96.25,5.49,15.82,13.07,31.19,24.56,43.36,11.49,12.17,27.28,20.91,44.01,21.41,24.54.74,46.61-16.01,60.9-35.99,23.03-32.21,30.86-74.84,20.79-113.14-6.73-25.58-25.55-51.79-51.99-52.5"/>
      <path class="st19" d="M4677.29,5097.78c0-.21,2.02-.46,5.87-.16,3.83.38,9.54,1.74,16,5.43,12.94,7.16,27.72,24.94,33.74,50.76,6.26,25.36,5.53,58.4-9.11,90.28-7.34,15.73-17.82,31.45-33.06,43.41-14.72,11.98-36.31,19.67-56.92,13.63-20.35-5.7-35.84-20.83-45.47-37.17-9.76-16.52-15.39-33.97-18.95-50.95-7.09-33.95-1.33-67.57,14.73-89.1,15.8-21.7,37.07-30.81,51.46-32.72,7.3-1.17,13.05-.52,16.84-.04,3.76.79,5.69,1.34,5.63,1.6-.07.88-8.08-1.51-21.93,1.38-13.58,2.69-33.29,12.15-47.55,32.91-14.4,20.42-19.39,52.08-12.24,84.55,3.56,16.18,9.25,33.14,18.45,48.47,9.08,15.24,23.22,28.66,41.09,33.66,17.8,5.21,36.47-1.2,50.23-12.16,14.07-10.89,24.13-25.59,31.29-40.47,14.23-30.09,15.56-61.62,10.21-86.07-5.05-24.7-18.35-41.97-30.01-49.43-11.85-7.69-20.5-6.9-20.3-7.81Z"/>
      <path class="st19" d="M4732.45,5335.21c-1.18.3-2.8-4.63-7.85-10.56-4.94-5.95-13.82-12.58-25.18-16.15-11.45-3.54-22.76-4.13-30.96-4.81-8.24-.59-13.44-1.26-13.48-2.34-.03-1.04,5.04-2.29,13.43-3.08,8.35-.71,20.42-1.07,33.33,2.91,12.98,4.05,22.82,12.59,27.28,20.33,4.61,7.79,4.31,13.6,3.43,13.7Z"/>
      <path class="st19" d="M4744.03,5072.66c.68.65-2.27,5.26-9.14,10.7-6.8,5.43-17.85,11.16-31.09,13.59-13.25,2.37-25.61.84-33.88-1.85-8.34-2.69-12.71-5.99-12.3-6.83.79-2.15,20.4,5.8,44.81,1.12,24.51-4.16,40.1-18.46,41.6-16.73Z"/>
      <path class="st19" d="M5757.53,4016.14c.13-.24,1.8.38,4.87,1.79,3.06,1.41,7.58,3.52,13.11,6.77,11.16,6.31,26.87,16.44,44.2,31.6,34.82,29.65,75.48,82.13,94.94,150.22,20.38,66.8,31.4,129.46,36.15,174.88,2.55,22.71,3.95,41.14,4.8,53.88.75,12.74.9,19.81.38,19.87-.53.04-1.7-6.93-3.36-19.58-1.9-14.13-4.32-32.06-7.2-53.48-6.13-45.14-17.86-106.89-38.13-173.39-19.05-66.59-57.89-118.14-91.21-148.36-33.36-30.75-59.4-42.82-58.55-44.2Z"/>
      <path class="st19" d="M5573.82,5639.73c42.76-1.63,76.92-44.26,119.63-41.98,31.7,1.7,58.74,32.75,56.06,64.38-2.68,31.62-34.55,57.68-66.08,54.03-44.88-5.21-71.14-57.82-115.17-67.92"/>
      <path class="st19" d="M5936.34,5676.14c-12.8,0-26.16-1.11-40.03-3.31l2.33-14.58c52.85,8.49,97.2-.21,131.91-25.74,43.67-32.07,71.79-89.47,83.64-170.59l.46-3.09c4.82-32.13,11.49-663,11.51-782.77.02-187.09-164.21-212.62-171.21-213.61-6.64-1.23-155.92-26.16-235.12,178.17-82.93,213.98-215.5,626.35-224.28,674.69-1.07,5.92-2.71,13.25-4.59,21.75-13.79,61.87-42.47,190.63,43.42,264.8,95.72,82.67,171.23,50.67,174.39,49.29l6.04,13.45c-3.52,1.56-86.84,37.59-190.09-51.59-92.54-79.91-62.57-214.49-48.17-279.17,1.85-8.26,3.45-15.41,4.48-21.17,8.86-48.72,141.91-462.83,225.06-677.38,83.78-216.22,249.6-187.74,251.25-187.4,1.51.21,183.6,28.07,183.57,228.17-.01,98.66-6.56,750.83-11.68,784.96l-.45,3.04c-12.42,85.15-42.53,145.84-89.49,180.34-28.76,21.13-63.27,31.74-102.95,31.74Z"/>
      <path class="st19" d="M6133.54,4796.73c-1.95.67-4.31-31.47-30.72-73.53-13.15-20.77-32.54-43.3-58.3-63.12-25.83-19.61-58.18-36.36-94.72-44.77-73.7-16.93-143.73,1.44-186.73,24.35-44.01,22.91-63.68,47.97-64.9,46.51-.2-.17.95-1.73,3.35-4.53,2.51-2.68,5.78-7.12,11.04-11.76,9.91-9.92,25.98-22.71,47.96-35,21.93-12.33,50.25-23.38,83.12-29.29,32.73-5.98,70.24-6.56,107.9,2.25,37.71,8.68,70.99,26.16,97.31,46.64,26.25,20.69,45.73,44.23,58.61,65.87,12.8,21.75,19.69,41.19,22.74,54.89,1.98,6.74,2.33,12.25,2.97,15.87.5,3.65.63,5.58.37,5.62Z"/>
      <path class="st19" d="M6509.14,5975.89c-1.57.35-4.1-25.41-20.23-62.92-15.89-37.03-47.87-86.23-100.06-120.05-25.81-16.81-54.82-24.62-81.19-29.29-26.57-4.42-50.96-6.02-71.43-7.41-19.26-1.34-35.52-2.46-48.58-3.36-11.46-1.05-17.79-1.91-17.76-2.44.03-.53,6.41-.68,17.9-.55,13.1.25,29.39.55,48.7.92,20.57.71,45.17,1.73,72.32,5.85,26.95,4.39,57.11,12.21,84.18,29.8,53.99,35.01,86.02,86.13,100.94,124.44,7.54,19.35,11.63,35.71,13.45,47.14,1.93,11.41,2.2,17.81,1.76,17.87Z"/>
      <path class="st13" d="M5765.12,5729.71s145.04-219.71,182.12-248.49c37.07-28.78,353.64-171.71,390.71-148.73,37.08,22.98,14.26,72.85,14.26,72.85,0,0,134.04-46.95,148.3-28.44,14.25,18.5,17.12,49.87,0,75.54,0,0,74.15-11.41,74.15,11.41s-8.55,51.33-42.78,77c-34.22,25.67-256.75,173.83-274.6,214.73l-72.09-4.37-420.07-21.5Z"/>
      <path class="st12" d="M6182.54,5666.88c-.41-.23,1.75-5.26,6.62-13.84,4.84-8.6,12.73-20.58,23.84-34.35,22.01-27.68,58.83-60.95,105.19-88.55,46.36-27.66,91.68-45.92,124.43-58.48,16.42-6.23,29.82-10.98,39.13-14.1,9.32-3.11,14.56-4.59,14.75-4.1.19.5-4.69,2.92-13.68,6.89-10.58,4.53-23.3,9.98-38.17,16.35-32.16,13.82-76.79,32.75-122.5,60.02-45.7,27.23-82.29,59.14-105,85.48-22.98,26.2-33.41,45.41-34.61,44.68Z"/>
      <path class="st12" d="M5998.55,5663.31c-.47-.25,2.06-5.98,7.02-16.15,5.01-10.15,12.36-24.78,22.32-42.44,10.07-17.58,22.66-38.39,39.98-59.19,8.92-10.32,17.91-20.89,30.38-30.12,12.24-8.24,25.13-16,38.44-23.89,53.4-31.2,103.76-55.94,141.61-70.63,18.83-7.54,34.6-12.29,45.56-15.26,11.1-2.49,17.26-3.62,17.38-3.1.31,1.3-24.05,6.95-60.88,23.38-36.99,15.85-86.67,41.21-139.78,72.23-13.2,7.83-26.14,15.55-38.06,23.48-10.99,7.93-20.66,18.74-29.25,28.47-17.19,20.05-30.11,40.3-40.7,57.38-9.65,16.27-17.8,30.02-24.37,41.11-5.77,9.73-9.19,14.99-9.65,14.73Z"/>
    </g>
  </g>
</svg>