<?xml version="1.0" encoding="UTF-8"?>
<svg id="Layer_1" xmlns="http://www.w3.org/2000/svg" version="1.1" viewBox="0 0 8192 7170">
  <!-- Generator: Adobe Illustrator 29.6.0, SVG Export Plug-In . SVG Version: 2.1.1 Build 207)  -->
  <defs>
    <style>
      .st0, .st1 {
        fill: #e0e0e0;
      }

      .st2, .st3 {
        fill: #ebebeb;
      }

      .st2, .st1, .st4, .st5, .st6, .st7 {
        stroke: #03f9be;
        stroke-miterlimit: 8.67;
        stroke-width: .87px;
      }

      .st8 {
        fill: #aa6550;
      }

      .st9 {
        fill: #b78876;
      }

      .st10 {
        fill: #60cefd;
      }

      .st11 {
        fill: #ffbe9d;
      }

      .st12 {
        fill: #2d3bea;
      }

      .st13 {
        fill: #263238;
      }

      .st14 {
        fill: #eb996e;
      }

      .st15, .st7 {
        fill: #fff;
      }

      .st4 {
        fill: none;
      }

      .st16 {
        opacity: .3;
      }

      .st5 {
        fill: #f5f5f5;
      }

      .st17 {
        fill: #e8505b;
      }

      .st6 {
        fill: #fafafa;
      }

      .st18 {
        fill: #455a64;
      }
    </style>
  </defs>
  <path class="st0" d="M7742.7,5577.3c-.71.15-3.18-8.43-7.07-24.1-3.97-15.65-8.95-38.47-14.7-66.76-11.54-56.54-24.8-135.17-39.11-221.91-14.31-86.79-28.66-165-41.03-221.21-6.1-28.12-11.27-50.85-15.04-66.5-3.7-15.68-5.41-24.46-4.71-24.67.69-.21,3.75,8.18,8.65,23.57,5,15.35,11.3,37.85,18.35,65.85,14.28,55.97,29.86,134.31,44.18,221.18,13.9,85.63,26.45,163.11,36.06,222.29,4.5,26.72,8.32,49.23,11.38,67.29,2.64,15.9,3.77,24.79,3.05,24.95Z"/>
  <path class="st0" d="M7471.29,6415c-.32.17-2.23-2.81-5.59-8.67-3.83-7-8.52-15.54-14.19-25.89-12.23-22.52-29.1-55.59-49.37-96.71-40.62-82.22-93.16-197.57-149.41-325.62-56.3-128.11-107.69-243.78-146.53-326.74-19-40.31-34.66-73.47-46.3-98.11-4.98-10.7-9.08-19.52-12.44-26.78-2.74-6.16-4.04-9.48-3.71-9.68.33-.15,2.24,2.84,5.6,8.7,3.84,7,8.52,15.53,14.2,25.86,12.23,22.54,29.08,55.6,49.36,96.73,40.63,82.21,93.16,197.57,149.44,325.66,56.28,128.08,107.66,243.73,146.5,326.7,19.04,40.3,34.67,73.47,46.3,98.1,4.99,10.71,9.09,19.55,12.46,26.78,2.73,6.18,4.02,9.51,3.69,9.67h0Z"/>
  <path class="st5" d="M7540.17,2724.17c-52.6,131.69-136.84,344.62-175.5,442.43-11.41,28.84,2.7,61.46,31.52,72.94l359.82,143.31c28.87,11.49,61.6-2.58,73.09-31.45l174.58-438.33c25.53-64.1-5.73-136.76-69.83-162.29l25.67-64.46-235.63-93.85-24.27,60.95-.88-.32c-63.39-22.97-133.57,8.47-158.58,71.07h0Z"/>
  <path class="st1" d="M7720.64,2600.66l-11.68,29.32,232.3,102.22,15.02-37.69-235.63-93.85h0Z"/>
  <path class="st2" d="M7768.21,2505.92l219.64,87.49c19.61,7.8,29.2,30.08,21.38,49.69l-23.3,58.49c-5.04,12.67-19.41,18.85-32.08,13.82l-244.82-97.52c-12.67-5.05-18.85-19.41-13.8-32.08l23.29-58.49c7.81-19.61,30.08-29.19,49.69-21.39h0Z"/>
  <path class="st1" d="M7723.12,2624c-1.72-.68,7.28-27.31,20.09-59.45,12.8-32.16,24.58-57.68,26.28-57,1.72.68-7.27,27.3-20.09,59.47-12.8,32.15-24.57,57.66-26.28,56.99Z"/>
  <path class="st1" d="M7754.16,2636.36c-1.71-.68,7.29-27.3,20.1-59.45,12.81-32.16,24.58-57.67,26.29-56.99,1.71.68-7.29,27.29-20.11,59.45-12.8,32.16-24.57,57.67-26.28,56.99Z"/>
  <path class="st1" d="M7785.21,2648.73c-1.7-.68,7.29-27.3,20.1-59.46,12.81-32.16,24.58-57.67,26.29-56.99,1.71.68-7.29,27.3-20.11,59.45-12.8,32.16-24.57,57.67-26.28,56.99Z"/>
  <path class="st1" d="M7816.27,2661.1c-1.72-.68,7.28-27.3,20.09-59.45,12.8-32.16,24.57-57.67,26.28-56.99,1.72.68-7.28,27.29-20.09,59.46-12.8,32.16-24.57,57.67-26.28,56.99Z"/>
  <path class="st1" d="M7847.32,2673.46c-1.71-.68,7.29-27.29,20.1-59.45,12.81-32.16,24.58-57.68,26.29-56.99,1.71.68-7.29,27.29-20.11,59.45-12.8,32.16-24.57,57.68-26.28,56.99Z"/>
  <path class="st1" d="M7878.37,2685.84c-1.71-.68,7.3-27.3,20.11-59.46,12.8-32.16,24.57-57.67,26.28-56.99,1.72.68-7.29,27.29-20.1,59.46-12.8,32.14-24.57,57.67-26.29,56.99Z"/>
  <path class="st1" d="M7909.43,2698.2c-1.71-.68,7.28-27.3,20.09-59.45,12.81-32.16,24.59-57.68,26.29-56.99,1.71.68-7.28,27.29-20.1,59.46-12.8,32.15-24.57,57.66-26.28,56.99h0Z"/>
  <path class="st0" d="M7940.47,2710.57c-1.71-.69,7.29-27.31,20.1-59.46,12.8-32.16,24.57-57.67,26.29-56.99,1.71.68-7.29,27.3-20.11,59.47-12.8,32.14-24.57,57.66-26.28,56.99Z"/>
  <path class="st2" d="M7900.72,2941.33l-302.4-120.45c-9.73-3.86-20.76.88-24.63,10.6l-74.92,188.1c-3.87,9.73.88,20.76,10.6,24.63l302.39,120.44c9.73,3.88,20.76-.88,24.63-10.59l74.92-188.1c3.88-9.73-.88-20.76-10.59-24.63h0Z"/>
  <path class="st0" d="M7812.87,3147.32c-.05-.12.36-1.42,1.21-3.83l3.88-10.52c3.66-9.65,8.68-22.84,14.98-39.44,13.27-34.22,31.96-82.43,54.68-141.04l1.48,3.43c-81.55-32.28-184.49-73.02-296.17-117.22-.96.39,8.16-3.54,4.28-1.85l-.02.04-.03.1-.09.2-.16.41-.32.81-.64,1.61-1.28,3.23-2.57,6.43-5.1,12.81c-3.4,8.51-6.76,16.95-10.11,25.34-6.69,16.77-13.3,33.27-19.78,49.49-12.97,32.4-25.47,63.6-37.36,93.26l-1.71-3.97c86.09,34.95,159.36,64.69,211.8,85.98,25.65,10.59,46.17,19.06,60.92,25.15,6.72,2.84,12.12,5.12,16.32,6.89,3.74,1.62,5.7,2.53,5.77,2.69.07.16-1.77-.44-5.38-1.75-4.12-1.53-9.42-3.52-16.03-5.99-14.74-5.64-35.24-13.52-60.88-23.36-53.18-20.77-127.49-49.81-214.78-83.91l-2.84-1.11,1.14-2.87c11.77-29.71,24.14-60.96,36.99-93.4,6.45-16.23,13.01-32.76,19.67-49.53,3.34-8.39,6.7-16.85,10.08-25.36l5.1-12.81,2.56-6.43,1.28-3.23.64-1.61.32-.81.17-.41.09-.2.03-.1.02-.04c-3.86,1.64,5.28-2.3,4.37-1.89,111.48,44.68,214.25,85.87,295.65,118.5l2.48,1-1,2.44c-24.05,58.82-43.83,107.2-57.88,141.55-6.74,16.16-12.09,28.99-16,38.38l-4.24,9.83c-.97,2.18-1.5,3.23-1.54,3.11h0Z"/>
  <path class="st4" d="M7812.87,3147.32c-.05-.12.36-1.42,1.21-3.83l3.88-10.52c3.66-9.65,8.68-22.84,14.98-39.44,13.27-34.22,31.96-82.43,54.68-141.04l1.48,3.43c-81.55-32.28-184.49-73.02-296.17-117.22-.96.39,8.16-3.54,4.28-1.85l-.02.04-.03.1-.09.2-.16.41-.32.81-.64,1.61-1.28,3.23-2.57,6.43-5.1,12.81c-3.4,8.51-6.76,16.95-10.11,25.34-6.69,16.77-13.3,33.27-19.78,49.49-12.97,32.4-25.47,63.6-37.36,93.26l-1.71-3.97c86.09,34.95,159.36,64.69,211.8,85.98,25.65,10.59,46.17,19.06,60.92,25.15,6.72,2.84,12.12,5.12,16.32,6.89,3.74,1.62,5.7,2.53,5.77,2.69h0ZM7812.87,3147.32c.07.16-1.77-.44-5.38-1.75-4.12-1.53-9.42-3.52-16.03-5.99-14.74-5.64-35.24-13.52-60.88-23.36-53.18-20.77-127.49-49.81-214.78-83.91l-2.84-1.11,1.14-2.87c11.77-29.71,24.14-60.96,36.99-93.4,6.45-16.23,13.01-32.76,19.67-49.53,3.34-8.39,6.7-16.85,10.08-25.36l5.1-12.81,2.56-6.43,1.28-3.23.64-1.61.32-.81.17-.41.09-.2.03-.1.02-.04c-3.86,1.64,5.28-2.3,4.37-1.89,111.48,44.68,214.25,85.87,295.65,118.5l2.48,1-1,2.44c-24.05,58.82-43.83,107.2-57.88,141.55-6.74,16.16-12.09,28.99-16,38.38l-4.24,9.83c-.97,2.18-1.5,3.23-1.54,3.11h0Z"/>
  <path class="st1" d="M7819.3,2997.97c-.68,1.71-46.26-14.84-101.78-36.95-55.55-22.13-100.01-41.44-99.34-43.15.69-1.71,46.25,14.83,101.8,36.96,55.52,22.12,100,41.43,99.32,43.14h0Z"/>
  <path class="st1" d="M7805.67,3032.16c-.68,1.71-46.24-14.84-101.77-36.96-55.54-22.13-100-41.43-99.33-43.14.68-1.71,46.24,14.83,101.79,36.96,55.53,22.11,100,41.43,99.31,43.14Z"/>
  <path class="st1" d="M7792.6,3065c-.68,1.72-46.26-14.83-101.78-36.96-55.55-22.12-100-41.42-99.33-43.14.68-1.71,46.25,14.84,101.8,36.96,55.52,22.11,99.99,41.43,99.31,43.14h0Z"/>
  <path class="st1" d="M7921.2,2743.39c-.68,1.71-50.38-16.48-110.97-40.61-60.63-24.15-109.2-45.1-108.53-46.82.68-1.71,50.37,16.48,110.98,40.62s109.2,45.1,108.52,46.81Z"/>
  <path class="st7" d="M7394.21,3148.95c-.43-.16,2.12-7.71,7.12-21.19,5.52-14.47,12.84-33.66,21.71-56.89,18.61-47.93,44.73-113.96,73.96-186.74,14.7-36.32,28.7-70.92,41.48-102.53,12.7-31.49,27.46-59.63,46.72-77.77,19.01-18.25,39.92-26.08,54.34-27.73,7.27-.98,12.96-.42,16.75-.07,3.79.67,5.71,1.14,5.68,1.37-.05.69-8.03-1.16-22.03,1.25-13.82,2.39-33.58,10.59-51.44,28.56-18.08,17.81-32.01,45.26-44.34,76.71-12.64,31.66-26.48,66.31-40.99,102.69-29.23,72.78-56.05,138.54-75.77,186.02-9.67,22.91-17.65,41.83-23.68,56.08-5.72,13.2-9.09,20.41-9.52,20.24h0Z"/>
  <path class="st7" d="M7798.56,3380.39c-.33.32-5.36-3.78-14.16-11.46-4.36-3.89-9.73-8.59-16.27-13.69-6.49-5.15-13.62-11.34-22.15-17.36-16.57-12.64-37.25-26.42-60.96-40.37-23.92-13.62-50.99-27.23-80.45-39.11-29.57-11.63-58.59-20.36-85.33-26.9-26.82-6.16-51.32-10.37-72.04-12.58-10.33-1.5-19.76-1.88-28.01-2.62-8.26-.8-15.39-1.08-21.22-1.24-11.68-.48-18.15-.96-18.16-1.41,0-.46,6.46-.86,18.19-1.18,5.87-.23,13.06-.33,21.38.11,8.33.38,17.86.44,28.3,1.66,20.96,1.62,45.77,5.38,72.96,11.28,27.08,6.29,56.5,14.94,86.41,26.69,29.79,12.02,57.1,25.95,81.09,40,23.8,14.4,44.4,28.72,60.73,41.94,8.41,6.3,15.38,12.8,21.68,18.26,6.35,5.4,11.51,10.41,15.61,14.61,8.31,8.31,12.73,13.04,12.41,13.37h0Z"/>
  <path class="st1" d="M1066.13,3282.93l-990.21,476.63c-15.33,7.37-21.77,25.78-14.39,41.09l664.71,1380.94c7.38,15.33,25.78,21.77,41.1,14.4l990.22-476.63c15.32-7.38,21.76-25.78,14.38-41.1l-664.71-1380.94c-7.39-15.32-25.78-21.76-41.11-14.38h0Z"/>
  <path class="st6" d="M1050.21,3328.28l-928.92,447.13,643.6,1337.08,928.92-447.13-643.61-1337.08Z"/>
  <path class="st10" d="M784.39,3481.18c-37.88-29.26-89.04-34.59-132.14-13.79l-28.47-56.51c-20.78-43.18-72.64-61.35-115.82-40.56-43.18,20.78-61.34,72.64-40.56,115.82l28.56,59.33-19.78,9.93c-42.18,21.16-69.05,64.06-69.69,111.25l-.39,29.4,404.43-194.67-26.14-20.19h0ZM568.53,3490.4c-23.24,11.19-51.16,1.41-62.34-21.83-11.18-23.24-1.41-51.16,21.83-62.34,23.24-11.19,51.16-1.41,62.34,21.83,11.19,23.23,1.41,51.15-21.83,62.34h0Z"/>
  <path class="st1" d="M556.77,3799.12c.8,1.66-54.95,30.14-124.49,63.63-69.57,33.48-126.59,59.27-127.39,57.62-.8-1.66,54.93-30.14,124.51-63.63,69.55-33.47,126.58-59.27,127.38-57.62Z"/>
  <path class="st1" d="M446.72,3904.42c.8,1.66-25.73,16.08-59.25,32.21-33.53,16.14-61.35,27.88-62.14,26.23-.8-1.66,25.72-16.08,59.25-32.23,33.52-16.13,61.34-27.86,62.14-26.21h0Z"/>
  <path class="st1" d="M1095.46,3737.92c.8,1.66-155.49,78.54-349.04,171.7-193.62,93.2-351.17,167.39-351.96,165.73-.8-1.66,155.47-78.53,349.08-171.72,193.55-93.17,351.14-167.37,351.94-165.71h0Z"/>
  <path class="st1" d="M1127.63,3804.77c.81,1.66-155.49,78.55-349.04,171.71-193.62,93.2-351.17,167.38-351.97,165.72-.8-1.66,155.47-78.53,349.09-171.73,193.55-93.16,351.14-167.36,351.93-165.7h0Z"/>
  <path class="st1" d="M1159.82,3871.62c.81,1.66-155.5,78.55-349.04,171.7-193.62,93.2-351.17,167.39-351.97,165.72-.8-1.66,155.47-78.52,349.09-171.72,193.54-93.16,351.14-167.36,351.93-165.7Z"/>
  <path class="st1" d="M1192,3938.46c.79,1.66-155.5,78.55-349.05,171.71-193.62,93.19-351.17,167.38-351.96,165.72s155.47-78.52,349.08-171.72c193.55-93.16,351.13-167.36,351.94-165.71h0Z"/>
  <path class="st1" d="M1224.17,4005.32c.8,1.66-155.49,78.54-349.05,171.7-193.61,93.19-351.17,167.38-351.96,165.72-.8-1.65,155.47-78.52,349.08-171.72,193.55-93.16,351.14-167.36,351.94-165.7Z"/>
  <path class="st1" d="M1256.34,4072.16c.8,1.66-155.5,78.54-349.04,171.71-193.62,93.19-351.17,167.37-351.97,165.72-.8-1.66,155.47-78.54,349.09-171.73,193.55-93.16,351.13-167.37,351.93-165.7h0Z"/>
  <path class="st1" d="M934.85,4301.15c.2.41-4.52,3.16-13.21,7.79-10,5.13-22.41,11.5-37.11,19.04-31.45,15.8-75.1,37.23-123.48,60.52-48.4,23.3-92.38,44.05-124.36,58.77-15.06,6.78-27.77,12.51-38.02,17.12-9.04,3.91-14.13,5.87-14.33,5.46-.2-.41,4.52-3.17,13.21-7.79,10-5.12,22.4-11.5,37.1-19.04,31.45-15.8,75.11-37.23,123.51-60.53,48.39-23.29,92.36-44.04,124.33-58.76,15.06-6.78,27.77-12.51,38.02-17.13,9.04-3.9,14.14-5.87,14.34-5.45h0Z"/>
  <path class="st1" d="M1045.47,3556.42c.8,1.66-23.69,15.09-54.7,30.02-31.01,14.92-56.79,25.68-57.58,24.02-.8-1.66,23.69-15.09,54.7-30.02s56.79-25.69,57.58-24.02Z"/>
  <path class="st1" d="M845.65,4523.5c.8,1.66-39.32,22.62-89.59,46.82-50.29,24.21-91.69,42.48-92.49,40.83s39.31-22.61,89.6-46.82c50.28-24.2,91.68-42.47,92.48-40.82h0Z"/>
  <path class="st1" d="M880.93,4581.27c.8,1.66-39.99,22.95-91.11,47.55-51.13,24.61-93.21,43.21-94.01,41.55-.8-1.66,39.99-22.94,91.12-47.55,51.11-24.6,93.2-43.21,94-41.55Z"/>
  <path class="st0" d="M1369.29,4260.22c.81,1.66-18.25,12.48-42.55,24.19-24.31,11.7-44.66,19.84-45.45,18.18-.8-1.66,18.26-12.48,42.56-24.19,24.3-11.69,44.65-19.84,45.44-18.18Z"/>
  <path class="st0" d="M1398.63,4313.39c.8,1.66-18.26,12.48-42.55,24.18-24.31,11.7-44.66,19.84-45.45,18.19-.81-1.66,18.25-12.48,42.56-24.19,24.29-11.69,44.64-19.84,45.44-18.18Z"/>
  <path class="st1" d="M826.63,4685.9c.8,1.65-17.58,12.15-41.03,23.45-23.47,11.3-43.14,19.1-43.94,17.44-.8-1.65,17.57-12.15,41.04-23.45,23.46-11.3,43.13-19.1,43.93-17.44Z"/>
  <path class="st0" d="M1432.34,4375.67c.8,1.65-12.82,9.86-30.42,18.33-17.6,8.48-32.51,14-33.31,12.34-.8-1.66,12.82-9.86,30.42-18.34,17.6-8.46,32.51-13.99,33.31-12.33Z"/>
  <path class="st1" d="M805.33,4873.42c-.08-.14,1.13-1.05,3.54-2.72l10.78-7.17c10.12-6.49,23.98-15.38,41.35-26.5,36.43-22.88,87.43-54.91,148.44-93.22l2.92-1.83,1.26,3.22c6.72,17.09,7.91,37.33,1.64,56.34-5.85,18.93-20.45,36.83-40.87,44.28-19.9,7.45-44.52,6.46-63.26-7.13-19.06-13.47-26.91-39.48-21.19-62.27,2.15-8.56,6.25-16.68,12.23-23.21,1.42-1.7,3.05-3.18,4.79-4.56,1.66-1.42,3.34-2.88,5.81-3.98,2.28-1.16,6.18-1.52,8.93.3,2.68,1.69,3.96,3.95,5.06,5.87,7.94,14.86,12.16,31.16,13.01,47.32.84,16.16-1.64,32.23-7.31,46.76-5.51,14.43-14.16,28.23-27.51,36.44-13.39,8.6-31.13,6.85-43.18-.95-12.35-7.65-21.2-19.33-25.63-32.11-8.34-25.84-3.09-50.84.41-72.17l.8-4.87,3.27,3.67c15.26,17.12,22.32,37.41,24.36,55.12,2.23,17.86-.52,33.43-4.27,45.35-3.88,11.98-9.09,20.37-12.86,25.74-1.94,2.65-3.68,4.49-4.75,5.78-1.12,1.25-1.73,1.86-1.81,1.78-.88-.49,9.81-10.4,16.94-34.06,3.29-11.73,5.57-26.91,3.05-44.11-2.31-17.06-9.47-36.39-24.13-52.4l4.07-1.21c-3.28,21.36-7.85,45.78.16,69.6,4.08,11.47,12.35,22.16,23.42,28.86,10.95,6.81,25.52,8.1,36.99.74,11.5-7.13,19.64-19.79,24.73-33.47,5.29-13.7,7.58-28.88,6.74-44.14-.82-15.24-4.89-30.66-12.3-44.48-.86-1.6-1.86-2.91-2.69-3.38-.76-.44-1.43-.48-2.81.1-2.61,1.35-5.98,4.2-8.37,6.94-5.15,5.63-8.76,12.74-10.67,20.34-5.12,20.41,1.98,43.64,18.6,55.33,16.47,12.08,39.01,13.2,57.12,6.44,18.47-6.68,31.73-22.66,37.31-40.19,5.92-17.53,4.92-36.45-1.15-52.3l4.19,1.39c-61.52,37.47-112.97,68.8-149.7,91.18-17.71,10.56-31.86,19-42.19,25.16-4.54,2.6-8.24,4.73-11.24,6.42-2.57,1.42-3.94,2.09-4.01,1.96h0Z"/>
  <path class="st0" d="M1469.31,4551.03c.28.08-.13,4.3-2.14,12.01-1.08,3.81-2.62,8.57-5.79,13.56-3.17,4.94-8.44,10.03-16.06,12.22-3.75,1.08-8.22,1.2-12.43-.41-4.23-1.56-7.82-4.7-10.64-8.3-5.56-7.37-9.34-15.76-14.33-24.38-9.65-17.59-20.31-37.06-31.8-58.01l5.83-1.34c-1.03,29.32-2.15,61.31-3.33,94.85-.3,7.98-.61,15.87-.91,23.63l-.49,13.23-5.79-11.89c-17.48-35.94-33.79-69.47-48.02-98.73l5.31-.52c-9.97,36.07-12.08,67.44-12.17,89.19-.03,21.83,1.48,34.28.75,34.36-.28.04-.97-3.03-1.85-8.85-.83-5.83-1.77-14.43-2.22-25.45-.88-21.95.41-53.87,9.99-90.74l1.92-7.35,3.39,6.83c14.49,29.16,31.08,62.53,48.86,98.31l-6.29,1.34c.29-7.76.58-15.66.88-23.64,1.34-33.52,2.62-65.5,3.79-94.83l.46-11.49,5.37,10.14c11.17,21.11,21.54,40.73,30.92,58.47,4.76,8.64,8.61,17.47,13.35,24.08,4.69,6.79,12.01,9.68,18.53,7.81,13.51-3.6,18.3-15.92,20.88-22.73,2.57-7.33,3.66-11.49,4.06-11.38h0Z"/>
  <path class="st0" d="M1467.92,4503.14c1.04,1.53-51.73,39.21-117.85,84.18-66.14,44.98-120.59,80.2-121.62,78.68-1.03-1.52,51.73-39.2,117.86-84.19,66.12-44.96,120.58-80.19,121.6-78.67h0Z"/>
  <path class="st0" d="M1532.77,4514.35c1.2,1.4-37.5,36.62-86.42,78.67-48.94,42.07-89.58,75.03-90.77,73.63-1.2-1.39,37.49-36.61,86.43-78.69,48.92-42.05,89.57-75.01,90.76-73.61h0Z"/>
  <path class="st10" d="M2000.59,1759.43h-53.8l-117.45-163.67v-107.43s-83.18-5.11-73.39,135.54c9.8,140.67-.81,104.85-.81,104.85,0,0-176.61.68-191.29,16.02-10.67,11.15-15.5,186.59-17.35,281.73-.93,47.9,28.45,92.45,73,103.77,6.32,1.62,12.73,2.56,19,2.56,44.05,0,269.12-35.81,269.12-35.81h92.96v-337.56h0Z"/>
  <path class="st10" d="M2154.65,1729.94l-33.11,368.06h-92.15v-360.65l125.26-7.41Z"/>
  <path class="st10" d="M6151.75,1792.05c-13.9-111.98-108.64-216.4-221.47-216.46-66.65-.04-130.02,34.79-175.56,83.45-19.92,21.28-33.56,36.81-44.51,52.79-7.58-17.82-17.9-35.73-33.25-60.51-35.07-56.67-90.35-103.3-155.69-116.38-110.64-22.15-224.08,61.58-259.74,168.63-35.66,107.05-5.97,227.25,52.68,323.65,58.64,96.4,159.64,222.42,345.68,284.96,128.26-16.44,300.04-130.21,376.52-213.18,76.47-82.97,129.24-194.96,115.35-306.94h0Z"/>
  <path class="st15" d="M6111.08,1993.16c-.02.13-1.28.14-3.74.03l-10.88-.7c-10.16-.83-24.12-1.99-41.77-3.43-36.88-3.38-89.15-8.16-153.48-14.05l2.77-1.7c-18.5,48.24-40.17,104.74-63.94,166.7l-3.86,10.04-2.52-10.47c-19.48-80.9-41.31-171.52-64.31-267.03-7.07-29.57-14.04-58.67-20.82-87.07l6.49,1.28c-41.71,57.34-81.17,111.61-117.13,161.06l-1.14,1.55-1.88-.2c-110.3-11.51-203.4-21.23-269.64-28.14-32.3-3.61-58.02-6.47-76.33-8.51-8.39-1.05-15.07-1.89-20.17-2.53-4.58-.62-6.92-1.03-6.9-1.21.02-.19,2.4-.12,7.01.15,5.13.39,11.84.88,20.27,1.51,18.35,1.6,44.14,3.85,76.51,6.67,66.31,6.27,159.51,15.06,269.91,25.49l-3.01,1.35c35.8-49.57,75.08-103.97,116.6-161.46l4.65-6.43,1.85,7.72c6.81,28.4,13.79,57.5,20.89,87.06,22.77,95.56,44.38,186.24,63.66,267.17l-6.37-.42c24.22-61.78,46.31-118.11,65.18-166.22l.75-1.91,2.02.22c64.22,6.88,116.41,12.48,153.24,16.43,17.59,2.05,31.5,3.67,41.62,4.86,4.38.59,7.92,1.07,10.81,1.46,2.43.36,3.67.62,3.66.75h0Z"/>
  <path class="st10" d="M3375.23,2491.23h-84.43v378.37h84.43v-378.37Z"/>
  <path class="st10" d="M3143.82,2638.2v84.43h378.38v-84.43h-378.38Z"/>
  <path class="st10" d="M3647.25,2681.32c-.11,0-.31-1.73-.6-5.1-.26-3.68-.63-8.63-1.08-14.96-.22-3.32-.46-6.99-.71-11-.46-4.04-1.34-8.4-2.06-13.15-1.53-9.5-2.99-20.51-6.66-32.48-5.63-24.31-17.07-53.01-35.07-83.42-18.13-30.27-44.27-61.9-79.81-88.72-35.43-26.56-80.13-49.16-131.7-58.27-51.22-8.77-109.04-7.18-164.09,13.76-14,4.49-27.17,11.42-40.71,17.92-12.82,7.75-26.33,14.9-38.27,24.61-12.69,8.71-23.79,19.62-35.41,30.12-10.49,11.63-21.54,22.99-30.58,36.19-18.57,25.8-34.79,54.47-44.61,85.99-10.17,31.32-15.64,64.6-16.1,98.46.45,33.87,5.91,67.16,16.08,98.51,9.81,31.53,26.03,60.2,44.61,86.01,9.05,13.2,20.07,24.58,30.58,36.2,11.63,10.49,22.71,21.41,35.41,30.13,11.95,9.7,25.45,16.85,38.28,24.61,13.54,6.5,26.71,13.44,40.72,17.93,55.07,20.93,112.88,22.53,164.11,13.74,51.58-9.1,96.28-31.7,131.7-58.27,35.55-26.82,61.68-58.45,79.81-88.73,17.99-30.4,29.43-59.11,35.05-83.41,3.67-11.96,5.12-22.97,6.66-32.47.73-4.75,1.61-9.12,2.06-13.14.25-4.03.49-7.7.71-11.01.45-6.31.82-11.26,1.08-14.96.29-3.37.49-5.11.6-5.11.12,0,.14,1.73.09,5.12-.1,3.7-.25,8.67-.43,15.02l-.41,11.09c-.34,4.07-1.11,8.47-1.74,13.27-1.34,9.57-2.62,20.7-6.11,32.81-5.28,24.6-16.47,53.73-34.37,84.69-18.05,30.82-44.26,63.1-80.15,90.56-35.78,27.21-81.09,50.43-133.54,59.96-52.09,9.18-110.99,7.76-167.22-13.42-14.3-4.54-27.76-11.56-41.58-18.17-13.11-7.87-26.9-15.15-39.12-25.02-12.96-8.88-24.31-19.97-36.19-30.68-10.74-11.83-22-23.44-31.27-36.9-19-26.31-35.58-55.59-45.64-87.79-10.4-32-16-66-16.46-100.59.46-34.57,6.07-68.56,16.47-100.55,10.07-32.18,26.64-61.45,45.64-87.76,9.27-13.45,20.54-25.06,31.28-36.89,11.87-10.7,23.22-21.79,36.18-30.66,12.21-9.87,26-17.15,39.11-25.01,13.82-6.61,27.27-13.62,41.57-18.18,56.22-21.16,115.12-22.6,167.2-13.4,52.44,9.5,97.77,32.74,133.54,59.95,35.9,27.47,62.11,59.73,80.17,90.55,17.9,30.95,29.09,60.09,34.38,84.69,3.49,12.12,4.77,23.24,6.11,32.83.62,4.79,1.4,9.19,1.74,13.26l.41,11.09c.17,6.35.32,11.32.43,15.03.05,3.38.03,5.11-.09,5.11h0Z"/>
  <path class="st10" d="M3647.25,2681.32c-.11,0-.31-1.73-.6-5.1-.26-3.68-.63-8.63-1.08-14.96-.22-3.32-.46-6.99-.71-11-.46-4.04-1.34-8.4-2.06-13.15-1.53-9.5-2.99-20.51-6.66-32.48-5.63-24.31-17.07-53.01-35.07-83.42-18.13-30.27-44.27-61.9-79.81-88.72-35.43-26.56-80.13-49.16-131.7-58.27-51.22-8.77-109.04-7.18-164.09,13.76-14,4.49-27.17,11.42-40.71,17.92-12.82,7.75-26.33,14.9-38.27,24.61-12.69,8.71-23.79,19.62-35.41,30.12-10.49,11.63-21.54,22.99-30.58,36.19-18.57,25.8-34.79,54.47-44.61,85.99-10.17,31.32-15.64,64.6-16.1,98.46.45,33.87,5.91,67.16,16.08,98.51,9.81,31.53,26.03,60.2,44.61,86.01,9.05,13.2,20.07,24.58,30.58,36.2,11.63,10.49,22.71,21.41,35.41,30.13,11.95,9.7,25.45,16.85,38.28,24.61,13.54,6.5,26.71,13.44,40.72,17.93,55.07,20.93,112.88,22.53,164.11,13.74,51.58-9.1,96.28-31.7,131.7-58.27,35.55-26.82,61.68-58.45,79.81-88.73,17.99-30.4,29.43-59.11,35.05-83.41,3.67-11.96,5.12-22.97,6.66-32.47.73-4.75,1.61-9.12,2.06-13.14.25-4.03.49-7.7.71-11.01.45-6.31.82-11.26,1.08-14.96.29-3.37.49-5.11.6-5.11h0ZM3647.25,2681.32c.12,0,.14,1.73.09,5.12-.1,3.7-.25,8.67-.43,15.02l-.41,11.09c-.34,4.07-1.11,8.47-1.74,13.27-1.34,9.57-2.62,20.7-6.11,32.81-5.28,24.6-16.47,53.73-34.37,84.69-18.05,30.82-44.26,63.1-80.15,90.56-35.78,27.21-81.09,50.43-133.54,59.96-52.09,9.18-110.99,7.76-167.22-13.42-14.3-4.54-27.76-11.56-41.58-18.17-13.11-7.87-26.9-15.15-39.12-25.02-12.96-8.88-24.31-19.97-36.19-30.68-10.74-11.83-22-23.44-31.27-36.9-19-26.31-35.58-55.59-45.64-87.79-10.4-32-16-66-16.46-100.59.46-34.57,6.07-68.56,16.47-100.55,10.07-32.18,26.64-61.45,45.64-87.76,9.27-13.45,20.54-25.06,31.28-36.89,11.87-10.7,23.22-21.79,36.18-30.66,12.21-9.87,26-17.15,39.11-25.01,13.82-6.61,27.27-13.62,41.57-18.18,56.22-21.16,115.12-22.6,167.2-13.4,52.44,9.5,97.77,32.74,133.54,59.95,35.9,27.47,62.11,59.73,80.17,90.55,17.9,30.95,29.09,60.09,34.38,84.69,3.49,12.12,4.77,23.24,6.11,32.83.62,4.79,1.4,9.19,1.74,13.26l.41,11.09c.17,6.35.32,11.32.43,15.03.05,3.38.03,5.11-.09,5.11h0Z"/>
  <path class="st10" d="M7541.6,5287.28s374.24-89.21,386.58-104.96l-307.77-792.67c-43-110.75-115.52-208.92-213.28-276.44-44.65-30.83-93.54-55.69-145.64-73.41-200.01-68.01-363.49-56.13-363.49-56.13l-519.57-27.56c-161.32,9.46-299.36,56.8-409.89,113.46-175.14,89.74-310.18,242.06-384.86,424.15l-232.92,582.05,587.67,122.88,22.33,625.28-88.62,862.81h1622.86l-11.31-1367.59,57.94-31.85Z"/>
  <g class="st16">
    <path class="st15" d="M7864.17,5078.79c.55,1.75-96.55,33.41-216.84,70.72-120.32,37.31-218.28,66.11-218.82,64.36-.54-1.76,96.54-33.42,216.86-70.73,120.28-37.3,218.26-66.11,218.81-64.36h0Z"/>
  </g>
  <path class="st13" d="M6166.33,4521.48c-.4.23-3.94-4.64-9.99-13.62-5.94-9.05-15.04-21.82-26.78-37.16-11.66-15.41-26.58-32.96-44.05-51.56-17.71-18.36-38.13-37.65-60.97-56.24-22.99-18.41-46.17-34.3-67.86-47.74-21.87-13.17-42.16-24.05-59.68-32.19-17.48-8.24-31.87-14.44-41.97-18.35-10.06-4.01-15.57-6.46-15.42-6.89.14-.43,5.93,1.17,16.31,4.46,10.41,3.16,25.18,8.73,43.04,16.48,17.91,7.66,38.64,18.21,60.9,31.22,22.09,13.29,45.63,29.21,68.88,47.82,23.09,18.79,43.61,38.44,61.26,57.24,17.4,19.01,32.09,37.03,43.35,52.93,11.36,15.82,19.91,29.08,25.19,38.6,5.4,9.44,8.19,14.77,7.8,15h0Z"/>
  <path class="st13" d="M6089.68,4710.68c1.83.19-16.29,191.11-40.48,426.39-24.18,235.36-45.26,425.94-47.09,425.76-1.83-.19,16.28-191.08,40.48-426.44,24.17-235.28,45.26-425.91,47.09-425.72h0Z"/>
  <path class="st13" d="M7367.3,4356.86c-1.04.13-3.33-14.86-8.37-38.74-5-23.88-13.27-56.57-25.8-91.58-12.6-35-26.98-65.51-38.29-87.13-11.29-21.62-19.05-34.64-18.16-35.22.39-.24,2.76,2.74,6.71,8.36,4.01,5.59,9.35,13.98,15.57,24.59,12.46,21.2,27.71,51.76,40.45,87.16,12.66,35.41,20.3,68.68,24.15,92.96,1.95,12.15,3.15,22.03,3.61,28.89.52,6.86.59,10.66.13,10.72h0Z"/>
  <path class="st13" d="M7399.81,5024.43c-.47.05-1.56-6.62-3.16-18.76-1.61-12.13-3.57-29.71-5.67-51.47-4.25-43.51-8.68-103.79-11.04-170.5-2.32-66.7-2.14-127.16-.97-170.87.58-21.86,1.29-39.53,2.05-51.74.74-12.21,1.36-18.94,1.82-18.93.46.02.71,6.79.77,19,.03,13.45.04,30.84.07,51.73.03,43.66.58,103.99,2.91,170.58,2.36,66.57,6.03,126.78,9.06,170.33,1.45,20.85,2.65,38.2,3.57,51.62.8,12.19,1.02,18.96.57,19h0Z"/>
  <path class="st15" d="M6614.16,4912.78c-136.36,7.93-273.33,5.38-409.31-7.64v53.16h409.31v-45.52Z"/>
  <g class="st16">
    <path class="st15" d="M7021.22,4028.59c.16-.02.7,2.74,1.58,8.07.87,5.79,2.05,13.63,3.56,23.59,2.59,20.68,6.17,50.99,9.11,89.42,6.13,76.87,11.47,186.08,13.35,315.04l.07,4.92-4.41-2.15c-81.6-39.67-173.12-82.93-268.33-130.5-181.45-90.81-345.7-173-465.07-232.74-59.03-29.9-106.95-54.17-140.57-71.2-16.2-8.36-28.94-14.94-38.07-19.65-4.04-2.16-7.28-3.89-9.81-5.25-2.18-1.22-3.29-1.9-3.23-2,.05-.09,1.26.38,3.55,1.4,2.62,1.21,5.96,2.76,10.13,4.68,9.26,4.44,22.19,10.66,38.64,18.54,33.86,16.59,82.1,40.22,141.55,69.33,119.6,59.29,284.13,140.86,465.92,230.98,95.19,47.57,186.5,90.95,267.89,130.93l-4.34,2.77c-1.36-128.8-5.84-237.99-10.93-314.81-2.4-38.43-5.4-68.73-7.39-89.46-1.1-10-1.97-17.88-2.61-23.68-.55-5.38-.75-8.18-.59-8.21Z"/>
  </g>
  <g class="st16">
    <path class="st15" d="M6044.21,5133.3c-.07.22-2.4-.18-6.78-1.16-5.11-1.23-11.41-2.74-19.1-4.59-17.45-4.43-41.11-10.45-69.94-17.77-59.02-15.11-140.61-35.81-230.96-57.66-90.38-21.85-172.41-40.72-231.82-54.26-28.99-6.65-52.79-12.11-70.35-16.15-7.67-1.86-13.98-3.4-19.07-4.65-4.34-1.13-6.6-1.84-6.55-2.05.04-.23,2.39.04,6.82.75,5.17.92,11.55,2.05,19.33,3.42,16.77,3.09,40.96,7.9,70.81,14.09,59.69,12.35,141.95,30.52,232.39,52.37,90.4,21.87,171.86,43.31,230.61,59.59,29.37,8.13,53.08,14.92,69.42,19.83,7.55,2.32,13.76,4.24,18.76,5.79,4.27,1.4,6.48,2.23,6.42,2.45h0Z"/>
  </g>
  <path class="st13" d="M6949.78,3931.81c.6-1.88,35.14,16.59,69.09,66.75,33.36,50.04,64.63,127.69,82.25,217.03,8.7,44.69,13.03,87.91,14.91,127.25.28,19.69.85,38.41.26,55.89-.95,17.47-1.15,33.79-2.7,48.58-1.58,14.64-3.02,27.99-4.3,39.89-1.63,11.68-3.61,21.67-5.05,29.85-3.03,16.32-5.14,25.25-6.04,25.1-.91-.15-.53-9.35.91-25.81.8-8.53,1.72-18.52,2.78-29.93.68-11.85,1.46-25.12,2.3-39.7.94-14.7.59-30.84,1.06-48.12.11-17.29-.87-35.75-1.47-55.17-2.54-38.77-7.18-81.28-15.73-125.26-17.3-87.82-46.74-164.72-77.08-214.47-15.27-24.79-31.18-42.69-42.64-54.24-11.57-11.57-19.12-16.75-18.55-17.64h0Z"/>
  <path class="st13" d="M6368.4,3935.46c1.26,1.13-9.47,14.26-27.02,38.9-17.57,24.62-40.22,62.37-60.2,112.42-20.33,49.95-35.21,112.88-44.7,183.76-9.32,70.94-13.31,150.2-18.5,233.14-4.31,82.77-4.52,162.02-4.63,234.1-.03,72.03-.06,136.94-.1,191.68-.4,54.6-1.4,98.82-3.03,129.34-1.55,30.53-3.37,47.37-4.7,47.34-1.44-.03-2.24-16.93-3.08-47.41-.79-31.08-1.92-75.04-3.32-129.14-1.38-54.52-3.21-119.47-4.19-191.69-.9-72.22-1.26-151.73,3.09-235.3,5.22-83.21,9.74-162.53,20.22-234.59,10.63-71.88,27.34-136.09,49.88-186.62,22.19-50.67,47.28-88.15,67.04-111.72,19.78-23.59,32.48-34.96,33.24-34.21h0Z"/>
  <path class="st13" d="M7228.12,5004.46c-.91,0-1.77-15.04-2.51-42.24-.75-27.2-1.4-66.55-1.92-115.17-.21-24.38-.43-51-.68-79.54-.52-28.52.51-59.36-1.73-90.77-2.38-31.14-10.46-64.26-32.63-89.31-21.65-25.17-54.91-42.2-90.16-42.63-35.29-.63-69.23,14.4-94.21,36.55-25.48,22.07-39.69,52.74-47.63,82.98-7.91,30.42-11.25,60.99-16,89.18-4.46,28.19-8.63,54.48-12.45,78.56-7.71,48.01-14.18,86.83-18.95,113.62-4.76,26.78-7.84,41.53-8.74,41.39-.91-.14.43-15.14,3.62-42.15,3.19-27.01,8.24-66.05,14.76-114.23,3.32-24.14,6.94-50.52,10.84-78.8,4.28-28.24,7.14-58.68,15.04-90.65,7.88-31.56,23.02-65.29,50.82-89.62,27.02-24.17,63.8-40.77,103.13-40.13,39.28.49,76.06,19.52,99.79,47.41,24.65,28.19,32.89,64.64,35,96.91,1.99,32.77.49,63.11.53,91.73-.34,28.54-.66,55.17-.94,79.54-.68,48.63-1.47,87.97-2.31,115.17-.84,27.19-1.73,42.22-2.66,42.22h0Z"/>
  <path class="st13" d="M7104.73,4419.77c-4.14,44.8-18.52,95.01-49.59,127.54,27.13-5.9,55.64-5.36,82.53,1.59-19.39-38.86-22.51-85.7-21.97-129.13"/>
  <path class="st13" d="M7228.61,4710.68c-2.44.43-3.88-21.46-20.3-50.74-8.12-14.52-20.25-30.57-37.16-44.45-16.66-14.01-38.46-25.45-62.92-29.96-24.55-4.16-48.9-.7-69.27,6.92-20.5,7.56-37.22,18.73-49.51,29.93-24.87,22.51-32.96,42.94-35.16,41.76-1.17-.13,3.84-22.63,28.63-48.55,12.23-12.81,29.62-25.72,51.63-34.58,21.84-8.93,48.65-13.24,75.99-8.59,27.27,4.99,51,18.07,68.59,33.73,17.85,15.58,30.01,33.45,37.55,49.45,15.22,32.41,13.12,55.3,11.94,55.08h0Z"/>
  <path class="st11" d="M7570.79,6159.33c76.16-.27,144.19-54.88,180.07-122.05,35.88-67.18,44.94-145.22,48.47-221.29,9.4-201.31-15.48-404.16-73.2-597.23l-333.77,58.28,90.89,898.8,87.53-16.51Z"/>
  <path class="st13" d="M6220.91,6271.26l1086.63-39.6,263.56-1273.34-1144.52,63.58-205.67,1249.36h0Z"/>
  <path class="st18" d="M6780.27,5000.03l16.36-32.47,86.72-6.37s22.01-56.89,145.94-62.69c111.09-5.21,115.64,50.67,115.64,50.67h59.91v27.27l-424.56,23.59h0Z"/>
  <path class="st11" d="M7386.12,5860.92l82.38-24.02c15.51-4.52,31.88-5.24,47.72-2.11,19.33,3.82,37.05,13.18,51.09,27,27.27,26.87,71.21,71.25,77.48,84.47,9.19,19.37,9.22,52.82,0,65.15-9.21,12.32,20.22,75.72,16.54,96.85-3.68,21.15-9.16,42.27-16.54,51.08-7.37,8.81-.02,38.93-18.41,61.73-18.39,22.8-34.94,36.89-34.94,36.89,0,0-226.24,10.57-248.32,0s-60.7-51.07-60.7-51.07c0,0-20.23-36.99,11.04-40.51l-128.78-49.31c-15.45-5.91-24.65-23.17-18.67-38.6,2.05-5.33,5.56-9.95,11.34-12.47,0,0-57.8-18.28-71.17-24.19-26.72-11.78-36.82-73.98,18.47-66.02,29.23,4.2,68.66,12.72,68.66,12.72,0,0-21.07-34.34,8.4-54.77,17.91-12.42,98.51,2.72,98.51,2.72l105.9-75.56h0Z"/>
  <path class="st14" d="M7414.8,6200.5c-.1,1.74-30.76.42-66.9-9.99-36.35-9.97-62.7-26.28-61.66-27.84.89-1.59,27.81,11.65,63.49,21.43,35.48,10.23,65.28,14.48,65.07,16.39h0Z"/>
  <path class="st14" d="M7365.6,6120.1c-.45,1.79-47.48-8.68-105.02-23.37-57.57-14.69-103.85-28.04-103.39-29.82.45-1.78,47.47,8.69,105.02,23.37,57.54,14.69,103.83,28.05,103.38,29.82Z"/>
  <path class="st14" d="M7392.37,6040.04c-.42,1.78-51.04-8.53-113.04-23.03-62.03-14.51-111.97-27.73-111.54-29.51.42-1.79,51.03,8.52,113.06,23.03,62.01,14.5,111.95,27.72,111.53,29.51Z"/>
  <path class="st14" d="M7476.12,5936.97c.2.9-10.92,4.37-29.05,9.25-9.87,2.55-20.53,5.31-31.9,8.24-6.15,1.53-12.47,3.09-18.97,4.69-6.85,1.8-14.29,2.52-21.74,2.08-7.46-.42-14.56-1.87-21.21-3.48-6.51-1.47-12.84-2.92-18.99-4.32-11.44-2.75-22.16-5.31-32.08-7.7-18.22-4.58-29.41-7.86-29.22-8.76.17-.9,11.7.75,30.22,4.16,10.03,1.95,20.88,4.07,32.45,6.32,12.27,2.14,25.56,6.17,39.2,7.13,13.65,1.12,26.3-3.75,38.74-6.04,11.55-2.45,22.37-4.75,32.37-6.88,18.47-3.73,29.97-5.57,30.18-4.68h0Z"/>
  <path class="st14" d="M7490.65,5980.31c.69-.47,3.75,2.31,6.24,8.38,2.49,5.95,3.94,15.48.87,25.27-3.09,9.8-9.69,16.78-15.14,20.26-5.51,3.56-9.61,4.09-9.9,3.32-1.01-1.59,13.41-8.7,18.68-25.58,5.3-16.87-2.47-30.93-.75-31.66Z"/>
  <path class="st14" d="M7485.93,6067.73c1.6-.75,6.73,8.36,5.99,20.77-.65,12.41-6.75,20.89-8.26,19.98-1.72-.84,1.09-9.5,1.61-20.35.69-10.83-1.14-19.75.66-20.4Z"/>
  <path class="st14" d="M7487.27,6162.68c1.67-.63,5.09,5.52,3.47,13.53-1.59,8.04-7.1,12.41-8.41,11.18-1.47-1.19.71-6.22,1.87-12.48,1.33-6.22,1.26-11.7,3.07-12.23Z"/>
  <path class="st14" d="M7511.91,5931.75c-.17.9-8.48.41-21.75-1.11-7.58-.98-15.29-1.99-23.25-3.02-8.87-1.4-17.95-2.8-27.69-1.35-8.86,1.27-17.57,6.66-24.61,11.06-7.08,4.79-13.26,10.06-19.21,13.57-11.95,7.18-20.76,7.79-20.85,7.14-.36-1.1,7.76-3.36,18.23-11.06,10.38-7.33,23.31-22.67,45.59-27.31,5.34-.66,10.46-.75,15.53-.36,5.21.52,9.47,1.53,13.92,2.25,7.92,1.52,15.6,2.99,23.13,4.43,13.13,2.73,21.14,4.86,20.97,5.77Z"/>
  <path class="st14" d="M7642.63,6163.59c-.47-.22,1.92-5.9,5.78-16.26,3.62-10.33,9.34-25.63,9.09-45.1-.04-9.69-1.93-20.26-4.84-31.39-2.64-11.25-7.8-22.44-10.68-35.9-3.29-13.78.96-28.33,2.78-41.79,1.87-13.59-1.1-27.84-7.37-41.14-6.24-13.35-14.88-25.24-23.55-36.43-8.8-11.16-17.42-21.96-25.99-31.7-17.07-19.56-35.47-34.53-53.51-41.86-17.96-7.59-34.25-8.35-44.97-6.81-10.85,1.44-16.41,4.37-16.67,3.74-.1-.21,1.24-1,3.88-2.34,2.69-1.22,6.81-2.84,12.35-3.94,10.99-2.4,28.13-2.38,47.15,4.99,19.18,7.1,38.69,22.43,56.33,42.13,8.9,9.86,17.58,20.55,26.56,31.77,8.87,11.3,17.82,23.5,24.45,37.66,6.67,14.02,9.97,29.9,7.81,44.75-2.13,14.6-6.05,27.48-3.23,39.83,2.43,12.3,7.52,24.13,10,35.68,2.76,11.5,4.46,22.58,4.2,32.75-.39,20.53-7.02,35.94-11.4,46.08-4.64,10.17-7.8,15.46-8.18,15.28h0Z"/>
  <path class="st11" d="M6881.95,5533.72l-892.22,141.71,39.63-465.65-496.18-95.88-60.34,689.42-10.45,158.02c-7.08,107.06,41.98,210.1,129.54,272.11,79.59,56.36,181.14,71.76,273.86,41.54l191.71-62.48,935.04-332.64"/>
  <path class="st11" d="M7421.8,5437.7c3.58-15.41-9.62-29.75-25.45-29.81-50.3-.2-186.07.56-234.04,14.17-59.34,16.83-280.36,111.66-280.36,111.66l93.68,345.98,339.28,3.6s123.93-56.97,125.47-81.6c.8-12.61-3.07-46.19-3.07-46.19l37.38-20.04c55.75-35.38,20.02-103.23,20.02-103.23,0,0,38.35-21.51,40.39-60.38,2.16-41-29.94-57.21-29.94-57.21,0,0,15.38-54.71-13.2-69.44-28.57-14.73-76.92,4.2-76.92,4.2,3.36-2.62,5.61-6.83,6.75-11.71Z"/>
  <path class="st14" d="M7441.3,5443.39c.11.45-3.59,1.72-10.42,3.65-6.81,1.92-16.84,4.16-29.3,6.29-24.92,4.46-59.63,8.2-97.81,12.3-38.19,4.12-72.61,8.76-96.89,14.76-24.41,5.71-38.05,13.28-38.62,12.28-.23-.4,3.06-2.51,9.29-6.02,6.34-3.25,15.92-7.17,28.11-10.81,24.4-7.28,59.11-12.7,97.39-16.84,38.29-4.11,72.92-7.1,97.85-10.33,24.93-3.07,40.16-6.29,40.42-5.28h0Z"/>
  <path class="st14" d="M7505.11,5512.63c.36.74-8.44,6.05-23.8,12.21-15.32,6.22-37.26,12.81-61.85,17.99-24.61,5.18-47.08,8.45-63.36,10.57-16.27,2.09-26.4,2.99-26.56,2.08-.4-2.15,39.69-9.27,88.54-19.17,24.39-5.13,46.15-10.91,61.65-15.92,15.53-4.92,24.95-8.68,25.39-7.76h0Z"/>
  <path class="st14" d="M7495.46,5632.84c.63,1.6-31.15,15.37-72.68,24.69-41.52,9.48-76.12,10.75-76.22,9.03-.18-1.95,33.76-6.16,74.75-15.53,41.02-9.21,73.47-20.04,74.15-18.2h0Z"/>
  <path class="st14" d="M7474.69,5735.46c.67,1.61-23.7,12.84-55.76,20.53-32.03,7.79-58.84,8.91-58.99,7.17-.2-1.92,25.9-5.96,57.43-13.65,31.56-7.56,56.64-15.86,57.32-14.05Z"/>
  <path class="st14" d="M7297.78,5674.1c.26.78-3.48,3.04-10.35,3.68-6.76.68-16.82-.83-25.65-7.1-8.83-6.28-13.58-15.27-15.16-21.87-1.66-6.71-.76-10.98.06-10.98,1.79-.46,3.68,16.57,18.96,27.43,15.28,10.85,31.99,7.01,32.15,8.85h0Z"/>
  <path class="st14" d="M7290.68,5781.3c.29,1.79-13.26,2.63-24.86-7.81-11.7-10.32-12.42-23.88-10.6-23.8,1.87-.42,5.17,10.26,15.04,18.83,9.62,8.82,20.61,10.87,20.42,12.78h0Z"/>
  <path class="st14" d="M7251.38,5563.55c.73,1.77-8.67,4.73-17.32-1.86-8.71-6.53-8.43-16.38-6.52-16.16,1.86-.22,4.14,6.22,10.53,10.85,6.19,4.88,13,5.32,13.31,7.17h0Z"/>
  <path class="st14" d="M6881.95,5533.72c-.03-.1.86-.58,2.66-1.45,2.1-.98,4.76-2.22,8.05-3.75,7.56-3.34,18.06-7.98,31.48-13.91,27.51-11.98,67.66-29.2,118.32-49.99,25.37-10.34,53.3-21.66,83.9-33.01,15.38-5.38,31.11-11.89,48.7-15.12,17.35-3.29,35.36-5.12,53.91-6.66,37.11-2.88,76.37-4.16,117.41-4.78,10.26-.09,20.63-.17,31.12-.26l15.8-.03c5.15-.18,11.8.55,16.88,3.49,10.5,5.39,18.02,17.89,14.51,30.83-1.28,2.81-2.67,3.38-3.93,4.43-1.28.91-2.55,1.66-3.82,2.35-2.56,1.39-5.12,2.53-7.72,3.62-5.24,2.17-10.35,4.07-16.12,5.57-1.72.45-3.48-.58-3.93-2.31-.45-1.7.59-3.45,2.27-3.93,13.79-3.95,27.79-7.19,42.3-9.43,14.46-2.17,29.39-3.72,44.74-1.57,7.54,1.25,15.71,3.59,21.92,9.5,6.15,5.82,9.33,13.8,10.85,21.54,2.86,15.75.87,31.34-2.86,46.68l-1.71-3.88c7.28,4.06,13.5,9.74,18.78,16.56,13.24,17.22,16.3,40.55,9.76,60.51-6.81,20.13-21.63,35.67-38.88,46.36l1.3-4.4c8.8,18.61,13.38,38.88,10.77,59.08-2.31,20.37-15.6,38.09-31.98,48.39l-.21.11c-12.68,6.78-25.13,13.44-37.41,20l1.63-3.11c.98,8.96,1.82,17.81,2.45,26.65.3,4.41.55,8.83.65,13.27.04,2.22.03,4.46-.09,6.77-.37,2.91-1.45,5.43-2.78,7.4-5.41,7.98-12.45,13.14-19.27,18.37-6.93,5.07-14.02,9.66-21.13,14-28.52,17.24-56.93,31.35-84.22,44.12-.37.16-.77.24-1.15.24-102.74-1.58-187.42-2.87-246.91-3.78-29.19-.62-52.17-1.11-68.32-1.46-7.53-.24-13.47-.44-17.89-.58-4.05-.18-6.13-.34-6.12-.48,0-.14,2.07-.26,6.13-.35,4.43-.05,10.36-.12,17.9-.21,16.15,0,39.14,0,68.33,0,59.49.36,144.19.85,246.94,1.46l-1.16.25c27-12.82,55.3-27.08,83.38-44.22,7-4.33,13.96-8.86,20.65-13.81,6.55-4.96,13.43-10.35,17.68-16.77,1.09-1.59,1.6-3.18,1.84-4.57.09-2.03.1-4.13.05-6.26-.1-4.27-.36-8.61-.68-12.97-.65-8.7-1.51-17.52-2.51-26.37-.15-1.31.54-2.52,1.63-3.11,12.27-6.61,24.71-13.3,37.36-20.1l-.2.12c15.15-9.7,26.83-25.34,28.97-43.91,2.44-18.3-2-37.95-10.15-55.1-.76-1.6-.17-3.49,1.3-4.41,15.71-9.73,29.86-24.66,35.79-42.67,5.88-17.89,3.09-39.2-8.74-54.41-4.59-6.04-10.66-11.41-16.48-14.64-1.4-.77-2.06-2.4-1.71-3.88,3.51-14.26,5.38-29.6,2.77-43.6-1.36-6.94-4.12-13.52-8.9-18.03-4.69-4.53-11.45-6.63-18.36-7.79-14.05-2.01-28.64-.61-42.73,1.52-14.12,2.15-28.07,5.36-41.43,9.15l-1.66-6.23c4.94-1.28,10.21-3.17,15.09-5.2,2.45-1.03,4.89-2.12,7.14-3.33,2.24-.88,4.4-3.35,5.29-3.12,0-4.27.26-9.33-2.15-13.43-2.1-4.18-5.63-7.69-9.81-9.86-4.31-2.37-8.59-2.93-13.95-2.81l-15.77-.03c-10.46.06-20.81.11-31.05.16-40.95.46-80.13,1.57-117.05,4.24-18.44,1.42-36.35,3.15-53.34,6.27-16.89,2.96-32.68,9.31-48.01,14.57-30.57,11.08-58.59,22.14-84.03,32.21-50.42,20.43-90.8,36.78-119.01,48.21-13.59,5.51-24.23,9.83-31.88,12.93l-8.29,3.23c-1.88.69-2.85,1.01-2.89.92h0Z"/>
  <path class="st14" d="M5993.33,5674.6c1.19,1.85-35.2,19.39-65.97,56.86-31.27,37.06-41.89,76.03-43.93,75.2-.74-.19.86-10.11,6.65-25.23,5.74-15.09,16.32-35.15,32.16-54.24,15.9-19.04,33.69-33.08,47.49-41.48,13.82-8.44,23.28-11.82,23.6-11.11h0Z"/>
  <path class="st11" d="M7158.39,2915.79c-18.4-234.16-213.54-414.89-448.42-415.37l-23.34-.04c-251.69,14.18-380.25,235.85-359.1,487.05l43.42,1007.05c.72,16.9,10.79,32.01,26.1,39.19l564.85,265.08-17.45-528.51s242.01-37.12,245.49-279c1.68-116.82-14.43-357.64-31.54-575.43h0Z"/>
  <path class="st14" d="M6946.44,3769.87s-154.49,8.99-316.75-93.4c0,0,74.18,174.23,315.59,152.93l1.16-59.53h0Z"/>
  <path class="st13" d="M7072.62,3066c.62,18.24-14.33,33.8-33.38,34.78-19,.98-34.93-12.97-35.54-31.22-.61-18.23,14.33-33.81,33.34-34.8,19.04-.98,34.97,13,35.57,31.24h0Z"/>
  <path class="st13" d="M7106.14,3034.03c-4.28,4.5-30.4-14.93-67.58-14.89-37.13-.52-64.46,18.55-68.47,13.99-1.98-2.02,2.4-10.15,14.3-18.77,11.71-8.58,31.67-16.92,54.83-16.77,23.15.16,42.61,8.73,53.79,17.48,11.41,8.8,15.27,16.95,13.14,18.96Z"/>
  <path class="st13" d="M6707.22,3077.29c.62,18.24-14.34,33.8-33.38,34.78-19,.98-34.93-12.96-35.54-31.22-.6-18.23,14.34-33.81,33.35-34.8,19.04-.98,34.96,13,35.56,31.24h0Z"/>
  <path class="st13" d="M6740.76,3040.22c-4.3,4.49-30.47-14.92-67.61-14.9-37.12-.51-64.45,18.56-68.47,13.99-1.97-2.02,2.37-10.13,14.31-18.76,11.71-8.59,31.67-16.91,54.82-16.78,23.16.18,42.62,8.74,53.8,17.49,11.37,8.8,15.25,16.96,13.15,18.97h0Z"/>
  <path class="st13" d="M6875.09,3316.15c-.16-2.11,22.95-6.06,60.39-10.77,9.49-.96,18.48-2.83,20.09-9.3,2.25-6.85-1.69-17.09-6.27-28.14-8.88-22.99-18.16-47.09-27.93-72.33-38.77-103-66.81-187.66-62.66-189.18,4.17-1.53,38.97,80.71,77.73,183.69,9.34,25.39,18.25,49.59,26.74,72.76,3.57,10.79,9.74,23.04,4.85,37.26-2.57,7.07-9.54,12.22-15.62,13.84-6.09,1.85-11.44,1.94-16.13,2.21-37.69,1.95-61.05,2.07-61.19-.04h0Z"/>
  <path class="st13" d="M6765.65,3341.64c6.04-.34,6.03,40.01,40.51,68.72,34.43,28.8,77.44,24.35,77.74,30,.55,2.53-9.6,7.81-27.75,8.28-17.8.57-43.79-5.21-64.89-22.77-21.03-17.6-30.04-41.05-31.38-57.61-1.51-16.86,3.02-26.86,5.78-26.62h0Z"/>
  <path class="st13" d="M6750.66,2894.57c-3.69,10.1-40.79,5.23-84.41,10.39-43.73,4.29-78.93,16.98-84.69,7.92-2.57-4.34,3.58-13.85,17.82-23.6,14.11-9.74,36.61-18.97,62.8-21.84,26.18-2.8,50.15,1.4,66.01,7.89,16,6.48,24.04,14.43,22.46,19.24h0Z"/>
  <path class="st13" d="M7092.71,2926.43c-6.56,8.43-32.15-.39-62.94-.86-30.76-1.56-56.87,5.55-62.85-3.29-2.64-4.29,1.49-12.74,12.9-20.71,11.24-7.94,30.03-14.41,51.19-13.72,21.15.72,39.46,8.4,50.17,17.07,10.85,8.7,14.41,17.41,11.52,21.52h0Z"/>
  <path class="st11" d="M6363.71,3166.57c-4.12-1.79-166.09-49.5-161.15,115.87,4.95,165.37,169.96,126.3,170.1,121.55.15-4.75-8.95-237.42-8.95-237.42h0Z"/>
  <path class="st14" d="M6334.82,3342.86c-.75-.5-2.83,2.11-7.63,4.48-4.68,2.31-12.81,4.06-21.53,1.08-17.65-5.9-33.2-33.19-34.9-62.97-.87-15.04,1.86-29.47,6.84-41.48,4.68-12.26,12.26-20.95,21.01-22.77,8.7-2.29,15.08,2.79,17.24,7.39,2.36,4.56,1.4,7.89,2.29,8.15.49.4,3.48-2.88,1.93-9.67-.78-3.26-2.84-7.11-6.81-10.16-4.07-3.11-9.94-4.59-16.06-3.74-12.73,1.27-23.86,13.33-29.34,26.53-6.16,13.29-9.59,29.51-8.6,46.4,2.05,33.29,20.04,63.97,44.16,70.16,11.72,2.69,21.32-1.12,26.22-5.17,5-4.25,5.76-7.96,5.18-8.24h0Z"/>
  <path class="st13" d="M6472.11,2674.98l689.62,15.2c-21.44-47.57-59.73-85.66-101.31-117.19-89.63-67.96-199.79-110.41-312.26-112.39-112.47-1.96-341.41,135.02-422.89,212.58-65.2,62.06-64.78,115.76-64.78,115.76-10.35,89.4,39.69,191.05,59.58,278.83,10.27,45.28,30.08,182.25,30.08,182.25h.02c38-.13,52.11-30.37,46.34-67.93l-7.12-147.38s129.24-91.84,68.01-259.93c-9.85-13.38-30.8-74.78,14.7-99.81h0Z"/>
  <path class="st14" d="M6616.93,3198c-2.22.43-4.41-1.18-4.89-3.62-.48-2.42.93-4.75,3.15-5.18,2.22-.44,4.41,1.17,4.89,3.61.49,2.42-.93,4.75-3.15,5.19Z"/>
  <path class="st14" d="M6687.98,3182.03c-2.22.44-4.46-1.47-5.02-4.25-.55-2.79.81-5.4,3.03-5.84,2.23-.43,4.47,1.47,5.02,4.25.55,2.78-.81,5.41-3.03,5.84Z"/>
  <path class="st14" d="M6735.81,3180.95c-2.25.28-4.44-2.47-4.9-6.16-.45-3.67,1.01-6.87,3.25-7.14,2.24-.29,4.44,2.47,4.89,6.15.45,3.67-1,6.88-3.24,7.15Z"/>
  <path class="st14" d="M6651.75,3242.64c-2.26,0-4.09-1.18-4.09-2.64s1.84-2.61,4.1-2.61c2.26,0,4.1,1.19,4.09,2.63,0,1.46-1.84,2.63-4.1,2.62Z"/>
  <path class="st14" d="M6716.92,3227.66c-2.26.19-4.26-1.73-4.47-4.28-.22-2.57,1.43-4.8,3.68-4.99,2.25-.18,4.26,1.73,4.48,4.3.22,2.56-1.44,4.79-3.69,4.98Z"/>
  <path class="st14" d="M7055.97,3187.89c-2.22.44-4.42-1.23-4.92-3.75-.5-2.51.89-4.89,3.12-5.33,2.22-.43,4.42,1.23,4.92,3.74.49,2.51-.9,4.9-3.12,5.34Z"/>
  <path class="st14" d="M7104.37,3183.57c-2.25.22-4.3-1.91-4.57-4.75-.28-2.84,1.33-5.32,3.58-5.54,2.25-.22,4.31,1.92,4.57,4.75.28,2.85-1.33,5.32-3.58,5.54Z"/>
  <path class="st14" d="M7013.22,3189c-2.22.45-4.33-.78-4.72-2.73-.39-1.95,1.1-3.88,3.32-4.33,2.21-.43,4.33.79,4.72,2.73.38,1.95-1.1,3.89-3.32,4.33Z"/>
  <path class="st14" d="M7049,3237.48c-2.07.91-4.6-.29-5.65-2.69-1.05-2.4-.23-5.09,1.84-5.99,2.08-.91,4.61.29,5.66,2.69,1.06,2.39.23,5.08-1.85,5.99Z"/>
  <path class="st14" d="M7090.35,3229.31c-2.18-.61-3.54-2.57-3.03-4.41.5-1.83,2.69-2.84,4.87-2.24,2.18.61,3.54,2.57,3.03,4.41-.5,1.84-2.68,2.84-4.86,2.24h0Z"/>
  <path class="st13" d="M6320.74,2682.61c-17.62-60.4-.07-127.68,38.7-177.22,38.78-49.55,102.13-78.82,164.99-76.25,32.21,1.32,64.22,10.45,96.26,6.94,59.66-6.52,105.68-54.35,161.01-77.59,86.23-36.2,195.91-3.3,247.97,74.39,20.97,31.32,34.75,70.02,66.89,89.74,27.79,17.06,62.8,15.64,94.02,25.04,63.13,19.02,106.39,86.05,103.1,151.9-3.28,65.86-49.43,126.14-110.1,151.95-60.69,25.81-132.97,18.61-190.59-13.46-52.03-28.95-98.63-78.33-158.14-76.59-61.66,1.79-115.52,59.93-176.02,47.87-31.7-6.31-56.14-30.73-79.36-53.24-23.21-22.5-49.93-45.42-82.21-47.33-32.29-1.9-49.1,42.46-37.55,72.65l-138.99-98.83Z"/>
  <path class="st18" d="M7148.34,2602.64c.1.05-.28.87-1.11,2.41-.83,1.53-2.05,3.86-4.01,6.67-3.75,5.7-9.95,13.81-19.76,22.45-9.77,8.61-23.36,17.66-41.01,23.75-17.54,6.08-39.49,8.7-62.58,3.73-22.95-4.79-47.21-16.85-65.99-37.54-18.85-20.69-30.02-48.36-47.56-72.67-8.76-12.15-19.7-23.1-33.4-30.21-13.76-6.95-29.63-10.34-45.72-10.06-16.1.39-32.38,4.73-46.94,12.64-14.52,8.16-26.5,20.38-34.6,35.59-8.32,15.15-14.29,31.78-24.31,46.52-9.57,14.94-26.32,26.17-44.15,26.88-17.76.99-34.18-5.63-48.13-13.91-14.18-8.28-25.93-19.47-36.61-30.31-21.27-21.48-42.27-42.91-68.39-48.7-25.83-6.15-51.13,3.36-69.25,16.27-18.5,13.24-30.4,30.77-38.06,47.11-7.66,16.46-11.66,31.77-14.22,44.34-2.56,12.6-3.75,22.56-4.57,29.29-.81,6.75-1.2,10.31-1.46,10.29-.11,0-.16-.91-.16-2.66.02-1.74.05-4.34.27-7.74.39-6.8,1.18-16.85,3.37-29.65,2.18-12.77,5.86-28.4,13.39-45.41,7.47-16.86,19.54-35.31,38.66-49.37,18.72-13.68,45.25-24.19,73.27-17.84,28.26,6.11,50.2,28.56,71.46,49.74,10.79,10.79,22,21.34,35.55,29.2,13.32,7.85,28.74,13.81,44.46,12.84,15.76-.76,30.11-10.24,39.12-24.11,9.35-13.75,15.32-30.22,23.93-45.98,8.44-15.95,21.72-29.6,37.2-38.16,15.59-8.47,32.9-13.01,50.02-13.39,17.11-.25,34.05,3.4,48.81,10.95,14.78,7.72,26.47,19.64,35.42,32.25,17.99,25.35,28.83,52.7,46.72,72.59,17.69,19.85,40.84,31.71,62.87,36.61,22.17,5.07,43.29,2.9,60.41-2.66,17.22-5.57,30.68-14.05,40.5-22.19,19.65-16.58,25.81-30.16,26.56-29.56h0Z"/>
  <path class="st18" d="M7273.32,2605.1c.3-.06,1.94,4.55,2.81,13.3.88,8.71.56,21.65-3.48,36.94-4.15,15.2-12.28,32.66-25.85,48.68-13.51,16.06-32.51,29.99-54.54,39.7-44.59,19.54-89.83,17.78-120.29,13.59-15.43-2.19-27.73-4.98-36.13-7.2-8.39-2.22-12.93-3.86-12.82-4.27.24-1.12,18.91,3.54,49.5,6.8,30.26,2.95,74.18,3.81,117.06-15.02,21.2-9.35,39.46-22.51,52.56-37.6,13.2-15.06,21.43-31.55,25.98-45.99,9.03-29.36,3.72-48.93,5.2-48.92Z"/>
  <path class="st0" d="M6096.45,5269.44c2.32,27.57,14.18,52.44,28.97,71.66,14.78,19.22,44.86,38.03,69.07,36.66,0,0,60.41,5.16,92.93-46.63,29.46-46.91,36.72-144.46,13.1-202.14-16.25-39.66-52.75-76.54-95.59-77.55-56.25-1.33-91.53,39.33-103.54,80.46"/>
  <path class="st13" d="M6101.37,5131.9s1.27-10.72,10.41-27.58c4.59-8.36,11.22-18.21,21.11-27.67,9.77-9.51,23.21-18.33,39.83-23.38,8.29-2.44,17.3-4.14,26.75-4.27,9.4-.48,19.53.63,29.27,3.85,19.61,6.32,37.78,19.84,52.23,37.45,14.63,17.53,25.4,39.77,30.7,63.95,5.48,24.13,7.14,49.76,5.71,75.78-2.59,40.05-10.46,79.89-32.63,110.36-11.21,14.91-26.54,25.71-42.45,32-16.02,6.36-32.35,8.81-48.05,8.09h.37c-12.88.5-24.41-3.68-34.44-8.53-10-5.09-18.64-11.31-25.9-18.07-14.51-13.87-22.48-29.32-28.21-42.04-5.54-12.89-7.86-23.71-8.94-31.05-.5-3.68-.76-6.51-.8-8.43-.07-1.92-.04-2.9.1-2.91.97-.23.94,16.06,12.48,41.12,5.95,12.18,14.36,27.27,28.34,40.06,7.09,6.35,15.52,12.18,25.12,16.86,9.59,4.48,20.57,8.17,31.95,7.55h.39c28.83,1.02,63.85-10.08,84.99-38.49,20.64-28.52,28.58-67.71,31.04-106.89,2.74-50.59-5.74-101.56-34.53-135.48-13.72-16.98-30.89-29.95-49.19-36.07-9.15-3.13-18.41-4.28-27.42-3.96-9.03,0-17.62,1.48-25.56,3.65-15.89,4.53-28.93,12.65-38.61,21.6-9.79,8.88-16.57,18.23-21.4,26.22-9.66,16.12-11.92,26.58-12.67,26.3h0Z"/>
  <path class="st0" d="M6066.51,5271.97c2.33,27.57,14.18,52.44,28.97,71.66,14.77,19.22,44.85,38.03,69.06,36.65,0,0,60.41,5.16,92.93-46.63,29.46-46.9,36.72-144.45,13.11-202.13-16.25-39.67-52.75-76.54-95.6-77.56-56.25-1.33-91.53,39.33-103.54,80.47"/>
  <path class="st13" d="M6071.44,5134.44s1.26-10.72,10.4-27.59c4.59-8.36,11.23-18.2,21.11-27.67,9.77-9.53,23.21-18.34,39.82-23.38,8.3-2.44,17.3-4.14,26.75-4.28,9.4-.48,19.53.63,29.27,3.85,19.62,6.32,37.77,19.85,52.23,37.45,14.63,17.52,25.4,39.78,30.71,63.95,5.47,24.12,7.14,49.75,5.71,75.77-2.61,40.05-10.47,79.9-32.63,110.36-11.22,14.93-26.55,25.71-42.46,32.01-16.01,6.36-32.35,8.81-48.06,8.08h.39c-12.89.51-24.42-3.68-34.44-8.53-10-5.07-18.64-11.31-25.91-18.06-14.5-13.87-22.47-29.32-28.21-42.04-5.53-12.9-7.86-23.71-8.93-31.05-.49-3.69-.76-6.52-.8-8.44-.07-1.91-.03-2.9.1-2.91.97-.23.94,16.06,12.48,41.12,5.95,12.18,14.36,27.27,28.34,40.06,7.09,6.34,15.52,12.18,25.12,16.86,9.59,4.49,20.57,8.17,31.95,7.55h.38c28.83,1.01,63.86-10.1,85.01-38.51,20.63-28.52,28.58-67.7,31.03-106.87,2.74-50.6-5.74-101.57-34.53-135.49-13.72-16.98-30.9-29.95-49.2-36.08-9.13-3.13-18.41-4.27-27.41-3.96-9.03,0-17.62,1.48-25.55,3.66-15.91,4.54-28.95,12.65-38.61,21.6-9.79,8.89-16.58,18.24-21.4,26.23-9.65,16.11-11.91,26.56-12.66,26.3h0Z"/>
  <path class="st0" d="M6120.79,5120.04c-27.97-5.57-56.85,13.64-68.68,39.58-11.83,25.94-9.2,56.52.16,83.45,4.76,13.71,11.33,27.04,21.28,37.59,9.97,10.55,23.65,18.11,38.16,18.55,21.28.64,40.41-13.88,52.8-31.2,19.97-27.93,26.76-64.88,18.02-98.09-5.83-22.18-22.14-44.9-45.07-45.51"/>
  <path class="st13" d="M6137.47,5124.42c0-.19,1.74-.41,5.09-.14,3.32.33,8.27,1.51,13.87,4.7,11.22,6.22,24.03,21.62,29.23,44.01,5.44,21.99,4.81,50.63-7.88,78.28-6.37,13.64-15.47,27.26-28.67,37.64-12.77,10.39-31.47,17.05-49.34,11.81-17.65-4.94-31.08-18.05-39.43-32.22-8.46-14.32-13.33-29.46-16.42-44.18-6.16-29.43-1.16-58.57,12.77-77.25,13.69-18.8,32.14-26.72,44.61-28.36,6.32-1.02,11.31-.45,14.58-.04,3.28.69,4.93,1.16,4.9,1.38-.07.77-7.01-1.3-19.03,1.21-11.76,2.32-28.86,10.53-41.22,28.53-12.48,17.7-16.81,45.15-10.6,73.29,3.09,14.04,8.01,28.73,15.99,42.03,7.87,13.2,20.14,24.84,35.62,29.18,15.45,4.52,31.63-1.04,43.57-10.54,12.19-9.44,20.92-22.19,27.11-35.09,12.35-26.09,13.51-53.42,8.86-74.62-4.38-21.41-15.9-36.39-26.02-42.85-10.26-6.67-17.77-5.99-17.59-6.77h0Z"/>
  <path class="st13" d="M6185.29,5330.26c-1.01.25-2.42-4.03-6.8-9.17-4.28-5.15-11.99-10.91-21.83-13.99-9.94-3.08-19.73-3.59-26.84-4.16-7.15-.52-11.67-1.11-11.7-2.05-.02-.9,4.37-1.98,11.65-2.66,7.23-.62,17.69-.93,28.88,2.51,11.26,3.51,19.8,10.92,23.67,17.63,4,6.75,3.73,11.81,2.96,11.9h0Z"/>
  <path class="st13" d="M6195.32,5102.62c.59.58-1.97,4.58-7.92,9.29-5.9,4.7-15.48,9.68-26.96,11.77-11.48,2.05-22.2.75-29.37-1.6-7.22-2.33-11.01-5.18-10.67-5.92.69-1.85,17.7,5.04,38.87.97,21.25-3.59,34.77-16,36.06-14.5Z"/>
  <path class="st13" d="M2671.92,2865.97c1.6-55.7-49.94-98.75-101.78-119.16-51.86-20.4-109.5-28.09-155.73-59.21-40.93-27.55-68.45-70.52-103.09-105.65-85.01-86.17-217.72-121.9-334.5-90.03-116.76,31.85-212.95,130.03-242.42,247.42-19.91,79.34-6.31,173.13,56.21,225.85,72.58,61.18,180.19,47.6,273.18,28.57,93.01-19.03,198.26-37.81,275.91,16.8,46.83,32.94,73.66,86.51,102.29,136.1s64.55,100.2,118.69,118.84c54.13,18.63,127.63-13.55,129.74-70.76"/>
  <path class="st13" d="M2668.17,2896.55c-6.13,46.7,27.66,88.49,61.3,121.46,33.63,32.96,71.63,67.92,77.57,114.64,6.93,54.57-32.91,108.31-21.34,162.09,7.33,34.13,33.88,60.44,49.99,91.41,22.6,43.51,23.77,96.13,9.91,143.15s-35.95,152.03-68.65,188.57c-90.39,101.05-234.31,188.26-366.44,218.62-132.13,30.36-269.38,30.53-404.71,22.21-110.78-6.81-238.17-1.73-330.49-154.13-47.81-78.94-71.5-183.88-96.91-272.6-21.88-76.4-40.81-158.2-18.07-234.33,13.26-44.36,39.95-83.8,53.01-128.21,16.33-55.49,10.39-114.83,16.95-172.28,14.23-124.41,91.43-239.96,200.9-300.73,109.49-60.75,248.4-65.13,361.48-11.38"/>
  <path class="st11" d="M1683.29,3087.98c10.37-158.97,116.15-353.81,274.53-336.71l494.42,126.13c48.12,5.2,84.26,46.35,83.19,94.73l-55.58,1192.78c1.18.27,2.25.49,3.43.75,0,0-112.7,336.44-439.63,233.66-64.83-20.37-94.42-91.28-107.28-164.22l-3.35.43c-.12-8.66-.23-16.71-.34-24.99-10.79-84.17-1.95-163.79-1.95-163.79-.92-96.3-.81-135.79-.88-134.9,0,0-203.06-34.18-244.55-299.3-20.64-131.84-13.54-347.93-2.02-524.56h0Z"/>
  <path class="st13" d="M1762.92,3247.71c-.68,17.95,13.97,33.32,32.7,34.37,18.68,1.05,34.43-12.61,35.1-30.57.67-17.95-13.98-33.33-32.66-34.38-18.74-1.06-34.48,12.63-35.15,30.58h0Z"/>
  <path class="st13" d="M1729.92,3200.51c4.2,4.45,30-14.55,66.57-14.37,36.53-.36,63.34,18.53,67.32,14.05,1.95-1.97-2.32-9.98-13.99-18.52-11.48-8.5-31.09-16.78-53.87-16.74-22.79.09-41.97,8.43-53,16.98-11.27,8.6-15.09,16.61-13.03,18.6h0Z"/>
  <path class="st13" d="M2122.44,3247.72c-.68,17.94,13.96,33.31,32.69,34.36,18.69,1.04,34.43-12.61,35.1-30.57.67-17.95-13.98-33.33-32.67-34.38-18.73-1.06-34.46,12.63-35.13,30.59Z"/>
  <path class="st13" d="M2089.42,3208.14c4.21,4.44,30.03-14.56,66.59-14.37,36.53-.36,63.33,18.53,67.31,14.05,1.94-1.98-2.29-9.99-13.99-18.53-11.5-8.51-31.09-16.78-53.88-16.73-22.78.07-41.95,8.42-53,16.98-11.24,8.6-15.09,16.62-13.03,18.61h0Z"/>
  <path class="st13" d="M1956.09,3479.07c.17-2.07-22.55-6.05-59.38-10.84-9.35-.99-18.18-2.87-19.74-9.24-2.18-6.75,1.73-16.8,6.29-27.66,8.83-22.58,18.08-46.25,27.79-71.06,38.57-101.18,66.53-184.37,62.44-185.88-4.08-1.53-38.69,79.25-77.26,180.42-9.28,24.94-18.17,48.73-26.62,71.48-3.55,10.6-9.67,22.63-4.92,36.65,2.5,6.98,9.35,12.07,15.33,13.69,5.98,1.84,11.24,1.95,15.86,2.23,37.07,2.09,60.07,2.31,60.22.22h0Z"/>
  <path class="st14" d="M1929.87,3911.84s178.27,11.89,355.15-93.89c0,0-89.65,183.27-354.86,157.88l-.29-63.98h0Z"/>
  <path class="st14" d="M1971.36,3567.27c13.19-17.37,36.27-26.87,59.14-24.35,15.87,1.75,31.89,9.43,41.51,22.38,9.61,12.94,11.58,31.31,2.8,43.6-9.9,13.86-30.53,17.02-47.98,12.02-17.45-5-32.44-16.52-46.69-28-3.94-3.18-7.97-6.49-10.42-10.84-2.46-4.34-2.97-10.02.09-13.61"/>
  <path class="st13" d="M2063.67,3504.62c-5.95-.36-6.11,39.34-40.16,67.44-33.98,28.2-76.29,23.65-76.61,29.19-.55,2.49,9.41,7.74,27.27,8.26,17.52.64,43.11-4.93,63.95-22.12,20.77-17.24,29.74-40.27,31.12-56.56,1.55-16.59-2.86-26.43-5.57-26.22h0Z"/>
  <path class="st13" d="M2073.12,3144.06c3.58,9.95,40.11,5.32,83,10.59,43.02,4.41,77.59,17.05,83.3,8.14,2.56-4.27-3.46-13.63-17.43-23.29-13.85-9.65-35.96-18.83-61.71-21.75-25.76-2.88-49.35,1.15-64.99,7.48-15.78,6.32-23.72,14.11-22.18,18.83h0Z"/>
  <path class="st13" d="M1743.6,3094.69c6.42,8.32,31.64-.24,61.93-.58,30.28-1.4,55.95,5.7,61.88-2.97,2.6-4.21-1.43-12.54-12.62-20.43-11.03-7.85-29.49-14.31-50.32-13.72-20.82.62-38.87,8.1-49.43,16.59-10.72,8.51-14.26,17.06-11.44,21.12h0Z"/>
  <path class="st13" d="M2637.31,3749.36c-72.89,14.69-152.27-7.72-206.73-58.34-54.46-50.62-82.59-128.16-73.24-201.92,8.24-65.09,43.32-131.32,20.76-192.93-29.83-81.45-144.01-106.51-174.31-187.79-17.61-47.25-1.81-102.51-21.77-148.81-18.76-43.54-64.57-68.6-109.16-84.72-44.58-16.13-92.38-27.25-129.81-56.34-37.44-29.1-60.77-84.01-36.63-124.81,197.71,23.69,392.58,71.04,579.14,140.71,43.24,16.15,88.68,35.58,114.26,74.02,27.06,40.67,25.76,93.24,23.49,142.04-11.11,237.97-22.22,475.94-33.32,713.92"/>
  <path class="st18" d="M2620.68,3840.47c.12.16,1.58-.77,4.27-2.74,3.23-2.44,7.09-5.4,11.8-8.97,10.25-8.03,25.31-19.97,43.89-36.37,18.48-16.47,40.74-37.41,62.32-65.58,21.35-27.93,42.33-64.35,49.56-109.09,7.9-43.52,2.11-98.31-34.18-139.45-17.87-20.16-40.81-35.26-61.75-52.65-21.3-17.03-38.99-38.68-48.16-65.7-19.61-54.03-10.87-116.59-18.44-180.52-8.38-63.62-31.12-129.3-75.14-182.62-21.98-26.37-48.36-49.2-78.6-64.23-30.07-15.87-62.66-22.41-92.74-31.3-30.39-8.39-58.25-20.96-81.38-40.11-23.3-18.74-42.36-41.6-59.08-65.14-33.29-47.28-57.91-97.66-89.63-139.68-15.78-20.97-32.93-40.08-52.22-55.44-19.29-15.37-40.45-26.69-61.92-33.73-42.78-14.6-87.94-9.76-117.71,11.74-29.42,22.37-40.18,54.6-41.81,79.34-1.23,25.48,7.39,44.59,15.94,54.58,4.2,5.17,7.94,8.51,10.81,10.35,2.7,2.03,4.11,2.96,4.22,2.8.12-.16-1.07-1.44-3.46-3.72-2.57-2.11-5.95-5.64-9.69-10.86-7.69-10.09-15.14-28.55-13.3-52.84,2.18-23.61,13.39-54.14,41.08-74.35,27.98-19.46,70.62-23.67,111.29-9.22,20.43,6.95,40.61,18.04,58.89,32.91,18.35,14.89,34.86,33.59,50.11,54.2,30.73,41.33,54.87,91.59,88.61,140.11,16.95,24.1,36.48,47.84,60.86,67.61,24.08,20.18,54.32,33.86,85.15,42.39,30.71,9.12,62.37,15.64,90.68,30.66,28.68,14.3,53.8,36.05,74.9,61.34,42.25,51.11,64.52,114.86,72.8,176.62,7.71,61.82-1.24,125.31,19.67,182.79,9.79,28.69,29.7,52.67,51.72,69.9,21.72,17.74,44.21,32.41,61.08,51.2,34.02,37.85,40.39,89.55,33.26,131.68-6.44,43.18-26.14,78.65-46.65,106.52-20.68,28.01-42.25,49.24-60.14,66.12-18.03,16.82-32.61,29.3-42.35,37.91-9.78,8.59-14.83,13.2-14.57,13.52h0Z"/>
  <path class="st13" d="M2669.06,3873.35c54.47-52.66,147.55-6.87,193.26,53.55,45.72,60.43,78.12,138.31,147.53,168.7,69.37,30.37,159.7,4.25,217.96,52.63,80.32,66.73,35.22,221.37,122.05,279.37,34.49,23.04,79.95,22.21,116.81,41.22,86.84,44.77,85.81,167.26,72.38,264.04-18.83,135.81-39.46,276.59-114.41,391.41-74.94,114.8-220.83,195.59-350.59,151.29-124.7-42.58-188.7-177.11-239.41-298.73-70.16-168.24-140.35-336.5-210.53-504.75-40.59-97.33-81.58-196.13-94.8-300.76s4.56-217.62,71.09-299.44"/>
  <path class="st12" d="M2704,3757.31c39.59-4.78,69.8,43.72,59.39,82.22-10.42,38.5-47.38,64.17-85.04,77.34-21.06,7.35-43.8,11.89-65.68,7.59-21.88-4.31-42.72-18.85-49.74-40.02-7.4-22.26-1.7-37.29,18.2-49.72,26.05-16.28,41.32-29.07,61.87-40.41,31.45-17.34,29.56-19.66,61.01-37Z"/>
  <path class="st10" d="M1793.08,4183.78l153.8-116.52,579.34-37.04,23.31,77.69-188.45,1176,148.67,1403.03h-808.27l91.6-2503.16h0Z"/>
  <g class="st16">
    <path d="M2413.45,6189.19c-18.48-19.73-48.79-46.89-75.82-47.48-193.52-4.27-391.21-23.61-584.74-27.87l-15.48,573.37c46.3-81.62,90.1-166.55,102.29-259.59,5.33-40.63,12.15-89.2,49.26-106.61,20.99-9.85,45.57-5.99,68.32-1.5,69.9,13.83,139.35,31.88,210.46,36.31,71.13,4.42,145.56-5.96,205.29-44.81,20.5-13.33,39.48-30.56,49.11-53.04,9.61-22.48,8.02-50.93-8.7-68.78h0Z"/>
  </g>
  <path class="st10" d="M1918.41,4207.49l-17.91-168.16c-3.15-29.61,18.55-56.07,48.22-58.75l533.37-48.19c14.44-1.3,26.99,9.83,27.43,24.33l6.01,200.05-154.44,262.08-158.76,50.52h-194.11l-111.66-119.23,21.86-142.65h0Z"/>
  <path class="st13" d="M2436.79,4092.62c-.1.55-7.64-.79-21.33-2.18-13.68-1.33-33.6-2.43-58.13-.99-24.53,1.41-53.56,5.47-85.39,12.29-31.86,6.68-66.48,16.07-103.16,24.99-36.67,8.89-72.15,16.16-105.02,18.69-32.82,2.65-62.86.29-87.06-5.88-24.3-5.93-42.59-15.17-54.33-22.58-5.84-3.77-10.17-7.01-12.97-9.36-2.78-2.38-4.17-3.71-4.03-3.89.36-.46,6.38,4.28,18.33,11.03,11.96,6.62,30.15,15.01,54.09,20.23,23.83,5.45,53.2,7.29,85.47,4.35,32.31-2.83,67.4-10.18,103.97-19.06,36.55-8.89,71.33-18.13,103.48-24.53,32.12-6.55,61.56-10.18,86.41-10.98,24.85-.86,44.97.99,58.68,3.11,6.84,1.13,12.14,2.15,15.67,3.08,3.55.89,5.38,1.46,5.33,1.68h0Z"/>
  <g class="st16">
    <path d="M1931.13,4119.04c-14.27,39.27-14.68,87.88,14.29,117.99,23.62,24.53,61.55,30.66,94.93,24,33.4-6.67,63.45-24.22,92.71-41.64,73.42-43.7,148.04-88.94,231.45-107.47,5.35-1.2,11.05-2.44,14.98-6.25,3.93-3.82,4.92-11.21.48-14.43-1.96-1.42-4.48-1.74-6.9-1.99-73.77-7.4-147,13.46-219.34,29.69-72.33,16.25-149.57,27.73-219.31,2.58"/>
  </g>
  <path class="st13" d="M2033.02,3975.19c.54.95-10.37,3.53-18.25,17.44-8.41,13.52-7.96,36.47-7.29,61.28,1.38,49.78,9.59,89.57,7.65,89.97-.86.19-4-9.54-7.23-25.71-3.23-16.16-6.31-38.84-7.07-64.04-.28-12.61-.41-24.54.72-35.65,1.16-11.06,4.3-21.15,9.22-28.32,4.82-7.2,10.66-11.5,15.05-13.39,4.4-1.96,7.13-1.94,7.2-1.58h0Z"/>
  <path class="st13" d="M2173.95,4121.39c-2.08-.21,2.69-36.87-3.82-81.41-6.13-44.6-20.91-78.49-18.97-79.26.75-.35,5.44,7.68,10.92,21.65,5.49,13.94,11.4,33.95,14.64,56.67,3.2,22.72,3.09,43.59,1.69,58.5-1.38,14.94-3.63,23.95-4.46,23.84h0Z"/>
  <path class="st13" d="M2345.65,3946.61c.67-.36,5.54,6.75,10.17,19.8,4.66,12.97,8.37,32.13,6.99,53.33-1.45,21.2-7.65,39.71-13.98,51.96-6.33,12.31-12.09,18.71-12.7,18.27-1.94-.92,17.67-29.59,20.04-70.67,3.1-41.02-12.55-72.03-10.51-72.69h0Z"/>
  <path class="st3" d="M1597.83,4259.41s-181.81,121.78-229.59,341.74c-37.56,172.89-140.45,1086.12-140.45,1086.12l-180.12,350.75,117.62,279.78c100.75,7.14,200.8-21.47,282.57-80.79l79.16-57.43,145.14-215.33-74.33-1704.84h0Z"/>
  <path class="st3" d="M1906.12,4098.14l-308.29,161.26-72.74,239.08-64.83,692.93,122.04,812.39-214.05,680.66,369.16,2.74,8.77-399,36.85-1291.53,36.21-822.72,86.87-75.81h0Z"/>
  <path class="st13" d="M1756.83,5174.74c-.2.11-2.17-3.2-5.74-9.61-3.78-6.98-8.89-16.41-15.32-28.28-6.38-12.42-12.57-28.39-20.57-46.56-3.8-9.17-6.9-19.34-10.71-29.93-3.69-10.64-7.81-21.82-10.89-33.93-29.03-95.7-48.23-233.93-44.19-386.37.4-11.81.85-23.49,1.66-35.11l.14-2.02,1.88-.79c18.35-7.71,36.35-15.27,53.96-22.67l-.78,5.58c-18.53-14.89-36.53-29.36-53.87-43.3l-1.13-.9-.05-1.34c-2.52-57.45,11.44-109.13,24.54-154.14,13.57-45.1,28.43-83.96,41.42-115.9,13.07-31.91,24.4-56.9,32.49-73.87,4.06-8.48,7.26-14.98,9.53-19.32,2.25-4.35,3.53-6.55,3.7-6.48.17.08-.78,2.44-2.71,6.94-2.16,4.99-5,11.53-8.57,19.75-7.47,17.21-18.22,42.4-30.73,74.46-12.44,32.06-26.8,70.97-39.91,115.95-12.69,44.8-26.1,96.43-23.42,152.1l-1.18-2.23c17.38,13.9,35.43,28.31,53.99,43.15l4.31,3.44-5.08,2.14c-17.6,7.43-35.61,15.02-53.93,22.75l2.02-2.81c-.77,11.41-1.22,23.08-1.62,34.8-4.01,151.75,14.34,289.4,42.04,384.87,2.93,12.1,6.88,23.25,10.39,33.89,3.63,10.59,6.56,20.76,10.17,29.95,7.63,18.19,13.44,34.24,19.44,46.78,5.95,12.07,10.66,21.65,14.16,28.75,3.18,6.61,4.75,10.14,4.56,10.26h0Z"/>
  <path class="st13" d="M1514.95,5659.97c-.23.05-1.25-3.4-2.98-10.02-1.81-7.25-4.23-16.93-7.27-29.07-3.19-12.63-6.85-28.13-10.41-46.27-3.64-18.13-8.28-38.68-11.93-61.68-4.03-22.93-8.32-48.06-11.78-75.24-4.13-27.07-6.94-56.2-10.2-86.81-5.55-61.32-9.26-128.98-9.33-200.06.33-71.1,4.3-138.76,10.07-200.06,3.38-30.6,6.3-59.73,10.53-86.79,3.56-27.14,7.94-52.28,12.06-75.19,3.74-22.98,8.45-43.52,12.16-61.63,3.62-18.13,7.34-33.61,10.58-46.22,3.1-12.14,5.55-21.81,7.39-29.04,1.76-6.61,2.79-10.07,3.01-10.01.23.06-.36,3.62-1.7,10.33-1.54,7.3-3.59,17.04-6.17,29.29-2.84,12.68-6.18,28.22-9.46,46.4-3.36,18.14-7.73,38.7-11.16,61.68-3.82,22.91-7.92,48.02-11.24,75.14-3.96,27.02-6.68,56.08-9.89,86.62-5.42,61.16-9.19,128.62-9.52,199.5.07,70.86,3.6,138.31,8.78,199.48,3.09,30.55,5.7,59.6,9.57,86.65,3.21,27.13,7.22,52.24,10.94,75.17,3.35,22.98,7.65,43.57,10.95,61.73,3.2,18.19,6.48,33.73,9.28,46.43,2.54,12.26,4.55,22.02,6.06,29.33,1.31,6.72,1.9,10.27,1.67,10.33h0Z"/>
  <path class="st13" d="M1598.33,6283.79c.74.37-4.46,12.49-14.96,31.01-10.48,18.52-26.63,43.23-47.23,68.41-20.63,25.16-41.69,45.85-57.78,59.78-16.09,13.95-26.94,21.42-27.46,20.78-.64-.79,9.13-9.53,24.27-24.25,15.15-14.69,35.42-35.66,55.83-60.53,20.36-24.89,36.92-48.89,48.35-66.64,11.44-17.75,18.09-29.05,18.99-28.57h0Z"/>
  <path class="st3" d="M3014.92,4239.65c131.7,51,229.41,164.06,260.63,301.78,100.82,444.56,273.39,1035.89,276.1,1226.67,3.44,242.98-102.8,409.31-241.49,439.97-109.69,24.25-1103.89-30.16-1103.89-30.16l-46.49-370.42,805.08-118.51-110.24-615.98,109.11-853.16,51.19,19.83h0Z"/>
  <path class="st3" d="M2963.74,4219.82l-222.59-90.96-234.68-137.49-1.47,40.22c28.72,49.22,38.64,107.17,27.91,163.14l-195.27,1018.76,44.3,744.3,90.87,729.42h706.03l-324.19-762.81,114.43-1027.92-5.32-676.64h0Z"/>
  <path class="st13" d="M3169.95,6214.29c0,.11-1.61.33-4.8.67-3.49.34-8.2.8-14.22,1.37-12.53,1.37-31.08,1.24-55.04,1.86-47.92.23-117.45-1.04-203.96-3.87-173.01-5.77-413.93-17.36-685.83-33.12l-2.75-.16-.34-2.72c-5.54-44.14-11.4-90.68-17.34-137.93-10-79.94-19.76-157.88-29.1-232.5l-.4-3.17,3.16-.46c245.9-35.75,460.89-67,614.77-89.38,76.59-10.86,137.94-19.57,180.51-25.61,20.88-2.84,37.14-5.05,48.52-6.58,5.3-.66,9.46-1.18,12.56-1.57,2.84-.32,4.28-.43,4.3-.33,0,.1-1.41.41-4.21.92l-12.48,2.12c-11.33,1.8-27.53,4.38-48.35,7.69-42.5,6.48-103.76,15.84-180.23,27.52-153.79,22.95-368.68,54.99-614.44,91.66l2.76-3.62c9.39,74.62,19.19,152.55,29.25,232.48,5.92,47.25,11.76,93.8,17.29,137.93l-3.08-2.87c271.85,15.96,512.69,28.34,685.61,35.29,86.46,3.41,155.93,5.36,203.8,5.88,23.9-.25,42.48.26,54.96-.7,6.03-.32,10.72-.56,14.22-.75,3.21-.13,4.86-.15,4.88-.04h0Z"/>
  <path class="st13" d="M2848.18,5010.74c.23,0,.82,2.38,1.73,6.85,1.03,5.24,2.31,11.76,3.88,19.72,3.32,18.11,7.83,42.74,13.33,72.76,10.86,62.39,25.59,146.97,41.88,240.43,15.59,93.62,29.71,178.31,40.12,240.78,4.72,30.15,8.58,54.9,11.42,73.09,1.13,8.04,2.04,14.63,2.78,19.92.55,4.57.75,6.99.52,7.02s-.86-2.3-1.85-6.8c-1.07-5.24-2.38-11.76-4.01-19.72-3.37-18.12-7.94-42.72-13.52-72.74-11.11-61.47-26.03-146.47-42.05-240.45-16.02-93.94-30.13-179.07-39.96-240.77-4.63-30.16-8.44-54.91-11.24-73.12-1.08-8.06-1.95-14.66-2.64-19.98-.5-4.63-.63-7.02-.41-7.02h0Z"/>
  <path class="st13" d="M2608.85,4063.11c.09-.02.39.81.89,2.48l2.05,7.44c1.63,6.59,4.5,16.25,7.13,28.97,5.72,25.34,12.4,62.64,16.99,109.64,4.66,46.99,6.64,103.7,4.23,167.27-2.18,63.57-8.92,133.92-18.51,208.43l-.29,2.37-2.36.43c-23.2,4.29-47.79,8.86-72.77,13.49l2.49-4.49c4.14,11.18,8.45,23.2,11.76,35.63,23.67,86.43,13.28,173.84-8.31,246.96-21.95,73.76-55.46,134.89-85.5,184.17-30.37,49.28-57.84,87.18-76.71,113.39-9.35,12.68-16.72,22.68-22.07,29.95-2.39,3.1-4.33,5.64-5.9,7.67-1.35,1.71-2.1,2.55-2.19,2.48-.09-.07.47-1.04,1.64-2.88,1.42-2.14,3.19-4.79,5.37-8.06,5.11-7.44,12.15-17.69,21.05-30.65,18.21-26.66,45.07-64.95,74.8-114.34,29.42-49.4,62.26-110.43,83.63-183.46,21.06-72.46,31.01-158.7,7.79-243.46-3.26-12.21-7.49-23.99-11.53-34.96l-1.39-3.77,3.88-.72c24.99-4.6,49.58-9.13,72.79-13.4l-2.66,2.8c9.72-74.37,16.71-144.47,19.26-207.8,2.79-63.34,1.3-119.81-2.76-166.67-4-46.86-9.99-84.12-14.99-109.55-2.26-12.76-4.76-22.49-6.02-29.16-.59-3.03-1.08-5.51-1.48-7.57-.29-1.72-.4-2.6-.29-2.63h0Z"/>
  <path class="st0" d="M2608.82,5108.08v-162.52s2.12-40.11-31.66-31.66c-33.77,8.44-27.44,71.77-27.44,71.77,0,0-6.33,246.95,8.44,244.83,14.77-2.1,20.45-21.1,20.45-21.1v-94.98l30.21-6.34h0Z"/>
  <path class="st13" d="M2749.3,5118.21c0,1.84-38.98,3.33-87.07,3.33s-87.07-1.49-87.07-3.33,38.98-3.33,87.07-3.33,87.07,1.49,87.07,3.33Z"/>
  <path class="st13" d="M3070.9,4336.06c.13.49-6.44,2.7-18.21,6.74-11.7,4.31-28.53,10.76-48.3,20.91-39.38,20.03-90.75,56.38-130.64,111.31-10.12,13.55-18.65,27.74-25.68,41.83-6.5,14.43-11.83,28.85-15.44,43.04-7.72,28.26-11.04,54.65-12.97,76.8-1.89,22.18-2.26,40.24-2.4,52.69-.13,12.48,0,19.39-.46,19.43-.47.03-1.47-6.85-2.13-19.37-.65-12.51-1.01-30.67.3-53.09,1.35-22.39,4.2-49.14,11.72-78.04,3.53-14.5,8.83-29.33,15.48-44.24,7.24-14.71,15.92-29.18,26.2-42.98,40.67-56,93.52-92.43,133.93-111.61,20.3-9.73,37.57-15.57,49.6-19.14,12.1-3.32,18.9-4.69,19-4.28h0Z"/>
  <path class="st13" d="M205.13,5687.29l1163.13,430.79,980.46,149.87-1165.74-568.3-977.85-12.36h0Z"/>
  <path class="st11" d="M702.9,6151.8c-9.23-61.96-30.38-122.11-61.95-176.22-6.19-10.6-12.86-21.2-15.87-33.09-3.01-11.9-1.72-25.68,6.58-34.72,14.93-16.26,42.22-9.02,60.56,3.26,37.99,25.44,63.41,66.44,78.32,109.65,14.91,43.22,20.3,89.05,25.61,134.46"/>
  <path class="st11" d="M1156.23,6041.05h-57.84c-11.46-12.12-29.03-22.94-50.72-29.15-13.33-3.8-26.45,3.29-38.26,14.9,25.85-42.59,53.72-89.48,59.08-102.33,10.41-24.98-12.49-43.71-49.96-43.71s-201.92,233.15-201.92,233.15c0,0,102.21-187.53,112.11-216.17,24.75-71.61-53.54-76.95-81.97-42.4-35.29,42.87-177.94,258.57-177.94,258.57,0,0-27.06,43.71-8.32,85.34,18.74,41.63,72.86,24.98,72.86,24.98,0,0-.42,36.42,38.17,57.88,41.76,23.22,96.72-3.7,96.72-3.7l212.74,47.83s33.78-3.41,77-7.71c107.76-10.7,194.45-93.35,210.27-200.46l-212.03-77.02h0Z"/>
  <path class="st14" d="M1012.85,6023.59c2.38,1.44-25.9,45.99-62.66,99.38-18.4,26.73-35.41,50.67-48,67.8-12.6,17.13-20.79,27.45-21.54,26.93-.75-.53,6.07-11.8,17.67-29.61,11.61-17.82,28.01-42.17,46.39-68.89,18.37-26.71,35.24-50.73,47.6-68.01,5.44-7.52,10.33-14.25,14.75-20.37,3.63-4.86,5.31-7.09,5.81-7.22Z"/>
  <path class="st14" d="M1000.11,6260.92c-.86-.48,6.23-13.93,18.87-34.84,12.57-20.97,30.5-49.56,50.17-81.17,9.78-15.81,19.24-30.9,26.96-44.84,8.07-13.39,7.51-28.14,4.68-39.46-6.24-23.17-19.34-33.07-18.17-33.88.24-.27,3.55,1.77,8.28,6.9,4.63,5.15,10.68,13.59,14.43,25.71,3.68,11.76,4.8,28.63-3.79,43.59-7.64,14.48-16.91,29.61-26.73,45.5-19.71,31.67-38.29,59.86-51.86,80.16-13.65,20.27-22.09,32.74-22.84,32.32h0Z"/>
  <path class="st14" d="M1111.98,6282.11c-.87-.26,2.7-13.33,11.31-33.19,4.63-10.55,9.72-22.17,15.21-34.68,5.52-13.03,11.87-27.43,15.61-42.95,3.77-15.06,1.22-31.25-6.72-41.57-3.84-5.12-9.64-8.14-15.19-10.84-5.52-2.55-11.01-4.27-15.87-4.41-9.55.46-17.61,5.72-22.91,7.99-5.39,2.69-8.53,3.98-8.76,3.56-.21-.39,2.44-2.41,7.46-5.8,2.53-1.67,5.66-3.7,9.54-5.75,3.94-1.88,8.37-4.44,14.64-4.73,5.96-.14,12.05,1.57,18.12,4.07,5.86,2.57,12.68,5.78,17.75,12.04,9.81,12.27,12.51,30.17,8.43,46.91-4.01,16.52-10.61,30.92-16.5,43.96-6.02,13-11.78,24.47-16.52,34.13-9.67,19.26-14.7,31.51-15.6,31.23h0Z"/>
  <path class="st14" d="M1151.17,6080.76c.15-.38,3.43.41,9.05,2.74,5.63,2.31,13.47,6.49,22.23,13.07,17.44,12.82,38.28,37.49,45.77,70.74,7.36,33.28-1.01,64.47-11.34,83.49-5.14,9.68-10.46,16.79-14.57,21.28-4.1,4.5-6.74,6.6-7.04,6.33-.95-.8,8.51-10.47,17.38-29.69,8.89-18.87,16-48.59,9.07-79.97-7.07-31.34-26.14-55.22-42.21-68.51-16.19-13.63-28.87-18.36-28.34-19.48h0Z"/>
  <path class="st14" d="M776.55,5958.46c1.53,1.03-20.04,35.55-48.16,77.09-28.12,41.55-52.16,74.39-53.67,73.35-1.53-1.02,20.04-35.54,48.16-77.09,28.12-41.54,52.15-74.38,53.67-73.35Z"/>
  <path class="st11" d="M2156.31,5821.4l-132.96-30.15-127.7-120.28c-15.52-14.61-35.68-23.29-56.96-24.52l-232.38-13.38c-23.17-1.33-45.98,6.28-63.72,21.26l-166.15,140.37,724.7,353.28,99.45,8.8-44.28-335.38h0Z"/>
  <path class="st14" d="M1762.39,5759.32c-.2,1.06-17.24-2.1-44.78-5.58-27.12-2.99-66.97-6.78-105.22,10.92-19.06,8.51-35.4,20.47-50.15,31.33-14.7,11.04-27.88,21.26-39.53,29.1-11.62,7.9-21.62,13.41-28.74,16.74-7.19,3.21-11.32,4.55-11.49,4.16-.45-1.01,15.33-8.04,37.51-24.73,11.15-8.24,23.93-18.77,38.53-30.14,14.67-11.21,31.23-23.62,51.13-32.52,19.74-9.33,40.72-12.68,59.35-13.27,18.74-.52,35.44,1.56,49.28,3.75,13.84,2.26,24.88,4.79,32.47,6.64,7.59,1.87,11.73,3.16,11.65,3.62h0Z"/>
  <path class="st14" d="M1810.04,5888.7c-.44,1.06-9.53-3.11-25.07-4.75-15.45-1.81-37.38.07-59.78,8.31-22.43,8.28-41.15,19.87-54.71,28.08-13.55,8.32-22.06,13.4-22.6,12.62-.5-.73,7.01-7.15,20-16.54,12.99-9.26,31.68-21.79,55.04-30.42,23.38-8.63,46.68-9.86,62.72-6.72,16.17,2.97,24.77,8.84,24.41,9.42Z"/>
  <path class="st14" d="M2109.13,5910.18c-1.63,1.01-20.37-26.75-45.06-59.77-24.61-33.1-45.85-58.99-44.42-60.26,1.3-1.19,24.95,22.91,49.76,56.27,24.88,33.31,41.23,62.86,39.72,63.77Z"/>
  <path class="st17" d="M1743.18,5646.84l294.61-274.4c12.73-11.86,11.75-32.32-2.05-42.91-10.74-8.24-25.83-7.66-35.91,1.38l-345.44,309.8"/>
  <g class="st16">
    <path class="st12" d="M1743.18,5646.84l294.61-274.4c12.73-11.86,11.75-32.32-2.05-42.91-10.74-8.24-25.83-7.66-35.91,1.38l-345.44,309.8"/>
  </g>
  <path class="st9" d="M4150.13,3003.14c-4.57-1.83-182.95-48.62-172.16,131.77,10.79,180.37,189.66,132.33,189.67,127.14,0-5.19-17.5-258.91-17.5-258.91h0Z"/>
  <path class="st8" d="M4108.45,3197.01c-.82-.53-3.01,2.38-8.17,5.13-5.05,2.68-13.85,4.86-23.47,1.89-19.47-5.84-37.33-35.14-40.15-67.61-1.44-16.39,1.06-32.23,6.1-45.52,4.71-13.52,12.7-23.25,22.19-25.52,9.41-2.78,16.54,2.56,19.06,7.5,2.72,4.9,1.79,8.57,2.77,8.82.53.43,3.69-3.24,1.79-10.61-.96-3.54-3.33-7.66-7.78-10.88-4.54-3.25-11.01-4.67-17.65-3.55-13.86,1.8-25.61,15.35-31.15,29.94-6.3,14.7-9.51,32.53-7.89,50.93,3.33,36.28,23.97,69.18,50.5,75.16,12.88,2.55,23.24-1.92,28.46-6.49,5.31-4.79,6.03-8.88,5.38-9.16h0Z"/>
  <path class="st13" d="M4600.57,2358.72c91.66,0,184.98,0,299.72,59.91,72.36,37.78,117.47,97.67,155.18,170.06,28.86,55.41,45.97,127.98,42.65,190.36-3.31,62.38-3.55,106-28.46,163.29"/>
  <path class="st9" d="M4563.93,2372.88c271.25-18.94,505.52,188.02,519.71,459.55,11.82,225.97,22.21,470.39,19.72,593.47-5.38,264.14-269.92,303.12-269.92,303.12,0,0,5.83,78.32,12.35,175.5,13.14,195.7-137.98,363.69-333.97,371.12-192.16,7.27-353.78-142.7-360.88-334.85l-39.29-1064.67c-9.68-262.28,190.45-484.97,452.28-503.25h0Z"/>
  <path class="st8" d="M4833.44,3729.02s-162.35,8.44-338.91-104.44c0,0,79.9,192.2,343.69,170.5l-4.79-66.06Z"/>
  <path class="st13" d="M4982.47,2979.41c.55,19.92-15.88,36.83-36.69,37.78-20.76.94-38.07-14.41-38.61-34.33-.55-19.92,15.87-36.85,36.64-37.8,20.8-.95,38.12,14.43,38.66,34.35Z"/>
  <path class="st13" d="M5019.05,2926.01c-4.72,4.88-33.12-16.5-73.74-16.72-40.54-.8-70.49,19.85-74.87,14.84-2.14-2.21,2.7-11.05,15.74-20.4,12.86-9.31,34.7-18.28,59.99-17.96,25.29.34,46.49,9.81,58.63,19.45,12.41,9.67,16.58,18.61,14.24,20.8h0Z"/>
  <path class="st13" d="M4584.35,2979.41c.54,19.93-15.89,36.82-36.69,37.77-20.76.95-38.07-14.39-38.61-34.32-.55-19.93,15.88-36.85,36.66-37.8,20.79-.95,38.09,14.43,38.65,34.35Z"/>
  <path class="st13" d="M4619.94,2930.39c-4.72,4.88-33.17-16.51-73.73-16.72-40.55-.8-70.52,19.85-74.89,14.84-2.13-2.21,2.65-11.06,15.75-20.39,12.84-9.32,34.7-18.28,59.98-17.97,25.29.33,46.48,9.81,58.64,19.44,12.38,9.68,16.56,18.61,14.24,20.8h0Z"/>
  <path class="st13" d="M4764.88,3232.64c-.16-2.31,25.1-6.48,66.04-11.37,10.38-.99,20.2-2.98,22.01-10.03,2.5-7.46-1.74-18.68-6.68-30.79-9.55-25.17-19.54-51.54-30.02-79.17-41.68-112.74-71.75-205.4-67.21-207.04,4.56-1.63,42.03,88.41,83.71,201.14,10.02,27.8,19.62,54.29,28.74,79.64,3.81,11.82,10.46,25.23,5.05,40.73-2.86,7.72-10.52,13.29-17.17,15.02-6.65,1.99-12.49,2.04-17.62,2.31-41.18,1.88-66.7,1.86-66.84-.44h0Z"/>
  <path class="st13" d="M4645.18,3259.76c6.61-.32,6.35,43.74,43.8,75.31,37.41,31.68,84.42,27.1,84.71,33.27.6,2.77-10.53,8.48-30.36,8.85-19.46.51-47.8-5.96-70.73-25.28-22.85-19.36-32.55-45.04-33.91-63.12-1.53-18.43,3.48-29.3,6.48-29.03h0Z"/>
  <path class="st13" d="M4631.7,2771.38c-4.09,11-44.59,5.44-92.25,10.81-47.8,4.4-86.32,18.04-92.56,8.08-2.77-4.75,4-15.09,19.61-25.65,15.48-10.54,40.12-20.49,68.74-23.44,28.61-2.9,54.76,1.85,72.05,9.04,17.43,7.2,26.17,15.93,24.4,21.16h0Z"/>
  <path class="st13" d="M5013.37,2781.47c-7.21,9.17-35.09-.62-68.73-1.34-33.6-1.92-62.14,5.69-68.62-4.01-2.84-4.71,1.72-13.91,14.24-22.53,12.33-8.6,32.89-15.55,56-14.67,23.1.92,43.06,9.43,54.68,18.98,11.82,9.56,15.63,19.1,12.44,23.56h0Z"/>
  <path class="st13" d="M4114.74,2958.57s11.49,61.09,14.56,88.66c1.14,10.07-.18,122,27,127.59,23.38,4.81,69.87-16.48,90.56-62.77s60.06-157.37,55.81-207.89c-5.81-68.91-9.01-138.9,4.75-206.67,13.77-67.76,46.16-133.85,100.63-176.44,54.47-42.6,132.98-57.53,194.79-26.52,38.14,19.14,66.68,53.04,102.22,76.65,31.97,21.25,70.98,33.99,108.94,28.36,37.97-5.64,73.85-32.1,84.21-69.05,11.31-40.32-9.46-84.48-41.72-111.18-32.27-26.7-73.97-38.95-115.04-47.11-113.93-22.63-234.71-18.13-342.96,23.95-108.26,42.07-204.32,122.88-250.6,229.41-53.51,123.2-47.28,198.73-33.15,333.01h0Z"/>
  <path class="st13" d="M4718.63,2981.13c-1.03.09.11-16.01-6.88-43.51-6.91-26.98-24.9-66.64-65.46-97.31-20.1-14.98-45.4-27.7-74.58-32.81-28.96-4.91-61.63-3.96-92.71,7.91-15.66,5.44-30.74,13.68-44.61,24.07-14.02,10.19-26.75,22.83-37.23,37.47-21.69,28.85-33.9,65.94-34.25,104.15.35,38.22,12.55,75.32,34.25,104.19,10.48,14.65,23.21,27.3,37.23,37.48,13.87,10.39,28.96,18.62,44.61,24.08,31.08,11.86,63.77,12.81,92.74,7.9,29.16-5.1,54.46-17.82,74.56-32.8,40.56-30.68,58.55-70.35,65.45-97.31,6.99-27.51,5.84-43.6,6.88-43.5.11,0,.17.98.18,2.91l-.1,8.56c.02,3.78-.18,8.45-1.09,13.9-.72,5.48-1.4,11.83-3.36,18.77-6.24,27.53-23.85,68.42-65.1,100.41-20.44,15.62-46.37,28.99-76.41,34.5-29.83,5.31-63.58,4.54-95.84-7.57-16.23-5.57-31.9-14.02-46.3-24.73-14.56-10.51-27.8-23.56-38.71-38.73-22.55-29.88-35.31-68.4-35.64-108.06.35-39.64,13.1-78.15,35.65-108.02,10.92-15.15,24.15-28.21,38.71-38.71,14.4-10.72,30.06-19.16,46.29-24.73,32.24-12.09,66-12.87,95.83-7.56,30.04,5.51,55.97,18.86,76.4,34.49,41.27,31.98,58.88,72.88,65.13,100.42,1.95,6.93,2.64,13.28,3.36,18.76.91,5.45,1.11,10.12,1.09,13.9l.1,8.57c0,1.92-.07,2.91-.18,2.91h0Z"/>
  <path class="st13" d="M5183.63,2981.13c-1.03.09.11-16.01-6.88-43.51-6.91-26.98-24.91-66.64-65.46-97.31-20.1-14.98-45.39-27.7-74.57-32.81-28.97-4.91-61.64-3.96-92.72,7.91-15.65,5.44-30.73,13.68-44.6,24.07-14.02,10.19-26.75,22.83-37.23,37.47-21.69,28.85-33.9,65.94-34.26,104.15.36,38.22,12.56,75.32,34.24,104.19,10.5,14.65,23.23,27.3,37.25,37.48,13.86,10.39,28.96,18.62,44.61,24.08,31.09,11.86,63.77,12.81,92.74,7.9,29.16-5.1,54.47-17.82,74.57-32.8,40.56-30.68,58.54-70.35,65.45-97.31,6.99-27.51,5.84-43.6,6.88-43.5.11,0,.17.98.18,2.91-.03,2.32-.05,5.14-.1,8.56.03,3.78-.17,8.45-1.08,13.9-.73,5.48-1.4,11.83-3.36,18.77-6.24,27.53-23.85,68.42-65.12,100.41-20.43,15.62-46.36,28.99-76.4,34.5-29.83,5.31-63.58,4.54-95.84-7.57-16.23-5.57-31.9-14.02-46.3-24.73-14.56-10.51-27.8-23.56-38.71-38.73-22.55-29.88-35.31-68.4-35.64-108.06.35-39.64,13.1-78.15,35.65-108.02,10.92-15.15,24.15-28.21,38.71-38.71,14.4-10.72,30.06-19.16,46.29-24.73,32.24-12.09,66-12.87,95.83-7.56,30.04,5.51,55.97,18.86,76.4,34.49,41.26,31.98,58.88,72.88,65.12,100.42,1.96,6.93,2.64,13.28,3.36,18.76.91,5.45,1.11,10.12,1.08,13.9.05,3.42.08,6.23.1,8.57,0,1.92-.07,2.91-.18,2.91h0Z"/>
  <path class="st13" d="M4828.84,2961.97c-.57.91-6.48-2.38-16.58-5.72-10.06-3.39-24.59-6.22-40.7-5.18-16.1,1.11-30.14,5.84-39.66,10.52-9.55,4.66-14.97,8.7-15.67,7.87-.5-.55,3.91-5.98,13.4-11.99,9.41-6.03,24.27-11.88,41.48-13.06,17.22-1.12,32.73,2.72,42.85,7.45,10.2,4.7,15.31,9.5,14.87,10.11h0Z"/>
  <path class="st13" d="M4900.88,2516.29c2.59-13.71-1.92-21.39,5.8-26.99,8.81-6.42,25.45,10.4,31.54,17.1,1.94,2.12,8.15-6.22,10.56-7.82,1.94-1.29,4.92-15.21,4.64-17.53-1.14-9.54-16.14-12.12-23.21-18.63s-15.83-10.94-24.89-14.12c-7.92-2.78-17.7-4.31-23.85,1.4-4.7,4.37-5.5,11.47-5.31,17.88.18,6.35,1.05,12.78,3.61,18.61,2.55,5.83,6.92,11.02,12.71,13.63"/>
  <path class="st3" d="M4104.93,2818.17s129.5,47.49,196.93,76.06l-3.81-66.25-188.44-74.52s-4.79,49.22-4.69,64.71h0Z"/>
  <path class="st3" d="M4117.02,2715.27c.71-1.7,41.77,14.04,91.68,35.15,49.93,21.12,89.81,39.6,89.1,41.3-.72,1.68-41.76-14.05-91.7-35.16-49.9-21.11-89.8-39.6-89.08-41.29h0Z"/>
  <path class="st12" d="M4156.07,4110.66l-10.02-313.49s62.28,286.91,388.48,283.16c311.75-3.57,306.05-252.77,306.05-252.77l11.11,126.35v510.41l-203.34,832.64-259.66,32.94-286.98-1138.2,54.36-81.05h0Z"/>
  <path class="st13" d="M4811.58,4010.33c.18.12-1.11,2.41-3.76,6.68-2.85,4.12-6.24,10.83-12.36,18.18-11.23,15.45-30.36,35.96-58.06,56.2-27.6,20.36-64.72,38.87-108.48,50.93-43.74,11.9-94.27,16.58-146.32,10.13-51.95-6.97-99.77-22.87-140.57-42.3-40.94-19.34-75.25-41.55-102.66-61.87-27.43-20.34-48.27-38.47-62.18-51.5-7.07-6.4-12.18-11.76-15.76-15.28-3.52-3.56-5.3-5.51-5.13-5.69.16-.16,2.25,1.47,6.05,4.72,4.33,3.75,9.82,8.48,16.57,14.31,14.38,12.41,35.62,29.9,63.22,49.63,27.57,19.71,61.87,41.3,102.48,60.12,40.51,18.92,87.71,34.38,138.83,41.25,51.1,6.34,100.78,1.93,143.89-9.45,43.11-11.54,79.81-29.29,107.32-48.84,27.62-19.44,47.01-39.16,58.75-53.98,11.88-14.71,17.57-23.62,18.16-23.24h0Z"/>
  <path class="st3" d="M4585.21,6686.33l-4.71-1479.61-420.18-1079.86-14.12-324.99-256.01,193.64s-372.8,1282.93-378.54,1238.46c-5.76-44.48-.15,1452.37-.15,1452.37h1073.7Z"/>
  <path class="st13" d="M4575.11,6682.23c-1.84,0-3.33-333.4-3.33-744.59s1.49-744.67,3.33-744.67,3.33,333.33,3.33,744.67-1.49,744.59-3.33,744.59Z"/>
  <path class="st0" d="M3893.92,4206.84l51.96,39.33-36.53,239.36,613.35,642.44-557.08-731.51,47.48-189.63h-119.17Z"/>
  <path class="st3" d="M4608.21,5928.37l-941.26-275.99-31.19-714.95,258.16-941.93s-615.38,307.01-657.25,502.38c-41.86,195.35-142.82,670.3-153.58,1013.56-9.61,306.93-11.01,512.14,59.08,610.1,200.7,280.58,1523.47,330.69,2051.94-.4"/>
  <path class="st13" d="M4534.53,5143.52c-.1.07-1.13-1.1-3.06-3.46-2.12-2.64-4.91-6.13-8.45-10.55-7.55-9.68-18.28-23.41-31.97-40.95-27.78-36.06-67.55-87.69-116.59-151.36-98.15-128.47-233.34-305.43-382.68-500.89-9.67-12.69-19.27-25.32-28.79-37.81l-.97-1.27.38-1.56c16.46-65.51,32.39-129.01,47.6-189.6l3.1,3.98c-41.15-.05-80.92-.11-119.17-.16h-3.05v-3.04c.19-77.43.36-148.44.5-211.34v-1.27l1-.75c77.63-58.99,140.84-107.03,185-140.59,21.76-16.33,38.82-29.13,50.78-38.11,5.63-4.12,10.05-7.36,13.33-9.77,3.04-2.18,4.63-3.24,4.72-3.15.08.1-1.37,1.37-4.25,3.74-3.19,2.56-7.46,5.99-12.9,10.36-11.76,9.22-28.53,22.39-49.95,39.2-43.83,33.99-106.59,82.63-183.64,142.37l1-2.02c.14,62.9.31,133.91.5,211.34l-3.04-3.05c38.24-.04,78.02-.1,119.17-.16h4.11l-1,3.99c-15.14,60.6-30.99,124.12-47.35,189.65l-.58-2.82c9.52,12.5,19.13,25.12,28.8,37.81,148.72,195.93,283.38,373.32,381.12,502.09,48.34,64.21,87.54,116.27,114.92,152.64,13.27,17.86,23.66,31.85,30.99,41.71,3.31,4.59,5.93,8.2,7.92,10.94,1.75,2.49,2.61,3.81,2.51,3.88h0Z"/>
  <path class="st3" d="M4954.14,3939.82c-75.09-131.3-114.02-117.64-114.02-117.64l3.92,46.8.08,98.34-35.58,421.9-228.05,916.77,4.7,1380.34h862.03l107.3-1684.96-9.74-725.88-590.63-335.66h0Z"/>
  <path class="st3" d="M5544.78,4275.49s223.13,164.72,242.45,429.71c15.7,215.25,51.73,804.59,58.24,932.9,10.15,199.8-145.43,667.69-550.52,535.15-242.91-79.48-1140.44-384.56-1140.44-384.56l59.71-381.15,1065.29,63.47,21.15-888.51,244.11-307.01h0Z"/>
  <path class="st9" d="M4202.09,5451.43s-301.51-32.6-371.34-15.74c-67.1,16.19-162.67,98.29-162.67,98.29l1.36,119.12,485.07,135.59,47.58-337.26h0Z"/>
  <path class="st13" d="M4580.5,5168.17c-.1-.03.35-1.42,1.34-4.1,1.15-2.98,2.65-6.88,4.53-11.77,4.28-10.71,10.33-25.8,18.04-45.07,16.08-39.41,39.1-95.76,67.46-165.22,28.76-69.78,62.93-152.69,100.85-244.72,9.57-22.91,19.04-46.84,30.88-70.21,11.37-23.6,24.79-46.73,38.61-70.12,28.37-46.37,60.51-92.62,95.74-138.17,17.39-22.44,34.91-44.28,53.05-65.21l-.6,3.39c-12.8-32.53-25.32-64.41-37.57-95.52l-1.24-3.16,3.23-1.1c55.02-18.69,107.64-36.59,157.14-53.41l-1.62,4.39c-72.89-121.71-134.52-224.59-178.15-297.45-21.57-36.09-39.98-64.91-59.52-76.77-9.58-5.94-18.14-8.25-23.82-9.64-5.72-1.39-8.75-1.91-8.72-2.12,0,0,3.09.09,8.93,1.16,5.8,1.08,14.58,3.12,24.61,8.96,10.11,5.77,20.3,16.1,30.22,29.32,9.94,13.26,20.54,28.97,31.33,47.12,44.16,72.58,106.52,175.08,180.3,296.35l1.93,3.17-3.55,1.21c-49.43,16.96-102.02,34.99-156.99,53.85l1.98-4.26c12.28,31.1,24.85,62.97,37.69,95.47l.73,1.86-1.33,1.53c-17.93,20.75-35.45,42.59-52.76,64.93-35.09,45.39-67.14,91.41-95.43,137.48-13.78,23.23-27.16,46.19-38.5,69.56-11.78,23.13-21.2,46.73-30.89,69.71-38.42,91.83-73.04,174.56-102.17,244.19-29.19,69.12-52.87,125.2-69.44,164.43-8.19,19.06-14.63,33.99-19.19,44.58-2.14,4.79-3.84,8.61-5.14,11.52-1.2,2.58-1.86,3.88-1.97,3.83h0Z"/>
  <path class="st13" d="M5667.19,6099.09c.09.09-1.19,1.41-3.74,3.95-2.81,2.72-6.61,6.41-11.46,11.13-10.24,9.62-26.41,22.76-48.96,37.14-22.84,13.85-52.74,28.1-89.64,37.57-36.82,9.56-80.72,13.22-128.37,8.17-23.82-2.68-48.46-7.93-73.49-15.57-25-7.97-50.06-17.74-76.51-27.06-52.65-19.1-109.09-38.98-168.51-59.84-118.87-41.62-249.96-86.19-388.06-131.49-276.26-90.75-528.15-167.22-710.71-221.73-91.11-26.96-164.95-48.81-216.36-64.02-25.28-7.52-45.03-13.38-58.81-17.47-6.47-1.99-11.52-3.55-15.25-4.71-3.42-1.09-5.17-1.71-5.14-1.82.04-.11,1.85.29,5.33,1.17,3.77.99,8.88,2.34,15.42,4.07,13.86,3.81,33.73,9.28,59.15,16.27,51.32,14.31,125.49,35.38,216.99,61.99,182.93,53.35,435.11,129.14,711.45,219.92,138.14,45.32,269.23,90.08,388.02,132.04,59.37,21.02,115.77,41.09,168.35,60.43,26.34,9.39,51.67,19.41,76.19,27.35,24.65,7.66,48.96,13,72.49,15.8,47.04,5.29,90.42,2,126.92-7.1,36.58-9.03,66.33-22.78,89.2-36.17,22.58-13.95,38.91-26.67,49.39-35.93,5.04-4.51,8.98-8.03,11.89-10.63,2.71-2.37,4.13-3.55,4.21-3.46h0Z"/>
  <path class="st13" d="M3669.44,5655.25c-.22,1.39-16.92-2.25-43.95-1.2-13.48.6-29.48,2.78-46.56,7.69-17.01,5.16-35.09,12.92-52.44,23.9-34.74,22.3-58.56,52.16-72.93,74.94-14.3,23.02-20.46,38.87-21.65,38.37-.42-.16.86-4.2,3.58-11.4,2.52-7.27,7.33-17.35,14.04-29.39,13.57-23.82,37.48-55.09,73.37-78.13,17.92-11.34,36.71-19.21,54.36-24.2,17.76-4.75,34.29-6.48,48.12-6.49,13.81.1,24.99,1.18,32.49,2.9,7.56,1.51,11.66,2.55,11.57,3h0Z"/>
  <path class="st13" d="M3372.92,5561.83c-.21-.1.21-1.24,1.2-3.36,1-2.09,2.81-5.12,5.91-8.37,5.92-6.78,17.78-13.62,33.44-16.61,15.67-3.32,34.77-2.54,55.29.13,20.59,2.69,42.98,7.84,65.56,15.93,45.4,16.01,81.76,41.57,104.01,63.66,11.1,11.13,19.08,21.05,24.11,28.22,4.87,7.28,7.38,11.42,7,11.67-1.08.79-11.61-15.55-34.34-36.48-22.68-20.8-58.54-45.11-103.01-60.79-22.13-7.94-44.02-13.16-64.17-16.13-20.18-2.96-38.55-4.16-53.6-1.57-15.05,2.29-26.34,8.01-32.45,13.84-6.25,5.72-8.37,10.21-8.94,9.87h0Z"/>
  <path class="st13" d="M3724.34,4740.72c-.46.02-1.99-6.95-4.31-19.41-1.89-6.06-4.69-13.36-7.58-21.88-4.09-8.05-8.09-17.58-13.93-27.33-11.46-19.67-27.7-41.55-48-63.83-20.82-21.74-45.08-44.52-73.5-64.67-56.57-40.71-116.17-64.56-160.74-73.82-22.39-4-40.71-6.89-53.52-6.81-12.76-.61-19.87-1.16-19.89-1.62-.03-.46,7.05-.79,19.96-.98,12.94-.88,31.54,1.32,54.38,4.79,45.44,8.19,106.36,31.77,163.7,73.04,28.79,20.42,53.28,43.65,74.15,65.93,20.32,22.83,36.42,45.33,47.55,65.65,5.69,10.07,9.48,19.94,13.3,28.27,2.64,8.84,5.1,16.39,6.63,22.65,1.6,12.93,2.24,19.98,1.79,20.01h0Z"/>
  <path class="st13" d="M5511.38,5833.96c-.11,0-.23-1.56-.32-4.57l-.29-13.37c-.36-11.75-.81-29.08-2.52-51.31-3.65-44.28-11.24-109.1-37.85-184.27-6.61-18.73-14.12-38.29-25.81-56.3-11.5-18.09-28.66-33.26-49.89-42.3-42.83-18.45-94.38-16-146.8-18.97-105.55-4.43-221.53-9.3-343.26-14.43-283.65-12.34-535.96-22.98-694.47-31.46l2.12-1.71c-9.57,58.23-17.17,104.41-22.44,136.47-2.66,15.5-4.75,27.57-6.23,36.15-.71,3.85-1.29,6.91-1.74,9.29-.42,2.08-.68,3.13-.77,3.12-.1,0-.02-1.08.22-3.2l1.19-9.35c1.23-8.63,2.96-20.76,5.18-36.32,4.83-32.14,11.8-78.43,20.57-136.82l.28-1.79,1.86.08c159.15,6.62,411.17,17.11,694.53,28.88,121.74,5.31,237.71,10.36,343.25,14.96,26.38,1.33,52.06,1.93,77.17,3.99,25,2.18,49.62,6.33,71.59,16.06,22.06,9.48,40.23,25.74,51.97,44.54,11.98,18.73,19.43,38.66,25.95,57.55,26.24,75.95,33.12,141.17,36,185.64,1.31,22.33,1.34,39.72,1.28,51.48-.16,5.6-.29,10.02-.38,13.38-.12,3.02-.24,4.57-.36,4.57Z"/>
  <path class="st13" d="M5308.22,4999.97c1.86,0,3.34,103.18,3.34,230.43s-1.48,230.46-3.34,230.46-3.33-103.17-3.33-230.46,1.5-230.43,3.33-230.43Z"/>
  <path class="st13" d="M3244.09,4474.81s-.8,2.92-2.64,8.5c-1.7,5.64-5,13.75-7.7,24.95-6.21,22.14-14.07,55.23-22.9,98.32-17.82,86.15-39.75,212.22-64.34,370.06-12.21,78.93-25.23,165.8-38.03,259.67-6.51,46.87-10.55,95.77-13.94,146.36-3.35,50.59-6.04,102.83-8,156.59-3.88,107.5-6.17,221.08-3.06,339.39.9,29.55,1.99,59.45,4.46,89.47.75,15.1,3.22,29.93,5.09,44.94,3.15,14.76,5.87,29.75,10.9,44.15,9.19,28.97,23.1,56.84,42.36,80.97,19.16,23.89,44.21,44.61,72.71,56.01l.42.16.12.07c59.01,30.47,123.63,52.56,189.6,72.41,66.1,19.79,134.39,35.77,203.76,50.04,155.2,31.7,309.12,50.32,457.8,55.75,74.38,2.25,147.31-.55,218.53-5.7,71.22-4.92,140.62-12.36,207.78-22.33,134.37-19.42,259.71-49.27,372.89-86.68,113.25-37.35,214.04-82.66,301.52-129.37l.33,4.14c-175.54-62.14-316.44-112.01-413.66-146.43-48.36-17.27-85.81-30.64-111.37-39.77-12.56-4.57-22.16-8.05-28.79-10.46-6.48-2.38-9.73-3.76-9.73-3.76,0,0,3.4.96,9.94,3.15,6.68,2.27,16.35,5.56,29,9.86,25.65,8.86,63.24,21.87,111.78,38.63,97.37,33.96,238.49,83.18,414.33,144.49l4.88,1.71-4.56,2.44c-87.55,47.12-188.49,92.84-301.97,130.52-113.43,37.76-239.05,67.91-373.72,87.56-67.3,10.08-136.85,17.62-208.19,22.62-71.29,5.23-144.58,8.11-219.2,5.89-149.14-5.33-303.38-23.95-458.93-55.72-69.54-14.3-137.99-30.33-204.3-50.21-66.23-19.96-131.05-42.1-190.81-73.01l.53.23c-30.67-12.27-55.82-33.47-75.74-58.16-19.83-24.87-34.05-53.48-43.42-83.09-5.12-14.72-7.89-29.98-11.08-45.02-1.88-15.24-4.36-30.41-5.1-45.53-2.45-30.2-3.51-60.15-4.39-89.77-2.97-118.57-.52-232.19,3.56-339.79,2.05-53.8,4.85-106.1,8.31-156.74,3.51-50.62,7.68-99.69,14.34-146.68,13.05-93.91,26.33-180.74,38.82-259.66,25.17-157.78,47.77-283.79,66.3-369.87,9.18-43.05,17.42-76.1,24.02-98.18,2.89-11.16,6.38-19.26,8.27-24.83,2.02-5.52,3.2-8.29,3.2-8.29h0Z"/>
  <path class="st0" d="M3668.08,5566.89c157.4-174.26,150.48-484.15,60.15-704.03-8.34,238.21-36.43,449.42-57.97,680.89"/>
  <path class="st13" d="M3728.56,4907.48c.23.02.2,2.65-.04,7.63-.38,5.7-.84,12.9-1.43,21.75-1.54,19.76-3.68,46.84-6.28,79.91-5.62,68.25-13.26,161.01-21.7,263.53-8.04,102.56-15.31,195.37-20.65,263.64-2.5,33.07-4.53,60.16-6.03,79.91l-1.89,21.72c-.49,4.96-.88,7.56-1.1,7.55-.23-.02-.3-2.64-.23-7.63.17-5.7.37-12.92.64-21.79.64-18.93,2.02-46.28,3.9-80.07,3.88-67.58,10.33-160.89,18.72-263.86,8.4-102.94,16.95-196.06,23.66-263.42,3.47-32.99,6.31-60.01,8.39-79.72,1.08-8.82,1.96-15.98,2.65-21.64.68-4.94,1.16-7.53,1.39-7.51h0Z"/>
  <path class="st13" d="M4116.59,4592.6c1.84,0,3.33,60.51,3.33,135.12s-1.49,135.13-3.33,135.13-3.33-60.49-3.33-135.13,1.49-135.12,3.33-135.12Z"/>
  <path class="st0" d="M4014.05,5041.56c2.33,27.57,14.18,52.43,28.97,71.66,14.78,19.22,44.86,38.03,69.06,36.65,0,0,60.42,5.16,92.94-46.63,29.46-46.89,36.72-144.45,13.1-202.13-16.25-39.67-52.75-76.54-95.6-77.55-56.25-1.34-91.53,39.32-103.54,80.45"/>
  <path class="st13" d="M4018.99,4904.03s1.25-10.72,10.4-27.59c4.59-8.36,11.23-18.2,21.11-27.67,9.77-9.53,23.21-18.33,39.82-23.38,8.29-2.44,17.3-4.14,26.75-4.28,9.4-.48,19.53.63,29.26,3.85,19.61,6.32,37.78,19.85,52.23,37.45,14.63,17.52,25.4,39.78,30.72,63.95,5.46,24.12,7.14,49.75,5.71,75.77-2.61,40.05-10.47,79.9-32.63,110.36-11.22,14.93-26.55,25.71-42.46,32.01-16.01,6.36-32.35,8.81-48.06,8.08h.39c-12.89.51-24.43-3.68-34.44-8.53-10-5.07-18.64-11.31-25.91-18.06-14.5-13.87-22.47-29.32-28.21-42.04-5.53-12.9-7.86-23.7-8.93-31.05-.5-3.69-.77-6.52-.81-8.44-.07-1.9-.03-2.9.11-2.9.97-.23.94,16.06,12.48,41.12,5.95,12.17,14.35,27.28,28.34,40.06,7.09,6.34,15.52,12.17,25.12,16.86,9.58,4.48,20.57,8.17,31.95,7.55h.38c28.83,1.01,63.86-10.09,85.01-38.5,20.63-28.51,28.57-67.7,31.02-106.87,2.75-50.6-5.73-101.57-34.52-135.49-13.72-16.98-30.9-29.95-49.2-36.08-9.13-3.13-18.41-4.27-27.41-3.95-9.03-.02-17.62,1.47-25.55,3.66-15.91,4.53-28.95,12.64-38.62,21.59-9.79,8.89-16.57,18.25-21.39,26.23-9.65,16.11-11.92,26.56-12.66,26.3h0Z"/>
  <path class="st0" d="M3984.12,5044.09c2.33,27.57,14.18,52.44,28.97,71.66,14.78,19.22,44.86,38.03,69.07,36.66,0,0,60.41,5.16,92.93-46.63,29.46-46.91,36.72-144.46,13.1-202.14-16.25-39.66-52.75-76.53-95.59-77.55-56.26-1.33-91.53,39.33-103.54,80.46"/>
  <path class="st13" d="M3989.04,4906.57s1.26-10.72,10.41-27.59c4.58-8.36,11.22-18.21,21.1-27.67,9.77-9.52,23.21-18.33,39.83-23.38,8.29-2.43,17.3-4.14,26.75-4.27,9.4-.49,19.53.62,29.26,3.84,19.61,6.32,37.78,19.85,52.23,37.45,14.63,17.53,25.4,39.77,30.72,63.95,5.46,24.13,7.13,49.76,5.71,75.78-2.61,40.05-10.47,79.89-32.63,110.36-11.21,14.91-26.55,25.71-42.46,32-16.01,6.36-32.35,8.81-48.06,8.09h.39c-12.9.5-24.43-3.68-34.45-8.53-10-5.08-18.63-11.31-25.9-18.07-14.5-13.87-22.47-29.32-28.21-42.03-5.54-12.9-7.86-23.72-8.94-31.06-.49-3.68-.76-6.51-.8-8.43-.07-1.92-.03-2.9.11-2.91.97-.23.94,16.06,12.48,41.13,5.95,12.17,14.35,27.27,28.33,40.06,7.09,6.34,15.52,12.17,25.12,16.86,9.59,4.47,20.58,8.16,31.96,7.55h.38c28.83,1.01,63.85-10.09,85-38.5,20.63-28.52,28.58-67.71,31.03-106.89,2.74-50.58-5.73-101.56-34.52-135.48-13.72-16.98-30.9-29.95-49.2-36.07-9.14-3.13-18.41-4.28-27.41-3.96-9.03,0-17.62,1.48-25.57,3.65-15.89,4.53-28.93,12.66-38.61,21.6-9.79,8.88-16.57,18.23-21.4,26.23-9.65,16.11-11.91,26.57-12.66,26.3h0Z"/>
  <path class="st0" d="M4038.39,4892.17c-27.96-5.57-56.84,13.63-68.67,39.57s-9.21,56.52.16,83.45c4.76,13.72,11.33,27.04,21.29,37.59s23.65,18.13,38.16,18.56c21.28.64,40.41-13.88,52.8-31.2,19.97-27.93,26.75-64.88,18.02-98.09-5.83-22.18-22.15-44.9-45.07-45.52"/>
  <path class="st13" d="M4055.07,4896.53c0-.18,1.75-.4,5.09-.14,3.32.33,8.27,1.51,13.87,4.71,11.22,6.21,24.03,21.62,29.25,44.01,5.43,21.99,4.79,50.63-7.9,78.27-6.36,13.64-15.45,27.27-28.66,37.64-12.76,10.39-31.48,17.05-49.35,11.82-17.64-4.94-31.07-18.06-39.42-32.23-8.46-14.32-13.34-29.45-16.43-44.17-6.15-29.43-1.15-58.58,12.77-77.25,13.7-18.81,32.14-26.71,44.61-28.37,6.33-1.01,11.31-.45,14.6-.03,3.26.68,4.93,1.16,4.88,1.39-.06.76-7.01-1.31-19.01,1.2-11.77,2.33-28.86,10.53-41.22,28.53-12.48,17.7-16.81,45.15-10.61,73.3,3.09,14.03,8.02,28.73,16,42.02,7.87,13.21,20.13,24.85,35.62,29.18,15.43,4.52,31.62-1.04,43.55-10.54,12.2-9.44,20.92-22.19,27.13-35.09,12.34-26.09,13.49-53.42,8.85-74.62-4.38-21.41-15.91-36.39-26.02-42.85-10.27-6.67-17.77-5.98-17.6-6.77h0Z"/>
  <path class="st13" d="M4102.89,5102.38c-1.02.26-2.43-4.01-6.81-9.16-4.28-5.16-11.98-10.91-21.83-14-9.93-3.07-19.73-3.58-26.84-4.17-7.14-.51-11.65-1.09-11.69-2.03-.03-.9,4.37-1.99,11.64-2.67,7.24-.62,17.7-.93,28.9,2.52,11.25,3.51,19.78,10.92,23.65,17.63,4,6.75,3.74,11.79,2.97,11.88h0Z"/>
  <path class="st13" d="M4112.93,4874.76c.59.56-1.97,4.56-7.92,9.28-5.9,4.71-15.48,9.68-26.95,11.78-11.49,2.05-22.2.73-29.37-1.6-7.23-2.33-11.02-5.19-10.66-5.92.68-1.86,17.69,5.03,38.85.97,21.25-3.61,34.77-16,36.07-14.5h0Z"/>
  <path class="st13" d="M4991.61,3958.79c.11-.21,1.56.33,4.22,1.55,2.65,1.22,6.57,3.05,11.37,5.87,9.68,5.47,23.3,14.25,38.32,27.4,30.19,25.71,65.44,71.2,82.31,130.24,17.67,57.91,27.22,112.24,31.34,151.62,2.21,19.69,3.42,35.67,4.16,46.71.65,11.05.78,17.17.33,17.23-.46.03-1.47-6.01-2.91-16.98-1.65-12.25-3.75-27.8-6.24-46.37-5.31-39.14-15.48-92.67-33.06-150.32-16.52-57.73-50.19-102.42-79.08-128.62-28.92-26.66-51.5-37.12-50.76-38.32h0Z"/>
  <path class="st13" d="M4832.33,5366.39c37.07-1.41,66.69-38.37,103.72-36.4,27.48,1.47,50.93,28.39,48.6,55.82-2.32,27.41-29.95,50.01-57.29,46.84-38.91-4.52-61.68-50.13-99.85-58.88"/>
  <path class="st13" d="M5146.63,5397.96c-11.1,0-22.68-.96-34.7-2.87l2.02-12.64c45.82,7.36,84.27-.18,114.36-22.32,37.86-27.8,62.24-77.57,72.51-147.9l.4-2.68c4.18-27.86,9.96-574.8,9.98-678.64.02-162.2-142.37-184.34-148.43-185.19-5.76-1.07-135.18-22.68-203.84,154.47-71.9,185.51-186.83,543.03-194.44,584.94-.93,5.13-2.35,11.49-3.98,18.86-11.96,53.64-36.82,165.27,37.64,229.57,82.99,71.67,148.45,43.93,151.19,42.73l5.24,11.66c-3.05,1.35-75.29,32.59-164.8-44.73-80.23-69.28-54.25-185.96-41.76-242.03,1.6-7.16,2.99-13.36,3.88-18.35,7.68-42.24,123.03-401.26,195.12-587.27,72.63-187.46,216.4-162.77,217.83-162.47,1.31.18,159.18,24.34,159.15,197.82,0,85.54-5.69,650.95-10.13,680.54l-.39,2.64c-10.77,73.82-36.87,126.44-77.59,156.35-24.93,18.32-54.85,27.52-89.25,27.52h0Z"/>
  <path class="st13" d="M5317.6,4635.53c-1.69.58-3.74-27.28-26.63-63.75-11.4-18.01-28.21-37.54-50.54-54.72-22.39-17-50.44-31.52-82.12-38.81-63.9-14.68-124.61,1.25-161.89,21.11-38.16,19.86-55.21,41.59-56.27,40.32-.17-.15.82-1.5,2.9-3.93,2.18-2.32,5.01-6.17,9.57-10.2,8.59-8.6,22.52-19.69,41.58-30.34,19.01-10.69,43.57-20.27,72.06-25.39,28.38-5.18,60.9-5.69,93.55,1.95,32.69,7.53,61.55,22.68,84.36,40.44,22.76,17.94,39.65,38.35,50.81,57.11,11.1,18.86,17.07,35.71,19.72,47.59,1.72,5.84,2.02,10.62,2.58,13.76.43,3.16.55,4.84.32,4.87h0Z"/>
  <path class="st13" d="M5643.23,5657.83c-1.36.3-3.55-22.03-17.54-54.55-13.78-32.1-41.5-74.76-86.75-104.08-22.38-14.57-47.53-21.34-70.39-25.39-23.04-3.83-44.18-5.22-61.93-6.42-16.7-1.16-30.79-2.13-42.12-2.91-9.94-.91-15.42-1.66-15.4-2.12.03-.46,5.56-.59,15.52-.48,11.36.22,25.48.48,42.22.8,17.83.62,39.16,1.5,62.7,5.07,23.37,3.81,49.51,10.59,72.98,25.84,46.81,30.35,74.58,74.67,87.51,107.89,6.54,16.78,10.08,30.96,11.66,40.87,1.67,9.89,1.91,15.44,1.53,15.49h0Z"/>
  <path class="st9" d="M4998.19,5444.4s125.75-190.48,157.89-215.43c32.14-24.95,306.6-148.87,338.73-128.94,32.15,19.92,12.36,63.16,12.36,63.16,0,0,116.21-40.7,128.57-24.66,12.35,16.04,14.84,43.24,0,65.49,0,0,64.29-9.89,64.29,9.89s-7.41,44.5-37.09,66.76c-29.67,22.26-222.59,150.71-238.07,186.16l-62.5-3.79-364.19-18.64Z"/>
  <path class="st8" d="M5360.08,5389.93c-.36-.2,1.52-4.56,5.74-12,4.2-7.46,11.04-17.84,20.67-29.78,19.08-24,51-52.84,91.2-76.77,40.19-23.98,79.48-39.81,107.88-50.7,14.24-5.4,25.85-9.52,33.92-12.22,8.08-2.7,12.62-3.98,12.79-3.55.16.43-4.07,2.53-11.86,5.97-9.17,3.93-20.2,8.65-33.09,14.18-27.88,11.98-66.57,28.39-106.2,52.04-39.62,23.61-71.34,51.27-91.03,74.11-19.92,22.71-28.97,39.37-30.01,38.74h0Z"/>
  <path class="st8" d="M5200.56,5386.83c-.41-.22,1.79-5.18,6.09-14,4.34-8.8,10.72-21.48,19.35-36.79,8.73-15.24,19.65-33.28,34.66-51.32,7.73-8.95,15.53-18.11,26.34-26.11,10.61-7.14,21.79-13.87,33.33-20.71,46.3-27.05,89.96-48.5,122.77-61.23,16.33-6.54,30-10.66,39.5-13.23,9.62-2.16,14.96-3.14,15.07-2.69.27,1.13-20.85,6.03-52.78,20.27-32.07,13.74-75.14,35.73-121.18,62.62-11.44,6.79-22.66,13.48-33,20.36-9.53,6.88-17.91,16.25-25.36,24.68-14.9,17.38-26.1,34.94-35.29,49.75-8.37,14.11-15.43,26.03-21.13,35.64-5,8.44-7.97,13-8.37,12.77h0Z"/>
</svg>