<?xml version="1.0" encoding="UTF-8"?>
<svg id="Layer_1" xmlns="http://www.w3.org/2000/svg" version="1.1" viewBox="0 0 750 500">
  <!-- Generator: Adobe Illustrator 29.5.1, SVG Export Plug-In . SVG Version: 2.1.0 Build 141)  -->
  <defs>
    <style>
      .st0 {
        fill: #e0e0e0;
      }

      .st1 {
        fill: #ebebeb;
      }

      .st2 {
        fill: #4a9288;
      }

      .st3 {
        fill: #263238;
      }

      .st4 {
        fill: #606060;
      }

      .st5 {
        fill: #fafafa;
      }

      .st6 {
        opacity: .3;
      }

      .st7 {
        fill: #f5f5f5;
      }

      .st8 {
        fill: #455a64;
      }
    </style>
  </defs>
  <rect class="st0" x="226.58" y="315.41" width="6.57" height="138.85"/>
  <g id="freepik--background-complete--inject-137">
    <rect class="st7" x="172.25" y="285.28" width="93.47" height="177.16"/>
    <rect class="st7" x="352.1" y="252.1" width="114.18" height="211.2"/>
    <rect class="st0" x="453.19" y="336.39" width="5.67" height="119.9"/>
    <rect class="st0" x="443.01" y="336.39" width="5.67" height="119.9"/>
    <rect class="st0" x="432.83" y="336.39" width="5.67" height="119.9"/>
    <rect class="st0" x="422.65" y="336.39" width="5.67" height="119.9"/>
    <rect class="st0" x="412.97" y="336.39" width="5.67" height="119.9"/>
    <rect class="st0" x="403" y="336.39" width="5.67" height="119.9"/>
    <rect class="st0" x="392.82" y="336.39" width="5.67" height="119.9"/>
    <rect class="st0" x="382.01" y="336.39" width="5.67" height="119.9"/>
    <rect class="st0" x="371.83" y="336.39" width="5.67" height="119.9"/>
    <rect class="st0" x="361.92" y="336.39" width="5.67" height="119.9"/>
    <rect class="st0" x="452.84" y="265.97" width="5.67" height="63.21"/>
    <rect class="st0" x="442.66" y="265.97" width="5.67" height="63.21"/>
    <rect class="st0" x="432.48" y="265.97" width="5.67" height="63.21"/>
    <rect class="st0" x="422.29" y="265.97" width="5.67" height="63.21"/>
    <rect class="st0" x="412.61" y="265.97" width="5.67" height="63.21"/>
    <rect class="st0" x="402.65" y="265.97" width="5.67" height="63.21"/>
    <rect class="st0" x="392.46" y="265.97" width="5.67" height="63.21"/>
    <rect class="st0" x="381.07" y="265.97" width="5.67" height="63.21"/>
    <rect class="st0" x="370.89" y="265.97" width="5.67" height="63.21"/>
    <rect class="st0" x="361.23" y="265.97" width="5.67" height="63.21"/>
    <path class="st0" d="M352.31,464.3c-.13,0-.23-47.4-.23-105.87s.1-105.89.23-105.89.22,47.4.22,105.89-.1,105.87-.22,105.87Z"/>
    <rect class="st0" x="250.57" y="315.47" width="6.57" height="138.85"/>
    <rect class="st0" x="238.78" y="315.47" width="6.57" height="138.85"/>
    <rect class="st0" x="215.19" y="315.47" width="6.57" height="138.85"/>
    <rect class="st0" x="203.99" y="315.47" width="6.57" height="138.85"/>
    <rect class="st0" x="192.45" y="315.47" width="6.57" height="138.85"/>
    <rect class="st0" x="180.66" y="315.47" width="6.57" height="138.85"/>
    <rect class="st0" x="250.15" y="294" width="6.57" height="13.13"/>
    <rect class="st0" x="238.37" y="294" width="6.57" height="13.13"/>
    <rect class="st0" x="226.58" y="294" width="6.57" height="13.13"/>
    <rect class="st0" x="214.78" y="294" width="6.57" height="13.13"/>
    <rect class="st0" x="203.57" y="294" width="6.57" height="13.13"/>
    <rect class="st0" x="192.03" y="294" width="6.57" height="13.13"/>
    <rect class="st0" x="180.25" y="294" width="6.57" height="13.13"/>
    <rect class="st7" x="460.68" y="313.42" width="87.98" height="150.09"/>
    <rect class="st0" x="468.76" y="353.97" width="6.19" height="103.49"/>
    <rect class="st0" x="479.85" y="353.97" width="6.18" height="103.49"/>
    <rect class="st0" x="490.95" y="353.97" width="6.19" height="103.49"/>
    <rect class="st0" x="502.05" y="353.97" width="6.18" height="103.49"/>
    <rect class="st0" x="512.6" y="353.97" width="6.18" height="103.49"/>
    <rect class="st0" x="523.46" y="353.97" width="6.19" height="103.49"/>
    <rect class="st0" x="534.56" y="353.97" width="6.18" height="103.49"/>
    <rect class="st0" x="469.14" y="322.78" width="6.19" height="24.96"/>
    <rect class="st0" x="480.24" y="322.78" width="6.19" height="24.96"/>
    <rect class="st0" x="491.34" y="322.78" width="6.19" height="24.96"/>
    <rect class="st0" x="502.43" y="322.78" width="6.18" height="24.96"/>
    <rect class="st0" x="512.98" y="322.78" width="6.18" height="24.96"/>
    <rect class="st0" x="523.85" y="322.78" width="6.19" height="24.96"/>
    <rect class="st0" x="534.95" y="322.78" width="6.19" height="24.96"/>
    <rect class="st7" x="264.11" y="177.51" width="93.84" height="286.33"/>
    <rect class="st7" x="300.76" y="92.28" width="23.05" height="4.31"/>
    <rect class="st7" x="310.32" y="58.13" width="3.67" height="35.41"/>
    <rect class="st7" x="279.73" y="96.59" width="65.12" height="82.31"/>
    <rect class="st0" x="287.84" y="106.74" width="6.47" height="66.51"/>
    <rect class="st0" x="299.44" y="106.74" width="6.47" height="66.51"/>
    <rect class="st0" x="311.04" y="106.74" width="6.47" height="66.51"/>
    <rect class="st0" x="322.64" y="106.74" width="6.47" height="66.51"/>
    <rect class="st0" x="333.67" y="106.74" width="6.47" height="66.51"/>
    <rect class="st0" x="272.73" y="189.26" width="6.6" height="263.04"/>
    <rect class="st0" x="284.56" y="189.26" width="6.6" height="263.04"/>
    <rect class="st0" x="296.4" y="189.26" width="6.6" height="263.04"/>
    <rect class="st0" x="308.23" y="189.26" width="6.6" height="263.04"/>
    <rect class="st0" x="319.49" y="189.26" width="6.6" height="263.04"/>
    <rect class="st0" x="331.08" y="189.26" width="6.6" height="263.04"/>
    <rect class="st0" x="342.91" y="189.26" width="6.6" height="263.04"/>
    <path class="st7" d="M113.79,402c1.92-1.17,4-2.07,6.16-2.68l1.27-6.1,10.31-.18,1.47,5.96c2.19.54,4.29,1.36,6.26,2.46l5.21-3.42,7.41,7.17-3.23,5.32c1.16,1.93,2.07,4,2.68,6.17l6.1,1.27.18,10.3-6.05,1.49c-.54,2.18-1.36,4.29-2.46,6.25l3.42,5.21-7.16,7.42-5.36-3.19c-1.93,1.16-4,2.07-6.17,2.68l-1.27,6.1-10.3.18-1.49-6.05c-2.18-.54-4.29-1.36-6.25-2.46l-5.21,3.41-7.42-7.16,3.23-5.32c-1.16-1.93-2.07-4-2.68-6.17l-6.1-1.27-.18-10.31,6-1.48c.54-2.19,1.36-4.29,2.46-6.26l-3.41-5.21,7.16-7.41,5.33,3.23.09.05ZM119.28,415.73c-4.24,4.4-4.11,11.4.28,15.64,4.4,4.24,11.4,4.11,15.64-.28,4.24-4.4,4.11-11.4-.28-15.64-4.38-4.26-11.38-4.15-15.64.23,0,0,0,0,0,0v.05Z"/>
    <path class="st1" d="M683.29,284.63c.98-.59,2.02-1.04,3.12-1.35l.64-3.09,5.21-.09.75,3.06c1.1.27,2.17.69,3.16,1.24l2.64-1.72,3.75,3.62-1.64,2.7c.59.97,1.05,2.02,1.36,3.12l3.08.64.09,5.21-3.06.75c-.27,1.1-.68,2.17-1.24,3.16l1.73,2.63-3.62,3.75-2.7-1.63c-.97.59-2.02,1.05-3.11,1.36l-.64,3.08-5.21.09-.75-3.06c-1.11-.27-2.17-.69-3.17-1.24l-2.63,1.72-3.75-3.58,1.63-2.69c-.58-.97-1.04-2.02-1.35-3.11l-3.08-.65-.1-5.21,3.06-.75c.28-1.1.7-2.17,1.25-3.16l-1.71-2.68,3.6-3.75,2.69,1.63ZM686.07,291.57c-2.14,2.22-2.08,5.76.15,7.9,2.22,2.14,5.76,2.08,7.9-.15,2.14-2.22,2.08-5.76-.14-7.9-2.22-2.14-5.76-2.08-7.91.14Z"/>
    <path class="st1" d="M669.41,73.16c1.75-1.05,3.63-1.86,5.59-2.42l1.15-5.51,9.31-.16,1.34,5.46c1.97.49,3.87,1.24,5.65,2.23l4.7-3.09,6.7,6.47-2.94,4.86c1.05,1.74,1.86,3.61,2.42,5.57l5.51,1.15.16,9.28-5.47,1.34c-.48,1.97-1.23,3.87-2.22,5.64l3.09,4.71-6.47,6.7-4.81-2.92c-1.74,1.05-3.61,1.87-5.57,2.42l-1.15,5.51-9.31.17-1.34-5.47c-1.97-.49-3.87-1.23-5.65-2.22l-4.7,3.08-6.7-6.47,2.92-4.81c-1.05-1.74-1.87-3.61-2.42-5.57l-5.51-1.11-.17-9.31,5.48-1.39c.49-1.97,1.23-3.87,2.22-5.65l-3.08-4.71,6.47-6.7,4.81,2.92h0ZM674.41,85.56c-3.84,3.97-3.75,10.3.22,14.14,3.97,3.84,10.3,3.75,14.14-.22,3.84-3.97,3.75-10.3-.22-14.14,0,0-.01-.01-.02-.02-3.97-3.84-10.3-3.75-14.14.22,0,0-.01.01-.02.02h.04Z"/>
    <path class="st7" d="M660.74,132.15c.94-.56,1.95-1,3-1.29l.61-2.92,4.94-.09.72,2.9c1.05.26,2.06.66,3,1.19l2.5-1.64,3.56,3.43-1.55,2.56c.56.94,1,1.95,1.29,3l2.92.61.09,4.95-2.9.71c-.26,1.05-.66,2.06-1.19,3l1.64,2.5-3.43,3.56-2.6-1.62c-.94.57-1.95,1-3,1.29l-.61,2.93-4.95.08-.71-2.9c-1.05-.26-2.06-.66-3-1.18l-2.5,1.63-3.56-3.43,1.55-2.56c-.57-.94-1-1.94-1.29-3l-2.93-.61-.08-4.94,2.9-.72c.26-1.05.66-2.05,1.18-3l-1.64-2.5,3.44-3.56,2.56,1.55.04.07ZM663.38,138.74c-2.04,2.11-1.99,5.47.12,7.51s5.47,1.99,7.51-.12c2.04-2.11,1.99-5.47-.12-7.51,0,0,0,0,0,0-2.11-2.03-5.46-1.97-7.5.13h0Z"/>
    <path class="st7" d="M108.85,68.55c.94-.57,1.95-1,3-1.29l.61-2.93,5-.08.71,2.9c1.05.26,2.06.66,3,1.18l2.5-1.64,3.56,3.44-1.55,2.56c.57.94,1,1.94,1.29,3l2.93.61.08,4.94-2.9.72c-.26,1.05-.66,2.05-1.18,3l1.64,2.5-3.54,3.54-2.56-1.55c-.94.56-1.95.99-3,1.28l-.61,2.93-4.94.09-.72-2.91c-1.05-.25-2.06-.65-3-1.18l-2.5,1.64-3.56-3.43,1.55-2.56c-.56-.94-.99-1.95-1.28-3l-2.93-.61-.09-5,2.91-.71c.25-1.05.65-2.06,1.18-3l-1.64-2.5,3.48-3.49,2.56,1.55ZM111.49,75.14c-2.03,2.11-1.97,5.47.14,7.51s5.47,1.97,7.51-.14c2.03-2.11,1.97-5.47-.14-7.51-2.11-2.04-5.47-1.97-7.51.14,0,0,0,0,0,0Z"/>
    <path class="st7" d="M68.8,408.11c.94-.56,1.95-.99,3-1.28l.61-2.93,4.95-.09.71,2.91c1.05.25,2.06.65,3,1.18l2.5-1.64,3.56,3.43-1.55,2.56c.57.94,1,1.95,1.29,3l2.93.61.08,4.95-2.9.71c-.26,1.05-.66,2.06-1.18,3l1.6,2.48-3.4,3.54-2.6-1.54c-.94.57-1.94,1-3,1.29l-.61,2.93-4.94.08-.72-2.9c-1.05-.26-2.05-.66-3-1.18l-2.5,1.64-3.56-3.44,1.55-2.56c-.56-.94-.99-1.95-1.28-3l-2.93-.61-.09-4.94,2.91-.72c.25-1.05.65-2.06,1.18-3l-1.64-2.5,3.43-3.56,2.56,1.55.04.03ZM71.44,414.7c-2.04,2.11-1.98,5.47.13,7.51s5.47,1.98,7.51-.13c2.04-2.11,1.98-5.47-.13-7.51-2.11-2.04-5.47-1.98-7.51.13,0,0,0,0,0,0h0Z"/>
    <path class="st5" d="M599.5,400.32c1.25-.76,2.59-1.34,4-1.73l.82-3.95,6.66-.11.95,3.91c1.42.33,2.79.86,4.07,1.56l3.36-2.21,4.79,4.63-2.15,3.47c.75,1.25,1.33,2.6,1.73,4l3.94.82.11,6.66-3.91,1c-.35,1.4-.88,2.74-1.59,4l2.21,3.36-4.62,4.79-3.45-2.08c-1.25.75-2.6,1.33-4,1.73l-.82,3.94-6.66.12-1-3.91c-1.4-.36-2.74-.89-4-1.59l-3.36,2.2-4.79-4.62,2.08-3.44c-.75-1.25-1.33-2.6-1.73-4l-3.94-.82-.11-6.66,3.91-.95c.35-1.4.88-2.75,1.59-4l-2.16-3.44,4.62-4.79,3.45,2.09v.02ZM603.05,409.19c-2.74,2.84-2.65,7.36.18,10.1,2.84,2.74,7.36,2.65,10.1-.18,2.74-2.84,2.65-7.35-.18-10.09-2.83-2.74-7.34-2.67-10.08.16l-.02.02Z"/>
    <path class="st1" d="M69.39,103.11c1.79-1.08,3.71-1.91,5.72-2.49l1.18-5.62,9.56-.17,1.38,5.62c2.01.49,3.96,1.24,5.77,2.24l4.83-3.17,6.88,6.65-3,4.94c1.08,1.79,1.91,3.71,2.48,5.72l5.71,1.17.17,9.57-5.62,1.43c-.5,2.03-1.26,3.98-2.28,5.81l3.17,4.83-6.64,6.88-5-3c-1.78,1.08-3.7,1.91-5.7,2.48l-1.18,5.67-9.56.16-1.38-5.61c-2.03-.5-3.98-1.27-5.8-2.29l-4.84,3.17-6.88-6.64,3-4.95c-1.09-1.78-1.93-3.71-2.49-5.72l-5.66-1.17-.14-9.62,5.62-1.38c.5-2.03,1.26-3.98,2.28-5.8l-3.17-4.82,6.65-6.88,4.94,3h0ZM74.49,115.85c-3.94,4.08-3.84,10.58.24,14.52,4.08,3.94,10.58,3.84,14.52-.24,3.94-4.08,3.84-10.58-.24-14.52h-.01c-4.07-3.95-10.57-3.84-14.51.24,0,0,0,0,0,0Z"/>
    <path class="st1" d="M76.77,249.34c2.57-1.54,5.32-2.74,8.2-3.57l1.69-8.06,13.71-.24,1.98,8.06c2.89.7,5.67,1.78,8.27,3.21l6.93-4.55,9.87,9.54-4.3,7.08c1.54,2.56,2.74,5.32,3.56,8.2l8.19,1.68.24,13.72-8.06,2.05c-.71,2.91-1.81,5.71-3.27,8.33l4.55,6.93-9.52,9.87-7.17-4.3c-2.55,1.54-5.3,2.74-8.17,3.56l-1.69,8.13-13.71.23-1.98-8.04c-2.91-.72-5.7-1.83-8.32-3.28l-6.94,4.55-9.87-9.52,4.3-7.1c-1.56-2.56-2.76-5.32-3.57-8.2l-8.12-1.68-.2-13.79,8.06-1.98c.71-2.91,1.81-5.7,3.27-8.32l-4.55-6.91,9.54-9.87,7.08,4.3h0ZM84.08,267.61c-5.66,5.84-5.5,15.17.34,20.82,5.84,5.66,15.17,5.5,20.82-.34,5.66-5.84,5.5-15.17-.34-20.82l-.02-.02c-5.84-5.65-15.16-5.49-20.8.36,0,0,0,0,0,0Z"/>
    <path class="st1" d="M464.6,28.43c2.13.12,4.24.53,6.26,1.2l4.24-4.06,8.16,5.37-2.08,5.54c1.42,1.57,2.62,3.33,3.58,5.22l5.9.11,1.97,9.58-5.38,2.44c-.12,2.13-.53,4.23-1.21,6.26l4.14,4.28-5.38,8.17-5.57-2.04c-1.59,1.43-3.36,2.63-5.28,3.59l-.11,5.9-9.57,1.97-2.49-5.42c-2.12-.12-4.22-.52-6.24-1.2l-4.27,4.1-8.16-5.38,2.07-5.53c-1.42-1.59-2.62-3.37-3.57-5.28l-5.91-.12-1.97-9.57,5.39-2.45c.11-2.13.51-4.24,1.2-6.26l-4.1-4.25,5.43-8.2,5.54,2.08c1.59-1.42,3.36-2.63,5.27-3.58l.11-5.9,9.58-1.97,2.44,5.38h0ZM461.55,42.12c-5.68,1.16-9.34,6.71-8.18,12.39,1.16,5.68,6.71,9.34,12.39,8.18,5.68-1.16,9.34-6.71,8.18-12.39v-.02c-1.17-5.67-6.71-9.33-12.39-8.16,0,0,0,0,0,0Z"/>
    <path class="st1" d="M685.89,372.05c1.86-1.12,3.85-1.98,5.94-2.57l1.22-5.88,9.91-.17,1.43,5.82c2.1.51,4.12,1.31,6.01,2.36l5.02-3.27,7.13,6.89-3.12,5.14c1.13,1.85,2,3.85,2.59,5.94l5.86,1.22.17,9.91-5.82,1.43c-.51,2.1-1.3,4.12-2.36,6.01l3.29,5-6.89,7.13-5.14-3.1c-1.85,1.13-3.84,2-5.92,2.59l-1.22,5.86-9.91.17-1.43-5.82c-2.11-.51-4.13-1.31-6.03-2.36l-5,3.27-7.13-6.81,3.1-5.12c-1.11-1.85-1.97-3.84-2.57-5.92l-5.86-1.24-.19-9.91,5.82-1.43c.52-2.1,1.32-4.12,2.38-6.01l-3.25-5.1,6.85-7.13,5.12,3.1ZM691.18,385.26c-4.08,4.23-3.95,10.96.28,15.04,4.23,4.08,10.96,3.95,15.04-.28,4.07-4.23,3.95-10.95-.27-15.03-4.23-4.08-10.96-3.96-15.05.27Z"/>
  </g>
  <g id="freepik--Scales--inject-137">
    <polygon class="st3" points="333.71 370.41 263.06 139.53 182.21 369.44 181.27 369.11 263.13 136.33 334.66 370.12 333.71 370.41"/>
    <path class="st2" d="M181.74,369.27s18.71,20.87,50.15,20.88,58.51,0,58.51,0c0,0,30.05-1.77,43.78-19.88l-152.44-1Z"/>
    <polygon class="st3" points="567.78 374.13 497.14 143.25 416.29 373.16 415.34 372.82 497.2 140.04 568.74 373.84 567.78 374.13"/>
    <path class="st2" d="M415.82,373s18.7,20.86,50.15,20.88,58.51,0,58.51,0c0,0,30-1.77,43.78-19.88l-152.44-1Z"/>
    <rect class="st2" x="236.15" y="135.26" width="291.71" height="7.33"/>
    <path class="st2" d="M305.33,464.45v-7.34s20.21-2.45,27.3-21.15c.46,1.07,31.51-14.12,32.9-33.82h11.83v62.31h-72.03Z"/>
    <path class="st2" d="M447.19,464.45v-7.34s-20.19-2.45-27.31-21.11c-.45,1.07-31.51-14.12-32.89-33.82h-11.83v62.31l72.03-.04Z"/>
    <g class="st6">
      <path d="M388.78,405.84l-24.78,2.76c-.14,1.94.66,3.82,2.15,5.07,1.46,1.18,3.17,2.01,5,2.42,3.85,1,8.07,1.24,11.68-.47s6.41-5.69,5.95-9.78Z"/>
    </g>
    <ellipse class="st8" cx="375.89" cy="397.42" rx="15.93" ry="16.49"/>
    <polygon class="st2" points="375.89 391.04 351.28 358.03 369.43 332.41 363.58 323.11 369.61 151.39 375.89 151.39 375.89 391.04"/>
    <polygon class="st2" points="375.89 391.04 400.5 358.03 382.35 332.41 388.2 323.11 382.17 151.39 375.89 151.39 375.89 391.04"/>
    <path class="st8" d="M388.86,139.92c-.24,7.18-6.25,12.8-13.42,12.56s-12.8-6.25-12.56-13.42c.23-7.01,5.98-12.57,12.99-12.57,7.29.11,13.11,6.11,13,13.4v.03Z"/>
    <path class="st4" d="M388.86,139.92c-.09-1.08-.26-2.15-.49-3.2-.71-2.87-2.35-5.43-4.66-7.27-1.58-1.25-3.44-2.11-5.42-2.5-2.28-.44-4.63-.23-6.8.6-1.17.44-2.26,1.06-3.24,1.84-1.03.79-1.93,1.75-2.66,2.82-.77,1.11-1.37,2.32-1.78,3.61-.85,2.66-.85,5.53,0,8.19.4,1.29,1,2.51,1.78,3.61.73,1.07,1.63,2.03,2.66,2.82.97.78,2.07,1.4,3.24,1.84,2.17.83,4.52,1.04,6.8.61,1.98-.39,3.84-1.25,5.42-2.51,2.31-1.84,3.95-4.39,4.66-7.26.23-1.06.4-2.12.49-3.2.02.28.02.56,0,.84,0,.33-.02.67-.07,1-.05.46-.12.93-.23,1.38-.66,2.94-2.29,5.58-4.63,7.49-1.62,1.32-3.53,2.23-5.57,2.65-2.36.47-4.8.26-7.05-.59-1.22-.45-2.35-1.09-3.37-1.89-1.07-.82-2.01-1.81-2.77-2.92-.81-1.14-1.43-2.4-1.85-3.74-.88-2.76-.88-5.74,0-8.5.42-1.34,1.04-2.6,1.85-3.74.78-1.11,1.74-2.09,2.83-2.9,1.02-.8,2.15-1.44,3.37-1.89,2.25-.85,4.69-1.06,7.05-.59,5.08,1.11,9.06,5.06,10.2,10.14.1.46.18.92.23,1.38.05.33.07.67.07,1,0,.29-.01.59-.06.88Z"/>
    <g class="st6">
      <polygon points="363.58 323.11 388.2 323.11 382.35 332.41 369.43 332.41 363.58 323.11"/>
    </g>
    <path class="st3" d="M387.56,323.14s.2-.05.64-.08v.16c-1.54.1-6.26.17-11.83.17-3.44,0-6.55,0-8.81-.07-1.12,0-2-.05-2.67-.08-.34.02-.67-.02-1-.1.33-.08.66-.12,1-.1.63,0,1.55-.06,2.67-.08,2.26,0,5.37-.07,8.81-.07,5.57,0,10.29.07,11.83.17v.16c-.44-.03-.64-.05-.64-.08Z"/>
    <path class="st3" d="M382,332.21s.11,0,.34-.07v.15c-.83.1-3.37.18-6.36.18-2.24.08-4.48,0-6.7-.26,2.23-.24,4.48-.31,6.72-.21,3,0,5.53.07,6.36.17v.16c-.23-.07-.36-.09-.36-.12Z"/>
    <g class="st6">
      <path d="M351.28,358l18.15,24.31c4.19-1.45,8.76-1.45,12.95,0l18.12-24.31h-49.22Z"/>
    </g>
    <path class="st3" d="M400.5,358.1c0,.14-11,.26-24.58.26s-24.6-.12-24.6-.26,11-.25,24.6-.25,24.58.15,24.58.25Z"/>
    <path class="st3" d="M382.72,382.36c-2.2-.54-4.45-.82-6.72-.83-3.75.1-6.71,1-6.75.83.6-.32,1.24-.54,1.9-.66,1.58-.42,3.21-.65,4.85-.7,1.64-.05,3.28.15,4.86.58.66.14,1.29.41,1.86.78Z"/>
    <path class="st3" d="M390.22,404.87c-.12.42-.29.81-.52,1.18-.56,1.03-1.23,1.99-2,2.87-1.15,1.3-2.5,2.42-4,3.3-1.87,1.07-3.93,1.75-6.06,2-2.15.24-4.32.03-6.38-.61-1.67-.51-3.26-1.29-4.68-2.31-.96-.68-1.84-1.47-2.61-2.36-.29-.3-.55-.64-.77-1,1.09,1.14,2.29,2.17,3.58,3.09,3.17,2.15,6.99,3.11,10.8,2.72,3.79-.51,7.29-2.31,9.9-5.1,1.03-1.17,1.95-2.44,2.74-3.78Z"/>
    <path class="st3" d="M419.88,435.82c0,.14-19.5.26-43.55.26s-43.55-.12-43.55-.26,19.5-.25,43.55-.25,43.55.11,43.55.25Z"/>
    <path class="st3" d="M446.82,457.13c0,.14-31.76.25-70.93.25s-70.93-.11-70.93-.25,31.75-.26,70.93-.26,70.93.13,70.93.26Z"/>
    <circle class="st8" cx="262.65" cy="136.68" r="9.39" transform="translate(45.05 337.47) rotate(-70.19)"/>
    <path class="st3" d="M271.84,134.81c-.07,0-.19-.82-.84-2.15-.93-1.87-2.46-3.37-4.35-4.27-2.81-1.35-6.12-1.18-8.77.46-.75.46-1.42,1.02-2,1.68-.62.68-1.12,1.45-1.5,2.29-1.69,3.61-.83,7.91,2.13,10.58.67.63,1.44,1.14,2.27,1.53.79.38,1.64.64,2.51.77,5.06.76,9.78-2.73,10.54-7.79.04-.27.07-.53.09-.8.08-1.48-.13-2.3-.06-2.3.21.75.3,1.53.26,2.31-.14,3.72-2.43,7.02-5.87,8.44-1.58.65-3.31.86-5,.61-.92-.13-1.81-.4-2.65-.79-.88-.4-1.69-.94-2.4-1.6-3.14-2.82-4.05-7.36-2.26-11.17.4-.88.94-1.7,1.6-2.41.62-.69,1.34-1.28,2.14-1.76,2.79-1.69,6.26-1.84,9.18-.38,1.93.96,3.48,2.55,4.38,4.51.32.71.52,1.47.6,2.24Z"/>
    <circle class="st8" cx="497.16" cy="141.77" r="9.39" transform="translate(99.54 472.16) rotate(-55.64)"/>
    <path class="st3" d="M506.35,139.9c-.07,0-.19-.81-.84-2.14-.93-1.87-2.46-3.38-4.35-4.27-1.29-.62-2.71-.93-4.14-.9-1.64.04-3.23.51-4.63,1.36-1.55.95-2.77,2.34-3.52,4-1.67,3.61-.8,7.87,2.13,10.55.67.63,1.44,1.14,2.27,1.52.79.39,1.64.65,2.52.77,1.62.25,3.27.07,4.79-.54,1.33-.53,2.52-1.36,3.47-2.42,1.39-1.56,2.22-3.54,2.36-5.63.08-1.47-.13-2.29-.06-2.3.21.75.3,1.53.26,2.31-.06,2.16-.87,4.23-2.29,5.86-.97,1.13-2.2,2.02-3.58,2.58-1.58.65-3.31.87-5,.62-1.86-.29-3.6-1.12-5-2.39-3.14-2.82-4.06-7.36-2.26-11.18.4-.88.94-1.69,1.6-2.4.62-.69,1.34-1.28,2.14-1.76,2.79-1.69,6.25-1.84,9.18-.39,1.94.96,3.49,2.55,4.38,4.52.3.71.5,1.46.57,2.23Z"/>
  </g>
  <path class="st1" d="M629.19,225.92c2.13.12,4.24.53,6.26,1.2l4.24-4.06,8.16,5.37-2.08,5.54c1.42,1.57,2.62,3.33,3.58,5.22l5.9.11,1.97,9.58-5.38,2.44c-.12,2.13-.53,4.23-1.21,6.26l4.14,4.28-5.38,8.17-5.57-2.04c-1.59,1.43-3.36,2.63-5.28,3.59l-.11,5.9-9.57,1.97-2.49-5.42c-2.12-.12-4.22-.52-6.24-1.2l-4.27,4.1-8.16-5.38,2.07-5.53c-1.42-1.59-2.62-3.37-3.57-5.28l-5.91-.12-1.97-9.57,5.39-2.45c.11-2.13.51-4.24,1.2-6.26l-4.1-4.25,5.43-8.2,5.54,2.08c1.59-1.42,3.36-2.63,5.27-3.58l.11-5.9,9.58-1.97,2.44,5.38h0ZM626.14,239.61c-5.68,1.16-9.34,6.71-8.18,12.39,1.16,5.68,6.71,9.34,12.39,8.18,5.68-1.16,9.34-6.71,8.18-12.39v-.02c-1.17-5.67-6.71-9.33-12.39-8.16,0,0,0,0,0,0Z"/>
</svg>