<?xml version="1.0" encoding="UTF-8"?>
<svg id="Layer_1" xmlns="http://www.w3.org/2000/svg" version="1.1" viewBox="0 0 750 500">
  <!-- Generator: Adobe Illustrator 30.0.0, SVG Export Plug-In . SVG Version: 2.1.1 Build 123)  -->
  <defs>
    <style>
      .st0 {
        fill: #e0e0e0;
      }

      .st1 {
        fill: #a36957;
      }

      .st2 {
        fill: #ebebeb;
      }

      .st3 {
        fill: #263238;
      }

      .st4 {
        fill: #7c3b29;
      }

      .st5 {
        fill: #fff;
      }

      .st6 {
        fill: #619bb7;
      }

      .st7 {
        fill: #fafafa;
      }

      .st8 {
        opacity: .78;
      }

      .st9 {
        opacity: .2;
      }

      .st10 {
        opacity: .3;
      }

      .st11 {
        fill: #f5f5f5;
      }

      .st12 {
        fill: #cc8f75;
      }

      .st13 {
        fill: #455a64;
      }

      .st14 {
        fill: #ffd1bd;
      }
    </style>
  </defs>
  <g id="freepik--background-complete--inject-64">
    <rect class="st2" x="120.79" y="228.72" width="63.04" height="63.04" rx="6.37" ry="6.37" transform="translate(-51.09 37.64) rotate(-12.08)"/>
    <path class="st5" d="M174.63,266.18c-.05-.48-.17-.94-.38-1.37l-.17-.43c-1.11-1.96-2.78-3.53-4.8-4.52-1.82-.98-3.75-1.73-5.76-2.22l-.25-.06c-.16-.04-.33.03-.41.17l-3.91,6.69-14.35-9.2,3.91-7.23c.04-.09.04-.2,0-.29-.03-.1-.1-.18-.2-.22l-3.29-1.58c-.54-.25-.88-.41-1.1-.48-.1-.07-.21-.12-.32-.17l-.19-.1c-.24-.13-.49-.23-.74-.32-1.25-.46-2.59-.66-3.92-.6-2.14.1-4.19.88-5.86,2.23-2.27,1.8-3.57,4.55-3.52,7.45.08,1.73.84,3.37,2.12,4.54.64.58,1.34,1.09,2.09,1.53l21.83,14c.27.16.54.34.81.51.64.43,1.31.83,2,1.19,1.03.53,2.13.92,3.27,1.15.78.16,1.57.24,2.37.24,1.59,0,3.16-.35,4.61-1,2.21-.98,4.01-2.69,5.11-4.84.28-.52.51-1.06.68-1.63l.09-.29c.18-.46.28-.95.31-1.45l.06-.94-.09-.76ZM147.28,248.18l-4.1,7.23c-.1.17-.05.39.11.5l15.8,10.36c.08.06.19.08.29.05.1-.02.19-.08.24-.17l4.07-6.89c1.7.47,3.34,1.14,4.88,2,1.73.86,3.17,2.19,4.16,3.85.05.14.1.28.16.42.15.29.23.61.26.94l.11.65-.07.8c-.02.37-.1.73-.23,1.08l-.1.31c-.14.48-.34.94-.58,1.38-.96,1.83-2.51,3.28-4.39,4.12-1.92.83-4.04,1.05-6.09.63-1-.2-1.97-.54-2.88-1-.63-.32-1.26-.73-1.87-1.12l-.82-.52-21.88-13.89c-.68-.4-1.32-.85-1.91-1.37-1.04-.93-1.67-2.23-1.75-3.62-.04-2.51,1.06-4.9,3-6.5,1.47-1.21,3.27-1.94,5.17-2.09h.67c1.31-.02,2.61.24,3.82.75l.33.13c.2.13.52.3,1,.56l2.6,1.41Z"/>
    <path class="st5" d="M154.01,250.34c1.48-.11,2.95-.35,4.39-.7.84,4.22,1.15,4.67,1.46,4.67h.12c.35-.07.63-.13-.27-4.92,4.88-1.06,4.84-1.34,4.78-1.69h0c-.02-.11-.09-.2-.18-.26-.28-.19-1.92,0-4.86.64-.56-2.85-1-4.4-1.27-4.59-.18-.12-.43-.07-.56.1-.19.28,0,1.89.53,4.76-4.49,1-4.67,1.3-4.74,1.42-.05.11-.05.22,0,.33.03.12.07.24.6.24Z"/>
    <rect class="st0" x="502.71" y="52.86" width="109.21" height="180.77"/>
    <rect class="st2" x="499.08" y="52.86" width="109.21" height="180.77"/>
    <rect class="st7" x="503.73" y="56.53" width="99.91" height="173.44"/>
    <rect class="st2" x="522.75" y="79.07" width="61.43" height="128.36"/>
    <path class="st0" d="M522.75,162.01c-.14-12,10.64-23.7,22.51-25.38,5.67-.79,11.68.33,17-1.84,9.45-3.87,12.45-16.42,21.95-20.14l.44,92.78h-61.9v-45.42Z"/>
    <rect class="st0" x="318.51" y="52.52" width="84" height="87.57"/>
    <rect class="st7" x="312.82" y="52.52" width="84" height="87.57"/>
    <path class="st0" d="M396.85,140.11h-84.06V52.49h84.06v87.62ZM312.85,140.11h83.95V52.55h-83.95v87.56Z"/>
    <rect class="st7" x="324.11" y="64.29" width="61.42" height="64.02"/>
    <path class="st0" d="M324.11,128.79c-.43.65-.94,1.24-1.51,1.76-1,1-2.36,2.44-3.91,4s-3,2.88-4,3.84c-.53.56-1.13,1.05-1.77,1.48.43-.65.93-1.24,1.5-1.76,1-1,2.37-2.44,3.92-4s3-2.89,4-3.85c.53-.56,1.12-1.05,1.77-1.47Z"/>
    <path class="st0" d="M385.53,128.58c.64.44,1.24.95,1.76,1.52,1,1,2.44,2.36,4,3.9s2.88,3,3.84,4c.56.54,1.05,1.13,1.48,1.78-.64-.44-1.23-.94-1.76-1.51-1-1-2.43-2.36-4-3.91s-2.89-3-3.85-4c-.56-.53-1.05-1.13-1.47-1.78Z"/>
    <path class="st0" d="M385.35,64.46c.44-.64.95-1.23,1.52-1.76,1-1,2.36-2.44,3.9-4s3-2.88,4-3.84c.54-.56,1.13-1.05,1.78-1.48-.43.64-.94,1.23-1.51,1.76-1,1-2.36,2.44-3.91,4s-3,2.89-4,3.85c-.53.56-1.13,1.05-1.78,1.47Z"/>
    <path class="st0" d="M323.94,64.62c-.64-.44-1.23-.95-1.76-1.52-1-1-2.43-2.36-4-3.9s-2.87-3-3.84-4c-.56-.53-1.06-1.13-1.47-1.78.64.43,1.23.94,1.75,1.51,1,1,2.44,2.36,4,3.91s2.88,3,3.84,4c.57.53,1.06,1.13,1.48,1.78Z"/>
    <path class="st0" d="M385.35,128.31v-4.66c0-3,0-7.44-.06-13,0-11.22-.07-27.19-.12-46.32l.23.24h-61.24l.27-.27v64l-.24-.23,44.35.12,12.46.06h4.35c-.09.01-.18.01-.27,0h-4.08l-12.4.06-44.5.12h-.23V63.92h61.76v.24c-.05,19.19-.09,35.22-.12,46.47,0,5.58-.05,10-.06,13v4.28c-.01.14-.05.27-.1.4Z"/>
    <rect class="st2" x="344.57" y="86.06" width="20.49" height="20.49"/>
    <polygon class="st0" points="513.03 421.24 509.79 454.53 492.6 454.53 489.22 421.24 513.03 421.24"/>
    <rect class="st2" x="487.18" y="418.8" width="28.42" height="2.44"/>
    <polygon class="st2" points="510.19 414.61 513.03 419.35 490.43 419.35 491.52 414.61 510.19 414.61"/>
    <polygon class="st11" points="511.94 432.45 510.78 444.33 491.56 444.33 490.35 432.45 511.94 432.45"/>
    <path class="st7" d="M498.68,441.73c.01-1.04.32-2.06.89-2.94.48-.74,1.06-1.38,1.53-2,.44-.56.78-1.19,1-1.87.08-.27.13-.55.15-.83l.13.07c.68.47,1.13,1.19,1.26,2,.13.79.1,1.6-.11,2.37-.17.94-.61,1.81-1.25,2.52-.79.78-1.91,1.12-3,.93-.21-.06-.41-.14-.6-.25Z"/>
    <path class="st7" d="M497.22,439.12c.04-1.07.25-2.12.61-3.12.38-1.02,1.23-1.8,2.28-2.1.54-.15,1.12-.13,1.65.07-.04.29-.1.57-.2.84-.24.64-.58,1.23-1,1.76-.47.62-1.06,1.26-1.56,2-.49.73-.79,1.57-.88,2.45,0,.18,0,.35,0,.53-.27-.16-.5-.39-.66-.66-.24-.56-.33-1.17-.24-1.77Z"/>
    <rect class="st0" x="125.14" y="91.3" width="73.87" height="70.86" transform="translate(34.98 288.52) rotate(-89.87)"/>
    <rect class="st13" x="120.34" y="91.28" width="73.87" height="70.86" transform="translate(30.21 283.69) rotate(-89.87)"/>
    <path class="st11" d="M192.65,163.74l-70.9-.16.17-73.91,70.9.16-.17,73.91Z"/>
    <rect class="st5" x="130.27" y="100.8" width="54.01" height="51.81" transform="translate(30.22 283.7) rotate(-89.87)"/>
    <path class="st0" d="M131.35,154.01c-.37.54-.8,1.04-1.28,1.48-.83.87-2,2-3.31,3.33s-2.5,2.43-3.39,3.24c-.44.48-.95.89-1.5,1.24.36-.54.78-1.03,1.25-1.48.83-.87,2-2,3.31-3.33s2.51-2.43,3.39-3.24c.46-.47.97-.89,1.53-1.24Z"/>
    <path class="st0" d="M183.13,154c.54.37,1.04.8,1.48,1.28.87.83,2,2,3.33,3.3s2.42,2.51,3.23,3.39c.47.45.89.96,1.25,1.5-.55-.36-1.04-.78-1.48-1.27-.87-.83-2-2-3.34-3.31s-2.43-2.52-3.24-3.4c-.47-.45-.88-.95-1.23-1.49Z"/>
    <path class="st0" d="M183.11,99.91c.35-.54.77-1.04,1.24-1.49.83-.87,2-2.05,3.3-3.33s2.51-2.42,3.39-3.23c.45-.47.95-.89,1.5-1.24-.34.54-.74,1.03-1.19,1.47-.83.88-2,2.06-3.31,3.34s-2.51,2.43-3.4,3.24c-.46.47-.97.89-1.53,1.24Z"/>
    <path class="st0" d="M131.35,99.92c-.54-.37-1.04-.8-1.48-1.28-.88-.83-2-2-3.34-3.3s-2.47-2.52-3.28-3.39c-.47-.45-.89-.95-1.24-1.5.54.36,1.04.79,1.48,1.27.87.83,2,2,3.33,3.31s2.43,2.51,3.24,3.4c.49.44.92.94,1.29,1.49Z"/>
    <path class="st0" d="M182.99,153.82c0-.09,0-.17,0-.26v-53.74l.2.2-51.74-.15h0l.23-.22c-.06,19.82-.11,38.36-.16,54l-.19-.2,37.41.19,10.51.08h2.78l-2.68.1h-48.2v-.2c0-15.64.06-34.18.09-54v-.23h.24l51.66.14h.2v.2c-.08,16.19-.15,29.71-.19,39.2,0,4.71-.06,8.41-.08,11v3.61c0,.18-.08.28-.08.28Z"/>
    <path class="st11" d="M147.7,141.32c-3.91-4.2-4.11-10.64-.48-15.08,1.45-1.64,3.36-2.85,4.7-4.58,2.9-3.76,2.87-9.69,6.9-12.21,2.93-1.83,7.14-.77,9.28,1.95,2.05,2.88,2.39,6.64.9,9.85-1,2.34-2.82,4.33-3.55,6.77s-.34,5.25-1.1,7.8c-1,3-4.14,4.91-7.1,6-3.12,1.03-6.52.87-9.53-.45"/>
    <path class="st0" d="M162.35,116.48c-.13.49-.3.96-.51,1.42-.34.91-.89,2.21-1.61,3.79-1.89,4.13-4.04,8.14-6.43,12-2.4,3.83-5.05,7.5-7.92,11-1.11,1.35-2,2.41-2.69,3.13-.33.38-.68.75-1.06,1.08.27-.43.58-.83.92-1.2.62-.75,1.5-1.85,2.57-3.21,2.77-3.55,5.35-7.24,7.73-11.06,2.38-3.84,4.56-7.81,6.53-11.88.75-1.56,1.35-2.83,1.75-3.72.2-.47.44-.92.72-1.35Z"/>
    <path class="st0" d="M151.59,125.82c.21.9.35,1.81.41,2.73.2,1.71.45,4.08.7,6.77l-.35-.19,1.12-.65c2.59-1.51,5-2.85,6.67-3.8.91-.55,1.85-1.03,2.83-1.45-.83.65-1.7,1.23-2.62,1.74-1.67,1-4,2.41-6.6,3.91l-1.12.65-.31.18v-.36c-.24-2.68-.43-5.07-.55-6.78-.13-.91-.19-1.83-.18-2.75Z"/>
    <path class="st0" d="M165.21,121.82c-.54.4-1.13.73-1.75,1-1.11.55-2.64,1.27-4.36,2l-.53.24-.28.13v-.3c-.26-1.73-.48-3.27-.61-4.38-.11-.6-.15-1.2-.12-1.81.22.57.36,1.16.43,1.76.22,1.1.49,2.63.76,4.36l-.4-.13.53-.24c1.71-.78,3.27-1.46,4.41-1.93.61-.3,1.26-.54,1.92-.7Z"/>
  </g>
  <g id="freepik--Plant--inject-64">
    <path class="st6" d="M226.48,366.04c4.71-2.43,10.25-2.75,15.48-1.88,2.81.46,5.74,1.3,7.65,3.41s2.28,5.83.08,7.64c-1.42.95-3.12,1.39-4.82,1.23-4.1,0-8.64-.77-11.91,1.69-1.86,1.41-3.11,3.74-5.34,4.43-2.29.53-4.66-.52-5.8-2.58-1.07-2.05-1.3-4.43-.66-6.65.54-3.13,2.51-5.82,5.32-7.29Z"/>
    <path class="st6" d="M215.68,345.21c2.88,4.11,8.48,2.75,11.08.24s3.69-6.15,4.69-9.62c2.28-7.93,4.58-16.25,2.89-24.32-.41-2.45-1.49-4.74-3.11-6.62-1.68-1.88-4.22-2.72-6.69-2.22-2.82.74-4.58,3.51-5.85,6.14-3.73,7.76-5.69,16.26-5.72,24.88,0,4,.45,8.21,2.71,11.52"/>
    <path class="st6" d="M207.78,351.11c3.12-3.71,3.72-9.12,2.32-13.77s-4.53-8.61-8.15-11.84c-4.26-3.79-9.22-6.72-14.6-8.62-2.09-.84-4.33-1.21-6.58-1.09-2.28.13-4.34,1.38-5.52,3.33-1.53,2.94-.06,6.49,1.53,9.39,2.81,5.12,6.02,10.01,9.6,14.62,2.88,3.7,6.17,7.36,10.55,9s8.94,1.48,11.26-1.56"/>
    <path class="st3" d="M215.49,407.26c.15-.61.24-1.24.26-1.87.13-1.36.3-3.07.5-5.1.24-2.52.6-5.02,1.1-7.5.67-3.01,1.58-5.96,2.72-8.83,1.12-2.87,2.64-5.56,4.51-8,1.52-1.99,3.47-3.61,5.7-4.74,1.51-.75,3.14-1.26,4.81-1.5.63-.02,1.25-.11,1.86-.27-.63-.06-1.27-.06-1.9,0-1.73.14-3.42.58-5,1.31-2.34,1.11-4.4,2.74-6,4.78-1.95,2.47-3.53,5.22-4.67,8.15-1.16,2.92-2.07,5.93-2.7,9-.49,2.5-.82,5.03-1,7.57-.16,2.17-.22,3.92-.25,5.14-.05.62-.03,1.24.06,1.86Z"/>
    <path class="st3" d="M215.84,403.34c.03-.29.03-.58,0-.87v-2.48c0-2.15,0-5.27.12-9.11.19-7.7.85-16,2.13-27.65,1.21-11,2.84-23.75,4.55-32.05.37-1.89.74-3.59,1.09-5.08s.62-2.78.89-3.82.43-1.78.58-2.41c.08-.28.13-.56.15-.85-.13.26-.23.53-.3.81-.19.62-.43,1.41-.72,2.38s-.65,2.3-1,3.79-.8,3.18-1.2,5.06c-2.12,9.82-3.72,19.74-4.78,29.73-1.28,11.69-1.86,22.34-1.91,30.06,0,3.85,0,7,.13,9.13.07,1,.12,1.82.16,2.48,0,.3.04.59.11.88Z"/>
    <path class="st3" d="M215.89,382.79c.08-.86.08-1.73,0-2.59-.14-2.35-.41-4.68-.79-7-.57-3.45-1.33-6.87-2.28-10.23-1.11-4.14-2.55-8.18-4.28-12.1-2.97-7.23-7.22-13.85-12.56-19.56-.94-.98-1.94-1.9-3-2.75-.46-.38-.86-.76-1.27-1.06l-1.14-.79c-.69-.53-1.42-1-2.18-1.4-.13.17,3.09,2.06,7.15,6.38,5.16,5.75,9.3,12.34,12.24,19.48,1.7,3.9,3.14,7.91,4.3,12,.98,3.33,1.79,6.71,2.43,10.13.54,2.92.85,5.3,1,6.95.06.85.19,1.7.38,2.54Z"/>
    <polygon class="st3" points="196.04 419.03 198.1 447.23 234.32 447.23 236.38 419.03 196.04 419.03"/>
    <rect class="st3" x="192.54" y="407.92" width="48.17" height="11.11"/>
    <polygon class="st13" points="192.54 446.15 192.54 449.23 194.8 449.23 239.91 449.23 239.91 446.15 192.54 446.15"/>
    <polygon class="st13" points="197.02 454.66 194.8 449.23 238.18 449.23 235.6 454.66 197.02 454.66"/>
    <path class="st0" d="M235.71,428.25c-.05.09-.1.18-.17.26l-.54.71-2.11,2.71-.1.12-.09-.13c-1.32-1.83-3.09-4.29-5.18-7.17h.3c-1.55,2.18-3.26,4.62-5.11,7.23l-.16.22-.18-.21-6.02-7.2h.35l-.33.42-5.42,6.79-.18.22-.16-.23-5.14-7.2h.3l-6.29,7.16-.12.13-.08-.14-2-3.31c-.21-.36-.37-.65-.51-.88-.07-.1-.12-.21-.15-.32.08.09.15.18.21.28l.56.85,2.07,3.25h-.2l6.19-7.25.16-.18.14.19,5.15,7.2h-.35l5.4-6.8.34-.42.17-.21.18.21,6,7.21h-.34l5.16-7.19.15-.21.15.21,5.07,7.25h-.18l2.19-2.63.59-.68c.2-.19.27-.27.28-.26Z"/>
    <path class="st13" d="M236.89,418.85c0,.12-9.08.22-20.28.22s-20.27-.1-20.27-.22,9.07-.23,20.27-.23,20.28.1,20.28.23Z"/>
    <path class="st3" d="M238.72,449.54c0,.12-9.87.22-22,.22s-22-.1-22-.22,9.86-.23,22-.23,22,.1,22,.23Z"/>
  </g>
  <g id="freepik--character-2--inject-64">
    <path class="st1" d="M696.28,277.3c-.64-2.73,2.59-12.19.51-12.4-2.65-.27-3.11,10.49-3.23,11.44s-1.48.81-1.36,0c.19-1.24,1.96-13.4-.72-13.42-1.48,0-1.55,2.69-1.55,2.69,0,0-1,11.98-2.27,11.92s-.36-6.87-.23-9.41-1.09-3.83-1.99-2.78c-1.31,1.54-1.31,7.72-1.48,10.15s-.81,9.42-3.32,5.93-5.73-5.27-6.91-5.15-1.4,1.83-.26,2.5c1.18.85,2.23,1.86,3.14,2.99.71.92,1.32,1.92,1.82,2.98.67,1.33,1.12,2.76,1.31,4.24.35,2.36,1.7,4.45,3.69,5.75l-.15,19.19-.57,9.45,14.95,5.19-1.97-33.88c.73-6.51,3.61-14.74,4.65-18.55,1.67-6.09.89-6.35.15-6.38-1.65-.06-3.6,10.23-4.21,7.56Z"/>
    <path class="st4" d="M694.36,285.56c-.62.06-1.23.16-1.83.31-1.45.43-2.73,1.3-3.65,2.49-.28.37-.52.77-.73,1.19l-.1.19-.15-.15c-.82-.84-1.78-1.54-2.83-2.07-.81-.4-1.3-.55-1.29-.6.48.06.94.2,1.37.42,1.11.48,2.12,1.17,2.97,2.02l-.24.05c.21-.44.46-.86.75-1.24.53-.69,1.18-1.27,1.92-1.73.6-.37,1.25-.64,1.93-.81.45-.11.91-.16,1.38-.16.17,0,.34.03.5.08Z"/>
    <path class="st4" d="M693.62,294.55c-2.08.71-4.33.78-6.45.21,0-.1,1.46.13,3.23.07s3.2-.37,3.23-.28Z"/>
    <path class="st3" d="M603.29,244.48c.43-5.06,4.2-9.19,9.2-10.09,1.29-.07,2.56-.31,3.79-.71.92-.52,1.79-1.11,2.62-1.76,3-1.8,6.86-1.28,9.28,1.25,2.15,2.37,2.69-1.18,7.52,1.24,4.03,2.01,2.23,5.32,2.23,5.32,4.1-.35,7.87,2.24,9,6.2.64,2.42.35,5.49,2.42,6.96.99.72,2.31.81,3.33,1.52,1.89,1.26,2.15,3.92,1.9,6.18s-.77,4.66.21,6.71c1.61,3.36,6.62,4.38,7.49,8,.41,1.71-.17,3.83,1.13,5.03.57.42,1.21.73,1.89.93,4.02,1.63,5.96,6.21,4.32,10.24-.61,1.5-1.67,2.78-3.03,3.66-.67.43-1.48.81-1.69,1.61s.38,1.69.81,2.42c2.12,3.59.93,8.22-2.66,10.34-2.25,1.33-5.04,1.4-7.35.18-1.32,2.77-3.66,4.92-6.53,5.99-1.3.53-2.73.67-4.11.4-1.08-.31-2.08-.83-2.95-1.54-4.25-3.23-10.25-8.14-11-13.41"/>
    <path class="st1" d="M603.19,252.69l-.19-3.78,22.54-5.02c6.98-.96,14.75,5.82,15.42,12.82.73,7.78,1.32,17.32.58,23.17-1.5,11.76-10.42,13.53-10.42,13.53l.31,11.62-25.87,1.13-2.37-53.47Z"/>
    <path class="st3" d="M636.72,265.23c.03.81-.59,1.5-1.4,1.56-.79.1-1.51-.47-1.61-1.26,0-.02,0-.03,0-.05-.03-.81.59-1.5,1.4-1.56.79-.1,1.51.46,1.61,1.24,0,.02,0,.04,0,.06Z"/>
    <path class="st3" d="M638.65,261.77c-.19.2-1.35-.61-2.96-.55s-2.77.9-2.95.71.09-.44.59-.81c.69-.51,1.51-.79,2.36-.81.84-.03,1.66.21,2.36.68.51.34.69.69.61.77Z"/>
    <path class="st3" d="M621.65,265.98c.03.81-.58,1.5-1.4,1.56-.79.1-1.51-.46-1.61-1.24,0-.02,0-.04,0-.06-.03-.81.58-1.5,1.4-1.56.79-.1,1.51.47,1.61,1.26,0,.02,0,.03,0,.05Z"/>
    <path class="st3" d="M622.78,262.57c-.18.2-1.35-.61-2.96-.56s-2.77.9-2.95.71.09-.44.6-.81c.68-.5,1.51-.78,2.36-.81.84-.03,1.67.21,2.36.69.51.33.69.68.6.77Z"/>
    <path class="st3" d="M629.01,274.36c.84-.3,1.72-.48,2.61-.56.41-.06.81-.15.86-.44.02-.42-.08-.85-.31-1.21-.42-.98-.86-2.02-1.32-3.11-1.83-4.41-3.17-8.07-2.99-8.12s1.81,3.44,3.65,7.87c.44,1.09.86,2.13,1.26,3.12.28.49.37,1.06.27,1.61-.11.3-.36.53-.66.62-.22.07-.46.11-.69.12-.88.14-1.77.17-2.66.09Z"/>
    <path class="st4" d="M631.12,293.45c-5.64.26-11.24-1.02-16.21-3.71,0,0,4.21,8.07,16.29,6.62l-.08-2.91Z"/>
    <path class="st4" d="M628.45,278.27c-.65-.77-1.65-1.15-2.65-1-.72.09-1.37.46-1.8,1.04-.43.56-.46,1.33-.07,1.93.55.57,1.4.76,2.14.47.75-.29,1.44-.73,2.02-1.29.18-.14.33-.3.44-.49.12-.18.12-.42,0-.61"/>
    <path class="st3" d="M624.3,275.62c.26,0,.31,1.73,1.86,2.93s3.4.95,3.42,1.19c0,.11-.4.35-1.19.4-1.02.04-2.03-.28-2.84-.9-.78-.6-1.31-1.48-1.45-2.46-.1-.73.09-1.17.21-1.17Z"/>
    <path class="st3" d="M623,256.22c-.15.45-1.76.29-3.65.58s-3.4.85-3.67.46c-.12-.19.14-.61.74-1.05,1.63-1.12,3.69-1.41,5.57-.81.7.27,1.06.61,1,.81Z"/>
    <path class="st3" d="M637.91,257.11c-.27.38-1.4,0-2.73.06s-2.46.32-2.73-.06c-.12-.18.05-.56.53-.92,1.33-.89,3.07-.89,4.4,0,.48.36.65.73.53.92Z"/>
    <path class="st3" d="M642.95,242.37c-1.61,4.22-5.36,10.6-9.8,11.36-4.53.71-9.11-.97-12.1-4.44-.52,3.36-4.13,5.31-7.45,6.03-2.35.6-4.81.55-7.13-.14-2.34-.73-4.14-2.62-4.75-4.99-.48-2.36,2.61-8.36,4.96-8.87"/>
    <path class="st3" d="M610.82,304.61c-.02,3.89-2.48,7.35-6.15,8.65.39,3.59-2.21,6.81-5.79,7.2-2.79.3-5.46-1.21-6.64-3.76-.25-.76-.62-1.49-1.1-2.14-1.24-1.36-3.45-.92-5.24-1.36-3.23-.81-4.88-4.57-4.76-7.9.06-.65.04-1.31-.05-1.96-.29-1.31-1.4-2.25-2.25-3.29-3.5-4.28-2.65-10.91.57-15.41,1.07-1.49,2.42-3.08,2.21-4.9-.25-1-.66-1.95-1.21-2.82-1.41-3.12-.77-6.79,1.61-9.25.76-.44,1.1-1.36.81-2.19-.77-5.06,2.5-9.86,7.49-10.99.3-.03.58-.12.85-.26.73-.44.68-1.48.71-2.32.1-2.24,1.52-6.51,3.11-8.07,4.42-4.36,9.22-1.41,10.96,0,0,0,4.37,15.75,3.96,18.78s-2.07,10.6-.96,13.91,3.03,10.12,1.88,13.25c-1.15,3.13-.02,14.86-.02,14.86Z"/>
    <path class="st6" d="M639.19,435.82s34.15,9.45,35.49,9.94c2.06.72,1.71,8.26-1.49,8.14-1.51-.06-26.23.92-29.35.73s-12.54-3.9-12.54-3.9l7.9-14.9Z"/>
    <path class="st3" d="M653.42,448.85c.17,0,.4-1.78,1.51-3.66s2.52-3.01,2.42-3.15-1.76.81-2.91,2.86-1.16,3.96-1.02,3.94Z"/>
    <path class="st3" d="M649.86,447.24c.17,0,.52-1.61,1.43-3.36s1.98-3.03,1.86-3.15-1.43,1.01-2.36,2.9-1.03,3.61-.92,3.62Z"/>
    <path class="st3" d="M646.52,446.34c.18,0,.04-1.71.81-3.61s1.98-3.07,1.86-3.23-1.61.93-2.42,2.98-.39,3.9-.25,3.85Z"/>
    <path class="st3" d="M647.13,441.95c.3-.81.42-1.68.36-2.54,0-.94-.12-1.87-.35-2.78-.13-.55-.3-1.09-.51-1.61-.11-.31-.3-.59-.55-.81-.35-.27-.85-.25-1.17.06-.26.26-.43.6-.46.97-.03.3-.05.6-.04.9,0,.56.08,1.12.21,1.67.23.92.58,1.79,1.05,2.61.38.77.9,1.47,1.54,2.05.07-.05-.5-.85-1.18-2.24-.4-.8-.7-1.66-.9-2.53-.11-.51-.17-1.04-.17-1.56,0-.52,0-1.18.31-1.43.12-.13.31-.15.45-.04.18.16.31.37.38.6.2.49.37,1,.52,1.51.24.87.39,1.76.45,2.66.1,1.52-.06,2.52.04,2.52Z"/>
    <path class="st3" d="M647.08,441.58c-.7-.29-1.45-.41-2.2-.35-.82,0-1.63.1-2.42.3-.49.11-.96.28-1.4.52-.59.28-.92.91-.81,1.56.16.6.63,1.07,1.23,1.23.5.13,1.03.13,1.53,0,.81-.21,1.56-.58,2.22-1.09.63-.41,1.18-.94,1.61-1.56-.63.37-1.24.78-1.82,1.23-.64.43-1.35.74-2.1.9-.42.1-.85.1-1.27,0-.39-.11-.7-.42-.81-.81-.07-.4.14-.79.51-.95.39-.21.81-.38,1.24-.48.75-.21,1.52-.35,2.3-.4,1.31-.12,2.15.02,2.16-.08Z"/>
    <path class="st3" d="M658.67,449.21c.16,0,0-1.48.67-3.08s1.78-2.54,1.67-2.68-1.48.68-2.2,2.46-.28,3.36-.14,3.3Z"/>
    <path class="st3" d="M634.83,450.83c.42.26.86.46,1.32.62,1.24.48,2.51.87,3.8,1.18,4.27.92,8.64,1.33,13.01,1.21,5.11-.06,9.73-.29,13.08-.43l3.95-.21c.49,0,.97-.05,1.45-.15-.48-.08-.97-.1-1.46-.07h-3.96l-13.06.27c-4.33.1-8.65-.25-12.91-1.06-3.28-.65-5.19-1.49-5.23-1.36Z"/>
    <path class="st3" d="M633.83,451.58c.05.07.98-.47,2.56-1.16,2.01-.95,4.24-1.33,6.45-1.07,2.57.4,4.4,2.12,5.59,3.32.61.72,1.26,1.39,1.97,2.01-.45-.83-1.02-1.6-1.67-2.28-.67-.79-1.43-1.5-2.27-2.12-1.04-.77-2.25-1.28-3.53-1.49-2.32-.28-4.67.17-6.72,1.27-.87.38-1.67.9-2.38,1.52Z"/>
    <g class="st10">
      <path d="M639.19,435.82s34.15,9.45,35.49,9.94c2.06.72,1.71,8.26-1.49,8.14-1.51-.06-26.23.92-29.35.73s-12.54-3.9-12.54-3.9l7.9-14.9Z"/>
    </g>
    <path class="st3" d="M601.25,396.59l-7.37,15.15s-39.42-11.99-49.35-11.44-18.07,4.54-20.01,12.61-2.19,19.2,9.4,26.93c11.59,7.73,69.18,12,69.18,12h22.79l37.25-49.12-6-4.84-55.89-1.28Z"/>
    <path class="st13" d="M613.64,429.85c-.25.03-.5.03-.75,0-.48,0-1.21,0-2.14-.17-2.62-.31-5.2-.85-7.73-1.61-3.74-1.13-7.38-2.56-10.89-4.27-3.98-1.88-8.24-4.19-12.71-6.59-4.19-2.29-8.49-4.35-12.91-6.17-3.59-1.48-7.32-2.6-11.13-3.33-2.57-.49-5.18-.72-7.8-.68-.93,0-1.61.07-2.14.08-.25.02-.5.02-.75,0,.24-.06.49-.09.74-.1.49-.04,1.2-.17,2.14-.18,2.64-.11,5.28.07,7.87.52,3.85.68,7.61,1.76,11.24,3.23,4.42,1.81,8.73,3.86,12.91,6.16,4.47,2.42,8.7,4.72,12.66,6.61,3.49,1.71,7.1,3.17,10.8,4.34,2.5.79,5.05,1.37,7.65,1.73.92.16,1.61.19,2.12.27.27.03.54.08.81.15Z"/>
    <path class="st3" d="M640.58,447.82c7.32-2.88,47.59-15.69,61.85-32.16,3.4-3.68,4.85-8.76,3.9-13.67-1.98-10.99-12.1-18.31-22.59-14.17-1.49.6-4.91,1.93-6.35,2.69-3.9,2.1-67.25,42.28-67.25,42.28,0,0,11.04,21.52,10.76,22.34l19.68-7.32Z"/>
    <path class="st13" d="M660.41,400.06c-.05.05-.11.1-.17.14l-.53.36-2.07,1.35-7.66,4.84-25.33,15.92-13.76,8.57.09-.28c2.94,7.05,5.43,13.07,7.26,17.36.86,2.11,1.54,3.78,2.02,4.99.22.55.39.99.52,1.33.07.15.12.31.15.47-.09-.14-.16-.28-.23-.44-.15-.33-.34-.77-.59-1.31l-2.15-4.93c-1.82-4.28-4.38-10.27-7.38-17.29l-.07-.18.16-.1,13.71-8.61,25.39-15.79,7.74-4.74,2.11-1.27.56-.31c.13-.06.19-.09.2-.08Z"/>
    <path class="st13" d="M604.78,419.05c-.66-.14-1.29-.37-1.87-.7-1.45-.7-2.84-1.53-4.14-2.48-1.3-.96-2.51-2.04-3.61-3.23-.49-.46-.91-.99-1.23-1.57.11-.1,2.13,2.18,5.14,4.36s5.78,3.48,5.72,3.61Z"/>
    <path class="st13" d="M626.7,401.2c.11.83.14,1.68.1,2.52,0,1.56.09,3.69.3,6.05s.54,4.48.81,6.01c.19.82.31,1.66.35,2.5-.33-.78-.56-1.59-.7-2.42-.89-3.97-1.26-8.04-1.1-12.1-.02-.86.07-1.72.24-2.56Z"/>
    <path class="st13" d="M631.41,400.68s.19-.05.5.06c.43.18.79.49,1.04.88.4.6.51,1.34.31,2.03-.32.87-1.15,1.44-2.07,1.44-.91.09-1.78-.42-2.15-1.26-.24-.68-.14-1.44.27-2.03.26-.39.65-.68,1.11-.81.16-.06.34-.06.5,0-.54.17-1,.53-1.31,1.01-.3.51-.36,1.12-.15,1.68.32.64,1,1.01,1.71.94.71,0,1.34-.44,1.61-1.1.19-.56.13-1.18-.17-1.69-.28-.49-.69-.89-1.19-1.15Z"/>
    <path class="st13" d="M611.93,399.08c.16.23.28.48.35.75.24.72.35,1.47.33,2.23-.01,1.12-.26,2.21-.73,3.23-1.13,2.62-3.69,4.34-6.54,4.4-1.13.06-2.26-.13-3.31-.55-.7-.28-1.36-.66-1.94-1.15-.22-.17-.41-.37-.56-.61.81.6,1.69,1.1,2.62,1.49,1.02.35,2.09.5,3.16.43,2.67-.11,5.05-1.71,6.15-4.15.47-.96.75-2.01.81-3.08.02-1.01-.1-2.02-.34-3Z"/>
    <path class="st13" d="M649.51,406.58c-.51.08-1.03,0-1.49-.21-2.43-.84-3.99-3.22-3.78-5.78,0-.51.13-1.02.41-1.45.08,0-.07.57-.06,1.46,0,2.36,1.39,4.5,3.56,5.45.79.41,1.37.45,1.36.53Z"/>
    <path class="st13" d="M669.21,436.7s.07-.05.24-.13l.72-.35,2.79-1.35c2.42-1.18,5.93-2.87,10.16-5.15,5-2.59,9.7-5.72,14.02-9.33,2.52-2.16,4.77-4.61,6.7-7.3,1.9-3.02,2.75-6.58,2.42-10.13-.15-1.79-.6-3.55-1.33-5.19-.36-.8-.8-1.56-1.3-2.27-.51-.7-1.06-1.37-1.66-2-1.19-1.2-2.45-2.34-3.77-3.4-1.18-1.09-2.58-1.91-4.11-2.42-1.48-.4-3.02-.57-4.56-.51-1.46.02-2.91.18-4.33.48-2.56.56-5.02,1.49-7.3,2.76l-9.96,5.53-2.72,1.49-.71.38-.24.12c.07-.06.15-.1.23-.15l.69-.41,2.69-1.55c2.34-1.33,5.71-3.28,9.92-5.65,2.3-1.3,4.77-2.25,7.35-2.82,1.44-.3,2.91-.47,4.38-.5,1.57-.06,3.13.11,4.65.51,1.57.52,3.01,1.37,4.23,2.5,1.33,1.07,2.6,2.21,3.8,3.42.61.64,1.17,1.31,1.69,2.02.52.74.96,1.52,1.33,2.34,2.24,5.07,1.82,10.93-1.13,15.63-1.95,2.71-4.22,5.18-6.77,7.35-4.35,3.61-9.08,6.74-14.11,9.31-4.25,2.26-7.78,3.93-10.21,5.07l-2.82,1.29-.74.32-.24.1Z"/>
    <path class="st6" d="M612.81,436.03s-34.27,9.03-35.65,9.49c-2.07.7-1.82,8.24,1.39,8.16,1.52,0,26.22,1.25,29.35,1.09s11.58-3.37,11.58-3.37l-6.66-15.38Z"/>
    <path class="st3" d="M598.42,448.89c-.17,0-.38-1.79-1.46-3.69s-2.48-3.04-2.37-3.17,1.74.81,2.87,2.9,1.11,3.98.96,3.96Z"/>
    <path class="st3" d="M602,447.32c-.17,0-.49-1.61-1.38-3.39s-1.94-3.06-1.82-3.17,1.42,1.02,2.34,2.92,1.01,3.63.86,3.64Z"/>
    <path class="st3" d="M605.38,446.46c-.17,0,0-1.71-.75-3.61s-1.94-3.1-1.82-3.23,1.61.94,2.36,3.02.34,3.88.22,3.82Z"/>
    <path class="st3" d="M604.8,442.05c-.29-.82-.4-1.69-.33-2.55.01-.94.14-1.87.38-2.78.14-.54.31-1.06.52-1.57.11-.31.3-.59.56-.81.36-.27.86-.24,1.18.07.26.26.42.6.44.97.03.3.05.6.04.9-.02.56-.1,1.12-.23,1.67-.24.91-.6,1.79-1.08,2.6-.39.77-.92,1.46-1.56,2.04-.07-.06.51-.85,1.2-2.23.41-.8.72-1.65.93-2.52.12-.51.18-1.03.19-1.56,0-.52,0-1.19-.3-1.44-.11-.13-.31-.15-.45-.05-.17.17-.3.37-.38.6-.21.49-.39.99-.53,1.5-.25.87-.42,1.76-.48,2.66-.12,1.52.02,2.48-.07,2.5Z"/>
    <path class="st3" d="M604.85,441.7c.7-.29,1.46-.4,2.21-.33.82,0,1.63.12,2.42.33.49.11.96.28,1.4.52.59.31.89.97.75,1.61-.16.6-.64,1.06-1.24,1.2-.5.13-1.03.13-1.53,0-.81-.21-1.56-.59-2.21-1.11-.62-.44-1.15-.98-1.56-1.61.63.37,1.23.79,1.8,1.25.63.44,1.34.76,2.09.94.42.1.85.1,1.27,0,.39-.1.7-.41.81-.81.07-.39-.13-.79-.49-.96-.39-.21-.8-.38-1.23-.5-.75-.22-1.52-.36-2.3-.43-1.31-.15-2.15-.02-2.16-.1Z"/>
    <path class="st3" d="M593.17,449.21c-.17,0,0-1.48-.64-3.09s-1.74-2.56-1.61-2.69,1.48.69,2.17,2.48.19,3.34.08,3.3Z"/>
    <path class="st3" d="M616.98,451.06c-.42.25-.87.45-1.33.61-1.24.47-2.52.84-3.82,1.13-4.29.88-8.67,1.25-13.05,1.08-5.12-.12-9.73-.41-13.07-.59l-3.96-.26c-.49,0-.97-.06-1.44-.17.48-.07.97-.08,1.46-.05l3.96.07,13.06.42c4.34.17,8.69-.11,12.96-.86,3.3-.67,5.19-1.48,5.23-1.38Z"/>
    <path class="st3" d="M617.98,451.85c-.05.08-.98-.48-2.55-1.19-2-.99-4.24-1.39-6.45-1.15-2.58.35-4.43,2.07-5.65,3.23-.62.71-1.28,1.37-1.99,1.98.47-.83,1.04-1.59,1.7-2.27.68-.78,1.45-1.48,2.29-2.09,1.05-.76,2.27-1.26,3.55-1.45,2.32-.25,4.66.22,6.7,1.36.88.4,1.69.93,2.4,1.58Z"/>
    <path class="st3" d="M583.7,452.91c-.06-.04.24-.49.52-1.28.76-2.09.36-4.43-1.06-6.14-.52-.65-.95-.98-.91-1.03s.54.19,1.16.81c1.66,1.72,2.1,4.28,1.11,6.45-.38.84-.78,1.23-.82,1.19Z"/>
    <path class="st6" d="M611.23,302.94l-17.62,4.94,5.73,54.81s-3.29,19.57-3.29,24.71c-.11,3.79,1.89,7.33,5.19,9.2l56.29,1.69,2.87-2.48c1.48-1.74,2.17-4.02,1.88-6.28l-10.49-83.64-19.59-4.25-20.97,1.31Z"/>
    <path class="st3" d="M599.41,362.63c-.05-.14-.08-.28-.1-.42l-.23-1.2c-.2-1.08-.48-2.58-.81-4.42-.66-3.78-1.56-8.92-2.56-14.61s-1.82-10.86-2.46-14.63c-.29-1.85-.53-3.36-.71-4.44-.07-.5-.13-.9-.18-1.21-.02-.14-.02-.29,0-.43.04.14.08.28.1.42.06.31.14.7.23,1.19.19,1.08.48,2.59.81,4.43.66,3.77,1.56,8.92,2.56,14.62l2.47,14.62c.29,1.85.53,3.36.7,4.44.07.5.14.9.18,1.21.02.14.02.29,0,.43Z"/>
    <path class="st3" d="M634.71,302.63c-.25.24-.52.45-.81.65-.27.19-.63.4-1.02.65s-.89.49-1.44.72c-1.3.56-2.65.98-4.03,1.25-1.68.32-3.38.51-5.08.54-1.71.04-3.41-.01-5.11-.15-1.39-.09-2.78-.27-4.15-.55-.92-.19-1.82-.49-2.68-.89-.3-.15-.52-.27-.68-.37l-.22-.15c.32.12.64.25.94.4.86.36,1.76.63,2.68.81,1.36.25,2.74.4,4.12.47,1.56.1,3.28.18,5.08.14,1.69-.03,3.38-.2,5.05-.5,1.36-.25,2.69-.64,3.97-1.16,1.18-.52,2.31-1.13,3.38-1.84Z"/>
    <path class="st3" d="M652.9,387.16c-.12.05-.25.07-.38.08l-1.11.16c-.48.06-1.07.15-1.76.2s-1.48.15-2.34.19c-1.73.13-3.81.18-6.11.15s-4.84-.2-7.46-.51-5.13-.81-7.37-1.27-4.24-1.05-5.9-1.61c-.81-.24-1.61-.52-2.23-.74s-1.21-.43-1.61-.61l-1.04-.41c-.13-.04-.25-.1-.35-.17.13.02.26.06.38.1l1.06.36c.46.16,1.02.35,1.68.56s1.4.46,2.23.69c1.65.5,3.65,1.02,5.9,1.51s4.72.91,7.35,1.23,5.14.47,7.43.54,4.36,0,6.08-.07c.87,0,1.61-.1,2.34-.15s1.27-.1,1.76-.15l1.11-.1.35.02Z"/>
    <path class="st3" d="M659.42,340.18c-.12-.24-.21-.5-.27-.77-.15-.49-.35-1.22-.6-2.11-.49-1.78-1.11-4.28-1.73-7.03s-1.1-5.28-1.42-7.11c-.15-.92-.27-1.65-.35-2.17-.06-.27-.08-.54-.08-.81.1.26.17.53.21.81.11.57.27,1.29.45,2.15.37,1.82.9,4.32,1.51,7.08s1.2,5.25,1.61,7.05c.19.86.36,1.57.5,2.14.08.25.14.51.17.77Z"/>
    <g class="st10">
      <path d="M617.38,305.43c.71,2.42.05,6.03.4,8.21,1.48,8.77,1.95,17.68,1.41,26.56-.07.48-.04.97.09,1.44.18.4.43.78.72,1.11,1.78,2.36,2.24,5.5,1.88,8.44-.48,2.92-1.33,5.77-2.55,8.48-.06-2.36.06-5.9.25-8.26,0-.48.28-.17.29-.65.08-2.84-.4-5.47-2.42-7.49-.43-.37-.81-.79-1.13-1.27-.22-.48-.35-.99-.38-1.52-1.23-9.91-2.06-19.86-2.51-29.85-.09-.56.03-1.13.32-1.61.32-.31.69-.56,1.1-.76.81-.5,1.24-1.39,2.07-1.78"/>
    </g>
    <path class="st6" d="M593.61,307.88s-16.08,3.79-12.19,27.89c1.82,11.75,5.05,23.25,9.6,34.24,2.64,6.2,8.61,10.49,15.33,9.6,2.92-.38,5.81.08,7.77-1.1,2.97-1.79,4.26-7.82,4.84-14.33.38-4.44.23-9.05.81-12.83.96-6.18-1.87-9.09-5.5-9.82l-14.27-2.83-.81,7.52-5.57-38.34Z"/>
    <path class="st3" d="M604.94,355.86s.27.29.81.7c.78.57,1.69.94,2.65,1.06,1.43.15,2.88-.06,4.21-.6,1.67-.57,3.22-1.46,4.55-2.62,1.26-1.22,2.09-2.82,2.36-4.55.22-1.42.05-2.87-.5-4.19-.55-1.22-1.32-2.32-2.27-3.27.34.16.64.38.89.65.73.68,1.33,1.51,1.74,2.42.64,1.39.86,2.93.65,4.44-.26,1.86-1.13,3.58-2.48,4.88-1.38,1.22-3,2.14-4.76,2.7-1.41.54-2.94.72-4.44.5-1.01-.16-1.96-.6-2.73-1.28-.29-.22-.52-.51-.67-.84Z"/>
    <path class="st3" d="M590.16,367.89c.06,0,.31.76.97,2.07.94,1.83,2.17,3.5,3.66,4.92,2.2,2.12,4.91,3.62,7.87,4.36,3.62.9,7.43.63,10.89-.77,1.82-.73,2.48-2.76,3.18-4.45.61-1.69,1.07-3.44,1.36-5.21.46-3.03.76-6.07.91-9.13.19-2.56.34-4.65.45-6.2.06-.68.11-1.23.15-1.69,0-.2.04-.39.09-.58.03.2.03.39,0,.59v1.69c-.07,1.55-.16,3.65-.28,6.21-.09,3.08-.36,6.16-.81,9.21-.28,1.81-.73,3.6-1.35,5.32-.33.92-.74,1.81-1.2,2.67-.5.93-1.29,1.67-2.26,2.11-3.58,1.46-7.55,1.73-11.29.75-5.12-1.33-9.38-4.88-11.61-9.68-.24-.52-.45-1.06-.62-1.61-.06-.19-.1-.38-.11-.57Z"/>
    <path class="st3" d="M595.53,357.44c-.1-.96-.1-1.93,0-2.9.1-1.78.27-4.24.48-6.96.12-1.36.21-2.65.35-3.83.08-1.09.46-2.14,1.1-3.03.45-.6,1.1-1.02,1.82-1.19.26-.09.55-.09.81,0,0,.06-.29,0-.74.19-.64.23-1.18.66-1.56,1.22-1.05,1.39-.93,3.97-1.2,6.66s-.45,5.17-.65,6.95c-.05.97-.19,1.94-.41,2.89Z"/>
    <path class="st3" d="M600.54,331.83c-.15-.76-.37-1.86-.66-3.23-.58-2.72-1.42-6.45-2.38-10.6-.41-1.96-.92-3.89-1.53-5.8-.51-1.58-1.31-3.05-2.36-4.33l-.31.25c.97,1.28,1.71,2.72,2.18,4.25.57,1.72.98,3.69,1.47,5.76.96,4.13,1.86,7.87,2.55,10.56.34,1.35.62,2.42.81,3.19.08.4.21.78.39,1.15,0-.4-.05-.8-.15-1.19Z"/>
    <g class="st10">
      <path d="M600.69,337.01c-1.3.02-2.57.45-3.61,1.23-2.35,1.62-4.05,4.02-4.79,6.78-.72,2.75-.59,5.66.37,8.34.3.81.86,1.77,1.74,1.73,1.04-.04,1.45-1.33,1.61-2.36.4-2.84.8-5.68,1.19-8.53.08-.97.33-1.93.75-2.81.45-.89,1.35-1.46,2.35-1.48l.27-3.04"/>
    </g>
    <path class="st6" d="M696.43,349.99c2.01-3.39,3.16-7.23,3.32-11.16.14-4.14-.4-8.27-1.61-12.23l-17.09-5.3-.1,5.71,15.48,22.98Z"/>
    <path class="st6" d="M680.98,326.97l-29.15-21.09v1.46l3.15,32.82s24.1,10.79,30.48,12.38c3.86.9,7.91-.05,10.97-2.57l-15.45-23.01Z"/>
    <path class="st3" d="M689.62,342.91c-.24-.08-.46-.2-.66-.35-.57-.37-1.11-.79-1.61-1.25-1.62-1.55-2.94-3.4-3.89-5.44-.94-2.02-1.69-4.13-2.23-6.3-.22-.81-.37-1.5-.48-1.97-.07-.24-.11-.49-.11-.73.36.85.65,1.73.88,2.62.62,2.12,1.39,4.2,2.32,6.2.93,2,2.19,3.82,3.72,5.4,1.2,1.19,2.11,1.75,2.07,1.81Z"/>
    <path class="st3" d="M698.09,330.69c-.25.04-.51.04-.76,0-.68-.04-1.37-.11-2.04-.22-4.5-.74-8.71-2.69-12.18-5.65-.53-.44-1.02-.92-1.49-1.42-.33-.35-.5-.56-.48-.58s.81.7,2.15,1.77c1.76,1.38,3.67,2.56,5.7,3.51,2.03.94,4.16,1.64,6.35,2.08,1.69.34,2.75.44,2.75.5Z"/>
    <path class="st3" d="M682.27,340.17c-.4-.55-.71-1.16-.91-1.81-.54-1.54-.87-3.15-.97-4.78-.1-1.61-.08-3.23.04-4.84,0-.67.09-1.34.25-1.99.08.67.1,1.34.05,2.01,0,1.24-.05,2.95.08,4.84.09,1.6.36,3.18.81,4.72.4,1.13.72,1.82.65,1.86Z"/>
    <path class="st3" d="M651.4,318.53c.13.28.23.58.3.89.17.58.4,1.43.67,2.48.53,2.1,1.22,5.01,1.9,8.24s1.22,6.18,1.56,8.32c.18,1.06.31,1.93.38,2.53.07.31.09.62.08.94-.11-.29-.19-.6-.24-.91l-.51-2.51c-.45-2.21-1.04-5.09-1.69-8.28s-1.3-6.05-1.77-8.25c-.21-.99-.4-1.83-.54-2.51-.08-.3-.13-.61-.14-.93Z"/>
    <path class="st1" d="M599.82,341.67l3.57-39.53,11.84,4.67,1.52,40.2s-3.79,5.73-10.19,3.38c-3.74-1.38-6.36-4.77-6.74-8.73Z"/>
    <polygon class="st3" points="602.12 267.54 624.25 287 620.24 301.54 618.64 302.01 599.29 282.21 600.51 268.01 602.12 267.54"/>
    <polygon class="st13" points="600.51 268.01 622.65 287.48 618.64 302.01 597.68 282.69 600.51 268.01"/>
    <path class="st1" d="M615.72,308.09c1.36-1.5,2.14-3.42,2.22-5.44-.05-2.98-.87-10.15-.87-10.15,0,0,3.85-8.07,3.75-9.17s-.27-1.06-1.61-.62-5.65,7.81-5.65,7.81l-1.4-5.47s3.57-5.74,3.85-6.55.75-1.46-.14-1.53-7.59,6.41-7.59,6.41l.54,5.99s-.14.48-1.1-.36-.72-7.99-.72-7.99c0,0,2.28-4.24,2.23-4.84s.41-1.27,0-2.32-1.77.16-1.77.16l-4.51,5.8-1.61-5.76s.06-1.23-1.53-1.24l.62,18.69,4.03,14.38,11.26,2.2Z"/>
    <path class="st4" d="M616.75,347.03s0-.24-.06-.7-.06-1.19-.11-2.07c-.08-1.83-.19-4.48-.35-7.84-.27-6.82-.65-16.53-1.12-28.28v-.09l.1-.09c.95-.82,1.69-1.86,2.15-3.03.44-1.25.59-2.58.44-3.89-.14-2.73-.48-5.58-.86-8.49v-.15c.73-1.53,1.45-3.12,2.15-4.75.35-.81.7-1.61,1.02-2.47.16-.42.31-.85.44-1.27l.08-.31v-.26c0-.19-.04-.38-.11-.56.05-.13-.56,0-.95.14-.19.05-.37.14-.52.27-.17.14-.32.29-.47.46-.61.7-1.18,1.43-1.69,2.2-1.06,1.55-2.07,3.18-3.04,4.84l-.35.6-.17-.67c-.44-1.73-.92-3.59-1.4-5.47v-.11l.06-.1,1.81-2.96c.69-1.16,1.44-2.36,2-3.5.11-.32.27-.65.35-.93.05-.15,0-.21,0-.19-.08-.05-.17-.07-.27-.06-.11.05-.22.1-.32.16-.13.07-.27.19-.4.27-.27.19-.53.4-.81.61-2.05,1.69-3.97,3.5-5.84,5.29l.08-.23c.19,2.02.37,4.02.54,5.99v.1c-.08.22-.3.36-.53.34-.14-.01-.27-.06-.39-.13-.2-.1-.38-.23-.55-.38-.32-.33-.52-.76-.57-1.22-.15-.8-.24-1.61-.27-2.42-.08-1.61-.08-3.12,0-4.65v-.12c.8-1.44,1.52-2.93,2.15-4.45.02-.07.04-.15.05-.23v-.33c0-.23.08-.43.11-.62.08-.36.07-.72-.04-1.07-.12-.4-.24-.56-.54-.5-.34.09-.65.27-.9.51h0l-4.46,5.81-.28.38-.13-.46c-.54-2-1.06-3.92-1.56-5.77v-.06c0-.32-.14-.62-.4-.81-.27-.16-.59-.25-.91-.23l.22-.22c.22,7.6.4,13.91.54,18.69h0c.89,3.43,1.57,6.09,2.05,7.92l.51,2.05c.11.46.15.7.15.7,0,0-.08-.23-.22-.69s-.33-1.15-.57-2.03c-.51-1.82-1.23-4.47-2.18-7.89h0l-.63-18.76v-.23h.22c.41-.02.81.09,1.15.31.38.26.61.7.6,1.16v-.07c.54,1.85,1.08,3.77,1.61,5.76l-.41-.08,4.44-5.83h0c.32-.31.72-.53,1.15-.64.29-.06.59.01.81.21.17.18.28.4.34.64.13.43.15.88.06,1.31,0,.21-.08.4-.1.58,0,.09,0,.19,0,.28-.01.13-.03.25-.07.37-.63,1.57-1.35,3.09-2.18,4.56v-.11c-.04,1.52,0,3.06.05,4.61.03.77.12,1.55.27,2.31.04.34.18.65.4.91.13.12.28.23.44.31.06.03.12.05.19.06h0v.06h0c.13.06-.17-.06-.14-.05v.11c-.18-1.97-.36-3.97-.55-5.99v-.13l.1-.1c1.88-1.8,3.79-3.61,5.87-5.33.27-.21.53-.42.81-.62.15-.1.27-.2.44-.29.18-.12.38-.2.6-.24.25-.03.49.05.68.21.18.2.24.49.14.75-.1.38-.25.66-.36.98-.63,1.3-1.35,2.42-2.05,3.61l-1.81,2.96v-.22l1.4,5.47-.52-.07c.98-1.67,1.99-3.3,3.07-4.84.53-.79,1.12-1.54,1.74-2.26.16-.19.34-.36.53-.52.21-.17.45-.29.7-.35.23-.08.46-.14.7-.19.15-.03.3-.03.44,0,.2.03.37.16.47.33.1.26.16.53.17.81,0,.14,0,.28,0,.42l-.09.35c-.14.46-.29.89-.45,1.31-.33.81-.69,1.68-1.03,2.49-.71,1.61-1.44,3.23-2.17,4.77v-.15c.38,2.93.71,5.78.85,8.54.14,1.38-.03,2.78-.5,4.09-.49,1.25-1.28,2.36-2.31,3.23l.1-.2c.38,11.76.69,21.48.92,28.29.1,3.37.17,6.02.22,7.86,0,.88,0,1.56.04,2.06s.07.64.07.64Z"/>
    <path class="st4" d="M603.86,289.97c-.15,0-.46-2.27-.69-5.11s-.27-5.15-.12-5.15.47,2.27.69,5.11.28,5.14.12,5.15Z"/>
  </g>
  <g id="freepik--character-1--inject-64">
    <path class="st7" d="M533.04,337.27l-18.75-37.9c32.24-69.82,1.78-152.56-68.03-184.8-69.82-32.24-152.56-1.78-184.8,68.03-32.24,69.82-1.78,152.56,68.03,184.8,52.62,24.3,114.79,13.47,156.09-27.2v.07l47.46-3Z"/>
    <path class="st3" d="M533.04,337.27l-47.45,3.13h-.25l.13-.23v-.07l.22.17c-3.47,3.42-7.11,6.65-10.91,9.7-1.99,1.67-4.19,3.21-6.38,4.86s-4.58,3.18-7.06,4.68c-10.82,6.77-22.53,12.01-34.79,15.55-14.34,4.12-29.24,5.93-44.15,5.37-16.83-.65-33.41-4.37-48.91-10.97-17.06-7.26-32.52-17.83-45.46-31.11-29.14-29.98-43.26-71.46-38.48-112.99.23-2.7.75-5.38,1.2-8.09s1.08-5.35,1.64-8.04c2.61-10.77,6.45-21.21,11.45-31.11,5.22-10.11,11.62-19.58,19.05-28.2l2.88-3.17,1.44-1.59,1.52-1.51,3.01-3.01,3.13-2.96c8.34-7.54,17.59-14.01,27.52-19.29,2.39-1.36,4.93-2.49,7.42-3.7s5.06-2.17,7.57-3.24c2.58-.9,5.12-1.91,7.72-2.72s5.18-1.66,7.82-2.26c10.33-2.66,20.93-4.16,31.6-4.46,57.88-1.45,110.62,33.06,132.48,86.68,2.9,7.21,5.22,14.64,6.94,22.22.37,1.84.73,3.66,1.09,5.47s.55,3.59.84,5.41l.39,2.68c.1.89.18,1.77.28,2.66.2,1.76.33,3.51.43,5.25.82,12.73-.12,25.51-2.79,37.99-1.17,5.3-2.64,10.54-4.4,15.67-1.67,4.79-3.51,9.27-5.35,13.33v-.11c12.06,24.59,18.22,37.09,18.63,37.95-.42-.83-6.64-13.33-18.87-37.84h0c1.83-4.06,3.59-8.48,5.3-13.32,5.83-17.23,8.22-35.44,7.03-53.6-.11-1.73-.24-3.48-.44-5.24l-.29-2.64-.39-2.67c-.29-1.77-.47-3.59-.85-5.38s-.72-3.59-1.09-5.46c-1.71-7.55-4.03-14.95-6.94-22.13-21.81-53.4-74.37-87.74-132.03-86.26-10.62.3-21.18,1.8-31.46,4.45-2.62.6-5.18,1.48-7.78,2.25s-5.11,1.82-7.68,2.72c-2.51,1.08-5.07,2.05-7.55,3.23s-4.98,2.31-7.38,3.68c-9.86,5.23-19.05,11.66-27.34,19.14l-3.12,2.86-3,3-1.51,1.51-1.44,1.58-2.87,3.16c-7.4,8.59-13.76,18.03-18.95,28.11-4.98,9.86-8.81,20.27-11.41,31.01-.55,2.67-1.2,5.32-1.63,8s-.92,5.35-1.2,8.05c-2.41,21.03,0,42.34,7.07,62.3,6.64,18.81,17.29,35.95,31.2,50.25,12.88,13.26,28.26,23.83,45.26,31.11,15.44,6.59,31.95,10.31,48.73,10.98,14.86.57,29.71-1.22,44-5.31,12.22-3.51,23.9-8.69,34.7-15.41,2.49-1.48,4.79-3.11,7.06-4.65s4.38-3.16,6.36-4.79c3.8-3.03,7.45-6.26,10.92-9.65l.72-.68-.5.85v.07l-.12-.22,47.47-3.01Z"/>
    <path class="st13" d="M316.49,360.88l143.28-.23s-34.25,22.73-75.37,20.02c-35.76-2.32-67.91-19.79-67.91-19.79Z"/>
    <path class="st7" d="M379.24,264.76l8.17,29.91,29.85-40.31-7.03,105.69h-42.62l-12.42.6s1.84-16.65,2.6-26.07c.46-7.52,1.73-14.96,3.78-22.2,6.36-20.7,17.67-47.62,17.67-47.62Z"/>
    <path class="st3" d="M388.86,311.54c.11.13-4.71,4.01-10.77,8.66s-11.02,8.3-11.13,8.17,4.7-4.02,10.77-8.66c6.07-4.64,11.02-8.31,11.13-8.17Z"/>
    <polygon class="st6" points="463.05 250.19 439.84 239.03 430.73 228.21 417.86 241.59 383.72 359.75 442.27 359.75 449.77 339.47 463.05 261.18 463.05 250.19"/>
    <path class="st6" d="M358.6,361.43l-1.57-25.12,70.72-11.96s12.08-58.36,19.52-67.92c6.88-8.83,15.83-5.77,15.83-5.77,0,0,8.08,5.53,6.15,26.69-1.02,11.09-5.07,49.52-6.53,63.41-.36,3.33-1.46,6.53-3.23,9.37h0c-4.05,6.5-11.16,10.45-18.82,10.46l-82.07.85Z"/>
    <path class="st3" d="M439.31,338.97c-.11,0-.2-1.11-.72-2.82-1.33-4.52-4.5-8.27-8.72-10.35-1.6-.8-2.7-1.08-2.67-1.2.99.08,1.96.35,2.85.79,4.5,1.92,7.83,5.86,8.96,10.62.29.96.39,1.96.3,2.96Z"/>
    <g class="st9">
      <path d="M438.02,240.72c-.67,7.39-2.08,14.69-4.22,21.79l-5.31-1.56c2.04,3.28,2.61,7.27,1.58,10.99-1.04,3.67-2.58,7.19-4.59,10.43-8.77,15.8-17.57,31.61-26.39,47.42l26.61-60.42-.69-11.17,5.12-1.09,7.91-16.4Z"/>
    </g>
    <g class="st9">
      <path d="M427.53,323.7c6.69-.39,12.74,3.99,14.46,10.47.25.74.25,1.54,0,2.27-.28.75-1.08,1.16-1.85.95-.5-.32-.87-.81-1.03-1.38-2.38-5.32-6.82-9.46-12.3-11.45"/>
    </g>
    <path class="st3" d="M399.27,329.23c.1-.33.22-.65.36-.97l1.2-2.74,4.3-9.99,14.43-32.89c2.06-4.67,4.04-9.16,5.91-13.38v.13c-.23-3.97-.45-7.7-.66-11.16v-.24h.22l5.13-1.06-.17.13,6.38-12.91,1.78-3.53.49-.91c.05-.11.11-.21.18-.31-.02.12-.06.23-.12.33l-.42.95c-.41.87-.96,2.08-1.66,3.59l-6.19,13v.11h-.12l-5.12,1.11.22-.28c.22,3.46.45,7.18.72,11.16v.14c-1.87,4.22-3.84,8.72-5.9,13.39l-14.58,32.82c-1.88,4.14-3.4,7.51-4.49,9.92l-1.2,2.68c-.2.32-.43.62-.68.9Z"/>
    <path class="st3" d="M358.54,360.64c-.03-.14-.05-.28-.06-.42,0-.31,0-.72-.1-1.2-.08-1.12-.2-2.7-.35-4.79-.28-4.13-.67-10.05-1.2-17.34v-.2h.19l51.17-9.4,18.87-3.42-.24.23c4.15-15.76,7.74-29.43,10.32-39.22,1.29-4.79,2.39-8.7,3.05-11.4.37-1.3.65-2.32.85-3.05l.23-.79.1-.25c.02.09.02.18,0,.28l-.18.79c-.18.74-.43,1.77-.75,3.07l-2.88,11.45c-2.52,9.8-6.05,23.5-10.11,39.27v.19h-.19l-18.91,3.49-51.18,9.21.19-.24c.39,7.3.72,13.22.95,17.36.1,2.02.17,3.59.22,4.73v1.2c.02.15.03.3.02.45Z"/>
    <path class="st3" d="M459.48,248.24c0,.11-1.2.29-2.99.96-4.75,1.78-8.59,5.38-10.68,10-.79,1.76-1.04,2.96-1.2,2.92s0-.3.08-.85c.15-.76.37-1.51.66-2.24,1.94-4.88,5.95-8.64,10.95-10.25.74-.24,1.5-.41,2.27-.51.6-.06.9-.07.91-.02Z"/>
    <path class="st14" d="M325.78,221.64c2.09-3.86,1.2-19.47,4.39-18.91,4.13.71.31,17.11,0,18.6s1.9,1.85,2.06.5c.24-1.95,2.63-21.03,6.69-19.96,2.25.59,1.2,4.69,1.2,4.69,0,0-3.49,18.5-1.56,18.94s3.41-10.22,4.27-14.09,3.25-5.32,4.18-3.36c1.34,2.87-1.2,12.19-2.01,15.92s-2.7,14.56,2.55,10.32,10.77-5.55,12.57-4.87,1.35,3.35-.66,3.88c-2.13.8-4.14,1.87-5.98,3.21-1.46,1.09-2.79,2.34-3.97,3.73-1.57,1.72-2.84,3.7-3.76,5.84-1.51,3.42-4.41,6.03-7.97,7.18h0l-3.06,14.57-19.84-4.25,4.41-15.42c1.62-10.13.73-23.75.74-29.91,0-9.88,1.3-9.95,2.39-9.69,2.64.51,1.3,16.85,3.35,13.08Z"/>
    <path class="st12" d="M325.21,234.9c.91.34,1.79.74,2.64,1.2,2.02,1.24,3.58,3.1,4.47,5.29.26.68.46,1.37.6,2.08l.06.33.29-.16c1.59-.93,3.32-1.59,5.13-1.95,1.35-.26,2.19-.29,2.19-.36-.74-.13-1.5-.13-2.24,0-1.87.27-3.68.89-5.32,1.83l.35.18c-.12-.75-.33-1.49-.61-2.2-.52-1.25-1.26-2.4-2.18-3.4-.75-.8-1.63-1.47-2.58-2.01-.63-.35-1.31-.62-2.01-.8-.26-.06-.53-.07-.79-.04Z"/>
    <path class="st12" d="M322.58,248.78c2.86,1.95,6.24,3,9.7,3.03,0-.14-2.26-.41-4.94-1.26s-4.7-1.9-4.76-1.77Z"/>
    <polygon class="st14" points="394.39 234.42 379.24 264.76 387.41 294.66 409.18 271.66 430.63 231.81 394.39 234.42"/>
    <path class="st6" d="M380.13,237.27s-21.53,7.66-21.53,9.08h0c-3.8,2.98-16.47,33.62-20.51,39.41l-11.53,17.05h0l9.67-37.73-21.26-6.25s-18.16,43.81-20.36,53.55c-1.33,5.78-1.21,11.8.36,17.53l.12-.1c1.36,4.37,4.17,8.15,7.97,10.71,9.01,5.78,17.43,6.87,26.05.5,4.88-3.59,10.46-7.96,15.55-12.02l1.34,31.68h11.74c0-1.78-.36-23.48-.36-23.48,1.54-5.14,2.74-10.37,3.59-15.66,1.06-7.47,18.56-56.49,18.56-56.49l13.55-26.15.32-9.68-13.26,8.06Z"/>
    <path class="st3" d="M345.73,360.4c-.06-.32-.09-.65-.1-.98-.05-.7-.11-1.65-.18-2.84-.13-2.54-.31-6.1-.54-10.5-.41-8.96-.96-21.3-1.58-35.13v-.07c.25-1.3.53-2.7.8-4.12,2.84-14.52,5.42-27.68,7.3-37.27l2.29-11.27c.26-1.29.49-2.31.65-3.06l.18-.79c.02-.09.05-.18.08-.26.02.09.02.18,0,.28l-.13.8-.54,3.09-2.08,11.32c-1.83,9.57-4.34,22.73-7.18,37.3-.26,1.4-.54,2.8-.79,4.1v-.07c.55,13.83,1.04,26.18,1.39,35.13.14,4.41.26,7.98.35,10.52,0,1.2,0,2.14.07,2.85.03.33.03.65.01.98Z"/>
    <path class="st3" d="M357.78,332.28c0-.33.04-.67.11-.99.11-.69.24-1.64.42-2.82.42-2.51.99-5.98,1.7-10.38,1.5-8.81,3.59-20.86,5.81-34.2,1.52-8.72,2.94-16.9,4.16-23.93v-.07c2.99-6.77,5.49-12.43,7.26-16.46.87-1.94,1.58-3.48,2.08-4.61l.56-1.2c.06-.14.13-.28.23-.41-.03.15-.08.29-.14.43-.13.33-.29.74-.49,1.2-.48,1.12-1.12,2.69-1.94,4.65-1.73,4.06-4.16,9.75-7.06,16.56h0c-1.2,6.97-2.58,15.17-4.08,23.93-2.39,13.33-4.45,25.38-5.98,34.18-.79,4.32-1.42,7.84-1.89,10.34l-.54,2.81c-.05.33-.12.66-.22.98Z"/>
    <path class="st3" d="M316.49,328.77c-.08-.06.84-1.38,2.13-3.59,1.68-2.95,3.13-6.03,4.33-9.21,1.19-3.12,2.18-6.32,2.97-9.57.6-2.52.87-4.1.97-4.09.06.38.06.76,0,1.14-.07.73-.23,1.77-.48,3.05-.66,3.34-1.6,6.62-2.81,9.8-1.21,3.18-2.73,6.25-4.52,9.14-.71,1.11-1.3,1.97-1.76,2.55s-.83.83-.83.79Z"/>
    <g class="st9">
      <path d="M318.13,327.02c-.71.15-1.16.85-1.01,1.56.02.1.05.2.1.29.42.71,1.24,1.09,2.06.93.79-.16,1.52-.56,2.09-1.14,1.73-1.78,2.97-3.98,3.59-6.39,1.83-5.77,1.91-11.96,1.99-17.95-1.67,7.9-4.63,15.46-8.77,22.4"/>
    </g>
    <g class="st9">
      <path d="M344.28,329.83c-3.48-5.83-5-12.62-4.34-19.38.65-9.21,5.12-17.63,8.46-26.24-1.91,9.04-3.01,18.03-4.79,26.73,0,0,.92,12.93.95,18.66"/>
    </g>
    <g class="st9">
      <path d="M359.14,324.06c.93-13.78,1.88-27.59,4.31-41.18,2.46-13.91,7.15-27.33,13.88-39.76-1.73,5.46-7.08,16.92-7.08,16.92,0,0-7.72,40.68-11.07,61.21"/>
    </g>
    <path class="st14" d="M357.41,339.89l1.93,21.37h-10.09l-8.92-.14c-3.4.37-6.83.46-10.24.26-.16,0-.33-.03-.48-.1-.53-.08-1.05-.2-1.56-.38h0c-.91-.33-1.84-.92-1.7-1.93.44-3.06,2.26-3.31,2.26-3.31h.91l.07-.26c-1.38,0-2.55,0-3.16-.11-.29,0-.45-.06-.48-.11s-3.59-.42-3.3-2.31c.39-3.16,2.21-3.41,2.21-3.41l2.94-.19c-1.42,0-2.64,0-3.27-.11-.29,0-.45-.06-.48-.11s-3.59-.42-3.3-2.31c.44-3.06,2.26-3.31,2.26-3.31l2.39-.17c-1.2,0-2.12,0-2.66-.1-.29,0-.45-.06-.48-.11s-3.59-.42-3.3-2.31c.49-3.07,2.3-3.25,2.3-3.25,0,0,5.62-.41,9.49-.56,0,0,4.39-3.95,6.11-3.77,2.58.28,17.59,5.81,17.59,5.81l2.94.91Z"/>
    <path class="st12" d="M338.48,355c-1.64.37-3.32.53-5,.48-1.65.15-3.31.1-4.95-.16,1.64-.37,3.32-.54,5-.49,1.65-.16,3.32-.1,4.95.17Z"/>
    <path class="st12" d="M338.5,348.94c-2.35.41-4.72.61-7.11.59-2.39.19-4.79.17-7.18-.07,2.35-.41,4.73-.6,7.11-.57,2.39-.2,4.79-.18,7.18.06Z"/>
    <g class="st8">
      <path class="st12" d="M338.03,342.79c-2.37.41-4.77.6-7.18.57-2.39.2-4.79.17-7.18-.07,2.35-.4,4.73-.59,7.11-.57,2.41-.2,4.84-.18,7.25.07Z"/>
    </g>
    <path class="st12" d="M329.17,337c.74.14,1.5.2,2.26.18l5.47.18,5.47.2c.76.08,1.52.08,2.27,0-.73-.21-1.49-.33-2.25-.36-1.4-.13-3.34-.28-5.48-.35s-4.07-.07-5.48,0c-.76-.04-1.52,0-2.26.14Z"/>
    <path class="st3" d="M440.53,162.96c2.54-6.16,10.55-8.97,16.82-6.68s10.43,8.71,11.19,15.34c.52,3.27-.16,6.62-1.91,9.43-2.12,2.77-5.29,4.56-8.76,4.93-9.55,1.33-18.38-5.33-19.71-14.88-.44-3.16,0-6.39,1.25-9.32"/>
    <path class="st13" d="M466.04,163.77s-.12.32-.45.83c-.48.7-1.01,1.36-1.6,1.96-3.98,4.12-9.69,6.08-15.36,5.28-.84-.12-1.67-.31-2.48-.56-.31-.07-.6-.2-.86-.37,0-.11,1.29.3,3.39.49,5.51.54,10.98-1.34,15-5.14,1.5-1.45,2.25-2.54,2.37-2.48Z"/>
    <path class="st13" d="M468.66,170.81s-.22.26-.68.65c-.66.54-1.36,1.05-2.08,1.51-2.38,1.55-5.03,2.66-7.8,3.28-1.54.31-3.11.43-4.68.36-1.28-.06-2.54-.27-3.77-.62-.83-.22-1.63-.52-2.39-.9-.54-.26-.84-.43-.81-.47s1.27.45,3.34.95c1.21.28,2.44.44,3.68.48,1.52.03,3.04-.11,4.53-.41,2.71-.61,5.3-1.64,7.69-3.05,1.83-1.06,2.91-1.85,2.97-1.77Z"/>
    <path class="st3" d="M375.83,181.37c-14.81-32.58,20.42-48.93,39.64-43.51,18.07,5.11,25.77,14.09,28.71,26.18,2.94,12.08,2.84,25.12-1.9,36.69-2.39,5.67-6.54,11.45-12.65,12.16"/>
    <path class="st14" d="M393.53,261.88c-.26-15.55-.44-36.94-.44-36.85s-13.38-2.23-16.15-19.68c-1.38-8.67-.95-22.91-.22-34.54.67-10.48,7.6-23.32,18.04-22.22l32.58,8.26c3.17.34,5.56,3.04,5.49,6.23h0l-2.13,67.38"/>
    <path class="st3" d="M384.69,183.17c-.02,1.2.91,2.21,2.12,2.27,1.17.11,2.21-.75,2.32-1.92,0-.02,0-.03,0-.05.03-1.21-.91-2.22-2.12-2.27-1.17-.11-2.21.75-2.32,1.92,0,.02,0,.03,0,.05Z"/>
    <path class="st3" d="M408.85,183.17c-.03,1.21.91,2.22,2.12,2.27,1.17.11,2.21-.75,2.32-1.92,0-.02,0-.03,0-.05.02-1.2-.91-2.21-2.12-2.27-1.17-.11-2.21.75-2.32,1.92,0,.02,0,.03,0,.05Z"/>
    <path class="st3" d="M394.41,195.56c-1.27-.39-2.58-.63-3.91-.71-.62-.06-1.2-.18-1.3-.6-.05-.64.09-1.28.41-1.83l1.82-4.68c2.52-6.68,4.35-12.16,4.09-12.25s-2.54,5.23-5.06,11.89c-.61,1.64-1.2,3.21-1.75,4.71-.39.73-.5,1.58-.32,2.39.18.44.56.78,1.02.91.34.09.69.14,1.04.14,1.32.18,2.65.18,3.97.01Z"/>
    <path class="st12" d="M393.06,225.1c8.22.12,16.31-2.04,23.38-6.25,0,0-5.92,12.17-23.38,10.52v-4.27Z"/>
    <path class="st14" d="M429.49,185.07c.26-.12,9.34-4.14,9.45,6.3s-10.41,8.37-10.43,8.11.98-14.42.98-14.42Z"/>
    <path class="st12" d="M431.67,195.49s.18.12.49.26c.44.18.93.18,1.36,0,1.1-.42,2.01-2.18,2.05-4.06.02-.9-.17-1.79-.54-2.61-.21-.66-.73-1.17-1.39-1.38-.43-.11-.88.1-1.06.5-.14.3-.07.5-.13.53s-.23-.18-.14-.61c.06-.26.2-.49.41-.66.29-.22.65-.32,1-.28.87.17,1.6.77,1.91,1.6.46.9.69,1.9.66,2.91,0,2.11-1.1,4.08-2.61,4.53-.57.18-1.18.08-1.66-.26-.32-.24-.38-.47-.35-.49Z"/>
    <path class="st12" d="M395.12,202.31c.3.91.74,1.77,1.3,2.55.56.79,1.43,1.3,2.39,1.4,1.06,0,2.05-.54,2.62-1.44.54-.88.79-1.9.72-2.92,0-.92-.47-2.02-1.38-2.13-.39-.01-.77.07-1.11.25l-4.79,1.94"/>
    <path class="st3" d="M397.03,206.24c.87.07,1.74-.04,2.57-.31.84-.33,1.53-.96,1.94-1.76.44-1,.44-2.14,0-3.15-.11-.25-.25-.5-.42-.72-.19-.2-.16-.19-.36-.16s-.51.2-.78.3l-.79.32c-1.03.42-1.96.78-2.74,1.08-.82.4-1.71.67-2.62.78.72-.57,1.53-1.02,2.39-1.34.75-.37,1.66-.79,2.67-1.2l.78-.35c.29-.14.58-.26.89-.36.23-.08.48-.08.71,0,.21.09.4.24.54.42.21.29.39.6.54.92.53,1.24.47,2.65-.16,3.84-.51.95-1.37,1.66-2.39,1.97-.67.21-1.39.24-2.08.08-.47-.17-.69-.33-.68-.38Z"/>
    <path class="st13" d="M441.21,177.91c-1.08-.07-9.7,1.04-9.02,17.08.63,14.99,11.14,11.69,14.5,6.05,3.17-5.35,4.99-22.4-5.48-23.14Z"/>
    <path class="st13" d="M446.55,179.82c-.01-.14-.01-.28,0-.42v-1.2c0-1.1-.07-2.64-.13-4.57-.07-3.94-.18-9.4-.31-15.73l.19.19h-4.55l.2-.2c0,1.2.07,2.45.1,3.73.16,5.98.3,11.62.41,16.32v.13h-.14c-1.82.42-3.44,1.46-4.58,2.94-.86,1.16-1.48,2.48-1.83,3.88-.23.9-.39,1.82-.47,2.74v.98c-.02-.08-.02-.17,0-.25v-.74c.05-.93.17-1.86.38-2.78.32-1.44.94-2.79,1.81-3.98,1.18-1.57,2.87-2.67,4.79-3.12l-.13.17c-.13-4.69-.3-10.29-.47-16.31,0-1.28-.07-2.55-.1-3.74v-.2h4.85v.19c.07,6.32.13,11.8.18,15.73v5.77c-.05.16-.11.32-.19.48Z"/>
    <path class="st13" d="M441.21,157.86c-3.24-6.78-8.6-12.33-15.28-15.78-4.11-2.05-8.43-3.66-12.89-4.79,0,0,6.28-1.48,16.44,3.03,4.61,2.06,9.26,4.79,12.33,8.73,1.95,2.55,4.39,7.51,4.38,8.79h-4.99Z"/>
    <path class="st3" d="M440.07,205.53c-.11,0-.21-.04-.31-.08-.28-.12-.55-.26-.8-.42-.93-.61-1.71-1.43-2.26-2.39-.79-1.45-1.26-3.05-1.39-4.7-.18-1.99-.18-3.99,0-5.98.17-1.99.5-3.97.99-5.91.34-1.61.93-3.16,1.72-4.59.56-.97,1.34-1.78,2.27-2.39.25-.16.52-.3.8-.41.1-.05.2-.08.31-.08,0,0-.39.18-1.03.62-.87.64-1.59,1.45-2.12,2.39-.74,1.43-1.28,2.96-1.6,4.53-.47,1.93-.79,3.89-.96,5.86-.16,1.97-.16,3.95,0,5.92.11,1.61.54,3.17,1.27,4.61.52.94,1.24,1.76,2.11,2.39.65.45,1,.6.99.63Z"/>
    <rect class="st13" x="395.54" y="203.87" width="12.49" height="4.7" rx="1.7" ry="1.7" transform="translate(-32.19 81.21) rotate(-11.1)"/>
    <path class="st13" d="M406.82,204.32l36.67-11.51c.92-.3,1.9.19,2.21,1.11,0,0,0,.01,0,.02h0c.29.91-.21,1.89-1.12,2.18-.02,0-.05.01-.07.02l-37.51,10.13-.18-1.95Z"/>
    <path class="st3" d="M433.92,199.26c.39-.16.79-.3,1.2-.42l3.35-1.03c1.41-.43,3.13-.89,4.96-1.48.45-.16.85-.41,1.2-.74.33-.34.52-.8.51-1.28,0-.48-.3-.9-.75-1.05-.5-.14-1.03-.14-1.53,0l-10.99,3.59-3.35,1.04c-.39.14-.79.24-1.2.32.39-.19.79-.35,1.2-.48l3.31-1.2c2.8-.95,6.65-2.27,10.98-3.59.57-.17,1.19-.17,1.76,0,.61.2,1.01.77,1.02,1.41,0,.58-.22,1.14-.63,1.56-.38.37-.84.65-1.34.83-1.89.6-3.59,1-5.01,1.41l-3.39.9c-.42.11-.86.19-1.29.22Z"/>
    <path class="st12" d="M414.68,178.08c-.29.44-2.8-.92-5.91-.37s-5.04,2.66-5.44,2.33c-.2-.13,0-.91.84-1.85,1.13-1.22,2.64-2.04,4.28-2.31,1.63-.29,3.32-.03,4.79.74,1.14.56,1.59,1.27,1.45,1.46Z"/>
    <path class="st3" d="M414.32,178.48c-.58-.11-1.15-.25-1.71-.43-1.36-.3-2.78-.3-4.14,0-1.35.32-2.62.93-3.72,1.78-.85.67-1.29,1.2-1.36,1.12s.26-.67,1.08-1.46c2.21-2.08,5.37-2.79,8.26-1.85,1.08.33,1.64.74,1.6.84Z"/>
    <path class="st3" d="M415.93,171.45c-.26.84-2.93.78-6.1.93s-5.85.33-6.15-.48c-.14-.41.41-1.02,1.5-1.57,2.89-1.3,6.18-1.42,9.15-.33,1.12.47,1.71,1.04,1.6,1.45Z"/>
    <path class="st12" d="M389.63,179.92c-.24.13-.71-.31-1.47-.84-.94-.66-2.03-1.1-3.17-1.28-2.7-.44-4.88.8-5.19.36-.14-.18.23-.8,1.2-1.4,1.29-.76,2.81-1.05,4.3-.81,1.51.21,2.88,1,3.82,2.2.67.93.73,1.66.53,1.77Z"/>
    <path class="st3" d="M389.93,181.22c-.08,0-.49-.54-1.34-1.29-2.21-2-5.32-2.67-8.16-1.77-1.08.33-1.7.71-1.75.62s.49-.57,1.6-1.04c1.46-.58,3.06-.71,4.59-.38,1.54.33,2.94,1.12,4.02,2.26.48.43.84.98,1.03,1.6Z"/>
    <path class="st3" d="M391,172.51c-.16.85-2.7,1.1-5.72,1.14s-5.58-.19-5.74-1.05,2.39-2.05,5.72-2.07,5.91,1.15,5.74,1.99Z"/>
    <path class="st3" d="M419.18,147.75c-2.03,2.75-3.65,5.79-4.79,9.01-1.13,3.27-.76,6.88,1.02,9.85,1.84,2.69,4.99,4.12,7.86,5.68s5.8,3.72,6.52,6.9c.22.99-.2,4.49.54,5.18,1.03.95,2.84.36,3.59-.8s1.29-5,1.32-6.4l.18-13.04c0-3.68,0-7.5-1.59-10.77-2.24-4.64-6.86-6.13-13.6-5.79"/>
    <path class="st3" d="M376.31,173.93c.51-4.44,2.22-8.65,4.95-12.19,2.76-3.53,6.73-5.91,11.15-6.68,4.4-.67,8.85.55,13.3.8s9.5-.84,11.82-4.63c.73-1.2,1.06-2.85.14-3.88-.37-.37-.82-.66-1.3-.86-5.9-2.87-12.52-3.93-19.02-3.07-6.53.9-12.48,4.23-16.67,9.32-4.16,5.18-5.71,11.99-4.21,18.46"/>
    <path class="st13" d="M373.67,167.37c-.09-.18-.16-.37-.2-.56-.16-.56-.28-1.12-.36-1.7-.26-2.13-.05-4.29.6-6.34.97-3.06,2.79-5.78,5.25-7.84,3.01-2.52,6.65-4.17,10.53-4.79,3.85-.59,7.78-.42,11.56.51,1.62.39,3.22.87,4.79,1.46,1.5.55,2.82,1.2,4.1,1.5,2.02.55,4.12.74,6.2.55.75-.16,1.45-.5,2.03-.99-.11.17-.25.33-.41.45-.45.38-.99.65-1.57.78-2.13.29-4.3.17-6.38-.37-1.32-.32-2.68-.91-4.15-1.42-1.57-.56-3.16-1.02-4.79-1.39-3.71-.88-7.56-1.04-11.33-.47-3.76.59-7.3,2.16-10.25,4.56-2.4,1.98-4.2,4.58-5.2,7.53-.68,1.98-.94,4.08-.77,6.17.17,1.54.41,2.34.35,2.36Z"/>
    <path class="st13" d="M392.98,139.93c.35-.13.72-.2,1.1-.22,1.01-.1,2.04-.1,3.05,0,3.39.32,6.61,1.61,9.28,3.71,1.54,1.2,2.84,2.57,4.21,3.49,1.22.81,2.59,1.36,4.03,1.63.96.23,1.96.3,2.94.2.69-.08,1.04-.28,1.08-.23-.29.25-.65.42-1.03.47-1.02.19-2.06.19-3.07,0-1.52-.22-2.98-.76-4.27-1.58-1.45-.95-2.78-2.29-4.27-3.48-2.6-2.02-5.69-3.33-8.95-3.77-2.51-.35-4.09-.06-4.1-.23Z"/>
    <path class="st13" d="M445.81,171.97s-.24-.41-.74-1.08c-.74-.92-1.69-1.66-2.78-2.14-1.6-.71-3.34-1.06-5.1-1.02-2.17.12-4.33.42-6.45.89-2.17.48-4.4.65-6.62.5-1.81-.16-3.58-.58-5.26-1.27-1.13-.46-2.21-1.04-3.22-1.72-.4-.24-.75-.55-1.05-.91,1.41.83,2.89,1.56,4.4,2.18,1.66.6,3.4.97,5.16,1.1,2.16.11,4.33-.07,6.45-.54,2.16-.48,4.35-.76,6.56-.85,1.84-.02,3.65.39,5.3,1.2,1.12.55,2.08,1.37,2.79,2.39.18.28.33.58.45.89.1.26.13.38.11.38Z"/>
    <path class="st13" d="M443.92,163.59s-.23-.41-.74-1.05c-.75-.87-1.71-1.55-2.79-1.96-1.61-.59-3.35-.78-5.05-.54-1.93.19-4.02.78-6.28,1.2-2.14.49-4.37.46-6.5-.1-1.72-.53-3.28-1.5-4.52-2.81-.84-.86-1.51-1.87-2-2.97-.1-.3-.19-.6-.25-.91-.02-.11-.02-.22,0-.33.66,1.45,1.57,2.77,2.68,3.91,1.23,1.2,2.72,2.08,4.37,2.57,2.05.49,4.18.49,6.23,0,2.21-.42,4.33-.99,6.34-1.2,1.79-.22,3.6.02,5.26.71,1.12.47,2.1,1.24,2.81,2.23.25.37.4.81.43,1.26Z"/>
    <path class="st3" d="M399.04,283.24l.23-.19.66-.53c.84-.69,1.64-1.42,2.39-2.2,1.23-1.26,2.38-2.59,3.43-4,1.2-1.63,2.6-3.59,4.07-5.77,2.94-4.35,6.39-9.67,10.05-15.78,1.83-3.06,3.72-6.33,5.62-9.77.48-.86.95-1.73,1.44-2.61.46-.92,1.01-1.79,1.64-2.61.66-.84,1.53-1.48,2.54-1.84.51-.2,1.07-.27,1.62-.18.29.07.55.21.77.42.19.23.34.5.42.79h0v.06c-.12.37-.31.71-.56.99-.27.29-.65.47-1.05.5-.75,0-1.48-.25-2.07-.72-1.27-.91-1.78-2.54-1.27-4.01.26-.75.81-1.38,1.52-1.73.7-.36,1.49-.48,2.26-.32.82.13,1.52.67,1.84,1.44.17.44.07.93-.26,1.27-.3.29-.67.49-1.08.59-1.4.32-2.83-.34-3.51-1.6-.33-.63-.4-1.37-.22-2.06.18-.67.56-1.27,1.08-1.73.51-.46,1.17-.71,1.85-.72.7,0,1.36.35,1.77.92.21.31.29.7.22,1.06-.06.37-.28.69-.59.9-.57.39-1.29.48-1.94.24-.62-.27-1.1-.79-1.32-1.44-.21-.61-.3-1.26-.29-1.9-.04-1.26.29-2.51.95-3.59.35-.54.88-.94,1.5-1.12.62-.14,1.27-.02,1.81.32.58.32.93.95.91,1.62-.08.66-.55,1.21-1.2,1.39-.6.2-1.25.1-1.76-.28-.47-.39-.79-.94-.89-1.54-.09-.58-.04-1.18.16-1.73.14-.55.33-1.08.59-1.58.26-.5.65-.91,1.14-1.2.47-.29,1-.47,1.54-.53.28-.04.57,0,.84.11.25.14.47.33.63.56.17.23.29.49.35.77.08.29.05.6-.1.87-.32.48-.92.71-1.48.57-.52-.09-.99-.34-1.36-.71-.72-.72-1.15-1.68-1.2-2.69-.07-.97.19-1.94.73-2.75.27-.39.61-.71,1.02-.96.4-.22.85-.35,1.3-.36.46-.03.91.11,1.28.38.36.29.56.73.54,1.2-.13.88-.84,1.57-1.72,1.67-.82.05-1.58-.39-1.96-1.11-.38-.64-.55-1.38-.49-2.12.26-1.25.69-2.46,1.3-3.59l1.3-2.97c.78-1.77,1.4-3.15,1.82-4.09l.48-1.06c.05-.12.11-.24.18-.36-.04.13-.09.25-.14.37l-.44,1.08-1.75,4.13-1.23,2.86c-.57,1.13-.97,2.34-1.2,3.59-.05.69.11,1.38.47,1.97.34.63,1.02,1.02,1.73.98.75-.1,1.35-.68,1.47-1.42.02-.38-.15-.74-.44-.98-.32-.22-.7-.33-1.09-.31-.42.02-.83.13-1.2.33-.36.23-.68.52-.92.87-.5.75-.73,1.65-.66,2.55.04.93.43,1.82,1.09,2.48.32.32.74.54,1.2.61.44.13.93-.03,1.2-.41.13-.41.05-.86-.23-1.2-.14-.19-.31-.34-.51-.45-.21-.09-.44-.11-.67-.08-1.02.08-1.93.69-2.39,1.6-.24.48-.43.98-.56,1.5-.17.5-.22,1.04-.13,1.57.08.51.35.98.75,1.3.41.31.94.39,1.42.23.5-.13.87-.55.93-1.06,0-.52-.28-1.01-.74-1.26-.45-.29-1-.38-1.52-.28-.52.17-.97.52-1.27.98-.6,1.02-.9,2.19-.87,3.37-.01.59.08,1.19.28,1.75.18.53.57.96,1.08,1.2.53.19,1.12.11,1.58-.2.46-.31.58-.94.27-1.4,0,0,0,0,0,0-.34-.46-.87-.74-1.45-.74-.59,0-1.16.23-1.59.62-1.17.89-1.39,2.56-.5,3.72.65.86,1.76,1.23,2.8.96.33-.07.64-.23.89-.47.21-.22.28-.55.17-.84-.27-.64-.86-1.09-1.54-1.2-1.4-.3-2.81.46-3.33,1.79-.47,1.33.03,2.81,1.2,3.59.52.41,1.16.64,1.82.65.63-.1,1.14-.57,1.27-1.2v.11c-.1-.45-.44-.8-.89-.91-.48-.07-.96-.01-1.41.17-.94.33-1.77.93-2.39,1.71-.61.8-1.14,1.65-1.6,2.54-.48.89-.96,1.76-1.44,2.62-1.91,3.45-3.82,6.7-5.66,9.76-3.67,6.11-7.18,11.4-10.12,15.76-1.5,2.17-2.85,4.12-4.13,5.74-1.08,1.39-2.25,2.72-3.49,3.96-1.08,1.05-2.27,1.99-3.54,2.8Z"/>
  </g>
</svg>