<?xml version="1.0" encoding="UTF-8"?>
<svg id="Layer_1" xmlns="http://www.w3.org/2000/svg" version="1.1" viewBox="0 0 750 500">
  <!-- Generator: Adobe Illustrator 30.0.0, SVG Export Plug-In . SVG Version: 2.1.1 Build 123)  -->
  <defs>
    <style>
      .st0 {
        fill: none;
      }

      .st1 {
        fill: #e0e0e0;
      }

      .st2 {
        fill: #263238;
      }

      .st3 {
        fill: #fff;
      }

      .st4 {
        fill: #a26760;
      }

      .st5 {
        fill: #fafafa;
      }

      .st6 {
        opacity: .2;
      }

      .st7 {
        opacity: .3;
      }

      .st8 {
        fill: #7b4b45;
      }

      .st9 {
        fill: #6e9ab4;
      }

      .st10 {
        fill: #455a64;
      }
    </style>
  </defs>
  <g id="freepik--background-complete--inject-61">
    <rect class="st5" x="594.42" y="262.6" width="53.48" height="52.08" rx="6.44" ry="6.44"/>
    <path class="st1" d="M641.46,314.69c.68-.04,1.35-.17,2-.37.77-.26,1.49-.67,2.11-1.2.84-.72,1.48-1.65,1.85-2.7.38-1.34.5-2.74.37-4.13v-36.07c.03-.67,0-1.34-.07-2-.09-.67-.3-1.33-.61-1.93-.64-1.25-1.68-2.24-2.95-2.82-.63-.29-1.31-.47-2-.54-.7-.05-1.47,0-2.21,0h-38.93c-1.67,0-3.27.67-4.43,1.87-1.14,1.18-1.77,2.77-1.75,4.41v39.55c.05.67.2,1.32.45,1.94.51,1.21,1.39,2.24,2.52,2.92,1.1.66,2.36.98,3.64.91h10.88l21.44.08,5.82.05h2.04-7.86l-21.44.09h-11.05c-1.36.06-2.7-.29-3.86-1-1.21-.73-2.15-1.82-2.71-3.11-.27-.67-.43-1.37-.49-2.09-.05-.73,0-1.41,0-2.12v-37.46c-.06-3.71,2.9-6.75,6.61-6.81.03,0,.06,0,.09,0h41.18c.76.07,1.5.27,2.19.58,1.36.61,2.48,1.67,3.16,3,.61,1.3.86,2.75.73,4.18v36.07c.12,1.41-.02,2.84-.42,4.2-.41,1.08-1.1,2.03-2,2.75-.64.54-1.37.94-2.17,1.18-.49.15-.99.24-1.5.27l-.63.3Z"/>
    <path class="st1" d="M633.41,286.37c-.25-1.55-.96-2.99-2.05-4.12-1.02-1.15-2.38-1.95-3.88-2.28-2.63-.53-5.29.78-6.48,3.19-1.34-2.21-3.96-3.3-6.47-2.7-1.49.4-2.81,1.25-3.79,2.44-1.05,1.17-1.7,2.65-1.88,4.21-.2,1.99.24,3.99,1.27,5.71,1.19,1.74,2.78,3.16,4.63,4.16,3,1.73,7,3.89,7,3.89,0,0,3.25-2.54,6.18-4.39,1.82-1.07,3.35-2.56,4.46-4.35.95-1.76,1.3-3.78,1.01-5.76Z"/>
    <path class="st1" d="M584.57,228.18c.24-.04.48-.06.72-.05l2.05-.05,7.52-.08,11.17-.06h6.59c1.17-.04,2.35,0,3.52.12,1.21.17,2.39.53,3.49,1.08,2.25,1.02,3.94,2.99,4.59,5.38.18,1.13.24,2.27.18,3.41v3.23c0,4.19,0,8-.06,11.17s-.06,5.69-.08,7.52c0,.85,0,1.53-.05,2.05,0,.24-.01.48-.05.71-.05-.23-.07-.47-.06-.71v-2.05c0-1.83,0-4.39-.09-7.52s0-7-.05-11.17v-3.23c.06-1.1,0-2.2-.18-3.29-.63-2.22-2.21-4.05-4.32-5-1.05-.51-2.17-.84-3.33-1-1.15-.12-2.3-.16-3.45-.12h-6.59l-11.17-.06-7.52-.08-2.05-.05c-.27-.02-.53-.07-.78-.15Z"/>
    <path class="st1" d="M585.89,228.18c0,1.59-1.29,2.88-2.88,2.88-1.59,0-2.88-1.29-2.88-2.88s1.29-2.88,2.88-2.88,2.88,1.29,2.88,2.88h0Z"/>
    <rect class="st5" x="584.12" y="28.55" width="65.57" height="63.85" rx="6.44" ry="6.44"/>
    <path class="st1" d="M643.25,92.4c.83-.04,1.66-.23,2.43-.54,2.25-.95,3.76-3.09,3.89-5.53,0-6.29,0-15.35-.07-26.55v-23.33c.03-.84,0-1.68-.11-2.52-.47-2.59-2.53-4.59-5.13-5-.89-.09-1.79-.12-2.68-.09h-50.98c-1.03,0-2.04.26-2.95.74-.89.48-1.65,1.17-2.22,2-.56.85-.9,1.82-1,2.83-.06,1,0,2.08,0,3.11v49c.07.83.31,1.63.7,2.36.77,1.44,2.08,2.52,3.64,3,.76.23,1.56.32,2.36.28h15.88l26.55.08,7.22.05h2.52-9.74l-26.55.08h-15.88c-.84.04-1.68-.06-2.49-.29-2.58-.79-4.42-3.07-4.66-5.76-.07-.91,0-1.75,0-2.64v-49.54c.11-1.09.47-2.15,1.07-3.07.62-.92,1.44-1.68,2.41-2.22.99-.52,2.08-.8,3.2-.8h50.98c.92-.03,1.84,0,2.75.09,1.85.3,3.49,1.36,4.52,2.92.49.76.83,1.61,1,2.5.11.86.14,1.73.1,2.6v23.33c0,11.22,0,20.28-.1,26.56-.14,2.49-1.7,4.67-4,5.62-.59.23-1.2.38-1.83.43l-.83.3Z"/>
    <path class="st1" d="M639.04,41.13c0,.14-9.66.26-21.57.26s-21.56-.12-21.56-.26,9.65-.26,21.56-.26,21.57.11,21.57.26Z"/>
    <path class="st1" d="M639.04,46.85c0,.14-9.66.26-21.57.26s-21.56-.12-21.56-.26,9.65-.26,21.56-.26,21.57.1,21.57.26Z"/>
    <path class="st1" d="M639.04,52.57c0,.14-9.66.26-21.57.26s-21.56-.12-21.56-.26,9.65-.26,21.56-.26,21.57.12,21.57.26Z"/>
    <path class="st1" d="M639.04,58.29c0,.15-9.66.26-21.57.26s-21.56-.11-21.56-.26,9.65-.26,21.56-.26,21.57.12,21.57.26Z"/>
    <path class="st1" d="M639.04,64.01c0,.15-9.66.27-21.57.27s-21.56-.12-21.56-.27,9.65-.26,21.56-.26,21.57.12,21.57.26Z"/>
    <path class="st1" d="M639.04,69.74c0,.14-9.66.26-21.57.26s-21.56-.12-21.56-.26,9.65-.26,21.56-.26,21.57.11,21.57.26Z"/>
    <path class="st1" d="M639.04,75.46c0,.14-9.66.26-21.57.26s-21.56-.12-21.56-.26,9.65-.26,21.56-.26,21.57.11,21.57.26Z"/>
    <path class="st1" d="M597.55,138.41c0,1.6-1.29,2.89-2.89,2.89s-2.89-1.29-2.89-2.89,1.29-2.89,2.89-2.89,2.89,1.29,2.89,2.89h0Z"/>
    <path class="st1" d="M594.66,137.97c.22-.04.45-.06.67-.05h1.91l7-.08h4.86c1.83.12,3.64-.41,5.11-1.49,1.6-1.22,2.73-2.96,3.21-4.92.24-1.04.34-2.11.29-3.18v-3.35c0-9.05.06-17.23.08-23.23,0-2.93.06-5.31.08-7v-1.91c0-.22.02-.45.05-.67.05.22.07.45.06.67,0,.49,0,1.12.05,1.91,0,1.73,0,4.11.08,7,0,6,0,14.18.07,23.23v3.35c.05,1.11-.05,2.22-.31,3.3-.5,2.07-1.71,3.9-3.41,5.19-1.56,1.13-3.48,1.67-5.4,1.54h-4.86l-7-.08h-1.91c-.22-.05-.43-.13-.63-.23Z"/>
    <rect class="st1" x="97.01" y="228.55" width="8.61" height="38.6"/>
    <rect class="st1" x="82.01" y="243.55" width="38.6" height="8.61"/>
    <path class="st1" d="M133.37,247.95c-.03-.17-.05-.35-.06-.52,0-.38-.06-.89-.11-1.53,0-.34,0-.71-.07-1.12s-.14-.86-.21-1.34c-.15-1.12-.38-2.23-.68-3.32-.75-3-1.96-5.87-3.58-8.51-7.86-13.13-23.94-18.83-38.32-13.59-1.42.51-2.81,1.12-4.15,1.83-1.36.74-2.67,1.58-3.91,2.51-1.27.95-2.47,1.97-3.61,3.07-1.12,1.16-2.16,2.4-3.12,3.69-1.98,2.66-3.51,5.63-4.55,8.78-2.19,6.52-2.19,13.57,0,20.09,1.04,3.15,2.57,6.12,4.55,8.78.96,1.3,2,2.53,3.12,3.69,1.14,1.1,2.34,2.12,3.61,3.07,1.25.93,2.55,1.77,3.91,2.52,6.42,3.36,13.77,4.5,20.9,3.23,9-1.7,16.85-7.15,21.57-15,1.62-2.64,2.83-5.51,3.58-8.51.3-1.09.53-2.19.68-3.31.07-.49.16-.93.21-1.34s0-.79.07-1.13c0-.64.09-1.15.11-1.52,0-.17.03-.35.06-.52.02.17.02.35,0,.52v2.66c0,.41-.12.87-.18,1.36-.13,1.13-.34,2.24-.62,3.34-.72,3.04-1.9,5.96-3.51,8.64-4.73,8.01-12.67,13.6-21.8,15.36-5.71,1.08-11.6.6-17.06-1.37-1.45-.52-2.87-1.14-4.24-1.85-1.39-.75-2.73-1.61-4-2.56-1.3-.96-2.54-2-3.7-3.12-1.14-1.19-2.21-2.45-3.19-3.77-2.03-2.73-3.6-5.77-4.65-9-2.24-6.66-2.24-13.86,0-20.52,1.06-3.23,2.63-6.27,4.66-9,1.9-2.66,4.23-4.99,6.88-6.89,1.27-.95,2.61-1.8,4-2.55,1.37-.72,2.79-1.34,4.24-1.86,5.46-1.97,11.35-2.44,17.06-1.37,9.13,1.76,17.07,7.35,21.8,15.36,1.61,2.68,2.79,5.6,3.51,8.64.29,1.1.49,2.22.62,3.35.06.49.14.94.18,1.35s0,.79,0,1.13v1.54c.03.2.03.41,0,.61Z"/>
  </g>
  <g id="freepik--Plants--inject-61">
    <path class="st10" d="M137.73,436.49s-18.59-21.4-25.6-42.8-3.7-18.93-3.7-18.93c0,0,9.46,20.78,16.65,30.82s20,24.77,20,24.77l-7.35,6.14Z"/>
    <path class="st10" d="M141.43,378.1c-.31-.51-.97-.68-1.48-.37-.37.22-.57.63-.52,1.05,1.13,7.52,3.58,25.15,3.48,36.59-.12,14.86,0,20.6,0,20.6h7.73s-1.37-30.71-3.12-40.08c-1.14-6.2-3.19-12.19-6.09-17.79Z"/>
    <path class="st10" d="M145.65,433.47c3.24-7.34,5.39-15.12,6.37-23.09.64-5.47-.5-12.86-2.19-22.73-.66-3.61-1-7.26-1-10.93.01-1.02.85-1.84,1.87-1.83.67,0,1.28.37,1.6.96.93,1.67,3.63,7.36,4.32,10.93,1.87,9.74,4,14.61,2.37,23.85s-7.56,23.47-7.56,23.47l-5.78-.63Z"/>
    <path class="st10" d="M152.62,434.1s20.41-43.86,21.81-50.41,6.22-21.49,6.79-20.65,1.41,8.77-2.26,17.83-19.38,54.52-19.38,54.52h-7"/>
    <path class="st2" d="M143.43,432.14c-.2-.12-.4-.25-.58-.4-.36-.27-.91-.66-1.58-1.2-1.91-1.52-3.74-3.14-5.49-4.85-5.75-5.65-10.73-12.04-14.81-19-4.07-6.95-7.45-14.28-10.1-21.89-1-2.91-1.78-5.3-2.26-6.95-.25-.83-.43-1.48-.55-1.92-.07-.22-.12-.44-.15-.67.09.21.17.43.24.65.15.47.36,1.1.62,1.89.53,1.63,1.33,4,2.39,6.89,2.73,7.55,6.14,14.85,10.19,21.78,4.06,6.92,8.98,13.31,14.64,19,2.19,2.18,4.06,3.83,5.38,4.93.65.57,1.18,1,1.53,1.27.19.14.37.29.53.47Z"/>
    <path class="st2" d="M145.65,411.1c-.1-.42-.16-.86-.18-1.29-.1-.91-.23-2.09-.38-3.52-.32-3-.83-7.06-1.55-11.55s-1.53-8.54-2.15-11.46l-.74-3.45c-.12-.42-.19-.85-.23-1.28.16.4.29.81.39,1.23.23.81.53,2,.88,3.43.7,2.91,1.56,7,2.28,11.46s1.18,8.61,1.43,11.59c.12,1.49.2,2.7.23,3.54.04.43.05.87.02,1.3Z"/>
    <path class="st2" d="M150.43,375.51c.1.18.18.37.24.56.15.41.36.95.61,1.63s.58,1.57.88,2.61.69,2.19,1,3.51l.5,2.06c.18.72.3,1.48.45,2.26.34,1.56.54,3.24.79,5,.45,3.86.63,7.75.53,11.64-.17,3.88-.61,7.74-1.32,11.56-.37,1.75-.7,3.42-1.14,5-.22.76-.39,1.51-.61,2.22l-.66,2c-.38,1.29-.86,2.42-1.24,3.43s-.74,1.86-1.06,2.54l-.72,1.58c-.08.19-.17.37-.28.54.04-.2.11-.39.2-.57.16-.41.38-.95.65-1.61s.64-1.55,1-2.57.8-2.14,1.17-3.44c.2-.64.41-1.32.62-2s.38-1.45.59-2.21c.42-1.53.73-3.19,1.1-4.94.68-3.8,1.11-7.64,1.27-11.5.12-3.86-.03-7.72-.45-11.56-.23-1.76-.42-3.44-.74-5-.15-.77-.26-1.53-.42-2.25s-.33-1.4-.48-2.06c-.27-1.32-.65-2.48-.93-3.51s-.55-1.92-.8-2.63-.4-1.23-.53-1.65c-.1-.2-.17-.42-.22-.64Z"/>
    <path class="st2" d="M181,363.97c0,.06,0,.13,0,.19,0,.16,0,.34-.09.57-.09.5-.2,1.24-.4,2.18-.4,1.89-1,4.61-2.07,7.9s-2.41,7.16-4.07,11.4-3.56,8.87-5.37,13.8-3.28,9.68-4.57,14.07-2.57,8.27-3.78,11.49c-.93,2.56-2.01,5.06-3.22,7.5-.42.87-.8,1.52-1,2l-.28.5-.11.16s0-.06.07-.18.14-.32.24-.52c.22-.46.57-1.12,1-2,.82-1.74,1.92-4.29,3.08-7.53s2.39-7.15,3.69-11.51,2.72-9.17,4.56-14.1,3.74-9.56,5.41-13.79,3.09-8.08,4.14-11.35,1.76-6,2.2-7.84c.23-.94.37-1.67.48-2.16.06-.23.1-.41.14-.57s-.06-.22-.05-.21Z"/>
    <path class="st10" d="M118.07,354.28c-.7-.67-1.82-.65-2.49.05-.44.46-.6,1.13-.41,1.74.7,2.27,1.56,4.48,2.57,6.62,2.8,6,11,27.36,14.9,39.11,3.9,11.75,9.3,33.66,9.3,33.66l8.24-1.33s-7.54-36-14.91-49c-5.91-10.44-11.84-25.51-17.2-30.85Z"/>
    <path class="st2" d="M134.9,409.12c.18.32.32.65.42,1,.25.65.58,1.59,1,2.77.76,2.35,1.69,5.63,2.63,9.28s1.71,7,2.25,9.37c.24,1.14.45,2.09.62,2.85.09.35.15.7.17,1.06-.15-.32-.26-.65-.34-1l-.75-2.82-2.47-9.38c-.93-3.64-1.81-6.93-2.49-9.29-.33-1.12-.6-2.06-.82-2.8-.11-.34-.18-.69-.22-1.04Z"/>
    <path class="st2" d="M146.08,434.77c-.03-.07-.05-.14-.05-.22,0-.18-.06-.39-.09-.65-.09-.57-.17-1.42-.34-2.5-.3-2.16-.84-5.28-1.73-9.08-1.05-4.45-2.34-8.84-3.85-13.16-1.69-4.89-3.81-10.16-6.22-15.62-4.84-10.9-9.68-20.57-12.86-27.72-1.61-3.57-2.86-6.48-3.68-8.51-.42-1-.72-1.8-.92-2.34-.1-.25-.17-.45-.23-.61s-.07-.22-.07-.22c.05.06.08.13.11.2l.27.6c.24.56.57,1.33,1,2.31.87,2,2.15,4.89,3.8,8.44,3.25,7.11,8.13,16.76,13,27.68,2.41,5.46,4.52,10.75,6.19,15.65,1.51,4.34,2.77,8.75,3.78,13.23.69,3.01,1.22,6.06,1.6,9.13.14,1.09.19,1.94.25,2.51v.65c0,.17.04.23.04.23Z"/>
    <path class="st2" d="M150.18,434.1c-.13-.45-.23-.92-.28-1.39-.17-1-.38-2.24-.64-3.78-.57-3.19-1.44-7.59-2.68-12.38s-2.63-9.05-3.7-12.11c-.52-1.47-1-2.69-1.29-3.61-.18-.44-.32-.89-.43-1.35.22.41.42.84.59,1.28.36.84.85,2.06,1.42,3.58,1.49,3.96,2.77,8,3.83,12.1,1.06,4.1,1.92,8.25,2.56,12.44.23,1.6.41,2.91.51,3.81.07.47.11.94.11,1.41Z"/>
    <rect class="st9" x="134.93" y="432.91" width="32.15" height="39.18"/>
    <g class="st7">
      <rect x="134.93" y="432.91" width="32.15" height="39.18"/>
    </g>
    <rect class="st9" x="128.3" y="432.91" width="28.53" height="39.18"/>
  </g>
  <g id="freepik--speech-bubble--inject-61">
    <path class="st3" d="M182.5,128.23l-9.4-1.31c-12.05,11.69-31.3,11.39-42.99-.66-11.69-12.05-11.39-31.3.66-42.99,12.05-11.69,31.3-11.39,42.99.66,8.81,9.09,11.07,22.69,5.67,34.14h0l3.07,10.16Z"/>
    <path class="st2" d="M182.5,128.23s-.08-.23-.21-.67-.35-1.1-.62-2c-.53-1.72-1.32-4.24-2.34-7.52h.17s-.1.04-.14,0c-.03-.03-.03-.08,0-.11,2.13-4.58,3.09-9.62,2.78-14.66-.11-1.52-.35-3.04-.71-4.52-.38-1.62-.88-3.21-1.5-4.76-6.19-15.42-23.7-22.9-39.12-16.71-9.85,3.95-16.89,12.81-18.52,23.3-.68,4.63-.29,9.35,1.14,13.8,1.34,4.19,3.59,8.04,6.6,11.25,5.33,5.73,12.68,9.17,20.49,9.59h1.29c.42.03.85.03,1.27,0l2.47-.16c1.56-.22,3.1-.53,4.62-.91,4.84-1.33,9.27-3.86,12.89-7.34.02-.01.06-.01.08,0l7,1,1.81.27.62.1-.59-.07-1.79-.23-7-.93h.08c-3.64,3.54-8.11,6.12-13,7.48-1.53.4-3.08.71-4.65.93l-2.5.18c-.43.03-.85.03-1.28,0h-1.41c-7.91-.39-15.35-3.86-20.75-9.65-3.06-3.25-5.35-7.13-6.71-11.38-1.43-4.52-1.81-9.31-1.1-14,.75-4.91,2.7-9.57,5.67-13.55.35-.51.74-.99,1.15-1.45l1.2-1.39,1.33-1.26c.44-.42.9-.82,1.4-1.17l1.42-1.12c.47-.39,1-.66,1.5-1s1-.67,1.52-.95l1.59-.81c4.16-2.06,8.75-3.13,13.4-3.12,8.51.04,16.62,3.62,22.38,9.89,2.49,2.71,4.46,5.86,5.81,9.29.63,1.56,1.14,3.18,1.52,4.82,1.42,6.55.63,13.38-2.26,19.43l-.16-.1h0s.09-.04.13,0c0,0,0,0,0,0h0l2.29,7.67c.25.85.43,1.49.57,1.94s.17.6.17.6Z"/>
    <polygon class="st9" points="137.98 105.96 142.21 101.28 151.18 108.49 164.51 93.18 168.87 97.43 150.98 117.11 137.98 105.96"/>
  </g>
  <g id="freepik--Heartbeats--inject-61">
    <rect class="st5" x="377.93" y="396.76" width="226.02" height="61.78" rx="5.89" ry="5.89"/>
    <path class="st2" d="M598.06,458.54c.49-.03.97-.1,1.44-.22,2.47-.62,4.24-2.79,4.37-5.33v-39.38c0-2.54,0-5.17,0-7.89v-2.05c.03-.68,0-1.37-.1-2.05-.25-1.37-1-2.6-2.09-3.46-1.13-.89-2.56-1.33-4-1.23h-13.94l-199.9.08c-2.39.02-4.51,1.54-5.29,3.8-.31,1.14-.42,2.33-.32,3.51v46.06c-.04,1.13,0,2.26.11,3.38.44,2.21,2.15,3.94,4.35,4.4,1.11.13,2.23.17,3.34.12h39.39l89.88.05,60.59.08,16.47.05h5.74-5.74l-16.47.05-60.59.08-89.88.06h-39.43c-1.15.05-2.3,0-3.44-.14-1.17-.25-2.25-.83-3.09-1.68-.84-.85-1.42-1.93-1.66-3.1-.13-1.16-.17-2.33-.12-3.49v-47.88c.01-.63.13-1.26.34-1.86.86-2.48,3.2-4.14,5.82-4.14l199.9.08h13.87c1.51-.09,3.01.37,4.2,1.31,1.16.91,1.94,2.22,2.2,3.67.1.7.13,1.4.1,2.1v9.94c0,10.16,0,18.91-.05,26.07v13.32c-.15,2.58-1.98,4.77-4.49,5.38-.35.09-.72.14-1.08.15l-.43.16Z"/>
    <path class="st9" d="M583.33,433.03h-2.75l-7.87.05-12.46.05c-.65.05-1.3-.1-1.86-.43-.28-.18-.53-.41-.74-.68-.2-.27-.34-.56-.51-.84l-2-3.47c-.35-.6-.69-1.2-1.05-1.81-.28-.64-.69-1.21-1.21-1.68-.56-.4-1.27-.56-1.95-.43-.7.14-1.31.57-1.67,1.19l-10.71,16.92c-.44.89-1.3,1.5-2.28,1.63-1.02.13-2.02-.29-2.64-1.11-1-1.63-1.88-3.26-2.85-4.92l-5.86-10.26-6.16-10.78-1.58-2.77c-.42-.92-1.37-1.48-2.38-1.41-.49.03-.96.22-1.34.53-.37.36-.71.77-1,1.2l-2,2.63-8,10.74-4.13,5.5c-.42.48-.99.81-1.61.94-.59.07-1.19.09-1.79.07h-12.23c-.59.02-1.17,0-1.76-.05-.62-.11-1.19-.42-1.62-.89-.4-.48-.7-.91-1.06-1.37l-4.1-5.38-.51-.66c-.16-.2-.34-.38-.55-.52-.42-.28-.92-.43-1.42-.41-.51.02-.99.19-1.4.49-.39.35-.7.77-.94,1.23l-6.83,11-1.67,2.68-.83,1.33c-.26.47-.56.91-.89,1.33-.79.84-2.01,1.13-3.1.74-.53-.19-.99-.54-1.32-1-.33-.46-.54-.88-.81-1.32l-11.72-19.74-2.71-4.54-1.31-2.21c-.34-.75-.82-1.43-1.42-2-.64-.44-1.45-.56-2.19-.32-.36.11-.69.32-.95.59-.26.29-.5.6-.72.92l-2.76,3.8-9.72,13.34-1.06,1.44c-.32.51-.8.91-1.37,1.13-.54.18-1.11.25-1.68.2h-7.29l-7.87-.05h-2.7,2.7l7.87-.05h7.29c.54.04,1.08-.02,1.59-.19.51-.2.94-.55,1.24-1l1-1.45c2.85-3.94,6.08-8.43,9.66-13.39.89-1.24,1.81-2.5,2.75-3.8.23-.35.48-.68.75-1,.97-.99,2.52-1.12,3.65-.32.37.26.67.6.89,1l.65,1.09c.44.73.88,1.46,1.32,2.21l2.72,4.55,11.76,19.72c.26.42.51.9.78,1.27.28.37.67.66,1.11.81.91.32,1.92.07,2.57-.63.31-.4.59-.81.84-1.25l.82-1.33,1.66-2.69,6.83-11c.26-.52.62-.98,1.06-1.36.49-.37,1.08-.58,1.69-.6.62-.02,1.22.15,1.73.5.25.17.48.38.66.62l.52.67,4.1,5.38c.34.43.7.93,1,1.33.35.38.82.63,1.33.73.49.07,1.11,0,1.67,0h12.17c.56.02,1.12,0,1.68-.06.51-.1.98-.37,1.32-.77l4.12-5.47c2.72-3.64,5.4-7.22,8.05-10.73l2-2.63c.32-.47.68-.91,1.09-1.3.95-.76,2.27-.86,3.32-.24.49.31.9.75,1.16,1.27l1.58,2.77,6.14,10.79,5.84,10.27c1,1.65,1.88,3.34,2.8,4.88.53.69,1.38,1.05,2.24.94.86-.11,1.62-.64,2-1.42l10.8-16.96c.41-.7,1.11-1.19,1.91-1.35.78-.14,1.59.04,2.23.51.31.24.56.53.76.86l.54.93c.35.61.69,1.22,1,1.82l2,3.48c.24.57.64,1.06,1.14,1.41.51.31,1.11.45,1.7.4h12.46l7.87.05h2.05l.73.11Z"/>
    <line class="st0" x1="549.85" y1="396.76" x2="528.04" y2="346.36"/>
    <path class="st2" d="M528.04,346.36c.13-.06,5.12,11.18,11.14,25.09s10.8,25.25,10.67,25.31-5.12-11.18-11.14-25.1-10.8-25.25-10.67-25.3Z"/>
    <path class="st2" d="M530.71,346.18c0,1.5-1.22,2.72-2.72,2.72s-2.72-1.22-2.72-2.72,1.22-2.72,2.72-2.72,2.72,1.22,2.72,2.72h0Z"/>
  </g>
  <g id="freepik--Character--inject-61">
    <path class="st1" d="M332.37,141.38c4.1,2.33,7.39,5.86,9.41,10.12,3.37,7.11,8.25,23.5,8.25,23.5l15-33.62,16.93,6.47s-19.21,47.77-22.67,53.49c-8.78,14.51-20.3,13.18-23.57,1.48s-3.35-61.44-3.35-61.44Z"/>
    <path class="st9" d="M429.29,69.15c-2.11-.61-4.26-1.09-6.43-1.46-3.58-.53-3.23-3.43-3.23-3.43.27-3.87.31-7.76.13-11.64l-21.67-.8c-.15,10.1-3.66,24.22-12.07,45.87s-18.28,15.23-32.42,37.33c-16,25.1-1.14,48-1.14,48l8.87,1.8,35.53-32.62s2.23-24.92,4.05-34.94,10.32-16.35,10.32-16.35l1.84-5.89c1.95-6.3,7.98-10.44,14.56-10l1.14.07.52-15.94Z"/>
    <path class="st2" d="M416.8,85.33s-.22-.15-.54-.52c-.45-.53-.84-1.1-1.17-1.71-2.28-4.14-1.85-9.23,1.09-12.93.43-.54.91-1.04,1.44-1.48.37-.31.6-.45.62-.42s-.78.74-1.76,2.13c-2.65,3.66-3.06,8.48-1.05,12.53.73,1.54,1.45,2.35,1.37,2.4Z"/>
    <path class="st9" d="M419.77,52.3c-.06,1.58-5,2.68-10.95,2.45s-10.81-1.69-10.75-3.27,5-2.68,11-2.45,10.76,1.66,10.7,3.27Z"/>
    <g class="st7">
      <path d="M419.77,52.3c-.06,1.58-5,2.68-10.95,2.45s-10.81-1.69-10.75-3.27,5-2.68,11-2.45,10.76,1.66,10.7,3.27Z"/>
    </g>
    <path class="st2" d="M419.71,52.45s0,.08-.14.19c-.16.17-.33.31-.52.44-.68.48-1.44.84-2.24,1.07-2.63.71-5.36.97-8.07.78-2.72-.05-5.41-.5-8-1.34-.79-.27-1.52-.68-2.16-1.22-.18-.14-.33-.32-.45-.51-.09-.13-.12-.2-.11-.21s.22.24.69.57c.66.44,1.39.78,2.15,1,2.58.71,5.24,1.1,7.91,1.16,2.67.18,5.34-.03,7.95-.62,1.06-.27,2.07-.72,2.99-1.31Z"/>
    <g class="st6">
      <path class="st3" d="M375.6,120.14c-13.32,4.81-19,15.5-21.57,26.69-.69,3-1,6.2,0,9.1s3.69,5.4,6.77,5.38c3.8,0,6.6-3.59,8.06-7.1s2.3-7.45,4.93-10.18c4.23-4.39,11.94-4.46,15.34-9.52,2.39-3.56,1.54-8.77-1.53-11.78-3.25-2.95-7.82-3.94-12-2.59"/>
    </g>
    <path class="st3" d="M400.93,59.31c-.04.59-.11,1.19-.22,1.77-.17,1.13-.46,2.76-.86,4.78-1.05,5.24-2.37,10.42-3.95,15.52-1.58,5.09-3.42,10.1-5.5,15-.81,1.88-1.49,3.39-2,4.42-.24.55-.51,1.08-.82,1.59.17-.57.38-1.13.63-1.67.45-1,1.08-2.58,1.84-4.48,1.52-3.8,3.5-9.1,5.35-15.06s3.2-11.45,4.08-15.44c.45-2,.79-3.62,1-4.74.1-.58.25-1.14.45-1.69Z"/>
    <path class="st3" d="M424.14,70.69c-.84.25-1.72.33-2.59.23-.87.08-1.76-.02-2.59-.29,1.71-.33,3.47-.31,5.18.06Z"/>
    <path class="st9" d="M512.37,93.3c-3-5.75-7.67-10.45-13.4-13.49-1.42-.75-2.84-1.45-4.27-2.12-2.51-1.09-3.82-3.88-3.06-6.51.33-1.16.78-2.28,1.35-3.35l-11.17-4.92c-.59,1.4-1.32,2.74-2.18,4-2.08,3.12-6.3,3.95-9.42,1.87-.6-.4-1.14-.9-1.58-1.47-.63-.82-1.21-1.69-1.72-2.6-3.87-6.85-3.34-9-3.34-9l-19.05,4s1.05,8.68.22,12.3c-.74,3.03-2.26,5.82-4.42,8.07-21.43,11.83-30,21.44-30,21.44l-15.81,15.26-2.32,20,3.2,21.81,45.8-6.13s29.34-27.5,29.71-28.47,23.66-5.3,23.66-5.3l19.39-6.71c2.63-7.08.97-13.65-1.59-18.68Z"/>
    <g class="st7">
      <path d="M512.37,93.3c-3-5.75-7.67-10.45-13.4-13.49-1.42-.75-2.84-1.45-4.27-2.12-2.51-1.09-3.82-3.88-3.06-6.51.33-1.16.78-2.28,1.35-3.35l-11.17-4.92c-.59,1.4-1.32,2.74-2.18,4-2.08,3.12-6.3,3.95-9.42,1.87-.6-.4-1.14-.9-1.58-1.47-.63-.82-1.21-1.69-1.72-2.6-3.87-6.85-3.34-9-3.34-9l-19.05,4s1.05,8.68.22,12.3c-.74,3.03-2.26,5.82-4.42,8.07-21.43,11.83-30,21.44-30,21.44l-15.81,15.26-2.32,20,3.2,21.81,45.8-6.13s29.34-27.5,29.71-28.47,23.66-5.3,23.66-5.3l19.39-6.71c2.63-7.08.97-13.65-1.59-18.68Z"/>
    </g>
    <path class="st9" d="M417.57,145.79c-7.75,2.4-79.92,19.68-73.28,72.84s37.43,78.4,53.07,92.35,37.95,35.4,62.91,28.68,53.16-56.97,61.87-82.34,13-56.36-2-68.63l-74.38-53.07s-16.23,6.47-28.19,10.17Z"/>
    <g class="st6">
      <path d="M480.43,179.63s7,14.49,23.84,16.06c15.6,1.49,18.33-4.69,18.33-4.69-1.98-2.08-4.23-3.88-6.68-5.37l-35.49-6Z"/>
    </g>
    <path class="st9" d="M431.52,77.25c-.16,4.35-1.39,7.83-2.75,7.78s-2.32-3.62-2.16-8,1.4-7.84,2.76-7.78,2.32,3.65,2.15,8Z"/>
    <path class="st2" d="M463.55,55.81c.29,1.34-3.71,3.37-8.95,4.53s-9.73,1-10-.32,3.71-3.37,8.95-4.53,9.7-1.02,10,.32Z"/>
    <path class="st9" d="M426.73,142.74s19.23-28.12,58.68-32.93c0,0,20.32-4.08,45.32,9.21l-9.2,28.91s-12.29-4.3-25.21-1.28c0,0-21.84,5.19-22.61,27.09"/>
    <path class="st9" d="M529.22,134.54c-2.64,8-6.4,13.86-8.4,13.2s-1.5-7.66,1.14-15.61,6.39-13.86,8.4-13.2,1.49,7.65-1.14,15.61Z"/>
    <g class="st6">
      <path d="M404.78,205.8h0Z"/>
      <path d="M426.84,177.3c.81.04,1.61-.01,2.41-.14.81-.15,1.59-.43,2.32-.82,1.36-.77,2.61-1.71,3.71-2.82.55-.51,1.08-1.05,1.62-1.51.43-.48,1.01-.79,1.65-.9,1.56-.07,3-.38,4.47-.37.35,0,.71.03,1.05.11.32.05.62.2.84.44.45.61.94,1.18,1.47,1.71.54.53,1.12,1.01,1.74,1.44.6.46,1.32.74,2.07.81-.74-.11-1.44-.43-2-.93-.58-.46-1.12-.97-1.61-1.53-.5-.55-.95-1.15-1.34-1.78-.27-.33-.64-.56-1.05-.66-.38-.11-.77-.18-1.17-.21-1.53-.11-3.05.12-4.48.08-.23,0-.46.02-.69.07-.21.07-.41.15-.61.25-.35.19-.68.41-1,.66-.62.47-1.18,1-1.76,1.43-1.07.95-2.27,1.75-3.56,2.38-.61.28-1.26.46-1.93.54-.69.06-1.37.06-2.06,0-2.86-.33-5.66-1.09-8.29-2.26h0c-1.3-2.49-2.12-5.2-2.39-8-.14-1.4-.14-2.8,0-4.2.08-.69.19-1.37.34-2.05.14-.65.33-1.3.57-1.92h-.05c.83-1.2,1.74-2.35,2.72-3.43.63-.71,1.3-1.4,2-2,.35-.32.7-.63,1-.92l.52-.41.24-.16.08-.05h0l-.72-2.26-.36.16-.23.14c-.15.09-.27.18-.38.26s-.43.34-.64.51c-.39.34-.77.69-1.14,1.05-.74.71-1.43,1.45-2.1,2.22-1.12,1.29-2.15,2.66-3.09,4.09h-.07c0,.08-.05.16-.08.25l-.37.59c-2.16,3.46-3.38,7.31-5.86,10-.61.68-1.28,1.3-2,1.86-.77.55-1.57,1.06-2.4,1.51-1.72,1-3.43,2-5.11,3.06-1.7,1.07-3.33,2.25-4.88,3.53-1.37,1.1-2.57,2.41-3.56,3.87-3.11-.24-6.24-.24-9.35,0-.42.07-.83.11-1.27.22-.23.04-.46.11-.68.19l-.35.13-.31.16c-.72.42-1.41.87-2.08,1.37-1.3.93-2.57,1.88-3.84,2.82-2.48,1.92-5.08,3.67-7.79,5.24-.34.19-.68.32-1,.48s-.63.21-1.08.32c-.81.21-1.59.55-2.3,1-1.39.88-2.59,2.02-3.53,3.37v.12l-2.67,14.47,3.24-14.3c.93-1.21,2.08-2.23,3.4-3,.65-.37,1.34-.63,2.07-.79.41-.08.81-.19,1.21-.31.39-.14.78-.29,1.15-.47,2.84-1.48,5.57-3.15,8.19-5,1.31-.89,2.62-1.78,3.93-2.63.62-.42,1.27-.81,1.94-1.15l.22-.11.21-.06c.15-.05.31-.09.47-.11.32-.07.71-.09,1.07-.13,2.86-.09,5.72.04,8.56.38v3.58c0,.46-.05.92-.17,1.36-.25.87-.77,1.64-1.47,2.21-.38.29-.8.54-1.24.73l-1.4.75c-1.88,1.01-3.7,2.12-5.46,3.33-1.82,1.2-3.45,2.67-4.82,4.36-.16.23-.31.48-.46.71s-.26.53-.39.79c-.2.52-.38,1-.53,1.53-.32,1.02-.59,2.06-.81,3.11-.46,2.08-.76,4.16-1.21,6.19-.22,1.02-.51,2.02-.88,3-.34.93-.84,1.8-1.5,2.54-.76.71-1.56,1.36-2.41,1.95-.87.68-1.6,1.5-2.18,2.44-1.05,1.88-1.78,3.93-2.13,6.06-.43,2.07-.76,4.16-1,6.25-.52,4.19-.85,8.39-1,12.62,0,1.05-.06,2.11-.05,3.16-.03,1.06.04,2.13.19,3.18.39,2.16,1.83,3.84,2.84,5.65.25.46.45.94.62,1.43.15.5.26,1.01.33,1.53.15,1,.25,2.09.37,3.13.11,1.05.27,2.09.49,3.12.21,1.04.62,2.02,1.21,2.9-.58-.88-.97-1.87-1.16-2.91-.21-1.03-.35-2.07-.44-3.12-.1-1.05-.18-2.1-.32-3.14-.06-.53-.17-1.05-.31-1.56-.16-.51-.36-1.01-.61-1.48-1-1.85-2.39-3.53-2.72-5.61-.13-1.03-.17-2.08-.14-3.12,0-1.05,0-2.1.1-3.15.2-4.2.6-8.39,1.18-12.54.31-2.08.67-4.15,1.13-6.19.37-2.03,1.09-3.99,2.12-5.78.53-.85,1.21-1.59,2-2.2l1-.72c-.52.97-1,1.97-1.41,3-.74,1.71-1.19,3.54-1.32,5.4-.05.94.07,1.87.35,2.77.29.85.61,1.7.95,2.53.69,1.66,1.42,3.29,2,4.95,1.23,3.35,2.18,6.79,2.83,10.3.31,1.77.74,3.52,1.28,5.24.3.86.7,1.69,1.19,2.46.52.77,1.17,1.39,1.68,2.1.98,1.48,1.71,3.11,2.16,4.82.39,1.76,1,3.46,1.83,5.06.46.8,1.09,1.49,1.86,2,.79.47,1.66.76,2.57.87,1.78.24,3.61.22,5.21,1s2.67,2.3,4,3.53c.62.64,1.26,1.27,1.94,1.86.66.61,1.41,1.12,2.23,1.5.84.34,1.74.5,2.64.47.89-.04,1.79.02,2.67.17,1.76.32,3.48.84,5.12,1.56-1.63-.73-3.35-1.27-5.11-1.61-1.76-.41-3.64.11-5.28-.68-1.56-.87-2.95-2.02-4.11-3.37-.62-.65-1.22-1.3-1.83-2-.61-.68-1.33-1.23-2.14-1.64-1.64-.85-3.52-.85-5.26-1.1-.87-.11-1.71-.4-2.46-.86-.72-.49-1.32-1.15-1.75-1.91-.8-1.58-1.39-3.26-1.76-5-.44-1.76-1.18-3.43-2.17-4.95-.53-.75-1.17-1.38-1.65-2.11-.46-.74-.84-1.54-1.11-2.37-.52-1.7-.93-3.43-1.22-5.19-.63-3.54-1.55-7.02-2.75-10.4-.61-1.69-1.34-3.33-2-5-.34-.82-.64-1.66-.92-2.49-.25-.82-.35-1.68-.29-2.53.14-1.75.56-3.46,1.26-5.07.68-1.63,1.5-3.19,2.46-4.67h-.05c.68-.78,1.22-1.68,1.59-2.65.41-1,.75-2.03,1-3.08.5-2.07.84-4.15,1.31-6.18.11-.46.23-.93.35-1.38v1.57c0,1.05.17,2.08.49,3.08.18.5.4.97.68,1.42.26.42.47.86.65,1.32.34.93.55,1.9.63,2.88.06,1.02.27,2.03.61,3,.41.96,1.03,1.82,1.81,2.52.73.64,1.35,1.4,1.81,2.26.39.9.52,1.9.38,2.87-.09,1.01-.23,2.01-.43,3-.16.87-.33,1.74-.5,2.61l-.18.12s.08.1.13.14c-.19,1-.36,2.07-.46,3.12-.11,1-.11,2,0,3,.14,1.01.36,2.02.64,3,.54,1.96,1.43,3.8,2.61,5.45-1.16-1.66-2.01-3.52-2.51-5.48-.27-.98-.47-1.99-.59-3-.11-1-.11-2,0-3,.11-1,.28-1.95.47-2.92.35.3.74.56,1.16.77.53.27,1.07.5,1.63.68,1.1.36,2.23.63,3.37.8,1.13.18,2.28.28,3.43.28,1.15.02,2.3-.14,3.4-.46-1.11.26-2.25.34-3.39.26-2.26-.14-4.49-.63-6.61-1.43-.51-.21-1.01-.45-1.49-.73-.45-.26-.85-.6-1.18-1l-.18.12c.16-.79.34-1.57.49-2.36.21-.99.38-1.99.49-3,.15-1.04.02-2.1-.38-3.07-.49-.92-1.15-1.73-1.94-2.4-.72-.66-1.29-1.47-1.66-2.38-.31-.94-.49-1.92-.53-2.91-.07-1.02-.28-2.03-.62-3-.18-.49-.4-.97-.66-1.42-.25-.41-.45-.85-.61-1.31-.28-.94-.42-1.91-.41-2.89.01-1.76.24-3.51.67-5.22h0l.41-.6c1.31-1.56,2.86-2.91,4.58-4,1.73-1.15,3.53-2.21,5.38-3.16l1.39-.71c.53-.23,1.03-.52,1.49-.87.14-.11.27-.23.39-.35.77.84,1.6,1.62,2.48,2.34,1.14.93,2.39,1.71,3.73,2.33.34.17.7.28,1,.43s.52.21.78.35c.52.3.99.68,1.4,1.11.88.94,1.63,2.01,2.21,3.16.61,1.18,1.12,2.41,1.52,3.68.1.31.19.64.26.94.04.14.07.29.09.44.04.18.1.35.18.51l.19.29c.24.32.5.62.79.9l-2.08,11.26c-.69.44-1.28,1.03-1.73,1.71-.49.72-.8,1.55-.89,2.41l-.92,5,1.1-5c.11-.83.43-1.62.93-2.29.5-.66,1.14-1.2,1.87-1.58h.08v-.08l2.39-10.8.12.1c2.13,1.86,4.36,3.49,6.59,5.13.54.37,1.02.8,1.45,1.29.43.5.81,1.04,1.14,1.61.68,1.16,1.23,2.4,1.64,3.68.43,1.29.7,2.64.8,4,.05,1.34-.05,2.68-.3,4-.43,2.7-1.24,5.38-1.35,8.19-.03.71.09,1.41.33,2.08.15.32.33.62.53.91.17.3.34.6.5.9.64,1.23,1.16,2.51,1.56,3.83-.36-1.34-.84-2.65-1.43-3.9-.15-.31-.31-.62-.47-.92-.18-.29-.34-.59-.48-.9-.21-.64-.29-1.32-.24-2,.2-2.73,1.1-5.37,1.63-8.1.32-1.37.47-2.78.46-4.19-.06-1.41-.29-2.81-.69-4.17-.38-1.37-.91-2.69-1.58-3.94-.35-.63-.75-1.23-1.19-1.8-.23-.3-.49-.57-.76-.83-.29-.27-.56-.48-.83-.69-2.16-1.72-4.33-3.43-6.31-5.28-.47-.42-.89-.89-1.27-1.39l-.09-.14h0c0-.16-.06-.42-.1-.58-.07-.38-.16-.72-.25-1.07-.39-1.37-.89-2.71-1.5-4-.62-1.34-1.43-2.58-2.4-3.69-.52-.59-1.12-1.09-1.79-1.51-.34-.2-.75-.38-1.09-.54s-.58-.23-.86-.38c-2.22-1.18-4.16-2.81-5.7-4.79.08-.2.17-.39.23-.59.17-.57.26-1.16.26-1.76v-1.58l.09-2.94c.96-1.54,2.18-2.9,3.62-4,1.52-1.2,3.1-2.3,4.75-3.31,1.66-1,3.36-2,5.08-2.93.9-.48,1.78-1.02,2.62-1.6.85-.62,1.64-1.31,2.36-2.08,1.37-1.54,2.53-3.26,3.43-5.12.14-.27.28-.55.43-.82-.01,1,.05,2.01.19,3,.41,3.06,1.4,6,2.93,8.68l.66,1.13v.1h.13c1.26,2.15,2.58,4.24,4,6.29.86,1.24,1.82,2.42,2.87,3.51,1.07,1.1,2.28,2.04,3.6,2.82,1.29.67,2.53,1.43,3.72,2.28,1.15.78,2.03,1.89,2.52,3.19.2.65.23,1.34.1,2-.15.66-.37,1.42-.52,2.13-.34,1.44-.65,2.89-.94,4.33s-.57,2.91-.81,4.36c-.27,1.46-.45,2.94-.54,4.42.01.76.19,1.51.53,2.19.31.68.68,1.33,1.11,1.93.85,1.21,1.81,2.34,2.88,3.36-1.03-1.06-1.95-2.21-2.76-3.44-.4-.61-.73-1.26-1-1.94-.29-.66-.44-1.37-.43-2.09.14-1.46.36-2.91.67-4.35.3-1.44.62-2.88,1-4.31s.69-2.86,1.08-4.28c.18-.73.4-1.37.59-2.15.2-.78.2-1.61,0-2.39-.5-1.5-1.45-2.82-2.72-3.77-1.19-.91-2.44-1.73-3.74-2.46-1.2-.76-2.3-1.68-3.26-2.73-.96-1.07-1.83-2.22-2.61-3.43-1-1.53-1.94-3.11-2.85-4.72.65.18,1.3.34,2,.48,1.48.34,2.99.55,4.51.63Z"/>
      <path d="M496.98,292.19c-.23-.61-.47-1.22-.74-1.82-.13-.29-.27-.59-.43-.88-.14-.3-.36-.56-.62-.77-.58-.32-1.21-.53-1.86-.64-.64-.14-1.29-.24-1.93-.32-1.29-.18-2.62-.26-3.87-.5-.29-.06-.29-.41-.21-.71.08-.31.2-.6.35-.88.3-.58.64-1.14,1-1.68.7-1.1,1.5-2.11,2.17-3.27.17-.66.17-1.34,0-2-.13-.65-.34-1.29-.61-1.9-.55-1.2-1.24-2.33-2.07-3.36-.41-.51-.85-1-1.29-1.5-.43-.48-.81-.99-1.16-1.53-.7-1.09-1.3-2.23-1.81-3.42-1-2.39-1.8-4.87-2.38-7.4-.59-2.53-.97-5.09-1.15-7.68-.06-.92-.08-1.84-.07-2.76.16-.38.33-.74.48-1.12l-.45-.18h0c1.41-5.92,3.21-11.76,5.17-17.54l.4-1.2.2-.61c.06-.23.13-.47.17-.7.15-.88.23-1.76.24-2.65,0-1.72-.08-3.43-.26-5.14-.24-2.32-.6-4.63-1.08-6.91.37.24.75.5,1.1.77.98.73,1.88,1.57,2.69,2.49.8.9,1.46,1.91,1.95,3,.46,1.16.84,2.36,1.13,3.57.65,2.49,1.18,5,1.72,7.57.14.64.28,1.28.43,1.93.09.33.17.65.3,1l.12.3c.05.08.1.16.16.24l.12.15.26.3c.79,1,1.56,2,2.31,3.09s1.48,2.12,2.18,3.2c.7,1.06,1.33,2.17,1.87,3.32.2.58.31,1.18.33,1.79.06.64.09,1.28.11,1.92v3.88c0,.65-.08,1.29-.14,1.93-.05.64-.15,1.27-.31,1.89-.35,1.22-.89,2.43-1.22,3.7-.36,1.27-.4,2.62-.09,3.91.37,1.26,1.04,2.41,1.95,3.36-.86-.97-1.49-2.13-1.81-3.39-.25-1.27-.16-2.57.24-3.8.36-1.24.95-2.39,1.35-3.66.2-.63.34-1.29.4-1.95.09-.65.16-1.3.22-1.95.11-1.3.17-2.61.19-3.92v-2c0-.68-.11-1.35-.31-2-.51-1.23-1.12-2.42-1.82-3.55-.66-1.13-1.36-2.24-2.08-3.33s-1.44-2.17-2.24-3.25c-.11-.13-.2-.26-.37-.44,0,0-.05-.05,0-.06h0l-.06-.17c-.09-.29-.16-.58-.21-.87-.13-.62-.24-1.25-.35-1.89-.44-2.56-.89-5.14-1.45-7.71-.27-1.32-.63-2.63-1.08-3.9-.53-1.3-1.24-2.51-2.13-3.6-.87-1.07-1.85-2.05-2.92-2.91-.99-.82-2.06-1.54-3.19-2.16-.71-3.19-1.2-6.54-1.72-9.84s-1-6.64-1.45-10c-.93-6.67-1.82-13.33-2.67-20l-2.35.31c.93,6.67,1.88,13.32,2.89,20,.51,3.32,1,6.65,1.57,10s1.08,6.63,1.86,10c.89,3.2,1.53,6.47,1.92,9.77.2,1.64.31,3.28.32,4.93v1.18c-.55.05-1.08.2-1.57.45-.57.3-1.1.67-1.59,1.09-.88.77-1.7,1.62-2.45,2.52-1.47,1.74-2.77,3.55-4.15,5.25-.34.42-.69.83-1.05,1.21-.29.35-.63.65-1,.9l-.13.06h-1.12c-.53,0-1.07,0-1.61-.09s-1.08-.11-1.62-.19c-.49-.06-.97-.19-1.43-.38-.92-.38-1.72-1.02-2.29-1.84-.16-.22-.23-.38-.43-.69-.56-.83-1.45-1.39-2.45-1.53-.71-.07-1.14,0-1.7,0-.53-.03-1.05-.11-1.57-.23-2.11-.48-4.01-1.61-5.43-3.23-.33-.4-.56-.87-.67-1.37-.13-.58-.37-1.12-.71-1.61-.19-.26-.46-.46-.76-.57-.3-.11-.64-.11-.94,0-.51.17-1.05.22-1.58.16-1.1-.11-2.17-.37-3.2-.76-.52-.19-1.03-.41-1.52-.67-.51-.21-.94-.56-1.27-1,.31.47.74.85,1.24,1.1.48.28.98.53,1.49.74,1.03.45,2.12.76,3.23.92.58.1,1.17.06,1.73-.1.46-.17.98.01,1.22.44.27.44.46.94.55,1.45.11.59.35,1.15.71,1.63,1.83,2.28,4.49,3.74,7.39,4.07.55.08,1.24,0,1.63.11.45.08.87.29,1.2.6.16.15.31.32.42.51.09.16.26.5.42.74.42.66.96,1.23,1.59,1.7-1.14.84-2.32,1.65-3.54,2.38-.66.39-1.35.75-2.05,1.06-.64.33-1.37.48-2.09.43l-2.33-.48c-.4-.08-.75-.18-1.19-.23-.43-.03-.86.03-1.26.18-.4.14-.76.37-1.07.67-.29.25-.59.5-.9.74-.6.49-1.24.93-1.92,1.3-.63.41-1.38.58-2.12.5-.79-.18-1.62-.18-2.41,0-.78.16-1.54.41-2.27.74-.75.3-1.43.76-2,1.34-1,1.25-1.8,2.59-2.67,3.91s-1.68,2.66-2.51,4c.86-1.33,1.72-2.64,2.6-4s1.69-2.51,2.69-3.75c.55-.54,1.21-.97,1.93-1.24.71-.31,1.46-.54,2.22-.68.75-.17,1.52-.17,2.27,0,.83.14,1.68-.03,2.39-.48.7-.37,1.37-.8,2-1.29.31-.24.62-.49.92-.75.27-.25.59-.44.93-.56.34-.12.7-.16,1.06-.12.34,0,.75.16,1.12.24l2.29.52c.22.05.45.07.68.06.21-.01.42-.04.63-.09.4-.1.79-.22,1.17-.37.74-.31,1.46-.67,2.16-1.06,1.34-.77,2.64-1.61,3.89-2.52.14.09.29.17.44.25.56.26,1.15.45,1.76.56.56.1,1.12.19,1.68.27.57.08,1.14.14,1.72.17h1.38c.23-.03.45-.1.66-.2.57-.31,1.09-.71,1.54-1.18.43-.41.81-.83,1.19-1.26,1.5-1.69,2.87-3.43,4.35-5,.7-.78,1.46-1.51,2.28-2.17.36-.3.76-.54,1.19-.74h.07l-.32,1c-2.11,6.41-3.88,12.93-5.3,19.53-.2,1-.39,2-.56,3-.5,1.11-1,2.22-1.54,3.31-1.23,2.59-2.65,5.09-4.23,7.49-.78,1.19-1.69,2.29-2.71,3.28-1.04.94-2.29,1.63-3.65,2-2.76.77-5.6,1.2-8.47,1.27-2.88.11-5.76.06-8.63-.16-.75-.01-1.49.14-2.17.44-.68.26-1.34.56-2,.84-.65.29-1.32.54-2,.73-.33.09-.66.13-1,.13-.34-.04-.68-.12-1-.23-1.39-.37-2.78-.79-4.2-1.06-.36-.08-.72-.12-1.09-.12-.1-.01-.19-.01-.29,0-.09.04-.17.1-.24.18l-.37.4c-.49.53-1,1-1.53,1.52-1.05.99-2.19,1.88-3.41,2.65-1.2.8-2.57,1.3-4,1.46,1.44-.14,2.83-.63,4.05-1.42,1.23-.75,2.39-1.63,3.45-2.61.54-.48,1.06-1,1.56-1.51l.37-.39c.04-.06.11-.11.18-.14.08,0,.17,0,.25,0,.36,0,.71.05,1.06.12,1.4.29,2.78.73,4.17,1.12.35.12.71.2,1.08.25.37,0,.74-.04,1.1-.13.7-.18,1.39-.42,2.06-.71.67-.28,1.33-.57,2-.81.63-.27,1.31-.41,2-.4,2.88.25,5.78.34,8.67.27,2.91-.03,5.81-.43,8.62-1.19,1.44-.38,2.77-1.1,3.89-2.09,1.06-1.01,2-2.14,2.82-3.35,1.62-2.41,3.08-4.92,4.36-7.53.17-.35.33-.71.5-1.06-.2,1.49-.37,3-.44,4.5l-.08,2.52c-.05.82-.12,1.64-.25,2.44-.24,1.62-.73,3.19-1.45,4.66-.73,1.46-1.69,2.79-2.86,3.94-.58.58-1.2,1.13-1.83,1.69-.69.55-1.3,1.2-1.79,1.93-.49.65-1.02,1.26-1.6,1.83l-1.75,1.81c-1.17,1.21-2.34,2.43-3.48,3.66-4.65,4.88-8.87,10.14-12.63,15.74-3.67,5.63-6.76,11.78-7.93,18.43,1.27-6.63,4.46-12.71,8.2-18.25,2.86-4.16,6.01-8.12,9.42-11.84-.47,2.48-.79,4.98-.94,7.5-.24,2.88-.03,5.78.63,8.59.33,1.42,1.02,2.73,2,3.81,1.07.93,1.86,2.14,2.28,3.5.89,2.7,1.42,5.5,1.6,8.34-.13-2.86-.62-5.7-1.46-8.44-.23-.69-.52-1.36-.88-2-.18-.32-.39-.61-.62-.89-.23-.29-.53-.52-.76-.77-.93-1.05-1.57-2.33-1.87-3.7-.58-2.78-.73-5.63-.42-8.45.23-2.83.67-5.64,1.32-8.41h-.14c.85-.92,1.71-1.84,2.57-2.74,1.17-1.21,2.35-2.4,3.53-3.59l1.78-1.79c.63-.6,1.21-1.25,1.75-1.94.46-.65,1.02-1.23,1.65-1.71.64-.55,1.29-1.1,1.9-1.7,1.25-1.2,2.3-2.6,3.1-4.14.78-1.55,1.33-3.2,1.62-4.91.15-.85.23-1.71.3-2.57l.12-2.51c.21-2.85.63-5.67,1.24-8.46v1c.21,2.62.63,5.22,1.27,7.77.61,2.56,1.45,5.05,2.5,7.46.53,1.21,1.17,2.37,1.89,3.47.37.55.78,1.07,1.22,1.57.45.48.88,1,1.29,1.46.82,1,1.52,2.09,2.07,3.26.27.58.47,1.19.61,1.81.16.6.16,1.24,0,1.84-.61,1.11-1.42,2.16-2.11,3.27-.36.55-.7,1.12-1,1.71-.15.3-.27.61-.35.94-.04.17-.04.35,0,.52.03.2.18.37.38.41,1.32.25,2.61.3,3.91.47.65.07,1.29.16,1.93.29.64.1,1.26.3,1.83.6.45.46.79,1.01,1,1.61.27.59.51,1.19.75,1.8.47,1.22.9,2.45,1.31,3.69-.31-1.23-.73-2.5-1.18-3.73Z"/>
    </g>
    <path class="st9" d="M503.43,145.69s22.09-1.1,33.21,12.73l-2.6,12.85-11.39-2.31.26,1.56c-.07.34,11.85,2.42,11.85,2.42l-2.16,12.75-8.57-1.74s-3.14,4.12-10.49,5.66-24.78,3.41-33.16-10-1.09-22,0-23.23c6.06-6.34,14.29-10.16,23.05-10.69Z"/>
    <g class="st7">
      <path d="M503.43,145.69s22.09-1.1,33.21,12.73l-2.6,12.85-11.39-2.31.26,1.56c-.07.34,11.85,2.42,11.85,2.42l-2.16,12.75-8.57-1.74s-3.14,4.12-10.49,5.66-24.78,3.41-33.16-10-1.09-22,0-23.23c6.06-6.34,14.29-10.16,23.05-10.69Z"/>
    </g>
    <path class="st2" d="M536.93,165.19c-.71,3.52-2,6.22-2.86,6.05s-1-3.17-.27-6.69,2-6.22,2.86-6,.99,3.14.27,6.64Z"/>
    <path class="st2" d="M535.25,179.61c-.72,3.52-2,6.22-2.87,6.05s-1-3.17-.27-6.69,2-6.21,2.86-6,.99,3.13.28,6.64Z"/>
    <path class="st2" d="M522.76,168.12c-.26-.1-.51-.24-.73-.42-.62-.46-1.17-.99-1.66-1.59-3.48-4.09-3.26-10.16.5-14,.53-.56,1.12-1.05,1.77-1.46.23-.17.49-.29.76-.37-.8.64-1.55,1.34-2.26,2.08-3.42,3.79-3.62,9.48-.49,13.5.66.79,1.36,1.55,2.11,2.26Z"/>
    <path class="st2" d="M520.61,181.98c-.42-.4-.73-.9-.9-1.45-1.07-2.64-.61-5.65,1.19-7.86.68-.82,1.25-1.17,1.28-1.12-.31.46-.64.91-1,1.34-.75,1.09-1.25,2.33-1.45,3.63-.19,1.3-.08,2.63.31,3.89.32.97.64,1.53.57,1.57Z"/>
    <path class="st3" d="M532.55,174.02c-3.02-.26-6-.87-8.88-1.81,1.52.05,3.02.26,4.49.65,1.5.21,2.98.6,4.39,1.16Z"/>
    <path class="st3" d="M534.68,158.13c-.11.11-2.11-1.77-4.89-3.64s-5.27-3-5.2-3.18c3.9,1.36,7.38,3.71,10.09,6.82h0Z"/>
    <path class="st3" d="M485.04,158.36c.25-.41.54-.79.87-1.14.85-.98,1.79-1.89,2.81-2.7,3.39-2.68,7.34-4.56,11.55-5.53,4.2-.94,8.52-1.21,12.81-.8,1.63.15,3,.35,3.86.51.47.05.94.16,1.39.32-.48,0-.95-.04-1.42-.12-.91-.1-2.23-.24-3.86-.34-4.24-.31-8.51,0-12.66.94-4.14.95-8.04,2.76-11.44,5.31-1.37,1.11-2.67,2.3-3.91,3.55Z"/>
    <g class="st7">
      <path d="M529.22,134.54c-2.64,8-6.4,13.86-8.4,13.2s-1.5-7.66,1.14-15.61,6.39-13.86,8.4-13.2,1.49,7.65-1.14,15.61Z"/>
    </g>
    <g class="st6">
      <path class="st3" d="M498.74,120.35c-11.16-4.53-23.9-1.55-32.62,5.45-1.85,1.49-3.74,4.68-3.21,7,.61,2.63,4,3.6,6.65,2.89s4.76-2.54,7.23-3.64c6.24-2.78,13.84-.76,20.06-3.61,1.73-.69,3.15-1.98,4-3.64.69-1.71-.13-3.66-1.84-4.35-.09-.04-.18-.07-.27-.1"/>
    </g>
    <path class="st2" d="M530.73,119.02l-.51-.3-1.52-.86c-1.94-1.06-3.95-2.01-6-2.85-3.27-1.36-6.65-2.46-10.09-3.3-4.55-1.15-9.2-1.85-13.89-2.1-.65,0-1.31-.11-2-.11h-2c-1.36,0-2.76-.06-4.18.09l-4.36.31-4.48.66c-6.46,1.11-12.78,2.96-18.82,5.5-10.22,4.43-19.61,10.57-27.75,18.17-2.92,2.68-5.64,5.58-8.13,8.67l-.06.08h-.09c-1.54.39-3.2.83-4.85,1.29-8,2.27-15.76,4.91-23.1,7.77-7.07,2.69-13.94,5.89-20.56,9.55-6.02,3.26-11.61,7.26-16.63,11.91-4.32,4.09-7.99,8.81-10.9,14-1.25,2.28-2.35,4.63-3.3,7.05-.83,2.16-1.53,4.37-2.1,6.61-.9,3.6-1.4,7.29-1.49,11-.04,2.34.08,4.68.37,7,.13.78.22,1.38.29,1.81s.07.62.07.62c0,0,0-.21-.13-.61s-.19-1-.33-1.81c-.34-2.32-.49-4.66-.47-7,.05-3.73.52-7.44,1.41-11.07.56-2.26,1.25-4.49,2.07-6.67.92-2.41,2-4.76,3.23-7.04,2.9-5.26,6.59-10.04,10.93-14.19,5.03-4.69,10.64-8.72,16.68-12,6.64-3.69,13.53-6.9,20.62-9.61,7.35-2.86,15.08-5.52,23.14-7.79,1.66-.47,3.32-.9,4.87-1.3l-.15.1c2.51-3.12,5.24-6.04,8.19-8.74,2.85-2.65,5.85-5.11,9-7.39,5.89-4.34,12.26-7.98,19-10.83,6.08-2.55,12.44-4.39,18.94-5.49l4.51-.64,4.38-.3c1.42-.15,2.83-.06,4.2-.08h2c.67,0,1.33.09,2,.12,4.71.27,9.38,1.01,13.94,2.19,3.45.86,6.82,1.99,10.09,3.38,2.06.88,4.06,1.88,6,3,.67.39,1.17.69,1.5.91.16.09.31.18.46.29Z"/>
    <path class="st2" d="M524.03,183.96c-.17.22-.37.43-.58.61-.2.19-.43.45-.74.71l-1.09.87c-2.44,1.72-5.17,3-8.06,3.76-4.28,1.12-8.72,1.5-13.13,1.12-5.46-.34-10.69-2.33-15-5.71-4.31-3.39-7.36-8.13-8.67-13.45-.55-2.32-.65-4.72-.28-7.07.31-2.05.99-4.02,2-5.83,1.5-2.58,3.55-4.8,6-6.51.65-.48,1.34-.91,2.05-1.29.24-.15.49-.28.75-.39-.22.18-.45.34-.69.48-.69.41-1.36.87-2,1.36-2.37,1.75-4.36,3.97-5.82,6.53-.97,1.78-1.62,3.71-1.92,5.71-.34,2.3-.23,4.64.31,6.9,1.32,5.2,4.32,9.82,8.53,13.15,4.23,3.32,9.37,5.28,14.74,5.64,4.36.4,8.75.06,13-1,2.85-.72,5.55-1.93,8-3.56l1.11-.83c.32-.24.56-.49.77-.66.23-.2.47-.38.72-.54Z"/>
    <path class="st2" d="M529.22,134.54c.02-.22.07-.44.15-.65.13-.47.29-1.08.5-1.83.61-2.23,1.06-4.51,1.35-6.81.23-1.57.21-3.17-.05-4.73-.17-.79-.68-1.67-1.49-1.34-.81.4-1.49,1.01-2,1.75-1.21,1.62-2.23,3.37-3.05,5.21-1.84,3.95-3.22,8.1-4.1,12.37-.44,1.97-.67,3.98-.67,6-.03.91.17,1.8.58,2.61.46.75,1.4.34,2-.19,1.14-1.1,2.1-2.37,2.86-3.76,1.15-2.02,2.15-4.11,3-6.27.29-.73.51-1.31.69-1.77.07-.21.16-.41.27-.6-.04.22-.1.43-.17.64-.12.41-.32,1-.6,1.8-.78,2.2-1.73,4.33-2.85,6.38-.75,1.45-1.74,2.77-2.91,3.91-.35.32-.77.56-1.23.69-.54.13-1.11-.09-1.41-.56-.48-.88-.72-1.87-.69-2.87-.01-2.06.21-4.11.65-6.12.44-2.15,1-4.28,1.7-6.36.69-2.09,1.5-4.14,2.43-6.13.85-1.87,1.91-3.64,3.14-5.29.57-.82,1.35-1.47,2.26-1.89.52-.19,1.1-.04,1.46.39.3.38.5.82.59,1.29.26,1.61.26,3.26,0,4.87-.32,2.31-.83,4.6-1.52,6.83-.23.79-.44,1.39-.59,1.8-.08.22-.18.43-.3.63Z"/>
    <path class="st3" d="M516.26,114.69c-.08.01-.16.01-.24,0l-.68-.12c-.6-.1-1.48-.3-2.62-.48-2.28-.41-5.59-.89-9.71-1.23-4.82-.39-9.66-.43-14.49-.13-5.91.35-11.77,1.34-17.46,2.96-5.68,1.66-11.11,4.1-16.13,7.25-4.08,2.58-7.93,5.5-11.5,8.75-3.06,2.77-5.4,5.17-7,6.84l-1.83,1.94-.48.5c-.05.06-.11.11-.18.16,0,0,0-.07.14-.2l.44-.53c.4-.46,1-1.15,1.76-2,1.55-1.73,3.85-4.17,6.89-7,3.56-3.31,7.42-6.29,11.52-8.9,5.04-3.2,10.5-5.68,16.23-7.35,5.73-1.63,11.63-2.61,17.58-2.92,4.85-.29,9.71-.21,14.55.23,3.26.29,6.51.76,9.72,1.4,1.13.21,2,.45,2.6.58l.67.17.22.08Z"/>
    <path class="st3" d="M355.67,242.03c-.12-.21-.23-.43-.32-.66-.22-.49-.5-1.13-.84-1.93-.19-.43-.39-.89-.6-1.4s-.37-1.1-.58-1.72c-.5-1.39-.92-2.8-1.26-4.24-.19-.8-.39-1.63-.59-2.5s-.3-1.8-.47-2.75c-.32-2.03-.53-4.07-.64-6.12-.49-9.44,1.19-18.87,4.93-27.55.81-1.87,1.72-3.7,2.73-5.47.48-.83.9-1.67,1.39-2.42l1.43-2.14c.82-1.23,1.7-2.41,2.64-3.54.41-.5.78-1,1.14-1.41l1.05-1.1,1.46-1.52c.16-.18.34-.35.53-.51-.13.21-.28.4-.45.58l-1.39,1.58-1,1.13c-.35.43-.7.92-1.1,1.43-.92,1.15-1.77,2.34-2.57,3.57l-1.39,2.14c-.48.75-.88,1.59-1.35,2.42-.98,1.79-1.87,3.62-2.67,5.5-1.79,4.31-3.13,8.8-4,13.39-.78,4.61-1.09,9.28-.93,13.95.17,2.14.26,4.19.6,6.08.15.94.24,1.86.43,2.73s.38,1.7.56,2.5c.31,1.6.81,3,1.17,4.23.2.62.36,1.2.54,1.72s.39,1,.55,1.42l.75,2c.1.19.19.4.25.61Z"/>
    <path class="st3" d="M406.04,304.95s-.16-.08-.45-.28l-1.23-.88c-1.07-.77-2.58-1.94-4.41-3.43-9.52-7.78-17.98-16.77-25.18-26.74-1.38-1.92-2.45-3.49-3.16-4.6-.32-.52-.59-.94-.81-1.29s-.27-.45-.25-.46c.13.12.24.25.34.4l.89,1.23c.76,1.08,1.87,2.62,3.28,4.5,7.34,9.81,15.77,18.76,25.13,26.68,1.79,1.52,3.26,2.73,4.29,3.55l1.17,1c.14.09.27.2.39.32Z"/>
    <path class="st2" d="M493.18,67.59c-.34.79-3.14.36-6.26-1s-5.37-3-5-3.83,3.14-.37,6.25,1,5.34,3.03,5.01,3.83Z"/>
    <path class="st2" d="M489.76,76.06c-.59.28-1.24.43-1.89.45-3.19.26-6.33-.92-8.56-3.22-.49-.44-.87-.99-1.12-1.6.07-.06.51.53,1.38,1.32,1.13,1.02,2.44,1.82,3.86,2.36,1.42.53,2.92.79,4.44.77.63-.06,1.26-.09,1.89-.08Z"/>
    <path class="st2" d="M470.43,70.31c-.13.34-.32.66-.55.94-.57.81-1.2,1.56-1.91,2.25-4.77,4.74-11.79,6.41-18.18,4.33-.95-.29-1.88-.67-2.76-1.14-.33-.15-.63-.35-.91-.59.05-.09,1.37.72,3.74,1.39,3.09.88,6.34.97,9.47.24,3.12-.77,5.99-2.3,8.36-4.47,1.81-1.69,2.63-3.01,2.74-2.95Z"/>
    <path class="st3" d="M443.19,82.33c-.15.1-.3.18-.47.23l-1.36.58c-.59.23-1.32.53-2.14.93s-1.79.78-2.79,1.32-2.14,1.08-3.3,1.77-2.39,1.43-3.7,2.23c-2.74,1.81-5.35,3.79-7.84,5.93-2.46,2.18-4.77,4.52-6.93,7-1,1.16-1.91,2.25-2.7,3.34s-1.55,2.09-2.19,3-1.2,1.82-1.69,2.58-.89,1.44-1.21,2l-.75,1.28c-.17.29-.27.43-.29.42.04-.17.11-.32.2-.47l.67-1.32c.29-.58.65-1.28,1.13-2.06s1-1.69,1.63-2.64,1.33-2,2.15-3.09,1.72-2.21,2.69-3.39c4.28-5.05,9.29-9.43,14.87-13,1.3-.8,2.52-1.58,3.72-2.21s2.31-1.22,3.35-1.72,2-.9,2.83-1.26,1.58-.64,2.19-.85l1.4-.49c.17-.06.35-.1.53-.11Z"/>
    <path class="st3" d="M446.43,75.42c.48-1.86.82-3.76,1-5.67,0-1.92-.18-3.84-.5-5.73.83,1.8,1.17,3.78,1,5.75,0,1.98-.52,3.93-1.5,5.65Z"/>
    <path class="st3" d="M482.05,66.03c.13,0-.09,1-.77,2s-1.49,1.59-1.58,1.48.51-.82,1.15-1.77,1.06-1.77,1.2-1.71Z"/>
    <path class="st3" d="M511.23,105.91c-.11,0,.13-1.7-.19-4.4-.82-7.15-5.14-13.42-11.53-16.74-2.41-1.26-4.08-1.64-4.05-1.74.4.03.79.11,1.17.24,1.03.31,2.04.7,3,1.18,6.64,3.2,11.1,9.66,11.73,17,.1,1.08.1,2.18,0,3.26,0,.4-.04.81-.13,1.2Z"/>
    <g class="st7">
      <path d="M431.52,77.25c-.16,4.35-1.39,7.83-2.75,7.78s-2.32-3.62-2.16-8,1.4-7.84,2.76-7.78,2.32,3.65,2.15,8Z"/>
    </g>
    <path class="st2" d="M428.77,85.03s-.24-.09-.58-.38c-.5-.42-.89-.97-1.12-1.58-.6-2-.87-4.08-.8-6.16.02-2.09.46-4.16,1.29-6.08.75-1.49,1.82-1.88,1.82-1.82-.63.55-1.14,1.24-1.49,2-.7,1.9-1.07,3.91-1.1,5.94-.06,2.02.16,4.04.64,6,.18.57.49,1.09.9,1.53.28.35.46.52.44.55Z"/>
    <path class="st3" d="M351.86,170.69c-.22-.38-.39-.78-.53-1.2-.2-.47-.37-.96-.52-1.45-.17-.57-.4-1.22-.57-2-.46-1.72-.8-3.46-1-5.23-.22-2.16-.28-4.34-.16-6.51.14-2.17.46-4.32.95-6.44.4-1.73.93-3.42,1.58-5.07.26-.72.56-1.33.81-1.88s.48-1,.68-1.38c.18-.4.41-.77.68-1.12.09,0-.8,1.69-1.82,4.51-.6,1.65-1.09,3.34-1.47,5.05-.45,2.1-.75,4.23-.89,6.37-.12,2.14-.08,4.29.12,6.43.17,1.74.45,3.47.84,5.18.71,2.93,1.39,4.67,1.3,4.74Z"/>
    <circle class="st1" cx="354.88" cy="145.76" r="8.79"/>
    <path class="st2" d="M363.69,145.77c-.07,0,0-.78-.38-2.12-.51-1.89-1.64-3.55-3.21-4.72-1.07-.8-2.31-1.34-3.62-1.58-1.51-.27-3.05-.13-4.49.39-1.6.58-3,1.62-4,3-2.21,3-2.21,7.08,0,10.08.5.7,1.11,1.31,1.8,1.82.66.5,1.39.89,2.16,1.17,2.73,1,5.78.56,8.11-1.19,1.57-1.17,2.7-2.83,3.21-4.72.36-1.34.31-2.12.38-2.12.02.19.02.37,0,.56,0,.54-.07,1.08-.2,1.61-.45,1.99-1.57,3.75-3.18,5-1.1.86-2.4,1.45-3.77,1.72-1.58.3-3.22.18-4.74-.37-1.68-.6-3.14-1.69-4.2-3.13-2.35-3.18-2.35-7.51,0-10.69.53-.74,1.17-1.39,1.91-1.92.7-.52,1.47-.93,2.29-1.22,1.52-.54,3.16-.67,4.74-.36,1.39.26,2.71.84,3.83,1.71,1.61,1.25,2.73,3.02,3.18,5,.13.53.2,1.07.2,1.61,0,.16,0,.31-.02.47Z"/>
    <path class="st10" d="M359.29,145.77c0,2.42-1.97,4.39-4.39,4.39s-4.39-1.97-4.39-4.39,1.97-4.39,4.39-4.39h0c2.42,0,4.39,1.97,4.39,4.39Z"/>
    <path class="st2" d="M359.29,145.77c-.05,0,0-.39-.23-1.05-.27-.92-.84-1.72-1.61-2.29-1.15-.85-2.66-1.06-4-.56-2.15.8-3.25,3.19-2.45,5.35.42,1.14,1.32,2.03,2.45,2.45,1.34.51,2.85.3,4-.55.77-.57,1.33-1.38,1.61-2.3.19-.66.18-1,.23-1s0,.1,0,.29c.01.27-.02.54-.08.81-.21,1.01-.77,1.91-1.58,2.54-1.23.97-2.87,1.24-4.35.71-2.4-.86-3.65-3.5-2.79-5.91.47-1.3,1.49-2.33,2.79-2.79,1.48-.53,3.12-.26,4.35.71.81.63,1.37,1.53,1.58,2.54.06.27.09.54.08.82.03.15.02.23,0,.23Z"/>
    <path class="st4" d="M374.22,118.99c-.81-1.39-1.85-2.63-3.08-3.68-1.71-1.62-4.4-1.55-6.02.16-.63.66-1.02,1.5-1.14,2.4-.27,1.48-.3,2.99-.08,4.48l3.16-2.58c1.39,1.72,3.16,3.09,5.18,4,1.12.42,2.37-.05,2.95-1.09.5-1.26-.31-2.69-.97-3.69Z"/>
    <path class="st4" d="M377.78,115.69c-.81-1.39-1.84-2.63-3.07-3.67-1.7-1.63-4.4-1.56-6.02.14-.63.66-1.03,1.51-1.15,2.41-.26,1.48-.29,2.99-.08,4.48l3.16-2.58c1.39,1.72,3.17,3.09,5.18,4,1.12.42,2.37-.05,2.95-1.09.5-1.24-.32-2.69-.97-3.69Z"/>
    <path class="st4" d="M381.35,112.43c-.81-1.39-1.85-2.63-3.08-3.67-1.71-1.62-4.4-1.55-6.02.16-.63.66-1.02,1.5-1.14,2.4-.26,1.48-.29,2.99-.08,4.47l3.16-2.57c1.39,1.72,3.17,3.09,5.18,4,1.12.43,2.38-.04,2.95-1.09.5-1.27-.31-2.7-.97-3.7Z"/>
    <path class="st10" d="M273.19,412.14l-27.07,24.76,30.63,33.79c3.06-3.12-6.3-26.5-6.3-26.5l16.91-16.36-14.17-15.69Z"/>
    <path class="st3" d="M262.43,432.44c-.81-.48-1.86-.28-2.44.47-.51.8-.32,1.86.45,2.43.87.5,1.97.27,2.58-.52.46-.89.13-1.98-.74-2.47"/>
    <path class="st2" d="M246.12,436.9l2.83-2.62,28.21,33.66s.7,2.11-.52,2.89l-30.52-33.93Z"/>
    <path class="st3" d="M271.12,444.62c-.17.15-1-.61-2.26-.94s-2.36-.14-2.43-.35,1.11-.83,2.63-.4,2.24,1.59,2.06,1.69Z"/>
    <path class="st3" d="M272.86,449.5c-.12.18-1.05-.28-2.26-.21s-2.09.58-2.23.41.62-1.11,2.12-1.17,2.53.82,2.37.97Z"/>
    <path class="st3" d="M270.43,455.36c-.21-.14.28-1,1.74-1.49,1.28-.4,2.34.05,2.27.25s-1,.15-2,.49-1.83.9-2.01.75Z"/>
    <path class="st3" d="M274.84,440.69c-.22.07-.68-.89-1.58-1.77s-1.87-1.34-1.8-1.55,1.28-.05,2.34,1,1.24,2.32,1.04,2.32Z"/>
    <path class="st3" d="M278.12,436.27c-.07.07-.76-.49-1.52-1.7-.7-1.14-1.19-2.4-1.43-3.71-.07-.28-.09-.58-.06-.87.05-.44.38-.79.81-.87.37-.03.74.11,1,.38.2.21.36.46.49.72.65,1.19.99,2.52,1,3.87.08.78-.09,1.56-.48,2.24-.12,0,.05-.87-.07-2.22-.07-.78-.25-1.55-.52-2.28-.16-.43-.35-.84-.58-1.24-.23-.45-.5-.75-.74-.7-.09,0-.12,0-.16.21-.02.21,0,.43.05.64.08.46.18.91.3,1.36.21.76.5,1.49.85,2.2.4.63.75,1.29,1.06,1.97Z"/>
    <path class="st3" d="M277.69,436.27c-.08,0,.22-.9,1.23-1.93.6-.59,1.3-1.08,2.07-1.44.45-.22.93-.39,1.42-.5.62-.23,1.32-.12,1.83.3.28.31.34.76.17,1.14-.12.26-.28.51-.47.73-.33.39-.71.73-1.14,1-.72.48-1.54.77-2.4.86-.78.16-1.6,0-2.26-.44.73,0,1.46-.03,2.18-.1.75-.15,1.46-.46,2.08-.91.36-.26.68-.57.95-.92.31-.37.48-.77.32-.87-.33-.19-.73-.22-1.09-.09-.45.1-.88.23-1.3.41-.72.3-1.39.71-2,1.2-1.02.89-1.48,1.63-1.59,1.56Z"/>
    <path class="st10" d="M266.66,436l.34,36.68,45.64-.19c-.28-4.36-23.93-13-23.93-13l.74-23.52-22.79.03Z"/>
    <path class="st3" d="M274.58,457.56c-.9.28-1.46,1.2-1.28,2.13.25.92,1.18,1.49,2.11,1.29.95-.31,1.53-1.28,1.34-2.27-.36-.93-1.39-1.41-2.33-1.09"/>
    <path class="st2" d="M267,472.76l-.06-3.93,43.9,1.49s2,.89,1.8,2.32l-45.64.12Z"/>
    <path class="st2" d="M289.43,459.24c0,.22-1.13.33-2.22,1.05s-1.67,1.66-1.88,1.57.12-1.37,1.46-2.22,2.7-.6,2.64-.4Z"/>
    <path class="st2" d="M294.24,461.2c.05.22-.91.6-1.66,1.55s-1,1.94-1.19,1.93-.37-1.27.59-2.43,2.26-1.26,2.26-1.05Z"/>
    <path class="st2" d="M296.98,466.92c-.2,0-.51-1.07,0-2.29s1.61-1.71,1.71-1.53-.55.84-1,1.86-.48,1.94-.71,1.96Z"/>
    <path class="st2" d="M289.02,453.86c-.09.21-1.12-.1-2.38,0s-2.24.5-2.35.31.82-1,2.31-1.08,2.53.6,2.42.77Z"/>
    <path class="st2" d="M268.95,226.74s-6.39,6.85-9.54,13.41-7.98,20.54-7.98,20.54c0,0-2,20.39-.68,30.45s4.46,54.68,4.46,54.68c0,0,4.49,74.7,7.82,104l1.42,6.44,25.73-4.56h0l5.7-135.1,15.7-89.31-42.63-.55Z"/>
    <path class="st10" d="M301.81,232.5c-.17-.59-.52-1.1-1-1.48-.52-.35-1.18-.42-1.76-.18-.94.38-1.38,1.45-1,2.39.19.47.58.85,1.06,1.02.59.22,1.25.13,1.76-.24.89-.67.82-1.55.93-1.51s.11.18.07.54c-.08.51-.33.98-.73,1.32-.62.52-1.46.68-2.22.43-1.25-.4-1.93-1.73-1.53-2.98.23-.7.77-1.26,1.46-1.51.75-.27,1.59-.14,2.22.36.41.32.68.78.78,1.29.06.36,0,.55-.04.55Z"/>
    <path class="st2" d="M331.68,245.31s9.44,85.64,10.75,100.38-52,93.14-52,93.14l-22.53-26.62,34.37-63.88-11.55-63.64,15.23-57.41,23.69.28,2.04,17.75Z"/>
    <path class="st10" d="M259.1,429.26c.03.63.09,1.25.18,1.87.16,1.23.46,3,.89,5.36.85,4.66,2.24,11.42,4.1,19.87v.17h.18l25.74-4.51h.2v-.19c.71-17.66,1.57-38.77,2.48-61.41.95-24.36,1.83-46.94,2.56-65.47h0c1.93-14.88,3.53-27.19,4.64-35.8.54-4.28,1-7.64,1.26-10,.13-1.12.24-2,.31-2.61s.08-.9.08-.9c0,0-.06.3-.15.89s-.22,1.48-.38,2.6c-.33,2.32-.79,5.67-1.39,9.94-1.16,8.61-2.83,20.91-4.84,35.78h0c-.75,18.53-1.67,41.11-2.66,65.47-.88,22.64-1.71,43.75-2.4,61.41l.21-.24-25.68,4.64.21.14c-1.91-8.43-3.35-15.17-4.27-19.82-.46-2.32-.79-4.12-1-5.34-.11-.61-.17-1.07-.21-1.38s-.06-.47-.06-.47Z"/>
    <path class="st10" d="M298.07,261.57c.47-.02.94,0,1.41.07,1.24.15,2.5-.07,3.62-.62.71-.45,1.23-1.14,1.45-1.95.25-.96.4-1.95.44-2.95.19-2.13.37-4.48.53-6.95.33-4.94.52-9.42.63-12.66.05-1.52.1-2.81.14-3.84-.02-.47.02-.95.12-1.41.09.46.13.94.11,1.41,0,.91.06,2.22.06,3.85,0,3.25-.12,7.74-.45,12.69-.16,2.47-.36,4.83-.58,7-.05,1.03-.23,2.06-.52,3.05-.28.91-.89,1.68-1.71,2.16-.67.36-1.43.56-2.19.57-.56.02-1.12,0-1.68-.09-.47-.04-.94-.15-1.38-.33Z"/>
    <path class="st10" d="M330.65,245.37c-.88-.3-1.71-.74-2.46-1.3-3.76-2.5-6.8-5.95-8.79-10-.47-.81-.81-1.69-1-2.61.18-.09,1.71,3.92,5.16,7.8s7.2,5.94,7.09,6.11Z"/>
    <path class="st1" d="M247.52,258.6c.68-8.32,4.49-23.47,6.08-35.62,4.56-34.87,7.17-86.24,7.17-86.24l16.19-4.58,8.39-11.8,25.43,3.57,8.13,9.55,13.36,8.05,5.58,86.62,9.72,110.91s-14.12-.95-39.61-.17c-48.82,1.49-61,2.2-61,2.2,0,0-1.53-57.68.56-82.49Z"/>
    <path class="st2" d="M319.01,133.89c.14.15.26.31.36.49.24.39.54.88.92,1.47l3.3,5.43.21.35-.4-.06-6.21-.9.19-.4c1.33,1.2,2.74,2.49,4.16,3.92.35.36.69.74,1,1.14l.13.16c0,.09.07.06.13.24.03.18,0,.36-.06.53-.09.26-.19.51-.3.75-.44,1-.95,1.91-1.47,2.86-3.64,6.5-7.22,12.2-9.8,16.34-1.3,2.06-2.37,3.72-3.11,4.86l-.87,1.31c-.21.3-.32.45-.34.44.06-.18.14-.35.25-.5l.79-1.35c.73-1.24,1.74-2.91,3-4.95,2.5-4.18,6-9.92,9.66-16.4.52-1,1-1.88,1.46-2.82.1-.23.2-.47.28-.7,0-.05,0-.11,0-.16v-.06s0,0,.09,0h.07l-.15.09h0v-.07l-.11-.14c-.31-.38-.66-.75-1-1.11-1.4-1.42-2.8-2.72-4.11-3.92l-.57-.53.76.12,6.19,1-.19.29-3.15-5.52-.84-1.52c-.11-.22-.2-.44-.27-.68Z"/>
    <path class="st2" d="M333.99,153.37c.14,0,1,14.77,2,33s1.59,33,1.45,33.05-1-14.77-2-33-1.59-33.05-1.45-33.05Z"/>
    <path class="st9" d="M287.89,120.54c-1.86,2.17-2.72,5.02-2.37,7.85.47,5,4,14.43,6.17,17.28s15.21,27.15,15.21,27.15l6.65-34.77.42-11.38-2.54-2.56-23.54-3.57Z"/>
    <path class="st2" d="M308.06,338.69c0,3.25-.72-39.79-1.25-84.86s-.82-81.64-.68-81.65.69,36.55,1.21,81.64c.52,45.09.72,84.77.72,84.87Z"/>
    <path class="st10" d="M330.33,231.83c-2.49.05-4.92-.78-6.86-2.33-6.54-5.24-7.39-18-8.15-29.33-.12-1.73-.23-3.41-.36-5-.53-6.47-10.59-39-10.7-39.3l2.87-.89c.42,1.35,10.26,33.15,10.82,39.94.13,1.61.25,3.3.36,5.05.68,10.15,1.53,22.78,7,27.19,1.93,1.48,4.42,2.04,6.8,1.52,10.83-1.66,9.6-22.52,8.94-33.72-.18-2.16-.25-4.32-.21-6.49.44-6.87,2.08-18.58,4.33-23.08,2-4,7-18.26,7.09-18.4l2.83,1c-.21.6-5.14,14.55-7.24,18.75-1.95,3.9-3.58,15.25-4,21.94-.07,1.2.06,3.48.22,6.11.71,12.16,2,34.8-11.48,36.87-.75.11-1.5.17-2.26.17Z"/>
    <path class="st10" d="M304.79,155.82c-4.21,0-5.87-5-6.8-7.73-.16-.49-.31-.93-.45-1.3-.73-1.86-3.19-4.56-4.07-5.44l2.12-2.13c.37.37,3.65,3.7,4.74,6.48.16.4.32.89.5,1.43,1.34,4,2.47,6.05,4.57,5.62,1.53-.31,1.67-1.08,1.58-4-.11-1.4,0-2.81.32-4.17.68-2.26,1.75-4.39,3.16-6.29l2.36,1.85c-1.17,1.61-2.06,3.4-2.64,5.3-.22,1.06-.29,2.14-.2,3.22.08,2.44.19,6.14-4,7-.39.09-.79.15-1.19.16Z"/>
    <g class="st7">
      <path d="M254.33,218.83s8.9,14,18,14.25c12,.27,56.3-29.41,56.3-29.41l-2.1-4-70.89,5-1.31,14.16Z"/>
    </g>
    <path class="st1" d="M260.88,136.58c-4.44,1.03-8.35,3.64-11,7.34h0c-3.38,4.79-4.32,11.61-3.43,22.41,1.2,14.62,9.37,38.74,11.4,45.78,3.66,12.73,11.61,15.93,20.58,14.19s53.9-30.35,53.9-30.35l-11.37-19.88-42.73,18.13-10-32.95"/>
    <path class="st2" d="M268.32,161.25s.08.19.2.56.3,1,.53,1.68c.46,1.5,1.14,3.69,2,6.51,1.73,5.68,4.24,13.9,7.37,24.15l-.23-.11,42.71-18.19.19-.08.11.18,11.38,19.87.12.21-.2.13c-9.34,5.92-19.4,12.12-29.93,18.27-4.14,2.42-8.27,4.73-12.4,6.94l-3.09,1.61-3.13,1.51c-1,.5-2.12.91-3.17,1.36-1.08.4-2.21.68-3.35.84-2.24.37-4.53.34-6.76-.08-2.19-.44-4.25-1.39-6-2.78-1.71-1.38-3.13-3.08-4.19-5-1.06-1.84-1.91-3.79-2.52-5.82-4.9-15.86-9.33-30.21-11.15-42.68-.42-2.96-.67-5.95-.74-8.94-.11-2.67,0-5.35.33-8,.28-2.32.89-4.59,1.82-6.73.81-1.79,1.92-3.43,3.27-4.85,1.88-1.97,4.17-3.49,6.71-4.46.87-.35,1.78-.63,2.7-.83,0,0-.23.09-.68.22s-1.13.36-2,.71c-2.5,1-4.75,2.54-6.6,4.5-1.32,1.42-2.4,3.04-3.2,4.81-.9,2.13-1.49,4.37-1.75,6.67-.31,2.64-.41,5.3-.29,7.95.09,2.98.35,5.95.77,8.9,1.87,12.41,6.33,26.74,11.25,42.58.61,2,1.44,3.91,2.48,5.72,1.04,1.85,2.43,3.49,4.08,4.83,1.7,1.34,3.7,2.26,5.83,2.68,2.18.4,4.41.43,6.59.07,1.1-.18,2.18-.46,3.23-.85,1-.45,2.1-.85,3.14-1.34l3.1-1.51,3.09-1.61c4.11-2.2,8.24-4.51,12.37-6.93,10.53-6.14,20.59-12.34,29.93-18.24l-.09.33c-3.94-6.9-7.75-13.57-11.35-19.89l.3.1-42.77,18.14-.17.07-.06-.18c-3.06-10.27-5.52-18.51-7.22-24.2-.83-2.83-1.48-5-1.92-6.53l-.49-1.69-.15-.58Z"/>
    <path class="st4" d="M321,176.07s9.61-9.93,13.17-13.06,17.48-10.57,19.53-10.36,1.08,2.59,0,4-11.33,6.69-13.06,9.07l.54.86s6.26-2.91,8-3.67,4.53,1.19,3.34,3.24l-1.62,1.62s2,1.4,1.41,3.13-3.13,3-3.13,3c0,0,2.37,1.62.21,4.75s-13.49,8.52-14.67,9.06c-2,.55-4.05.95-6.11,1.19l-7.61-12.83Z"/>
    <path class="st2" d="M269.57,211.42c-.04-.26-.04-.53,0-.79.04-.71.12-1.41.25-2.11.84-4.66,3.03-8.97,6.29-12.4.49-.52,1.01-1.01,1.56-1.46.19-.18.41-.33.64-.45.06.07-.76.82-1.92,2.15-3.06,3.5-5.19,7.7-6.21,12.23-.4,1.73-.52,2.83-.61,2.83Z"/>
    <path class="st2" d="M340.22,253.9v.2c0,.14,0,.36.07.62.06.59.14,1.4.24,2.44.21,2.18.51,5.3.88,9.19.72,7.91,1.73,18.95,2.89,31.63v.26h-.26c-4.71.27-9.36-1.18-13.09-4.08-1.6-1.24-2.99-2.73-4.1-4.42-1.06-1.65-1.86-3.45-2.37-5.35-.4-1.84-.59-3.72-.59-5.6-.06-1.83-.12-3.62-.18-5.36-.22-7-.42-13.24-.58-18.5v-.18h.18l12.39-.67,3.34-.16h.85c.09-.01.19-.01.28,0h-.31l-.89.08-3.37.25-12.27.87.17-.19c.2,5.26.44,11.53.7,18.49.06,1.75.13,3.53.2,5.36,0,1.85.19,3.69.58,5.49.5,1.84,1.28,3.6,2.32,5.2,1.09,1.64,2.44,3.09,4,4.29,3.62,2.83,8.15,4.25,12.74,4l-.24.28c-1.06-12.63-2-23.62-2.64-31.49-.31-3.91-.56-7.05-.74-9.25-.08-1.07-.14-1.9-.18-2.51v-.65c0-.17-.02-.24-.02-.24Z"/>
    <path class="st2" d="M256.59,253.69v1.51c0,1-.07,2.44-.12,4.26-.12,3.7-.29,9-.5,15.54-.05,3.25-.57,6.91.7,10.57,1.96,6.1,7,10.7,13.25,12.1,2.25.48,4.56.54,6.83.16,4.81-.8,9.09-3.52,11.86-7.53.93-1.38,1.67-2.87,2.21-4.44.51-1.55.82-3.15.9-4.78.11-3.25.1-6.46.15-9.56.08-6.21.16-12.07.23-17.43l.22.23-25.89-.46-7.27-.14h-2.44,9.57l26,.18h.23v.22c-.05,5.37-.1,11.22-.17,17.43,0,3.11,0,6.3-.13,9.58-.08,1.67-.39,3.33-.92,4.92-.56,1.61-1.33,3.15-2.28,4.57-2.85,4.13-7.26,6.93-12.21,7.75-2.32.37-4.7.31-7-.18-6.42-1.46-11.59-6.22-13.57-12.5-.58-1.8-.86-3.68-.84-5.57,0-1.81.13-3.54.18-5.19.3-6.56.54-11.89.71-15.6.08-1.81.15-3.22.2-4.21,0-.46.05-.81.06-1.08,0-.12.01-.24.04-.35Z"/>
    <path class="st2" d="M292.3,264.26c0,.15-8,.26-17.94.26s-17.93-.11-17.93-.26,8-.26,17.93-.26,17.94.12,17.94.26Z"/>
    <path class="st2" d="M341.48,264.28c-2.9.44-5.83.71-8.77.8-2.93.27-5.86.36-8.8.27,2.91-.44,5.83-.7,8.77-.79,2.93-.27,5.86-.36,8.8-.28Z"/>
    <g class="st7">
      <path d="M274.31,298.14c-7.13.43-13.64-3.89-17-10.17l-.48-1.33c.29,5.66,3.9,10.39,8.84,13.17,8.12,4.56,18.41,1.67,22.97-6.45,1.23-2.19,1.95-4.63,2.12-7.14-2.78,6.77-9.15,11.39-16.45,11.92Z"/>
    </g>
    <path class="st1" d="M277.06,132.01c.08.8-3.22,12.89-3.22,12.89l7.33-1.45s-3.51,5.06-3.66,6.72,28.62,22.05,28.62,22.05"/>
    <path class="st2" d="M306.13,172.22c-.2-.09-.39-.2-.56-.33l-1.56-1.06c-1.35-.92-3.29-2.28-5.68-4s-5.21-3.74-8.32-6-6.52-4.84-10-7.7c-.79-.64-1.55-1.33-2.26-2.06-.2-.2-.37-.44-.5-.69-.07-.3,0-.35,0-.51s.08-.25.11-.38c.17-.47.38-.93.61-1.37.89-1.65,1.88-3.25,2.95-4.79l.25.38-7.34,1.41-.33.07.09-.33c1-3.85,1.92-7,2.55-9.33s.87-3.5.87-3.5c-.08,1.21-.29,2.4-.64,3.56-.52,2.25-1.34,5.47-2.38,9.38l-.24-.26,7.33-1.48.58-.12-.34.5c-1.05,1.52-2.02,3.11-2.89,4.74-.23.42-.42.86-.58,1.31-.04.1-.07.21-.09.32v.22h-.08c.14,0,.05,0,.08,0,.1.19.24.36.39.51.7.71,1.44,1.37,2.21,2,3.43,2.84,6.84,5.39,9.93,7.72l8.25,6.12,5.57,4.12,1.51,1.13c.19.12.36.26.51.42Z"/>
    <g class="st7">
      <path d="M276.7,133.89l-5.21,10.94c-.44.92-.04,2.03.88,2.46.35.16.74.22,1.12.15l3.43-.66-1.16,2.29c-.87,1.72-.28,3.83,1.36,4.85l25.94,16.13s-26.24-18.67-25.44-20.43,3.53-6.17,3.53-6.17l-7.33,1.45,2.88-11.01Z"/>
    </g>
    <path class="st2" d="M288.21,60.15c-3.54-3.41-11.66-2.33-13.43.18-3.1-1.24-6.63.19-8,3.24l-8.55,2.47c-1.5.31-2.89,1-4.05,2-1.07,1.08-1.48,3-.47,4.1-3,1-3.9,5.62-1.49,7.67-1.1,1.45-.81,3.51.64,4.61.05.04.1.08.16.11-2.21,3.03-3.88,6.41-4.95,10-.59,1.47-.63,3.09-.13,4.59.64,1.43,2.63,2.32,3.84,1.32-.79,1.28-.75,2.91.09,4.16-1.46.14-1.75,2.43-.67,3.43s2.72,1,4.18.88,3-.31,4.31.44c0,.38-.14.74-.41,1-2.46,2.1-2.82,5.77-.81,8.3l.53.64c.92,1.15,3.1,2.12,4.45,2.72,3.43,1.51,5.39,1,9.13,1.34-.86,2.46,5.5,7.35,12,1.7,12.56,2.73,25.45,3.62,38.27,2.64,2-.12,4.45-.56,5.23-2.44,1.73.22,3.44-.47,4.54-1.82,1.06-1.34,1.89-2.85,2.44-4.47,3.52-1.28,5.86-4.63,5.84-8.38,2.26-2.05,3.57-4.95,3.61-8,3.25-1.42,4.73-5.21,3.31-8.45-.06-.15-.13-.29-.21-.44-1.01-4.15-2.7-8.1-5-11.7,2.29-.65,3-3.85,1.86-6s-3.31-3.38-5.4-4.53c1.77.35,3.14-1.93,2.61-3.66s-2.18-2.83-3.78-3.65c-2.35-1.21-4.85-2.13-7.42-2.74-1-3-5.17-6.24-8.13-7.41-11.92-4.71-20.11-5.56-34.14,6.2"/>
    <path class="st10" d="M322.11,102.69c.41-.53.95-.96,1.56-1.24h-.12c.11-.04.23-.07.35-.09.42-.18.89-.18,1.31,0h0c.75.2,1.39.67,1.81,1.32.68,1.18.64,2.64-.09,3.78-.68,1.38-2.36,1.95-3.74,1.27-.71-.35-1.24-.99-1.45-1.76-.44-1.09-.3-2.32.37-3.28Z"/>
    <path class="st4" d="M321.85,80.07c-1.44-7.9-7.87-17-15.7-15.26l-24,9.19c-2.38.54-3.95,2.81-3.62,5.23l7.4,51.61,19.12,14.06h0c.15-1.05,8.41-14.06,8.41-14.06.42-3.85.86-8.1.86-8.08s10-2.89,10.51-16.41c.24-6.72-1.4-17.5-2.98-26.28Z"/>
    <path class="st2" d="M320.5,91.25c.12.92-.52,1.77-1.44,1.91-.88.18-1.74-.39-1.92-1.27,0-.02,0-.03,0-.05-.12-.92.51-1.77,1.43-1.92.89-.17,1.76.41,1.94,1.3,0,0,0,.02,0,.03Z"/>
    <path class="st2" d="M320.17,85.98c-.18.25-1.58-.56-3.41-.33s-3.07,1.29-3.29,1.09.06-.51.59-1c.73-.64,1.64-1.04,2.6-1.15.95-.12,1.91.07,2.75.54.62.36.86.74.76.85Z"/>
    <path class="st2" d="M303.82,92.84c.12.92-.51,1.77-1.43,1.91-.89.18-1.75-.4-1.93-1.28,0-.02,0-.03,0-.05-.11-.92.52-1.77,1.44-1.91.88-.18,1.74.39,1.92,1.28,0,.02,0,.04,0,.05Z"/>
    <path class="st2" d="M302.22,88.45c-.19.25-1.59-.55-3.42-.33s-3.06,1.3-3.29,1.1.06-.52.59-1c.72-.65,1.63-1.05,2.6-1.16.95-.11,1.92.08,2.76.55.61.35.85.73.76.84Z"/>
    <path class="st2" d="M310.43,101.24c.93-.41,1.91-.71,2.91-.89.46-.1.89-.24.93-.57-.01-.49-.18-.96-.47-1.35l-1.81-3.4c-2.52-4.84-4.4-8.84-4.2-8.94s2.39,3.74,4.91,8.58c.61,1.2,1.2,2.34,1.75,3.43.36.53.53,1.16.46,1.8-.09.35-.34.64-.68.78-.25.1-.52.17-.79.2-.98.25-2,.37-3.01.36Z"/>
    <path class="st8" d="M314.3,122.76c-6.24.84-12.58-.07-18.33-2.63,0,0,4.1,9.26,17.88,6.91l.45-4.28Z"/>
    <path class="st8" d="M310.71,105.63c-.98-1.13-2.45-1.7-3.94-1.53-.97.13-1.81.73-2.25,1.6-.65,1.35-.08,2.97,1.27,3.61.7.33,1.5.35,2.22.06.99-.45,1.84-1.14,2.5-2,.22-.21.39-.47.5-.75.1-.32.03-.66-.18-.92"/>
    <path class="st2" d="M305.23,103.15c.3,0,.54,1.93,2.41,3.14s3.95.74,4,1c0,.12-.42.44-1.32.57-1.16.15-2.34-.11-3.33-.74-.95-.6-1.63-1.55-1.88-2.65-.18-.78-.02-1.32.12-1.32Z"/>
    <path class="st2" d="M302.13,80.82c-.12.52-2,.5-4.09,1s-3.79,1.31-4.13.89c-.15-.2.1-.7.74-1.26.87-.72,1.9-1.22,3-1.45,1.08-.26,2.21-.26,3.29,0,.8.23,1.24.57,1.19.82Z"/>
    <path class="st2" d="M318.78,79.75c-.27.46-1.58.18-3.1.33s-2.77.62-3.12.22c-.15-.2,0-.64.52-1.1.69-.58,1.54-.93,2.44-1,.89-.09,1.79.1,2.57.54.58.39.81.79.69,1.01Z"/>
    <path class="st2" d="M328.31,86.03c-.21-2.1-1.14-4.07-2.63-5.57-.92-.69-1.8-1.42-2.64-2.2-1.61-1.86-1.61-4.57-2.45-6.95-1.09-3.07-3.59-5.42-6.72-6.31-2.57-.71-5.39-.38-7.82-1.45-1.8-.8-3.24-2.29-5.08-3-3.59-1.33-7.49.75-10.63,2.94-.46,2.65,1.36,4.79,3.1,6.84,1.79,2.07,4.4,3.25,7.13,3.23,2.09,0,4.48-.68,6.05.7s1.26,4.24,2.66,5.94c2,2.42,6,1.15,8.85,2.53,2.18,1.07,3.24,3.5,4.45,5.6s3.19,4.24,5.6,4c.29-2.09.33-4.2.13-6.3Z"/>
    <path class="st2" d="M295.88,67.87c-6.1.36-12.08,1.9-17.6,4.53-1.71.65-3.17,1.82-4.17,3.35-.63,1.48-.84,3.1-.59,4.69.43,5,2.88,10.94,5.12,15.41l6.51,3.27c4.71-1.48,1.9-9.6,1.36-13.74,3.29-1.8,5.27-5.32,5.09-9.07,2.64-2.01,4.21-5.12,4.28-8.44Z"/>
    <path class="st4" d="M284.93,97.34c-.4-2.84-3.94-3.14-6.29-1.49-1.28.91-2.18,2.58-1.78,5.59,1,8,8.91,5.32,8.89,5.09s-.32-5.84-.82-9.19Z"/>
    <path class="st8" d="M282.9,103.81s-.13.12-.35.26c-.32.18-.69.24-1.05.15-.89-.2-1.78-1.45-2-2.89-.11-.69-.07-1.39.13-2.06.09-.53.43-.98.91-1.22.32-.12.69,0,.88.28.14.21.11.38.15.39s.15-.16.05-.49c-.08-.19-.22-.35-.39-.46-.24-.14-.53-.17-.8-.1-.65.22-1.14.77-1.3,1.44-.25.74-.31,1.53-.19,2.3.27,1.62,1.29,3,2.5,3.21.45.07.91-.07,1.25-.38.22-.24.24-.42.21-.43Z"/>
    <path class="st10" d="M278.51,105.95c.42-.53.96-.96,1.57-1.25h-.13c.11-.04.23-.07.35-.09.42-.18.89-.18,1.31,0h0c.75.2,1.39.66,1.81,1.31.68,1.18.65,2.64-.09,3.79-.68,1.38-2.36,1.94-3.74,1.26-.71-.35-1.24-.99-1.45-1.76-.43-1.08-.29-2.3.37-3.26Z"/>
    <path class="st10" d="M282.25,107.27s0,.07,0,.11c0,.11-.04.21-.08.31-.18.4-.49.72-.88.91-.62.32-1.3.52-2,.56-.44.04-.87.04-1.31,0-.49-.03-.98-.14-1.44-.33h.09c-.18,2.2-2.11,3.84-4.31,3.66-.68-.06-1.33-.28-1.9-.66h.14c-.22.39-.58.67-1,.79-.43.12-.88.12-1.31,0-.45-.13-.84-.41-1.12-.78-.27-.39-.45-.83-.51-1.3-.1-.97.14-1.95.68-2.76.58-.82,1.25-1.57,2-2.23v.19c-.71-.38-1.23-1.04-1.42-1.82-.22-.79-.2-1.62.05-2.4.28-.78.71-1.5,1.27-2.12.56-.63,1.15-1.21,1.79-1.76v.19c-.64-.59-1-1.42-1-2.29,0-.88.25-1.74.74-2.47,1-1.26,2.28-2.29,3.73-3l-.05.14c-.92-2.82.61-5.86,3.44-6.79.61-.2,1.26-.29,1.9-.26l-.12.15c-.36-1.39-.07-2.86.8-4,.76-1.09,1.96-1.8,3.29-1.93l-.09.11c-.07-1.39.51-2.74,1.57-3.65.89-.84,2.09-1.27,3.31-1.19l-.08.04c0-.74.17-1.47.51-2.12.28-.58.65-1.11,1.11-1.57.71-.75,1.66-1.24,2.68-1.4h.58c.17-.01.35-.01.52,0,.27.04.53.09.79.16l.46.16.16.06h-.17l-.46-.13c-.26-.07-.52-.12-.79-.14-.17-.02-.34-.02-.51,0-.09,0-.19,0-.28,0h-.29c-1,.16-1.91.66-2.6,1.4-.44.45-.81.97-1.08,1.54-.31.62-.47,1.31-.47,2v.04h-.09c-1.17-.07-2.32.35-3.18,1.16-1.01.88-1.56,2.17-1.49,3.5v.11h-.1c-1.26.14-2.41.81-3.13,1.86-.83,1.09-1.11,2.49-.76,3.81l.05.16h-.16c-2.83-.13-5.23,2.06-5.36,4.89-.03.63.06,1.25.26,1.85v.1h-.08c-1.43.71-2.68,1.74-3.66,3-.46.69-.7,1.5-.69,2.33-.02.79.3,1.56.88,2.1l.11.09-.11.09c-1.31.98-2.34,2.28-3,3.77-.24.73-.26,1.52-.06,2.26.18.72.65,1.33,1.3,1.68l.15.07-.04.17c-.75.64-1.43,1.37-2,2.18-.52.77-.75,1.69-.66,2.61.06.88.64,1.63,1.47,1.91.8.34,1.73.04,2.19-.7l.05-.09.09.06c1.24.8,2.82.83,4.09.09,1.06-.65,1.75-1.76,1.88-3v-.06h.08c.45.18.92.29,1.4.33.43.04.86.04,1.29,0,.68-.04,1.34-.22,1.94-.52.38-.18.69-.48.87-.86.1-.22.11-.37.13-.37Z"/>
    <path class="st10" d="M250.85,100.88c-.13-.15-.24-.3-.34-.47-.28-.48-.47-1.02-.55-1.57-.13-.89.04-1.8.48-2.58.6-1.05,1.61-1.81,2.79-2.08l-.06.11c-.36-1.34-.2-2.77.44-4,.35-.7.84-1.31,1.45-1.8.67-.47,1.39-.87,2.14-1.2.36-.19.7-.43,1-.71.3-.28.52-.62.66-1,.31-.8.35-1.73.75-2.59.86-1.81,2.74-2.92,4.74-2.8l-.13.14c-.76-3.5,1.46-6.96,4.97-7.72.55-.12,1.11-.17,1.66-.14l-.13.15c-.59-3.09,1.44-6.08,4.54-6.66,1.34-.25,2.73-.02,3.91.66h-.13c.75-.83,1.67-1.49,2.7-1.93.91-.41,1.87-.7,2.85-.87,1.59-.29,3.22-.29,4.81,0,1.02.17,2.01.51,2.93,1,.24.13.47.27.69.43l.23.16s-.32-.2-1-.53c-.89-.47-1.84-.8-2.82-.99-1.58-.26-3.19-.24-4.76.07-.97.18-1.91.47-2.8.88-1,.44-1.89,1.09-2.62,1.9l-.06.06h-.07c-1.76-.96-3.9-.92-5.62.11-1.88,1.21-2.86,3.42-2.49,5.62v.15h-.15c-3.44-.18-6.38,2.47-6.56,5.91-.03.54.01,1.08.13,1.61v.16h-.16c-1.9-.12-3.69.93-4.51,2.65-.38.81-.43,1.73-.75,2.58-.15.42-.4.81-.72,1.12-.32.29-.67.54-1.06.74-.74.32-1.45.71-2.11,1.17-.59.47-1.07,1.06-1.41,1.73-.64,1.2-.8,2.59-.46,3.9v.09h-.09c-1.14.26-2.13.98-2.71,2-.43.76-.61,1.64-.5,2.51.07.55.24,1.08.5,1.56.28.28.41.46.4.47Z"/>
    <path class="st10" d="M328.25,97.43c-.12-.2-.14-.43-.08-.65.08-.27.23-.52.43-.71.29-.26.63-.46,1-.57.43-.15.84-.36,1.22-.62.41-.35.69-.83.81-1.36.15-.61.17-1.25.07-1.87-.07-.66-.23-1.36-.29-2.12.05-1.64.28-3.26.68-4.85.15-.88.13-1.79-.08-2.66-.2-.92-.8-1.71-1.63-2.16-.93-.37-1.91-.63-2.9-.76-.53-.1-1.04-.29-1.5-.56-.47-.3-.85-.72-1.11-1.21-.47-1-.83-2.04-1.09-3.11-.14-.53-.37-1.04-.67-1.5-.29-.47-.74-.82-1.26-1-.74-.14-1.5-.19-2.26-.14-.39,0-.78-.08-1.15-.21-.37-.14-.7-.37-.95-.68-.43-.62-.76-1.29-1-2-.77-1.96-2.68-3.22-4.78-3.17-1.26.06-2.45.59-3.34,1.49l-.1.11-.07-.13c-1.08-1.94-2.93-3.32-5.1-3.79-.89-.17-1.82-.17-2.71,0-.77.13-1.51.39-2.18.78-.94.55-1.71,1.37-2.2,2.34-.14.25-.25.52-.34.79l-.09.21s0,.07,0,.06c0-.02,0-.05,0-.07l.06-.21c.08-.28.19-.55.32-.81.48-1,1.25-1.85,2.2-2.42.68-.4,1.43-.68,2.21-.82.92-.18,1.86-.18,2.78,0,2.22.47,4.14,1.88,5.25,3.86h-.17c.92-.94,2.16-1.5,3.48-1.57,1.39-.03,2.73.5,3.72,1.48.55.53.97,1.16,1.25,1.87.23.69.57,1.35,1,1.94.48.55,1.19.84,1.92.8.78-.05,1.56,0,2.32.15.56.18,1.05.53,1.4,1,.31.48.54,1.01.7,1.56.24,1.06.59,2.09,1.06,3.07.23.45.57.84,1,1.12.44.26.92.44,1.42.54,1.01.15,1.99.42,2.93.82.46.23.85.58,1.14,1,.28.4.48.85.6,1.33.21.9.23,1.84.08,2.75-.42,1.57-.66,3.18-.71,4.8,0,.74.2,1.44.27,2.11.09.64.06,1.29-.09,1.92-.13.56-.44,1.06-.88,1.42-.39.27-.81.48-1.26.62-.35.11-.67.29-.94.53-.2.18-.35.41-.43.67-.05.2-.03.4.04.59Z"/>
    <path class="st10" d="M343.02,83.78l-.1-.14c-.1-.14-.15-.25-.25-.44l-1-1.69c-.42-.73-.9-1.65-1.56-2.64-.7-1.16-1.71-2.1-2.92-2.7-.68-.31-1.45-.49-2.23-.77-.41-.14-.8-.33-1.16-.57-.38-.26-.68-.6-.9-1-.44-.81-.52-1.76-.89-2.6-.18-.41-.48-.76-.86-1-.41-.24-.87-.42-1.34-.51-.5-.1-.99-.25-1.47-.44-.49-.22-.91-.59-1.18-1.06-.45-.98-.76-2.02-.92-3.09-.1-.52-.31-1.01-.61-1.44-.33-.42-.81-.69-1.34-.75-1.08-.14-2.19.31-3.39.21-.6-.06-1.16-.31-1.61-.71-.42-.39-.79-.83-1.11-1.31-.31-.46-.64-.91-1-1.33-.33-.42-.77-.74-1.26-.93-1.02-.26-2.09-.17-3.05.25-.95.37-1.98.54-3,.49-.97-.17-1.91-.51-2.76-1-.78-.47-1.61-.85-2.47-1.15-1.58-.41-3.25-.34-4.8.19-1.27.42-2.44,1.11-3.41,2.04-.72.72-1.32,1.55-1.79,2.46-.29.58-.53,1.18-.71,1.8l-.15.48-.06.17v-.17l.13-.49c.17-.63.4-1.24.68-1.83.45-.93,1.05-1.78,1.77-2.52.98-.97,2.16-1.7,3.46-2.15,1.58-.56,3.29-.64,4.92-.23.88.3,1.72.69,2.52,1.15.82.49,1.73.83,2.68,1,1.01.05,2.01-.12,2.95-.49.51-.17,1.02-.3,1.55-.39.55-.09,1.12-.05,1.65.14.53.21,1,.56,1.36,1,.36.43.69.87,1,1.34.3.46.64.88,1.04,1.26.41.36.92.59,1.47.65,1.12.1,2.23-.36,3.4-.21.59.07,1.13.37,1.5.84.33.46.57.98.69,1.53.16,1.03.46,2.04.89,3,.24.44.62.79,1.08,1,.46.19.94.33,1.43.43.49.1.97.28,1.4.54.42.28.75.68.94,1.15.38.89.46,1.83.87,2.59.43.72,1.13,1.25,1.94,1.48.77.28,1.54.47,2.24.79,1.24.62,2.28,1.59,3,2.78.66,1,1.12,1.94,1.53,2.68l.92,1.71c.1.19.18.33.23.45.02.05.04.1.06.15Z"/>
    <path class="st10" d="M333.8,75.96h.15c.15-.01.3.01.44.07.51.28.85.79.9,1.37.04.41,0,.82-.08,1.22-.1.46-.14.94-.11,1.41.1.53.33,1.03.68,1.45.35.47.78.92,1.15,1.47.41.58.54,1.31.35,2-.21.71-.67,1.32-.86,2-.16.75-.02,1.54.38,2.2.37.72.87,1.4,1.24,2.2.21.42.35.87.39,1.34.03.46-.05.93-.21,1.36-.39.84-.84,1.65-1.37,2.41-.54.76-.78,1.69-.67,2.62.28.91.67,1.79,1.15,2.61.22.46.36.95.41,1.46.02.53-.09,1.06-.31,1.54-.43.86-.96,1.67-1.58,2.41-.58.7-1,1.52-1.25,2.39-.16.87-.37,1.74-.65,2.58-.16.41-.42.78-.74,1.08-.33.27-.71.49-1.11.63-.38.16-.75.3-1.09.48-.33.19-.62.43-.88.71-.48.55-.88,1.16-1.2,1.82-.33.63-.63,1.25-1,1.81-.62,1.02-1.55,1.82-2.66,2.27-.83.34-1.72.5-2.62.45-.56-.03-1.12-.15-1.64-.36-.18-.07-.36-.15-.53-.25,1.51.67,3.23.67,4.74,0,1.07-.45,1.97-1.24,2.56-2.24.34-.55.64-1.16,1-1.8.32-.68.73-1.31,1.22-1.87.27-.3.58-.55.93-.75.36-.19.73-.35,1.11-.5.36-.14.7-.35,1-.6.3-.28.53-.62.68-1,.27-.84.48-1.69.64-2.55.25-.9.69-1.75,1.28-2.47.6-.73,1.12-1.52,1.54-2.36.19-.43.27-.91.25-1.38-.04-.48-.17-.94-.38-1.37-.51-.85-.91-1.76-1.2-2.71-.09-.49-.06-1,.09-1.48.15-.46.36-.9.61-1.31.52-.75.98-1.54,1.36-2.37.15-.4.22-.83.2-1.26-.04-.42-.15-.84-.34-1.22-.35-.77-.84-1.45-1.22-2.19-.43-.71-.57-1.55-.39-2.36.22-.77.68-1.37.88-2,.19-.64.07-1.34-.32-1.88-.34-.53-.77-1-1.12-1.46-.36-.44-.6-.97-.69-1.53-.03-.49.01-.97.12-1.45.09-.39.13-.79.11-1.19-.04-.56-.35-1.06-.83-1.34-.16-.08-.33-.12-.51-.11Z"/>
    <path class="st2" d="M251.03,100.6c-.21.02-.43.02-.64,0-1.65-.2-3.06-1.3-3.64-2.86-.45-1.28-.31-2.69.38-3.86.44-.64.94-1.24,1.49-1.78.6-.56,1.07-1.24,1.37-2,.22-.86.11-1.78-.31-2.56-.38-.84-.91-1.65-1.28-2.59-1.59-4.09.43-8.7,4.52-10.29.23-.09.46-.17.7-.24l-.06.2c-.41-.5-.69-1.08-.83-1.71-.12-.64-.12-1.29,0-1.93.12-.67.35-1.31.7-1.89.34-.57.77-1.08,1.27-1.52,1.5-1.23,3.26-2.1,5.15-2.54,1.76-.47,3.59-.69,5.41-.64l-.12.12c-.08-2.14,1.03-4.14,2.88-5.21.86-.48,1.82-.74,2.8-.75.92.04,1.83.2,2.7.5.41.12.83.18,1.26.19.41,0,.82-.07,1.21-.22.73-.31,1.42-.71,2.06-1.19.61-.45,1.29-.82,2-1.09.64-.24,1.32-.38,2-.43,1.18-.07,2.36.16,3.43.67.79.39,1.5.91,2.09,1.56.37.4.69.85.95,1.33.1.16.18.33.24.51,0,0-.09-.18-.28-.49-.28-.47-.62-.91-1-1.3-.6-.63-1.31-1.14-2.09-1.51-1.05-.49-2.21-.7-3.36-.62-.68.05-1.36.19-2,.43-.69.28-1.33.64-1.93,1.08-.64.5-1.34.91-2.09,1.23-.41.16-.84.24-1.28.24-.44-.01-.88-.08-1.31-.2-.86-.28-1.75-.45-2.65-.48-.94.02-1.87.27-2.69.74-1.77,1.03-2.83,2.95-2.75,5v.13h-.13c-1.8-.04-3.61.17-5.35.64-1.85.43-3.58,1.28-5.05,2.49-.48.43-.89.92-1.22,1.47-.32.54-.53,1.13-.64,1.75-.12.6-.12,1.23,0,1.83.13.59.4,1.14.78,1.61l.12.15h-.18c-4.1,1.17-6.48,5.44-5.31,9.54.07.23.14.46.23.68.35.91.88,1.72,1.26,2.58.43.83.54,1.79.31,2.69-.3.8-.79,1.52-1.42,2.1-.55.53-1.05,1.11-1.48,1.74-.68,1.13-.83,2.5-.4,3.74.32.93.96,1.72,1.81,2.22.52.33,1.1.55,1.71.64.44.1.66.08.66.1Z"/>
    <path class="st2" d="M336.24,70.2c0-.05,0-.11,0-.16,0-.11-.05-.26-.08-.45-.07-.41-.17-1-.29-1.73s-.31-1.66-.59-2.71c-.31-1.18-.76-2.32-1.33-3.4-.7-1.31-1.66-2.45-2.84-3.35-.66-.49-1.39-.87-2.16-1.13-.85-.23-1.7-.4-2.57-.53-.93-.14-1.82-.47-2.63-.95-.81-.53-1.56-1.17-2.21-1.89-.68-.71-1.33-1.46-2.08-2.13-.74-.69-1.61-1.24-2.56-1.61-1.9-.68-3.92-.96-5.93-.81-1.88.07-3.75.29-5.6.64-3.14.57-6.16,1.66-8.94,3.22-1.87,1.06-3.55,2.41-5,4-.25.29-.48.53-.67.76s-.32.43-.45.59l-.27.37c-.07.08-.1.12-.11.11l.08-.13c.07-.09.16-.22.26-.38l.43-.6c.18-.24.41-.49.65-.78,1.43-1.63,3.12-3.01,5-4.1,2.79-1.59,5.84-2.71,9-3.29,1.86-.36,3.74-.59,5.63-.67,2.04-.14,4.08.14,6,.83.97.38,1.86.94,2.63,1.65.76.69,1.42,1.45,2.1,2.15.64.71,1.36,1.34,2.16,1.86.78.47,1.65.78,2.55.92.87.13,1.73.32,2.58.56.8.26,1.55.66,2.23,1.16,1.18.94,2.15,2.12,2.84,3.47.58,1.09,1.04,2.24,1.36,3.43.27,1,.43,2,.55,2.73s.2,1.34.25,1.74c0,.19,0,.34.05.45s-.04.16-.04.16Z"/>
    <path class="st1" d="M319.18,119.78l-1,.87c1.28,6.54-4.13,15-6.65,18.47l.79.61c2.57-3.73,8.24-12.9,6.86-19.95Z"/>
    <path class="st2" d="M319.18,119.78c.04.13.06.27.08.41.08.42.14.84.17,1.27.08,1.55-.07,3.1-.43,4.61-.84,3.83-3.16,8.83-6.6,13.75l-.09.14-.13-.11-.33-.26-.45-.35-.12-.09.09-.13c2.47-3.32,4.45-6.99,5.86-10.89.9-2.38,1.2-4.95.86-7.47h0l.82-.64.25-.19-.26.25-.74.66h0c.42,2.54.17,5.15-.73,7.57-1.38,3.94-3.35,7.65-5.85,11v-.22l.45.36.33.26h-.22c3.01-4.11,5.26-8.72,6.63-13.62.38-1.49.56-3.02.53-4.55,0-.55-.08-.93-.09-1.23s-.03-.52-.03-.53Z"/>
    <path class="st1" d="M280.35,113.27c-2.23-4.86-.31-8.21.54-9.35.35.14.72.22,1.1.23.51-.07.95-.36,1.23-.79.24-.33.36-.73.34-1.14-.02-.96-.46-1.87-1.21-2.47-.55-.6-1.48-.64-2.08-.1-.23.21-.39.5-.45.81-.42.93-.31,2.02.3,2.84-1,1.3-3.11,5.09-.68,10.39,3,6.42,12.89,24.53,15.16,26.49l.73-.74c-2.04-1.75-11.9-19.47-14.98-26.17Z"/>
    <path class="st2" d="M280.35,113.27s.1.17.27.51l.74,1.48c.64,1.29,1.62,3.16,2.89,5.51s2.81,5.16,4.64,8.34c.91,1.59,1.89,3.26,2.95,5,.53.87,1.08,1.75,1.66,2.64.57.91,1.21,1.78,1.92,2.58l.11.11-.1.1-.73.75-.1.1-.1-.1c-.88-.98-1.67-2.03-2.35-3.16-.72-1.12-1.43-2.28-2.13-3.46-1.41-2.38-2.82-4.86-4.23-7.41-2.21-4-4.31-8-6.13-11.75-.98-1.82-1.49-3.86-1.47-5.93.06-1.93.7-3.8,1.83-5.36v.16c-.41-.51-.61-1.16-.56-1.81.03-.62.22-1.23.56-1.75.17-.27.43-.47.73-.58.3-.09.61-.09.91,0,.55.18,1.02.53,1.35,1,.32.44.54.95.62,1.49.24,1.06-.37,2.12-1.4,2.45-.47.06-.94-.02-1.37-.21h.11c-.82,1.11-1.34,2.41-1.52,3.78-.12,1.02-.08,2.05.13,3.06.13.62.31,1.24.54,1.83.16.41.23.62.23.62,0,0-.1-.2-.28-.6-.25-.59-.45-1.2-.59-1.83-.23-1.01-.29-2.06-.18-3.09.17-1.4.69-2.74,1.52-3.88v-.06h.06c.4.17.84.24,1.27.2.41-.17.76-.46,1-.84.39-.93.24-2-.4-2.78-.3-.43-.73-.76-1.23-.93-.51-.18-1.08.02-1.37.48-.68.98-.68,2.27,0,3.25l.06.08-.06.09c-1.09,1.52-1.7,3.34-1.75,5.21,0,2.02.49,4.01,1.45,5.79,1.82,3.78,3.92,7.7,6.13,11.73,1.41,2.55,2.82,5,4.22,7.4.7,1.18,1.41,2.34,2.13,3.46.66,1.1,1.42,2.14,2.28,3.1h-.2l.74-.74v.21c-.75-.82-1.42-1.7-2-2.64-.58-.9-1.14-1.79-1.66-2.66-1.05-1.75-2-3.43-2.93-5-1.81-3.19-3.35-6-4.59-8.38s-2.2-4.25-2.82-5.55c-.32-.65-.54-1.16-.7-1.5s-.1-.51-.1-.51Z"/>
  </g>
</svg>