<?xml version="1.0" encoding="UTF-8"?>
<svg id="Layer_1" xmlns="http://www.w3.org/2000/svg" version="1.1" viewBox="0 0 750 500">
  <!-- Generator: Adobe Illustrator 29.5.1, SVG Export Plug-In . SVG Version: 2.1.0 Build 141)  -->
  <defs>
    <style>
      .st0, .st1 {
        opacity: .3;
      }

      .st0, .st2 {
        isolation: isolate;
      }

      .st3 {
        fill: #aa6550;
      }

      .st4 {
        fill: #b78876;
      }

      .st5 {
        fill: #ffbe9d;
      }

      .st6 {
        fill: #ebebeb;
      }

      .st7 {
        fill: #4a9288;
      }

      .st8 {
        fill: #263238;
      }

      .st9 {
        fill: #eb996e;
      }

      .st10, .st2 {
        fill: #fff;
      }

      .st11 {
        fill: #fafafa;
      }

      .st12 {
        opacity: .4;
      }

      .st13 {
        fill: #455a64;
      }

      .st2 {
        opacity: .2;
      }
    </style>
  </defs>
  <g id="freepik--background-simple--inject-165">
    <path class="st6" d="M601.49,77.51c31.53,69.83,23.49,154.91-19.45,218.33-42.95,63.43-114.41,104.52-189.56,119.47-53.67,10.68-111.34,8.54-160.36-15.76-49.02-24.3-87.54-73.06-90.48-127.69-1.11-20.64,3.26-42.53,17.08-57.94,21.96-24.59,59.51-25.46,92.48-24.39s70.46.24,92.55-24.26c16.97-18.82,19.52-46.12,28.41-69.84,15.22-40.36,51.81-71.85,94-80.76,30.68-6.53,63.52-.88,90.76,14.49,18.23,10.27,33.04,25.68,42.58,44.3.72,1.34,1.33,2.7,1.99,4.05Z"/>
  </g>
  <g id="freepik--Seat--inject-165">
    <path class="st13" d="M593.83,378.11H178.73c-3.28,0-5.94-2.66-5.94-5.94h0c0-3.28,2.66-5.94,5.94-5.94h415.11c3.28,0,5.94,2.66,5.94,5.94h0c0,3.28-2.66,5.94-5.94,5.94Z"/>
    <rect class="st13" x="220.33" y="378.11" width="11.75" height="113.89"/>
    <rect class="st13" x="510.26" y="378.11" width="11.75" height="113.89"/>
  </g>
  <g id="freepik--character-2--inject-165">
    <path class="st8" d="M449.19,166.5c-6.89-4.76-16.33-3.03-21.09,3.86-2.11,3.06-3.03,6.78-2.57,10.47.38,3.01,1.65,6.04.88,8.98-1.45,5.49-9.2,7.64-10.22,13.22-.4,2.21.38,4.43.98,6.59s.96,4.6-.16,6.54c-.82,1.44-2.32,2.34-3.49,3.51-3.78,3.77-3.66,10.38-.55,14.64,3.11,4.26,8.76,6.37,14.09,6.2,5.35-.39,10.51-2.16,14.98-5.12"/>
    <path class="st8" d="M444.21,168.36c1.78-5.17,6.13-9.03,11.48-10.18,5.21-1.22,11.67-2.95,16.44-.52,2.98,1.52,5.83,3.73,7,6.87,1.39,3.66-.74,10.64-1.82,14.47s-1.87,8.17.24,11.54c2.11,3.37,6.22,4.54,8.81,7.4,3.57,4.27,3.1,10.61-1.07,14.31,4.61-.27,8.54,4.43,8.33,9.04s-3.53,8.66-7.64,10.75-8.87,2.52-13.48,2.54c-5.74.01-11.46-.58-17.08-1.77-4.61-.98-9.42-2.52-12.42-6.16-2.76-3.34-3.53-7.9-3.53-12.2,0-15.33,8.01-30.49,4.53-45.45"/>
    <path class="st4" d="M471.73,282.07l5.92,18.52c2.29,7.7,8.7,13.46,16.6,14.93l39.51,7.32,10.75-.34-10.75-13.27-29.69-10.12c-2.9-.63-5.21-2.82-6-5.68l-11.88-25.72-14.97,9.18.51,5.2Z"/>
    <path class="st13" d="M413.49,263.96c.55,2.87,8.9,23.72,8.9,23.72,0,0,32.52-10.98,32.09-12.65-.35-1.31-6.6-22.19-14.09-33.75-2.86-4.53-7.69-7.44-13.03-7.84-1.46-.1-4.63,1.43-5.5,1.91-6.84,3.87-12.66,6.46-8.38,28.6Z"/>
    <path class="st7" d="M459.35,223.55c14.71,1.65,17.08,11.64,23.96,21.48l9.92,18.3-18.3,11.18.63,28.05,8.68,26.83-68.61-6.45,6.33-22.98-9.14-36.08c-.7-4.88-2.59-14.06-1.31-18.89,3.99-15.11,19.71-19.52,30.49-22.35,2.23-.57,12.99-.54,14.86-.09"/>
    <path class="st8" d="M414.08,263.67l.15.39c.09.28.22.67.38,1.16.33,1.04.81,2.52,1.4,4.43,1.22,3.85,2.92,9.36,5,16.03l-.23-.11,30.49-11.27.76-.32-.12.26c-1.85-6.87-4.24-13.58-7.16-20.08-2.26-5.34-5.32-10.31-9.07-14.72-1.47-1.66-3.2-3.07-5.14-4.16-1.45-.83-3.07-1.31-4.74-1.4-.32-.02-.64-.02-.96,0l-.85.09-.72.09-.59.16-.81.21-.28.06c.08-.05.17-.08.27-.1l.79-.26.59-.17c.24-.05.49-.09.73-.11l.85-.11c.33-.02.66-.02.99,0,1.71.06,3.38.53,4.88,1.37,1.96,1.08,3.73,2.49,5.23,4.16,3.82,4.41,6.93,9.39,9.22,14.76,2.94,6.51,5.35,13.24,7.21,20.14v.18l-.17.07-.77.32c-11.44,4.28-22.05,8.09-30.58,11.2l-.17.07v-.18c-2.01-6.7-3.66-12.2-4.88-16.08-.57-1.91-1.01-3.42-1.32-4.46-.15-.49-.26-.88-.34-1.22-.02-.13-.03-.25-.04-.38Z"/>
    <path class="st8" d="M450.81,270.08c0,.11-7.01,2.55-15.75,5.44s-15.86,5.15-15.86,5.03,7.01-2.55,15.76-5.44c8.75-2.89,15.77-5.15,15.84-5.03Z"/>
    <g class="st1">
      <path d="M422.5,285.17c1.32,5.97,3.04,11.85,5.14,17.6,1.31,3.66,3.18,7.09,5.54,10.17,3.49,4.02,8.14,6.86,13.31,8.11,5.14,1.24,10.47,1.5,15.71.77l-26.11-14.76-6.95-24.14-6.62,2.24Z"/>
    </g>
    <path class="st4" d="M425.5,283.81l6.44,21.08c2.27,7.74,8.68,13.55,16.6,15.06l39.51,7.5,10.75-.34-10.75-13.48-29.7-10.25c-2.92-.65-5.23-2.88-5.99-5.77l-5.5-21.21-21.36,7.4Z"/>
    <path class="st8" d="M475.62,301.83c-.11-.66-.17-1.32-.18-1.99-.06-1.4-.16-3.23-.27-5.45-.2-4.6-.41-10.98-.63-17.97-.22-6.99-.37-13.42-.45-17.98,0-2.22,0-4.05-.06-5.45-.03-.67,0-1.34.06-2,.12.66.18,1.32.18,1.99.07,1.4.16,3.23.27,5.45.2,4.6.43,10.98.63,17.97.21,6.99.38,13.42.45,17.98,0,2.22,0,4.06.07,5.45.04.67.01,1.34-.07,2Z"/>
    <g class="st1">
      <path d="M471.26,283.81c.72.46-1.13,4.6-4.98,8.54-3.84,3.94-7.92,5.89-8.39,5.17s2.54-3.66,6.1-7.39,6.51-6.79,7.27-6.32Z"/>
    </g>
    <path class="st8" d="M490.57,258.46c-2.45,1.8-5.02,3.43-7.7,4.88-2.57,1.63-5.25,3.09-8.03,4.34,5.02-3.44,10.27-6.53,15.72-9.23h0Z"/>
    <path class="st11" d="M446.83,259.7c0,.06-.49-.07-1.33,0-1.2.11-2.35.53-3.34,1.22-1.48,1.02-2.82,2.23-3.99,3.6-1.45,1.77-3.39,3.09-5.57,3.79-2.44.55-4.76-.3-6.7-.85-1.67-.64-3.46-.86-5.23-.65-1.18.21-2.24.83-2.99,1.76-.24.37-.45.76-.63,1.16v-.37c.09-.33.23-.65.41-.94.73-1.05,1.83-1.79,3.09-2.05,1.85-.29,3.74-.12,5.5.51,1.95.54,4.16,1.32,6.38.82,2.07-.68,3.91-1.93,5.31-3.6,1.22-1.37,2.63-2.58,4.17-3.57,1.07-.68,2.31-1.04,3.57-1.05.34,0,.67.04,1,.13.24.02.37.06.35.09Z"/>
    <path class="st11" d="M475.2,255.21c-.4-.11-.81-.18-1.22-.21-1.11.08-2.18.51-3.04,1.22-.59.4-1.22.91-1.93,1.39-.79.52-1.69.86-2.62.99-2.13.18-4.28-.24-6.18-1.22-1.82-.97-3.7-1.82-5.62-2.56-1.55-.57-3.24-.63-4.82-.15-1.07.31-2.01.96-2.68,1.85-.44.63-.55,1.09-.61,1.07s0-.12,0-.33c.08-.31.2-.61.37-.88.63-1.01,1.61-1.77,2.74-2.13,1.67-.58,3.48-.58,5.15,0,1.96.71,3.87,1.57,5.71,2.55,1.8.93,3.81,1.35,5.83,1.22,1.62-.34,3.13-1.09,4.38-2.18.95-.72,2.11-1.09,3.29-1.07.32.02.64.1.93.26.2.09.33.16.33.18Z"/>
    <path class="st11" d="M473.62,261.31c.77-.2,1.52-.48,2.23-.84,1.59-1.11,2.96-2.51,4.04-4.12,1.14-1.69,2.75-3.02,4.62-3.82.78-.33,1.66-.33,2.44,0-.79.03-1.58.17-2.33.43-1.72.89-3.19,2.19-4.28,3.79-1.11,1.68-2.59,3.09-4.32,4.13-.72.43-1.58.58-2.4.43Z"/>
    <path class="st7" d="M582.39,464.67l-.2-12.42-23.26.22.1,18.17,1.44.07c6.43.29,32.68,1.06,36.96-.28,4.77-1.5-15.04-5.77-15.04-5.77Z"/>
    <g class="st12">
      <path class="st10" d="M592.08,467.11s6.94,1.93,6.1,3.07-27.41,1.38-39.13.46v-.52h30.98s.7-2.95,2.05-3.01Z"/>
    </g>
    <path class="st8" d="M558.69,470.11h.4l1.15.06,4.23.15c3.57.1,8.54.17,13.97.12s10.39-.18,13.95-.34l4.23-.21,1.15-.09c.13.02.27.02.4,0h-1.62l-4.22.12c-3.57.1-8.54.22-13.95.26s-10.39,0-13.95,0h-5.79l.06-.07Z"/>
    <path class="st8" d="M590.04,470.42c.18-.7.44-1.38.77-2.02.41-.59.89-1.14,1.43-1.62-.72.27-1.31.79-1.66,1.48-.44.63-.63,1.41-.54,2.17Z"/>
    <path class="st8" d="M583.15,467.06s.39-.37.72-.9.56-1.01.49-1.05-.39.37-.72.9-.55,1-.49,1.05Z"/>
    <path class="st8" d="M581.32,466.07c0,.06.41-.18.82-.55s.67-.71.62-.77-.41.2-.82.56-.73.71-.62.76Z"/>
    <path class="st8" d="M580.1,463.89c0,.09.54.15,1.22.15.41.04.83,0,1.22-.13-.39-.15-.81-.2-1.22-.15-.41-.05-.83,0-1.22.13Z"/>
    <path class="st8" d="M579.62,462.35c.85.44,1.85.51,2.76.18-.92-.05-1.84-.11-2.76-.18Z"/>
    <path class="st8" d="M583.92,465.02c.5.08,1,.08,1.5,0,.54-.07,1.07-.19,1.59-.37.31-.09.62-.22.9-.38.18-.11.31-.28.37-.48.05-.23-.05-.46-.23-.6-1.18-.56-2.6-.21-3.38.84-.23.3-.39.64-.48,1-.03.13-.03.27,0,.4.15-.44.38-.86.67-1.22.32-.39.74-.68,1.22-.84.58-.2,1.23-.16,1.78.11.24.17.15.45-.11.61-.27.15-.55.27-.84.37-.5.18-1.02.31-1.54.41-.88.07-1.45.09-1.45.13Z"/>
    <path class="st8" d="M584.31,465.09c.18-.32.24-.69.16-1.05-.05-.39-.19-.76-.41-1.09-.26-.44-.71-.72-1.22-.76-.31.07-.52.38-.46.7.04.24.13.47.27.67.2.33.44.63.71.9.24.27.53.47.87.6,0,0-.3-.27-.72-.74-.24-.27-.46-.57-.63-.89-.21-.32-.35-.88,0-.95s.76.33.99.63c.21.29.36.62.43.96.04.34.06.67.04,1.01Z"/>
    <path class="st8" d="M559.12,463.74s.66-.07,1.72,0c1.37.14,2.67.66,3.76,1.51,1.1.85,1.94,1.98,2.44,3.28.35,1,.4,1.67.45,1.66.02-.15.02-.31,0-.46-.05-.41-.14-.82-.27-1.22-.88-2.79-3.38-4.76-6.31-4.94-.43-.04-.85-.04-1.28,0-.35.11-.51.15-.51.17Z"/>
    <path class="st8" d="M561.45,454.04c-.16,1.58-.21,3.18-.17,4.77-.04,1.59,0,3.19.12,4.78.16-1.59.21-3.19.17-4.78.04-1.59,0-3.18-.12-4.77Z"/>
    <path class="st8" d="M570.34,468.08c1.12.25,2.26.35,3.4.3,1.14.05,2.29-.05,3.4-.29,0-.09-1.52,0-3.4,0s-3.4-.11-3.4-.01Z"/>
    <path class="st8" d="M565.82,468.12c0,.06.12.32.28.67s.24.65.33.65.11-.37-.07-.77-.49-.61-.54-.55Z"/>
    <path class="st8" d="M564.07,466s.1.29.34.54.49.39.54.34-.1-.3-.34-.55-.48-.39-.54-.33Z"/>
    <path class="st8" d="M561.61,465.03c0,.09.33.07.67.2s.59.29.65.24-.13-.38-.56-.51-.78.01-.76.07Z"/>
    <path class="st8" d="M559.85,464.59c0,.07.11.2.3.27s.37.07.4,0-.11-.2-.3-.27-.38-.07-.4,0Z"/>
    <g class="st1">
      <polygon points="559.15 463.12 582.38 462.53 582.32 459.73 558.97 460.09 559.15 463.12"/>
    </g>
    <path class="st8" d="M488.05,330.45l67.96,1.22c10.89.21,19.96,8.41,21.26,19.22l13.48,109.53h-36.91l-11.28-94.6h-53.59l-.91-35.37Z"/>
    <path class="st13" d="M590.28,453.44c0,.17-8.09.37-18.05.43-9.97.06-18.06,0-18.06-.2s8.07-.38,18.05-.44,18.06.04,18.06.21Z"/>
    <path class="st8" d="M424.33,366.23c-27.13-8.98-8.61-45.3-8.61-45.3l118.57,11.15c9.47-.07,17.2,7.56,17.27,17.03,0,.04,0,.09,0,.13h0c0,9.46-7.66,17.14-17.12,17.15h-.02l-110.08-.16"/>
    <polygon class="st13" points="460.49 327.74 460.84 325.18 491.18 323.98 506.08 286.43 562.82 290.28 543.67 331.97 460.49 327.74"/>
    <path class="st10" d="M528.41,310.79c-.87,1.39-2.71,1.81-4.1.94-1.39-.87-1.81-2.71-.94-4.1s2.71-1.81,4.1-.94h0c1.39.88,1.8,2.72.93,4.1Z"/>
    <path class="st13" d="M449,327c.12-.02.24-.02.35,0h1.04l3.96.16,14.64.68,48.11,2.44c2.34.11,4.67.3,6.95.33s4.55.12,6.77.26,4.4.28,6.53.5c2.11.14,4.19.55,6.2,1.22,1.92.68,3.67,1.74,5.16,3.12,1.38,1.34,2.45,2.96,3.13,4.76.6,1.66,1.01,3.38,1.22,5.14.23,1.62.35,3.25.34,4.88.04,2.81-.51,5.6-1.63,8.18-.88,1.94-2.2,3.64-3.85,4.98-1.05.83-2.24,1.47-3.51,1.88-.44.14-.9.23-1.37.27,0,0,.48-.1,1.33-.39,1.24-.45,2.38-1.11,3.39-1.95,1.57-1.33,2.83-3,3.66-4.88,1.07-2.54,1.58-5.28,1.51-8.04,0-1.6-.14-3.2-.38-4.78-.21-1.71-.62-3.39-1.22-5.01-.65-1.72-1.68-3.28-3.01-4.55-1.44-1.32-3.13-2.33-4.98-2.98-1.97-.67-4.02-1.08-6.1-1.22-2.11-.21-4.28-.35-6.5-.48s-4.46-.21-6.75-.24-4.61-.22-6.96-.33l-48.11-2.68-14.64-.89-3.96-.27-1.02-.09h-.29Z"/>
    <path class="st4" d="M434.5,170.71l.07,3.66.73,54.56c.09,6.34,13.1,12.9,19.88,12.76h0c6.84-.15,4.4-7.43,4.88-13.42.35-4.59.41-9.19.17-13.78,0,0,8.65-1.44,10.44-12.73.89-5.61.61-14.82.13-22.35-.41-6.57-6.06-11.56-12.63-11.16-.17.01-.34.03-.52.04l-23.16,2.42Z"/>
    <path class="st8" d="M467.89,186.68c0,.79-.62,1.44-1.4,1.46-.76.06-1.42-.5-1.49-1.26,0-.01,0-.03,0-.04,0-.78.61-1.43,1.39-1.46.77-.06,1.44.51,1.5,1.27,0,.01,0,.02,0,.03Z"/>
    <path class="st8" d="M468.87,184.17c-.18.18-1.28-.62-2.84-.62s-2.7.78-2.87.6.1-.43.6-.79c.67-.47,1.47-.71,2.29-.71.81,0,1.6.25,2.26.73.49.41.65.71.56.79Z"/>
    <path class="st8" d="M452.7,186.68c.01.79-.61,1.44-1.39,1.46-.76.07-1.43-.49-1.5-1.25,0-.02,0-.04,0-.06,0-.78.61-1.43,1.39-1.46.77-.06,1.44.51,1.5,1.27,0,.01,0,.02,0,.03Z"/>
    <path class="st8" d="M453.55,184.46c-.18.18-1.28-.62-2.84-.62s-2.7.78-2.87.6.1-.43.6-.79c.68-.47,1.48-.72,2.31-.71.81,0,1.6.25,2.26.73.48.37.63.71.55.79Z"/>
    <path class="st8" d="M459.21,195.98c.82-.26,1.67-.41,2.52-.45.4,0,.78-.12.84-.39.04-.42-.05-.85-.27-1.22-.37-.96-.77-1.98-1.22-3.04-1.09-2.56-1.98-5.21-2.65-7.92,1.3,2.47,2.4,5.05,3.28,7.7l1.12,3.04c.25.48.32,1.03.21,1.56-.12.29-.36.5-.66.59-.22.06-.44.1-.67.1-.83.12-1.68.13-2.51.04Z"/>
    <path class="st3" d="M460.29,214.45c-5.32.08-10.55-1.32-15.12-4.04,0,0,3.66,7.76,14.97,6.7l.16-2.66Z"/>
    <path class="st3" d="M458.55,199.77c-.6-.76-1.56-1.15-2.52-1.04-.69.06-1.33.4-1.77.94-.43.53-.48,1.28-.12,1.87.51.57,1.32.77,2.04.51.74-.27,1.42-.68,2-1.22.17-.13.32-.29.44-.46.12-.18.12-.41,0-.59"/>
    <path class="st8" d="M454.63,197.08c.24,0,.26,1.68,1.7,2.88s3.26,1.02,3.27,1.22-.4.33-1.22.35c-.99,0-1.95-.33-2.72-.95-.74-.61-1.22-1.48-1.32-2.44-.01-.65.13-1.06.29-1.06Z"/>
    <path class="st8" d="M443.69,165.49c0-.13.18-.21.28-.17s.12.18.07.32-.18.21-.28.17c-.11-.07-.14-.21-.07-.32Z"/>
    <path class="st8" d="M433.92,224.14c3.35-1.28,5.98-3.95,7.21-7.32,1.18-3.35,1.27-7,.24-10.4-.45-1.57-1.09-3.29-.39-4.77.64-1,1.47-1.86,2.44-2.54,1.94-1.87,3.09-4.42,3.21-7.11.1-2.68-.39-5.35-1.44-7.82-.54-1.37-1.22-2.85-.7-4.24.45-.96,1.13-1.79,1.96-2.44,1.61-1.5,2.94-3.28,3.93-5.24.84-1.34,1.04-2.98.54-4.48-.82-1.7-2.95-2.23-4.88-2.37-4.46-.34-9.4.65-12.2,4.11-2.55,3.1-2.84,7.43-3.02,11.44-.56,12.65-1.12,25.42,1.06,37.9"/>
    <path class="st8" d="M475.2,169.46c-.62.39-1.26.74-1.93,1.05-.58.43-1.13.9-1.63,1.41-.28.28-.6.6-.88.91-.09.09-.12.17-.21.26l-.32.32-.79.74c-.76.7-1.58,1.34-2.44,1.9-1.28.86-2.7,1.49-4.2,1.84-2.88.62-5.89.25-8.54-1.05-1.84-.88-3.45-2.17-4.71-3.77-1.91-2.56-2.22-4.63-1.33-5.77s3.11-.96,5.6-.35c1.2.32,2.43.56,3.66.73.98.14,1.97.12,2.94-.07.47-.12.93-.28,1.37-.49.63-.28,1.43-.71,2.33-1.13.46-.22.94-.44,1.46-.63l.78-.28c.28-.1.6-.21.89-.28,1.11-.28,2.25-.37,3.39-.27,1.82.08,3.52.98,4.61,2.44.7,1.15.41,2.04-.06,2.49Z"/>
    <path class="st8" d="M453.96,178.35c-.16.43-1.71.22-3.54.44s-3.31.72-3.55.34c-.11-.18.15-.57.74-.99.79-.52,1.69-.84,2.63-.93.94-.11,1.88,0,2.77.33.67.27,1,.61.94.81Z"/>
    <path class="st8" d="M468.3,179.65c-.28.35-1.35,0-2.65,0s-2.38.23-2.63-.13c-.11-.18.06-.54.55-.88,1.31-.81,2.99-.76,4.24.13.45.34.61.71.49.88Z"/>
  </g>
  <g id="freepik--character-1--inject-165">
    <path class="st7" d="M134.82,344.49l12.05-3.02,5.79,22.53-17.58,4.61-.45-1.38c-1.94-6.1-9.45-31.3-9.27-35.77.22-4.95,9.45,13.04,9.45,13.04Z"/>
    <g class="st12">
      <path class="st10" d="M130.02,335.75s-3.66-6.21-4.55-5.09,5.74,26.83,9.66,37.93l.5-.17-8.05-29.93s2.67-1.41,2.44-2.74Z"/>
    </g>
    <path class="st8" d="M135.68,368.78c-.06-.12-.1-.25-.13-.38-.11-.33-.23-.7-.35-1.1-.34-1.1-.76-2.44-1.22-4.05-1.01-3.43-2.35-8.17-3.72-13.42s-2.44-10.09-3.27-13.58l-.89-4.13c-.07-.43-.15-.79-.22-1.13s-.06-.39-.06-.39c.06.12.1.25.12.38.07.34.17.71.27,1.12.27,1.12.59,2.44.98,4.11.82,3.48,1.99,8.28,3.34,13.55s2.68,10.04,3.66,13.48c.45,1.6.84,2.96,1.15,4.06.11.41.22.78.3,1.12.03.12.04.23.05.35Z"/>
    <path class="st8" d="M127.23,338.6c.63-.34,1.23-.75,1.77-1.22.48-.55.89-1.15,1.22-1.81-.25,1.54-1.43,2.77-2.96,3.07l-.02-.05Z"/>
    <path class="st8" d="M132.33,344.36s.24-.46.67-.93.83-.79.89-.74-.24.48-.68.94-.83.79-.88.73Z"/>
    <path class="st8" d="M133.75,346.01c-.06,0,.07-.46.33-.94s.5-.83.57-.79-.07.45-.33.93-.5.8-.57.8Z"/>
    <path class="st8" d="M136.18,346.55c-.39-.72-.6-1.52-.63-2.34.24.34.39.73.45,1.13.15.38.21.8.18,1.21Z"/>
    <path class="st8" d="M137.78,346.56c-.36-.33-.61-.75-.72-1.22-.2-.44-.26-.92-.17-1.39.19.42.34.86.44,1.31.2.42.35.86.45,1.31Z"/>
    <path class="st8" d="M134.08,343.1c-.2-.46-.32-.95-.35-1.45-.05-.54-.05-1.08,0-1.62,0-.33.05-.66.13-.98.05-.2.18-.37.35-.48.21-.1.45-.07.63.07.85.99.88,2.45.07,3.48-.23.3-.51.54-.84.72-.11.07-.24.12-.38.15.4-.27.76-.6,1.06-.98.3-.43.47-.93.49-1.45.03-.62-.17-1.22-.56-1.7-.23-.18-.49,0-.57.27-.07.3-.11.6-.13.9-.04.53-.04,1.07,0,1.6.01.9.15,1.45.1,1.46Z"/>
    <path class="st8" d="M133.92,342.74c.27-.25.61-.39.98-.39.41-.06.83-.02,1.22.12.5.14.89.52,1.05,1.01,0,.32-.24.6-.56.62-.24.02-.48,0-.71-.07-.37-.11-.72-.26-1.05-.46-.32-.16-.59-.39-.81-.67,0,0,.34.22.9.5.33.16.67.29,1.02.38.35.12.94.11.9-.27s-.51-.65-.85-.79c-.33-.13-.69-.19-1.05-.17-.35.03-.71.1-1.05.2Z"/>
    <path class="st8" d="M141.73,366.75s-.11-.67-.49-1.65c-1-2.63-3.42-4.46-6.23-4.7-1.05-.09-1.71,0-1.71,0,.14-.06.3-.1.45-.11.42-.08.85-.1,1.28-.07,2.92.13,5.46,2.05,6.39,4.82.14.4.23.8.29,1.22.02.16.03.33.01.49Z"/>
    <path class="st8" d="M150.5,361.98c-1.5.55-3.02,1.02-4.57,1.39-1.53.47-3.08.84-4.66,1.11,1.51-.55,3.05-1.01,4.61-1.39,1.52-.46,3.06-.83,4.62-1.11Z"/>
    <path class="st8" d="M134.62,356.99c-.97-2.06-1.57-4.29-1.76-6.56.09,0,.37,1.48.85,3.29s.99,3.27.9,3.27Z"/>
    <path class="st8" d="M135.77,361.39c0,.07-.34,0-.72-.1s-.7-.07-.71-.15.33-.21.76-.13.72.32.67.38Z"/>
    <path class="st8" d="M138.27,362.53s-.3,0-.61-.2-.5-.37-.46-.43.32,0,.61.18.5.37.46.44Z"/>
    <path class="st8" d="M139.78,364.66c-.09,0-.16-.29-.35-.6s-.44-.5-.4-.56.39,0,.63.4.24.76.12.76Z"/>
    <path class="st8" d="M140.72,366.23c-.07,0-.22,0-.34-.22s-.16-.34-.1-.39.21.06.33.23.17.34.11.38Z"/>
    <g class="st1">
      <polygon points="142.33 366.54 136.89 343.95 139.61 343.28 145.29 365.92 142.33 366.54"/>
    </g>
    <polygon class="st8" points="145.12 367.8 235.71 359.43 371.48 362.47 342.92 331.37 245.44 326.7 137.86 336.86 145.12 367.8"/>
    <path class="st13" d="M159.78,350.17c-.92.44-1.91.68-2.93.72-1.01.2-2.06.2-3.07,0,1.96-.66,4.04-.9,6.1-.72h-.1Z"/>
    <path class="st13" d="M171.91,348.9c-.95.41-1.97.62-3,.62-1.01.21-2.05.21-3.06,0,1.97-.63,4.05-.84,6.1-.61h-.04Z"/>
    <path class="st13" d="M184.06,347.82c-.95.4-1.98.6-3.01.57-1.01.21-2.05.21-3.06,0,.95-.4,1.98-.6,3.01-.59,1.01-.2,2.05-.19,3.06.01Z"/>
    <path class="st13" d="M196.22,346.93c-1.98.56-4.06.7-6.1.43.96-.39,1.98-.57,3.01-.54,1.03-.18,2.08-.14,3.09.11Z"/>
    <path class="st13" d="M208.39,346.21c-.96.37-1.99.54-3.02.49-1.02.16-2.06.11-3.06-.15.96-.37,1.99-.54,3.02-.49,1.02-.16,2.06-.11,3.06.15Z"/>
    <path class="st13" d="M220.57,345.68c-1.99.51-4.07.59-6.1.24.97-.36,2-.51,3.02-.44,1.03-.15,2.07-.09,3.07.2Z"/>
    <path class="st13" d="M232.77,345.33c-.98.33-2.01.46-3.04.39-1.03.13-2.07.05-3.06-.24.98-.33,2.01-.47,3.04-.39,1.03-.14,2.07-.05,3.06.24Z"/>
    <path class="st13" d="M244.97,345.15c-.98.32-2.02.44-3.05.35-1.03.11-2.06.01-3.05-.29,2.01-.41,4.09-.41,6.1,0v-.06Z"/>
    <path class="st13" d="M257.17,345.15c-.99.31-2.02.41-3.05.3-1.03.11-2.07,0-3.05-.33,2.01-.42,4.09-.42,6.1,0v.02Z"/>
    <path class="st13" d="M269.36,345.33c-.99.29-2.03.38-3.06.26-1.03.09-2.06-.04-3.04-.37.99-.3,2.03-.39,3.05-.27,1.03-.08,2.07.05,3.05.38Z"/>
    <path class="st13" d="M281.55,345.68c-1,.27-2.04.35-3.06.22-1.03.06-2.06-.08-3.04-.41.99-.29,2.04-.36,3.06-.22,1.03-.07,2.06.07,3.04.41Z"/>
    <path class="st13" d="M293.73,346.23c-1,.26-2.04.31-3.06.16-1.03.06-2.06-.1-3.02-.46,1-.26,2.04-.32,3.06-.17,1.03-.06,2.06.11,3.02.48Z"/>
    <path class="st13" d="M305.91,346.95c-2.04.3-4.12.16-6.1-.39,1.01-.24,2.05-.28,3.07-.12,1.03-.03,2.06.14,3.02.51Z"/>
    <path class="st13" d="M318.08,347.88c-2.04.26-4.12.1-6.1-.49,1.01-.23,2.05-.25,3.06-.07,1.04-.03,2.07.16,3.04.56Z"/>
    <path class="st13" d="M324.52,348.45c0,.18-.11.32-.22.3s-.17-.16-.15-.34.11-.3.21-.29.17.15.16.33Z"/>
    <path class="st13" d="M152.38,366.88c-.23-.35-.41-.72-.54-1.12-.3-.73-.72-1.82-1.22-3.17-.96-2.68-2.18-6.45-3.32-10.68s-1.93-8.1-2.44-10.92c-.24-1.41-.43-2.55-.52-3.35-.09-.4-.11-.81-.09-1.22.43,1.48.78,2.99,1.05,4.51.61,2.79,1.49,6.64,2.61,10.84s2.27,7.98,3.12,10.71c.53,1.44.97,2.91,1.34,4.4Z"/>
    <path class="st7" d="M208.89,359.21l1.89-12.28,23.02,3.4-2.54,17.99-1.44-.12c-6.4-.59-32.52-3.43-36.59-5.34-4.55-2.15,15.66-3.65,15.66-3.65Z"/>
    <g class="st12">
      <path class="st10" d="M198.96,360.28s-7.15.96-6.45,2.22,26.96,5.12,38.7,5.82v-.52l-30.69-4.24s-.23-3.01-1.56-3.27Z"/>
    </g>
    <path class="st8" d="M231.61,367.84h-.4l-1.15-.1-4.21-.44c-3.55-.39-8.45-1-13.84-1.78s-10.27-1.62-13.78-2.27l-4.16-.78-1.12-.24c-.13-.02-.26-.05-.39-.1h.39l1.15.18,4.23.77c3.51.6,8.39,1.39,13.78,2.18s10.28,1.43,13.83,1.87l4.2.52,1.13.16.34.02Z"/>
    <path class="st8" d="M200.51,363.9c-.08-.72-.24-1.43-.49-2.11-.34-.65-.75-1.26-1.22-1.82.68.37,1.19.98,1.45,1.71.36.68.45,1.47.26,2.22Z"/>
    <path class="st8" d="M207.82,361.47c-.07,0-.34-.41-.6-1s-.35-1.04-.35-1.04c0,0,.34.41.6.99.19.32.31.68.35,1.05Z"/>
    <path class="st8" d="M209.82,360.75s-.38-.24-.73-.66-.57-.79-.51-.84.39.24.73.66.57.74.51.84Z"/>
    <path class="st8" d="M211.32,358.75c-.4.1-.82.1-1.22,0-.42,0-.84-.1-1.22-.29,0-.09.55-.07,1.22,0,.42,0,.84.1,1.22.29Z"/>
    <path class="st8" d="M211.95,357.28c-.44.2-.93.26-1.4.18-.48,0-.95-.12-1.35-.38.46-.02.92.02,1.38.1.46-.01.92.02,1.38.1Z"/>
    <path class="st8" d="M207.33,359.33c-.5.02-1-.06-1.48-.22-.53-.14-1.04-.34-1.52-.59-.31-.13-.59-.3-.85-.5-.16-.13-.26-.31-.29-.51-.02-.23.1-.45.3-.56,1.25-.4,2.61.14,3.24,1.29.18.33.3.69.34,1.06.03.13.03.27,0,.4-.09-.48-.25-.94-.49-1.37-.28-.44-.68-.78-1.15-1-.55-.28-1.19-.34-1.78-.15-.26.15-.21.43,0,.62.24.19.49.35.77.48.47.25.97.45,1.48.62.87.29,1.43.38,1.43.41Z"/>
    <path class="st8" d="M206.94,359.35c-.13-.34-.13-.71,0-1.05.1-.38.29-.73.56-1.02.32-.41.83-.63,1.34-.57.3.11.46.44.35.74-.07.23-.18.45-.34.63-.25.29-.53.56-.83.79-.27.23-.59.39-.94.46,0,0,.33-.22.81-.62.28-.24.54-.51.76-.81.24-.28.48-.82.11-.94-.41-.01-.8.17-1.06.49-.25.25-.44.56-.56.89-.1.33-.17.66-.2,1Z"/>
    <path class="st8" d="M232.06,361.48c-.57-.09-1.14-.16-1.71-.2-1.38-.04-2.74.3-3.93.99-1.19.7-2.16,1.71-2.81,2.93-.5.94-.62,1.6-.68,1.59,0-.16.02-.32.07-.48.11-.42.25-.83.44-1.22.61-1.29,1.6-2.36,2.83-3.09,1.23-.72,2.66-1.05,4.09-.94.41.02.82.1,1.22.22.33.11.49.17.48.2Z"/>
    <path class="st8" d="M231.1,351.55c-.08,1.59-.24,3.18-.5,4.76-.17,1.58-.43,3.16-.78,4.71.08-1.59.24-3.18.5-4.76.16-1.58.42-3.16.78-4.71Z"/>
    <path class="st8" d="M220.28,364.23c-1.14.09-2.29.04-3.42-.16-1.13-.11-2.25-.37-3.32-.77,0-.09,1.5.23,3.35.49s3.38.35,3.38.44Z"/>
    <path class="st8" d="M224.84,364.89s-.17.3-.38.62-.33.61-.41.6-.06-.38.17-.76.57-.52.62-.46Z"/>
    <path class="st8" d="M226.84,363.09c0,.06-.13.28-.4.49s-.54.32-.59.26.13-.28.41-.49.54-.38.57-.26Z"/>
    <path class="st8" d="M229.43,362.42c0,.07-.34,0-.7.1s-.62.22-.68.16.2-.35.63-.44.77.12.74.18Z"/>
    <path class="st8" d="M231.26,362.22c0,.07-.13.17-.33.22s-.39,0-.4-.06.13-.17.33-.22.4-.02.4.06Z"/>
    <g class="st1">
      <polygon points="232.13 360.86 209.19 357.09 209.65 354.32 232.71 357.88 232.13 360.86"/>
    </g>
    <path class="st7" d="M331.28,167.82c-3.44,5.55-1.06,14.64,0,21.1s2.44,13.14.59,19.39c-1,3.38-2.94,6.53-3.17,10.03-.3,4.53,2.24,8.66,4.18,12.75s3.29,9.17.79,12.95c-.94,1.44-2.44,2.78-2.26,4.5.24,2.11,3.15,2.98,5.05,2.01s2.98-2.99,3.92-4.88c1.1,2.3,1.2,4.95.27,7.32,6.82,2.56,14.5,1.04,19.83-3.93v-49.15l-29.2-32.09Z"/>
    <path class="st13" d="M340.35,231.5l-25.98,28.75,14.26,21.66s32.25-25.85,33.32-29.13c2.61-7.98,3.95-29.13-10.87-27.14-4.16.62-7.96,2.69-10.73,5.85Z"/>
    <path class="st13" d="M350,230.73l26.32-13.51s23.87,4.6,24.31,31.58c.44,26.98-1.33,70.55-1.33,70.55h-61.75l12.45-88.61Z"/>
    <path class="st5" d="M352.48,227.31c-1.15-6.38-2.44-13.09-2.44-13.09,0,0-8.46.09-12.06-10.36-3.43-9.95-5.92-33.91-5.92-33.91h0c11.12-6.91,25.37-6.18,35.73,1.83h0l8.44,52.02c.99,6.04-3.43,11.68-9.9,12.69h0c-6.57.96-12.76-3.1-13.84-9.18Z"/>
    <path class="st8" d="M336.16,188.15c.12.75.82,1.26,1.57,1.16.74-.06,1.29-.71,1.22-1.45,0-.01,0-.03,0-.04-.12-.75-.82-1.26-1.57-1.16-.74.06-1.29.71-1.22,1.45,0,.01,0,.03,0,.04Z"/>
    <path class="st8" d="M335.83,186.75c.2.15,1.11-.81,2.59-1.06s2.71.29,2.83.07-.17-.38-.7-.65c-.72-.33-1.52-.43-2.31-.29-.77.13-1.48.51-2.02,1.07-.39.44-.49.78-.39.85Z"/>
    <path class="st8" d="M351.35,186.23c.13.74.83,1.25,1.57,1.15.74-.06,1.29-.71,1.22-1.45,0-.01,0-.03,0-.04-.12-.75-.82-1.26-1.57-1.16-.74.07-1.29.73-1.22,1.47,0,0,0,.02,0,.03Z"/>
    <path class="st8" d="M351.38,184.57c.21.15,1.11-.82,2.6-1.07s2.7.29,2.83.09-.17-.39-.71-.65c-.72-.33-1.52-.43-2.29-.29-.77.13-1.48.51-2.02,1.07-.4.43-.5.78-.4.85Z"/>
    <path class="st8" d="M347.94,196.5c-.81-.1-1.63-.1-2.44,0-.38,0-.76,0-.87-.23-.13-.4-.13-.82,0-1.22.2-.98.4-2,.61-3.07.62-2.63,1.03-5.3,1.22-7.99-.81,2.57-1.42,5.2-1.82,7.87-.2,1.09-.39,2.11-.56,3.09-.18.49-.18,1.03,0,1.52.15.25.42.42.72.44.22.03.44.03.66,0,.84-.03,1.67-.16,2.48-.4Z"/>
    <path class="st9" d="M350,214.28c5.07-.81,9.82-3.02,13.71-6.37,0,0-2.18,7.99-13.11,8.88l-.6-2.51Z"/>
    <path class="st9" d="M349.19,199.96c.45-.82,1.29-1.35,2.22-1.41.67-.05,1.33.17,1.84.61.5.43.67,1.13.43,1.74-.39.63-1.12.97-1.85.84-.75-.13-1.46-.4-2.1-.81-.19-.09-.36-.21-.5-.37-.13-.15-.17-.37-.09-.55"/>
    <path class="st8" d="M352.48,196.77c-.23,0,0,1.63-1.13,3.01s-2.92,1.51-2.89,1.74.44.24,1.16.13c.95-.15,1.81-.63,2.44-1.35.59-.7.9-1.61.85-2.52-.06-.68-.32-1.05-.43-1.01Z"/>
    <path class="st7" d="M360.48,164.1c-2.87,6.33-12.2,14.04-19.34,16.77.65-1.31,4.68-4.98,5.34-6.29-2.9,3.16-7.09,7.43-11.51,8.54-.52.15-1.07.15-1.59,0-.59-.31-.99-.88-1.1-1.54-.86-3.19-1.37-6.46-1.52-9.76-.15-2.79.77-5.53,2.57-7.66,2.44-2.74,6.44-4.06,10.28-4.88,3.19-.81,6.5-.98,9.76-.51,3.18.62,6.1,2.44,7.11,5.15"/>
    <path class="st7" d="M377.63,187.95c.05-2.44-.04-4.89-.27-7.32-.73-5.59-3.45-27.4-26.65-22.11l7.42,6.64s-1.44,13.09,8.18,20.1c0,0,0,13.06,6.64,17.77,0,0,4.65-8.86,4.68-15.03"/>
    <path class="st5" d="M365.88,184.32c1.11-.45,2.32-.59,3.5-.39,1.19.21,2.24.87,2.94,1.85.63,1.02.86,2.25.63,3.43-.23,1.17-.72,2.27-1.43,3.23-.47.72-1.1,1.32-1.84,1.74-.76.42-1.68.42-2.44,0"/>
    <path class="st9" d="M367.75,191.17c-.12.07.5.68,1.5.21.53-.29.92-.78,1.1-1.35.2-.65.28-1.33.23-2.01-.04-.73-.34-1.41-.84-1.94-.43-.45-1.04-.68-1.66-.62-1.09.17-1.29.98-1.22.98s.46-.39,1.22-.34c.95.19,1.62,1.03,1.59,2,.18.99-.1,2.01-.77,2.76-.56.44-1.02.27-1.15.33Z"/>
    <path class="st8" d="M396.02,319.35h-22.99l3.29-65.12-30.37,1.01s-5.17,45.13-5.7,50.98c-32.69-29.86-55.23-48.7-70.81-59.93-20.74-14.98-31.93-3.4-36.26,2-11.44,14.27-31.09,105.29-31.09,105.29l35.63,5.66,18.64-78.7s40.62,49.63,73.45,78.42c11.62,10.2,33.38,8.83,41.67,5.56.05,0,25.35-13.75,24.54-45.18Z"/>
    <path class="st13" d="M361.51,326.5c-.28,1.4-.42,2.83-.4,4.26.15,6.73,5.74,12.07,12.47,11.92.44,0,.87-.04,1.3-.1,1.41-.21,2.79-.55,4.13-1.04-.3.25-.64.45-1.01.59-.97.45-2.01.75-3.07.89-6.77,1.03-13.09-3.62-14.12-10.38-.09-.6-.14-1.21-.14-1.81-.02-1.08.12-2.15.41-3.18.08-.4.23-.78.43-1.13Z"/>
    <path class="st13" d="M239.08,352.29c0,.18-7.96-.9-17.72-2.44-9.76-1.54-17.66-2.87-17.64-3.05s7.96.91,17.73,2.44c9.77,1.52,17.65,2.87,17.63,3.05Z"/>
    <path class="st13" d="M222.83,347.82c.07,1.03-.07,2.06-.41,3.04-.13,1.03-.48,2.01-1.02,2.89.07-2.05.56-4.07,1.44-5.93Z"/>
    <path class="st13" d="M225.82,335.98c.06,1.03-.1,2.07-.45,3.04-.16,1.02-.52,2-1.07,2.88.1-2.05.62-4.07,1.52-5.92h0Z"/>
    <path class="st13" d="M229.01,324.21c.04,1.03-.13,2.06-.5,3.02-.18,1.02-.56,1.99-1.12,2.85-.04-1.03.13-2.06.5-3.02.18-1.02.56-1.99,1.12-2.85Z"/>
    <path class="st13" d="M232.48,312.52c-.17,2.05-.76,4.04-1.73,5.84-.02-1.03.17-2.06.56-3.01.19-1.02.59-1.98,1.17-2.83Z"/>
    <path class="st13" d="M236.03,300.88c0,1.04-.2,2.06-.61,3.01-.22,1.01-.63,1.96-1.22,2.81-.01-1.03.2-2.05.61-3,.21-1.01.62-1.97,1.22-2.82Z"/>
    <path class="st13" d="M239.8,289.28c0,1.03-.23,2.05-.66,2.99-.22,1-.63,1.95-1.22,2.79.24-2.04.9-4.01,1.93-5.78h-.05Z"/>
    <path class="st13" d="M243.82,277.71c-.03,1.03-.27,2.04-.71,2.98-.24,1-.68,1.95-1.31,2.77.27-2.03.95-3.99,2.01-5.74Z"/>
    <path class="st13" d="M247.96,266.28c-.05,1.03-.3,2.04-.74,2.98-.26,1-.71,1.94-1.34,2.76.04-1.03.29-2.05.74-2.98.25-1,.71-1.94,1.34-2.76Z"/>
    <path class="st13" d="M254.26,265.64c-.13.12-1.15-.81-2.28-2.05s-1.94-2.35-1.81-2.44,1.15.81,2.28,2.05,1.98,2.31,1.81,2.44Z"/>
    <path class="st13" d="M262.5,274.65c-.12.12-1.16-.79-2.29-2.04s-1.96-2.34-1.83-2.44,1.16.79,2.29,2.04,1.96,2.32,1.83,2.44Z"/>
    <path class="st13" d="M270.79,283.59c-.13.12-1.22-.78-2.31-2.01s-1.98-2.33-1.85-2.44,1.22.78,2.32,2.01c.77.69,1.39,1.51,1.84,2.44Z"/>
    <path class="st13" d="M279.12,292.49c-.12.12-1.22-.77-2.32-2s-1.99-2.32-1.85-2.44,1.22.78,2.32,2c.77.69,1.4,1.51,1.85,2.44Z"/>
    <path class="st13" d="M287.49,301.37c-.13.12-1.22-.77-2.33-2s-1.99-2.32-1.85-2.44,1.16.77,2.32,2,1.99,2.32,1.87,2.44Z"/>
    <path class="st13" d="M295.9,310.22c-.12.12-1.22-.77-2.32-1.99s-2-2.32-1.88-2.44,1.22.78,2.33,2,1.96,2.31,1.87,2.43Z"/>
    <path class="st13" d="M304.27,319.08c-.13.12-1.22-.77-2.33-2s-2-2.31-1.88-2.44,1.22.77,2.33,2,2.05,2.32,1.88,2.44Z"/>
    <path class="st13" d="M312.66,327.93c-.13.11-1.22-.78-2.33-2s-2-2.32-1.87-2.44,1.22.77,2.33,1.99,1.99,2.33,1.87,2.45Z"/>
    <path class="st13" d="M321.03,336.79c-.12.12-1.22-.77-2.32-2s-1.99-2.31-1.87-2.44,1.22.77,2.33,2,1.99,2.33,1.85,2.44Z"/>
    <path class="st13" d="M329.76,345.29c-.98-.35-1.87-.93-2.57-1.7-1.22-1.13-2.1-2.24-1.98-2.37s1.22.78,2.44,1.89,2.21,2.02,2.11,2.17Z"/>
    <path class="st13" d="M340.79,350.23c-2.1.08-4.16-.55-5.85-1.78,1.01.12,2,.38,2.94.78,1.01.19,2,.53,2.92,1Z"/>
    <path class="st13" d="M352.78,349.11c-.81.67-1.79,1.09-2.83,1.22-.71.18-1.44.27-2.17.27-.56,0-.91,0-.91-.13s1.34-.38,2.94-.74c.96-.32,1.96-.53,2.98-.61Z"/>
    <path class="st13" d="M362.67,342.1c.12.12-.73,1.22-2.02,2.32s-2.5,1.81-2.6,1.66.93-1.04,2.18-2.13,2.32-1.96,2.44-1.84Z"/>
    <polygon class="st8" points="303.22 245.09 272.51 228.25 271.41 230.63 301.98 247.75 303.22 245.09"/>
    <path class="st5" d="M295.83,244.31s-7.12-9.27-8.16-11.29-2.79-5.55-3.34-5.57-2.44.45.63,6.49-2.83,2.7-2.83,2.7l-5.89-3.29s-3.05,13.08-.27,16.72c2.63,3.14,5.55,6.03,8.72,8.62l11.14-14.37Z"/>
    <path class="st5" d="M282.78,256.24s36.97,47.78,50.22,50.95,48.07-33.76,48.07-33.76l-15.1-18.83s-28.35,26.07-30.24,25.07-39.9-35.37-39.9-35.37l-13.05,11.95Z"/>
    <path class="st13" d="M377.32,239.44l-29.47,30.1,18.8,24.69s29.88-23.44,30.14-33.03c.22-8.15-2.22-23.61-11.73-24.71-2.89-.25-5.74.84-7.73,2.95Z"/>
    <path class="st13" d="M245.9,322.36c-.02.25-.06.49-.11.73-.1.51-.23,1.22-.4,2.06-.39,1.85-.93,4.46-1.6,7.7l-5.71,26.46-.06.28h-.29l-13.78-2.21-21.89-3.51h-.3l.07-.29c2.06-8.45,3.82-15.6,5.06-20.74.62-2.44,1.12-4.44,1.49-5.87.17-.63.3-1.15.41-1.54.04-.18.09-.36.17-.52,0,.18-.04.36-.09.54l-.33,1.57c-.32,1.41-.77,3.4-1.32,5.89l-4.88,20.74-.23-.34,21.96,3.44,13.73,2.2-.34.23c2.38-10.61,4.44-19.8,5.93-26.41l1.77-7.66c.22-.84.38-1.52.51-2.04.05-.24.12-.48.23-.71Z"/>
    <path class="st13" d="M337.38,363.26c-.17.02-.35.02-.52,0-.5-.07-.99-.2-1.46-.38-1.72-.71-3.28-1.75-4.6-3.06l-13.11-12.59c-5.11-4.88-9.76-9.37-13-12.62l-3.89-3.83c-.49-.46-.95-.96-1.37-1.49.55.39,1.06.83,1.54,1.31l4.04,3.74c3.38,3.17,8.03,7.59,13.12,12.49,5.1,4.9,9.76,9.36,12.99,12.64,1.25,1.31,2.73,2.39,4.37,3.16,1.18.52,1.9.56,1.9.63Z"/>
    <path class="st13" d="M354.61,324.28c-3.1-2.66-6.07-5.48-8.89-8.44-2.96-2.82-5.78-5.79-8.44-8.89,3.11,2.65,6.08,5.47,8.89,8.44,2.97,2.81,5.79,5.78,8.44,8.89Z"/>
    <path class="st8" d="M347.85,226.48l-1.94,28.76,4.67.52,1.52-30.25c-1.47,0-2.92.34-4.26.96Z"/>
    <path class="st11" d="M347.61,235.5c-3.39.42-6.83.42-10.22,0,3.39-.42,6.83-.42,10.22,0Z"/>
    <path class="st11" d="M400.4,245.02c0,.17-16.23.32-36.26.32s-36.25-.15-36.25-.32,16.22-.32,36.25-.32,36.26.15,36.26.32Z"/>
    <path class="st11" d="M344.77,257.39c0,.17-6.23.32-13.92.32s-13.9-.15-13.9-.32,6.22-.32,13.9-.32,13.92.13,13.92.32Z"/>
    <path class="st11" d="M400.4,256.43c0,.17-8.54.32-19.03.32s-19.02-.15-19.02-.32,8.54-.32,19.02-.32,19.03.13,19.03.32Z"/>
    <path class="st11" d="M400.4,268.08c0,.17-10.98.32-24.61.32s-24.6-.15-24.6-.32,10.98-.32,24.6-.32,24.61.18,24.61.32Z"/>
    <path class="st11" d="M400.69,282.59c0,.18-9.54.32-21.31.32s-21.27-.15-21.27-.32,9.54-.32,21.31-.32,21.27.13,21.27.32Z"/>
    <path class="st11" d="M399.92,293.28c0,.17-5.81.32-12.97.32s-12.95-.15-12.95-.32,5.81-.32,12.95-.32,12.97.15,12.97.32Z"/>
    <path class="st11" d="M399.92,303.95c0,.17-5.81.32-12.97.32s-12.95-.15-12.95-.32,5.81-.32,12.95-.32,12.97.15,12.97.32Z"/>
    <path class="st8" d="M395.28,265.67c-.11.23-.24.46-.4.66l-1.22,1.87c-1.69,2.26-3.49,4.43-5.4,6.5-6.63,7.1-13.76,13.71-21.35,19.77l-.24.21-.18-.27-9.59-12.95-8.89-12.28-.16-.22.18-.18,21.06-20.97,6.1-6.1,1.66-1.6c.19-.2.39-.38.61-.54-.16.22-.33.42-.52.61l-1.6,1.67c-1.44,1.49-3.48,3.59-6.03,6.18l-20.85,21.16v-.4l8.96,12.2,9.47,12.98h-.44c7.57-6.02,14.74-12.54,21.44-19.52,2.44-2.61,4.28-4.88,5.51-6.37.56-.76,1.01-1.35,1.35-1.79.15-.22.32-.43.51-.62Z"/>
    <path class="st7" d="M357.73,168.42c-1.76,4.44,0,13.04,3.99,16.94,3.39,3.34,4.77,8.46,5.23,13.22.55,5.61-2.09,11.36-.65,16.82.98,3.66,3.66,6.62,5.07,10.14,2.35,6.14.69,13.09-4.18,17.5,4.19,3.39,10.33,2.74,13.72-1.45.86-1.06,1.49-2.3,1.84-3.62l.32,6.68c9.88-5.92,13.23-18.65,7.54-28.66-2.21-3.87-5.73-7.32-5.95-11.78-.15-2.92,1.22-5.74,1.22-8.66-.06-4.67-3.51-8.54-5.5-12.71-1.76-3.76-2.37-7.94-3.85-11.81s-4.26-7.66-8.29-8.54"/>
  </g>
  <g id="freepik--Plant--inject-165">
    <path class="st7" d="M130.02,457.08c3.89-2.11,8.35-2.92,12.73-2.32,2.38.06,4.68.92,6.51,2.44,1.68,1.65,2.16,4.71.43,6.32-1.13.85-2.52,1.28-3.93,1.22-3.4.16-7.2-.21-9.76,1.99-1.48,1.22-2.44,3.24-4.21,3.93-1.88.55-3.89-.2-4.94-1.85-.97-1.65-1.28-3.61-.87-5.48.31-2.59,1.79-4.9,4.03-6.25Z"/>
    <path class="st2" d="M130.02,457.08c3.89-2.11,8.35-2.92,12.73-2.32,2.38.06,4.68.92,6.51,2.44,1.68,1.65,2.16,4.71.43,6.32-1.13.85-2.52,1.28-3.93,1.22-3.4.16-7.2-.21-9.76,1.99-1.48,1.22-2.44,3.24-4.21,3.93-1.88.55-3.89-.2-4.94-1.85-.97-1.65-1.28-3.61-.87-5.48.31-2.59,1.79-4.9,4.03-6.25Z"/>
    <path class="st7" d="M120.09,440.34c2.59,3.27,7.16,1.87,9.18-.34s2.76-5.27,3.42-8.2c1.51-6.68,3.01-13.69,1.22-20.28-.46-2.01-1.46-3.85-2.89-5.33-1.48-1.48-3.63-2.06-5.65-1.52-2.31.76-3.66,3.13-4.55,5.38-2.71,6.61-3.92,13.74-3.54,20.88.18,3.33.78,6.78,2.82,9.42"/>
    <path class="st0" d="M120.09,440.34c2.59,3.27,7.16,1.87,9.18-.34s2.76-5.27,3.42-8.2c1.51-6.68,3.01-13.69,1.22-20.28-.46-2.01-1.46-3.85-2.89-5.33-1.48-1.48-3.63-2.06-5.65-1.52-2.31.76-3.66,3.13-4.55,5.38-2.71,6.61-3.92,13.74-3.54,20.88.18,3.33.78,6.78,2.82,9.42"/>
    <path class="st7" d="M113.82,445.61c2.28-3.4,2.74-7.71,1.22-11.51-1.53-3.75-4.06-7.01-7.32-9.42-3.71-2.94-7.97-5.12-12.51-6.43-1.77-.6-3.65-.8-5.5-.6-1.88.21-3.53,1.35-4.4,3.02-1.13,2.44.26,5.38,1.72,7.71,2.58,4.1,5.47,7.99,8.66,11.64,2.56,2.93,5.48,5.81,9.18,6.98s7.48.79,9.26-1.84"/>
    <path class="st8" d="M122.95,491.76c.1-.51.15-1.04.13-1.56,0-1.13.1-2.55.16-4.24s.23-3.93.59-6.26c.41-2.53,1.02-5.02,1.83-7.45.78-2.43,1.91-4.73,3.34-6.83,1.16-1.72,2.7-3.16,4.49-4.21,1.22-.69,2.53-1.19,3.9-1.48.52-.06,1.03-.16,1.54-.3-.52-.06-1.05-.06-1.57,0-1.43.19-2.82.64-4.09,1.33-1.89,1.03-3.51,2.48-4.74,4.24-1.5,2.14-2.67,4.5-3.48,6.99-.82,2.46-1.43,4.99-1.81,7.56-.28,2.1-.43,4.21-.45,6.33v4.26c0,.54.05,1.09.16,1.62Z"/>
    <path class="st8" d="M123.06,488.49c.02-.24.02-.48,0-.72,0-.54-.09-1.22-.13-2.05-.11-1.78-.26-4.37-.35-7.56-.21-6.38,0-13.27.43-23,.46-9.15,1.22-19.81,2.21-26.83.22-1.59.44-3.01.66-4.26s.38-2.33.55-3.21.27-1.5.37-2.02c.06-.24.09-.48.09-.72-.1.22-.17.46-.21.7-.13.52-.29,1.22-.49,2s-.43,1.94-.66,3.2-.51,2.67-.74,4.24c-1.29,8.24-2.13,16.55-2.52,24.88-.49,9.76-.45,18.6-.12,24.99.15,3.2.38,5.78.56,7.55.1.84.18,1.51.24,2.05,0,.26.05.52.13.77Z"/>
    <path class="st8" d="M122.09,471.47c.01-.72-.03-1.44-.13-2.15-.17-1.38-.48-3.35-1-5.78-.66-2.83-1.47-5.62-2.44-8.36-1.12-3.37-2.51-6.66-4.13-9.82-2.81-5.84-6.66-11.12-11.36-15.59-.81-.77-1.68-1.48-2.59-2.13-.39-.29-.74-.59-1.1-.82l-.99-.6c-.6-.4-1.22-.75-1.87-1.06,2.18,1.52,4.26,3.17,6.23,4.94,4.55,4.52,8.3,9.78,11.09,15.55,1.6,3.16,2.99,6.42,4.15,9.76,1.11,3.06,1.9,5.88,2.51,8.27s.95,4.35,1.22,5.71c.09.7.22,1.39.4,2.07Z"/>
  </g>
  <g id="freepik--speech-bubbles--inject-165">
    <path class="st8" d="M294.68,103.99c-.36.04-.72.12-1.06.23-.99.37-1.73,1.22-1.95,2.26-.08.77-.1,1.54-.06,2.31v9.81c0,5.24,0,11.62.06,18.98v7.18c-.03.48.01.96.13,1.43.28.92,1,1.64,1.91,1.94.48.13.98.18,1.48.15h11.78v13.83l-.48-.2,13.56-13.59.09-.09h62.1c1.76-.16,3.21-1.47,3.54-3.21.07-.59.1-1.18.07-1.77v-35.09c-.01-.51-.12-1.02-.33-1.49-.63-1.47-2.06-2.43-3.66-2.44h-44.52l-31.21-.1-8.54-.06h-2.95,2.95l8.54-.06,31.24-.24h44.68c.58,0,1.16.11,1.7.33,1.1.46,1.97,1.34,2.44,2.44.23.54.36,1.13.38,1.72v8.44c0,4.56,0,9.22,0,13.97v12.64c.03.63,0,1.26-.09,1.88-.25,1.32-1.06,2.46-2.22,3.13-.57.33-1.22.53-1.88.59h-62.04l.22-.09-13.6,13.56-.48.48v-14.25l.26.26h-11.53c-.54.04-1.09-.02-1.61-.16-1.07-.35-1.9-1.19-2.22-2.27-.13-.51-.17-1.03-.15-1.55v-7.18c0-7.32,0-13.73.06-18.98v-9.81c-.03-.78,0-1.56.1-2.34.26-1.07,1.05-1.93,2.09-2.29.37-.2.78-.3,1.2-.29Z"/>
    <path class="st13" d="M327.1,126.17c0,1.97-1.58,3.57-3.55,3.57s-3.57-1.58-3.57-3.55,1.58-3.57,3.55-3.57c0,0,.02,0,.02,0,1.96,0,3.55,1.59,3.55,3.55h0Z"/>
    <path class="st13" d="M341.14,126.17c0,1.96-1.59,3.55-3.55,3.55-1.96,0-3.55-1.59-3.55-3.55s1.59-3.55,3.55-3.55,3.55,1.59,3.55,3.55h0Z"/>
    <path class="st13" d="M355.18,126.17c0,1.96-1.59,3.55-3.55,3.55-1.96,0-3.55-1.59-3.55-3.55s1.59-3.55,3.55-3.55,3.55,1.59,3.55,3.55h0Z"/>
    <path class="st13" d="M289.09,165.38h-109.49c-2.32,0-4.21,1.88-4.21,4.21,0,0,0,0,0,.01v35.37c0,2.32,1.87,4.2,4.18,4.21,0,0,.02,0,.02,0h84.16l13.42,13.42v-13.42h11.93c1.72,0,3.12-1.4,3.12-3.12v-37.56c0-1.72-1.4-3.12-3.12-3.12,0,0,0,0-.01,0Z"/>
    <path class="st11" d="M200.56,186.72c0,2.24-1.81,4.07-4.05,4.07s-4.07-1.81-4.07-4.05,1.81-4.07,4.05-4.07c0,0,.02,0,.02,0,2.24,0,4.05,1.81,4.05,4.05h0Z"/>
    <path class="st11" d="M275.17,182.67c0,.17-14.8.32-33.04.32s-33.05-.15-33.05-.32,14.8-.32,33.05-.32,33.04.13,33.04.32Z"/>
    <path class="st11" d="M275.17,188.46c0,.17-14.8.32-33.04.32s-33.05-.15-33.05-.32,14.8-.32,33.05-.32,33.04.13,33.04.32Z"/>
    <path class="st11" d="M240.05,195.03c0,.18-6.94.32-15.5.32s-15.51-.13-15.51-.32,6.94-.32,15.51-.32,15.5.15,15.5.32Z"/>
    <path class="st8" d="M526.04,222.82c-.35.04-.7.12-1.04.23-.98.36-1.71,1.2-1.93,2.22-.08.76-.1,1.52-.06,2.28v2.77c0,2,0,4.29,0,6.88,0,5.17,0,11.45.06,18.7v7.07c-.03.47.01.95.13,1.4.27.91.98,1.63,1.89,1.91.47.13.96.17,1.45.13h11.6v13.69l-.48-.2,13.42-13.42.09-.09h61.22c1.74-.15,3.16-1.44,3.49-3.15.07-.58.09-1.16.07-1.74v-34.51c-.01-.51-.12-1.01-.33-1.48-.63-1.41-2.02-2.33-3.56-2.34h-44.01l-30.75-.11h-11.27,2.92l8.36-.06,30.75-.1h44.04c1.78,0,3.39,1.05,4.1,2.68.24.53.37,1.11.38,1.7v34.52c.03.62,0,1.24-.07,1.85-.25,1.3-1.05,2.43-2.2,3.09-.57.33-1.2.53-1.85.59h-61.05l.21-.09c-4.63,4.63-9.11,9.09-13.42,13.36l-.46.48v-14.09l.26.26h-11.34c-.54.03-1.08-.02-1.6-.16-1.05-.35-1.86-1.18-2.18-2.23-.13-.5-.17-1.02-.13-1.54v-7.07c0-7.25,0-13.53.06-18.7v-9.65c-.03-.77,0-1.55.1-2.32.25-1.06,1.03-1.91,2.06-2.27.31-.26.69-.44,1.09-.51Z"/>
    <circle class="st13" cx="541.3" cy="242.33" r="4.05"/>
    <path class="st8" d="M606.01,238.27c0,.18-11.68.32-26.09.32s-26.08-.13-26.08-.32,11.67-.32,26.08-.32,26.09.15,26.09.32Z"/>
    <path class="st8" d="M606.01,244.07c0,.18-11.68.32-26.09.32s-26.08-.13-26.08-.32,11.67-.32,26.08-.32,26.09.15,26.09.32Z"/>
    <path class="st8" d="M584.85,250.65c0,.17-6.94.32-15.5.32s-15.5-.15-15.5-.32,6.94-.32,15.5-.32,15.5.15,15.5.32Z"/>
    <path class="st7" d="M501.01,155.61h53.47c2.32,0,4.21,1.87,4.22,4.2h0v35.38c0,2.33-1.89,4.22-4.22,4.22h-28.18l-13.42,13.42v-13.42h-11.92c-1.73,0-3.13-1.4-3.13-3.12v-37.56c0-1.72,1.4-3.12,3.12-3.12.02,0,.03,0,.05,0Z"/>
    <path class="st11" d="M518.74,178.27c0,1.74-1.41,3.15-3.15,3.15-1.74,0-3.15-1.41-3.15-3.15,0-1.74,1.41-3.15,3.15-3.15,0,0,0,0,.01,0,1.73,0,3.13,1.4,3.13,3.13,0,0,0,0,0,.01Z"/>
    <path class="st11" d="M531.18,178.27c0,1.74-1.41,3.15-3.15,3.15s-3.15-1.41-3.15-3.15,1.41-3.15,3.15-3.15h0c1.73,0,3.14,1.39,3.15,3.12,0,0,0,.02,0,.02Z"/>
    <path class="st11" d="M543.62,178.27c0,1.74-1.41,3.15-3.15,3.15s-3.15-1.41-3.15-3.15,1.41-3.15,3.15-3.15h0c1.74,0,3.15,1.41,3.15,3.15Z"/>
  </g>
</svg>