<?xml version="1.0" encoding="UTF-8"?>
<svg id="Layer_1" xmlns="http://www.w3.org/2000/svg" version="1.1" viewBox="0 0 750 500">
  <!-- Generator: Adobe Illustrator 29.5.1, SVG Export Plug-In . SVG Version: 2.1.0 Build 141)  -->
  <defs>
    <style>
      .st0 {
        fill: none;
      }

      .st1 {
        fill: #e0e0e0;
      }

      .st2 {
        fill: #ebebeb;
      }

      .st3 {
        fill: #4a9288;
      }

      .st4 {
        fill: #263238;
      }

      .st5 {
        fill: #fff;
      }

      .st6 {
        fill: #fafafa;
      }

      .st7 {
        opacity: .3;
      }

      .st8 {
        fill: #f5f5f5;
      }

      .st9 {
        fill: #455a64;
      }
    </style>
  </defs>
  <g id="freepik--background-complete--inject-118">
    <path class="st8" d="M678.48,258.34c-.9,0-1.79-.14-2.63-.44l-13.58-4.71c-2.72-.95-4.73-3.27-5.27-6.09l-2.72-14.13c-.54-2.83.47-5.73,2.64-7.62l10.87-9.41c2.19-1.89,5.2-2.46,7.93-1.53l13.59,4.72c2.72.94,4.74,3.26,5.28,6.09l2.71,14.12c.53,2.83-.47,5.73-2.63,7.63l-10.88,9.41c-1.48,1.28-3.36,1.98-5.31,1.96h0ZM665.6,244.96l12.7,4.44,10.17-8.79-2.54-13.2-12.7-4.44-10.16,8.8,2.53,13.19h0Z"/>
    <path class="st8" d="M640.52,345.44c-.9,0-1.79-.14-2.63-.44l-6.88-2.39c-2.72-.94-4.73-3.26-5.27-6.09l-1.38-7.15c-.54-2.83.47-5.73,2.63-7.62l5.55-4.77c2.18-1.89,5.2-2.46,7.91-1.52l6.87,2.39c2.72.94,4.74,3.26,5.28,6.09l1.38,7.15c.54,2.83-.47,5.73-2.64,7.62l-5.55,4.77c-1.47,1.27-3.34,1.95-5.27,1.96ZM634.36,334.34l5.99,2.08,4.78-4.15-1.2-6.22-5.98-2.08-4.8,4.22,1.2,6.15Z"/>
    <path class="st1" d="M624.99,178.17c-1.78-.01-3.45-.83-4.56-2.22l-3.87-4.84c-1.3-1.63-1.64-3.83-.89-5.77l2.22-5.77c.75-1.94,2.49-3.33,4.55-3.65l6.13-.94c2.06-.31,4.14.5,5.45,2.12l3.87,4.84c1.3,1.63,1.64,3.83.89,5.77l-2.22,5.77c-.75,1.94-2.5,3.34-4.56,3.65l-6.13.94c-.29.06-.58.09-.88.1ZM629.49,159.38h-.21l-6.13.94c-.5.08-.92.41-1.11.88l-2.22,5.77c-.19.47-.1,1,.21,1.39l3.87,4.84c.32.39.81.58,1.31.51l6.13-.94c.5-.07.92-.41,1.11-.88l2.22-5.77c.18-.47.1-1-.21-1.39h0l-3.87-4.84c-.28-.32-.68-.51-1.1-.51Z"/>
    <path class="st1" d="M67.38,322.78c-2.28,0-4.44-1.03-5.87-2.81l-9.1-11.37c-1.67-2.1-2.09-4.92-1.11-7.42l5.32-13.58c.98-2.5,3.21-4.28,5.85-4.7l14.43-2.22c2.65-.4,5.32.64,6.99,2.73l9.03,11.35c1.67,2.1,2.09,4.93,1.11,7.43l-5.22,13.59c-.98,2.5-3.21,4.3-5.86,4.71l-14.43,2.22c-.38.06-.75.08-1.13.07h0ZM58.57,303.91l8.88,11.1,14.1-2.15,5.17-13.32-8.88-11.1-14.1,2.16-5.17,13.31Z"/>
    <path class="st2" d="M104.22,223.29h-8.58c-2.08,0-4.01-1.09-5.06-2.89l-4.3-7.43c-1.03-1.81-1.03-4.04,0-5.85l4.3-7.43c1.04-1.81,2.98-2.92,5.06-2.92h8.58c2.09,0,4.02,1.11,5.06,2.92l4.3,7.38c1.03,1.81,1.03,4.04,0,5.85l-4.3,7.47c-1.05,1.79-2.99,2.89-5.06,2.89h0ZM95.63,201.17c-.5,0-.97.27-1.22.7l-4.28,7.43c-.26.43-.26.98,0,1.41l4.28,7.47c.26.43.72.7,1.22.71h8.58c.51,0,.99-.27,1.24-.71l4.28-7.43c.26-.43.26-.98,0-1.41l-4.28-7.47c-.26-.43-.72-.7-1.22-.7h-8.6Z"/>
  </g>
  <g id="freepik--Gears--inject-118">
    <path class="st1" d="M408.2,106.47c-.9,0-1.79-.14-2.63-.44l-13.6-4.71c-2.72-.95-4.73-3.27-5.27-6.09l-2.72-14.13c-.54-2.83.47-5.73,2.64-7.62l10.88-9.41c2.18-1.88,5.2-2.46,7.91-1.52l13.59,4.71c2.72.94,4.73,3.26,5.28,6.09l2.72,14.13c.53,2.83-.48,5.73-2.64,7.62l-10.88,9.41c-1.47,1.27-3.34,1.96-5.28,1.96ZM395.33,93.08l12.71,4.44,10.16-8.79-2.54-13.25-12.7-4.44-10.18,8.88,2.55,13.17h0Z"/>
    <path class="st0" d="M408.2,106.47c-.9,0-1.79-.14-2.63-.44l-13.6-4.71c-2.72-.95-4.73-3.27-5.27-6.09l-2.72-14.13c-.54-2.83.47-5.73,2.64-7.62l10.88-9.41c2.18-1.88,5.2-2.46,7.91-1.52l13.59,4.71c2.72.94,4.73,3.26,5.28,6.09l2.72,14.13c.53,2.83-.48,5.73-2.64,7.62l-10.88,9.41c-1.47,1.27-3.34,1.96-5.28,1.96ZM395.33,93.08l12.71,4.44,10.16-8.79-2.54-13.25-12.7-4.44-10.18,8.88,2.55,13.17h0Z"/>
    <path class="st4" d="M395.33,93.08c-.09-.29-.17-.58-.22-.88l-.56-2.61c-.48-2.34-1.11-5.64-1.96-9.67-.02-.08,0-.16.07-.21l10.12-8.88c.09-.04.18-.04.27,0l12.7,4.44.2.22h0v.41l.09.43.17.87c.11.57.21,1.11.32,1.71.22,1.11.43,2.22.64,3.33.42,2.22.83,4.35,1.22,6.41.02.1-.01.19-.09.26l-10.12,8.77c-.07.03-.14.03-.21,0l-9.29-3.33-2.5-.93c-.29-.09-.57-.21-.84-.34.32.07.63.16.93.27l2.56.82,9.28,3.11h-.21l10.12-8.88-.09.27c-.4-2.06-.82-4.2-1.24-6.41-.21-1.11-.43-2.22-.65-3.33-.11-.57-.21-1.11-.32-1.71l-.17-.87-.09-.43v-.41h0s.36.41.18.21l-12.69-4.44h.27l-10.2,8.76.08-.21c.72,4.02,1.32,7.29,1.74,9.64.19,1.11.34,1.99.46,2.65.04.32.06.65.04.98Z"/>
    <path class="st4" d="M408.2,106.47s.48,0,1.38-.18c1.3-.24,2.51-.81,3.54-1.63l11.05-9.67c1.21-1.04,2.08-2.43,2.48-3.97.22-.81.31-1.65.27-2.5-.1-.88-.24-1.74-.44-2.61-.7-3.59-1.44-7.4-2.22-11.42-.13-1.01-.41-1.99-.81-2.92-.88-1.9-2.48-3.36-4.44-4.07l-3.13-1.11-6.43-2.22-3.33-1.11c-1.05-.44-2.19-.68-3.33-.7-1.15,0-2.29.24-3.33.73-1.01.51-1.94,1.18-2.75,1.96l-5.14,4.44-4.96,4.3c-1.51,1.39-2.42,3.31-2.53,5.35-.01.99.1,1.98.33,2.94.19.99.37,1.95.56,2.91.36,1.91.71,3.75,1.04,5.55s.65,3.53,1,5.15c.41,1.53,1.28,2.91,2.49,3.95.57.48,1.19.88,1.85,1.19.65.29,1.35.5,2,.74l3.72,1.31,5.95,2.11c1.23.5,2.49.91,3.77,1.25.89.17,1.38.16,1.38.18-.47.06-.93.06-1.4,0-1.3-.3-2.58-.69-3.82-1.17l-5.93-2.03-3.73-1.27c-.67-.23-1.34-.43-2.04-.73-.71-.32-1.37-.73-1.96-1.23-1.28-1.08-2.21-2.52-2.65-4.14-.38-1.69-.68-3.4-1.03-5.18s-.71-3.64-1.11-5.55c-.19-.94-.38-1.91-.57-2.9-.26-1-.37-2.03-.36-3.06.11-2.19,1.09-4.25,2.7-5.74l4.95-4.31,5.14-4.44c.44-.38.85-.75,1.33-1.11.49-.37,1.01-.68,1.55-.93,1.11-.51,2.31-.78,3.53-.78,1.21.02,2.4.27,3.52.73l3.33,1.11,6.43,2.22,3.13,1.11c1.05.38,2.03.97,2.85,1.72.81.74,1.47,1.64,1.92,2.64.42.98.7,2,.84,3.05.74,4.03,1.47,7.85,2.16,11.43.2.88.34,1.78.43,2.68.13,2.59-.95,5.1-2.93,6.77l-11.17,9.54c-1.08.82-2.34,1.37-3.67,1.58-.47.07-.93.08-1.4.03h0Z"/>
    <path class="st1" d="M313.59,83.36c-1.79,0-3.46-.82-4.57-2.22l-3.87-4.83c-1.3-1.63-1.64-3.83-.89-5.78l2.22-5.77c.75-1.94,2.5-3.34,4.56-3.65l6.12-.94c2.06-.31,4.14.5,5.45,2.12l3.87,4.84c1.3,1.63,1.64,3.83.89,5.77l-2.22,5.78c-.74,1.94-2.48,3.35-4.53,3.69l-6.13.93c-.3.04-.6.07-.9.07h0ZM318.03,64.56h-.21l-6.08.92c-.5.08-.92.41-1.11.88l-2.22,5.78c-.18.47-.1,1,.21,1.39l3.87,4.83c.31.39.81.59,1.31.51l6.13-.94c.5-.07.92-.41,1.11-.88l2.22-5.77c.19-.47.1-1-.21-1.39l-3.87-4.83c-.28-.32-.68-.5-1.1-.5h-.04,0Z"/>
    <path class="st0" d="M313.59,83.36c-1.79,0-3.46-.82-4.57-2.22l-3.87-4.83c-1.3-1.63-1.64-3.83-.89-5.78l2.22-5.77c.75-1.94,2.5-3.34,4.56-3.65l6.12-.94c2.06-.31,4.14.5,5.45,2.12l3.87,4.84c1.3,1.63,1.64,3.83.89,5.77l-2.22,5.78c-.74,1.94-2.48,3.35-4.53,3.69l-6.13.93c-.3.04-.6.07-.9.07h0ZM318.03,64.56h-.21l-6.08.92c-.5.08-.92.41-1.11.88l-2.22,5.78c-.18.47-.1,1,.21,1.39l3.87,4.83c.31.39.81.59,1.31.51l6.13-.94c.5-.07.92-.41,1.11-.88l2.22-5.77c.19-.47.1-1-.21-1.39l-3.87-4.83c-.28-.32-.68-.5-1.1-.5h-.04,0Z"/>
    <path class="st4" d="M318.08,64.56c.16-.04.32-.04.48,0,.19.06.37.14.52.28.19.19.37.38.53.59l3.15,3.79.51.63c.19.27.3.58.31.9,0,.32-.08.63-.22.92-.1.28-.21.56-.31.84-.44,1.11-.91,2.36-1.4,3.65-.12.32-.24.64-.38.98-.14.4-.44.73-.82.92-.36.13-.73.22-1.11.26l-1.11.18c-1.5.22-2.96.48-4.63.69-.49,0-.94-.2-1.27-.57l-.73-.92-1.43-1.78-1.37-1.73-.34-.42c-.13-.16-.23-.33-.31-.52-.16-.39-.16-.83,0-1.22l1.44-3.63.65-1.64c.1-.28.22-.54.38-.8.18-.26.42-.44.71-.56,2.13-.39,3.75-.54,4.92-.7.6-.12,1.2-.17,1.81-.16-.14.06-.3.09-.46.11l-1.31.27c-1.11.22-2.86.47-4.81.85-.21.09-.39.23-.52.42-.12.23-.23.48-.31.72l-.62,1.65-1.4,3.65c-.1.27-.1.57,0,.83.16.29.34.56.57.79l1.42,1.74,1.43,1.78.72.9c.21.23.51.37.83.37l4.54-.68,1.11-.17c.33-.02.67-.09.99-.2.27-.12.47-.34.57-.62.12-.33.26-.65.38-.98.51-1.27.99-2.49,1.44-3.63.12-.28.23-.56.33-.83.12-.23.19-.49.21-.74,0-.23-.09-.47-.21-.67l-.49-.62-3.01-3.9c-.27-.56-.79-.94-1.4-1.03h0Z"/>
    <path class="st4" d="M313.59,83.36c.24-.06.49-.09.73-.11l2.12-.37,3.33-.57c.69-.08,1.37-.24,2.02-.49.71-.29,1.35-.73,1.89-1.29.61-.61,1.08-1.34,1.38-2.15.32-.84.67-1.73,1.01-2.65.61-1.85,1.85-3.75,1.4-5.87-.2-1.08-.69-2.08-1.42-2.89l-2.22-2.75-1.11-1.42c-.36-.48-.78-.9-1.24-1.27-.97-.72-2.13-1.11-3.33-1.11-.62.02-1.23.09-1.84.21l-1.85.28-3.61.57c-1.11.24-2.11.81-2.89,1.64-.38.4-.69.84-.93,1.33-.23.48-.42,1.03-.62,1.53l-1.19,3.01c-.41.91-.74,1.85-.98,2.82-.27,1.78.3,3.56,1.52,4.87l2.79,3.55c.42.51.77,1.02,1.17,1.41.37.36.77.67,1.21.91.85.46,1.79.72,2.74.8h-.75c-.73-.07-1.44-.28-2.09-.61-.47-.24-.91-.56-1.3-.91-.43-.44-.84-.92-1.23-1.41l-2.85-3.5c-1.32-1.39-1.93-3.3-1.67-5.2.22-1.01.54-2,.97-2.94l1.17-3.01c.21-.52.38-1.03.63-1.58.27-.53.61-1.03,1.01-1.48.83-.89,1.9-1.52,3.09-1.81,1.22-.21,2.41-.38,3.64-.58l1.85-.28c.63-.12,1.29-.2,1.93-.22,1.32-.01,2.61.41,3.67,1.2.51.39.97.84,1.34,1.37l1.11,1.42c.75.93,1.49,1.86,2.22,2.76.79.89,1.32,1.98,1.52,3.14.2,1.12.08,2.28-.36,3.33-.38.97-.75,1.91-1.11,2.83s-.71,1.79-1.04,2.64c-.31.83-.8,1.59-1.43,2.22-1.12,1.09-2.61,1.72-4.16,1.81l-3.33.47c-.92.12-1.64.22-2.13.26-.26.06-.51.08-.77.07h0Z"/>
    <path class="st4" d="M421.74,68.87c-.78,1.34-1.74,2.58-2.86,3.65-.99,1.21-2.16,2.25-3.5,3.07.93-1.23,1.96-2.39,3.07-3.45.97-1.21,2.08-2.31,3.29-3.27Z"/>
    <path class="st4" d="M400.92,62.49c.72,1.31,1.22,2.72,1.48,4.2.46,1.43.64,2.94.59,4.44-.5-1.39-.87-2.83-1.11-4.28-.46-1.42-.77-2.88-.95-4.35Z"/>
    <path class="st4" d="M392.64,79.66c-1.45-.29-2.88-.7-4.26-1.22-1.44-.36-2.85-.82-4.22-1.4,2.99.24,5.88,1.13,8.48,2.62h0Z"/>
    <path class="st4" d="M390.28,98.92c.58-1.17,1.33-2.23,2.22-3.17.77-1.05,1.68-2,2.71-2.8-.58,1.17-1.32,2.23-2.22,3.17-.77,1.05-1.68,2-2.71,2.8Z"/>
    <path class="st4" d="M408.97,104.99c-.44-1.14-.71-2.35-.78-3.57-.27-1.2-.33-2.44-.21-3.66.44,1.14.71,2.35.78,3.59.26,1.2.33,2.43.21,3.65h0Z"/>
    <path class="st4" d="M424.77,90.77c-1.13-.13-2.24-.46-3.27-.95-1.1-.31-2.14-.82-3.07-1.49,2.24.46,4.38,1.28,6.35,2.44Z"/>
  </g>
  <g id="freepik--Character--inject-118">
    <rect class="st9" x="139.9" y="124.57" width="455.18" height="325.12" rx="14.57" ry="14.57"/>
    <path class="st9" d="M122.11,428.69h493.16v8.69c0,10.91-8.85,19.76-19.76,19.76H141.87c-10.91,0-19.76-8.85-19.76-19.76v-8.69h0Z"/>
    <rect class="st4" x="152.13" y="137.49" width="429.47" height="274.56"/>
    <polygon class="st4" points="322.63 425.65 328.74 436.16 414.85 436.16 420.54 425.65 322.63 425.65"/>
    <rect class="st2" x="160.96" y="146.78" width="412.67" height="264.38" rx="3.27" ry="3.27"/>
    <polygon class="st6" points="573.2 411.55 160.53 411.55 160.96 166.54 573.2 166.54 573.2 411.55"/>
    <path class="st4" d="M195.64,156.99c-.09,1.88-1.69,3.32-3.56,3.23s-3.32-1.69-3.23-3.56c.09-1.81,1.58-3.23,3.39-3.23,1.92.04,3.44,1.64,3.4,3.56h.01Z"/>
    <path class="st4" d="M175.04,156.99c-.09,1.88-1.69,3.32-3.56,3.23s-3.32-1.69-3.23-3.56c.09-1.81,1.58-3.23,3.39-3.23,1.92.04,3.44,1.64,3.4,3.56h.01Z"/>
    <path class="st4" d="M185.63,156.99c-.09,1.88-1.69,3.32-3.56,3.23s-3.32-1.69-3.23-3.56c.09-1.81,1.58-3.23,3.39-3.23,1.92.04,3.44,1.64,3.4,3.56h.01Z"/>
    <path class="st4" d="M591.18,425.65c0,.18-101.02.31-225.63.31s-225.65-.13-225.65-.31,101.02-.32,225.65-.32,225.63.14,225.63.32Z"/>
    <path class="st1" d="M322.97,213.51c6.7-4.05,13.93-7.18,21.47-9.32l4.44-21.26,35.9-.63,5.17,21.09c7.6,1.88,14.93,4.76,21.78,8.57l18.15-11.89,25.83,24.94-11.23,18.57c4.05,6.72,7.19,13.93,9.32,21.48l21.25,4.44.63,35.9-21.09,5.17c-1.89,7.58-4.77,14.89-8.58,21.71l11.9,18.15-24.94,25.83-18.55-11.25c-6.72,4.05-13.93,7.19-21.48,9.32l-4.44,21.26-35.91.62-5.16-21.09c-7.59-1.85-14.9-4.72-21.72-8.51l-18.15,11.9-25.83-24.94,11.25-18.55c-4.05-6.72-7.19-13.93-9.34-21.48l-21.25-4.44-.63-35.9,21.09-5.17c1.88-7.6,4.76-14.93,8.57-21.78l-11.89-18.15,24.94-25.83,18.51,11.23h0ZM342.11,261.34c-14.78,15.31-14.34,39.7.95,54.47,15.31,14.78,39.7,14.34,54.47-.95,14.78-15.31,14.34-39.69-.95-54.46-15.31-14.76-39.7-14.33-54.47.99h0v-.03h0Z"/>
    <path class="st1" d="M466.41,227.24c.49-2.65,1.33-5.24,2.5-7.67l-4.44-5.99,8.04-9.41,6.66,3.49c2.22-1.53,4.64-2.76,7.18-3.65l1.11-7.4,12.33-.97,2.22,7.14c2.65.49,5.24,1.33,7.67,2.51l5.99-4.44,9.41,8.05-3.49,6.66c1.53,2.22,2.76,4.64,3.66,7.19l7.39,1.11.97,12.34-7.14,2.22c-.49,2.65-1.33,5.24-2.51,7.67l4.44,6.01-8.04,9.4-6.66-3.49c-2.22,1.53-4.64,2.76-7.19,3.66l-1.11,7.4-12.33.97-2.22-7.15c-2.65-.49-5.24-1.33-7.67-2.5l-6.01,4.44-9.39-8.14,3.49-6.66c-1.53-2.22-2.76-4.64-3.66-7.19l-7.39-1.11-.97-12.34,7.14-2.22v.08h.01ZM483.14,230.98c-.7,7.33,4.67,13.82,12,14.52s13.82-4.67,14.52-12c.7-7.33-4.67-13.82-12-14.52-1.2-.11-2.41-.07-3.6.14-5.89,1.05-10.36,5.89-10.92,11.86h0Z"/>
    <path class="st1" d="M196.06,351.16c.09-3.19.61-6.35,1.54-9.4l-6.29-6.14,7.7-12.41,8.35,2.89c2.33-2.19,4.94-4.05,7.77-5.55l-.07-8.83,14.23-3.33,3.85,7.94c3.19.09,6.35.61,9.4,1.54l6.21-6.29,12.41,7.7-2.89,8.35c2.19,2.33,4.05,4.94,5.55,7.77l8.83-.07,3.33,14.22-7.95,3.83c-.1,3.19-.62,6.35-1.55,9.4l6.29,6.19-7.7,12.42-8.35-2.89c-2.33,2.19-4.94,4.05-7.77,5.55l.07,8.83-14.22,3.33-3.86-7.94c-3.19-.11-6.33-.64-9.37-1.6l-6.19,6.29-12.42-7.7,2.89-8.35c-2.19-2.33-4.05-4.94-5.55-7.77l-8.88.07-3.33-14.22,7.94-3.86.04.02ZM216.63,355.15c1.99,8.43,10.43,13.64,18.86,11.64,8.43-1.99,13.64-10.43,11.64-18.86-1.99-8.4-10.4-13.62-18.82-11.66-8.43,1.96-13.68,10.39-11.71,18.83,0,.02.01.06.02.08v-.03h0Z"/>
    <path class="st2" d="M221.61,232.58c.37-2.01,1-3.95,1.89-5.78l-3.33-4.53,6.06-7.09,5,2.63c1.68-1.15,3.5-2.09,5.42-2.76l.82-5.55,9.3-.73,1.67,5.38c2,.38,3.95,1.01,5.78,1.89l4.53-3.33,7.08,6.06-2.62,5c1.15,1.68,2.09,3.5,2.75,5.42l5.55.81.73,9.3-5.37,1.62c-.37,2-1,3.95-1.88,5.78l3.33,4.52-6.06,7.09-5-2.63c-1.68,1.17-3.5,2.09-5.42,2.76l-.81,5.55-9.3.72-1.68-5.38c-2.01-.37-3.95-1-5.78-1.89l-4.52,3.33-7.09-6.06,2.62-5c-1.15-1.68-2.09-3.5-2.75-5.42l-5.55-.82-.72-9.3,5.38-1.67-.03.08h0ZM234.21,237.1c.44,5.49,5.25,9.6,10.76,9.17,5.49-.44,9.6-5.25,9.17-10.76-.43-5.48-5.23-9.58-10.71-9.17-5.51.42-9.62,5.22-9.2,10.72v.03h-.01Z"/>
    <path class="st2" d="M466.87,332.76c.32-1.72.87-3.4,1.62-4.97l-2.9-3.89,5.21-6.09,4.3,2.22c1.43-1,3-1.8,4.65-2.38l.7-4.8,7.99-.62,1.43,4.63c1.72.31,3.4.87,4.97,1.62l3.89-2.9,6.09,5.21-2.22,4.28c1,1.44,1.8,3.01,2.38,4.66l4.8.7.62,7.99-4.63,1.43c-.31,1.72-.87,3.4-1.62,4.97l2.9,3.89-5.21,6.08-4.28-2.22c-1.44.99-3.01,1.79-4.66,2.38l-.7,4.78-7.99.62-1.43-4.62c-1.72-.32-3.4-.87-4.97-1.62l-3.89,2.9-6.12-5.21,2.22-4.28c-1-1.43-1.8-3-2.38-4.65l-4.78-.7-.63-7.99,4.63-1.43h.02ZM477.7,336.64c.37,4.74,4.51,8.28,9.24,7.91,4.74-.37,8.28-4.51,7.91-9.24-.37-4.74-4.51-8.28-9.24-7.91h-.06c-4.72.39-8.23,4.52-7.86,9.24h0Z"/>
    <path class="st3" d="M368.7,344.81h-55.21c-10.24-.02-18.52-8.35-18.49-18.58,0-3.22.85-6.37,2.45-9.17l27.62-47.83,27.61-47.83c5.13-8.86,16.46-11.89,25.33-6.76,2.81,1.62,5.14,3.95,6.76,6.76l27.62,47.83,27.62,47.83c5.08,8.88,2.01,20.21-6.87,25.3-2.8,1.6-5.96,2.44-9.18,2.45h-55.26Z"/>
    <path class="st4" d="M428.15,322.54s.14.28.42.85c.97,2.35.69,5.02-.73,7.13-.54.82-1.25,1.52-2.08,2.06-.95.61-2.04.97-3.17,1.04-9.41.1-23,.08-39.81.12l-59.03.07h-8.44c-3.09-.03-5.82-2.01-6.8-4.93-.51-1.42-.61-2.96-.28-4.44.09-.37.21-.73.33-1.11s.32-.7.49-1.03l1.11-1.94c1.42-2.61,2.86-5.23,4.31-7.88l17.89-32.85,18.01-32.83c2.9-5.31,5.74-10.51,8.55-15.62.71-1.27,1.37-2.54,2.12-3.8.75-1.28,1.82-2.34,3.11-3.09,2.55-1.47,5.67-1.61,8.35-.38,1.31.59,2.45,1.5,3.33,2.64.75,1.15,1.44,2.35,2.05,3.59,1.3,2.38,2.59,4.72,3.84,7.03,2.53,4.62,4.97,9.1,7.34,13.44,4.74,8.67,9.15,16.75,13.17,24.12,8.04,14.75,14.53,26.7,19.03,34.97l5.15,9.51c.58,1.11,1.02,1.91,1.32,2.49s.44.85.44.85c0,0-.18-.28-.49-.83l-1.38-2.45-5.25-9.47c-4.53-8.25-11.1-20.15-19.18-34.87l-13.22-24.1-7.37-13.42c-1.27-2.31-2.54-4.65-3.85-7.03-.61-1.2-1.29-2.36-2.03-3.49-.82-1.07-1.89-1.92-3.11-2.48-2.52-1.15-5.45-1.02-7.86.36-1.2.7-2.21,1.71-2.91,2.91-.73,1.21-1.4,2.51-2.1,3.77l-8.55,15.62c-5.79,10.61-11.81,21.59-17.96,32.85l-17.97,32.83c-1.45,2.65-2.89,5.28-4.32,7.88-.78,1.22-1.4,2.54-1.83,3.93-.32,1.39-.23,2.83.26,4.16.9,2.71,3.43,4.55,6.28,4.56h8.44l59.03.06,39.8.06c1.09-.07,2.14-.4,3.07-.98.81-.52,1.51-1.2,2.05-2,.85-1.25,1.31-2.74,1.31-4.26-.01-1.27-.31-2.51-.88-3.64h0Z"/>
    <path class="st5" d="M359.75,312.3c0-4.9,3.91-8.55,9.47-8.55s9.38,3.65,9.38,8.55-3.82,8.71-9.38,8.71-9.47-3.89-9.47-8.71ZM359.84,262.16h18.76l-3.15,36.94h-12.53l-3.07-36.94Z"/>
    <path class="st5" d="M371.34,215.86c-1.13-.39-2.31-.63-3.51-.73-2.9-.07-5.74.89-8.01,2.69-2.22,1.85-4.02,4.17-5.25,6.79-1.01,2-1.49,3.33-1.58,3.27.03-.33.11-.65.23-.95.28-.85.6-1.69.98-2.5,1.18-2.75,2.99-5.18,5.3-7.08,2.38-1.89,5.36-2.82,8.39-2.62.91.07,1.8.29,2.63.64.54.26.84.46.82.49h0Z"/>
    <path class="st5" d="M348.25,236.15c.23-.95.64-1.86,1.21-2.66.81-1.37,1.58-2.41,1.72-2.33-.23.94-.64,1.83-1.22,2.62-.41.9-.99,1.7-1.71,2.38h0Z"/>
    <g class="st7">
      <polygon class="st5" points="396.4 241.55 310.38 294.54 299.21 313.9 402.48 252.06 396.4 241.55"/>
    </g>
    <g class="st7">
      <path class="st5" d="M409.95,265.04l-114.02,67.25c.46,1.77,1.3,3.4,2.48,4.8l113.55-68.56-2.01-3.49h0Z"/>
    </g>
  </g>
</svg>