<?xml version="1.0" encoding="UTF-8"?>
<svg id="Layer_1" xmlns="http://www.w3.org/2000/svg" version="1.1" viewBox="0 0 8192 7170">
  <!-- Generator: Adobe Illustrator 30.1.0, SVG Export Plug-In . SVG Version: 2.1.1 Build 136)  -->
  <defs>
    <style>
      .st0 {
        fill: none;
      }

      .st1 {
        fill: #e0e0e0;
      }

      .st2 {
        isolation: isolate;
        opacity: .3;
      }

      .st3 {
        fill: #60cefd;
      }

      .st4 {
        fill: #ebebeb;
      }

      .st5 {
        fill: #263238;
      }

      .st6 {
        fill: #fff;
      }

      .st7 {
        fill: #455a64;
      }
    </style>
  </defs>
  <g id="freepik--Crane--inject-39">
    <path class="st3" d="M2608.16,2045.37l-10.25-11.26,259.05-231h3.6c541.63,0,1102.75.9,1645.52,1.8,542.76.9,1103.77,1.8,1645.4,1.8v15.32c-541.75,0-1102.87-.9-1645.52-1.8-542.65-.9-1101.74-1.69-1642.47-1.69l-255.33,226.84Z"/>
    <path class="st3" d="M2673.6,2122.74c-2.21.06-4.33-.89-5.74-2.59-2.94-3.04-2.86-7.89.19-10.83.16-.15.32-.3.49-.43l342.28-300.5c2.95-2.64,7.41-2.64,10.36,0l305.56,285.29,295.2-285.07c2.93-2.69,7.43-2.69,10.36,0l323.92,285.52,298.02-285.29c2.91-2.75,7.45-2.75,10.36,0l321.33,285.63,305.79-285.52c2.93-2.57,7.32-2.57,10.25,0l326.63,285.52,292.84-285.29c2.98-2.78,7.6-2.78,10.59,0l310.86,285.4,303.09-285.4c2.93-2.57,7.32-2.57,10.25,0l331.81,290.13c3.61,2.21,4.74,6.93,2.53,10.53-2.21,3.61-6.93,4.74-10.53,2.53-.77-.47-1.46-1.08-2.02-1.8l-326.63-285.63-303.2,285.4c-2.91,2.75-7.45,2.75-10.36,0l-310.86-285.29-292.84,285.07c-2.93,2.69-7.43,2.69-10.36,0l-326.63-285.63-305.79,285.52c-2.97,2.59-7.39,2.59-10.36,0l-321.33-285.52-297.9,285.29c-2.95,2.64-7.41,2.64-10.36,0l-323.92-285.52-295.31,285.29c-2.98,2.78-7.6,2.78-10.59,0l-305.79-285.52-337.1,296.33c-1.31,1.43-3.13,2.28-5.07,2.37Z"/>
    <rect class="st7" x="706.87" y="1857.73" width="556.28" height="654.83"/>
    <path class="st5" d="M886.29,2512.55c-2.25,0-4.05-146.42-4.05-327.41s1.8-327.41,4.05-327.41,3.94,146.42,3.94,327.41-1.8,327.41-3.94,327.41Z"/>
    <path class="st5" d="M1100.28,2512.55c-2.25,0-4.05-146.42-4.05-327.41s1.8-327.41,4.05-327.41,3.94,146.42,3.94,327.41-1.8,327.41-3.94,327.41Z"/>
    <path class="st3" d="M6487.23,2119.93H657.42v-90.1h5829.81v90.1ZM665.64,2112.27h5813.93v-74.22H665.08l.56,74.22Z"/>
    <path class="st3" d="M2609.63,2119.93c-.77,0-1.51-.24-2.14-.68l-308.72-208.36c-1.68-1.22-2.12-3.54-1.01-5.29,1.19-1.73,3.55-2.18,5.29-1.01l308.72,208.36c1.73,1.11,2.23,3.41,1.12,5.14-.03.05-.07.11-.11.16-.69,1.07-1.88,1.7-3.15,1.69Z"/>
    <path class="st3" d="M2609.63,2118.46c-1.91.02-3.55-1.37-3.83-3.27l-26.81-210.5-308.49,213.09c-1.26.85-2.91.85-4.17,0-1.32-.74-2.04-2.22-1.8-3.72l112.63-885.72h0l14.19-110.94h0l30.18-236.52c.28-1.91,1.9-3.34,3.83-3.38h25.68c1.95-.01,3.6,1.44,3.83,3.38l13.52,105.53h0l31.76,242.72h0l28.27,220.53h0l15.43,119.84c.06.37.06.75,0,1.13.22.77.22,1.59,0,2.37l69.38,540.62c.2,2.1-1.29,3.99-3.38,4.28l-.23.56ZM2297.98,1910.89l-25,196.2,292.84-202.73-267.83,6.53ZM2554.78,1718.18l-246.1,184.37,268.85-6.19-22.75-178.18ZM2322.87,1716.38l-23.54,183.25,245.19-184.15-221.65.9ZM2333.01,1708.72h220.53l-16.56-129.3-203.97,129.3ZM2340.67,1576.49l-16.33,128.62,202.73-128.62h-186.4ZM2350.81,1568.83h184.82l-14.3-111.17-170.52,111.17ZM2356.21,1454.85l-13.74,110.04,168.94-110.49-155.2.45ZM2365,1447.19h155.09l-13.29-103.62-141.8,103.62ZM2370.85,1340.53l-13.07,102.49,140.22-102.49h-127.16ZM2378.51,1332.87h126.82l-12.16-95.17-114.66,95.17ZM2384.59,1233.08l-12.16,94.83,112.63-93.93-100.47-.9ZM2389.78,1225.54l101.93.79-12.73-98.89-89.2,98.1ZM2398.79,1122.03l-12.28,95.62,86.61-95.17-74.34-.45ZM2401.71,1114.37h75.69l-14.75-115.22-60.93,115.22ZM2415.34,992.39l-13.52,105.42,56.31-106.55-42.8,1.13ZM2428.97,885.28l-12.73,99.45,44.26-1.13-12.61-98.33h-18.92Z"/>
    <path class="st3" d="M2482.36,1122.48c-1.43.05-2.75-.74-3.38-2.03l-69.6-130.88c-.87-1.88-.19-4.11,1.58-5.18,1.87-1,4.19-.29,5.18,1.58h0s69.6,130.88,69.6,130.88c.93,1.87.24,4.15-1.58,5.18-.55.31-1.17.46-1.8.45Z"/>
    <path class="st3" d="M2496.55,1234.1c-1.1,0-2.16-.44-2.93-1.24l-100.58-110.38c-1.49-1.49-1.49-3.91,0-5.41,1.49-1.49,3.91-1.49,5.41,0l100.58,110.49c1.43,1.56,1.33,3.98-.23,5.41-.71.65-1.63,1.01-2.59,1.01l.34.11Z"/>
    <path class="st3" d="M2509.73,1341.43c-.86.02-1.69-.26-2.37-.79l-128.17-106.43c-1.65-1.34-1.9-3.76-.56-5.41s3.76-1.9,5.41-.56l128.17,106.43c1.49,1.41,1.56,3.76.15,5.25-.05.05-.1.1-.15.15-.61.77-1.5,1.26-2.48,1.35Z"/>
    <path class="st3" d="M2524.37,1455.86c-.82,0-1.62-.27-2.25-.79l-156.44-114.32c-1.67-1.3-2.02-3.68-.79-5.41,1.26-1.66,3.61-2.01,5.29-.79l156.44,114.54c1.69,1.22,2.1,3.58.9,5.29-.77.95-1.93,1.49-3.15,1.46Z"/>
    <path class="st3" d="M2539.8,1577.5c-.71-.01-1.41-.21-2.03-.56l-186.63-121.64c-1.75-1.23-2.2-3.63-1.01-5.41,1.19-1.73,3.55-2.18,5.29-1.01l186.51,121.64c1.77,1.15,2.28,3.52,1.13,5.29-.74,1.07-1.97,1.7-3.27,1.69Z"/>
    <path class="st3" d="M2557.82,1717.28c-.66.2-1.37.2-2.03,0l-220.64-140.34c-1.72-1.19-2.21-3.51-1.13-5.29,1.11-1.8,3.47-2.36,5.27-1.25l.03.02,220.64,139.89c1.77,1.15,2.28,3.52,1.13,5.29-.71,1.1-1.96,1.74-3.27,1.69Z"/>
    <path class="st3" d="M2578.99,1904.02c-.8,0-1.58-.23-2.25-.68l-256.8-186.74c-1.71-1.24-2.09-3.64-.84-5.35,1.24-1.71,3.64-2.09,5.35-.84l257.02,186.74c1.66,1.26,2.01,3.61.79,5.29-.74,1.06-1.98,1.65-3.27,1.58Z"/>
    <path class="st3" d="M2438.88,2389.9c-2.11,0-3.83-1.71-3.83-3.83V863.43c0-2.11,1.71-3.83,3.83-3.83,2.11,0,3.83,1.71,3.83,3.83v1522.64c0,2.11-1.71,3.83-3.83,3.83Z"/>
    <rect class="st3" x="2221.73" y="2116.1" width="156.89" height="533.3"/>
    <rect class="st3" x="2321.63" y="2375.71" width="423.26" height="280.33"/>
    <rect class="st3" x="2097.84" y="2434.73" width="132.79" height="221.32"/>
    <rect class="st3" x="2105.27" y="2740.29" width="679.61" height="99.56"/>
    <rect class="st3" x="2164.29" y="2643.77" width="547.27" height="55.19"/>
    <rect class="st3" x="2193.35" y="2689.49" width="490.16" height="50.8"/>
    <rect class="st3" x="2171.5" y="4137.12" width="540.73" height="30.64"/>
    <rect class="st3" x="2171.5" y="5334.93" width="537.92" height="30.64"/>
    <polygon class="st3" points="746.96 1924.63 742.91 1918.1 2440.35 870.64 2442.04 871.2 5211.82 1809.41 5209.34 1816.73 2441.36 879.09 746.96 1924.63"/>
    <polygon class="st3" points="2245.95 2033.09 2242.12 2033.09 2242.12 1923.28 663.17 1923.28 663.17 2033.09 659.34 2033.09 659.34 1919.33 2245.95 1919.33 2245.95 2033.09"/>
    <rect class="st3" x="743.02" y="1921.36" width="3.83" height="108.91"/>
    <rect class="st3" x="814.43" y="1921.36" width="3.83" height="108.91"/>
    <rect class="st3" x="885.95" y="1921.36" width="3.83" height="108.91"/>
    <rect class="st3" x="957.35" y="1921.36" width="3.83" height="108.91"/>
    <rect class="st3" x="1028.87" y="1921.36" width="3.83" height="108.91"/>
    <rect class="st3" x="1100.28" y="1921.36" width="3.83" height="108.91"/>
    <rect class="st3" x="1171.8" y="1921.36" width="3.83" height="108.91"/>
    <rect class="st3" x="1243.21" y="1921.36" width="3.83" height="108.91"/>
    <rect class="st3" x="1314.73" y="1921.36" width="3.83" height="108.91"/>
    <rect class="st3" x="1386.13" y="1921.36" width="3.83" height="108.91"/>
    <rect class="st3" x="1457.65" y="1921.36" width="3.83" height="108.91"/>
    <rect class="st3" x="1529.06" y="1921.36" width="3.83" height="108.91"/>
    <rect class="st3" x="1600.58" y="1921.36" width="3.83" height="108.91"/>
    <rect class="st3" x="1671.99" y="1921.36" width="3.83" height="108.91"/>
    <rect class="st3" x="1743.51" y="1921.36" width="3.83" height="108.91"/>
    <rect class="st3" x="1814.91" y="1921.36" width="3.83" height="108.91"/>
    <rect class="st3" x="1886.32" y="1921.36" width="3.83" height="108.91"/>
    <rect class="st3" x="1957.84" y="1921.36" width="3.83" height="108.91"/>
    <rect class="st3" x="2029.25" y="1921.36" width="3.83" height="108.91"/>
    <rect class="st3" x="2100.77" y="1921.36" width="3.83" height="108.91"/>
    <rect class="st3" x="2172.18" y="1921.36" width="3.83" height="108.91"/>
    <rect class="st3" x="1717.27" y="2034.22" width="144.62" height="81.88"/>
    <rect class="st3" x="2025.53" y="2034.22" width="144.62" height="81.88"/>
    <rect class="st3" x="2840.52" y="2034.22" width="144.62" height="81.88"/>
    <rect class="st3" x="3255.56" y="2034.22" width="144.73" height="81.88"/>
    <rect class="st3" x="3670.6" y="2034.22" width="144.62" height="81.88"/>
    <rect class="st3" x="4085.75" y="2034.22" width="144.62" height="81.88"/>
    <rect class="st3" x="4500.79" y="2034.22" width="144.62" height="81.88"/>
    <rect class="st3" x="4915.83" y="2034.22" width="144.62" height="81.88"/>
    <rect class="st3" x="5330.98" y="2034.22" width="144.62" height="81.88"/>
    <rect class="st3" x="5746.02" y="2034.22" width="144.62" height="81.88"/>
    <rect class="st3" x="6161.17" y="2034.22" width="144.62" height="81.88"/>
    <rect class="st3" x="1400.55" y="2034.22" width="144.62" height="81.88"/>
    <rect class="st3" x="1083.95" y="2034.22" width="144.62" height="81.88"/>
    <rect class="st3" x="767.24" y="2034.22" width="144.62" height="81.88"/>
    <rect class="st3" x="816.41" y="1396.88" width="1777.63" height="7.66" transform="translate(-497.32 1264.44) rotate(-35.86)"/>
    <rect class="st3" x="6151.15" y="2018" width="341.83" height="109.25"/>
    <path class="st5" d="M6492.87,2127.25c-.17-2.63-.17-5.26,0-7.88,0-5.86,0-12.95-.68-21.74,0-19.6-.79-46.4-1.46-79.63l2.59,2.59c-81.21.9-204.31,1.46-341.72,1.46,1.8-1.8-4.05,3.94,3.94-4.05h0v109.03l-3.83-3.94c97.42,0,182.23,1.01,243.28,1.8l71.86,1.13h19.48c2.36-.22,4.74-.22,7.1,0-2.02.23-4.06.23-6.08,0h-18.7l-70.96,1.01c-60.82.79-146.42,1.58-245.98,1.8h-3.94v-112.85h0c8-8,2.25-2.25,4.05-3.94,137.41,0,260.51,0,341.72,1.35h2.7v2.59c-.56,33.79-1.01,61.16-1.35,81.09,0,8.56,0,15.54-.68,21.17,0,3.05-.46,6.09-1.35,9.01Z"/>
    <rect class="st3" x="2415.45" y="850.48" width="50.8" height="50.8"/>
    <circle class="st5" cx="4655.65" cy="2193.92" r="60.37"/>
    <circle class="st5" cx="4438.17" cy="2193.92" r="60.37"/>
    <circle class="st5" cx="4327" cy="2149.1" r="38.74"/>
    <path class="st5" d="M4462.72,2490.37c-2.25,0-4.05-60.37-4.05-135.16s1.8-135.16,4.05-135.16,3.94,60.37,3.94,135.16-1.8,135.16-3.94,135.16Z"/>
    <path class="st5" d="M4631.1,2490.37c-2.14,0-3.94-60.37-3.94-135.16s1.8-135.16,3.94-135.16,4.05,60.37,4.05,135.16-1.8,135.16-4.05,135.16Z"/>
    <path class="st5" d="M4429.49,2464.57c0,3.83,47.53,218.73,47.53,218.73h127.5l46.85-218.73-110.6-46.18-111.28,46.18Z"/>
    <rect class="st3" x="4346.26" y="2095.15" width="369.76" height="98.89"/>
    <path class="st5" d="M4716.02,2193.92c-.18-2.36-.18-4.73,0-7.1,0-5.18,0-11.26-.56-19.6,0-17.68-.79-42.01-1.35-72.08l2.37,2.37c-84.25,1.01-218.61,1.58-369.76,1.58l4.05-3.94h0v98.66l-3.94-3.94c104.97,0,196.76,1.01,262.88,1.8l77.94,1.13,21.29.56c2.55-.18,5.11-.18,7.66,0-2.22.47-4.49.66-6.76.56h-20.39l-77.04,1.13c-65.89.79-159.03,1.58-265.58,1.8h-3.83v-102.61h0c8-8,2.14-2.25,3.94-4.05,151.15,0,285.52,0,369.76,1.58h2.25v2.48c0,30.75-1.01,55.41-1.35,73.55v19.03c-.14,2.43-.67,4.83-1.58,7.1Z"/>
    <circle class="st5" cx="5678.78" cy="2193.92" r="60.37"/>
    <circle class="st5" cx="5896.27" cy="2193.92" r="60.37"/>
    <circle class="st5" cx="6007.54" cy="2149.1" r="38.74"/>
    <path class="st5" d="M5871.83,2490.37c2.14,0,3.94-60.37,3.94-135.16s-1.8-135.16-3.94-135.16-4.05,60.37-4.05,135.16,1.8,135.16,4.05,135.16Z"/>
    <path class="st5" d="M5703.33,2490.37c2.25,0,4.05-60.37,4.05-135.16s-1.8-135.16-4.05-135.16-3.94,60.37-3.94,135.16,1.8,135.16,3.94,135.16Z"/>
    <path class="st5" d="M5904.94,2464.57c0,3.83-47.53,218.73-47.53,218.73h-127.5l-46.18-218.73,110.6-46.18,110.6,46.18Z"/>
    <rect class="st3" x="5618.41" y="2095.15" width="369.76" height="98.89"/>
    <path class="st5" d="M5618.41,2193.92c.41-2.34.6-4.72.56-7.1v-19.6c0-17.68.79-42.01,1.35-72.08l-2.48,2.37c84.25,1.01,218.61,1.58,369.76,1.58l-3.94-3.94h0v98.66l3.83-3.94c-104.86,0-196.65,1.01-262.76,1.8l-78.05,1.13-21.17.56c-2.59-.17-5.18-.17-7.77,0,2.22.46,4.49.65,6.76.56h20.39l77.15,1.13c65.89.79,158.92,1.58,265.47,1.8h4.17v-102.61h0l-4.05-4.05c-151.15,0-285.52,0-369.76,1.58h-2.48v2.48c.56,30.75,1.01,55.41,1.35,73.55,0,7.66,0,13.97.68,19.03.03,2.4.37,4.78,1.01,7.1Z"/>
    <path class="st4" d="M2661.78,2114.63c39.42,7.02,67.33,42.48,64.87,82.44v178.63h-352.53l4.39-259.05,283.26-2.03Z"/>
    <path class="st5" d="M2661.78,2114.63c-1.72.23-3.46.23-5.18,0h-15.09l-57.44,1.35-205.44,2.48,3.38-3.27c-1.13,75.8-2.48,164.44-3.94,259.05l-3.94-4.05h51.47l301.06.56-3.49,3.38c0-43.93,0-84.13.68-120.06v-50.01c.97-13.93-.71-27.92-4.96-41.22-6.63-18.53-20.26-33.73-37.96-42.35-6.33-2.89-12.84-5.37-19.48-7.43,1.83-.08,3.65.15,5.41.68,25.48,5.43,46.47,23.41,55.75,47.75,4.78,13.66,6.85,28.12,6.08,42.57v50.01c0,35.93,0,76.14.68,120.06v3.49h-359.96v-4.05c1.8-95.06,3.49-183.81,4.96-259.05v-3.38h209.04l57.33.56h14.98c2.16.67,4.21,1.65,6.08,2.93Z"/>
    <path class="st5" d="M2611.66,2184.8c1.35,1.69-28.61,28.72-67.58,60.48-38.97,31.76-70.73,56.31-72.2,54.29-1.46-2.03,28.61-28.72,67.58-60.48,38.97-31.76,70.73-55.98,72.2-54.29Z"/>
    <path class="st5" d="M2621.9,2237.51c1.35,1.69-19.82,22.53-47.53,45.61-27.71,23.09-51.13,41.11-52.6,39.42s19.82-22.53,47.53-45.05c27.71-22.53,51.13-42.01,52.6-39.98Z"/>
    <path class="st5" d="M2226.24,2656.16c-2.25,0-4.05-119.39-4.05-266.48s1.8-266.59,4.05-266.59,3.94,119.27,3.94,266.59-1.8,266.48-3.94,266.48Z"/>
    <path class="st5" d="M2715.16,2656.16c0,2.14-125.47,3.94-280.22,3.94s-280.22-1.8-280.22-3.94,125.47-4.05,280.22-4.05,280.22,2.14,280.22,4.05Z"/>
    <path class="st5" d="M2715.16,2699.29c0,2.14-123.89,3.94-275.38,3.94s-275.49-1.8-275.49-3.94,123.33-4.05,275.49-4.05,275.38,1.58,275.38,4.05Z"/>
    <path class="st5" d="M2715.16,2740.29c0,2.14-123.89,3.94-275.38,3.94s-275.49-1.8-275.49-3.94,123.33-4.05,275.49-4.05,275.38,1.8,275.38,4.05Z"/>
    <rect class="st3" x="5069.23" y="1776.86" width="195.41" height="37.28"/>
    <path class="st0" d="M2576.4,4975.87l-142.14,194.96,144.73,195.07,120.85-166.24c1.52-2.08,4.25-2.87,6.65-1.91v-46.4c-.72-.32-1.34-.83-1.8-1.46l-128.28-174.01Z"/>
    <polygon class="st0" points="2177.58 4436.83 2177.58 4678.64 2266.33 4556.89 2177.58 4436.83"/>
    <path class="st0" d="M2181.41,4422.52l92.02,123.89,142.03-194.96-144.28-194.96-93.6,128.4v135.16c1.56.26,2.95,1.16,3.83,2.48Z"/>
    <polygon class="st0" points="2177.58 4030.57 2177.58 4266.08 2263.97 4147.48 2177.58 4030.57"/>
    <path class="st0" d="M2181.41,4016.38l90.1,121.3,142.14-194.96-143.04-193.27-92.58,123.89v141.01c1.32.29,2.5,1,3.38,2.03Z"/>
    <path class="st0" d="M2181.41,5235.37l96.52,130.54,142.14-194.96-144.28-195.07-98.21,135.16v122.43c1.48.12,2.85.81,3.83,1.91Z"/>
    <polygon class="st0" points="2177.58 4843.19 2177.58 5091.2 2268.59 4966.19 2177.58 4843.19"/>
    <path class="st0" d="M2705.93,5537.55v-328.09l-120.18,166.13,120.18,161.96Z"/>
    <path class="st0" d="M2181.41,4829l94.27,127.5,142.03-194.96-144.28-195.07-95.85,131.66v128.62c1.51.25,2.88,1.05,3.83,2.25Z"/>
    <polygon class="st0" points="2285.14 5375.59 2429.42 5570.55 2571.45 5375.59 2427.17 5180.63 2285.14 5375.59"/>
    <polygon class="st0" points="2280.52 4556.78 2424.8 4751.85 2566.94 4556.89 2422.66 4361.82 2280.52 4556.78"/>
    <path class="st0" d="M2574.04,4566.58l-141.46,194.96,144.28,194.96,123.89-169.62c1.69-2.31,4.83-2.99,7.32-1.58v-40.21c-.95-.4-1.8-1.02-2.48-1.8l-131.55-176.72Z"/>
    <polygon class="st0" points="2278.27 4147.37 2422.55 4342.44 2564.58 4147.48 2420.3 3952.41 2278.27 4147.37"/>
    <path class="st0" d="M2707.95,4321.83v-352.19l-128.96,177.73,128.96,174.46Z"/>
    <path class="st0" d="M2707.28,4727.3c0-114.99,0-229.99.56-344.31l-126.71,173.79,126.14,170.52Z"/>
    <path class="st0" d="M2571.78,4157.17l-142.03,194.96,144.28,194.96,125.81-172.66c1.84-2.58,5.41-3.18,8-1.35v-33.79c-1.2-.35-2.26-1.06-3.04-2.03l-133.02-180.09Z"/>
    <path class="st0" d="M2708.52,3916.25v-360.41l-132.23,181.56,132.23,178.86Z"/>
    <path class="st0" d="M2699.84,3549.31c1.11-1.48,2.88-2.33,4.73-2.25l-140.56-190.12-135.16,180.88,140.9,190.46,130.09-178.97Z"/>
    <polygon class="st0" points="2282.89 4966.19 2427.06 5161.15 2569.19 4966.19 2424.92 4771.22 2282.89 4966.19"/>
    <polygon class="st0" points="2562.32 3738.07 2421.31 3547.51 2277.37 3739.76 2420.3 3933.04 2562.32 3738.07"/>
    <path class="st0" d="M2569.53,3747.76l-142.14,194.96,144.28,194.96,135.94-186.51s.56,0,.79-.79v-17.68c-1.41-.22-2.69-.94-3.6-2.03l-135.27-182.91Z"/>
    <path class="st0" d="M2706.6,5132.65v-336.2l-123.89,169.73,123.89,166.47Z"/>
    <polygon class="st0" points="2177.58 3624.32 2177.58 3853.97 2263.07 3739.76 2177.58 3624.32"/>
    <polygon class="st0" points="2323.77 6147.67 2541.37 6147.67 2431.79 5999.45 2323.77 6147.67"/>
    <path class="st0" d="M2709.19,3162.88l-138.08,184.49,137.86,186.18c.11-126.14.23-249.92.23-370.66Z"/>
    <path class="st0" d="M2705.14,6021.86v-59.81h0l-123.89-167.48-142.03,194.96,116.8,157.68h54.4l90.1-123.1c1.07-1.47,2.8-2.31,4.62-2.25Z"/>
    <path class="st0" d="M2181.41,3610.13l88.75,120.06,144.05-192.37-139.32-187.87-97.65,133.92v123.89c1.67.14,3.19,1.01,4.17,2.37Z"/>
    <path class="st0" d="M2624.04,6147.67h80.53v-110.83l-80.53,110.83Z"/>
    <polygon class="st0" points="2556.8 3347.25 2415.91 3156.79 2282.33 3340.15 2421.42 3528.25 2556.8 3347.25"/>
    <polygon class="st0" points="2177.58 3217.95 2177.58 3464.38 2268.02 3340.27 2177.58 3217.95"/>
    <path class="st0" d="M2181.41,3203.76l93.48,126.26,133.58-183.36-230.89-312.21v366.83c1.55.31,2.91,1.19,3.83,2.48Z"/>
    <path class="st0" d="M2578.99,5385.28l-142.03,194.96,144.17,195.07,119.05-163.31c1.37-1.86,3.71-2.75,5.97-2.25v-52.94l-1.13-.9-126.03-170.63Z"/>
    <polygon class="st0" points="2177.58 5249.56 2177.58 5503.65 2270.84 5375.59 2177.58 5249.56"/>
    <polygon class="st0" points="2177.58 5655.82 2177.58 5916.21 2273.2 5785 2177.58 5655.82"/>
    <polygon class="st0" points="2287.4 5785 2431.67 5979.96 2573.7 5785 2429.42 5590.04 2287.4 5785"/>
    <path class="st0" d="M2181.41,5641.62l98.89,133.69,142.03-194.96-144.28-195.07-100.47,137.97v115.67c1.58.36,2.96,1.34,3.83,2.7Z"/>
    <path class="st0" d="M2705.25,5943.02v-320.09l-117.25,162.41,117.25,157.68Z"/>
    <polygon class="st0" points="2280.3 5794.69 2177.58 5935.7 2177.58 6147.67 2309.47 6147.67 2424.58 5989.76 2280.3 5794.69"/>
    <path class="st3" d="M2715.72,3144.63c2.51,1.84,3.06,5.36,1.22,7.87-.03.04-.06.09-.1.13l-7.66,10.25v370.66l5.07,6.98c1.88,2.48,1.39,6.01-1.09,7.89-.05.04-.1.07-.15.11-.96.75-2.16,1.15-3.38,1.13h0c1.34,1.93,1.34,4.49,0,6.42h0c0,118.11,0,238.25,0,360.41l5.52,7.55c1.88,2.48,1.39,6.01-1.09,7.89-.05.04-.1.07-.15.11-.96.75-2.16,1.15-3.38,1.13h-1.01v17.68c2.09-1.74,5.12-1.74,7.21,0,2.58,1.84,3.18,5.41,1.35,8l-8.56,11.26v352.19l6.08,8.22c1.9,2.54,1.39,6.14-1.15,8.04-.03.02-.06.05-.09.07-.96.75-2.16,1.15-3.38,1.13-.52.05-1.05.05-1.58,0v33.79h0c2.57,1.85,3.16,5.44,1.31,8.02-.02.03-.04.06-.07.09l-1.24,1.8c0,114.32,0,229.31-.56,344.31l6.76,9.12c1.88,2.48,1.39,6.01-1.09,7.89-.05.04-.1.07-.15.11-.96.75-2.16,1.15-3.38,1.13-.71.12-1.43.12-2.14,0v40.21h.68c2.54,1.8,3.14,5.31,1.35,7.85-.04.05-.07.1-.11.15l-1.91,2.82c0,112.18,0,224.25,0,336.2l7.43,10.02c1.9,2.54,1.39,6.14-1.15,8.04-.03.02-.06.05-.09.07-.96.75-2.16,1.15-3.38,1.13-1.01,0-1.99-.32-2.82-.9v46.4c.47.18.92.41,1.35.68,2.54,1.8,3.14,5.31,1.35,7.85-.04.05-.07.1-.11.15l-2.59,3.72v328.09l8.11,11.26c1.88,2.48,1.39,6.01-1.09,7.89-.05.04-.1.07-.15.11-.96.75-2.16,1.15-3.38,1.13-1.28-.06-2.51-.53-3.49-1.35v52.94c.73.22,1.41.57,2.03,1.01,2.54,1.8,3.14,5.31,1.35,7.85-.04.05-.07.1-.11.15l-3.27,4.62v320.09l8.79,11.26c1.9,2.54,1.39,6.14-1.15,8.04-.03.02-.06.05-.09.07-.96.75-2.16,1.15-3.38,1.13-1.61-.06-3.12-.8-4.17-2.03v59.24c.98.05,1.93.4,2.7,1.01,2.54,1.8,3.14,5.31,1.35,7.85-.04.05-.07.1-.11.15l-3.94,5.52v110.83h11.26c0-321.78,1.01-649.98,1.46-974.02,1.46-836.72,2.93-1701.94,2.93-2410.27,0-3.17-2.57-5.74-5.74-5.74s-5.74,2.57-5.74,5.74v380.91c.95.04,1.88.31,2.7.79Z"/>
    <path class="st3" d="M2274.89,3330.02l-93.71-126.71c-.95-1.2-2.32-2-3.83-2.25v16.44l90.1,122.32,7.43-9.8Z"/>
    <polygon class="st3" points="2569.42 3728.28 2428.52 3537.82 2421.31 3547.51 2562.32 3738.07 2569.42 3728.28"/>
    <polygon class="st3" points="2421.42 3528.25 2282.33 3340.15 2275.23 3349.95 2414.22 3537.82 2421.42 3528.25"/>
    <path class="st3" d="M2569.53,3747.76l135.16,182.91c.91,1.09,2.2,1.81,3.6,2.03h1.01c1.22.03,2.42-.37,3.38-1.13,2.54-1.8,3.14-5.31,1.35-7.85-.04-.05-.07-.1-.11-.15l-5.52-7.55-131.89-178.29-6.98,10.02Z"/>
    <path class="st3" d="M2408.7,3147.11l7.1-9.69-234.38-316.94c-.95-1.2-2.32-2-3.83-2.25v16.22l231.12,312.66Z"/>
    <polygon class="st3" points="2556.8 3347.25 2564.01 3337.68 2423 3147.11 2415.91 3156.79 2556.8 3347.25"/>
    <path class="st3" d="M2707.84,3548.07c.57.44,1.07.97,1.46,1.58h0c1.22.03,2.42-.37,3.38-1.13,2.54-1.8,3.14-5.31,1.35-7.85-.04-.05-.07-.1-.11-.15l-5.07-6.98-137.75-186.18-7.1,9.57,140.56,190.12c1.17,0,2.3.36,3.27,1.01Z"/>
    <polygon class="st3" points="2420.3 3952.41 2564.58 4147.48 2571.67 4137.68 2427.39 3942.72 2420.3 3952.41"/>
    <polygon class="st3" points="2420.3 3933.04 2277.37 3739.76 2270.16 3749.45 2413.2 3942.72 2420.3 3933.04"/>
    <path class="st3" d="M2571.78,4157.17l133.02,180.21c.78.97,1.84,1.68,3.04,2.03.52.05,1.05.05,1.58,0,1.22.03,2.42-.37,3.38-1.13,2.57-1.85,3.16-5.44,1.31-8.02-.02-.03-.04-.06-.07-.09l-6.08-8.22-128.96-174.58-7.21,9.8Z"/>
    <path class="st3" d="M2270.16,3730.19l-88.75-120.06c-.92-1.23-2.3-2.05-3.83-2.25v16.44l86.05,115.45,6.53-9.57Z"/>
    <polygon class="st3" points="2422.66 4361.82 2566.94 4556.89 2574.04 4547.09 2429.76 4352.13 2422.66 4361.82"/>
    <polygon class="st3" points="2271.18 4157.17 2415.45 4352.13 2422.55 4342.44 2278.27 4147.37 2271.18 4157.17"/>
    <path class="st3" d="M2574.04,4566.58l130.76,176.72c.68.78,1.52,1.4,2.48,1.8.71.12,1.43.12,2.14,0,1.22.03,2.42-.37,3.38-1.13,2.54-1.8,3.14-5.31,1.35-7.85-.04-.05-.07-.1-.11-.15l-6.76-9.12-126.14-170.52-7.1,10.25Z"/>
    <path class="st3" d="M2271.06,4137.68l-90.1-121.3c-.95-1.2-2.32-2-3.83-2.25v16.44l86.5,116.91,7.43-9.8Z"/>
    <polygon class="st3" points="2273.43 4566.58 2417.71 4761.54 2424.8 4751.85 2280.52 4556.78 2273.43 4566.58"/>
    <polygon class="st3" points="2424.92 4771.22 2569.19 4966.19 2576.29 4956.5 2432.01 4761.54 2424.92 4771.22"/>
    <path class="st3" d="M2273.43,4547.09l-92.02-123.89c-.92-1.23-2.3-2.05-3.83-2.25v16.44l88.75,119.84,7.1-10.14Z"/>
    <path class="st3" d="M2576.4,4975.87l128.4,173.67c.46.64,1.08,1.14,1.8,1.46.83.58,1.81.89,2.82.9,1.22.03,2.42-.37,3.38-1.13,2.57-1.85,3.16-5.44,1.31-8.02-.02-.03-.04-.06-.07-.09l-7.43-10.02-123.22-166.47-6.98,9.69Z"/>
    <path class="st3" d="M2275.68,4956.5l-94.27-127.5c-.95-1.2-2.32-2-3.83-2.25v16.44l91,122.99,7.1-9.69Z"/>
    <polygon class="st3" points="2427.17 5180.63 2571.45 5375.59 2578.54 5365.91 2434.26 5170.83 2427.17 5180.63"/>
    <path class="st3" d="M2578.99,5385.28l126.14,170.63,1.13.9c.98.82,2.21,1.3,3.49,1.35,1.22.03,2.42-.37,3.38-1.13,2.53-1.81,3.11-5.33,1.3-7.86-.09-.13-.18-.25-.28-.36l-8.11-11.26-120.29-161.96-6.76,9.69Z"/>
    <polygon class="st3" points="2275.79 4975.87 2420.07 5170.95 2427.06 5161.15 2282.89 4966.19 2275.79 4975.87"/>
    <path class="st3" d="M2580.91,5794.69l123.89,167.48h0c1.04,1.23,2.56,1.97,4.17,2.03,1.22.03,2.42-.37,3.38-1.13,2.57-1.85,3.16-5.44,1.31-8.02-.02-.03-.04-.06-.07-.09l-8.79-11.26-116.8-158.36-7.1,9.35Z"/>
    <polygon class="st3" points="2278.05 5385.28 2422.33 5580.35 2429.42 5570.55 2285.14 5375.59 2278.05 5385.28"/>
    <polygon class="st3" points="2429.42 5590.04 2573.7 5785 2580.79 5775.31 2436.52 5580.24 2429.42 5590.04"/>
    <path class="st3" d="M2277.93,5365.91l-96.52-130.54c-.92-1.23-2.3-2.05-3.83-2.25v16.44l93.26,126.03,7.1-9.69Z"/>
    <polygon class="st3" points="2431.79 5999.45 2541.37 6147.67 2555.68 6147.67 2438.88 5989.65 2431.79 5999.45"/>
    <path class="st3" d="M2280.3,5775.31l-98.89-133.69c-.95-1.2-2.32-2-3.83-2.25v16.44l95.62,129.52,7.1-10.02Z"/>
    <polygon class="st3" points="2280.3 5794.69 2424.58 5989.76 2431.67 5979.96 2287.4 5785 2280.3 5794.69"/>
    <path class="st3" d="M2177.58,5935.7l-1.13,1.58c-1.05,1.51-2.78,2.39-4.62,2.37-1.22.03-2.42-.37-3.38-1.13-2.54-1.8-3.14-5.31-1.35-7.85.04-.05.07-.1.11-.15l10.36-14.3v-392.96l-1.13,1.46c-1.05,1.51-2.78,2.39-4.62,2.37-1.22.03-2.42-.37-3.38-1.13-2.54-1.8-3.14-5.31-1.35-7.85.04-.05.07-.1.11-.15l10.36-14.3v-392.96l-1.13,1.46c-1.05,1.51-2.78,2.39-4.62,2.37-1.22.03-2.42-.37-3.38-1.13-2.54-1.8-3.14-5.31-1.35-7.85.04-.05.07-.1.11-.15l10.36-14.3v-392.96l-1.13,1.46c-1.05,1.51-2.78,2.39-4.62,2.37-1.2.01-2.38-.34-3.38-1.01-2.57-1.85-3.16-5.44-1.31-8.02.02-.03.04-.06.07-.09l10.36-14.19v-393.08l-1.13,1.58c-1.09,1.46-2.79,2.34-4.62,2.37-1.22.03-2.42-.37-3.38-1.13-2.54-1.8-3.14-5.31-1.35-7.85.04-.05.07-.1.11-.15l10.36-14.3v-392.96l-1.13,1.58c-1.12,1.41-2.82,2.24-4.62,2.25-1.26.02-2.49-.37-3.49-1.13-2.52-1.95-3.02-5.55-1.13-8.11l10.36-13.74v-370.1l-1.13,1.58c-1.09,1.46-2.79,2.34-4.62,2.37-1.21-.03-2.39-.42-3.38-1.13-2.57-1.85-3.16-5.44-1.31-8.02.02-.03.04-.06.07-.09l10.36-14.19v-684.45c.63-3.11-1.39-6.14-4.5-6.76-3.11-.63-6.14,1.39-6.76,4.5-.15.75-.15,1.52,0,2.26v3367.62h11.26v-211.86Z"/>
    <path class="st3" d="M2421.31,3528.25l-7.21,9.57-144.05,192.37-7.1,9.57-85.49,114.21-10.36,13.74c-1.89,2.56-1.39,6.16,1.13,8.11,1.01.75,2.23,1.15,3.49,1.13,1.8-.02,3.5-.84,4.62-2.25l1.13-1.58,92.58-123.89,7.21-9.69,144.05-192.03,7.21-9.69,135.16-180.88,7.1-9.57,138.08-184.49,7.66-10.25c1.91-2.46,1.46-6-1-7.9-.04-.03-.08-.06-.13-.1-1.98-1.3-4.55-1.3-6.53,0-.58.43-1.11.92-1.58,1.46l-143.6,191.47-7.21,9.57-135.16,181.11Z"/>
    <path class="st3" d="M2274.89,3330.02l-7.1,9.8-90.1,123.89-10.36,14.19c-1.9,2.54-1.39,6.14,1.15,8.04.03.02.06.05.09.07.99.7,2.17,1.1,3.38,1.13,1.82-.03,3.53-.9,4.62-2.37l1.13-1.58,97.2-133.24,7.1-9.8,133.58-183.36,7.1-9.69,286.08-392.74c1.64-2.71.77-6.25-1.94-7.89-2.38-1.44-5.46-.97-7.29,1.13l-283.71,389.81-7.1,9.69-133.8,182.91Z"/>
    <path class="st3" d="M2278.27,4147.37l142.03-194.96,7.1-9.69,142.14-194.96,7.1-9.8,132.23-181.56h0c1.34-1.93,1.34-4.49,0-6.42-.4-.6-.89-1.14-1.46-1.58-.96-.66-2.1-1.01-3.27-1.01-1.85-.07-3.62.77-4.73,2.25l-130.42,178.97-7.1,9.8-142.03,194.96-7.1,9.69-142.14,194.96-7.1,9.8-86.39,118.6-10.36,14.3c-1.88,2.48-1.39,6.01,1.09,7.89.05.04.1.07.15.11.96.75,2.16,1.15,3.38,1.13,1.82-.03,3.53-.9,4.62-2.37l1.13-1.58,93.6-128.4,7.55-10.14Z"/>
    <path class="st3" d="M2280.52,4556.78l142.14-194.96,7.1-9.69,142.03-194.96,7.1-9.8,129.52-177.73,8.56-11.26c1.83-2.58,1.23-6.16-1.35-8-2.09-1.74-5.12-1.74-7.21,0,0,0-.56,0-.79.79l-135.94,186.51-7.1,9.8-142.03,194.96-7.1,9.69-142.03,194.96-7.1,9.69-88.75,121.87-10.36,14.19c-1.9,2.54-1.39,6.14,1.15,8.04.03.02.06.05.09.07,1,.67,2.18,1.02,3.38,1.01,1.84.03,3.57-.86,4.62-2.37l1.13-1.46,95.85-131.66,7.1-9.69Z"/>
    <path class="st3" d="M2282.89,4966.19l142.03-194.51,7.1-9.69,142.03-194.96,7.1-9.8,126.71-173.79,1.24-1.8c1.9-2.54,1.39-6.14-1.15-8.04-.03-.02-.06-.05-.09-.07h0c-2.58-1.83-6.16-1.23-8,1.35l-125.81,172.66-7.1,9.69-142.14,195.07-7.1,9.69-142.03,194.96-7.1,9.69-91,124.91-10.36,14.3c-1.88,2.48-1.39,6.01,1.09,7.89.05.04.1.07.15.11.96.75,2.16,1.15,3.38,1.13,1.84.03,3.57-.86,4.62-2.37l1.13-1.46,98.21-135.16,7.1-9.8Z"/>
    <path class="st3" d="M2285.14,5375.59l142.03-194.96,7.1-9.8,142.14-194.96,6.98-9.69,123.89-169.73,1.91-2.82c1.88-2.48,1.39-6.01-1.09-7.89-.05-.04-.1-.07-.15-.11h-.68c-2.49-1.41-5.63-.73-7.32,1.58l-123.89,169.62-7.1,9.69-142.03,194.96-7.1,9.8-142.14,194.96-7.1,9.69-93.03,127.83-10.36,14.3c-1.88,2.48-1.39,6.01,1.09,7.89.05.04.1.07.15.11.96.75,2.16,1.15,3.38,1.13,1.84.03,3.57-.86,4.62-2.37l1.13-1.46,100.47-137.97,7.1-9.8Z"/>
    <path class="st3" d="M2287.4,5785.34l142.14-194.96,7.1-9.8,142.36-195.3,7.1-9.69,120.74-165.68,2.59-3.72c1.88-2.48,1.39-6.01-1.09-7.89-.05-.04-.1-.07-.15-.11-.43-.27-.88-.5-1.35-.68-2.39-.96-5.13-.17-6.65,1.91l-121.19,166.47-7.1,9.69-142.03,194.96-7.1,9.8-142.03,194.96-7.1,9.69-95.62,131.21-10.36,14.3c-1.88,2.48-1.39,6.01,1.09,7.89.05.04.1.07.15.11.96.75,2.16,1.15,3.38,1.13,1.84.03,3.57-.86,4.62-2.37l1.13-1.58,102.72-141.01,6.65-9.35Z"/>
    <path class="st3" d="M2438.88,5989.65l142.03-194.96,7.1-9.69,117.81-161.62,3.27-4.62c1.88-2.48,1.39-6.01-1.09-7.89-.05-.04-.1-.07-.15-.11-.61-.45-1.3-.79-2.03-1.01-2.26-.49-4.6.39-5.97,2.25l-119.05,163.31-7.1,9.69-142.03,194.96-7.1,9.8-114.99,157.68h14.19l108.01-148.11,7.1-9.69Z"/>
    <path class="st3" d="M2709.08,6031.32c1.88-2.48,1.39-6.01-1.09-7.89-.05-.04-.1-.07-.15-.11-.77-.61-1.72-.97-2.7-1.01-2.05-.3-4.09.57-5.29,2.25l-90.1,123.1h14.3l80.76-110.83,4.28-5.52Z"/>
    <path class="st5" d="M4520.16,2636.45c1.58,0,2.93,260.17,2.93,581.17s-1.35,581.17-2.93,581.17-2.93-260.17-2.93-581.17,1.24-581.17,2.93-581.17Z"/>
    <path class="st5" d="M5812.7,2644.44c1.69,0,2.93,260.17,2.93,581.17s-1.24,581.17-2.93,581.17-2.93-260.17-2.93-581.17,1.69-581.17,2.93-581.17Z"/>
    <rect class="st7" x="4488.06" y="3780.87" width="1357.75" height="270.54"/>
    <path class="st5" d="M4488.06,3840.23c0-1.58,305.9-2.93,683.1-2.93s683.1,1.35,683.1,2.93-305.79,2.93-683.1,2.93-683.1-1.35-683.1-2.93Z"/>
    <path class="st5" d="M4488.06,3992.17c0-1.69,305.9-2.93,683.1-2.93s683.1,1.24,683.1,2.93-305.79,2.93-683.1,2.93-683.1-1.35-683.1-2.93Z"/>
    <path class="st5" d="M5141.65,3993.18c-2.9-25.68-3.88-51.55-2.93-77.38-.95-25.83.03-51.69,2.93-77.38,2.96,25.68,3.94,51.55,2.93,77.38,1.02,25.83.04,51.7-2.93,77.38Z"/>
    <rect class="st6" x="4477.59" y="3547.39" width="85.04" height="179.76"/>
    <polygon class="st3" points="4477.59 3692.68 4562.62 3667.68 4562.62 3620.04 4477.59 3647.86 4477.59 3692.68"/>
    <polygon class="st3" points="4477.59 3727.15 4562.62 3727.15 4562.62 3694.26 4477.59 3716 4477.59 3727.15"/>
    <polygon class="st3" points="4477.59 3620.04 4562.62 3595.15 4562.62 3547.39 4477.59 3575.21 4477.59 3620.04"/>
    <path class="st5" d="M4562.62,3727.15c-.49-4.64-.71-9.3-.68-13.97,0-9.69,0-22.53-.79-37.51,0-31.99-1.13-76.48-1.24-128.28l2.7,2.82h-85.04l2.93-2.93h0v98.21c0,30.18,0,57.67-.56,81.32l-2.14-2.14,61.61,1.13,17.12.56c2.1-.18,4.21-.18,6.31,0-1.83.23-3.69.23-5.52,0l-16.67.56-62.85,1.13h-2.14v-2.14c0-23.65,0-51.13-.56-81.32v-98.21h0l2.93-2.93h87.85v2.7c0,52.94-.79,98.33-1.35,130.09,0,15.09-.56,27.48-.79,36.94,0,4.68-.38,9.35-1.13,13.97Z"/>
    <rect class="st6" x="5770.01" y="3536.35" width="85.04" height="179.76"/>
    <polygon class="st3" points="5770.01 3681.65 5855.04 3656.64 5855.04 3609 5770.01 3636.82 5770.01 3681.65"/>
    <polygon class="st3" points="5770.01 3716.11 5855.04 3716.11 5855.04 3683.11 5770.01 3704.96 5770.01 3716.11"/>
    <polygon class="st3" points="5770.01 3609 5855.04 3584 5855.04 3536.35 5770.01 3564.17 5770.01 3609"/>
    <path class="st5" d="M5855.04,3716.11c-.49-4.64-.71-9.3-.68-13.97,0-9.69,0-22.53-.79-37.62,0-31.87-1.13-76.36-1.35-128.17l2.82,2.82h-85.04l2.93-2.93h0v179.42l-2.14-2.14,61.5,1.13,17.23.56c2.1-.24,4.21-.24,6.31,0-1.84.14-3.68.14-5.52,0l-16.67.56-62.85,1.13h-2.14v-181.56h0c1.24-1.35-2.93,2.93,2.93-2.93h87.85v2.82c0,52.94-.79,98.33-1.35,130.09,0,15.09,0,27.48-.79,36.94-.38,4.67-1.13,9.3-2.25,13.85Z"/>
    <rect class="st5" x="4477.59" y="3741.79" width="85.04" height="39.08"/>
    <rect class="st5" x="5753.57" y="3741.79" width="85.04" height="39.08"/>
  </g>
  <g id="freepik--Beams--inject-39">
    <path class="st5" d="M3892.59,5047.84v-49.22c0-32.78,0-81.21-.56-143.94v-1.13h1.13l2392.47-1.8h3.04v199.02h-2.93l-1699.92-1.24-508.86-.9h-184.6,186.06l508.75-.9,1697.78-1.24-2.93,2.93v-194.74l2.93,2.93h0l-2392.47-1.91,1.01-1.01c0,62.51,0,110.71-.56,143.26v37.17c-.23,8.33-.34,12.73-.34,12.73Z"/>
    <path class="st5" d="M6285.18,5047.84l-3.6-3.15-10.25-9.46-39.76-37.28-150.47-142.14h2.37c-48.32,54.85-106.66,120.96-172.44,195.75l-1.46,1.69-1.69-1.69c-54.62-54.51-114.66-115.11-180.21-178.52l-12.61-11.26-3.27-2.82-1.58-1.24c.26-.07.53-.07.79,0-2.16,1.61-4.23,3.34-6.19,5.18-8.56,7.88-16.89,16.11-25.34,24.33l-51.02,50.91-105.42,107.34-2.03,2.03-1.91-2.03-178.74-188.43h4.05l-187.98,191.47-2.14,2.14-2.03-2.14c-26.47-26.36-54.74-54.74-83.23-83.23l-108.12-108.01h4.28l-175.48,191.47-1.91,2.14-2.14-2.03-194.4-191.47h3.83l-194.62,194.4-1.8,1.69-1.69-1.69-191.47-194.85h2.93l-188.54,192.82-1.24,1.24-1.01-1.46-93.26-143.83-23.99-37.39c-5.41-8.33-7.88-12.73-7.88-12.73,0,0,2.93,4.05,8.56,12.39l24.55,36.83,95.06,142.25h-2.25l187.75-193.61,1.46-1.58,1.46,1.58,191.47,194.17h-3.49l194.29-194.62,1.91-1.91,1.91,1.91,194.62,191.47h-4.17l175.36-191.47,2.03-2.25,2.14,2.14,108.01,108.01,83.35,83.35h-4.17l188.09-191.47,2.14-2.14,2.03,2.14,178.52,188.65h-4.51l105.65-107.22,51.13-50.91c8.56-8.33,16.89-16.44,25.57-24.44,2.27-2.11,4.68-4.07,7.21-5.86,1.33-1.01,3.17-1.01,4.51,0l1.8,1.46,3.38,2.93,12.73,11.26c65.89,63.75,125.69,123.89,180.21,179.19h-3.04l173.22-195.07,1.01-1.24,1.24,1.13,149.46,144.28,39.19,37.96,10.02,9.8,3.27,3.15Z"/>
    <path class="st5" d="M3409.97,5031.74v-50.23c0-32.78,0-80.87-.68-143.04l1.13,1.24-2189.52,1.69h0l2.93-2.93v193.27l-2.93-2.93,1554.29,1.24,465.38.79h170.18-169.17l-464.71.9-1556.2,1.24h-2.93v-197.44h3.04l2189.52,1.8h1.24v1.13c0,62.51-.56,110.83-.68,143.72v37.06c0,8.45-.9,12.5-.9,12.5Z"/>
    <path class="st5" d="M3409.97,4838.46c-.57,1.16-1.21,2.29-1.91,3.38l-6.08,9.69-24.22,37.73-92.81,143.26-1.13,1.58-1.24-1.35-188.54-192.71h3.04l-191.47,194.74-1.8,1.8-1.8-1.8-194.62-194.29h3.83l-194.4,191.47-2.14,2.14-2.03-2.25-175.36-191.47h5.18l-3.6,3.49-187.87,187.98-2.03,2.03-2.14-2.03-187.98-191.47h3.94l-178.74,188.43-1.8,1.91-1.91-1.91-112.63-114.54c-18.02-18.13-35.7-35.82-53.05-52.71l-13.07-12.5-6.53-5.97c-.95-.69-1.85-1.44-2.7-2.25.9,0,0,.68-1.69,1.58-8.79,7.66-17.23,15.77-25.45,23.65-65.89,63.86-122.99,121.19-170.86,168.94l-1.24,1.13-1.01-1.24-117.47-138.65-30.64-36.6-7.77-9.35c-1.8-2.14-2.59-3.27-2.59-3.27l2.93,2.93,8,9.24,31.31,35.93,118.6,137.75h-2.37c47.64-48.09,104.41-105.53,170.18-169.73,8.33-7.88,16.56-16.11,25.57-23.88l1.91-1.58s2.25-1.91,3.72-.9c.94.44,1.81,1.01,2.59,1.69l1.8,1.46c2.37,1.91,4.51,3.94,6.76,6.08l13.07,12.39c17.57,17.01,35.25,34.58,53.27,52.71l112.63,114.32h-3.72l178.52-188.65,1.91-2.14,2.03,2.03,188.2,191.47h-4.05l187.64-187.87,3.6-3.49,2.14-2.14,2.03,2.25c60.14,65.55,119.05,129.75,175.36,191.47h-4.17l194.62-191.47,1.91-1.91,1.91,1.91,194.06,193.83h-3.49c69.6-70.62,134.14-136.17,191.47-194.29l1.46-1.58,1.58,1.58,188.09,194.29h-2.37l94.05-142.36c11.26-16.33,19.15-28.72,24.89-37.28,2.7-4.17,4.84-7.32,6.42-9.57l2.25-3.04Z"/>
    <path class="st5" d="M4347.27,4239.5h-43.59l-123.89.68,1.24-1.24c0,315.36.9,1046.1,1.69,1896.9h0l-2.93-2.93h167.48l-2.93,2.93c.56-531.27,1.01-1005.1,1.24-1346.26,0-170.63.68-308.15.9-403.1v-147.66,146.19c0,94.83,0,232.02.79,402.43,0,341.72.79,816.34,1.24,1348.4v2.93h-171.42v-2.93h0c.79-850.8,1.58-1581.43,1.8-1896.9v-1.13h1.13l124.57.68h32.1l10.59,1.01Z"/>
    <path class="st5" d="M4180.02,4239.5l2.93,1.69,8.45,5.29,32.78,20.95,123.89,80.3,1.58,1.01-1.35,1.35-166.92,163.43v-3.04l168.94,165.45,1.8,1.8-1.8,1.8-168.27,168.94v-3.83c53.31,54.06,108.57,110.19,165.79,168.38l2.14,2.14-2.25,2.03-165.68,151.94v-4.28l3.04,3.04,162.64,162.75,2.03,2.03-2.03,2.03-165.79,162.86v-3.94c57.22,54.17,111.73,105.98,163.2,154.87l1.91,1.8-1.91,1.91-99.23,97.09-45.73,45.84-10.7,11.26-5.18,5.63c-.58.8-1.22,1.55-1.91,2.25,0,0,1.13.79,1.24,1.24,6.65,7.55,13.74,14.87,20.5,21.96,55.3,57.1,104.97,106.55,146.42,148.11l1.13,1.13-1.24,1.13-120.18,101.37-31.65,26.47-8.22,6.76-2.82,2.14c.77-.91,1.64-1.74,2.59-2.48l7.88-6.98,31.09-27.14,119.27-102.83v2.25c-41.67-41.22-91.46-90.1-147.09-147.32-6.87-7.21-13.85-14.3-20.72-22.53-.56-.68-1.01-1.46-1.58-2.25s-1.35-1.01-.56-2.93c.74-1.38,1.65-2.67,2.7-3.83l5.29-5.86,11.26-11.26c14.64-15.21,29.96-30.52,45.05-46.18l99-97.65v3.6l-163.43-153.96-2.14-1.91,2.03-2.03,165.68-162.97v4.51l-162.75-162.64-3.04-3.04-2.14-2.14,2.25-2.14,165.68-151.82v4.17l-165.68-168.94-1.91-1.91,1.91-2.03,168.94-168.27v3.6l-168.83-166.13-1.58-1.58,1.58-1.46,167.82-162.52v2.37l-122.77-81.54-32.32-21.63-8.22-5.63-2.82-2.03Z"/>
  </g>
  <g id="freepik--Bridge--inject-39">
    <polygon class="st7" points="632.98 4484.69 632.98 4589.33 746.17 4673.46 1454.16 4673.46 1559.36 4587.41 1561.61 4484.69 632.98 4484.69"/>
    <rect class="st7" x="742.46" y="4673.46" width="712.04" height="89.77"/>
    <rect class="st7" x="853.28" y="4763.34" width="505.37" height="1373.18"/>
    <path class="st2" d="M1352.23,4850.51c-14.3,0-418.76,299.26-418.76,299.26v986.41h-80.19v-1372.84h505.37l-6.42,87.18Z"/>
    <polygon class="st2" points="632.98 4589.33 1559.36 4587.41 1454.5 4673.46 746.17 4673.46 632.98 4589.33"/>
    <path class="st5" d="M1454.16,4673.46c0,1.69-159.48,2.59-356.13,2.14s-356.13-2.03-356.13-3.72,159.48-2.59,356.25-2.14c196.76.45,356.02,2.14,356.02,3.72Z"/>
    <path class="st5" d="M1559.36,4589.33c0,1.58-207.46,2.93-463.36,2.93s-463.36-1.35-463.36-2.93,207.46-2.93,463.36-2.93,463.36,1.35,463.36,2.93Z"/>
    <polygon class="st7" points="3189.67 4484.69 3189.67 4589.33 3302.86 4673.46 4010.96 4673.46 4116.16 4587.41 4118.3 4484.69 3189.67 4484.69"/>
    <rect class="st7" x="3299.15" y="4673.46" width="712.04" height="89.77"/>
    <rect class="st7" x="3409.97" y="4763.34" width="505.37" height="1373.18"/>
    <path class="st2" d="M3908.92,4850.51c-14.3,0-418.64,299.26-418.64,299.26v986.41h-80.3v-1372.84h505.37l-6.42,87.18Z"/>
    <polygon class="st2" points="3189.67 4589.33 4116.16 4587.41 4011.19 4673.46 3302.86 4673.46 3189.67 4589.33"/>
    <path class="st5" d="M4010.96,4673.46c0,1.69-159.48,2.59-356.13,2.14s-356.13-2.03-356.13-3.72,159.37-2.59,356.13-2.14c196.76.45,356.13,2.14,356.13,3.72Z"/>
    <path class="st5" d="M4116.16,4589.33c0,1.58-209.04,2.82-466.74,2.59s-466.62-1.69-466.62-3.27,208.93-2.82,466.62-2.59,466.74,1.69,466.74,3.27Z"/>
    <rect class="st7" x="2256.53" y="4114.82" width="56.88" height="94.05"/>
    <rect class="st7" x="2205.4" y="4100.29" width="159.03" height="19.37"/>
    <path class="st5" d="M2367.47,4118.42c-27.15,2.97-54.48,3.94-81.77,2.93-27.29,1.02-54.62.04-81.77-2.93,27.15-2.9,54.48-3.88,81.77-2.93,27.29-.95,54.62.03,81.77,2.93Z"/>
    <rect class="st7" x="1114.58" y="4114.82" width="56.88" height="94.05"/>
    <rect class="st7" x="1063.45" y="4100.29" width="159.03" height="19.37"/>
    <path class="st5" d="M1225.52,4118.42c-27.15,2.97-54.48,3.94-81.77,2.93-27.29,1.02-54.62.04-81.77-2.93,27.15-2.9,54.48-3.88,81.77-2.93,27.29-.95,54.62.03,81.77,2.93Z"/>
    <rect class="st7" x="3236.52" y="4114.82" width="56.88" height="94.05"/>
    <rect class="st7" x="3185.39" y="4100.29" width="159.03" height="19.37"/>
    <path class="st5" d="M3347.46,4118.42c-27.15,2.97-54.48,3.94-81.77,2.93-27.29,1.02-54.62.04-81.77-2.93,27.15-2.9,54.48-3.88,81.77-2.93,27.29-.95,54.62.03,81.77,2.93Z"/>
    <rect class="st7" x="4413.84" y="4394.37" width="135.61" height="50.91"/>
    <rect class="st7" x="4413.84" y="4248.4" width="62.73" height="50.91"/>
    <rect class="st1" x="4413.84" y="4328.03" width="340.82" height="18.92"/>
    <rect class="st1" x="4413.84" y="4363.96" width="216.92" height="7.21"/>
    <rect class="st7" x="21.29" y="4209.32" width="4392.55" height="275.38"/>
    <path class="st5" d="M34.36,4267.88c0-1.58,979.88-2.93,2189.18-2.93s2189.4,1.35,2189.4,2.93-979.88,2.93-2189.4,2.93-2189.18-1.24-2189.18-2.93Z"/>
    <path class="st5" d="M23.77,4419.82c0-1.58,982.58-2.93,2194.47-2.93s2194.7,1.35,2194.7,2.93-982.35,2.7-2194.36,2.7-2194.81-1.01-2194.81-2.7Z"/>
    <path class="st5" d="M3100.24,4424.33c-2.96-25.26-3.94-50.72-2.93-76.14-1.01-25.42-.03-50.87,2.93-76.14,2.9,25.27,3.87,50.72,2.93,76.14.95,25.42-.03,50.87-2.93,76.14Z"/>
    <path class="st5" d="M1687.64,4424.33c-2.96-25.26-3.94-50.72-2.93-76.14-1.01-25.42-.03-50.87,2.93-76.14,2.9,25.27,3.87,50.72,2.93,76.14.95,25.42-.03,50.87-2.93,76.14Z"/>
    <path class="st5" d="M4347.27,4485.93c0,1.58-968.61,2.59-2163.16,2.25s-2163.27-1.91-2163.27-3.49,968.61-2.7,2163.27-2.37c1194.66.34,2163.16,1.91,2163.16,3.6Z"/>
    <path class="st5" d="M4347.27,4209.32c0,1.58-968.61,2.93-2163.16,2.93s-2163.27-1.35-2163.27-2.93,968.61-2.93,2163.27-2.93,2163.16,1.24,2163.16,2.93Z"/>
    <path class="st5" d="M4414.85,4480.41c-1.58,0-2.93-61.05-2.93-136.17s1.35-136.28,2.93-136.28,2.93,61.05,2.93,136.28-1.13,136.17-2.93,136.17Z"/>
    <polygon class="st7" points="7010.85 4484.69 7010.85 4589.33 6897.66 4673.46 6189.67 4673.46 6084.36 4587.41 6082.22 4484.69 7010.85 4484.69"/>
    <rect class="st7" x="6189.33" y="4673.57" width="712.04" height="89.77"/>
    <rect class="st7" x="6285.06" y="4763.34" width="505.37" height="1373.18"/>
    <path class="st2" d="M6291.6,4850.51c14.3,0,418.64,299.26,418.64,299.26v986.41h80.3v-1372.84h-505.37l6.42,87.18Z"/>
    <polygon class="st2" points="7010.85 4589.33 6084.36 4587.41 6189.33 4673.46 6897.66 4673.46 7010.85 4589.33"/>
    <path class="st5" d="M6189.55,4673.46c0-1.58,159.48-3.27,356.13-3.72s356.13.56,356.13,2.14-159.37,3.38-356.13,3.72c-196.76.34-356.13-.45-356.13-2.14Z"/>
    <path class="st5" d="M6084.36,4589.33c0-1.58,209.04-3.04,466.74-3.27s466.62.9,466.62,2.59-208.81,3.04-466.62,3.27-466.74-.45-466.74-2.59Z"/>
    <rect class="st7" x="6907.12" y="4114.82" width="56.88" height="94.05"/>
    <rect class="st7" x="6855.98" y="4100.18" width="159.03" height="19.37"/>
    <path class="st5" d="M6853.17,4118.42c54.41-3.9,109.02-3.9,163.43,0-54.41,3.9-109.02,3.9-163.43,0Z"/>
    <rect class="st7" x="5651.07" y="4394.37" width="135.61" height="50.91"/>
    <rect class="st7" x="5723.94" y="4248.29" width="62.73" height="50.91"/>
    <rect class="st7" x="5786.79" y="4209.32" width="2401.71" height="275.38"/>
    <path class="st5" d="M8181.29,4267.88c0,1.69-536,2.93-1197.03,2.93s-1197.14-1.24-1197.14-2.93,535.89-2.93,1197.14-2.93,1197.03,1.35,1197.03,2.93Z"/>
    <path class="st5" d="M8181.29,4419.82c0,1.69-536,2.93-1197.03,2.93s-1197.14-1.24-1197.14-2.93,535.89-2.93,1197.14-2.93,1197.03,1.35,1197.03,2.93Z"/>
    <path class="st5" d="M7100.28,4424.33c-2.9-25.27-3.87-50.72-2.93-76.14-.95-25.42.03-50.87,2.93-76.14,2.96,25.26,3.94,50.72,2.93,76.14,1.01,25.42.03,50.87-2.93,76.14Z"/>
    <path class="st5" d="M5822.72,4485.93c0-1.69,532.51-2.93,1189.25-2.93s1189.48,1.24,1189.48,2.93-532.4,2.93-1189.48,2.93-1189.25-1.35-1189.25-2.93Z"/>
    <path class="st5" d="M5822.72,4209.32c0-1.69,532.51-2.93,1189.25-2.93s1189.48,1.24,1189.48,2.93-532.4,2.93-1189.48,2.93-1189.25-1.35-1189.25-2.93Z"/>
    <path class="st5" d="M5785.55,4480.41c-1.69,0-2.93-61.05-2.93-136.17s1.24-136.28,2.93-136.28,2.93,61.05,2.93,136.28-1.35,136.17-2.93,136.17Z"/>
  </g>
</svg>