<?xml version="1.0" encoding="UTF-8"?>
<svg id="Layer_1" xmlns="http://www.w3.org/2000/svg" version="1.1" viewBox="0 0 750 500">
  <!-- Generator: Adobe Illustrator 29.6.1, SVG Export Plug-In . SVG Version: 2.1.1 Build 9)  -->
  <defs>
    <style>
      .st0 {
        fill: #e0e0e0;
      }

      .st1 {
        fill: #4a9288;
      }

      .st2 {
        fill: #f5f5f5;
      }
    </style>
  </defs>
  <g id="freepik--background-complete--inject-71">
    <path class="st2" d="M57.62,377.53c3.87-1.8,6.29-5.73,6.16-10-.09-5.89-4.64-10.6-10.17-10.52s-9.93,4.93-9.83,10.82c0,4.3,2.59,8.18,6.56,9.83-15.34,2.63-14.34,19.34-14.34,19.34l36.4-.55s.52-16.92-14.78-18.92Z"/>
    <path class="st2" d="M652.35,438.93c4.26.32,8.29-1.92,10.27-5.7,2.8-5.18,1.14-11.51-3.72-14.15s-11.07-.56-13.87,4.62c-2.1,3.75-1.75,8.4.91,11.79-14.66-5.23-22,9.84-22,9.84l32,17.35s8.77-14.51-3.59-23.75Z"/>
    <path class="st2" d="M652.27,236.2c1.73,1.04,3.98.49,5.02-1.24.52-.86.66-1.89.4-2.86-.44-1.53-.86-4,.31-6,1.83-3,5.5-3.65,8.9-1.58s4.54,5.62,2.71,8.62c-1.17,1.94-3.59,2.72-5.15,3-.99.2-1.84.81-2.36,1.68-1.04,1.72-.49,3.96,1.23,5l20,9.64.09.07.47-1,13.28-17.78c1.03-1.72.48-3.95-1.23-5-.86-.53-1.9-.67-2.87-.4-1.53.45-4,.86-6-.31-3-1.82-3.65-5.5-1.58-8.9s5.62-4.53,8.62-2.71c1.94,1.17,2.72,3.59,3,5.16.42,1.98,2.37,3.24,4.34,2.81.99-.21,1.84-.82,2.37-1.68l9-18.74-.12-.06-17.7-13.21c-1.72-1.04-3.96-.49-5,1.23-.53.86-.68,1.9-.4,2.87.44,1.53.86,4-.32,6-1.82,3-5.49,3.65-8.9,1.58s-4.53-5.62-2.71-8.62c1.18-1.94,3.59-2.72,5.16-3,.99-.2,1.84-.81,2.36-1.68,1.04-1.72.49-3.96-1.23-5l-20-9.64-.12-.09-12.41,16.62c-1.03,1.72-.48,3.95,1.23,5,.86.53,1.9.67,2.87.4,1.53-.44,4-.86,6,.31,3,1.82,3.64,5.5,1.58,8.9s-5.62,4.53-8.63,2.71c-1.93-1.17-2.72-3.59-3-5.15-.2-.99-.81-1.85-1.68-2.37-1.72-1.02-3.95-.48-5,1.23l-9.64,20-.69.92h.1l17.7,13.27Z"/>
    <path class="st2" d="M67.53,257.7c1.78.16,3.36-1.16,3.51-2.94.08-.9-.22-1.79-.82-2.46-1-1.05-2.28-2.87-2.11-4.87.26-3.11,2.92-5.07,6.44-4.77s5.82,2.67,5.56,5.77c-.17,2-1.77,3.59-2.89,4.46-.71.55-1.15,1.37-1.22,2.26-.15,1.79,1.18,3.36,2.97,3.51h.03l19.69-.24h.09v-1l3.52-19.37c.16-1.78-1.16-3.36-2.94-3.51-.9-.08-1.79.22-2.46.82-1,1-2.87,2.28-4.87,2.11-3.1-.26-5.07-2.92-4.77-6.44s2.67-5.82,5.78-5.56c2,.17,3.58,1.77,4.45,2.89,1.11,1.4,3.15,1.64,4.55.53.7-.56,1.15-1.38,1.22-2.28l-.26-18.41h-.12l-19.38-3.52c-1.78-.15-3.35,1.18-3.5,2.96v.04c-.08.89.21,1.78.81,2.44,1,1,2.28,2.87,2.12,4.87-.27,3.1-2.93,5.06-6.45,4.77s-5.82-2.68-5.56-5.78c.17-2,1.78-3.58,2.9-4.45,1.4-1.12,1.63-3.16.52-4.57-.56-.7-1.38-1.14-2.27-1.21l-19.7.25h-.12l-3.25,18c-.16,1.78,1.16,3.36,2.94,3.51.9.08,1.79-.22,2.46-.82,1-1,2.87-2.28,4.87-2.11,3.11.26,5.07,2.93,4.77,6.45s-2.67,5.82-5.78,5.55c-2-.16-3.58-1.77-4.45-2.89-.55-.71-1.38-1.14-2.27-1.21-1.78-.15-3.35,1.18-3.5,2.96v.04l.24,19.69-.18,1h.1s19.33,3.53,19.33,3.53Z"/>
    <path class="st0" d="M483.3,93.8c1.83-1.69,3.88-3.13,6.09-4.28v-6.9l11.14-2.49,3,6.23c2.49.1,4.95.53,7.33,1.28l4.89-4.87,9.64,6.12-2.31,6.49c1.69,1.83,3.13,3.88,4.28,6.09h6.9l2.49,11.14-6.23,3c-.1,2.49-.53,4.95-1.28,7.33l4.87,4.89-6.11,9.63-6.5-2.32c-1.83,1.69-3.88,3.13-6.09,4.28v6.9l-11.15,2.49-3-6.23c-2.49-.1-4.96-.53-7.34-1.28l-4.92,4.87-9.64-6.12,2.32-6.5c-1.69-1.83-3.13-3.88-4.28-6.09h-6.9l-2.49-11.14,6.23-3c.1-2.49.53-4.95,1.28-7.33l-4.87-4.9,6.12-9.64,6.49,2.32.04.03h0ZM492.3,107.47c-3.62,5.71-1.93,13.28,3.78,16.91,5.71,3.62,13.28,1.93,16.91-3.78,3.62-5.71,1.93-13.28-3.78-16.9s-13.27-1.93-16.89,3.78h-.02Z"/>
    <path class="st0" d="M584.53,309.27c1.83-1.69,3.88-3.12,6.09-4.27v-6.91l11.14-2.49,3,6.24c2.49.09,4.96.52,7.33,1.27l4.89-4.86,9.64,6.11-2.31,6.5c1.69,1.83,3.13,3.88,4.28,6.09h6.9l2.51,11.16-6.23,3c-.1,2.49-.53,4.95-1.28,7.33l4.87,4.89-6.12,9.64-6.5-2.32c-1.83,1.7-3.87,3.14-6.09,4.28v6.9l-11.15,2.5-3-6.24c-2.49-.09-4.96-.52-7.34-1.27l-4.89,4.86-9.64-6.11,2.37-6.57c-1.69-1.83-3.13-3.88-4.28-6.09h-6.9l-2.49-11.14,6.23-3c.1-2.49.53-4.95,1.28-7.33l-4.87-4.89,6.03-9.55,6.49,2.31.04-.04ZM593.53,322.95c-3.62,5.72-1.92,13.28,3.79,16.9,5.72,3.62,13.28,1.92,16.9-3.79,3.62-5.71,1.92-13.28-3.79-16.9-5.72-3.61-13.28-1.89-16.88,3.83h0s-.02-.04-.02-.04Z"/>
    <path class="st0" d="M130.66,385.83c1.83-1.69,3.88-3.13,6.09-4.28v-6.9l11.15-2.49,3,6.23c2.49.1,4.96.53,7.34,1.28l4.89-4.87,9.64,6.12-2.32,6.5c1.69,1.83,3.13,3.88,4.28,6.09h6.9l2.49,11.15-6.23,2.95c-.1,2.49-.53,4.96-1.28,7.34l4.87,4.89-6.12,9.64-6.49-2.32c-1.83,1.69-3.88,3.13-6.09,4.28v6.9l-11.14,2.49-3-6.23c-2.49-.1-4.95-.53-7.33-1.28l-4.89,4.87-9.64-6.12,2.31-6.49c-1.69-1.83-3.13-3.88-4.28-6.09h-6.9l-2.49-11.14,6.23-3c.1-2.49.53-4.95,1.28-7.33l-4.86-4.89,6.11-9.64,6.5,2.31-.02.03h0ZM139.66,399.5c-3.63,5.71-1.94,13.28,3.78,16.91,5.71,3.63,13.28,1.94,16.91-3.78,3.63-5.71,1.94-13.28-3.78-16.91h0c-5.71-3.61-13.26-1.92-16.88,3.78h-.03Z"/>
    <path class="st0" d="M187.38,112.52c1.83-1.69,3.88-3.13,6.09-4.28v-6.9l11.15-2.49,3,6.23c2.49.1,4.96.53,7.34,1.28l4.89-4.87,9.64,6.12-2.32,6.5c1.69,1.83,3.13,3.88,4.28,6.09h6.9l2.49,11.14-6.23,2.95c-.1,2.49-.53,4.96-1.28,7.34l4.87,4.89-6.2,9.66-6.49-2.32c-1.83,1.69-3.88,3.13-6.09,4.28v6.9l-11.14,2.49-3-6.23c-2.47-.11-4.92-.55-7.28-1.3l-4.89,4.87-9.64-6.12,2.31-6.49c-1.69-1.83-3.13-3.88-4.28-6.09h-6.9l-2.48-11.17,6.23-3c.1-2.49.53-4.95,1.28-7.33l-4.87-4.89,6.12-9.64,6.5,2.31v.07h0ZM196.38,126.19c-3.63,5.71-1.94,13.28,3.78,16.91s13.28,1.94,16.91-3.78c3.63-5.71,1.94-13.28-3.78-16.91h0c-5.71-3.61-13.26-1.92-16.88,3.78h-.03Z"/>
    <path class="st2" d="M346.82,31.17c1.35-1.25,2.87-2.32,4.51-3.17v-5.11l8.27-1.89,2.19,4.62c1.84.07,3.67.39,5.43.95l3.63-3.57,7.15,4.53-1.72,4.82c1.25,1.35,2.32,2.87,3.17,4.51h5.12l1.84,8.26-4.61,2.19c-.1,1.85-.43,3.67-1,5.43l3.6,3.63-4.53,7.14-4.77-1.71c-1.36,1.26-2.87,2.34-4.51,3.2v5.11l-8.25,1.85-2.19-4.62c-1.85-.08-3.68-.4-5.44-.95l-3.64,3.61-7.14-4.54,1.71-4.81c-1.25-1.35-2.32-2.87-3.17-4.51h-5.11l-1.85-8.25,4.62-2.19c.07-1.85.39-3.68.95-5.44l-3.61-3.62,4.53-7.18s4.82,1.71,4.82,1.71ZM353.5,41.3c-2.7,4.23-1.45,9.84,2.78,12.54s9.84,1.45,12.54-2.78,1.45-9.84-2.78-12.54c-.01,0-.02-.02-.04-.02-4.23-2.66-9.81-1.41-12.5,2.8Z"/>
  </g>
  <g id="freepik--Arrows--inject-71">
    <polygon class="st1" points="332.54 308.25 297.85 390.25 259.25 322.92 332.54 308.25"/>
    <path class="st1" d="M283.94,359.59l21-39.79c6.98,3.68,14.17,6.95,21.54,9.78,5.43,2.1,10.99,3.97,16.56,5.56,44.68,12.82,92.46,9.5,134.94-9.37l18.28,41.16c-52.15,23.14-110.79,27.2-165.64,11.45-6.8-1.97-13.62-4.26-20.26-6.82-9.03-3.47-17.86-7.46-26.42-11.98Z"/>
    <path class="st1" d="M455.26,256.65c-37.21-19.75-79.79-27.01-121.44-20.69-5.72.86-11.47,2.01-17.15,3.34-12.45,2.99-24.6,7.18-36.25,12.49l-18.71-40.93c14.3-6.51,29.19-11.63,44.46-15.29,6.91-1.68,13.97-3.04,21-4.05,51.14-7.77,103.42,1.14,149.11,25.39l-21.03,39.75Z"/>
    <polygon class="st1" points="421.66 262.17 461.75 182.67 495.77 252.44 421.66 262.17"/>
  </g>
</svg>