<?xml version="1.0" encoding="UTF-8"?>
<svg id="Layer_1" xmlns="http://www.w3.org/2000/svg" version="1.1" viewBox="0 0 750 500">
  <!-- Generator: Adobe Illustrator 29.5.1, SVG Export Plug-In . SVG Version: 2.1.0 Build 141)  -->
  <defs>
    <style>
      .st0 {
        fill: #e0e0e0;
      }

      .st1 {
        fill: #b9dbd5;
      }

      .st2 {
        fill: #ebebeb;
      }

      .st3 {
        fill: #ff725e;
      }

      .st4 {
        fill: #4a9288;
      }

      .st5 {
        fill: #263238;
      }

      .st6 {
        fill: #fff;
      }

      .st7 {
        fill: #f5f5f5;
      }
    </style>
  </defs>
  <g id="freepik--background-complete--inject-71">
    <path class="st7" d="M57.62,377.53c3.87-1.8,6.29-5.73,6.16-10-.09-5.89-4.64-10.6-10.17-10.52s-9.93,4.93-9.83,10.82c0,4.3,2.59,8.18,6.56,9.83-15.34,2.63-14.34,19.34-14.34,19.34l36.4-.55s.52-16.92-14.78-18.92Z"/>
    <path class="st7" d="M652.35,438.93c4.26.32,8.29-1.92,10.27-5.7,2.8-5.18,1.14-11.51-3.72-14.15s-11.07-.56-13.87,4.62c-2.1,3.75-1.75,8.4.91,11.79-14.66-5.23-22,9.84-22,9.84l32,17.35s8.77-14.51-3.59-23.75Z"/>
    <path class="st7" d="M652.27,236.2c1.73,1.04,3.98.49,5.02-1.24.52-.86.66-1.89.4-2.86-.44-1.53-.86-4,.31-6,1.83-3,5.5-3.65,8.9-1.58s4.54,5.62,2.71,8.62c-1.17,1.94-3.59,2.72-5.15,3-.99.2-1.84.81-2.36,1.68-1.04,1.72-.49,3.96,1.23,5l20,9.64.09.07.47-1,13.28-17.78c1.03-1.72.48-3.95-1.23-5-.86-.53-1.9-.67-2.87-.4-1.53.45-4,.86-6-.31-3-1.82-3.65-5.5-1.58-8.9s5.62-4.53,8.62-2.71c1.94,1.17,2.72,3.59,3,5.16.42,1.98,2.37,3.24,4.34,2.81.99-.21,1.84-.82,2.37-1.68l9-18.74-.12-.06-17.7-13.21c-1.72-1.04-3.96-.49-5,1.23-.53.86-.68,1.9-.4,2.87.44,1.53.86,4-.32,6-1.82,3-5.49,3.65-8.9,1.58s-4.53-5.62-2.71-8.62c1.18-1.94,3.59-2.72,5.16-3,.99-.2,1.84-.81,2.36-1.68,1.04-1.72.49-3.96-1.23-5l-20-9.64-.12-.09-12.41,16.62c-1.03,1.72-.48,3.95,1.23,5,.86.53,1.9.67,2.87.4,1.53-.44,4-.86,6,.31,3,1.82,3.64,5.5,1.58,8.9s-5.62,4.53-8.63,2.71c-1.93-1.17-2.72-3.59-3-5.15-.2-.99-.81-1.85-1.68-2.37-1.72-1.02-3.95-.48-5,1.23l-9.64,20-.69.92h.1l17.7,13.27Z"/>
    <path class="st7" d="M67.53,257.7c1.78.16,3.36-1.16,3.51-2.94.08-.9-.22-1.79-.82-2.46-1-1.05-2.28-2.87-2.11-4.87.26-3.11,2.92-5.07,6.44-4.77s5.82,2.67,5.56,5.77c-.17,2-1.77,3.59-2.89,4.46-.71.55-1.15,1.37-1.22,2.26-.15,1.79,1.18,3.36,2.97,3.51,0,0,.02,0,.03,0l19.69-.24h.09v-1l3.52-19.37c.16-1.78-1.16-3.36-2.94-3.51-.9-.08-1.79.22-2.46.82-1,1-2.87,2.28-4.87,2.11-3.1-.26-5.07-2.92-4.77-6.44s2.67-5.82,5.78-5.56c2,.17,3.58,1.77,4.45,2.89,1.11,1.4,3.15,1.64,4.55.53.7-.56,1.15-1.38,1.22-2.28l-.26-18.41h-.12l-19.38-3.52c-1.78-.15-3.35,1.18-3.5,2.96,0,.01,0,.03,0,.04-.08.89.21,1.78.81,2.44,1,1,2.28,2.87,2.12,4.87-.27,3.1-2.93,5.06-6.45,4.77s-5.82-2.68-5.56-5.78c.17-2,1.78-3.58,2.9-4.45,1.4-1.12,1.63-3.16.52-4.57-.56-.7-1.38-1.14-2.27-1.21l-19.7.25h-.12l-3.25,18c-.16,1.78,1.16,3.36,2.94,3.51.9.08,1.79-.22,2.46-.82,1-1,2.87-2.28,4.87-2.11,3.11.26,5.07,2.93,4.77,6.45s-2.67,5.82-5.78,5.55c-2-.16-3.58-1.77-4.45-2.89-.55-.71-1.38-1.14-2.27-1.21-1.78-.15-3.35,1.18-3.5,2.96,0,.01,0,.03,0,.04l.24,19.69-.18,1h.1l19.33,3.53Z"/>
    <path class="st0" d="M355.41,278.71c3.09-1.87,6.41-3.31,9.88-4.3l2-9.78,16.53-.29,2.37,9.7c3.49.87,6.86,2.2,10,3.95l8.35-5.48,11.95,11.49-5.18,8.54c1.87,3.09,3.31,6.41,4.29,9.88l9.78,2,.29,16.52-9.7,2.38c-.86,3.49-2.19,6.86-3.94,10l5.47,8.35-11.5,11.94-8.53-5.18c-3.09,1.86-6.41,3.31-9.88,4.3l-2,9.78-16.52.29-2.38-9.7c-3.5-.88-6.86-2.23-10-4l-8.35,5.47-11.89-11.47,5.17-8.54c-1.87-3.09-3.31-6.41-4.29-9.88l-9.78-2-.29-16.52,9.7-2.38c.86-3.49,2.19-6.86,3.95-10l-5.48-8.35,11.48-11.89,8.54,5.18h-.04ZM364.22,300.71c-6.8,7.04-6.6,18.26.44,25.06s18.26,6.6,25.06-.44c6.79-7.04,6.6-18.25-.44-25.05-7.03-6.8-18.25-6.6-25.04.43,0,0-.01.01-.02.02h0Z"/>
    <path class="st0" d="M306.38,216.63c1.83-1.69,3.88-3.13,6.09-4.28v-6.9l11.16-2.45,3,6.23c2.49.1,4.95.53,7.33,1.28l4.89-4.87,9.64,6.12-2.31,6.49c1.69,1.83,3.13,3.88,4.28,6.09h6.9l2.49,11.14-6.23,3c-.1,2.49-.53,4.95-1.28,7.33l4.86,4.89-6.11,9.65-6.5-2.32c-1.83,1.69-3.88,3.13-6.09,4.28v6.9l-11.14,2.49-3-6.23c-2.49-.1-4.95-.53-7.33-1.28l-4.91,4.81-9.64-6.12,2.32-6.5c-1.69-1.83-3.13-3.88-4.28-6.09h-6.9l-2.5-11.14,6.24-3c.1-2.49.53-4.96,1.27-7.34l-4.86-4.81,6.11-9.64,6.5,2.32v-.05ZM315.38,230.3c-3.63,5.71-1.94,13.28,3.78,16.91,5.71,3.63,13.28,1.94,16.91-3.78,3.63-5.71,1.94-13.28-3.78-16.91,0,0,0,0,0,0-5.71-3.61-13.26-1.92-16.88,3.78h-.02Z"/>
    <path class="st0" d="M483.3,93.8c1.83-1.69,3.88-3.13,6.09-4.28v-6.9l11.14-2.49,3,6.23c2.49.1,4.95.53,7.33,1.28l4.89-4.87,9.64,6.12-2.31,6.49c1.69,1.83,3.13,3.88,4.28,6.09h6.9l2.49,11.14-6.23,3c-.1,2.49-.53,4.95-1.28,7.33l4.87,4.89-6.11,9.63-6.5-2.32c-1.83,1.69-3.88,3.13-6.09,4.28v6.9l-11.15,2.49-3-6.23c-2.49-.1-4.96-.53-7.34-1.28l-4.92,4.87-9.64-6.12,2.32-6.5c-1.69-1.83-3.13-3.88-4.28-6.09h-6.9l-2.49-11.14,6.23-3c.1-2.49.53-4.95,1.28-7.33l-4.87-4.9,6.12-9.64,6.49,2.32.04.03ZM492.3,107.47c-3.62,5.71-1.93,13.28,3.78,16.91,5.71,3.62,13.28,1.93,16.91-3.78,3.62-5.71,1.93-13.28-3.78-16.9-5.71-3.62-13.27-1.93-16.89,3.78h-.02Z"/>
    <path class="st0" d="M584.53,309.27c1.83-1.69,3.88-3.12,6.09-4.27v-6.91l11.14-2.49,3,6.24c2.49.09,4.96.52,7.33,1.27l4.89-4.86,9.64,6.11-2.31,6.5c1.69,1.83,3.13,3.88,4.28,6.09h6.9l2.51,11.16-6.23,3c-.1,2.49-.53,4.95-1.28,7.33l4.87,4.89-6.12,9.64-6.5-2.32c-1.83,1.7-3.87,3.14-6.09,4.28v6.9l-11.15,2.5-3-6.24c-2.49-.09-4.96-.52-7.34-1.27l-4.89,4.86-9.64-6.11,2.37-6.57c-1.69-1.83-3.13-3.88-4.28-6.09h-6.9l-2.49-11.14,6.23-3c.1-2.49.53-4.95,1.28-7.33l-4.87-4.89,6.03-9.55,6.49,2.31.04-.04ZM593.53,322.95c-3.62,5.72-1.92,13.28,3.79,16.9,5.72,3.62,13.28,1.92,16.9-3.79,3.62-5.71,1.92-13.28-3.79-16.9-5.72-3.61-13.28-1.89-16.88,3.83,0,0,0,0,0,.01l-.02-.05Z"/>
    <path class="st0" d="M130.66,385.83c1.83-1.69,3.88-3.13,6.09-4.28v-6.9l11.15-2.49,3,6.23c2.49.1,4.96.53,7.34,1.28l4.89-4.87,9.64,6.12-2.32,6.5c1.69,1.83,3.13,3.88,4.28,6.09h6.9l2.49,11.15-6.23,2.95c-.1,2.49-.53,4.96-1.28,7.34l4.87,4.89-6.12,9.64-6.49-2.32c-1.83,1.69-3.88,3.13-6.09,4.28v6.9l-11.14,2.49-3-6.23c-2.49-.1-4.95-.53-7.33-1.28l-4.89,4.87-9.64-6.12,2.31-6.49c-1.69-1.83-3.13-3.88-4.28-6.09h-6.9l-2.49-11.14,6.23-3c.1-2.49.53-4.95,1.28-7.33l-4.86-4.89,6.11-9.64,6.5,2.31-.02.03ZM139.66,399.5c-3.63,5.71-1.94,13.28,3.78,16.91,5.71,3.63,13.28,1.94,16.91-3.78,3.63-5.71,1.94-13.28-3.78-16.91,0,0,0,0,0,0-5.71-3.61-13.26-1.92-16.88,3.78h-.02Z"/>
    <path class="st0" d="M187.38,112.52c1.83-1.69,3.88-3.13,6.09-4.28v-6.9l11.15-2.49,3,6.23c2.49.1,4.96.53,7.34,1.28l4.89-4.87,9.64,6.12-2.32,6.5c1.69,1.83,3.13,3.88,4.28,6.09h6.9l2.49,11.14-6.23,2.95c-.1,2.49-.53,4.96-1.28,7.34l4.87,4.89-6.2,9.66-6.49-2.32c-1.83,1.69-3.88,3.13-6.09,4.28v6.9l-11.14,2.49-3-6.23c-2.47-.11-4.92-.55-7.28-1.3l-4.89,4.87-9.64-6.12,2.31-6.49c-1.69-1.83-3.13-3.88-4.28-6.09h-6.9l-2.48-11.17,6.23-3c.1-2.49.53-4.95,1.28-7.33l-4.87-4.89,6.12-9.64,6.5,2.31v.07ZM196.38,126.19c-3.63,5.71-1.94,13.28,3.78,16.91s13.28,1.94,16.91-3.78c3.63-5.71,1.94-13.28-3.78-16.91,0,0,0,0,0,0-5.71-3.61-13.26-1.92-16.88,3.78h-.02Z"/>
    <path class="st7" d="M390,215.87c1.35-1.25,2.87-2.32,4.51-3.17v-5.11l8.26-1.85,2.19,4.62c1.84.07,3.67.39,5.43.94l3.63-3.6,7.14,4.53-1.72,4.82c1.25,1.35,2.32,2.87,3.17,4.51h5.12l1.84,8.26-4.57,2.18c-.07,1.84-.39,3.67-.94,5.43l3.6,3.63-4.53,7.14-4.81-1.72c-1.35,1.25-2.87,2.32-4.51,3.17v5.12l-8.25,1.84-2.25-4.61c-1.85-.07-3.68-.39-5.44-.94l-3.62,3.6-7.14-4.53,1.71-4.81c-1.25-1.35-2.32-2.87-3.17-4.51h-5.11l-1.85-8.25,4.62-2.19c.07-1.85.39-3.68.94-5.44l-3.6-3.62,4.53-7.14,4.82,1.71h0ZM396.68,226c-2.69,4.23-1.44,9.84,2.79,12.53,4.23,2.69,9.84,1.44,12.53-2.79s1.44-9.84-2.79-12.53c0,0,0,0-.01,0-4.23-2.68-9.83-1.43-12.52,2.8Z"/>
    <path class="st7" d="M346.82,31.17c1.35-1.25,2.87-2.32,4.51-3.17v-5.11l8.27-1.89,2.19,4.62c1.84.07,3.67.39,5.43.95l3.63-3.57,7.15,4.53-1.72,4.82c1.25,1.35,2.32,2.87,3.17,4.51h5.12l1.84,8.26-4.61,2.19c-.1,1.85-.43,3.67-1,5.43l3.6,3.63-4.53,7.14-4.77-1.71c-1.36,1.26-2.87,2.34-4.51,3.2v5.11l-8.25,1.85-2.19-4.62c-1.85-.08-3.68-.4-5.44-.95l-3.64,3.61-7.14-4.54,1.71-4.81c-1.25-1.35-2.32-2.87-3.17-4.51h-5.11l-1.85-8.25,4.62-2.19c.07-1.85.39-3.68.95-5.44l-3.61-3.62,4.53-7.18s4.82,1.71,4.82,1.71ZM353.5,41.3c-2.7,4.23-1.45,9.84,2.78,12.54,4.23,2.7,9.84,1.45,12.54-2.78,2.7-4.23,1.45-9.84-2.78-12.54-.01,0-.02-.02-.04-.02-4.23-2.66-9.81-1.41-12.5,2.8Z"/>
  </g>
  <g id="freepik--Arrows--inject-71">
    <path class="st4" d="M190,235.09l-42-16.28c20.65-53.22,59.37-97.47,109.37-125,6.2-3.41,12.65-6.59,19.17-9.47,4.46-2,9-3.81,13.57-5.5l15.67,42.18c-3.71,1.38-7.45,2.9-11.09,4.5-5.33,2.35-10.6,5-15.67,7.73-40.71,22.44-72.22,58.5-89.02,101.84Z"/>
    <polygon class="st4" points="304.17 142.17 276.22 57.63 349.63 82.84 304.17 142.17"/>
    <path class="st4" d="M189.89,469.15c-29.82-32.45-50.22-72.42-59-115.61-1.41-6.94-2.53-14-3.34-21.11-1.4-12.28-1.87-24.65-1.41-37l45,1.7c-.38,10.07,0,20.16,1.15,30.18.66,5.78,1.58,11.59,2.73,17.26,7.15,35.16,23.74,67.7,48,94.13l-33.13,30.45Z"/>
    <polygon class="st4" points="192.04 318.41 96.57 309.27 153.28 247.84 192.04 318.41"/>
    <polygon class="st4" points="524.72 387.9 603.34 429.69 532.86 462.2 524.72 387.9"/>
    <path class="st4" d="M571.57,440.84l-37.78-24.43c4.28-6.63,8.17-13.5,11.64-20.59,2.57-5.22,4.92-10.6,7-16,16.71-43.38,17.62-91.26,2.57-135.24l42.61-14.58c18.45,53.99,17.32,112.76-3.2,166-2.56,6.6-5.44,13.19-8.58,19.58-4.25,8.69-9.01,17.13-14.26,25.26Z"/>
    <path class="st4" d="M539.6,205.32c-22.34-35.72-55.58-63.3-94.8-78.67-5.38-2.12-10.94-4-16.52-5.69-12.28-3.64-24.89-6.09-37.64-7.32l4.28-44.8c15.64,1.52,31.09,4.53,46.15,9,6.82,2,13.62,4.36,20.21,7,48.17,18.86,88.98,52.72,116.41,96.58l-38.09,23.9Z"/>
    <polygon class="st4" points="507.74 193.29 582.23 144.51 576.78 221.94 507.74 193.29"/>
  </g>
  <g id="freepik--background-complete--inject-112">
    <rect class="st2" x="272.97" y="199.07" width="220.74" height="220.74"/>
  </g>
  <g id="freepik--Calendar--inject-112">
    <rect class="st6" x="260.4" y="186.12" width="220.74" height="220.74"/>
    <path class="st5" d="M481.14,406.86c0-1.92-.09-88.4-.23-220.74l.23.23h-220.72l.26-.26v220.74l-.23-.22,220.74.22-220.74.23h-.22v-221.23h221.23v.22c-.23,132.41-.32,218.89-.32,220.81Z"/>
    <path class="st1" d="M452.49,289.2h-79.6c-5.15,0-9.32-4.17-9.32-9.32h0c0-5.15,4.17-9.32,9.32-9.32h79.6c5.15,0,9.32,4.17,9.33,9.32h0c0,5.15-4.18,9.32-9.33,9.32Z"/>
    <path class="st3" d="M418.12,315.14h-133.87c-5.15,0-9.32-4.18-9.32-9.33h0c0-5.15,4.17-9.32,9.32-9.32h133.87c5.15,0,9.32,4.17,9.33,9.32h0c0,5.15-4.18,9.33-9.33,9.33Z"/>
    <path class="st1" d="M418.12,315.14h-133.87c-5.15,0-9.32-4.18-9.32-9.33h0c0-5.15,4.17-9.32,9.32-9.32h133.87c5.15,0,9.32,4.17,9.33,9.32h0c0,5.15-4.18,9.33-9.33,9.33Z"/>
    <circle class="st4" cx="370.38" cy="279.91" r="9.45"/>
    <circle class="st4" cx="424.07" cy="305.82" r="9.45" transform="translate(28.66 647.89) rotate(-76.66)"/>
    <path class="st5" d="M283.05,217.44c-.12,0-.24-.04-.33-.12l-2.67-2.39c-.1-.09-.16-.21-.17-.34,0-.14.04-.27.14-.37l2.66-2.87c.19-.19.51-.19.7,0,.2.19.2.51,0,.71,0,0,0,0,0,0l-2.33,2.47,2.29,2c.19.2.19.51,0,.71-.07.1-.17.17-.29.2Z"/>
    <path class="st5" d="M460.05,217.44c-.13,0-.25-.04-.34-.13-.2-.19-.2-.51,0-.71,0,0,0,0,0,0l2.34-2.49-2.28-2c-.22-.17-.25-.49-.08-.7s.49-.25.7-.08c.02.01.03.03.04.04l2.61,2.33c.1.09.16.22.17.35,0,.13-.04.26-.13.36l-2.64,2.88c-.1.11-.25.17-.4.15Z"/>
    <path class="st5" d="M366.55,217.23v-4.87l-2.39,4h-.84l-2.38-3.9v4.76h-1.76v-8.1h1.56l3,5,3-5h1.54v8.11h-1.73Z"/>
    <path class="st5" d="M375.62,213.67v3.56h-1.69v-.78c-.42.61-1.15.93-1.88.84-1.46,0-2.33-.81-2.33-1.89s.78-1.86,2.68-1.86h1.44c0-.78-.47-1.23-1.44-1.23-.65,0-1.28.2-1.8.58l-.64-1.26c.8-.51,1.73-.77,2.68-.75,1.88.03,2.98.91,2.98,2.79ZM373.82,215.29v-.64h-1.24c-.85,0-1.11.32-1.11.73s.38.76,1,.76c.59.04,1.14-.3,1.35-.85Z"/>
    <path class="st5" d="M383.33,211l-2.82,6.61c-.27,1.2-1.35,2.04-2.58,2-.63.01-1.24-.19-1.74-.57l.66-1.28c.28.24.63.38,1,.39.5,0,.78-.22,1-.78v-.05l-2.69-6.28h1.89l1.75,4.23,1.76-4.23,1.77-.04Z"/>
    <path class="st0" d="M478.41,235.21c0,.14-47.75.26-106.65.26s-106.71-.12-106.71-.26,47.75-.26,106.67-.26,106.69.11,106.69.26Z"/>
    <path class="st5" d="M284.92,255.57v-3.34l-1.63,2.75h-.58l-1.66-2.69v3.27h-1.21v-5.57h1.06l2.09,3.46,2-3.46h1.06v5.57h-1.13Z"/>
    <path class="st5" d="M287.05,253.43c-.09-1.3.89-2.43,2.19-2.51,1.3-.09,2.43.89,2.51,2.19s-.89,2.43-2.19,2.51c-.05,0-.11,0-.16,0-1.21.08-2.26-.83-2.34-2.04,0-.05,0-.1,0-.16ZM290.49,253.43c-.05-.6-.58-1.05-1.18-1-.6.05-1.05.58-1,1.18.05.56.52,1,1.08,1,.6,0,1.09-.47,1.09-1.07,0-.04,0-.08,0-.11Z"/>
    <path class="st5" d="M296.95,253.12v2.45h-1.24v-2.28c0-.69-.31-1-.86-1s-1,.36-1,1.15v2.12h-1.24v-4.27h1.19v.5c.37-.38.88-.58,1.41-.56.92-.05,1.71.66,1.75,1.58,0,.1,0,.21-.01.31Z"/>
    <path class="st5" d="M309.87,251.05h-1.82v-1.05h4.85v1.05h-1.78v4.52h-1.29l.04-4.52Z"/>
    <path class="st5" d="M317.76,251.29v4.28h-1.18v-.51c-.34.37-.82.58-1.32.57-.94.08-1.76-.61-1.84-1.55-.01-.12,0-.25,0-.37v-2.42h1.24v2.23c0,.72.32,1,.86,1s1-.37,1-1.16v-2.07h1.23Z"/>
    <path class="st5" d="M323.05,253.78h-3.2c.14.55.66.92,1.22.86.4.01.79-.14,1.08-.42l.66.72c-.46.48-1.11.73-1.77.69-1.22.12-2.31-.77-2.43-1.99,0-.07-.01-.14-.01-.21-.02-1.2.94-2.19,2.15-2.21.04,0,.09,0,.13,0,1.17-.06,2.17.84,2.23,2,0,.07,0,.14,0,.22,0,.1-.06.23-.06.34ZM319.8,253.05h2.11c-.1-.58-.65-.98-1.23-.88-.45.08-.8.43-.88.88Z"/>
    <path d="M317.05,276.79v5.57h-.57v-5.07h-1.32v-.51h1.89Z"/>
    <path d="M345.4,281.85v.51h-3.9v-.41l2.31-2.26c.63-.62.75-1,.75-1.38,0-.64-.45-1-1.3-1-.57-.04-1.13.19-1.52.62l-.41-.35c.51-.55,1.25-.85,2-.8,1.12,0,1.84.58,1.84,1.51-.03.69-.36,1.32-.91,1.74l-1.9,1.86,3.04-.04Z"/>
    <path class="st6" d="M372.27,280.76c0,.93-.67,1.64-2,1.64-.73.03-1.45-.23-2-.71l.28-.45c.47.43,1.09.66,1.72.64.92,0,1.43-.43,1.43-1.12s-.47-1.11-1.5-1.11h-.4v-.42l1.54-1.93h-2.84v-.51h3.55v.41l-1.58,2c1.2.09,1.8.67,1.8,1.56Z"/>
    <path d="M399.91,280.89h-1.12v1.47h-.57v-1.47h-3.17v-.41l3-3.69h.63l-2.84,3.59h2.42v-1.28h.55v1.28h1.12l-.02.51Z"/>
    <path d="M290.33,303.87v.42l-2.28,5.15h-.62l2.29-5.06h-2.86v1h-.57v-1.55l4.04.04Z"/>
    <path d="M317.78,307.89c0,1-.84,1.6-2.17,1.6s-2.14-.62-2.14-1.6c0-.65.44-1.22,1.07-1.37-.53-.17-.88-.67-.87-1.22,0-.91.77-1.47,1.94-1.47s2,.56,2,1.47c0,.56-.36,1.06-.89,1.22.63.16,1.07.72,1.06,1.37ZM317.19,307.89c0-.68-.59-1.11-1.58-1.11s-1.56.43-1.56,1.11.58,1.12,1.56,1.12,1.58-.44,1.58-1.13h0ZM315.61,306.29c.87,0,1.39-.38,1.39-1s-.55-1-1.39-1-1.37.38-1.37,1,.51,1,1.37,1Z"/>
    <path d="M344.92,306.61c0,1.89-1,2.88-2.54,2.88-.46.02-.92-.09-1.32-.31l.23-.46c.33.19.7.29,1.08.27,1.2,0,2-.77,2-2.29v-.45c-.32.65-.99,1.04-1.71,1-.93.1-1.76-.57-1.86-1.5,0-.06,0-.11,0-.17,0-.96.79-1.72,1.74-1.72.05,0,.11,0,.16,0,1.43-.04,2.23.98,2.23,2.74ZM344.13,305.5c0-.61-.51-1.19-1.47-1.19-.67-.08-1.27.4-1.35,1.07,0,.05,0,.09,0,.14,0,.73.54,1.2,1.4,1.2.71.08,1.35-.43,1.42-1.14,0-.03,0-.05,0-.08Z"/>
    <path d="M368.05,303.87v5.57h-.57v-5.06h-1.31v-.51h1.88Z"/>
    <path d="M369.42,306.66c0-1.78.93-2.83,2.22-2.83s2.23,1.05,2.23,2.83-.94,2.83-2.23,2.83-2.22-1.06-2.22-2.83ZM373.28,306.66c0-1.49-.67-2.31-1.64-2.31s-1.64.82-1.64,2.31.67,2.3,1.64,2.3,1.64-.82,1.64-2.3Z"/>
    <path d="M396.58,303.87v5.57h-.53v-5.06h-1.31v-.51h1.84Z"/>
    <path d="M399.45,303.87v5.57h-.57v-5.06h-1.31v-.51h1.88Z"/>
    <path class="st6" d="M423.05,303.87v5.57h-.57v-5.06h-1.31v-.51h1.88Z"/>
    <path class="st6" d="M428.18,308.93v.51h-3.9v-.41l2.31-2.26c.63-.62.75-1,.75-1.38,0-.64-.46-1-1.31-1-.57-.03-1.13.2-1.52.62l-.4-.35c.51-.55,1.25-.84,2-.79,1.13,0,1.84.57,1.84,1.5-.02.69-.36,1.33-.91,1.74l-1.89,1.86,3.03-.04Z"/>
    <path d="M450.36,303.87v5.57h-.58v-5.06h-1.31v-.51h1.89Z"/>
    <path d="M455.37,307.84c0,.93-.68,1.65-2,1.65-.73.03-1.45-.23-2-.72l.27-.45c.47.43,1.09.66,1.73.64.92,0,1.43-.43,1.43-1.12s-.47-1.1-1.5-1.1h-.4v-.45l1.54-1.94h-2.84v-.51h3.57v.45l-1.57,2c1.17,0,1.77.66,1.77,1.55Z"/>
    <path d="M287.94,330.8v5.57h-.57v-5.08h-1.32v-.51l1.89.02Z"/>
    <path d="M294.05,334.91h-1.11v1.46h-.57v-1.46h-3.14v-.42l3-3.69h.63l-2.84,3.6h2.41v-1.29h.56v1.29h1.06v.51Z"/>
    <path d="M315.53,330.8v5.57h-.58v-5.08h-1.31v-.51l1.89.02Z"/>
    <path d="M320.63,334.73c0,.95-.66,1.69-2,1.69-.73.03-1.45-.23-2-.72l.28-.45c.46.43,1.07.66,1.7.64.95,0,1.45-.46,1.45-1.13s-.44-1.17-1.86-1.17h-1.15l.28-2.79h3v.49h-2.55l-.19,1.78h.72c1.74.02,2.32.68,2.32,1.66Z"/>
    <path d="M342.56,330.8v5.57h-.57v-5.08h-1.31v-.51l1.88.02Z"/>
    <path d="M348.05,334.71c-.01.96-.8,1.73-1.76,1.72-.05,0-.09,0-.14,0-1.48,0-2.28-1-2.28-2.79s1-2.87,2.54-2.87c.46-.02.92.08,1.32.3l-.23.46c-.33-.19-.7-.28-1.08-.26-1.2,0-2,.77-2,2.28v.45c.33-.63.99-1,1.7-.95.92-.14,1.77.49,1.91,1.41.01.09.02.17.02.26ZM347.49,334.71c0-.73-.54-1.2-1.4-1.2-.71-.08-1.35.43-1.42,1.14,0,.03,0,.05,0,.08,0,.61.5,1.19,1.47,1.19.67.09,1.28-.38,1.37-1.05,0-.05.01-.1.01-.15h-.02Z"/>
    <path d="M369.84,330.8v5.57h-.57v-5.08h-1.31v-.51l1.88.02Z"/>
    <path d="M375.1,330.8v.41l-2.33,5.16h-.62l2.29-5.06h-2.86v1h-.53v-1.55l4.05.04Z"/>
    <path d="M396.85,330.8v5.57h-.57v-5.08h-1.31v-.51l1.88.02Z"/>
    <path d="M402.46,334.82c0,1-.84,1.6-2.16,1.6s-2.15-.62-2.15-1.6c0-.65.44-1.22,1.07-1.37-.53-.17-.88-.67-.87-1.22,0-.91.77-1.47,1.95-1.47s2,.56,2,1.47c0,.56-.36,1.06-.89,1.22.62.16,1.06.73,1.05,1.37ZM401.87,334.82c0-.68-.59-1.11-1.57-1.11s-1.57.43-1.57,1.11.58,1.12,1.57,1.12,1.57-.44,1.57-1.13h0ZM400.3,333.29c.86,0,1.38-.39,1.38-1s-.55-1-1.38-1-1.38.38-1.38,1,.51,1,1.38,1Z"/>
    <path d="M424.17,330.8v5.57h-.57v-5.08h-1.31v-.51l1.88.02Z"/>
    <path d="M429.52,333.54c0,1.89-1,2.88-2.55,2.88-.46.02-.92-.09-1.32-.31l.23-.46c.33.19.7.28,1.08.27,1.2,0,2-.78,2-2.29,0-.15,0-.3,0-.45-.32.64-.98,1.04-1.7,1-.93.1-1.77-.58-1.87-1.51,0-.05,0-.11,0-.16,0-.96.79-1.72,1.74-1.72.05,0,.11,0,.16,0,1.43-.04,2.24.98,2.24,2.74ZM428.73,332.43c0-.61-.51-1.19-1.47-1.19-.67-.08-1.27.4-1.35,1.07,0,.05,0,.09,0,.14,0,.73.54,1.2,1.4,1.2.71.08,1.35-.43,1.42-1.14,0-.03,0-.05,0-.08Z"/>
    <path d="M452.62,335.86v.51h-3.91v-.41l2.32-2.26c.62-.62.74-1,.74-1.38,0-.64-.45-1-1.3-1-.57-.03-1.13.2-1.52.62l-.41-.35c.51-.55,1.25-.84,2-.79,1.13,0,1.84.57,1.84,1.5-.03.69-.36,1.32-.91,1.74l-1.9,1.86,3.05-.04Z"/>
    <path d="M453.3,333.59c0-1.78.93-2.83,2.22-2.83s2.23,1.05,2.23,2.83-.94,2.83-2.23,2.83-2.22-1.06-2.22-2.83ZM457.16,333.59c0-1.49-.67-2.31-1.64-2.31s-1.64.82-1.64,2.31.67,2.3,1.64,2.3,1.64-.82,1.64-2.3Z"/>
    <path d="M290.2,360.71v.51h-3.9v-.4l2.31-2.27c.63-.62.75-1,.75-1.37,0-.65-.45-1-1.3-1-.57-.04-1.14.19-1.52.62l-.41-.34c.51-.55,1.25-.85,2-.8,1.13,0,1.85.57,1.85,1.5-.03.69-.37,1.33-.92,1.74l-1.89,1.86,3.03-.05Z"/>
    <path d="M292.46,355.66v5.56h-.57v-5.05h-1.31v-.51h1.88Z"/>
    <path d="M316.6,360.71v.51h-3.91v-.4l2.32-2.27c.62-.62.74-1,.74-1.37,0-.65-.45-1-1.3-1-.57-.03-1.13.2-1.52.62l-.41-.34c.51-.55,1.25-.85,2-.8,1.13,0,1.84.57,1.84,1.5-.03.69-.36,1.32-.91,1.74l-1.9,1.86,3.05-.05Z"/>
    <path d="M321.11,360.71v.51h-3.9v-.4l2.31-2.27c.63-.62.75-1,.75-1.37,0-.65-.45-1-1.3-1-.57-.04-1.13.19-1.52.62l-.41-.34c.51-.55,1.25-.85,2-.8,1.12,0,1.84.57,1.84,1.5-.03.69-.36,1.32-.91,1.74l-1.9,1.86,3.04-.05Z"/>
    <path d="M343.83,360.71v.51h-3.9v-.4l2.31-2.27c.63-.62.75-1,.75-1.37,0-.65-.46-1-1.31-1-.57-.03-1.13.2-1.52.62l-.4-.34c.51-.55,1.25-.85,2-.8,1.13,0,1.84.57,1.84,1.5-.02.69-.36,1.33-.91,1.74l-1.89,1.86,3.03-.05Z"/>
    <path d="M348.23,359.62c0,.93-.68,1.65-2,1.65-.73.02-1.45-.23-2-.72l.27-.45c.47.44,1.09.67,1.73.65.92,0,1.43-.43,1.43-1.13s-.47-1.1-1.5-1.1h-.4v-.42l1.54-1.93h-2.84v-.51h3.59v.4l-1.57,2c1.15.05,1.75.67,1.75,1.56Z"/>
    <path d="M370.75,360.71v.51h-3.9v-.4l2.31-2.27c.63-.62.75-1,.75-1.37,0-.65-.45-1-1.31-1-.57-.04-1.13.19-1.51.62l-.41-.35c.51-.55,1.25-.85,2-.8,1.13,0,1.85.57,1.85,1.5-.03.69-.37,1.33-.92,1.74l-1.89,1.86,3.03-.04Z"/>
    <path d="M376.05,359.76h-1.12v1.46h-.57v-1.46h-3.14v-.41l3-3.69h.64l-2.93,3.63h2.42v-1.29h.55v1.29h1.15v.47Z"/>
    <path d="M398.26,360.71v.51h-3.91v-.4l2.32-2.27c.62-.62.74-1,.74-1.37,0-.65-.45-1-1.3-1-.57-.03-1.13.2-1.52.62l-.4-.34c.51-.56,1.25-.85,2-.8,1.13,0,1.84.57,1.84,1.5-.03.69-.36,1.32-.91,1.74l-1.89,1.86,3.03-.05Z"/>
    <path d="M402.75,359.58c0,1-.66,1.69-2,1.69-.73.03-1.45-.23-2-.72l.27-.45c.46.43,1.08.67,1.71.65.95,0,1.45-.47,1.45-1.14s-.44-1.16-1.86-1.16h-1.18l.28-2.79h3.05v.51h-2.55l-.19,1.77h.72c1.67,0,2.3.66,2.3,1.64Z"/>
    <path d="M425.32,360.71v.51h-3.91v-.4l2.32-2.27c.63-.62.75-1,.75-1.37,0-.65-.46-1-1.31-1-.57-.03-1.13.2-1.52.62l-.4-.34c.51-.55,1.25-.85,2-.8,1.13,0,1.84.57,1.84,1.5-.02.69-.36,1.33-.91,1.74l-1.89,1.86,3.03-.05Z"/>
    <path d="M430.19,359.56c-.01.96-.8,1.73-1.76,1.72-.05,0-.09,0-.14,0-1.48,0-2.28-1-2.28-2.78s1-2.88,2.54-2.88c.46-.02.91.09,1.32.3l-.23.46c-.33-.19-.7-.28-1.08-.26-1.2,0-2,.77-2,2.28,0,.15,0,.31,0,.46.31-.65.98-1.04,1.7-1,.92-.14,1.77.49,1.91,1.41.01.1.02.2.02.3ZM429.62,359.56c0-.73-.54-1.2-1.4-1.2-.7-.08-1.34.42-1.42,1.12,0,.03,0,.06,0,.09,0,.61.51,1.2,1.47,1.2.67.08,1.27-.4,1.35-1.07,0-.04,0-.08,0-.12v-.02Z"/>
    <path d="M452.62,360.71v.51h-3.91v-.4l2.32-2.27c.62-.62.74-1,.74-1.37,0-.65-.45-1-1.3-1-.57-.03-1.13.2-1.52.62l-.41-.34c.51-.55,1.25-.85,2-.8,1.13,0,1.84.57,1.84,1.5-.03.69-.36,1.32-.91,1.74l-1.9,1.86,3.05-.05Z"/>
    <path d="M457.23,355.66v.4l-2.33,5.16h-.62l2.29-5.05h-2.86v1h-.57v-1.55l4.09.04Z"/>
    <path d="M290.2,384.52v.51h-3.9v-.41l2.31-2.26c.63-.62.75-1,.75-1.38,0-.64-.45-1-1.3-1-.57-.04-1.14.19-1.52.62l-.41-.35c.51-.55,1.25-.85,2-.8,1.13,0,1.85.58,1.85,1.51-.03.69-.37,1.33-.92,1.74l-1.89,1.86,3.03-.04Z"/>
    <path d="M295.2,383.48c0,1-.84,1.59-2.17,1.59s-2.14-.61-2.14-1.59c0-.65.44-1.22,1.07-1.37-.53-.17-.88-.67-.87-1.22,0-.91.77-1.48,1.94-1.48s2,.57,2,1.48c0,.56-.36,1.06-.89,1.22.63.16,1.07.72,1.06,1.37ZM294.61,383.48c0-.69-.59-1.11-1.58-1.11s-1.56.42-1.56,1.11.58,1.12,1.56,1.12,1.58-.44,1.58-1.13h0ZM293.05,381.9c.87,0,1.39-.39,1.39-1s-.55-1-1.39-1-1.37.38-1.37,1,.49,1,1.37,1Z"/>
    <path d="M318.05,384.52v.51h-3.9v-.41l2.31-2.26c.63-.62.75-1,.75-1.38,0-.64-.45-1-1.3-1-.57-.04-1.14.19-1.52.62l-.41-.35c.51-.55,1.25-.85,2-.8,1.13,0,1.85.58,1.85,1.51-.03.69-.37,1.33-.92,1.74l-1.86,1.82h3Z"/>
    <path d="M322.81,382.2c0,1.89-1,2.87-2.55,2.87-.46.02-.92-.08-1.32-.3l.23-.46c.33.19.7.28,1.08.26,1.2,0,2-.77,2-2.28,0-.15,0-.3,0-.45-.33.63-.99,1-1.7.95-.93.1-1.76-.56-1.87-1.49,0-.06-.01-.12-.01-.18.01-.96.8-1.73,1.76-1.72.05,0,.09,0,.14,0,1.48,0,2.24,1.03,2.24,2.79ZM322.05,381.09c0-.61-.51-1.19-1.47-1.19-.67-.08-1.27.4-1.35,1.07,0,.05,0,.09,0,.14,0,.73.54,1.2,1.4,1.2.71.08,1.35-.43,1.42-1.14,0-.03,0-.05,0-.08Z"/>
    <path d="M345.51,383.43c0,.93-.67,1.64-2,1.64-.73.03-1.45-.23-2-.71l.28-.45c.47.43,1.09.66,1.72.64.93,0,1.44-.43,1.44-1.12s-.47-1.11-1.51-1.11h-.39v-.42l1.54-1.93h-2.85v-.51h3.58v.41l-1.57,2c1.17.04,1.76.67,1.76,1.56Z"/>
    <path d="M346.32,382.29c0-1.77.93-2.83,2.22-2.83s2.22,1.06,2.22,2.83-.93,2.83-2.22,2.83-2.22-1.1-2.22-2.83ZM350.18,382.29c0-1.48-.67-2.3-1.64-2.3s-1.64.82-1.64,2.3.67,2.31,1.64,2.31,1.64-.87,1.64-2.31Z"/>
    <path d="M374.47,383.43c0,.93-.68,1.64-2,1.64-.73.03-1.45-.23-2-.71l.28-.45c.47.43,1.09.66,1.73.64.92,0,1.43-.43,1.43-1.12s-.47-1.11-1.5-1.11h-.4v-.42l1.54-1.93h-2.84v-.51h3.57v.41l-1.57,2c1.16.04,1.76.67,1.76,1.56Z"/>
    <path d="M376.82,379.46v5.57h-.58v-5.06h-1.31v-.51h1.89Z"/>
    <path d="M426.3,280.72c0,.95-.66,1.68-2,1.68-.73.03-1.45-.23-2-.71l.28-.45c.47.43,1.08.66,1.71.64.95,0,1.45-.46,1.45-1.14s-.45-1.16-1.86-1.16h-1.19l.29-2.79h3v.5h-2.55l-.19,1.77h.72c1.7,0,2.34.67,2.34,1.66Z"/>
    <path d="M453.5,280.69c0,.95-.77,1.72-1.72,1.72-.06,0-.11,0-.17,0-1.48,0-2.29-1-2.29-2.78s1-2.88,2.55-2.88c.46-.02.92.09,1.32.31l-.23.46c-.33-.19-.7-.28-1.08-.27-1.21,0-2,.78-2,2.29,0,.15,0,.3,0,.45.33-.63.99-1,1.7-.95.92-.13,1.77.5,1.9,1.42.01.08.02.16.02.24ZM452.94,280.69c0-.73-.54-1.2-1.4-1.2-.71-.08-1.35.43-1.42,1.14,0,.03,0,.05,0,.08,0,.61.51,1.19,1.47,1.19.67.08,1.27-.4,1.35-1.07,0-.04,0-.08,0-.12v-.02Z"/>
    <path class="st5" d="M342.47,250l-1.82,5.57h-1.38l-1.22-3.77-1.26,3.77h-1.38l-1.82-5.57h1.33l1.26,3.91,1.31-3.91h1.19l1.27,3.94,1.3-3.94h1.22Z"/>
    <path class="st5" d="M346.95,253.78h-3.23c.14.55.66.92,1.22.86.4.01.79-.14,1.08-.42l.66.72c-.46.48-1.11.73-1.77.69-1.22.12-2.31-.77-2.43-1.99,0-.07-.01-.14-.01-.21-.01-1.2.95-2.19,2.16-2.2.04,0,.08,0,.12,0,1.16-.07,2.16.82,2.23,1.98,0,.08,0,.15,0,.23,0,.1-.02.23-.03.34ZM343.7,253.05h2.11c-.1-.58-.65-.98-1.23-.88-.45.08-.8.43-.88.88Z"/>
    <path class="st5" d="M352.17,249.67v5.9h-1.19v-.5c-.33.38-.82.59-1.33.56-1.22,0-2.2-.98-2.2-2.2s.98-2.2,2.2-2.2h0c.48-.03.95.16,1.28.51v-2.07h1.24ZM350.95,253.43c-.04-.61-.57-1.06-1.18-1.02-.61.04-1.06.57-1.02,1.18.04.58.52,1.02,1.1,1.02.6,0,1.09-.48,1.09-1.09,0-.03,0-.06,0-.09Z"/>
    <path class="st5" d="M364.3,251.05h-1.78v-1.05h4.85v1.05h-1.78v4.52h-1.29v-4.52Z"/>
    <path class="st5" d="M372.35,253.12v2.45h-1.24v-2.28c0-.69-.32-1-.86-1s-1,.36-1,1.15v2.12h-1.24v-5.9h1.24v2.06c.37-.34.86-.52,1.36-.5.92-.05,1.71.66,1.75,1.58,0,.11,0,.21-.01.32Z"/>
    <path class="st5" d="M377.79,251.29v4.28h-1.18v-.51c-.34.37-.82.58-1.33.57-.94.08-1.76-.61-1.84-1.55-.01-.12,0-.25,0-.37v-2.42h1.24v2.23c0,.72.32,1,.87,1s1-.37,1-1.16v-2.07h1.23Z"/>
    <path class="st5" d="M394.34,251.03v1.48h2.58v1h-2.58v2h-1.29v-5.57h4.21v1l-2.92.09Z"/>
    <path class="st5" d="M400.62,251.23v1.14h-.27c-.58-.05-1.1.38-1.15.97,0,.08,0,.16,0,.23v2h-1.24v-4.28h1.18v.56c.36-.43.91-.66,1.47-.62Z"/>
    <path class="st5" d="M401.22,250c0-.39.34-.7.73-.69.01,0,.03,0,.04,0,.38-.04.73.24.77.63,0,.01,0,.03,0,.04,0,.43-.34.77-.77.77s-.77-.34-.77-.77v.02ZM401.37,251.29h1.24v4.28h-1.24v-4.28Z"/>
    <path class="st5" d="M418.65,255.02l.44-1c.54.37,1.18.57,1.83.58.77,0,1.08-.26,1.08-.6,0-1-3.24-.32-3.24-2.39,0-.95.76-1.73,2.35-1.73.68-.02,1.34.15,1.93.49l-.4,1c-.47-.28-1-.43-1.54-.44-.77,0-1.06.29-1.06.64,0,1,3.24.31,3.24,2.36,0,.93-.78,1.72-2.37,1.72-.8.02-1.59-.2-2.26-.63Z"/>
    <path class="st5" d="M427.86,253.13v2.44h-1.16v-.54c-.29.42-.79.65-1.3.6-1,0-1.6-.56-1.6-1.3s.53-1.28,1.83-1.28h1c0-.53-.32-.84-1-.84-.44,0-.88.13-1.23.4l-.44-.87c.55-.35,1.19-.52,1.84-.51,1.3,0,2.06.6,2.06,1.9ZM426.62,254.21v-.43h-.85c-.58,0-.76.21-.76.5s.26.52.69.52c.4.03.78-.21.92-.59Z"/>
    <path class="st5" d="M431.74,255.36c-.3.19-.65.28-1,.27-.77.11-1.47-.42-1.58-1.19-.02-.11-.02-.23,0-.34v-1.76h-.66v-1h.66v-1h1.23v1h1.07v1h-1.07v1.74c-.03.27.16.52.43.56.04,0,.07,0,.11,0,.18,0,.35-.05.5-.15l.32.87Z"/>
    <path class="st5" d="M444.71,255.02l.44-1c.54.37,1.18.57,1.84.58.76,0,1.07-.26,1.07-.6,0-1-3.24-.32-3.24-2.39,0-.95.77-1.73,2.35-1.73.68-.02,1.34.15,1.93.49l-.4,1c-.47-.28-1-.43-1.54-.44-.76,0-1.06.28-1.06.63,0,1,3.24.32,3.24,2.37,0,.93-.77,1.72-2.36,1.72-.8.02-1.59-.2-2.27-.63Z"/>
    <path class="st5" d="M454.45,251.29v4.28h-1.18v-.51c-.34.37-.82.58-1.33.57-.94.08-1.76-.61-1.84-1.55-.01-.12,0-.25,0-.37v-2.42h1.24v2.23c0,.72.32,1,.87,1s1-.37,1-1.16v-2.07h1.23Z"/>
    <path class="st5" d="M459.98,253.12v2.45h-1.24v-2.28c0-.69-.32-1-.87-1s-1,.36-1,1.15v2.12h-1.24v-4.27h1.19v.5c.37-.38.88-.59,1.41-.57.93-.05,1.72.67,1.76,1.59,0,.1,0,.21-.01.31Z"/>
  </g>
</svg>