<?xml version="1.0" encoding="UTF-8"?>
<svg id="Layer_1" xmlns="http://www.w3.org/2000/svg" version="1.1" viewBox="0 0 750 500">
  <!-- Generator: Adobe Illustrator 30.1.0, SVG Export Plug-In . SVG Version: 2.1.1 Build 136)  -->
  <defs>
    <style>
      .st0 {
        fill: #e0e0e0;
      }

      .st1 {
        fill: #a36957;
      }

      .st2 {
        fill: #ffbe9d;
      }

      .st3 {
        fill: #ebebeb;
      }

      .st4 {
        fill: #263238;
      }

      .st5 {
        fill: #eb996e;
      }

      .st6 {
        fill: #7c3b29;
      }

      .st7 {
        fill: #70aec6;
      }

      .st8 {
        fill: #fff;
      }

      .st9 {
        opacity: .2;
      }

      .st10 {
        opacity: .3;
      }

      .st11 {
        fill: #455a64;
      }
    </style>
  </defs>
  <g id="freepik--character-1--inject-120">
    <path class="st2" d="M360.55,147.88l-3.42,88.31-44.22-1.43c-.52-5.13-1.1-25-1.1-25,0,0-18.46-2-19.55-20.3-.53-8.89-.13-27.35.42-44,.62-18.45,15.86-33.03,34.32-32.85h0c18.78.24,33.81,15.65,33.57,34.42,0,.28-.01.56-.02.85Z"/>
    <path class="st5" d="M311.79,209.76c8.47-.24,16.67-3,23.57-7.92,0,0-5,13.45-23.38,12.67l-.19-4.75Z"/>
    <path class="st4" d="M298.69,158.56c.05,1.42,1.23,2.54,2.65,2.52,1.39.04,2.54-1.04,2.59-2.43,0-.02,0-.03,0-.05-.05-1.42-1.23-2.54-2.65-2.53-1.39-.04-2.55,1.06-2.59,2.45,0,.01,0,.03,0,.04Z"/>
    <path class="st4" d="M297.06,154.79c.34.33,2.25-1.23,5.07-1.36s4.95,1.19,5.24.83c.14-.16-.22-.76-1.15-1.38-1.26-.79-2.74-1.16-4.22-1.08-1.46.07-2.86.6-4,1.51-.84.69-1.11,1.34-.94,1.48Z"/>
    <path class="st4" d="M325.38,158.47c.05,1.41,1.21,2.53,2.62,2.53,1.39.04,2.54-1.04,2.59-2.43,0-.02,0-.04,0-.06-.05-1.39-1.19-2.5-2.59-2.51-1.38-.07-2.55,1-2.62,2.38,0,.03,0,.06,0,.09Z"/>
    <path class="st4" d="M324.77,154c.34.32,2.25-1.24,5.07-1.36s5,1.18,5.24.82c.14-.16-.22-.76-1.15-1.37-1.26-.78-2.73-1.16-4.21-1.08-1.46.06-2.86.59-4,1.51-.85.71-1.12,1.34-.95,1.48Z"/>
    <path class="st4" d="M315.53,175.38c0-.16-1.75-.38-4.61-.61-.72,0-1.41-.15-1.55-.64-.1-.74.03-1.49.38-2.15.59-1.78,1.21-3.63,1.86-5.58,2.59-7.94,4.42-14.45,4.1-14.55s-2.71,6.25-5.26,14.15c-.62,1.95-1.21,3.82-1.77,5.6-.42.89-.5,1.89-.24,2.84.24.5.69.87,1.23,1,.4.09.82.12,1.23.11,2.86.06,4.63-.01,4.63-.17Z"/>
    <path class="st4" d="M323.91,176.93c-.45,0-.32,3-2.83,5.35s-5.78,2.11-5.79,2.54c0,.19.76.56,2.13.53,1.79-.06,3.51-.75,4.84-1.95,1.28-1.15,2.07-2.75,2.18-4.47.06-1.28-.32-2.03-.53-2Z"/>
    <path class="st4" d="M323.52,143c.31.76,3.11.26,6.43.5s6,1,6.44.31c.18-.34-.31-1-1.43-1.72-3-1.7-6.62-1.93-9.81-.62-1.15.53-1.77,1.18-1.63,1.53Z"/>
    <path class="st4" d="M297.71,146.59c.53.62,2.43-.14,4.77-.28s4.32.23,4.75-.46c.18-.34-.16-1-1.05-1.53-2.44-1.37-5.47-1.13-7.67.6-.79.7-1.03,1.37-.8,1.67Z"/>
    <path class="st4" d="M339.72,129l.11.07c3.03,2.17,5.1,5.41,5.8,9.07,0,.13,0,.25.07.37,1,5.19,1.08,10.52,2.1,15.7s3.07,10.41,7.1,13.82c1.66,1.41,4.51,2.29,5.74.5.4-.74.59-1.59.54-2.43.38-12.67,3.29-24,2.65-37.22-.16-3.59-2.04-6.88-5.05-8.84-2.86-1.85-6.33-3.74-9.33-2.15s-6.71,7.54-9,10.09"/>
    <path class="st2" d="M354.79,156.77c.3-.15,12.41-4.32,12.6,8.23s-12.44,10.15-12.47,9.79-.13-18.02-.13-18.02Z"/>
    <path class="st5" d="M358.68,170c.06,0,.22.15.59.31.53.21,1.11.21,1.64,0,1.32-.51,2.4-2.63,2.43-4.89.02-1.08-.21-2.14-.66-3.12-.25-.79-.87-1.42-1.67-1.66-.52-.13-1.06.13-1.28.62-.17.36-.08.61-.15.63s-.27-.21-.18-.73c.06-.31.23-.59.48-.79.34-.27.78-.39,1.21-.34,1.05.19,1.93.91,2.31,1.91.55,1.08.83,2.28.81,3.49,0,2.53-1.3,4.91-3.1,5.46-.68.21-1.41.1-2-.3-.4-.31-.47-.59-.43-.59Z"/>
    <path class="st4" d="M351.34,121.77c3.62-4.65-4-12.73-10-15.35s-14.37-.49-20.72.87c-4,.86-8.05,2.23-12.1,1.62-2.69-.57-5.28-1.54-7.68-2.88-2.41-1.33-5.07-2.17-7.81-2.45-2.74-.11-5.7,1-7,3.45s-.21,6,2.45,6.71c-3.24-2.28-8.5-.33-9.49,3.51s2.68,8.08,6.62,7.66c-1.62-1.54-4.59.38-4.61,2.62-.02,2.24,1.81,4.07,3.75,5.19,5,2.85,11.09,2.78,16.67,1.56s10.88-3.51,16.43-4.87,14.87-3.88,20-1.4c3.8,1.82,6,6.87,8.36,6.06,2.26-.9,3.95-2.82,4.56-5.17.56-2.33.74-4.74.53-7.13"/>
    <path class="st11" d="M289.18,114.65s-.24.11-.63.39c-.57.41-1.02.98-1.28,1.63-.43,1.02-.53,2.16-.27,3.24.33,1.44,1.24,2.67,2.51,3.42,1.55.9,3.3,1.38,5.09,1.39,2.06.01,4.11-.29,6.08-.89,4.21-1.22,8.38-3.71,12.78-6.24s8.89-4.64,13.35-5.18c2.1-.27,4.23-.14,6.28.39,1.8.47,3.49,1.26,5,2.34,2.19,1.53,3.96,3.6,5.13,6,.45.86.79,1.78,1,2.73-.06,0-.3-1-1.15-2.64-1.23-2.31-3-4.29-5.16-5.76-1.47-1.03-3.11-1.78-4.85-2.22-2-.5-4.08-.61-6.12-.33-4.34.55-8.77,2.65-13.14,5.16s-8.61,5-12.9,6.24c-2.02.61-4.13.9-6.24.86-1.86-.03-3.68-.55-5.27-1.52-.69-.44-1.28-1.01-1.76-1.67-1.08-1.59-1.26-3.63-.47-5.38.3-.67.79-1.24,1.41-1.63.19-.14.39-.25.61-.33Z"/>
    <path class="st11" d="M333.51,108.31c.27-.05.55-.05.82,0,.74.05,1.47.18,2.18.39,4.88,1.37,8.4,5.61,8.88,10.65.07.74.07,1.48,0,2.22,0,.27-.07.54-.17.79-.1,0,.07-1.15-.19-3-.64-4.83-4-8.86-8.63-10.36-1.74-.55-2.9-.59-2.89-.69Z"/>
    <path class="st11" d="M363.57,140.46c-.31.17-.65.27-1,.28-.98.08-1.97-.13-2.83-.61-1.29-.7-2.33-1.77-3-3.07-.78-1.57-1.35-3.23-1.72-4.94-.36-1.67-.92-3.29-1.67-4.83-.62-1.23-1.6-2.25-2.81-2.92-.81-.46-1.73-.69-2.66-.66-.65,0-1,.17-1,.12.3-.18.65-.29,1-.32.98-.11,1.97.07,2.84.53,1.3.66,2.37,1.71,3.06,3,.79,1.57,1.37,3.24,1.72,4.96.36,1.67.91,3.3,1.64,4.84.61,1.24,1.56,2.29,2.75,3,.8.47,1.71.73,2.64.73.66-.04,1.02-.16,1.04-.11Z"/>
    <path class="st11" d="M362.91,148.75s-.1,0-.31.08c-.3.06-.6.1-.9.12-1.12.08-2.25,0-3.34-.26-3.67-.85-6.88-3.06-9-6.17-2.07-3.08-3.34-6.63-3.69-10.33-.04-.62-.13-1.24-.29-1.84-.12-.44-.38-.83-.73-1.12-.31-.24-.69-.38-1.08-.41.42-.14.88-.05,1.21.24.41.3.71.71.87,1.19.19.61.32,1.25.38,1.89.45,3.61,1.74,7.06,3.76,10.08,2.05,3,5.11,5.17,8.62,6.11,1.48.33,2.99.48,4.5.42Z"/>
    <path class="st3" d="M275.18,465.51l142-.92-14.33-85.82-2.49-147.55-28.36-8.66-14-7.9-46.07,5.83-5.93,7.51s-20.16,6.8-28.88,10.79l-.6.27c-6.18,2.82-11.42,7.37-15.09,13.09l-38.43,59.79-56.2-32.77-19.8,28.83s69,57.44,81.51,56.27,16.85-1.18,21.17-7.06c3.31-4.52,16.32-19.83,22.52-30.06l6.33,70.69-3.35,67.67Z"/>
    <path class="st4" d="M320.17,465.6c-.15,0-1.29-31.44-2.54-70.23s-2.17-70.25-2-70.25,1.28,31.43,2.54,70.24,2.14,70.24,2,70.24Z"/>
    <polygon class="st2" points="312.11 219.91 315.68 327.25 357.96 214.66 312.11 219.91"/>
    <path class="st4" d="M316,333.3c-.06-.1-.11-.21-.14-.33-.1-.24-.22-.56-.37-1-.35-.88-.83-2.12-1.45-3.71-1.29-3.2-3.18-7.83-5.8-13.42-1.34-2.79-2.84-5.82-4.62-9-1.84-3.36-4.06-6.49-6.62-9.34-1.4-1.44-3.07-2.95-3.66-5.16-.25-1.1-.23-2.24.08-3.32.27-1.08.65-2.12,1-3.17,1.39-4.23,2.84-8.6,4.31-13.07l.09-.28.27.34-17,1.54v-.5l9.07-18c2.79-5.48,5.31-10.31,7.48-14.29s4-7.12,5.27-9.23c.65-1.06,1.17-1.87,1.53-2.41l.41-.6c.1-.14.15-.21.16-.2l-.12.22-.38.63c-.34.59-.83,1.4-1.45,2.45-1.25,2.14-3,5.29-5.14,9.29s-4.62,8.84-7.38,14.34l-4.34,8.7-2.33,4.66-1.21,2.4-.63,1.21-.33.6-.17.31-.1.15c-.07.11-.18.2-.3.24v-.5l17-1.56h.39l-.12.38-.09.27c-1.48,4.47-2.93,8.84-4.32,13.07-.66,2.09-1.62,4.19-1.08,6.21s2.12,3.5,3.52,4.94c2.59,2.9,4.83,6.1,6.67,9.53,1.78,3.18,3.26,6.23,4.58,9,2.58,5.62,4.43,10.28,5.66,13.51.6,1.62,1.06,2.88,1.35,3.74.15.43.26.76.33,1,0,.12,0,.24-.02.36Z"/>
    <path class="st4" d="M315.86,334.31c-.02-.12-.02-.23,0-.35l.16-1c.24-1.31.59-2.59,1.05-3.84,1.81-4.57,4.12-8.93,6.87-13,1.71-2.6,3.66-5.4,5.87-8.34,2.33-3.14,4.84-6.14,7.5-9,2.96-3.21,6.21-6.15,9.69-8.78,1.86-1.38,3.79-2.66,5.79-3.83,2-1.2,4.1-2.34,6.1-3.67l-.07.36c-2.73-4.07-6.42-7.4-10.75-9.69l-.36-.19.33-.24c6.18-4.61,13.39-7.66,21-8.89l-.19.21,2.17-29.84c.28-3.6.5-6.46.66-8.44.08-1,.14-1.7.19-2.23l.06-.57c-.01-.07-.01-.13,0-.2,0,.07,0,.13,0,.2v.57c0,.54-.07,1.29-.12,2.24-.12,2-.3,4.84-.52,8.45-.49,7.29-1.17,17.6-2,29.86v.18h-.18c-7.54,1.24-14.67,4.27-20.79,8.84v-.43c4.41,2.33,8.17,5.71,10.94,9.85l.15.21-.22.15c-2,1.34-4.12,2.49-6.13,3.69-1.98,1.16-3.9,2.42-5.75,3.78-3.45,2.61-6.67,5.52-9.62,8.69-2.67,2.86-5.17,5.86-7.5,9-2.22,2.91-4.19,5.69-5.91,8.28-2.78,4.03-5.12,8.33-7,12.85-.48,1.23-.87,2.5-1.14,3.79-.09.42-.16.76-.21,1-.01.11-.03.22-.07.33Z"/>
    <rect class="st4" x="339.78" y="301.58" width="29.86" height="5.81"/>
    <path class="st4" d="M362.9,353.91c-.16.07-.33.12-.51.15l-1.48.32c-1.82.38-3.67.64-5.53.79-2.78.25-5.58-.09-8.22-1-3.28-1.14-6-3.5-7.6-6.59-1.42-3.12-2.12-6.51-2.07-9.93,0-3.13.1-5.9.11-8.26s.08-4.25.15-5.57c0-.66.07-1.17.1-1.51,0-.18.03-.36.08-.53.01.18.01.35,0,.53v15.33c-.03,3.35.67,6.66,2.06,9.71,1.53,2.97,4.14,5.25,7.29,6.37,2.56.9,5.29,1.27,8,1.07,1.85-.11,3.69-.32,5.51-.62l1.5-.22c.2-.04.41-.05.61-.04Z"/>
    <path class="st4" d="M368.3,321.09c0,.14-6.8.42-15.18.61s-15.19.24-15.19.09,6.79-.41,15.18-.61,15.19-.18,15.19-.09Z"/>
    <path class="st7" d="M353.51,321.3v-9.91c0-1.61,1.3-2.91,2.91-2.91h0c1.61,0,2.91,1.3,2.91,2.91h0v16.33c.04.55-.38,1.03-.93,1.07s-1.03-.38-1.07-.93v-.39c0-2.49-.28-6.29-.28-6.29l-3.54.12Z"/>
    <path class="st4" d="M353,338.42c-.26-2.32-.34-4.66-.26-7-.09-2.34,0-4.68.26-7,.26,2.32.35,4.66.26,7,.08,2.34,0,4.68-.26,7Z"/>
    <path class="st4" d="M358.63,351.39c-.14,0-.26-5-.26-11.14s.12-11.14.26-11.14.26,5,.26,11.14-.11,11.14-.26,11.14Z"/>
    <path class="st7" d="M312.86,242.49l13.89,16.95c9.81-9.9,16.86-19.68,23-24,0,0-34.06,93.32-34.11,91.77s-2.78-84.72-2.78-84.72Z"/>
    <path class="st4" d="M349.79,235.48c-.1.14-.22.27-.35.39l-1.08,1c-.94.89-2.28,2.21-3.92,3.85-3.29,3.27-7.66,8-12.43,13.2s-9.2,9.9-12.56,13.12c-1.68,1.61-3.06,2.88-4.05,3.73l-1.14,1c-.13.12-.27.23-.42.32,0,0,.11-.15.35-.39l1.07-1c.95-.89,2.29-2.21,3.93-3.85,3.28-3.27,7.65-8,12.43-13.2s9.2-9.9,12.56-13.12c1.68-1.61,3.06-2.88,4.05-3.73l1.13-1c.27-.23.41-.34.43-.32Z"/>
    <path class="st4" d="M326.66,259.37c-.11.09-3.29-3.61-7.1-8.27s-6.81-8.52-6.7-8.61,3.29,3.61,7.1,8.28,6.81,8.51,6.7,8.6Z"/>
    <path class="st4" d="M267.62,274.91c.06.23.1.46.12.7.07.51.15,1.18.25,2,.21,1.75.48,4.28.8,7.42.63,6.27,1.38,14.94,2.16,24.52s1.5,18.2,2,24.53c.26,3.09.47,5.62.62,7.43.07.84.12,1.51.16,2,.02.24.02.47,0,.71-.07-.23-.11-.46-.13-.7-.06-.51-.14-1.18-.25-2-.21-1.75-.48-4.28-.79-7.42-.63-6.27-1.39-14.94-2.17-24.52s-1.49-18.2-2-24.53c-.26-3.09-.47-5.62-.63-7.43-.06-.84-.11-1.51-.15-2-.02-.24-.02-.47.01-.71Z"/>
    <path class="st3" d="M398.31,231s22.26,0,27.84,42.82,17.85,121.35-4.46,136.24-125.69,13.84-125.69,13.84v-41.48l84.82-9.36s-.32-7.72,4-7.66l-4.82-97.88s-1-34.66,18.31-36.52Z"/>
    <path class="st4" d="M380.22,300.05s0,.4.09,1.18.11,2,.2,3.48c.16,3.07.4,7.55.71,13.29.59,11.51,1.44,28.05,2.48,48.2v.21h-.22c-.72.02-1.41.28-1.95.75-.55.53-.96,1.18-1.2,1.91-.5,1.54-.72,3.16-.64,4.78v.21h-.2l-83.46,8.59.23-.26v41.51l-.25-.25c36.11.39,67.6-1,89.85-3.85,5.57-.71,10.54-1.52,14.87-2.37,3.68-.73,7.32-1.64,10.91-2.75,1.45-.49,2.73-1,3.83-1.39s2-.86,2.71-1.23l1.58-.9.55-.29s-.17.12-.52.33l-1.57.94c-.71.38-1.63.77-2.7,1.28s-2.37.92-3.83,1.42c-3.58,1.14-7.23,2.09-10.91,2.84-4.33.88-9.31,1.71-14.87,2.44-22.27,2.89-53.78,4.4-89.91,4h-.25v-41.94h.24l83.46-8.5-.2.23c-.09-1.69.14-3.39.68-5,.26-.79.71-1.5,1.31-2.07.62-.53,1.41-.83,2.23-.86l-.2.22c-1-20.15-1.75-36.69-2.29-48.21-.26-5.74-.47-10.22-.61-13.29-.06-1.52-.1-2.68-.14-3.48s0-1.17,0-1.17Z"/>
    <path class="st4" d="M395.7,376.3c-.09,0-.42-.86-1.18-2.16-1-1.69-2.28-3.19-3.79-4.45-1.51-1.25-3.23-2.23-5.07-2.91-1.41-.51-2.35-.67-2.33-.76.83,0,1.66.13,2.45.41,3.91,1.2,7.17,3.91,9.06,7.53.42.72.72,1.51.86,2.34Z"/>
    <path class="st4" d="M385.73,384c-1.2-3.96-3.41-7.53-6.42-10.37.56.26,1.07.63,1.49,1.08,1.1,1,2.06,2.15,2.84,3.42.79,1.26,1.39,2.63,1.8,4.06.22.58.32,1.19.29,1.81Z"/>
    <polygon class="st7" points="92.67 262.34 153.47 424 282.44 426.61 229.29 263.45 92.67 262.34"/>
    <path class="st8" d="M188.88,341.4c1.01-.07.29-3.91.29-3.91.11-1.45.11-2.9,0-4.35-.19-1.81.75-3.47,1.4-5.15s0-6.15-.84-8.43-.25-2.45-.25-2.45c2.6-.84.2-6.24-1.54-11.29s-3.48-4.68-3.48-4.68c0,0-1.16-.04-1.83,4.07s-1.8,5.57-4.3,5.56h-1.33c-2.53,0-4.74-1.77-8.28-6.03s-4.69-4.31-4.69-4.31c0,0-2.03-.5-.31,4.55s3.01,10.39,6.26,11.47c0,0,.67.24,1.44,2.53s3.18,6.8,5,8.56,3.94,3.54,5,5.38,3.04,4.46,3.04,4.46c0,0,2.42,3.91,3.5,4.05l.92-.03Z"/>
    <path class="st4" d="M92.67,262.34l136.62.89h.15l.05.15c14.93,45.78,32.88,100.84,52.19,160l1,3.11.12.35h-.37l-129-2.63h-.16l-.06-.15-60.54-161.72c.72,1.93,24.85,65.8,61,161.58l-.21-.15,129,2.58-.25.34c-.34-1-.68-2.06-1-3.11l-52.1-160.06.2.15-136.64-1.33Z"/>
    <path class="st2" d="M296.2,385.8h-12.93s-6.62-6.39-8.42-7.29-10.64-3.57-10.64-3.57l3.41,9.46c.53.15,1.06.34,1.57.55,2.26.88,1.63,2.88-.17,2.88h-13.02s-13.34-6.4-15.32-5.23c-1.66,1-2.24,2.75-.54,5.23s13.39,8.31,14.73,8.76l3.82,1.12-3.59,1.12-17-5.93c-1.11-.2-2.63-.38-3.13.26-.88.89-.87,2.33.02,3.21.02.02.05.05.07.07,2.42,2.19,4.99,4.21,7.69,6.05,0,0-2.71,4-.47,6s8.76,8.09,8.76,8.09c0,0,.68,3.37,2.7,4.94s24.26,1.57,25.83,1.57,10.56-5.16,10.56-5.16l5.88-.62.19-31.51Z"/>
    <path class="st5" d="M257.65,408.91c-.78.25-1.61.36-2.43.33-.91,0-1.81-.16-2.66-.47-1.02-.4-1.99-.92-2.89-1.54-1.93-1.25-3.65-2.41-4.89-3.27-.69-.42-1.34-.92-1.93-1.48.75.31,1.47.7,2.14,1.17,1.28.78,3,1.89,5,3.14.87.6,1.81,1.11,2.78,1.53.8.32,1.64.51,2.5.55,1.44.07,2.38-.05,2.38.04Z"/>
    <path class="st5" d="M258.67,417.23s-.48.64-1.68.95c-1.57.34-3.21.06-4.59-.77-1.35-.77-2.6-1.7-3.72-2.77-.5-.41-.93-.89-1.27-1.44.12-.14,2.16,2,5.24,3.75,1.28.78,2.78,1.08,4.26.87.6-.14,1.19-.34,1.76-.59Z"/>
    <path class="st5" d="M265,398.82c-1.18.15-2.38.05-3.52-.27-1.18-.16-2.31-.54-3.34-1.14,1.17.1,2.32.31,3.45.63,1.16.16,2.3.42,3.41.78Z"/>
    <path class="st2" d="M87.63,291.57c-2.6-1.48-3.5-4.78-2.02-7.38.04-.06.08-.13.11-.19.47-.88,1.16-1.63,2-2.17,2.17-1.15,21.37-4.75,23.43-5s2.44,3.67-.25,5.62-23.22,9.14-23.22,9.14l-.05-.02Z"/>
    <path class="st2" d="M92.1,305.49c-2.6-1.49-3.49-4.8-2-7.4.03-.05.06-.1.09-.15.47-.88,1.16-1.63,2-2.17,2.17-1.15,21.77-6.3,23.43-5,2,1.5,2.44,3.66-.25,5.62s-23.22,9.14-23.22,9.14l-.05-.04Z"/>
    <path class="st2" d="M96,302.61c-1.83.42-3.38,1.64-4.23,3.32-.46.89-.6,1.92-.39,2.9.65,3,2.89,5.4,5.84,6.24,3.51,1.1,14.94-1.47,14.94-1.47l-2.64-7.37,8-2.62c3.26-1.3,1.68-6.4-2.24-5.41-1.28.32-14.7,3.27-19.28,4.41Z"/>
    <path class="st2" d="M90,298.14c-2.59-1.48-3.49-4.79-2.01-7.38.03-.06.07-.11.1-.17.47-.88,1.16-1.63,2-2.17,2.17-1.15,19.63-4.26,21.66-4.69s4.21,3.32,1.52,5.27-23.27,9.14-23.27,9.14Z"/>
    <path class="st5" d="M109.73,291.13c-1,.34-2.02.6-3.06.78-1.9.42-4.53,1-7.44,1.54-2.48.39-4.86,1.26-7,2.57-.84.62-1.59,1.36-2.23,2.18,0,0,.08-.3.37-.77.43-.66.97-1.24,1.6-1.71.91-.69,1.93-1.24,3-1.64,1.32-.48,2.68-.86,4.06-1.14,2.92-.58,5.57-1.06,7.49-1.39,1.06-.23,2.13-.37,3.21-.42Z"/>
    <path class="st5" d="M106.36,284.75c-.95.32-1.93.56-2.93.71l-7.13,1.38c-2.37.39-4.62,1.27-6.63,2.59-.74.64-1.41,1.36-2,2.14,0,0,.08-.29.35-.74.39-.64.88-1.21,1.46-1.69,1.45-1.28,4-2.2,6.75-2.8s5.33-.94,7.17-1.24c.98-.2,1.97-.32,2.96-.35Z"/>
    <path class="st5" d="M110,299.3c-.89.36-1.81.64-2.75.84-1.71.46-4.1,1.07-6.76,1.51-2.28.29-4.49,1.03-6.49,2.16-.74.55-1.41,1.19-2,1.91,0,0,.07-.27.35-.69.41-.59.93-1.1,1.51-1.52,1.98-1.25,4.21-2.06,6.54-2.37,2.67-.44,5-1,6.78-1.35.92-.25,1.87-.41,2.82-.49Z"/>
    <path class="st5" d="M111.08,305.72c-1.32.71-2.72,1.27-4.17,1.67-1.4.55-2.87.95-4.36,1.17,1.32-.71,2.72-1.27,4.17-1.66,1.4-.56,2.87-.95,4.36-1.18Z"/>
  </g>
  <g id="freepik--character-2--inject-120">
    <path class="st4" d="M519.31,190.26c4.33-6.34,12.98-7.96,19.32-3.63s7.96,12.98,3.63,19.32c-1.5,2.19-3.59,3.91-6.04,4.94,4.64,2.28,6.55,7.89,4.27,12.53-2.24,4.57-7.73,6.51-12.34,4.36-1.09,3.84-5.39,6.16-9.37,5.89s-7.57-2.63-10.29-5.55c-5.75-6.16-8.03-14.8-6.07-23,2.12-8,9-14.7,17.21-16.08"/>
    <path class="st11" d="M525.63,184s.07.09.17.28c.15.28.27.57.38.86.42,1.1.68,2.26.77,3.44.15,1.8-.05,3.61-.59,5.33-.68,2.2-1.9,4.19-3.57,5.78v-.33c1.38,1.88,2.29,4.07,2.65,6.37,1,5.77-1.63,11.56-6.63,14.6-1.45.91-3.06,1.55-4.74,1.89-.45.09-.91.15-1.37.18-.16.02-.33.02-.49,0,0-.06.66-.11,1.82-.38,1.63-.41,3.17-1.09,4.58-2,6.62-4.32,8.49-13.18,4.17-19.8-.13-.19-.26-.38-.39-.57l-.13-.18.16-.15c1.62-1.52,2.83-3.42,3.5-5.54.55-1.67.79-3.43.69-5.18-.11-1.57-.44-3.12-.98-4.6Z"/>
    <path class="st7" d="M565.62,181.22c-.47.33-.96.63-1.48.88-1,.53-2.38,1.28-4.13,2.18-3.52,1.81-8.42,4.2-13.93,6.66s-10.57,4.5-14.26,5.91c-1.84.7-3.34,1.26-4.39,1.62-.53.21-1.07.38-1.63.51.5-.27,1.02-.51,1.56-.7l4.33-1.77c3.65-1.5,8.68-3.6,14.18-6s10.42-4.79,14-6.51l4.21-2c.49-.3,1.01-.56,1.54-.78Z"/>
    <path class="st7" d="M552.59,168.26c.09.11-5.4,5.36-12.27,11.72s-12.52,11.45-12.62,11.34,5.4-5.32,12.3-11.72,12.49-11.44,12.59-11.34Z"/>
    <path class="st4" d="M492.79,146.6c0-10.76-12.86-11.29-19.36-8.6-3.5-4.8-6-7.22-14.05-7.72-5.91-.38-14.92,2.59-19.46,8.54-4.54,6.15-5.46,14.25-2.42,21.27,1,2.27,2.43,4.55,2.15,7-.41,3.56-4.06,5.64-6.42,8.33-3.98,4.75-4.24,11.59-.64,16.63,2.29,3,5.93,5.17,7.14,8.77,1,3,.06,6.31.25,9.49.35,5.85,4.79,11,10.23,13.11s11.67,1.64,17.17-.36"/>
    <path class="st1" d="M445.75,259.47l20.17-9,.69-13.49s-15.16-2.24-18.65-21.9c-1.73-9.78-1.52-25.87-.93-39,.54-11.85,13.08-23.89,24.89-22.85l38.36,6.59v6.37l.35,81.24,19.84,9.57-45,53.16-39.72-50.69Z"/>
    <path class="st4" d="M454.2,190c.01,1.37,1.11,2.48,2.48,2.5,1.34.08,2.49-.94,2.57-2.28,0-.01,0-.02,0-.04-.01-1.37-1.11-2.48-2.48-2.51-1.33-.08-2.48.93-2.57,2.26,0,.02,0,.04,0,.07Z"/>
    <path class="st4" d="M450.67,184.32c.32.32,2.21-1.13,4.93-1.17s4.74,1.29,5,.95c.15-.15-.18-.74-1.06-1.36-1.18-.79-2.58-1.2-4-1.17-1.42.02-2.79.49-3.92,1.35-.83.65-1.11,1.25-.95,1.4Z"/>
    <path class="st4" d="M479.63,190c0,1.37,1.11,2.49,2.48,2.51,1.34.08,2.49-.94,2.57-2.28,0-.02,0-.03,0-.05-.02-1.37-1.11-2.48-2.48-2.51-1.33-.08-2.48.93-2.57,2.26,0,.02,0,.04,0,.07Z"/>
    <path class="st4" d="M477.43,184.35c.32.33,2.22-1.13,4.94-1.17s4.74,1.29,5,.95c.14-.15-.19-.74-1.07-1.36-1.18-.78-2.58-1.19-4-1.16-1.42.02-2.79.49-3.92,1.34-.83.66-1.1,1.26-.95,1.4Z"/>
    <path class="st4" d="M467.92,204.71c0-.15-1.69-.41-4.44-.72-.7-.06-1.36-.18-1.48-.65-.07-.72.08-1.44.43-2.07.62-1.7,1.27-3.47,2-5.33,2.72-7.59,4.67-13.82,4.37-13.93s-2.76,6-5.48,13.54c-.66,1.87-1.28,3.66-1.88,5.36-.42.85-.53,1.82-.31,2.74.21.49.64.86,1.16,1,.39.1.78.15,1.18.15,2.73.08,4.44.07,4.45-.09Z"/>
    <path class="st6" d="M466.61,237c9.29-.02,18.38-2.62,26.28-7.51,0,0-6.76,13.9-26.53,12.41l.25-4.9Z"/>
    <path class="st6" d="M469.18,211.25c1.03-1.34,2.68-2.06,4.37-1.9,1.21.09,2.34.67,3.12,1.6.76.92.87,2.22.27,3.25-.87,1.03-2.27,1.43-3.55,1-1.29-.43-2.49-1.11-3.52-2-.31-.21-.58-.48-.79-.79-.2-.3-.2-.7,0-1"/>
    <path class="st4" d="M476,206.45c-.44,0-.4,2.94-2.89,5.08s-5.64,1.87-5.66,2.29c0,.18.71.56,2,.57,1.73,0,3.41-.62,4.73-1.74,1.27-1.08,2.07-2.6,2.23-4.26.09-1.23-.25-1.96-.41-1.94Z"/>
    <path class="st4" d="M476.54,173.7c.28.73,3,.33,6.19.66s5.8,1.16,6.21.48c.19-.32-.27-1-1.33-1.7-2.85-1.73-6.33-2.06-9.45-.88-1.16.5-1.74,1.09-1.62,1.44Z"/>
    <path class="st4" d="M451.53,176.43c.49.6,2.36-.07,4.61-.14s4.17.34,4.6-.31c.19-.32-.13-.94-1-1.51-2.32-1.39-5.25-1.24-7.42.37-.75.65-1,1.29-.79,1.59Z"/>
    <path class="st4" d="M441.83,152c3,7,9.89,17.38,17.43,18.3,7.69.83,15.25-2.38,20-8.48,1.14,5.62,7.38,8.6,13,9.53,4,.66,8.22.7,12-.81s7-4.79,7.59-8.79c.59-4-5.09-13.86-9.08-14.6"/>
    <path class="st4" d="M493.68,166c-2.75,6.14-.03,13.35,6.09,16.15-2.78,3.45-3.28,8.34-2.22,12.65s3.49,8.16,6.1,11.75c0,0-6.78,9.81,6.87,17,0,0,9.58-3,5.3-17.41-.34-1.03-.28-2.15.18-3.14.6-.84,1.42-1.48,2.37-1.87,7.49-4.17,10.24-13.58,6.19-21.13-.6-.92-1.05-1.94-1.33-3-.27-1.62-1.51-5.85-1-7.4,2.93-8.09-.84-18.14-10.33-23.13-7.61-4-17.14-4.67-23,1.66"/>
    <path class="st7" d="M546.67,323.31l13-50.85-36.47-20.07-35.2,54.26-31.89-52.76-32.85,14.87c-2.16.98-3.9,2.71-4.89,4.86l-29.72,80.38,40.16,13,4.6-18.63,5.29,32.17-15.28,84.42,131.13-.48-23.24-86.67,3.23-19.33,12.13-35.17Z"/>
    <g class="st10">
      <path d="M436.58,389.22c9,1.52,17.1-6.45,26.22-6.52,8.41-.06,15.39,6.53,23.58,8.44,3.61.84,7.55.81,10.67,2.79,2.4,1.52,4,4,5.64,6.31,8.01,10.93,19.69,18.61,32.9,21.63,2,.45,6.48,2,7.71.31l-1.3-5.18-1.14-15.71-43.94-32-50.15,2.46-10.19,17.47Z"/>
    </g>
    <rect class="st4" x="505.77" y="315.63" width="27.13" height="4.49"/>
    <path class="st7" d="M534.74,370.49c11,3.9,23,3.31,34.48,1.62,2.73-.41,5.58-.93,7.73-2.66.72-.57,2.46-2,2.43-2.38-.08-1.05-2-2.45-3.09-3.32-8.45-6.53-19.31-9.08-29.79-7-2.76.5-5.4,1.51-7.78,3-2.33,1.56-3.79,2.42-4.59,5.11"/>
    <g class="st10">
      <path d="M534.74,370.49c11,3.9,23,3.31,34.48,1.62,2.73-.41,5.58-.93,7.73-2.66.72-.57,2.46-2,2.43-2.38-.08-1.05-2-2.45-3.09-3.32-8.45-6.53-19.31-9.08-29.79-7-2.76.5-5.4,1.51-7.78,3-2.33,1.56-3.79,2.42-4.59,5.11"/>
    </g>
    <path class="st7" d="M579.38,367.07s-11.52-68.71-12.23-74.84c-1.79-15.2-7.51-20.06-7.51-20.06l-26.74,81.83,1.85,16.49s8.45-12.72,44.63-3.42Z"/>
    <path class="st4" d="M564.64,311.89c-.12.58-.29,1.15-.5,1.7-.34,1.09-.91,2.64-1.65,4.54-1.97,4.94-4.31,9.73-7,14.31-2.71,4.57-5.78,8.92-9.18,13-1.31,1.56-2.41,2.8-3.2,3.62-.39.44-.81.85-1.26,1.24.33-.49.7-.95,1.11-1.38.74-.86,1.8-2.13,3.07-3.72,3.3-4.14,6.3-8.51,9-13.06,2.68-4.55,5.06-9.28,7.12-14.14.78-1.88,1.4-3.41,1.8-4.47.19-.56.42-1.11.69-1.64Z"/>
    <path class="st4" d="M438.53,378.83c-.03-.07-.05-.14-.06-.22,0-.18-.07-.4-.12-.67-.09-.63-.23-1.48-.4-2.56-.38-2.27-.91-5.47-1.57-9.4-1.38-7.98-3.38-18.88-5.56-30.98s-4.18-23-5.63-31l-1.65-9.4c-.16-1.07-.3-1.93-.4-2.56l-.07-.67c-.02-.08-.02-.15,0-.23.03.07.05.14.06.22,0,.18.08.4.13.66.12.63.28,1.48.49,2.55.44,2.26,1.05,5.44,1.81,9.36,1.51,7.91,3.58,18.85,5.79,30.94s4.12,23.05,5.4,31c.64,4,1.11,7.2,1.41,9.43.13,1.09.23,1.95.31,2.58,0,.27,0,.49.06.67.01.09.01.19,0,.28Z"/>
    <path class="st4" d="M548.65,296c-.02.26-.07.52-.14.77-.12.55-.28,1.28-.49,2.19-.45,1.95-1.08,4.69-1.86,8-1.59,6.79-3.79,16.16-6.12,26.54s-4.36,19.79-5.7,26.63c-.66,3.42-1.2,6.19-1.53,8.11-.16.92-.3,1.65-.4,2.21-.03.26-.09.51-.17.76,0-.26.02-.52.07-.78.08-.56.18-1.3.3-2.22.27-1.94.75-4.72,1.37-8.15,1.25-6.86,3.21-16.29,5.55-26.68s4.59-19.74,6.27-26.51c.84-3.34,1.53-6.06,2-8,.24-.9.44-1.62.58-2.17.07-.24.16-.48.27-.7Z"/>
    <path class="st4" d="M447.66,257.41c.08.09.16.2.22.31l.62,1c.55.86,1.33,2.1,2.33,3.69l8.48,13.59,28,45.37h-.43l1.32-1.87c1.43-2,2.83-4,4.15-5.84v.34l-25.84-42.85c-3.24-5.41-5.85-9.78-7.66-12.82l-2.05-3.47-.52-.91c-.07-.1-.13-.21-.17-.32.08.09.15.19.21.29l.56.89c.5.8,1.22,2,2.13,3.43,1.85,3,4.51,7.35,7.8,12.73l26,42.76.08.14-.09.14c-1.33,1.86-2.73,3.84-4.15,5.84l-1.33,1.87-.23.32-.2-.33-27.89-45.5c-3.52-5.79-6.37-10.47-8.35-13.74-1-1.6-1.72-2.86-2.25-3.74l-.57-1c-.07-.1-.12-.21-.17-.32Z"/>
    <path class="st4" d="M523.17,252.09c-.03.1-.08.2-.15.29l-.51.82-2,3.14-7.4,11.55-24.94,38.6v-.28c1.1,1.8,2.27,3.72,3.46,5.65l1.12,1.83h-.44c5.34-8,10.26-15.66,14.77-22.61s8.62-13.16,12.2-18.28,6.57-9.18,8.67-12l2.45-3.17.65-.82c.07-.09.15-.18.23-.26-.05.11-.12.21-.19.3l-.61.84c-.56.76-1.35,1.85-2.37,3.23-2,2.81-5,6.9-8.53,12s-7.63,11.36-12.1,18.33-9.37,14.75-14.71,22.75l-.23.34-.21-.35-1.12-1.83-3.45-5.65-.09-.13.09-.14,25.08-38.51,7.53-11.46,2.06-3.09.54-.79.2-.3Z"/>
    <path class="st3" d="M451.56,348.28c-4.1-1.77-8.88-.17-11.08,3.72-1.65,3.27-1.18,7.21,1.2,10,2.37,2.52,8.11,4.24,10.78,1.2l-.9-14.92Z"/>
    <path class="st4" d="M451.56,348.28c.07.35.11.7.13,1.06.06.78.15,1.8.25,3.05.19,2.73.45,6.46.75,10.84v.1l-.06.07c-1.21,1.26-2.93,1.89-4.67,1.7-1.83-.12-3.59-.72-5.11-1.74-1.48-.97-2.57-2.42-3.11-4.11-.5-1.55-.61-3.2-.33-4.8.25-1.46.89-2.82,1.85-3.94.83-.96,1.85-1.73,3-2.27,1.68-.78,3.56-1,5.37-.63.66.13,1.29.35,1.88.67-.05,0-.66-.25-1.91-.47-1.76-.28-3.57-.01-5.18.77-2.42,1.1-4.13,3.33-4.57,5.95-.26,1.52-.15,3.09.34,4.56.5,1.57,1.53,2.93,2.91,3.84,1.44.97,3.12,1.54,4.85,1.66,1.58.19,3.16-.37,4.28-1.5l-.06.17c-.22-4.34-.4-8-.54-10.74-.05-1.27-.09-2.31-.12-3.1,0-.38,0-.76.05-1.14Z"/>
    <path class="st4" d="M444.41,348.28s2.85-58.74,4.32-67.16,5.25-22,11.2-30.27c5.69-7.87,6.25-8.42,6.25-8.42l-.38,7.33c-5.4,9.49-9.25,19.77-11.42,30.47-3.17,16.64-5.35,68-5.35,68l-4.62.05Z"/>
    <path class="st0" d="M527.89,358.78c-1.67-.02-3.32-.36-4.86-1l.76-1.85c2.04.89,4.32,1.07,6.47.51,2.15-.63,3.89-2.22,4.73-4.3.65-2.03.69-4.21.1-6.26-.4-1.52-.9-3.01-1.49-4.47-.25-.65-.5-1.3-.74-2-4.2-11.81-3.47-25-2.83-36.69l2,.11c-.63,11.47-1.34,24.48,2.73,35.91.23.65.47,1.28.71,1.92.63,1.53,1.15,3.11,1.58,4.71.69,2.44.63,5.04-.18,7.45-1.04,2.66-3.26,4.7-6,5.5-.97.3-1.97.45-2.98.46Z"/>
    <path class="st3" d="M527.7,359.66c-3.34,0-6.26-1.57-8.8-4.71-3.3-4.06-3.83-14.13-4.29-23-.16-3.18-.32-6.18-.6-8.36-1-7.68-5.39-18-5.43-18.09l1.83-.79c.19.43,4.56,10.66,5.58,18.63.29,2.25.45,5.29.62,8.5.42,8.16.95,18.32,3.84,21.87,4.36,5.37,9.65,5.32,17.15-.17l1.18,1.62c-4.13,2.99-7.78,4.5-11.08,4.5Z"/>
    <path class="st4" d="M534.75,355.25c.37-1.03.89-2,1.53-2.88.61-.86,1.54-1.45,2.58-1.63,1.07-.13,2.1.44,2.56,1.41.4,1.01.23,2.16-.46,3-.65.76-1.56,1.27-2.55,1.42-.97.12-1.94.12-2.91,0"/>
    <path class="st4" d="M514.79,268.1c7.83,10.05,12.53,22.19,13.5,34.9h4.16c-.86-14.56-6.57-28.42-16.23-39.36,1.05-3.32,1.82-6.72,2.29-10.17.92-7.81-7.65-12.54-7.65-12.54v5.92c2.2,1.25,3.55,3.61,3.5,6.14-.19,4.21-3.35,13.16-6.44,20.88-2.6,6.33-3.77,13.16-3.41,20,.29,8.75,3.71,12.72,3.71,12.72l4.13-1.75s-2.47-3.09-3.54-11.54c-.82-6.46,1.09-11.51,2.75-16.18.84-2.32,2.05-5.52,3.23-9.02Z"/>
    <path class="st1" d="M395.27,355.9l-5,19.07c-1.71,6.16-.05,12.76,4.37,17.38.27.27.55.54.83.79h0c5.33,4.77,12.89,6.11,19.53,3.47l51.79-20.61-7.65-23.35-39.21,11.17-24.66-7.92Z"/>
    <path class="st11" d="M437.79,324.12l9.39,50c.41,2.18,2.35,3.74,4.57,3.65l71.74-2.77c2.46-.1,4.39-2.16,4.31-4.63l-1.64-47.24c-.08-2.41-2.06-4.33-4.48-4.32h-79.49c-2.47,0-4.47,1.99-4.48,4.46,0,.29.03.57.08.85Z"/>
    <path class="st1" d="M516.17,344.48h0c-2.75,0-5.22,1.68-6.22,4.24-1,2.71-2.56,5.87-4.24,6.78-3.11,1.7-8.49,3.06-11.31,1.67s-14.14-11.56-16.12-10.43-3.68,3.67-1.7,5.94,12.42,9.05,10.42,11.32-24-7.7-27.43-6.82-5.37,3-3.39,4.33,17,7,17.81,9c0,0-22.62-5.94-23.47-4.52s-2.26,3.67,0,4.52,21.78,5.94,23.47,6.79c2.81,1.17,5.73,2.02,8.73,2.54.61,0,5,1.49,9.11,2.89,4.58,1.59,9.58,1.46,14.07-.37l2.29-.94c3.56-1.46,5.79-5.01,5.57-8.85l-.46-7.71,2.47-6.37.4-14.01Z"/>
    <path class="st1" d="M498.05,383.81s41.28,37.37,55.18,37.48c14.65.11,22.9-15.09,21.34-24.54-.84-5-3-31.39-3-31.39-9.81-2.68-24.47-3.88-34.92,3.07l3.81,15.38-27.56-13.32-14.85,13.32Z"/>
    <path class="st4" d="M579.38,367.07c-.16,0-.32-.03-.47-.08l-1.34-.32c-1.15-.28-2.82-.69-4.89-1.16-5.37-1.29-10.88-1.93-16.4-1.9-3.02.1-6.03.43-9,1-2.44.43-4.82,1.13-7.1,2.09-1.53.66-2.96,1.54-4.24,2.61-.89.77-1.32,1.27-1.36,1.24.07-.14.17-.27.28-.39.3-.35.61-.69.95-1,1.25-1.15,2.68-2.09,4.22-2.79,2.29-1.03,4.69-1.78,7.16-2.23,3-.61,6.06-.97,9.12-1.07,5.56-.04,11.11.65,16.49,2.06,2.07.52,3.73,1,4.87,1.33l1.3.41c.26.13.42.18.41.2Z"/>
  </g>
  <g id="freepik--Plant--inject-120">
    <path class="st7" d="M613,419.87c2.11,3,6.15,1.95,8,.12s2.63-4.47,3.33-7c1.61-5.74,3.22-11.77,1.95-17.59-.3-1.77-1.09-3.42-2.28-4.76-1.22-1.35-3.07-1.95-4.85-1.58-2,.56-3.28,2.57-4.18,4.47-2.65,5.63-4.02,11.78-4,18,0,2.89.38,5.93,2,8.3"/>
    <g class="st9">
      <path d="M613,419.87c2.11,3,6.15,1.95,8,.12s2.63-4.47,3.33-7c1.61-5.74,3.22-11.77,1.95-17.59-.3-1.77-1.09-3.42-2.28-4.76-1.22-1.35-3.07-1.95-4.85-1.58-2,.56-3.28,2.57-4.18,4.47-2.65,5.63-4.02,11.78-4,18,0,2.89.38,5.93,2,8.3"/>
    </g>
    <path class="st7" d="M620.94,434.87c3.48-1.66,7.39-2.17,11.18-1.45,2.07.17,4.02,1.02,5.55,2.43,1.39,1.51,1.67,4.19.1,5.51-1.02.7-2.25,1.03-3.48.92-3,0-6.25-.51-8.6,1.29-1.34,1-2.22,2.72-3.83,3.23-1.65.39-3.37-.35-4.21-1.83-.78-1.48-.96-3.2-.51-4.81.37-2.26,1.77-4.22,3.8-5.29Z"/>
    <path class="st7" d="M607.34,424.18c2.16-2.86,2.76-6.61,1.61-10-1.18-3.34-3.25-6.28-6-8.51-3.11-2.71-6.71-4.8-10.61-6.15-1.51-.59-3.13-.85-4.75-.77-1.66.1-3.16,1.02-4,2.45-1.09,2.12,0,4.68,1.16,6.77,2.05,3.68,4.39,7.2,7,10.51,2.09,2.66,4.5,5.29,7.67,6.47s6.47,1,8.13-1.19"/>
    <path class="st4" d="M613.23,464.72c.11-.45.17-.9.18-1.36.09-1,.2-2.21.33-3.68.17-1.82.43-3.63.79-5.42.47-2.18,1.1-4.31,1.91-6.39.79-2.08,1.88-4.03,3.22-5.8,1.09-1.44,2.49-2.63,4.09-3.46,1.09-.55,2.26-.92,3.46-1.11.45-.02.9-.09,1.34-.2-.45-.05-.91-.05-1.36,0-1.26.11-2.49.45-3.62,1-1.69.81-3.16,2-4.31,3.48-1.4,1.8-2.52,3.79-3.34,5.92-.82,2.11-1.45,4.28-1.9,6.5-.33,1.81-.56,3.64-.67,5.48-.11,1.57-.14,2.84-.16,3.71-.03.44-.02.89.04,1.33Z"/>
    <path class="st4" d="M613.46,461.88c.03-.21.03-.42,0-.63v-8.38c.1-5.56.52-13.24,1.38-21.68s2-16,3.12-21.49c.26-1.37.51-2.6.76-3.68s.43-2,.62-2.76.3-1.29.41-1.75c.17-.03.28-.19.25-.36-.03-.17-.19-.28-.36-.25s-.28.19-.25.36c.02.13.12.23.25.25-.14.45-.3,1-.51,1.72s-.45,1.67-.72,2.75-.55,2.3-.84,3.67c-1.48,7.11-2.58,14.29-3.29,21.52-.86,8.46-1.22,16.15-1.21,21.73,0,2.79.07,5,.15,6.6,0,.72.09,1.32.12,1.79.02.2.06.4.12.59Z"/>
    <path class="st4" d="M613.38,447c.05-.62.05-1.25,0-1.87-.08-1.2-.26-2.94-.62-5.07-.97-5.53-2.61-10.92-4.88-16.06-2.18-5.21-5.3-9.98-9.19-14.07-.67-.71-1.39-1.38-2.15-2-.33-.28-.62-.55-.91-.77l-.84-.56c-.5-.37-1.03-.71-1.58-1,1.83,1.41,3.56,2.94,5.2,4.57,3.78,4.12,6.82,8.85,9,14,1.25,2.81,2.3,5.69,3.17,8.64.73,2.4,1.34,4.84,1.82,7.31.4,2.1.64,3.82.78,5,.02.63.09,1.26.2,1.88Z"/>
  </g>
  <path class="st8" d="M161.64,341.18c1.01-.07.29-3.91.29-3.91.11-1.45.11-2.9,0-4.35-.19-1.81.75-3.47,1.4-5.15s0-6.15-.84-8.43-.25-2.45-.25-2.45c2.6-.84.2-6.24-1.54-11.29s-3.48-4.68-3.48-4.68c0,0-1.16-.04-1.83,4.07s-1.8,5.57-4.3,5.56h-1.33c-2.53,0-4.74-1.77-8.28-6.03s-4.69-4.31-4.69-4.31c0,0-2.03-.5-.31,4.55s3.01,10.39,6.26,11.47c0,0,.67.24,1.44,2.53s3.18,6.8,5,8.56,3.94,3.54,5,5.38,3.04,4.46,3.04,4.46c0,0,2.42,3.91,3.5,4.05l.92-.03Z"/>
  <path class="st8" d="M216.88,340.71c1.01-.07.29-3.91.29-3.91.11-1.45.11-2.9,0-4.35-.19-1.81.75-3.47,1.4-5.15s0-6.15-.84-8.43-.25-2.45-.25-2.45c2.6-.84.2-6.24-1.54-11.29s-3.48-4.68-3.48-4.68c0,0-1.16-.04-1.83,4.07s-1.8,5.57-4.3,5.56h-1.33c-2.53,0-4.74-1.77-8.28-6.03-3.54-4.26-4.69-4.31-4.69-4.31,0,0-2.03-.5-.31,4.55s3.01,10.39,6.26,11.47c0,0,.67.24,1.44,2.53s3.18,6.8,5,8.56,3.94,3.54,5,5.38,3.04,4.46,3.04,4.46c0,0,2.42,3.91,3.5,4.05l.92-.03Z"/>
  <path class="st8" d="M199.61,390.19c1.01-.07.29-3.91.29-3.91.11-1.45.11-2.9,0-4.35-.19-1.81.75-3.47,1.4-5.15s0-6.15-.84-8.43-.25-2.45-.25-2.45c2.6-.84.2-6.24-1.54-11.29s-3.48-4.68-3.48-4.68c0,0-1.16-.04-1.83,4.07s-1.8,5.57-4.3,5.56h-1.33c-2.53,0-4.74-1.77-8.28-6.03s-4.69-4.31-4.69-4.31c0,0-2.03-.5-.31,4.55s3.01,10.39,6.26,11.47c0,0,.67.24,1.44,2.53s3.18,6.8,5,8.56,3.94,3.54,5,5.38,3.04,4.46,3.04,4.46c0,0,2.42,3.91,3.5,4.05l.92-.03Z"/>
  <path class="st8" d="M172.38,389.97c1.01-.07.29-3.91.29-3.91.11-1.45.11-2.9,0-4.35-.19-1.81.75-3.47,1.4-5.15s0-6.15-.84-8.43-.25-2.45-.25-2.45c2.6-.84.2-6.24-1.54-11.29s-3.48-4.68-3.48-4.68c0,0-1.16-.04-1.83,4.07s-1.8,5.57-4.3,5.56h-1.33c-2.53,0-4.74-1.77-8.28-6.03s-4.69-4.31-4.69-4.31c0,0-2.03-.5-.31,4.55s3.01,10.39,6.26,11.47c0,0,.67.24,1.44,2.53s3.18,6.8,5,8.56,3.94,3.54,5,5.38,3.04,4.46,3.04,4.46c0,0,2.42,3.91,3.5,4.05l.92-.03Z"/>
  <path class="st8" d="M227.62,389.5c1.01-.07.29-3.91.29-3.91.11-1.45.11-2.9,0-4.35-.19-1.81.75-3.47,1.4-5.15s0-6.15-.84-8.43-.25-2.45-.25-2.45c2.6-.84.2-6.24-1.54-11.29s-3.48-4.68-3.48-4.68c0,0-1.16-.04-1.83,4.07s-1.8,5.57-4.3,5.56h-1.33c-2.53,0-4.74-1.77-8.28-6.03s-4.69-4.31-4.69-4.31c0,0-2.03-.5-.31,4.55,1.72,5.05,3.01,10.39,6.26,11.47,0,0,.67.24,1.44,2.53s3.18,6.8,5,8.56,3.94,3.54,5,5.38,3.04,4.46,3.04,4.46c0,0,2.42,3.91,3.5,4.05l.92-.03Z"/>
</svg>