<?xml version="1.0" encoding="UTF-8"?>
<svg id="Layer_1" xmlns="http://www.w3.org/2000/svg" version="1.1" viewBox="0 0 500 500">
  <!-- Generator: Adobe Illustrator 29.6.1, SVG Export Plug-In . SVG Version: 2.1.1 Build 9)  -->
  <defs>
    <style>
      .st0, .st1 {
        fill: #e0e0e0;
      }

      .st1, .st2, .st3 {
        fill-rule: evenodd;
      }

      .st4, .st3 {
        fill: #ebebeb;
      }

      .st5 {
        fill: #263238;
      }

      .st2 {
        fill: #f0f0f0;
      }

      .st6 {
        fill: #4468f8;
      }

      .st7 {
        fill: #fff;
      }

      .st8 {
        opacity: .3;
      }

      .st8, .st9 {
        isolation: isolate;
      }

      .st8, .st10 {
        fill: #04f6c0;
      }

      .st11 {
        fill: #f5f5f5;
      }

      .st9 {
        fill: #0045bd;
        opacity: .2;
      }

      .st12 {
        fill: #455a64;
      }

      .st13 {
        fill: #334851;
      }
    </style>
  </defs>
  <g id="freepik--background-complete--inject-62">
    <path class="st3" d="M301.85,195.77c2.64,1.98,5.01,4.3,7.05,6.9l9-1.64,5.94,13.92-7.45,5.4c.47,3.27.51,6.58.1,9.86l7.52,5.19-5.63,14.05-8.99-1.53c-1.97,2.65-4.29,5.02-6.9,7.05l1.64,9-13.92,6.01-5.36-7.41c-3.27.47-6.58.51-9.86.11l-5.2,7.51-14.05-5.66,1.44-9.03c-2.64-1.98-5.01-4.3-7.05-6.9l-8.99,1.64-5.94-13.92,7.41-5.36c-.47-3.27-.51-6.58-.11-9.86l-7.51-5.16,5.65-14.04,9.02,1.46c1.98-2.64,4.3-5.02,6.9-7.06l-1.64-9.03,13.92-5.94,5.37,7.41c3.27-.47,6.58-.51,9.86-.11l5.19-7.52,14.05,5.65-1.46,9.02h0ZM286.22,210.83c-8.32-3.34-17.77.69-21.11,9-3.34,8.32.69,17.77,9,21.11,8.32,3.34,17.77-.69,21.11-9h0c3.33-8.32-.7-17.76-9.01-21.1h.01Z"/>
    <path class="st2" d="M264.93,125.33c1.46,1.09,2.77,2.38,3.89,3.82l4.97-.9,3.31,7.72-4.09,2.97c.25,1.83.25,3.68,0,5.51l4.16,2.88-3.12,7.72-4.98-.8c-1.1,1.46-2.38,2.78-3.83,3.9l.92,4.97-7.72,3.31-2.97-4.09c-1.81.24-3.64.24-5.45,0l-2.88,4.16-7.72-3.12.8-4.99c-1.46-1.09-2.77-2.37-3.89-3.82l-4.98.9-3.31-7.72,4.1-2.97c-.27-1.81-.29-3.64-.06-5.46l-4.17-2.87,3.12-7.77,4.99.8c1.09-1.46,2.38-2.78,3.82-3.9l-.9-4.97,7.72-3.31,2.97,4.1c1.83-.27,3.68-.29,5.51-.07l2.88-4.16,7.72,3.12-.79,4.99-.02.04h0ZM256.28,133.66c-4.6-1.85-9.84.38-11.69,4.98s.38,9.84,4.98,11.69,9.82-.37,11.69-4.96c1.86-4.6-.36-9.84-4.96-11.7h-.02Z"/>
    <path class="st1" d="M366.21,64.09c4.27,1.57,8.31,3.71,12.02,6.35l11.25-5.71,13.32,16.05-7.72,10c1.91,4.13,3.26,8.5,4.02,12.99l11.97,3.91-1.93,20.77-12.5,1.63c-1.57,4.28-3.71,8.32-6.35,12.03l5.71,11.25-16.07,13.32-9.99-7.72c-4.12,1.92-8.48,3.27-12.97,4.04l-3.91,11.99-20.77-1.94-1.58-12.48c-4.27-1.57-8.31-3.71-12.02-6.35l-11.25,5.7-13.32-16.05,7.72-10c-1.91-4.13-3.26-8.5-4.02-12.99l-11.97-3.91,1.86-20.77,12.5-1.63c1.56-4.28,3.69-8.33,6.33-12.04l-5.71-11.24,16.07-13.32,9.99,7.72c4.13-1.92,8.51-3.27,13-4.02l3.91-11.99,20.77,1.97,1.63,12.5v-.06s.01,0,.01,0ZM351.46,90.14c-12.31-1.15-23.22,7.9-24.36,20.21-1.15,12.31,7.9,23.22,20.21,24.36s23.22-7.9,24.36-20.21h0c1.15-12.3-7.89-23.21-20.2-24.36h-.02.01Z"/>
  </g>
  <g id="freepik--Computer--inject-62">
    <rect class="st12" x="70.74" y="216.54" width="345.78" height="228.66" rx="14.57" ry="14.57"/>
    <path class="st13" d="M56.29,428.3h374.62v.39c0,10.84-8.79,19.63-19.63,19.63H75.91c-10.84,0-19.63-8.79-19.63-19.63v-.39h0Z"/>
    <rect class="st0" x="80.03" y="225.63" width="326.25" height="193.1"/>
    <polygon class="st12" points="209.54 428.3 214.2 435.7 279.61 435.7 283.93 428.3 209.54 428.3"/>
    <rect class="st12" x="70.74" y="428.45" width="345.78" height="1.1"/>
  </g>
  <g id="freepik--Window--inject-37">
    <polygon class="st7" points="391.6 407.48 90.29 407.48 90.9 236.72 392.21 236.72 391.6 407.48"/>
    <ellipse class="st5" cx="96.13" cy="241.24" rx="1.41" ry="1.39"/>
    <ellipse class="st5" cx="101.91" cy="241.24" rx="1.41" ry="1.39"/>
    <ellipse class="st5" cx="107.7" cy="241.24" rx="1.41" ry="1.39"/>
    <path class="st5" d="M391.6,248.21c0,.09-67.33.17-150.36.17s-150.36-.08-150.36-.17,67.31-.16,150.37-.16,150.35.08,150.35.16Z"/>
    <rect class="st11" x="90.29" y="261.33" width="21.52" height="146.35"/>
    <rect class="st4" x="111.37" y="261.12" width="22.03" height="146.35"/>
    <rect class="st11" x="133.41" y="261.12" width="21.52" height="146.35"/>
    <rect class="st4" x="154.49" y="261.12" width="22.03" height="146.35"/>
    <rect class="st11" x="176.52" y="261.12" width="21.52" height="146.35"/>
    <rect class="st4" x="197.61" y="261.12" width="22.03" height="146.35"/>
    <rect class="st11" x="219.64" y="261.12" width="21.52" height="146.35"/>
    <rect class="st4" x="240.72" y="261.12" width="22.03" height="146.35"/>
    <rect class="st11" x="262.76" y="261.12" width="21.52" height="146.35"/>
    <rect class="st4" x="283.85" y="261.12" width="22.03" height="146.35"/>
    <rect class="st11" x="305.87" y="261.12" width="21.52" height="146.35"/>
    <rect class="st4" x="326.96" y="261.12" width="22.03" height="146.35"/>
    <rect class="st11" x="349" y="261.12" width="21.52" height="146.35"/>
    <rect class="st4" x="370.08" y="261.12" width="21.52" height="146.35"/>
    <path class="st6" d="M136.76,407.05c-.09,0-.16-32.69-.16-72.96s.08-72.96.16-72.96.16,32.69.16,72.96-.04,72.96-.16,72.96Z"/>
    <rect class="st10" x="102.19" y="282.22" width="62.43" height="18.3"/>
    <ellipse class="st7" cx="111.98" cy="291.77" rx="5.75" ry="5.65"/>
    <path class="st9" d="M112.44,291.85c.48-.19.8-.67.79-1.19.13-.69-.32-1.34-1-1.47s-1.34.32-1.47,1c-.03.16-.03.31,0,.47,0,.52.3,1,.79,1.21-1.89.28-1.81,2.31-1.81,2.31h4.49s.1-2.04-1.79-2.33Z"/>
    <path class="st7" d="M157.29,291.54c0,.09-7.96.17-17.79.17s-17.8-.08-17.8-.17,7.96-.16,17.8-.16,17.79.08,17.79.16h0Z"/>
    <path class="st6" d="M291.52,357.66h-12.48c-12.74,0-23.11-10.19-23.11-22.72v-22.97c0-12.18-10.06-22.09-22.47-22.09l-68.83.34v-.63l68.83-.34c12.74,0,23.11,10.19,23.11,22.72v22.97c0,12.18,10.06,22.09,22.48,22.09h12.48v.63h-.01Z"/>
    <rect class="st7" x="283.48" y="349.33" width="48.08" height="18.3"/>
    <path class="st6" d="M331.88,367.94h-48.71v-18.93h48.71v18.93ZM283.8,367.31h47.45v-17.67h-47.45v17.67h0Z"/>
    <ellipse class="st10" cx="293.28" cy="358.88" rx="5.75" ry="5.65"/>
    <path class="st7" d="M293.74,358.96c.48-.2.8-.67.8-1.2.13-.69-.32-1.34-1-1.47-.69-.13-1.34.32-1.47,1-.03.16-.03.31,0,.47,0,.53.3,1.01.79,1.21-1.89.28-1.81,2.31-1.81,2.31h4.49s.09-2.01-1.8-2.32h0Z"/>
    <path class="st6" d="M319.49,358.64c-.21.04-.41.07-.63.06-.42,0-1.02.04-1.77.05-1.49.03-3.55.05-5.83.05s-4.34,0-5.83-.05c-.75,0-1.35-.03-1.77-.05-.21,0-.42-.02-.63-.06.21-.05.41-.07.63-.06l1.77-.06c1.49,0,3.55-.04,5.83-.04s4.34,0,5.83.04l1.77.06c.21,0,.42.01.63.06Z"/>
    <rect class="st7" x="343.07" y="319.38" width="18.3" height="40.82" transform="translate(11.26 690.88) rotate(-89.81)"/>
    <path class="st5" d="M372.92,349.33l-41.45-.11.07-18.93,41.44.14-.06,18.9h0ZM332.09,348.59l40.19.13.06-17.67-40.19-.13-.06,17.67Z"/>
    <path class="st10" d="M347,340.18c-.02,3.11-2.55,5.6-5.66,5.58s-5.6-2.55-5.58-5.66c.02-3.1,2.54-5.59,5.64-5.58,3.11.03,5.6,2.55,5.6,5.66h0Z"/>
    <path class="st7" d="M341.83,340.24c.47-.21.78-.68.77-1.19,0-.67-.54-1.21-1.21-1.21s-1.21.54-1.21,1.21c-.01.52.29,1,.77,1.21-1.89.28-1.79,2.31-1.79,2.31h4.4s.1-2.04-1.74-2.33h.01Z"/>
    <path class="st5" d="M368.09,340.03c-.22.05-.45.08-.68.06-.43,0-1.06,0-1.84.04-1.56,0-3.71.04-6.08,0s-4.53-.04-6.09-.08l-1.84-.06c-.23,0-.46-.01-.68-.07.23-.04.45-.06.68-.06.43,0,1.07-.04,1.85-.05,1.55,0,3.71-.03,6.08,0s4.53.04,6.08.08c.78,0,1.41.04,1.84.06.23,0,.46.02.68.07h0Z"/>
    <rect class="st7" x="164.69" y="313.19" width="70.59" height="18.3"/>
    <path class="st12" d="M235.59,331.8h-71.22v-18.93h71.22v18.93ZM165,331.17h69.96v-17.67h-69.96v17.67Z"/>
    <path class="st12" d="M227.38,322.51c0,.09-8.65.16-19.32.16s-19.31-.08-19.31-.16,8.64-.16,19.31-.16,19.32.08,19.32.16Z"/>
    <ellipse class="st9" cx="175.52" cy="322.51" rx="5.75" ry="5.65"/>
    <path class="st7" d="M175.99,322.59c.48-.21.79-.67.79-1.19.13-.69-.32-1.34-1-1.47-.69-.13-1.34.32-1.47,1-.03.16-.03.31,0,.47-.02.53.3,1.01.79,1.21-1.89.28-1.82,2.31-1.82,2.31h4.49s.1-2.04-1.78-2.33h0Z"/>
    <rect class="st7" x="220.53" y="331.88" width="62.43" height="18.3"/>
    <path class="st5" d="M283.27,350.47h-63.06v-18.91h63.06v18.91ZM220.84,349.84h61.81v-17.65h-61.81v17.65Z"/>
    <ellipse class="st9" cx="230.31" cy="341.43" rx="5.75" ry="5.65"/>
    <path class="st7" d="M230.78,341.51c.48-.2.79-.67.79-1.19.13-.69-.32-1.34-1-1.47-.69-.13-1.34.32-1.47,1-.03.16-.03.31,0,.47,0,.52.3,1,.79,1.21-1.89.28-1.81,2.31-1.81,2.31h4.49s.1-2.04-1.79-2.33Z"/>
    <path class="st5" d="M275.63,341.2c0,.09-7.96.16-17.79.16s-17.8-.07-17.8-.16,7.98-.16,17.8-.16,17.79.07,17.79.16Z"/>
    <path class="st5" d="M391.6,407.67c0-1.01.18-65.95.48-170.98l.13.13-301.29.04h0l.16-.16c-.22,60.48-.43,118.31-.63,170.98l-.15-.15,301.31.15-301.31.16h-.16v-.16c.19-52.67.39-110.49.63-170.98v-.16h.18l301.29.04h.13v.13c-.49,105.04-.77,169.99-.77,170.98h0v-.02h0Z"/>
  </g>
  <path class="st8" d="M356.61,240.97l11.22-.03c1.13,0,2.04.91,2.05,2.03h0c0,1.12-.91,2.04-2.03,2.04l-11.22.03c-1.13,0-2.04-.91-2.05-2.03h0c0-1.12.91-2.04,2.03-2.04Z"/>
  <circle class="st9" cx="346.71" cy="243.03" r="3.57"/>
  <g id="freepik--background-complete--inject-37">
    <rect class="st7" x="364.47" y="259.45" width="124.58" height="36.8"/>
    <path class="st0" d="M489.55,296.75h-125.58v-37.8h125.58v37.8ZM364.97,295.75h123.58v-35.8h-123.58v35.8h0Z"/>
    <circle class="st4" cx="383.85" cy="278.68" r="11.37"/>
    <path class="st7" d="M384.75,278.83c.95-.43,1.55-1.37,1.55-2.41.12-1.35-.87-2.54-2.22-2.66s-2.54.87-2.66,2.22v.44c-.02,1.05.59,2.01,1.55,2.44-3.76.56-3.58,4.64-3.58,4.64h8.88s.2-4.11-3.52-4.67Z"/>
    <path class="st0" d="M474.73,278.21c0,.15-16,.26-35.84.26s-35.83-.11-35.83-.26,16-.26,35.83-.26,35.84.1,35.84.26Z"/>
    <rect class="st7" x="17.48" y="112.53" width="124.58" height="36.8"/>
    <path class="st0" d="M142.55,149.83H16.95v-37.8h125.61v37.8ZM17.98,148.83h123.58v-35.8H17.95l.03,35.8h0Z"/>
    <circle class="st4" cx="36.84" cy="131.74" r="11.37"/>
    <path class="st7" d="M37.76,131.9c.95-.42,1.56-1.36,1.55-2.4.12-1.35-.87-2.54-2.22-2.66s-2.54.87-2.66,2.22v.44c-.02,1.05.59,2.01,1.55,2.43-3.75.57-3.58,4.65-3.58,4.65h8.88s.2-4.07-3.52-4.68Z"/>
    <path class="st0" d="M127.74,131.27c0,.15-16.05.26-35.83.26s-35.84-.11-35.84-.26,16-.26,35.84-.26,35.83.12,35.83.26h0Z"/>
    <rect class="st7" x="113.8" y="75.34" width="124.58" height="36.8"/>
    <path class="st0" d="M238.88,112.64h-125.58v-37.8h125.58v37.8ZM114.3,111.64h123.58v-35.8h-123.58v35.8h0Z"/>
    <circle class="st4" cx="133.14" cy="94.55" r="11.37"/>
    <path class="st7" d="M134.06,94.71c.95-.42,1.56-1.36,1.55-2.4.12-1.35-.87-2.54-2.22-2.66s-2.54.87-2.66,2.22v.44c-.02,1.05.6,2.01,1.56,2.43-3.76.57-3.59,4.65-3.59,4.65h8.88s.2-4.11-3.52-4.68Z"/>
    <path class="st0" d="M224.05,94.08c0,.15-16,.26-35.83.26s-35.84-.11-35.84-.26,16-.26,35.84-.26,35.83.12,35.83.26h0Z"/>
  </g>
</svg>