<?xml version="1.0" encoding="UTF-8"?>
<svg id="Layer_1" xmlns="http://www.w3.org/2000/svg" version="1.1" viewBox="0 0 500 500">
  <!-- Generator: Adobe Illustrator 29.5.1, SVG Export Plug-In . SVG Version: 2.1.0 Build 141)  -->
  <defs>
    <style>
      .st0 {
        fill: #e0e0e0;
      }

      .st1 {
        fill: #4462e4;
      }

      .st2 {
        fill: #aa6550;
      }

      .st3 {
        fill: #b78876;
      }

      .st4 {
        fill: #5bb0c9;
      }

      .st5 {
        fill: #ebebeb;
      }

      .st6 {
        fill: #263238;
      }

      .st7 {
        fill: #fff;
      }

      .st8 {
        fill: #fafafa;
      }

      .st9 {
        opacity: .2;
      }

      .st10 {
        fill: #455a64;
      }
    </style>
  </defs>
  <g id="freepik--background-complete--inject-5">
    <rect class="st0" x="111.49" y="62.71" width="90.75" height="124.67" rx="2.41" ry="2.41" transform="translate(-38.71 80.4) rotate(-25.7)"/>
    <rect class="st8" x="115.85" y="65.54" width="80.62" height="116.04" transform="translate(-38.13 79.94) rotate(-25.7)"/>
    <path class="st5" d="M146.53,65.74c-2.96-2.29-6.96-2.71-10.33-1.08l-2.2-4.42c-1.62-3.38-5.67-4.8-9.05-3.18,0,0,0,0-.01,0h0c-3.37,1.63-4.79,5.68-3.17,9.05l2.23,4.64-1.55.78c-3.3,1.65-5.4,5.01-5.45,8.7v2.3l31.63-15.22-2.1-1.58ZM129.65,66.46c-1.82.88-4.01.11-4.89-1.71s-.11-4.01,1.71-4.89,4.01-.11,4.89,1.71c0,0,0,0,0,0,.88,1.82.12,4-1.7,4.87,0,0,0,0-.01,0Z"/>
    <path class="st0" d="M128.73,90.6c.06.13-4.29,2.36-9.73,5s-9.9,4.64-10,4.51,4.29-2.36,9.73-5,9.94-4.64,10-4.51Z"/>
    <path class="st0" d="M120.13,98.83c-1.46.99-3.01,1.83-4.64,2.52-1.55.84-3.18,1.53-4.86,2.05,1.46-.98,3.02-1.83,4.64-2.52,1.55-.84,3.18-1.53,4.86-2.05Z"/>
    <path class="st0" d="M170.86,85.81c.06.13-12.16,6.15-27.3,13.43s-27.46,13.09-27.52,13,12.16-6.14,27.3-13.43,27.46-13.13,27.52-13Z"/>
    <path class="st0" d="M173.37,91c.07.13-12.16,6.14-27.29,13.43s-27.46,13.09-27.53,13,12.16-6.14,27.3-13.43,27.46-13.09,27.52-13Z"/>
    <path class="st0" d="M175.89,96.27c.06.13-12.16,6.14-27.3,13.43s-27.46,13.09-27.52,13,12.16-6.14,27.3-13.43,27.46-13.13,27.52-13Z"/>
    <path class="st0" d="M178.41,101.5c.06.13-12.16,6.14-27.3,13.42s-27.46,13.09-27.52,13,12.15-6.14,27.3-13.43,27.45-13.12,27.52-12.99Z"/>
    <path class="st0" d="M180.92,106.72c.07.13-12.16,6.15-27.29,13.43s-27.46,13.09-27.53,13,12.16-6.14,27.3-13.43,27.46-13.13,27.52-13Z"/>
    <path class="st0" d="M183.44,112c.06.13-12.16,6.14-27.3,13.43s-27.46,13.09-27.52,13,12.16-6.14,27.3-13.43,27.46-13.18,27.52-13Z"/>
    <path class="st0" d="M158.3,129.86c-.31.24-.65.44-1,.61l-2.94,1.53c-2.46,1.23-5.87,2.91-9.65,4.73s-7.23,3.44-9.73,4.6l-3,1.34c-.36.18-.73.32-1.12.42.31-.24.64-.45,1-.61l2.9-1.49c2.46-1.23,5.88-2.91,9.66-4.73s7.22-3.44,9.72-4.6l3-1.33c.37-.2.76-.36,1.16-.47Z"/>
    <path class="st0" d="M167,71.62c-1.35.95-2.81,1.74-4.33,2.38-1.43.78-2.94,1.41-4.5,1.88,1.34-.93,2.77-1.72,4.28-2.35,1.44-.8,2.97-1.44,4.55-1.91Z"/>
    <path class="st0" d="M151.32,147.25c-2.25,1.37-4.59,2.6-7,3.66-2.34,1.22-4.76,2.29-7.24,3.19,2.25-1.37,4.59-2.59,7-3.66,2.34-1.22,4.76-2.29,7.24-3.19Z"/>
    <path class="st0" d="M154.08,151.76c-2.29,1.39-4.67,2.64-7.12,3.72-2.38,1.24-4.83,2.33-7.35,3.25,2.29-1.39,4.67-2.64,7.12-3.72,2.38-1.23,4.84-2.32,7.35-3.25Z"/>
    <path class="st0" d="M192.27,126.66c-1.02.78-2.14,1.41-3.33,1.89-1.12.63-2.31,1.11-3.55,1.42,2.13-1.41,4.45-2.52,6.88-3.31Z"/>
    <path class="st0" d="M194.57,130.82c-1.02.77-2.14,1.41-3.33,1.89-1.12.63-2.31,1.11-3.56,1.42,1.02-.78,2.14-1.41,3.33-1.89,1.11-.64,2.31-1.11,3.56-1.42Z"/>
    <path class="st0" d="M149.84,160c-.98.76-2.06,1.37-3.21,1.83-1.08.61-2.24,1.07-3.44,1.37.98-.76,2.06-1.38,3.21-1.84,1.08-.61,2.23-1.07,3.44-1.36Z"/>
    <path class="st0" d="M197.2,135.69c-1.5,1.1-3.2,1.91-5,2.39,1.5-1.1,3.2-1.91,5-2.39Z"/>
    <path class="st0" d="M148.17,174.61s.09-.08.28-.21l.84-.56,3.23-2.08,11.61-7.28.23-.15.1.25c.55,1.41.59,2.97.12,4.41-.85,2.84-3.85,4.45-6.69,3.6-.52-.15-1-.39-1.45-.69-1.48-1.14-2.13-3.06-1.65-4.87.17-.68.52-1.31,1-1.82.11-.13.24-.25.38-.36.14-.12.29-.23.45-.31.22-.12.48-.12.7,0,.17.11.31.27.39.46.61,1.14.95,2.41,1,3.7.07,1.24-.12,2.49-.57,3.65-.39,1.16-1.14,2.16-2.15,2.85-1.05.62-2.36.6-3.38-.07-.93-.58-1.64-1.47-2-2.51-.46-1.85-.46-3.79,0-5.65l.06-.38.26.29c1.06,1.21,1.72,2.71,1.9,4.31.15,1.19.03,2.4-.33,3.55-.23.71-.57,1.39-1,2-.11.16-.24.31-.37.45-.09.1-.13.15-.14.14.58-.81,1.03-1.71,1.32-2.66.32-1.12.41-2.3.24-3.45-.2-1.53-.85-2.96-1.88-4.1l.31-.1c-.44,1.79-.44,3.66,0,5.45.34.94.98,1.73,1.83,2.25.87.58,2,.6,2.89.06.91-.64,1.59-1.56,1.94-2.62.84-2.26.68-4.78-.44-6.92-.05-.09-.12-.17-.2-.24-.07-.04-.15-.04-.22,0-.25.14-.47.32-.65.54-.41.45-.7,1-.84,1.59-.42,1.6.15,3.3,1.45,4.33,2.24,1.5,5.27.9,6.77-1.33.27-.4.48-.84.62-1.31.44-1.33.41-2.78-.09-4.09l.33.11-11.71,7.16-3.3,2-.88.51c-.1.05-.2.08-.31.1Z"/>
    <path class="st0" d="M200.09,149.4c0,.32-.06.64-.16.94-.1.37-.26.73-.46,1.06-.29.46-.73.8-1.25.95-.32.11-.68.11-1,0-.33-.14-.62-.36-.83-.65-.41-.61-.78-1.25-1.12-1.9-.75-1.38-1.59-2.9-2.48-4.54l.45-.1c-.08,2.29-.17,4.79-.26,7.41,0,.63-.05,1.24-.07,1.85v1l-.45-.93c-1.37-2.81-2.64-5.44-3.76-7.73h.42c-.63,2.28-.95,4.63-.95,7,0,1.71.11,2.68,0,2.69-.07-.23-.12-.46-.14-.7-.09-.66-.15-1.33-.17-2-.09-2.39.17-4.78.78-7.09l.15-.58.26.54c1.14,2.28,2.43,4.89,3.82,7.69l-.49.1c0-.61.05-1.22.07-1.85.11-2.62.21-5.12.3-7.41v-.9l.42.79c.88,1.65,1.69,3.19,2.42,4.57.3.65.63,1.28,1,1.89.3.49.89.74,1.45.61.81-.28,1.42-.95,1.64-1.78.12-.32.25-.63.41-.93Z"/>
    <path class="st0" d="M200,145.65c.09.12-4,3.07-9.21,6.59s-9.43,6.27-9.51,6.15,4-3.07,9.21-6.58,9.41-6.27,9.51-6.16Z"/>
    <path class="st0" d="M205.06,146.53c-2.14,2.17-4.4,4.23-6.76,6.15-2.26,2.05-4.63,3.97-7.1,5.76,2.14-2.18,4.39-4.23,6.76-6.15,2.25-2.06,4.62-3.98,7.1-5.76Z"/>
  </g>
  <g id="freepik--Character--inject-5">
    <path class="st1" d="M193.65,341.44s-28.44,19.32-30,64.42c-.52,15.13,6.91,63.3,6.91,63.3l166.33.67-31.11-129.11-52.33-12-59.8,12.72Z"/>
    <polygon class="st6" points="257.19 374.92 234.53 469.45 291.17 469.83 257.19 374.92"/>
    <path class="st6" d="M256.33,354.45c.18,1.02.28,2.05.3,3.09.13,2.08.29,4.64.47,7.48s.28,5.57.32,7.48c.07,1.04.04,2.08-.07,3.11-.18-1.02-.28-2.05-.3-3.09-.13-2.07-.29-4.64-.47-7.47s-.28-5.57-.31-7.49c-.07-1.04-.05-2.08.06-3.11Z"/>
    <path class="st6" d="M266.59,364.87s-.37.13-1,.48c-.83.5-1.48,1.23-1.89,2.1-.64,1.28-.56,2.79.2,4,1.17,2.03,3.77,2.72,5.79,1.55,1.04-.6,1.78-1.62,2.03-2.8.36-1.37-.02-2.82-1-3.84-.66-.71-1.51-1.2-2.45-1.41-.66-.15-1-.11-1.06-.16s.1,0,.28-.06c.27-.04.55-.04.82,0,1.01.15,1.95.62,2.67,1.35.51.5.9,1.11,1.14,1.78.27.79.31,1.63.11,2.44-.53,2.55-3.02,4.18-5.57,3.65-1.32-.27-2.46-1.1-3.13-2.27-.44-.71-.66-1.52-.65-2.35.03-.7.21-1.38.53-2,.46-.92,1.2-1.66,2.12-2.12.24-.13.5-.22.77-.27.19-.08.28-.09.29-.07Z"/>
    <path class="st6" d="M284.72,416.48s-.37.14-1,.48c-.82.5-1.48,1.23-1.88,2.1-.64,1.28-.56,2.79.2,4,1.17,2.03,3.77,2.72,5.79,1.55,1.04-.6,1.78-1.62,2.03-2.8.36-1.37-.02-2.82-1-3.84-.65-.7-1.5-1.2-2.44-1.41-.67-.15-1.06-.11-1.06-.16.09-.04.18-.06.28-.06.27-.03.54-.03.81,0,1.02.15,1.96.63,2.68,1.36.51.5.89,1.1,1.13,1.77.28.78.32,1.63.11,2.44-.51,2.54-2.97,4.19-5.51,3.68-1.34-.27-2.5-1.11-3.18-2.3-.44-.7-.67-1.52-.65-2.35.02-.7.21-1.38.53-2,.46-.92,1.2-1.66,2.12-2.12.24-.12.5-.21.77-.27.09-.04.18-.06.27-.07Z"/>
    <path class="st6" d="M225.91,379c-.1.16-.22.31-.36.44-.24.28-.6.69-1.09,1.2-1.4,1.43-2.9,2.77-4.48,4-5.26,4.04-11.33,6.89-17.8,8.37-3.55.85-7.21,1.15-10.85.88-3-.22-5.89-1.25-8.34-3-1.64-1.2-2.95-2.78-3.83-4.61-.22-.5-.4-1.01-.54-1.54-.06-.18-.09-.37-.09-.56.05,0,.2.76.82,2,.92,1.75,2.24,3.26,3.86,4.39,2.42,1.66,5.23,2.65,8.16,2.85,3.59.23,7.2-.08,10.7-.92,6.4-1.47,12.42-4.25,17.69-8.16,1.59-1.19,3.11-2.47,4.55-3.83l1.17-1.13c.27-.27.41-.38.43-.38Z"/>
    <path class="st6" d="M225.91,388.36c-.1.16-.22.31-.36.44-.24.28-.6.7-1.09,1.21-6.08,6.18-13.82,10.47-22.28,12.35-3.55.85-7.21,1.15-10.85.89-3-.22-5.89-1.26-8.34-3-1.64-1.19-2.96-2.77-3.83-4.6-.22-.5-.4-1.02-.54-1.55-.06-.18-.09-.37-.09-.56.05,0,.2.76.82,2,.92,1.75,2.24,3.26,3.86,4.4,2.42,1.66,5.24,2.64,8.16,2.84,3.59.23,7.2-.08,10.7-.92,6.4-1.47,12.42-4.24,17.69-8.15,1.59-1.19,3.11-2.48,4.55-3.84l1.17-1.13c.13-.14.27-.27.43-.38Z"/>
    <path class="st6" d="M227.38,385.53c.04.13.06.26.07.4,0,.29.07.69.13,1.19.12,1.08.29,2.62.5,4.59.42,4,1.22,9.73,1.58,16.9.21,3.91.12,7.83-.25,11.73-.41,4.49-1.42,8.91-3,13.13-1.74,4.7-4.51,8.95-8.09,12.45-1.9,1.84-4.04,3.42-6.36,4.7-2.4,1.31-4.99,2.22-7.68,2.71-5.36.87-10.86-.15-15.55-2.88-4.38-2.48-8.06-6.01-10.73-10.28-2.35-3.86-4.04-8.08-5-12.49-.85-3.84-1.32-7.75-1.38-11.68-.02-5.67.38-11.32,1.2-16.93.29-2,.51-3.5.66-4.57.08-.5.15-.89.19-1.19.02-.14.05-.27.09-.4.01.14.01.27,0,.41,0,.3-.08.69-.14,1.19-.13,1.08-.32,2.62-.57,4.58-.73,5.6-1.07,11.25-1,16.9.08,3.89.56,7.77,1.42,11.57.98,4.35,2.66,8.52,5,12.32,2.61,4.2,6.23,7.68,10.53,10.12,4.59,2.67,9.97,3.67,15.21,2.81,2.63-.47,5.17-1.36,7.52-2.65,2.28-1.25,4.39-2.8,6.26-4.61,3.54-3.44,6.27-7.63,8-12.25,1.57-4.18,2.58-8.55,3-13,.39-3.88.49-7.78.31-11.67-.31-7.15-1-12.91-1.41-16.9-.2-2-.33-3.55-.41-4.6,0-.5-.06-.9-.08-1.2s-.02-.4-.02-.4Z"/>
    <g class="st9">
      <path d="M175.34,435.06c1.8,6.1,2.57,7.68,5.94,12.55,3.11,4.62,7.67,8.07,12.95,9.82,7.68,2.65,16.19,1.14,22.48-4,6.11-5.11,8.27-13,9.33-18.35-2.66,3.58-5.49,8.67-8.84,11.62s-7.78,5.53-12.2,6.3c-6,1-13.15-.8-18.28-4.06s-8.23-9.1-11.41-13.87"/>
    </g>
    <g class="st9">
      <path d="M179.62,396.27c2.32,5.16,7.02,8.85,12.59,9.87,5.41,1,12.42-.71,15.8-5.79-11.9,4.18-23.73,4.28-28.39-4.08"/>
    </g>
    <path class="st6" d="M277.41,381.52c-.25.04-.52.04-.77,0-.68-.09-1.35-.24-2-.44-4.46-1.32-8.28-4.22-10.75-8.16-.38-.59-.71-1.2-1-1.84-.19-.46-.28-.71-.24-.73s.54.94,1.52,2.37c1.29,1.84,2.86,3.48,4.64,4.85,1.8,1.35,3.8,2.42,5.92,3.16,1.63.51,2.69.7,2.68.79Z"/>
    <g class="st9">
      <path d="M263.57,371c1.23,4.18,5.87,8.08,10,9.45.81.3,1.67.43,2.53.37.87-.06,1.67-.5,2.18-1.21.87-1.33.12-3.22-1.16-4.16-1.36-.83-2.88-1.37-4.46-1.59-3.19-.74-6.07.87-8.71-1.81"/>
    </g>
    <g class="st9">
      <path d="M175.13,363.26c7.46,6.52,18,6.8,27.49,4s17.76-8.07,25.82-13.83c-8.79,1.75-16.29,5.76-25.16,7.07-8.47,1.25-17.28,1.38-25.61-1.45"/>
    </g>
    <path class="st6" d="M318.19,463.42c-.06.05-.12.09-.19.11-.19.1-.39.19-.59.27-.78.31-1.6.52-2.43.6-3.09.26-6.18-.57-8.73-2.34-3.32-2.11-6.34-5.66-9.57-9.6-3.47-4.32-6.58-8.92-9.31-13.74-4.96-8.77-8.75-18.15-11.29-27.9-1-3.74-1.58-6.8-1.95-8.93-.16-1-.29-1.85-.39-2.45-.05-.28-.08-.57-.1-.86.1.27.17.55.21.84l.48,2.43c.43,2.11,1.1,5.16,2.1,8.87,2.63,9.68,6.46,19,11.39,27.74,2.72,4.8,5.81,9.38,9.24,13.7,3.19,3.94,6.17,7.49,9.39,9.59,2.49,1.77,5.5,2.63,8.55,2.45,1.09-.11,2.17-.38,3.19-.78Z"/>
    <g class="st9">
      <path d="M282.23,426.52s14.76,18.56,25.53,23.11c3.65,1.55,7.67,2.81,10.16,5.89,1.26,1.43,1.83,3.34,1.55,5.22-.04.22-.11.44-.2.64-1.55,3.95-9,3.4-12.41.9-1.49-1.09-.61-.39-1.81-1.29-3.45-2.6-21.92-23.99-22.82-34.47Z"/>
    </g>
    <polygon class="st0" points="217.07 176.02 226.49 174.15 273.08 174.7 296.75 179.9 305.78 312.08 201.13 316.97 217.07 176.02"/>
    <path class="st1" d="M284.84,306l2.23-60.12-3.71-69.71c14.72,3.79,34.85,8,46,20.71,7.23,8.25,14.32,18.8,17,35.79,3.08,20,7.14,58.25,9.68,79.65"/>
    <path class="st1" d="M299.64,296.14l-72.35,11.75-2.56-44.68-4-88.33c-21,.86-44.9,18.21-52.07,31.73-5,9.38-9.19,20.28-10.5,30.83-2.51,20-6.76,54.27-9.3,75.68-1.56,13.18,2.9,26.35,12.14,35.88h0c10.5,10.83,26.94,14.58,41.72,11.52l110.16-31-13.24-33.38Z"/>
    <path class="st6" d="M292,295.34c0-.09.02-.17.05-.25.06-.18.13-.42.21-.72.21-.67.49-1.6.86-2.79.78-2.46,1.89-6,3.27-10.38l11.35-35.44.15.31-11.73-4.85-.46-.19.41-.27,2.71-1.78,8.85-5.78-.1.28c-4.5-15.62-8.46-29.4-11.31-39.31-1.39-4.92-2.51-8.88-3.3-11.64-.36-1.35-.65-2.4-.86-3.15-.09-.33-.16-.6-.21-.81-.03-.09-.05-.18-.06-.28,0,0,0,.08.1.26l.26.81c.23.74.55,1.78.95,3.12l3.45,11.59,11.47,39.27.05.18-.16.11-8.84,5.79-2.71,1.77v-.46l11.72,4.87.22.09-.07.22c-4.62,14.19-8.65,26.54-11.53,35.39-1.45,4.38-2.6,7.89-3.41,10.33-.4,1.18-.72,2.11-.94,2.77-.1.29-.19.52-.25.71-.04.08-.08.16-.14.23Z"/>
    <g class="st9">
      <path d="M308,233.56c-.59,2.17-1.87,4.09-3.64,5.47-1.38.79-.59,1.84.55,2.94,1.37,1.32,3.57,1.68,4.58,3.28s.44,3.43-.08,5.11c-5.01,15.94-11.09,31.52-18.2,46.64l16.79-51.17-11.71-4.83,11.71-7.44Z"/>
    </g>
    <path class="st6" d="M221.27,296.58c-.05-.06-.09-.13-.12-.21-.07-.16-.17-.36-.28-.62l-1.08-2.44c-.94-2.16-2.28-5.27-4-9.15l-13.49-31.62-.08-.18.17-.12,9.25-6.62v.38l-6.13-4.86-2.72-2.14-1.35-1-.33-.27c-.07-.05-.13-.11-.19-.17-.06-.08-.11-.18-.14-.28-.07-.3-.11-.6-.11-.91.06-2.24.27-4.47.62-6.68.61-4.33,1.33-8.49,2-12.45,1.42-7.91,2.83-15,4-21s2.22-10.77,2.93-14.09c.36-1.64.65-2.92.85-3.83l.23-1c.02-.11.05-.23.1-.33,0,.12-.02.24-.05.35,0,.25-.11.58-.18,1-.18.91-.43,2.19-.75,3.84-.66,3.36-1.6,8.18-2.76,14.12s-2.52,13.07-3.92,21c-.69,3.95-1.4,8.11-2,12.43-.34,2.18-.55,4.39-.61,6.6,0,.26.03.51.09.76,0,.12.29.3.5.48l1.34,1.06,2.71,2.15,6.12,4.85.27.22-.28.2-9.26,6.6.08-.31,13.41,31.66c1.63,3.91,2.93,7,3.83,9.21.43,1.05.77,1.87,1,2.47l.24.64c.04.08.07.17.09.26Z"/>
    <rect class="st4" x="210.1" y="261.62" width="107.94" height="78.58" rx="2.41" ry="2.41" transform="translate(-73.58 516.01) rotate(-81.23)"/>
    <g class="st9">
      <rect x="210.1" y="261.62" width="107.94" height="78.58" rx="2.41" ry="2.41" transform="translate(-73.58 516.01) rotate(-81.23)"/>
    </g>
    <rect class="st5" x="214.05" y="264.59" width="100.48" height="69.81" transform="translate(-72 515.03) rotate(-81.23)"/>
    <path class="st6" d="M285.72,253.53c-1-3.08-3.65-5.34-6.85-5.83l.58-4.25c.49-3.21-1.71-6.2-4.91-6.7h0c-3.21-.5-6.21,1.7-6.71,4.91l-.68,4.4-1.48-.2c-3.17-.44-6.31.93-8.15,3.54l-1.15,1.6,30,4.64-.65-2.11ZM273.32,245.77c-1.73-.26-2.91-1.88-2.65-3.6.26-1.73,1.88-2.91,3.6-2.65,1.73.26,2.91,1.88,2.65,3.6h0c-.27,1.73-1.88,2.9-3.6,2.65Z"/>
    <path class="st6" d="M260.83,262.55c-3.15-.22-6.29-.61-9.4-1.18-3.13-.4-6.24-.97-9.31-1.7,3.15.22,6.28.61,9.39,1.18,3.13.4,6.25.97,9.32,1.7Z"/>
    <path class="st6" d="M250.65,264.21c-1.53.03-3.06-.11-4.55-.44-1.52-.15-3.02-.47-4.47-.95,1.53-.02,3.05.13,4.55.44,1.52.15,3.02.47,4.47.95Z"/>
    <path class="st6" d="M293.24,279.79c0,.14-11.7-1.55-26.07-3.76s-26-4.14-26-4.28,11.69,1.54,26.07,3.76,26.02,4.13,26,4.28Z"/>
    <path class="st6" d="M292.47,284.75c0,.14-11.69-1.54-26.07-3.76s-26-4.13-26-4.27,11.69,1.54,26.07,3.76,26.02,4.13,26,4.27Z"/>
    <path class="st6" d="M291.71,289.72c0,.14-11.7-1.55-26.07-3.76s-26-4.14-26-4.28,11.7,1.54,26.08,3.76c14.38,2.22,26.01,4.13,25.99,4.28Z"/>
    <path class="st6" d="M290.94,294.68c0,.14-11.69-1.54-26.07-3.76s-26-4.13-26-4.28,11.69,1.55,26.07,3.77,26.06,4.13,26,4.27Z"/>
    <path class="st6" d="M290.17,299.64c0,.15-11.69-1.54-26.07-3.76s-26-4.13-26-4.27,11.69,1.54,26.07,3.76,26.03,4.13,26,4.27Z"/>
    <path class="st6" d="M289.41,304.61c0,.14-11.7-1.54-26.07-3.76s-26-4.13-26-4.28,11.69,1.54,26.07,3.76,26.02,4.14,26,4.28Z"/>
    <path class="st6" d="M262.69,305.07c-.33.02-.67,0-1-.06-.67-.07-1.62-.19-2.8-.35-2.37-.32-5.63-.79-9.22-1.34s-6.84-1.09-9.19-1.5c-1.18-.2-2.12-.38-2.78-.51-.34-.04-.68-.13-1-.26.33-.02.67,0,1,.06.67.07,1.62.19,2.8.35,2.37.31,5.63.79,9.22,1.34s6.84,1.09,9.19,1.5c1.18.2,2.12.38,2.78.51.34.04.68.13,1,.26Z"/>
    <path class="st6" d="M297.41,267.74c-1.41.04-2.83-.09-4.21-.39-1.41-.13-2.8-.43-4.13-.9,2.82.09,5.62.52,8.34,1.29Z"/>
    <path class="st6" d="M249.18,314.06c-2.28-.09-4.56-.36-6.8-.79-2.27-.26-4.52-.7-6.72-1.3,2.28.09,4.56.36,6.8.79,2.27.26,4.52.7,6.72,1.3Z"/>
    <path class="st6" d="M248.94,318.64c-2.32-.1-4.64-.37-6.92-.81-2.31-.26-4.59-.7-6.83-1.32,2.32.1,4.63.37,6.91.81,2.31.26,4.6.7,6.84,1.32Z"/>
    <path class="st6" d="M288.5,319.44c-2.22,0-4.42-.33-6.53-1,1.11-.09,2.23,0,3.31.24,1.11.08,2.19.33,3.22.76Z"/>
    <path class="st6" d="M288.1,323.53c-2.22,0-4.42-.33-6.53-1,2.22,0,4.42.33,6.53,1Z"/>
    <path class="st6" d="M241.9,322.4c-1.07.09-2.15.01-3.2-.23-1.07-.08-2.12-.33-3.11-.75,1.07-.09,2.15-.02,3.19.23,1.07.08,2.13.33,3.12.75Z"/>
    <path class="st6" d="M287.6,328.3c-.8.13-1.62.09-2.41-.11-.81-.04-1.61-.25-2.33-.62.8-.14,1.62-.11,2.41.1.81.04,1.61.26,2.33.63Z"/>
    <path class="st6" d="M233.52,332.05c.39-.03.79-.03,1.18,0l3.32.1,11.86.47h.27l-.06.26c-.3,1.29-1.03,2.43-2.08,3.23-1.12.9-2.6,1.23-4,.91-1.5-.35-2.73-1.41-3.29-2.85-.52-1.55-.03-3.27,1.22-4.32.45-.41.99-.69,1.58-.84.15-.04.3-.06.45-.07.16-.02.33-.02.49,0,.22.04.41.18.51.38.07.17.09.36.06.54-.13,1.12-.5,2.2-1.09,3.16-.57.92-1.32,1.72-2.21,2.34-.87.65-1.92,1-3,1-1.06-.07-1.99-.74-2.4-1.73-.38-.88-.45-1.86-.2-2.79.59-1.54,1.55-2.92,2.8-4l.27-.27v.38c.16,1.38-.11,2.78-.76,4-.49.93-1.17,1.73-2,2.37-.52.4-1.09.72-1.71.94-.21.08-.43.14-.66.16.81-.3,1.57-.72,2.25-1.26.77-.64,1.4-1.44,1.85-2.34.6-1.18.83-2.52.65-3.84l.32.1c-1.18,1.06-2.09,2.39-2.65,3.88-.22.83-.15,1.71.2,2.49.34.82,1.11,1.38,2,1.44.96-.01,1.88-.33,2.64-.91,1.71-1.2,2.83-3.07,3.07-5.14.02-.09.02-.18,0-.27,0-.05,0-.07-.14-.09-.24-.01-.49,0-.72.07-.5.13-.97.37-1.36.72-1.08.92-1.5,2.41-1.07,3.76.85,2.15,3.28,3.2,5.42,2.35.39-.15.76-.37,1.09-.63.97-.72,1.65-1.76,1.93-2.94l.21.27-11.76-.69-3.32-.22c-.39-.02-.78-.06-1.16-.12Z"/>
    <path class="st6" d="M282.94,339.5c-.16.23-.35.43-.57.6-.26.22-.54.4-.85.54-.43.19-.92.22-1.37.07-.28-.09-.53-.27-.7-.51-.17-.26-.27-.57-.28-.88,0-.64.06-1.28.14-1.91.13-1.36.28-2.85.44-4.46l.43.17-3.82,5.17-.95,1.28-.62.84.15-1c.41-2.67.78-5.16,1.11-7.35l.37.2c-1.56,1.31-2.94,2.83-4.11,4.5-.84,1.21-1.24,2-1.29,1.94.05-.2.13-.39.23-.57.26-.52.54-1.02.85-1.51,1.1-1.75,2.44-3.34,4-4.7l.45-.39-.09.6c-.3,2.18-.66,4.68-1,7.36l-.47-.2,1-1.28c1.36-1.82,2.65-3.56,3.85-5.15l.53-.72-.1.89c-.19,1.61-.36,3.1-.52,4.45-.09.61-.15,1.23-.18,1.85-.03.49.26.95.72,1.13.7.19,1.45.02,2-.46.2-.18.42-.35.65-.5Z"/>
    <path class="st6" d="M284.7,336.78c-3.26.24-6.54.31-9.81.21-3.27.07-6.54-.03-9.8-.3,3.26-.25,6.53-.32,9.8-.22,3.27-.07,6.55.03,9.81.31Z"/>
    <path class="st6" d="M287.89,339.89c-2.59.54-5.21.91-7.84,1.11-2.61.37-5.25.57-7.89.6,2.58-.55,5.2-.93,7.84-1.12,2.61-.37,5.25-.57,7.89-.59Z"/>
    <g class="st9">
      <path d="M200.93,236.93c-.12,3,.69,6.06,3.19,7.75-3.13,1.52-4.8,5.16-4.9,8.64s1.11,6.86,2.42,10.09c4.05,9.93,12.69,23.91,19.28,32.37,0,0-3.34-9-4.3-11.11-4.34-9.49-8.17-19-12.52-28.52-.48-1-1.34-3.92-1.34-3.92.47-.23.91-.53,1.3-.89,2.44-2,7.73-5.51,7.73-5.51,0,0-10.86-8.6-10.86-8.9"/>
    </g>
    <path class="st6" d="M200.78,257.33c.14,0-.11,11.55-.57,25.78s-.94,25.77-1.08,25.76.1-11.54.56-25.78.94-25.77,1.09-25.76Z"/>
    <path class="st6" d="M218,227h-1c0-.38,1.45-38.21,2.58-53.27.07-2.14,1.03-4.15,2.63-5.56,3.12-2.67,7.79-2.32,8-2.31l-.08,1c-.05,0-4.46-.32-7.26,2.07-1.4,1.25-2.22,3.01-2.29,4.88-1.1,14.95-2.53,52.77-2.58,53.19Z"/>
    <path class="st10" d="M227.37,290.28h-1.77v-2h1.77c3.87,0,7-3.13,7-7h0v-21.18h2v21.18c0,4.97-4.03,9-9,9h0Z"/>
    <path class="st6" d="M228.09,289.52c-.12,1.18-1.17,2.05-2.35,1.93-1.18-.12-2.05-1.17-1.93-2.35.12-1.18,1.17-2.05,2.35-1.93,1.18.12,2.04,1.17,1.93,2.35Z"/>
    <path class="st10" d="M210.07,290.23h-1.77c-4.97,0-9-4.03-9-9h0l.08-21.18h2l-.08,21.18c0,3.87,3.13,7,7,7h1.77v2Z"/>
    <path class="st6" d="M207.59,289.46c.12,1.18,1.16,2.04,2.34,1.92,1.18-.12,2.04-1.16,1.92-2.34-.12-1.17-1.16-2.03-2.33-1.92-1.18.11-2.04,1.15-1.93,2.33,0,0,0,0,0,0Z"/>
    <path class="st6" d="M198.79,262.49l-.25-15.1c-.19-11.51,8.22-21,18.75-21.19,5.19-.05,10.15,2.11,13.65,5.94,3.68,3.98,5.74,9.19,5.79,14.61l.25,15.11-3,.05-.25-15.11c-.04-4.68-1.82-9.18-5-12.61-2.91-3.22-7.07-5.04-11.41-5-8.88.15-16,8.28-15.8,18.14l.25,15.1-2.98.06Z"/>
    <path class="st6" d="M284.21,227.56c0-.4-4.59-39.71-5.91-52.31l-.09-.92c-.41-4.28-.89-9.12-5.62-10.4l.26-1c5.4,1.46,5.93,6.9,6.36,11.27l.09.91c1.31,12.6,5.86,51.91,5.9,52.31l-.99.14Z"/>
    <circle class="st6" cx="284.71" cy="220.82" r="10.73" transform="translate(-72.75 266) rotate(-45)"/>
    <path class="st10" d="M289.89,220.82c0,2.87-2.32,5.19-5.19,5.19s-5.19-2.32-5.19-5.19,2.32-5.19,5.19-5.19c0,0,0,0,.01,0,2.86,0,5.18,2.32,5.18,5.18h0Z"/>
    <path class="st1" d="M221.27,296.58l-13.47,33.13,107.45,29.79c9.95,2.77,20.61.94,29.06-5h0c11.24-7.93,14-21.8,12.63-35.53l-1.94-14.6-133.73-7.79Z"/>
    <path class="st6" d="M335.11,332.54c-.11,0-.34-2.26-1.45-5.75-.28-.95-.62-1.89-1-2.81-.38-1-.91-2-1.44-3.12-1.23-2.32-2.68-4.51-4.33-6.55-1.68-2.02-3.54-3.87-5.56-5.54-1-.73-1.86-1.46-2.77-2-.82-.57-1.67-1.09-2.55-1.57-3.2-1.77-5.39-2.45-5.35-2.56.52.11,1.04.26,1.53.47.6.19,1.18.42,1.75.69.67.31,1.45.62,2.25,1.08.9.46,1.77.97,2.61,1.53.93.56,1.85,1.29,2.83,2,2.07,1.67,3.97,3.54,5.67,5.58,1.66,2.07,3.12,4.3,4.34,6.66.53,1.11,1.05,2.15,1.42,3.18.39.93.72,1.89,1,2.86.25.79.46,1.6.61,2.42.16.62.27,1.25.33,1.89.08.51.12,1.02.11,1.54Z"/>
    <g class="st9">
      <path d="M205.4,310.68c-8.2.68-14.53,1.43-23,2.47-5.29.65-10.78.28-12.51-4.75s-.63-10.79,2.21-15.3,7.3-15,31.18-7l2.12,24.58Z"/>
    </g>
    <path class="st6" d="M216.46,309.23l.06-.22.23-.66.9-2.52,3.45-9.31.05-.13h.13l36.55,3.31,35.36,3.36,10.71,1.07,2.91.32.75.1c.09,0,.18.02.26.05h-1.02l-2.92-.22-10.73-.92-35.37-3.2-36.53-3.47.18-.12-3.6,9.26-1,2.48-.27.64c-.05.12-.09.19-.1.18Z"/>
    <g class="st9">
      <path d="M260.67,343.4c15.26,4.09,24.54,1.72,38.4-5.86,2.84-1.66,5.57-3.52,8.16-5.54,1.98-1.62,3.73-3.48,5.23-5.55-17.85,6.83-32.68,12-51.08,17.14"/>
    </g>
    <path class="st3" d="M216.51,308.87l3.49-9.75-8.11-12.68c-1.42-2.22-3.69-3.76-6.28-4.25l-29.84-5.63c-.77,2.31.31,4.83,2.52,5.87,3.91,2.23,21.5,6.32,21.5,6.32l-27.09-.46s-.84,3.91,2.23,5.31,22.37,2.11,22.37,2.11l-24.71,3.48s-.14,3.92,5.51,4c5.56-.07,11.12-.42,16.65-1.05.48-.07.92.26,1,.73h0c.07.46-.22.89-.67,1l-16.43,3.88c-1.19.27-1.93,1.44-1.66,2.63.17.77.75,1.39,1.5,1.62.3.07.61.09.91.06,2.8-.28,19.52-2.4,19.52-2.4l.87,1.95,16.72-2.72"/>
    <path class="st2" d="M204.24,305.86c-.23-.54-.54-1.04-.92-1.48-.44-.45-.98-.79-1.58-1-.74-.23-1.51-.31-2.28-.25-1.66.12-3.16.6-4.28.74-.6.15-1.24.15-1.84,0,.58-.16,1.17-.29,1.77-.39,1.41-.42,2.86-.72,4.32-.9.84-.07,1.68.04,2.48.32.65.25,1.22.66,1.68,1.18.49.46.73,1.12.65,1.78Z"/>
    <path class="st2" d="M206.94,298.43c-.05,0-.08-.27-.3-.7-.32-.6-.82-1.08-1.42-1.4-1.51-.88-4.06-.59-6.74-.41s-5.14.58-6.91.81c-.95.18-1.91.28-2.88.29.92-.31,1.86-.53,2.82-.65,2.29-.45,4.6-.78,6.92-1,1.28-.12,2.57-.17,3.86-.15,1.09-.03,2.16.24,3.11.76.64.37,1.14.95,1.42,1.64.12.25.17.53.12.81Z"/>
    <path class="st2" d="M209,294.11c-.02-.79-.24-1.57-.63-2.26-.45-.72-1.06-1.32-1.8-1.75-.93-.49-1.95-.79-3-.88-2.24-.21-4.34,0-5.87-.12-.83,0-1.65-.2-2.39-.58,0-.08.92.19,2.41.22s3.56-.25,5.91,0c1.12.09,2.2.43,3.17,1,.8.48,1.45,1.18,1.88,2,.3.54.46,1.16.45,1.78-.02.37-.13.59-.13.59Z"/>
    <path class="st6" d="M305.87,294.08c0-.54.05-1.09.15-1.62.13-1,.38-2.54.73-4.38.69-3.68,1.91-8.71,3.2-14.26,1.14-4.73,2.01-9.51,2.61-14.34.12-.93.17-1.77.24-2.51s.11-1.37.13-1.9c0-.54.04-1.09.14-1.62.06.54.08,1.09.06,1.63v1.91c0,.74-.06,1.59-.17,2.52-.49,4.86-1.31,9.68-2.46,14.43-1.3,5.56-2.57,10.56-3.35,14.22-.39,1.82-.7,3.31-.89,4.33-.09.54-.22,1.07-.39,1.59Z"/>
    <path class="st6" d="M316.24,359.68c-.2,0-.4-.04-.59-.1l-1.66-.37-6.08-1.5c-5.13-1.29-12.2-3.16-20-5.32s-14.79-4.23-19.84-5.78l-6-1.86-1.62-.54c-.16-.05-.31-.12-.45-.21.2.01.39.05.58.12l1.65.44,6,1.71,19.88,5.63,19.89,5.46,6,1.65,1.64.47c.21.05.41.11.6.2Z"/>
    <path class="st6" d="M213.3,69.63c2.2-6.79,13.47-12.92,19.65-16.48,9.25-5.31,17.82-4.25,23.1.48,9.54-8,22.11-15.7,34.16-12.55s21.84,15.49,19.64,27.76c-1.29,7.23-6.3,13.71-6,21,.2,5,2.85,9.52,5,14.06s3.73,9.82,1.85,14.46c-1.75,4.31-6.12,7-8.47,11-1.92,3.28-2.36,7.18-3.59,10.77-4.54,13.3-20.24,20.76-34.1,18.42s-25.41-12.77-32-25.21-8.71-26.72-9.47-40.75"/>
    <path class="st3" d="M223.51,79l2.77,110.9c1,12.71,12.71,22,26.31,20.82h0c13.73-1.18,24.22-12.55,23.43-25.41-.83-13.49-1.45-27.72-1.45-27.72,0,0,17.19-4,19.33-26.92,1.09-11.74-.81-31-2.8-46.26-1.6-12.46-12.99-21.26-25.45-19.66-.32.04-.64.09-.95.14"/>
    <path class="st6" d="M286,100.8c.12,1.57-1.04,2.96-2.61,3.11-1.52.23-2.93-.82-3.16-2.34,0-.03,0-.05-.01-.08-.12-1.57,1.04-2.96,2.61-3.12,1.52-.22,2.94.84,3.16,2.36,0,.02,0,.05,0,.07Z"/>
    <path class="st6" d="M288.89,97.84c-.34.4-2.65-1.09-5.78-.88s-5.32,1.92-5.68,1.56c-.18-.16.14-.86,1.09-1.66,1.3-1.03,2.88-1.63,4.53-1.72,1.62-.11,3.24.3,4.62,1.17,1.01.69,1.38,1.34,1.22,1.53Z"/>
    <path class="st6" d="M256,103.94c.13,1.58-1.03,2.97-2.61,3.12-1.52.22-2.94-.84-3.16-2.36,0-.02,0-.05,0-.07-.12-1.57,1.04-2.96,2.61-3.12,1.52-.22,2.94.84,3.16,2.36,0,.02,0,.05,0,.07Z"/>
    <path class="st6" d="M258.16,100.41c-.34.4-2.65-1.09-5.78-.88s-5.32,1.92-5.68,1.56c-.18-.16.14-.86,1.1-1.66,1.29-1.03,2.87-1.63,4.52-1.72,1.62-.11,3.24.3,4.62,1.17,1.06.68,1.38,1.34,1.22,1.53Z"/>
    <path class="st6" d="M271,122.88c0-.17,1.89-.63,5-1.24.79-.13,1.54-.34,1.64-.9.01-.83-.23-1.64-.69-2.33-.87-1.89-1.79-3.86-2.75-5.93-3.84-8.46-6.68-15.43-6.34-15.58s3.73,6.58,7.58,15c.92,2.08,1.81,4.07,2.65,6,.57.93.79,2.03.62,3.11-.2.59-.66,1.05-1.24,1.25-.43.15-.88.24-1.34.27-3.13.39-5.13.53-5.13.35Z"/>
    <path class="st2" d="M274.58,157.55c-10.67.85-21.37-1.27-30.9-6.14,0,0,8.59,15.27,31.15,11.68l-.25-5.54Z"/>
    <path class="st6" d="M258.18,88.09c-.26.87-3.41.67-7.05,1.35s-6.55,1.87-7.09,1.14c-.24-.35.23-1.19,1.37-2.09,1.52-1.13,3.29-1.88,5.16-2.19,1.87-.34,3.79-.24,5.61.29,1.38.46,2.1,1.09,2,1.5Z"/>
    <path class="st6" d="M287.15,88.85c-.5.75-2.71.15-5.3.28s-4.76.79-5.31.08c-.25-.35,0-1.08,1-1.82,2.53-1.82,5.91-1.93,8.55-.28.91.67,1.28,1.38,1.06,1.74Z"/>
    <path class="st2" d="M266.16,128.77c2.45,0,3.67.72,5.75,2,.63.33,1.14.84,1.48,1.46.32.91.21,1.91-.31,2.72-1.04,1.85-3.07,2.93-5.19,2.77-2.12-.22-3.87-1.77-4.35-3.85-.4-2.1.68-4.21,2.62-5.12"/>
    <path class="st6" d="M274.47,134c0,.24-.78.6-2.15.52-1.73-.16-3.41-.71-4.9-1.6-1.51-.84-2.84-1.95-3.93-3.29-.81-1-1.06-1.88-.85-2,.41-.27,2.47,1.89,5.71,3.67,1.34.77,2.75,1.42,4.21,1.93,1.12.38,1.88.51,1.91.77Z"/>
    <circle class="st2" cx="259.02" cy="113.65" r=".83"/>
    <path class="st2" d="M283.35,109.58c0,.46-.37.83-.83.83-.46,0-.83-.37-.83-.83s.37-.83.83-.83h0c.46,0,.83.37.83.83Z"/>
    <path class="st2" d="M287.94,111.74c.05.46-.28.88-.74.93-.46.05-.88-.28-.93-.74,0-.06,0-.12,0-.18.05-.46.47-.79.93-.74.39.04.7.35.74.74Z"/>
    <path class="st2" d="M289.33,108.27c0,.46-.37.83-.83.83-.46,0-.83-.37-.83-.83s.37-.83.83-.83h0c.46,0,.83.37.83.83Z"/>
    <path class="st2" d="M256.05,117.32c0,.46-.37.84-.83.85s-.84-.37-.85-.83c0-.46.37-.84.83-.85,0,0,0,0,0,0,.46,0,.83.37.84.83Z"/>
    <path class="st2" d="M252.93,114c0,.46-.37.83-.83.83-.46,0-.83-.37-.83-.83s.37-.83.83-.83.83.37.83.83h0Z"/>
    <path class="st7" d="M266.53,103.94c-.09-1.18-.28-2.35-.55-3.5-.82-3.13-2.68-5.89-5.26-7.83-1.76-1.34-3.82-2.24-6-2.64-2.5-.46-5.07-.24-7.46.63-1.29.46-2.49,1.11-3.58,1.94-1.15.84-2.16,1.85-3,3-3.67,4.99-3.67,11.78,0,16.77,1.66,2.27,3.94,4.01,6.58,5,2.39.87,4.96,1.09,7.46.63,2.18-.4,4.24-1.3,6-2.64,2.58-1.94,4.43-4.7,5.26-7.82.27-1.15.46-2.32.55-3.5.01.08.01.15,0,.23v.69c0,.38-.03.75-.09,1.12-.05.51-.14,1.01-.27,1.5-.32,1.37-.84,2.69-1.56,3.9-3.54,6.07-10.92,8.73-17.52,6.34-1.33-.47-2.59-1.15-3.72-2-1.2-.86-2.25-1.91-3.11-3.11-3.83-5.16-3.83-12.21,0-17.37.86-1.2,1.91-2.25,3.11-3.11,1.13-.85,2.39-1.53,3.72-2,2.47-.89,5.13-1.09,7.7-.6,4.12.8,7.69,3.33,9.82,6.94.72,1.21,1.24,2.53,1.56,3.9.13.5.22,1,.27,1.51.06.37.09.74.09,1.11v.69c.01.07.01.15,0,.22Z"/>
    <path class="st7" d="M272.8,99.57c-1.11-.31-2.27-.44-3.42-.4-1.14.21-2.24.58-3.27,1.1,0,0,.21-.38.77-.76.73-.47,1.57-.77,2.44-.86.87-.1,1.76.02,2.58.34.62.25.93.52.9.58Z"/>
    <path class="st6" d="M263.66,61.65c-2,18.07-15.44,34.34-32.78,39.82,5.59,8.06,2.07,23.4,2.21,36.2.14,11.9.13,15.3-7.58,21.37-6.37,1.53-10-15.92-14.78-20.8s-9.27-10.89-8.92-17.67c.17-3.18,1.41-6.22,1.58-9.39.2-3.52-.93-7-1.55-10.43-2.76-15.35,5.16-31.86,18.57-39.89s31.22-7.49,44.49.72"/>
    <path class="st6" d="M225.39,135.94c-1.66-5.84-4.52-11.27-8.39-15.94l.29.62c-4.35-9.93-15.93-14.45-25.86-10.09-9.93,4.35-14.45,15.93-10.09,25.86,1.28,2.91,3.24,5.47,5.72,7.45-2.25-.5-4.53,1.44-5,3.69-.35,2.31.26,4.67,1.69,6.52,4.69,6.86,15.32,8.67,22,3.75,5.3,3.59,13.13,1.5,17.06-3.55s4.39-12.17,2.58-18.31Z"/>
    <path class="st10" d="M203.92,109.47c-.21-.2-.4-.41-.57-.64-.47-.67-.8-1.42-1-2.21-.61-2.07-.32-5.34,1.32-8.8.89-1.89,2.12-3.61,3.62-5.07,1.65-1.73,3.47-3.28,5.44-4.63,2.18-1.5,4.56-2.69,7.07-3.54,2.59-.89,5.34-1.58,8.14-2.28s5.54-1.39,8.1-2.29c2.47-.85,4.87-1.89,7.17-3.12,3.9-2.08,7.52-4.63,10.79-7.6,2.2-2.01,4.24-4.2,6.08-6.55.66-.83,1.14-1.5,1.47-2,.16-.24.33-.46.53-.66-.13.25-.28.49-.44.72-.31.47-.76,1.16-1.4,2-1.79,2.41-3.8,4.65-6,6.7-3.27,3.04-6.91,5.64-10.84,7.76-2.32,1.24-4.74,2.3-7.23,3.17-2.59.91-5.34,1.61-8.14,2.32s-5.54,1.38-8.11,2.25c-2.48.82-4.84,1.99-7,3.45-1.95,1.33-3.76,2.85-5.4,4.54-1.46,1.45-2.66,3.14-3.52,5.01-1.65,3.37-2,6.56-1.45,8.59.25,1.04.72,2.02,1.37,2.88Z"/>
    <path class="st10" d="M262.06,60.13c-.14.2-.3.39-.47.57-.32.37-.81.89-1.44,1.56-1.81,1.87-3.74,3.62-5.77,5.25-3,2.47-6.34,4.49-9.92,6-2.15.79-4.36,1.39-6.62,1.79-2.33.47-4.76.83-7.24,1.21-4.67.56-9.29,1.53-13.79,2.89-3.65,1.19-7.05,3.07-10,5.53-1.98,1.66-3.62,3.7-4.82,6-.31.63-.59,1.28-.83,1.94-.07.24-.17.46-.29.68.05-.24.11-.48.19-.71.2-.68.45-1.35.75-2,1.14-2.37,2.76-4.47,4.76-6.18,2.95-2.54,6.38-4.47,10.07-5.7,4.52-1.41,9.16-2.42,13.86-3,2.49-.37,4.91-.74,7.22-1.19,2.23-.39,4.42-.97,6.55-1.74,3.54-1.47,6.86-3.43,9.86-5.83,2.05-1.59,4.01-3.29,5.87-5.09l1.51-1.48c.17-.18.35-.35.55-.5Z"/>
    <path class="st10" d="M287.45,40.35c0,.11-1.95.18-5,1-.83.22-1.64.48-2.44.78-.87.29-1.75.72-2.7,1.14-4.04,1.95-7.6,4.78-10.42,8.28-.62.83-1.24,1.59-1.72,2.38-.48.7-.92,1.44-1.31,2.19-1.47,2.76-2,4.66-2.08,4.62.07-.45.18-.89.34-1.32.14-.52.32-1.03.54-1.52.25-.68.55-1.35.88-2,.37-.78.8-1.54,1.27-2.26.47-.8,1.08-1.59,1.7-2.44,1.43-1.77,3.04-3.39,4.81-4.83,1.8-1.4,3.74-2.6,5.79-3.58.9-.42,1.82-.79,2.76-1.11,1.49-.52,3.02-.9,4.58-1.14.53-.1,1.06-.17,1.6-.19.47-.05.93-.05,1.4,0Z"/>
    <path class="st10" d="M303.56,126.69s0-.07.15-.2l.47-.55c.42-.49,1.05-1.2,1.76-2.19.89-1.17,1.57-2.48,2-3.89.24-.87.32-1.79.21-2.69-.14-1.01-.48-1.98-1-2.85-1.08-1.87-2.85-3.5-4.47-5.52-3.64-4.56-5.98-10.02-6.77-15.8-.32-3.24-.4-6.5-.24-9.75.16-3.22-.14-6.45-.89-9.59-1.62-5.54-5.58-10.09-10.84-12.46-2.16-.97-4.48-1.5-6.84-1.58-4.39-.18-8.72,1.1-12.32,3.63l-.6.42c-.13.09-.2.14-.21.13.93-.86,1.98-1.6,3.11-2.18,3.07-1.65,6.52-2.46,10-2.37,2.41.06,4.79.59,7,1.55,5.41,2.39,9.5,7.05,11.16,12.73.76,3.18,1.07,6.46.91,9.73-.16,3.23-.08,6.46.23,9.68.76,5.7,3.05,11.09,6.62,15.59,1.58,2,3.36,3.66,4.46,5.61.53.92.87,1.94,1,3,.1.94.01,1.9-.26,2.81-.46,1.43-1.18,2.76-2.13,3.93-.57.75-1.19,1.46-1.84,2.14l-.52.52c-.04.06-.09.11-.15.15Z"/>
    <path class="st7" d="M301.24,100.41c-.09-1.18-.28-2.35-.55-3.5-.82-3.13-2.68-5.89-5.26-7.83-3.86-2.9-8.92-3.66-13.46-2-2.64.99-4.92,2.73-6.58,5-3.67,4.98-3.67,11.78,0,16.76.83,1.15,1.85,2.17,3,3,1.09.82,2.3,1.47,3.58,1.93,7.42,2.7,15.63-1.13,18.32-8.56.15-.42.28-.84.4-1.27.27-1.15.46-2.32.55-3.5.02.08.02.16,0,.24v.68c0,.38-.03.75-.09,1.12-.05.51-.14,1.01-.27,1.51-.32,1.37-.84,2.69-1.56,3.9-.95,1.61-2.19,3.03-3.67,4.17-3.94,3.04-9.17,3.86-13.85,2.16-1.34-.47-2.59-1.14-3.72-2-1.19-.87-2.24-1.92-3.11-3.12-3.83-5.15-3.83-12.21,0-17.36.86-1.2,1.91-2.25,3.11-3.11,1.13-.85,2.39-1.53,3.72-2,2.47-.89,5.12-1.1,7.7-.61,4.13.81,7.71,3.36,9.82,7,.72,1.21,1.24,2.52,1.56,3.89.13.5.22,1,.27,1.51.06.37.09.74.09,1.12v.69c0,.06,0,.12,0,.18Z"/>
    <path class="st10" d="M225.37,159.41c-.18-.09-.34-.2-.49-.33-.31-.23-.75-.58-1.33-1-1.62-1.29-3.13-2.71-4.54-4.23-2.17-2.24-3.65-5.06-4.28-8.12-.21-1.81-.29-3.62-.24-5.44.03-1.9-.51-3.77-1.56-5.36-1.18-1.53-2.49-2.94-3.91-4.24-1.32-1.28-2.41-2.78-3.22-4.43-.72-1.49-1.24-3.07-1.56-4.7-.3-1.41-.44-2.85-.41-4.29,0-1.33.31-2.49.43-3.51.12-.87.14-1.75.06-2.63-.17-1.44-.45-2.21-.4-2.23.09.18.17.36.22.55.17.54.29,1.09.38,1.65.11.89.11,1.8,0,2.69-.09,1-.33,2.2-.36,3.49.02,3.03.7,6.03,2,8.77.8,1.6,1.86,3.05,3.15,4.28,1.46,1.31,2.8,2.75,4,4.3.58.84,1.01,1.77,1.27,2.75.23.95.35,1.92.37,2.89-.05,1.8.02,3.59.21,5.38.58,3,1.99,5.77,4.07,8,1.37,1.53,2.85,2.97,4.41,4.31l1.36,1.04c.14.12.26.26.37.41Z"/>
    <path class="st10" d="M214,136.12c.02.14.02.27,0,.41,0,.27,0,.66-.08,1.17-.17,1.44-.5,2.85-1,4.21-3.26,9.42-12.81,15.14-22.66,13.57-1.43-.22-2.83-.6-4.17-1.13-.48-.18-.83-.38-1.07-.49s-.36-.19-.35-.21c1.83.67,3.72,1.17,5.64,1.47,2.09.27,4.21.23,6.29-.11,5.15-.79,9.79-3.56,12.92-7.73,1.28-1.67,2.31-3.52,3.06-5.49.65-1.84,1.13-3.74,1.42-5.67Z"/>
    <path class="st10" d="M210.15,131.42c-.04.47-.14.93-.29,1.37-.35,1.23-.83,2.41-1.41,3.55-1.95,3.77-4.89,6.93-8.52,9.13-3.63,2.18-7.77,3.39-12,3.52-1.27.04-2.55-.03-3.81-.2-.47-.04-.93-.14-1.37-.28,1.72.12,3.45.16,5.17.11,4.15-.23,8.18-1.46,11.75-3.6,3.55-2.16,6.46-5.22,8.46-8.86.78-1.53,1.45-3.12,2.02-4.74Z"/>
    <path class="st10" d="M180.9,121.46c.27-.21.58-.39.9-.52.36-.19.73-.36,1.11-.5.5-.21,1.01-.39,1.53-.54,1.35-.4,2.73-.67,4.13-.8,1.72-.15,3.44-.12,5.15.1,1.71.24,3.38.66,5,1.25,1.31.5,2.57,1.14,3.76,1.9.46.29.89.6,1.31.94.33.24.64.5.93.79.27.22.5.48.71.76-.07.08-1.12-1-3.15-2.18-1.19-.7-2.44-1.29-3.73-1.76-1.59-.54-3.23-.94-4.9-1.18-1.66-.21-3.33-.26-5-.15-1.37.11-2.74.34-4.07.69-2.32.6-3.58,1.29-3.68,1.2Z"/>
    <path class="st4" d="M203.92,119.61c-.09.11-6.4-5.25-14.08-12s-13.84-12.24-13.75-12.35,6.4,5.26,14.09,12,13.82,12.25,13.74,12.35Z"/>
    <path class="st7" d="M232.73,108.66c.48-.94,1.19-1.74,2.06-2.32.76-.73,1.7-1.24,2.72-1.5-.75.7-1.55,1.33-2.4,1.9-.74.7-1.54,1.34-2.38,1.92Z"/>
    <path class="st8" d="M204.65,114.29c-.05-.06-.09-.13-.13-.2-.09-.17-.2-.37-.34-.61-.39-.81-.65-1.67-.78-2.56-.37-3.33.58-6.66,2.64-9.3.65-.88,1.4-1.69,2.23-2.41.91-.76,1.9-1.43,2.94-2,2.32-1.21,4.81-2.07,7.38-2.54,5.41-1.13,11.5-.86,17.7-1.78,3.03-.4,5.98-1.31,8.71-2.69,2.5-1.36,4.75-3.11,6.68-5.2,3.27-3.55,5.89-7.66,7.74-12.12,1.64-3.79,2.67-7,3.42-9.16l.85-2.53.23-.65c.02-.08.05-.15.09-.22v.23l-.18.67-.83,2.6c-.93,3.14-2.02,6.22-3.27,9.24-1.82,4.53-4.44,8.7-7.73,12.31-1.97,2.12-4.27,3.91-6.82,5.28-2.77,1.41-5.76,2.35-8.84,2.76-6.28.94-12.34.64-17.69,1.74s-9.94,3.33-12.35,6.69c-2.02,2.54-3,5.76-2.72,9,.17,1.2.53,2.36,1.07,3.45Z"/>
    <path class="st6" d="M211,154c-.21,1.38-.61,2.73-1.2,4-.68,1.53-1.55,2.96-2.61,4.25-1.4,1.73-3.12,3.17-5.06,4.26-2.38,1.29-5.04,1.98-7.74,2-3.12.07-6.19-.83-8.78-2.57-2.85-1.97-4.91-4.89-5.82-8.23-.49-1.76-.59-3.61-.3-5.41.32-1.86,1.03-3.62,2.09-5.18,1.73-2.62,4.38-4.5,7.43-5.26v.5c-3.09-.48-6.03-1.67-8.58-3.49-2.36-1.67-4.25-3.93-5.46-6.55-1.07-2.36-1.53-4.95-1.33-7.53.17-2.23.91-4.38,2.17-6.23,1.06-1.5,2.42-2.76,4-3.7,1.17-.69,2.45-1.19,3.79-1.46.84-.17,1.69-.23,2.54-.19l.65.07c.07-.01.15-.01.22,0-1.13-.06-2.27.03-3.38.26-1.3.3-2.54.81-3.68,1.51-1.52.94-2.82,2.19-3.82,3.66-1.2,1.81-1.91,3.9-2.05,6.07-.17,2.51.29,5.02,1.34,7.31,1.19,2.54,3.03,4.73,5.33,6.34,2.5,1.76,5.36,2.92,8.38,3.39l1.29.2-1.27.3c-2.92.73-5.47,2.54-7.12,5.06-1.02,1.5-1.7,3.21-2,5-.27,1.73-.18,3.51.28,5.2.87,3.25,2.85,6.08,5.61,8,2.51,1.7,5.47,2.58,8.5,2.53,2.64,0,5.24-.67,7.57-1.91,1.91-1.04,3.61-2.44,5-4.11,1.06-1.26,1.96-2.66,2.66-4.15.44-.95.81-1.92,1.11-2.92.09-.32.16-.58.21-.79l.03-.23Z"/>
    <path class="st6" d="M205.11,110.75c-.08-.02-.17-.06-.24-.11l-.7-.37c-.88-.5-1.71-1.07-2.49-1.71-2.91-2.37-5.12-5.48-6.42-9-3.09-8.56-.26-18.14,7-23.64,2.83-2.08,6.01-3.64,9.39-4.6,3.38-.95,6.85-1.57,10.35-1.83,3.36-.32,6.6-.47,9.68-.68,2.92-.18,5.82-.52,8.7-1,2.5-.43,4.96-1.1,7.33-2,3.45-1.27,6.59-3.25,9.22-5.81.69-.72,1.34-1.48,1.93-2.29l.46-.63c.05-.08.1-.15.17-.21-.66,1.19-1.47,2.29-2.42,3.27-2.61,2.65-5.77,4.7-9.26,6-2.39.93-4.87,1.62-7.39,2.07-2.89.49-5.81.82-8.74,1-6.15.49-13,.54-19.85,2.57-3.32.94-6.44,2.47-9.23,4.5-7.11,5.37-9.94,14.71-7,23.12,1.25,3.46,3.39,6.54,6.2,8.92.76.65,1.57,1.25,2.42,1.78l.66.41c.09.07.16.15.23.24Z"/>
    <path class="st6" d="M316.55,96c-.23.28-.57.44-.93.46-1.06.02-2.03-.61-2.44-1.59-.31-.71-.26-1.52.14-2.18.46-.77,1.16-1.36,2-1.69,2.07-.75,4.38-.37,6.11,1,1.02.74,1.81,1.76,2.27,2.93.49,1.28.58,2.67.28,4-.31,1.44-1.09,2.74-2.22,3.69-1.2.99-2.66,1.61-4.21,1.78-3.34.24-6.62-1.04-8.9-3.5-1.24-1.23-2.21-2.7-2.85-4.33-.65-1.69-.82-3.53-.5-5.31.35-1.74.89-3.44,1.62-5.06.67-1.6,1.29-3.18,1.81-4.76,1.04-3.04,1.71-6.18,2-9.38.27-2.88.09-5.79-.52-8.62-.55-2.48-1.51-4.85-2.85-7-1.93-3.13-4.7-5.66-8-7.3-.9-.41-1.83-.74-2.79-1l-.76-.19c-.09-.02-.17-.05-.25-.09h.26l.77.14c.98.22,1.94.54,2.86.95,3.37,1.6,6.21,4.13,8.19,7.3,1.39,2.15,2.41,4.51,3,7,.64,2.87.84,5.83.58,8.76-.28,3.24-.95,6.43-2,9.5-.52,1.6-1.15,3.2-1.82,4.79-.71,1.6-1.24,3.28-1.58,5-.3,1.68-.13,3.41.48,5,.6,1.56,1.53,2.98,2.73,4.16,2.17,2.35,5.28,3.6,8.47,3.39,1.47-.15,2.86-.73,4-1.66,1.06-.88,1.8-2.08,2.1-3.43.29-1.26.21-2.57-.23-3.78-.43-1.11-1.17-2.08-2.12-2.79-1.62-1.32-3.81-1.7-5.78-1-.78.29-1.45.83-1.89,1.54-.39.6-.45,1.34-.18,2,.37.92,1.26,1.54,2.25,1.56.32-.01.63-.11.9-.29Z"/>
    <g class="st9">
      <path d="M310.17,322.32c4.86-1.37,9.9,3,14.83,1.87,3-.7,5.26-3.38,6.62-6.19s2.09-5.91,3.53-8.69,3.84-5.33,6.94-5.76c2.84-.38,6.21.95,8.32-1,1.63-1.5,1.41-4.28.11-6.07s-3.36-2.84-5.35-3.82c-2.18-1.19-4.5-2.11-6.91-2.74-2.43-.62-5.01-.32-7.23.84-4.16,2.42-5,7.91-6.21,12.57-.74,3.28-2.13,6.38-4.08,9.11-1.98,2.74-4.92,4.64-8.24,5.32-1.28.05-2.53.37-3.67.94-1.05.72-1.46,2.52-.37,3.19"/>
    </g>
    <path class="st3" d="M284.84,304.35l18.22-6.35,16.33-25.53c1.61-2.52,4.19-4.26,7.12-4.82l29.29-5.53c.77,2.31-.31,4.83-2.51,5.87-3.91,2.23-21.5,6.33-21.5,6.33l27.09-.46s.83,3.91-2.24,5.31-22.37,2.1-22.37,2.1l24.73,3.52s.14,3.93-5.51,4c-5.56-.05-11.12-.38-16.65-1-.48-.07-.92.25-1,.73h0c-.08.46.22.9.67,1l16.43,3.88c1.19.26,1.93,1.44,1.67,2.63-.17.77-.74,1.39-1.5,1.62-.3.08-.61.1-.92.06-2.79-.28-19.52-2.4-19.52-2.4,0,0-5.9,20.68-9.72,22.35s-11.83,2.13-11.83,2.13l-17,6.73-9.28-22.17Z"/>
    <path class="st2" d="M357,273.78c-.47.1-.94.15-1.42.14l-3.88.19c-3.27.14-7.8.3-12.79.43l-7.05.18c-1.9-.08-3.79.19-5.59.8-1.18.47-2.19,1.3-2.87,2.37-.22.41-.41.84-.57,1.28-.02-.12-.02-.25,0-.37.08-.35.2-.68.36-1,.65-1.17,1.68-2.09,2.91-2.61,1.83-.68,3.77-1,5.72-.94l7-.22c5-.13,9.53-.23,12.8-.28h3.88c.5-.03,1-.02,1.5.03Z"/>
    <path class="st2" d="M357.41,284.86c-.44.02-.88-.01-1.31-.09l-3.54-.45c-3-.39-7.12-1-11.67-1.66-2.27-.32-4.44-.73-6.4-.9-1.72-.21-3.46.11-5,.9-1.03.57-1.91,1.36-2.59,2.32-.48.68-.67,1.11-.71,1.09.02-.11.05-.23.1-.33.12-.31.27-.6.44-.88.64-1.04,1.53-1.9,2.58-2.52,1.59-.89,3.41-1.26,5.22-1.06,2,.15,4.17.55,6.45.86,4.55.68,8.67,1.33,11.64,1.82l3.52.61c.43.06.86.15,1.27.29Z"/>
    <path class="st2" d="M343.66,291.15c-.97-.14-1.92-.34-2.86-.62-1.76-.43-4.18-1.07-6.86-1.62-.64-.15-1.29-.25-1.94-.29-.59.02-1.16.19-1.66.49-.9.5-1.65,1.21-2.19,2.08-.45.85-.74,1.77-.87,2.72-.08-.26-.1-.53-.06-.8.05-.73.26-1.45.6-2.1.54-.96,1.32-1.77,2.28-2.32.57-.34,1.22-.54,1.89-.58.69.04,1.38.13,2.05.28,2.72.57,5.12,1.26,6.85,1.78.95.23,1.88.56,2.77.98Z"/>
    <path class="st1" d="M149.59,318.08l54.65-6.72,95.85-15.58,12.37,31.09c-36,12.48-72.94,23.74-109.18,33.64-2.96.59-5.98.85-9,.76-12.1.05-41.94-4.81-44.69-43.19Z"/>
    <path class="st6" d="M312.46,326.87c-.09-.18-.18-.36-.25-.55-.17-.39-.39-.93-.69-1.63-.59-1.46-1.45-3.56-2.54-6.24l-9.09-22.6.23.13-46.57,7.78c-11,1.89-21.55,3.12-31.11,4.39-4.79.63-9.33,1.26-13.56,2-2.12.34-4.16.67-6.12,1-1.88.3-3.74.71-5.57,1.22-5.52,1.74-10.17,5.51-13,10.56-.78,1.36-1.42,2.79-1.91,4.27-.17.51-.28.91-.35,1.17-.03.14-.08.27-.14.4.09-.54.22-1.08.39-1.6.46-1.51,1.07-2.96,1.83-4.34,1.2-2.19,2.75-4.17,4.58-5.87,2.45-2.24,5.36-3.93,8.52-4.94,1.85-.53,3.72-.95,5.61-1.27,2-.36,4-.73,6.12-1.08,4.24-.7,8.78-1.36,13.56-2,9.57-1.29,20.11-2.53,31.09-4.43l46.59-7.67h.17l.06.16c3.72,9.44,6.78,17.22,8.92,22.66l2.44,6.28c.27.71.47,1.26.63,1.65s.16.55.16.55Z"/>
    <path class="st6" d="M179,359.62c.15.02.3.05.44.09l1.27.31c1.12.24,2.77.62,4.93.88,6.1.75,12.29.45,18.29-.88,1.9-.4,3.86-.94,5.91-1.52l6.38-1.8,14-4c9.89-2.88,20.74-6.11,32.09-9.64,19-5.9,36.46-11.68,50-16.35l-.12.27c-3.74-9.5-6.81-17.27-8.94-22.7-1.05-2.69-1.86-4.8-2.43-6.26-.27-.7-.47-1.24-.62-1.64s-.19-.56-.19-.56c0,0,.09.18.25.54s.38.93.67,1.62l2.53,6.21,9.11,22.64.08.2-.2.07c-13.56,4.74-31,10.55-50,16.46-11.35,3.53-22.21,6.75-32.11,9.61l-14.08,4-6.39,1.76c-2,.57-4,1.11-5.93,1.5-6.04,1.31-12.27,1.56-18.4.73-2.22-.3-4.41-.82-6.54-1.54Z"/>
    <path class="st6" d="M200.18,311.36c-.45.12-.91.19-1.37.21l-3.75.37-12.36,1.21-12.36,1.32-3.75.39c-.46.08-.92.1-1.38.08.44-.13.9-.22,1.36-.28.88-.14,2.15-.33,3.73-.55,3.15-.44,7.51-1,12.34-1.47s9.22-.85,12.39-1.06c1.59-.11,2.88-.18,3.77-.22.46-.04.92-.04,1.38,0Z"/>
  </g>
  <g id="freepik--Plant--inject-5">
    <path class="st4" d="M104.69,411.61c-2.76,3.95-8.14,2.64-10.63.23s-3.54-5.9-4.5-9.23c-2.19-7.61-4.4-15.59-2.77-23.34.4-2.35,1.44-4.55,3-6.35,1.61-1.81,4.05-2.62,6.42-2.13,2.71.71,4.39,3.36,5.61,5.89,3.59,7.45,5.46,15.61,5.5,23.88,0,3.84-.44,7.88-2.61,11.05"/>
    <g class="st9">
      <path d="M104.69,411.61c-2.76,3.95-8.14,2.64-10.63.23s-3.54-5.9-4.5-9.23c-2.19-7.61-4.4-15.59-2.77-23.34.4-2.35,1.44-4.55,3-6.35,1.61-1.81,4.05-2.62,6.42-2.13,2.71.71,4.39,3.36,5.61,5.89,3.59,7.45,5.46,15.61,5.5,23.88,0,3.84-.44,7.88-2.61,11.05"/>
    </g>
    <path class="st4" d="M94.33,431.6c-4.52-2.33-9.84-2.63-14.86-1.8-2.69.44-5.51,1.25-7.34,3.28s-2.18,5.59-.08,7.33c1.36.91,3,1.33,4.63,1.17,3.93-.05,8.29-.74,11.43,1.63,1.79,1.34,3,3.59,5.12,4.25,2.2.51,4.47-.49,5.57-2.46,1.02-1.97,1.25-4.25.63-6.38-.51-3.01-2.39-5.61-5.1-7.02Z"/>
    <path class="st4" d="M112.28,417.28c-3-3.57-3.57-8.76-2.23-13.22s4.35-8.26,7.82-11.36c4.09-3.64,8.84-6.45,14-8.27,2-.81,4.15-1.18,6.3-1.07,2.19.12,4.17,1.32,5.29,3.2,1.48,2.81.06,6.23-1.47,9-2.7,4.9-5.77,9.58-9.21,14-2.76,3.56-5.92,7.07-10.12,8.68s-8.58,1.42-10.81-1.5"/>
    <path class="st6" d="M104.88,471.16c-.15-.59-.23-1.19-.25-1.79-.13-1.3-.29-2.94-.48-4.89-.25-2.41-.61-4.81-1.1-7.19-.64-2.89-1.51-5.72-2.61-8.47-1.07-2.75-2.53-5.33-4.33-7.67-1.46-1.9-3.33-3.46-5.47-4.55-1.46-.72-3.03-1.2-4.64-1.43-.6-.03-1.2-.11-1.78-.26.6-.06,1.21-.06,1.81,0,1.67.13,3.29.55,4.81,1.25,2.25,1.06,4.23,2.64,5.77,4.59,1.88,2.37,3.39,5.01,4.49,7.82,1.11,2.79,1.97,5.68,2.59,8.62.48,2.4.81,4.83,1,7.27.16,2.08.22,3.76.24,4.92.05.59.03,1.19-.05,1.78Z"/>
    <path class="st6" d="M104.54,467.4c-.05-.27-.07-.55-.05-.83v-2.39c0-2.06,0-5.05-.11-8.74-.18-7.38-.82-17.58-2-28.78s-2.91-21.28-4.38-28.51c-.36-1.82-.71-3.45-1-4.88s-.59-2.66-.85-3.66-.41-1.71-.56-2.32c-.08-.27-.13-.54-.15-.82.13.25.23.51.29.78.19.6.41,1.36.7,2.28s.62,2.22,1,3.65.77,3.05,1.16,4.86c2.04,9.42,3.57,18.95,4.59,28.54,1.23,11.23,1.79,21.45,1.84,28.85,0,3.7,0,6.7-.13,8.76-.06,1-.11,1.76-.15,2.38-.03.28-.1.56-.2.83Z"/>
    <path class="st6" d="M105.76,438.58c-.51,2.8-.81,5.09-1,6.67-.02.82-.11,1.63-.27,2.43-.06-.83-.06-1.65,0-2.48.09-1.6.31-3.91.76-6.74.54-3.31,1.28-6.58,2.19-9.81,1.09-3.96,2.46-7.85,4.1-11.62,2.85-6.93,6.94-13.29,12.06-18.77.89-.94,1.83-1.82,2.83-2.63.44-.37.82-.74,1.21-1l1.1-.76c.67-.5,1.37-.95,2.1-1.34.12.17-3,2-6.86,6.13-4.96,5.52-8.93,11.84-11.76,18.7"/>
  </g>
  <g id="freepik--Heart--inject-5">
    <path class="st1" d="M395.58,130.6c-1-7.93-7.69-15.32-15.68-15.32-4.71,0-9.2,2.46-12.42,5.91-1.15,1.16-2.2,2.41-3.15,3.73-.68-1.48-1.47-2.92-2.36-4.28-2.48-4-6.39-7.31-11-8.24-7.84-1.56-15.86,4.36-18.39,11.94s-.42,16.08,3.73,22.9,11.3,15.75,24.47,20.17c9.07-1.16,21.23-9.21,26.64-15.09s9.14-13.79,8.16-21.72Z"/>
    <path class="st8" d="M392.7,144.83h-.26l-.77-.05-3-.25-10.86-1,.19-.12-4.52,11.8-.28.71-.18-.74c-1.37-5.73-2.92-12.14-4.55-18.9l-1.47-6.15.46.1-8.29,11.4-.08.1h-.09l-19.09-2-5.4-.6-1.43-.18-.49-.09c.17-.02.33-.02.5,0l1.43.11,5.42.47,19.1,1.8-.21.1,8.25-11.43.33-.45.13.54c.48,2,1,4.07,1.48,6.17,1.61,6.76,3.14,13.18,4.51,18.91h-.46l4.62-11.77.05-.13h.14l10.85,1.16,2.95.35.76.1.26.04Z"/>
  </g>
  <g id="freepik--Tube--inject-5">
    <path class="st4" d="M94.47,286.3l16.18,4.79h0l-2.75,9.3c-.7,2.36-3.17,3.7-5.53,3h0s-7.67-2.27-7.67-2.27c-2.36-.7-3.7-3.17-3-5.53h0l2.75-9.3h.03Z"/>
    <path class="st1" d="M94.47,286.3l16.18,4.79h0l-2.76,9.31c-.69,2.35-3.16,3.68-5.51,2.99l-7.67-2.27c-2.35-.69-3.68-3.16-2.99-5.51l2.76-9.31h0Z"/>
    <path class="st6" d="M108.12,300.39c-2.78-.54-5.51-1.26-8.2-2.15-2.72-.72-5.39-1.61-8-2.66,2.77.55,5.51,1.27,8.2,2.16,2.72.72,5.39,1.61,8,2.65Z"/>
    <path class="st6" d="M97,297h0c.29-1.07,1.38-1.7,2.45-1.42,0,0,.01,0,.02,0l3.24,1c1.05.33,1.64,1.46,1.3,2.51,0,0,0,0,0,0h0l-7.01-2.11Z"/>
    <path class="st1" d="M109.93,207.73l-18,74.41c-.86,3.26,1,6.62,4.21,7.64l11.79,3.5c3.16.87,6.45-.81,7.6-3.88l28.27-71.65-33.87-10.02Z"/>
    <path class="st6" d="M141.47,223.65c0,.14-7.46-1.94-16.57-4.64s-16.47-5-16.43-5.14,7.46,1.94,16.58,4.64c9.12,2.7,16.46,5,16.42,5.14Z"/>
    <path class="st6" d="M111.07,214.72c.05-1.07.27-2.13.66-3.13.23-1.05.61-2.07,1.15-3-.04,1.07-.26,2.13-.65,3.13-.22,1.06-.61,2.07-1.16,3Z"/>
    <path class="st6" d="M113.76,215.51c.26-2.12.87-4.19,1.81-6.11-.05,1.07-.27,2.13-.66,3.13-.23,1.05-.61,2.05-1.15,2.98Z"/>
    <path class="st6" d="M116.44,216.31c.05-1.07.27-2.13.66-3.13.22-1.06.61-2.07,1.15-3-.04,1.07-.26,2.13-.65,3.13-.22,1.06-.61,2.07-1.16,3Z"/>
    <path class="st6" d="M119.13,217.1c.26-2.12.87-4.19,1.81-6.11-.27,2.12-.88,4.18-1.81,6.11Z"/>
    <path class="st6" d="M121.81,217.9c.05-1.07.27-2.13.66-3.13.22-1.06.61-2.07,1.15-3-.04,1.07-.26,2.13-.65,3.13-.22,1.06-.61,2.07-1.16,3Z"/>
    <path class="st6" d="M124.5,218.69c.26-2.12.87-4.19,1.81-6.11-.27,2.12-.88,4.18-1.81,6.11Z"/>
    <path class="st6" d="M127.18,219.49c.05-1.07.27-2.13.66-3.13.22-1.06.61-2.07,1.15-3-.04,1.07-.26,2.13-.65,3.13-.22,1.06-.61,2.07-1.16,3Z"/>
    <path class="st6" d="M129.86,220.28c.06-1.07.28-2.13.66-3.13.22-1.06.61-2.07,1.16-3-.06,1.07-.28,2.13-.66,3.13-.22,1.06-.61,2.07-1.16,3Z"/>
    <path class="st6" d="M132.55,221.08c.04-1.07.26-2.13.65-3.13.23-1.05.62-2.07,1.16-3-.05,1.07-.27,2.13-.66,3.13-.22,1.06-.61,2.07-1.15,3Z"/>
    <path class="st6" d="M135.23,221.87c.27-2.12.88-4.18,1.81-6.11-.26,2.12-.87,4.19-1.81,6.11Z"/>
    <path class="st6" d="M137.92,222.67c.04-1.07.26-2.13.65-3.13.22-1.06.61-2.07,1.16-3-.05,1.07-.27,2.13-.66,3.13-.22,1.06-.61,2.07-1.15,3Z"/>
    <path class="st6" d="M140.6,223.46c.27-2.12.88-4.18,1.81-6.11-.26,2.12-.87,4.19-1.81,6.11Z"/>
    <polygon class="st7" points="114.28 246.63 115.55 242.37 119.76 243.62 118.58 247.61 122.02 248.62 120.78 252.81 116.97 251.69 115.89 255.34 112.37 254.29 113.53 250.37 109.38 249.14 110.48 245.43 114.28 246.63"/>
    <path class="st7" d="M124.46,251.44c-.06,0,.22-.8.29-2.27.08-2.07-.51-4.12-1.7-5.82-.81-1.17-1.88-2.12-3.14-2.78-1.45-.74-3.07-1.06-4.69-.93-1.79.16-3.49.86-4.88,2-3.06,2.49-4.28,6.6-3.07,10.36.54,1.71,1.59,3.21,3,4.32,1.29.99,2.82,1.6,4.44,1.77,1.41.13,2.84-.08,4.15-.61,1.93-.79,3.54-2.2,4.59-4,.75-1.27.94-2.08,1-2.06-.02.2-.07.39-.14.58-.17.55-.4,1.08-.68,1.58-1.03,1.88-2.66,3.37-4.63,4.21-2.98,1.28-6.42.85-9-1.12-1.5-1.16-2.62-2.74-3.2-4.54-1.3-3.95-.03-8.28,3.2-10.9,1.47-1.2,3.27-1.92,5.16-2.07,1.7-.14,3.41.21,4.93,1,1.3.71,2.42,1.72,3.25,2.95,1.19,1.77,1.75,3.88,1.59,6-.04.57-.14,1.14-.29,1.7-.03.22-.09.43-.18.63Z"/>
  </g>
</svg>