<?xml version="1.0" encoding="UTF-8"?>
<svg id="Layer_1" xmlns="http://www.w3.org/2000/svg" version="1.1" viewBox="0 0 750 500">
  <!-- Generator: Adobe Illustrator 29.5.1, SVG Export Plug-In . SVG Version: 2.1.0 Build 141)  -->
  <defs>
    <style>
      .st0 {
        fill: none;
      }

      .st1 {
        fill: #e0e0e0;
      }

      .st2 {
        fill: #ae7461;
      }

      .st3 {
        fill: #263238;
      }

      .st4 {
        fill: #6f4439;
      }

      .st5 {
        fill: #fff;
      }

      .st6 {
        fill: #5baec7;
      }

      .st7 {
        opacity: .6;
      }

      .st8 {
        opacity: .3;
      }

      .st9 {
        fill: #ffbf9d;
      }

      .st10 {
        fill: #f5f5f5;
      }

      .st11 {
        fill: #455a64;
      }

      .st12 {
        fill: #c17560;
      }

      .st13 {
        fill: #ff9a6c;
      }
    </style>
  </defs>
  <g id="freepik--background-simple--inject-2">
    <path class="st10" d="M315.58,124.85l.61,1.51c5.01,12.75,16.68,21.66,30.3,23.14,1.75.17,3.51.22,5.26.13,12.92-.81,24.57-8.03,31.06-19.23,3.72-6.53,5.74-14.42,11.55-19.14,7.56-6.14,18.45-4.6,27.94-2.75s20.39,3.36,27.93-2.82c4.71-3.86,7-10.08,7.68-16.18,1.75-16.14-7.07-32.26-20.1-41.68s-29.63-12.77-45.66-12.19c-22.46.85-45.09,9.52-60.54,26.1-15.45,16.58-22.72,41.42-16.03,63.11Z"/>
    <circle class="st10" cx="525.2" cy="76.35" r="26.68"/>
  </g>
  <g id="freepik--serum-bags--inject-2">
    <rect class="st10" x="199.7" y="92.63" width="34.25" height="51.55" rx="2.98" ry="2.98"/>
    <path class="st3" d="M230.97,144.18c.56-.04,1.1-.21,1.57-.51.56-.37.98-.93,1.18-1.57.12-.41.17-.84.13-1.27v-1.49c0-4.24,0-10.33-.08-17.84v-24.6c.02-.6,0-1.21-.06-1.81-.23-1.17-1.19-2.06-2.38-2.19h-28.65c-1.36,0-2.51,1-2.7,2.35v45.49c-.13.99.25,1.98,1,2.64.38.3.82.49,1.29.57.49.03.97.03,1.46,0h2.89l17.84.08,4.85.05h1.69c-.14.01-.29.01-.43,0h-6.11l-17.84.08h-2.92c-.51.03-1.01.03-1.52,0-.54-.07-1.05-.3-1.48-.64-.45-.34-.79-.8-1-1.32-.19-.52-.27-1.08-.23-1.63v-45.39c.22-1.6,1.59-2.8,3.21-2.81h28.64c1.4.16,2.53,1.21,2.8,2.59.06.63.08,1.27.06,1.9v24.6c0,7.51-.07,13.6-.08,17.84v1.49c.03.44-.02.89-.16,1.31-.22.67-.67,1.24-1.27,1.61-.36.23-.77.37-1.2.42-.16.04-.33.05-.5.05Z"/>
    <path class="st1" d="M291.37,86.38c-.14,0-.27,0-.41,0-2.17-.34-4.12-1.48-5.49-3.2-.76-.86-1.85-1.35-3-1.35h-56.71c-1.26,0-2.47.48-3.39,1.35-1.52,1.42-3.86,3.11-6.37,3.11-3.19,0-5.48-2.85-6.34-5.67l2.7-.82c.45,1.47,1.79,3.66,3.64,3.66,1.24,0,2.82-.83,4.44-2.35,1.44-1.36,3.35-2.12,5.34-2.13h56.73c1.95,0,3.81.84,5.11,2.3.92,1.17,2.22,1.98,3.68,2.27,1.5.16,3.33-3.39,4.05-6l2.73.75c-.26.83-2.38,8.08-6.71,8.08Z"/>
    <rect class="st1" x="247.9" y="55" width="7.37" height="381.99"/>
    <path class="st3" d="M247.9,437c0-1.42-.05-42.61-.15-111.51,0-69.07-.06-164.59-.11-270.49v-.26h7.9v.26c-.11,190-.2,348.13-.22,382h-7.37l7.37-.05v.05c0-33.87-.11-192-.22-382l.26.26h-7.36l.26-.26c-.05,105.82-.08,201.28-.11,270.29s-.24,110.29-.25,111.71Z"/>
    <path class="st1" d="M220.85,439.25h57.09c0-2.48-2.01-4.49-4.49-4.49h-48.08c-2.48,0-4.49,2.01-4.49,4.49h-.03Z"/>
    <path class="st3" d="M268.08,443.39c0,3.52,2.87,6.38,6.39,6.37,3.52,0,6.38-2.87,6.37-6.39,0-3.52-2.86-6.37-6.38-6.37s-6.38,2.86-6.38,6.38c0,0,0,0,0,.01Z"/>
    <path class="st3" d="M214.97,443.39c0,3.52,2.87,6.38,6.39,6.37,3.52,0,6.38-2.87,6.37-6.39,0-3.52-2.86-6.37-6.38-6.37s-6.38,2.86-6.38,6.38c0,0,0,0,0,.01Z"/>
    <path class="st3" d="M243.01,443.43c0,3.53,2.86,6.39,6.39,6.39,3.53,0,6.39-2.86,6.39-6.39,0-3.53-2.86-6.39-6.39-6.39,0,0-.02,0-.03,0-3.52.01-6.37,2.87-6.36,6.39Z"/>
    <path class="st3" d="M253.63,81.03c-.08.11-.54-.18-.46-.78s.63-.73.67-.6-.15.37-.19.68.07.6-.02.7Z"/>
    <path class="st3" d="M247.9,100.31c-.13,0-.24-6.44-.24-14.38s.11-14.39.24-14.39.25,6.44.25,14.39-.11,14.38-.25,14.38Z"/>
    <rect class="st6" x="203.72" y="114.68" width="27.03" height="25.54" rx="2.13" ry="2.13"/>
    <rect class="st5" x="209.27" y="122.13" width="17.14" height="5.32"/>
    <path class="st3" d="M218.65,95.64c0,1.05-.86,1.91-1.91,1.91s-1.91-.86-1.91-1.91.86-1.91,1.91-1.91,1.91.86,1.91,1.91h0Z"/>
    <path class="st3" d="M217.37,96.18c.7-4.52.59-9.14-.34-13.62-.17-.78-1.37-.45-1.21.34.89,4.26,1.01,8.65.35,12.95-.12.78,1.08,1.12,1.2.33Z"/>
    <rect class="st10" x="274.79" y="92.63" width="34.25" height="51.55" rx="2.98" ry="2.98"/>
    <path class="st3" d="M306.06,144.18c.56-.04,1.1-.21,1.57-.51.56-.37.98-.93,1.18-1.57.12-.41.17-.84.13-1.27v-1.49c0-4.24-.05-10.33-.08-17.84v-24.6c.02-.6,0-1.21-.06-1.81-.24-1.19-1.23-2.08-2.43-2.19h-28.6c-1.36,0-2.51,1-2.7,2.35v45.49c-.13.99.25,1.98,1,2.64.38.3.82.49,1.29.57.49.03.97.03,1.46,0h2.89l17.84.08,4.85.05h1.69c-.14.01-.29.01-.43,0h-6.11l-17.84.08h-2.89c-.51.03-1.01.03-1.52,0-.54-.07-1.05-.3-1.48-.64-.45-.34-.79-.8-1-1.32-.19-.52-.27-1.08-.23-1.63v-45.39c.22-1.6,1.59-2.8,3.21-2.81h28.64c1.4.16,2.53,1.21,2.8,2.59.06.63.08,1.27.06,1.9v24.6c0,7.51-.07,13.6-.08,17.84v1.49c.03.44-.02.89-.16,1.31-.22.67-.67,1.24-1.27,1.61-.36.23-.77.37-1.2.42-.17.04-.35.06-.53.05Z"/>
    <rect class="st1" x="278.81" y="114.68" width="27.03" height="25.54" rx="2.13" ry="2.13"/>
    <rect class="st5" x="284.36" y="122.13" width="17.14" height="5.32"/>
    <path class="st3" d="M293.74,95.64c0,1.05-.86,1.91-1.91,1.91s-1.91-.86-1.91-1.91c0-1.05.86-1.91,1.91-1.91s1.91.86,1.91,1.91h0Z"/>
    <path class="st3" d="M292.47,96.18c.7-4.52.59-9.14-.34-13.62-.17-.78-1.37-.45-1.21.34.89,4.26,1.01,8.65.35,12.95-.12.78,1.08,1.12,1.2.33Z"/>
    <path class="st3" d="M302.73,111.1c.23.19-3.81,4.29-8.92,9.14-2.56,2.44-4.91,4.61-6.62,6.16-.86.78-1.56,1.4-2.06,1.82s-.77.64-.8.61c.2-.28.42-.53.67-.76l1.93-1.94c1.66-1.62,4-3.83,6.52-6.26l9.28-8.77Z"/>
    <path class="st3" d="M302.22,107.39c.09.11-3.64,3.22-8.32,6.94s-8.55,6.64-8.64,6.53,3.63-3.22,8.32-6.94,8.55-6.65,8.64-6.53Z"/>
  </g>
  <g id="freepik--Character2--inject-2">
    <path class="st9" d="M357.92,212.64l-2,7.64-25,4.54v10.09s35.06,4.56,38.27,3c3.21-1.56,6.24-20.83,6.24-20.83l-17.51-4.44Z"/>
    <path class="st13" d="M356.43,220.64c-.07.12,1.4.91,2.76,2.34s2.08,2.88,2.22,2.82c-.28-1.21-.93-2.31-1.85-3.14-.83-.96-1.91-1.66-3.13-2.02Z"/>
    <path class="st9" d="M392.67,116.45c.39-9.94,8.35-17.91,18.29-18.32h1c10.68.18,16.49,9.35,16,20l-1.35,42.95-16.88,6.44-6.52-6c0-3,0-9.23-.06-9.23s-10.31-1.17-10.86-11.4c-.26-4.97.02-15.19.38-24.44Z"/>
    <path class="st13" d="M403.15,152.27c4.75-.2,9.33-1.76,13.22-4.49,0,0-2.89,7.83-13.15,7.33l-.07-2.84Z"/>
    <path class="st3" d="M396.45,125.64c.02.79.68,1.42,1.47,1.41.77.03,1.42-.56,1.45-1.33,0-.03,0-.05,0-.08-.02-.79-.68-1.43-1.47-1.42-.77-.03-1.42.58-1.45,1.35,0,.02,0,.05,0,.07Z"/>
    <path class="st3" d="M395.04,120.88c.19.19,1.26-.68,2.83-.74s2.76.68,2.92.48-.11-.43-.63-.77c-.7-.45-1.52-.67-2.35-.62-.82.03-1.61.32-2.25.83-.47.39-.62.74-.52.82Z"/>
    <path class="st3" d="M409.88,125.28c.03.79.68,1.42,1.47,1.42.78.03,1.43-.58,1.46-1.36,0,0,0-.01,0-.02-.03-.79-.68-1.42-1.47-1.42-.78-.03-1.43.58-1.46,1.36,0,0,0,.01,0,.02Z"/>
    <path class="st3" d="M410.47,120.64c.19.18,1.27-.68,2.84-.74s2.76.68,2.92.48-.12-.43-.64-.77c-.69-.45-1.51-.67-2.34-.62-.82.03-1.61.32-2.25.83-.47.36-.63.71-.53.82Z"/>
    <path class="st3" d="M405.37,132.93c-.84-.23-1.71-.34-2.58-.35-.4,0-.78-.09-.86-.36-.06-.42.02-.84.22-1.21.34-1,.69-2,1.06-3.1,1.47-4.43,2.52-8.06,2.34-8.12s-1.52,3.49-3,7.91l-1,3.12c-.23.5-.28,1.06-.14,1.59.13.28.38.49.68.56.23.05.46.07.69.07.86.08,1.74.04,2.59-.11Z"/>
    <path class="st3" d="M409.76,115.71c.23.39,1.74-.09,3.6-.21s3.42.11,3.59-.31c.07-.2-.26-.55-.93-.85-1.79-.71-3.8-.57-5.47.4-.62.39-.89.78-.79.97Z"/>
    <path class="st3" d="M394.77,116.26c.34.35,1.61-.06,3.15-.11s2.85.16,3.15-.22c.12-.19-.09-.54-.67-.86-1.62-.79-3.54-.69-5.07.26-.54.39-.71.76-.56.93Z"/>
    <path class="st9" d="M427.44,125.72c.17-.08,6.95-2.37,7,4.64.05,7.01-7,5.63-7,5.43v-10.07Z"/>
    <path class="st13" d="M429.57,133.11s.12.09.33.18c.29.12.62.12.91,0,.92-.59,1.44-1.63,1.37-2.72.02-.6-.1-1.2-.35-1.75-.14-.44-.49-.79-.93-.93-.29-.07-.59.07-.72.34-.09.2,0,.34-.08.35s-.15-.11-.1-.4c.04-.17.13-.33.27-.44.19-.15.44-.22.68-.19.59.11,1.07.52,1.28,1.08.31.6.46,1.27.44,1.94,0,1.42-.74,2.75-1.75,3.05-.38.11-.79.05-1.12-.18-.22-.16-.25-.31-.23-.33Z"/>
    <path class="st3" d="M410.27,133.91c-.24,0-.25,1.59-1.63,2.73s-3.1.95-3.11,1.17.38.32,1.1.34c.94.02,1.87-.3,2.6-.89.7-.57,1.15-1.39,1.26-2.29.07-.67-.12-1.07-.22-1.06Z"/>
    <path class="st3" d="M378.53,107.23c.11-.42.39-.78.77-1,.81-.38,1.72-.53,2.61-.45,2.23-.07,4.42-.65,6.4-1.69-.7-.33-1.34-.77-1.9-1.3-1.22-1.09-1.73-2.77-1.32-4.36.07-.29.27-.54.54-.67.46-.15.86.29,1.18.64.82,1.11,2.19,1.68,3.56,1.49.94-.07,1.85-.34,2.66-.81l.09-.1,1.05-1.1h0c2.6-2.64,4.85-4.48,7.17-5.45,4.05-1.53,8.44-1.92,12.7-1.14,3.58.89,6.82,3.75,7.36,7.4,2-1.71,5-1.73,7.43-.78h.06c2.73.94,4.3,3.79,5.13,6.54.05.16.09.31.13.46.93,1.45,2.2,2.66,3.69,3.53.27.14.57.33.6.63s-.21.55-.45.73c-.65.47-1.4.79-2.19.94.26.65.56,1.29.92,1.89.31.52.69,1.13.42,1.68-.25.41-.72.62-1.19.53-.46-.09-.89-.28-1.27-.55.31.72.62,1.44.94,2.16-1,.18-2.03.12-3-.16-.55,2.59-.92,7.39-1.57,9.15-1.86,0-2.32-.14-3.25.18-1.21.41-.72,2.56-2.31,2-.81-.31-2.07-3.34-2.35-4.16-1.85-5.43-2.51-11.2-1.93-16.91-1.14-1.19-2.5-2.15-4-2.83l.12.11c-2.88-1-6.13-1.9-8.83-.53-2.1,1.07-3.31,3.27-4.87,5-2.65,3.22-6.54,5.16-10.7,5.34-.36,3.1-.43,8.16-.54,11l-2.54-5.75h0c-.2-.34-.37-.68-.53-1l-.06-.1h0c-.25-.56-.52-1.11-.83-1.64h0c-.77.63-1.91.52-2.55-.25-.5-.61-.55-1.47-.12-2.13.24-.34.53-.64.86-.89-.71.7-1.74.98-2.71.74-.97-.29-1.62-1.19-1.6-2.2.06-.68.49-1.27,1.11-1.54-1.27.11-2.54-.15-3.66-.76-.75-.31-1.47-.98-1.23-1.89Z"/>
    <path class="st11" d="M418.21,99.9c.35.29.69.6,1,.93.82.97,1.37,2.14,1.61,3.39.19.85.29,1.73.3,2.6,0,.95-.05,2-.11,3-.07,1.12-.07,2.24,0,3.36.04.6.12,1.19.25,1.77.1.63.35,1.22.74,1.72.37.4.92.58,1.46.47.5-.1.95-.37,1.29-.75.56-.77.9-1.67,1-2.62h-.22c.32.77.75,1.49,1.28,2.13.5.6,1.22.98,2,1.06.36.03.73-.03,1.06-.19.3-.16.55-.41.71-.72.15-.28.22-.59.21-.91-.02-.29-.14-.57-.34-.79l-.11.09c.61.7,1.37,1.25,2.22,1.63.23.1.46.19.69.26l.24.06s-.07,0-.23-.1-.38-.15-.66-.29c-.82-.4-1.55-.96-2.15-1.65l-.11.1c.35.44.39,1.05.09,1.52-.14.27-.37.49-.64.63-.31.15-.66.21-1,.17-.73-.08-1.4-.44-1.87-1-.5-.64-.91-1.34-1.22-2.09l-.15-.33-.07.36c-.07.9-.39,1.76-.91,2.5-.3.35-.71.59-1.16.67-.45.1-.92-.06-1.23-.4-.36-.47-.6-1.02-.69-1.6-.13-.57-.21-1.15-.25-1.73-.07-1.11-.07-2.23,0-3.34.05-1.07.11-2.08.09-3-.02-.89-.13-1.77-.33-2.64-.24-1.26-.8-2.43-1.63-3.4-.33-.36-.72-.65-1.16-.87Z"/>
    <path class="st11" d="M386.6,110.24l.08.07.26.19c.14.1.28.19.43.27.2.12.41.23.63.32,1.38.61,2.89.86,4.4.74,2.24-.17,4.38-.99,6.17-2.35,2.15-1.69,3.93-3.79,5.24-6.19.74-1.25,1.33-2.53,2-3.72.6-1.15,1.35-2.21,2.25-3.15.81-.83,1.82-1.44,2.93-1.78.5-.15,1.03-.22,1.55-.2.49.02.97.11,1.43.26.8.26,1.54.69,2.16,1.26.47.43.87.93,1.17,1.49.24.49.42,1,.55,1.53,0-.04,0-.07,0-.11,0-.08,0-.19-.05-.31-.09-.4-.23-.78-.41-1.15-.29-.58-.69-1.11-1.16-1.55-.62-.6-1.37-1.05-2.19-1.32-.48-.16-.98-.26-1.48-.29-.55-.02-1.09.05-1.62.2-1.14.35-2.18.99-3,1.86-.92.94-1.7,2.02-2.31,3.19-.66,1.19-1.26,2.47-2,3.71-1.3,2.37-3.06,4.45-5.18,6.13-1.73,1.34-3.82,2.16-6,2.36-1.48.14-2.97-.08-4.35-.65-.52-.23-1.02-.5-1.5-.81Z"/>
    <path class="st11" d="M385.61,105.75c.11.1.24.18.37.25.35.21.72.39,1.1.54.56.23,1.14.41,1.73.55.73.15,1.47.24,2.21.27.74,0,1.49-.06,2.22-.18.6-.11,1.18-.27,1.75-.48.38-.14.75-.3,1.11-.49.26-.14.39-.22.38-.24s-.58.26-1.55.57c-.57.18-1.14.32-1.73.42-.72.11-1.45.17-2.18.16-.73-.03-1.45-.11-2.17-.25-.58-.12-1.15-.28-1.71-.49-.96-.35-1.51-.67-1.53-.63Z"/>
    <path class="st11" d="M393.49,417.53l1.13,20.59s-20.55,8.06-20.71,11.88l40-.75-.44-32.15-19.98.43Z"/>
    <path class="st1" d="M406.96,436.15c.8.23,1.3,1.02,1.16,1.84-.19.81-.99,1.33-1.81,1.17-.87-.24-1.41-1.11-1.23-2,.3-.81,1.17-1.25,2-1"/>
    <path class="st3" d="M413.91,449.25l-.17-3.24-38.29,1.93s-1.76.81-1.54,2.06l40-.75Z"/>
    <path class="st5" d="M393.97,437.92c0,.2,1,.27,2,.88s1.5,1.42,1.68,1.34-.13-1.2-1.32-1.92-2.41-.47-2.36-.3Z"/>
    <path class="st5" d="M389.81,439.74c0,.19.81.5,1.49,1.32s.88,1.68,1.08,1.67.3-1.12-.57-2.12-2-1.06-2-.87Z"/>
    <path class="st5" d="M387.52,444.8c.18,0,.43-.94-.09-2s-1.44-1.47-1.52-1.3.49.72.91,1.6.55,1.69.7,1.7Z"/>
    <path class="st5" d="M394.23,433.2c.09.18,1-.11,2.09-.05s2,.38,2.07.21-.75-.85-2-.89-2.25.58-2.16.73Z"/>
    <path class="st11" d="M435.3,413.79l2.16,24.85-3.95,20.15c-.25,1.39.67,2.72,2.06,2.98.04,0,.09.02.13.02h0c.82.1,1.63-.19,2.19-.8,3.57-3.89,16.61-18.26,16.35-20.07-.3-2.09-.54-26.36-.54-26.36l-18.4-.77Z"/>
    <path class="st3" d="M435.7,461.82l18.44-22.55.06,1.06c.06.91-.2,1.82-.75,2.55-1.46,2-5.61,7.28-15.48,18.13-.57.63-1.43.94-2.27.81Z"/>
    <g class="st7">
      <path class="st5" d="M448.51,431.57c-.58.5-.7,1.35-.29,2,.48.61,1.36.75,2,.31.64-.54.77-1.47.3-2.16-.58-.6-1.53-.64-2.15-.08"/>
    </g>
    <path class="st5" d="M440.69,450.58c-.65-.74-1.43-1.35-2.31-1.8-.94-.3-1.92-.42-2.9-.37,0,0,.28-.27.85-.39.76-.13,1.55-.05,2.26.25.72.29,1.33.78,1.77,1.42.33.5.39.86.33.89Z"/>
    <path class="st5" d="M439.13,454.02c-.74-.35-1.5-.66-2.27-.93-.82-.1-1.64-.15-2.46-.15.75-.54,1.71-.68,2.58-.38,1.49.33,2.27,1.39,2.15,1.46Z"/>
    <path class="st5" d="M443.72,446.09c-1.1-.64-2.24-1.2-3.42-1.67-1.23-.31-2.48-.51-3.74-.62,1.27-.44,2.66-.4,3.91.1,1.31.32,2.46,1.1,3.25,2.19Z"/>
    <path class="st5" d="M443.69,438.48c-.06.15-1.47-.33-3.26-.28s-3.19.57-3.25.42c.92-.71,2.07-1.06,3.23-1,1.16-.1,2.32.2,3.28.86Z"/>
    <path class="st5" d="M443.24,431.17c-1.11-.28-2.25-.41-3.39-.38-1.12.18-2.22.52-3.25,1,0-.05.21-.38.76-.75.73-.47,1.56-.76,2.43-.84.88-.07,1.77.08,2.58.44.59.2.9.47.87.53Z"/>
    <path class="st5" d="M439.8,429.39c-.1-.3-.13-.62-.09-.94.03-.87.23-1.72.59-2.51.22-.6.62-1.11,1.15-1.47.38-.21.86-.14,1.17.16.29.29.46.69.47,1.1,0,1.75-1.28,3.24-3,3.53-1.67.28-3.35-.48-4.24-1.92-.23-.36-.28-.8-.15-1.2.17-.39.57-.64,1-.6.62.09,1.2.35,1.69.75.71.49,1.33,1.11,1.83,1.82.2.24.35.53.43.84-.7-.9-1.53-1.69-2.47-2.34-.44-.33-.96-.54-1.5-.62-.24-.03-.46.11-.55.33-.06.27-.01.55.14.78.81,1.22,2.25,1.86,3.7,1.63,1.45-.28,2.5-1.53,2.55-3,0-.29-.11-.56-.3-.78-.17-.17-.43-.21-.64-.1-.45.3-.8.73-1,1.23-.45,1.05-.72,2.17-.78,3.31Z"/>
    <path class="st6" d="M376.05,258.8s-6.68,10.48-5.68,23.38c.38,5,17.9,151.25,17.9,151.25l29.87.24-10.24-138.03,1.86.41s9.61,50.05,10.61,59.01c.91,8.06,10.81,78.2,10.81,78.2l25.27.3-4.79-80.8-4.06-75.37-9.54-23.58-62.01,4.99Z"/>
    <polygon class="st9" points="439.45 161.65 426.38 157.23 402.41 158.33 391.46 163.56 408.48 198.37 419.68 196.73 439.45 161.65"/>
    <path class="st6" d="M353.18,212.64s16.35-43.49,18.31-44.28c3.93-1.59,29.43-11.47,29.43-11.47l11.81,11.38,14.78-10.94s24.38,5.61,25.53,8.79-8.23,58.45-8.23,58.45c0,0,3.91,31.19,3.6,45.14l3.48,14.46-84,.22s1.91-28.39,5.1-54.13l1.92-22.76-1.25,14.88-20.48-9.74Z"/>
    <path class="st3" d="M378.07,172.7c-.05.15-.08.31-.1.47-.05.37-.12.82-.2,1.38-.17,1.2-.39,2.94-.64,5.09-.51,4.3-1.11,10.25-1.64,16.84s-.88,12.55-1.1,16.88c-.1,2.12-.17,3.85-.23,5.12v1.39c-.02.16-.02.33,0,.49.05-.16.07-.32.07-.48,0-.37.07-.83.12-1.39.09-1.27.21-3,.36-5.11.3-4.32.7-10.29,1.23-16.87s1.08-12.53,1.51-16.84c.21-2.11.38-3.84.51-5.1.05-.56.09-1,.12-1.39.02-.16.02-.32,0-.48Z"/>
    <path class="st6" d="M445.79,162.79l4.05,1.16c5.67,1.56,9.97,6.18,11.12,11.95l7.55,42.45-23.91,8.66-8.23-6.45,9.42-57.77Z"/>
    <path class="st3" d="M368.37,275.8h.2l.57.1,2.2.36c1.9.31,4.67.73,8.1,1,1.87.14,3.75.14,5.62,0,.51-.04,1.01-.11,1.51-.21.26,0,.52-.09.77-.16l.74-.25c1-.28,1.56-1.33,2-2.32.43-1.07.77-2.19,1-3.32.26-1.15.47-2.35.64-3.58.35-2.45.57-5,.73-7.64.34-5.74.39-11.2.31-16l.2.2-16-.34-4.53-.12-1.2-.05h-.42c.14-.02.28-.02.42,0h5.74l16,.17h.2v.19c.11,4.85.08,10.31-.26,16.07-.17,2.63-.39,5.2-.75,7.67-.18,1.24-.39,2.45-.66,3.62-.24,1.16-.6,2.29-1.05,3.38-.23.54-.51,1.04-.86,1.51-.19.23-.39.44-.61.63-.24.17-.5.3-.78.39l-.78.25c-.27.07-.53.11-.79.16-.52.1-1.04.17-1.56.21-1.89.13-3.78.11-5.67-.05-2.72-.23-5.43-.6-8.11-1.12-1-.17-1.69-.33-2.19-.45l-.56-.13-.17-.17Z"/>
    <path class="st3" d="M392.71,249.33c0,.12-5.09.22-11.37.22s-11.38-.1-11.38-.22,5.1-.22,11.38-.22,11.37.09,11.37.22Z"/>
    <path class="st3" d="M442.7,284.4c0,.12-16.48.22-36.82.22s-36.82-.1-36.82-.22,16.48-.22,36.82-.22,36.82.1,36.82.22Z"/>
    <rect class="st5" x="421.03" y="198.36" width="16.62" height="11.84"/>
    <path class="st1" d="M431.6,204.79c0,1.01.81,1.83,1.82,1.84,1.01,0,1.83-.81,1.84-1.82s-.81-1.83-1.82-1.84c0,0,0,0,0,0-1.01,0-1.82.8-1.83,1.81,0,0,0,0,0,.01Z"/>
    <rect class="st1" x="423.44" y="204.05" width="6.79" height="1.17" rx=".45" ry=".45"/>
    <polyline class="st3" points="430.36 200.2 431.73 196.53 426.96 196.53 428.12 200.2 430.36 200.2"/>
    <path class="st3" d="M400.8,194.5c.04.15.1.29.18.42l.59,1.16c.51,1,1.32,2.43,2.37,4.15s2.37,3.74,3.93,5.9,3.4,4.46,5.43,6.78,4.12,4.4,6.06,6.23,3.79,3.38,5.38,4.63,2.9,2.22,3.83,2.86l1.08.72c.25.17.38.25.39.23-.1-.11-.22-.21-.34-.3l-1-.79c-.9-.67-2.19-1.68-3.74-3s-3.36-2.86-5.29-4.68-4-3.93-6-6.22-3.85-4.6-5.44-6.73-2.93-4.13-4-5.83-1.92-3.09-2.47-4.07l-.67-1.12c-.09-.12-.18-.24-.29-.34Z"/>
    <path class="st3" d="M425.17,248.96c-.11-.17-.24-.32-.38-.46l-1.15-1.25c-.51-.53-1.13-1.2-1.82-2s-1.51-1.66-2.36-2.67c-1.73-2-3.72-4.43-5.84-7.2s-4.33-5.91-6.52-9.29-4.11-6.71-5.78-9.78-3-5.89-4.14-8.3c-.57-1.19-1-2.29-1.46-3.25s-.77-1.79-1.05-2.47l-.67-1.57c-.06-.19-.15-.37-.26-.54.04.19.1.39.18.57l.59,1.6c.26.69.58,1.54,1,2.51s.85,2.08,1.41,3.28c1.06,2.42,2.44,5.26,4.07,8.36s3.58,6.42,5.76,9.82,4.44,6.52,6.56,9.3,4.17,5.19,5.93,7.16c.87,1,1.7,1.86,2.41,2.63s1.35,1.42,1.88,1.94l1.21,1.19c.13.15.27.29.43.42Z"/>
    <path class="st3" d="M451.91,179.72c-.12,0-2,11.35-4.21,25.38s-3.91,25.44-3.79,25.46,2-11.35,4.21-25.39,3.91-25.43,3.79-25.45Z"/>
    <path class="st9" d="M447.19,313.54c.44.62,1.3.77,1.92.33.1-.07.18-.15.26-.23.55-.51,1.13-6.1,1.13-6.1l1.3-7.48-.23,14.24s.15,1.35,1.2,1.4,1.77-1.51,1.77-1.51l1.53-14.67s-.49,8.16.05,8.58c.74.57,1.41.39,1.65-.24.49-1.27,1.2-8.61,1.2-8.61l.68-14,.71-6.73-12.99-.81-.59,4s-5.16,3.9-6.29,5.44-3.94,7-6,8.63c.11.87.91,1.47,1.77,1.36.26-.03.51-.13.73-.29,2.12-1.19,3.97-2.8,5.45-4.73.88-1.34,1.8-.56,1.85.61s-.95,9.08-.95,9.08c0,0-2.48,8.79-1.81,9.78.51.72,1.51.89,2.23.37.1-.07.2-.16.28-.25.34-.46,3.12-7.81,3.12-7.81"/>
    <path class="st9" d="M460.92,221.13s.89,27.7,1,32.06c.16,6.75-1.75,26.59-1.75,26.59l-13.41,1.92-.46-55.28,14.62-5.29Z"/>
    <path class="st11" d="M310.79,216.02c-1-.45-1.93-1.06-2.73-1.81-.58-.76-.69-1.79-.3-2.66l2.46.89c-.82-.27-1.53-.82-2-1.55-.56-.65-.49-1.62.15-2.19.03-.02.05-.04.08-.06,0,0,4.27,1.71,5.95,2.25.23.17,8.93,3.49,9.39,4l8.1,8.69,11.95-2.72,1.07,16.36s-15.07-1.55-17.61-2.29-9.11-7-9.11-7l-3-3.95-5.29-2.93c-.91-.64-1.86-1.8-1-2.94h0c-1.67-1.07-.8-3.18-.8-3.18l2.69,1.09Z"/>
    <path class="st3" d="M317.48,217.26c.52-.27,1-.6,1.43-1l.19-.14-.21-.11c-1.5-.83-3.05-1.58-4.63-2.25-1.75-.76-3.36-1.36-4.54-1.74-.64-.26-1.31-.43-2-.5.58.33,1.2.6,1.84.81,1.15.46,2.73,1.11,4.47,1.86s3.55,1.58,4.67,2.09v-.26c-.46.36-.87.78-1.22,1.24Z"/>
    <path class="st3" d="M313.81,217.26c-.85-.6-1.79-1.07-2.78-1.4-.94-.48-1.96-.82-3-1,.86.6,1.8,1.07,2.79,1.4.94.48,1.95.82,2.99,1Z"/>
    <rect class="st1" x="288.06" y="246.73" width="7.14" height="189.65"/>
    <path class="st3" d="M295.2,436.38v-14.87c0-9.56,0-23.38-.08-40.51,0-34.21-.07-81.58-.11-134.27l.26.26h-7.14l.26-.26c0,91.39-.08,168.21-.19,189.65l-.07-.07h7.14-7.2v-.07c-.11-21.44-.2-98.26-.2-189.65v-.26h7.66v.26c0,52.76-.08,100.2-.1,134.47,0,17.09-.07,30.9-.08,40.44v13.79c0,.65-.15,1.09-.15,1.09Z"/>
    <path class="st1" d="M265.57,439.17h55.29c0-2.4-1.93-4.34-4.33-4.35h-46.61c-2.4,0-4.35,1.95-4.35,4.35h0Z"/>
    <path class="st3" d="M311.31,443.18c0,3.42,2.76,6.19,6.18,6.2s6.19-2.76,6.2-6.18-2.76-6.19-6.18-6.2h-.02c-3.41,0-6.18,2.77-6.18,6.18Z"/>
    <path class="st3" d="M259.87,443.18c0,3.41,2.77,6.18,6.18,6.18,3.41,0,6.18-2.77,6.18-6.18s-2.77-6.18-6.18-6.18h0c-3.41,0-6.18,2.77-6.18,6.18Z"/>
    <circle class="st3" cx="293.22" cy="443.22" r="6.18"/>
    <rect class="st1" x="266.36" y="179.91" width="54.45" height="67.43"/>
    <rect class="st10" x="282.34" y="179.9" width="38.47" height="67.57"/>
    <rect class="st5" x="287.23" y="186.42" width="28.73" height="28.73"/>
    <path class="st3" d="M287.23,215.16c-.01-.17-.01-.34,0-.51v-1.51c0-1.38,0-3.34-.06-5.81,0-5.09-.08-12.29-.13-20.91v-.24h28.98l.28.29h0v28.95h-.24l-20.91-.12-5.81-.07h-2.01c.18-.01.37-.01.55,0h1.56l5.87-.06,20.75-.13-.25.25v-28.71h0l.28.28h-28.73l.24-.25c0,8.56-.09,15.7-.12,20.75,0,2.5,0,4.47-.07,5.87v1.56c-.17.17-.18.36-.18.37Z"/>
    <path class="st3" d="M267.29,179.9c0-.15,12-.28,26.69-.28s26.68.13,26.68.28-11.94.29-26.68.29-26.69-.13-26.69-.29Z"/>
    <path class="st3" d="M266.37,247.34c-.15,0-.28-15-.28-33.46s.13-33.47.28-33.47.28,15,.28,33.47-.14,33.46-.28,33.46Z"/>
    <path class="st3" d="M282.37,247.34c-.16,0-.28-15-.28-33.46s.12-33.47.28-33.47.28,15,.28,33.47-.15,33.46-.28,33.46Z"/>
    <rect class="st11" x="311.55" y="220.74" width="4.41" height="4.41"/>
    <rect class="st11" x="305.47" y="220.74" width="4.41" height="4.41"/>
    <rect class="st11" x="299.38" y="220.74" width="4.41" height="4.41"/>
    <rect class="st11" x="293.3" y="220.74" width="4.41" height="4.41"/>
    <rect class="st11" x="287.22" y="220.74" width="4.41" height="4.41"/>
    <rect class="st11" x="311.55" y="226.58" width="4.41" height="4.41"/>
    <rect class="st11" x="305.47" y="226.58" width="4.41" height="4.41"/>
    <rect class="st11" x="299.38" y="226.58" width="4.41" height="4.41"/>
    <rect class="st11" x="293.3" y="226.58" width="4.41" height="4.41"/>
    <rect class="st11" x="287.22" y="226.58" width="4.41" height="4.41"/>
    <rect class="st11" x="311.55" y="232.42" width="4.41" height="4.41"/>
    <rect class="st11" x="305.47" y="232.42" width="4.41" height="4.41"/>
    <rect class="st11" x="299.38" y="232.42" width="4.41" height="4.41"/>
    <rect class="st6" x="287.22" y="232.42" width="10.49" height="4.41"/>
    <path class="st6" d="M288.67,201.26s.15-.07.47-.14.77-.16,1.37-.24c.74-.1,1.5-.1,2.24,0,1,.16,1.92.63,2.62,1.36.41.45.69.99.82,1.58.12.62.16,1.26.12,1.89-.05.64-.05,1.28,0,1.92.1.64.38,1.24.81,1.73.4.5,1.09.67,1.68.41.61-.35,1.07-.91,1.3-1.57.56-1.48.93-3.02,1.1-4.59.22-1.62,0-3.2.18-4.81.06-1.65,1.14-3.09,2.7-3.63.77-.16,1.57.04,2.17.55.52.46.94,1.02,1.22,1.66.52,1.22.7,2.39,1.19,3.32.44.83,1.14,1.5,2,1.89.65.3,1.35.46,2.07.46.62-.02,1.23-.13,1.81-.33,0,0-.13.11-.42.24-.44.19-.9.29-1.38.31-.76.05-1.52-.09-2.21-.4-.95-.39-1.73-1.1-2.22-2-.55-1-.76-2.19-1.27-3.3-.25-.57-.63-1.07-1.11-1.47-.48-.41-1.12-.57-1.74-.43-.65.19-1.2.61-1.57,1.17-.39.6-.63,1.29-.69,2-.15,1.48.05,3.14-.17,4.8-.18,1.63-.56,3.22-1.15,4.75-.28.79-.85,1.45-1.59,1.85-.8.33-1.73.11-2.29-.55-.48-.57-.8-1.26-.91-2-.06-.67-.06-1.33,0-2,.19-1.13-.1-2.28-.78-3.19-.64-.69-1.49-1.14-2.42-1.3-.71-.13-1.43-.17-2.15-.1-1.1.1-1.8.21-1.8.16Z"/>
    <rect class="st1" x="269.05" y="283.91" width="49.03" height="11.99"/>
    <path class="st3" d="M283.98,295.75c-.35-3.62-.35-7.26,0-10.88.35,3.62.35,7.26,0,10.88Z"/>
    <path class="st3" d="M317.56,283.9c0,.15-10.87.26-24.27.26s-24.27-.11-24.27-.26,10.87-.26,24.27-.26,24.27.12,24.27.26Z"/>
    <path class="st3" d="M318.7,296.16c0,.14-11.25.26-25.11.26s-25.12-.12-25.12-.26,11.24-.26,25.12-.26,25.11.11,25.11.26Z"/>
    <path class="st11" d="M323.72,221.37l-4.72-3.38-8.33-.48c.18,1.36,1.05,2.54,2.3,3.11,2,.72,5.05,1.69,5.05,1.69,0,0-.39,7.22,4.21,7.71l2.85-3.14-1.36-5.51Z"/>
    <path class="st3" d="M322.23,230.02c-.72-.46-1.4-.97-2.05-1.52-.7-.66-1.25-1.46-1.61-2.35-.46-1.14-.6-2.38-.41-3.59v-.19l-.17-.06-3.32-1.06c-.59-.17-1.17-.38-1.73-.63-.56-.27-1.04-.66-1.41-1.15-.38-.54-.53-1.2-.44-1.85l-.23.18,8.11.19h-.11l3.81,2.65,1,.72c.12.09.24.17.38.23-.4-.42-.84-.79-1.31-1.12-.86-.69-2.12-1.65-3.68-2.82h-.06l-8.11-.29h-.2v.19c-.13.78.05,1.58.51,2.23.87,1.01,2.07,1.69,3.38,1.94l3.33,1-.14-.24c-.19,1.3-.02,2.62.5,3.82.4.92,1,1.74,1.76,2.39l.45.38.44.29c.22.16.45.3.7.41.38.18.6.28.61.25Z"/>
  </g>
  <g id="freepik--character-1--inject-2">
    <circle class="st3" cx="254.06" cy="454.82" r="12.65"/>
    <path class="st1" d="M260.37,452.51l.21-23.27h-22.62l-.22,20.09c0,2.76,2.24,5,5,5h1.84c-.44,1.22-.61,2.53-.48,3.82.51,4.55,4.36,8,8.94,8,4.88-.04,8.8-4.03,8.75-8.9-.01-1.68-.51-3.33-1.42-4.74Z"/>
    <path class="st11" d="M256.62,457.34c0,2.04-1.65,3.69-3.69,3.69-2.04,0-3.69-1.65-3.69-3.69,0-2.04,1.65-3.69,3.69-3.69h0c2.03,0,3.68,1.65,3.68,3.68,0,0,0,0,0,.01Z"/>
    <path class="st1" d="M552.57,372.84h0c-4.24,0-7.67-3.43-7.67-7.67,0-.02,0-.03,0-.05l.74-105.81c.03-4.21,3.46-7.61,7.67-7.61h0c4.24,0,7.67,3.43,7.67,7.67,0,.02,0,.03,0,.05l-.75,105.8c-.02,4.21-3.45,7.62-7.66,7.62Z"/>
    <path class="st3" d="M552.57,372.84c.88-.05,1.74-.22,2.57-.51.99-.37,1.9-.94,2.66-1.67,1.04-1.01,1.78-2.29,2.11-3.7.18-.84.26-1.7.22-2.56v-9.37c0-4.68,0-10,.07-15.87.07-11.75.15-25.75.24-41.28,0-7.77.1-15.92.15-24.38,0-4.23.03-8.53.09-12.89.07-1.07-.02-2.15-.26-3.2-.28-1.03-.78-1.99-1.47-2.8-2.63-3.13-7.29-3.54-10.43-.91-.33.28-.64.58-.91.91-.69.82-1.19,1.78-1.47,2.81-.24,1.05-.33,2.12-.28,3.19,0,4.37-.03,8.67-.09,12.9-.07,8.46-.13,16.61-.19,24.38-.13,15.54-.24,29.53-.34,41.29-.06,5.87-.11,11.19-.15,15.86,0,2.33-.02,4.5-.07,6.51v2.86c-.05.86.02,1.72.21,2.56.34,1.41,1.08,2.68,2.14,3.67.76.74,1.67,1.31,2.66,1.67.83.29,1.69.46,2.57.51h-.67c-.66-.04-1.31-.18-1.93-.4-1.02-.35-1.95-.92-2.74-1.66-.51-.47-.94-1.01-1.3-1.6-.42-.67-.72-1.4-.9-2.16-.2-.85-.28-1.73-.24-2.61v-9.37c0-4.67,0-10,.07-15.86.07-11.76.15-25.75.23-41.29.05-7.77.11-15.93.16-24.38,0-4.23.03-8.53.09-12.9-.06-1.12.04-2.24.29-3.33,1.15-4.22,5.51-6.71,9.73-5.55,1.56.43,2.95,1.32,3.98,2.55.74.87,1.27,1.9,1.57,3,.26,1.09.35,2.21.28,3.33-.04,4.37-.07,8.66-.1,12.89-.06,8.46-.12,16.61-.18,24.38-.13,15.54-.25,29.53-.35,41.29-.05,5.87-.1,11.19-.15,15.86,0,2.33-.02,4.5-.07,6.5v2.87c.03.88-.05,1.75-.24,2.61-.62,2.53-2.48,4.57-4.94,5.42-.62.22-1.27.36-1.93.4l-.69.03Z"/>
    <rect class="st11" x="556.89" y="341.29" width="12.39" height="35.21"/>
    <rect class="st1" x="187.04" y="416.45" width="328.3" height="10.74"/>
    <path class="st3" d="M515.37,427.19v-10.74l.06.06-328.28.2h0l.26-.26v10.74l-.26-.26,232.47.1,70.13.08h25.7-25.58l-70.07.08-232.66.11h-.26v-11.12h.28l328.28.2h-.07v10.81Z"/>
    <rect class="st1" x="234.69" y="378.42" width="11.19" height="35.98"/>
    <path class="st3" d="M245.88,414.4v-2.73c0-1.81,0-4.37-.07-7.55,0-6.43-.07-15.38-.12-25.66l.25.26h-11.24c.51-.52.14-.13.25-.25h0v20.23c0,6.1,0,11.47-.07,15.73l-.17-.17,8.19.1h3c-.24.01-.48.01-.72,0h-2.18l-8.29.09h-.16v-.17c0-4.26,0-9.63-.07-15.73v-20.11h0c.12-.12-.26.25.27-.27h11.44v.25c-.05,10.35-.09,19.36-.12,25.83,0,3.16-.06,5.7-.07,7.5v2c-.03.22-.07.44-.12.65Z"/>
    <rect class="st1" x="226.34" y="412.07" width="45.82" height="19.5"/>
    <path class="st3" d="M272.17,431.57c-.01-.12-.01-.25,0-.37v-4.9c0-3.39-.06-8.24-.1-14.21l.19.18-45.83.08.26-.26h0v19.47l-.25-.25,32.81.12,9.54.06h3.48-3.37l-9.48.07-33,.11h-.25v-.25c0-3.04,0-6.2,0-9.47v-10h0c-.06.05.5-.5.26-.27l45.83.08h.11v.19c0,6-.08,10.9-.1,14.32v4.86c0,.26-.1.44-.1.44Z"/>
    <circle class="st3" cx="496.29" cy="458.28" r="12.65"/>
    <path class="st1" d="M488.89,453.45v-24.21h22.59v21c0,2.76-2.24,5-5,5h-1.84c.44,1.22.6,2.53.48,3.82-.51,4.55-4.36,8-8.94,8-4.88-.08-8.77-4.1-8.7-8.98.03-1.67.52-3.29,1.44-4.69l-.03.06Z"/>
    <path class="st11" d="M492.61,458.28c0,2.03,1.66,3.68,3.69,3.67,2.03,0,3.68-1.66,3.67-3.69,0-2.03-1.65-3.67-3.68-3.67s-3.68,1.65-3.68,3.68h0Z"/>
    <rect class="st1" x="469.53" y="411.5" width="45.82" height="19.5"/>
    <path class="st3" d="M469.53,431.01c-.02-.11-.02-.22,0-.33v-1c0-.92,0-2.21-.05-3.86,0-3.42-.06-8.3-.1-14.33v-.18h.19l45.8-.07c-.23-.23.32.32.26.27h0v19.72h-.26l-33-.11-9.48-.07h-3.36,3.47l9.54-.06,32.81-.12-.25.25v-19.47h0l.26.26-45.82-.08.18-.19c0,6-.07,10.83-.1,14.22v4.9c0,.24-.09.24-.09.25Z"/>
    <path class="st1" d="M271.02,342.87l-122.37-115.23c-3.69-3.64-9.64-3.6-13.28.1s-3.6,9.64.1,13.28c.1.1.21.2.31.29l121.69,114.58c2.73,2.58,6.46,2.68,9.87,2.44h279.24v-15.46h-275.56Z"/>
    <path class="st3" d="M271.02,342.87h20.17l56.56-.07,198.83-.16h.23v15.93h-280.04c-.97.06-1.93.06-2.9,0-1.97-.06-3.88-.66-5.54-1.72-.77-.58-1.49-1.22-2.17-1.9l-2.08-2-4.13-3.89-16.34-15.38c-10.77-10.15-21.31-20.07-31.62-29.77l-58.45-54.96-6.8-6.41c-1.21-.99-2.23-2.19-3-3.55-2.25-4.28-.96-9.57,3-12.34,3.85-2.66,9.06-2.17,12.35,1.17l3.13,2.95,6.15,5.87,12,11.2,73.69,69.48c8.69,8.22,15.45,14.59,20,18.92l5.2,4.93c1.18,1.12,1.77,1.7,1.77,1.7,0,0-.61-.55-1.79-1.65l-5.22-4.88-20.08-18.84-73.84-69.37-12-11.25-6.18-5.82-3.14-2.95c-3.14-3.22-8.15-3.69-11.84-1.13-2.45,1.72-3.92,4.52-3.92,7.52-.01,1.5.35,2.97,1.05,4.29.75,1.32,1.75,2.49,2.93,3.44l6.84,6.41,58.53,55,31.64,29.76,16.33,15.37,4.14,3.89,2.07,2c.66.67,1.37,1.28,2.12,1.85,1.58,1.01,3.41,1.57,5.28,1.63.95.06,1.89.06,2.84,0,1-.07,1.93,0,2.89,0h276.95l-.25.24v-15.46l.24.24-198.9-.1-56.54-.07h-18.85l-1.31-.12Z"/>
    <path class="st11" d="M205.19,210.64c-12.21-12.45-29.37-18.75-46.74-17.18,5.16,19.68,14,37.49,29,51.18,4.5,4.26,9.63,7.79,15.22,10.46,5.63,2.69,11.92,3.66,18.1,2.79,2.14-17.29-3.57-34.63-15.58-47.25Z"/>
    <path class="st3" d="M220.06,256.88l-.21-.11-.57-.34c-.5-.32-1.25-.76-2.17-1.4-2.62-1.77-5.14-3.68-7.56-5.72-3.57-3.03-6.97-6.26-10.18-9.67-3.67-3.81-7.5-8.2-11.42-12.88l-11-13.26c-3.4-4-6.54-7.62-9.27-10.54s-5-5.2-6.65-6.74c-.8-.78-1.45-1.36-1.87-1.77l-.48-.46c-.1-.11-.16-.17-.15-.18.07.04.13.09.19.14l.51.42c.45.39,1.12.94,1.94,1.7,1.67,1.5,4,3.75,6.77,6.64s6,6.45,9.37,10.49c3.37,4.04,7.11,8.54,11,13.22s7.72,9.07,11.36,12.89c3.21,3.41,6.59,6.65,10.13,9.71,3,2.59,5.61,4.55,7.44,5.84.9.66,1.63,1.12,2.11,1.47l.54.39c.06.05.12.1.17.16Z"/>
    <path class="st3" d="M231.37,205.13c.55-3.27-.85-6.56-3.57-8.44-.3-.2-.64-.41-.74-.76-.05-.31-.01-.63.12-.91.55-1.65.4-3.46-.42-5-.84-1.53-2.44-2.49-4.19-2.52,1.18-2.36-.39-5.51-2.88-6.4-2.59-.78-5.4.11-7.07,2.24-.41-1.61-1.83-2.76-3.49-2.82-1.62-.02-3.2.49-4.5,1.45-1.8,1.2-3.47,3.14-3.11,5.28-1-.88-2.57-.61-3.72,0-3.19,1.96-4.36,6.03-2.7,9.39-1.37.09-2.67.6-3.73,1.47-1.06.92-1.36,2.44-.74,3.7-1.33-.32-2.72.06-3.71,1-.79.57-1.39,1.36-1.72,2.27-.32.95,0,1.99.77,2.61-1.98.66-3.05,2.81-2.39,4.79.66,1.98,2.81,3.05,4.79,2.38h0c-.77,2.55.68,5.25,3.23,6.02.72.22,1.48.26,2.22.13-.41.6-.25,1.42.35,1.83.11.07.22.13.35.17.8.2,1.65,0,2.29-.52l5.12,6.72c1.02,1.51,2.28,2.84,3.72,3.95,1.46,1.13,3.37,1.5,5.15,1"/>
    <path class="st9" d="M226.37,198.69c-4.41-5.2-14.34-6.28-19.32-1.67l-15.05,16.44,2.24,2.89,33.13,37.45,24.33-4-12.68-16.56s6.08-6.33.73-16.5c-2.7-5.02-8.46-12.27-13.38-18.05Z"/>
    <path class="st3" d="M229.82,208.38c.47.62.37,1.51-.24,2-.57.51-1.45.46-1.96-.11-.01-.01-.03-.03-.04-.04-.47-.62-.37-1.51.24-2,.57-.51,1.45-.46,1.96.11.01.01.03.03.04.04Z"/>
    <path class="st3" d="M227.66,203.74c0,.26-1.4.27-2.65,1.2s-1.69,2.25-1.94,2.19-.18-.4,0-1c.26-.78.76-1.45,1.42-1.94.65-.49,1.44-.76,2.25-.76.63.02.94.21.92.31Z"/>
    <path class="st3" d="M219.19,217.13c.48.62.37,1.51-.24,2-.57.51-1.45.46-1.96-.12-.01-.01-.03-.03-.04-.04-.47-.62-.37-1.51.24-2,.57-.51,1.45-.46,1.96.12.01.01.03.03.04.04Z"/>
    <path class="st3" d="M215.78,213.38c0,.26-1.4.26-2.65,1.2s-1.69,2.24-1.94,2.19-.18-.4,0-1c.26-.78.76-1.46,1.42-1.95.65-.48,1.44-.75,2.25-.76.6.02.94.2.92.32Z"/>
    <path class="st3" d="M227.03,219.06c.5-.7,1.1-1.33,1.76-1.88.29-.27.55-.56.44-.82s-.49-.53-.92-.79l-2.77-1.74c-3.91-2.49-7-4.64-6.89-4.8s3.35,1.74,7.26,4.24l2.73,1.78c.4.28.91.53,1.11,1.13.08.3,0,.62-.18.86-.13.18-.3.35-.48.48-.62.6-1.31,1.12-2.06,1.54Z"/>
    <path class="st13" d="M238.98,233.27c-4.22,3.24-9.26,5.25-14.56,5.79,0,0,8.2,4.51,16.63-3.09l-2.07-2.7Z"/>
    <path class="st13" d="M228.76,222.48c-.94-.25-1.94,0-2.65.66-.52.47-.82,1.13-.85,1.83-.02.68.38,1.3,1,1.57.77.18,1.57-.15,2-.81.44-.65.74-1.38.89-2.15.06-.2.09-.42.08-.63-.01-.21-.15-.4-.35-.47"/>
    <path class="st3" d="M224,222.64c.19-.16,1.21,1.2,3.1,1.3s3.21-1.13,3.37-.94-.13.5-.73,1c-.78.61-1.76.92-2.75.87-.96-.05-1.86-.46-2.51-1.16-.48-.53-.58-.98-.48-1.07Z"/>
    <path class="st3" d="M212.81,208.64c.13.43-1.24,1.2-2.57,2.47s-2.22,2.55-2.65,2.39c-.19-.08-.23-.55,0-1.24.33-.88.87-1.68,1.56-2.32.68-.65,1.51-1.13,2.42-1.39.7-.2,1.17-.14,1.24.09Z"/>
    <path class="st3" d="M224.49,200.46c0,.44-1.09.79-2.14,1.55s-1.77,1.61-2.19,1.47c-.2-.08-.27-.47-.09-1,.56-1.45,1.94-2.41,3.49-2.43.58-.01.92.19.93.41Z"/>
    <path class="st3" d="M214.83,191c2.53,1.67,3.23,5.07,1.56,7.61-.84,1.28-2.18,2.15-3.69,2.39,1.05.24,1.76,1.23,1.65,2.3-.15,1.04-.71,1.98-1.55,2.61-1.71,1.42-3.94,2.02-6.13,1.66,1.52,2.66.59,6.05-2.07,7.57-.52.29-1.07.5-1.66.62,2.8.33,4.8,2.86,4.47,5.66s-2.86,4.8-5.66,4.47c-.97-.11-1.89-.51-2.65-1.13-3.08.74-6.17-1.15-6.91-4.23-.12-.49-.17-.99-.16-1.49-1.17.34-2.44.03-3.32-.81-.86-.84-1.49-1.89-1.82-3.05-1.03-2.78-.89-5.85.39-8.52,1.36-2.67,4.22-4.24,7.21-3.94.32.11.68.11,1,0,.36-.28.57-.71.55-1.17.23-2,.45-4.1,1.67-5.68,1.58-1.93,4.28-2.51,6.52-1.41-.37-2.74,1.11-5.39,3.63-6.52,2.5-1,5.79.62,6.25,3.26"/>
    <path class="st3" d="M204.9,223.14c1.29,1.92,2.3,4.01,3,6.21.42.89.37,1.94-.13,2.79-.66.64-1.66.77-2.46.33-.79-.44-1.45-1.07-1.94-1.83-1.8-2.6-3.43-5.33-4.86-8.15"/>
    <path class="st9" d="M203.99,226.05c-.15,0-5.77,1.81-2.38,6.5s7.39.35,7.3.21-4.92-6.71-4.92-6.71Z"/>
    <path class="st13" d="M206.2,232.01s0,.11-.13.28c-.13.22-.35.38-.6.45-.89.06-1.75-.36-2.25-1.1-.3-.39-.51-.85-.61-1.33-.13-.36-.07-.76.16-1.07.15-.19.43-.24.64-.12.16.08.19.2.22.19s0-.15-.13-.32c-.11-.1-.25-.15-.4-.16-.2,0-.39.07-.53.2-.34.36-.46.87-.33,1.35.09.55.32,1.07.66,1.51.57.88,1.62,1.34,2.66,1.17.31-.11.55-.35.65-.66.06-.27,0-.39-.01-.39Z"/>
    <path class="st5" d="M205.76,206.81l.17-.07.48-.26c.59-.33,1.14-.74,1.63-1.22.36-.34.66-.73.91-1.16.31-.49.51-1.05.58-1.63.09-.68,0-1.36-.23-2-.27-.71-.78-1.3-1.45-1.66v.24c1.64-.03,3.23-.59,4.52-1.61.71-.55,1.31-1.23,1.78-2,.25-.4.44-.83.55-1.29.14-.47.14-.98,0-1.45-.19-.54-.49-1.02-.89-1.43-.38-.39-.78-.75-1.21-1.08-.41-.34-.87-.62-1.36-.82-.49-.23-1.07-.23-1.56,0l.11.26c.96-.35,1.77-1.01,2.31-1.87.5-.78.77-1.68.79-2.6,0-.82-.23-1.63-.68-2.32-.39-.58-.9-1.07-1.49-1.44-.84-.53-1.83-.77-2.82-.71-.34.02-.68.1-1,.23.33-.06.66-.11,1-.14.96-.02,1.91.24,2.71.77.57.36,1.05.84,1.42,1.4.42.66.63,1.43.61,2.21-.03.88-.29,1.73-.77,2.46-.51.81-1.28,1.42-2.18,1.74l.12.26c.42-.2.9-.2,1.32,0,.46.19.9.46,1.28.78.88.58,1.57,1.4,2,2.36.22.87.05,1.79-.48,2.51-1.3,2.12-3.58,3.44-6.06,3.52h-.6l.47.23c.62.32,1.1.87,1.35,1.52.25.6.34,1.25.28,1.9-.07.55-.25,1.09-.53,1.57-.24.42-.53.8-.86,1.14-.49.48-1.03.91-1.61,1.27-.21.11-.42.25-.61.39Z"/>
    <path class="st5" d="M218.53,194.13s.15,0,.42-.08c.37-.13.71-.34,1-.6.46-.39.78-.9.93-1.48.1-.36.05-.75-.14-1.08-.22-.37-.63-.59-1.06-.54l.07.28h.1c1.26-.49,2.23-1.5,2.67-2.78.13-.38.2-.77.21-1.17.02-.14.02-.29,0-.43-.08.52-.2,1.03-.37,1.53-.46,1.18-1.39,2.11-2.57,2.58h-.09l-1.33.52,1.4-.24c.31-.02.61.14.77.41.15.26.19.58.12.87-.13.53-.41,1.02-.81,1.39-.39.34-.84.62-1.32.82Z"/>
    <path class="st6" d="M223.26,248.98c3.76-.7,7.39-2,10.75-3.83,3.32-1.84,6.42-4.06,9.24-6.61l.58-.19,11.18,3.1c6,2.18,14.68,5,19.08,8,6.18,4.26,13.77,16.8,13.77,16.8l27.92,18.6s5.12,1.82,2.08,12.18-29.33,23.94-29.33,23.94c0,0-6.43,2.67-10.2-1.19-3.25-3.33-19-18.32-19-18.32,0,0-23.14-20.57-27.07-25.05-8.12-9.23-14.41-11.37-9-27.43Z"/>
    <path class="st11" d="M268.76,309.89l21.22-42.53,26,6.23,27.74,10.15,69.09-5.9,111-.83c2.99-.03,5.89,1.08,8.1,3.1,2.57,2.35,6.55,6.11,7.13,10.93,2.33,19.34,3.93,31.64,3.77,30.91l-256.88,1.69-17.17-13.75Z"/>
    <path class="st9" d="M255.48,263.96c1,.52,21.24,22.63,21.24,22.63l46.59-12.36,3.59,12.31s-44.15,21.1-49,21.23-9.23-2.42-21.47-9.77c-12.69-7.61-17.45-20.91-17.45-20.91l16.5-13.13Z"/>
    <path class="st6" d="M262.57,269.64l-21.2,18.77s-10.8-14.15-15.33-21.3c-4-6.38-2.34-11.48,3.62-15.12s15.27,1.29,19,4c4.31,3.06,13.91,13.65,13.91,13.65Z"/>
    <path class="st3" d="M262.57,269.64c-.16-.11-.3-.23-.43-.37l-1.13-1.11c-1-1-2.38-2.4-4.15-4.11s-3.91-3.74-6.4-5.84c-2.64-2.33-5.54-4.34-8.64-6-3.12-1.62-6.75-1.96-10.12-.93-2.77.77-5.09,2.65-6.44,5.19-.87,1.73-1.19,3.68-.91,5.59.14.7.32,1.38.56,2.05-.38-.61-.64-1.29-.76-2-.37-1.96-.1-3.99.78-5.79,1.35-2.67,3.75-4.65,6.62-5.48,1.66-.52,3.41-.72,5.15-.6,1.87.12,3.69.64,5.35,1.51,3.14,1.68,6.07,3.73,8.72,6.12,2.49,2.13,4.6,4.18,6.35,5.93s3.11,3.21,4,4.24l1.06,1.18c.14.13.27.27.39.42Z"/>
    <polygon class="st1" points="241.4 288.41 262.56 269.68 258.81 265.77 238.95 285.32 241.4 288.41"/>
    <path class="st1" d="M222.55,251.21s9.9-1.36,15.11-5.37c2.93-2.17,5.71-4.55,8.32-7.1l-2.64-.55s-7.06,7.53-20.08,10.79l-.71,2.23Z"/>
    <path class="st1" d="M224.17,250.14c0,.12-.03.24-.06.35-.08.34-.18.67-.31,1-.48,1.18-1.2,2.25-2.11,3.14-.63.63-1.35,1.16-2.13,1.59-.25.16-.54.22-.83.18-.31-.09-.56-.34-.64-.66-.08-.58.06-1.16.39-1.64,1.12-2.15,3.07-3.76,5.39-4.46l2-.57-1.75,1c-.63.37-1.3.67-2,.88-2.54.64-5.17.79-7.76.45-.36.02-.71-.09-1-.3-.16-.14-.25-.35-.23-.57.01-.19.08-.36.2-.51.19-.24.44-.44.72-.57.24-.13.49-.25.75-.35,2.29-.93,4.86-.88,7.12.13.35.16.68.35,1,.57.22.15.33.24.32.26s-.49-.28-1.42-.64c-1.3-.51-2.71-.71-4.1-.6-.95.07-1.89.3-2.77.68-.48.16-.92.43-1.27.79-.14.2-.15.36,0,.47.21.12.44.18.68.16,2.53.3,5.09.14,7.57-.46.65-.21,1.27-.48,1.86-.83l.21.47c-2.19.65-4.04,2.15-5.13,4.16-.27.38-.4.84-.38,1.3.04.17.16.32.33.38.19.02.38-.03.53-.14.76-.39,1.46-.88,2.08-1.47.91-.85,1.65-1.87,2.17-3,.4-.69.53-1.2.57-1.19Z"/>
    <rect class="st11" x="276.07" y="318.26" width="268.83" height="24.61" rx="4.68" ry="4.68"/>
    <path class="st3" d="M528.18,318.26c0,.15-53,.5-118.27.79s-118.27.41-118.28.27,53-.5,118.28-.79,118.27-.41,118.27-.27Z"/>
    <path class="st3" d="M545.19,276.15c.14,0,.26,21.51.26,48s-.12,48.05-.26,48.05-.26-21.51-.26-48.05.12-48,.26-48Z"/>
    <path class="st11" d="M271.02,342.87l-113.54-106.77c-2.12-2.02-2.21-5.37-.21-7.5l10.1-10.76c2.01-2.14,5.37-2.26,7.52-.25.02.02.04.04.06.06l113.17,109.28c2.11,2,3.67,9.6,1.62,11.71l-.1,4.23h-18.62Z"/>
    <rect class="st1" x="148.34" y="358.33" width="382.41" height="22.31"/>
    <rect class="st1" x="162.47" y="358.47" width="382.41" height="22.31"/>
    <g class="st8">
      <rect x="148.34" y="358.33" width="382.41" height="22.31"/>
    </g>
    <path class="st1" d="M162.65,380.78h-17.28v-34.52c0-4.08,3.3-7.38,7.38-7.38h2.57c4.07,0,7.37,3.3,7.37,7.37,0,0,0,0,0,.01l-.04,34.52Z"/>
    <path class="st3" d="M162.65,380.78v-4.47c0-2.87-.05-7-.09-12s0-11.07-.07-17.74c.13-3.54-2.35-6.64-5.83-7.29-.9-.12-1.8-.16-2.71-.12-.91-.05-1.83.01-2.73.18-1.82.41-3.41,1.53-4.41,3.1-.49.76-.83,1.6-1,2.49-.12.9-.17,1.81-.13,2.72v15.68c0,6.55,0,12.46-.05,17.47l-.26-.16,12.62.1h4.7c-.09.02-.19.02-.28,0h-.88l-3.43.05-12.73.1h-.18v-.19c0-5,0-10.92-.06-17.47v-15.68c-.04-.94,0-1.89.14-2.82.19-.95.56-1.86,1.08-2.68,1.08-1.68,2.78-2.87,4.73-3.31.94-.17,1.9-.24,2.85-.2.94-.04,1.87,0,2.8.14,3.71.7,6.36,4.01,6.22,7.79,0,6.73-.05,12.79-.07,17.89s-.07,9.13-.09,12v4.07c-.03.12-.07.24-.14.35Z"/>
    <path class="st1" d="M552.02,385.87l-21.19-20.39c-2.65-2.56-6.19-3.99-9.87-4h-56.87c-4.44,0-8.74,1.58-12.11,4.48-5.27,4.53-13.74,11.89-22.34,19.39-10.38,9-4,26.12,9.79,26.12h102.26c8.22,0,14.88-6.68,14.88-14.9,0-4.03-1.64-7.89-4.55-10.7ZM469.53,395.64c0,3.05-2.48,5.52-5.53,5.53h-21.33c-2.5,0-4.52-2.04-4.52-4.54,0-1.25.52-2.44,1.44-3.3l22.33-20.74c1.83-1.7,4.7-1.59,6.4.24.77.83,1.21,1.93,1.21,3.07v19.74ZM505.53,395.82c0,2.65-2.14,4.79-4.79,4.79h-18.22c-2.64,0-4.78-2.13-4.79-4.77v-19.7c0-2.64,2.13-4.78,4.77-4.79h18.29c2.65,0,4.79,2.14,4.79,4.79h0s-.05,19.68-.05,19.68ZM540.26,401.17h-21.28c-3.05,0-5.52-2.48-5.52-5.53v-19.76c0-2.5,2.02-4.52,4.52-4.52,1.14,0,2.24.43,3.08,1.21l22.31,20.74c1.83,1.69,1.95,4.55.25,6.39-.85.92-2.05,1.45-3.31,1.45l-.05.02Z"/>
    <path class="st0" d="M552.02,385.87l-21.19-20.39c-2.65-2.56-6.19-3.99-9.87-4h-56.87c-4.44,0-8.74,1.58-12.11,4.48-5.27,4.53-13.74,11.89-22.34,19.39-10.38,9-4,26.12,9.79,26.12h102.26c8.22,0,14.88-6.68,14.88-14.9,0-4.03-1.64-7.89-4.55-10.7ZM469.53,395.64c0,3.05-2.48,5.52-5.53,5.53h-21.33c-2.5,0-4.52-2.04-4.52-4.54,0-1.25.52-2.44,1.44-3.3l22.33-20.74c1.83-1.7,4.7-1.59,6.4.24.77.83,1.21,1.93,1.21,3.07v19.74ZM505.53,395.82c0,2.65-2.14,4.79-4.79,4.79h-18.22c-2.64,0-4.78-2.13-4.79-4.77v-19.7c0-2.64,2.13-4.78,4.77-4.79h18.29c2.65,0,4.79,2.14,4.79,4.79h0s-.05,19.68-.05,19.68ZM540.26,401.17h-21.28c-3.05,0-5.52-2.48-5.52-5.53v-19.76c0-2.5,2.02-4.52,4.52-4.52,1.14,0,2.24.43,3.08,1.21l22.31,20.74c1.83,1.69,1.95,4.55.25,6.39-.85.92-2.05,1.45-3.31,1.45l-.05.02Z"/>
    <path class="st3" d="M540.31,401.15s.37,0,1-.18c.95-.22,1.8-.76,2.41-1.53.96-1.21,1.24-2.84.72-4.3l-.28-.61-.39-.58c-.16-.17-.33-.34-.49-.52l-.56-.52-2.42-2.22-11.86-10.94-7-6.47c-.54-.59-1.2-1.06-1.94-1.38-.75-.29-1.57-.36-2.35-.19-1.64.32-2.94,1.57-3.32,3.2-.13.84-.17,1.7-.12,2.55v17.12c-.04.73,0,1.46.13,2.18.15.68.44,1.33.85,1.9.78,1.11,1.96,1.87,3.29,2.13.65.1,1.3.13,1.95.11h5.52l10.88.08,3,.05h.77c.09-.01.17-.01.26,0h-1.03l-3,.05-10.88.08h-5.52c-.67.04-1.34,0-2-.09-1.44-.28-2.72-1.1-3.58-2.29-.45-.62-.77-1.32-.94-2.06-.14-.75-.19-1.52-.15-2.29v-17.16c-.04-.89,0-1.78.13-2.66.42-1.83,1.88-3.24,3.72-3.6.88-.18,1.8-.11,2.64.22.8.34,1.52.85,2.11,1.48l7,6.5,11.79,11,2.39,2.25c.38.34.74.7,1.07,1.09l.41.62c.1.23.2.44.29.66.53,1.55.21,3.27-.84,4.52-.64.78-1.54,1.32-2.53,1.51-.36.16-.74.26-1.13.29Z"/>
    <path class="st3" d="M505.58,395.8c-.01-.09-.01-.18,0-.27v-.8c0-.75,0-1.78-.05-3.09,0-2.72-.05-6.59-.09-11.35v-3.77c.18-2.56-1.75-4.77-4.3-4.96-.28-.02-.55-.01-.83.02h-17.24c-.85-.06-1.7.09-2.48.43-1.58.75-2.59,2.34-2.6,4.09v18.22c-.03.79,0,1.58.09,2.36.3,1.46,1.3,2.69,2.67,3.29.66.27,1.36.39,2.07.37h16.46c.87.06,1.75.03,2.62-.11.71-.16,1.37-.48,1.93-.95.78-.65,1.34-1.53,1.59-2.52.17-.68.15-1.06.18-1.06.03.36,0,.73-.07,1.08-.38,1.82-1.77,3.25-3.58,3.69-.88.16-1.78.21-2.67.17h-16.46c-.77.03-1.54-.1-2.25-.39-1.53-.64-2.66-1.99-3-3.62-.11-.81-.14-1.63-.11-2.45v-18.05c0-1.95,1.14-3.72,2.9-4.56.85-.37,1.77-.54,2.7-.48h17.18c2.78-.27,5.25,1.77,5.52,4.55.03.28.03.56.01.85v3.77c0,4.76-.06,8.63-.08,11.35,0,1.31,0,2.34-.05,3.09v.8c0,.1-.02.2-.06.3Z"/>
    <path class="st3" d="M469.53,395.64c-.01-.09-.01-.17,0-.26v-.77c0-.71,0-1.7-.05-3,0-2.61,0-6.32-.08-10.88v-3.6c0-.63,0-1.28-.06-1.89-.29-2.02-1.96-3.55-4-3.66-.69-.05-1.37.08-2,.36-.64.34-1.22.78-1.72,1.31l-14.47,13.46c-2.56,2.39-5.11,4.71-7.48,7-1.62,1.72-1.54,4.42.18,6.04.55.52,1.23.88,1.97,1.05.72.12,1.46.16,2.19.12h20.09c1.55,0,3.02-.65,4.06-1.79.61-.72,1.02-1.57,1.21-2.49.13-.66.11-1,.15-1,.03.33.01.67-.05,1-.17.99-.6,1.92-1.26,2.68-1.06,1.23-2.6,1.94-4.22,1.95h-20.09c-.77.04-1.53,0-2.29-.12-2.56-.58-4.18-3.12-3.6-5.69.19-.83.6-1.6,1.18-2.22,2.41-2.31,4.93-4.6,7.5-7l14.49-13.43c.54-.56,1.17-1.03,1.86-1.38.7-.32,1.47-.46,2.24-.4,2.25.12,4.09,1.83,4.39,4.06.07.69,0,1.32.05,1.95v3.6c0,4.56-.06,8.27-.08,10.88,0,1.26,0,2.25-.05,3v.77c0,.2-.06.35-.06.35Z"/>
    <path class="st3" d="M552.02,385.87s.2.19.56.59l.68.74.43.47.4.62c1.81,2.51,2.72,5.56,2.59,8.65-.02,1.05-.15,2.1-.38,3.13-.29,1.13-.7,2.22-1.22,3.27-1.17,2.38-2.95,4.41-5.16,5.88-2.57,1.66-5.58,2.51-8.64,2.45h-10.13l-49.87.05h-41.09c-1.34.05-2.68-.06-4-.33-2.67-.53-5.13-1.8-7.11-3.67-2-1.89-3.46-4.28-4.24-6.92-.78-2.64-.83-5.45-.14-8.12.34-1.31.87-2.57,1.56-3.74.69-1.16,1.53-2.22,2.5-3.16,4-3.53,7.9-6.88,11.76-10.25l11.36-9.85c1.89-1.59,4.07-2.8,6.42-3.56,2.3-.7,4.71-1.01,7.11-.89l49.88.05h5.19c1.67-.04,3.33.21,4.91.72,1.5.49,2.9,1.22,4.16,2.17,1.13.94,2.21,1.94,3.23,3l10.4,10.06,6.55,6.37c.74.73,1.3,1.29,1.7,1.67s.56.58.56.58l-.6-.54-1.73-1.63-6.62-6.3-10.46-10c-1.02-1.03-2.09-2.01-3.22-2.93-1.23-.92-2.61-1.63-4.07-2.1-1.55-.51-3.18-.74-4.81-.69h-5.11l-49.88.06c-2.37-.12-4.74.18-7,.88-2.29.74-4.41,1.92-6.25,3.47l-11.35,9.86c-3.84,3.36-7.82,6.74-11.73,10.23-.93.91-1.74,1.94-2.42,3.05-.66,1.13-1.16,2.35-1.5,3.61-.66,2.58-.61,5.29.14,7.84.75,2.55,2.17,4.86,4.1,6.69,1.9,1.8,4.28,3.03,6.85,3.54,1.27.25,2.57.37,3.87.33h41.09l49.87.06h10.13c3,.07,5.95-.75,8.48-2.36,2.18-1.44,3.93-3.42,5.1-5.75.52-1.02.93-2.1,1.22-3.21.23-1.01.36-2.05.39-3.09.15-3.05-.71-6.07-2.46-8.58l-.39-.62-.43-.48-.65-.76c-.36-.34-.53-.56-.53-.56Z"/>
    <rect class="st1" x="395.7" y="332.43" width="10.22" height="26.04"/>
    <path class="st3" d="M405.92,358.47c-.01-.18-.01-.35,0-.53v-1.47c0-1.33,0-3.17-.07-5.45,0-4.66-.07-11.12-.12-18.59l.25.25h-10.27c.51-.52.14-.14.25-.26h0v14.39c0,4.4,0,8.34-.06,11.64l-.18-.18,7.43.1h2.05c.25-.02.49-.02.74,0-.22.01-.45.01-.67,0h-2l-7.54.1h-.18v-.18c0-3.3,0-7.24-.06-11.64v-14.21h0l.27-.26h10.41v.25c-.05,7.54-.09,14.06-.12,18.76,0,2.26-.05,4.07-.07,5.39v1.42c0,.16-.03.32-.06.47Z"/>
    <rect class="st1" x="304.48" y="332.43" width="10.22" height="26.04"/>
    <path class="st3" d="M314.69,358.47c-.01-.18-.01-.35,0-.53v-1.47c0-1.33,0-3.17-.07-5.45,0-4.66-.07-11.12-.12-18.59l.25.25h-10.27l.26-.26h0v14.39c0,4.4,0,8.34-.06,11.64l-.18-.18,7.43.1h2c.25-.02.49-.02.74,0-.22.01-.45.01-.67,0h-2l-7.54.1h-.18v-.18c0-3.3,0-7.24-.06-11.64v-14.21h0l.26-.26h10.46v.25c0,7.54-.08,14.06-.11,18.76,0,2.26-.06,4.07-.07,5.39v1.42c0,.16-.03.32-.07.47Z"/>
    <path class="st1" d="M452.07,288.88h-191.44c-14.06,0-20.52,14.9-10.33,25.65l21.72,22.59c2.78,2.68,6.49,4.18,10.35,4.17h143.85c4.66,0,9.16-1.66,12.7-4.7,5.51-4.74,15.08-14.61,23.49-23.11,9.96-10.11,5.96-24.6-10.34-24.6ZM288.66,327.71c0,2.62-2.12,4.74-4.74,4.74-1.32,0-2.57-.55-3.47-1.51l-21.74-23.41c-1.8-1.9-1.72-4.9.18-6.7.89-.84,2.07-1.31,3.29-1.3h20.7c3.19,0,5.78,2.59,5.78,5.78,0,0,0,0,0,.01v22.39ZM326.95,326.03c0,2.76-2.24,5-5,5h-19.17c-2.76,0-5-2.24-5-5v-20.62c0-2.76,2.24-5,5-5h19.15c2.76,0,5,2.24,5,5h0l.02,20.62ZM416.64,324.83c0,2.76-2.24,5-5,5h-19.17c-2.76,0-5-2.24-5-5v-20.61c0-2.76,2.24-5,5-5h19.15c2.76,0,5,2.24,5,5l.02,20.61ZM455.69,306.34l-21.74,23.4c-1.78,1.92-4.78,2.02-6.7.24-.96-.89-1.51-2.15-1.51-3.46v-22.37c0-3.19,2.59-5.78,5.78-5.78h20.7c2.62,0,4.74,2.12,4.74,4.74,0,1.2-.45,2.35-1.27,3.23h0Z"/>
    <path class="st0" d="M452.07,288.88h-191.44c-14.06,0-20.52,14.9-10.33,25.65l21.72,22.59c2.78,2.68,6.49,4.18,10.35,4.17h143.85c4.66,0,9.16-1.66,12.7-4.7,5.51-4.74,15.08-14.61,23.49-23.11,9.96-10.11,5.96-24.6-10.34-24.6ZM288.66,327.71c0,2.62-2.12,4.74-4.74,4.74-1.32,0-2.57-.55-3.47-1.51l-21.74-23.41c-1.8-1.9-1.72-4.9.18-6.7.89-.84,2.07-1.31,3.29-1.3h20.7c3.19,0,5.78,2.59,5.78,5.78,0,0,0,0,0,.01v22.39ZM326.95,326.03c0,2.76-2.24,5-5,5h-19.17c-2.76,0-5-2.24-5-5v-20.62c0-2.76,2.24-5,5-5h19.15c2.76,0,5,2.24,5,5h0l.02,20.62ZM416.64,324.83c0,2.76-2.24,5-5,5h-19.17c-2.76,0-5-2.24-5-5v-20.61c0-2.76,2.24-5,5-5h19.15c2.76,0,5,2.24,5,5l.02,20.61ZM455.69,306.34l-21.74,23.4c-1.78,1.92-4.78,2.02-6.7.24-.96-.89-1.51-2.15-1.51-3.46v-22.37c0-3.19,2.59-5.78,5.78-5.78h20.7c2.62,0,4.74,2.12,4.74,4.74,0,1.2-.45,2.35-1.27,3.23h0Z"/>
    <path class="st3" d="M455.69,306.34s.25-.29.59-.9c1.25-2.25.44-5.09-1.81-6.34-.15-.08-.3-.16-.45-.22-.95-.33-1.95-.45-2.95-.35h-18c-.77-.02-1.55,0-2.32.07-1.57.22-2.96,1.1-3.84,2.42-.45.67-.74,1.44-.85,2.24-.07.84-.1,1.69-.07,2.53v18.84c0,.87,0,1.78.06,2.58.36,2.44,2.63,4.12,5.06,3.76.83-.12,1.62-.48,2.26-1.03,4.37-4.55,8.27-8.82,11.57-12.31l7.82-8.3,2.15-2.24.56-.57c.13-.13.2-.19.21-.18-.05.08-.1.15-.17.22l-.53.6-2.07,2.31-7.7,8.41c-3.28,3.54-7.1,7.78-11.52,12.43-.65.55-1.43.94-2.26,1.11-2.74.51-5.38-1.3-5.89-4.04,0,0,0-.01,0-.02-.07-.88-.1-1.77-.07-2.66v-18.84c-.03-.87,0-1.74.08-2.6.13-.87.44-1.7.93-2.44.96-1.43,2.48-2.39,4.19-2.63.79-.06,1.59-.08,2.39-.06h18c1.04-.09,2.09.05,3.07.41,1.57.7,2.66,2.16,2.88,3.86.13,1.04-.1,2.1-.65,3-.13.24-.3.46-.49.65-.05.1-.11.2-.18.29Z"/>
    <path class="st3" d="M416.64,324.83c-.01-.09-.01-.19,0-.28v-.85c0-.77,0-1.86-.05-3.23,0-2.85-.05-6.91-.08-11.9v-3.95c.09-1.39-.41-2.75-1.38-3.75-1.05-1.05-2.52-1.58-4-1.44h-18.01c-.89-.07-1.78.09-2.59.45-1.67.79-2.73,2.47-2.74,4.31v19.09c-.03.82,0,1.65.09,2.47.32,1.54,1.37,2.83,2.81,3.46.69.28,1.43.42,2.18.39h17.25c.91.07,1.83.03,2.74-.11.73-.17,1.42-.52,2-1,.83-.68,1.41-1.61,1.67-2.65.17-.71.15-1.11.18-1.11.03.38,0,.76-.08,1.13-.4,1.9-1.86,3.4-3.74,3.87-.92.16-1.86.21-2.8.17h-17.32c-.81.09-1.63,0-2.4-.26-1.58-.68-2.74-2.09-3.1-3.78-.1-.85-.14-1.71-.11-2.57v-19.07c0-2.04,1.16-3.89,3-4.77.88-.4,1.85-.57,2.81-.51h18c1.61-.13,3.18.46,4.32,1.6,1.03,1.09,1.57,2.55,1.47,4.05v3.95c0,5-.06,9.05-.08,11.9,0,1.37,0,2.46-.05,3.23v.85c.02.1.02.21,0,.31Z"/>
    <path class="st3" d="M326.95,326.03c-.01-.1-.01-.19,0-.29v-.84c0-.78,0-1.86-.05-3.24,0-2.85,0-6.9-.08-11.9v-3.94c.09-1.39-.41-2.75-1.38-3.75-1.05-1.05-2.52-1.59-4-1.45h-18.07c-.89-.06-1.78.1-2.59.46-1.67.78-2.73,2.46-2.74,4.3v19.1c-.03.82,0,1.64.09,2.46.32,1.54,1.36,2.84,2.81,3.46.69.28,1.43.42,2.18.39h17.25c.91.06,1.83.02,2.74-.12.74-.17,1.42-.51,2-1,.83-.68,1.41-1.61,1.67-2.65.17-.71.15-1.11.18-1.1.03.38,0,.76-.08,1.13-.39,1.9-1.85,3.41-3.74,3.86-.92.17-1.86.22-2.8.17h-17.25c-.81.03-1.61-.12-2.36-.42-1.59-.68-2.75-2.09-3.1-3.78-.1-.85-.14-1.71-.11-2.56v-18.91c0-2.03,1.17-3.89,3-4.77.88-.4,1.85-.57,2.81-.5h18.04c1.61-.13,3.19.45,4.32,1.6,1.04,1.08,1.57,2.55,1.47,4.05v3.94c0,5-.06,9.05-.08,11.9,0,1.38,0,2.46-.05,3.24v.84c-.01.11-.04.22-.08.32Z"/>
    <path class="st3" d="M288.66,327.71c0-.09,0-.18,0-.27v-.81c0-.75,0-1.79-.05-3.1,0-2.74-.05-6.62-.08-11.41v-5.78c.02-.67-.02-1.34-.12-2-.27-1.4-1.07-2.63-2.23-3.46-.6-.43-1.28-.73-2-.89-.75-.14-1.52-.19-2.29-.14h-18c-.89-.04-1.79,0-2.67.12-1.71.4-3.03,1.76-3.38,3.49-.17.83-.1,1.68.2,2.47.34.77.83,1.47,1.45,2.05l6.79,7.33,11.47,12.43,2.33,2.53.54.59.55.52c.2.14.41.27.6.41l.65.29c1.53.54,3.24.25,4.51-.76.8-.64,1.36-1.52,1.6-2.52.17-.68.15-1.06.18-1.06.01.09.01.19,0,.28,0,.27-.03.54-.08.8-.2,1.04-.77,1.99-1.59,2.66-1.32,1.1-3.11,1.43-4.73.88l-.69-.31-.65-.43-.6-.54-.55-.58-2.35-2.51-11.59-12.35-6.81-7.31c-.66-.62-1.2-1.37-1.56-2.2-.34-.88-.41-1.84-.22-2.76.38-1.92,1.86-3.45,3.77-3.89.92-.14,1.85-.19,2.78-.14h18c.8-.04,1.61.01,2.4.16,2.32.53,4.11,2.39,4.55,4.73.1.7.14,1.41.1,2.12v5.78c0,4.79-.07,8.67-.08,11.41,0,1.31,0,2.35-.05,3.1v.81c-.02.09-.05.18-.1.26Z"/>
    <path class="st3" d="M452.07,288.88l1.28.05,1.58.08,2.16.37c.43.07.86.18,1.27.33l1.4.45c.5.2.99.43,1.46.68l.77.38c.24.16.48.34.73.52,2.36,1.57,4.06,3.94,4.79,6.68.43,1.63.53,3.33.32,5-.27,1.83-.85,3.6-1.72,5.23-.93,1.78-2.11,3.42-3.51,4.86l-4.53,4.61c-3.13,3.19-6.48,6.59-10.08,10.16-1.8,1.79-3.66,3.61-5.61,5.44-1,.91-2,1.84-3,2.74-1.04.94-2.18,1.76-3.4,2.46-2.53,1.45-5.35,2.31-8.26,2.53-1.49.11-3,.05-4.48.07h-140.37c-1.07.02-2.13-.06-3.18-.24-2.12-.37-4.14-1.2-5.91-2.42-.89-.61-1.71-1.31-2.45-2.1l-2.21-2.3-4.44-4.63-8.87-9.19-4.39-4.57c-.73-.76-1.47-1.51-2.13-2.34-.33-.42-.69-.81-1-1.24l-.85-1.34-.42-.68-.33-.72-.65-1.45-.44-1.52-.22-.76-.1-.78c-.35-2.08-.21-4.22.39-6.24,1.2-4.04,4.13-7.33,8-9,.95-.39,1.93-.7,2.93-.91.5-.1,1-.22,1.5-.3l1.52-.11c1-.09,2-.05,3-.06h37.61l79,.06,53.26.08,14.48.05h5.05-19.53l-53.26.09-79,.05h-37.56c-1,0-2,0-3,.06l-1.48.1c-.49.08-1,.2-1.46.29-.97.21-1.92.5-2.83.89-3.74,1.59-6.58,4.77-7.75,8.66-.58,1.95-.71,4-.37,6l.1.76.21.73.43,1.47.63,1.41.32.7.41.65.82,1.31c.3.42.66.8,1,1.2.66.81,1.37,1.58,2.11,2.32,1.45,1.52,2.92,3,4.38,4.56l8.87,9.22,4.44,4.63c1.38,1.59,2.92,3.04,4.58,4.34,1.72,1.18,3.66,1.97,5.71,2.34,1.02.18,2.05.25,3.09.23h140.39c1.51,0,3,.05,4.45-.05,2.85-.21,5.62-1.06,8.11-2.47,2.3-1.47,4.43-3.19,6.35-5.13,2-1.83,3.82-3.65,5.62-5.42,3.6-3.56,7-7,10.1-10.13l4.54-4.6c1.39-1.42,2.56-3.03,3.49-4.79.86-1.6,1.44-3.34,1.72-5.14.21-1.63.11-3.29-.3-4.89-.71-2.7-2.37-5.05-4.68-6.61l-.72-.51-.76-.38c-.47-.25-.95-.48-1.44-.69l-1.38-.46c-.41-.16-.83-.27-1.26-.34l-2.15-.4-1.57-.1c-.89.22-1.32.17-1.32.17Z"/>
    <path class="st5" d="M419.62,294.19c0,.14-34.8.26-77.72.26s-77.73-.12-77.73-.26,34.79-.26,77.73-.26,77.72.11,77.72.26Z"/>
    <path class="st9" d="M323.14,274.22l4.86-.63c.8.18,20.67,5.83,20.67,5.83l6.78,7.92c-.41.83-1.34,1.27-2.25,1.06-1.19-.17-2.26-.79-3-1.73l-3.35-3.29-5.43-1.82,5.85,4.13,5.1,6.15s-.16,1.39-1.27,1.66-2.26-1.15-2.26-1.15c0,0-.25,1.78-1.44,1.93s-7.09-3.09-7.09-3.09c0,0-4.12-3.15-4-2.91s3.29,3.33,3.29,3.33c0,0,4.79,2.73,4.59,3.63-.1.57-.44,1.07-.94,1.37-.25.15-6.22-3-7.28-3.4s-10.3-6.15-10.3-6.15l-4.2-4.09,1.67-8.75Z"/>
    <path class="st13" d="M338.37,285.23c.47.42,1.01.75,1.59,1,1.34.7,2.64,1.47,3.9,2.31,1.4,1.05,2.56,2.2,3.49,2.92.47.43,1.01.77,1.6,1-.42-.47-.88-.91-1.37-1.31-1.08-1.08-2.23-2.1-3.42-3.06-1.27-.86-2.6-1.6-4-2.22-.57-.27-1.17-.49-1.79-.64Z"/>
    <path class="st3" d="M221.31,258.15h-.23l-.69.05c-.61,0-1.5.14-2.66.08-3.27-.05-6.52-.52-9.67-1.39-4.67-1.31-9.13-3.29-13.23-5.89-5.02-3.16-9.55-7.03-13.46-11.49-3.9-4.47-7.33-9.33-10.25-14.49-2.4-4.2-4.54-8.54-6.42-13-1.6-3.8-2.73-6.94-3.46-9.13-.37-1.09-.62-2-.8-2.53l-.19-.67c-.01-.08-.01-.15,0-.23.04.07.08.14.1.22l.24.64c.22.61.52,1.45.89,2.5.79,2.16,2,5.28,3.61,9.05,1.91,4.42,4.08,8.73,6.5,12.9,2.92,5.12,6.35,9.94,10.22,14.39,3.86,4.43,8.33,8.3,13.28,11.48,4.05,2.59,8.46,4.59,13.07,5.94,3.12.9,6.34,1.41,9.58,1.53,1.15.1,2,0,2.65,0h.69l.23.04Z"/>
  </g>
  <g id="freepik--character-3--inject-2">
    <path class="st11" d="M555.93,446.3l.16,23.81-44.12.17c.32-4.83,22.27-14.72,22.27-14.72l-.59-9.11,22.28-.15Z"/>
    <path class="st5" d="M548.05,453.32c.95.35,1.5,1.33,1.32,2.32-.24,1-1.24,1.63-2.25,1.42-1.04-.36-1.65-1.43-1.43-2.51.37-1.01,1.48-1.55,2.5-1.21"/>
    <path class="st3" d="M556.09,470.11v-3.8l-41.89.93s-2.43,1.46-2.2,3l44.09-.13Z"/>
    <path class="st3" d="M529.55,457.87c-.06.24,1,.67,1.77,1.72s1,2.16,1.26,2.15.4-1.4-.62-2.69-2.4-1.41-2.41-1.18Z"/>
    <path class="st3" d="M526.27,464.42c.22.06.56-1.18,0-2.53s-1.71-1.91-1.81-1.7.58.93,1.06,2.05.52,2.16.75,2.18Z"/>
    <path class="st3" d="M533.8,449.24c.1.22,1.19-.11,2.54,0s2.39.56,2.51.35-.87-1.1-2.46-1.2-2.71.65-2.59.85Z"/>
    <path class="st3" d="M532.74,457.07c-.03-.49.05-.98.24-1.44.42-1.28,1.16-2.42,2.14-3.34.68-.63,1.47-1.12,2.33-1.47.54-.26,1.18-.21,1.68.12.49.44.71,1.11.56,1.75-.77,2.45-2.94,4.18-5.49,4.4-2.51.17-4.88-1.19-6-3.44-.27-.51-.45-1.06-.51-1.63-.02-.33.05-.65.22-.93.18-.28.48-.47.81-.51.53-.02,1.05.16,1.45.5.35.27.69.57,1,.89.9.96,1.6,2.08,2.08,3.3.21.44.33.91.35,1.4-.65-1.6-1.59-3.07-2.78-4.33-.55-.52-1.26-1.23-2-1.17-.32.05-.52.36-.48.8.07.48.22.94.46,1.36,1.04,1.97,3.14,3.14,5.36,3,2.24-.19,4.16-1.68,4.91-3.79.11-.41-.02-.84-.32-1.14-.34-.21-.76-.23-1.11-.05-.8.29-1.54.73-2.19,1.29-.95.82-1.71,1.85-2.21,3-.35.93-.44,1.44-.5,1.43Z"/>
    <path class="st3" d="M573.14,289.64l-1.65-7.76-46.12,1.25,6.84,84.74,4.24,81.68,24.7.86c1.26-15.76,4.63-78.13,4.63-78.13h0l4.24-32.95c.48-2.08,2.22-12.47,4-20.8,1.04-4.78,1.19-14.65-.88-28.89Z"/>
    <path class="st11" d="M556.1,440.51l6,23.05-42.73,11c-.87-4.76,18-19.73,18-19.73l-2.81-8.69,21.54-5.63Z"/>
    <path class="st5" d="M552.1,449.24c1.05.09,1.86.95,1.9,2,0,1.03-.81,1.88-1.84,1.92-1.1-.1-1.95-.99-2-2.09.09-1,1.18-2,2.13-1.78"/>
    <path class="st3" d="M562.09,463.56l-1-3.69-40.35,11.17s-2,2-1.38,3.49l42.73-10.97Z"/>
    <path class="st3" d="M533.37,458.19c0,.25,1.11.41,2.14,1.24s1.52,1.84,1.75,1.77,0-1.46-1.26-2.46-2.69-.78-2.63-.55Z"/>
    <path class="st3" d="M531.79,465.34c.22,0,.25-1.27-.67-2.44s-2.12-1.43-2.17-1.21.79.77,1.53,1.74,1.07,1.95,1.31,1.91Z"/>
    <path class="st3" d="M535.37,448.78c.15.19,1.13-.4,2.46-.62s2.46,0,2.53-.29-1.12-.85-2.68-.56-2.48,1.33-2.31,1.47Z"/>
    <path class="st3" d="M536.25,456.64c-.14-.47-.17-.96-.11-1.45.09-1.34.52-2.64,1.26-3.76.5-.78,1.15-1.46,1.9-2,.46-.39,1.09-.5,1.65-.3.59.31.97.9,1,1.56-.15,2.56-1.83,4.78-4.26,5.61-2.38.78-5,.04-6.63-1.86-.39-.42-.69-.92-.89-1.46-.11-.32-.11-.68,0-1,.11-.31.35-.57.66-.69.51-.15,1.06-.11,1.53.13.4.18.78.39,1.14.63,1.11.7,2.07,1.62,2.83,2.69.31.38.54.81.69,1.27-1.03-1.4-2.31-2.59-3.77-3.52-.65-.36-1.52-.89-2.21-.64-.3.12-.42.47-.27.89.18.45.45.86.78,1.21,1.48,1.67,3.81,2.31,5.94,1.62,2.12-.73,3.62-2.63,3.83-4.87,0-.41-.23-.79-.58-1-.38-.12-.79-.03-1.09.23-.7.48-1.32,1.08-1.81,1.78-.72,1.05-1.2,2.24-1.39,3.5-.17.9-.14,1.43-.2,1.43Z"/>
    <path class="st3" d="M524.64,287.03s-20.82,80.6-21.39,88.2,28.24,74.92,28.24,74.92l26.88-6.06-21.66-72.58s11.29-24.42,11-25.14c-.67-1.9,5.23-49.5,5.23-49.5l-28.3-9.84Z"/>
    <path class="st11" d="M503.68,377.07s.05.12.14.37.22.62.38,1.09l1.44,4.23c1.25,3.69,3.1,9,5.5,15.64,4.77,13.24,11.88,31.52,20.64,51.9l-.29-.15,11.72-2.86,14.82-3.65-.18.31c-6-20.53-11.18-38.61-14.93-51.57-1.85-6.46-3.34-11.65-4.36-15.24l-1.19-4.08-.28-1.07c-.04-.12-.07-.24-.09-.37.05.12.1.24.13.36l.33,1.05c.29,1,.7,2.33,1.24,4.09l4.5,15.2c3.8,12.95,9.09,31,15.1,51.52l.07.25-.25.07-14.75,3.62-11.76,2.86-.21.05-.08-.2c-8.75-20.38-15.8-38.71-20.5-52-2.35-6.63-4.15-12-5.35-15.69-.58-1.84-1-3.27-1.36-4.26l-.33-1.11c-.05-.12-.08-.24-.1-.36Z"/>
    <path class="st3" d="M513.37,166.2c.12-2.47-.81-4.85-1.58-7.2s-1.43-4.89-.77-7.27c.83-3,3.53-5.08,5-7.83s1.56-6,1.81-9.13.79-6.41,2.85-8.75c2.61-3,9.45-3.51,12.67-1.22.5,17.7,4.69,35.63.91,52.93-8.7.34-17.31-1.74-24.9-6,2.4-.44,3.9-3.09,4.01-5.53Z"/>
    <path class="st2" d="M551.1,183.32l2.44-48.88c.1-1.97-1.33-3.68-3.28-3.94l-19.95-5.65c-6.42-.86-10.92,6.94-11.51,13.39-.66,7.16-1.18,15.94-.48,21.31,1.4,10.82,9.62,12.43,9.62,12.43,0,10.65-.23,11.44-.23,11.44l4.07,8.38,19.32-8.48Z"/>
    <path class="st3" d="M521.2,147.18c-.03.75.54,1.39,1.29,1.43.72.08,1.38-.44,1.46-1.17,0-.01,0-.02,0-.03.02-.75-.54-1.38-1.29-1.44-.72-.08-1.38.44-1.46,1.17,0,.01,0,.03,0,.04Z"/>
    <path class="st3" d="M520.57,142.86c.17.19,1.24-.56,2.72-.51s2.56.82,2.72.64-.08-.41-.55-.77c-.63-.46-1.39-.72-2.17-.74-.77-.02-1.53.2-2.17.64-.47.34-.63.66-.55.74Z"/>
    <path class="st3" d="M533.8,147.64c-.03.75.54,1.39,1.29,1.43.73.07,1.38-.46,1.46-1.19,0,0,0-.01,0-.02.03-.75-.54-1.39-1.29-1.43-.73-.07-1.38.46-1.46,1.19,0,0,0,.01,0,.02Z"/>
    <path class="st3" d="M535.17,143.55c.17.19,1.24-.56,2.72-.51s2.55.82,2.72.64-.08-.41-.55-.77c-.63-.46-1.39-.71-2.17-.73-.77-.03-1.53.2-2.17.63-.47.34-.63.66-.55.74Z"/>
    <path class="st3" d="M529.46,154.42c-.78-.26-1.58-.43-2.4-.5-.38-.05-.73-.14-.79-.4-.02-.39.08-.78.29-1.12l1.2-2.86c1.68-4.07,2.9-7.42,2.74-7.48s-1.66,3.18-3.34,7.25c-.4,1-.79,2-1.15,2.87-.26.45-.34.98-.24,1.49.1.28.33.49.61.57.21.06.42.1.64.11.81.12,1.63.15,2.44.07Z"/>
    <path class="st4" d="M527.94,171.98c5.07.22,10.1-.97,14.53-3.44.64-1.49-2.89,5.37-14.59,6.26l.06-2.82Z"/>
    <path class="st4" d="M529.58,157.96c.71-.98,1.85-1.55,3.06-1.51.79.03,1.51.45,1.92,1.12.62,1.03.29,2.37-.74,2.99-.54.33-1.2.4-1.8.21-.82-.29-1.56-.78-2.15-1.42-.19-.16-.34-.35-.45-.57-.11-.25-.08-.53.08-.75"/>
    <path class="st3" d="M533.81,155.57c-.24,0-.29,1.59-1.71,2.7s-3.12.88-3.14,1.1.37.33,1.1.37c.94.04,1.87-.26,2.62-.83.72-.56,1.19-1.37,1.33-2.27.08-.67-.09-1.07-.2-1.07Z"/>
    <path class="st1" d="M534.69,137.42c.13.4,1.62.25,3.36.51s3.13.78,3.37.42c.11-.17-.12-.55-.68-1-.74-.51-1.59-.84-2.48-.95-.89-.13-1.8-.05-2.65.23-.65.28-.98.59-.92.79Z"/>
    <path class="st3" d="M521.24,137.76c.25.35,1.28,0,2.52,0s2.26.29,2.51,0c.11-.17,0-.51-.49-.85-1.22-.83-2.83-.83-4.05,0-.45.34-.6.73-.49.85Z"/>
    <path class="st3" d="M527.93,124.78c1.85-4.42,5.85-5.36,10.14-5.82s10.65,1.32,14.19,3.64c2.95,1.79,5.61,4.04,7.86,6.66,1.9,2.45,2.75,5.26,3.93,8.08,1.83,4.41,1.72,9.28,2,14,.33,5.95,1.28,11.85,2.84,17.6.56,2.06,1.13,4.53-1.79,5.72-.55.21-1.12.35-1.7.41-4.54.55-8.93,2-14,2.34h-3.12c-3.94,0-6-2.54-5.82-5.76.4-9.73,5.15-25.7,5.67-28.77.01,0,1.65-20.98-20.2-18.1Z"/>
    <path class="st3" d="M529.37,124.64c1.33,1.11,2.15,2.72,2.26,4.45.23,1.7.14,3.43.45,5.11.68,3.42,2.98,6.29,6.16,7.71,1,.44,2.38.61,3-.29-.08,2.44,1.35,4.69,3.6,5.64,1.59.64,3.38.54,5.06.91s3.44,1.53,3.53,3.25l.7-12-3.36-10.57-10.33-6.15-11.07,1.94Z"/>
    <path class="st5" d="M547.67,144.38c-.36-.24-.69-.5-1-.8-.77-.86-1.33-1.88-1.63-3-.41-1.67-.66-3.37-.72-5.09-.08-2.12-.32-4.22-.73-6.3-.42-2.1-1.39-4.05-2.81-5.65-.64-.68-1.41-1.23-2.26-1.62-.74-.33-1.54-.52-2.35-.58-1.18-.09-2.36.19-3.37.8-.16.1-.31.21-.45.33-.11.08-.21.17-.29.27-.08.08-.16.16-.23.25.31-.29.65-.55,1-.78,1.01-.57,2.17-.83,3.32-.72,1.72.13,3.32.91,4.48,2.18,1.39,1.58,2.34,3.5,2.75,5.57.41,2.06.65,4.16.74,6.26.08,1.73.33,3.45.77,5.12.31,1.13.9,2.16,1.72,3,.3.32.66.57,1.06.76Z"/>
    <path class="st11" d="M556.65,142.94c-.54-.06-1.07-.19-1.58-.39-1.34-.65-2.48-1.65-3.3-2.9-.59-.84-1.1-1.73-1.52-2.67-.44-1.09-.73-2.24-.84-3.41-.15-1.23-.2-2.55-.34-3.9-.07-.69-.18-1.38-.33-2.06-.17-.69-.4-1.36-.69-2-1.16-2.51-3.22-4.5-5.77-5.56-2.09-.85-4.39-1.01-6.57-.44-1.45.36-2.82,1.02-4,1.94-.44.33-.84.71-1.2,1.13l.08-.07.24-.22c.1-.09.22-.21.38-.34s.33-.28.55-.43c1.19-.89,2.55-1.53,4-1.87,2.15-.53,4.41-.37,6.46.47,2.48,1.05,4.5,2.98,5.65,5.42.29.64.51,1.31.67,2,.14.66.25,1.33.33,2,.14,1.35.2,2.66.35,3.9.12,1.19.42,2.36.88,3.46.43.94.95,1.84,1.55,2.68.84,1.26,2.01,2.26,3.39,2.89.38.15.78.25,1.18.3h.32l.11.07Z"/>
    <path class="st11" d="M541.23,141.64v.4c0,.13,0,.3.06.49l.14.65c.15.6.38,1.17.68,1.71.41.71.97,1.34,1.63,1.83,1.83,1.2,4.02,1.74,6.2,1.53,1.3-.05,2.59-.25,3.84-.59,1.37-.34,2.69-.88,3.92-1.58l.25-.14h-.28c-1.56-.23-3.08-.7-4.5-1.4h-.08l-.06.2c3.2.52,6.49-.07,9.31-1.67l.19-.11-.21-.06c-1.99-.6-3.86-1.55-5.52-2.8-2.22-1.62-3.49-4.25-3.36-7,0-.35,0-.64.07-.84v-.29s0,.05,0,.07v.22c0,.2-.06.48-.1.84-.05,1.07.09,2.14.43,3.16.58,1.55,1.58,2.91,2.89,3.92,1.67,1.27,3.55,2.24,5.56,2.86v-.18c-2.79,1.57-6.03,2.15-9.19,1.64l-.69-.12.63.31h.08c1.44.7,2.98,1.18,4.56,1.41v-.19c-1.21.69-2.51,1.21-3.86,1.56-1.24.34-2.52.54-3.8.61-2.15.21-4.3-.3-6.12-1.46-.66-.48-1.21-1.08-1.62-1.78-.31-.53-.54-1.09-.71-1.68,0-.24-.1-.46-.15-.64s-.05-.35-.07-.48l-.05-.3-.07-.1Z"/>
    <path class="st11" d="M563.37,171.08c.06,0-.59-5.76-1.46-12.85s-1.6-12.84-1.66-12.84.6,5.76,1.46,12.86,1.57,12.84,1.66,12.83Z"/>
    <path class="st2" d="M457.61,299.13c-.8.76-1.71,1.38-2.71,1.84-.93.24-1.92-.04-2.58-.74l1.76-1.93c-.57.67-1.34,1.12-2.2,1.28-.81.28-1.69-.16-1.97-.96-.01-.03-.02-.07-.03-.11,0,0,3.2-3.3,4.33-4.65.24-.15,6.62-6.94,7.26-7.18l11.11-4.19,8.53-11.05,13.32,6.2s-11.43,11.34-13.06,13.4-10,5.77-10,5.77l-4.79,1.25-4.72,3.78c-.93.61-2.36,1.05-3.11-.15h0c-1.63,1.15-3.25-.46-3.25-.46l2.11-2.1Z"/>
    <path class="st12" d="M459.91,296.8c-1.68,1.25-3.15,2.74-4.38,4.43,1.68-1.25,3.15-2.74,4.38-4.43Z"/>
    <path class="st4" d="M461.46,290.4c-1.23,1.59-2.57,3.1-4,4.52-1.3,1.54-2.7,2.98-4.19,4.33,1.1-1.69,2.38-3.26,3.81-4.68,1.31-1.54,2.77-2.94,4.38-4.17Z"/>
    <path class="st4" d="M465.2,292.89c-1.24,1.35-2.6,2.59-4.06,3.69-1.36,1.23-2.83,2.34-4.39,3.29,2.59-2.6,5.42-4.94,8.45-7v.02Z"/>
    <path class="st1" d="M568.37,193.29c3.09,2.8,5.16,6.54,5.87,10.65,2.13,12.27,6.56,38.27,6.31,41.08-.34,3.69-2.19,9.57-6.38,10.58-2.65.6-5.41.6-8.06,0l-2.93-67,5.19,4.69Z"/>
    <path class="st1" d="M568.59,261.48l-.05-65.76s-.95-2.69-4.81-6.63c-1.77-1.81-10.16-7.66-10.16-7.66l-.71-4.34c-3.22-2.18-7.02-3.36-10.91-3.39-11.07.15-17.78,5.1-17.78,5.1l-1.09,4.29-5.41,1.55-8.78,35.94-3.09,48.89-9.1,99.73,80.91-1.85-2.39-65.32c-.24-6.52-1.01-13-2.31-19.39l-4.32-21.16Z"/>
    <path class="st3" d="M523.08,183.09l.3-.07.87-.23c.75-.19,1.85-.45,3.22-.71,3.56-.66,7.16-1.1,10.78-1.33,3.62-.26,7.24-.26,10.86,0,1.39.12,2.5.3,3.27.43l.88.18c.1.02.21.02.31,0l-.3-.09-.87-.22c-1.08-.23-2.17-.41-3.27-.52-3.62-.33-7.26-.36-10.89-.11-3.63.23-7.24.7-10.81,1.41-1.37.29-2.46.58-3.21.8l-.85.27c-.2.14-.3.18-.29.19Z"/>
    <g class="st8">
      <path d="M553.37,181.38c-9.15,1.62-18.42,0-28.1,1.16,9.35-1.93,19.08-2.85,28.1-1.16"/>
    </g>
    <path class="st3" d="M568.54,198.71c.13,0,.19,13.78.12,30.78s-.23,30.79-.37,30.79-.2-13.78-.13-30.79.21-30.78.38-30.78Z"/>
    <path class="st3" d="M513.37,369.18c-.01-.13-.01-.25,0-.38v-1.13c0-1,.07-2.47.13-4.32.14-3.78.34-9.2.59-15.88.54-13.44,1.3-31.95,2.13-52.4s1.69-39,2.27-52.39c.32-6.68.57-12.1.75-15.88.1-1.85.18-3.3.23-4.31,0-.48.06-.85.07-1.12-.02-.13-.02-.26,0-.39,0,.13,0,.26,0,.39v1.12c0,1-.07,2.47-.13,4.32-.14,3.78-.34,9.2-.59,15.88-.55,13.44-1.3,31.95-2.13,52.41s-1.69,39-2.28,52.39c-.31,6.68-.57,12.1-.74,15.87-.1,1.85-.18,3.3-.23,4.32,0,.47-.06.84-.07,1.12.01.13.01.25,0,.38Z"/>
    <path class="st3" d="M568.29,260.28c-.41.14-.84.24-1.27.31-.81.17-2,.37-3.49.59-3.86.55-7.75.83-11.65.84-3.9,0-7.79-.28-11.65-.84-1.48-.21-2.67-.42-3.49-.6-.43-.05-.85-.16-1.26-.31.43,0,.86.04,1.29.12.83.12,2,.27,3.51.44,3.85.44,7.72.67,11.6.68,3.88-.02,7.76-.25,11.61-.69l3.5-.43c.43-.08.86-.12,1.3-.11Z"/>
    <path class="st3" d="M553.57,181.43l.22.1.62.32c.54.29,1.32.74,2.3,1.38,2.75,1.83,5.37,3.83,7.86,6,1.73,1.48,3.37,3.06,4.92,4.73.88.93,1.66,1.95,2.32,3.05.32.59.59,1.21.82,1.84.2.64.43,1.29.62,1.95,1.52,5.31,2.71,11.25,3.87,17.5s2.06,12.23,2.76,17.7c.34,2.73.64,5.33.84,7.77.28,2.29.02,4.62-.76,6.79-.73,1.78-2.06,3.26-3.75,4.18-1.27.67-2.64,1.1-4.06,1.29-.89.14-1.78.19-2.68.14-.31,0-.54,0-.7-.05h-.23.93c.89,0,1.77-.08,2.65-.23,1.39-.22,2.72-.67,3.95-1.35,1.62-.91,2.87-2.35,3.56-4.07.74-2.12.97-4.38.68-6.61-.22-2.43-.54-5-.89-7.75-.72-5.45-1.68-11.43-2.8-17.67s-2.33-12.18-3.81-17.46c-.19-.65-.41-1.29-.61-1.93-.22-.61-.48-1.21-.78-1.78-.64-1.07-1.39-2.08-2.24-3-1.52-1.68-3.14-3.26-4.85-4.74-2.46-2.17-5.04-4.2-7.73-6.07-1-.67-1.72-1.14-2.24-1.46l-.6-.37c-.13-.14-.2-.19-.19-.2Z"/>
    <path class="st3" d="M568.59,261.48s0,.17.13.5.19.83.33,1.47c.28,1.32.7,3.24,1.24,5.73s1.2,5.58,2,9.18,1.77,7.71,2.43,12.39c.33,2.33.58,4.81.73,7.4s.19,5.3.3,8.11c.2,5.63.41,11.7.64,18.15.45,12.9.95,27.34,1.49,42.91v.24h-.24l-57.56,1.33-23.35.53h-.28v-.28c3.48-39.69,6.55-74.74,8.75-99.88,1.12-12.55,2-22.63,2.64-29.59.32-3.46.57-6.14.74-8,.09-.9.15-1.59.2-2.06s.09-.7.09-.7v.7c0,.46-.09,1.17-.16,2.07-.15,1.83-.37,4.52-.65,8-.58,7-1.43,17-2.49,29.6l-8.58,99.89-.26-.27,23.36-.54,57.56-1.3-.23.25c-.52-15.57-1-30-1.42-42.92-.21-6.45-.4-12.5-.59-18.15-.1-2.81-.19-5.51-.27-8.1-.14-2.59-.38-5-.7-7.38-.63-4.66-1.65-8.77-2.36-12.38s-1.38-6.69-1.9-9.2-.9-4.43-1.17-5.74c-.13-.65-.22-1.14-.29-1.48l-.13-.48Z"/>
    <path class="st1" d="M513.37,279.43h-12.5s-5.8,35.93.49,38.27c3.32,1.51,7.24.13,8.89-3.12l3.12-35.15Z"/>
    <path class="st3" d="M513.37,279.43c.01.22.01.43,0,.65,0,.47-.08,1.12-.14,1.93-.14,1.74-.33,4.21-.58,7.29-.53,6.31-1.27,15.12-2.13,25.3v.04c-.53.98-1.26,1.84-2.14,2.52-.92.7-2.01,1.14-3.16,1.28-1.17.13-2.35,0-3.46-.4-.3-.08-.59-.19-.85-.35-.27-.17-.5-.39-.7-.64-.37-.49-.66-1.03-.86-1.61-.57-1.72-.9-3.5-1-5.31-.13-1.76-.16-3.49-.14-5.19,0-3.4.26-6.65.53-9.71.54-6.13,1.28-11.53,2-15.87v-.14h.15l9.24.1h3.06c.14,0,.21,0,.2,0h-3.37l-9.13.1.16-.14c-.64,4.33-1.34,9.73-1.86,15.85-.25,3.06-.45,6.3-.49,9.67,0,1.69,0,3.41.15,5.15.09,1.76.41,3.5.94,5.18.4,1.06,1,2.08,2.1,2.29,1.04.37,2.15.5,3.24.38,2.11-.3,3.94-1.6,4.92-3.5v.08c.94-10.11,1.76-18.85,2.35-25.11.3-3.1.54-5.58.72-7.34.08-.83.15-1.49.2-2s.05-.49.05-.5Z"/>
    <path class="st1" d="M508.42,194.36l-11.15,44.92-27.57,41.29,17.67,13.24,29.14-38.32c-.05,4.28,11.4-44.71,11.4-44.71l11.19-22.14c-8.22-4.77-17.69-7.27-25.65-1.71-2.51,1.79-4.3,4.43-5.03,7.43Z"/>
    <path class="st3" d="M511.82,189.17c.04-.11.1-.2.18-.29.2-.27.41-.52.65-.75.89-.84,1.97-1.47,3.14-1.82,1.75-.54,3.62-.57,5.39-.07,2.15.66,4.04,1.98,5.4,3.77,1.36,1.76,2.29,3.81,2.7,6,.32,1.78.38,3.59.16,5.38-.13,1.2-.36,2.39-.7,3.55-.09.43-.24.85-.44,1.25-.1,0,.51-1.83.78-4.84.15-1.75.06-3.52-.27-5.25-.41-2.11-1.32-4.09-2.64-5.79-1.3-1.7-3.08-2.97-5.12-3.63-1.68-.48-3.47-.48-5.15,0-1.14.31-2.2.86-3.11,1.62-.64.52-.92.91-.97.87Z"/>
    <path class="st3" d="M527.37,210.78c0,.1,0,.19,0,.29-.05.23-.1.51-.17.87-.17.79-.41,1.9-.71,3.31-.65,2.9-1.57,7-2.7,12.15l-4.07,18c-.41,1.68-.72,3.43-1.26,5.2-.55,1.79-1.3,3.51-2.23,5.14-1,1.65-2.11,3.24-3.32,4.75l-3.58,4.74-21.71,28.7-.12.16-.16-.12-12.97-9.73-3.51-2.69-.91-.72c-.2-.16-.3-.25-.29-.26l.33.21.94.67,3.58,2.61,13,9.59h-.28l21.62-28.76,3.57-4.74c1.2-1.49,2.3-3.06,3.29-4.69.92-1.58,1.66-3.26,2.21-5,.53-1.71.85-3.48,1.26-5.16,1.57-6.76,3-12.85,4.18-18s2.18-9.22,2.86-12.12c.34-1.4.61-2.5.81-3.29.09-.35.16-.63.22-.85s.12-.27.12-.26Z"/>
  </g>
  <g id="freepik--background-simple--inject-21" data-name="freepik--background-simple--inject-2">
    <path class="st10" d="M86.14,310.23l1.63-.05c13.69-.26,26.11-8.1,32.24-20.36.77-1.58,1.42-3.21,1.95-4.89,3.73-12.39,1.02-25.83-7.22-35.81-4.83-5.76-11.52-10.4-13.93-17.49-3.13-9.22,2.11-18.9,7.14-27.15s10.24-17.95,7.07-27.17c-1.98-5.76-7.01-10.07-12.5-12.83-14.52-7.26-32.7-4.6-46.07,4.34s-22.28,23.34-27.31,38.57c-7.02,21.35-6.76,45.59,3.41,65.84,10.17,20.25,30.93,35.71,53.59,36.99Z"/>
    <circle class="st10" cx="113.6" cy="96.84" r="26.68"/>
    <circle class="st10" cx="62.59" cy="406.8" r="26.68"/>
  </g>
  <g id="freepik--background-simple--inject-22" data-name="freepik--background-simple--inject-2">
    <path class="st10" d="M644.72,177.59l-1.6.29c-13.51,2.29-24.63,11.88-28.87,24.9-.53,1.67-.93,3.39-1.21,5.12-1.86,12.81,2.81,25.7,12.44,34.35,5.63,4.98,12.93,8.58,16.36,15.24,4.46,8.66.71,19-3.05,27.91s-7.48,19.27-2.98,27.91c2.81,5.4,8.43,8.92,14.26,10.84,15.44,5.03,33.02-.29,44.92-11.11s18.58-26.38,21.31-42.18c3.78-22.16-.06-46.08-13.11-64.61-13.05-18.53-35.87-30.74-58.47-28.65Z"/>
    <circle class="st10" cx="649.13" cy="392.7" r="26.68"/>
  </g>
</svg>