<?xml version="1.0" encoding="UTF-8"?>
<svg id="Layer_1" xmlns="http://www.w3.org/2000/svg" version="1.1" viewBox="0 0 8192 7170">
  <!-- Generator: Adobe Illustrator 30.0.0, SVG Export Plug-In . SVG Version: 2.1.1 Build 123)  -->
  <defs>
    <style>
      .st0 {
        fill: #e0e0e0;
      }

      .st1 {
        fill: #a36957;
      }

      .st2 {
        fill: #ffbe9d;
      }

      .st3 {
        fill: #ebebeb;
      }

      .st4 {
        fill: #263238;
      }

      .st5 {
        fill: #eb996e;
      }

      .st6 {
        fill: #7c3b29;
      }

      .st7 {
        fill: #fff;
      }

      .st8 {
        fill: #fafafa;
      }

      .st9 {
        opacity: .3;
      }

      .st10 {
        fill: #f5f5f5;
      }

      .st11 {
        fill: #455a64;
      }

      .st12 {
        fill: #86ccf9;
      }
    </style>
  </defs>
  <g id="freepik--background-complete--inject-62">
    <rect class="st0" x="6384.71" y="1763.92" width="992.88" height="1034.95"/>
    <rect class="st8" x="6317.43" y="1763.92" width="992.88" height="1034.95"/>
    <path class="st0" d="M7310.6,2799.16h-993.46v-1035.53h993.46v1035.53ZM6317.71,2799.16h992.31v-1034.95h-992.31v1034.95Z"/>
    <rect class="st7" x="6450.99" y="1903.1" width="725.89" height="756.73"/>
    <path class="st0" d="M6450.99,2664.73c-5.15,7.66-11.19,14.67-18.01,20.89-11.53,12.25-27.81,28.82-46.11,46.68-18.3,17.87-35.01,34-47.4,45.39-6.3,6.66-13.36,12.56-21.04,17.58,5.09-7.62,11.09-14.58,17.87-20.75,11.53-12.25,27.95-28.82,46.25-46.97,18.3-18.15,35.16-34,47.55-45.39,6.24-6.63,13.25-12.49,20.89-17.43Z"/>
    <path class="st0" d="M7176.89,2663c7.56,5.22,14.52,11.26,20.75,18.01,12.25,11.53,28.82,27.81,46.83,46.11,18.01,18.3,34,35.01,45.39,47.4,6.7,6.23,12.56,13.3,17.43,21.04-7.51-5.01-14.47-10.81-20.75-17.29-12.25-11.67-28.82-27.95-46.83-46.25-18.01-18.3-34.15-35.16-45.53-47.55-6.66-6.39-12.47-13.6-17.29-21.47Z"/>
    <path class="st0" d="M7174.87,1905.12c5.21-7.39,11.25-14.16,18.01-20.17,11.67-12.25,27.95-28.82,46.11-46.83,18.15-18.01,35.16-34,47.55-45.39,6.25-6.62,13.26-12.47,20.89-17.43-5.11,7.56-11.05,14.52-17.72,20.75-11.67,12.25-27.95,28.82-46.25,46.83-18.3,18.01-35.16,34.15-47.55,45.53-6.37,6.33-13.43,11.94-21.04,16.71Z"/>
    <path class="st0" d="M6448.97,1906.85c-7.68-5.06-14.7-11.06-20.89-17.87-12.25-11.53-28.82-27.81-46.68-46.11-17.87-18.3-34.15-35.01-45.39-47.4-6.62-6.34-12.51-13.4-17.58-21.04,7.62,5.09,14.58,11.09,20.75,17.87,12.25,11.53,28.82,27.95,46.83,46.25,18.01,18.3,34.15,35.16,45.53,47.4,6.58,6.29,12.43,13.3,17.43,20.89Z"/>
    <path class="st0" d="M7174.87,2659.69c-.15-1.2-.15-2.41,0-3.6v-51.44c0-35.88,0-88.04-.72-154.17,0-132.56,0-321.45-1.44-547.52l2.88,2.74h-723.88l3.17-3.17v756.58l-2.74-2.74,524.03,1.44h186.3-38.47l-146.53.72-525.91,1.3h-2.88v-760.47h729.93v2.88c0,226.79-1.01,416.11-1.44,549.1v204.17c-.63,1.47-1.4,2.87-2.3,4.18Z"/>
    <path class="st0" d="M6812.35,2331.61l-100.86,1.3-18.73,45.24-51.73.72,94.52-211.37h49.85l100.86,208.78-53.02.72-20.89-45.39ZM6795.93,2294.87l-35.3-79.97-33.57,80.98,68.87-1.01Z"/>
    <path class="st0" d="M7003.41,2302.79l1.01,74.06h-21.9v-16.28c-9.95,12.66-25.59,19.47-41.64,18.15-28.82,0-47.26-14.41-47.55-35.44-.29-21.04,12.82-36.02,50.72-36.6h36.6v-3.89c0-18.73-11.67-28.82-34.58-28.82-14.55-.02-28.69,4.79-40.2,13.69l-9.8-16.57c15.23-11.03,33.64-16.8,52.45-16.43,34.58-1.01,54.46,14.98,54.9,48.12ZM6980.79,2339.68v-16.71h-35.73c-22.77,0-28.82,8.93-28.82,19.31s10.81,19.74,28.82,19.6c15.25.77,29.42-7.85,35.73-21.76v-.43Z"/>
    <rect class="st0" x="6423.33" y="3016.87" width="815.08" height="849.66"/>
    <rect class="st8" x="6368.14" y="3016.87" width="815.08" height="849.66"/>
    <path class="st0" d="M7183.51,3866.82h-815.66v-850.1h815.66v850.1ZM6368.43,3866.82h814.51v-849.81h-814.51v849.81Z"/>
    <rect class="st7" x="6477.79" y="3130.98" width="595.93" height="621.29"/>
    <path class="st0" d="M6477.79,3756.45c-4.13,6.21-8.96,11.91-14.41,17-9.65,10.09-22.91,23.63-37.89,38.47-14.98,14.84-28.82,27.95-39.05,37.32-5.14,5.45-10.89,10.29-17.15,14.41,4.12-6.21,8.95-11.92,14.41-17,9.51-10.09,23.05-23.63,38.04-38.47,14.98-14.84,28.82-27.95,39.05-37.32,5-5.53,10.72-10.38,17-14.41Z"/>
    <path class="st0" d="M7073.72,3754.87c6.21,4.13,11.91,8.96,17,14.41,10.09,9.51,23.63,22.91,38.47,37.89,14.84,14.98,27.95,28.82,37.32,38.9,5.48,5.17,10.32,10.97,14.41,17.29-6.14-4.22-11.84-9.04-17-14.41-10.09-9.51-23.63-22.91-38.47-37.89-14.84-14.98-27.95-28.82-37.32-39.05-5.51-5.09-10.35-10.85-14.41-17.15Z"/>
    <path class="st0" d="M7071.99,3132.71c4.14-6.24,8.98-11.99,14.41-17.15,9.65-9.94,22.91-23.63,37.89-38.33,14.98-14.7,28.82-27.95,39.05-37.32,5.09-5.51,10.85-10.35,17.15-14.41-4.12,6.21-8.95,11.92-14.41,17-9.51,9.94-22.91,23.63-38.04,38.47-15.13,14.84-28.82,27.95-39.05,37.32-5,5.53-10.72,10.38-17,14.41Z"/>
    <path class="st0" d="M6476.06,3134.3c-6.22-4.11-11.93-8.95-17-14.41-10.09-9.51-23.63-22.77-38.47-37.75-14.84-14.98-27.95-28.82-37.32-39.05-5.45-5.14-10.29-10.89-14.41-17.15,6.21,4.12,11.92,8.95,17,14.41,10.09,9.51,23.63,22.91,38.47,38.04,14.84,15.13,27.95,28.82,37.32,39.05,5.52,4.96,10.37,10.63,14.41,16.86Z"/>
    <path class="st0" d="M7071.99,3752.27v-171.89c0-108.78-.72-263.67-1.3-449.4l2.31,2.31h-594.2l2.59-2.74v621.29l-2.16-2.31,430.23,1.15h152.87-152.01l-432.25,1.15h-2.31v-626.19h599.24v2.31c0,186.3-.86,341.77-1.15,450.98v167.57c0,2.02-1.73,5.76-1.87,5.76Z"/>
    <path class="st0" d="M6820.57,3472.17c0,29.83-23.92,47.4-70.89,48.12l-92.65,1.15-2.31-172.9,87.46-1.15c44.81,0,68.15,17.15,68.44,43.95.48,16.23-8.67,31.21-23.34,38.18,19.72,4.66,33.56,22.39,33.28,42.65ZM6696.37,3378.52v40.63h41.21c20.32,0,31.12-7.35,30.98-20.89-.14-13.54-11.24-20.03-31.41-19.74h-40.78ZM6778.93,3468.57c0-14.41-11.81-21.32-33.28-21.04l-48.41.72v43.23l48.27-.72c22.19-.86,33.57-7.35,33.43-22.19h0Z"/>
    <path class="st0" d="M6956.87,3469.87c1.3,27.5-19.93,50.85-47.44,52.16-1.57.07-3.15.07-4.72,0-14.47.82-28.45-5.34-37.61-16.57v15.85h-18.15l-1.87-140.77h18.87l.72,55.47c8.89-10.83,22.3-16.95,36.31-16.57,27.36-2.31,51.41,17.99,53.72,45.35.14,1.69.2,3.39.17,5.08ZM6937.71,3469.87c-.32-19.49-16.38-35.04-35.87-34.72-19.49.32-35.04,16.38-34.72,35.87.32,19.43,16.29,34.95,35.72,34.72,18.61.68,34.24-13.86,34.92-32.47.04-1.14.03-2.27-.05-3.41Z"/>
    <rect class="st0" x="1895.78" y="1428.34" width="4203.07" height="3001.84"/>
    <rect class="st10" x="1995.63" y="1548.22" width="3973.26" height="2766.55"/>
    <rect class="st3" x="1758.9" y="4430.19" width="4570.92" height="119.45"/>
    <path class="st3" d="M1897.22,1431.08c39.77,35.3,77.66,72.04,113.83,111.52"/>
    <path class="st3" d="M2011.05,1542.6c-20.41-16.84-39.67-35.04-57.63-54.46-19.83-17.92-38.41-37.18-55.62-57.63,22.32,14.73,42.79,32.09,60.95,51.73,19.81,17.93,37.37,38.21,52.3,60.37Z"/>
    <path class="st3" d="M5972.06,1557.01l127.08-123.19"/>
    <path class="st3" d="M6099,1433.82c-18.39,23.12-38.73,44.62-60.8,64.26-20.3,21.52-42.43,41.24-66.13,58.93,18.44-23.08,38.78-44.58,60.8-64.26,20.34-21.47,42.47-41.19,66.13-58.93Z"/>
    <path class="st3" d="M5979.12,4314.2c43.23,39.05,128.67,115.27,119.73,115.27"/>
    <path class="st3" d="M6098.85,4430.19c-19.04-19.95-39.09-38.89-60.08-56.77-21.51-18.03-41.46-37.84-59.65-59.22,23.28,15.74,44.95,33.74,64.69,53.74,17.15,15.71,32.13,30.55,42.36,41.78,4.15,4.55,8,9.36,11.53,14.41.98,1.47,1.75,3.07,2.31,4.75.43,1.59-1.44,1.73-1.15,1.3Z"/>
    <rect class="st8" x="3534.16" y="4385.09" width="435.71" height="47.4"/>
    <path class="st3" d="M2198.21,3880.94v551.12h947.35l-947.35-551.12ZM2343.59,4102.83l393.78,233.13h-393.78v-233.13Z"/>
    <path class="st0" d="M2289.13,3933.82c-3.2,12.33-8.84,23.89-16.57,34-5.73,11.35-13.55,21.52-23.05,29.97,3.26-12.33,8.94-23.89,16.71-34,10.95-17.58,21.18-31.12,22.91-29.97Z"/>
    <path class="st0" d="M2429.75,4014.65c-3.23,12.05-8.87,23.32-16.57,33.14-10.81,17.15-21.04,30.11-22.77,28.82,3.23-11.98,8.82-23.2,16.43-33,10.95-17,21.18-30.11,22.91-28.96Z"/>
    <path class="st0" d="M2570.24,4095.48c-4.43,11.59-11.14,22.17-19.74,31.12-12.68,15.99-24.21,27.81-25.79,26.51,4.49-11.59,11.25-22.18,19.88-31.12,12.54-15.85,24.06-27.81,25.65-26.51Z"/>
    <path class="st0" d="M2708.27,4179.48c1.73,1.3-7.2,15.27-19.74,31.27-12.54,15.99-24.21,27.66-25.79,26.37,4.56-11.56,11.31-22.13,19.88-31.12,12.54-15.71,24.06-27.66,25.65-26.51Z"/>
    <path class="st0" d="M2852.64,4262.33c-3.88,12.13-10.1,23.39-18.3,33.14-11.67,17.29-22.62,30.26-24.35,28.82,3.86-12.11,10.03-23.37,18.15-33.14,11.81-17.15,22.77-30.11,24.49-28.82Z"/>
    <path class="st0" d="M3002.49,4348.78c-3.19,11.53-8.73,22.28-16.28,31.55-10.66,16.28-20.75,28.82-22.48,27.52,3.14-11.55,8.69-22.3,16.28-31.55,10.66-15.99,20.75-27.52,22.48-27.52Z"/>
    <path class="st0" d="M2333.07,3959.75c1.73,1.15-1.3,9.08-6.77,17.87s-11.24,15.13-13.11,14.41,1.3-9.08,6.77-17.87c5.48-8.79,11.24-15.99,13.11-14.41Z"/>
    <path class="st0" d="M2379.04,3984.97c1.87,1.15-1.15,9.22-6.63,18.01-5.48,8.79-11.38,14.41-13.11,14.41s1.3-9.08,6.77-17.87c5.48-8.79,11.24-15.56,12.97-14.55Z"/>
    <path class="st0" d="M2481.34,4045.2c1.73,1.15-1.3,9.22-6.77,18.01-5.48,8.79-11.24,14.41-12.97,14.41s1.15-9.08,6.63-17.87c5.48-8.79,11.53-15.56,13.11-14.55Z"/>
    <path class="st0" d="M2527.59,4070.99c1.87,1.01-1.15,9.08-6.63,17.87-5.48,8.79-11.24,14.41-13.11,14.41s1.3-9.08,6.77-17.87c5.48-8.79,11.24-15.56,12.97-14.41Z"/>
    <path class="st0" d="M2620.23,4128.33c1.73,1.15-1.15,9.08-6.63,17.87-5.48,8.79-11.38,15.13-13.11,14.41s1.3-9.08,6.63-17.87c5.33-8.79,11.38-15.42,13.11-14.41Z"/>
    <path class="st0" d="M2664.18,4154.12c1.73,1.01-1.15,9.08-6.63,17.87-5.48,8.79-11.38,14.41-13.11,14.41s1.3-9.22,6.77-18.01c5.48-8.79,11.24-15.42,12.97-14.26Z"/>
    <path class="st0" d="M2759.13,4208.88c1.73,1.01-1.3,9.08-6.77,17.87-5.48,8.79-11.24,14.41-13.11,14.41s1.3-9.22,6.77-18.01c5.48-8.79,11.24-15.42,13.11-14.26Z"/>
    <path class="st0" d="M2809.99,4238.84c1.73,1.15-1.15,9.08-6.63,17.87s-11.38,15.13-13.11,14.41,1.3-9.08,6.63-17.87c5.33-8.79,11.38-15.56,13.11-14.41Z"/>
    <path class="st0" d="M2901.63,4292.44c1.73,1.15-1.3,9.22-6.63,18.01s-11.38,14.41-13.11,14.41,1.15-9.08,6.63-17.87c5.48-8.79,11.38-15.85,13.11-14.55Z"/>
    <path class="st0" d="M2954.51,4322.85c1.73,1.01-1.15,9.08-6.63,17.87s-11.38,14.41-13.11,14.41,1.3-9.22,6.63-18.01c5.33-8.79,11.38-15.42,13.11-14.26Z"/>
    <path class="st3" d="M6773.88,5506.06c74.06-38.18,161.37-43.23,243.5-29.54,44.23,7.35,90.34,20.46,120.45,53.74,30.11,33.28,35.73,91.64,1.15,120.17-20.46,17-49.13,19.6-75.79,19.16-64.41-.72-135.87-12.1-187.31,26.66-28.82,22.19-48.99,58.93-84,69.74-36.07,8.4-73.35-8.12-91.35-40.49-16.68-32.32-20.34-69.81-10.23-104.75,8.44-49.17,39.35-91.59,83.57-114.69Z"/>
    <path class="st3" d="M6604.01,5178.42c45.39,64.69,133.42,43.23,174.2,3.75,40.78-39.48,57.63-96.68,73.92-151.29,35.88-124.78,72.04-255.6,45.39-382.69-6.48-38.49-23.37-74.46-48.84-104.03-26.33-29.66-66.48-43-105.33-35.01-44.38,11.67-72.04,55.18-91.93,96.54-58.73,122.19-89.54,255.91-90.2,391.48,0,63.11,7.2,129.68,43.23,181.26"/>
    <path class="st3" d="M6479.66,5270.92c49.13-57.63,58.5-144.08,36.6-216.13-21.9-72.04-72.04-135.29-128.38-186.16-67.08-59.68-145.13-105.73-229.81-135.58-32.77-13.22-68.01-19.21-103.31-17.58-35.71,2.14-68.06,21.77-86.45,52.45-24.21,46.25-1.01,102.16,24.06,147.83,44.21,80.46,94.7,157.3,151,229.81,45.24,58.35,96.97,115.27,165.98,142.21,69.02,26.94,140.63,23.34,177.08-24.49"/>
    <path class="st0" d="M6600.98,6154.58c2.34-9.44,3.69-19.1,4.03-28.82,2.16-21.32,4.75-48.27,7.92-80.25,4-39.52,10.01-78.81,18.01-117.72,10.64-47.39,25.1-93.84,43.23-138.9,17.58-45.02,41.45-87.32,70.89-125.64,24.03-31.21,54.69-56.7,89.76-74.64,23.75-11.82,49.24-19.75,75.5-23.49,9.73-.45,19.39-1.9,28.82-4.32-9.87-1.03-19.81-1.03-29.68,0-27.27,2.11-53.96,9.04-78.81,20.46-36.89,17.5-69.28,43.23-94.66,75.21-30.69,38.88-55.45,82.1-73.48,128.23-18.26,45.79-32.48,93.08-42.5,141.35-7.61,39.37-12.85,79.16-15.71,119.16-2.45,34-3.46,61.67-3.89,80.69-.82,9.55-.63,19.16.58,28.67Z"/>
    <path class="st0" d="M6606.46,6092.92c.84-4.51,1.13-9.11.86-13.69v-39.05c0-33.86,0-82.85,1.73-143.36,3.03-121.03,13.4-251.28,33.57-434.85,19.02-172.9,44.67-373.75,72.04-504.29,5.76-29.83,11.67-56.48,17.15-79.97,5.48-23.49,9.65-43.23,14.41-60.08l9.22-37.89c1.29-4.36,2.07-8.86,2.31-13.4-2.1,4.07-3.69,8.37-4.75,12.82-2.88,9.8-6.63,22.19-11.24,37.32-4.61,15.13-10.23,36.31-16.14,59.65-5.91,23.34-12.54,50-18.87,79.68-33.58,154.53-58.88,310.75-75.79,467.98-20.17,183.99-28.82,351.56-29.97,472.88-.72,60.66,0,109.79,2.02,144.08,1.01,15.85,1.87,28.82,2.45,39.05-.04,4.39.3,8.78,1.01,13.11Z"/>
    <path class="st0" d="M6607.32,5769.74c1.1-13.57,1.1-27.21,0-40.78-2.27-36.98-6.46-73.82-12.54-110.37-8.9-54.09-20.88-107.64-35.88-160.37-17.48-65.13-39.98-128.82-67.29-190.48-46.65-113.67-113.59-217.9-197.54-307.62-14.64-15.32-30.18-29.75-46.54-43.23-7.06-6.05-13.4-11.96-19.88-16.71l-18.01-12.54c-10.81-8.23-22.28-15.56-34.29-21.9-1.87,2.59,48.7,32.42,112.53,100.86,81.15,90.53,146.3,194.21,192.64,306.61,26.74,61.28,49.32,124.29,67.58,188.61,15.43,52.45,28.22,105.63,38.33,159.36,8.36,45.82,13.26,83.42,16.14,109.36.59,13.17,2.18,26.27,4.76,39.19Z"/>
    <polygon class="st0" points="6294.95 6339.73 6327.37 6783.37 6897.22 6783.37 6929.64 6339.73 6294.95 6339.73"/>
    <rect class="st0" x="6239.91" y="6164.96" width="757.74" height="174.92"/>
    <polygon class="st3" points="6239.91 6766.51 6239.91 6814.92 6275.5 6814.92 6985.11 6814.92 6985.11 6766.51 6239.91 6766.51"/>
    <polygon class="st0" points="6310.37 6900.22 6275.5 6814.92 6958.02 6814.92 6917.25 6900.22 6310.37 6900.22"/>
    <path class="st10" d="M6919.12,6484.82c-.79,1.42-1.71,2.77-2.74,4.03-2.16,3.03-5.04,6.77-8.5,11.24l-33.14,42.5-1.44,1.87-1.44-1.87-81.7-112.82h4.75l-80.25,113.68-2.59,3.6-2.74-3.46-95.24-113.25h5.48l-5.33,6.63-85.15,106.77-2.74,3.6-2.74-3.75-79.97-113.83h4.61c-39.62,45.1-73.19,83.28-98.84,112.67l-1.87,2.02-1.3-2.31-30.98-52.01-7.92-14.41c-.97-1.55-1.79-3.19-2.45-4.9,0,0,1.3,1.3,3.31,4.32l8.79,13.4,32.56,51.01h-3.17l97.4-114.11,2.45-2.88,2.31,3.03,80.98,113.25h-5.48l85.01-106.91,5.19-6.48,2.74-3.46,2.74,3.31,95.1,113.54h-5.33l80.98-113.25,2.45-3.31,2.31,3.31,79.82,114.11h-2.88l34.58-41.35,9.22-10.66c2.11-2.02,3.17-2.98,3.17-2.88Z"/>
    <path class="st10" d="M6937.56,6337.14c0,2.02-142.79,3.6-318.86,3.6s-319.15-1.87-319.15-3.6,142.79-3.6,319-3.6,319,1.3,319,3.6Z"/>
    <path class="st10" d="M6966.38,6819.68c0,2.02-155.18,3.6-346.67,3.6s-346.52-1.58-346.52-3.6,155.18-3.46,346.52-3.46,346.67,1.58,346.67,3.46Z"/>
    <path class="st10" d="M2288.7,719.31s128.23,590.74,212.09,587.57c108.35-4.75,473.17-502.56,473.17-502.56,0,0-624.6-75.5-685.26-85.01Z"/>
    <path class="st3" d="M3041.82,813.11s188.75,578.64,272.17,568.56c107.49-13.11,419.72-536.42,419.72-536.42,0,0-630.37-27.38-691.89-32.13Z"/>
    <path class="st10" d="M3801.29,844.95s248.54,561.21,330.38,544.64c105.76-21.32,362.52-566.39,362.52-566.39,0,0-631.09,21.61-692.9,21.76Z"/>
    <path class="st3" d="M4525.74,823.77s286.29,547.52,366.98,526.91c104.03-26.66,323.47-583.68,323.47-583.68,0,0-628.78,53.6-690.45,56.77Z"/>
    <path class="st10" d="M5258.55,750.72s350.56,518.7,428.36,490.89c100.86-35.88,252.15-609.04,252.15-609.04,0,0-619.27,109.5-680.51,118.15Z"/>
    <path class="st3" d="M5978.4,622.77s395.08,493.92,470.29,461.07c97.11-42.22,198.26-623.45,198.26-623.45,0,0-608.47,149.7-668.55,162.38Z"/>
    <path class="st3" d="M1556.32,572.63s73.77,598.38,158.49,600.54c108.35,2.59,517.26-468.7,517.26-468.7,0,0-616.1-118.29-675.75-131.84Z"/>
    <path class="st11" d="M7297.05,262.71l-16.14,5.91-47.84,17-77.95,27.52-49.71,17.43-57.63,18.73-134.43,43.23-161.37,48.56c-28.82,9.08-59.22,17.29-90.34,25.94l-96.54,26.66c-16.57,4.61-33.28,9.37-50.43,14.41l-52.16,13.26-108.35,27.52c-348.97,85.53-702.23,152.48-1058.3,200.56-201.72,26.37-414.1,49.13-635.12,65.7-221.03,16.57-450.41,24.93-685.26,26.8h-175.35l-172.9-3.6-43.23-.86-43.23-1.87-84.72-3.46-84.14-3.46-83.28-5.19c-55.18-3.75-110.08-6.34-164.26-10.95l-160.8-13.54c-53.02-4.61-105.18-10.95-157.05-16.14l-76.22-7.35-76.08-10.37c-201.72-23.92-391.62-56.34-568.84-87.75-176.5-34-340.33-68.3-488.16-105.18l-108.21-27.23c-35.3-8.5-69.02-18.44-102.16-27.23-65.99-18.01-128.52-34.44-186.01-52.3-57.49-17.87-111.66-32.27-160.37-47.98l-133.85-43.23c-20.03-6.63-39.19-12.54-56.77-18.87l-49.42-17.58-76.94-28.24-47.55-17-16.14-6.05s5.62,1.73,16.43,5.48l47.26,16.57,77.66,27.09,49.42,17.29c17.72,6.2,36.89,11.96,56.91,18.59l134,43.23c48.99,14.98,103.02,30.83,160.65,48.12,57.63,17.29,120.02,33.86,186.01,51.87,33.14,8.65,66.85,18.59,102.16,26.94l108.21,26.51c147.83,36.45,311.65,70.46,488.16,104.32,177.22,31.27,366.98,63.4,568.56,86.45l75.93,9.65,77.08,8.21c51.73,5.19,104.03,11.38,157.05,15.99l160.65,13.4c54.03,4.75,108.93,7.2,164.11,10.81l83.14,5.19,84.14,3.46,84.72,3.6,42.5,1.73,43.23.86,172.9,3.6h174.77c234.86-1.87,464.24-11.38,685.12-26.66,220.88-15.27,433.26-39.19,634.83-65.27,355.86-47.57,708.97-113.84,1057.86-198.55l108.35-27.23,52.16-13.11,50.43-14.41,96.54-26.51c31.12-8.65,61.52-16.71,90.34-25.65l161.52-48.12,134.72-43.23,57.63-18.44,49.85-17.15,78.09-26.94,48.12-16.57,15.99-4.9Z"/>
    <path class="st0" d="M1249.13,492.66c-18.01-5.19-35.59-10.37-52.88-15.85l-59.22-17.58c-35.73-10.66-69.74-20.75-101.58-30.98l-155.03-50.72c-12.54-4.03-24.49-7.92-36.02-11.96l-174.2-62.39-16.57-6.2,10.23-21.32,16.86,5.48,174.92,61.09c11.24,3.89,23.05,7.64,35.3,11.53l155.18,50.14c31.27,9.8,64.55,19.6,99.42,29.97l61.09,18.01c44.67,14.41,92.21,26.51,142.64,40.06l43.23,11.67,35.59,9.65c21.61,5.91,43.23,11.81,65.99,17.29l108.35,26.51c133.85,33,288.17,66.13,487.44,104.17,166.7,28.82,361.94,62.68,567.4,86.45l152.87,17.72,55.04,5.76c33.57,3.6,67.43,7.2,101.58,10.23l160.65,13.4c34.87,3.03,69.88,5.19,105.18,7.2,19.6,1.15,39.05,2.31,58.79,3.75l166.85,8.5,169.73,6.2,172.9,3.46h174.63c224.91-1.73,455.16-10.81,684.11-26.66,204.74-15.27,417.84-37.17,633.97-65.27,355.32-47.82,707.89-114.19,1056.28-198.84l239.47-61.96,80.25-22.04c26.66-7.2,52.45-14.41,77.23-21.9l161.81-48.27,241.05-78.24,126.22-43.23,16.86-5.62,9.94,21.47-16.57,6.05-232.98,80.83-134.57,43.23-161.66,48.7c-25.07,7.78-51.29,14.41-78.38,22.48l-126.36,35.01c-10.95,3.03-21.9,6.2-33,9.08l-160.8,40.63c-349.56,85.8-703.39,153.13-1060.02,201.72-216.13,28.82-430.67,50.43-636.13,65.85-229.67,15.99-461.07,25.07-686.7,26.94h-175.49l-427.93-13.26-83.57-5.19c-19.88-1.44-39.48-2.59-59.07-3.75-35.44-2.16-70.6-4.18-105.61-7.35l-160.65-13.4c-34.72-3.17-68.87-6.77-102.88-10.52l-54.46-5.76-153.59-17.87c-206.9-24.49-402.43-57.63-569.56-87.75-199.12-38.47-354.45-72.04-489.16-105.47l-108.35-26.66c-22.91-5.48-45.39-11.67-67.43-17.72l-34.87-9.51-42.36-11.53c-31.55-8.93-61.96-16.43-91.35-25.5Z"/>
    <rect class="st0" x="740.08" y="3723.31" width="815.08" height="849.66"/>
    <rect class="st8" x="684.9" y="3723.31" width="815.08" height="849.66"/>
    <path class="st0" d="M1500.27,4573.26h-815.66v-850.1h815.66v850.1ZM685.19,4573.26h814.51v-849.66h-814.51v849.66Z"/>
    <rect class="st7" x="794.4" y="3837.57" width="595.93" height="621.29"/>
    <path class="st0" d="M794.4,4462.9c-4.09,6.28-8.92,12.04-14.41,17.15-9.51,10.09-22.91,23.63-37.89,38.47-14.98,14.84-28.82,27.81-38.9,37.17-5.17,5.41-10.92,10.24-17.15,14.41,4.03-6.28,8.87-12,14.41-17,9.51-10.09,22.91-23.77,38.04-38.47,15.13-14.7,28.82-28.1,38.9-37.46,5.14-5.35,10.84-10.13,17-14.26Z"/>
    <path class="st0" d="M1390.33,4461.45c6.28,4.09,12.04,8.92,17.15,14.41,10.09,9.51,23.63,22.91,38.47,37.89,14.84,14.98,27.81,28.82,37.17,38.9,5.41,5.17,10.24,10.92,14.41,17.15-6.28-4.03-12-8.87-17-14.41-10.09-9.51-23.77-22.91-38.47-38.04-14.7-15.13-28.82-28.82-37.46-38.9-5.3-5.19-10.08-10.88-14.26-17Z"/>
    <path class="st0" d="M1388.75,3839.3c4.14-6.24,8.98-11.99,14.41-17.15,9.51-10.09,22.91-23.63,37.89-38.47,14.98-14.84,28.82-27.81,38.9-37.17,5.2-5.44,11-10.27,17.29-14.41-4.13,6.21-8.96,11.91-14.41,17-9.51,10.09-22.91,23.77-37.89,38.47-14.98,14.7-28.82,28.1-39.05,37.46-5.2,5.35-10.94,10.13-17.15,14.26Z"/>
    <path class="st0" d="M792.82,3840.74c-6.24-4.14-11.99-8.98-17.15-14.41-9.94-9.51-23.63-22.91-38.33-37.89-14.7-14.98-27.95-28.82-37.32-38.9-5.54-5.11-10.38-10.92-14.41-17.29,6.14,4.22,11.84,9.04,17,14.41,9.94,9.51,23.63,22.91,38.47,37.89,14.84,14.98,27.95,28.82,37.32,39.05,5.47,5.12,10.3,10.88,14.41,17.15Z"/>
    <path class="st0" d="M1388.75,4458.86v-171.89c0-108.78,0-263.82-1.15-449.4l2.31,2.31h-594.2l2.74-2.59v621.29l-2.31-2.31,430.38,1.15h152.87-151.86l-432.25,1.15h-2.16v-626.04h599.25v2.31c0,186.16-.86,341.77-1.15,450.84v167.57c-.52,1.99-1.35,3.88-2.45,5.62Z"/>
    <path class="st0" d="M1201.44,4149.37c0,52.92-42.9,95.82-95.82,95.82-52.92,0-95.82-42.9-95.82-95.82,0-52.92,42.9-95.82,95.82-95.82h0c52.84-.08,95.74,42.69,95.82,95.53,0,.1,0,.19,0,.29Z"/>
  </g>
  <g id="freepik--Plant--inject-62">
    <path class="st4" d="M986.18,2728.41s0-2.31,1.15-6.77,2.45-11.09,4.18-19.45c3.75-17.43,9.37-42.5,16.43-74.64,14.41-65.27,36.02-158.49,62.24-274.91l208.49-908.45,3.75-15.99,3.03,15.99,4.61,20.17c81.12,360.21,154.6,686.56,207.77,923,26.22,118,47.4,213.53,62.1,279.95,7.2,32.85,12.68,57.63,16.57,76.08,1.73,8.5,3.17,14.41,4.18,19.88,1.01,5.48,1.15,6.92,1.15,6.92,0,0-.86-2.31-2.02-6.77l-4.75-19.6c-4.18-17.72-10.23-43.23-17.87-75.93-15.42-66.28-37.32-161.66-64.55-279.38-53.74-236.3-127.95-561.93-209.93-922.14l-4.61-20.17h7.35l-210.65,907.73-64.55,273.76c-7.64,32.13-13.69,57.63-17.87,74.49-2.02,8.21-3.75,14.41-4.9,19.31s-1.3,6.92-1.3,6.92Z"/>
    <path class="st11" d="M986.03,2998.28v-228.08h608.47v228.08c0,146.58-118.82,265.4-265.4,265.4-.14,0-.29,0-.43,0h-77.08c-146.6,0-265.47-118.8-265.55-265.4Z"/>
    <path class="st4" d="M986.03,2770.2c2.59,2.95,4.91,6.13,6.92,9.51l18.59,28.82,67,104.6,218.86,346.67,1.58,2.45h-6.34c82.7-136.02,157.63-259.35,212.24-348.54l64.98-105.18,18.01-28.82c1.99-3.32,4.21-6.49,6.63-9.51-1.44,3.62-3.23,7.09-5.33,10.37l-16.86,28.82c-15.27,25.65-36.6,61.81-62.96,106.33-54.18,89.91-128.23,213.24-210.36,349.69l-3.17,5.19-3.17-5.19-1.58-2.45-216.99-347.53-64.98-105.9-17.43-28.82c-2.1-3.38-3.98-6.89-5.62-10.52Z"/>
    <path class="st4" d="M1350.71,1442.18c0,36.68-29.74,66.42-66.42,66.42s-66.42-29.74-66.42-66.42,29.74-66.42,66.42-66.42c36.6-.08,66.34,29.53,66.42,66.13,0,.1,0,.19,0,.29Z"/>
    <path class="st4" d="M1284.29,311.26c2.02,0,3.75,256.04,3.75,571.72s-1.73,571.72-3.75,571.72-3.75-256.04-3.75-571.72,1.58-571.72,3.75-571.72Z"/>
    <path class="st4" d="M1318.72,3288.47c0,15.92-12.9,28.82-28.82,28.82s-28.82-12.9-28.82-28.82,12.9-28.82,28.82-28.82,28.82,12.9,28.82,28.82Z"/>
    <path class="st4" d="M1277.66,3299.13l4.61-2.31c-16.36,10.41-27,27.8-28.82,47.12-1.66,19.01-.05,38.16,4.75,56.62,1.3,5.91,4.47,13.26,10.52,12.97,6.05-.29,8.07-6.77,8.93-12.25,1.87-11.29,2.16-22.78.86-34.15-.69,14.62,4.03,28.98,13.26,40.34,1.73,2.16,4.32,4.47,7.06,3.75s3.6-3.75,4.32-6.34c2.56-9.4,4.01-19.08,4.32-28.82.65,8.64,3.8,16.9,9.08,23.77,5.48,6.62,15.29,7.55,21.91,2.07.24-.2.48-.41.71-.63,2.99-4.98,3.88-10.94,2.45-16.57-4.8-34.08-18.52-66.29-39.77-93.37"/>
    <path class="st12" d="M1024.36,2770.2s-273.76-315.26-243.07-326.64c30.69-11.38,273.62,163.25,273.62,163.25,0,0-208.92-466.98-167.14-501.12,41.78-34.15,261.94,413.23,261.94,413.23,0,0-34.29-652.99,0-660.62,34.29-7.64,159.36,653.13,159.36,653.13,0,0,186.16-603.71,239.18-603.71s-56.91,580.95-56.91,580.95c0,0,220.3-371.59,255.17-322.17,34.87,49.42-156.48,451.85-156.48,451.85,0,0,277.22-231.69,288.17-201.72,10.95,29.97-299.98,353.15-299.98,353.15l-553.86.43Z"/>
    <path class="st4" d="M986.18,2295.59c1.87-.86,50.43,103.02,108.35,232.12,57.92,129.1,103.31,234.42,100.86,235.29s-50.43-103.16-108.35-232.26-102.73-234.28-100.86-235.15Z"/>
    <path class="st4" d="M1207.06,2353.65c2.02,0,10.09,91.49,18.01,204.6,7.92,113.11,12.54,205.03,10.52,205.18s-10.09-91.49-18.01-204.6-12.54-205.03-10.52-205.18Z"/>
    <path class="st4" d="M1511.65,2061.16c-.17,2.51-.7,4.99-1.58,7.35-1.54,5.57-3.55,12.49-6.05,20.75-5.62,19.02-13.4,44.81-22.77,76.08-19.31,64.26-45.24,153.31-72.04,252.15-26.8,98.84-48.27,188.89-63.54,254.16-7.49,31.84-13.54,57.63-18.01,77.37-2.16,8.36-3.75,15.27-5.19,21.04-.46,2.49-1.24,4.91-2.31,7.2-.1-2.57.19-5.15.86-7.64,1.01-5.62,2.16-12.68,3.75-21.18,3.31-18.44,8.79-45.1,15.71-77.95,14.41-65.7,35.01-156.04,61.38-255.03,26.37-98.99,53.31-187.31,73.77-251.71,10.37-31.84,19.02-57.63,25.21-75.36,3.03-8.21,5.33-14.41,7.35-20.32.78-2.47,1.95-4.81,3.46-6.92Z"/>
    <path class="st4" d="M1643.34,2397.74c1.73,1.15-51.58,80.83-119.16,177.66s-123.48,174.05-125.35,174.05,51.73-80.69,119.3-177.66,123.62-175.21,125.21-174.05Z"/>
    <path class="st4" d="M1116.57,2763.86c-8.72-4.53-16.77-10.25-23.92-17-18.25-15.23-35.66-31.44-52.16-48.56-16.52-16.86-32.11-34.61-46.68-53.17-6.63-7.27-12.17-15.48-16.43-24.35,1.73-1.3,30.11,33,68.58,72.04,38.47,39.05,72.04,68.87,70.6,71.03Z"/>
    <path class="st4" d="M1282.7,2638.22c5.61,21.24,8.84,43.03,9.65,64.98,3.3,21.74,4.02,43.79,2.16,65.7-5.64-21.23-8.88-43.03-9.65-64.98-3.3-21.74-4.02-43.79-2.16-65.7Z"/>
    <path class="st7" d="M1594.5,2912.26c-7.68,2.29-15.53,3.93-23.49,4.9-14.41,2.59-37.32,6.05-64.69,9.94-71.29,9.96-143.04,16.31-214.97,19.02-72.16,2.74-144.43-.24-216.13-8.93-27.38-3.6-49.42-7.2-64.55-10.37-7.93-1.2-15.74-3.08-23.34-5.62,7.98.28,15.93,1.2,23.77,2.74,15.27,2.31,37.46,5.04,64.84,7.92,71.37,7.16,143.15,9.42,214.83,6.77,84-2.88,159.93-10.66,214.68-16.86l64.84-7.49c7.99-1.44,16.09-2.11,24.21-2.02Z"/>
    <path class="st7" d="M1594.5,2979.98c-7.65,2.38-15.52,4.02-23.49,4.9-14.41,2.74-37.32,6.2-64.69,9.94-54.61,7.49-130.68,16.14-214.97,19.16-72.17,2.63-144.43-.4-216.13-9.08-27.38-3.6-49.42-7.2-64.55-10.37-7.93-1.2-15.74-3.08-23.34-5.62,7.98.37,15.92,1.29,23.77,2.74,15.27,2.31,37.46,5.19,64.84,7.92,71.37,7.16,143.15,9.42,214.83,6.77,84-2.88,159.93-10.66,214.68-16.86l64.84-7.49c8.01-1.24,16.1-1.92,24.21-2.02Z"/>
  </g>
  <g id="freepik--character-3--inject-62">
    <path class="st4" d="M3817.43,4644.59c-8.5,28.82-46.68,1282.35,185.72,2272.35l1156.56,2.59c15.42-676.33,273.76-1728-100.14-2309.66l-1242.15,34.72Z"/>
    <path class="st4" d="M4984.94,2251.78c38.18,138.9,95.96,250.13,152.3,306.03,56.34,55.9,116.56,121.32,114.55,200.56-.86,31.12-11.24,64.12,2.45,92.21,17.58,36.31,64.69,44.23,99.99,64.12,52.17,32.26,82.52,90.47,79.1,151.72-4.24,60.23-30.74,116.73-74.35,158.49-43.23,44.09-113.25,74.92-167.71,44.81-32.85-18.15-51.58-53.6-68.15-87.31-85.78-174.53-163.39-352.72-232.84-534.55"/>
    <path class="st4" d="M4633.95,1657.15c-132.22-146.83-358.43-158.67-505.26-26.45-76.33,68.73-119.43,166.96-118.34,269.67,1.01,92.93,37.32,190.48,0,275.78-25.94,60.52-86.45,106.19-94.37,171.46-9.65,75.64,55.18,144.08,51.73,220.59-2.16,49.85-33.43,93.8-69.3,128.38-35.88,34.58-77.66,62.96-110.66,100.86-91.49,104.03-97.26,268.28-28.82,388.16s202.73,195.38,340.18,211.66c137.46,16.28,277.79-21.61,399.54-87.75,79.25-43.23,153.74-99.71,200.85-176.65s63.4-176.65,26.08-259.35"/>
    <path class="st11" d="M4197.66,1601.1c20.55-.39,41.1.58,61.52,2.88,48.92,8.92,96.91,22.33,143.36,40.06,47.19,17.77,97.27,26.61,147.69,26.08,15.25-.73,30.35-3.35,44.95-7.78,5.42-1.48,10.65-3.61,15.56-6.34-19.86,5.09-40.18,8.18-60.66,9.22-49.69-.88-98.87-10.29-145.38-27.81-46.82-17.88-95.41-30.73-144.95-38.33-15.19-1.4-30.48-1.4-45.67,0-5.54-.1-11.07.58-16.43,2.02Z"/>
    <path class="st12" d="M5361.57,3317.43c-1.18-17.81-3.54-35.52-7.06-53.02-30.84-144.75-131.04-265-267.85-321.45l-347.96-146.82-397.67,10.23s-295.52,135.01-355.02,205.32c-4.47,5.19-44.09,44.38-46.68,59.65l-299.26,888.42-382.54,238.46,104.89,133.71,563.94-53.46,68.3-111.09c-37.32,83.71-186.16,423.32-186.16,527.35,0,0,870.41,186.3,1216.93,151.43,152.44-15.42,188.61-29.68,188.61-29.68l-101.72-381.25c84.29-5.76,170.45-57.63,205.03-129.68,60.08-124.92,55.04-820.41,44.23-988.13Z"/>
    <polygon class="st0" points="2644.73 3449.84 2584.79 3449.84 2666.92 4225.16 3375.81 4176.46 3295.84 3508.92 2644.73 3449.84"/>
    <polygon class="st8" points="2644.73 3411.52 2707.4 4197.93 4107.04 4152.83 3934.57 3411.52 3305.35 3472.32 2644.73 3411.52"/>
    <path class="st4" d="M2644.73,3412.24l11.24.86,33.86,2.88,131.12,11.24,484.7,43.23h0l629.21-61.38h3.03v2.88c53.17,227.65,111.52,478.21,172.9,741.31l1.01,4.47h-4.61l-65.99,2.02-1333.5,42.07h-2.88v-2.88c-18.59-241.48-33.72-438.3-44.38-575.04-5.04-67.86-9.08-120.74-11.67-157.05-1.34-17.67-2.35-31.22-3.03-40.63v-14.41s0,5.04,1.3,14.41c1.3,9.37,2.16,23.34,3.6,41.21,3.17,36.45,7.64,89.48,13.4,157.63,11.24,136.3,27.38,332.4,47.26,572.88l-3.03-2.59,1333.5-43.23,66.13-2.02-3.6,4.47c-61.09-262.95-119.16-513.52-172.04-741.31l3.6,2.59-629.21,59.94h0l-482.54-45.82-131.55-12.68-34.44-3.46-13.4-1.58Z"/>
    <path class="st4" d="M3419.47,4165.51c-1.06-2.15-1.84-4.42-2.31-6.77-1.3-5.33-3.03-11.81-4.9-19.6-4.18-17.15-9.8-41.93-16.43-72.04-13.4-61.52-30.11-146.68-45.96-241.34-15.85-94.66-27.52-180.68-34.87-243.07-3.6-31.27-6.34-56.48-7.92-74.06-.72-8.07-1.3-14.41-1.73-20.17-.38-2.34-.38-4.72,0-7.06.74,2.25,1.27,4.57,1.58,6.92,0,5.48,1.73,11.96,3.03,20.03,2.59,18.44,6.05,43.23,10.37,73.63,8.65,62.24,21.32,148.12,37.03,242.64,15.71,94.52,31.7,179.82,43.23,241.48,5.76,29.97,10.52,54.61,14.41,72.91,1.44,8.07,2.74,14.41,3.6,20.03.54,2.12.83,4.3.86,6.48Z"/>
    <path class="st12" d="M3052.05,3679.51l13.54,273.76-63.4,3.17-11.09-223.33-54.9,2.74-2.45-49.85,118.29-6.48Z"/>
    <path class="st12" d="M3810.51,3870.85l5.19,51.44-206.47,20.75-4.03-40.92,95.38-110.08c21.9-25.5,24.78-39.91,23.49-53.31-2.16-21.32-18.3-32.42-47.12-29.54-22.3,1.46-42.45,13.8-53.89,33l-48.99-24.93c21.97-36.59,60.81-59.74,103.45-61.67,60.8-6.2,104.6,21.04,109.5,70.6,2.74,26.51-2.31,51.44-37.03,90.77l-56.77,65.7,117.28-11.81Z"/>
    <path class="st2" d="M3225.67,4353.1l-129.68-95.1,7.06-216.13c29.76,6.44,52.25,30.9,56.19,61.09,5.33,50.72,9.8,98.84,9.8,98.84l40.78,12.25-5.62-28.1,99.13-141.2s37.61,27.81,21.9,64.41c18.01-17.58,46.54-3.03,43.23,13.26l6.92-38.47s45.1-13.4,43.23,32.27c-.07,18.28-1.85,36.52-5.33,54.46h157.48s-45.53,76.94-72.04,97.83c-26.51,20.89-265.55,85.73-265.55,85.73"/>
    <path class="st5" d="M3237.63,4311.61c-21.96-37.7-33.45-80.57-33.28-124.2,2.31,0,6.48,28.82,15.71,62.39,9.22,33.57,19.6,60.8,17.58,61.81Z"/>
    <path class="st5" d="M3290.08,4278.18c-7.63-27.94-12.88-56.47-15.71-85.3v-2.45l2.45-4.18c14-27.16,30.19-53.14,48.41-77.66-11.79,28.2-25.82,55.43-41.93,81.41l-2.45,4.18v-2.31c5.45,28.46,8.54,57.33,9.22,86.31Z"/>
    <path class="st5" d="M3354.34,4253.25c-4.08-16.79-6.16-34.01-6.2-51.29v-.86c1.87-8.21,3.6-16.71,5.62-25.5,4.45-25.53,11.35-50.57,20.6-74.78-2.04,25.87-6.52,51.49-13.4,76.51l-5.91,25.21v-.86c1.66,17.17,1.42,34.47-.72,51.58Z"/>
    <path class="st2" d="M4810.31,1776.02v70.75l14.41,1058.15c1.73,122.76-102.44,222.18-233.99,223.04h0c-132.85.86-243.65-98.99-247.39-223.04-4.03-129.68-10.52-267.28-10.52-267.28,0,0-168.58-23.2-209.35-241.05-20.32-108.35-19.74-287.02-14.41-433.12,3.92-127.26,110.26-227.25,237.52-223.33,4.16.13,8.32.37,12.47.72l451.27,35.16Z"/>
    <path class="st4" d="M4192.05,2121.39c.59,15.08,12.72,27.15,27.81,27.66,14.76,1.12,27.63-9.94,28.75-24.7.04-.46.06-.92.07-1.38-.59-15.08-12.72-27.15-27.81-27.66-14.67-1.2-27.54,9.73-28.73,24.4-.05.56-.07,1.12-.08,1.68Z"/>
    <path class="st4" d="M4151.27,2055.25c3.6,3.46,24.49-12.82,54.61-13.54,30.11-.72,52.73,14.41,55.9,9.94,3.17-4.47-2.16-8.21-11.96-14.41-13.33-8.73-29.03-13.11-44.95-12.54-15.68.43-30.81,5.83-43.23,15.42-8.93,6.77-12.1,13.4-10.37,15.13Z"/>
    <path class="st4" d="M4489.87,2121.39c.59,15.08,12.72,27.15,27.81,27.66,14.76,1.12,27.63-9.94,28.75-24.7.04-.46.06-.92.07-1.38-.59-15.08-12.72-27.15-27.81-27.66-14.76-1.12-27.63,9.94-28.75,24.7-.04.46-.06.92-.07,1.38Z"/>
    <path class="st4" d="M4448.37,2052.66c3.6,3.6,24.49-12.82,54.61-13.54,30.11-.72,52.73,14.41,55.9,9.94,3.17-4.47-2.02-8.21-11.96-14.41-13.34-8.68-29.05-13.01-44.95-12.39-15.66.39-30.79,5.74-43.23,15.27-9.08,6.77-12.1,13.54-10.37,15.13Z"/>
    <path class="st4" d="M4344.92,2279.74c-16.04-4.57-32.6-7.09-49.28-7.49-7.78,0-15.13-2.02-16.57-7.2-.89-7.96.67-16,4.47-23.05l21.32-59.36c28.82-84.43,50.29-153.88,46.97-155.03-3.31-1.15-29.97,66.42-59.36,150.86l-20.32,59.79c-4.53,9.47-5.65,20.21-3.17,30.4,2.48,5.42,7.32,9.4,13.11,10.81,4.28,1.11,8.69,1.64,13.11,1.58,16.56,1.54,33.25,1.1,49.71-1.3Z"/>
    <path class="st5" d="M4333.97,2637.64c103.1-1.34,203.81-31.26,290.91-86.45,0,0-67,152.3-286.58,137.89l-4.32-51.44Z"/>
    <path class="st5" d="M4359.76,2352.07c11.26-14.98,29.45-23.09,48.12-21.47,13.53.75,26.15,7.06,34.87,17.43,8.54,10.06,9.92,24.37,3.46,35.88-9.63,11.36-25.19,15.74-39.34,11.09-14.44-4.62-27.81-12.06-39.34-21.9-3.41-2.35-6.38-5.28-8.79-8.65-2.31-3.44-2.31-7.94,0-11.38"/>
    <path class="st4" d="M4434.39,2298.18c-4.9,0-4.03,32.56-31.55,56.62s-62.39,21.47-62.53,25.94c0,2.16,7.92,6.2,22.77,6.2,19.23-.29,37.74-7.33,52.3-19.88,13.92-12.06,22.6-29.06,24.21-47.4,1.3-13.83-2.88-21.76-5.19-21.47Z"/>
    <path class="st4" d="M4437.28,1934.51c3.17,8.07,33.28,3.31,68.87,6.63,35.59,3.31,64.41,12.25,69.02,4.75,1.87-3.6-3.31-11.24-14.41-18.87-31.83-18.86-70.55-22.05-105.04-8.65-13.4,5.62-19.74,12.25-18.44,16.14Z"/>
    <path class="st4" d="M4159.91,1967.51c5.62,6.63,26.22-1.01,51.15-2.02,24.93-1.01,46.4,3.31,51.01-4.03,2.16-3.46-1.44-10.37-10.81-16.57-12.6-7.62-27.25-11.14-41.93-10.09-14.67.47-28.82,5.51-40.49,14.41-8.65,7.78-11.24,14.98-8.93,18.3Z"/>
    <path class="st4" d="M4535.11,1706.71c-58.5,77.81,2.31,187.31,69.74,258.2,67.43,70.89,149.56,151.72,131.12,247.25-21.32,110.8-172.9,181.69-150.28,292.2,8.21,40.34,40.06,74.78,40.2,115.27,0,74.35-95.96,110.37-123.62,179.38-37.89,94.52,66.42,188.75,68.01,290.62.86,57.63-31.99,111.81-33.72,169.59-3.6,118.44,136.59,205.18,251.43,176.07,114.83-29.11,193.5-141.2,218.58-257.05,25.07-115.84-12.97-278.66-31.55-395.65l198.98,46.11c37.17-35.3-13.54-72.91-21.9-123.48-20.89-126.65-104.17-233.85-144.08-356.03-34.72-106.77-34.87-221.02-50-332.26-15.13-111.23-49.71-227.08-134.57-300.41-84.87-73.34-231.83-82.42-300.56,6.34"/>
    <path class="st2" d="M4664.06,3735.42l-60.52-82.27,82.27-183.27,28.82-429.23s-59.65-15.71-65.7,51.73c-3.6,39.62-6.77,75.07-6.77,75.07l-67.72-21.76-96.39,28.82s4.32,48.99,43.23,39.33c22.92-5.8,46.55-8.22,70.17-7.2l36.89,54.18v19.45l-48.99-35.01h-96.82l-59.94,51.73s20.32,47.98,51.73,33.43c0,0-52.3,141.49-57.63,168.15,0,0-53.31,137.89,0,217.71,36.44,52.65,78.37,101.28,125.06,145.09l122.33-125.93Z"/>
    <path class="st5" d="M4688.27,3316.13c3.38-6.62,4.78-14.07,4.03-21.47-5.27-17.58-12.31-34.57-21.04-50.72-11.86-23.7-21.51-48.44-28.82-73.92,14.21,22.42,26.32,46.1,36.17,70.75,4.32,9.8,8.5,19.16,12.39,28.82,3.96,7.87,6.36,16.43,7.06,25.21.38,6.09-1.18,12.14-4.47,17.29-2.88,3.17-5.04,4.32-5.33,4.03Z"/>
    <path class="st5" d="M4663.06,3305.04c-16-6.76-30.95-15.78-44.38-26.8-23.34-16.57-41.06-31.99-39.34-34,15.26,7.92,29.74,17.28,43.23,27.95,14.99,8.97,28.62,20.03,40.49,32.85Z"/>
    <path class="st5" d="M4619.69,3386.01c-8.29-6.14-15.21-13.94-20.32-22.91-6.24-9.04-11.56-18.7-15.85-28.82-2.58-6.02-4.84-12.18-6.77-18.44-.46-2.49-1.99-4.64-4.18-5.91-2.93-1.01-5.98-1.64-9.08-1.87-19.74-2.59-38.47-5.91-53.46-7.35h1.01c-5.4,3.09-10.27,7.03-14.41,11.67-4.18,4.32-7.78,8.07-10.95,10.95-6.34,6.05-11.24,8.36-11.53,7.64s3.46-3.46,8.79-10.09l9.94-11.96c4.31-5.88,9.81-10.79,16.14-14.41h1.01c16.28.86,34.44,3.75,54.32,6.34,3.91.26,7.75,1.14,11.38,2.59,3.89,2.16,6.74,5.8,7.92,10.09,2.02,6.77,3.75,12.54,6.05,18.3,4.01,9.98,8.83,19.62,14.41,28.82,9.65,15.56,16.43,24.49,15.56,25.36Z"/>
    <path class="st5" d="M4529.63,3397.83c-.53-16,1.42-31.99,5.76-47.4,1.88-15.94,6.36-31.47,13.26-45.96.51,16.01-1.48,32.01-5.91,47.4-1.9,15.92-6.32,31.44-13.11,45.96Z"/>
    <path class="st5" d="M4602.54,3478.8c.9-4.88.25-9.92-1.87-14.41-2.7-4.72-6.84-8.46-11.81-10.66-6.71-2.4-14.04-2.4-20.75,0-8.5,3.06-16.5,7.33-23.77,12.68-8.74,6.36-18.48,11.23-28.82,14.41-13.07,3.77-27.13-.73-35.59-11.38-3.99-6.26-4.94-13.99-2.59-21.04,2.33-6.53,5.9-12.55,10.52-17.72,16.13-18.73,34.36-35.56,54.32-50.14,9.04-6.75,19.65-11.07,30.83-12.54,10.06-.85,20.14,1.47,28.82,6.63,11.72,7.23,21.58,17.1,28.82,28.82,3.14,3.9,5.62,8.28,7.35,12.97-3.61-3.39-6.85-7.16-9.65-11.24-7.76-10.49-17.57-19.31-28.82-25.94-7.73-4.12-16.5-5.88-25.21-5.04-10.03,1.62-19.49,5.74-27.52,11.96-19.15,14.61-36.73,31.17-52.45,49.42-8.21,9.22-13.54,21.18-7.64,29.83,6.81,8.12,17.72,11.55,27.95,8.79,20.32-5.48,35.3-22.04,53.17-26.08,7.93-2.47,16.49-1.96,24.06,1.44,5.57,2.86,10,7.53,12.54,13.26,2.74,10.95-1.87,16.43-1.87,15.99Z"/>
    <path class="st4" d="M5233.34,4375.58c-3.9,5.21-8.29,10.03-13.11,14.41-13.52,12.4-29.07,22.39-45.96,29.54-26.82,11.48-55.69,17.41-84.87,17.43-38.6-.04-76.75-8.24-111.95-24.06-42.37-19.28-82-44.09-117.86-73.77-39.05-31.41-79.68-65.85-121.46-103.31-44.01-39.08-84.86-81.57-122.18-127.08-39.25-49.49-74.61-101.95-105.76-156.91-6.77-11.96-13.4-23.92-20.17-35.59l-1.3-2.45,2.02-2.02,221.02-227.94,1.87-2.02,2.45,1.44c144.08,89.33,265.69,169.01,351.85,223.91l100.86,64.26,26.66,17.15,6.92,4.47,2.16,1.73s-.86,0-2.59-1.15l-7.06-4.03-27.23-16.28c-23.77-14.41-57.63-35.44-101.72-62.53-86.45-54.03-208.35-132.7-353.29-221.6h4.32l-220.31,227.37v-4.47c6.63,11.81,13.4,23.63,20.03,35.59,31.14,54.7,66.45,106.92,105.61,156.19,36.98,45.31,77.5,87.61,121.17,126.51,83.71,73.77,158.49,144.08,236.73,177.37,34.45,15.88,71.86,24.32,109.79,24.78,28.67.26,57.12-5.13,83.71-15.85,16.79-6.81,32.36-16.3,46.11-28.1,9.37-8.21,13.54-13.26,13.54-12.97Z"/>
    <path class="st4" d="M4996.18,3462.09c.46,5.13.46,10.29,0,15.42,0,11.53-.72,25.5-1.15,41.78-1.3,37.32-3.03,85.15-4.9,138.18-1.87,53.02-4.18,102.73-6.2,138.03l-2.59,41.78c-.03,5.16-.71,10.29-2.02,15.27-1.02-5.07-1.31-10.26-.86-15.42v-41.93c0-35.3,2.02-84.14,4.03-138.03,2.02-53.89,4.61-102.73,7.06-138.03.2-19.2,2.42-38.32,6.63-57.06Z"/>
    <path class="st4" d="M5178.59,3082.86c0,1.3-15.56,6.63-38.76,20.32-13.56,7.97-26.39,17.13-38.33,27.38-29.2,25.18-52.72,56.27-69.02,91.21-6.67,14.23-12.02,29.03-15.99,44.23-6.92,26.08-7.64,43.23-9.08,43.23-.74-3.9-.74-7.91,0-11.81.45-10.82,1.9-21.58,4.32-32.13,3.23-15.77,8.06-31.17,14.41-45.96,16.04-36.26,40.31-68.28,70.89-93.51,12.44-10.3,25.91-19.28,40.2-26.8,9.53-5.18,19.51-9.48,29.83-12.82,3.65-1.69,7.54-2.81,11.53-3.31Z"/>
    <path class="st4" d="M4054.01,3885.7c-4.06-7.3-7.53-14.91-10.37-22.77-6.2-14.41-15.13-36.45-24.93-63.54-19.31-53.89-45.67-130.97-45.96-220.02,0-21.58,1.77-43.12,5.33-64.41,3.79-19.74,8.6-39.26,14.41-58.5,10.66-36.6,20.75-69.16,26.22-97.26,4.72-22.1,6.51-44.72,5.33-67.29-.86-15.85-3.03-24.64-2.16-24.78.83,2,1.46,4.07,1.87,6.2,1.53,6.06,2.59,12.22,3.17,18.44,2.3,22.79,1.33,45.78-2.88,68.3-4.9,28.82-14.41,61.67-24.93,98.27-4.9,18.3-9.94,37.61-13.4,57.63-3.38,20.91-5.07,42.07-5.04,63.25,0,87.46,25.5,164.11,43.23,218.29,9.08,27.23,17.29,49.13,22.62,64.26,3.15,7.75,5.65,15.75,7.49,23.92Z"/>
    <path class="st4" d="M4759.45,4471.11c-2,1.29-4.19,2.26-6.48,2.88l-18.73,6.92c-16.28,5.91-40.34,13.4-70.31,21.61-29.97,8.21-66.13,16.43-106.62,23.77-40.49,7.35-85.3,12.68-132.7,15.99-47.4,3.31-92.65,3.17-133.71,1.73-41.06-1.44-77.95-5.19-108.78-9.51s-55.62-8.36-72.04-12.1l-19.45-4.32c-2.33-.39-4.61-1.07-6.77-2.02,2.34-.38,4.72-.38,7.06,0l19.74,3.03c17.15,2.88,41.93,6.34,72.04,9.65,30.11,3.31,67.58,6.34,108.5,7.92,40.92,1.58,86.45.72,132.99-2.31s91.64-8.93,131.98-15.42c40.34-6.48,76.51-14.41,106.48-22.04,29.97-7.64,54.18-14.41,70.75-19.31l19.16-5.48c2.24-.67,4.57-1.01,6.92-1.01Z"/>
    <path class="st4" d="M4003.15,4148.22c-1.08,7.57-3.11,14.98-6.05,22.04-4.75,14.41-12.25,33.86-21.47,58.35-18.73,49.13-45.1,116.56-72.91,191.63-27.81,75.07-51.73,144.08-67.86,193.36l-18.87,59.22c-1.88,7.4-4.39,14.63-7.49,21.61.94-7.57,2.53-15.04,4.75-22.33,3.31-14.41,9.08-34.72,16.43-60.08,14.41-50.29,38.04-119.16,65.99-194.37,27.95-75.21,55.04-142.35,74.92-191.06l23.77-57.63c5.62-13.26,8.36-20.89,8.79-20.75Z"/>
    <path class="st11" d="M5011.31,6914.19c-.18-1.77-.18-3.56,0-5.33v-15.56c0-14.41-.86-34-1.44-59.65-.86-51.87-1.44-126.79-1.3-219.58,0-185.44,2.59-441.47,0-724.31-2.59-282.84-11.53-538.87-28.82-723.45-4.61-46.11-7.78-87.89-13.11-124.2-2.31-18.25-4.47-35.25-6.48-51.01-1.01-7.78-1.87-15.27-2.74-22.33-.86-7.06-2.45-14.41-3.6-20.17-4.18-25.21-7.49-44.95-9.94-58.93-1.01-6.34-1.73-11.53-2.31-15.27-.22-1.77-.22-3.56,0-5.33.61,1.68,1.04,3.42,1.3,5.19l3.17,14.41c2.59,14.41,6.48,33.57,11.24,58.64,1.3,6.48,2.59,13.11,3.89,20.17s2.02,14.41,3.17,22.48c2.16,15.71,4.47,32.56,7.06,50.86,5.76,36.45,9.37,78.24,14.41,124.34,18.59,184.57,28.82,440.9,30.98,723.88,2.16,282.98-1.15,539.02-2.45,724.31,0,92.36-.86,167.28-1.01,219.58v75.21c-.38,2.1-1.05,4.14-2.02,6.05Z"/>
    <path class="st4" d="M4850.08,1755.27c-4.65-38.79,16.24-76.15,51.73-92.5,35.57-15.05,76.16-12.43,109.5,7.06,71.81,39.67,97.86,130.05,58.19,201.86-8.25,14.94-19.02,28.34-31.82,39.62-19.85,18.74-46.18,29.07-73.48,28.82-23.55-3.44-46.41-10.59-67.72-21.18-22.33-8.5-47.84-14.41-69.3-3.75"/>
    <path class="st12" d="M4948.34,1939.99c-9.94-36.88-23.25-72.76-39.77-107.2-18.89-33.18-40.89-64.49-65.7-93.51,9.55,6.22,18.06,13.9,25.21,22.77,37.11,40.8,63.2,90.39,75.79,144.08,3.22,10.99,4.72,22.41,4.47,33.86Z"/>
    <path class="st11" d="M4912.75,1850.37c-4.9,4.09-10.21,7.67-15.85,10.66-15.19,8.58-31.1,15.81-47.55,21.61-54.71,19.25-113.43,24.21-170.6,14.41-31.46-5.39-61.95-15.39-90.48-29.68-23.77-11.35-44.1-28.8-58.93-50.57-9.77-14.92-15.12-32.31-15.42-50.14-.13-4.84.36-9.69,1.44-14.41.72-3.17,1.3-4.75,1.58-4.75s-1.01,6.92,0,18.87c1.38,17.03,7.25,33.38,17,47.4,23.63,36.6,81.41,64.26,146.1,75.79,56.07,9.44,113.58,5.29,167.71-12.1,22.18-7.72,43.88-16.77,64.98-27.09Z"/>
    <path class="st11" d="M4927.88,1928.17s-2.02,3.6-6.63,9.37c-6.64,7.93-13.91,15.31-21.76,22.04-52.17,45.72-119.39,70.55-188.75,69.74-10.33.05-20.65-.82-30.83-2.59-7.35-1.3-11.24-2.16-11.09-2.74s16.14.86,41.93,0c33.56-1.16,66.73-7.63,98.27-19.16,31.26-11.78,60.44-28.46,86.45-49.42,20.89-16.57,31.41-28.67,32.42-27.23Z"/>
    <path class="st11" d="M5064.04,1769.68c1.77,9.3.76,18.92-2.88,27.66-14.05,45.66-59.59,74-106.77,66.42-9.41-.76-18.44-4.1-26.08-9.65,0-1.15,10.23,3.03,26.66,4.32,43.94,4.21,85.26-21.52,100.86-62.82,6.48-14.84,7.06-25.94,8.21-25.94Z"/>
  </g>
  <g id="freepik--Table--inject-62">
    <polygon class="st11" points="6595.36 6385.98 1176.66 6385.98 1162.54 6558.6 2213.2 6558.6 2213.2 6919.53 2314.78 6919.53 2314.78 6558.6 6170.6 6558.6 6170.6 6921.11 6272.04 6921.11 6272.04 6558.6 6595.36 6558.6 6595.36 6385.98"/>
  </g>
  <g id="freepik--character-4--inject-62">
    <path class="st2" d="M5469.2,5059.84c0-7.78-110.94-501.56-119.45-538.87l93.8-138.46s34.29-32.56,23.63-47.12c-10.66-14.55-28.82-16.43-49.13-3.17-12.82,8.5-80.11,44.09-80.11,44.09,0,0-25.5-200.42-30.83-214.83-5.33-14.41-19.31-21.32-28.82-10.81-9.51,10.52-6.92,146.39-6.92,146.39,0,0-54.03-167.43-65.56-174.05-10.1-6.2-23.32-3.04-29.53,7.06-.91,1.49-1.64,3.08-2.17,4.75,0,6.63,37.03,186.16,37.03,186.16,0,0-86.45-163.68-100.86-158.49-11.52,2.89-19.64,13.19-19.74,25.07-1.3,11.81,57.63,184.57,57.63,184.57,0,0-65.99-126.65-77.81-122.62-12.02,6.61-18.33,20.28-15.56,33.72,1.73,11.53,83.86,261.22,99.13,307.19h0l34.87,590.74,237.31,512.36,213.96-299.41s-170.88-326.06-170.88-334.27Z"/>
    <path class="st2" d="M5775.09,5210.26s-28.82,417.84,27.09,483.26c55.9,65.41,170.02,48.41,170.02,48.41l74.06-355.74-271.17-175.93Z"/>
    <path class="st12" d="M5648.59,5395.84l108.35,152.73,244.94,128.52,557.03,292.06c59.07,30.99,87.88,99.5,68.73,163.39l-19.31,64.41-208.92,516.69,10.66,207.48-1111.9-1.58s249.99-812.78,257.91-864.5c7.92-51.73-40.06-120.45-40.06-120.45,0,0-144.08-100.86-144.08-112.53s19.88-406.03,276.64-426.2Z"/>
    <path class="st4" d="M5622.37,6259.19c-1.44,0,0-19.88-2.31-51.44-1.61-18.52-4.5-36.91-8.65-55.04-5.21-22.16-11.85-43.97-19.88-65.27-15.21-38.42-33.82-75.4-55.62-110.51-16.71-27.09-28.1-43.23-27.09-43.23,3.5,3.05,6.6,6.54,9.22,10.37,5.76,6.92,13.4,17.43,22.33,30.83,23.29,34.76,42.63,72.03,57.63,111.09,8.24,21.61,14.84,43.82,19.74,66.42,3.87,18.51,6.28,37.3,7.2,56.19v21.76c.05,5.49-.24,10.97-.86,16.43,0,4.19-.59,8.36-1.73,12.39Z"/>
    <path class="st4" d="M6255.47,6656c-6.9,3.33-14.09,6.03-21.47,8.07-14.41,4.75-34.29,11.24-59.51,19.02-50.29,15.71-120.17,36.17-197.83,57.63-77.66,21.47-148.26,38.76-199.56,50.72-25.65,6.05-46.54,10.66-60.95,13.69-7.4,2.02-14.97,3.32-22.62,3.89,7.13-2.79,14.44-5.05,21.9-6.77l60.37-15.99,198.98-52.88,198.26-55.04,60.08-16.71c7.29-2.46,14.75-4.34,22.33-5.62Z"/>
    <path class="st8" d="M6618.85,6142.77l-9.08-2.88c-8.73-3.2-17.63-5.95-26.66-8.21-34.54-8.98-70.33-12.09-105.9-9.22-56.41,4.32-110.49,24.28-156.19,57.63-28.49,20.66-53.33,45.93-73.48,74.78-22.99,31.91-38.77,68.44-46.25,107.05-3.87,20.63-3.33,41.84,1.58,62.24,5.03,21.23,17.31,40.03,34.72,53.17,39.13,26.62,90.55,26.62,129.68,0,39.57-31.55,57.83-82.81,47.12-132.27-11.71-52.21-47.94-95.53-97.26-116.28-51.45-22.42-109.19-25.89-162.96-9.8-27.86,7.42-54.68,18.31-79.82,32.42-25.8,14.1-49.96,31.01-72.04,50.43-45.46,40.02-81.39,89.69-105.18,145.38-12.04,28.45-20.37,58.33-24.78,88.9-2.2,15.31-3.11,30.78-2.74,46.25.08,15.29,4.42,30.26,12.54,43.23,8.8,12.2,22.25,20.23,37.17,22.19,15.09,2.36,30.5,1.52,45.24-2.45,29.58-7.66,55.5-25.52,73.19-50.43,34.84-50.83,28.35-119.3-15.42-162.67-21.18-20.16-47.17-34.54-75.5-41.78-27.69-7.72-56.46-10.79-85.15-9.08-55.94,3.54-110.36,19.65-159.21,47.12-46.6,25.97-87.16,61.52-119.01,104.32-30.4,41.21-52.3,89.48-50.57,137.89.78,47.4,30.77,89.38,75.36,105.47,20.88,6.19,43.37,3.7,62.39-6.92,18.1-10.17,33.06-25.12,43.23-43.23,17.81-35.11,22.51-75.42,13.26-113.68-6.7-34.48-19.12-67.59-36.74-97.98-32.71-56.91-85.15-91.35-131.69-93.51-20.42-1.51-40.93,1.23-60.23,8.07-14.15,5.07-27.17,12.85-38.33,22.91-8.99,8.38-16.62,18.1-22.62,28.82,0,0,1.3-2.88,4.18-8.5,4.77-8.08,10.63-15.45,17.43-21.9,27.29-24.32,63.45-36.22,99.85-32.85,47.55,1.73,101.58,36.6,135.01,94.23,18.03,30.77,30.83,64.32,37.89,99.27,9.63,39.44,4.88,81.03-13.4,117.28-10.73,19.1-26.54,34.86-45.67,45.53-20.36,11.42-44.47,14.12-66.86,7.49-47.05-16.67-78.85-60.75-79.82-110.66-2.02-50.57,20.6-99.99,51.44-142.07,67.19-90.49,170.67-147,283.12-154.6,29.5-1.86,59.11,1.2,87.6,9.08,29.43,7.6,56.47,22.46,78.67,43.23,46.29,45.92,53.2,118.34,16.43,172.18-18.77,26.36-46.21,45.28-77.52,53.46-15.78,4.25-32.27,5.13-48.41,2.59-16.88-2.29-32.09-11.41-42.07-25.21-9.09-14.01-14.08-30.28-14.41-46.97-.35-15.95.61-31.9,2.88-47.69,4.42-31.23,12.9-61.74,25.21-90.77,24.54-56.56,61.42-106.92,107.92-147.4,22.54-19.81,47.24-37.02,73.63-51.29,25.64-14.39,52.99-25.47,81.41-33,55.38-16.43,114.78-12.75,167.71,10.37,51.31,21.76,88.9,67.03,100.86,121.46,11.14,51.95-8.32,105.7-50.14,138.46-41.29,28.05-95.6,27.77-136.59-.72-18.33-14.02-31.3-33.91-36.74-56.34-4.93-21.19-5.42-43.16-1.44-64.55,7.86-39.32,24.13-76.48,47.69-108.93,20.53-29.18,45.87-54.66,74.92-75.36,76.84-54.56,174.19-71.55,264.97-46.25,12.18,3.21,24.08,7.4,35.59,12.54Z"/>
    <path class="st8" d="M5874.8,5688.76c-7.6,13.65-17.33,26.01-28.82,36.6-30.15,30.09-68.66,50.43-110.51,58.35-28.96,5.54-58.79,4.55-87.31-2.88-32.76-8.67-63.05-24.85-88.47-47.26-13.69-12.07-25.76-25.87-35.88-41.06-10.98-15.81-18.99-33.48-23.63-52.16-5.64-19.83-3.15-41.09,6.92-59.07,11.95-18.08,32.21-28.91,53.89-28.82,20.83-.36,41.35,5.13,59.22,15.85,17.04,10.74,31.75,24.8,43.23,41.35,20.61,31.61,30.69,68.93,28.82,106.62-.8,17.42-4.05,34.64-9.65,51.15-5.52,15.41-13.18,29.96-22.77,43.23-17.87,23.5-41.15,42.33-67.86,54.9-38.5,18.35-81.65,24.58-123.77,17.87-15.3-2.13-30.21-6.5-44.23-12.97,14.67,4.28,29.58,7.65,44.67,10.09,41.41,5.43,83.5-1.43,121.03-19.74,25.68-12.53,48.01-31.01,65.13-53.89,9.12-12.9,16.4-27.01,21.61-41.93,5.21-15.99,8.21-32.62,8.93-49.42,1.67-36.14-8.12-71.89-27.95-102.16-10.7-15.63-24.48-28.92-40.49-39.05-16.66-9.94-35.8-14.93-55.18-14.41-19.1-.34-37.07,9.05-47.69,24.93-9.09,16.34-11.27,35.64-6.05,53.6,4.45,17.76,12.01,34.59,22.33,49.71,9.73,14.76,21.35,28.18,34.58,39.91,24.54,21.85,53.77,37.77,85.44,46.54,27.64,7.37,56.56,8.6,84.72,3.6,41.12-7.37,79.18-26.6,109.5-55.33,10.84-10.69,20.95-22.1,30.26-34.15Z"/>
    <path class="st8" d="M6386.01,6876.16c-.86,1.15-12.54-8.07-34.44-16.57-57.79-23.52-123.95-11.81-170.16,30.11-17.58,15.56-25.36,28.82-26.51,27.38-1.15-1.44,1.15-3.6,4.75-9.22,5.18-8.02,11.28-15.42,18.15-22.04,22.72-22.46,51.7-37.53,83.14-43.23,31.43-5.38,63.75-1.21,92.79,11.96,8.68,3.86,16.9,8.7,24.49,14.41,5.04,4.18,7.78,6.92,7.78,7.2Z"/>
    <g class="st9">
      <path d="M6227.52,5722.48c-108.21-47.55-229.67-52.88-343.93-105.61l-133.57-70.02c12.97,20.46,49.56,37.46,58.35,68.44,6.51,31.71,7.78,64.27,3.75,96.39-4.46,86.15,3.01,172.51,22.19,256.61,11.96,52.3,34.72,110.51,85.59,128.09,33.86,11.67,71.18,1.58,105.61-8.5,153.59-45.24,337.01-94.09,490.61-139.33-45.82-109.07-180.54-178.66-288.6-226.07Z"/>
    </g>
    <path class="st4" d="M6577.5,5227.69c-16.71-80.54-40.92-162.81-95.1-224.77-62.96-72.04-160.22-108.21-256.04-114.26-82.13-5.19-98.41-45.53-182.27-31.84-32.28,5.62-63.16,17.46-90.92,34.87-117.43,72.04-183.13,190.48-217.42,329.81-12.82,52.16-13.4,117.14,30.11,148.55,31.55,22.77,76.22,19.74,108.06,42.07,35.3,24.93,44.38,74.49,37.03,117.14-7.35,42.65-27.52,81.84-39.48,123.34-28.82,100.86-7.92,208.06,13.26,310.64l612.07-17.72c23.63-.72,49.42-2.31,66.57-18.59,13.14-15.25,21.11-34.26,22.77-54.32,38.5-213.54,35.56-432.49-8.65-644.92Z"/>
    <path class="st11" d="M5781.58,5240.37c-.23-5.66.25-11.32,1.44-16.86.72-6.54,1.83-13.04,3.31-19.45,1.73-7.64,3.17-16.28,6.05-25.65,5.99-22.08,13.7-43.67,23.05-64.55,11.55-25.49,25.29-49.93,41.06-73.05,16.14-22.97,34.17-44.56,53.89-64.55,16.2-16.14,33.64-30.97,52.16-44.38,7.64-5.91,15.27-10.52,21.76-14.41,5.49-3.65,11.16-7.02,17-10.09,4.79-3,9.91-5.42,15.27-7.2.72,1.15-20.46,12.68-50.86,36.31-17.83,13.8-34.68,28.82-50.43,44.95-19.1,19.93-36.68,41.27-52.59,63.83-15.52,22.92-29.25,47.01-41.06,72.04-9.47,20.47-17.56,41.55-24.21,63.11-11.24,36.31-14.41,60.23-15.85,59.94Z"/>
    <path class="st11" d="M5854.48,5326.97c-1.17-13.64-.73-27.38,1.3-40.92,3.16-32.87,8.89-65.43,17.15-97.4,8.24-31.95,18.94-63.21,31.99-93.51,4.83-12.83,11.11-25.06,18.73-36.45-3.88,13.1-8.7,25.91-14.41,38.33-23.07,61.31-39.45,124.93-48.84,189.76-1,13.52-2.97,26.96-5.91,40.2Z"/>
    <path class="st11" d="M6453.01,5835.73c-1.25-3.16-2.17-6.45-2.74-9.8-1.73-6.48-3.6-16.28-5.91-28.82-5.55-35.61-8.4-71.59-8.5-107.63,0-45.53,3.03-99.85,7.92-159.79,6.43-64.78,9.41-129.85,8.93-194.95-.26-64.94-11.96-129.32-34.58-190.19-19.3-49.36-49.15-93.91-87.46-130.54-25.94-24.58-56.44-43.86-89.76-56.77-9.11-3.36-18.39-6.25-27.81-8.65-3.36-.67-6.64-1.68-9.8-3.03,3.4.27,6.77.8,10.09,1.58,9.79,1.65,19.43,4.11,28.82,7.35,34.28,12.01,65.71,30.94,92.36,55.62,39.54,36.68,70.4,81.72,90.34,131.84,23.27,61.57,35.33,126.82,35.59,192.64.53,65.35-2.65,130.68-9.51,195.67-5.33,59.94-9.22,113.83-9.51,159.21-.44,35.83,1.63,71.65,6.2,107.2,1.73,12.54,3.17,22.33,4.32,28.82.73,3.36,1.07,6.79,1.01,10.23Z"/>
    <path class="st11" d="M6395.81,5826.65c-2.92-15.2-4.56-30.63-4.9-46.11-1.73-28.82-2.88-68.01-2.16-111.81.72-43.8,3.75-83.14,6.63-111.52.81-15.5,3.07-30.89,6.77-45.96.51,15.43.03,30.88-1.44,46.25-1.58,28.82-3.46,67.86-4.47,111.38-1.01,43.51,0,82.99,0,111.52,1.03,15.41.89,30.87-.43,46.25Z"/>
  </g>
  <g id="freepik--character-2--inject-62">
    <path class="st2" d="M3638.33,5424.08c5.96,79.15,11.81,158.2,17.58,237.16-59.65,10.95-121.61,17.72-180.54,3.6-58.93-14.12-115.27-52.59-136.16-109.5-4.68-10.79-6.08-22.71-4.03-34.29,2.54-11.64,11.99-20.52,23.77-22.33"/>
    <path class="st4" d="M3798.12,5171.21c9.37-28.82,48.84-46.68,49.13-77.08s-41.35-48.99-53.6-78.53c-18.44-44.52,36.16-91.78,23.49-137.89-14.41-55.33-110.08-61.24-127.8-115.27-7.35-22.62,0-51.01-18.44-67.29-23.92-21.32-65.7,0-95.82-12.82-27.81-12.1-35.01-49.13-62.82-61.52-27.81-12.39-62.1,8.36-90.05,24.35-8.36,4.9-18.87,11.09-29.68,16.71-47.4-15.56-122.9-13.4-155.32,11.96-38.18,29.68-67.29,69.45-109.79,93.51-37.32,21.32-83.86,29.83-113.68,59.94-53.02,53.6-24.49,141.49-51.58,209.93-9.22,23.34-24.93,44.09-34.87,67.14-9.94,23.05-12.97,51.29,2.31,72.04,15.27,20.75,47.26,32.27,47.84,57.63.58,25.36-31.55,42.36-28.82,66.57s42.22,32.56,59.07,53.89c22.04,27.66,0,70.89,19.02,100.86,20.89,31.84,71.18,25.07,109.94,34.29,67.58,15.99,117.72,89.62,186.3,78.53,26.22-4.32,48.84-21.04,75.07-25.21,35.44-5.62,69.88,12.25,105.47,16.57,64.26,7.92,124.34-27.95,177.66-62.39,27.38-17.58,56.77-38.04,63.83-68.3,6.48-27.38-6.77-57.63,7.92-82.85,14.7-25.21,47.26-30.83,59.36-54.46,19.02-38.47-26.66-81.26-14.12-120.31Z"/>
    <path class="st11" d="M3112.71,4887.65c-.93-1.72-1.61-3.56-2.02-5.48-1.22-5.43-1.7-11.01-1.44-16.57,1.38-20.79,10.47-40.32,25.5-54.75,22.37-21.03,50.71-34.62,81.12-38.9,18.45-3.05,37.36,1.18,52.73,11.81,7.85,6.3,13.91,14.55,17.58,23.92,3.75,9.89,3.75,20.8,0,30.69-3.84,10.34-12.7,18-23.49,20.32-5.51,1.24-11.28.47-16.28-2.16-4.86-2.78-8.47-7.32-10.09-12.68-2.47-9.91-.58-20.39,5.19-28.82,5.33-7.67,12.72-13.66,21.32-17.29,30.02-12.38,64.6-1.6,82.27,25.65,11.03,17.64,15.47,38.62,12.54,59.22-.56,5.49-1.72,10.9-3.46,16.14-1.3,3.6-2.02,5.33-2.31,5.33s2.02-7.78,2.88-21.76c1.55-19.72-3.52-39.39-14.41-55.9-7.39-11.15-18.29-19.52-30.98-23.77-14.39-5.11-30.17-4.65-44.23,1.3-7.16,3.14-13.38,8.11-18.01,14.41-4.51,6.67-6.03,14.93-4.18,22.77,2.29,7.51,10.17,11.8,17.72,9.65,8.34-1.78,15.19-7.71,18.15-15.71,4.78-17.11-1.39-35.39-15.56-46.11-13.86-9.6-30.92-13.43-47.55-10.66-29.01,3.88-56.2,16.32-78.09,35.73-14.65,13.39-24.01,31.59-26.37,51.29-.06,7.47.42,14.93,1.44,22.33Z"/>
    <path class="st11" d="M3043.26,5166.17c-3.03-4.31-5.09-9.23-6.05-14.41-9.24-35.97,3.44-74.02,32.42-97.26,21.77-17.01,49.7-24.07,76.94-19.45l-4.32,4.32c-1.59-10.51-1.59-21.19,0-31.7,4.49-30.98,21.53-58.76,47.12-76.8,35.98-23.62,82.44-24.07,118.87-1.15,3.81,2.51,7.42,5.3,10.81,8.36,2.16,2.16,3.31,3.31,3.17,3.46-5.3-2.79-10.45-5.87-15.42-9.22-14.22-7.76-29.95-12.38-46.11-13.54-23.82-2-47.6,4.32-67.29,17.87-23.51,17.22-39.09,43.19-43.23,72.04-1.51,9.79-1.51,19.75,0,29.54l.72,5.19-5.04-1.01c-25.39-4.47-51.5,1.85-72.04,17.43-16.45,12.48-28.02,30.32-32.71,50.43-3.25,13.41-3.59,27.36-1.01,40.92,1.73,9.65,3.17,14.7,3.17,14.99Z"/>
    <path class="st11" d="M3543.09,4771.24c0,1.15-10.09-1.87-25.94-2.59-42.08-2.62-82.35,17.43-105.61,52.59-8.93,13.11-12.39,22.77-13.54,22.33.87-9.03,3.99-17.7,9.08-25.21,22.31-39.01,65.93-60.74,110.51-55.04,9.04.4,17.83,3.13,25.5,7.92Z"/>
    <path class="st11" d="M3751.87,5152.34s2.74-5.33,6.63-14.41c5.19-13.78,7.21-28.56,5.91-43.23-1.46-21.55-10.8-41.8-26.22-56.91-19.48-17.91-45.73-26.57-72.04-23.77-12.22,1.35-24.03,5.17-34.72,11.24l-7.64,4.61,2.31-8.65c5.07-21.18-.28-43.51-14.41-60.08-11.47-13.18-27.8-21.14-45.24-22.04-11.67-.69-23.33,1.43-34,6.2-3.74,2.07-7.59,3.95-11.53,5.62,2.82-3.43,6.36-6.18,10.37-8.07,10.8-5.93,22.99-8.86,35.3-8.5,19.04.13,37.14,8.3,49.85,22.48,16.04,18.05,22.28,42.78,16.71,66.28l-5.48-4.18c11.58-6.73,24.44-10.95,37.75-12.39,28.43-3,56.75,6.58,77.52,26.22,27.43,28.18,34.65,70.35,18.15,106.05-1.73,3.72-3.86,7.25-6.34,10.52-1.73,2.02-2.59,3.17-2.88,3.03Z"/>
    <path class="st12" d="M2979.72,6488.14s-177.94,35.88-204.6,16.86c-26.66-19.02-125.35-83.57-110.22-171.03,15.13-87.46,197.68-710.48,235.58-756.15,37.89-45.67,76.08-91.2,152.01-87.31,75.93,3.89,573.74,110.08,573.74,110.08,0,0,205.18-11.38,246.96,19.02s136.88,87.46,136.88,193.79-21.04,835.69-21.04,835.69l55.33,267.85h-1095.04l30.55-428.79"/>
    <path class="st4" d="M2979.72,6488.14c-2.16,0-15.27-144.08-28.82-323.47-13.54-179.38-23.77-324.04-21.76-324.19s15.27,144.08,28.82,323.61c13.54,179.53,23.77,323.9,21.76,324.04Z"/>
    <path class="st8" d="M4008.63,5794.95c-3.84-.06-7.65-.55-11.38-1.44l-32.56-5.76-119.45-21.47c-100.86-17.87-240.48-41.06-395.37-62.82-154.89-21.76-295.52-37.46-397.53-47.98l-120.74-12.1-32.85-3.31c-3.84-.22-7.65-.79-11.38-1.73,3.84-.32,7.69-.32,11.53,0l33,2.02c28.82,1.87,69.88,5.19,121.03,9.8,102.16,9.08,243.07,24.21,397.96,45.82,154.89,21.61,294.65,45.67,395.37,64.98,50.29,9.65,91.06,17.87,119.01,23.92l32.27,7.06c3.76.78,7.46,1.79,11.09,3.03Z"/>
    <path class="st8" d="M3989.03,6060.5c-3.59.41-7.22.41-10.81,0l-30.69-.72c-26.8,0-65.41-2.45-113.25-4.75-95.38-4.9-227.22-13.54-372.46-26.8-145.24-13.26-276.5-28.82-371.3-41.35-47.4-6.2-85.73-11.67-112.1-15.71l-30.4-4.9c-3.57-.37-7.09-1.09-10.52-2.16,3.62-.11,7.24.13,10.81.72l30.55,3.46,112.39,13.4c94.81,11.24,226.07,25.79,371.3,39.05,145.24,13.26,276.79,22.77,372.17,28.82l112.82,7.2,30.83,2.16c3.58.32,7.14.85,10.66,1.58Z"/>
    <path class="st8" d="M4005.74,6308.32c-3.32,1.06-6.75,1.74-10.23,2.02l-29.68,4.47c-25.65,3.75-62.96,8.21-109.22,12.97-92.36,9.37-220.74,18.01-362.52,18.01s-270.16-8.5-362.66-17.87c-46.25-4.61-83.57-9.08-109.22-12.82l-29.68-4.32c-3.44-.48-6.86-1.16-10.23-2.02,3.5-.38,7.02-.38,10.52,0l29.68,3.03c25.79,2.74,63.25,6.48,109.5,10.52,92.36,7.92,220.45,15.56,362.08,15.56s269.58-7.78,362.08-15.85c46.11-4.03,83.57-7.78,109.36-10.66l29.68-2.88c3.49-.37,7.02-.42,10.52-.14Z"/>
    <path class="st8" d="M3986.29,6674.87c-3.4.78-6.89,1.11-10.37,1.01l-29.68,1.58-109.22,3.6c-92.36,2.59-219.87,5.04-360.21,5.91-140.34.86-268.57,0-360.21-3.75-46.11-1.58-83.57-3.03-109.22-4.9l-29.68-2.16c-3.49-.07-6.97-.51-10.37-1.3,3.45-.25,6.92-.25,10.37,0h29.83c25.79,1.01,63.11,1.73,109.22,2.74,92.21,1.58,219.73,2.16,360.21,1.3l360.21-3.6,109.36-1.3h29.68c3.38.02,6.75.31,10.09.86Z"/>
    <path class="st8" d="M2954.08,6170.87c-39.04-7.82-77.54-18.12-115.27-30.83-38.37-10.27-76.06-22.98-112.82-38.04,39.04,7.83,77.53,18.13,115.27,30.83,38.38,10.25,76.07,22.96,112.82,38.04Z"/>
  </g>
  <g id="freepik--character-1--inject-62">
    <path class="st1" d="M1363.97,5667.15c-3.6-84.87-77.08-237.74-107.34-388.02-15.42-76.8-24.64-145.09,24.93-205.9,41.93-51.44,100.86-86.45,158.49-119.01,92.07-52.3,189.33-103.74,294.94-109.5,68.87-3.75,143.22,15.56,187.31,68.58,36.17,43.23,46.4,102.59,53.46,158.49,11.93,93.45,18.62,187.49,20.03,281.68,2.6,48.96-2.26,98.03-14.41,145.52-12.5,47.91-43.62,88.84-86.45,113.68-37.46,19.45-82.13,21.18-119.59,40.63-37.46,19.45-65.13,72.04-37.32,103.16l-247.82,67.72-126.22-157.05Z"/>
    <path class="st4" d="M1312.24,5543.38c25.75,53.73,72.25,94.66,128.81,113.39,57.45,17.85,120.06,3.24,163.68-38.18,24.35-24.93,38.76-57.63,55.33-88.32,16.57-30.69,37.03-61.52,68.3-77.23,31.27-15.71,75.79-10.81,93.08,19.6,5.76,9.51,9.37,21.61,19.31,26.66,13.8,4.71,28.82-2.55,33.72-16.28,4.16-13.43,4.51-27.74,1.01-41.35-10.77-51.18-16.42-103.31-16.86-155.61,2.02-52.16,17.15-105.9,53.02-144.08,27.52-28.82,64.84-46.97,97.69-69.88,32.85-22.91,63.69-55.62,66.42-95.67,2.45-35.73-18.44-69.59-44.95-93.8-57.63-52.73-285.14-93.37-357.76-63.83,0,0-305.17,132.7-320.15,143.36-14.98,10.66-125.06,49.42-122.47,183.85,2.59,134.43,81.84,397.38,81.84,397.38Z"/>
    <path class="st1" d="M1363.97,5667.15c-3.6-84.87-77.08-237.74-107.34-388.02-15.42-76.8-24.64-145.09,24.93-205.9,41.93-51.44,100.86-86.45,158.49-119.01,92.07-52.3,189.33-103.74,294.94-109.5,68.87-3.75,143.22,15.56,187.31,68.58,36.17,43.23,46.4,102.59,53.46,158.49,11.93,93.45,18.62,187.49,20.03,281.68,2.6,48.96-2.26,98.03-14.41,145.52-12.5,47.91-43.62,88.84-86.45,113.68-37.46,19.45-82.13,21.18-119.59,40.63-37.46,19.45-65.13,72.04-37.32,103.16l-247.82,67.72-126.22-157.05Z"/>
    <path class="st4" d="M2080.78,4874.26c-14.33-14.48-37.68-14.61-52.16-.28-.7.69-1.37,1.41-2.01,2.16,20.49-27.33,14.94-66.1-12.39-86.59-27.33-20.49-66.1-14.94-86.59,12.39h0c12.66-27.57,3.81-60.25-21.04-77.66-24.91-16.24-55.76-20.52-84.15-11.67-28.02,8.94-54.29,22.64-77.66,40.49-.57-19.87-12.03-37.81-29.83-46.68-17.58-8.56-37.16-12.14-56.62-10.37-76.95,4.1-146.56,46.96-184.86,113.83-54.63-21.97-116.73,4.5-138.71,59.14-9.84,24.46-10.26,51.69-1.2,76.45-41.64,8.61-71.36,45.51-70.89,88.04-22.95,33-34.3,72.68-32.27,112.82,3.17,134.72,81.84,397.38,81.84,397.38,25.75,53.73,72.25,94.66,128.81,113.39,57.45,17.85,120.06,3.24,163.68-38.18,24.35-24.93,38.76-57.63,55.33-88.32,16.57-30.69,37.17-61.52,68.3-77.23,31.12-15.71,67-4.9,100.86,4.9,30.4,8.79,30.4-10.95,32.27-34.15l-2.59-138.18c2.02-52.16,17.15-105.9,53.02-144.08,27.52-28.82,64.84-46.97,97.69-69.88s63.69-55.62,66.42-95.67c.36-5.83.07-11.67-.86-17.43,6.65-7.94,11.92-16.96,15.56-26.66,7.92-19.63,4.07-42.05-9.94-57.92Z"/>
    <path class="st11" d="M1672.31,5101.62c-.3,4.98-1.52,9.87-3.6,14.41-13.45,33.58-45.81,55.76-81.98,56.19-27.1.23-52.95-11.41-70.75-31.84h5.91c-6.22,9.16-13.86,17.29-22.62,24.06-24.58,18.86-55.88,26.68-86.45,21.61-24.5-4.71-46.51-17.99-62.1-37.46-10.52-12.73-17.83-27.8-21.32-43.95-.98-4.36-1.56-8.79-1.73-13.26v-4.61s1.15,6.2,4.18,17.15c4.54,15.22,12.25,29.31,22.62,41.35,15.59,18.06,37.09,30.01,60.66,33.72,28.41,4.17,57.3-3.31,80.11-20.75,8.06-6.29,15.06-13.83,20.75-22.33l2.74-4.03,3.17,3.75c16.3,18.8,39.81,29.8,64.69,30.26,20.06.31,39.56-6.65,54.9-19.6,10.36-8.48,18.76-19.1,24.64-31.12,4.32-8.65,5.62-13.69,6.2-13.54Z"/>
    <path class="st11" d="M1870.42,5010.41c4.66,7.3,5.67,16.35,2.74,24.49-2.17,9.07-6.75,17.38-13.26,24.06-8,7.85-17.95,13.42-28.82,16.14-19.84,4.16-40.49,2.05-59.07-6.05-7.83-2.39-15.09-6.36-21.32-11.67,7.9,1.37,15.63,3.59,23.05,6.63,17.84,6.1,36.97,7.39,55.47,3.75,9.89-2.42,18.98-7.39,26.37-14.41,6.04-5.59,10.55-12.64,13.11-20.46,1.64-7.37,2.22-14.94,1.73-22.48Z"/>
    <path class="st11" d="M2011.62,4961.14c1.32,8.28-.05,16.76-3.89,24.21-15.4,39.7-59.59,59.94-99.71,45.67-8.13-2-15.43-6.49-20.89-12.82,0-1.15,8.36,4.18,22.33,7.78,18.13,4.65,37.29,3.13,54.46-4.32,16.92-8.09,30.63-21.64,38.9-38.47,6.48-12.82,7.64-22.19,8.79-22.04Z"/>
    <path class="st11" d="M1840.16,4864.31c-13.14-8.66-27.81-14.73-43.23-17.87-37.52-7.03-75.09,11.99-91.64,46.4-5.19,10.18-8.28,21.31-9.08,32.71l-7.35-.43c-.31-15.69-11.86-28.89-27.38-31.27-12.54-2.07-25.4.66-36.02,7.64-9.61,7.05-18.85,14.6-27.66,22.62,0,0,1.44-3.31,5.48-8.21,5.64-6.99,12.23-13.15,19.6-18.3,11.48-8.54,25.91-12.12,40.06-9.94,8.54,1.67,16.43,5.71,22.77,11.67,7.34,6.79,11.21,16.54,10.52,26.51l-7.35-.72c2.4-35.39,24.77-66.32,57.63-79.68,16.68-6.58,34.94-8.04,52.45-4.18,11.71,2.43,22.77,7.34,32.42,14.41,6.2,4.76,9.08,8.36,8.79,8.65Z"/>
    <path class="st11" d="M1704.87,4759.85c0,1.15-6.77,1.44-16.86,4.75-13.03,4.18-24.52,12.16-33,22.91-8.55,10.87-13.58,24.09-14.41,37.89.37,5.85.37,11.72,0,17.58-.72,0-4.32-6.05-5.04-17.58-2-31.54,19.6-59.72,50.57-65.99,11.81-2.16,18.87-.43,18.73.43Z"/>
    <path class="st11" d="M1424.48,4928.14c-.72,0,1.58-10.81,14.41-20.89,7.85-5.79,17-9.55,26.66-10.95,11.63-1.58,23.46-.45,34.58,3.31,19.5,7.25,36.99,19.06,51.01,34.44,10.95,11.38,16.71,19.02,15.99,19.74-7.11-4.52-13.69-9.84-19.6-15.85-14.36-13.55-31.25-24.13-49.71-31.12-10.04-3.46-20.71-4.69-31.27-3.6-8.58.99-16.84,3.84-24.21,8.36-12.82,7.92-16.71,17.29-17.87,16.57Z"/>
    <path class="st11" d="M1570.29,5043.84c-12.17-26.23-3.94-57.41,19.6-74.2-6.19,11.39-11.49,23.24-15.85,35.44-2.14,12.82-3.39,25.77-3.75,38.76Z"/>
    <path class="st1" d="M2378.6,5600.15l-208.92,67.86,40.06,384.13-14.41,28.82-155.18,254.6c-2.74,4.47,157.48,42.07,217.85,55.04,75.36,16.14,273.76,0,244.94-249.55-21.61-176.21-124.34-540.89-124.34-540.89Z"/>
    <path class="st1" d="M2153.4,5324.52c-33.66,16.68-55.7,50.23-57.63,87.75-.47,4.98.53,9.99,2.88,14.41,6.08,7.64,16.76,9.82,25.36,5.19,8.26-4.67,15.24-11.3,20.32-19.31"/>
    <path class="st6" d="M2144.76,5412.84s0,2.59-3.17,6.48c-3.65,5.83-8.58,10.76-14.41,14.41-4.34,2.61-9.34,3.92-14.41,3.75-6.24.09-12.18-2.66-16.14-7.49-3.57-5.45-5.1-11.98-4.32-18.44.24-6.36,1.1-12.69,2.59-18.87,5.12-21.71,17.22-41.15,34.44-55.33,6.59-6.39,14.82-10.83,23.77-12.82,0,1.15-8.65,5.62-20.32,16.71-15.03,14.48-25.67,32.91-30.69,53.17-1.3,5.73-2.12,11.56-2.45,17.43-.77,4.96.15,10.03,2.59,14.41,5.92,5.88,15.01,7.17,22.33,3.17,5.42-3.06,10.29-7,14.41-11.67,3.46-2.74,5.48-5.33,5.76-4.9Z"/>
    <path class="st1" d="M2275.87,5325.38s-102.88,41.06-115.27,74.2c-12.39,33.14-35.73,156.76-35.73,156.76l45.67,119.59,204.6-40.92s31.41-243.79,33.57-250.99c0,0,72.04-204.17,71.18-222.9,0-25.21-20.03-33.57-44.81-4.03-24.78,29.54-79.82,142.07-79.82,142.07l-79.39,26.22Z"/>
    <path class="st1" d="M2256.71,5276.39c-20.77-2.81-41.91-.02-61.24,8.07-17.58,10.09-30.89,26.22-37.46,45.39-6.35,19.05-10.41,38.78-12.1,58.79-1.87,14.41-2.45,33,9.65,42.07,6.13,4.35,14.03,5.32,21.04,2.59,6.93-3.02,11.82-9.39,12.97-16.86"/>
    <path class="st6" d="M2189.57,5416.44s1.01,4.32-3.03,10.66c-2.48,3.86-6.11,6.83-10.37,8.5-5.78,2.3-12.23,2.3-18.01,0-7-3.15-12.26-9.2-14.41-16.57-2.2-7.87-2.88-16.08-2.02-24.21,1.26-17.83,4.05-35.53,8.36-52.88,4.41-17.91,13.51-34.32,26.37-47.55,10.89-10.55,24.88-17.32,39.91-19.31,9.57-1.16,19.25-1.16,28.82,0,3.64-.05,7.26.58,10.66,1.87,0,1.58-15.56,0-39.33,3.75-13.64,2.39-26.18,8.99-35.88,18.87-11.64,12.61-19.88,27.98-23.92,44.67-4.23,16.91-7.21,34.1-8.93,51.44-.96,7.26-.57,14.64,1.15,21.76,1.42,5.85,5.31,10.79,10.66,13.54,8.13,4.09,18,1.99,23.77-5.04,2.33-2.99,4.41-6.17,6.2-9.51Z"/>
    <path class="st1" d="M2351.66,5296.28c-11.94-14.52-27.79-25.32-45.67-31.12-20.35-3.15-40.98,3.54-55.62,18.01-14.3,14.41-25.78,31.37-33.86,50-7.35,15.13-14.41,30.55-20.6,46.25-3.78,8.27-6.3,17.06-7.49,26.08-1.22,9.11,1.33,18.32,7.06,25.5,9.98,9.99,25.34,12.22,37.75,5.48,12.03-6.86,20.99-18.04,25.07-31.27"/>
    <path class="st6" d="M2258.58,5405.2c-.59,4.87-2.26,9.55-4.9,13.69-6.07,12.55-17.82,21.4-31.55,23.77-9.9,1.54-19.96-1.48-27.38-8.21-7.85-8.49-11.26-20.17-9.22-31.55,2.01-11.52,5.7-22.69,10.95-33.14,4.9-10.95,9.94-22.19,14.41-33.86,8.95-22.59,23.06-42.77,41.21-58.93,15.84-13.67,37.34-18.78,57.63-13.69,12.68,4.46,24.07,11.98,33.14,21.9,6.48,6.77,9.65,10.81,9.22,11.09-4.04-2.59-7.81-5.58-11.24-8.93-9.34-8.61-20.45-15.05-32.56-18.87-18.37-3.59-37.36,1.75-51.15,14.41-17,15.79-30.24,35.19-38.76,56.77l-14.41,33.28c-5.07,9.92-8.75,20.49-10.95,31.41-1.78,9.27.71,18.85,6.77,26.08,6.03,5.67,14.26,8.37,22.48,7.35,12.38-1.92,23.26-9.26,29.68-20.03,4.32-7.92,6.05-12.82,6.63-12.53Z"/>
    <path class="st1" d="M2279.62,5483.01l-13.4-70.17c-25.89-4.14-50.34-14.63-71.18-30.55-7.06-18.59,2.74-30.26,28.82-37.46,26.08-7.2,107.49,4.61,116.42,9.51,31.27,16.86,35.01,60.66,39.48,95.96"/>
    <path class="st6" d="M2379.47,5450.3c-1.74-5.39-2.95-10.94-3.6-16.57-2.13-15.03-5.8-29.81-10.95-44.09-3.5-9.58-9.11-18.25-16.43-25.36-4.08-3.85-9.02-6.67-14.41-8.21-5.62-1.44-11.67-2.59-18.01-3.6-27.2-4.73-54.82-6.61-82.42-5.62-10.29,1.05-20.17,4.56-28.82,10.23-3.83,2.46-6.6,6.26-7.78,10.66-.73,4.47-.23,9.05,1.44,13.26l-1.15-1.58c20.34,15.65,44.17,26.14,69.45,30.55h2.02v1.87c3.46,20.46,6.34,37.75,8.65,51.58,1.42,6.29,2.1,12.72,2.02,19.16-2.3-6.01-3.98-12.24-5.04-18.59-3.03-13.69-6.77-30.83-11.09-51.15l2.31,2.31c-26.53-3.89-51.65-14.39-73.05-30.55h0v-1.01c-2.24-5.47-2.89-11.47-1.87-17.29,1.68-5.9,5.41-11.01,10.52-14.41,9.84-6.73,21.26-10.8,33.14-11.81,28.2-1.01,56.42,1.11,84.15,6.34,6.32.98,12.57,2.33,18.73,4.03,6.09,1.99,11.62,5.39,16.14,9.94,7.78,7.9,13.69,17.46,17.29,27.95,4.77,14.81,7.72,30.15,8.79,45.67.66,5.39.41,10.86,0,16.28Z"/>
    <path class="st6" d="M2258.44,5458.23c-6.32,1.28-12.72,2.05-19.16,2.31-30.52,4.14-57.26,22.54-72.04,49.56-5.76,10.23-7.92,17.43-9.08,17.15s0-7.92,4.32-19.45c13.1-30.7,42.72-51.12,76.08-52.45,12.25-.14,20.17,2.88,19.88,2.88Z"/>
    <path class="st6" d="M2335.38,6115.83c-22.2-7.5-43.91-16.4-64.98-26.66-22.04-7.93-43.56-17.27-64.41-27.95,23.33,3.7,46,10.79,67.29,21.04,22.27,8.02,43.2,19.33,62.1,33.57Z"/>
    <path class="st12" d="M1631.24,5708.79c13.26-4.47,220.3,32.85,280.53,59.65,34,15.13,322.32,248.98,322.32,248.98l-211.8,347.39-138.9-50.57-1.58,607.6-864.5-2.31,18.73-970.41s62.1-254.31,167.71-285.14c105.61-30.83,427.5,44.81,427.5,44.81Z"/>
    <path class="st4" d="M1864.37,6322.73c-2.39-.01-4.76-.35-7.06-1.01-6.76-1.19-13.45-2.78-20.03-4.75-24.28-7.34-47.34-18.21-68.44-32.27-31.55-20.55-58.73-47.14-79.97-78.24-54.46-77.47-62.78-178.33-21.76-263.67,15.73-34.28,38.06-65.12,65.7-90.77,18.41-17.51,39.41-32.09,62.24-43.23,6.11-3.11,12.41-5.8,18.87-8.07,2.16-1,4.43-1.72,6.77-2.16-30.89,14.76-59.33,34.2-84.29,57.63-26.19,25.59-47.22,55.96-61.96,89.48-39.27,83.33-31.2,181.27,21.18,257.05,20.45,30.73,46.56,57.28,76.94,78.24,28.26,18.56,59.22,32.66,91.78,41.78Z"/>
    <path class="st4" d="M1717.69,6878.46c-2.02,0,3.17-121.32,11.53-270.73,8.36-149.41,17.29-270.59,18.59-270.59s-3.03,121.32-11.53,270.88c-8.5,149.56-16.86,270.59-18.59,270.45Z"/>
    <path class="st4" d="M1498.11,6518.54c-3.6,4.67-7.71,8.92-12.25,12.68-8.07,7.92-20.17,18.87-35.3,32.13-30.4,26.66-73.48,62.1-122.76,98.99s-95.82,68.01-129.68,89.62c-17,10.81-30.98,19.16-40.78,24.78-4.87,3.25-10.09,5.96-15.56,8.07,4.39-4.04,9.22-7.57,14.41-10.52l39.48-26.8c33.43-22.62,79.1-54.32,128.23-91.06,49.13-36.74,92.65-72.04,123.91-97.11l36.89-30.26c4.15-3.89,8.64-7.41,13.4-10.52Z"/>
    <path class="st8" d="M1156.92,5933.7c-1.87-1.3,15.13-26.08,32.13-58.79,17-32.71,28.1-60.52,30.11-59.79-3.86,22.35-11.83,43.8-23.49,63.25-9.48,20.63-22.61,39.37-38.76,55.33Z"/>
    <path class="st8" d="M1216.42,6257.03c-16.93-15.45-31.24-33.55-42.36-53.6-13.24-18.75-23.23-39.6-29.54-61.67,12.95,18.58,24.93,37.81,35.88,57.63,13.16,18.46,25.19,37.71,36.02,57.63Z"/>
    <path class="st8" d="M1447.25,5966.12c-13.96,21.13-29.93,40.87-47.69,58.93-15.97,19.61-33.77,37.66-53.17,53.89,13.82-21.19,29.75-40.94,47.55-58.93,15.95-19.68,33.81-37.73,53.31-53.89Z"/>
    <path class="st8" d="M1518.28,6345.93c-2.02-.86,14.41-36.31,30.55-81.12,16.14-44.81,27.52-82.13,29.68-81.7-9.87,57.52-30.29,112.72-60.23,162.81h0Z"/>
    <path class="st8" d="M1369.59,6515.37c-4.83-20.34-7.11-41.2-6.77-62.1-2.25-20.8-1.96-41.8.86-62.53,4.63,20.37,6.85,41.21,6.63,62.1,2.16,20.8,1.92,41.79-.72,62.53Z"/>
    <path class="st8" d="M1229.97,6702.97c-18.57-17.87-35.41-37.45-50.29-58.5-16.74-19.65-31.6-40.82-44.38-63.25,18.68,17.77,35.53,37.36,50.29,58.5,16.88,19.54,31.75,40.73,44.38,63.25Z"/>
    <path class="st8" d="M1418.43,6823.85c-7.95-32.01-10.96-65.05-8.93-97.98,7.95,32.01,10.96,65.05,8.93,97.98Z"/>
    <path class="st8" d="M1629.37,6734.23c-15.33-16-28.86-33.64-40.34-52.59-13.47-17.87-24.88-37.2-34-57.63,15.33,16,28.86,33.64,40.34,52.59,13.47,17.87,24.88,37.2,34,57.63Z"/>
    <path class="st8" d="M1703.28,6447.07c-10.48,2.2-21.33,1.95-31.7-.72-10.68-.34-21.14-3.15-30.55-8.21,10.48-2.2,21.33-1.95,31.7.72,10.68.34,21.14,3.15,30.55,8.21Z"/>
    <path class="st8" d="M1850.68,6607.58c-14.53-17.21-27.05-36.01-37.32-56.05-12.47-18.69-22.86-38.7-30.98-59.65,14.59,17.11,27.11,35.87,37.32,55.9,12.49,18.74,22.88,38.79,30.98,59.8Z"/>
    <path class="st8" d="M1847.37,6743.46c-3.45,17.52-9.26,34.48-17.29,50.43-5.75,16.93-13.9,32.94-24.21,47.55,3.42-17.52,9.24-34.49,17.29-50.43,5.77-16.92,13.93-32.93,24.21-47.55Z"/>
    <path class="st8" d="M1756.16,6123.75c-10.33-17.67-16.86-37.3-19.16-57.63-4.77-19.98-5.36-40.73-1.73-60.95,2.31,0,3.31,27.09,9.08,59.65,5.76,32.56,13.83,58.21,11.81,58.93Z"/>
    <path class="st8" d="M1839.01,5909.79c11.55-9.17,24.55-16.33,38.47-21.18,12.96-7.14,27.04-12.02,41.64-14.41-11.59,9.19-24.64,16.35-38.61,21.18-12.94,7.07-26.96,11.94-41.5,14.41Z"/>
    <path class="st8" d="M1943.47,6099.83c-11.67-14.35-21.36-30.19-28.82-47.12-9.67-15.72-17.13-32.68-22.19-50.43,11.71,14.27,21.41,30.07,28.82,46.97,9.57,15.82,17.03,32.82,22.19,50.57Z"/>
    <path class="st8" d="M2084.96,6038.02c-12.95-13.65-23.96-29.02-32.71-45.67-10.93-15.27-19.75-31.94-26.22-49.56,12.84,13.71,23.79,29.07,32.56,45.67,10.94,15.29,19.8,31.95,26.37,49.56Z"/>
    <path class="st8" d="M2041.3,6211.21c-18.12,8.84-37.23,15.52-56.91,19.88-19.02,6.54-38.76,10.8-58.79,12.68,18-9.01,37.08-15.69,56.77-19.88,19.03-6.7,38.83-10.96,58.93-12.68Z"/>
    <path class="st8" d="M1595.94,5832.85c-19.93-5.42-38.49-14.99-54.46-28.1-17.33-11.15-32.07-25.89-43.23-43.23,1.58-1.58,20.89,17.58,47.84,37.03,26.94,19.45,50.72,32.56,49.85,34.29Z"/>
    <path class="st8" d="M1284.43,5722.91c-14.4,3.26-29.45,2.16-43.23-3.17-14.26-2.78-27.39-9.7-37.75-19.88,13.49,3.46,26.77,7.69,39.77,12.68,13.94,2.6,27.7,6.07,41.21,10.37Z"/>
  </g>
</svg>