<?xml version="1.0" encoding="UTF-8"?>
<svg id="Layer_1" xmlns="http://www.w3.org/2000/svg" version="1.1" viewBox="0 0 750 500">
  <!-- Generator: Adobe Illustrator 29.5.1, SVG Export Plug-In . SVG Version: 2.1.0 Build 141)  -->
  <defs>
    <style>
      .st0 {
        fill: #e0e0e0;
      }

      .st1 {
        fill: #aa6550;
      }

      .st2 {
        fill: #b78876;
      }

      .st3 {
        fill: #ebebeb;
      }

      .st4 {
        fill: #4a9288;
      }

      .st5 {
        fill: #263238;
      }

      .st6 {
        fill: #fff;
      }

      .st7 {
        fill: #fafafa;
      }

      .st8 {
        opacity: .4;
      }

      .st9 {
        opacity: .2;
      }

      .st10 {
        fill: #f5f5f5;
      }

      .st11 {
        fill: #455a64;
      }
    </style>
  </defs>
  <g id="freepik--background-complete--inject-238">
    <path class="st0" d="M201.75,309c.7-.24,1.32-.65,1.8-1.21.57-.68.88-1.54.88-2.43-.02-.56-.11-1.12-.29-1.66-.15-.59-.31-1.23-.47-1.9-1.35-5.41-3.27-13.19-5.65-22.77l-1.85-7.55c-.32-1.33-.65-2.67-1-4-.13-.68-.32-1.35-.57-2-.29-.6-.75-1.11-1.32-1.46-.58-.35-1.25-.51-1.92-.47-.72.11-1.43.28-2.13.48l-4.43,1.16-9.27,2.4-41.25,10.66c-1.71.49-2.78,2.18-2.48,3.93.44,1.81.87,3.6,1.29,5.39.87,3.57,1.72,7.1,2.56,10.56,1.67,6.93,3.29,13.61,4.82,20,.19.8.39,1.59.57,2.37.13.73.48,1.4,1,1.93.52.51,1.2.83,1.92.92.74.03,1.48-.09,2.18-.34l8.75-2.23,15.7-4,22.8-5.78,6.19-1.52,1.62-.38.55-.11c-.18.07-.36.13-.54.18l-1.59.45-6.16,1.66-22.69,6-15.68,4.09-8.74,2.27c-.78.27-1.6.39-2.42.36-.86-.1-1.67-.48-2.3-1.08-.62-.61-1.04-1.4-1.22-2.25-.19-.79-.38-1.58-.58-2.37-1.55-6.37-3.17-13-4.86-20l-2.57-10.56c-.43-1.8-.87-3.61-1.3-5.44-.37-2.12.93-4.17,3-4.75l41.27-10.61,9.27-2.37,4.44-1.14c.74-.21,1.48-.38,2.24-.5.8-.04,1.6.16,2.28.58.66.41,1.2,1.01,1.54,1.71.26.68.46,1.38.6,2.1.33,1.37.67,2.71,1,4,.63,2.63,1.24,5.16,1.81,7.57,2.28,9.61,4.13,17.4,5.42,22.82l.45,1.91c.17.56.25,1.14.26,1.73-.03.93-.38,1.82-1,2.52-.37.43-.84.78-1.37,1-.18.07-.37.11-.56.13Z"/>
    <polygon class="st0" points="169.37 288.97 178.21 291.64 171.58 298.24 164.95 304.84 162.74 295.57 160.52 286.3 169.37 288.97"/>
    <rect class="st3" x="601.68" y="308.2" width="89.81" height="71.8" transform="translate(-49.65 116.65) rotate(-9.93)"/>
    <rect class="st10" x="604.78" y="312.73" width="83.5" height="62.76" transform="translate(-49.65 116.65) rotate(-9.93)"/>
    <polygon class="st0" points="610.81 382.24 632.81 338.78 654.81 359.71 664.63 344.74 693.06 367.84 610.81 382.24"/>
    <path class="st0" d="M657.33,329.64c.62,3.58-1.78,6.98-5.35,7.59-3.58.62-6.98-1.78-7.59-5.35-.62-3.57,1.77-6.97,5.34-7.59,3.57-.63,6.98,1.76,7.61,5.33,0,0,0,.01,0,.02Z"/>
    <rect class="st3" x="369.66" y="335.34" width="48.29" height="60.4" transform="translate(-78.78 621.19) rotate(-71.28)"/>
    <rect class="st10" x="372.65" y="337.45" width="42.21" height="56.15" transform="translate(-78.81 621.14) rotate(-71.28)"/>
    <polygon class="st0" points="360.41 376.53 387.4 357.98 393.64 377.42 404.26 371.76 413.59 394.56 360.41 376.53"/>
    <path class="st0" d="M404.83,360.49c-.79,2.31-3.3,3.55-5.61,2.76-2.31-.79-3.55-3.3-2.76-5.61.78-2.31,3.29-3.55,5.6-2.76,2.31.79,3.55,3.3,2.77,5.61Z"/>
    <circle class="st0" cx="584.51" cy="75.71" r="40.24" transform="translate(117.67 435.49) rotate(-45)"/>
    <path class="st7" d="M602.79,77c-.47.08-.94.12-1.42.1l-3.91.08c-3.32,0-7.94.07-13.16.08h-.3v-2.92c0-5.83,0-11.1.07-14.92,0-1.84.06-3.37.08-4.53,0-.55.03-1.1.11-1.65.07.55.11,1.1.1,1.65,0,1.16.05,2.69.08,4.53,0,3.82.08,9.09.08,14.92v2.61l-.25-.26c5.22,0,9.84,0,13.16.09l3.91.08c.49,0,.97.05,1.45.14Z"/>
    <path class="st7" d="M584.42,42.08c.25,1.11.34,2.25.26,3.38.08,1.13,0,2.27-.26,3.38-.26-1.11-.34-2.25-.26-3.38-.08-1.13,0-2.27.26-3.38Z"/>
    <path class="st7" d="M602.76,47.51c-.59.95-1.33,1.81-2.18,2.54-.74.86-1.61,1.59-2.58,2.17.59-.95,1.33-1.81,2.18-2.54.74-.85,1.61-1.59,2.58-2.17Z"/>
    <path class="st7" d="M613.48,59.22c-.85.72-1.78,1.35-2.78,1.85-.9.65-1.88,1.19-2.92,1.61.75-.82,1.65-1.5,2.65-2,.92-.67,1.95-1.17,3.05-1.46Z"/>
    <path class="st7" d="M619.76,76.6c-3.06.35-6.16.35-9.22,0,3.06-.35,6.16-.35,9.22,0Z"/>
    <path class="st7" d="M555.84,76c-2.89.35-5.82.35-8.71,0,2.89-.35,5.82-.35,8.71,0Z"/>
    <path class="st7" d="M560.36,88.93c-.98,1.12-2.08,2.13-3.29,3-1.1,1-2.31,1.87-3.62,2.58.98-1.12,2.08-2.13,3.29-3,1.1-1,2.32-1.86,3.62-2.58Z"/>
    <path class="st7" d="M571.51,98.94c-.65,1.35-1.4,2.64-2.24,3.88-.7,1.32-1.49,2.59-2.37,3.8.42-1.45,1.08-2.82,1.93-4.07.7-1.34,1.6-2.55,2.68-3.61Z"/>
    <path class="st7" d="M584.42,111.84c-.26-1.52-.34-3.07-.26-4.61-.08-1.54,0-3.09.26-4.61.26,1.52.34,3.07.26,4.61.08,1.54,0,3.09-.26,4.61Z"/>
    <path class="st7" d="M604.29,105.7c-1.41-.64-2.69-1.52-3.8-2.6-1.22-.96-2.26-2.11-3.1-3.41,1.2.94,2.35,1.94,3.44,3,1.21.94,2.36,1.95,3.46,3.01Z"/>
    <path class="st7" d="M613.61,95.66c-1.12-.76-2.15-1.65-3.05-2.66-1.02-.88-1.92-1.89-2.68-3,1.11.76,2.12,1.66,3,2.68,1.03.87,1.95,1.87,2.73,2.98Z"/>
    <path class="st7" d="M559.94,63.59c-1.01-.63-1.92-1.42-2.7-2.32-.9-.78-1.68-1.69-2.32-2.7,1,.64,1.91,1.43,2.69,2.33.9.78,1.69,1.69,2.33,2.69Z"/>
    <path class="st7" d="M571.44,51.47c-.99-.62-1.88-1.39-2.64-2.27-.89-.76-1.66-1.65-2.28-2.64.98.63,1.87,1.39,2.64,2.27.89.76,1.66,1.65,2.28,2.64Z"/>
    <rect class="st0" x="641.56" y="124.29" width="70.31" height="101.91"/>
    <rect class="st10" x="638.04" y="124.29" width="70.31" height="101.91"/>
    <rect class="st6" x="646.77" y="135.32" width="52.84" height="79.84"/>
    <path class="st0" d="M699.61,215.16v-5.9c0-3.83,0-9.4-.05-16.45,0-14.08,0-34-.08-57.49l.17.18h-52.88l.19-.19v79.84l-.15-.15,38.46.08h14.42-14.28l-38.56.08h-.15v-80.18h53.21v.17c0,23.53-.07,43.5-.09,57.61,0,7,0,12.59-.05,16.4v5.46c0,.26-.16.54-.16.54Z"/>
    <path class="st0" d="M708.54,124.29c-.36.65-.78,1.26-1.25,1.82-.82,1.09-2,2.57-3.3,4.18s-2.56,3-3.47,4c-.47.57-.99,1.1-1.55,1.58.4-.62.84-1.21,1.34-1.76.94-1.14,2.1-2.55,3.39-4.1l3.38-4.11c.44-.58.93-1.12,1.46-1.61Z"/>
    <path class="st6" d="M699.88,214.9c2.62,4.18,5.72,8.05,9.22,11.53"/>
    <path class="st0" d="M709.1,226.43c-.59-.43-1.13-.92-1.61-1.46-1.23-1.24-2.39-2.55-3.48-3.92-1.09-1.37-2.11-2.79-3.06-4.26-.42-.59-.78-1.22-1.07-1.89.48.55.91,1.13,1.3,1.74.77,1.09,1.86,2.58,3.13,4.17s2.49,3,3.38,4c.51.51.98,1.05,1.41,1.62Z"/>
    <path class="st6" d="M638,226.12l9.21-11.36"/>
    <path class="st0" d="M647.23,214.76c-1.38,2.01-2.87,3.95-4.45,5.8-1.49,1.94-3.08,3.79-4.76,5.56,1.38-2.01,2.87-3.95,4.46-5.8,1.48-1.94,3.07-3.79,4.75-5.56Z"/>
    <path class="st0" d="M638,124.29c1.6,1.69,3.09,3.47,4.48,5.34,1.49,1.78,2.88,3.65,4.17,5.58-1.59-1.69-3.08-3.48-4.47-5.34-1.49-1.79-2.89-3.65-4.18-5.58Z"/>
    <rect class="st0" x="665.46" y="151.53" width="17.69" height="50.24"/>
    <polygon class="st0" points="160.62 166.2 160.62 239.08 55.95 239.08 52.18 166.71 160.62 166.2"/>
    <rect class="st6" x="52.18" y="166.72" width="104.67" height="72.21"/>
    <path class="st0" d="M157.35,239.42H51.69v-73.2h105.66v73.2ZM52.68,238.42h103.67v-71.21H52.68v71.21Z"/>
    <rect class="st6" x="63.52" y="175.68" width="81.99" height="54.27"/>
    <path class="st0" d="M145.51,175.68h-6.07l-16.9.06-59,.12.24-.24v54.27h0l-.26-.26,82,.06-.2.2c0-16.51.08-30,.11-39.48,0-4.72,0-8.4.05-10.92v-3.87,3.83c0,2.51,0,6.18.05,10.87,0,9.46.06,23,.11,39.61v.21h-.21l-82,.05h-.26v-.19h0v-54.5h.24l59.18.11,16.84.07h6.08Z"/>
    <path class="st0" d="M52.18,166.51c.65.31,1.25.7,1.8,1.17,1.07.77,2.53,1.87,4.11,3.12s3,2.46,3.93,3.35c.56.44,1.07.96,1.5,1.53-.1.11-2.61-2-5.76-4.47-1.96-1.45-3.82-3.02-5.58-4.7Z"/>
    <path class="st0" d="M156.85,166.71c-1.72,1.69-3.57,3.26-5.51,4.69-1.83,1.57-3.78,3-5.83,4.28,1.72-1.69,3.55-3.25,5.49-4.68,1.85-1.57,3.8-3,5.85-4.29Z"/>
    <path class="st6" d="M156.77,238.93l-11.67-9.45"/>
    <path class="st0" d="M145.1,229.48c2.1,1.36,4.11,2.87,6,4.52,2,1.52,3.89,3.16,5.67,4.93-2.1-1.37-4.11-2.88-6-4.52-2-1.52-3.89-3.16-5.67-4.93Z"/>
    <path class="st0" d="M52.18,238.92c1.71-1.67,3.53-3.22,5.45-4.64,1.82-1.54,3.75-2.96,5.77-4.23-1.69,1.67-3.49,3.22-5.4,4.64-1.83,1.56-3.78,2.97-5.82,4.23Z"/>
    <rect class="st0" x="80.17" y="192.59" width="51.59" height="18.17"/>
  </g>
  <g id="freepik--Calendar--inject-238">
    <rect class="st3" x="123.5" y="67.61" width="71.8" height="89.81" transform="translate(26.62 255.47) rotate(-82.33)"/>
    <path class="st5" d="M208.7,82.93l-.44-.05-1.26-.15-4.84-.63-18.23-2.39-64.28-8.54.26-.2c-2.84,21.18-6.11,45.47-9.56,71.16h0l-.22-.3,89,12-.24.19,7.06-51.6c.86-6.21,1.54-11.08,2-14.41.23-1.66.41-2.93.54-3.81.12-.86.2-1.31.2-1.31,0,0,0,.43-.15,1.28l-.47,3.83c-.44,3.33-1.07,8.19-1.88,14.39-1.65,12.45-4,30.27-6.86,51.76v.21h-.21l-89-11.94h-.26v-.26h0l9.61-71.15v-.23h.23l64.4,8.79,18.19,2.43,4.78.67,1.22.18.41.08Z"/>
    <rect class="st4" x="127.97" y="70.76" width="62.76" height="83.5" transform="translate(26.58 255.42) rotate(-82.33)"/>
    <polygon class="st4" points="113.78 138.03 147.89 103.26 162.54 129.87 176.42 118.57 196.53 149.18 113.78 138.03"/>
    <path class="st4" d="M174,102c-.48,3.6-3.79,6.12-7.39,5.63-3.6-.48-6.12-3.79-5.63-7.39.48-3.59,3.79-6.11,7.38-5.63,3.59.47,6.12,3.77,5.64,7.36,0,0,0,.02,0,.03Z"/>
    <g class="st9">
      <polygon points="113.78 138.03 147.89 103.26 162.54 129.87 176.42 118.57 196.53 149.18 113.78 138.03"/>
    </g>
    <g class="st9">
      <path d="M174,102c-.48,3.6-3.79,6.12-7.39,5.63-3.6-.48-6.12-3.79-5.63-7.39.48-3.59,3.79-6.11,7.38-5.63,3.59.47,6.12,3.77,5.64,7.36,0,0,0,.02,0,.03Z"/>
    </g>
    <rect class="st7" x="196.38" y="70.48" width="367.41" height="240.56"/>
    <path class="st5" d="M564.93,87.4c0,.14-82.26.26-183.71.26s-183.71-.12-183.71-.26,82.24-.26,183.71-.26,183.71.12,183.71.26Z"/>
    <path class="st5" d="M209.4,79.55c0,1.17-.94,2.11-2.11,2.11s-2.11-.94-2.11-2.11.94-2.11,2.11-2.11c1.16,0,2.1.93,2.11,2.09,0,0,0,.01,0,.02Z"/>
    <path class="st5" d="M217,79.55c0,1.17-.94,2.11-2.11,2.11s-2.11-.94-2.11-2.11.94-2.11,2.11-2.11c1.16,0,2.1.93,2.11,2.09,0,0,0,.01,0,.02Z"/>
    <path class="st5" d="M224.62,79.55c0,1.17-.94,2.11-2.11,2.11-1.17,0-2.11-.94-2.11-2.11s.94-2.11,2.11-2.11c0,0,0,0,0,0,1.16,0,2.1.94,2.1,2.1,0,0,0,0,0,.01Z"/>
    <rect class="st3" x="319.04" y="100.15" width="125.39" height="6.92"/>
    <path class="st5" d="M544.35,293.82c0-1.57-.07-67.12-.19-174.54l.19.19-329.42.07h0l.27-.26v174.54l-.25-.25,329.45.25-329.45.24h-.24V119h.29l329.42.06h.2v.2c-.19,107.44-.26,172.99-.27,174.56Z"/>
    <path class="st5" d="M255.46,293.46c-.15,0-.15-39.07,0-87.26s.37-87.27.51-87.27.15,39.07,0,87.27-.37,87.26-.51,87.26Z"/>
    <path class="st5" d="M304.33,293.6c-.14,0-.14-39.07,0-87.26s.37-87.27.51-87.27.15,39.07,0,87.27-.36,87.26-.51,87.26Z"/>
    <path class="st5" d="M353.21,293.75c-.15,0-.15-39.08,0-87.27s.37-87.27.51-87.27.15,39.07,0,87.27-.37,87.27-.51,87.27Z"/>
    <path class="st5" d="M402.08,293.89c-.14,0-.14-39.08,0-87.27s.37-87.27.51-87.27.15,39.07,0,87.28-.36,87.26-.51,87.26Z"/>
    <path class="st5" d="M451,294c-.15,0-.15-39.07,0-87.26s.37-87.27.51-87.27.15,39.06,0,87.27-.41,87.26-.51,87.26Z"/>
    <path class="st5" d="M499.83,294.17c-.14,0-.14-39.07,0-87.26s.37-87.27.51-87.27.15,39.06,0,87.27-.34,87.26-.51,87.26Z"/>
    <path class="st5" d="M544.35,161.48c0,.14-73.66.26-164.52.26s-164.54-.12-164.54-.26,73.66-.26,164.54-.26,164.52.11,164.52.26Z"/>
    <path class="st5" d="M544.35,206.2c0,.14-73.66.26-164.52.26s-164.54-.12-164.54-.26,73.66-.26,164.54-.26,164.52.11,164.52.26Z"/>
    <path class="st5" d="M544.35,250.91c0,.15-73.66.26-164.52.26s-164.54-.11-164.54-.26,73.66-.26,164.54-.26,164.52.12,164.52.26Z"/>
    <path class="st3" d="M218.21,254.89s-3.9,25.32.16,41.1l39-1.42s-8-25.19-2.93-37.78l-36.23-1.9Z"/>
    <path class="st4" d="M218.37,254s.26,31.11,1.84,40.6l39-1.85s-3.43-30.58-2.11-38.75h-38.73Z"/>
    <path class="st6" d="M251.24,267c0,.15-5.85.62-13.08,1.05s-13.09.67-13.1.53,5.84-.61,13.07-1.05,13.1-.64,13.11-.53Z"/>
    <path class="st6" d="M251.25,273.62c0,.15-5.85.62-13.08,1.05s-13.09.67-13.1.53,5.84-.61,13.07-1.05,13.1-.67,13.11-.53Z"/>
    <path class="st6" d="M244.62,280.09c-.71.19-1.44.3-2.18.32-1.34.13-3.21.27-5.27.39s-3.92.21-5.27.24c-.73.07-1.47.06-2.2-.05.71-.19,1.44-.3,2.17-.32,1.35-.12,3.21-.26,5.27-.39s3.93-.21,5.28-.24c.73-.07,1.47-.05,2.2.05Z"/>
    <path class="st3" d="M307.48,123.66s-3.2,26.35.86,42.13l38.33-2s-8-25.69-3-38.28l-36.19-1.85Z"/>
    <path class="st4" d="M307.64,122.73s.26,31.11,1.84,40.6l39-1.85s-3.43-30.58-2.11-38.75h-38.73Z"/>
    <path class="st6" d="M340.51,135.8c0,.14-5.85.61-13.07,1s-13.1.67-13.11.52,5.84-.61,13.07-1,13.1-.67,13.11-.52Z"/>
    <path class="st6" d="M340.52,142.39c0,.14-5.84.61-13.07,1s-13.1.68-13.11.53,5.84-.61,13.08-1.05,13.09-.63,13.1-.48Z"/>
    <path class="st6" d="M333.89,148.86c-.71.18-1.44.29-2.17.31-1.35.13-3.21.27-5.27.39s-3.93.21-5.28.25c-.73.07-1.47.05-2.2-.06.71-.18,1.44-.29,2.18-.31,1.34-.13,3.21-.27,5.27-.39s3.92-.21,5.27-.25c.73-.07,1.47-.05,2.2.06Z"/>
    <path class="st3" d="M358.84,253.15s-3.15,28.81.9,44.59l38.5-1.69s-8.25-28.42-3.18-41l-36.22-1.9Z"/>
    <path class="st4" d="M359,252.22s.26,31.11,1.84,40.6l39-1.85s-3.43-30.58-2.11-38.75h-38.73Z"/>
    <path class="st6" d="M391.87,265.29c0,.14-5.85.61-13.07,1s-13.1.68-13.11.53,5.84-.61,13.07-1.05,13.1-.63,13.11-.48Z"/>
    <path class="st6" d="M391.88,271.88c0,.14-5.85.61-13.07,1s-13.1.67-13.11.53,5.84-.61,13.07-1.05,13.1-.63,13.11-.48Z"/>
    <path class="st6" d="M385.25,278.35c-.71.18-1.44.29-2.18.31-1.34.13-3.2.27-5.26.39s-3.93.21-5.28.25c-.73.07-1.47.05-2.2-.06.71-.18,1.44-.29,2.17-.31,1.35-.13,3.21-.27,5.27-.4s3.93-.2,5.28-.24c.73-.07,1.47-.05,2.2.06Z"/>
    <path class="st3" d="M505.88,165.48s-4,24.74.05,40.51l39.09-.84s-8-25.19-2.93-37.78l-36.21-1.89Z"/>
    <path class="st4" d="M506,164.56s.26,31.1,1.84,40.59l39-1.84s-3.43-30.58-2.11-38.75h-38.73Z"/>
    <path class="st6" d="M538.9,177.62c0,.15-5.84.61-13.07,1s-13.1.67-13.11.53,5.84-.62,13.08-1,13.09-.67,13.1-.53Z"/>
    <path class="st6" d="M538.91,184.21c0,.14-5.84.61-13.07,1s-13.1.67-13.11.53,5.85-.62,13.08-1,13.09-.67,13.1-.53Z"/>
    <path class="st6" d="M532.28,190.68c-.71.19-1.44.3-2.17.32-1.35.12-3.21.26-5.27.39s-3.93.21-5.28.24c-.73.08-1.47.08-2.2,0,.71-.19,1.44-.3,2.18-.32,1.34-.13,3.21-.27,5.27-.39s3.92-.21,5.28-.24c.73-.09,1.46-.09,2.19,0Z"/>
    <path class="st3" d="M406.84,210.81s-4,24.74.05,40.52l39.09-.84s-8-25.19-2.93-37.79l-36.21-1.89Z"/>
    <path class="st4" d="M407,209.89s.26,31.11,1.84,40.6l39-1.85s-3.43-30.58-2.11-38.75h-38.73Z"/>
    <path class="st6" d="M439.86,223c0,.15-5.84.62-13.07,1.05s-13.1.67-13.11.53,5.84-.61,13.08-1.05,13.09-.72,13.1-.53Z"/>
    <path class="st6" d="M439.87,229.54c0,.15-5.84.62-13.07,1.05s-13.1.67-13.11.53,5.85-.61,13.08-1.05,13.09-.67,13.1-.53Z"/>
    <path class="st6" d="M433.24,236c-.71.19-1.44.3-2.17.32-1.35.13-3.21.27-5.27.39s-3.93.21-5.28.24c-.73.07-1.47.06-2.2-.05.71-.19,1.44-.3,2.18-.32,1.34-.12,3.21-.27,5.27-.39s3.92-.21,5.27-.24c.73-.07,1.47-.05,2.2.05Z"/>
    <polygon class="st3" points="497 174.75 476.29 185.41 466.27 183.99 471.63 174.49 493.48 166.79 497 174.75"/>
    <polygon class="st11" points="465.41 182.03 470.49 173.86 492.93 165.71 497.44 174.58 475.68 183.27 465.41 182.03"/>
    <path class="st6" d="M490.41,171c-.69.4-1.42.74-2.18,1-1.36.56-3.25,1.3-5.35,2.1l-5.39,2c-1.37.5-2.28.8-2.22.77-.17-.21,3.24-1.67,7.42-3.27s7.66-2.78,7.72-2.6Z"/>
    <path class="st6" d="M486.9,175c-3.09,1.81-6.48,3.06-10,3.72,1.63-.74,3.3-1.38,5-1.92,1.63-.7,3.3-1.3,5-1.8Z"/>
    <path class="st0" d="M218.34,164.06s-3.6,34.84,1.19,42.14l36.18-2.2-1.92-38.7-35.45-1.24Z"/>
    <path class="st11" d="M218.34,164.06s.25,30.31,1.8,39.55l38-1.8s-3.34-29.79-2.05-37.75h-37.75Z"/>
    <path class="st6" d="M237.06,168.35h.55c.53-.02,1.06,0,1.58.08.84.12,1.65.36,2.42.71,1.01.5,1.91,1.21,2.63,2.08.87,1.07,1.49,2.32,1.82,3.66.29,1.57.15,3.2-.4,4.7-.28.81-.64,1.6-1.07,2.35-.45.77-.86,1.56-1.22,2.37-.75,1.72-1.27,3.53-1.53,5.39v.13h-.12l-3.75.06-3.94.06h-.14v-.14c-.17-1.85-.79-3.64-1.82-5.19-.46-.78-1-1.51-1.42-2.25-.49-.7-.94-1.43-1.34-2.18-.7-1.44-.91-3.06-.59-4.63.22-1.35.72-2.63,1.46-3.78.64-.93,1.49-1.69,2.48-2.23.73-.41,1.52-.71,2.33-.9.51-.13,1.03-.21,1.55-.26h.55-.54c-.52.06-1.03.16-1.53.3-.8.21-1.57.52-2.29.93-.95.54-1.77,1.29-2.39,2.2-.72,1.13-1.19,2.4-1.4,3.72-.29,1.52-.08,3.09.6,4.48.4.74.84,1.46,1.33,2.15.46.73,1,1.46,1.43,2.25,1.07,1.59,1.71,3.42,1.88,5.33l-.14-.14,3.93-.07,3.75-.05-.13.12c.26-1.89.78-3.73,1.56-5.47.37-.82.78-1.62,1.24-2.39.42-.73.78-1.5,1.06-2.3.55-1.46.69-3.04.42-4.57-.31-1.31-.91-2.54-1.75-3.59-.7-.86-1.57-1.56-2.55-2.06-.75-.36-1.55-.61-2.37-.75-.52-.09-1.04-.13-1.56-.13h-.58Z"/>
    <path class="st6" d="M239,189.46v-.47l-.21-1.36c-.17-1.18-.42-2.89-.59-5,0-.54-.08-1.09-.1-1.67s-.05-1.19,0-1.82c.01-.65.16-1.3.42-1.9.29-.64.81-1.16,1.45-1.45.71-.29,1.52-.14,2.07.39.27.26.44.62.45,1-.01.4-.15.78-.39,1.09-.24.31-.56.57-.92.74-.36.17-.74.3-1.13.37-.79.17-1.59.26-2.39.28-.81.03-1.62,0-2.42-.11-.39-.06-.78-.18-1.14-.34-.38-.16-.72-.39-1-.68-.27-.28-.46-.62-.55-1-.08-.38-.04-.78.13-1.13.16-.35.45-.62.8-.77.34-.16.74-.16,1.08,0,.32.15.6.39.81.68.2.3.33.64.4,1,.12.64.18,1.29.19,1.94.07,1.25.13,2.42.19,3.48.1,2.13.19,3.85.25,5,0,.59,0,1.05.06,1.37v.48s0-.08,0-.12v-.36c0-.32-.05-.78-.09-1.37-.07-1.19-.17-2.91-.29-5-.06-1.07-.12-2.23-.19-3.48-.02-.64-.08-1.29-.2-1.92-.07-.32-.21-.63-.39-.91-.19-.28-.45-.51-.76-.65-.31-.16-.67-.17-1-.05-.32.14-.58.4-.73.72-.16.32-.21.7-.13,1.05.08.38.26.72.53,1,.53.55,1.24.9,2,1,.79.11,1.59.14,2.39.11.8-.02,1.6-.11,2.38-.27.38-.08.75-.21,1.1-.37.34-.16.65-.4.88-.7.22-.29.35-.64.36-1,.01-.38-.13-.74-.41-1-.52-.5-1.28-.65-1.95-.37-.62.28-1.11.77-1.39,1.39-.26.59-.41,1.22-.43,1.86v1.81c0,.58,0,1.14.09,1.67.16,2.12.4,3.83.55,5,.08.59.15,1,.19,1.36l.05.36s-.01.08-.02.12Z"/>
    <path class="st6" d="M234,189.66s.05.47.1,1.26.11,2,.17,3.29v-.08l2.56,3-.13-.05,3-.17-.13.06,1.47-1.8.74-.89v.11c0-1.73-.07-3.37-.11-4.87l.16.15-5.52.06h-1.6c-.2.01-.4.01-.6,0,.18-.02.35-.02.53,0l1.56-.08,5.62-.22h.16v.16c0,1.5.09,3.14.14,4.87v.07h-.05c-.24.29-.49.59-.73.9-.51.61-1,1.21-1.48,1.79l-.05.06h-.08l-3,.14h-.08v-.06l-2.51-3h0v-3.42c-.14-.88-.14-1.3-.14-1.28Z"/>
    <path class="st6" d="M241.64,193.94c-.1-.03-.19-.07-.28-.12-.18-.08-.44-.19-.77-.3-.86-.29-1.76-.43-2.67-.41-.91.03-1.8.22-2.64.57-.26.1-.51.22-.75.35l-.27.13c.08-.07.16-.12.25-.17.23-.15.48-.28.73-.39.85-.38,1.76-.58,2.68-.61.92-.02,1.84.13,2.7.45.26.1.51.21.76.34.09.04.18.1.26.16Z"/>
    <path class="st6" d="M241.64,192.76l-.28-.12c-.18-.08-.44-.19-.77-.31-.86-.29-1.76-.43-2.67-.4-.91.03-1.8.22-2.64.57-.26.1-.51.21-.75.35-.09.05-.18.1-.27.13,0,0,.08-.07.25-.17.23-.15.48-.28.73-.39,1.7-.76,3.64-.82,5.38-.16.26.09.52.21.76.34.09.04.18.1.26.16Z"/>
    <path class="st6" d="M241.57,191.63c-.1-.03-.19-.07-.28-.12-.18-.08-.44-.19-.77-.3-.86-.29-1.76-.43-2.67-.41-.91.03-1.8.22-2.64.57-.26.1-.51.22-.75.35l-.27.14s.08-.08.25-.18c.24-.14.48-.27.73-.39,1.7-.76,3.64-.82,5.38-.16.26.1.51.21.76.34.09.04.18.1.26.16Z"/>
    <path class="st5" d="M564.93,311c0-1.69-.08-93.78-.21-240.56l.21.21H197.55l.26-.26v240.56l-.24-.24,367.41.24-367.41.24h-.24V70.18h367.87v.21c-.2,146.84-.27,238.93-.27,240.61Z"/>
    <polygon class="st4" points="533.04 274.92 525.82 262.6 518.97 274.92 421.76 274.92 421.76 325.74 573.13 325.74 573.13 274.92 533.04 274.92"/>
    <path class="st7" d="M449,300.77c2.74-1.18,4.51-3.88,4.5-6.86.05-3.87-3.04-7.04-6.91-7.09s-7.04,3.04-7.09,6.91c-.08,3.01,1.65,5.77,4.39,7-10.77,1.53-10.38,13.27-10.38,13.27l25.44.33s.68-11.85-9.95-13.56Z"/>
    <path class="st7" d="M555.86,290c0,.15-19.32.26-43.15.26s-43.15-.11-43.15-.26,19.32-.26,43.15-.26,43.15.1,43.15.26Z"/>
    <path class="st7" d="M555.86,297.73c0,.14-19.32.26-43.15.26s-43.15-.12-43.15-.26,19.32-.26,43.15-.26,43.15.12,43.15.26Z"/>
    <path class="st7" d="M555.86,305.48c0,.14-19.32.26-43.15.26s-43.15-.12-43.15-.26,19.32-.26,43.15-.26,43.15.12,43.15.26Z"/>
    <path class="st7" d="M512.71,313.15c0,.14-9.66.26-21.57.26s-21.58-.12-21.58-.26,9.66-.26,21.58-.26,21.57.11,21.57.26Z"/>
  </g>
  <g id="freepik--character-2--inject-238">
    <path class="st5" d="M559.53,179.69c-.91-1.07-1.61-3-1.06-4.27-1.08-.57-1.17-1.52-1.17-2.73.06-1.22.42-2.41,1.05-3.45.85-1.77,2.2-3.26,3.89-4.27,1.74-.99,3.89-.9,5.54.24,2.39-2.84,6.63-3.19,9.47-.8.05.04.1.09.15.13.43.5.92.95,1.47,1.33,1,.53,2.14.33,3.23.43,3.12.29,5.41,3.05,5.12,6.17-.05.59-.2,1.17-.43,1.71,1.55,1.08,2.51,2.81,2.61,4.7.07,1.86-.14,3.72-.63,5.51-.5,2.23-1.06,4.58-2.64,6.23-1.09,1.15-2.57,1.86-4.15,2-2.28.16-4.48-.88-5.81-2.73"/>
    <path class="st2" d="M583.14,217.75l-17.92-.82c-.1-1.9.87-13.67.87-13.67,0,0-6.78-1-6.86-7.83s1.09-22.33,1.09-22.33h0c7.85-3.36,16.9-2.22,23.66,3l1,.77-1.84,40.88Z"/>
    <path class="st1" d="M566.08,203.16c3.13.06,6.2-.81,8.83-2.51,0,0-2.09,4.88-8.85,4.27l.02-1.76Z"/>
    <path class="st2" d="M584.14,183.87c.12-.05,4.66-1.38,4.51,3.25s-4.77,3.53-4.77,3.39.26-6.64.26-6.64Z"/>
    <path class="st1" d="M585.35,188.81s.08.05.21.12c.19.08.42.08.61,0,.63-.36,1.01-1.04,1-1.76.03-.4-.03-.8-.17-1.17-.08-.3-.3-.54-.59-.64-.19-.05-.39.03-.48.21-.07.12,0,.22-.07.22s-.09-.08-.05-.27c.03-.11.1-.21.19-.28.13-.09.29-.13.45-.11.38.09.7.37.82.75.18.41.27.85.24,1.3.04.86-.45,1.65-1.24,2-.25.07-.52.02-.73-.14-.18-.12-.2-.23-.19-.23Z"/>
    <path class="st5" d="M561.81,183.72c0,.53.41.96.93,1,.52.03.97-.36,1-.88,0,0,0,0,0,0,0-.53-.41-.96-.93-1-.51-.04-.96.34-1,.86,0,0,0,.02,0,.02Z"/>
    <path class="st5" d="M561.6,182.63c.12.13.85-.41,1.89-.41s1.81.52,1.92.39-.07-.28-.4-.52c-.45-.31-.98-.48-1.53-.48-.54,0-1.07.17-1.51.49-.32.25-.43.47-.37.53Z"/>
    <path class="st5" d="M572,184c0,.53.41.96.93,1,.51.04.96-.34,1-.86,0,0,0,0,0-.01,0-.53-.41-.97-.94-1-.5-.04-.94.33-.99.83,0,.01,0,.03,0,.04Z"/>
    <path class="st5" d="M571.83,182.83c.12.12.86-.42,1.9-.42s1.8.53,1.91.4-.06-.29-.4-.53c-.45-.31-.98-.47-1.53-.47-.54,0-1.07.17-1.51.49-.32.24-.43.47-.37.53Z"/>
    <path class="st5" d="M568.05,190.55c-.55-.17-1.12-.28-1.69-.31-.26,0-.51-.08-.56-.26-.02-.28.04-.55.18-.79.25-.64.51-1.32.79-2,.73-1.71,1.32-3.49,1.76-5.3-.86,1.65-1.6,3.37-2.19,5.14l-.75,2c-.16.31-.21.66-.14,1,.08.19.24.34.44.39.15.04.3.06.45.06.56.1,1.14.12,1.71.07Z"/>
    <path class="st5" d="M571.12,191.27c-.17,0-.17,1.12-1.14,1.92s-2.17.68-2.18.83.27.22.78.24c.66,0,1.3-.22,1.82-.64.49-.4.81-.98.88-1.61.04-.47-.08-.75-.16-.74Z"/>
    <path class="st5" d="M571.56,178.75c.11.28,1.15.14,2.37.29s2.21.48,2.37.23-.1-.39-.5-.66c-.54-.35-1.16-.56-1.8-.61-.63-.07-1.26,0-1.85.22-.4.17-.63.39-.59.53Z"/>
    <path class="st5" d="M562,179.62c.19.23.9,0,1.77,0s1.59.16,1.76-.09,0-.36-.36-.58c-.43-.28-.93-.41-1.44-.39-.51,0-1,.18-1.4.48-.33.22-.43.46-.33.58Z"/>
    <path class="st5" d="M585.34,176.54c-.09,2,.35,4.17,0,6.11-.06.29-.82,1.08-.88,1.37-.4,1.71-1.11,2.45-2.13.68-.39-1.08-.66-2.2-.8-3.34l-1.23-6.26c-1.59.83-3.36,1.24-5.15,1.22-1.82-.05-3.48-1.03-4.4-2.6-1.57,2.59-4.94,3.42-7.53,1.85-.34-.21-.66-.45-.95-.73-.69.95-1.98,1.23-3,.64-.98-.65-1.42-1.87-1.1-3,.47-1.65,2.24-2.55,3.89-3,6.44-1.9,13.56-.41,19.35,3,.87.46,1.66,1.05,2.34,1.76.66.72,1.58,1.57,1.61,2.55"/>
    <path class="st11" d="M597.09,241.55l6.91-18.83c-1.44-4.84-6.61-10.08-13.8-11.45-2.29-.44-4.51-1.27-7.19-1.38h0c-5.04,3.98-12.13,4.07-17.26.21l-.25-.18c-.69.08-1.61.17-2.76.31h-.23c-2.87.36-5.6,1.45-7.93,3.16h0l-36.07,21.53-21.18-16.1-10.73,8.41s27.75,27.75,30.44,28.41c1.87.46,20.38-9.65,31.6-15.91-.46,6.72-3,44.07-2.85,49.17h51.54v-29.96l-.24-17.39Z"/>
    <path class="st11" d="M577,263.61s25.1,11.07,27.5,11.59c8,1.75,15.29-4.93,14.12-11.22-.6-3.27-14.73-42.11-14.73-42.11l-10.16,15.13,5.06,19.76-15.28-1.95-6.51,8.8Z"/>
    <path class="st5" d="M599,273.26c-.12-.09-.26-.16-.4-.22l-1.2-.59-4.51-2.1-15.36-7,.1.31,2.94-5.26c.63-1.12,1.25-2.23,1.83-3.28l-.22.12,18.37,1.8,5.46.49,1.48.11c.17.02.34.02.51,0-.16-.05-.33-.08-.5-.09l-1.47-.19-5.45-.63-18.36-2h-.14l-.08.13c-.58,1.05-1.2,2.15-1.83,3.28-1,1.8-2,3.56-2.93,5.26l-.12.22.22.1,15.43,6.87,4.56,2,1.23.51c.14.07.29.13.44.16Z"/>
    <path class="st5" d="M582.45,254.12l2.15-10.47s-26.47-.34-26.18.13,2.8,24,2.8,24c0,0,18.62-.7,17.93-.64l3.3-13.02Z"/>
    <path class="st2" d="M584.52,249.35h0c-1.02,0-1.93.62-2.3,1.57-.28.97-.82,1.84-1.57,2.51-1.15.63-3.14,1.13-4.19.62s-5.23-4.28-6-3.86-1.36,1.36-.63,2.19,4.6,3.35,3.87,4.19-8.9-2.85-10.15-2.52-2,1.09-1.26,1.6c.74.51,6.28,2.59,6.6,3.33,0,0-8.38-2.2-8.69-1.68s-.84,1.36,0,1.68,8.06,2.19,8.69,2.51c1.04.43,2.12.75,3.22.94,1.14.3,2.27.66,3.38,1.07,1.69.59,3.54.54,5.2-.14l.85-.35c1.32-.53,2.15-1.85,2.06-3.27l-.17-2.86.92-2.35.17-5.18Z"/>
    <path class="st5" d="M597.21,256.63c-.15,0-.26-6-.26-13.43s.11-13.43.26-13.43.26,6,.26,13.43-.12,13.43-.26,13.43Z"/>
    <path class="st5" d="M549.34,223.78c.04.41.04.83,0,1.24,0,.9-.06,2-.09,3.36-.11,2.83-.29,6.75-.52,11.07s-.48,8.24-.67,11.07c-.11,1.33-.2,2.45-.27,3.35,0,.42-.06.83-.17,1.23-.04-.41-.04-.83,0-1.24,0-.9.06-2,.1-3.36.1-2.83.28-6.75.52-11.08s.47-8.24.67-11.07c.1-1.33.19-2.45.26-3.35,0-.41.06-.82.17-1.22Z"/>
    <path class="st6" d="M596.71,229.77c0,.15-10.49.26-23.44.26s-23.45-.11-23.45-.26,10.5-.26,23.45-.26,23.44.12,23.44.26Z"/>
    <path class="st6" d="M596.8,232.39c0,.14-10.66.26-23.8.26s-23.81-.12-23.81-.26,10.66-.26,23.81-.26,23.8.11,23.8.26Z"/>
    <path class="st6" d="M597.2,235.74c0,.15-10.5.26-23.45.26s-23.45-.11-23.45-.26,10.5-.26,23.45-.26,23.45.12,23.45.26Z"/>
    <path class="st5" d="M593.8,256.65c-.85,1.95-1.82,3.85-2.9,5.68-.92,1.91-1.95,3.77-3.09,5.57.67-2.03,1.55-3.98,2.63-5.82.93-1.92,2.06-3.74,3.36-5.43Z"/>
    <path class="st5" d="M596.7,257.37c-1.63,3.98-3.79,7.73-6.42,11.14.94-1.93,1.98-3.8,3.13-5.61.99-1.9,2.09-3.75,3.29-5.53Z"/>
    <path class="st5" d="M503,223.41c.12.12-2.21,2.33-5.18,4.93-1.74,1.63-3.6,3.13-5.56,4.5,1.61-1.76,3.36-3.4,5.21-4.9,1.49-1.3,2.85-2.45,3.85-3.27.51-.48,1.08-.9,1.68-1.26Z"/>
    <path class="st5" d="M505.46,225.24c-1.62,1.79-3.38,3.46-5.25,5-1.49,1.32-2.86,2.5-3.87,3.33-.51.49-1.09.92-1.71,1.26.42-.57.91-1.09,1.46-1.54,1-.9,2.28-2.12,3.78-3.44s2.87-2.49,3.88-3.32c.52-.49,1.09-.93,1.71-1.29Z"/>
    <path class="st4" d="M557,457.63v-9l16.94-.21.22,13.23-1,.08c-4.67.32-23.77,1.28-26.91.37-3.59-1.05,10.75-4.47,10.75-4.47Z"/>
    <g class="st8">
      <path d="M568,461.55c.24-1.43.99-2.72,2.12-3.63,1.11-.91,2.52-1.37,3.95-1.28l.06,4.73-6.13.18Z"/>
    </g>
    <g class="st8">
      <path d="M550,459.55s-5,1.52-4.38,2.34,20,.58,28.5-.28v-.38l-22.56.48s-.56-2.13-1.56-2.16Z"/>
    </g>
    <path class="st5" d="M574.35,461.22h-.29l-.84.06-3.07.17c-2.6.13-6.19.25-10.16.31s-7.57,0-10.17,0l-3.08-.09h-1.13,14.37c3.97,0,7.56-.16,10.16-.25l3.08-.1h.84c.09-.04.19-.08.29-.1Z"/>
    <path class="st5" d="M551.54,462c-.15-.51-.35-1-.6-1.47-.31-.42-.67-.81-1.06-1.16,1.04.45,1.7,1.49,1.66,2.63Z"/>
    <path class="st5" d="M556.5,459.38s-.29-.26-.54-.65-.42-.72-.37-.75.29.26.54.64.42.73.37.76Z"/>
    <path class="st5" d="M557.87,458.64s-.31-.14-.61-.4-.5-.5-.46-.54.3.13.6.39.5.5.47.55Z"/>
    <path class="st5" d="M558.71,457c-.28.1-.58.14-.88.12-.3.04-.6,0-.89-.08.28-.11.58-.15.88-.13.3-.04.6-.01.89.09Z"/>
    <path class="st5" d="M559,455.89c-.29.2-.64.3-1,.3-.34.06-.69.02-1-.12.33-.06.66-.08,1-.08.33-.06.66-.09,1-.1Z"/>
    <path class="st5" d="M555.91,457.91c-.36.06-.73.06-1.09,0-.39-.04-.78-.12-1.16-.24-.23-.06-.46-.15-.67-.26-.13-.07-.23-.19-.27-.34-.04-.16.03-.33.16-.43.98-.5,2.19-.11,2.69.88.06.13.11.26.15.39.02.1.02.19,0,.29-.12-.33-.29-.64-.51-.92-.25-.28-.58-.49-.94-.59-.43-.14-.89-.1-1.29.11-.17.13-.1.33.09.44.2.11.4.19.62.25.36.13.74.22,1.12.28.68.11,1.1.1,1.1.14Z"/>
    <path class="st5" d="M555.63,458c-.14-.23-.19-.5-.14-.76.03-.29.13-.56.29-.8.18-.33.52-.54.9-.56.23.04.38.26.34.49,0,0,0,0,0,0-.02.17-.08.34-.18.49-.14.24-.31.47-.5.67-.17.2-.38.35-.62.45,0,0,.21-.2.51-.55.17-.2.32-.42.45-.66.14-.23.24-.65,0-.69s-.55.25-.71.47c-.15.21-.25.45-.3.71-.04.24-.05.49-.04.74Z"/>
    <path class="st5" d="M574,456.59s-.49,0-1.25.06c-1,.13-1.94.53-2.72,1.16-.77.64-1.35,1.48-1.68,2.43-.24.73-.26,1.22-.3,1.22-.02-.11-.02-.23,0-.34.03-.31.09-.62.18-.92.29-1,.88-1.89,1.68-2.55.81-.65,1.79-1.05,2.83-1.14.31-.04.62-.04.93,0,.11.01.22.04.33.08Z"/>
    <path class="st5" d="M572.1,449.56c.13,1.16.2,2.32.19,3.48.06,1.16.06,2.32,0,3.48-.13-1.15-.2-2.31-.19-3.47-.07-1.16-.07-2.33,0-3.49Z"/>
    <path class="st5" d="M565.82,459.93c-.81.2-1.64.29-2.47.28-.83.05-1.66,0-2.48-.17,0-.06,1.11,0,2.48,0s2.46-.17,2.47-.11Z"/>
    <path class="st5" d="M569.14,459.88s-.09.24-.2.49-.17.48-.22.48-.09-.26,0-.56.38-.45.42-.41Z"/>
    <path class="st5" d="M570.37,458.31s-.06.22-.24.4-.34.29-.38.25.06-.22.24-.4.34-.29.38-.25Z"/>
    <path class="st5" d="M572.15,457.58s-.23.05-.48.15-.43.22-.47.18.09-.27.4-.38.57,0,.55.05Z"/>
    <path class="st5" d="M573.42,457.22c0,.06-.07.14-.21.2s-.27.06-.29,0,.07-.14.21-.2.27-.05.29,0Z"/>
    <path class="st4" d="M608.47,451.88l1.62,6.78s11.09,14.41,14.51,13.7c2.24-.46-.52-4.22-4.73-15.16l-.89-4.52-10.51-.8Z"/>
    <path class="st5" d="M625.05,470.24c-.14.24-.35.43-.59.56-.71.31-1.53.2-2.13-.29-1.94-1.63-3.79-3.38-5.52-5.23-2-2.16-3.77-4.23-5-5.76l-1.41-1.82-.39-.5-.14-.17s0,.07.11.19l.35.52c.32.45.78,1.09,1.37,1.87,1.57,2.02,3.23,3.96,5,5.81,1.74,1.87,3.61,3.61,5.59,5.21.37.26.8.41,1.25.46.35.03.7-.05,1-.22.19-.1.35-.25.47-.43.02-.06.04-.13.04-.2Z"/>
    <path class="st5" d="M623.48,465.61c-.29-.12-.6-.15-.91-.11-.74.08-1.46.33-2.09.73-.66.37-1.19.93-1.52,1.61-.15.27-.23.57-.24.88,0,0,.1-.33.36-.82.36-.62.88-1.14,1.5-1.5.61-.38,1.29-.64,2-.75.3-.03.6-.04.9-.04Z"/>
    <path class="st5" d="M613,462.23c.06-.1.1-.22.13-.33.1-.3.17-.61.22-.93.16-1.06-.02-2.14-.52-3.08-.48-.96-1.27-1.73-2.24-2.18-.29-.14-.59-.23-.91-.28-.12-.02-.23-.02-.35,0,.41.12.81.26,1.2.44.92.47,1.66,1.22,2.12,2.14.48.92.68,1.97.56,3-.11.73-.27,1.21-.21,1.22Z"/>
    <path class="st5" d="M609.18,453s.2,1,.41,2.17c.08.73.28,1.45.57,2.13.05,0-.17-1-.38-2.17-.09-.74-.29-1.46-.6-2.13Z"/>
    <path class="st5" d="M620.06,458.16c-.46-.14-.96-.14-1.42,0-.48.07-.92.28-1.28.6,0,.06.58-.24,1.33-.41s1.37-.13,1.37-.19Z"/>
    <path class="st5" d="M620.29,459.32c-.39-.14-.81-.14-1.2,0-.41.06-.78.26-1.05.58,0,0,.48-.25,1.1-.39s1.14-.13,1.15-.19Z"/>
    <path class="st5" d="M621.18,460.78c-.79-.41-1.76-.19-2.3.52.35-.21.71-.37,1.1-.49.4-.05.8-.06,1.2-.03Z"/>
    <path class="st5" d="M619.3,457.67s-.51-.14-1.3-.44c-.46-.18-.91-.4-1.34-.65-.26-.14-.5-.3-.74-.47-.22-.16-.47-.41-.46-.67s.33-.41.59-.34c.26.09.5.24.68.45.41.39.76.76,1,1.07.57.64.88,1.06.91,1-.05-.11-.11-.22-.19-.32-.19-.28-.39-.55-.61-.81-.31-.39-.65-.76-1-1.11-.21-.24-.47-.41-.77-.51-.33-.11-.69.06-.8.39-.01.04-.02.08-.03.13.03.35.24.67.55.84.24.17.5.33.76.47.44.25.9.46,1.38.62.33.11.66.2,1,.27.12.04.24.07.37.08Z"/>
    <path class="st5" d="M618.72,457.53s.07-.48.2-1.24c.07-.44.2-.87.38-1.28.1-.24.24-.45.41-.65.17-.19.43-.36.63-.24s.24.43.21.68c-.04.26-.11.5-.22.74-.18.41-.42.79-.72,1.12-.51.57-.92.84-.89.87.11-.04.2-.1.29-.17.25-.18.49-.38.7-.6.32-.33.59-.72.79-1.14.12-.25.2-.52.24-.8.08-.32-.03-.67-.3-.87-.32-.13-.68,0-.87.28-.18.21-.33.45-.44.71-.18.42-.3.87-.35,1.33,0,.39-.06.71-.07.92s-.01.34,0,.34Z"/>
    <g class="st8">
      <path d="M610.09,458.66l-.78-3.26s2.71.51,3.42,2.54c.41,1.11.59,2.3.53,3.48l5.9,6.36s1.49-2.89,4.17-2.2c0,0,2.11,4.65,2,5.81s-1.42,1-1.9.81c-1.95-1.13-3.73-2.54-5.29-4.18-2.84-2.98-5.53-6.11-8.05-9.36Z"/>
    </g>
    <polygon class="st5" points="545.59 284.44 553.66 455.18 575.83 455.71 574.08 307.67 607.24 455.99 625.05 455.18 596.52 284.79 545.59 284.44"/>
    <path class="st11" d="M568.65,286.75c-.02.94.05,1.88.2,2.81.18,1.72.46,4.1.81,6.73.12,1.25.32,2.49.61,3.71.26,1.03.83,1.95,1.63,2.65.53.47,1.18.79,1.88.93.25.07.52.07.77,0-1.93-.32-3.46-1.79-3.86-3.7-.26-1.21-.45-2.43-.57-3.66-.35-2.63-.68-5-1-6.72-.08-.93-.24-1.85-.47-2.75Z"/>
    <path class="st11" d="M574.1,287.76c-.06,0,.15.32,0,.77-.07.24-.24.44-.47.55-.27.1-.58.02-.78-.19-.22-.19-.31-.49-.22-.76.09-.23.28-.42.52-.5.44-.16.73,0,.76,0s-.23-.4-.85-.28c-.36.07-.67.31-.83.64-.23.62.09,1.3.71,1.53.29.1.6.1.88-.03.33-.17.55-.49.6-.86.09-.63-.3-.92-.32-.87Z"/>
    <path class="st11" d="M588.17,290.71c.69-1.53.57-3.31-.33-4.73-.13,0,.22,1.06.3,2.35s-.14,2.34.03,2.38Z"/>
    <path class="st11" d="M585,290.39c.41-.76.57-1.62.47-2.48.05-.86-.18-1.72-.64-2.45,0,.82.07,1.64.17,2.46-.05.82-.05,1.65,0,2.47Z"/>
    <path class="st11" d="M557.74,290.07c.05-.85.03-1.7-.06-2.55.07-.85.07-1.7,0-2.55-.38.8-.53,1.68-.44,2.56-.08.88.1,1.76.5,2.54Z"/>
    <path class="st11" d="M554.3,289.76c.13-.05-.24-1.18-.28-2.6s.24-2.58.11-2.62c-.48.79-.68,1.71-.57,2.63-.05.92.22,1.83.74,2.59Z"/>
    <polygon class="st4" points="583.78 209.63 583.78 209.63 583.78 209.63 583.78 209.63"/>
    <path class="st2" d="M496,220s-4.09-6.92-5.05-7.64-9.56-3.71-10.29-3.47-11,2.18-9.83,3.39,8.4-.25,8.4-.25l1,.47s-6.22,1.1-7.52,1.88-.76,2.19.38,2,6.54-1.27,6.87-1.06-5.87,1.56-6.53,2c-.89.54-1,2.15.18,2.05.67-.06,6.5-1.67,6.5-1.67-1.71.67-3.38,1.43-5,2.28-.69.68-.12,1.68.89,1.44.69-.16,3.94-1.78,4.86-2,0,0,.87.22,1.69,2s5.13,5.17,5.13,5.17l8.32-6.59Z"/>
    <path class="st1" d="M470.83,212.28c.59.3,1.23.46,1.89.49.71.09,1.43.11,2.14.06.79-.1,1.65-.24,2.56-.38l1.92-.32h-.12c1.46.56,2.96,1,4.49,1.32-1.39-.71-2.85-1.3-4.34-1.76h-.11l-1.91.29-2.53.41c-.69.07-1.38.09-2.07.05-1.18-.07-1.9-.23-1.92-.16Z"/>
    <path class="st11" d="M463.32,207.36s-7.46,22.63-10,27.2l25.4,7.76,4.62-2.95s6.17-18.22,6.95-24.34l-26.97-7.67Z"/>
    <polygon class="st5" points="480.1 238.53 478.76 242.32 483.38 239.37 480.1 238.53"/>
    <path class="st6" d="M483.43,222.93c-.97-.22-1.92-.51-2.84-.89l-6.79-2.34-6.8-2.23c-.96-.26-1.9-.59-2.8-1,.99.13,1.96.35,2.91.65,1.78.48,4.22,1.21,6.88,2.1s5.05,1.79,6.76,2.48c.93.32,1.83.73,2.68,1.23Z"/>
    <path class="st6" d="M481.27,228c-.95-.12-1.88-.34-2.79-.63-1.7-.46-4-1.15-6.6-2s-4.85-1.67-6.49-2.31c-.91-.3-1.79-.68-2.62-1.15.94.19,1.85.45,2.74.8l6.53,2.17,6.54,2.13c.92.25,1.82.58,2.69.99Z"/>
    <path class="st6" d="M478.7,232.63c-2.9-.71-5.75-1.58-8.55-2.61-2.85-.87-5.64-1.9-8.37-3.1,5.75,1.58,11.39,3.48,16.92,5.71h0Z"/>
    <path class="st2" d="M493.37,220.74c-.72.52-1.68.52-2.4,0-.75-.43-1.32-1.1-2-1.59-2.12-1.44-5.15-1-7.21-2.59-.28-.21-.57-.57-.42-.9s.54-.34.88-.34l8.52.07"/>
    <path class="st1" d="M490.7,215.43c-.3-.08-.61-.12-.92-.11l-2.51-.09-3.73-.08h-1.08c-.43-.07-.88.03-1.24.28-.21.21-.26.53-.13.8.1.22.25.4.44.54.33.26.69.48,1.08.64,1.45.5,2.93.9,4.43,1.19.62.17,1.22.43,1.77.77.5.33.92.73,1.34,1.06.64.61,1.53.91,2.41.81.63-.13.83-.48.81-.48-.26.15-.54.24-.83.29-.82.03-1.6-.29-2.17-.88-.44-.41-.89-.8-1.37-1.17-.57-.39-1.2-.68-1.86-.86-1.48-.32-2.93-.72-4.36-1.21-.35-.15-.69-.34-1-.57-.28-.22-.42-.52-.27-.64s.53-.15.9-.14h4.81c1.06,0,1.92,0,2.51-.06.33.01.65-.02.97-.09Z"/>
  </g>
  <g id="freepik--Plant--inject-238">
    <path class="st4" d="M148,391c7.82,2.73,18,.29,24.73-4.6s11.51-11.89,15.78-19c1.82-3,3.6-6.19,4.18-9.68s-.28-7.42-3-9.7c-4.21-3.54-10.66-1.74-15.43,1-15.13,8.82-24.95,24.52-26.26,41.98"/>
    <path class="st4" d="M156.38,409.7c4.7,6.2,12.77,9,20.55,9.32s15.45-1.78,22.71-4.57c2.64-1,5.52-2.4,6.43-5.07.58-2.1.06-4.36-1.38-6-1.43-1.59-3.23-2.82-5.24-3.57-7.15-3.05-15.35-3.19-22.87-1.24s-14.1,6.31-20.2,11.12"/>
    <path class="st4" d="M147.86,357.44c6.48.13,11.38-5.54,14.32-11.32,4.05-8.07,5.39-17.23,3.82-26.12-.6-3.31-1.85-6.88-4.81-8.48s-6.93-.55-9.45,1.76-3.91,5.59-4.92,8.86c-3.48,11.25-2.73,24.18,1,35.35"/>
    <path class="st4" d="M126.58,393.28c11-18.8,12.89-41.81,6.36-62.61-1.06-3.38-3.05-7.24-6.58-7.46-3.91-.25-6.36,4.11-7.44,7.87-3.79,13.22-3,27.25-2.15,41,.52,8.45,3.42,15.67,9.81,21.23"/>
    <path class="st4" d="M115.09,401c-4.16-13.05-14.02-23.51-26.8-28.43-2.94-1.1-6.66-1.73-8.85.51s-1.44,5.92-.11,8.64c2.22,4.44,5.83,8,9.43,11.43,3.27,3.12,6.67,6.24,10.81,8.05s11.74,2.27,15.52-.19"/>
    <path class="st5" d="M183.58,352.71c-.05.07-.12.12-.19.17l-.6.46-2.32,1.73-1.67,1.24c-.61.47-1.24,1-1.93,1.57-1.37,1.14-3,2.37-4.61,3.92l-2.6,2.37c-.91.83-1.77,1.76-2.71,2.69-1.9,1.82-3.74,4-5.72,6.16-8.43,9.75-15.26,20.77-20.23,32.66-1.09,2.76-2.17,5.36-3,7.88-.41,1.25-.86,2.45-1.19,3.62s-.65,2.31-1,3.39c-.65,2.15-1,4.14-1.44,5.87-.19.87-.39,1.68-.54,2.43l-.36,2.05c-.22,1.21-.39,2.16-.51,2.85l-.15.74c-.01.09-.04.17-.07.25-.01-.09-.01-.17,0-.26,0-.2.05-.44.09-.75.1-.69.24-1.65.42-2.86.09-.62.2-1.32.31-2.07s.33-1.56.5-2.44c.39-1.74.74-3.75,1.38-5.91l.92-3.4c.33-1.19.77-2.39,1.17-3.65.77-2.53,1.85-5.15,2.92-7.92,2.51-5.95,5.45-11.71,8.8-17.23,3.43-5.46,7.27-10.66,11.47-15.56,2-2.21,3.86-4.34,5.78-6.16,1-.92,1.83-1.85,2.74-2.67l2.64-2.35c1.64-1.54,3.28-2.75,4.67-3.88.7-.55,1.34-1.08,1.95-1.53l1.71-1.21,2.38-1.65.63-.42c.28-.09.35-.14.36-.13Z"/>
    <path class="st5" d="M198.21,404.82c-.26-.01-.51-.05-.76-.12-.5-.09-1.21-.28-2.15-.44-23.31-4.45-47.03,5.43-60.3,25.1-.55.78-.92,1.42-1.2,1.83-.13.22-.28.44-.45.63.1-.24.22-.46.36-.68.25-.43.6-1.09,1.12-1.89,1.45-2.28,3.07-4.45,4.84-6.49,11.85-13.8,29.54-21.16,47.68-19.84,2.69.18,5.37.56,8,1.14.93.19,1.65.41,2.13.53.25.06.49.14.73.23Z"/>
    <path class="st5" d="M157.41,319c0,.1,0,.19,0,.29-.05.22-.11.5-.18.85-.17.77-.42,1.86-.72,3.23-.64,2.81-1.61,6.86-2.83,11.87-2.43,10-6,23.79-9.65,39.06-1.84,7.64-3.49,14.94-4.92,21.59s-2.6,12.67-3.49,17.74c-.47,2.53-.83,4.83-1.17,6.85s-.62,3.75-.83,5.18-.38,2.49-.5,3.27l-.15.86c-.01.1-.04.19-.07.28-.01-.1-.01-.19,0-.29,0-.22.05-.51.09-.86.1-.79.24-1.89.41-3.29s.42-3.18.74-5.2.65-4.32,1.1-6.86c.84-5.08,2-11.11,3.38-17.78s3.05-14,4.88-21.61c3.68-15.28,7.28-29.05,9.8-39,1.26-5,2.27-9,3-11.83.35-1.36.62-2.44.82-3.21.09-.34.17-.61.23-.83,0-.11.03-.21.06-.31Z"/>
    <path class="st5" d="M132.05,428.54s0-.07-.07-.23-.1-.4-.16-.68c-.13-.67-.31-1.54-.54-2.61-.47-2.28-1.09-5.58-1.8-9.67-1.42-8.18-3.09-19.54-4.13-32.17-.5-6.32-.78-12.35-.9-17.84s0-10.44.13-14.59c0-2.07.19-3.95.28-5.6s.2-3.06.3-4.21.19-2,.25-2.67l.08-.69c0-.08,0-.15,0-.23.01.08.01.16,0,.24v.69c0,.66-.08,1.55-.14,2.67s-.16,2.57-.22,4.22-.18,3.52-.2,5.59c-.13,4.15-.14,9.09,0,14.57s.44,11.5.94,17.81c1,12.61,2.65,24,4,32.15.67,4.1,1.23,7.41,1.64,9.69.18,1.11.33,2,.44,2.64l.11.68c0,.08,0,.16,0,.24Z"/>
    <path class="st5" d="M132.86,430.93c-.11-.21-.21-.43-.29-.65l-.72-1.89-.52-1.37c-.22-.49-.46-1-.71-1.59s-.53-1.18-.81-1.82-.66-1.3-1-2l-1.12-2.19c-.44-.74-.88-1.51-1.35-2.31-.88-1.62-2-3.23-3.14-5-2.57-3.7-5.34-7.26-8.32-10.64-3.02-3.35-6.2-6.53-9.55-9.55-1.58-1.34-3-2.68-4.51-3.81l-2.09-1.66-2-1.47c-1.26-.95-2.43-1.74-3.47-2.44s-1.93-1.3-2.68-1.75l-1.71-1.09c-.21-.11-.4-.25-.58-.41.22.09.43.2.63.32l1.77,1c.77.43,1.68,1,2.73,1.69s2.25,1.45,3.52,2.39l2,1.44,2.12,1.65c1.49,1.11,3,2.44,4.56,3.78,3.38,3.01,6.59,6.21,9.62,9.57,2.99,3.4,5.77,6.97,8.33,10.71,1.1,1.77,2.24,3.4,3.12,5,.45.81.89,1.59,1.32,2.34l1.1,2.22c.34.71.7,1.37,1,2s.53,1.27.78,1.85l.67,1.61c.17.5.33,1,.48,1.39l.63,1.93c.09.24.16.49.19.75Z"/>
    <path class="st5" d="M179.48,374.51c-1.16.13-2.32.2-3.49.21-2.8.15-5.58.49-8.34,1-2.75.53-5.47,1.24-8.13,2.11-2,.68-3.28,1.17-3.32,1.1.25-.19.53-.34.83-.45.55-.27,1.36-.61,2.37-1,2.65-.99,5.38-1.76,8.16-2.29,2.78-.53,5.59-.81,8.42-.86h2.56c.32.02.64.08.94.18Z"/>
    <path class="st5" d="M187.81,415.22c-2.27-5.08-6.16-9.26-11.05-11.9.8.2,1.56.54,2.25,1,3.47,1.99,6.26,4.98,8,8.59.39.72.66,1.5.8,2.31Z"/>
    <path class="st5" d="M159.4,334.24c.1.11-1.93,2.13-4.15,4.86s-3.8,5.12-3.93,5c.92-1.95,2.11-3.75,3.53-5.37,1.29-1.71,2.83-3.22,4.55-4.49Z"/>
    <path class="st5" d="M152.72,322.72c.51,1.41.85,2.87,1,4.36.34,1.46.5,2.95.49,4.44-.83-2.87-1.33-5.82-1.5-8.8h0Z"/>
    <path class="st5" d="M132.06,358.88c-.92,2.34-2,4.62-3.23,6.81-1.08,2.27-2.32,4.46-3.7,6.56.92-2.34,2-4.61,3.23-6.8,1.08-2.27,2.32-4.47,3.7-6.57Z"/>
    <path class="st5" d="M119.76,346.61c1.07,1.55,1.98,3.2,2.74,4.92.92,1.64,1.68,3.37,2.27,5.15-1.06-1.56-1.97-3.2-2.74-4.92-.91-1.64-1.67-3.37-2.27-5.15Z"/>
    <path class="st5" d="M101.68,388.6c0,.15-2.22-.28-5-.47s-5-.08-5-.24c1.64-.38,3.33-.48,5-.28,1.71.03,3.41.36,5,.99Z"/>
    <path class="st5" d="M114,425.73l6.15,32.34c.4,2.14,2.27,3.68,4.45,3.68h18.2c2.22,0,4.11-1.6,4.47-3.79l5.35-32.23h-38.62Z"/>
    <polygon class="st11" points="116.03 436.24 150.77 436.24 152.62 425.73 114.03 425.73 116.03 436.24"/>
    <polygon class="st7" points="116.03 436.24 116.76 440.07 150.24 440.07 150.77 436.24 116.03 436.24"/>
  </g>
</svg>