<?xml version="1.0" encoding="UTF-8"?>
<svg id="Layer_1" xmlns="http://www.w3.org/2000/svg" version="1.1" viewBox="0 0 500 500">
  <!-- Generator: Adobe Illustrator 29.5.1, SVG Export Plug-In . SVG Version: 2.1.0 Build 141)  -->
  <defs>
    <style>
      .st0 {
        fill: #e0e0e0;
      }

      .st1 {
        fill: #ebebeb;
      }

      .st2 {
        fill: #4a9288;
      }

      .st3 {
        fill: #fff;
      }

      .st4 {
        fill: #fafafa;
      }

      .st5 {
        opacity: .3;
      }
    </style>
  </defs>
  <g id="freepik--background-complete--inject-37">
    <path class="st0" d="M292,117l11.38-48.41c0-2.14,1.5-5.15,3.38-6,.94-.44,2-.54,3-.29l27.11,6.9c1.7.39,3,1.76,3.3,3.48l1.47,7.32,35.46,9c4.82.8,6.82,5.26,5.6,8.6l-10.81,40.84c-1.72,4.71-6.88,7.28-11,6.23l-62.68-15.94c-4.29-1.08-6.97-5.8-6.21-11.73Z"/>
    <path class="st1" d="M291.25,116l10-40.5c1.18-3.1,3.89-4.93,6.38-4.29l71.04,18.09c3,.77,4.47,4.77,3.13,8.56l-9,37.52c-2.37,9.33-8,10.85-12.29,9.77l-62.27-15.85c-6.4-1.63-9.36-5.3-6.99-13.3h0Z"/>
    <path class="st1" d="M125.76,369.66l-53.46,28.89c-3.69,2-8.3.62-10.3-3.07l-40-74c-2-3.7-.62-8.31,3.07-10.31l33.93-18.31,40.86,12.86,29,53.63c1.99,3.7.61,8.32-3.1,10.31h0Z"/>
    <path class="st4" d="M93.1,341.35s.44-.26,1.16-.87c1.03-.93,1.78-2.14,2.14-3.48.41-1.51.3-3.11-.32-4.55-.24-.53-.55-1.07-.86-1.64l-4.22-7.65-2.44-4.47-1.29-2.38c-.4-.82-.9-1.6-1.47-2.31-1.26-1.46-3.03-2.39-4.94-2.61-1-.13-2.02-.06-3,.21-.99.31-1.94.74-2.82,1.28l-24.5,13.31c-1.98,1.33-3.2,3.53-3.29,5.92-.06,1.15.16,2.3.65,3.35.49,1,1.1,2.07,1.64,3.1l6.46,11.85c.51.92,1,1.93,1.53,2.75.57.81,1.3,1.49,2.14,2,1.65.99,3.62,1.27,5.48.77.87-.28,1.71-.66,2.5-1.13l2.35-1.26,4.49-2.41,13.57-7.21,3.73-1.92,1-.49c.11-.06.22-.11.34-.14-.1.08-.2.15-.31.2l-.94.55c-.88.48-2.1,1.17-3.65,2l-13.47,7.39-4.5,2.49-2.38,1.3c-.82.5-1.7.9-2.61,1.19-3.1.85-6.41-.35-8.24-3-.61-.93-1-1.85-1.57-2.8l-6.46-11.83c-.55-1-1.13-2-1.67-3.14-.52-1.14-.77-2.38-.71-3.63.1-2.59,1.42-4.98,3.57-6.43,8.73-4.81,17-9.21,24.58-13.3.94-.57,1.95-1.01,3-1.32,1.03-.28,2.11-.35,3.17-.21,2.05.25,3.93,1.26,5.27,2.82.6.75,1.11,1.56,1.53,2.42.43.81.86,1.6,1.28,2.38.83,1.56,1.63,3.06,2.4,4.49,1.53,2.86,2.91,5.45,4.12,7.73.31.57.6,1.11.86,1.68.22.55.38,1.12.46,1.7.36,2.47-.59,4.94-2.51,6.53-.38.31-.8.57-1.25.77h0Z"/>
    <path class="st0" d="M51.27,375.66l66.86-36.14h0l11.3,20.91c1.67,3.09.52,6.95-2.57,8.62l-55.67,30.09c-3.09,1.67-6.95.52-8.62-2.57l-11.3-20.91h0Z"/>
    <path class="st1" d="M59,292.86l11.26,20.82c1.85,3.43,6.13,4.72,9.56,2.87h.02l20-10.82-40.84-12.86h0Z"/>
    <path class="st0" d="M71.5,315.36s2.47,5.2,9.11,3.75c.25-.06.5-.13.74-.21,2.87-.94,21.73-7.19,21.52-7.58l-3-5.6-20,10.83s-5.14,2.53-8.37-1.19Z"/>
    <path class="st4" d="M87.07,365.71l2.4-1.3,5.62,10.39-2.4,1.3-5.62-10.39Z"/>
    <path class="st4" d="M95.38,363.71l1.49,2.74,4.81-2.6,1,1.93-4.81,2.61,2,3.78-2.41,1.3-5.62-10.39,7.86-4.25,1,1.93-5.32,2.95h0Z"/>
    <path class="st1" d="M382.79,421.65l-37.79-18.26c-2.6-1.26-3.69-4.39-2.44-7l25.26-52.28c1.26-2.6,4.39-3.69,7-2.44l24,11.57,9.31,28.07-18.33,37.89c-1.26,2.61-4.4,3.71-7.01,2.45h0Z"/>
    <path class="st4" d="M385.44,391.92s.32.14.95.3c.93.21,1.9.14,2.8-.19.64-.24,1.22-.62,1.7-1.11.27-.27.52-.58.72-.91.2-.35.38-.74.57-1.15.76-1.61,1.64-3.44,2.6-5.45.48-1,1-2.07,1.51-3.18l.81-1.68c.3-.56.54-1.15.7-1.77.3-1.29.11-2.65-.53-3.81-.32-.6-.75-1.13-1.27-1.57-.57-.43-1.2-.79-1.86-1.06l-17.39-8.34c-1.55-.56-3.27-.36-4.65.55-.67.44-1.22,1.03-1.61,1.72-.37.69-.71,1.45-1.07,2.17-1.41,2.9-2.76,5.7-4.05,8.36-.31.67-.68,1.33-.93,2-.22.64-.31,1.32-.26,2,.11,1.32.76,2.54,1.79,3.38.51.38,1.06.69,1.64.94l1.68.82,3.16,1.54,9.52,4.68,2.58,1.29.67.35.22.13c-.08-.02-.17-.05-.24-.09l-.69-.31-2.61-1.21-9.59-4.56-3.17-1.51-1.69-.81c-.61-.26-1.18-.6-1.71-1-1.12-.89-1.82-2.2-1.94-3.63-.07-.74.02-1.49.27-2.19.27-.71.62-1.32.93-2,1.28-2.67,2.63-5.47,4-8.37.36-.73.68-1.45,1.08-2.2.42-.75,1.03-1.4,1.75-1.87,1.48-.98,3.33-1.2,5-.6,6.22,2.95,12,5.81,17.38,8.39.69.29,1.33.67,1.93,1.12,1.72,1.38,2.5,3.63,2,5.78-.18.64-.43,1.25-.74,1.83l-.82,1.68c-.53,1.1-1.05,2.15-1.54,3.16l-2.64,5.46c-.2.4-.38.79-.6,1.16-.21.34-.47.66-.76.94-.51.5-1.12.88-1.79,1.12-.93.32-1.93.36-2.88.12-.33-.09-.64-.24-.93-.42h0Z"/>
    <path class="st0" d="M349.31,382.38l47.23,22.82h0l-6.29,13.01c-1.53,3.16-5.33,4.49-8.49,2.96l-35.77-17.29c-3.16-1.53-4.49-5.33-2.96-8.49l6.29-13.01h-.01Z"/>
    <path class="st1" d="M398.8,353.23l-7.11,14.77c-1.17,2.43-.15,5.34,2.27,6.52l14.15,6.83-9.31-28.12h0Z"/>
    <path class="st0" d="M391.26,369.33c-1.09,2.3-.43,5.06,1.58,6.62l.42.33c1.69,1.22,12.8,9.26,12.94,9l1.91-4-14.11-6.81s-3.52-1.83-2.74-5.14h0Z"/>
    <path class="st4" d="M364.52,400.44l1.56.75-1.44,3c-1.17.19-2.37.02-3.43-.5-2.17-.88-3.21-3.34-2.33-5.51s3.34-3.21,5.51-2.33c.18.07.36.16.53.26,1.19.51,2.09,1.51,2.46,2.75l-1.58.48c-.22-.78-.77-1.42-1.5-1.75-1.28-.65-2.86-.14-3.51,1.14s-.14,2.86,1.14,3.51c.03.01.05.03.08.04.45.24.96.35,1.47.33l1.04-2.17h0Z"/>
    <path class="st4" d="M369.36,398.39l1.7.82-3.55,7.35-1.7-.83,3.55-7.34h0Z"/>
  </g>
  <g id="freepik--folder-2--inject-37">
    <path class="st2" d="M177.44,221.57l-20.39-57.57c-1.37-2.24-1.86-6.31-.48-8.45.67-1.07,1.69-1.88,2.88-2.29l32.6-10.87c2.02-.71,4.27-.15,5.73,1.41l6.36,6.61,42.68-14.19c5.51-2.37,10.54.91,11.5,5.17l15.95,49.39c1.35,6-2.28,12.1-7.23,13.75l-75.38,25.14c-5.18,1.69-11.07-1.41-14.22-8.1Z"/>
    <g class="st5">
      <path d="M177.44,221.57l-20.39-57.57c-1.37-2.24-1.86-6.31-.48-8.45.67-1.07,1.69-1.88,2.88-2.29l32.6-10.87c2.02-.71,4.27-.15,5.73,1.41l6.36,6.61,42.68-14.19c5.51-2.37,10.54.91,11.5,5.17l15.95,49.39c1.35,6-2.28,12.1-7.23,13.75l-75.38,25.14c-5.18,1.69-11.07-1.41-14.22-8.1Z"/>
    </g>
    <path class="st2" d="M176.3,221l-16.59-48.48c-.85-4,.75-7.68,3.74-8.68l85.49-28.51c3.62-1.2,7.79,2,8.92,6.77l15.63,44.75c3.74,11.22-1.11,16.56-6.22,18.27l-74.91,25c-7.7,2.55-13.22.66-16.06-9.12h0Z"/>
  </g>
  <g id="freepik--folder-1--inject-37">
    <path class="st2" d="M101.43,429.46l-37.43-158.09c-1.57-6.62.54-13.75,5.71-17.86,2.54-2.07,5.72-3.22,9-3.25l103.6-3.26c5.57-.11,10.67,3.08,13,8.14l10.32,21.42,131.47.13c9.66,0,19.8,13.4,18.65,24.65l11.25,131.66c-1.63,15.88-15.65,27.83-29.28,27.83h-207.72c-14.24.04-26.29-12.39-28.57-31.37Z"/>
    <g class="st5">
      <path d="M101.43,429.46l-37.43-158.09c-1.57-6.62.54-13.75,5.71-17.86,2.54-2.07,5.72-3.22,9-3.25l103.6-3.26c5.57-.11,10.67,3.08,13,8.14l10.32,21.42,131.47.13c9.66,0,19.8,13.4,18.65,24.65l11.25,131.66c-1.63,15.88-15.65,27.83-29.28,27.83h-207.72c-14.24.04-26.29-12.39-28.57-31.37Z"/>
    </g>
    <polygon class="st0" points="103.22 434.06 93.32 258.92 338.52 255.21 347.12 430.74 103.22 434.06"/>
    <path class="st1" d="M102.1,266.1c-.07.9-.86,1.58-1.76,1.5-.9-.07-1.58-.86-1.5-1.76.07-.85.78-1.51,1.63-1.51.94.03,1.67.82,1.64,1.76h0s0,.01,0,.01Z"/>
    <path class="st1" d="M108.46,266.1c-.07.9-.86,1.58-1.76,1.5-.9-.07-1.58-.86-1.5-1.76.07-.85.78-1.51,1.63-1.51.94.03,1.67.82,1.64,1.76h0s0,.01,0,.01Z"/>
    <path class="st1" d="M114.83,266.1c-.07.9-.86,1.58-1.76,1.5-.9-.07-1.58-.86-1.5-1.76.07-.85.78-1.51,1.63-1.51.94.04,1.67.83,1.64,1.77h0Z"/>
    <g class="st5">
      <path d="M153.61,301.05c.64,4.5-2.49,8.67-6.99,9.31-.06,0-.12.02-.18.02-4.58.78-8.95-2.22-9.87-6.77-.65-4.49,2.47-8.66,6.97-9.3.06,0,.13-.02.19-.03,4.58-.8,8.97,2.21,9.88,6.77h0Z"/>
    </g>
    <polygon class="st1" points="110.29 442.37 106.98 271.96 357.76 271.43 356.73 439.83 110.29 442.37"/>
    <path class="st0" d="M121.52,278.63c-.07.9-.86,1.58-1.76,1.5-.9-.07-1.58-.86-1.5-1.76.07-.85.78-1.51,1.63-1.51.94.04,1.67.83,1.64,1.77h0Z"/>
    <path class="st0" d="M127.39,278.63c-.07.9-.86,1.58-1.76,1.5-.9-.07-1.58-.86-1.5-1.76.07-.85.78-1.51,1.64-1.51.94.04,1.67.83,1.63,1.77h0Z"/>
    <path class="st0" d="M115.28,278.63c-.07.9-.86,1.58-1.76,1.5-.9-.07-1.58-.86-1.5-1.76.07-.85.78-1.51,1.63-1.51.94.04,1.67.83,1.64,1.77h0Z"/>
    <polygon class="st4" points="116.12 446.53 116.12 284.5 365.87 283.97 352.46 450.01 116.12 446.53"/>
    <path class="st2" d="M104,428.59l14.94-121.75c1.16-9.52,7.94-16.58,15.93-16.58h228.13c9.65,0,17.14,10.17,16,21.72l-12,120.29c-3.5,25-13.11,28.6-26.74,28.6H127.08c-14.26,0-28.08-3.58-23.08-32.28h0Z"/>
  </g>
  <path class="st0" d="M41.64,110.86l14.05-47.7c.12-2.14,1.78-5.06,3.71-5.8.96-.39,2.02-.43,3.01-.12l26.69,8.39c1.67.49,2.9,1.93,3.1,3.66l1.06,7.39,34.91,10.95c4.77,1.07,6.52,5.63,5.11,8.9l-13.06,40.18c-1.98,4.61-7.27,6.89-11.33,5.61l-61.7-19.4c-4.22-1.32-6.64-6.18-5.55-12.06Z"/>
  <path class="st1" d="M40.95,109.82l12.23-39.88c1.35-3.03,4.16-4.71,6.61-3.93l69.93,22.01c2.95.94,4.2,5.01,2.65,8.72l-11.07,36.96c-2.88,9.18-8.59,10.39-12.81,9.07l-61.29-19.28c-6.3-1.98-9.05-5.81-6.24-13.67h0Z"/>
  <path class="st3" d="M223.73,369.97l12.17.22c8.89.16,15.96,7.49,15.8,16.38h0c-.16,8.89-7.49,15.96-16.38,15.8l-12.17-.22c-8.89-.16-15.96-7.49-15.8-16.38h0c.16-8.89,7.49-15.96,16.38-15.8Z"/>
  <path class="st3" d="M222.43,411.3h0c8.89.16,15.96,7.49,15.8,16.38h0c-.16,8.89-7.49,15.96-16.38,15.8h0c-8.89-.16-15.96-7.49-15.8-16.38h0c.16-8.89,7.49-15.96,16.38-15.8Z"/>
  <path class="st3" d="M293.18,360.51l-68.74-1.23c-8.89-.16-15.96-7.49-15.8-16.38h0c.16-8.89,7.49-15.96,16.38-15.8l68.74,1.23c8.89.16,15.96,7.49,15.8,16.38h0c-.16,8.89-7.49,15.96-16.38,15.8Z"/>
</svg>