<?xml version="1.0" encoding="UTF-8"?>
<svg id="Layer_1" xmlns="http://www.w3.org/2000/svg" version="1.1" viewBox="0 0 750 500">
  <!-- Generator: Adobe Illustrator 29.8.2, SVG Export Plug-In . SVG Version: 2.1.1 Build 3)  -->
  <defs>
    <style>
      .st0 {
        fill: #e0e0e0;
      }

      .st1 {
        fill: #ae7461;
      }

      .st2 {
        fill: #ebebeb;
      }

      .st3 {
        fill: #263238;
      }

      .st4 {
        fill: #6f4439;
      }

      .st5 {
        fill: #fff;
      }

      .st6 {
        fill: #619bb7;
      }

      .st7 {
        opacity: .3;
      }

      .st8 {
        fill: #ffbf9d;
      }

      .st9 {
        fill: #f5f5f5;
      }

      .st10 {
        fill: #455a64;
      }

      .st11 {
        fill: #ff9a6c;
      }
    </style>
  </defs>
  <g id="freepik--background-complete--inject-118">
    <rect class="st5" x="27.62" y="94.24" width="124.58" height="36.8"/>
    <path class="st0" d="M152.7,131.54H27.12v-37.8h125.58v37.8ZM28.12,130.54h123.58v-35.8H28.12v35.8Z"/>
    <circle class="st2" cx="46.98" cy="113.45" r="11.37"/>
    <path class="st5" d="M47.9,113.62c.95-.43,1.55-1.37,1.55-2.41.12-1.35-.87-2.54-2.22-2.66-1.35-.12-2.54.87-2.66,2.22-.01.15-.01.3,0,.44-.02,1.05.59,2.01,1.55,2.44-3.76.56-3.58,4.64-3.58,4.64h8.88s.2-4.11-3.52-4.67Z"/>
    <path class="st0" d="M137.88,113c0,.15-16,.26-35.84.26s-35.83-.11-35.83-.26,16-.26,35.83-.26,35.84.1,35.84.26Z"/>
    <rect class="st5" x="116.47" y="37.75" width="124.58" height="36.8"/>
    <path class="st0" d="M241.55,75.05h-125.55v-37.8h125.55v37.8ZM117,74.05h123.55v-35.8h-123.55v35.8Z"/>
    <circle class="st2" cx="135.82" cy="56.96" r="11.37"/>
    <path class="st5" d="M136.74,57.13c.95-.42,1.56-1.37,1.55-2.41.12-1.35-.87-2.54-2.22-2.66-1.35-.12-2.54.87-2.66,2.22-.01.15-.01.3,0,.44,0,1.05.62,2,1.59,2.41-3.75.56-3.58,4.64-3.58,4.64h8.88s.16-4.08-3.56-4.64Z"/>
    <path class="st0" d="M226.72,56.5c0,.14-16,.26-35.83.26s-35.84-.12-35.84-.26,16-.26,35.84-.26,35.83.11,35.83.26Z"/>
    <path class="st9" d="M622.26,242c-22.5-18.25-25.67-49.37-22.75-76.92.49-4.6.33-9.49,2.81-13.38s7.8-6.29,11.79-4c3.31,1.86,4.52,5.95,6.19,9.38,2.24,4.58,5.74,8.43,10.08,11.11,2.82,1.73,6.39,2.92,9.4,1.53,4.14-1.91,5-7.37,5.3-12l1.68-25.72c.3-4.58.62-9.27,2.36-13.52s5.18-8.06,9.63-9,9.67,2,10.26,6.55c.25,1.89-.27,3.81-.28,5.72s.73,4.08,2.5,4.74,3.72-.5,5.19-1.74c5.06-4.29,8.7-10,12.13-15.74s6.78-11.52,11.45-16.26,10.89-8.32,17.48-8.22,13.3,4.66,14.5,11.22-3,12.87-7.52,17.81c-6.65,7.33-14.32,13.65-22.77,18.79-1.52.92-3.17,1.91-3.84,3.57-1.22,3,1.46,6.23,4.41,7.45,3.33,1.39,7.07,1.3,10.61,2s7.31,2.53,8.42,6c1.54,4.82-2.74,9.45-6.82,12.39-8.18,5.89-17.32,10.32-27,13.12-3.46,1-7.09,1.82-10,4s-4.83,6.18-3.41,9.53,5.55,4.68,9.13,4.28,6.88-2.09,10.34-3.12c6.47-1.93,14.58-.91,18.22,4.83,2.4,3.77,2.28,8.77.63,12.94s-4.64,7.65-7.77,10.84c-11,11.12-24.56,19.73-39.55,23.75s-28.62,4.42-42.77-1.94"/>
    <path class="st0" d="M630.64,225.17c5.06-13.65,11.86-28.15,19.48-43.07l5.69-11c1.88-3.62,3.74-7.2,5.77-10.6,3.92-6.51,8.2-12.79,12.81-18.83,4.37-5.79,8.72-11.13,12.83-16.09s8-9.5,11.8-13.49c5.89-6.33,12.28-12.18,19.1-17.49,2.41-1.88,4.33-3.28,5.64-4.21l1.5-1.05c.16-.13.34-.24.53-.33-.15.14-.31.28-.48.4l-1.45,1.12c-1.28,1-3.16,2.41-5.54,4.33-6.72,5.4-13.03,11.3-18.87,17.65-3.71,4-7.6,8.56-11.69,13.53s-8.41,10.32-12.75,16.11c-4.58,6.03-8.83,12.3-12.72,18.79-2,3.37-3.86,6.93-5.73,10.55l-5.69,11c-7.3,13.96-13.81,28.32-19.51,43"/>
    <path class="st0" d="M661.82,160.47c-.17-.65-.27-1.32-.3-2-.15-1.28-.31-3.15-.47-5.46-.32-4.61-.54-11-.76-18s-.54-13.41-.93-18c-.19-2.3-.36-4.16-.5-5.44-.11-.66-.14-1.33-.11-2,.22.65.37,1.32.44,2,.24,1.28.5,3.13.76,5.43.55,4.59,1,11,1.18,18,.18,7,.38,13.23.52,18,.08,2.17.14,4,.2,5.47.07.67.06,1.34-.03,2Z"/>
    <path class="st0" d="M721.57,153.68c-.78.12-1.58.16-2.37.12-1.52,0-3.73,0-6.45.17-5.44.19-13,.73-21.2,1.68s-15.7,2.15-21,3.17c-2.68.49-4.84.94-6.33,1.25-.77.21-1.56.34-2.35.4.73-.31,1.49-.56,2.27-.73,1.48-.4,3.62-1,6.29-1.51,5.34-1.18,12.79-2.47,21.07-3.44,7.07-.84,14.17-1.32,21.29-1.43,2.73,0,4.94,0,6.47.1.78,0,1.55.08,2.31.22Z"/>
    <path class="st0" d="M631.44,224.14c-.15-.23-.27-.48-.35-.75l-.86-2.21c-.73-1.91-1.72-4.72-2.9-8.2-2.36-7-5.31-16.67-8.43-27.43s-6-20.5-8.19-27.49l-2.65-8.29-.7-2.25c-.1-.26-.17-.53-.2-.81.15.23.28.48.36.75l.85,2.2c.74,1.92,1.73,4.72,2.9,8.2,2.36,7,5.32,16.68,8.44,27.44s6,20.49,8.19,27.49c1.09,3.4,2,6.2,2.64,8.28l.71,2.26c.1.26.16.53.19.81Z"/>
    <path class="st0" d="M711.59,204.51c-.25.13-.52.22-.8.27l-2.33.6-8.58,2.11c-7.25,1.79-17.23,4.38-28.26,7.25s-21,5.37-28.33,7c-3.64.82-6.6,1.45-8.65,1.85l-2.36.44c-.27.07-.56.1-.84.1.25-.13.52-.22.8-.27l2.33-.6,8.58-2.11c7.25-1.79,17.24-4.38,28.26-7.25s21.05-5.37,28.33-7c3.65-.82,6.6-1.45,8.65-1.85l2.37-.44c.27-.07.55-.1.83-.1Z"/>
    <path class="st2" d="M49,390.91c-4.62-2.39-10.06-2.7-15.18-1.85-2.76.46-5.63,1.28-7.51,3.35s-2.22,5.71-.07,7.49c1.39.94,3.06,1.37,4.73,1.2,4-.05,8.46-.76,11.67,1.66,1.83,1.38,3,3.67,5.24,4.34,2.25.52,4.57-.51,5.69-2.53,1.04-2.01,1.27-4.34.64-6.52-.53-3.06-2.46-5.7-5.21-7.14Z"/>
    <path class="st2" d="M59.54,370.48c-2.82,4-8.31,2.7-10.86.24s-3.62-6-4.6-9.44c-2.23-7.77-4.49-15.93-2.83-23.85.39-2.39,1.43-4.63,3-6.48,1.64-1.84,4.14-2.67,6.56-2.18,2.77.73,4.49,3.44,5.73,6,3.66,7.61,5.58,15.94,5.62,24.39,0,3.93-.45,8.06-2.67,11.3"/>
    <path class="st2" d="M67.3,376.27c-3.07-3.64-3.65-8.95-2.29-13.51s4.45-8.44,8-11.6c4.18-3.72,9.05-6.59,14.33-8.45,2.04-.83,4.24-1.2,6.44-1.1,2.23.13,4.25,1.36,5.4,3.27,1.51,2.88.07,6.36-1.5,9.21-2.75,5.02-5.9,9.81-9.41,14.33-2.82,3.63-6,7.22-10.34,8.86s-8.77,1.45-11-1.53"/>
    <path class="st0" d="M59.73,431.32c-.15-.6-.23-1.21-.25-1.83-.13-1.33-.3-3-.49-5-.25-2.46-.62-4.92-1.13-7.34-.65-2.95-1.54-5.85-2.66-8.66-1.1-2.8-2.59-5.44-4.42-7.83-1.5-1.95-3.41-3.54-5.59-4.66-1.48-.73-3.07-1.23-4.71-1.47-.62-.03-1.23-.11-1.83-.26.62-.06,1.24-.06,1.86,0,1.7.13,3.36.56,4.91,1.28,2.3,1.09,4.32,2.69,5.9,4.69,1.91,2.43,3.46,5.12,4.58,8,1.13,2.85,2.02,5.8,2.65,8.8.48,2.45.82,4.94,1,7.43.16,2.12.22,3.84.25,5,.05.62.02,1.24-.07,1.85Z"/>
    <path class="st0" d="M59.39,427.48c-.04-.29-.04-.57,0-.86v-2.43c0-2.11,0-5.16-.1-8.93-.19-7.55-.84-15.66-2.09-27.11-1.19-10.76-2.79-23.29-4.47-31.43-.36-1.85-.72-3.52-1.07-5s-.66-2.72-.92-3.72l-.57-2.36c-.08-.27-.13-.56-.15-.84.14.25.24.51.3.79.18.62.42,1.39.7,2.33s.64,2.27,1,3.72.78,3.12,1.17,5c2.09,9.63,3.66,19.36,4.7,29.16,1.25,11.47,1.82,21.91,1.87,29.48,0,3.78,0,6.84-.13,8.95-.06,1-.11,1.79-.15,2.43,0,.28-.03.55-.09.82Z"/>
    <path class="st0" d="M59.34,407.33c-.07-.85-.07-1.69,0-2.54.1-1.63.32-4,.78-6.88.56-3.37,1.31-6.71,2.24-10,1.09-4.07,2.49-8.05,4.2-11.91,2.91-7.09,7.09-13.58,12.32-19.18.91-.96,1.88-1.86,2.9-2.69.44-.38.83-.75,1.23-1l1.13-.77c.67-.51,1.39-.97,2.14-1.36.12.16-3,2-7,6.25-5.06,5.64-9.12,12.1-12,19.11-1.69,3.8-3.12,7.72-4.28,11.71-.95,3.27-1.73,6.58-2.34,9.93-.53,2.86-.83,5.2-1,6.82-.04.84-.15,1.68-.32,2.51Z"/>
    <polygon class="st0" points="78.8 442.86 76.79 470.51 41.27 470.51 39.25 442.86 78.8 442.86"/>
    <rect class="st0" x="35.01" y="431.96" width="47.23" height="10.9"/>
    <polygon class="st2" points="82.23 469.45 82.23 472.48 80.02 472.48 35.79 472.48 35.79 469.45 82.23 469.45"/>
    <polygon class="st0" points="77.84 477.79 80.02 472.48 37.48 472.48 40.02 477.79 77.84 477.79"/>
    <path class="st9" d="M39.91,451.9s0,.09.16.25l.53.71c.51.64,1.2,1.53,2.07,2.65l.09.11.09-.12,5.09-7h-.3c1.52,2.14,3.2,4.53,5,7.09l.16.22.17-.21,5.94-7.06h-.34l.32.41,5.31,6.66.18.22.16-.23,5-7.09h-.29l6.16,7,.11.13.09-.14,1.93-3.25.49-.86c.06-.1.12-.2.15-.31-.08.08-.14.17-.2.27l-.55.84-2,3.18h.19l-6.06-7.12-.16-.18-.13.2-5.06,7.05h.34l-5.29-6.66-.33-.41-.17-.21-.17.2-5.92,7.08h.33l-5.05-7.05-.15-.21-.15.21-5,7.11h.18c-.91-1.08-1.63-1.95-2.15-2.58l-.58-.67-.19-.23Z"/>
    <path class="st9" d="M38.75,442.68c0,.12,8.9.22,19.88.22s19.88-.1,19.88-.22-8.9-.22-19.88-.22-19.88.1-19.88.22Z"/>
    <path class="st9" d="M37,472.77c0,.13,9.67.22,21.6.22s21.6-.09,21.6-.22-9.67-.22-21.6-.22-21.6.1-21.6.22Z"/>
    <rect class="st5" x="220.53" y="388.02" width="124.58" height="36.8"/>
    <path class="st0" d="M345.61,425.32h-125.61v-37.8h125.61v37.8ZM221.03,424.32h123.58v-35.8h-123.61l.03,35.8Z"/>
    <circle class="st2" cx="239.89" cy="407.23" r="11.37"/>
    <path class="st5" d="M240.81,407.39c.95-.42,1.56-1.36,1.55-2.4.12-1.35-.87-2.54-2.22-2.66-1.35-.12-2.54.87-2.66,2.22-.01.15-.01.3,0,.44-.02,1.05.59,2.01,1.55,2.43-3.75.57-3.58,4.65-3.58,4.65h8.88s.2-4.07-3.52-4.68Z"/>
    <path class="st0" d="M330.79,406.76c0,.15-16.05.26-35.83.26s-35.84-.11-35.84-.26,16-.26,35.84-.26,35.83.12,35.83.26Z"/>
    <rect class="st5" x="316.85" y="350.83" width="124.58" height="36.8"/>
    <path class="st0" d="M441.93,388.13h-125.58v-37.8h125.58v37.8ZM317.35,387.13h123.58v-35.8h-123.58v35.8Z"/>
    <circle class="st2" cx="336.2" cy="370.04" r="11.37"/>
    <path class="st5" d="M337.12,370.2c.95-.42,1.56-1.36,1.55-2.4.12-1.35-.87-2.54-2.22-2.66-1.35-.12-2.54.87-2.66,2.22-.01.15-.01.3,0,.44-.02,1.05.6,2.01,1.56,2.43-3.76.57-3.59,4.65-3.59,4.65h8.88s.2-4.11-3.52-4.68Z"/>
    <path class="st0" d="M427.1,369.57c0,.15-16,.26-35.83.26s-35.84-.11-35.84-.26,16-.26,35.84-.26,35.83.12,35.83.26Z"/>
  </g>
  <g id="freepik--Window--inject-118">
    <polygon class="st5" points="647.39 320.69 168.07 320.69 169.04 49.04 648.36 49.04 647.39 320.69"/>
    <ellipse class="st3" cx="177.36" cy="56.24" rx="2.24" ry="2.21"/>
    <ellipse class="st3" cx="186.56" cy="56.24" rx="2.24" ry="2.21"/>
    <ellipse class="st3" cx="195.77" cy="56.24" rx="2.24" ry="2.21"/>
    <path class="st3" d="M647.39,67.32c0,.15-107.11.27-239.2.27s-239.19-.12-239.19-.27,107.08-.26,239.21-.26,239.18.12,239.18.26Z"/>
    <rect class="st9" x="168.07" y="67.96" width="34.23" height="253.06"/>
    <rect class="st2" x="201.61" y="67.59" width="35.05" height="253.06"/>
    <rect class="st9" x="236.66" y="67.59" width="34.23" height="253.06"/>
    <rect class="st2" x="270.2" y="67.59" width="35.05" height="253.06"/>
    <rect class="st9" x="305.25" y="67.59" width="34.23" height="253.06"/>
    <rect class="st2" x="338.79" y="67.59" width="35.05" height="253.06"/>
    <rect class="st9" x="373.84" y="67.59" width="34.23" height="253.06"/>
    <rect class="st2" x="407.38" y="67.59" width="35.05" height="253.06"/>
    <rect class="st9" x="442.43" y="67.59" width="34.23" height="253.06"/>
    <rect class="st2" x="475.98" y="67.59" width="35.05" height="253.06"/>
    <rect class="st9" x="511.02" y="67.59" width="34.23" height="253.06"/>
    <rect class="st2" x="544.57" y="67.59" width="35.05" height="253.06"/>
    <rect class="st9" x="579.62" y="67.59" width="34.23" height="253.06"/>
    <rect class="st2" x="613.16" y="67.59" width="34.23" height="253.06"/>
    <rect class="st6" x="187" y="121.43" width="99.32" height="29.11"/>
    <ellipse class="st5" cx="202.57" cy="136.62" rx="9.15" ry="8.99"/>
    <path class="st6" d="M203.31,136.75c.77-.31,1.27-1.07,1.25-1.9.21-1.09-.51-2.13-1.59-2.34s-2.13.51-2.34,1.59c-.05.25-.05.5,0,.75-.01.83.48,1.59,1.25,1.92-3,.45-2.88,3.68-2.88,3.68h7.15s.16-3.25-2.84-3.7Z"/>
    <path class="st5" d="M274.66,136.25c0,.15-12.67.27-28.3.27s-28.31-.12-28.31-.27,12.67-.26,28.31-.26,28.3.12,28.3.26Z"/>
    <path class="st6" d="M488.19,241.44h-19.86c-20.27,0-36.76-16.21-36.76-36.14v-36.54c0-19.38-16-35.14-35.75-35.14l-109.5.54v-1l109.49-.54c20.27,0,36.76,16.21,36.76,36.14v36.54c0,19.38,16,35.14,35.76,35.14h19.86v1Z"/>
    <rect class="st5" x="475.4" y="228.18" width="76.48" height="29.11"/>
    <path class="st6" d="M552.39,257.79h-77.49v-30.11h77.49v30.11ZM475.9,256.79h75.49v-28.11h-75.49v28.11Z"/>
    <ellipse class="st6" cx="490.98" cy="243.38" rx="9.15" ry="8.99"/>
    <path class="st5" d="M491.72,243.51c.77-.32,1.28-1.07,1.28-1.91.21-1.09-.51-2.13-1.59-2.34-1.09-.21-2.13.51-2.34,1.59-.05.25-.05.5,0,.75-.01.84.48,1.6,1.25,1.93-3,.44-2.88,3.67-2.88,3.67h7.14s.14-3.2-2.86-3.69Z"/>
    <path class="st6" d="M532.68,243c-.33.07-.66.11-1,.1-.67,0-1.63.06-2.81.08-2.37.05-5.65.08-9.27.08s-6.9,0-9.27-.08c-1.19,0-2.15-.05-2.81-.08-.34,0-.67-.03-1-.1.33-.08.66-.11,1-.1l2.81-.09c2.37,0,5.65-.07,9.27-.07s6.9,0,9.27.07l2.81.09c.34-.01.67.02,1,.1Z"/>
    <rect class="st5" x="570.2" y="180.55" width="29.11" height="64.94" transform="translate(369.79 797.06) rotate(-89.81)"/>
    <path class="st3" d="M617.67,228.18l-65.94-.18.11-30.11,65.93.22-.1,30.07ZM552.73,227l63.94.21.1-28.11-63.94-.21-.1,28.11Z"/>
    <path class="st3" d="M576.44,213.63c-.03,4.94-4.06,8.91-9,8.88-4.94-.03-8.91-4.06-8.88-9,.03-4.93,4.04-8.9,8.97-8.88,4.94.05,8.91,4.06,8.91,9Z"/>
    <path class="st5" d="M568.22,213.73c.75-.33,1.24-1.08,1.23-1.9,0-1.06-.86-1.92-1.92-1.92s-1.92.86-1.92,1.92c-.02.83.46,1.59,1.22,1.93-3,.44-2.84,3.67-2.84,3.67h7s.16-3.24-2.77-3.7Z"/>
    <path class="st3" d="M610,213.39c-.35.08-.72.12-1.08.1-.69,0-1.69,0-2.93.07-2.48,0-5.9.06-9.68,0s-7.21-.06-9.69-.12l-2.93-.09c-.36.01-.73-.02-1.08-.11.36-.07.72-.1,1.08-.09.69,0,1.7-.06,2.94-.08,2.47,0,5.9-.05,9.68,0s7.2.06,9.68.12c1.24,0,2.24.06,2.93.09.36,0,.73.03,1.08.11Z"/>
    <rect class="st5" x="286.42" y="170.69" width="112.29" height="29.11"/>
    <path class="st10" d="M399.21,200.3h-113.29v-30.11h113.29v30.11ZM286.92,199.3h111.29v-28.11h-111.29v28.11Z"/>
    <path class="st10" d="M386.15,185.52c0,.14-13.76.26-30.73.26s-30.72-.12-30.72-.26,13.75-.26,30.72-.26,30.73.12,30.73.26Z"/>
    <ellipse class="st10" cx="303.66" cy="185.52" rx="9.15" ry="8.99"/>
    <path class="st5" d="M304.4,185.65c.76-.33,1.25-1.07,1.25-1.9.21-1.09-.51-2.13-1.59-2.34-1.09-.21-2.13.51-2.34,1.59-.05.25-.05.5,0,.75-.03.84.47,1.61,1.25,1.92-3,.45-2.89,3.68-2.89,3.68h7.15s.16-3.25-2.83-3.7Z"/>
    <rect class="st5" x="375.25" y="200.42" width="99.32" height="29.11"/>
    <path class="st3" d="M475.07,230h-100.32v-30.08h100.32v30.08ZM375.75,229h98.32v-28.08h-98.32v28.08Z"/>
    <ellipse class="st3" cx="390.82" cy="215.62" rx="9.15" ry="8.99"/>
    <path class="st5" d="M391.56,215.75c.76-.32,1.26-1.07,1.25-1.9.21-1.09-.51-2.13-1.59-2.34-1.09-.21-2.13.51-2.34,1.59-.05.25-.05.5,0,.75,0,.83.48,1.59,1.25,1.92-3,.45-2.88,3.68-2.88,3.68h7.15s.16-3.25-2.84-3.7Z"/>
    <path class="st3" d="M462.91,215.25c0,.15-12.67.26-28.3.26s-28.31-.11-28.31-.26,12.7-.25,28.31-.25,28.3.11,28.3.25Z"/>
    <path class="st3" d="M647.39,321c0-1.6.29-104.92.77-272l.2.2-479.29.06h0l.26-.26c-.35,96.21-.69,188.2-1,272l-.24-.24,479.32.24-479.32.25h-.25v-.25c.3-83.78.62-175.77,1-272v-.26h.29l479.29.06h.2v.2c-.78,167.1-1.23,270.42-1.23,272Z"/>
  </g>
  <g id="freepik--character-3--inject-151">
    <path class="st10" d="M585.28,203.62l12.43,3.61,15.35,16.75-3.18,7.64-4.98-4.67s-13.85-1.68-14.95-3.49c-.64-1.07-.66-2.4-.06-3.49-.39-1.17-.5-2.42-.31-3.64.16-.87.78-1.59,1.62-1.87-.92-.36-1.38-1.4-1.03-2.32,0-.02.02-.04.03-.06.22-1.02.91-1.87,1.87-2.29,0,0-8.41-3.28-9.17-4.29-.25-.31-.25-.75,0-1.06.52-.77,1.49-1.1,2.37-.82Z"/>
    <path class="st10" d="M615.75,218.59l-4.51-1.73-5.83-8.94-12.02-2.39s-1.94,1,1,4.23c1.7,1.9,4.26,2.78,6.77,2.33,0,0-.43,7.42,1.87,10.59s9.28,3.66,9.28,3.66l3.45-7.75Z"/>
    <path class="st3" d="M602.89,223.2s-.24-.21-.56-.69c-.45-.69-.82-1.42-1.1-2.2-.96-2.6-1-5.44-.12-8.06l.21.32h-.42c-1.56-.1-3.1-.44-4.55-1.01-1.21-.5-2.21-1.39-2.85-2.53-.44-.76-.62-1.65-.51-2.52.02-.32.13-.63.31-.89,0,0-.08.33-.12.93-.03.82.19,1.64.63,2.34.63,1.04,1.59,1.85,2.73,2.29,1.42.53,2.91.84,4.42.93h.73l-.09.29c-.83,2.53-.83,5.26,0,7.79.37,1.03.81,2.04,1.32,3.01Z"/>
    <path class="st3" d="M591.57,214.78s.45.13,1.24.36,1.94.52,3.36.93c.79.24,1.55.55,2.27.93.45.22.81.58,1.05,1.02.21.51.15,1.1-.15,1.56-.28.47-.69.85-1.19,1.09-.52.22-1.1.29-1.66.19-.26,0-.52-.07-.78-.09-.28-.02-.56-.07-.84-.13-.55-.12-1.08-.28-1.63-.45l-1.45-.46.13-.47c.99.33,1.93.77,2.8,1.33l1.23.71c.39.23.82.4,1.22.69.42.28.69.73.74,1.22.01.26-.06.51-.21.72-.14.18-.33.33-.54.42-.7.29-1.46.44-2.21.42-1.06-.05-2.11-.26-3.11-.62-.37-.1-.73-.25-1.07-.43.38.06.76.14,1.12.26.99.28,2.02.43,3.06.45.7,0,1.4-.15,2.05-.43.32-.12.52-.43.5-.77-.04-.39-.25-.73-.58-.93-.33-.23-.76-.4-1.18-.64l-1.25-.71c-.84-.52-1.74-.94-2.67-1.25l.13-.47,1.45.45c.53.17,1.07.32,1.59.44.26.06.51.1.78.13.28,0,.55.06.8.09.94.23,1.92-.19,2.41-1.03.24-.34.29-.78.14-1.17-.2-.36-.5-.65-.86-.83-.69-.38-1.42-.7-2.18-.93-1.38-.48-2.54-.82-3.32-1.11-.42-.11-.82-.28-1.2-.5Z"/>
    <path class="st3" d="M592.19,209.84c.88.1,1.75.34,2.56.7.9.35,1.77.77,2.62,1.24.47.27.93.58,1.45.93.6.32,1.04.88,1.22,1.53.04.38-.1.77-.37,1.04-.26.25-.58.42-.93.49-.58.11-1.18.13-1.77.07-.96-.08-1.92-.22-2.86-.43-.88-.13-1.74-.4-2.53-.81,0-.07.99.22,2.6.48.8.12,1.76.26,2.8.32.54.04,1.08.01,1.62-.09.5-.1.93-.52.93-1s-.55-.88-1.02-1.2-.93-.64-1.4-.93c-.81-.49-1.65-.93-2.51-1.32-1.42-.66-2.4-.91-2.4-1.02Z"/>
    <path class="st0" d="M639.73,227.17l5.35-27.22c1.07-5.41,4.19-10.2,8.72-13.35l9.34-6.54-3.84,60.74-1.6,4.67c-3.85,9.57-13.5,8.52-22.17,4.88l-.93-.41-26.64-15.89,8.29-16.33,23.48,9.46Z"/>
    <path class="st10" d="M675.21,434.06l5.94,20.56s-18.88,12.97-18.19,16.89l40.31-10.09-7.94-32.45-20.12,5.09Z"/>
    <path class="st0" d="M693.18,449.78c.86.04,1.56.72,1.61,1.59,0,.87-.69,1.58-1.56,1.61-.92-.05-1.65-.78-1.7-1.69.11-.91.91-1.57,1.82-1.5"/>
    <path class="st3" d="M703.27,461.41l-.93-3.23-38.31,10.88s-1.6,1.23-1.07,2.45l40.32-10.09Z"/>
    <path class="st3" d="M680.45,454.6c.06.2,1.06,0,2.19.43s1.87,1.08,2.01.93-.41-1.19-1.78-1.64-2.5.1-2.41.27Z"/>
    <path class="st3" d="M676.66,457.4c0,.21.93.33,1.81.99s1.29,1.5,1.49,1.44,0-1.2-1.07-2.01-2.28-.61-2.23-.42Z"/>
    <path class="st3" d="M675.52,463.07c.2,0,.22-1.06-.55-2.01s-1.8-1.15-1.87-.93.67.62,1.3,1.41.96,1.56,1.12,1.53Z"/>
    <path class="st3" d="M679.61,449.76c.13.16.93-.34,2.09-.54s2.09-.07,2.15-.26-.93-.69-2.28-.43-2.09,1.1-1.96,1.23Z"/>
    <path class="st10" d="M689.38,438.9l.93,21.4s-21.44,8.14-21.65,12.15l41.56-.33-.08-33.41-20.75.19Z"/>
    <path class="st0" d="M703.89,460c.83.25,1.34,1.08,1.19,1.93-.21.83-1.03,1.35-1.87,1.19-.88-.26-1.42-1.14-1.25-2.05.31-.86,1.25-1.31,2.11-1.02"/>
    <path class="st3" d="M710.19,472.09l-.14-3.36-39.79,1.57s-1.87.81-1.63,2.12l41.56-.33Z"/>
    <path class="st3" d="M689.61,460.1c0,.2,1.02.28,2.02.93s1.54,1.5,1.73,1.41-.12-1.25-1.36-2.01-2.44-.52-2.39-.34Z"/>
    <path class="st3" d="M685.26,461.94c-.05.2.83.53,1.53,1.39s.93,1.76,1.1,1.75.32-1.16-.57-2.21-2.07-1.13-2.07-.93Z"/>
    <path class="st3" d="M682.83,467.18c.19,0,.46-.98-.07-2.08s-1.48-1.54-1.56-1.37.5.76.93,1.67.49,1.77.7,1.78Z"/>
    <path class="st3" d="M689.94,455.2c.08.19,1.01-.1,2.16,0s2.05.42,2.15.24-.76-.89-2.11-.93-2.3.53-2.2.69Z"/>
    <path class="st3" d="M715.06,282.31v16.92l-4.54,65.92s2.8,31.98,4.56,50.03c1.5,15.68-.93,42.99-.93,42.99h-26.47l-9.5-91.06-5.87-56.79-10.22-25.85,52.98-2.17Z"/>
    <polygon class="st3" points="644.01 285.32 650.46 377.23 677.22 446.09 678.45 450.24 694.25 446.41 682.5 283.47 644.01 285.32"/>
    <path class="st10" d="M672.4,311.01c-.01.13-.01.26,0,.38v1.12c0,1.01.08,2.46.14,4.31.1,3.74.37,9.16.76,15.89.79,13.36,2.28,31.82,4.61,52.13s4.8,38.65,6.65,51.92c.93,6.61,1.69,11.96,2.22,15.7.27,1.87.48,3.26.63,4.27.07.47.13.83.18,1.1.01.13.04.25.07.37.01-.13.01-.26,0-.38,0-.27-.07-.64-.12-1.11-.13-1-.31-2.44-.54-4.28-.5-3.74-1.2-9.1-2.07-15.72-1.76-13.28-4.22-31.62-6.54-51.93s-3.86-38.73-4.75-52.1c-.43-6.68-.75-12.09-.93-15.83-.09-1.87-.17-3.3-.22-4.31,0-.47-.06-.84-.07-1.12,0-.14,0-.27,0-.41Z"/>
    <path class="st10" d="M670.69,288c0,.75.61,1.36,1.36,1.36.75,0,1.36-.61,1.36-1.36,0-.75-.61-1.36-1.36-1.36,0,0,0,0,0,0-.75,0-1.36.61-1.36,1.35,0,0,0,0,0,0Z"/>
    <path class="st10" d="M647.46,300.84c.71-.48,1.34-1.07,1.87-1.75,1.36-1.56,2.48-3.32,3.33-5.21.85-1.89,1.41-3.89,1.66-5.94.15-.85.17-1.71.07-2.56-.08,0-.14.93-.41,2.5-.69,4.02-2.38,7.79-4.92,10.98-.96,1.22-1.65,1.92-1.6,1.97Z"/>
    <path class="st3" d="M689.93,456.46c-.15,1.14-.22,2.3-.19,3.45l.11-.17c-1.5.64-3.47,1.51-5.61,2.48-2.41,1.09-4.58,2.11-6.14,2.87-.87.36-1.7.8-2.49,1.32.9-.26,1.78-.6,2.63-1.01,1.6-.67,3.74-1.64,6.2-2.73,2.13-.93,4.07-1.87,5.55-2.59l.11-.06v-.11c.03-1.15-.03-2.31-.18-3.45Z"/>
    <path class="st0" d="M694.11,167.98l2.42,5.21s23.49,11.52,23.36,12.69c0,0-1.5,44.49-1.75,76.9h0c2.17,16.63,5.72,98.27,5.72,98.27l-88.25-2.09,14.02-157.67,14.52-23.36,5.46-4.44,24.5-5.5Z"/>
    <path class="st3" d="M656.12,359.47c-.01-.13-.01-.26,0-.38v-1.09c.06-1,.13-2.42.23-4.24.21-3.74.53-9.02.93-15.57.79-13.17,1.87-31.31,3.1-51.4s2.2-38.2,2.95-51.4c.36-6.54.64-11.87.84-15.57.1-1.87.18-3.24.23-4.23,0-.47.06-.83.07-1.1,0-.13.02-.25.05-.37.01.12.01.25,0,.37v1.1c0,1-.08,2.42-.14,4.24-.13,3.67-.37,9-.67,15.58-.63,13.16-1.62,31.32-2.8,51.4-1.19,20.07-2.36,38.22-3.24,51.4-.46,6.54-.83,11.85-1.08,15.56-.14,1.81-.25,3.23-.33,4.22,0,.47-.07.83-.09,1.1,0,.13-.03.26-.06.38Z"/>
    <g class="st7">
      <path d="M715.68,257.8c-1.4-1.03-2.92-1.87-4.54-2.49-9.34-4.21-17.5-10.52-26.36-15.62s-18.93-9.06-29.08-7.85l-11.85,11.08c1.21,2.62,4.21,4,7.08,4.27s5.76-.34,8.64-.59,5.96-.09,8.36,1.52,3.83,4.67,6.03,6.82c2.63,2.54,6.31,3.62,9.83,4.6l22.43,6.3c2.24.63,4.58,1.26,6.88.88s4.55-2.11,4.75-4.44c.03-1.76-.77-3.42-2.17-4.49Z"/>
    </g>
    <path class="st0" d="M701.44,203.34l4.67,32.38-20.47-8.15-7.97,21.97s25.88,11.36,39.25,13.35c6.45.93,15.47-6.92,14.83-14.95-1.68-20.73-7.58-56.92-7.58-56.92,0,0-4.21-8.61-11.35-7.63-2.47.41-4.73,1.66-6.38,3.55-5.67,5.93-4.99,16.39-4.99,16.39Z"/>
    <polyline class="st6" points="669.61 173.45 667.65 186.98 664.15 214.14 679.41 187.94 693.85 169.93 670.55 183.87 670.56 173.2"/>
    <path class="st3" d="M696.64,174.01c-.1.37-.25.72-.42,1.07l-1.3,2.92c-1.19,2.57-2.8,6.11-4.74,10.28l-.07.13h-3.33l.15-.42,2.35,1.92.21.18-.21.19-4.44,4.35-14.27,13.85c-1.81,1.71-3.29,3.12-4.37,4.15l-1.21,1.11c-.13.14-.28.26-.44.36.1-.16.23-.31.37-.44l1.14-1.18,4.25-4.27,14.17-13.95,4.45-4.35v.37l-2.34-1.93-.51-.43h3.86l-.21.13,4.9-10.22c.59-1.2,1.07-2.16,1.43-2.88.16-.33.35-.65.56-.94Z"/>
    <path class="st3" d="M664.15,214.14c-.15-.55-.25-1.11-.31-1.68-.17-1.17-.38-2.73-.65-4.61-.52-3.9-1.21-9.28-1.94-15.23l-.67-5.54v-.21l.21-.06,3.82-.93v.45l-3.84-.69-.26-.05.11-.22c1.03-2.25,1.87-4.11,2.52-5.49l.73-1.5c.07-.18.17-.35.29-.5-.04.19-.1.38-.19.55l-.63,1.54c-.6,1.4-1.4,3.28-2.36,5.56l-.15-.28,3.85.64,1.1.18-1.08.27-3.82.93.19-.26c.22,1.77.46,3.63.69,5.54.73,5.94,1.36,11.34,1.8,15.24.2,1.87.36,3.46.49,4.67.07.56.11,1.13.1,1.69Z"/>
    <path class="st3" d="M677.17,286.42c.18-.02.36-.02.54,0l1.63.1,6.21.45,22.28,1.71h.22v.22c-.36,4.2-.75,8.74-1.16,13.54-.21,2.4-.42,4.87-.64,7.38-.1,1.26-.21,2.53-.33,3.81-.04.67-.14,1.33-.31,1.97-.2.65-.5,1.26-.88,1.82-1.26,1.71-3.14,2.85-5.23,3.17-1.97.24-3.96.35-5.94.32-3.74,0-7.48-.4-11.13-1.22-.86-.21-1.71-.49-2.53-.83-.41-.16-.81-.36-1.19-.6-.19-.13-.37-.27-.53-.43-.15-.17-.29-.34-.42-.53-.8-1.47-1.3-3.08-1.46-4.74-.36-2.93-.51-5.87-.44-8.82.08-5.38.47-9.73.76-12.73.15-1.5.29-2.65.38-3.45.06-.36.09-.66.13-.93.01-.1.03-.2.06-.3.01.1.01.21,0,.31,0,.22,0,.52-.07.93-.07.82-.16,1.98-.29,3.45-.22,3-.55,7.34-.59,12.72-.05,2.92.11,5.85.5,8.75.16,1.6.64,3.15,1.41,4.56.49.65,1.17,1.14,1.94,1.38.8.33,1.62.6,2.47.79,3.62.8,7.32,1.2,11.03,1.18,1.95.03,3.9-.08,5.84-.32,1.96-.3,3.73-1.36,4.92-2.95.35-.52.62-1.09.8-1.68.16-.61.25-1.24.29-1.87.11-1.29.22-2.56.34-3.82.21-2.51.44-4.98.64-7.38.43-4.8.83-9.34,1.21-13.53l.21.24-22.18-1.87-6.25-.57-1.66-.16-.55-.07Z"/>
    <path class="st3" d="M711.44,244.6c-.52-1.69-1.23-3.32-2.09-4.87-1.01-1.45-2.16-2.8-3.45-4.02,1.63.84,2.98,2.14,3.89,3.74,1.04,1.52,1.62,3.31,1.65,5.15Z"/>
    <path class="st3" d="M724.15,191.06s.05.18.1.51.15.85.27,1.5c.21,1.34.54,3.27.93,5.77.8,5.01,1.93,12.26,3.19,21.24.63,4.49,1.29,9.42,1.93,14.72.31,2.65.63,5.39.93,8.22.15,1.41.26,2.85.4,4.31.07.74.09,1.49.07,2.23-.07.76-.2,1.51-.41,2.24-.2.74-.46,1.46-.78,2.16-.33.7-.72,1.37-1.15,2.02-.43.65-.9,1.28-1.41,1.87-.53.59-1.1,1.14-1.69,1.66-1.2,1.08-2.56,1.96-4.03,2.64-1.5.72-3.15,1.09-4.81,1.07-3.31-.44-6.57-1.15-9.77-2.12-3.25-.93-6.54-2.03-9.77-3.17-7.18-2.56-14.02-5.32-20.56-8.14l-.21-.09.07-.21c2.8-7.75,5.49-15.11,7.99-21.97l.07-.21.22.08,20.45,8.17-.26.2c-1.41-9.98-2.55-18.07-3.35-23.7-.37-2.8-.67-4.95-.88-6.45-.09-.73-.17-1.29-.21-1.68s-.06-.58-.06-.58c0,0,0,.2.1.57s.16.93.27,1.67c.23,1.5.56,3.66.99,6.44.83,5.61,2.03,13.7,3.51,23.67l.05.33-.3-.12-20.5-8.12.3-.13c-2.49,6.86-5.15,14.23-7.95,21.98l-.13-.31c6.54,2.8,13.39,5.56,20.56,8.1,3.26,1.14,6.54,2.22,9.74,3.17,3.15.97,6.38,1.67,9.64,2.11,1.58.02,3.15-.33,4.58-1,1.42-.65,2.74-1.51,3.91-2.55,1.17-.99,2.19-2.14,3.03-3.43.42-.62.79-1.28,1.12-1.95.31-.67.56-1.37.76-2.08.19-.7.33-1.42.39-2.15.03-.73,0-1.47-.07-2.2-.13-1.46-.24-2.9-.39-4.31-.27-2.8-.58-5.56-.88-8.21-.62-5.29-1.26-10.21-1.87-14.71-1.21-8.99-2.29-16.25-3.03-21.27-.37-2.5-.66-4.44-.86-5.78-.09-.64-.17-1.14-.21-1.5s-.04-.49-.04-.49Z"/>
    <path class="st3" d="M713.97,183.92c0,.09-1.21.11-3.04.67-4.86,1.47-8.49,5.53-9.41,10.52-.36,1.87-.24,3.09-.34,3.09-.1-.27-.14-.55-.13-.84-.04-.77,0-1.54.12-2.31.75-5.23,4.57-9.5,9.69-10.81.75-.2,1.51-.32,2.28-.36.27-.03.55-.02.82.04Z"/>
    <g class="st7">
      <path d="M705.57,315.01c-2.37,6.2-8.59,6.54-15.27,5.61-6.29-.93-12.34-2.24-12.8-4.05.17,3.29,2.59,5.81,5.61,7.13,3.08,1.17,6.39,1.64,9.67,1.36,3.44-.15,6.41,0,9.25-1.95s3.55-5.27,3.54-8.09Z"/>
    </g>
    <path class="st3" d="M619.23,213.54l6.28,26.17c.35,1.46,1.64,2.48,3.74,3.06l35.64.12c1.75-.72,2.82-2.52,2.6-4.4l-4.67-25.02c-.28-1.5-1.57-2.6-3.1-2.64l-37.57-.87c-1.61-.04-2.95,1.23-2.99,2.84,0,.25.02.5.08.74Z"/>
    <path class="st10" d="M656.78,218.81s7.9-.32,9.21,0,18.33,11.3,18.33,11.3l-5.1,14.57-3.49-4.61c-2.38-.26-4.71-.81-6.95-1.64-2.48-1.15-5.37-2.38-5.37-2.38l-5.21.74-5.66.11s-1.93-.93-.35-2.24,5.43-1.34,5.43-1.34l5.82-1.37s-6.69-.5-7.34-.61-5.19,1.02-5.79.58c-.68-.56-.84-1.54-.36-2.29.51-.83,4.8-2.15,4.8-2.15l7.48-.69-7.36-.18-3.99-.22s-1.08-.79.33-1.98,7.18-1.98,7.18-1.98l5.92-.53-6-.63-3.95.73c-.58.1-1.13-.28-1.24-.86-.07-.38.07-.77.37-1.01.99-.7,2.13-1.15,3.33-1.31Z"/>
    <path class="st3" d="M649.9,198.26s0,.28-.09.81-.14,1.35-.25,2.4c-.21,2.12-.52,5.22-.93,9.23-.78,8.05-1.87,19.69-3.32,34.14-.69,7.23-1.46,15.16-2.28,23.69-.82,8.53-1.5,17.68-2.32,27.32-1.62,19.3-3.41,40.58-5.3,63.08v.25h.26l12.48.3,75.79,1.77h.22v-.22c0-7.29-.45-14.26-.77-20.91s-.74-12.97-1.08-18.91c-.77-11.9-1.44-22.31-1.99-30.91-.55-8.61-1.07-15.36-1.39-20.01-.17-2.31-.3-4.08-.39-5.29-.05-.6-.08-1.05-.11-1.36s-.07-.41-.07-.41v.46c0,.3.05.78.07,1.36.07,1.21.19,2.99.33,5.3.3,4.67.73,11.43,1.27,20.02.54,8.59,1.17,19.02,1.87,30.91.33,5.95.68,12.27,1.05,18.91.36,6.64.73,13.63.73,20.89l.22-.21-75.78-1.82-12.48-.29.24.26c1.87-22.49,3.64-43.78,5.25-63.07.8-9.64,1.56-18.79,2.27-27.33.71-8.54,1.54-16.47,2.22-23.7,1.34-14.45,2.42-26.1,3.17-34.15.36-4.01.64-7.12.83-9.24.08-1.05.16-1.87.21-2.4s.08-.85.08-.85Z"/>
    <path class="st3" d="M653.87,133.98c1.64-1.78,3.63-3.47,4.19-5.81.51-2.17-.26-4.67.87-6.54,1.38-2.35,4.9-2.58,6.54-4.74.81-1.05,1.08-2.43,1.87-3.49,1.36-1.79,3.92-2.21,6.17-1.87s4.37,1.15,6.62,1.36c3.08.3,6.3-.63,9.24.34,3.24,1.06,5.18,4,7.23,6.86l2.69,3.32c.58.56,1.21,1.07,1.89,1.5,1.22.67,2.37,1.45,3.45,2.33,2.02,2.25,1.84,5.71-.41,7.73-.05.05-.1.09-.16.13,2.41.9,3.95,3.26,3.79,5.83-.23,1.35-.61,2.67-1.16,3.93-.55,1.27-.62,2.7-.21,4.03.51,1.27,2.1,2.18,3.32,1.53-.49,1.79-1.76,3.27-3.46,4.02.64.68,1.51,1.09,2.44,1.16-2.65,5.81-9.55,8.73-15.94,8.6s-12.45-2.72-18.32-5.27l-17.09-4.92c-1.5-.39-2.08-2.24-2.02-3.79s.5-3.15,0-4.62c-.7-2-2.98-3.12-3.74-5.11-.85-2.27.59-4.74,2.2-6.51Z"/>
    <path class="st3" d="M694.21,150.76c1.45-3.82,2.57-7.76,3.35-11.77.79-4.04.55-8.22-.69-12.15-.21-.58-1.95-4.51-2.57-4.47-.45,0,.61,3.74.37,4.06-2.08,3.69-3.01,7.92-2.64,12.15.28,4.1,1.01,8.15,2.19,12.09"/>
    <path class="st8" d="M694.98,135.2c.57-10.23-4.92-19.08-15.16-19.36h-.93c-9.55.27-17.29,7.85-17.76,17.4-.44,8.87-.81,18.69-.61,23.42.42,9.82,10.28,11.05,10.28,11.05l-.26,16.16,23.5-13.79.93-34.87Z"/>
    <path class="st11" d="M670.81,167.72c4.54-.15,8.94-1.6,12.68-4.18,0,0-2.9,8.07-12.73,7.48l.05-3.3Z"/>
    <path class="st3" d="M663.96,141.56c.02.76.64,1.37,1.4,1.37.74.04,1.36-.53,1.4-1.27,0-.01,0-.03,0-.04-.01-.76-.63-1.38-1.39-1.38-.74-.04-1.37.54-1.41,1.28,0,.01,0,.03,0,.04Z"/>
    <path class="st3" d="M663.34,137.26c.18.18,1.21-.64,2.73-.68s2.64.68,2.8.49-.1-.41-.6-.75c-.67-.43-1.46-.64-2.25-.62-.78.03-1.54.3-2.16.78-.47.37-.61.71-.52.78Z"/>
    <path class="st3" d="M677.09,142.04c.02.76.64,1.37,1.4,1.37.74.04,1.36-.53,1.4-1.27,0-.01,0-.03,0-.04-.01-.76-.63-1.38-1.39-1.38-.75-.03-1.38.55-1.41,1.3,0,0,0,.01,0,.02Z"/>
    <path class="st3" d="M678.16,137.42c.18.18,1.22-.64,2.73-.69s2.64.68,2.8.5-.11-.41-.61-.75c-.67-.43-1.45-.65-2.24-.62-.79.02-1.55.29-2.17.78-.47.36-.61.7-.51.78Z"/>
    <path class="st3" d="M673.1,149.21c-.8-.22-1.63-.34-2.47-.36-.39,0-.76-.09-.83-.36-.04-.4.04-.8.22-1.15.34-.93.68-1.93,1.05-2.97,1.46-4.23,2.5-7.7,2.33-7.76s-1.49,3.32-2.94,7.55c-.35,1.05-.68,2.04-1,2.99-.23.47-.28,1.01-.15,1.51.12.27.36.47.64.55.22.05.44.07.66.07.83.09,1.66.06,2.49-.07Z"/>
    <path class="st3" d="M677.57,150.09c-.25,0-.2,1.64-1.57,2.8s-3.11,1.08-3.12,1.32.4.3,1.14.3c.96-.02,1.88-.37,2.61-1,.69-.61,1.13-1.46,1.21-2.37.05-.65-.15-1.06-.26-1.05Z"/>
    <path class="st3" d="M678.05,131.29c.16.4,1.66.16,3.44.32s3.22.6,3.45.22c.1-.18-.16-.56-.75-.93-1.59-.94-3.53-1.09-5.25-.42-.64.28-.96.62-.89.81Z"/>
    <path class="st3" d="M663.81,132.22c.28.34,1.31-.06,2.56-.11s2.32.16,2.55-.21c.09-.18-.08-.51-.55-.82-.63-.38-1.36-.55-2.09-.5-.74.04-1.44.3-2.02.76-.44.36-.57.72-.45.89Z"/>
    <path class="st8" d="M694.39,142.49c.16-.08,6.69-2.21,6.68,4.51,0,6.72-6.76,5.34-6.77,5.14s.09-9.65.09-9.65Z"/>
    <path class="st11" d="M696.36,149.61s.11.08.31.17c.28.12.6.12.88,0,.88-.56,1.4-1.55,1.35-2.6.02-.58-.09-1.15-.33-1.67-.12-.44-.45-.79-.88-.93-.28-.08-.57.06-.69.33-.09.19,0,.32-.08.33s-.15-.11-.09-.39c.04-.16.13-.31.26-.42.19-.14.42-.2.65-.17.56.11,1.02.51,1.22,1.05.28.58.42,1.22.4,1.87-.05,1.35-.74,2.63-1.71,2.91-.37.11-.76.04-1.07-.18-.21-.12-.24-.27-.21-.28Z"/>
    <path class="st3" d="M665.58,122.11c-1.08-.61,2.21-4.1,4.91-5.29,4.06-1.79,10.28-2.86,13.96-1.77,4.48,1.31,8.18,3.58,10.39,7.69,2.12,4.18,3.09,8.85,2.8,13.53.04,1.43-.3,2.85-.99,4.1-.93,1.48-2.8,2.39-2.71,4.45.04.75-.21,1.49-.72,2.05-1.24,1.3-2.73,0-3.41-1.19-1.46-2.65-1.59-5.8-1.69-8.82-.18-2.14-.02-4.3.5-6.39.34-1.11.88-2.17,1.15-3.3.36-1.13.2-2.36-.44-3.36-.16-.2-.34-.39-.54-.56-1.88-1.65-4.51-2.17-6.88-1.35-3.8,1.3-10.28,3.24-11.96,1.93-1.2-.81-2.22-1.86-2.98-3.08l-1.38,1.36Z"/>
    <path class="st3" d="M684.1,114.17c-3.7-1.35-7.8-1.17-11.36.51-1.92.85-3.4,2.45-4.1,4.43-.58,1.98.25,4.44,2.16,5.24l.13.08c2.86.99,4.73.63,7.6-.34,2.41-.8,4.57-2.27,6.99-3.07,2.59-.84,5.38-.9,8-.15-2.5-3.02-5.74-5.33-9.41-6.71Z"/>
  </g>
  <g id="freepik--character-1--inject-151">
    <path class="st10" d="M121.79,443.91l-.17,26.07,48.3.19c-.35-5.29-24.38-16.12-24.38-16.12l.65-10-24.4-.14Z"/>
    <path class="st5" d="M130.39,451.56c-1.07.37-1.71,1.48-1.49,2.59.26,1.1,1.36,1.79,2.46,1.55,1.14-.39,1.81-1.57,1.56-2.75-.39-1.12-1.61-1.71-2.72-1.32,0,0,0,0,0,0"/>
    <path class="st3" d="M121.59,469.98v-4.17l45.88,1s2.66,1.6,2.4,3.34l-48.28-.17Z"/>
    <path class="st3" d="M150.64,456.56c.06.26-1.06.73-1.94,1.88s-1.12,2.36-1.38,2.35-.44-1.54.68-2.95,2.63-1.52,2.64-1.28Z"/>
    <path class="st3" d="M154.23,463.75c-.24.06-.61-1.29.05-2.78s1.87-2.08,2-1.86-.64,1-1.16,2.25-.63,2.36-.89,2.39Z"/>
    <path class="st3" d="M145.99,447.12c-.11.25-1.31-.12-2.78,0s-2.61.61-2.75.38,1-1.21,2.69-1.32,2.97.73,2.84.94Z"/>
    <path class="st3" d="M147.15,455.7c.03-.54-.06-1.08-.26-1.58-.47-1.39-1.27-2.65-2.35-3.65-.74-.69-1.61-1.24-2.55-1.61-.59-.29-1.28-.24-1.83.12-.54.48-.78,1.21-.63,1.92.84,2.67,3.21,4.57,6,4.82,2.74.18,5.32-1.3,6.55-3.76.3-.56.48-1.16.55-1.79.03-.35-.06-.7-.24-1-.19-.31-.52-.51-.88-.56-.58-.02-1.15.18-1.59.55-.37.31-.72.64-1.05,1-.99,1.05-1.76,2.28-2.28,3.62-.23.48-.36,1-.39,1.53.71-1.75,1.72-3.36,3-4.75.61-.56,1.38-1.34,2.18-1.27.36.05.58.39.53.88-.07.52-.25,1.02-.51,1.48-1.12,2.18-3.42,3.48-5.86,3.33-2.45-.21-4.55-1.83-5.38-4.15-.12-.45.02-.93.35-1.25.37-.23.83-.24,1.21-.05.88.32,1.69.8,2.4,1.41,1.05.91,1.88,2.06,2.42,3.34.45.87.55,1.43.61,1.42Z"/>
    <path class="st3" d="M99.43,279.67l4-5.38,49.15,1.35-7.05,87.45-4.38,84.29-25.49.89c-1.3-16.27-4.78-80.63-4.78-80.63h0l-4.37-34c-.49-2.15-2.3-12.87-4.16-21.47-1.04-4.93-5.06-17.78-2.92-32.5Z"/>
    <path class="st10" d="M121.57,437.56l-6.55,25.23,46.78,12c1-5.22-19.69-21.6-19.69-21.6l3.08-9.52-23.62-6.11Z"/>
    <path class="st5" d="M125.95,447.13c-1.13.09-2.02,1.01-2.07,2.15-.02,1.13.87,2.07,2,2.11,1.2-.1,2.14-1.08,2.19-2.29-.09-1.1-1.29-2.24-2.33-2"/>
    <path class="st3" d="M115.02,462.8l1-4,44.23,12.23s2.19,2.19,1.51,3.82l-46.74-12.05Z"/>
    <path class="st3" d="M146.47,456.93c0,.27-1.21.45-2.34,1.35s-1.67,2-1.92,1.94,0-1.6,1.38-2.69,2.94-.85,2.88-.6Z"/>
    <path class="st3" d="M148.19,464.76c-.24,0-.27-1.4.73-2.68s2.32-1.57,2.38-1.32-.87.83-1.68,1.9-1.17,2.13-1.43,2.1Z"/>
    <path class="st3" d="M144.28,446.62c-.17.21-1.24-.43-2.7-.68s-2.68-.05-2.76-.31,1.23-.94,2.94-.62,2.69,1.43,2.52,1.61Z"/>
    <path class="st3" d="M143.3,455.22c.16-.51.2-1.06.13-1.59-.11-1.47-.58-2.88-1.38-4.12-.55-.85-1.26-1.6-2.08-2.19-.5-.42-1.19-.54-1.81-.32-.64.33-1.04.98-1.07,1.7.16,2.8,2,5.23,4.66,6.14,2.6.86,5.47.07,7.26-2,.44-.46.78-1,1-1.6.1-.33.1-.67,0-1-.12-.35-.39-.62-.73-.76-.56-.16-1.15-.11-1.67.15-.43.19-.85.42-1.25.68-1.22.77-2.27,1.77-3.1,2.95-.34.41-.59.88-.75,1.39,1.12-1.53,2.52-2.83,4.12-3.85.72-.4,1.67-1,2.42-.71.33.14.46.52.3,1-.2.49-.49.94-.86,1.32-1.62,1.83-4.17,2.53-6.5,1.78-2.32-.8-3.96-2.88-4.2-5.33,0-.46.25-.89.65-1.13.41-.13.86-.03,1.19.25.78.52,1.46,1.18,2,1.95.79,1.15,1.31,2.45,1.53,3.83.11.89.08,1.46.14,1.46Z"/>
    <path class="st3" d="M153.34,279.67s21.48,83.18,22.07,91-29.22,78.92-29.22,78.92l-27.4-6.67,22.06-76.08s-11.65-25.2-11.39-25.94c.69-2-5.4-51.08-5.4-51.08l29.28-10.15Z"/>
    <path class="st10" d="M174.97,372.56c-.06.12-.11.25-.15.38-.1.28-.23.65-.39,1.13l-1.49,4.37c-1.29,3.8-3.2,9.31-5.67,16.14-4.93,13.66-12.26,32.53-21.3,53.55l.3-.14-12.1-3-15.29-3.73.18.32,15.41-53.22c1.91-6.67,3.44-12,4.51-15.73l1.18-4.24c.13-.47.23-.84.3-1.11.04-.12.07-.25.09-.37-.06.11-.1.23-.13.36-.09.27-.2.63-.35,1.09-.29,1-.72,2.4-1.27,4.21-1.1,3.7-2.68,9-4.65,15.69-3.92,13.37-9.38,32-15.58,53.17l-.08.26.27.07,15.29,3.8,12.1,3,.21.05.09-.2c9-21,16.3-39.95,21.15-53.64,2.43-6.85,4.29-12.38,5.52-16.2.6-1.9,1.07-3.37,1.4-4.4.15-.48.26-.86.35-1.14.05-.15.08-.31.1-.47Z"/>
    <path class="st3" d="M159.88,158.3c-.12-2.55.83-5,1.63-7.43s1.47-5,.79-7.49c-.86-3.09-3.64-5.24-5.14-8.08s-1.6-6.2-1.86-9.41-.81-6.61-2.94-9c-2.69-3.06-9.74-3.61-13.07-1.25-.51,18.25-4.84,36.74-.93,54.58,8.96.37,17.85-1.76,25.68-6.14-2.5-.52-4.05-3.23-4.16-5.78Z"/>
    <path class="st1" d="M120.97,175.95l-2.52-50.39c-.1-2.03,1.37-3.79,3.38-4.07l20.58-5.82c6.62-.89,11.26,7.15,11.87,13.8.68,7.39,1.21,16.44.49,22-1.45,11.15-9.92,12.8-9.92,12.8,0,11,.24,11.8.24,11.8l-4.19,8.65-19.93-8.77Z"/>
    <path class="st3" d="M151.79,138.68c.03.78-.57,1.43-1.34,1.48-.75.08-1.42-.46-1.5-1.21,0-.01,0-.02,0-.03-.03-.77.56-1.43,1.33-1.48.75-.08,1.43.46,1.51,1.22,0,0,0,.02,0,.02Z"/>
    <path class="st3" d="M152.45,134.23c-.17.19-1.27-.58-2.8-.53s-2.64.85-2.81.66.09-.42.57-.79c1.32-.97,3.11-1.02,4.48-.11.48.35.65.68.56.77Z"/>
    <path class="st3" d="M138.79,139.11c.03.77-.56,1.43-1.33,1.48-.75.08-1.43-.46-1.51-1.22,0,0,0-.02,0-.02-.03-.77.56-1.43,1.33-1.48.75-.08,1.43.46,1.51,1.22,0,0,0,.02,0,.02Z"/>
    <path class="st3" d="M137.4,134.94c-.18.19-1.28-.57-2.81-.53s-2.63.85-2.8.67.08-.42.56-.79c.65-.48,1.43-.75,2.24-.76.8-.03,1.58.19,2.24.65.48.38.65.68.57.76Z"/>
    <path class="st3" d="M143.28,146.15c.8-.28,1.63-.45,2.48-.52.39,0,.76-.14.81-.41.02-.4-.08-.8-.29-1.15-.4-.94-.81-1.92-1.24-2.95-1.73-4.19-3-7.65-2.82-7.72s1.7,3.28,3.43,7.48l1.2,3c.26.46.35,1.01.24,1.53-.11.28-.34.5-.62.59-.22.07-.44.11-.67.12-.84.12-1.68.13-2.52.03Z"/>
    <path class="st4" d="M144.85,164.25c-5.23.24-10.43-.99-15-3.54,0,0,4,7.81,15,6.45v-2.91Z"/>
    <path class="st4" d="M143.16,149.8c-.73-1.01-1.91-1.59-3.15-1.56-.82.03-1.56.47-2,1.16-.64,1.07-.3,2.45.77,3.09.56.33,1.23.41,1.85.21.84-.3,1.61-.8,2.22-1.46.2-.16.36-.36.47-.59.11-.26.08-.55-.09-.78"/>
    <path class="st3" d="M138.79,147.34c.25,0,.3,1.64,1.76,2.78s3.22.91,3.24,1.14-.39.33-1.13.38c-.98.04-1.94-.26-2.71-.86-.74-.57-1.23-1.41-1.36-2.34-.08-.69.1-1.11.2-1.1Z"/>
    <path class="st0" d="M137.89,128.62c-.13.42-1.67.26-3.46.53s-3.23.8-3.48.43c-.11-.17.13-.57.7-1,.76-.53,1.64-.88,2.56-1,.92-.14,1.85-.06,2.73.24.67.28,1.01.6.95.8Z"/>
    <path class="st3" d="M151.79,128.97c-.26.36-1.32,0-2.59.05s-2.34.3-2.6-.06c-.11-.18.05-.53.51-.87,1.26-.85,2.92-.85,4.18,0,.43.35.59.71.5.88Z"/>
    <path class="st3" d="M144.86,115.56c-1.9-4.57-6-5.53-10.45-6s-11,1.35-14.64,3.75c-3.04,1.85-5.78,4.16-8.1,6.86-2,2.53-2.84,5.43-4.06,8.34-1.89,4.54-1.77,9.57-2,14.44-.33,6.13-1.31,12.21-2.92,18.14-.58,2.13-1.17,4.68,1.84,5.9.57.22,1.16.36,1.76.43,4.68.56,9.2,2.08,14.4,2.41h3.21c4.07,0,6.15-2.61,6-5.93-.42-10-5.31-26.51-5.85-29.67-.03.02-1.72-21.61,20.81-18.67Z"/>
    <path class="st3" d="M143.39,115.48c-1.37,1.14-2.22,2.8-2.34,4.58-.23,1.75-.13,3.54-.46,5.27-.68,3.55-3.05,6.54-6.35,8-1,.45-2.45.63-3.09-.3.08,2.52-1.39,4.82-3.71,5.81-1.65.67-3.49.56-5.22,1s-3.55,1.57-3.64,3.34l-.73-12.32,3.47-10.91,10.65-6.39,11.42,1.92Z"/>
    <path class="st5" d="M124.51,135.8c1.38-.9,2.35-2.31,2.7-3.93.43-1.72.68-3.48.74-5.25.08-2.18.33-4.36.75-6.5.43-2.16,1.44-4.17,2.91-5.82.66-.7,1.44-1.27,2.32-1.67.77-.34,1.59-.55,2.43-.6,1.22-.1,2.43.19,3.47.83.16.09.32.2.46.33.11.09.21.18.31.28.08.08.16.17.23.26-.31-.29-.65-.56-1-.8-1.03-.6-2.23-.86-3.42-.75-1.77.13-3.43.94-4.62,2.26-1.44,1.62-2.42,3.6-2.84,5.73-.41,2.13-.67,4.29-.77,6.46-.07,1.78-.34,3.55-.79,5.28-.32,1.17-.93,2.25-1.77,3.12-.32.32-.7.58-1.11.77Z"/>
    <path class="st10" d="M115.25,134.31c.56-.06,1.11-.19,1.63-.4,1.39-.67,2.56-1.71,3.4-3,.61-.87,1.13-1.79,1.56-2.76.46-1.12.75-2.3.87-3.51.16-1.27.21-2.63.36-4,.07-.71.18-1.42.34-2.12.17-.72.4-1.43.7-2.11,1.21-2.6,3.35-4.64,6-5.73,2.15-.88,4.52-1.04,6.77-.46,1.51.37,2.92,1.05,4.15,2,.45.34.86.73,1.23,1.15l-.08-.07c-.09-.07-.17-.14-.24-.22l-.4-.35c-.16-.13-.34-.29-.56-.45-1.24-.92-2.64-1.57-4.14-1.93-2.22-.55-4.55-.37-6.66.5-2.58,1.09-4.66,3.1-5.84,5.64-.29.67-.52,1.36-.69,2.07-.15.69-.27,1.39-.34,2.1-.15,1.39-.2,2.74-.36,4-.12,1.22-.43,2.42-.91,3.55-.44.98-.97,1.9-1.6,2.77-.87,1.3-2.07,2.34-3.49,3-.39.15-.8.25-1.22.3h-.33l-.15.03Z"/>
    <path class="st10" d="M131.15,132.98s0,.07,0,.11v.31c0,.16-.03.33-.06.49,0,.2-.08.43-.13.68-.16.61-.4,1.21-.71,1.76-.42.74-.99,1.38-1.68,1.89-1.89,1.23-4.15,1.79-6.4,1.58-1.35-.05-2.69-.26-4-.61-1.4-.36-2.75-.91-4-1.63l-.25-.15h.29c1.61-.23,3.18-.72,4.64-1.44h.08l.06.19c-3.3.54-6.69-.07-9.6-1.72l-.19-.11.21-.07c2.05-.62,3.98-1.59,5.69-2.88,1.35-1.03,2.39-2.41,3-4,.35-1.04.51-2.13.48-3.22,0-.37,0-.66-.06-.87s0-.17,0-.23v-.07.29c0,.22.06.51.1.88.05,1.1-.09,2.21-.44,3.26-.62,1.58-1.65,2.97-3,4-1.72,1.31-3.67,2.31-5.74,2.94v-.18c2.88,1.61,6.22,2.21,9.48,1.69l.71-.12-.65.31h-.08c-1.48.73-3.07,1.22-4.7,1.46v-.2c1.25.72,2.6,1.27,4,1.62,1.28.35,2.59.55,3.92.62,2.21.22,4.44-.31,6.31-1.51.67-.49,1.24-1.11,1.67-1.83.31-.54.55-1.13.72-1.73l.16-.67c0-.19.05-.36.08-.49v-.3c.08,0,.09-.05.09-.05Z"/>
    <path class="st10" d="M108.35,163.33s.62-5.94,1.51-13.25,1.66-13.24,1.72-13.24-.62,5.94-1.51,13.26-1.66,13.24-1.72,13.23Z"/>
    <path class="st3" d="M213.89,161.03l-17.1,15.3c-.72.61-.82,1.68-.21,2.41.02.02.04.04.05.06h0c.59.66,1.61.72,2.28.14l17-15.38,1.62-3.53-3.64,1Z"/>
    <path class="st10" d="M215.9,160.48l1,1-.92,2c-.44.06-.84-.24-.91-.68,0-.06-.01-.13,0-.19-.38.08-.76-.17-.84-.55-.02-.11-.02-.22,0-.33,0,0-.68,0-.32-.77l1.98-.48Z"/>
    <path class="st1" d="M194.01,204.73l-.57-.1,11.71-20.48-1.85-5.9s-2.14-8.41-.36-10.56c0,0,3.92-4.6,5.19-4.54s2.28.32,2.54,1.27c0,0,2.15-.25,2.72.45.38.48.71.98,1,1.52,0,0,2.35-.19,3,1.84,0,0,2.22,1.14,2.41,2.79s-.44,9.33-1.14,11.3-3.3,6.09-4.06,12.18-3.45,10.05-5.83,19l-6.48,2.56-8.28-11.33Z"/>
    <path class="st4" d="M213.4,172.09c0,.14.89,0,1.76.4s1.31,1.16,1.44,1.09-.12-1-1.22-1.56-2.06-.05-1.98.07Z"/>
    <path class="st4" d="M209.79,170.02c0,.14.69,0,1.31.35s.82,1,1,.95.12-.2,0-.5c-.12-.38-.39-.71-.74-.9-.35-.2-.76-.27-1.16-.18-.32.08-.41.22-.41.28Z"/>
    <path class="st4" d="M205.73,167.46c0,.14.8,0,1.56.4s1,1.14,1.18,1.09.09-.23,0-.55c-.36-.87-1.28-1.38-2.21-1.21-.38.07-.55.21-.53.27Z"/>
    <path class="st4" d="M215.3,170.94c.12.08.61-.51,1.16-1.25s1-1.37.88-1.47-.72.38-1.29,1.15-.87,1.5-.75,1.57Z"/>
    <path class="st4" d="M212.11,169.05c.14.06.51-.63,1.11-1.35s1.21-1.2,1.13-1.33-.87.2-1.53,1-.84,1.64-.71,1.68Z"/>
    <path class="st4" d="M208.43,166.86c.15,0,.47-.64,1.1-1.3s1.28-1,1.22-1.18-.89.06-1.6.83-.85,1.62-.72,1.65Z"/>
    <path class="st0" d="M103.13,186.29c-3.19,2.89-5.32,6.76-6.06,11-2.2,12.66-6.77,39.49-6.51,42.39.35,3.81,2.23,9.88,6.59,10.88,2.74.61,5.57.61,8.31,0l3-69.15-5.33,4.88Z"/>
    <path class="st0" d="M102.91,256.66l.06-67.86s1-2.77,4.95-6.84c1.83-1.87,10.49-7.91,10.49-7.91l.73-4.48c2.78-2.16,7.75-3.54,11.26-3.49,11.43.15,18.36,5.26,18.36,5.26l1.12,4.42,5.58,1.59,9.06,37.08,3.19,50.46,9.39,102.91-83.5-1.91,2.47-67.4c.24-6.72,1.04-13.41,2.39-20l4.45-21.83Z"/>
    <path class="st0" d="M148.34,176.82s6.17.39,6.72.52c1.91.44,7.15,5.25,13.13,11.17,5.7,5.66,16.91,17.42,16.91,17.42,0,0,2-2,4.32.68l13.64-21.68s11.72-.06,13.81,10c0,0-7.3,18.27-10.63,23.83,0,0-12.35,20.5-22.11,16.79-8.91-3.39-20.08-12.46-21.66-14.4l-13.11-9.36s-12.14-17.9-8.17-26.47,7.15-8.5,7.15-8.5Z"/>
    <path class="st3" d="M149.88,175.76c-.11,0-.22-.03-.32-.06l-.89-.24c-.78-.2-1.91-.47-3.32-.74-3.68-.68-7.4-1.13-11.13-1.37-3.73-.28-7.48-.28-11.21,0-1.43.12-2.58.3-3.37.44l-.91.18c-.11.02-.21.02-.32,0,.1-.04.2-.07.31-.09l.9-.23c1.11-.25,2.24-.42,3.37-.53,3.74-.35,7.5-.38,11.25-.11,3.75.26,7.47.78,11.15,1.55,1.41.29,2.53.59,3.31.82l.88.28.3.1Z"/>
    <g class="st7">
      <path d="M118.61,174c9.44,1.67,19,0,29,1.2-9.64-2-19.68-2.94-29-1.2"/>
    </g>
    <path class="st3" d="M147.6,209.81c.07.08.15.15.24.21l.74.58,2.88,2.25,10.92,8.4h0c3.66,3.33,7.56,6.38,11.67,9.12,2.42,1.63,4.96,3.07,7.6,4.32.68.34,1.4.62,2.12.92.37.15.75.28,1.14.38.4.08.8.15,1.2.19,1.65.06,3.29-.28,4.78-1,3.03-1.6,5.74-3.74,8-6.31,2.44-2.65,4.66-5.49,6.64-8.5,1.03-1.56,1.94-3.19,2.74-4.88.83-1.68,1.62-3.41,2.41-5.16,1.56-3.5,3.08-7.09,4.59-10.75l1.85-4.54v-.15c-.33-1.58-.97-3.08-1.88-4.41-.91-1.3-2.08-2.4-3.42-3.25-2.66-1.58-5.67-2.45-8.76-2.52h-.14l-.07.12-13.62,21.7h.36c-.55-.71-1.32-1.21-2.19-1.44-.89-.16-1.8.12-2.45.75h.31l-11.95-12.28-5-5.08c-1.56-1.54-3-2.94-4.33-4.18-2.02-1.95-4.15-3.79-6.37-5.5-.57-.47-1.18-.88-1.82-1.24-.17-.09-.35-.16-.53-.21h-.18s.25.06.68.31c.64.36,1.25.77,1.82,1.23,1.53,1.18,3.66,3.07,6.28,5.58,1.31,1.25,2.74,2.66,4.29,4.21l4.93,5.11,11.89,12.3.14.15.16-.15c.56-.52,1.32-.75,2.07-.62.77.21,1.44.67,1.92,1.3l.2.23.16-.26c4.2-6.65,8.79-13.92,13.67-21.67l-.21.12c2.99.08,5.91.92,8.48,2.45,1.29.81,2.41,1.86,3.28,3.11.87,1.28,1.48,2.71,1.8,4.22v-.15l-1.85,4.53c-1.51,3.65-3,7.24-4.59,10.73-.78,1.74-1.56,3.47-2.39,5.15-.79,1.67-1.69,3.28-2.71,4.82-1.96,2.99-4.15,5.81-6.56,8.45-2.22,2.53-4.87,4.64-7.84,6.22-1.41.7-2.98,1.05-4.56,1-.38-.03-.76-.09-1.13-.17-.37-.1-.73-.22-1.08-.36-.71-.29-1.42-.57-2.1-.9-2.62-1.24-5.15-2.66-7.56-4.26-4.11-2.71-8.02-5.71-11.68-9h0l-11-8.28-2.96-2.19-.76-.56c-.17-.14-.26-.2-.27-.19Z"/>
    <path class="st3" d="M142.01,202.39c.09-.05-1-1.55-2-4.28-1.41-3.55-1.67-7.45-.74-11.15.59-2,1.61-3.85,3-5.41,1.12-1.28,2.48-2.34,4-3.11,1.43-.67,2.95-1.11,4.51-1.31h-.33c-.33-.02-.67-.02-1,0-1.18.14-2.33.48-3.39,1-1.59.75-3.02,1.81-4.19,3.12-1.45,1.6-2.52,3.51-3.12,5.59-.56,2.08-.7,4.25-.43,6.38.22,1.72.67,3.4,1.34,5,.44,1.09.98,2.13,1.62,3.12.2.38.45.73.73,1.05Z"/>
    <path class="st3" d="M188.61,217.36c1.35-3.46,1.62-7.25.77-10.87-.16,0,.14,2.46-.08,5.46s-.84,5.37-.69,5.41Z"/>
    <path class="st3" d="M184.31,217.36c.76-1.7,1.17-3.52,1.21-5.38.21-1.84.06-3.71-.44-5.49-.16,0,.15,2.46-.08,5.46s-.84,5.37-.69,5.41Z"/>
    <path class="st3" d="M102.97,191.88c-.15,0-.21,14.23-.13,31.77s.24,31.77.38,31.77.21-14.22.14-31.77-.25-31.77-.39-31.77Z"/>
    <path class="st3" d="M159.85,367.8c.01-.13.01-.26,0-.39v-1.16c0-1.05-.08-2.55-.14-4.46-.14-3.9-.35-9.49-.61-16.39-.56-13.87-1.34-33-2.19-54.07s-1.75-40.21-2.35-54.07c-.33-6.9-.59-12.49-.78-16.39-.1-1.91-.18-3.4-.23-4.45,0-.49-.06-.87-.08-1.16.01-.13.01-.26,0-.39-.01.13-.01.27,0,.4v1.16c0,1,.08,2.54.14,4.45.15,3.9.35,9.49.61,16.39.56,13.87,1.34,33,2.2,54.08s1.74,40.21,2.35,54.07c.32,6.89.58,12.48.77,16.38.1,1.91.18,3.41.23,4.45,0,.49.06.88.08,1.16-.01.13-.01.26,0,.39Z"/>
    <path class="st3" d="M103.22,255.42c.42.15.86.26,1.31.32.84.18,2.07.39,3.6.61,3.98.57,7.98.85,12,.86,4.02,0,8.03-.28,12-.86,1.52-.22,2.75-.43,3.6-.61.44-.06.88-.17,1.3-.33-.42.01-.83.06-1.24.15-.86.12-2.09.27-3.62.45-7.97.94-16.03.94-24,0l-3.61-.45c-.44-.09-.89-.13-1.34-.14Z"/>
    <path class="st3" d="M118.41,174.05l-.22.1-.64.33c-.56.3-1.37.77-2.38,1.43-2.83,1.88-5.54,3.93-8.11,6.16-1.79,1.53-3.48,3.15-5.08,4.88-.9.96-1.7,2.01-2.39,3.14-.34.61-.62,1.25-.85,1.91-.21.66-.44,1.33-.64,2-1.57,5.48-2.79,11.61-4,18.06s-2.13,12.63-2.85,18.26c-.35,2.82-.66,5.51-.87,8-.28,2.36-.02,4.76.78,7,.76,1.84,2.13,3.36,3.88,4.31,1.31.69,2.72,1.15,4.19,1.34.92.14,1.84.19,2.77.14.31,0,.55,0,.72-.05.08.01.16.01.24,0h-1c-.92,0-1.83-.08-2.73-.24-1.43-.23-2.81-.7-4.08-1.39-1.67-.94-2.97-2.42-3.68-4.2-.75-2.19-.99-4.53-.69-6.83.23-2.51.55-5.18.92-8,.74-5.63,1.73-11.79,2.89-18.24s2.4-12.57,3.93-18c.2-.68.42-1.34.63-2,.22-.63.48-1.24.8-1.83.66-1.11,1.44-2.14,2.32-3.08,1.56-1.73,3.23-3.36,5-4.89,2.54-2.25,5.21-4.34,8-6.27,1-.68,1.77-1.18,2.31-1.51l.61-.37c.16-.1.23-.15.22-.16Z"/>
    <path class="st3" d="M102.91,256.66s-.05.17-.13.52-.19.86-.34,1.52c-.3,1.35-.73,3.33-1.29,5.9s-1.23,5.77-2,9.48-1.82,8-2.5,12.79c-.34,2.41-.61,5-.75,7.63s-.2,5.47-.31,8.37c-.21,5.81-.43,12.07-.66,18.73-.47,13.31-1,28.22-1.54,44.29v.24h.24l59.36,1.43,24.1.55h.29v-.29c-3.59-41-6.76-77.12-9-103.07-1.16-12.95-2.09-23.35-2.73-30.53-.33-3.57-.58-6.34-.76-8.23-.09-.93-.16-1.64-.21-2.13-.05-.48-.08-.72-.08-.72v.72c0,.48.1,1.21.17,2.14.15,1.89.37,4.66.66,8.24.61,7.18,1.49,17.58,2.58,30.54,2.23,25.95,5.33,62.13,8.85,103.09l.27-.28-24.11-.56-59.39-1.34.23.25c.54-16.07,1-31,1.47-44.29.21-6.65.42-12.91.61-18.72.09-2.91.19-5.7.28-8.37s.38-5.21.71-7.61c.66-4.81,1.71-9.05,2.44-12.78s1.43-6.9,2-9.49.93-4.57,1.21-5.93l.3-1.53.03-.56Z"/>
    <path class="st0" d="M159.85,275.18h12.94s6,37.08-.51,39.5c-3.43,1.57-7.48.15-9.17-3.22l-3.26-36.28Z"/>
    <path class="st3" d="M159.85,275.18c-.01.22-.01.45,0,.67,0,.5.09,1.16.15,2,.14,1.8.34,4.34.6,7.52.55,6.51,1.31,15.6,2.2,26.11v.08h0c.54,1.01,1.3,1.89,2.21,2.59.95.72,2.07,1.18,3.25,1.32,1.21.14,2.43,0,3.58-.41.31-.08.6-.2.88-.36.27-.18.52-.4.72-.66.39-.5.69-1.06.89-1.66.56-1.78.9-3.62,1-5.48.13-1.82.16-3.61.14-5.36,0-3.5-.27-6.86-.54-10-.57-6.33-1.33-11.89-2.05-16.37v-.15h-.09l-9.54.1h-3.37c.08.01.16.01.24,0h3.24l9.43.1-.17-.15c.66,4.48,1.38,10.05,1.92,16.36.26,3.16.47,6.5.5,10,0,1.74,0,3.51-.15,5.31-.11,1.81-.44,3.61-1,5.34-.41,1.09-1,2.15-2.16,2.36-1.07.39-2.22.53-3.35.4-2.18-.31-4.08-1.66-5.08-3.62v.09c-1-10.43-1.82-19.45-2.43-25.91-.31-3.2-.56-5.77-.74-7.58-.09-.86-.16-1.53-.21-2-.01-.21-.04-.43-.07-.64Z"/>
  </g>
</svg>