<?xml version="1.0" encoding="UTF-8"?>
<svg id="Layer_1" xmlns="http://www.w3.org/2000/svg" version="1.1" viewBox="0 0 8192 7170">
  <!-- Generator: Adobe Illustrator 30.0.0, SVG Export Plug-In . SVG Version: 2.1.1 Build 123)  -->
  <defs>
    <style>
      .st0 {
        fill: #936050;
      }

      .st1 {
        fill: #e0e0e0;
      }

      .st2 {
        fill: #b78876;
      }

      .st3 {
        fill: #ffbe9d;
      }

      .st4 {
        fill: #263238;
      }

      .st5 {
        fill: #eb996e;
      }

      .st6 {
        fill: #fff;
      }

      .st7 {
        fill: #fafafa;
      }

      .st8 {
        opacity: .4;
      }

      .st9 {
        opacity: .6;
      }

      .st10 {
        opacity: .2;
      }

      .st11 {
        fill: #455a64;
      }

      .st12 {
        fill: #86ccf9;
      }
    </style>
  </defs>
  <g id="freepik--background-complete--inject-94">
    <path class="st1" d="M3172.43,1813.86c-2.78,4.89,1.89,442.03,1.89,442.03h35.54l11.99-442.48-49.42.44Z"/>
    <polygon class="st1" points="3213.41 2196.59 3172.43 2198.81 3172.76 2260.67 3126.34 2285 3126.56 2325.65 3156.99 2367.74 3158.22 2309.1 3196.2 2289.33 3228.52 2306.21 3226.63 2369.4 3260.17 2328.31 3258.28 2290.66 3215.19 2258.67 3213.41 2196.59"/>
    <rect class="st1" x="2358.63" y="1923" width="747.01" height="205.47" rx="8.27" ry="8.27" transform="translate(-571.1 2836.17) rotate(-50.34)"/>
    <rect class="st1" x="2820.58" y="1751.56" width="436.48" height="128.94" rx="5.19" ry="5.19"/>
    <rect class="st1" x="2434.75" y="2116.18" width="288.65" height="908.39" rx="11.62" ry="11.62"/>
    <path class="st1" d="M2652.77,2886.63c.06,39.32-31.76,71.24-71.08,71.3-39.32.06-71.24-31.76-71.3-71.08-.06-39.32,31.76-71.24,71.08-71.3.04,0,.07,0,.11,0,39.27,0,71.13,31.81,71.19,71.08Z"/>
    <path class="st1" d="M2650.21,2240.79c0,39.32-31.87,71.19-71.19,71.19s-71.19-31.87-71.19-71.19c0-39.32,31.87-71.19,71.19-71.19.04,0,.07,0,.11,0,39.27.06,71.08,31.92,71.08,71.19Z"/>
    <circle class="st1" cx="2894" cy="1816.09" r="43.2"/>
    <circle class="st1" cx="3199.31" cy="1816.09" r="29.32"/>
    <path class="st1" d="M5679.13,1623.39c3,5.66-14.44,327.3-14.44,327.3l-40.87-.67-1.33-328.53,56.64,1.89Z"/>
    <polygon class="st1" points="5603.5 1778.1 5700.12 1785.65 5695.35 1931.7 5803.41 1991.79 5800.19 2087.75 5726 2184.93 5726.67 2046.76 5638.48 1997.67 5560.96 2035.55 5561.74 2184.59 5485.22 2085.75 5491.99 1997.12 5595.5 1924.26 5603.5 1778.1"/>
    <rect class="st1" x="6061.54" y="1443.85" width="235.34" height="855.52" rx="9.48" ry="9.48" transform="translate(227.66 4374.52) rotate(-39.66)"/>
    <rect class="st1" x="5578.18" y="1557.53" width="499.9" height="147.71" rx="5.95" ry="5.95"/>
    <rect class="st1" x="6189.25" y="1975.24" width="330.64" height="1040.22" rx="13.31" ry="13.31"/>
    <circle class="st1" cx="6351.46" cy="2857.79" r="81.52" transform="translate(1271.45 7622.4) rotate(-67.39)"/>
    <circle class="st1" cx="6354.62" cy="2117.85" r="81.52"/>
    <circle class="st1" cx="5994" cy="1631.5" r="49.42"/>
    <path class="st1" d="M5620.6,1607.73c-12.93,13.1-12.79,34.19.3,47.12,13.1,12.93,34.19,12.79,47.12-.3,12.81-12.98,12.81-33.84,0-46.81-12.93-13.1-34.02-13.23-47.12-.3-.1.1-.2.2-.3.3Z"/>
    <rect class="st1" x="1842.89" y="2749.35" width="5261.74" height="293.65" rx="11.82" ry="11.82"/>
    <path class="st1" d="M2528.82,2904.84c0,40.3,32.67,72.97,72.97,72.97s72.97-32.67,72.97-72.97-32.67-72.97-72.97-72.97c-40.27.06-72.91,32.69-72.97,72.97Z"/>
    <circle class="st1" cx="2003.04" cy="2893.29" r="72.97"/>
    <path class="st1" d="M3193.2,2904.84c0,40.3,32.67,72.97,72.97,72.97s72.97-32.67,72.97-72.97c0-40.3-32.67-72.97-72.97-72.97-40.27.06-72.91,32.69-72.97,72.97Z"/>
    <path class="st1" d="M3857.58,2904.84c0,40.3,32.67,72.97,72.97,72.97s72.97-32.67,72.97-72.97c0-40.3-32.67-72.97-72.97-72.97-40.27.06-72.91,32.69-72.97,72.97Z"/>
    <path class="st1" d="M4521.96,2904.84c0,40.3,32.67,72.97,72.97,72.97s72.97-32.67,72.97-72.97c0-40.3-32.67-72.97-72.97-72.97-40.27.06-72.91,32.69-72.97,72.97Z"/>
    <path class="st1" d="M5186.34,2904.84c0,40.3,32.67,72.97,72.97,72.97s72.97-32.67,72.97-72.97c0-40.3-32.67-72.97-72.97-72.97-40.27.06-72.91,32.69-72.97,72.97Z"/>
    <path class="st1" d="M5850.73,2904.84c-.06,40.36,32.61,73.13,72.97,73.19,40.36.06,73.13-32.61,73.19-72.97.06-40.36-32.61-73.13-72.97-73.19-.07,0-.15,0-.22,0-40.27.06-72.91,32.69-72.97,72.97Z"/>
    <path class="st1" d="M6756.56,2904.84c-.06,40.36,32.61,73.13,72.97,73.19,40.36.06,73.13-32.61,73.19-72.97.06-40.36-32.61-73.13-72.97-73.19h-.11c-40.29.06-72.96,32.68-73.08,72.97Z"/>
    <rect class="st1" x="5923.81" y="3043" width="832.86" height="1134.07"/>
    <rect class="st1" x="2236.83" y="3504.47" width="832.86" height="693.48"/>
  </g>
  <g id="freepik--character-2--inject-94">
    <path class="st12" d="M4310.05,5292.26l1.11-74.41-139.5-3-2.67,108.95,8.55.78c38.54,2.89,195.69,12.22,221.57,5,28.88-8.11-89.07-37.32-89.07-37.32Z"/>
    <g class="st8">
      <path d="M4219.54,5323.8c-1.81-11.79-7.9-22.51-17.1-30.1-9.05-7.61-20.62-11.57-32.43-11.11l-.89,38.98,50.42,2.22Z"/>
    </g>
    <g class="st8">
      <path d="M4367.7,5308.81s41.2,12.88,35.98,19.55c-5.22,6.66-164.6,3.33-234.68-4.33v-3.11l185.7,5.55s4.89-17.66,12.99-17.66Z"/>
    </g>
    <path class="st4" d="M4167.12,5320.58h2.33l6.89.56,25.32,1.56c21.44,1.33,50.98,2.55,83.63,3.33,32.65.78,62.31.78,83.74,0l25.43-.56h6.89c.77.1,1.56.1,2.33,0h-34.65c-21.44,0-50.98,0-83.63-.89s-62.31-1.89-83.63-2.78l-25.43-1.11h-6.89l-2.33-.11Z"/>
    <path class="st4" d="M4354.92,5328.47c1.11-4.19,2.76-8.22,4.89-11.99,2.62-3.49,5.6-6.69,8.88-9.55-8.68,3.55-14.19,12.18-13.77,21.55h0Z"/>
    <path class="st4" d="M4314.16,5306.7s2.44-2.11,4.55-5.33c1.48-1.78,2.55-3.86,3.11-6.11,0,0-2.44,2.11-4.55,5.22-2.11,3.11-3.44,5.89-3.11,6.22Z"/>
    <path class="st4" d="M4303.06,5300.48s2.44-1.11,4.89-3.22,4.22-4.11,3.89-4.44-2.44,1.11-4.89,3.22-4.22,4.11-3.89,4.44Z"/>
    <path class="st4" d="M4296.5,5287.15c2.29.91,4.76,1.29,7.22,1.11,2.46.32,4.97.1,7.33-.67-2.31-.85-4.77-1.19-7.22-1-2.45-.4-4.97-.21-7.33.56Z"/>
    <path class="st4" d="M4293.95,5277.82c2.32,1.68,5.13,2.58,8,2.55,2.85.55,5.8.2,8.44-1-2.72-.43-5.47-.65-8.22-.67-2.71-.54-5.46-.84-8.22-.89Z"/>
    <path class="st4" d="M4318.72,5294.59c2.97.54,6.02.54,9,0,3.24-.27,6.45-.91,9.55-1.89,1.92-.5,3.79-1.2,5.55-2.11,1.09-.58,1.9-1.58,2.22-2.78.36-1.32-.12-2.73-1.22-3.55-6.97-3.67-15.56-1.85-20.44,4.33-1.47,1.75-2.53,3.79-3.11,6v2.33c.93-2.76,2.36-5.32,4.22-7.55,2.06-2.33,4.76-4,7.77-4.78,3.68-1.25,7.71-.88,11.11,1,1.33,1,.78,2.67-.78,3.66-1.64.83-3.35,1.5-5.11,2-3.05.98-6.17,1.72-9.33,2.22-5.55.89-9.44.89-9.44,1.11Z"/>
    <path class="st4" d="M4321.49,5295.15c1.09-1.88,1.48-4.08,1.11-6.22-.18-2.37-.94-4.66-2.22-6.66-1.5-2.74-4.32-4.51-7.44-4.66-1.89.39-3.12,2.21-2.78,4.11.16,1.43.65,2.8,1.44,4,1.1,2.03,2.49,3.9,4.11,5.55,2.67,2.78,4.89,3.89,5,3.66s-1.78-1.67-4.11-4.55c-1.44-1.66-2.67-3.49-3.66-5.44-1.22-1.89-2-5.33,0-5.66,2-.33,4.44,2.11,5.78,3.89,1.2,1.78,2.03,3.78,2.44,5.89.25,2.03.36,4.07.33,6.11Z"/>
    <path class="st4" d="M4170.78,5282.49s4,0,10.22.56c8.15,1.18,15.83,4.56,22.21,9.77,6.27,5.35,10.99,12.3,13.66,20.1.98,3.28,1.75,6.62,2.33,10,.19-.92.19-1.86,0-2.78-.17-2.56-.62-5.09-1.33-7.55-4.75-16.89-19.4-29.12-36.87-30.76-2.59-.24-5.19-.24-7.77,0-1.55.33-2.55.56-2.44.67Z"/>
    <path class="st4" d="M4186.44,5224.73c-1.18,9.51-1.78,19.08-1.78,28.65-.53,9.54-.53,19.11,0,28.65,1.26-9.5,1.89-19.07,1.89-28.65.53-9.55.49-19.11-.11-28.65Z"/>
    <path class="st4" d="M4237.42,5310.59c6.64,1.7,13.47,2.52,20.32,2.44,6.84.47,13.7.06,20.44-1.22h-20.44c-11.22,0-20.32-1.78-20.32-1.22Z"/>
    <path class="st4" d="M4210.1,5309.92s.67,2,1.56,4.11c.89,2.11,1.33,3.89,1.89,3.89s.67-2.22,0-4.55-3.22-3.78-3.44-3.44Z"/>
    <path class="st4" d="M4199.99,5296.92s.56,1.78,2,3.22,2.78,2.44,3.11,2.11,0-1.78-1.89-3.22-2.78-2.44-3.22-2.11Z"/>
    <path class="st4" d="M4185.44,5290.71s1.89.56,4,1.22c2.11.67,3.44,1.89,3.78,1.67s-.67-2.33-3.22-3.22-4.55-.11-4.55.33Z"/>
    <path class="st4" d="M4175,5287.71s.56,1.22,1.78,1.67,2.22,0,2.33,0-.56-1.22-1.67-1.67-2.22-.44-2.44,0Z"/>
    <path class="st12" d="M3764.29,5234.95l20.44-71.64,134.39,37.54-28.88,105.07-8.44-1.78c-37.65-8.33-190.81-44.43-213.58-59.31-25.21-16.1,96.07-9.88,96.07-9.88Z"/>
    <g class="st8">
      <path d="M3841.81,5291.26c5.21-10.77,14.17-19.27,25.21-23.88,10.85-4.54,23-4.9,34.1-1l-10.44,37.65-48.87-12.77Z"/>
    </g>
    <g class="st8">
      <path d="M3704.43,5233.95s-43.2,0-40.09,8.33c3.11,8.33,156.6,50.76,225.9,63.64l.67-3-179.37-48.42s.67-18.1-7.11-20.55Z"/>
    </g>
    <path class="st4" d="M3893.01,5303.37h-2.33l-6.77-1.44c-6.66-1.67-14.99-3.55-24.77-5.78-20.77-5-49.42-12.33-80.97-21.1-31.54-8.77-59.86-17.33-80.3-23.77l-24.1-7.77-6.55-2.22-2.22-.89,2.33.56,6.55,1.89,24.32,7.33c20.55,6.11,48.87,14.55,80.41,23.32,31.54,8.77,60.09,16.22,80.85,21.44l24.54,6.33,6.66,1.78,2.33.33Z"/>
    <path class="st4" d="M3710.98,5256.61c-.01-4.33-.46-8.64-1.33-12.88-1.44-4.09-3.34-8-5.66-11.66,7.27,5.89,10.07,15.71,7,24.54Z"/>
    <path class="st4" d="M3756.18,5247.61s-1.67-2.78-2.78-6.33c-.94-2.17-1.35-4.53-1.22-6.89,0,0,1.78,2.67,2.89,6.33.94,2.17,1.32,4.53,1.11,6.89Z"/>
    <path class="st4" d="M3768.73,5244.84s-2.11-1.78-3.89-4.44c-1.78-2.67-2.78-5.11-2.44-5.44s2.11,1.78,3.89,4.55c1.78,2.78,2.78,5.11,2.44,5.33Z"/>
    <path class="st4" d="M3779.06,5234.06c-2.45.21-4.92-.13-7.22-1-2.43-.42-4.75-1.37-6.77-2.78,2.46-.14,4.92.24,7.22,1.11,3.89,1,7,2.22,6.77,2.67Z"/>
    <path class="st4" d="M3783.95,5225.84c-2.75.88-5.7.88-8.44,0-2.88-.24-5.61-1.41-7.77-3.33,2.75.36,5.46.95,8.11,1.78,2.75.22,5.47.74,8.11,1.55Z"/>
    <path class="st4" d="M3754.96,5234.62c-3-.34-5.93-1.16-8.66-2.44-3.01-1.32-5.9-2.88-8.66-4.66-1.69-1.04-3.26-2.27-4.66-3.66-.83-.87-1.31-2.02-1.33-3.22.07-1.38.94-2.59,2.22-3.11,9.06-1.6,17.7,4.46,19.3,13.52.18,1.04.27,2.09.25,3.14.17.81.17,1.64,0,2.44-.15-2.94-.78-5.83-1.89-8.55-1.32-2.78-3.4-5.13-6-6.77-3.23-2.26-7.26-3.07-11.11-2.22-1.56.67-1.56,2.44,0,3.78,1.28,1.29,2.7,2.45,4.22,3.44,2.64,1.76,5.38,3.36,8.22,4.78,5.44,2.33,8.11,3.22,8.11,3.55Z"/>
    <path class="st4" d="M3752.29,5234.4c-.5-2.14-.23-4.38.78-6.33.85-2.19,2.27-4.1,4.11-5.55,2.13-2.27,5.32-3.2,8.33-2.44,1.71.83,2.42,2.89,1.59,4.6,0,.02-.02.04-.03.06-.53,1.38-1.41,2.61-2.55,3.55-1.63,1.56-3.46,2.91-5.44,4-1.78,1.22-3.85,1.94-6,2.11,0,0,2.22-1,5.33-3.11,1.82-1.22,3.53-2.59,5.11-4.11,1.67-1.56,3.33-4.55,1.33-5.55-2-1-4.89.67-6.77,2-1.62,1.41-2.97,3.11-4,5-.7,1.89-1.3,3.82-1.78,5.78Z"/>
    <path class="st4" d="M3900.56,5265.83s-3.78-1.44-10.11-2.44c-8.15-1.21-16.47-.22-24.1,2.89-7.58,3.33-14.11,8.67-18.88,15.44-3.66,5.11-4.89,9-5.22,8.88s0-1,.78-2.78c7.59-18.94,27.67-29.7,47.65-25.54,2.52.45,4.98,1.2,7.33,2.22l2.55,1.33Z"/>
    <path class="st4" d="M3902.23,5206.07c-1.69,9.4-3.87,18.71-6.55,27.88-2.22,9.33-4.96,18.53-8.22,27.54,1.68-9.44,3.87-18.78,6.55-27.99,2.16-9.31,4.91-18.47,8.22-27.43Z"/>
    <path class="st4" d="M3828.59,5273.49c-6.87-.29-13.66-1.48-20.21-3.55-6.66-1.55-13.11-3.9-19.21-7,0,0,8.88,2.44,19.66,5.33s19.88,4.66,19.77,5.22Z"/>
    <path class="st4" d="M3854.92,5280.71s-1.22,1.67-2.67,3.44-2.44,3.44-2.89,3.33,0-2.33,1.56-4.33c1.56-2,3.78-2.78,4-2.44Z"/>
    <path class="st4" d="M3868.36,5271.16s-1.11,1.56-2.89,2.55-3.33,1.56-3.66,1.11,1.11-1.56,2.89-2.55,3.33-1.44,3.66-1.11Z"/>
    <path class="st4" d="M3884.13,5269.49h-4.22c-2.22,0-3.89.78-4.11,0s1.33-1.89,4-2.11c2.67-.22,4.55,1.78,4.33,2.11Z"/>
    <path class="st4" d="M3894.9,5269.6s-.89,1-2.11,1.11-2.33,0-2.33-.67.89-.89,2.11-1,2.33.11,2.33.56Z"/>
    <path class="st4" d="M3952.21,3872.31c-10.33,14.33-231.46,1323.32-231.46,1323.32l231.46,77.74,193.81-1248.13-23.43,1239.91,255.45,4.11-37.1-1396.96h-388.72Z"/>
    <path class="st2" d="M3671.44,2898.73l-35.98,96.63h-.56l-102.73,243.23c-31.21,58.2-34.21,148.71,59.53,180.59,74.86,25.54,231.79-46.54,231.79-46.54l-18.99-137.39-152.16,45.31,59.64-251.89s5.11-8.89,17.33-35.43l49.42-49.65s-2.78-14.66-26.88,6.66c-6.88,5.34-16.79,4.1-22.13-2.78-3.99-5.13-4.42-12.19-1.08-17.77,6.88-12.18,22.33-16.47,34.5-9.59,5.7,3.22,9.94,8.53,11.81,14.81,0,0,9.44,4.11,12.99-3.11,3.55-7.22-12.44-33.32-32.76-33.32-8.41-.08-16.73,1.62-24.43,5,0,0,24.1-61.2,19.21-63.42-4.89-2.22-13.22,0-38.98,66.64,0,0,15.22-54.87,16.33-62.08,1.11-7.22-6.66-14.88-13.33,2.11l-21.21,53.98s5.22-37.1,5.44-40.2c.67-7.89-6.89-9.55-11.11,0-3,7.22-15.66,38.21-15.66,38.21Z"/>
    <path class="st11" d="M4336.6,3395.07l34.65,80.3,102.51-149.94-87.63-170.37c-40.54-40.32-159.04-42.32-178.59-44.43-46.55,14.72-96.5,14.72-143.05,0-20.19.57-40.17,4.31-59.2,11.11-36.98,13.44-111.06,42.54-99.96,37.43l-253,121.39,63.08-230.68-102.51-44.43s-141.94,255.45-111.73,353.63c26.43,85.52,134.83,80.97,162.26,78.41h0l5.22-.67h1.22l277.1-36.32v166.6l-169.7,1068.65,628.62,29.43-62.86-1126.29-6.44-143.83Z"/>
    <path class="st4" d="M4122.58,4635.76c-.14-.99-.14-2,0-3v-41.98c0-28.99,0-70.86,1-122.17,1.44-103.51,4.33-246.45,8-404.38,3.66-157.93,7.22-299.87,9.66-404.38,1.22-51.31,2.22-93.07,2.89-122.17,0-14.1.56-25.21.78-33.32v-8.66c-.84-.18-1.37-1.01-1.19-1.85s1.01-1.37,1.85-1.19,1.37,1.01,1.19,1.85c-.13.59-.59,1.06-1.19,1.19v41.98c0,28.99,0,70.86-1,122.17-1.44,103.51-4.33,246.45-8,404.38-3.66,157.93-7.22,300.54-9.66,404.38-1.22,51.42-2.22,93.07-2.89,122.17,0,14.1-.56,25.32-.78,33.32v8.66c-.07,1.03-.3,2.04-.67,3Z"/>
    <path class="st4" d="M4275.07,2895.07c12.55-11.11,31.32-9.44,47.87-7.33,12.33,1.55,26.32,3.89,33.32,14.22,11.11,16.33-2.44,39.76,5.22,57.98,7.66,18.21,33.32,22.21,50.09,33.32,24.42,15.9,31.32,48.58,15.42,73-3,4.61-6.71,8.72-10.98,12.19,20.09,23.91,30.13,54.69,27.99,85.85-2.65,31.28-19.68,59.56-46.09,76.52-29.86,16.29-65.16,19.38-97.4,8.55-24.9-5.8-46.5-21.21-60.09-42.87-8.64-18.93-11.68-39.93-8.77-60.53.45-27.88,9.87-54.87,26.88-76.97,6.03-5.92,11.67-12.23,16.88-18.88,5.32-6.84,6.9-15.86,4.22-24.1-2.78-6.55-9.33-11.11-11.99-17.55-2.46-9.93.55-20.42,7.89-27.54,7.38-6.84,13.71-14.74,18.77-23.43,6.93-15.58-.08-33.83-15.66-40.76-3.85-1.71-8.01-2.62-12.22-2.66"/>
    <path class="st4" d="M4220.65,2985.03c48.72-22.08,70.32-79.47,48.24-128.18-1.16-2.57-2.44-5.08-3.82-7.53h-68.53l24.1,135.72Z"/>
    <path class="st4" d="M4049.17,3109.75c-1.33,0,96.51,384.39,96.51,384.39l99.96-381.28s-166.37-9.66-196.47-3.11Z"/>
    <path class="st2" d="M4146.46,3187.5h0c-40.4,0-73.18-32.68-73.3-73.08v-60.75s-55.53-8.66-56.53-64.42,9-183.92,9-183.92h0c64.56-27.78,139.1-18.43,194.81,24.43l8.33,6.44-8.88,280.32c-1.26,39.61-33.78,71.05-73.41,70.97Z"/>
    <path class="st4" d="M4046.5,2903.95c3.41-2.9,3.82-8.02.91-11.43-2.9-3.41-8.02-3.82-11.43-.91-3.41,2.9-3.82,8.02-.91,11.43.1.12.21.24.32.36,2.97,3.09,7.84,3.34,11.11.56Z"/>
    <path class="st4" d="M4024.84,2888.29c.89,1,6.33-3.22,13.99-3.22s13.33,3.89,14.1,2.89,0-2.11-2.89-4c-3.22-2.36-7.12-3.6-11.11-3.55-4.01.07-7.89,1.39-11.11,3.78-2.55,2-3.44,3.44-3,4.11Z"/>
    <path class="st4" d="M4118.14,2896.4c-3.74,2.38-4.91,7.29-2.67,11.11,2.33,3.83,7.31,5.04,11.14,2.72,3.83-2.33,5.04-7.31,2.72-11.14-2.33-3.83-7.31-5.04-11.14-2.72-.02.01-.04.02-.05.03Z"/>
    <path class="st4" d="M4108.25,2895.07c.89,1,6.44-3.22,14.1-3.22s13.22,3.89,14.1,2.89,0-2.11-2.89-4c-3.22-2.36-7.12-3.61-11.11-3.55-4.02,0-7.93,1.32-11.11,3.78-2.67,2-3.66,3.67-3.11,4.11Z"/>
    <path class="st4" d="M4077.49,2958.48c-3.98-1.55-8.18-2.45-12.44-2.67-2,0-3.55-.67-3.66-1.67-.15-2.02.31-4.03,1.33-5.78l6.11-15.66c5.76-13.19,10.18-26.92,13.22-40.98-7.14,12.5-12.95,25.71-17.33,39.43-1.89,5.44-3.89,11.11-5.66,15.77-1.35,2.55-1.75,5.51-1.11,8.33.57,1.56,1.85,2.76,3.44,3.22,1.14.2,2.3.2,3.44,0,4.19.73,8.47.73,12.66,0Z"/>
    <path class="st0" d="M4072.93,3052.78c25.76.51,51.09-6.69,72.75-20.66,0,0-17.21,40.09-72.86,35.1l.11-14.44Z"/>
    <path class="st2" d="M4222.31,2901.95c1,0,32.1-6.89,31.88,30.54-.22,37.43-37.87,24.77-37.87,23.66s6-54.2,6-54.2Z"/>
    <path class="st0" d="M4227.76,2943.16s.67,0,1.78,1c1.58.58,3.31.58,4.89,0,4.95-3.09,7.83-8.61,7.55-14.44.13-3.21-.48-6.4-1.78-9.33-.68-2.39-2.52-4.27-4.89-5-1.56-.43-3.19.32-3.89,1.78v1.78s-.78-.56,0-2.11c.15-.94.67-1.78,1.44-2.33,1.04-.8,2.36-1.16,3.66-1,3.11.63,5.65,2.87,6.66,5.89,1.62,3.23,2.38,6.83,2.22,10.44.39,6.81-3.39,13.18-9.55,16.1-2.06.55-4.27.14-6-1.11-2-.78-2.22-1.67-2.11-1.67Z"/>
    <path class="st4" d="M4025.84,2802.44c12.34,19.24,33.68,30.81,56.53,30.65,22.5-.46,44.79-4.39,66.08-11.66,11.77-3.22,25.99-5.78,34.65,2.89,4.47,5.56,7.04,12.41,7.33,19.55,2,15.66,2.22,31.49.67,47.2-1.11,6.21-1.11,12.56,0,18.77,1.27,6.35,6.29,11.29,12.66,12.44,9.77.78,21.44-14.99,24.77-24.32,3.23-11.32,5.02-23,5.33-34.76,2.09-13.65-.45-27.61-7.22-39.65-9.13-12.61-21.7-22.33-36.21-27.99-27.56-14.17-57.88-22.17-88.85-23.43-31.41-.96-61.9,10.63-84.74,32.21"/>
    <path class="st0" d="M4104.81,2968.81c-3.17-4.16-8.81-5.55-13.55-3.33-4.49,2.61-7.64,7.02-8.66,12.11-.56,2.11-.78,4.89,1,6.22.99.65,2.15,1,3.33,1,3.7.54,7.48.35,11.11-.56,3.65-.93,6.78-3.29,8.66-6.55,1.81-3.39,1.32-7.56-1.22-10.44"/>
    <path class="st12" d="M4267.41,2856.97h-268.44c-7.91,0-14.33-6.41-14.33-14.33h0c0-7.91,6.41-14.33,14.33-14.33h268.44c7.91,0,14.33,6.41,14.33,14.33h0c0,7.91-6.41,14.33-14.33,14.33h0Z"/>
    <path class="st12" d="M4258.19,2832.09h-250.45v-19.77c.25-69.02,56.37-124.8,125.39-124.61h0c69.07,0,125.06,55.99,125.06,125.06h0v19.33Z"/>
    <rect class="st12" x="4110.58" y="2687.27" width="38.32" height="150.38"/>
    <path class="st4" d="M4109.81,2829.65c-2.92-23.54-3.89-47.27-2.89-70.97-1-23.7-.04-47.43,2.89-70.97,2.86,23.54,3.82,47.27,2.89,70.97.93,23.7-.03,47.43-2.89,70.97Z"/>
    <path class="st4" d="M4148.35,2829.65c-2.92-23.54-3.89-47.27-2.89-70.97-1-23.7-.04-47.43,2.89-70.97,2.86,23.54,3.82,47.27,2.89,70.97.93,23.7-.03,47.43-2.89,70.97Z"/>
    <path class="st4" d="M4262.52,2827.99c0,1.67-57.31,2.89-128.06,2.89s-128.17-1.22-128.17-2.89,57.31-2.89,128.17-2.89,128.06,1.33,128.06,2.89Z"/>
    <g class="st10">
      <path d="M4149.12,2686.93v141.94l19.1-136.61-19.1-5.33Z"/>
    </g>
    <g class="st9">
      <path class="st6" d="M4093.37,2710.59c-5.34,3.44-10.91,6.52-16.66,9.22-12.84,7.7-24.13,17.72-33.32,29.54-9.22,11.9-16.11,25.42-20.32,39.87-1.18,6.22-2.81,12.35-4.89,18.33-1.2-6.42-.89-13.04.89-19.33,6.71-31.33,27.37-57.87,56.09-72.08,5.57-3.21,11.8-5.11,18.21-5.55Z"/>
    </g>
    <path class="st4" d="M4111.58,2963.7c1,1.22-5,8.33-14.77,14.22-9.77,5.89-18.88,7.89-19.44,6.33-.56-1.55,7.33-5.66,16.44-11.11s16.66-10.66,17.77-9.44Z"/>
    <path class="st4" d="M4511.97,4030.58c0,1.56-147.83,2.89-330.3,2.89s-330.3-1.33-330.3-2.89,147.83-2.89,330.3-2.89,330.3,1.22,330.3,2.89Z"/>
    <path class="st4" d="M4506.3,4380.1c0,1.56-147.94,2.89-330.3,2.89s-330.3-1.33-330.3-2.89,147.83-3,330.3-3,330.3,1.33,330.3,3Z"/>
    <path class="st12" d="M4279.4,2887.63c1.56,0,3.44,7.11,2,15.99-1.44,8.89-5.22,15.33-6.66,14.66s0-7.33,1-15.55,2-15.1,3.67-15.1Z"/>
    <polygon class="st4" points="3687.77 3469.6 3741.63 3696.5 4072.82 3689.28 4023.84 3463.05 3687.77 3469.6"/>
    <path class="st2" d="M3953.1,3556.89h89.52v-32.54s64.97,0,81.3,51.42v78.19h-62.2c-36.9,0-67.63-28.31-70.64-65.08h0s-46.09-4.89-37.98-31.99Z"/>
    <path class="st11" d="M4570.94,3524.91l-101.18-207.24-127.72,90.07,43.2,98.4-284.88,27.1v130.39c5.33,1.33,214.46.89,353.29,0,67.13-.49,121.28-55.04,121.28-122.17h0c-.13-5.74-1.49-11.38-4-16.55Z"/>
    <path class="st4" d="M4413.45,3662.96c0,1.56-70.08,2.89-156.49,2.89s-156.6-1.33-156.6-2.89,70.08-2.89,156.6-2.89,156.49,1.33,156.49,2.89Z"/>
    <path class="st4" d="M4385.36,3506.14c-3.61,1.15-7.33,1.9-11.11,2.22-7.11,1.11-17.44,2.44-30.21,4-25.54,3.22-60.86,7.22-99.96,11.11-39.09,3.89-74.41,7.33-99.96,9.44-12.88,1.11-23.21,1.89-30.43,2.22-3.68.57-7.43.57-11.11,0,3.61-1.16,7.33-1.9,11.11-2.22,7.11-1.11,17.44-2.44,30.21-4,25.54-3.22,60.86-7.22,99.96-11.11,39.09-3.89,74.41-7.33,99.96-9.44,12.88-1.11,23.21-1.89,30.43-2.22,3.68-.56,7.43-.56,11.11,0Z"/>
    <path class="st4" d="M4427.78,3560.45c-8.26-8.66-15.69-18.07-22.21-28.1-8.04-8.9-15.29-18.49-21.66-28.65,10.56,6.22,19.54,14.81,26.21,25.1,8.16,9.11,14.19,19.92,17.66,31.65Z"/>
    <path class="st4" d="M4446.77,3529.02c-1.11,1.33-12.88-8-29.65-14.88-16.77-6.89-31.43-8.77-31.32-11.11,11.38-1.86,23.06-.03,33.32,5.22,11.27,3.66,21,10.97,27.66,20.77Z"/>
    <circle class="st11" cx="3860.03" cy="3539.24" r="10.11"/>
    <rect class="st12" x="4216.32" y="3369.86" width="95.18" height="24.99"/>
    <path class="st4" d="M3592.25,3355.2c7.05-14.02,15.86-27.08,26.21-38.87,8.75-13.04,19.08-24.94,30.76-35.43-7.1,13.99-15.9,27.05-26.21,38.87-8.83,12.98-19.15,24.87-30.76,35.43Z"/>
    <path class="st4" d="M3587.7,3316.33c16.89-19.48,39.46-33.19,64.53-39.21-10.3,7.23-21.1,13.73-32.32,19.44-10.25,7.35-21.01,13.96-32.21,19.77Z"/>
  </g>
  <g id="freepik--character-1--inject-94">
    <path class="st3" d="M1812.35,3433.95c3.02,7.91,7.09,15.39,12.11,22.21,3.81,5.74,8.58,10.77,14.11,14.88,8.26,6.12,16.86,11.76,25.77,16.88,0,0,247.23,13.44,288.76,7.44,41.54-6,153.6-140.5,153.6-140.5l91.18,103.18c-53.48,62.37-116.67,115.7-187.14,157.93-70.19,40.54-377.62-32.32-377.62-32.32-26.89,2.15-53.88,2.89-80.85,2.22-37.65-2.55-37.54-6-36.43-10.33,2.78-11.66,66.64,2,54.53-8.88-12.11-10.88-79.85-7.66-76.41-19.66,4.44-15.77,70.86,0,76.63.67s7.22-7.33,2-7.89c-7.55-.78-85.85-11.11-81.63-26.21,2.33-8.66,17.33-2.89,17.33-2.89,0,0,72.75,14.77,74.52,7.33,1.78-7.44-40.65-17.55-55.53-19.99-14.88-2.44-18.99-10.11-12.66-15.66,4.33-3.66,48.98,2.55,63.31,5.33,14.33,2.78,53.42,11.11,37.32-8.88-16.1-19.99-20.88-40.87-18.21-47.54,1.75-4.06,6.45-5.93,10.51-4.19,2.77,1.19,4.63,3.84,4.82,6.85Z"/>
    <path class="st4" d="M2487.06,2900.29c-15.33-3.78-12.88-45.87-14.44-58.75-1.73-7.76-1.19-15.86,1.55-23.32,5.31-8.93,14.63-14.73,24.99-15.55,10.11-1.55,20.55,0,30.65-2,20.32-3,38.54-15.55,59.09-17.44,17.01-1.39,33.77,4.74,45.87,16.77,6.06,7.98,13.15,15.12,21.1,21.21,8.16,3.5,16.69,6.03,25.43,7.55,21.52,6.81,37.21,25.39,40.32,47.76.59,13.06-.38,26.15-2.89,38.98-2.39,12.95-.48,26.33,5.44,38.09,7.11,11.11,20.44,18.33,26.99,30.21,5.75,10.81,5.11,23.9-1.67,34.1-7.11,10.01-19.14,15.3-31.32,13.77-3.89-.56-8.22-1.67-11.11.78-2.13,2.57-3.34,5.77-3.44,9.11-2.45,13.4-15.31,22.28-28.71,19.82-13.4-2.45-22.28-15.31-19.82-28.71"/>
    <path class="st3" d="M2664.43,3170.06l-134.16-11.11c-.78-15.66,0-76.3,0-76.3,0,0-55.53-8.66-56.53-64.42-1-55.75,9-183.92,9-183.92h0c64.58-27.75,139.13-18.36,194.81,24.55l8.33,6.33-21.44,304.87Z"/>
    <path class="st4" d="M2499.28,2930.83c3.26-3.07,3.42-8.2.35-11.46-3.07-3.26-8.2-3.42-11.46-.35-3.26,3.07-3.42,8.2-.35,11.46.11.12.23.24.35.35,3.12,2.93,7.99,2.93,11.11,0Z"/>
    <path class="st4" d="M2482.39,2917.95c.89.89,6.33-3.33,13.99-3.33s13.33,3.89,14.11,3,0-2.22-2.89-4.11c-6.61-4.85-15.6-4.85-22.21,0-2.55,2.22-3.44,4-3,4.44Z"/>
    <path class="st4" d="M2570.69,2926.05c-3.79,2.27-5.02,7.18-2.75,10.97.03.05.06.09.08.14,2,4.01,6.86,5.64,10.87,3.64,4.01-2,5.64-6.86,3.64-10.87-.21-.43-.46-.83-.74-1.21-2.27-3.79-7.18-5.02-10.97-2.75-.05.03-.09.06-.14.08Z"/>
    <path class="st4" d="M2565.8,2924.72c.89.89,6.44-3.33,14.11-3.33s13.22,3.89,14.11,3,0-2.22-2.89-4.11c-3.26-2.27-7.13-3.51-11.11-3.55-4.02.08-7.91,1.44-11.11,3.89-2.67,1.89-3.44,3.67-3.11,4.11Z"/>
    <path class="st4" d="M2535.04,2987.58c-3.97-1.54-8.18-2.4-12.44-2.55-2,0-3.55-.67-3.67-1.78-.14-2.01.33-4.02,1.33-5.78l6.11-15.66c5.77-13.18,10.2-26.91,13.22-40.98-7.15,12.53-12.96,25.79-17.33,39.54-2,5.33-3.89,10.55-5.66,15.66-1.34,2.56-1.74,5.51-1.11,8.33.57,1.56,1.85,2.76,3.44,3.22,1.14.2,2.3.2,3.44,0,4.18.81,8.48.81,12.66,0Z"/>
    <path class="st5" d="M2530.6,3082.32c25.76.49,51.09-6.7,72.75-20.66,0,0-17.21,40.09-72.86,35.1l.11-14.44Z"/>
    <path class="st3" d="M2679.87,2932.05c1,0,32.1-6.77,31.88,30.54-.22,37.32-37.87,24.77-37.87,23.77s6-54.31,6-54.31Z"/>
    <path class="st5" d="M2685.31,2972.7s.67,0,1.78,1c1.57.63,3.32.63,4.89,0,4.95-3.09,7.83-8.61,7.55-14.44.11-3.2-.5-6.39-1.78-9.33-.71-2.36-2.54-4.23-4.89-5-1.55-.34-3.13.38-3.89,1.78v1.89c0,.11-.78-.67,0-2.22.18-.93.7-1.76,1.44-2.33,1.05-.77,2.37-1.09,3.67-.89,3.07.65,5.58,2.83,6.66,5.78,1.6,3.24,2.37,6.83,2.22,10.44.39,6.81-3.39,13.18-9.55,16.1-2.05.58-4.25.22-6-1-2-.89-2.22-1.67-2.11-1.78Z"/>
    <path class="st4" d="M2483.39,2832.09c12.34,19.24,33.68,30.81,56.53,30.65,22.5-.4,44.8-4.34,66.08-11.66,11.77-3.22,25.99-5.66,34.65,2.89,4.47,5.56,7.04,12.41,7.33,19.55,2,15.66,2.22,31.49.67,47.2-1.17,6.2-1.17,12.57,0,18.77,1.27,6.35,6.29,11.29,12.66,12.44,9.77.89,21.44-14.99,24.77-24.32,3.23-11.32,5.02-23,5.33-34.76,2.07-13.65-.47-27.6-7.22-39.65-9.16-12.58-21.72-22.29-36.21-27.99-27.56-14.17-57.88-22.17-88.85-23.43-31.4-.91-61.87,10.68-84.74,32.21"/>
    <path class="st12" d="M3059.04,5284.49l-17.55-72.41,135.61-33.32,26.1,105.73-8.22,2.55c-36.87,11.11-188.81,54.09-215.24,52.64-29.54-1.22,79.3-55.2,79.3-55.2Z"/>
    <g class="st8">
      <path d="M3154.22,5295.81c-.78-12,2.89-23.87,10.33-33.32,7.22-9.33,17.69-15.6,29.32-17.55l9.22,37.87-48.87,12.99Z"/>
    </g>
    <g class="st8">
      <path d="M3006.39,5312.81s-37.54,21.55-30.88,26.88c6.66,5.33,161.38-32.21,228.12-54.75l-.89-3-180.14,45.42s-8.33-16.1-16.22-14.55Z"/>
    </g>
    <path class="st4" d="M3204.86,5281.38l-2.33.78-6.55,2.11-24.43,7c-20.55,5.78-49.2,13.44-80.97,21.21-31.76,7.77-60.2,14.1-81.63,18.55l-24.88,5-6.77,1.22c-.81.15-1.64.15-2.44,0l2.33-.67,6.77-1.56,24.77-5.44c20.88-4.66,49.76-11.11,81.52-18.99,31.76-7.89,60.31-15.22,81.08-20.66l24.43-6.55,6.66-1.78,2.44-.22Z"/>
    <path class="st4" d="M3023.16,5329.47c-2.13-3.75-4.62-7.29-7.44-10.55-3.35-2.97-7.09-5.47-11.11-7.44,9.17,1.72,16.38,8.84,18.21,17.99h.33Z"/>
    <path class="st4" d="M3058.15,5299.48s-2.78-1.56-5.44-4.11-4.78-5.11-4.44-5.44,2.78,1.56,5.55,4.22,4.66,5,4.33,5.33Z"/>
    <path class="st4" d="M3067.81,5291.04c-1.98-.22-3.89-.9-5.55-2-2.89-1.56-5-3.11-4.78-3.55s2.67,0,5.55,2,5,3.11,4.78,3.55Z"/>
    <path class="st4" d="M3071.59,5276.49c-2.07,1.39-4.42,2.3-6.89,2.67-2.3.87-4.77,1.21-7.22,1,2.05-1.42,4.41-2.33,6.89-2.67,2.3-.87,4.77-1.21,7.22-1Z"/>
    <path class="st4" d="M3071.81,5266.94c-1.98,2.09-4.53,3.55-7.33,4.22-2.66,1.13-5.6,1.44-8.44.89,2.55-1.07,5.19-1.92,7.89-2.55,2.54-1.11,5.18-1.96,7.89-2.55Z"/>
    <path class="st4" d="M3050.71,5288.82c-2.77,1.1-5.69,1.78-8.66,2-3.25.29-6.52.29-9.77,0-1.99-.09-3.96-.39-5.89-.89-1.19-.32-2.2-1.13-2.78-2.22-.72-1.15-.72-2.62,0-3.78,6.07-4.99,14.81-4.99,20.88,0,1.75,1.38,3.19,3.13,4.22,5.11.44.71.74,1.51.89,2.33-1.53-2.47-3.48-4.65-5.78-6.44-2.55-1.8-5.55-2.88-8.66-3.11-3.7-.31-7.37.85-10.22,3.22-1.11,1.44,0,2.89,1.56,3.44,1.78.47,3.6.76,5.44.89,3.18.21,6.37.21,9.55,0,5.89-.11,9.22-.89,9.22-.56Z"/>
    <path class="st4" d="M3048.6,5289.71s-2-1.78-2.55-5.78c-.23-2.33.08-4.69.89-6.89,1.11-2.33,2.44-5.44,6.22-6.22,1.9,0,3.49,1.44,3.66,3.33.07,1.43-.12,2.86-.56,4.22-.7,2.22-1.67,4.35-2.89,6.33-1,1.88-2.4,3.51-4.11,4.78,0,0,1.33-2,3.11-5.33.98-1.95,1.77-4,2.33-6.11.78-2.22.78-5.66-1.44-5.55s-4,3-4.89,5.11c-.81,1.97-1.19,4.09-1.11,6.22.21,2.01.66,3.98,1.33,5.89Z"/>
    <path class="st4" d="M3193.09,5244.95s-4,.56-10,2.78c-15.9,5.72-27.04,20.15-28.54,36.98-.2,3.4-.2,6.81,0,10.22,0,0,0-.89-.67-2.67-.31-2.54-.31-5.12,0-7.66.54-8.54,3.59-16.73,8.77-23.55,5.28-6.78,12.48-11.81,20.66-14.44,2.42-.79,4.91-1.34,7.44-1.67h2.33Z"/>
    <path class="st4" d="M3165.32,5191.97c3.17,9.02,5.8,18.21,7.89,27.54,2.68,9.19,4.8,18.54,6.33,27.99-3.18-9.02-5.85-18.22-8-27.54-2.62-9.2-4.69-18.55-6.22-27.99Z"/>
    <path class="st4" d="M3134,5286.6c-12.47,5.67-25.87,9.06-39.54,10,0,0,8.88-2.11,19.77-4.89,10.88-2.78,19.55-5.11,19.77-5.11Z"/>
    <path class="st4" d="M3160.55,5280.27s0,2-.67,4.22,0,4.22-1,4.33-1.22-2-.67-4.55c.56-2.55,2-4.33,2.33-4Z"/>
    <path class="st4" d="M3167.54,5265.38s0,1.78-1.22,3.55c-1.22,1.78-2.22,3-2.67,2.78s0-1.89,1.22-3.66c1.22-1.78,2.22-3,2.67-2.67Z"/>
    <path class="st4" d="M3180.43,5256.16s-1.78.89-3.55,2.11-3,2.55-3.44,2.33,0-2.33,2.55-3.78,4.55-1.11,4.44-.67Z"/>
    <path class="st4" d="M3189.98,5250.94s0,1.33-1.33,2-2,1-2.33.67,0-1.33,1.33-2,2.11-1,2.33-.67Z"/>
    <path class="st12" d="M2478.62,5294.37v-74.52l139.5-1.67,1.78,108.95-8.55.67c-38.54,2.55-195.8,11.11-222.13,3-28.77-8.33,89.41-36.43,89.41-36.43Z"/>
    <g class="st8">
      <path d="M2568.91,5326.69c1.86-11.82,8.08-22.52,17.44-29.99,9.04-7.64,20.61-11.6,32.43-11.11l.56,38.98-50.42,2.11Z"/>
    </g>
    <g class="st8">
      <path d="M2420.98,5310.14s-41.43,12.55-36.21,19.32,164.6,4.66,234.68-2.33v-3.11l-185.7,3.89s-4.66-17.55-12.77-17.77Z"/>
    </g>
    <path class="st4" d="M2621.45,5323.91h-9.33l-25.32,1.44c-21.44,1-50.98,2.11-83.63,2.55-32.65.44-62.42,0-83.74,0l-25.43-.78h-9.22,118.39c32.65,0,62.31-1.22,83.74-2l25.32-.89h6.89l2.33-.33Z"/>
    <path class="st4" d="M2433.53,5330.13c-1.13-4.18-2.78-8.21-4.89-11.99-2.63-3.48-5.69-6.61-9.11-9.33,4.37,1.51,8.01,4.6,10.22,8.66,2.73,3.63,4.07,8.13,3.78,12.66Z"/>
    <path class="st4" d="M2474.4,5308.81s-2.33-2.11-4.44-5.22c-2.11-3.11-3.44-6-3-6.22s2.33,2.11,4.44,5.22c2.11,3.11,3.67,6.22,3,6.22Z"/>
    <path class="st4" d="M2486.17,5302.59s-2.44-1.11-4.89-3.22c-2.44-2.11-4.22-4.11-3.89-4.44s2.55,1.11,5,3.22,3.78,4.11,3.78,4.44Z"/>
    <path class="st4" d="M2492.61,5289.37c-2.31.85-4.77,1.19-7.22,1-2.46.33-4.97.11-7.33-.67,2.31-.85,4.77-1.19,7.22-1,2.46-.33,4.97-.11,7.33.67Z"/>
    <path class="st4" d="M2494.94,5280.04c-2.36,1.69-5.21,2.55-8.11,2.44-2.81.54-5.72.19-8.33-1,2.72-.44,5.47-.66,8.22-.67,2.71-.48,5.46-.74,8.22-.78Z"/>
    <path class="st4" d="M2469.51,5296.59c-2.94.54-5.95.54-8.89,0-3.28-.37-6.51-1.04-9.66-2-1.89-.54-3.72-1.28-5.44-2.22-1.09-.58-1.9-1.58-2.22-2.78-.31-1.34.22-2.74,1.33-3.55,6.99-3.56,15.52-1.65,20.32,4.55,1.44,1.75,2.46,3.8,3,6,.15.77.15,1.56,0,2.33-.98-2.73-2.41-5.28-4.22-7.55-2.07-2.33-4.77-4.03-7.77-4.89-3.66-1.28-7.69-.96-11.11.89-1.33,1-.78,2.67.78,3.66,1.65.84,3.35,1.54,5.11,2.11,3.01.98,6.09,1.72,9.22,2.22,6.22,1,9.55,1,9.55,1.22Z"/>
    <path class="st4" d="M2467.18,5297.04c-1.1-1.83-1.5-4-1.11-6.11.27-2.39,1.1-4.67,2.44-6.66,1.48-2.71,4.25-4.47,7.33-4.66,1.9.39,3.16,2.19,2.89,4.11-.26,1.44-.75,2.82-1.44,4.11-1.22,1.95-2.63,3.78-4.22,5.44-2.78,2.78-5,3.89-5.11,3.66s1.78-1.67,4.22-4.44c1.41-1.68,2.64-3.5,3.67-5.44,1.22-1.89,2-5.33,0-5.78s-4.55,2.11-5.89,3.89c-1.2,1.78-2.03,3.78-2.44,5.89-.28,1.99-.39,3.99-.33,6Z"/>
    <path class="st4" d="M2618.11,5285.82c-3.44-.18-6.89-.18-10.33,0-16.69,2.19-30.71,13.63-36.21,29.54-2,6.11-2.22,10.11-2.44,10-.19-.92-.19-1.86,0-2.78.22-2.56.71-5.09,1.44-7.55,4.91-16.87,19.7-28.97,37.21-30.43,2.55-.24,5.11-.24,7.66,0,.96.22,1.87.63,2.67,1.22Z"/>
    <path class="st4" d="M2602.9,5227.95c1.03,9.48,1.55,19.01,1.55,28.54.57,9.58.57,19.19,0,28.77-1.59-19.06-2.07-38.19-1.44-57.31h-.11Z"/>
    <path class="st4" d="M2551.14,5313.25c-6.64,1.69-13.48,2.47-20.32,2.33-6.85.4-13.71-.09-20.44-1.44h20.44c11.22,0,20.32-1.33,20.32-.89Z"/>
    <path class="st4" d="M2578.46,5312.92s-.67,1.89-1.55,4c-.89,2.11-1.44,4-1.89,4s-.78-2.22,0-4.66,3.22-3.66,3.44-3.33Z"/>
    <path class="st4" d="M2588.68,5299.92s0,1.78-2,3.22c-2,1.44-2.89,2.44-3.22,2.11s.56-1.78,2-3.22,2.89-2.44,3.22-2.11Z"/>
    <path class="st4" d="M2603.34,5293.93s-2,0-4,1.22-3.55,1.78-3.89,1.56.78-2.33,3.33-3.22,4.66,0,4.55.44Z"/>
    <path class="st4" d="M2613.78,5291.04s-.67,1.11-1.78,1.56-2.22,0-2.44,0,.67-1.22,1.78-1.67,2.22-.33,2.44.11Z"/>
    <polyline class="st4" points="2383.55 3815.45 2448.63 5262.27 2665.87 5266.83 2629.78 4055.57 3023.38 5281.26 3200.97 5232.62 2804.81 3815.45"/>
    <path class="st11" d="M3179.21,5198.86c1.11,0,2.78,2,3.78,5.22s.89,6.11,0,6.44-2.89-2-3.78-5.22-1.11-6.11,0-6.44Z"/>
    <path class="st11" d="M3165.1,5151.88c1.11,0,3.66,4.66,5.55,11.11,1.89,6.44,2.67,12.11,1.56,12.44s-3.66-4.66-5.55-11.11-3-12.11-1.56-12.44Z"/>
    <path class="st11" d="M3151.11,5104.9c1.11,0,3.55,4.66,5.44,11.11,1.89,6.44,2.67,12.11,1.56,12.44s-3.55-4.66-5.55-11.11c-2-6.44-2.55-12.11-1.44-12.44Z"/>
    <path class="st11" d="M3137,5057.92c1.11,0,3.55,4.66,5.55,11.11,2,6.44,2.55,12.11,1.44,12.44s-3.55-4.66-5.55-11.11c-2-6.44-2.55-12.11-1.44-12.44Z"/>
    <path class="st11" d="M3122.9,5010.94c1.11,0,3.55,4.66,5.55,11.11s2.55,12.11,1.44,12.44-3.55-4.66-5.55-11.11c-2-6.44-2.55-12.11-1.44-12.44Z"/>
    <path class="st11" d="M3108.79,4964.51c1.11,0,3.55,4.66,5.55,11.11,2,6.44,2.55,12.11,1.44,12.44s-3.55-4.66-5.44-11.11c-1.89-6.44-2.22-12.44-1.56-12.44Z"/>
    <path class="st11" d="M3094.69,4916.98c1.11,0,3.66,4.66,5.55,11.11s2.67,12.11,1.56,12.44-3.66-4.66-5.55-11.11c-1.89-6.44-2.67-12.11-1.56-12.44Z"/>
    <path class="st11" d="M3080.58,4870c1.11,0,3.66,4.66,5.55,11.11,1.89,6.44,2.67,12.11,1.56,12.44s-3.66-4.66-5.55-11.11c-1.89-6.44-2.67-12.11-1.56-12.44Z"/>
    <path class="st11" d="M3066.48,4823.02c1.11,0,3.66,4.66,5.55,11.11,1.89,6.44,2.67,12.11,1.56,12.44s-3.66-4.66-5.55-11.11c-1.89-6.44-2.67-12.11-1.56-12.44Z"/>
    <path class="st11" d="M3052.59,4775.7c1.11,0,3.55,4.66,5.44,11.11,1.89,6.44,2.67,12.11,1.56,12.44s-3.55-4.66-5.55-11.11c-2-6.44-2.67-11.77-1.44-12.44Z"/>
    <path class="st11" d="M3038.38,4729.06c1.11,0,3.55,4.66,5.55,11.11,2,6.44,2.55,12.11,1.44,12.44s-3.55-4.66-5.55-11.11-2.55-12.11-1.44-12.44Z"/>
    <path class="st11" d="M3024.27,4682.08c1.11,0,3.55,4.66,5.55,11.11,2,6.44,2.55,12.11,1.44,12.44s-3.55-4.66-5.55-11.11c-2-6.44-2.55-12.11-1.44-12.44Z"/>
    <path class="st11" d="M3010.17,4635.1c1.11,0,3.55,4.66,5.55,11.11,2,6.44,2.67,12.11,1.44,12.44s-3.55-4.66-5.44-11.11-2.67-12.11-1.56-12.44Z"/>
    <path class="st11" d="M2996.06,4588.12c1.11,0,3.66,4.66,5.55,11.11s2.67,12.11,1.56,12.44-3.66-4.66-5.55-11.11c-1.89-6.44-2.67-12.11-1.56-12.44Z"/>
    <path class="st11" d="M2981.96,4541.14c1.11,0,3.66,4.66,5.55,11.11s2.67,12.11,1.56,12.44-3.66-4.66-5.55-11.11-2.67-12.11-1.56-12.44Z"/>
    <path class="st11" d="M2967.96,4494.16c1.11,0,3.55,4.66,5.44,11.11,1.89,6.44,2.67,12.11,1.56,12.44s-3.55-4.66-5.55-11.11c-2-6.44-2.67-12.11-1.44-12.44Z"/>
    <path class="st11" d="M2953.86,4447.18c1.11,0,3.55,4.66,5.55,11.11,2,6.44,2.55,12.11,1.44,12.44s-3.55-4.66-5.55-11.11c-2-6.44-2.67-12.11-1.44-12.44Z"/>
    <path class="st11" d="M2939.75,4400.2c1.11,0,3.55,4.66,5.55,11.11,2,6.44,2.55,12.11,1.44,12.44s-3.55-4.66-5.55-11.11c-2-6.44-2.55-12.11-1.44-12.44Z"/>
    <path class="st11" d="M2925.65,4353.66c1.11,0,3.55,4.66,5.55,11.11,2,6.44,2.55,12.11,1.44,12.44s-3.55-4.66-5.55-11.11c-2-6.44-2.55-12.44-1.44-12.44Z"/>
    <path class="st11" d="M2911.54,4306.24c1.11,0,3.55,4.66,5.55,11.11,2,6.44,2.67,12.11,1.56,12.44s-3.66-4.66-5.55-11.11c-1.89-6.44-2.67-12.11-1.56-12.44Z"/>
    <path class="st11" d="M2897.11,4259.26c1.11,0,3.66,4.66,5.55,11.11,1.89,6.44,2.67,12.11,1.56,12.44s-3.66-4.66-5.55-11.11c-1.89-6.44-2.33-12.11-1.56-12.44Z"/>
    <path class="st11" d="M2883.33,4212.28c1.11,0,3.66,4.66,5.55,11.11,1.89,6.44,2.67,12.11,1.56,12.44s-3.66-4.66-5.55-11.11c-1.89-6.44-2.67-12.11-1.56-12.44Z"/>
    <path class="st11" d="M2869.34,4164.86c1.11,0,3.55,4.66,5.44,11.11,1.89,6.44,2.67,12.11,1.56,12.44s-3.55-4.66-5.55-11.11c-2-6.44-2.67-11.66-1.44-12.44Z"/>
    <path class="st11" d="M2855.23,4118.32c1.11,0,3.55,4.66,5.55,11.11,2,6.44,2.55,12.11,1.44,12.44s-3.55-4.66-5.55-11.11c-2-6.44-2.55-12.11-1.44-12.44Z"/>
    <path class="st11" d="M2841.57,4071.34c1.11,0,3.55,4.66,5.55,11.11,2,6.44,2.55,12.11,1.44,12.44s-3.55-4.66-5.55-11.11c-2-6.44-3-12.11-1.44-12.44Z"/>
    <path class="st11" d="M2827.02,4024.36c1.11,0,3.55,4.66,5.55,11.11s2.55,12.11,1.44,12.44c-1.11.33-3.55-4.66-5.44-11.11-1.89-6.44-2.67-12.11-1.56-12.44Z"/>
    <path class="st11" d="M2812.92,3977.38c1.11,0,3.66,4.66,5.55,11.11s2.67,12.11,1.56,12.44-3.66-4.66-5.55-11.11c-1.89-6.44-2.67-12.11-1.56-12.44Z"/>
    <path class="st11" d="M2798.81,3930.4c1.11,0,3.66,4.66,5.55,11.11,1.89,6.44,2.67,12.11,1.56,12.44s-3.66-4.66-5.55-11.11c-1.89-6.44-2.67-12.11-1.56-12.44Z"/>
    <path class="st11" d="M2784.71,3883.42c1.11,0,3.67,4.66,5.55,11.11,1.89,6.44,2.67,12.11,1.55,12.44s-3.67-4.66-5.55-11.11c-1.89-6.44-2.67-12.11-1.55-12.44Z"/>
    <path class="st11" d="M2774.27,3848.32c1.11,0,2.78,2,3.67,5.22s.89,6.11,0,6.44-2.78-2-3.78-5.22-1-6.11.11-6.44Z"/>
    <path class="st11" d="M2628.44,5254.94c1.11,0,2.22,2.67,2.33,6,.11,3.33-.56,6.11-1.78,6.22s-2.22-2.67-2.33-6,.56-6.11,1.78-6.22Z"/>
    <path class="st11" d="M2626.44,5206.74c1.11,0,2.33,5.33,2.55,11.99.22,6.66-.56,12.11-1.67,12.11s-2.33-5.22-2.55-11.88c-.22-6.66.44-12.11,1.67-12.22Z"/>
    <path class="st11" d="M2624.89,5158.54c1.22,0,2.33,5.33,2.44,11.99s-.56,12.11-1.67,12.11-2.33-5.33-2.55-11.99.67-11.99,1.78-12.11Z"/>
    <path class="st11" d="M2623.67,5110.34c1.22,0,2.22,5.33,2.44,11.99.22,6.66-.67,12.11-1.78,12.11s-2.33-5.33-2.44-11.99.67-12.11,1.78-12.11Z"/>
    <path class="st11" d="M2622.56,5062.14c1.11,0,2.22,5.33,2.44,11.99.22,6.66-.67,12.11-1.89,12.11s-2.22-5.33-2.33-11.99c-.11-6.66.56-12.11,1.78-12.11Z"/>
    <path class="st11" d="M2621.33,5013.82c1.11,0,2.22,5.33,2.44,11.99s-.67,12.11-1.78,12.11-2.33-5.33-2.44-11.99.56-12.11,1.78-12.11Z"/>
    <path class="st11" d="M2619.45,4965.62c1.22,0,2.33,5.33,2.55,11.99.22,6.66,0,12.11-1.67,12.11s-2.33-5.33-2.55-11.99.78-12.11,1.67-12.11Z"/>
    <path class="st11" d="M2617.67,4917.42c1.22,0,2.33,5.33,2.67,11.99.33,6.66,0,11.99-1.67,12.11s-2.33-5.33-2.55-11.99.44-12.11,1.55-12.11Z"/>
    <path class="st11" d="M2615.78,4869.22c1.22,0,2.33,5.33,2.55,11.99.22,6.66,0,11.99-1.67,12.11s-2.22-5.33-2.55-11.99c-.33-6.66.56-12.11,1.67-12.11Z"/>
    <path class="st11" d="M2614.12,4821.02c1.11,0,2.33,5.33,2.55,11.99.22,6.66-.56,11.99-1.78,12.11s-2.22-5.33-2.44-11.99c-.22-6.66.56-12.11,1.67-12.11Z"/>
    <path class="st11" d="M2612.67,4772.71c1.11,0,2.22,5.33,2.44,11.99.22,6.66-.56,12.11-1.78,12.11s-2.22-5.33-2.44-11.99c-.22-6.66.56-12,1.78-12.11Z"/>
    <path class="st11" d="M2611.34,4724.5c1.22,0,2.33,5.33,2.44,11.99.11,6.66-.67,12.11-1.78,12.11s-2.22-5.33-2.44-11.99c-.22-6.66.67-12.11,1.78-12.11Z"/>
    <path class="st11" d="M2610.34,4676.3c1.11,0,2.22,5.33,2.33,11.99s-.67,12.11-1.89,12.11-2.22-5.33-2.33-11.99c-.11-6.66.78-12.11,1.89-12.11Z"/>
    <path class="st11" d="M2609.56,4627.99c1.11,0,2.11,5.44,2.22,12.11s-.67,11.99-1.89,12.11-2.22-5.44-2.33-12.11.78-12,2-12.11Z"/>
    <path class="st11" d="M2608.9,4579.79c1.22,0,2.22,5.44,2.33,11.99s-.89,12.11-2,12.11-2.22-5.33-2.22-11.99,1.33-12.11,1.89-12.11Z"/>
    <path class="st11" d="M2608.34,4531.36c1.22,0,2.22,5.33,2.22,11.99s-.89,12.11-2,12.11-2.22-5.44-2.22-12.11,1.11-11.99,2-11.99Z"/>
    <path class="st11" d="M2608.34,4483.27c1.22,0,2.11,5.44,2.11,12.11s-.89,12.11-2,12.11-2.11-5.44-2.11-12.11,1-12.11,2-12.11Z"/>
    <path class="st11" d="M2608.34,4435.07c1.11,0,2,5.44,2,12.11s-1,11.99-2.11,11.99-2.11-5.33-2.11-11.99,1.33-12.11,2.22-12.11Z"/>
    <path class="st11" d="M2609.01,4386.98c1.22,0,2.11,5.33,2,11.99-.11,6.66-1,12.11-2.22,12.11s-2-5.44-2-12.11,1.55-11.99,2.22-11.99Z"/>
    <path class="st11" d="M2609.67,4338.56c1.11,0,2,5.44,1.89,12.11-.11,6.66-1.11,12.11-2.22,12.11s-2.11-5.44-2-12.11c.11-6.66,1-12.11,2.33-12.11Z"/>
    <path class="st11" d="M2610.45,4290.36c1.22,0,2,5.44,1.89,12.11-.11,6.66-1.11,12.11-2.33,11.99s-2-5.44-1.89-12.11c.11-6.66,1.22-11.99,2.33-11.99Z"/>
    <path class="st11" d="M2611.56,4242.6c1.22,0,2,5.44,1.89,12.11-.11,6.66-1.33,11.99-2.44,11.99s-2-5.44-1.78-12.11,1.22-11.99,2.33-11.99Z"/>
    <path class="st11" d="M2613.34,4193.84c1.11,0,1.89,5.55,1.55,12.11-.33,6.55-1.44,12.11-2.55,11.99s-1.89-5.44-1.67-12.11c.22-6.66,1.44-11.99,2.67-11.99Z"/>
    <path class="st11" d="M2616.11,4145.64c1.11,0,1.78,5.55,1.33,12.22-.44,6.66-1.78,11.99-2.89,11.88s-1.78-5.55-1.33-12.22c.44-6.66,1.67-11.99,2.89-11.88Z"/>
    <path class="st11" d="M2620.56,4098.22c1.11,0,1.55,5.55.78,12.22s-2.11,11.88-3.22,11.77-1.55-5.55-.89-12.22,2.22-12.55,3.33-11.77Z"/>
    <path class="st11" d="M2625.22,4061.79c1.11,0,1.67,3,1.22,6.33-.44,3.33-1.78,5.78-3,5.66s-1.67-3-1.22-6.33c.44-3.33,1.78-5.89,3-5.66Z"/>
    <path class="st11" d="M2593.57,3833.78c.86,2.85,1.34,5.8,1.44,8.77,0,5.78,1.33,13.99,2.11,24.32,1.67,20.44,3.67,48.65,5.55,79.97.89,15.55,1.78,30.43,2.55,44.43-.12,11.83,1.3,23.63,4.22,35.1,2.41,7.51,7.68,13.77,14.66,17.44,2.69,1.09,5.48,1.91,8.33,2.44h-2.33c-2.28.03-4.54-.39-6.66-1.22-7.83-3.37-13.91-9.85-16.77-17.88-3.43-11.69-5.22-23.8-5.33-35.98-.89-13.66-1.78-28.54-2.89-44.43-1.89-31.21-3.44-59.53-4.33-80.08,0-10.22-.67-18.55-.78-24.32-.21-2.85-.14-5.72.22-8.55Z"/>
    <path class="st11" d="M2615.89,3852.99c0,.56-1.78,2-2,5.33-.18,1.83.42,3.65,1.67,5,1.55,1.39,3.79,1.7,5.66.78,1.99-.66,3.39-2.46,3.55-4.55-.13-1.78-.92-3.44-2.22-4.66-2.55-2.33-5.11-1.89-5.22-2.44s2.67-2.44,6.89,0c2.5,1.5,4.15,4.09,4.44,7,.12,3.83-2.27,7.29-5.89,8.55-3.45,1.52-7.49.72-10.11-2-1.78-2.3-2.43-5.28-1.78-8.11,1.33-4.78,5-5.44,5-4.89Z"/>
    <path class="st11" d="M2820.25,3887.2c-5.38,3.67-11.54,6.03-17.99,6.89-31.94,6.36-64.41-8.16-80.97-36.21-3.72-5.39-6.08-11.6-6.89-18.1.67,0,2.89,6.89,9.44,16.44,8.23,12.51,19.76,22.5,33.32,28.88,13.97,6.05,29.35,8.13,44.43,6,11.66-1.44,18.44-3.89,18.66-3.89Z"/>
    <path class="st11" d="M2459.07,3833.78c1.06,5.2.79,10.59-.78,15.66-3,12.58-9.78,23.94-19.44,32.54-9.76,8.48-21.9,13.72-34.76,14.99-5.25.95-10.65.49-15.66-1.33,0-.67,6,0,15.22-1.67,24.52-3.91,44.64-21.52,51.76-45.31,2.78-9,3-14.88,3.67-14.88Z"/>
    <path class="st11" d="M2971.63,3358.65l-136.83-137.83h0c-26.33-27.46-58.69-48.41-94.51-61.2-19.04-6.74-39.01-10.49-59.2-11.11h0c-46.51,14.72-96.43,14.72-142.94,0-19.66,2.44-138.16,4.44-178.59,44.43h0l-122.17,224.79,131.28,91.85,40.32-76.86-6.44,143.83-21.66,255.11,423.93,4.44-5.44-230.46v-166.6l61.2,59.53,111.06-139.94Z"/>
    <path class="st12" d="M2724.96,2886.52h-268.44c-7.85.06-14.27-6.25-14.33-14.1,0-.07,0-.15,0-.22h0c0-7.91,6.41-14.33,14.33-14.33h268.44c7.91,0,14.33,6.41,14.33,14.33h0c0,7.91-6.41,14.33-14.33,14.33Z"/>
    <path class="st12" d="M2715.74,2861.64h-250.11v-19.77c0-69.07,55.99-125.06,125.06-125.06h0c69.07,0,125.06,55.99,125.06,125.06v19.77Z"/>
    <rect class="st12" x="2568.14" y="2716.81" width="38.32" height="150.38"/>
    <path class="st12" d="M2397.32,3157.84l-26.21,737.35,470.02-26.43-42.32-679.15s-76.3-50.31-117.17-41.32l-97.62,319.86-75.63-326.64-111.06,16.33Z"/>
    <polygon class="st6" points="2832.13 3699.5 2377.55 3697.61 2379.11 3655.07 2829.02 3658.96 2832.13 3699.5"/>
    <polygon class="st6" points="2836.13 3797.79 2373.77 3795.9 2375.33 3753.37 2833.36 3753.37 2836.13 3797.79"/>
    <path class="st3" d="M2873.45,3484.04l43.54,38.09-312.42-30.21-36.76,98.96,401.27,71.3c46.65,6.22,121.28-24.21,129.39-85.19h0c4.66-34.19-6.64-68.63-30.65-93.4l-111.62-105.73"/>
    <path class="st4" d="M2567.36,2859.19c-2.92-23.54-3.89-47.27-2.89-70.97-1-23.7-.04-47.43,2.89-70.97,2.86,23.54,3.82,47.27,2.89,70.97.93,23.7-.03,47.43-2.89,70.97Z"/>
    <path class="st4" d="M2605.9,2859.19c-2.92-23.54-3.89-47.27-2.89-70.97-1-23.7-.04-47.43,2.89-70.97,2.86,23.54,3.82,47.27,2.89,70.97.93,23.7-.03,47.43-2.89,70.97Z"/>
    <path class="st4" d="M2720.07,2857.64c0,1.55-57.31,2.89-128.06,2.89s-128.06-1.33-128.06-2.89,57.31-2.89,128.17-2.89,127.95,1.22,127.95,2.89Z"/>
    <g class="st10">
      <path d="M2606.67,2716.48v141.94l19.1-136.61-19.1-5.33Z"/>
    </g>
    <g class="st9">
      <path class="st6" d="M2550.92,2740.13c-5.31,3.49-10.88,6.57-16.66,9.22-12.84,7.7-24.13,17.72-33.32,29.54-9.22,11.9-16.11,25.42-20.32,39.87-1.18,6.22-2.81,12.35-4.89,18.33-1.2-6.42-.89-13.04.89-19.33,6.56-31.21,27.01-57.71,55.53-71.97,5.72-3.35,12.15-5.29,18.77-5.66Z"/>
    </g>
    <path class="st4" d="M2569.14,2993.36c1,1.11-5,8.33-14.77,14.11-9.77,5.78-18.88,7.89-19.44,6.44-.56-1.44,7.33-5.78,16.44-11.11,9.11-5.33,16.66-10.66,17.77-9.44Z"/>
    <path class="st3" d="M2575.02,3588.21c-26.89,2.15-53.88,2.89-80.85,2.22-37.65-2.55-37.54-6-36.43-10.33,2.78-11.66,66.64,2,54.53-8.88-12.11-10.88-79.85-7.66-76.41-19.66,4.44-15.77,70.86,0,76.63.67s7.22-7.33,2-7.89c-7.55-.78-85.85-11.11-81.63-26.21,2.33-8.66,17.44-3,17.44-3,0,0,72.64,14.88,74.41,7.44,1.78-7.44-40.65-17.55-55.53-19.99-14.88-2.44-19.1-10.11-12.77-15.66,4.33-3.78,48.98,2.55,63.31,5.33,14.33,2.78,53.42,11.11,37.43-8.88-15.99-19.99-20.99-40.87-18.33-47.54,2.11-3.88,6.96-5.32,10.84-3.21,2.11,1.15,3.59,3.18,4.04,5.54,3.02,7.91,7.09,15.39,12.11,22.21,3.84,5.71,8.61,10.74,14.11,14.88,8.26,6.12,16.86,11.76,25.77,16.88"/>
  </g>
  <g id="freepik--Machine--inject-94">
    <rect class="st12" x="6692.55" y="4024.4" width="346.63" height="539.44" transform="translate(-1117.03 5655.35) rotate(-41.7)"/>
    <path class="st11" d="M7205.48,4423.41c-21.38,19.07-54.16,17.19-73.23-4.18-19.07-21.38-17.19-54.16,4.18-73.23,21.38-19.07,54.16-17.19,73.23,4.18.01.01.02.03.04.04,18.91,21.42,17.02,54.08-4.22,73.19Z"/>
    <polygon class="st6" points="7200.92 4398.98 7148.72 4396.87 7150.95 4361.55 7161.94 4362.21 7160.5 4386.2 7201.37 4387.87 7200.92 4398.98"/>
    <path class="st4" d="M6804.65,4493.49c-1-1.22,56.42-54.09,128.28-118.17,71.86-64.08,131.05-114.95,132.05-113.73s-56.31,54.09-128.17,118.06c-71.86,63.97-131.06,115.06-132.17,113.84Z"/>
    <path class="st7" d="M7033.77,4514.82c-1.11,1-83.96-90.41-184.81-204.36-100.85-113.95-181.7-207.13-180.48-208.13,1.22-1,83.85,90.41,184.81,204.36,100.96,113.95,181.7,207.02,180.48,208.13Z"/>
    <path class="st7" d="M6669.26,4333.12c-1.11-1.22,56.09-53.64,127.72-117.06,71.64-63.42,130.5-113.95,131.61-112.73s-56.2,53.64-127.83,117.06c-71.64,63.42-130.5,113.84-131.5,112.73Z"/>
    <path class="st7" d="M6859.4,4551.8c-1.11-1.22,56.64-53.98,128.72-117.95,72.08-63.97,131.5-114.73,132.61-113.51,1.11,1.22-56.53,53.87-128.72,117.84-72.19,63.97-131.5,114.73-132.61,113.62Z"/>
    <path class="st7" d="M6777.77,4226.5c-2.86-2.31-5.3-5.09-7.22-8.22-5.73-8.06-10.53-16.74-14.33-25.88-5.72-13.65-9.24-28.12-10.44-42.87-1.27-9-.24-18.17,3-26.66,4.1-10.16,14.99-15.82,25.66-13.33,10.05,2.03,18.54,8.71,22.88,17.99,3.76,8.13,5.87,16.93,6.22,25.88,1.12,14.8-.69,29.67-5.33,43.76-2.99,9.49-7.33,18.51-12.88,26.77-1.78,3.17-4.11,5.99-6.89,8.33,6.51-11.5,11.83-23.63,15.88-36.21,3.89-13.71,5.25-28.01,4-42.2-.55-8.23-2.62-16.29-6.11-23.77-3.56-7.69-10.57-13.22-18.88-14.88-8.05-1.83-16.24,2.39-19.44,10-2.86,7.65-3.81,15.89-2.78,23.99.93,14.24,3.93,28.27,8.88,41.65,5.12,12.27,11.06,24.18,17.77,35.65Z"/>
    <path class="st7" d="M6774.89,4235.83c2.12-2.56,4.72-4.67,7.66-6.22,7.58-4.86,15.71-8.82,24.21-11.77,12.67-4.45,26-6.77,39.43-6.89,7.93-.08,15.85.59,23.66,2,4.51.74,8.8,2.48,12.55,5.11,4.27,2.95,6.94,7.7,7.22,12.88-.19,5.16-2.68,9.96-6.77,13.11-3.34,2.74-7.09,4.95-11.11,6.55-7.43,3.07-15.24,5.16-23.21,6.22-13.45,1.69-27.11.36-39.98-3.89-8.59-2.8-16.66-7-23.88-12.44-2.81-1.83-5.26-4.17-7.22-6.89,10.07,6.51,20.93,11.7,32.32,15.44,12.39,3.48,25.37,4.32,38.09,2.44,7.43-1.05,14.67-3.11,21.55-6.11,7-2.78,14.66-7.77,14.66-14.33-.24-3.42-2.04-6.53-4.89-8.44-3.06-2.1-6.55-3.5-10.22-4.11-7.32-1.41-14.76-2.16-22.21-2.22-12.94-.12-25.82,1.72-38.21,5.44-11.54,3.88-22.79,8.6-33.65,14.11Z"/>
    <polygon class="st4" points="6524.44 4157.75 7203.92 4930.64 8058.22 4930.64 8058.22 5316.81 7157.72 5316.81 6349.62 4391.2 6524.44 4157.75"/>
    <path class="st4" d="M5764.1,3556.01c2.3.13,4.57.54,6.77,1.22,6.53,1.33,12.99,3.03,19.32,5.11,23.34,7.57,45.45,18.49,65.64,32.43,29.87,20.66,56.14,46.1,77.74,75.3,26.88,35.75,47.88,75.57,62.2,117.95,13.56,42.34,22.49,86.02,26.66,130.28,3.46,36.03,5.09,72.21,4.89,108.4,0,30.88-.89,55.53-1.56,73.08,0,8.11-.67,14.77-1,19.88.07,2.31-.16,4.63-.67,6.89-.27-2.29-.27-4.6,0-6.89v-92.85c0-30.76-1.67-67.53-6.11-107.95-4.41-43.83-13.38-87.08-26.77-129.06-13.89-41.75-34.24-81.06-60.31-116.51-21.16-29.02-46.89-54.41-76.19-75.19-19.79-13.89-41.34-25.1-64.08-33.32-16.99-6-26.66-8.22-26.54-8.77Z"/>
    <path class="st4" d="M6062.41,4126.54c-.19-2.51-.19-5.04,0-7.55v-102.4c0-33.76-1.78-74.08-6.22-118.5-4.42-48.19-13.34-95.86-26.66-142.38-13.67-46.39-33.75-90.65-59.64-131.5-21.14-33.34-46.99-63.46-76.74-89.41-20.09-17.34-42.16-32.25-65.75-44.43-16.77-8.55-26.54-12.44-26.32-12.99,2.47.63,4.88,1.45,7.22,2.44,6.84,2.51,13.55,5.36,20.1,8.55,24.25,11.64,46.91,26.35,67.42,43.76,30.5,25.79,56.97,56,78.52,89.63,26.49,41.11,46.94,85.81,60.75,132.72,12.84,47.04,21.13,95.2,24.77,143.83,4.11,44.43,5,85.19,5,119.06s-.67,61.2-1.33,80.19c0,9-.67,16.22-.89,22.21.15,2.26.07,4.53-.22,6.77Z"/>
    <path class="st4" d="M4942.01,2928.28c3.22,5.78-2.22,526.11-2.22,526.11h-42.43l-14.22-526.55,58.86.44Z"/>
    <polygon class="st4" points="4893.14 3383.86 4942.01 3386.41 4941.56 3460.05 4996.87 3488.92 4996.54 3537.35 4960.33 3587.44 4958.89 3517.69 4913.68 3494.14 4875.15 3514.25 4877.48 3589.44 4837.61 3540.57 4839.83 3495.81 4891.14 3457.6 4893.14 3383.86"/>
    <path class="st11" d="M5166.13,3009.8l410.93,496.23c42.99,52,120,59.31,172,16.32.09-.07.17-.14.26-.21h0c52-42.99,59.31-120,16.32-172-.07-.09-.14-.17-.21-.26l-410.93-496.23c-42.99-52-120-59.31-172-16.32-.09.07-.17.14-.26.21h0c-52,42.99-59.31,120-16.32,172,.07.09.14.17.21.26Z"/>
    <path class="st11" d="M4918.46,3007.57h366.51c42.38,0,76.74-34.36,76.74-76.74h0c0-42.39-34.36-76.75-76.74-76.75h-366.51c-42.38,0-76.74,34.36-76.74,76.74h0c0,42.39,34.36,76.75,76.74,76.75h0Z"/>
    <path class="st11" d="M5648.15,4369.21h0c-94.89,0-171.81-76.92-171.81-171.81v-737.57c0-94.89,76.92-171.82,171.81-171.82h0c94.89,0,171.82,76.92,171.82,171.82v737.57c0,94.89-76.92,171.81-171.82,171.81Z"/>
    <circle class="st4" cx="5644.68" cy="4204.93" r="84.74"/>
    <circle class="st4" cx="5648.19" cy="3436.36" r="84.74"/>
    <circle class="st4" cx="5273.42" cy="2930.83" r="51.42"/>
    <circle class="st4" cx="4910.02" cy="2930.83" r="34.87"/>
    <path class="st4" d="M5477.33,3473.93c-.52-1.5-.78-3.08-.78-4.66-.27-4.4-.27-8.82,0-13.22.29-16.32,3.06-32.5,8.22-47.98,7.53-23.12,19.61-44.49,35.54-62.86,39.06-47.04,100.74-68.91,160.71-56.98,23.97,4.25,46.85,13.23,67.3,26.43,13.72,8.85,26.07,19.66,36.65,32.1,2.84,3.55,5.47,7.26,7.89,11.11,1.67,2.44,2.55,3.78,2.33,4-14.08-16.81-30.63-31.37-49.09-43.2-20.18-12.44-42.59-20.85-65.97-24.77-58.03-10.63-117.32,10.54-155.49,55.53-15.88,17.55-28.25,37.99-36.43,60.2-6.89,20.75-10.56,42.44-10.88,64.31Z"/>
    <path class="st4" d="M5171.57,2843.2c.89.67-5.11,9.88-11.11,26.21-8.14,21.24-11.92,43.9-11.11,66.64,1.14,22.76,6.76,45.06,16.55,65.64,7.77,15.77,14.55,24.43,13.77,24.99-.78.56-2.22-1.67-5.44-5.44-4.57-5.45-8.55-11.37-11.88-17.66-5.18-9.21-9.32-18.97-12.33-29.1-3.53-12.43-5.69-25.2-6.44-38.09-.43-12.96.62-25.93,3.11-38.65,2.05-10.32,5.25-20.38,9.55-29.99,2.82-6.51,6.28-12.72,10.33-18.55,3-4.33,4.66-6,5-6Z"/>
    <path class="st4" d="M1021.8,3427.06c0,.56-11.11,3.11-29.1,9.55-26.11,9.47-50.84,22.39-73.52,38.43-33.76,23.74-63.43,52.81-87.85,86.07-29.85,40.54-53.16,85.51-69.08,133.28-15.24,48.27-25.4,98-30.32,148.38-4.89,46.31-6.33,88.3-6.77,123.5-.44,35.21,0,63.86,0,83.63v22.77c.27,2.62.27,5.26,0,7.89-.52-2.6-.78-5.24-.78-7.89l-1-22.77c-.67-19.66-1.55-48.31-1.55-83.63-.25-41.42,1.64-82.83,5.66-124.06,4.78-50.67,14.98-100.67,30.43-149.16,16.13-48.42,39.86-93.98,70.3-134.94,24.64-33.48,54.67-62.64,88.85-86.3,23.11-15.95,48.39-28.48,75.08-37.21,7.29-2.4,14.71-4.4,22.21-6,2.43-.75,4.92-1.27,7.44-1.55Z"/>
    <path class="st4" d="M680.72,4080.56c-.52-2.9-.78-5.83-.78-8.77,0-6.22-.56-14.55-.89-24.88-.67-22.21-1.44-53.09-1.44-91.96s1.11-84.96,5.78-136.16c4.85-55.6,15-110.6,30.32-164.26,15.85-53.69,39.26-104.84,69.53-151.93,24.65-38.48,54.89-73.06,89.74-102.62,23.48-19.9,49.38-36.77,77.08-50.2,7.52-3.67,15.23-6.93,23.1-9.77,2.62-1.27,5.38-2.24,8.22-2.89-2.5,1.47-5.1,2.77-7.77,3.89-5.11,2.67-13.11,5.44-22.21,11.11-27.17,13.89-52.57,31-75.63,50.98-34.12,29.7-63.75,64.19-87.96,102.4-29.72,46.76-52.75,97.46-68.42,150.6-15.22,53.32-25.45,107.94-30.54,163.15-5,50.98-6.44,97.07-7,135.83-.56,38.76,0,70.08,0,91.74v24.99c-.1,2.95-.47,5.89-1.11,8.77Z"/>
    <path class="st4" d="M1958.4,2701.59c-3.44,6.66,17.33,389.5,17.33,389.5l48.53-.78,1.55-390.5-67.42,1.78Z"/>
    <polygon class="st4" points="2048.47 2885.63 1933.52 2894.73 1939.07 3068.44 1810.46 3140.07 1814.24 3254.25 1902.64 3369.97 1901.87 3205.49 2006.82 3147.07 2099 3192.05 2098.12 3369.53 2189.19 3251.8 2181.19 3146.4 2057.91 3059.66 2048.47 2885.63"/>
    <path class="st11" d="M1706.51,2802.11l-471.13,568.2c-49.35,59.56-137.64,67.83-197.2,18.48-.02-.01-.03-.03-.05-.04h0c-59.37-49.49-67.42-137.72-17.99-197.14l471.13-568.31c49.4-59.52,137.68-67.77,197.25-18.44h0c59.38,49.53,67.43,137.79,17.99,197.25Z"/>
    <rect class="st11" x="1483.71" y="2623.18" width="594.97" height="175.81" rx="7.91" ry="7.91"/>
    <path class="st11" d="M1154.52,4358.33h0c-108.65,0-196.74-88.04-196.8-196.69v-844.75c.06-108.65,88.16-196.69,196.8-196.69h0c108.63,0,196.69,88.06,196.69,196.69v844.75c0,108.63-88.06,196.69-196.69,196.69h0Z"/>
    <circle class="st4" cx="1158.47" cy="4170.41" r="96.96" transform="translate(-2609.62 2040.65) rotate(-45)"/>
    <circle class="st4" cx="1154.62" cy="3290.24" r="96.96" transform="translate(-1988.37 1780.13) rotate(-45)"/>
    <circle class="st4" cx="1583.67" cy="2711.15" r="58.86"/>
    <path class="st4" d="M2028.15,2682.83c15.62,15.61,15.62,40.93.01,56.54-15.61,15.62-40.93,15.62-56.54.01-15.62-15.61-15.62-40.93-.01-56.54h.01c15.64-15.56,40.89-15.56,56.53-.01Z"/>
    <path class="st4" d="M1350.21,3332.99c-.21-25.1-4.34-50.02-12.22-73.86-9.07-25.63-22.94-49.3-40.87-69.75-43.91-51.68-112.16-75.85-178.81-63.31-26.9,4.39-52.69,13.93-75.97,28.1-20.91,13.64-39.64,30.38-55.53,49.65.71-1.6,1.65-3.1,2.78-4.44,2.79-4.21,5.83-8.26,9.11-12.11,12.11-14.26,26.3-26.62,42.09-36.65,23.36-15.04,49.49-25.27,76.86-30.1,68.53-13.55,138.98,11.42,183.7,65.08,18.21,21.02,32.07,45.44,40.76,71.86,5.94,17.7,9.16,36.2,9.55,54.87.34,5.03.34,10.08,0,15.1-.13,1.93-.62,3.81-1.44,5.55Z"/>
    <path class="st4" d="M1700.29,2609.97s2.22,2.33,5.55,7c4.36,6.75,8.08,13.89,11.11,21.32,4.97,10.99,8.69,22.5,11.11,34.32,2.91,14.62,4.07,29.53,3.44,44.43-.76,14.78-3.22,29.43-7.33,43.65-3.43,11.57-8.08,22.74-13.88,33.32-3.8,7.13-8.3,13.87-13.44,20.1-3.67,4.44-5.89,6.77-6.22,6.44s7.11-10.44,15.99-28.43c5.16-10.7,9.33-21.85,12.44-33.32,3.65-13.88,5.88-28.1,6.66-42.43.55-14.35-.42-28.72-2.89-42.87-2.08-11.38-5.24-22.54-9.44-33.32-7-19.1-14.11-29.1-13.11-30.21Z"/>
    <rect class="st11" x="261.79" y="4041.69" width="6262.53" height="349.52" rx="15.73" ry="15.73"/>
    <circle class="st4" cx="5621.39" cy="4227.01" r="86.85" transform="translate(-438.03 7797.87) rotate(-67.45)"/>
    <circle class="st4" cx="6372.22" cy="4207.19" r="87.22"/>
    <circle class="st4" cx="4830.44" cy="4226.78" r="86.85"/>
    <circle class="st4" cx="4039.7" cy="4226.53" r="86.85"/>
    <circle class="st4" cx="3248.99" cy="4226.95" r="86.85"/>
    <circle class="st4" cx="2458.02" cy="4226.93" r="86.85"/>
    <circle class="st4" cx="1650.85" cy="4217.18" r="86.45"/>
    <circle class="st4" cx="589.18" cy="4226.68" r="86.85" transform="translate(-2816.15 1654.58) rotate(-45)"/>
    <polygon class="st4" points="1654.19 5331.58 662.84 5331.58 676.06 4391.2 1667.3 4391.2 1654.19 5331.58"/>
    <polygon class="st4" points="6047.86 5329.02 5056.62 5329.02 5064.29 4391.2 6055.64 4391.2 6047.86 5329.02"/>
    <path class="st4" d="M1361.21,4041.69c0,1.56-90.74,2.89-202.69,2.89s-202.69-1.33-202.69-2.89,90.74-2.89,202.69-2.89,202.69,1.22,202.69,2.89Z"/>
    <path class="st4" d="M6324.63,4358.33l8.22-.56c8.12-.45,16.18-1.6,24.1-3.44,13.08-3.07,25.7-7.85,37.54-14.22,16.21-9.04,30.63-20.97,42.54-35.21,33.83-40.83,42.76-96.83,23.32-146.16-19.09-48.8-62.96-83.55-114.84-90.96-19.35-1.7-38.78-2.22-58.2-1.56l-1357.75.89-4478.85.89c-26.94.12-53.31,7.81-76.08,22.21-11.43,6.99-21.76,15.64-30.65,25.66-9.05,9.91-16.54,21.15-22.21,33.32-24.27,48.84-18.58,107.25,14.66,150.49,16.1,21.12,37.75,37.34,62.53,46.87,12.29,4.79,25.19,7.86,38.32,9.11,12.99.89,26.54,0,39.98.67h1978.59l2013.58.67,1357.42.89,369.06.56h128.72-497.79l-1357.42.89-2013.58.67H477.26c-13.44,0-26.77,0-40.54-.67-13.66-1.3-27.08-4.47-39.87-9.44-12.77-4.43-24.84-10.63-35.87-18.44-11.19-8.24-21.11-18.08-29.43-29.21-34.51-44.99-40.41-105.69-15.22-156.49,6.01-12.51,13.87-24.04,23.32-34.21,9.21-10.4,19.92-19.39,31.76-26.66,23.81-14.64,51.24-22.33,79.19-22.21l4478.85.78,1357.64,1c19.49-.63,39-.07,58.42,1.67,18.33,2.7,36,8.8,52.09,17.99,29.26,16.73,51.88,43,64.08,74.41,19.46,49.9,10.27,106.43-23.99,147.6-12.03,14.29-26.6,26.23-42.98,35.21-11.92,6.29-24.62,11-37.76,13.99-8.01,1.74-16.14,2.82-24.32,3.22l-8-.22Z"/>
    <rect class="st12" x="4653.57" y="3674.07" width="571.98" height="367.62"/>
    <path class="st11" d="M5281.41,3680.06c-.31,30.36-25.17,54.73-55.53,54.42s-54.73-25.17-54.42-55.53c.3-30.14,24.83-54.42,54.97-54.42,30.3-.06,54.92,24.45,54.98,54.75,0,.26,0,.52,0,.78Z"/>
    <polygon class="st6" points="5220.44 3705.72 5194.23 3679.4 5202.12 3671.51 5220.33 3689.84 5250.76 3658.52 5258.76 3666.18 5220.44 3705.72"/>
    <path class="st4" d="M5054.29,4046.79c-1.56,0-2.89-82.74-2.89-184.81s1.33-184.92,2.89-184.92,2.89,82.74,2.89,184.92-1.22,184.81-2.89,184.81Z"/>
    <rect class="st12" x="3119.34" y="3709.94" width="520.44" height="334.52"/>
    <path class="st4" d="M3439.32,4044.35c-1.56,0-2.89-74.97-2.89-167.37s1.33-167.37,2.89-167.37,2.89,74.97,2.89,167.37-.89,167.37-2.89,167.37Z"/>
    <rect class="st12" x="1425.18" y="3427.06" width="368.29" height="614.62"/>
    <path class="st4" d="M1713.39,4039.91c-1.55,0-2.89-136.39-2.89-304.76s1.33-304.76,2.89-304.76,2.89,136.5,2.89,304.76-1.33,304.76-2.89,304.76Z"/>
    <rect class="st12" x="7394.21" y="4586.46" width="539.44" height="346.63" transform="translate(-14.09 22.76) rotate(-.17)"/>
    <path class="st11" d="M7985.7,4591.67c.06,28.65-23.11,51.92-51.76,51.98-28.65.06-51.92-23.11-51.98-51.76-.06-28.64,23.11-51.92,51.76-51.98,28.58-.12,51.85,22.95,51.98,51.53,0,.07,0,.15,0,.22Z"/>
    <polygon class="st6" points="7928.17 4616.55 7903.29 4591.45 7911.06 4583.68 7928.06 4600.67 7956.38 4571.13 7964.49 4578.9 7928.17 4616.55"/>
    <path class="st4" d="M7772.79,4938.19c-1.56,0-3.11-77.74-3.44-174.37s.78-174.37,2.44-174.37,3.11,77.74,3.33,174.37c.22,96.63-1.11,174.37-2.33,174.37Z"/>
    <path class="st7" d="M7940.38,4780.7c0,1.67-123.39,3-275.55,3s-275.55-1.33-275.55-3,123.28-2.89,275.55-2.89,275.55,1.33,275.55,2.89Z"/>
    <path class="st7" d="M7562.55,4933.19c-1.56,0-2.89-77.74-2.89-173.26s1.33-173.26,2.89-173.26,2.89,77.74,2.89,173.26-1.33,173.26-2.89,173.26Z"/>
    <path class="st7" d="M7852.31,4935.86c-1.56,0-2.89-77.74-2.89-174.59s1.11-174.37,2.89-174.37,2.89,77.74,2.89,174.59-1.22,174.37-2.89,174.37Z"/>
    <path class="st7" d="M7554.66,4781.26c-3.68.62-7.43.62-11.11,0-9.84-1.01-19.54-3.17-28.88-6.44-14-4.75-27.16-11.68-38.98-20.55-7.57-5.02-13.75-11.85-17.99-19.88-2.23-4.71-2.81-10.02-1.67-15.1,1.37-5.17,4.42-9.74,8.66-12.99,8.18-6.2,18.84-8.1,28.65-5.11,8.75,2.45,16.91,6.64,23.99,12.33,11.81,9.1,21.74,20.42,29.21,33.32,4.95,8.59,8.69,17.82,11.11,27.43,1.2,3.58,1.77,7.34,1.67,11.11-4.34-12.49-9.92-24.5-16.66-35.87-7.66-12.04-17.49-22.54-28.99-30.99-6.6-5.13-14.15-8.9-22.21-11.11-8.11-2.37-16.87-.81-23.66,4.22-6.71,4.87-8.96,13.86-5.33,21.32,3.82,7.16,9.3,13.29,15.99,17.88,11.31,8.77,23.85,15.84,37.21,20.99,12.76,4.03,25.79,7.19,38.98,9.44Z"/>
    <path class="st7" d="M7559.77,4789.59c-.54-3.27-.54-6.61,0-9.88,1.34-8.89,3.76-17.58,7.22-25.88,8.15-19.9,21.36-37.32,38.32-50.53,3.52-2.84,7.61-4.89,12-6,5.05-1.2,10.38-.02,14.44,3.22,3.72,3.53,5.68,8.54,5.33,13.66-.16,4.41-1.07,8.77-2.67,12.88-2.65,7.64-6.39,14.86-11.11,21.44-7.33,11-16.95,20.29-28.21,27.21-7.77,4.59-16.25,7.86-25.1,9.66-3.21.94-6.57,1.21-9.88.78,11.68-3.17,22.88-7.88,33.32-13.99,10.8-6.94,20.03-16.05,27.1-26.77,4.14-6.32,7.42-13.15,9.77-20.32,2.44-7,3.89-16.1-1.11-20.44-2.76-1.99-6.24-2.68-9.55-1.89-3.56.95-6.88,2.61-9.77,4.89-6.02,4.62-11.59,9.79-16.66,15.44-8.64,9.62-15.79,20.47-21.21,32.21-4.79,11.17-8.87,22.63-12.22,34.32Z"/>
  </g>
</svg>