<?xml version="1.0" encoding="UTF-8"?>
<svg id="Layer_1" xmlns="http://www.w3.org/2000/svg" version="1.1" viewBox="0 0 500 500">
  <!-- Generator: Adobe Illustrator 29.7.1, SVG Export Plug-In . SVG Version: 2.1.1 Build 8)  -->
  <defs>
    <style>
      .st0 {
        fill: #e0e0e0;
      }

      .st1 {
        fill: #aa6550;
      }

      .st2 {
        fill: #b78876;
      }

      .st3 {
        fill: #ffbe9d;
      }

      .st4 {
        fill: #ebebeb;
      }

      .st5 {
        fill: #ff725e;
      }

      .st6 {
        fill: #4a9288;
      }

      .st7 {
        fill: #263238;
      }

      .st8 {
        fill: #eb996e;
      }

      .st9 {
        fill: #fff;
      }

      .st10 {
        fill: #fafafa;
      }

      .st11 {
        opacity: .3;
      }

      .st12 {
        fill: #f5f5f5;
      }

      .st13 {
        fill: #455a64;
      }
    </style>
  </defs>
  <g id="freepik--background-complete--inject-6">
    <path class="st12" d="M266.63,77.12c-4.12,10.3-10.7,26.95-13.73,34.6-.89,2.26.22,4.8,2.47,5.7l28.14,11.21c2.25.9,4.81-.2,5.71-2.45,0,0,0,0,0-.01l13.65-34.32c2-5.01-.44-10.68-5.44-12.68,0,0-.01,0-.02,0h0l2-5-18.42-7.31-1.9,4.74h-.07c-4.95-1.8-10.43.65-12.39,5.53Z"/>
    <polygon class="st0" points="280.74 67.46 279.83 69.75 297.99 77.75 299.17 74.8 280.74 67.46"/>
    <path class="st4" d="M284.44,60.08l17.18,6.84c1.54.61,2.29,2.36,1.68,3.9l-1.82,4.57c-.39.99-1.52,1.47-2.51,1.08l-19.16-7.63c-.99-.39-1.47-1.52-1.08-2.51l1.82-4.57c.61-1.54,2.36-2.29,3.9-1.68h0Z"/>
    <path class="st0" d="M280.93,69.28c.36-1.6.89-3.15,1.57-4.64.53-1.55,1.22-3.05,2.06-4.46-.36,1.61-.89,3.17-1.57,4.67-.52,1.55-1.21,3.03-2.06,4.43Z"/>
    <path class="st0" d="M283.36,70.25c.36-1.6.89-3.16,1.57-4.65.52-1.55,1.21-3.05,2.06-4.45-.36,1.6-.89,3.16-1.57,4.65-.52,1.55-1.21,3.05-2.06,4.45Z"/>
    <path class="st0" d="M285.79,71.22c.36-1.6.89-3.16,1.57-4.65.52-1.56,1.21-3.05,2.06-4.46-.36,1.6-.88,3.16-1.57,4.65-.53,1.55-1.22,3.05-2.06,4.46Z"/>
    <path class="st0" d="M288.22,72.19c.35-1.6.88-3.16,1.57-4.65.52-1.56,1.21-3.05,2.06-4.46-.36,1.6-.89,3.16-1.58,4.65-.53,1.55-1.22,3.05-2.05,4.46Z"/>
    <path class="st0" d="M290.65,73.15c.36-1.6.88-3.16,1.57-4.65.51-1.55,1.18-3.04,2-4.45-.36,1.6-.88,3.16-1.57,4.65-.51,1.55-1.18,3.04-2,4.45Z"/>
    <path class="st0" d="M293.09,74.12c.36-1.6.89-3.16,1.58-4.65.53-1.55,1.22-3.05,2.05-4.46-.35,1.6-.88,3.16-1.57,4.65-.52,1.56-1.21,3.05-2.06,4.46Z"/>
    <path class="st0" d="M295.5,75.09c.36-1.6.88-3.16,1.57-4.65.53-1.55,1.22-3.05,2.06-4.46-.36,1.6-.89,3.16-1.57,4.65-.52,1.56-1.21,3.05-2.06,4.46Z"/>
    <path class="st0" d="M297.93,76.05c.36-1.6.89-3.15,1.57-4.64.52-1.56,1.21-3.05,2.06-4.46-.36,1.6-.89,3.16-1.57,4.65-.53,1.55-1.22,3.04-2.06,4.45Z"/>
    <rect class="st4" x="270.1" y="83.95" width="18.8" height="28.42" rx="1.48" ry="1.48" transform="translate(84.87 321.49) rotate(-68.28)"/>
    <path class="st0" d="M287.95,110.21c.03-.1.06-.2.1-.3l.3-.82,1.17-3.09c1-2.67,2.5-6.44,4.28-11l.11.27-23.16-9.17c-.07,0,.64-.27.34-.14h0v.06l-.05.13-.1.25-.2.5-.4,1c-.27.66-.53,1.32-.79,2-.52,1.31-1,2.6-1.55,3.87l-2.92,7.29-.13-.31,16.56,6.72,4.76,2,1.28.54c.15.06.3.13.45.21l-.42-.14-1.25-.47-4.76-1.82-16.8-6.57-.22-.08.09-.23c.92-2.32,1.88-4.76,2.89-7.3.5-1.27,1-2.56,1.54-3.87.26-.66.52-1.32.79-2l.39-1,.21-.5.1-.25.05-.13v-.06h0l.35-.15,23.13,9.2.19.08-.08.19c-1.88,4.6-3.43,8.38-4.52,11.07l-1.26,3-.33.77c-.08.18-.13.26-.14.25Z"/>
    <path class="st0" d="M288.45,98.53c-2.72-.8-5.39-1.77-8-2.89-2.66-.96-5.25-2.09-7.77-3.37,2.72.8,5.4,1.76,8,2.89,2.66.96,5.25,2.09,7.77,3.37Z"/>
    <path class="st0" d="M287.39,101.2c-2.72-.79-5.4-1.76-8-2.89-2.65-.97-5.25-2.09-7.77-3.37,2.72.8,5.4,1.76,8,2.89,2.66.97,5.25,2.09,7.77,3.37Z"/>
    <path class="st0" d="M286.37,103.77c-2.73-.79-5.4-1.76-8-2.89-2.66-.97-5.25-2.09-7.77-3.37,2.72.79,5.4,1.76,8,2.89,2.65.97,5.25,2.09,7.77,3.37Z"/>
    <path class="st0" d="M296.42,78.62c-2.95-.89-5.84-1.95-8.67-3.17-2.9-1.06-5.73-2.28-8.49-3.66,2.95.89,5.85,1.95,8.68,3.17,2.89,1.06,5.72,2.28,8.48,3.66Z"/>
    <path class="st9" d="M255.21,110.34c.14-.57.33-1.12.56-1.66.43-1.13,1-2.63,1.7-4.45,1.45-3.75,3.49-8.91,5.78-14.6,1.15-2.84,2.24-5.55,3.25-8,.78-2.26,2.02-4.33,3.65-6.08,1.15-1.16,2.64-1.92,4.25-2.17.44-.05.87-.05,1.31,0,.15.02.3.05.44.11-.58,0-1.15.02-1.72.1-1.53.33-2.92,1.1-4,2.23-1.55,1.74-2.73,3.79-3.47,6-1,2.48-2.07,5.19-3.21,8-2.28,5.69-4.38,10.84-5.92,14.55l-1.85,4.38c-.21.55-.47,1.08-.77,1.59Z"/>
    <path class="st9" d="M286.83,128.43c-.4-.26-.76-.56-1.1-.89-.34-.31-.77-.67-1.28-1.07s-1.06-.89-1.73-1.36c-1.53-1.15-3.12-2.2-4.77-3.16-2.03-1.14-4.13-2.14-6.29-3-2.17-.85-4.4-1.56-6.67-2.11-1.86-.44-3.74-.78-5.63-1-.81-.12-1.55-.15-2.19-.21s-1.21-.08-1.66-.09c-.48,0-.95-.03-1.42-.11.47-.08.94-.12,1.42-.1h1.67c.67,0,1.4,0,2.21.13,1.92.17,3.83.46,5.71.88,2.3.53,4.56,1.23,6.76,2.09,2.19.89,4.31,1.93,6.34,3.13,1.65.99,3.24,2.09,4.75,3.28.65.49,1.2,1,1.69,1.43.43.36.83.74,1.22,1.14.35.31.68.65.97,1.02Z"/>
    <rect class="st0" x="36.01" y="199.55" width="90.75" height="124.67" rx="2.41" ry="2.41" transform="translate(-105.52 61.2) rotate(-25.7)"/>
    <rect class="st10" x="40.36" y="202.37" width="80.62" height="116.04" transform="translate(-104.94 60.74) rotate(-25.7)"/>
    <path class="st4" d="M71.04,202.58c-2.96-2.29-6.96-2.71-10.33-1.08l-2.23-4.39c-1.62-3.35-5.64-4.77-9-3.17h0c-3.38,1.62-4.8,5.67-3.18,9.05,0,0,0,0,0,.01l2.23,4.63-1.55.78c-3.3,1.66-5.4,5.01-5.45,8.7v2.3l31.63-15.22-2.13-1.61ZM54.16,203.3c-1.82.87-4,.1-4.87-1.72-.87-1.82-.1-4,1.72-4.87,1.81-.87,3.99-.11,4.86,1.7.88,1.82.12,4-1.7,4.87,0,0,0,0-.01,0Z"/>
    <path class="st0" d="M53.24,227.44c.07.13-4.29,2.36-9.73,5s-9.9,4.63-10,4.5,4.29-2.36,9.73-5,9.94-4.63,10-4.5Z"/>
    <path class="st0" d="M44.64,235.67c-1.46.99-3.01,1.83-4.63,2.52-1.55.83-3.18,1.5-4.86,2,1.47-.97,3.03-1.8,4.66-2.47,1.54-.83,3.16-1.52,4.83-2.05Z"/>
    <path class="st0" d="M95.37,222.66c.06.12-12.16,6.14-27.3,13.42s-27.46,13.09-27.52,13,12.16-6.18,27.26-13.47,27.5-13.08,27.56-12.95Z"/>
    <path class="st0" d="M97.89,227.88c.06.13-12.16,6.14-27.3,13.43s-27.46,13.09-27.52,13,12.15-6.14,27.3-13.43,27.44-13.13,27.52-13Z"/>
    <path class="st0" d="M100.4,233.11c.07.13-12.16,6.14-27.29,13.43s-27.46,13.09-27.53,13,12.16-6.14,27.3-13.43,27.46-13.13,27.52-13Z"/>
    <path class="st0" d="M102.92,238.34c.06.13-12.16,6.14-27.3,13.43s-27.46,13.08-27.52,13,12.16-6.14,27.3-13.42,27.46-13.14,27.52-13.01Z"/>
    <path class="st0" d="M105.44,243.56c.06.13-12.16,6.15-27.3,13.43-15.14,7.28-27.46,13.09-27.52,13s12.19-6.18,27.29-13.47,27.46-13.08,27.53-12.96Z"/>
    <path class="st0" d="M107.95,248.79c.06.13-12.16,6.14-27.29,13.43-15.13,7.29-27.47,13.09-27.53,13s12.16-6.14,27.3-13.43,27.46-13.13,27.52-13Z"/>
    <path class="st0" d="M82.81,266.7c-.31.24-.64.45-1,.61l-2.9,1.49c-2.46,1.23-5.88,2.91-9.66,4.73s-7.23,3.45-9.73,4.6l-3,1.34c-.35.19-.73.33-1.12.42.31-.23.65-.44,1-.61l2.9-1.48c2.46-1.24,5.88-2.92,9.66-4.74s7.23-3.44,9.73-4.59l3-1.34c.36-.19.73-.33,1.12-.43Z"/>
    <path class="st0" d="M91.46,208.46c-1.34.93-2.77,1.72-4.28,2.35-1.43.79-2.94,1.42-4.5,1.88,1.34-.93,2.77-1.72,4.28-2.35,1.43-.79,2.94-1.42,4.5-1.88Z"/>
    <path class="st0" d="M75.81,284.11c-2.25,1.38-4.59,2.6-7,3.66-2.34,1.22-4.75,2.29-7.23,3.19,2.25-1.38,4.59-2.6,7-3.66,2.34-1.22,4.75-2.29,7.23-3.19Z"/>
    <path class="st0" d="M78.59,288.61c-2.29,1.39-4.67,2.63-7.12,3.71-2.38,1.24-4.83,2.33-7.35,3.25,2.29-1.39,4.67-2.63,7.12-3.72,2.38-1.24,4.83-2.32,7.35-3.24Z"/>
    <path class="st0" d="M116.81,263.5c-1.01.78-2.13,1.42-3.32,1.89-1.12.63-2.31,1.11-3.56,1.42,1.02-.77,2.14-1.41,3.33-1.89,1.12-.63,2.31-1.11,3.55-1.42Z"/>
    <path class="st0" d="M119.08,267.66c-1.02.77-2.14,1.41-3.33,1.89-1.12.63-2.31,1.11-3.55,1.42,1.01-.78,2.13-1.42,3.32-1.89,1.12-.63,2.31-1.11,3.56-1.42Z"/>
    <path class="st0" d="M74.35,296.79c-.98.76-2.06,1.37-3.21,1.83-1.08.61-2.24,1.07-3.44,1.37.98-.77,2.06-1.4,3.21-1.88,1.08-.6,2.24-1.04,3.44-1.32Z"/>
    <path class="st0" d="M121.71,272.53c-.69.62-1.5,1.11-2.37,1.43-.8.48-1.69.82-2.61,1,.7-.63,1.5-1.11,2.38-1.44.8-.49,1.68-.82,2.6-.99Z"/>
    <path class="st0" d="M72.68,311.45c.09-.08.18-.15.28-.21l.84-.56,3.23-2.07,11.61-7.29.23-.15.1.25c.55,1.41.59,2.97.13,4.41-.48,1.58-1.66,2.86-3.2,3.46-1.65.67-3.53.46-5-.55-1.48-1.14-2.13-3.06-1.65-4.87.18-.68.52-1.3,1-1.82.12-.13.24-.25.38-.36.14-.12.29-.23.45-.31.22-.11.48-.11.7,0,.17.12.31.28.4.46.6,1.14.95,2.41,1,3.7.08,1.24-.12,2.49-.57,3.65-.38,1.16-1.14,2.16-2.15,2.85-1.05.62-2.36.6-3.38-.07-.93-.59-1.64-1.47-2-2.51-.46-1.86-.46-3.79,0-5.65l.06-.38.26.29c1.06,1.21,1.73,2.71,1.91,4.31.14,1.19.02,2.4-.34,3.55-.23.71-.57,1.39-1,2-.16.21-.29.35-.38.45s-.13.15-.14.14c.58-.81,1.03-1.71,1.33-2.66.31-1.12.4-2.3.24-3.45-.2-1.53-.86-2.96-1.89-4.1l.32-.09c-.45,1.79-.45,3.65,0,5.44.34.94.98,1.74,1.83,2.26.87.57,2,.59,2.89.05.91-.64,1.59-1.55,1.94-2.61.41-1.1.59-2.28.52-3.46-.07-1.22-.41-2.4-1-3.47-.04-.11-.12-.2-.21-.27-.07-.04-.15-.04-.22,0-.25.14-.47.32-.65.54-.4.45-.69,1-.84,1.59-.43,1.61.15,3.31,1.46,4.33,1.31.89,2.98,1.08,4.46.5,1.4-.54,2.48-1.7,2.92-3.14.44-1.33.41-2.78-.09-4.09l.33.11-11.71,7.13-3.3,2-.87.5c-.07.06-.15.12-.23.17Z"/>
    <path class="st0" d="M124.6,286.24c0,.32-.06.64-.16.94-.1.37-.26.73-.46,1.06-.28.48-.72.83-1.25,1-.32.11-.68.11-1,0-.33-.14-.62-.36-.84-.65-.41-.61-.78-1.25-1.12-1.9l-2.45-4.58.45-.1c-.08,2.29-.16,4.79-.26,7.41,0,.63,0,1.24-.07,1.85v1l-.45-.93c-1.37-2.81-2.64-5.44-3.76-7.72h.42c-.64,2.28-.98,4.63-1,7,0,1.71.11,2.68.06,2.69-.09-.22-.14-.46-.15-.7-.09-.66-.15-1.33-.17-2-.09-2.39.17-4.78.78-7.09l.15-.58.26.54,3.83,7.69-.5.1c0-.6,0-1.22.07-1.85.11-2.62.21-5.12.3-7.41v-.9l.41.79c.88,1.65,1.69,3.19,2.42,4.57.32.65.67,1.28,1.05,1.89.3.5.89.74,1.45.61.81-.28,1.42-.95,1.63-1.78.1-.32.22-.64.36-.95Z"/>
    <path class="st0" d="M124.5,282.5c.08.11-4.05,3.06-9.22,6.58s-9.43,6.27-9.51,6.15,4-3.06,9.22-6.58,9.43-6.27,9.51-6.15Z"/>
    <path class="st0" d="M129.57,283.37c-2.13,2.18-4.39,4.23-6.76,6.15-2.25,2.05-4.62,3.98-7.1,5.76,2.14-2.18,4.39-4.23,6.76-6.15,2.25-2.05,4.62-3.98,7.1-5.76Z"/>
    <path class="st12" d="M166.15,67.94h-4.21l-9.13-12.83v-8.4s-6.51-.4-5.74,10.6-.06,8.19-.06,8.19c0,0-13.81.06-15,1.26-.84.87-1.21,14.59-1.36,22-.18,3.69,2.17,7.04,5.71,8.11.47.14.96.22,1.45.24,3.44,0,21-2.8,21-2.8h7.27l.07-26.37Z"/>
    <polygon class="st12" points="178.2 65.63 175.61 94.41 168.4 94.41 168.4 66.21 178.2 65.63"/>
  </g>
  <g id="freepik--character-1--inject-6">
    <path class="st7" d="M218.65,154.47c.12-4.36-3.9-7.72-8-9.32s-8.56-2.2-12.18-4.63c-3.2-2.16-5.35-5.52-8.06-8.26-10.41-10.55-27.4-10.66-37.94-.25-3.5,3.45-5.98,7.8-7.18,12.56-1.55,6.2-.49,13.53,4.4,17.66,5.68,4.78,14.09,3.72,21.36,2.23s15.51-3,21.58,1.31c3.66,2.58,5.76,6.77,8,10.65s5,7.83,9.28,9.29,10-1.06,10.15-5.53"/>
    <path class="st7" d="M218.36,156.86c-.48,3.65,2.16,6.92,4.79,9.5,2.63,2.58,5.6,5.31,6.07,9,.54,4.27-2.58,8.47-1.67,12.68.57,2.67,2.65,4.72,3.91,7.15,1.67,3.5,1.95,7.5.77,11.19-1.08,3.68-2.81,11.89-5.37,14.75-7.07,7.9-18.32,14.72-28.65,17.09s-21.07,2.39-31.65,1.74c-8.66-.53-18.63-.13-25.85-12.05-3.74-6.18-5.59-14.38-7.57-21.32-1.72-6-3.2-12.37-1.42-18.33,1-3.46,3.13-6.55,4.15-10,1.28-4.34.81-9,1.32-13.47,1.93-16.96,17.25-29.15,34.21-27.21,3.4.39,6.7,1.33,9.79,2.8"/>
    <path class="st3" d="M141.34,171.83c.81-12.43,9.08-27.67,21.47-26.33l38.66,9.86c3.76.41,6.58,3.63,6.51,7.41l-4.35,93.28.27.05s-8.81,26.31-34.38,18.28c-5.07-1.6-7.39-7.14-8.39-12.85h-.26v-2c-.5-4.25-.55-8.55-.15-12.81h0c-.07-7.53-.06-10.61-.07-10.54s-15.88-2.68-19.12-23.41c-1.65-10.23-1.09-27.13-.19-40.94Z"/>
    <path class="st7" d="M147.57,184.32c-.02,1.44,1.11,2.64,2.55,2.69,1.4.11,2.63-.93,2.75-2.34,0-.02,0-.04,0-.05.02-1.44-1.12-2.64-2.56-2.69-1.4-.11-2.62.93-2.74,2.33,0,.02,0,.04,0,.06Z"/>
    <path class="st7" d="M144.98,180.63c.33.35,2.35-1.14,5.21-1.13s5,1.45,5.27,1.1c.15-.15-.19-.78-1.1-1.44-1.23-.87-2.7-1.32-4.21-1.31-1.49-.01-2.94.45-4.15,1.32-.88.68-1.19,1.3-1.02,1.46Z"/>
    <path class="st7" d="M175.68,184.32c-.02,1.44,1.12,2.64,2.56,2.69,1.4.11,2.62-.93,2.74-2.33,0-.02,0-.04,0-.06.02-1.44-1.11-2.64-2.55-2.69-1.4-.12-2.63.92-2.74,2.32,0,.02,0,.05,0,.07Z"/>
    <path class="st7" d="M173.1,181.22c.33.35,2.35-1.13,5.21-1.12s4.95,1.45,5.26,1.1c.15-.16-.18-.78-1.1-1.45-1.24-.86-2.71-1.32-4.21-1.31-1.49,0-2.94.46-4.14,1.33-.88.67-1.18,1.34-1.02,1.45Z"/>
    <path class="st7" d="M162.67,202.41c0-.16-1.76-.47-4.64-.85-.73-.07-1.42-.22-1.55-.72-.06-.75.12-1.51.5-2.16l2.17-5.56c3-7.91,5.2-14.42,4.88-14.53s-3,6.19-6,14.11c-.73,1.95-1.43,3.81-2.08,5.59-.46.88-.6,1.89-.39,2.86.21.52.66.92,1.2,1.07.4.11.82.17,1.24.18,2.86.16,4.66.18,4.67.01Z"/>
    <path class="st8" d="M160.62,236.26c9.76.17,19.37-2.37,27.77-7.35,0,0-7,14.33-27.75,12.35l-.02-5Z"/>
    <path class="st8" d="M163.87,209.31c1.11-1.39,2.85-2.11,4.62-1.9,1.28.11,2.45.75,3.25,1.75.77.98.85,2.33.21,3.4-.94,1.06-2.43,1.43-3.75.94-1.35-.48-2.59-1.23-3.65-2.19-.32-.22-.6-.51-.81-.84-.21-.33-.21-.74,0-1.07"/>
    <path class="st7" d="M171.08,204.41c-.46,0-.47,3.08-3.14,5.27s-6,1.85-6,2.29c0,.19.74.6,2.13.64,1.82.03,3.59-.58,5-1.73,1.35-1.1,2.22-2.69,2.43-4.42.14-1.3-.2-2.07-.42-2.05Z"/>
    <path class="st7" d="M171.81,176.21c.28.78,3.14.42,6.49.83s6.07,1.33,6.52.64c.2-.33-.27-1.07-1.37-1.82-1.45-.95-3.1-1.53-4.82-1.7-1.72-.21-3.46-.01-5.08.58-1.23.5-1.85,1.1-1.74,1.47Z"/>
    <path class="st7" d="M146.05,172.35c.51.65,2.48,0,4.85,0s4.37.44,4.84-.23c.2-.33-.12-1-1-1.6-2.4-1.52-5.49-1.43-7.8.22-.83.63-1.13,1.3-.89,1.61Z"/>
    <path class="st7" d="M215.94,223.55c-9.96,2.01-19.67-4.44-21.67-14.4-.39-1.96-.47-3.97-.22-5.95.64-5.09,3.39-10.27,1.62-15.09-2.33-6.37-11.26-8.33-13.63-14.69-1.38-3.69-.14-8-1.7-11.63-1.47-3.41-5.05-5.37-8.54-6.63s-7.22-2.13-10.15-4.4-4.75-6.57-2.86-9.76c15.48,1.85,30.68,5.55,45.28,11,3.39,1.26,6.94,2.78,8.94,5.79,2.12,3.18,2,7.29,1.84,11.11l-2.61,55.82"/>
    <path class="st13" d="M214.64,230.67s.13-.06.34-.21l.92-.7c.8-.63,2-1.56,3.43-2.85,1.79-1.54,3.42-3.26,4.87-5.12,1.98-2.48,3.32-5.42,3.88-8.54.8-3.85-.18-7.86-2.67-10.9-1.5-1.49-3.12-2.87-4.83-4.12-1.72-1.31-3.03-3.09-3.77-5.12-1.53-4.22-.85-9.11-1.44-14.11-.59-5.22-2.62-10.16-5.88-14.28-1.68-2.07-3.77-3.78-6.14-5-2.33-1.06-4.76-1.88-7.25-2.44-2.32-.58-4.49-1.65-6.37-3.14-1.76-1.48-3.32-3.19-4.62-5.09-2.6-3.7-4.53-7.64-7-10.93-1.17-1.61-2.54-3.07-4.08-4.33-1.44-1.16-3.08-2.05-4.84-2.64-3.04-1.16-6.46-.82-9.21.92-1.93,1.5-3.12,3.76-3.27,6.2-.12,1.53.32,3.05,1.25,4.27.24.31.52.58.84.81.1.09.22.16.34.22-.08-.1-.18-.2-.28-.29-.28-.25-.54-.54-.75-.85-.82-1.21-1.17-2.68-1-4.13.19-2.31,1.36-4.43,3.21-5.82,2.63-1.59,5.85-1.86,8.7-.72,1.68.58,3.24,1.45,4.61,2.57,1.47,1.25,2.79,2.67,3.92,4.24,2.4,3.23,4.29,7.17,6.93,11,1.33,1.98,2.94,3.76,4.76,5.29,1.94,1.53,4.18,2.64,6.57,3.25,2.44.56,4.81,1.36,7.09,2.4,2.26,1.18,4.26,2.81,5.86,4.8,3.16,3.98,5.14,8.76,5.72,13.8.61,4.83-.09,9.8,1.54,14.29.79,2.17,2.17,4.06,4,5.47,1.69,1.21,3.28,2.55,4.77,4,2.38,2.86,3.33,6.65,2.6,10.3-.51,3.03-1.76,5.89-3.64,8.33-1.41,1.86-2.99,3.59-4.71,5.17-1.41,1.32-2.55,2.29-3.31,3-.38.31-.75.64-1.09,1Z"/>
    <path class="st7" d="M218.43,233.25c4.26-4.12,11.53-.54,15.11,4.18s6.11,10.82,11.54,13.2,12.48.33,17,4.11c6.28,5.22,2.75,17.31,9.55,21.85,2.69,1.8,6.25,1.74,9.13,3.22,6.79,3.5,6.71,13.08,5.66,20.65-1.43,10.65-3.05,21.65-8.91,30.65s-17.27,15.29-27.41,11.83c-9.75-3.33-14.76-13.85-18.73-23.36-5.48-13.19-10.97-26.34-16.46-39.47-3.17-7.61-6.38-15.34-7.41-23.52s.35-17,5.56-23.42"/>
    <path class="st6" d="M221.16,224.17c3.09-.37,5.46,3.42,4.64,6.43s-3.7,5-6.65,6c-1.63.65-3.4.85-5.13.59-1.76-.27-3.24-1.47-3.89-3.13-.68-1.47-.04-3.2,1.42-3.89,2-1.27,3.23-2.27,4.84-3.16,2.46-1.35,2.31-1.53,4.77-2.89"/>
    <polygon class="st6" points="149.93 257.52 161.95 248.41 207.26 245.51 209.08 251.59 194.34 343.55 205.97 453.27 142.76 453.27 149.93 257.52"/>
    <g class="st11">
      <path d="M198.44,414.35c-1.45-1.55-3.82-3.67-5.93-3.72-15.14-.33-30.59-1.84-45.73-2.18l-1.21,44.84c3.62-6.38,7.05-13,8-20.3.42-3.18,1-7,3.85-8.34,1.64-.77,3.57-.47,5.34-.11,5.47,1.08,10.9,2.49,16.46,2.84s11.39-.47,16.06-3.51c1.66-.98,2.99-2.42,3.84-4.15.82-1.77.56-3.86-.68-5.37Z"/>
    </g>
    <path class="st6" d="M159.73,259.38l-1.41-13.15c-.24-2.3,1.42-4.35,3.72-4.59.02,0,.04,0,.06,0l41.7-3.77c1.1-.08,2.06.74,2.15,1.84,0,.02,0,.04,0,.06l.47,15.65-12.08,20.49-12.41,3.95h-15.18l-8.73-9.32,1.71-11.15Z"/>
    <path class="st7" d="M200.26,250.39c-.56-.02-1.12-.08-1.67-.17-1.51-.14-3.03-.17-4.54-.08-2.25.16-4.48.5-6.68,1-2.49.52-5.2,1.25-8.07,1.95-2.69.7-5.44,1.19-8.21,1.46-2.28.21-4.58.06-6.81-.46-1.5-.35-2.93-.95-4.24-1.76-.35-.23-.68-.47-1-.74-.22-.18-.33-.29-.31-.3s.49.33,1.43.86c1.33.73,2.75,1.26,4.23,1.58,2.2.46,4.45.58,6.68.34,2.74-.29,5.46-.79,8.13-1.49,2.86-.69,5.58-1.41,8.09-1.91,2.22-.48,4.49-.76,6.76-.86,1.53-.07,3.07.01,4.59.24.54.09.95.17,1.23.24.25.04.4.08.39.1Z"/>
    <g class="st11">
      <path d="M160.72,252.46c-1.12,3.07-1.15,6.87,1.12,9.22,1.84,1.92,4.81,2.4,7.42,1.88,2.58-.67,5.04-1.77,7.25-3.26,5.74-3.41,11.58-6.95,18.1-8.4.43-.05.83-.22,1.17-.49.31-.29.33-.78.04-1.09-.01-.01-.03-.03-.04-.04-.16-.1-.35-.15-.54-.15-5.77-.58-11.5,1-17.15,2.32s-11.7,2.17-17.15.2"/>
    </g>
    <path class="st7" d="M168.69,241.21c-.59.32-1.08.79-1.43,1.36-.66,1.06-.62,2.86-.57,4.8.11,3.89.75,7,.6,7-.29-.63-.48-1.31-.57-2-.32-1.65-.5-3.32-.55-5-.04-.93-.02-1.86.06-2.79.06-.78.3-1.54.72-2.21.29-.45.69-.81,1.17-1.05.35-.14.56-.14.57-.11Z"/>
    <path class="st7" d="M179.71,252.64c.01-2.12-.09-4.25-.3-6.36-.48-3.49-1.64-6.14-1.48-6.2.38.51.67,1.08.85,1.69.55,1.43.93,2.92,1.15,4.43.22,1.52.26,3.05.13,4.58-.01.64-.13,1.26-.35,1.86Z"/>
    <path class="st7" d="M193.14,238.97c.37.45.64.98.79,1.55.45,1.34.64,2.76.55,4.17-.09,1.42-.47,2.8-1.1,4.07-.22.54-.57,1.03-1,1.43,1.83-3.46,2.1-7.54.75-11.22h.01Z"/>
    <path class="st4" d="M134.66,263.44s-14.22,9.52-18,26.72c-2.94,13.52-11,84.94-11,84.94l-14.09,27.42,9.2,21.88h0c7.88.56,15.7-1.68,22.1-6.31l6.19-4.5,11.35-16.83-5.75-133.32Z"/>
    <polygon class="st4" points="158.76 250.82 134.66 263.44 128.97 282.13 123.9 336.32 133.44 399.85 116.7 453.08 145.57 453.29 146.26 422.09 149.14 321.09 151.97 256.75 158.76 250.82"/>
    <path class="st7" d="M147.09,335.02c-.17-.24-.32-.5-.45-.76l-1.2-2.21c-.5-1-1-2.22-1.61-3.64-.29-.72-.54-1.51-.83-2.34s-.61-1.71-.86-2.65c-2.27-7.49-3.77-18.3-3.45-30.22,0-.92.07-1.83.13-2.74v-.16l.15-.06,4.22-1.78-.06.44-4.22-3.39-.09-.07v-.1c-.04-4.1.61-8.17,1.92-12.05,1.06-3.53,2.22-6.57,3.24-9.07s1.91-4.45,2.54-5.77c.32-.67.57-1.18.74-1.51.08-.18.18-.35.29-.51-.05.19-.12.37-.21.54l-.67,1.55c-.58,1.34-1.42,3.31-2.4,5.82s-2.1,5.55-3.12,9.07c-1.26,3.84-1.88,7.85-1.83,11.89l-.1-.17,4.23,3.37.33.27-.39.17-4.22,1.78.16-.22c-.06.89-.1,1.8-.13,2.72-.31,11.87,1.12,22.63,3.29,30.09.23.95.54,1.82.81,2.65s.51,1.63.8,2.35c.59,1.42,1,2.67,1.52,3.65l1.1,2.25c.14.26.27.53.37.81Z"/>
    <path class="st7" d="M128.17,372.96c-.09-.26-.17-.52-.23-.78-.14-.57-.33-1.33-.57-2.28-.25-1-.53-2.2-.81-3.61s-.65-3-.93-4.83-.66-3.76-.93-5.88-.54-4.4-.79-6.79c-.44-4.8-.73-10.09-.73-15.65s.33-10.85.78-15.64c.27-2.39.5-4.67.83-6.79s.62-4.09.94-5.88.66-3.4,1-4.82.58-2.63.83-3.61.43-1.71.58-2.27c.06-.27.13-.53.23-.79-.02.27-.06.54-.13.81l-.48,2.29c-.22,1-.49,2.21-.74,3.63s-.61,3-.88,4.83-.62,3.75-.87,5.87-.53,4.39-.78,6.77c-.42,4.79-.72,10.06-.74,15.61s.28,10.81.68,15.6c.25,2.38.45,4.66.75,6.77s.57,4.09.86,5.88.6,3.41.85,4.83.51,2.64.73,3.63.36,1.72.47,2.29c.06.27.08.54.08.81Z"/>
    <path class="st7" d="M134.69,421.74c-.28.86-.68,1.67-1.17,2.43-1.08,1.88-2.31,3.67-3.69,5.35-1.37,1.68-2.89,3.24-4.52,4.67-.65.63-1.37,1.18-2.15,1.63.59-.68,1.22-1.31,1.9-1.9,1.54-1.49,3-3.07,4.37-4.73,1.36-1.66,2.62-3.4,3.78-5.21.44-.78.94-1.53,1.48-2.24Z"/>
    <path class="st4" d="M245.47,261.89c10.28,4,17.91,12.84,20.34,23.6,7.89,34.76,21.38,81,21.6,95.93.26,19-8,32-18.89,34.4-8.58,1.9-86.32-2.36-86.32-2.36l-3.64-29,63-9.27-8.62-48.08,8.53-66.72,4,1.5Z"/>
    <path class="st4" d="M241.47,260.34l-17.41-7.11-18.35-10.76-.11,3.15h0c2.25,3.85,3.04,8.38,2.21,12.76l-15.3,79.66,3.46,58.21,7.11,57h55.21l-25.35-59.65,8.95-80.39-.42-52.87Z"/>
    <path class="st7" d="M257.6,416.31l-.38.05-1.11.11c-1,.1-2.43.09-4.31.14-3.74,0-9.18-.08-15.95-.3-13.53-.45-32.36-1.36-53.63-2.59h-.21v-.22c-.43-3.45-.89-7.09-1.35-10.78-.79-6.25-1.55-12.35-2.28-18.18v-.25h.24l48.08-7,14.12-2,3.79-.51,1-.13h.34l-.33.07-1,.17-3.78.6-14.09,2.15-48,7.17.21-.29c.74,5.84,1.51,11.93,2.29,18.18.47,3.7.92,7.34,1.35,10.79l-.24-.22c21.26,1.24,40.1,2.21,53.62,2.76,6.76.26,12.19.41,15.93.46,1.87,0,3.33,0,4.3-.06l1.11-.06.28-.06Z"/>
    <path class="st7" d="M232.43,322.19c.07.17.12.35.14.54.08.41.18.91.3,1.54.26,1.41.61,3.34,1,5.69.85,4.88,2,11.49,3.28,18.8s2.32,13.94,3.14,18.83c.37,2.36.67,4.29.89,5.71.09.63.16,1.15.22,1.56.02.18.02.37,0,.55-.08-.17-.13-.35-.15-.53-.08-.41-.18-.92-.31-1.54-.26-1.42-.62-3.34-1.06-5.69-.87-4.81-2-11.45-3.28-18.8s-2.36-14-3.13-18.83c-.36-2.36-.66-4.3-.88-5.72-.08-.63-.15-1.15-.21-1.56,0-.18.01-.37.05-.55Z"/>
    <path class="st7" d="M213.72,248.11s0,.07.07.2l.16.58c.13.52.35,1.27.56,2.27.61,2.83,1.05,5.69,1.32,8.57.41,4.35.52,8.72.33,13.08-.17,5-.69,10.47-1.44,16.3v.18h-.18l-5.73,1.06.19-.35c.33.88.66,1.82.92,2.79,1.58,6.37,1.35,13.06-.65,19.31-1.58,5.07-3.83,9.91-6.68,14.4-2.38,3.86-4.52,6.82-6,8.87l-1.73,2.34c-.18.25-.34.44-.46.6-.05.08-.1.14-.17.2,0,0,0-.08.13-.23l.42-.63c.4-.58,1-1.38,1.64-2.4,1.43-2.08,3.53-5.07,5.85-8.94,2.78-4.48,4.98-9.3,6.54-14.34,1.65-5.67,2.43-12.41.61-19-.25-.93-.55-1.84-.9-2.74l-.11-.29.31-.06,5.69-1.05-.21.22c.76-5.81,1.31-11.29,1.5-16.25.21-4.33.14-8.68-.21-13-.23-2.88-.63-5.74-1.17-8.57-.18-1-.38-1.76-.47-2.28-.05-.24-.09-.43-.12-.59-.02-.08-.02-.17,0-.25Z"/>
    <path class="st6" d="M213.72,329.8v-12.69s.16-3.13-2.48-2.47-2.15,5.61-2.15,5.61c0,0-.49,19.31.66,19.15s1.6-1.65,1.6-1.65v-7.43l2.37-.52Z"/>
    <path class="st7" d="M224.7,330.59c-2.26.26-4.54.35-6.81.26-2.27.09-4.55,0-6.81-.26,2.26-.26,4.54-.34,6.81-.26,2.27-.08,4.55,0,6.81.26Z"/>
    <path class="st7" d="M249.81,269.43c-.46.21-.93.39-1.42.53-1.29.46-2.56,1.01-3.78,1.63-4.03,2.08-7.53,5.06-10.22,8.71-.76,1.03-1.43,2.12-2,3.27-.49,1.08-.9,2.21-1.2,3.36-.52,1.97-.85,3.97-1,6-.14,1.73-.17,3.15-.18,4.12.03.51.03,1.01,0,1.52-.13-.48-.19-.97-.2-1.46-.08-1.38-.08-2.77,0-4.15.1-2.06.4-4.1.91-6.1.3-1.19.71-2.34,1.21-3.46.58-1.18,1.27-2.3,2.05-3.36,2.73-3.72,6.33-6.72,10.48-8.73,1.25-.6,2.54-1.1,3.87-1.5.48-.18.98-.3,1.48-.38Z"/>
    <polygon class="st7" points="25.75 375.1 116.7 408.78 193.37 420.5 102.21 376.06 25.75 375.1"/>
    <path class="st3" d="M64.67,411.42c-.73-4.86-2.38-9.54-4.86-13.78-.54-.8-.95-1.67-1.24-2.59-.29-.93-.1-1.95.51-2.71,1.17-1.27,3.3-.71,4.74.25,2.91,2.12,5.06,5.13,6.12,8.58,1.04,3.42,1.71,6.95,2,10.51"/>
    <path class="st3" d="M100.12,402.76h-4.52c-1.11-1.1-2.49-1.89-4-2.28-1.14-.19-2.29.26-3,1.17,2-3.33,4.2-7,4.62-8,.81-1.95-1-3.41-3.91-3.41s-15.79,18.23-15.79,18.23c0,0,8-14.67,8.77-16.91,1.94-5.6-4.19-6-6.41-3.31-2.76,3.35-13.91,20.22-13.91,20.22,0,0-2.12,3.42-.66,6.67s5.7,2,5.7,2c.13,1.93,1.27,3.65,3,4.52,3.26,1.82,7.56-.29,7.56-.29l16.67,3.74,6-.6c8.43-.84,15.2-7.3,16.44-15.68h0l-16.56-6.07Z"/>
    <path class="st8" d="M88.91,401.39c.19.12-2,3.6-4.9,7.78-1.44,2.09-2.77,4-3.76,5.3-.49.76-1.05,1.46-1.68,2.1.38-.81.84-1.59,1.38-2.31.91-1.39,2.19-3.3,3.63-5.39s2.76-4,3.72-5.32l1.16-1.59c.13-.2.28-.39.45-.57Z"/>
    <path class="st8" d="M87.91,419.95c.41-.95.9-1.86,1.48-2.72,1-1.64,2.38-3.87,3.92-6.35.77-1.23,1.51-2.41,2.11-3.5.53-.94.66-2.05.37-3.09-.29-.97-.78-1.87-1.42-2.65,0,0,.27.14.64.54.52.57.91,1.26,1.13,2,.38,1.13.27,2.36-.29,3.41-.6,1.13-1.33,2.32-2.09,3.56-1.55,2.48-3,4.68-4.06,6.27-.54.88-1.13,1.73-1.79,2.53Z"/>
    <path class="st8" d="M96.66,421.61c.17-.9.47-1.78.89-2.59l1.19-2.72c.5-1.08.9-2.2,1.22-3.35.31-1.11.11-2.3-.53-3.25-.32-.38-.73-.67-1.19-.85-.39-.2-.81-.32-1.24-.35-.63.09-1.24.31-1.79.63-.21.13-.44.23-.68.28,0,0,.19-.19.58-.46.24-.16.49-.31.75-.45.35-.2.74-.33,1.14-.37.49.01.97.12,1.42.32.53.19,1.01.52,1.38.94.77,1.06,1.01,2.41.66,3.67-.32,1.19-.75,2.34-1.29,3.44-.47,1-.92,1.91-1.29,2.67-.36.83-.77,1.65-1.22,2.44Z"/>
    <path class="st8" d="M99.73,405.87c.25.02.48.09.7.21.62.26,1.2.6,1.74,1,3.75,2.8,4.9,7.93,2.69,12.06-.31.6-.69,1.16-1.13,1.67-.32.35-.53.51-.55.49s.66-.82,1.35-2.32c1.91-4,.84-8.8-2.59-11.61-.71-.54-1.45-1.04-2.21-1.5Z"/>
    <path class="st8" d="M70.43,396.3c-1.11,2.09-2.37,4.09-3.77,6-1.25,2.04-2.65,3.98-4.19,5.81,1.1-2.09,2.36-4.1,3.76-6,1.26-2.04,2.66-3.98,4.2-5.81Z"/>
    <path class="st3" d="M178.33,385.58l-10.4-2.35-10-9.41c-1.22-1.14-2.79-1.82-4.46-1.92l-18.17-1c-1.82-.11-3.61.48-5,1.66l-13,11,56.71,27.55,7.78.69-3.46-26.22Z"/>
    <path class="st8" d="M147.52,380.73c0,.08-1.34-.16-3.5-.44s-5.24-.53-8.23.86c-1.39.67-2.71,1.49-3.92,2.45-1.15.86-2.18,1.66-3.09,2.27-.71.5-1.47.93-2.25,1.31-.28.15-.58.26-.89.33,0-.08,1.19-.63,2.93-1.94.87-.64,1.87-1.47,3-2.36,1.23-1,2.57-1.85,4-2.54,1.46-.64,3.04-.99,4.64-1,1.29-.02,2.58.08,3.85.3,1.09.17,2,.37,2.54.52.32.03.63.11.92.24Z"/>
    <path class="st8" d="M151.25,390.85c0,.08-.74-.25-2-.37-1.59-.15-3.18.08-4.67.65-1.5.58-2.93,1.32-4.28,2.19-.55.4-1.14.74-1.77,1,.46-.5.98-.94,1.56-1.3,1.32-.98,2.77-1.78,4.31-2.37,1.56-.6,3.25-.78,4.9-.53.71.05,1.38.31,1.95.73Z"/>
    <path class="st8" d="M174.64,392.53c-.13.08-1.59-2.1-3.52-4.68s-3.59-4.61-3.48-4.71c1.48,1.3,2.78,2.78,3.89,4.4,1.25,1.52,2.29,3.2,3.11,4.99Z"/>
    <path class="st5" d="M146.02,371.93l23-21.45c.89-.83.94-2.22.12-3.11-.08-.09-.18-.18-.28-.25h0c-.84-.64-2.02-.6-2.81.11l-27,24.22"/>
    <g class="st11">
      <path d="M146.02,371.93l23-21.45c.89-.83.94-2.22.12-3.11-.08-.09-.18-.18-.28-.25h0c-.84-.64-2.02-.6-2.81.11l-27,24.22"/>
    </g>
  </g>
  <g id="freepik--character-2--inject-6">
    <path class="st2" d="M334.25,165.19c-.36-.14-14.31-3.8-13.47,10.31s14.83,10.35,14.84,9.94-1.37-20.25-1.37-20.25Z"/>
    <path class="st1" d="M330.99,180.36c-.07-.05-.24.18-.64.4-.57.29-1.23.34-1.84.14-1.52-.45-2.92-2.74-3.14-5.28-.11-1.19.04-2.39.44-3.51.21-.91.87-1.66,1.74-2,.57-.19,1.2.06,1.49.59.21.38.14.67.21.69s.29-.26.14-.83c-.1-.35-.31-.65-.61-.85-.4-.27-.9-.38-1.38-.28-1.16.3-2.08,1.19-2.43,2.34-.54,1.26-.75,2.64-.62,4,.26,2.84,1.88,5.41,3.95,5.88.78.18,1.6-.01,2.23-.51.45-.44.51-.76.46-.78Z"/>
    <path class="st7" d="M369.47,114.8c7.17,0,14.47,0,23.44,4.69,5.66,3,9.18,7.63,12.13,13.29,2.35,4.6,3.5,9.72,3.34,14.89-.26,4.88-.28,8.29-2.23,12.77"/>
    <path class="st2" d="M366.6,115.91c20.93-1.49,39.11,14.27,40.6,35.2.02.25.03.49.05.74.92,17.67,1.73,36.78,1.54,46.4-.42,20.66-21.11,23.71-21.11,23.71,0,0,.46,6.12,1,13.72.99,15-10.36,27.97-25.36,28.96-.25.02-.51.03-.76.04h0c-15.01.57-27.65-11.13-28.22-26.14,0-.01,0-.03,0-.04l-3.07-83.26c-.78-20.51,14.88-37.94,35.36-39.35l-.03.02Z"/>
    <path class="st1" d="M387.68,221.96s-12.7.66-26.5-8.17c0,0,6.25,15,26.87,13.34l-.37-5.17Z"/>
    <path class="st7" d="M399.33,163.34c.03,1.62-1.24,2.96-2.86,3-1.55.11-2.89-1.06-3-2.61,0-.02,0-.05,0-.07,0-1.6,1.26-2.93,2.86-3,1.55-.1,2.9,1.08,3,2.63,0,.02,0,.03,0,.05Z"/>
    <path class="st7" d="M402.2,159.16c-.37.38-2.59-1.29-5.77-1.31s-5.51,1.56-5.85,1.17c-.17-.18.21-.87,1.23-1.6,1.38-.95,3.02-1.43,4.69-1.4,1.65,0,3.26.53,4.58,1.52.97.75,1.3,1.45,1.12,1.62Z"/>
    <path class="st7" d="M368.2,163.34c.03,1.62-1.25,2.96-2.87,3-1.55.1-2.9-1.08-3-2.63,0-.02,0-.03,0-.05,0-1.61,1.26-2.93,2.87-3,1.56-.1,2.9,1.09,3,2.65,0,0,0,.02,0,.03Z"/>
    <path class="st7" d="M370.99,159.51c-.37.38-2.6-1.29-5.77-1.31s-5.51,1.55-5.86,1.16c-.16-.17.21-.87,1.24-1.6,1.38-.94,3.02-1.43,4.69-1.4,1.65.01,3.25.54,4.58,1.52.94.76,1.3,1.45,1.12,1.63Z"/>
    <path class="st7" d="M382.32,183.11c0-.18,2-.5,5.16-.89.81-.08,1.58-.23,1.72-.78.08-.84-.1-1.68-.52-2.41-.74-2-1.53-4-2.35-6.19-3.26-8.82-5.61-16.06-5.25-16.19s3.29,6.91,6.54,15.73c.79,2.17,1.54,4.24,2.25,6.23.5.98.64,2.11.4,3.18-.25.58-.75,1.01-1.35,1.18-.45.11-.91.17-1.37.18-3.22.17-5.22.17-5.23-.04Z"/>
    <path class="st7" d="M372.96,185.26c.52,0,.49,3.42,3.42,5.89s6.61,2.12,6.63,2.6c0,.22-.83.67-2.38.7-2.02,0-3.98-.7-5.53-2-1.49-1.24-2.44-3.01-2.65-4.94-.12-1.4.27-2.27.51-2.25Z"/>
    <path class="st7" d="M371.9,147.11c-.32.86-3.48.43-7.21.85s-6.75,1.41-7.24.63c-.21-.37.32-1.18,1.54-2,3.3-2.04,7.36-2.46,11-1.12,1.37.51,2.05,1.19,1.91,1.64Z"/>
    <path class="st7" d="M401.75,147.86c-.56.72-2.74-.05-5.37-.1s-4.86.44-5.37-.32c-.22-.37.13-1.09,1.11-1.76,2.69-1.66,6.11-1.52,8.66.34.92.75,1.22,1.49.97,1.84Z"/>
    <path class="st7" d="M331.48,161.71s.9,4.78,1.14,6.93c.09.79,0,9.54,2.11,10,1.83.38,5.46-1.29,7.08-4.91s4.7-12.31,4.36-16.26c-.45-5.38-.7-10.86.38-16.16s3.61-10.46,7.86-13.8,10.4-4.49,15.24-2.07c3,1.5,5.21,4.15,8,6,2.47,1.75,5.51,2.54,8.52,2.21,3.05-.38,5.61-2.48,6.59-5.4.88-3.15-.74-6.6-3.27-8.69s-5.78-3.05-9-3.69c-8.94-1.92-18.24-1.27-26.82,1.88-8.47,3.29-16,9.61-19.6,17.94-4.18,9.63-3.7,15.54-2.59,26"/>
    <path class="st7" d="M378.7,163.47c-.1-1.14-.28-2.28-.54-3.4-.8-3.04-2.6-5.72-5.11-7.61-1.72-1.3-3.71-2.17-5.83-2.56-2.43-.44-4.94-.23-7.26.61-1.25.45-2.42,1.08-3.48,1.89-1.13.81-2.11,1.8-2.92,2.93-3.56,4.85-3.56,11.44,0,16.29.81,1.13,1.8,2.11,2.92,2.93,1.06.8,2.23,1.44,3.48,1.88,2.32.85,4.83,1.06,7.26.62,2.12-.39,4.12-1.27,5.83-2.57,2.51-1.89,4.31-4.56,5.12-7.6.26-1.12.43-2.26.53-3.41.01.08.01.15,0,.23v.67c0,.37-.03.73-.09,1.09-.05.49-.13.98-.26,1.46-.74,3.13-2.54,5.9-5.09,7.86-3.84,2.96-8.92,3.75-13.47,2.1-1.3-.45-2.52-1.1-3.62-1.93-1.15-.83-2.17-1.85-3-3-3.71-5.02-3.71-11.88,0-16.9,1.68-2.28,3.99-4.02,6.65-5,2.4-.86,4.99-1.06,7.49-.59,2.18.41,4.24,1.34,6,2.7,2.55,1.96,4.34,4.73,5.09,7.85.13.48.21.97.26,1.47.06.36.09.72.09,1.08v.67c-.03.17-.04.24-.05.24Z"/>
    <path class="st7" d="M415.07,163.47c-.11-1.14-.29-2.28-.54-3.4-.8-3.04-2.61-5.72-5.12-7.61-1.72-1.3-3.71-2.18-5.83-2.56-2.43-.44-4.93-.23-7.25.61-2.56.94-4.79,2.62-6.4,4.82-3.57,4.84-3.57,11.45,0,16.29.81,1.12,1.79,2.11,2.91,2.93,1.06.81,2.24,1.44,3.49,1.88,2.32.85,4.82,1.06,7.25.62,2.12-.39,4.12-1.27,5.83-2.57,2.51-1.89,4.31-4.56,5.12-7.6.25-1.12.43-2.26.54-3.41,0,.08,0,.15,0,.23v.67c0,.36-.02.73-.08,1.09-.05.49-.14.98-.27,1.46-.74,3.13-2.54,5.91-5.09,7.86-1.76,1.36-3.82,2.28-6,2.69-2.51.48-5.1.28-7.5-.59-2.66-.96-4.98-2.71-6.64-5-3.72-5.02-3.72-11.88,0-16.9.83-1.15,1.85-2.17,3-3,1.1-.83,2.32-1.48,3.62-1.94,2.4-.86,4.99-1.06,7.5-.59,2.19.41,4.24,1.34,6,2.7,2.55,1.95,4.35,4.72,5.09,7.85.13.48.22.97.27,1.47.06.36.08.72.08,1.08v.67c.01.08.02.17.02.25Z"/>
    <path class="st7" d="M387.32,161.97c0,.08-.51-.18-1.3-.44-1.03-.35-2.12-.49-3.21-.42-1.08.08-2.13.36-3.1.82-.75.37-1.17.69-1.22.62s.3-.47,1-.94c2-1.21,4.46-1.37,6.6-.44.87.38,1.27.76,1.23.8Z"/>
    <path class="st7" d="M392.95,127.11c.21-1.07-.15-1.67.46-2.11s2,.82,2.46,1.34c.16.17.64-.49.83-.61.21-.43.33-.89.36-1.37-.09-.75-1.26-1-1.81-1.46-.57-.5-1.23-.88-1.95-1.11-.6-.29-1.3-.25-1.86.11-.33.39-.48.9-.42,1.4,0,.5.09,1,.28,1.46.19.47.55.85,1,1.06"/>
    <path class="st4" d="M330.71,150.73s10.13,3.71,15.4,5.95l-.3-5.18-14.73-5.83s-.38,3.85-.37,5.06Z"/>
    <path class="st4" d="M331.66,142.68c2.45.76,4.84,1.68,7.17,2.75,2.4.92,4.74,2,7,3.23-2.45-.76-4.84-1.68-7.17-2.75-2.4-.92-4.74-2-7-3.23Z"/>
    <path class="st6" d="M334.71,251.8l-.78-24.51s4.87,22.43,30.38,22.14c24.37-.28,23.93-19.76,23.93-19.76l.87,9.88v39.91l-15.9,65.11-20.31,2.54-22.44-89,4.25-6.31Z"/>
    <path class="st7" d="M385.97,243.96c-.08.18-.17.36-.29.52-.31.49-.64.97-1,1.42-1.28,1.69-2.81,3.17-4.54,4.4-2.56,1.83-5.44,3.19-8.48,4-3.73,1-7.62,1.27-11.45.79-3.82-.53-7.53-1.64-11-3.31-2.82-1.35-5.5-2.97-8-4.84-1.69-1.24-3.32-2.58-4.86-4-.55-.5-.95-.92-1.23-1.2-.15-.13-.28-.28-.4-.44.17.11.33.23.47.37l1.3,1.12c1.12,1,2.78,2.33,4.94,3.88,2.51,1.81,5.19,3.39,8,4.7,3.43,1.62,7.09,2.7,10.85,3.22,3.76.47,7.58.22,11.25-.73,3-.78,5.84-2.07,8.4-3.82,1.72-1.19,3.26-2.61,4.59-4.22.96-1.2,1.41-1.89,1.45-1.86Z"/>
    <path class="st4" d="M368.27,453.22l-.37-115.7-32.86-84.41-1.1-25.41-20,15.14s-29.13,100.27-29.62,96.81,0,113.57,0,113.57h83.95Z"/>
    <path class="st7" d="M367.48,452.9c-.14,0-.26-26.07-.26-58.23s.12-58.23.26-58.23.26,26.07.26,58.23-.12,58.23-.26,58.23Z"/>
    <polygon class="st0" points="314.21 259.32 318.27 262.4 315.42 281.12 363.38 331.36 319.82 274.15 323.53 259.32 314.21 259.32"/>
    <path class="st4" d="M370.07,393.95l-73.61-21.58-2.44-55.91,20.19-73.66s-48.12,24.01-51.4,39.31-11.17,52.42-12,79.27c-.75,24-.86,40,4.62,47.71,15.7,21.94,119.14,25.86,160.46,0"/>
    <path class="st7" d="M364.31,332.57s-.09-.08-.24-.27-.39-.48-.66-.82l-2.5-3.2c-2.18-2.82-5.29-6.86-9.12-11.84l-29.93-39.17-2.25-3-.08-.1v-.12c1.28-5.12,2.53-10.09,3.72-14.83l.24.32h-9.56v-16.86l.08-.06,14.47-11,4-3,1-.77c.11-.09.24-.17.37-.24l-.33.29-1,.81-3.91,3.06-14.36,11.14.08-.16v16.52l-.24-.23h9.72l-.08.32-3.7,14.83-.05-.22,2.26,2.95,29.8,39.27,9,11.93c1,1.4,1.85,2.49,2.42,3.26.26.36.46.65.62.86l.23.33Z"/>
    <path class="st4" d="M397.12,238.44c-5.87-10.26-8.92-9.2-8.92-9.2l.31,3.66v7.69l-2.79,33-17.83,71.69.37,107.94h67.41l8.39-131.76-.76-56.77-46.18-26.25Z"/>
    <path class="st4" d="M443.31,264.69s17.45,12.88,19,33.61c1.23,16.83,4,62.92,4.55,72.95.8,15.62-11.37,52.21-43.05,41.85-19-6.22-89.18-30.07-89.18-30.07l4.67-29.81,83.3,5,1.66-69.48,19.05-24.05Z"/>
    <path class="st2" d="M338.31,356.65s-23.58-2.55-29-1.23c-5.25,1.27-12.72,7.69-12.72,7.69l.11,9.31,37.93,10.61,3.68-26.38Z"/>
    <path class="st7" d="M367.9,334.5c.03-.11.06-.22.11-.32.08-.23.2-.54.35-.92.33-.84.81-2,1.41-3.52l5.28-12.92,7.88-19.14c.75-1.79,1.49-3.66,2.42-5.49s1.94-3.66,3-5.49c2.3-3.73,4.8-7.34,7.48-10.8,1.36-1.75,2.73-3.46,4.15-5.1v.27l-2.94-7.47-.1-.25.25-.09,12.27-4.15-.13.34c-5.7-9.52-10.51-17.56-13.93-23.26-1.68-2.82-3.12-5.08-4.65-6-.58-.35-1.2-.6-1.86-.75-.23-.04-.46-.1-.69-.17.23.02.47.05.7.09.68.12,1.33.36,1.93.71.93.6,1.73,1.38,2.36,2.29.88,1.18,1.7,2.41,2.45,3.68l14.1,23.18.15.25-.28.09-12.27,4.21.15-.33,2.95,7.47.06.14-.11.12c-1.4,1.62-2.77,3.33-4.12,5.08-2.67,3.44-5.16,7.02-7.46,10.72-1.07,1.82-2.12,3.61-3,5.44s-1.66,3.65-2.41,5.45c-3,7.18-5.72,13.65-8,19.1s-4.14,9.79-5.43,12.85c-.64,1.49-1.15,2.66-1.5,3.49-.17.38-.3.67-.41.9-.04.11-.09.21-.16.3Z"/>
    <path class="st7" d="M452.88,407.3c-.08.11-.18.22-.29.31l-.9.87c-1.18,1.08-2.47,2.05-3.83,2.9-2.17,1.32-4.53,2.31-7,2.94-3.27.81-6.66,1.03-10,.64-1.95-.23-3.88-.64-5.75-1.22-2-.62-3.92-1.39-6-2.11-4.11-1.5-8.53-3-13.17-4.68-9.3-3.26-19.55-6.74-30.35-10.29-21.6-7.09-41.3-13.07-55.58-17.34l-16.92-5-4.6-1.37-1.19-.36c-.14-.04-.27-.09-.4-.15l.42.09,1.2.32,4.63,1.27c4,1.12,9.81,2.77,17,4.85,14.3,4.17,34,10.1,55.63,17.2,10.81,3.54,21.06,7,30.35,10.32,4.64,1.65,9.05,3.22,13.16,4.73,2.06.74,4,1.52,6,2.14,1.85.59,3.75,1,5.67,1.23,3.31.41,6.67.22,9.92-.55,2.46-.6,4.81-1.56,7-2.83,1.36-.83,2.65-1.77,3.86-2.81l.93-.83c.06-.1.13-.19.21-.27Z"/>
    <path class="st7" d="M296.66,372.59c0,.11-1.33-.18-3.44-.09-1.23.05-2.46.25-3.64.6-1.45.43-2.82,1.06-4.1,1.87-2.3,1.52-4.25,3.52-5.71,5.86-1.11,1.8-1.6,3-1.69,3,.05-.31.15-.61.28-.89.3-.8.67-1.57,1.1-2.3,1.4-2.46,3.37-4.56,5.74-6.11,1.32-.83,2.75-1.47,4.25-1.89,1.23-.33,2.49-.5,3.76-.51.85-.01,1.7.07,2.54.23.31.03.62.11.91.23Z"/>
    <path class="st7" d="M273.47,365.29s0-.1.09-.27c.12-.24.27-.46.46-.65.71-.7,1.63-1.15,2.62-1.3,1.43-.24,2.89-.24,4.32,0,1.75.23,3.47.65,5.13,1.25,3.04,1.07,5.81,2.77,8.13,5,.69.68,1.32,1.42,1.89,2.21.22.28.4.59.55.91-.09.07-.91-1.21-2.69-2.85-2.35-2.1-5.09-3.71-8.06-4.75-1.62-.58-3.3-1.01-5-1.27-1.39-.25-2.8-.29-4.2-.12-.93.11-1.81.48-2.53,1.08-.5.43-.67.78-.71.76Z"/>
    <path class="st7" d="M300.95,301.11c-.16-.49-.28-1-.34-1.51-.15-.48-.36-1.05-.59-1.71s-.63-1.38-1.09-2.14c-1.08-1.79-2.33-3.47-3.75-5-1.75-1.86-3.68-3.56-5.75-5.06-3.76-2.75-8.03-4.71-12.57-5.77-1.38-.29-2.78-.47-4.19-.54-.52,0-1.04-.04-1.55-.12.52-.07,1.04-.1,1.56-.08,1.43-.02,2.85.11,4.25.38,4.63.96,8.99,2.91,12.8,5.71,2.1,1.51,4.05,3.24,5.8,5.15,1.43,1.57,2.67,3.29,3.72,5.14.45.79.74,1.56,1,2.21s.4,1.28.52,1.77c.1.52.16,1.04.18,1.57Z"/>
    <path class="st7" d="M440.7,386.57c-.01-.12-.01-.24,0-.36v-1.05c0-.92-.07-2.27-.2-4-.36-4.91-1.37-9.76-3-14.41-.49-1.54-1.16-3.02-2-4.4-.94-1.47-2.3-2.63-3.9-3.31-3.35-1.44-7.38-1.25-11.48-1.48l-26.84-1.13c-22.18-1-41.91-1.8-54.31-2.46l.17-.14c-.75,4.56-1.35,8.17-1.76,10.68-.21,1.21-.37,2.15-.49,2.82-.05.3-.1.54-.13.73l-.06.24c0-.08,0-.17,0-.25l.1-.73c.09-.67.23-1.62.4-2.84.38-2.51.92-6.13,1.61-10.7v-.14h.15l54.31,2.26,26.84,1.21c2.06.1,4.07.15,6,.31,1.92.11,3.82.53,5.6,1.26,1.68.71,3.11,1.9,4.1,3.43.85,1.41,1.52,2.92,2,4.5,1.61,4.68,2.56,9.56,2.84,14.5.11,1.74.11,3.1.1,4,0,.44,0,.79,0,1.05-.04.28-.05.41-.05.41Z"/>
    <path class="st7" d="M424.81,321.35c.14,0,.26,8.07.26,18s-.12,18-.26,18-.26-8.07-.26-18,.12-18,.26-18Z"/>
    <path class="st7" d="M263.39,280.28s-.06.23-.2.66-.39,1.08-.6,2c-.49,1.73-1.11,4.31-1.8,7.68-1.39,6.74-3.1,16.6-5,28.94-.95,6.18-2,13-3,20.31-.51,3.67-.83,7.49-1.09,11.45s-.47,8-.63,12.24c-.3,8.41-.48,17.29-.24,26.54.08,2.31.16,4.65.35,7,.06,1.18.26,2.34.4,3.51.21,1.17.5,2.32.85,3.46.71,2.29,1.84,4.44,3.32,6.33,1.49,1.92,3.44,3.43,5.68,4.38h0c4.76,2.33,9.72,4.23,14.83,5.66,5.17,1.55,10.51,2.8,15.93,3.91,11.79,2.43,23.77,3.89,35.8,4.36,5.7.15,11.4,0,17.09-.44,5.57-.39,11-1,16.25-1.75,9.9-1.4,19.66-3.67,29.16-6.78,8.14-2.69,16.03-6.07,23.58-10.12v.33l-32.26-11.47-8.71-3.11-2.25-.82c-.51-.19-.76-.3-.76-.3l.77.25,2.27.77,8.74,3,32.4,11.3.39.13-.36.2c-7.57,4.08-15.47,7.5-23.63,10.21-9.52,3.14-19.3,5.43-29.23,6.85-5.26.79-10.7,1.38-16.28,1.77-5.7.45-11.42.6-17.14.46-12.06-.46-24.07-1.92-35.89-4.36-5.44-1.12-10.79-2.37-16-3.92-5.14-1.45-10.13-3.36-14.92-5.71h0c-2.33-.98-4.37-2.54-5.92-4.54-1.52-1.94-2.67-4.14-3.39-6.5-.36-1.15-.65-2.33-.87-3.52-.15-1.2-.34-2.38-.4-3.56-.19-2.36-.27-4.71-.34-7-.24-9.28,0-18.16.28-26.58.16-4.2.38-8.28.65-12.25.27-4,.6-7.8,1.12-11.47,1-7.35,2.06-14.14,3-20.31,2-12.34,3.74-22.19,5.19-28.92.72-3.37,1.36-5.95,1.88-7.68.22-.87.5-1.51.64-1.94s.34-.65.34-.65Z"/>
    <path class="st0" d="M296.55,365.68c12.31-13.63,11.77-37.86,4.7-55.05-.65,18.62-2.85,35.14-4.53,53.24"/>
    <path class="st7" d="M301.28,314.11c.02.2.02.4,0,.6,0,.45-.06,1-.11,1.7-.12,1.55-.28,3.67-.49,6.25-.44,5.34-1,12.59-1.69,20.61l-1.62,20.62c-.19,2.58-.35,4.7-.47,6.25l-.15,1.69c-.01.2-.04.4-.08.59-.03-.2-.03-.39,0-.59,0-.45,0-1,.05-1.71.05-1.48.16-3.62.3-6.26.31-5.28.81-12.58,1.47-20.63s1.32-15.33,1.85-20.6c.27-2.58.49-4.69.65-6.24.09-.69.16-1.25.21-1.69,0-.2.03-.4.08-.59Z"/>
    <path class="st7" d="M331.62,289.49c.26,3.52.35,7.04.26,10.57.09,3.53,0,7.05-.26,10.57-.14,0-.26-4.74-.26-10.57s.12-10.57.26-10.57Z"/>
    <path class="st0" d="M323.6,324.6c.21,2.04,1,3.99,2.27,5.6,1.16,1.51,3.51,3,5.4,2.87,2.9.15,5.66-1.24,7.27-3.65,2.3-3.66,2.87-11.29,1-15.8-1.27-3.1-4.12-6-7.47-6.07-4.4-.1-7.16,3.08-8.1,6.3"/>
    <path class="st7" d="M323.99,313.85c.15-.76.42-1.49.81-2.16.44-.8.99-1.54,1.65-2.17.88-.84,1.95-1.47,3.12-1.82.68-.21,1.38-.32,2.09-.34.78-.04,1.55.06,2.29.3,1.61.57,3.03,1.59,4.08,2.93,1.19,1.45,2.02,3.17,2.41,5,.42,1.95.56,3.94.44,5.93-.2,3.13-.82,6.25-2.55,8.63-.86,1.12-2.01,1.98-3.32,2.5-1.19.48-2.48.69-3.76.63h0c-.94,0-1.86-.22-2.69-.66-.73-.38-1.4-.86-2-1.42-.94-.94-1.69-2.05-2.2-3.28-.34-.77-.58-1.59-.7-2.43-.03-.22-.05-.44-.06-.66-.01-.08-.01-.15,0-.23.2,1.11.54,2.19,1,3.22.53,1.17,1.29,2.24,2.22,3.13.6.53,1.28.97,2,1.32.77.4,1.63.6,2.5.59h0c2.57.13,5.04-.99,6.65-3,1.61-2.23,2.23-5.3,2.42-8.36.22-4-.45-7.94-2.7-10.6-1.01-1.28-2.35-2.24-3.88-2.79-.69-.23-1.42-.33-2.15-.31-.68,0-1.35.1-2,.29-1.12.32-2.15.9-3,1.69-.65.6-1.22,1.29-1.67,2.05-.37.65-.7,1.33-1,2.02Z"/>
    <path class="st0" d="M321.26,324.8c.21,2.04,1,3.99,2.27,5.6,1.15,1.51,3.51,3,5.4,2.87,2.9.15,5.66-1.24,7.27-3.65,2.3-3.67,2.87-11.29,1-15.8-1.27-3.11-4.12-6-7.47-6.07-3.83-.03-7.18,2.57-8.1,6.29"/>
    <path class="st7" d="M321.65,314.04c.15-.76.42-1.48.81-2.15.44-.8.99-1.54,1.65-2.17,1.4-1.35,3.26-2.12,5.21-2.16.78-.04,1.55.06,2.29.3,1.61.57,3.03,1.59,4.08,2.93,1.19,1.45,2.01,3.16,2.4,5,.42,1.95.57,3.94.45,5.93-.2,3.13-.82,6.24-2.55,8.63-.86,1.12-2.01,1.98-3.32,2.5-1.19.48-2.48.69-3.76.63h0c-.94,0-1.86-.23-2.69-.67-.73-.37-1.4-.85-2-1.41-.95-.94-1.7-2.06-2.2-3.29-.34-.77-.58-1.59-.7-2.42,0-.29-.06-.51-.07-.66-.01-.08-.01-.15,0-.23.2,1.11.54,2.18,1,3.21.53,1.18,1.28,2.25,2.22,3.14.6.53,1.28.97,2,1.32.77.39,1.63.6,2.5.59h0c2.57.12,5.04-.99,6.64-3,1.62-2.24,2.24-5.3,2.43-8.36.22-4-.45-7.94-2.7-10.6-.99-1.29-2.33-2.26-3.85-2.82-.69-.23-1.41-.33-2.14-.31-1.86.03-3.64.74-5,2-.65.6-1.22,1.29-1.67,2.05-.39.65-.73,1.33-1.03,2.02Z"/>
    <path class="st0" d="M325.51,312.92c-2.28-.29-4.47.97-5.37,3.09-.83,2.1-.83,4.43,0,6.53.34,1.09.91,2.09,1.67,2.94.77.86,1.85,1.38,3,1.45,1.69-.1,3.23-1,4.13-2.44,1.57-2.23,2.08-5.03,1.41-7.67-.46-1.74-1.74-3.51-3.53-3.56"/>
    <path class="st7" d="M326.81,313.26h.4c.39.04.76.17,1.09.37,1.19.79,2.01,2.03,2.28,3.44.49,2.05.27,4.21-.62,6.12-.5,1.15-1.27,2.15-2.24,2.94-1.06.91-2.5,1.26-3.86.93-1.31-.42-2.41-1.32-3.08-2.52-.61-1.08-1.05-2.24-1.28-3.46-.51-2.05-.14-4.22,1-6,.82-1.17,2.07-1.97,3.48-2.22.38-.06.77-.06,1.15,0,.25.05.38.09.38.11-.5-.02-1,.01-1.49.09-1.32.31-2.47,1.1-3.22,2.23-1.05,1.72-1.35,3.79-.83,5.73.23,1.16.66,2.27,1.25,3.29.6,1.09,1.6,1.9,2.78,2.28,1.2.29,2.47-.01,3.41-.82.91-.74,1.63-1.68,2.12-2.74.87-1.82,1.11-3.87.69-5.84-.21-1.33-.93-2.53-2-3.35-.43-.28-.91-.48-1.41-.58Z"/>
    <path class="st7" d="M330.55,329.36c-.08,0-.19-.32-.53-.72-.46-.51-1.05-.89-1.71-1.09-.68-.2-1.39-.31-2.1-.33-.55,0-.91-.09-.91-.16s.34-.15.91-.21c.76-.08,1.53-.01,2.26.2.76.22,1.42.71,1.85,1.38.31.52.29.92.23.93Z"/>
    <path class="st7" d="M331.34,311.56s-.16.35-.62.72c-.62.47-1.34.79-2.11.92-.77.14-1.55.1-2.3-.12-.56-.19-.86-.41-.83-.47.99.15,2,.18,3,.08,1-.26,1.96-.64,2.86-1.13Z"/>
    <path class="st7" d="M400.05,239.93s.12,0,.33.12c.31.14.6.29.89.46,1.07.61,2.08,1.32,3,2.14,3.07,2.71,5.31,6.24,6.44,10.18,1.18,3.87,2,7.84,2.45,11.86.18,1.54.27,2.79.33,3.65.05.45.05.9,0,1.35-.11-.44-.19-.88-.22-1.33-.13-.95-.3-2.17-.49-3.62-.55-3.98-1.42-7.91-2.59-11.76-1.11-3.85-3.25-7.33-6.18-10.06-1.24-1.09-2.57-2.09-3.96-2.99Z"/>
    <path class="st7" d="M387.59,350c2.9-.11,5.22-3,8.12-2.84,2.21.19,3.85,2.13,3.66,4.34s-2.13,3.85-4.34,3.66h0c-3.05-.35-4.83-3.92-7.81-4.6"/>
    <path class="st7" d="M412.17,352.47c-.91,0-1.81-.08-2.71-.22l.16-1c3.58.57,6.59,0,8.94-1.75,3-2.17,4.87-6.06,5.67-11.56v-.21c.33-2.18.78-44.95.78-53.07,0-12.69-11.13-14.42-11.61-14.49s-10.57-1.77-15.94,12.08c-5.62,14.51-14.61,42.47-15.2,45.75-.08.4-.19.9-.31,1.47-.94,4.2-2.88,12.93,2.94,17.95,6.49,5.61,11.61,3.44,11.82,3.35l.41.91c-.24.1-5.88,2.55-12.88-3.5-6.28-5.42-4.25-14.54-3.27-18.93.13-.56.23-1,.3-1.43.6-3.3,9.62-31.38,15.26-45.93s16.92-12.73,17-12.7,12.44,1.9,12.44,15.47c0,6.69-.44,50.9-.79,53.22v.2c-.84,5.78-2.88,9.89-6.07,12.23-2.02,1.45-4.45,2.21-6.94,2.16Z"/>
    <path class="st7" d="M425.54,292.85c-.44-1.76-1.14-3.44-2.08-5-1.06-1.64-2.4-3.09-3.95-4.28-1.91-1.44-4.1-2.46-6.43-3-4.28-.94-8.75-.36-12.65,1.65-1.59.87-3.07,1.93-4.41,3.15.06-.11.14-.21.23-.3.23-.29.48-.55.75-.8.97-.93,2.07-1.73,3.25-2.37,3.95-2.16,8.55-2.82,12.95-1.84,2.4.57,4.65,1.64,6.6,3.16,1.59,1.23,2.95,2.75,4,4.47.7,1.15,1.22,2.41,1.54,3.72.09.35.16.72.21,1.08,0,.22,0,.36-.01.36Z"/>
    <path class="st7" d="M451.01,372.79c-.37-1.45-.83-2.87-1.38-4.26-1.42-3.31-3.78-6.14-6.78-8.14-1.68-1.03-3.55-1.71-5.5-2-1.61-.25-3.23-.42-4.85-.5l-3.29-.23c-.4-.01-.81-.06-1.2-.16.4-.05.81-.05,1.21,0l3.3.06c1.64.04,3.28.17,4.9.4,2.02.26,3.97.94,5.71,2,3.09,2.05,5.48,4.99,6.84,8.44.42,1.03.72,2.1.92,3.19.09.39.13.8.12,1.2Z"/>
    <path class="st2" d="M400.56,356.11s9.84-14.89,12.35-16.84,24-11.65,26.49-10.09,1,4.94,1,4.94c0,0,9.08-3.18,10.05-1.93,1.07,1.54,1.07,3.58,0,5.12,0,0,5-.77,5,.78-.04,2.11-1.13,4.07-2.9,5.22-2.32,1.74-17.41,11.78-18.62,14.56l-4.89-.3-28.48-1.46Z"/>
    <path class="st1" d="M428.86,351.84c.11-.33.26-.65.45-.94.48-.81,1.02-1.59,1.62-2.32,2.01-2.4,4.42-4.43,7.13-6,2.69-1.57,5.52-2.91,8.44-4,1.11-.43,2-.75,2.65-1,.32-.13.66-.23,1-.28-.29.2-.6.36-.93.47l-2.59,1.11c-2.86,1.17-5.63,2.53-8.3,4.07-2.66,1.55-5.06,3.5-7.12,5.79-1.56,1.85-2.26,3.15-2.35,3.1Z"/>
    <path class="st1" d="M416.39,351.6c.12-.38.28-.75.48-1.09.34-.69.83-1.68,1.51-2.88.78-1.41,1.69-2.75,2.71-4,.6-.76,1.3-1.45,2.06-2.05.83-.56,1.7-1.08,2.61-1.62,3.08-1.83,6.28-3.43,9.6-4.78,1-.4,2.03-.73,3.08-1,.38-.11.78-.18,1.18-.21,0,.09-1.63.47-4.12,1.59-3.25,1.44-6.42,3.07-9.48,4.89-.9.53-1.77,1.06-2.58,1.59-.74.57-1.41,1.21-2,1.93-1.03,1.22-1.95,2.53-2.76,3.9l-1.66,2.78c-.18.34-.39.66-.63.95Z"/>
  </g>
</svg>