<?xml version="1.0" encoding="UTF-8"?>
<svg id="Layer_1" xmlns="http://www.w3.org/2000/svg" version="1.1" viewBox="0 0 500 500">
  <!-- Generator: Adobe Illustrator 29.5.1, SVG Export Plug-In . SVG Version: 2.1.0 Build 141)  -->
  <defs>
    <style>
      .st0 {
        fill: #e0e0e0;
      }

      .st1 {
        fill: #ebebeb;
      }

      .st2 {
        fill: #4a9288;
      }

      .st3 {
        fill: #263238;
      }

      .st4 {
        fill: #fff;
      }

      .st5 {
        fill: #7f6358;
      }

      .st6 {
        fill: #fafafa;
      }

      .st7 {
        opacity: .4;
      }

      .st8 {
        opacity: .3;
      }

      .st9 {
        fill: #9b7564;
      }

      .st10 {
        fill: #f5f5f5;
      }

      .st11 {
        fill: #455a64;
      }
    </style>
  </defs>
  <g id="freepik--background-complete--inject-34">
    <path class="st1" d="M48.34,99.68l88.07-23.05c.7-.19,1.43.21,1.65.9l17.43,58.46c.21.73-.21,1.49-.93,1.71-.02,0-.04,0-.05,0l-91.5,22.38c-.73.18-1.46-.26-1.64-.98v-.03l-13.98-57.77c-.17-.71.26-1.43.96-1.62h0Z"/>
    <path class="st1" d="M47.07,100.02l34.12-45.71c1.45-1.96,4.08-2.61,6.28-1.56l50.28,23.53"/>
    <polygon class="st6" points="52.5 102.23 47.34 82.5 127.58 62.11 132.91 82.38 101.24 123.83 52.5 102.23"/>
    <path class="st0" d="M52.5,102.2l.9.39,2.59,1.14,9.88,4.35,35.44,15.67h-.09l31.66-41.46v.07c-.75-2.87-1.56-5.93-2.37-8.98-1.01-3.81-1.99-7.58-2.96-11.25l.1.06-80.31,20.34v-.05c1.62,6.23,2.9,11.17,3.78,14.54.44,1.69.77,2.98,1,3.86.12.44.2.77.26,1l.08.34s0-.11-.09-.33l-.27-.99c-.23-.9-.57-2.17-1.02-3.85-.9-3.38-2.18-8.31-3.82-14.55h0l80.24-20.42h.07v.08c.96,3.67,1.96,7.43,2.95,11.24.82,3.09,1.62,6.15,2.37,8.98h0l-31.58,41.5h-.05l-35.44-15.7-9.88-4.39-2.59-1.15s-.85-.43-.85-.43Z"/>
    <path class="st0" d="M110.51,80.03s-8.98,2.44-20.08,5.39c-11.11,2.94-20.11,5.25-20.12,5.21s8.98-2.44,20.07-5.39c11.1-2.94,20.11-5.25,20.13-5.21Z"/>
    <path class="st0" d="M119.88,87.48s-12.13,3.24-27.1,7.18c-14.97,3.94-27.12,7.03-27.14,6.98s12.12-3.24,27.1-7.18c14.98-3.94,27.12-7.03,27.14-6.98Z"/>
    <path class="st0" d="M122.22,96.72s-11.56,3.1-25.85,6.81-25.88,6.75-25.9,6.66,11.56-3.1,25.86-6.81,25.88-6.71,25.89-6.66Z"/>
    <path class="st0" d="M114.11,107.4h-.08l-.23.06-.9.26-3.34.9-11.07,3.01c-4.31,1.17-8.22,2.19-11.06,2.92l-3.36.9-.9.22-.24.05h-.08.08l.23-.06.9-.25,3.35-.9,11.05-2.97c4.31-1.17,8.22-2.19,11.05-2.92l3.37-.85.9-.22.23-.05s.1-.09.1-.09Z"/>
    <path class="st0" d="M105.85,117.8s-2.58.74-5.77,1.55-5.8,1.44-5.81,1.39,2.57-.74,5.77-1.55,5.8-1.44,5.81-1.39Z"/>
    <path class="st0" d="M155.3,137.22c-.09,0-.19,0-.28,0l-.8-.19-3.09-.77-11.32-2.92-16.77-4.39-9.88-2.61-5.24-1.38-1.33-.35c-.45-.12-.9-.24-1.34-.34-.89-.18-1.8-.22-2.69-.12-1.81.21-3.51.99-4.86,2.22l-3.96,3.67-7.41,7.07-12.57,11.95-8.5,8.03-2.33,2.16-.62.56-.22.18s.05-.08.18-.22l.58-.59,2.26-2.2,8.39-8.13,12.52-12.03,7.39-7.09,3.92-3.74c1.42-1.3,3.21-2.13,5.13-2.34.95-.11,1.92-.07,2.86.13.48.11.9.22,1.36.34l1.33.36c1.8.47,3.4,1.4,5.12,1.85,3.43.9,6.86,1.34,10.01,2.17l16.75,4.49,11.28,3.06,3.06.9.8.23c.16.06.25.06.24.06h0Z"/>
    <path class="st1" d="M75.65,242.98c6.05-1.57,10.58-6.59,11.54-12.77,1.43-8.52-3.88-16.51-11.87-17.87s-15.61,4.49-17.06,12.98c-1.14,6.2,1.56,12.48,6.85,15.92-22.8-.3-25.75,24.07-25.75,24.07l52.61,8.89s5.2-24.27-16.32-31.22h0Z"/>
    <rect class="st1" x="332.28" y="69.06" width="93.82" height="63.23" transform="translate(-10.86 142.85) rotate(-21.04)"/>
    <path class="st0" d="M412.17,54.93c-.13.39-.31.75-.51,1.1l-1.62,3.08-6.09,11.23-20.41,37.02-.17.31-.33-.11-.81-.26-40.8-13.04-12.34-4.04-3.34-1.15c-.4-.12-.78-.27-1.15-.45.41.06.81.15,1.2.29l3.39.99,12.42,3.79,40.88,12.81.81.25-.5.21,20.65-36.9,6.28-11.11c.73-1.25,1.31-2.24,1.8-3,.19-.35.4-.69.64-1.01h0Z"/>
    <path class="st0" d="M347.3,147.63c-.22-.08,3.25-10.7,7.76-23.73s8.34-23.52,8.56-23.45-3.25,10.7-7.76,23.73-8.33,23.52-8.56,23.45Z"/>
    <path class="st0" d="M392.45,88.52c.12-.2,9.71,5.32,21.43,12.34,11.72,7.02,21.12,12.87,20.99,13.08s-9.71-5.32-21.43-12.34-21.12-12.87-20.99-13.08Z"/>
    <rect class="st1" x="394.43" y="182.64" width="41.26" height="61.22" transform="translate(154.77 600.56) rotate(-83.29)"/>
    <path class="st0" d="M448.03,196.88c-.2.18-.41.34-.64.48l-1.87,1.28-6.92,4.64-23.07,15.17-.19.13-.16-.16-.39-.4-19.6-19.93c-2.46-2.53-4.49-4.61-5.89-6.09l-1.59-1.67c-.19-.19-.37-.4-.52-.61.22.15.42.33.6.53l1.66,1.6,6.02,5.96,19.75,19.82.39.39h-.35l23.13-15.03,7.02-4.49,1.93-1.19c.22-.17.45-.31.69-.43h0Z"/>
    <path class="st0" d="M382.41,230.7c-.11-.11,5.13-5.19,11.67-11.34s11.97-11.05,12.08-10.94-5.13,5.19-11.67,11.35-11.98,11.05-12.08,10.93Z"/>
    <path class="st0" d="M426.43,210.29c.13-.08,4,6.03,8.63,13.65s8.3,13.83,8.14,13.92-3.99-6.02-8.62-13.64c-4.63-7.61-8.28-13.85-8.15-13.93h0Z"/>
    <path class="st1" d="M429.62,356.88c4.56-2.35,9.92-2.69,14.97-1.8,2.69.45,5.55,1.27,7.4,3.3s2.2,5.63.08,7.39c-1.27,1.04-3.03,1.2-4.67,1.18-3.96-.04-8.35-.74-11.51,1.64-1.8,1.36-3.01,3.59-5.16,4.28-2.22.51-4.51-.5-5.61-2.5-1.03-1.98-1.26-4.28-.64-6.43.51-3.03,2.42-5.65,5.14-7.07h0Z"/>
    <path class="st1" d="M419.19,336.73c2.78,3.98,8.2,2.69,10.71.23s3.59-5.94,4.53-9.3c2.21-7.67,4.43-15.71,2.79-23.51-.4-2.37-1.44-4.59-3.01-6.4-1.62-1.81-4.08-2.63-6.46-2.15-2.69.72-4.43,3.39-5.66,5.93-3.61,7.51-5.5,15.73-5.54,24.06,0,3.87.45,7.94,2.63,11.13"/>
    <path class="st1" d="M411.54,342.44c3.03-3.59,3.59-8.83,2.25-13.31s-4.38-8.32-7.89-11.45c-4.12-3.67-8.91-6.5-14.12-8.33-2.02-.82-4.18-1.19-6.36-1.09-2.2.13-4.19,1.34-5.32,3.23-1.49,2.83-.06,6.28,1.47,9.08,2.72,4.96,5.83,9.69,9.28,14.16,2.78,3.59,5.96,7.12,10.2,8.74s8.65,1.41,10.89-1.55"/>
    <path class="st0" d="M419,396.74c.14-.59.23-1.19.25-1.8.13-1.31.29-2.96.48-4.93.24-2.43.61-4.85,1.1-7.24.65-2.91,1.53-5.76,2.63-8.54,1.08-2.77,2.55-5.37,4.36-7.73,1.47-1.92,3.36-3.48,5.51-4.58,1.46-.73,3.03-1.21,4.64-1.45.6-.03,1.2-.12,1.8-.26-.59-.06-1.2-.06-1.8,0-1.68.13-3.31.55-4.84,1.26-2.27,1.07-4.26,2.65-5.82,4.62-1.88,2.39-3.39,5.05-4.49,7.88-1.12,2.81-1.99,5.71-2.61,8.67-.47,2.42-.79,4.87-.96,7.33-.15,2.1-.22,3.8-.24,4.96-.07.59-.08,1.19-.03,1.79Z"/>
    <path class="st0" d="M419.34,392.94c.05-.28.06-.57.04-.84v-2.4c0-2.08,0-5.09.1-8.81.19-7.44.83-15.45,2.06-26.74,1.18-10.61,2.75-22.97,4.41-30.99.35-1.8.71-3.47,1.05-4.91s.59-2.69.9-3.69.41-1.71.56-2.33c.08-.27.13-.55.14-.83-.12.25-.22.52-.29.79-.18.6-.41,1.36-.7,2.3s-.62,2.23-.99,3.66-.8,3.11-1.22,4.9c-2.06,9.49-3.6,19.08-4.62,28.73-1.25,11.31-1.8,21.61-1.85,29.07-.04,3.73,0,6.74.13,8.83.06.98.11,1.8.15,2.4,0,.29.04.58.13.86h0Z"/>
    <path class="st0" d="M419.38,373.07c.07-.83.07-1.67,0-2.5-.14-2.27-.4-4.54-.76-6.79-.55-3.33-1.28-6.63-2.21-9.88-1.08-4-2.45-7.89-4.13-11.67-2.87-6.98-6.98-13.39-12.15-18.92-.9-.94-1.85-1.82-2.85-2.65-.44-.38-.83-.75-1.22-1.04l-1.11-.76c-.66-.5-1.37-.95-2.11-1.35-.12.16,2.99,1.99,6.91,6.17,4.99,5.57,9,11.94,11.84,18.85,1.64,3.77,3.03,7.64,4.17,11.59,1.08,3.64,1.8,6.98,2.34,9.79s.82,5.12,1,6.72c.04.82.13,1.63.29,2.43h0Z"/>
    <polygon class="st0" points="400.19 408.11 402.18 435.38 437.21 435.38 439.2 408.11 400.19 408.11"/>
    <rect class="st0" x="396.81" y="397.37" width="46.57" height="10.75"/>
    <polygon class="st1" points="396.81 434.34 396.81 437.32 399 437.32 442.61 437.32 442.61 434.34 396.81 434.34"/>
    <polygon class="st0" points="401.14 442.56 399 437.32 440.94 437.32 438.44 442.56 401.14 442.56"/>
    <path class="st10" d="M438.55,417.03c-.05.09-.11.17-.17.25l-.52.69-2.04,2.61-.09.12-.09-.13c-1.28-1.8-3-4.14-5.01-6.93h.29l-4.94,6.98-.15.22-.18-.21c-1.8-2.17-3.8-4.49-5.85-6.97h.34l-.32.41-5.23,6.55-.17.22-.16-.23-4.94-6.98h.29l-6.09,6.93-.11.12-.08-.13-1.9-3.21-.48-.84c-.06-.1-.11-.2-.15-.31,0,0,.08.08.21.27l.54.82,2,3.14h-.2l5.99-7.01.15-.18.13.2,4.98,6.95h-.33l5.22-6.57.32-.4.17-.21.17.21,5.84,6.98h-.33l4.99-6.95.14-.21.14.21,4.9,7.01h-.18l2.13-2.54.57-.66c.13-.16.21-.23.22-.22h0Z"/>
    <path class="st10" d="M439.68,407.93c0,.12-8.77.22-19.6.22s-19.6-.1-19.6-.22,8.77-.22,19.6-.22,19.6.1,19.6.22Z"/>
    <path class="st10" d="M441.46,437.61c0,.13-9.54.22-21.3.22s-21.3-.1-21.3-.22,9.53-.22,21.3-.22,21.3.1,21.3.22Z"/>
  </g>
  <g id="freepik--Device--inject-34">
    <path class="st11" d="M282.02,441.36l-140.05.07c-11.28,0-20.42-9.13-20.43-20.41l-.16-315.49c0-12.86,10.4-23.28,23.25-23.29h0l137.47-.07c11.4,0,20.65,9.25,20.65,20.65l.17,317.65c0,11.54-9.36,20.88-20.9,20.88h0Z"/>
    <path class="st3" d="M124.38,413.73l-.16-303.8c.03-13.69,11.13-24.78,24.82-24.79l125.99-.07c13.72,0,24.84,11.1,24.85,24.81h0l.16,303.81c0,13.72-11.1,24.84-24.81,24.85h0l-125.99.07c-13.72,0-24.84-11.11-24.85-24.83v-.05h0Z"/>
    <path class="st11" d="M199.02,96.4c-1.11,0-2.02-.91-2.02-2.02s.91-2.02,2.02-2.02h25.94c1.11-.07,2.07.77,2.15,1.89s-.77,2.07-1.89,2.15h-26.21,0Z"/>
    <path class="st11" d="M185.11,96.41c-1.11,0-2.02-.9-2.03-2.01,0-1.11.9-2.02,2.01-2.03,1.11,0,2.02.9,2.03,2.01h0c0,1.11-.9,2.01-2.01,2.02h0Z"/>
    <path class="st11" d="M192.53,96.4c-1.11,0-2.02-.9-2.03-2.01,0-1.11.9-2.02,2.01-2.03,1.11,0,2.02.9,2.03,2.01h0c0,1.11-.9,2.01-2.01,2.02h0Z"/>
    <path class="st11" d="M238.98,96.37c-1.11,0-2.02-.91-2.02-2.02s.91-2.02,2.02-2.02,2.02.91,2.02,2.02h0c0,1.11-.9,2.01-2.01,2.01h0Z"/>
    <path class="st11" d="M231.55,96.38c-1.11,0-2.02-.91-2.02-2.02s.91-2.02,2.02-2.02,2.02.91,2.02,2.02h0c0,1.11-.89,2.01-2,2.02h-.02Z"/>
    <path class="st6" d="M276.38,89.2h-24.42c-2.36,0-4.44,1.55-5.12,3.82l-1.99,6.84c-.74,2.54-3.07,4.29-5.72,4.28h-54.1c-2.65,0-4.97-1.74-5.73-4.27l-2-6.84c-.66-2.27-2.76-3.82-5.12-3.82h-24.44c-10.71-.02-19.41,8.65-19.44,19.36l.16,305.8c.04,10.71,8.74,19.37,19.45,19.33h0l128.61-.06c10.71.02,19.41-8.65,19.44-19.36l-.16-305.79c-.05-10.68-8.74-19.31-19.43-19.29Z"/>
    <path class="st11" d="M302.76,160.23h0c.66,0,1.19.54,1.19,1.19v38.9c0,.66-.53,1.19-1.19,1.19h0v-41.29h0Z"/>
    <path class="st11" d="M121.39,185.77h0c-.68,0-1.23.55-1.23,1.23v23.67c0,.68.56,1.23,1.24,1.23h0v-26.13h0Z"/>
    <path class="st11" d="M121.38,151.58h0c-.68,0-1.23.55-1.23,1.23h0v23.67c0,.68.56,1.23,1.24,1.24h0v-26.14h0Z"/>
    <path class="st11" d="M121.37,125.99h0c-.59,0-1.07.48-1.07,1.07h0v10.03c0,.58.48,1.06,1.06,1.06h0v-12.16Z"/>
    <rect class="st4" x="255.13" y="99.15" width="1.25" height="1.75"/>
    <rect class="st4" x="257.16" y="98.37" width="1.25" height="2.52"/>
    <rect class="st4" x="259.19" y="97.79" width="1.25" height="3.11"/>
    <rect class="st4" x="261.21" y="96.66" width="1.25" height="4.24"/>
    <path class="st4" d="M280.87,100.97h-6.28c-.24,0-.44-.19-.45-.43h0v-3.12c0-.24.2-.44.44-.45h6.28c.06,0,.12.05.12.12v1.02h.67c.06,0,.11.04.11.11h0v1.5c0,.06-.05.12-.12.12h-.67v1.02c0,.06-.04.11-.1.12h0ZM280.75,97.2h-6.17c-.12,0-.22.1-.22.22v3.12c0,.12.1.22.22.22h6.14v-1.02c0-.06.04-.11.11-.11h.67v-1.27h-.64c-.06,0-.11-.04-.11-.11v-1.03h0Z"/>
    <polygon class="st4" points="274.89 100.24 274.89 97.72 280.23 97.71 280.23 98.85 280.23 99.1 280.23 100.24 274.89 100.24"/>
    <path class="st4" d="M268.42,100.74c0-.25-.21-.46-.46-.46s-.46.21-.46.46.21.46.46.46.46-.21.46-.46h0Z"/>
    <path class="st4" d="M266.4,99.65l.58.57c.54-.54,1.42-.54,1.96,0l.58-.58c-.41-.41-.98-.65-1.56-.65s-1.15.23-1.56.66Z"/>
    <path class="st4" d="M267.97,97.72c-.92,0-1.82.37-2.48,1.02l.58.58c1.05-1.04,2.74-1.04,3.79,0l.58-.58c-.66-.66-1.54-1.02-2.48-1.02h0Z"/>
    <path class="st4" d="M264.54,97.78l.58.58c.75-.76,1.78-1.19,2.85-1.19s2.09.42,2.85,1.18l.58-.58c-1.89-1.89-4.96-1.89-6.86,0h0Z"/>
    <path class="st2" d="M162.78,174.66c-.05,6.39-5.28,11.53-11.67,11.47s-11.53-5.28-11.47-11.67,5.28-11.53,11.67-11.47,11.53,5.28,11.47,11.67h0Z"/>
    <path class="st3" d="M220.63,165.74c0,.13-10.77.14-23.97,0s-23.98-.3-23.98-.43,10.77-.14,23.98,0,23.98.31,23.97.43h0Z"/>
    <path class="st0" d="M259.76,176.72c0,.13-19.57.07-43.71-.13s-43.71-.47-43.71-.59,19.57-.07,43.72.13c24.15.2,43.7.46,43.7.59Z"/>
    <path class="st0" d="M259.69,185.35c0,.13-19.57.07-43.71-.13-24.14-.2-43.74-.42-43.74-.59s19.56-.07,43.71.13c24.15.2,43.74.46,43.74.59Z"/>
    <path class="st3" d="M285.49,164.08c0,.13-4.24.2-9.45.16s-9.44-.19-9.44-.31,4.23-.2,9.45-.15,9.44.18,9.44.31h0Z"/>
    <path class="st2" d="M233.43,165.22c0,1.2-.99,2.16-2.19,2.15s-2.16-.99-2.15-2.19c0-1.2.99-2.16,2.19-2.15,1.2,0,2.16.99,2.15,2.19h0Z"/>
    <path class="st0" d="M295.14,144.26c0,.13-37.39-.07-83.49-.45s-83.49-.79-83.49-.9,37.38.07,83.49.45c46.11.38,83.5.77,83.49.9Z"/>
    <path class="st0" d="M294.66,204.07c0,.13-37.4-.07-83.49-.45s-83.49-.79-83.49-.9,37.39.07,83.49.45c46.1.38,83.49.77,83.49.9Z"/>
    <circle class="st2" cx="150.23" cy="293.98" r="11.57" transform="translate(-163.87 192.33) rotate(-45)"/>
    <path class="st3" d="M219.65,285.16c0,.13-10.73.14-23.97,0-13.24-.14-23.98-.3-23.98-.43s10.77-.14,23.98,0c13.21.14,23.98.31,23.97.43h0Z"/>
    <path class="st0" d="M258.78,296.12c0,.13-19.57.07-43.71-.13s-43.71-.47-43.71-.59,19.57-.07,43.72.13,43.7.48,43.7.59Z"/>
    <path class="st0" d="M258.71,304.77c0,.13-19.57.07-43.71-.13-24.14-.2-43.71-.47-43.7-.59s19.56-.07,43.71.13c24.15.2,43.7.46,43.7.59Z"/>
    <path class="st3" d="M284.51,283.5c0,.13-4.23.2-9.45.16s-9.44-.19-9.44-.31,4.23-.2,9.45-.15,9.44.18,9.44.31h0Z"/>
    <path class="st2" d="M277.19,295.54l.78,1.62c.13.28.4.48.7.53l1.8.27c.49.02.88.44.86.93,0,.26-.13.51-.35.67l-1.3,1.25c-.22.22-.32.53-.28.83l.3,1.8c.08.52-.28,1.01-.8,1.09-.2.03-.4,0-.58-.1l-1.58-.9c-.28-.15-.62-.15-.9,0l-1.6.83c-.41.27-.97.16-1.25-.25-.14-.22-.19-.49-.11-.75l.32-1.8c.06-.31-.04-.62-.27-.83l-1.27-1.27c-.37-.37-.38-.96,0-1.33.14-.15.34-.24.55-.28l1.8-.24c.31-.04.57-.23.71-.51l.81-1.6c.26-.46.84-.62,1.3-.36.16.09.3.23.38.4h0Z"/>
    <circle class="st2" cx="230.28" cy="284.65" r="2.17" transform="translate(-93.79 455.03) rotate(-78.76)"/>
    <path class="st0" d="M294.16,263.68c0,.13-37.39-.07-83.49-.45-46.1-.38-83.49-.79-83.49-.9s37.38.07,83.49.45c46.11.38,83.5.77,83.49.9Z"/>
    <path class="st0" d="M293.68,323.49c0,.13-36.81-.11-82.23-.54-45.42-.43-82.23-.9-82.23-1.01s36.81.11,82.24.54c45.43.43,82.22.88,82.22,1.01h0Z"/>
    <path class="st0" d="M160.88,407.65c-.05,6.39-5.28,11.53-11.67,11.47-6.39-.05-11.53-5.28-11.47-11.67.05-6.38,5.27-11.52,11.66-11.47,6.39.05,11.54,5.28,11.48,11.67Z"/>
    <path class="st3" d="M218.72,398.74c0,.13-10.77.14-23.98,0-13.21-.14-23.97-.3-23.97-.43s10.77-.14,23.98,0c13.21.14,23.97.31,23.97.43h0Z"/>
    <path class="st0" d="M257.85,409.72c0,.13-19.57.07-43.7-.13s-43.71-.47-43.71-.59,19.57-.07,43.71.13c24.14.2,43.7.46,43.7.59Z"/>
    <path class="st0" d="M257.78,418.34c0,.13-19.57.08-43.7-.12-24.13-.2-43.71-.47-43.71-.59s19.57-.08,43.71.12c24.14.2,43.71.48,43.7.59Z"/>
    <path class="st3" d="M283.56,397.08c0,.13-4.23.2-9.44.15s-9.45-.18-9.45-.31,4.24-.2,9.45-.16,9.44.19,9.44.31h0Z"/>
    <path class="st2" d="M231.49,398.22c0,1.2-.99,2.16-2.19,2.15s-2.16-.99-2.15-2.19c0-1.2.99-2.16,2.19-2.15s2.16.99,2.15,2.19h0Z"/>
    <rect class="st10" x="182.19" y="150.05" width="59.81" height="166.49" transform="translate(-22.93 443.47) rotate(-89.53)"/>
    <circle class="st11" cx="151.07" cy="233.1" r="11.57"/>
    <path class="st3" d="M220.48,224.3c0,.13-10.77.15-23.97.04-13.2-.11-23.98-.31-23.98-.43s10.77-.15,23.98,0,23.97.24,23.97.39Z"/>
    <path class="st0" d="M259.62,235.26c0,.13-19.57.07-43.71-.13-24.14-.2-43.71-.46-43.71-.59s19.57-.07,43.71.13c24.14.2,43.71.47,43.71.59Z"/>
    <path class="st0" d="M259.54,243.89c0,.13-19.57.07-43.71-.13-24.14-.2-43.71-.46-43.71-.59s19.57-.07,43.72.13,43.7.47,43.7.59Z"/>
    <path class="st3" d="M285.36,222.63c0,.13-4.24.2-9.45.15-3.15.05-6.3-.05-9.44-.31,0-.13,4.23-.2,9.45-.15,3.15-.05,6.3.05,9.44.31Z"/>
    <path class="st2" d="M233.28,223.77c0,1.2-.99,2.16-2.19,2.15s-2.16-.99-2.15-2.19c0-1.2.99-2.16,2.19-2.15,1.19.02,2.16,1,2.15,2.19Z"/>
    <rect class="st10" x="182.32" y="269.28" width="59.81" height="166.49" transform="translate(-142.03 561.86) rotate(-89.53)"/>
    <circle class="st11" cx="151.19" cy="352.33" r="11.57" transform="translate(-204.85 210.1) rotate(-45)"/>
    <path class="st3" d="M220.61,343.52c0,.13-10.77.14-23.97,0-13.2-.14-23.98-.3-23.98-.43s10.77-.14,23.98,0c13.21.14,23.97.31,23.97.43h0Z"/>
    <path class="st0" d="M259.74,354.48c0,.13-19.57.07-43.71-.13-24.14-.2-43.71-.47-43.71-.59s19.57-.07,43.71.13,43.71.48,43.71.59Z"/>
    <path class="st0" d="M259.67,363.13c0,.13-19.57.07-43.71-.13s-43.72-.44-43.72-.59,19.57-.07,43.72.13,43.71.46,43.71.59Z"/>
    <path class="st3" d="M285.47,341.86c0,.13-4.24.2-9.45.16s-9.44-.19-9.44-.31,4.23-.2,9.45-.15,9.44.18,9.44.31h0Z"/>
    <path class="st3" d="M278.17,353.9s-.07-.1-.23-.23c-.23-.2-.55-.26-.83-.18-.2.06-.37.19-.48.37-.12.21-.23.48-.36.74s-.27.56-.41.85c-.14.39-.48.66-.9.73l-1.16.17-.61.1c-.4.06-.68.43-.62.83.02.14.09.29.19.4l1.02,1,.27.26c.11.11.2.23.26.37.13.28.15.6.06.9-.09.51-.18,1.03-.27,1.56-.08.38.15.75.53.83.04,0,.09.02.13.02.24,0,.47-.1.66-.23l.76-.4c.26-.15.54-.28.83-.38.33-.06.67.02.95.21l1.44.77c.36.18.8.03.97-.33,0-.02.02-.04.03-.05.06-.21.06-.43,0-.64,0-.25-.07-.5-.12-.75l-.11-.72c-.05-.29,0-.58.15-.83.15-.2.32-.38.51-.54l.49-.46.47-.45c.13-.11.22-.26.25-.43.05-.32-.09-.65-.38-.81-.32-.11-.66-.18-.99-.22l-.9-.16c-.31-.03-.59-.19-.78-.44-.12-.21-.22-.42-.31-.64-.2-.39-.36-.79-.48-1.21.24.36.46.74.65,1.13.1.2.21.4.32.58.16.19.4.31.65.31l.9.13c.35.03.69.1,1.02.21.42.22.66.69.57,1.17-.04.25-.16.48-.34.65l-.47.45-.48.47c-.16.14-.31.3-.44.47-.09.16-.13.35-.09.54.04.24.08.48.13.72s.08.49.13.75c.09.3.09.6,0,.9-.24.61-.92.91-1.54.66-.03,0-.06-.03-.09-.04-.48-.25-.96-.5-1.45-.77-.19-.13-.42-.19-.65-.15-.24.1-.48.21-.71.34l-.75.39-.39.2c-.16.06-.34.1-.51.09-.66-.04-1.16-.59-1.12-1.25,0-.05,0-.11.02-.15.1-.53.2-1.05.29-1.56.07-.2.07-.42,0-.62-.12-.19-.27-.36-.44-.5l-1.02-1.03c-.37-.43-.37-1.08,0-1.51.18-.2.41-.32.67-.37l.62-.08,1.17-.14c.31-.03.58-.23.69-.52l.44-.84c.14-.27.26-.5.4-.74.14-.22.37-.38.62-.43.33-.06.66.04.9.29.24.14.24.27.24.27h0Z"/>
    <path class="st2" d="M233.41,343c0,1.2-.99,2.16-2.19,2.15s-2.16-.99-2.15-2.19c0-1.2.99-2.16,2.19-2.15s2.16.99,2.15,2.19h0Z"/>
  </g>
  <g id="freepik--Character--inject-34">
    <path class="st9" d="M274.41,317.67l-.13,48.25-21.32-4.38-17.96-3.75s24.58,48.48,51.32,48.48,30.19-40.34,30.19-40.34l1.59-48.26h-43.69Z"/>
    <path class="st3" d="M385.17,193.21c-1.96,1.11-4.65-.33-5.55-2.42s-.48-4.49.2-6.68,1.63-4.29,1.8-6.56c.16-4.26-2.48-8.12-6.5-9.52,3.86-3.06,4.17-9.62.63-13.04-1.66-1.6-3.87-2.47-5.8-3.73-1.1-.73-2.12-1.56-3.05-2.49,1.72.42,3.52.48,5.26.16,2.85-.62,5.17-2.66,6.18-5.39.93-2.77.21-5.84-1.87-7.91-2.15-2.01-5.31-2.48-7.95-1.19-2.5,1.32-3.86,4.03-5.07,6.58l-1.13,2.36c-3.51-4.65-6.81-9.45-12.23-11.09-4.91-1.48-10.19.17-15.31-.2-3.73-.28-7.3-1.62-11.02-2.03s-7.95.39-10.14,3.41c-1.29,1.8-1.7,4.08-3,5.84-2.69,3.64-8.49,4.14-10.7,8.08-1.8,3.21-.41,7.27-1.19,10.87-.83,3.91-4.07,6.78-6.71,9.79s-4.95,7.14-3.47,10.85c1.31,3.28,5.13,5.04,6.37,8.33.9,2.41.25,5.07.21,7.64s.98,5.62,3.48,6.2l28.49,7.52c9.81,3.99,19.93,8.08,30.52,8.03s21.9-5.1,26.04-14.83c-1.54-.05-3-.7-4.08-1.8,2.8-1.31,4.86-3.82,5.59-6.82h0Z"/>
    <path class="st3" d="M361.82,202.15c2.35-7.18,4.67-14.5,5.74-22.02s.84-15.37-1.8-22.44c-.4-1.08-3.82-8.32-4.96-8.21-.82.08,1.28,6.83.9,7.55-3.95,6.79-5.03,14.95-4.39,22.79.68,7.6,2.21,15.11,4.55,22.38"/>
    <path class="st9" d="M336.66,265.3c11.78-.25,25.14-26.04,25.14-26.04l.76-66.13c.61-19.04-9.96-35.27-29.01-35.36l-1.8.09c-17.71.97-31.74,15.35-32.24,33.09-.44,16.51-.73,34.76-.14,43.58,1.2,18.24,19.62,20.1,19.62,20.1,0,0,.11,4.24.16,9.61.13,12.05,12.74,21.44,17.46,21.03l.04.03Z"/>
    <path class="st5" d="M319.04,234.65s11.55.06,23.4-8.3c0,0-5.08,13.59-23.39,12.93v-4.62h0Z"/>
    <path class="st3" d="M307.45,185.3c.06,1.43,1.27,2.54,2.69,2.5,1.37.04,2.52-1.05,2.56-2.43v-.05c-.06-1.44-1.26-2.55-2.69-2.5-1.37-.04-2.52,1.05-2.56,2.43v.06h0Z"/>
    <path class="st3" d="M303.88,178.35c.34.32,2.24-1.25,5.05-1.39s4.94,1.16,5.23.79c.13-.15-.22-.75-1.16-1.36-1.26-.78-2.73-1.15-4.2-1.05-1.46.07-2.85.61-4,1.53-.83.75-1.09,1.34-.92,1.48Z"/>
    <path class="st3" d="M332.72,184.63c.06,1.43,1.27,2.54,2.69,2.5,1.37.04,2.52-1.05,2.56-2.43v-.06c-.06-1.41-1.24-2.51-2.65-2.5-1.38-.05-2.55,1.02-2.6,2.41v.09h0Z"/>
    <path class="st3" d="M331.42,178c.34.32,2.24-1.24,5.05-1.38s4.94,1.15,5.23.79c.14-.16-.22-.75-1.16-1.36-1.26-.77-2.73-1.14-4.2-1.05-1.46.07-2.85.61-4,1.53-.82.71-1.08,1.34-.92,1.48Z"/>
    <path class="st3" d="M322.51,200.11c0-.16-1.8-.37-4.61-.57-.72,0-1.4-.14-1.55-.63-.1-.74.03-1.48.37-2.15.6-1.8,1.19-3.65,1.8-5.58,2.53-7.92,4.32-14.43,4-14.53s-2.63,6.28-5.15,14.18c-.6,1.95-1.19,3.82-1.73,5.59-.4.89-.48,1.89-.22,2.84.24.5.7.86,1.24.98.4.09.81.13,1.22.11,2.88,0,4.64-.08,4.65-.24h0Z"/>
    <path class="st3" d="M330.87,201.61c-.46,0-.3,3.04-2.79,5.34s-5.75,2.15-5.75,2.57c0,.2.75.56,2.12.52,1.79-.07,3.49-.77,4.81-1.98,1.27-1.16,2.04-2.77,2.15-4.49.05-1.26-.33-1.99-.54-1.97Z"/>
    <path class="st3" d="M330.96,166.61c.32.75,3.11.24,6.42.46s6.02.98,6.42.27c.18-.34-.32-1.03-1.44-1.71-3-1.68-6.61-1.88-9.78-.55-1.19.55-1.76,1.19-1.62,1.54h0Z"/>
    <path class="st3" d="M304.53,168.95c.53.61,2.43-.15,4.75-.31s4.32.2,4.73-.49c.19-.33-.16-.96-1.05-1.52-2.44-1.35-5.46-1.1-7.64.65-.79.7-1.02,1.36-.79,1.67h0Z"/>
    <path class="st9" d="M361.8,186.76c.31-.15,12.34-4.38,12.62,8.08s-12.34,10.19-12.37,9.88-.25-17.96-.25-17.96Z"/>
    <path class="st5" d="M365.77,199.9c.05,0,.22.14.59.31.52.21,1.1.21,1.62,0,1.31-.51,2.38-2.64,2.4-4.89,0-1.08-.23-2.14-.68-3.11-.25-.78-.88-1.39-1.67-1.63-.52-.13-1.06.14-1.27.63-.16.35-.07.6-.14.62s-.27-.21-.18-.72c.06-.31.23-.59.48-.8.33-.27.76-.4,1.19-.34,1.05.18,1.92.9,2.32,1.89.56,1.07.84,2.26.83,3.47,0,2.52-1.27,4.9-3.06,5.47-.67.22-1.41.11-2-.29-.4-.31-.47-.58-.42-.6h0Z"/>
    <path class="st3" d="M307.4,150.16c-2.04-1.09,3.95-7.72,8.9-10.05,7.47-3.5,18.93-5.75,25.87-3.87,8.38,2.25,15.36,6.28,19.65,13.86,4.29,7.58,5.98,16.37,5.84,25.04-.04,2.65-.28,5.39-1.67,7.67-1.71,2.78-5.04,4.57-4.84,8.39.12,1.39-.34,2.77-1.25,3.83-2.26,2.46-5.09.21-6.4-2.06-2.82-4.87-3.2-10.71-3.51-16.31-.22-3.99-.44-8.08.64-11.9.58-2.09,1.54-4.08,2.01-6.19s.38-4.49-.97-6.24c-.31-.37-.66-.71-1.02-1.01-3.59-3.05-8.55-3.92-12.97-2.3-7.01,2.59-18.99,6.46-22.16,4.11-4.56-3.38-5.67-5.61-5.67-5.61l-2.45,2.66h0Z"/>
    <path class="st3" d="M341.49,134.52c-6.89-2.21-14.72-1.98-21.11,1.44-3.39,1.8-6.45,4.69-7.43,8.39s.65,8.26,4.22,9.66l.25.15c5.39,1.72,8.82.97,14.11-.94,4.49-1.61,8.4-4.42,12.87-6.01,4.79-1.68,9.96-1.89,14.87-.62-4.85-5.37-10.87-9.84-17.78-12.08Z"/>
    <path class="st11" d="M365.26,146.91c-.11.09-1.11-1.1-3.14-2.51-1.19-.83-2.46-1.51-3.8-2.03-1.61-.67-3.34-.99-5.08-.9-3.19.35-6.2,1.6-8.72,3.59-1.94,1.54-2.84,2.83-2.95,2.74s.13-.39.55-.96c.59-.82,1.27-1.56,2.02-2.23,2.52-2.23,5.68-3.62,9.03-3.98,1.87-.11,3.73.22,5.44.97,1.38.58,2.68,1.35,3.86,2.27,2.02,1.62,2.88,2.98,2.79,3.03h0Z"/>
    <path class="st11" d="M366.52,151.34c-.11,1.25-.42,2.46-.95,3.59-2.24,5.6-6.37,10.25-11.67,13.15-1.05.66-2.22,1.11-3.43,1.36-.15-.24,5.25-2.29,9.79-7.48s6.01-10.75,6.27-10.63Z"/>
    <path class="st11" d="M371.61,153.38c.1.47.12.94.04,1.42-.06,1.29-.24,2.58-.54,3.84-1.95,8.55-8.05,15.55-16.25,18.65-1.21.46-2.46.82-3.73,1.06-.46.13-.94.18-1.42.14,0-.14,1.97-.48,4.93-1.8,7.83-3.29,13.7-10.04,15.9-18.24.84-3.07.92-5.07,1.07-5.07h0Z"/>
    <path class="st11" d="M327.17,133.4c0,.14-1.3.45-3.31,1.25-5.28,2.1-9.77,5.8-12.83,10.58-.57,1.03-1.19,2.04-1.86,3.01.24-1.18.69-2.3,1.35-3.31,1.44-2.53,3.32-4.79,5.57-6.63s4.81-3.27,7.58-4.18c1.12-.44,2.31-.68,3.51-.7Z"/>
    <path class="st11" d="M375.54,134.97c.21,0-.34,3.59-3.17,6.96s-6.28,4.53-6.28,4.33,3.03-1.67,5.66-4.87,3.54-6.5,3.79-6.42h0Z"/>
    <path class="st9" d="M242.68,358.19l7.42-4.55c1.26-.76,2.7-1.18,4.17-1.18h14.36l14.83,13.51,4.43,2.21-1.65,23.34-9.64-1.19s-20.59.9-22.58-.44-4.87-5.54-4.87-5.54c0,0-11.29-3.65-12.39-4.64-4.19-3.76-2.5-4.66-2.5-4.66l-1.93-.9c-.36.68-3.17-3.9-2.87-6.19.17-1.34-.22-1.33-.22-1.33-1.89-1.09-3.21-2.95-3.59-5.11-.21-1.36,5.39-.39,5.39-.39l13.94.19-2.28-3.14h0Z"/>
    <path class="st11" d="M255.07,361.02l-13.12-17.86c-.96-1.32-2.5-2.09-4.13-2.09h-25.93c-1.04,0-1.89.84-1.89,1.89h0c0,.45.17.89.46,1.23l14.86,17.24h0l29.74-.4h0Z"/>
    <path class="st5" d="M248.72,368.33c-.95.26-1.94.39-2.93.39-4.75.28-9.52-.13-14.15-1.22-.98-.18-1.92-.48-2.82-.9.98.06,1.96.22,2.91.44,1.8.31,4.25.7,6.99.9s5.24.29,7.05.28c.99-.04,1.97,0,2.94.12h0Z"/>
    <path class="st5" d="M252.44,376.15c-.95.25-1.94.39-2.93.39-2.37.14-4.75.11-7.12-.1-2.37-.21-4.72-.57-7.04-1.12-.97-.17-1.91-.48-2.81-.9.98.06,1.96.22,2.91.44,1.8.31,4.25.7,6.99.9s5.24.29,7.05.28c.99-.04,1.97,0,2.94.12Z"/>
    <path class="st5" d="M225.66,361.53c.11.56.25,1.1.43,1.63.59,1.48,1.73,2.67,3.18,3.32l.1.04v.11c-.04,1.58.31,3.14,1.01,4.56.86,1.74,2.29,3.14,4.05,3.97l.24.11-.12.22c-.27.57-.27,1.23,0,1.8.31.6.75,1.13,1.27,1.55,1.19.92,2.49,1.66,3.88,2.23,3.07,1.27,6.26,2.27,9.51,2.98h.13l.06.11c.83,1.2,1.81,2.31,2.92,3.27,1.06,1.05,2.37,1.83,3.81,2.25,1.1.27,2.24.39,3.38.34l3.41.09,6.58.18,11.85.33h.04l14.12,2.88,3.92.84,1.02.24c.13.02.24.05.35.11-.12.02-.24.02-.36,0l-1.04-.16-3.96-.7-14.17-2.69h.04l-11.85-.25-6.57-.15-3.42-.08c-1.19.04-2.38-.09-3.54-.38-1.53-.45-2.93-1.27-4.06-2.39-1.14-1-2.15-2.15-3.01-3.4l.19.13c-3.29-.72-6.5-1.75-9.6-3.06-1.43-.59-2.77-1.38-4-2.33-.6-.48-1.08-1.1-1.41-1.8-.31-.7-.3-1.51.05-2.19l.13.33c-1.85-.89-3.35-2.39-4.24-4.24-.7-1.48-1.03-3.12-.96-4.76l.1.15c-1.52-.71-2.68-2-3.21-3.59-.2-.52-.29-1.07-.29-1.62h0Z"/>
    <path class="st5" d="M256.69,383.02c.07.14-1.67,1.03-4.03,1.35s-4.26-.08-4.24-.23,1.89-.08,4.16-.4,4.05-.89,4.11-.72Z"/>
    <path class="st5" d="M263.35,360.99c0,.17-2.85.41-6.38.55s-6.4.09-6.4-.09,2.85-.41,6.38-.55,6.4-.09,6.4.09Z"/>
    <path class="st5" d="M287.61,366.27s-.27.26-.9.36c-.9.1-1.81-.11-2.59-.57-1.09-.71-2.1-1.52-3.03-2.42l-3.54-3.1-6.46-5.56c-.94-.72-1.81-1.52-2.62-2.38,1.03.58,2,1.27,2.9,2.04,1.73,1.33,4.08,3.23,6.61,5.39,1.26,1.1,2.44,2.15,3.5,3.13.89.91,1.84,1.73,2.86,2.48.69.46,1.5.71,2.33.72.59,0,.91-.13.92-.08h0Z"/>
    <path class="st3" d="M252.31,361.4c-.13-.12-.25-.24-.35-.39l-.9-1.15-3.41-4.3-4.92-6.41-2.89-3.79c-.51-.62-1.19-1.09-1.94-1.36-.39-.13-.79-.22-1.2-.24h-1.29l-17.96-.07-5.45-.07h-1.48c-.17,0-.35,0-.52-.04.17-.04.35-.05.52-.04l1.48-.04,5.45-.08,17.96-.06h1.33c.45.03.9.13,1.32.27.83.3,1.57.82,2.14,1.51l2.88,3.82,4.84,6.47c1.34,1.8,2.43,3.29,3.23,4.39.35.48.63.9.9,1.2.11.12.2.25.27.4h0Z"/>
    <path class="st10" d="M224.11,346.3c.47-.36,1.14-.27,1.5.2s.27,1.14-.2,1.5c-.46.35-1.12.28-1.48-.18-.35-.46-.29-1.1.14-1.48"/>
    <path class="st2" d="M363.08,234.06l36.52,21.47,6.72,118.51,8.73,67.05h-131.25s1.45-81.6,1.89-106.28c.32-17.3-.14-50.83,5.71-71.45,2.5-8.79,26.93-20.15,26.93-20.15,13.39,11.82,28.35,8.3,44.75-9.14Z"/>
    <path class="st4" d="M411.19,411.45c0,.13-28.33.23-63.29.23s-63.29-.11-63.29-.23,28.33-.23,63.29-.23,63.29.1,63.29.23Z"/>
    <g class="st8">
      <path d="M284.52,391.29c10.16,8.52,25.95,13.13,38.95,15.76,13,2.63,26.28,3.59,39.31,5.98,9.11,1.7,18.67,4.09,27.46,1.13,8.93-3.17,15.2-11.27,16.03-20.71.13-.63,0-1.28-.4-1.8-.53-.4-1.2-.57-1.86-.45-39.24,1.74-80.8,1.5-119.51.05"/>
    </g>
    <path class="st9" d="M277.57,366.73h91.72l.45-48.33,42.32-5.46s.19,49.08.19,65.18c0,19.32-16.7,32.75-30.72,30.69s-103.95-18.85-103.95-18.85v-23.23Z"/>
    <path class="st2" d="M414.99,322.98l-49.32,5.13v-57.87s4.85-19.55,21.89-18.74c17.04.82,27.08,19.25,27.44,36.15.36,16.91,0,35.33,0,35.33Z"/>
    <path class="st2" d="M296.61,256.56s-15.81,10.41-20.05,21.89c-4.44,12.04-10.68,51.04-10.68,51.04h22.17l8.56-72.93h0Z"/>
    <path class="st3" d="M365.26,272.53c.06.7.06,1.41,0,2.11-.04,1.46-.11,3.4-.18,5.75-.14,4.85-.3,11.55-.28,18.96s.22,14.11.4,18.96c.09,2.35.16,4.29.22,5.75.05.7.05,1.41,0,2.11-.14-.69-.22-1.39-.25-2.1-.13-1.35-.28-3.31-.42-5.74-.3-4.86-.56-11.56-.58-18.99s.2-14.13.47-18.99c.13-2.42.26-4.38.38-5.74.03-.71.12-1.41.25-2.1Z"/>
    <path class="st3" d="M390.09,252.43c0,.13-1.65-.31-4.33-.27-7.1.07-13.57,4.05-16.86,10.34-1.25,2.36-1.6,4.01-1.71,3.99,0-.4.07-.79.2-1.17.27-1.04.65-2.06,1.12-3.02,3.17-6.62,9.92-10.76,17.26-10.59,1.08.02,2.15.14,3.21.37.39.05.77.18,1.12.35h0Z"/>
    <path class="st3" d="M286.46,283.82c.04.22.06.43.06.66,0,.5,0,1.12.05,1.88,0,1.62.05,3.98.05,6.89,0,5.82-.09,13.85-.26,22.72-.17,8.87-.34,16.82-.46,22.71-.05,2.84-.1,5.17-.13,6.89,0,.75-.05,1.37-.07,1.88,0,.22,0,.43-.06.65-.04-.22-.07-.43-.06-.65,0-.5,0-1.12-.05-1.88,0-1.62-.05-3.98-.05-6.89,0-5.82.09-13.85.26-22.73.17-8.88.33-16.82.45-22.7.06-2.85.11-5.17.14-6.89,0-.75.05-1.37.06-1.88,0-.22.02-.44.07-.66h0Z"/>
    <path class="st4" d="M285.89,303.2c-2.5.22-5,.27-7.51.17-2.5.05-5.01-.04-7.51-.31,2.5-.22,5-.27,7.51-.17,2.5-.06,5.01.04,7.51.31Z"/>
    <path class="st4" d="M364.41,289.84c0,.13-17.06.23-38.02.23s-38.04-.11-38.04-.23,17.06-.23,38.04-.23,38.02.08,38.02.23Z"/>
    <path class="st4" d="M413.93,281.92c-.17.02-.33.02-.5,0l-1.42-.12-5.21-.45c-4.41-.37-10.5-.77-17.23-.96-6.73-.19-12.84-.11-17.26,0l-5.23.16h-1.42c-.17.03-.33.03-.5,0,.16-.04.32-.06.49-.07l1.42-.13c1.24-.1,3.02-.21,5.23-.31,4.42-.21,10.52-.32,17.27-.14,6.75.18,12.85.65,17.25,1.1,2.2.22,3.98.43,5.2.6l1.41.2c.17.02.33.06.49.13Z"/>
    <path class="st4" d="M414.39,316.21c0,.13-11.14,0-24.87-.32s-24.88-.67-24.87-.8,11.13,0,24.88.33c13.74.33,24.86.66,24.86.79h0Z"/>
    <path class="st4" d="M369.58,261.01c0,.13-17.58.23-39.26.23s-39.26-.1-39.26-.23,17.58-.23,39.26-.23,39.26.11,39.26.23Z"/>
    <path class="st4" d="M364.67,326.25c0,.13-17.63.23-39.39.23s-39.39-.11-39.39-.23,17.63-.23,39.39-.23,39.39.1,39.39.23Z"/>
    <path class="st4" d="M370.32,355.05c0,.13-19.18.23-42.82.23s-42.83-.11-42.83-.23,19.18-.23,42.83-.23,42.82.1,42.82.23Z"/>
    <path class="st4" d="M413.67,438.09c0,.13-28.92.23-64.58.23s-64.58-.11-64.58-.23,28.91-.23,64.58-.23,64.58.12,64.58.23Z"/>
    <g class="st8">
      <path d="M365.07,328.65c-.57-11.44-.16-22.14-.75-33.57-3.9,16.77-5.74,33.95-5.48,51.17.06,4.08.26,8.24,1.58,12.11s4.97,7.18,8.71,8.83l.36-39.04c-1.68.13-2.74.41-4.43.49h0Z"/>
    </g>
  </g>
  <g id="freepik--Plant--inject-34">
    <polygon class="st2" points="110.94 398.9 104.46 441.43 66.85 441.43 58.13 399.51 110.94 398.9"/>
    <path class="st6" d="M63.39,426.16c0,.13,9.63.22,21.55.22s21.55-.1,21.55-.22-9.63-.22-21.55-.22-21.55.1-21.55.22Z"/>
    <path class="st6" d="M63.25,424.07c0,.13,9.7.22,21.66.22s21.66-.1,21.66-.22-9.7-.22-21.66-.22-21.66.1-21.66.22Z"/>
    <path class="st6" d="M63.32,421.71c0,.13,9.7.22,21.66.22s21.66-.1,21.66-.22-9.7-.22-21.66-.22-21.66.1-21.66.22Z"/>
    <path class="st6" d="M100.14,439.01c.52-1.76.91-3.56,1.15-5.39.39-1.79.63-3.61.72-5.43-.53,1.76-.92,3.56-1.15,5.39-.39,1.79-.63,3.6-.72,5.43Z"/>
    <path class="st6" d="M97.59,438.56c.25-1.73.41-3.47.47-5.23.19-1.74.27-3.49.24-5.24-.41,1.71-.64,3.46-.68,5.21-.2,1.75-.21,3.51-.03,5.26h0Z"/>
    <path class="st6" d="M92.92,438.56c.88-3.52,1.3-7.15,1.27-10.77-.34,1.78-.58,3.58-.73,5.39-.28,1.79-.46,3.58-.54,5.39Z"/>
    <path class="st6" d="M89.64,438.78c.57-3.61.69-7.28.35-10.92-.2,1.81-.29,3.64-.27,5.46-.13,1.81-.16,3.64-.08,5.46h0Z"/>
    <path class="st6" d="M83.85,438.56c.29-1.71.42-3.44.4-5.17.13-1.72.11-3.46-.05-5.18-.27,1.71-.4,3.44-.4,5.17-.13,1.72-.11,3.46.04,5.18Z"/>
    <path class="st6" d="M79.62,438.78c.22-1.79.27-3.59.18-5.39.06-1.79-.03-3.57-.27-5.34-.2,1.79-.26,3.59-.17,5.39-.06,1.79.03,3.57.26,5.34Z"/>
    <path class="st6" d="M75.65,438.21c.04-1.87-.06-3.73-.32-5.58-.11-1.87-.36-3.72-.75-5.54-.04,1.87.06,3.73.32,5.58.11,1.87.36,3.72.75,5.54Z"/>
    <path class="st6" d="M70.54,437.65c0-1.61-.22-3.2-.63-4.75-.27-1.58-.75-3.12-1.4-4.58.24,1.57.57,3.13.97,4.68.26,1.57.62,3.12,1.06,4.65h0Z"/>
    <path class="st3" d="M74.16,314.98c0,.07,0,.14,0,.22,0,.16.1.36.17.6.18.56.41,1.32.72,2.29s.71,2.22,1.1,3.64.9,3.03,1.36,4.85,1,3.78,1.46,5.93.96,4.43,1.45,6.85c.9,4.85,1.72,10.21,2.3,15.86s.81,11.09.9,16.03c0,2.46,0,4.8-.06,7s-.16,4.23-.27,6.1-.25,3.54-.37,5.02-.24,2.75-.37,3.79-.19,1.8-.24,2.39c0,.25-.02.46-.05.62v.22c.03-.06.04-.13.05-.21,0-.16.05-.37.1-.62.07-.57.19-1.37.32-2.38s.31-2.31.44-3.78.33-3.16.44-5.03.26-3.91.31-6.1.1-4.54.12-7.02c-.05-4.94-.3-10.38-.9-16.05s-1.42-11.05-2.34-15.91c-.5-2.42-.95-4.72-1.49-6.86s-1.02-4.12-1.52-5.92-1-3.42-1.43-4.84-.83-2.64-1.18-3.59-.6-1.71-.79-2.27c-.09-.23-.16-.43-.22-.58,0-.08,0-.15-.03-.23h0Z"/>
    <path class="st3" d="M80.95,341.31c-1.03-3.07-3.11-5.68-5.85-7.39-.9-.57-2.1-1.04-3.09-.57-1.31.64-1.42,2.48-1.02,3.89.68,2.39,2.21,4.45,4.29,5.8,1.83,1.36,4.13,1.94,6.38,1.61"/>
    <path class="st3" d="M83.23,359.09c-.97-3.67-3.9-8.89-6.94-11.17-.47-.38-1.01-.66-1.58-.83-.58-.18-1.22-.04-1.69.36-.53.7-.66,1.62-.38,2.44,1.27,5.46,5.52,9.73,10.97,11.04"/>
    <path class="st3" d="M83.86,374.74c-1.51-3.5-3.92-6.54-7-8.8-.66-.62-1.54-.94-2.44-.9-1.33.23-1.93,1.86-1.8,3.21.24,2.77,2.36,4.99,4.54,6.71,2,1.39,4.17,2.5,6.47,3.33"/>
    <path class="st3" d="M83.51,386c-1.46-2.68-3.49-4.99-5.96-6.79-.53-.4-1.14-.67-1.8-.8-.67-.14-1.37.12-1.8.66-.6.9,0,2.06.61,2.92,2.1,2.93,5.08,5.11,8.5,6.23"/>
    <path class="st3" d="M83.8,381.41c2.57-3.14,5.42-6.05,8.53-8.66.42-.48,1.06-.73,1.7-.64.47.19.77.64.78,1.14,0,.49-.11.98-.32,1.43-2.06,4.58-6.1,7.97-10.97,9.22"/>
    <path class="st3" d="M83.53,366.79l6.7-8.16c.59-.82,1.33-1.52,2.17-2.06.88-.53,1.98-.53,2.85,0,.79.66,1.13,1.7.9,2.69-.24.98-.68,1.9-1.31,2.69-1.3,1.98-2.94,3.71-4.86,5.1-1.97,1.36-3.75,2.24-6.11,1.89"/>
    <path class="st3" d="M82.6,350.3c1.31-3.91,3.63-7.4,6.73-10.11.49-.49,1.11-.85,1.8-1.02,1.41-.11,2.69.79,3.07,2.15.43,1.5.22,3.11-.61,4.43-.82,1.31-1.89,2.44-3.14,3.33-2.25,1.72-4.77,3.08-7.44,4.02"/>
    <path class="st3" d="M79.93,335.63c.65-4.73,3.11-8.67,5.96-12.5.6-.81,1.45-1.66,2.43-1.51.64.13,1.17.58,1.4,1.19.22.6.31,1.25.26,1.89-.25,5.86-3.99,11.01-9.48,13.05"/>
    <path class="st3" d="M78.05,328.09c.31-2.42.4-4.87.24-7.31-.15-2.45-1-4.81-2.42-6.81-.6-.86-1.43-1.53-2.39-1.94-1-.4-2.13-.25-2.98.4-.72.67-1.1,1.64-1.02,2.63.09.97.34,1.92.75,2.8,1.8,4.29,4.76,9.04,7.86,10.23"/>
    <path class="st3" d="M107.21,333.72c-.02.2-.02.4,0,.6v1.71c0,.71,0,1.66-.04,2.69s0,2.26-.13,3.59c-.12,2.69-.38,5.82-.78,9.32s-1.09,7.33-1.9,11.32-1.8,7.72-2.85,11.1-2.07,6.36-3.03,8.84c-.45,1.25-.9,2.36-1.32,3.34s-.75,1.8-1.06,2.5l-.66,1.58c-.09.18-.16.37-.22.57.12-.17.22-.34.3-.53.19-.4.43-.9.75-1.54s.71-1.5,1.12-2.48.9-2.07,1.39-3.32c1-2.48,2.06-5.48,3.12-8.84s2.04-7.14,2.89-11.12,1.41-7.83,1.8-11.34.61-6.68.68-9.35c.07-1.33.05-2.54.06-3.59s0-1.98,0-2.69,0-1.27-.06-1.71c0-.22,0-.43-.05-.64h0Z"/>
    <path class="st3" d="M106.16,353.12c-.04-2.31-.89-4.52-2.39-6.28-.45-.66-1.19-1.05-1.98-1.05-1.03.15-1.5,1.38-1.54,2.42-.05,1.77.53,3.49,1.65,4.87.95,1.32,2.39,2.2,4,2.47"/>
    <path class="st3" d="M103.89,365.72c.13-2.69-.75-6.89-2.33-9.09-.23-.36-.54-.66-.9-.9-.37-.24-.83-.28-1.23-.11-.51.35-.81.95-.78,1.57-.31,3.99,1.66,7.81,5.09,9.88"/>
    <path class="st3" d="M100.94,376.51c-.27-2.71-1.26-5.31-2.86-7.51-.32-.56-.86-.95-1.48-1.11-.95-.13-1.71.85-1.92,1.8-.43,1.93.53,3.9,1.64,5.54,1.07,1.37,2.31,2.6,3.69,3.66"/>
    <path class="st3" d="M98.29,384.11c-.42-2.14-1.31-4.15-2.59-5.9-.28-.38-.64-.68-1.05-.9-.43-.22-.94-.19-1.34.08-.59.47-.46,1.39-.21,2.11.81,2.45,2.38,4.58,4.49,6.08"/>
    <path class="st3" d="M99.52,381.05c2.42-1.59,4.99-2.95,7.67-4.07.39-.24.88-.27,1.29-.07.26.22.37.57.29.9-.11.33-.29.65-.53.9-2.39,2.68-5.87,4.12-9.45,3.92"/>
    <path class="st3" d="M102.43,371.02c2.11-1.36,4.2-2.74,6.28-4.11.58-.42,1.24-.73,1.93-.9.91-.31,1.89.16,2.21,1.07.18.52.1,1.1-.22,1.55-.38.61-.88,1.14-1.47,1.54-1.32,1.09-2.82,1.93-4.44,2.48-1.45.62-3.11.62-4.56,0"/>
    <path class="st3" d="M105.35,359.6c1.73-2.38,4.07-4.26,6.76-5.44.44-.22.92-.33,1.42-.31.98.22,1.66,1.12,1.62,2.13-.03,1.11-.53,2.15-1.37,2.88-.83.72-1.8,1.26-2.85,1.59-1.9.69-3.91,1.07-5.93,1.13"/>
    <path class="st3" d="M106.7,349.01c1.45-3.08,3.98-5.23,6.74-7.23.52-.51,1.28-.7,1.98-.5.4.22.67.65.7,1.11.02.46-.05.92-.23,1.35-1.44,3.93-5.08,6.63-9.27,6.85"/>
    <path class="st3" d="M107.04,343.5c.73-1.59,1.31-3.23,1.73-4.93.43-1.71.37-3.49-.18-5.16-.24-.7-.66-1.32-1.24-1.8-.59-.48-1.39-.63-2.12-.38-.64.31-1.1.88-1.26,1.57-.15.67-.19,1.37-.09,2.06.29,3.3,1.29,7.18,3.15,8.67"/>
    <path class="st11" d="M59.66,333.31c0,.2,0,.4,0,.6,0,.44-.04,1.01-.06,1.71s-.05,1.66,0,2.69,0,2.27.06,3.59c.08,2.69.31,5.84.68,9.35s1.01,7.35,1.8,11.34,1.85,7.75,2.88,11.12,2.13,6.37,3.13,8.84c.48,1.25.97,2.34,1.39,3.32s.79,1.8,1.12,2.48l.75,1.54c.08.19.17.37.29.53-.05-.2-.13-.39-.21-.57l-.71-1.54c-.31-.68-.66-1.52-1.05-2.5s-.9-2.09-1.33-3.34c-.96-2.49-1.99-5.49-3.03-8.84s-2-7.12-2.85-11.09-1.42-7.8-1.86-11.29-.66-6.66-.77-9.35c-.09-1.33-.1-2.53-.13-3.59s0-1.98,0-2.69v-1.71c0-.21-.04-.4-.1-.6h0Z"/>
    <path class="st11" d="M60.71,352.68c.04-2.31.89-4.53,2.4-6.28.44-.66,1.19-1.05,1.98-1.05,1.03.15,1.5,1.38,1.54,2.42.07,1.79-.51,3.53-1.64,4.91-.96,1.32-2.4,2.21-4,2.47"/>
    <path class="st11" d="M62.99,365.31c-.13-2.69.75-6.89,2.33-9.09.23-.36.54-.66.9-.9.36-.24.83-.28,1.22-.11.51.35.81.95.78,1.57.31,4-1.66,7.81-5.09,9.88"/>
    <path class="st11" d="M65.93,376.1c.28-2.71,1.27-5.31,2.87-7.51.32-.56.85-.95,1.47-1.11.96-.13,1.71.85,1.93,1.8.43,1.93-.53,3.91-1.65,5.54-1.07,1.37-2.31,2.61-3.69,3.66"/>
    <path class="st11" d="M68.6,383.68c.42-2.12,1.3-4.13,2.59-5.86.28-.37.63-.68,1.04-.9.43-.22.94-.19,1.34.08.59.47.47,1.4.22,2.11-.82,2.45-2.39,4.58-4.49,6.08"/>
    <path class="st11" d="M67.41,380.63c-2.42-1.59-5-2.95-7.68-4.07-.39-.24-.88-.27-1.29-.07-.27.23-.38.6-.28.94.1.33.28.65.52.9,2.39,2.68,5.87,4.12,9.45,3.92"/>
    <path class="st11" d="M64.44,370.64l-6.28-4.11c-.57-.41-1.23-.72-1.92-.9-.71-.19-1.46.04-1.95.59-.4.61-.42,1.4-.04,2.03.37.59.86,1.1,1.44,1.49,1.32,1.09,2.82,1.93,4.44,2.48,1.46.62,3.11.62,4.57,0"/>
    <path class="st11" d="M61.52,359.18c-1.73-2.38-4.07-4.26-6.76-5.44-.44-.22-.92-.33-1.41-.31-.99.22-1.67,1.12-1.63,2.13.03,1.11.53,2.15,1.37,2.88.83.72,1.8,1.26,2.85,1.59,1.9.69,3.91,1.07,5.93,1.13"/>
    <path class="st11" d="M60.18,348.6c-1.46-3.08-3.99-5.23-6.75-7.23-.52-.51-1.28-.7-1.98-.5-.4.23-.66.65-.69,1.11-.03.46.05.92.22,1.35,1.44,3.93,5.08,6.63,9.27,6.85"/>
    <path class="st11" d="M59.84,343.09c-.74-1.58-1.32-3.23-1.74-4.93-.42-1.71-.36-3.49.19-5.16.22-.73.66-1.37,1.24-1.86.59-.48,1.39-.63,2.11-.38.64.31,1.1.88,1.27,1.57.14.68.18,1.37.09,2.06-.3,3.31-1.29,7.18-3.15,8.67"/>
    <path class="st2" d="M115.24,390.48v7.99c0,1.73-1.4,3.13-3.13,3.13h-54.45c-1.73,0-3.13-1.4-3.13-3.13v-7.99h60.72Z"/>
    <g class="st7">
      <polygon points="110.52 401.57 110.07 404.1 59.83 407.68 58.56 401.57 110.52 401.57"/>
    </g>
  </g>
</svg>