<?xml version="1.0" encoding="UTF-8"?>
<svg id="Layer_1" xmlns="http://www.w3.org/2000/svg" version="1.1" viewBox="0 0 500 500">
  <!-- Generator: Adobe Illustrator 29.5.1, SVG Export Plug-In . SVG Version: 2.1.0 Build 141)  -->
  <defs>
    <style>
      .st0 {
        fill: #e0e0e0;
      }

      .st1 {
        fill: #ebebeb;
      }

      .st2 {
        fill: #4a9288;
      }

      .st3 {
        fill: #263238;
      }

      .st4 {
        fill: #fff;
      }

      .st5 {
        fill: #7f6358;
      }

      .st6 {
        fill: #fafafa;
      }

      .st7 {
        opacity: .4;
      }

      .st8 {
        opacity: .3;
      }

      .st9 {
        fill: #9b7564;
      }

      .st10 {
        fill: #f5f5f5;
      }

      .st11 {
        fill: #455a64;
      }
    </style>
  </defs>
  <g id="freepik--background-complete--inject-34">
    <path class="st1" d="M36,90.19l98.1-25.68c.78-.21,1.59.23,1.84,1l19.42,65.12c.23.81-.23,1.66-1.04,1.9-.02,0-.04.01-.06.01l-101.92,24.93c-.81.2-1.63-.29-1.83-1.09,0,0,0-.02,0-.03l-15.57-64.35c-.19-.79.29-1.59,1.07-1.81Z"/>
    <path class="st1" d="M34.58,90.57l38-50.91c1.62-2.18,4.55-2.91,7-1.74l56,26.21"/>
    <polygon class="st6" points="40.63 93.03 34.88 71.05 124.26 48.34 130.2 70.92 94.92 117.09 40.63 93.03"/>
    <path class="st0" d="M40.63,93l1,.43,2.89,1.27,11,4.85,39.48,17.45h-.1l35.27-46.18v.08c-.84-3.2-1.74-6.61-2.64-10-1.12-4.24-2.22-8.44-3.3-12.53l.11.07-89.45,22.66v-.06c1.8,6.94,3.23,12.44,4.21,16.2.49,1.88.86,3.32,1.11,4.3.13.49.22.86.29,1.11l.09.38s0-.12-.1-.37l-.3-1.1c-.26-1-.64-2.42-1.14-4.29-1-3.76-2.43-9.26-4.26-16.21h0l89.38-22.75h.08v.09c1.07,4.09,2.18,8.28,3.29,12.52.91,3.44,1.8,6.85,2.64,10h0l-35.18,46.22h-.06l-39.48-17.49-11-4.89-2.88-1.28-.95-.48Z"/>
    <path class="st0" d="M105.25,68.3s-10,2.72-22.37,6-22.4,5.85-22.41,5.8,10-2.72,22.36-6,22.4-5.85,22.42-5.8Z"/>
    <path class="st0" d="M115.68,76.6c0,.05-13.51,3.61-30.19,8s-30.21,7.83-30.23,7.78,13.5-3.61,30.19-8,30.21-7.83,30.23-7.78Z"/>
    <path class="st0" d="M118.29,86.89s-12.88,3.45-28.79,7.59-28.83,7.52-28.85,7.42,12.88-3.45,28.8-7.59,28.83-7.47,28.84-7.42Z"/>
    <path class="st0" d="M109.26,98.79h-.09l-.26.07-1,.29-3.72,1-12.33,3.35c-4.8,1.3-9.16,2.44-12.32,3.25l-3.74,1-1,.25-.27.06h-.09.09l.26-.07,1-.28,3.73-1,12.31-3.31c4.8-1.3,9.16-2.44,12.31-3.25l3.75-.95,1-.25.26-.06.11-.1Z"/>
    <path class="st0" d="M100.06,110.37s-2.87.82-6.43,1.73-6.46,1.6-6.47,1.55,2.86-.82,6.43-1.73,6.46-1.6,6.47-1.55Z"/>
    <path class="st0" d="M155.14,132c-.1.01-.21.01-.31,0l-.89-.21-3.44-.86-12.61-3.25-18.68-4.89-11-2.91-5.84-1.54-1.48-.39c-.5-.13-1-.27-1.49-.38-.99-.2-2-.24-3-.13-2.02.23-3.91,1.1-5.41,2.47l-4.41,4.09-8.25,7.87-14,13.31-9.47,8.94-2.59,2.41-.69.62-.24.2s.06-.09.2-.24l.65-.66,2.52-2.45,9.35-9.06,13.94-13.4,8.23-7.9,4.37-4.17c1.58-1.45,3.58-2.37,5.71-2.61,1.06-.12,2.14-.08,3.19.14.53.12,1,.25,1.52.38l1.48.4c2,.52,3.79,1.56,5.7,2.06,3.82,1,7.64,1.49,11.15,2.42l18.66,5,12.56,3.41,3.41,1,.89.26c.18.07.28.07.27.07Z"/>
    <path class="st1" d="M66.42,249.8c6.74-1.75,11.79-7.34,12.85-14.22,1.59-9.49-4.32-18.39-13.22-19.9s-17.39,5-19,14.46c-1.27,6.91,1.74,13.9,7.63,17.73-25.4-.33-28.68,26.81-28.68,26.81l58.6,9.9s5.79-27.03-18.18-34.78Z"/>
    <rect class="st1" x="352.27" y="56.08" width="104.5" height="70.43" transform="translate(-5.81 151.32) rotate(-21.04)"/>
    <path class="st0" d="M441.25,40.34c-.14.43-.34.84-.57,1.23l-1.8,3.43-6.78,12.51-22.73,41.23-.19.34-.37-.12-.9-.29-45.45-14.53-13.74-4.5-3.72-1.28c-.44-.13-.87-.3-1.28-.5.46.07.9.17,1.34.32l3.78,1.1,13.83,4.22,45.53,14.27.9.28-.56.23,23-41.1,7-12.37c.81-1.39,1.46-2.5,2-3.34.21-.39.45-.77.71-1.13Z"/>
    <path class="st0" d="M369,143.6c-.24-.09,3.62-11.92,8.64-26.43s9.29-26.2,9.54-26.12-3.62,11.92-8.64,26.43-9.28,26.2-9.54,26.12Z"/>
    <path class="st0" d="M419.29,77.76c.13-.22,10.82,5.93,23.87,13.75s23.52,14.34,23.38,14.57-10.82-5.93-23.87-13.75-23.52-14.33-23.38-14.57Z"/>
    <rect class="st1" x="421.5" y="182.6" width="45.96" height="68.19" transform="translate(177.33 632.81) rotate(-83.29)"/>
    <path class="st0" d="M481.2,198.46c-.22.2-.46.38-.71.53l-2.08,1.43-7.71,5.17-25.7,16.9-.21.14-.18-.18-.43-.44-21.83-22.2c-2.74-2.82-5-5.13-6.56-6.78l-1.77-1.86c-.21-.21-.41-.44-.58-.68.24.17.47.37.67.59l1.85,1.78,6.7,6.64,22,22.08.43.43h-.39l25.76-16.74,7.82-5,2.15-1.33c.24-.19.5-.35.77-.48Z"/>
    <path class="st0" d="M408.11,236.13c-.12-.12,5.71-5.78,13-12.63s13.33-12.31,13.45-12.19-5.71,5.78-13,12.64-13.34,12.31-13.45,12.18Z"/>
    <path class="st0" d="M457.14,213.39c.15-.09,4.45,6.72,9.61,15.2s9.25,15.41,9.07,15.51-4.44-6.71-9.6-15.19-9.22-15.43-9.08-15.52Z"/>
    <path class="st1" d="M460.69,376.67c5.08-2.62,11.05-3,16.68-2,3,.5,6.18,1.41,8.24,3.68s2.45,6.27.09,8.23c-1.41,1.16-3.37,1.34-5.2,1.31-4.41-.05-9.3-.82-12.82,1.83-2,1.51-3.35,4-5.75,4.77-2.47.57-5.02-.56-6.25-2.78-1.15-2.21-1.4-4.77-.71-7.16.57-3.38,2.69-6.29,5.72-7.88Z"/>
    <path class="st1" d="M449.07,354.23c3.1,4.43,9.13,3,11.93.26s4-6.62,5.05-10.36c2.46-8.54,4.93-17.5,3.11-26.19-.44-2.64-1.6-5.11-3.35-7.13-1.8-2.02-4.55-2.93-7.2-2.39-3,.8-4.93,3.78-6.3,6.61-4.02,8.36-6.13,17.52-6.17,26.8,0,4.31.5,8.84,2.93,12.4"/>
    <path class="st1" d="M440.55,360.59c3.37-4,4-9.83,2.51-14.83s-4.88-9.27-8.79-12.75c-4.59-4.09-9.93-7.24-15.73-9.28-2.25-.91-4.66-1.32-7.08-1.21-2.45.14-4.67,1.49-5.93,3.6-1.66,3.15-.07,7,1.64,10.11,3.03,5.52,6.49,10.79,10.34,15.77,3.1,4,6.64,7.93,11.36,9.73s9.63,1.57,12.13-1.73"/>
    <path class="st0" d="M448.86,421.07c.16-.66.26-1.33.28-2,.14-1.46.32-3.3.54-5.49.27-2.71.68-5.4,1.23-8.06.72-3.24,1.7-6.42,2.93-9.51,1.2-3.09,2.84-5.98,4.86-8.61,1.64-2.14,3.74-3.88,6.14-5.1,1.63-.81,3.37-1.35,5.17-1.61.67-.03,1.34-.13,2-.29-.66-.07-1.34-.07-2,0-1.87.14-3.69.61-5.39,1.4-2.53,1.19-4.75,2.95-6.48,5.15-2.09,2.66-3.78,5.62-5,8.78-1.25,3.13-2.22,6.36-2.91,9.66-.52,2.7-.88,5.42-1.07,8.16-.17,2.34-.24,4.23-.27,5.53-.08.66-.09,1.33-.03,1.99Z"/>
    <path class="st0" d="M449.24,416.84c.06-.31.07-.63.05-.94v-2.67c0-2.32,0-5.67.11-9.81.21-8.29.92-17.21,2.3-29.78,1.31-11.82,3.06-25.58,4.91-34.52.39-2,.79-3.86,1.17-5.47s.66-3,1-4.11.46-1.91.62-2.6c.09-.3.14-.61.16-.92-.13.28-.24.58-.32.88-.2.67-.46,1.52-.78,2.56s-.69,2.48-1.1,4.08-.89,3.46-1.36,5.46c-2.29,10.57-4.01,21.25-5.15,32-1.39,12.6-2,24.07-2.06,32.38-.05,4.15,0,7.51.14,9.83.07,1.09.12,2,.17,2.67,0,.32.05.65.14.96Z"/>
    <path class="st0" d="M449.29,394.71c.08-.93.08-1.86,0-2.79-.16-2.53-.44-5.06-.85-7.56-.61-3.71-1.43-7.38-2.46-11-1.2-4.45-2.73-8.79-4.6-13-3.2-7.78-7.78-14.92-13.53-21.07-1-1.05-2.06-2.03-3.18-2.95-.49-.42-.92-.83-1.36-1.16l-1.24-.85c-.74-.56-1.53-1.06-2.35-1.5-.13.18,3.33,2.22,7.7,6.87,5.56,6.2,10.02,13.3,13.19,21,1.83,4.2,3.38,8.51,4.64,12.91,1.2,4.05,2,7.77,2.61,10.91s.91,5.7,1.11,7.48c.04.91.15,1.82.32,2.71Z"/>
    <polygon class="st0" points="427.91 433.74 430.13 464.11 469.14 464.11 471.36 433.74 427.91 433.74"/>
    <rect class="st0" x="424.14" y="421.77" width="51.87" height="11.97"/>
    <polygon class="st1" points="424.14 462.95 424.14 466.27 426.58 466.27 475.16 466.27 475.16 462.95 424.14 462.95"/>
    <polygon class="st0" points="428.97 472.11 426.58 466.27 473.3 466.27 470.51 472.11 428.97 472.11"/>
    <path class="st10" d="M470.64,443.67c-.06.1-.12.19-.19.28l-.58.77-2.27,2.91-.1.13-.1-.14c-1.43-2-3.34-4.61-5.58-7.72h.32l-5.5,7.78-.17.25-.2-.23c-2-2.42-4.23-5-6.52-7.76h.38l-.36.46-5.83,7.3-.19.25-.18-.26-5.5-7.78h.32l-6.78,7.72-.12.13-.09-.15-2.12-3.57-.54-.94c-.07-.11-.12-.22-.17-.34,0,0,.09.09.23.3l.6.91,2.23,3.5h-.22l6.67-7.81.17-.2.15.22,5.55,7.74h-.37l5.81-7.32.36-.45.19-.23.19.23,6.5,7.77h-.37l5.56-7.74.16-.23.16.23,5.46,7.81h-.2l2.37-2.83.63-.74c.15-.18.23-.26.24-.25Z"/>
    <path class="st10" d="M471.9,433.54c0,.13-9.77.24-21.83.24s-21.83-.11-21.83-.24,9.77-.24,21.83-.24,21.83.11,21.83.24Z"/>
    <path class="st10" d="M473.88,466.59c0,.14-10.63.25-23.73.25s-23.73-.11-23.73-.25,10.62-.24,23.73-.24,23.73.11,23.73.24Z"/>
  </g>
  <g id="freepik--Device--inject-34">
    <path class="st11" d="M296.28,470.77l-156,.08c-12.56,0-22.75-10.17-22.76-22.73l-.18-351.41c-.01-14.32,11.58-25.93,25.9-25.94,0,0,0,0,.01,0l153.12-.08c12.7,0,23,10.3,23,23l.19,353.82c-.01,12.85-10.43,23.26-23.28,23.26Z"/>
    <path class="st3" d="M120.69,440l-.18-338.39c.03-15.25,12.4-27.6,27.65-27.61l140.34-.08c15.28-.01,27.67,12.36,27.68,27.64h0s.18,338.4.18,338.4c.01,15.28-12.36,27.67-27.64,27.68h-.01l-140.34.08c-15.28,0-27.67-12.38-27.68-27.66,0-.02,0-.04,0-.06Z"/>
    <path class="st11" d="M203.83,86.53c-1.24,0-2.25-1.01-2.25-2.25s1.01-2.25,2.25-2.25h28.89c1.24-.08,2.31.86,2.39,2.1.08,1.24-.86,2.31-2.1,2.39-.1,0-.2,0-.3,0h-28.89Z"/>
    <path class="st11" d="M188.34,86.54c-1.24,0-2.25-1-2.26-2.24,0-1.24,1-2.25,2.24-2.26,1.24,0,2.25,1,2.26,2.24,0,0,0,0,0,0,0,1.24-1,2.24-2.24,2.25Z"/>
    <path class="st11" d="M196.61,86.53c-1.24,0-2.25-1-2.26-2.24,0-1.24,1-2.25,2.24-2.26,1.24,0,2.25,1,2.26,2.24,0,0,0,0,0,0,0,1.24-1,2.24-2.24,2.25Z"/>
    <path class="st11" d="M248.34,86.5c-1.24,0-2.25-1.01-2.25-2.25,0-1.24,1.01-2.25,2.25-2.25s2.25,1.01,2.25,2.25c0,0,0,0,0,0,0,1.24-1,2.24-2.24,2.24,0,0,0,0-.01,0Z"/>
    <path class="st11" d="M240.07,86.51c-1.24,0-2.25-1.01-2.25-2.25s1.01-2.25,2.25-2.25,2.25,1.01,2.25,2.25h0c0,1.24-.99,2.24-2.23,2.25,0,0-.01,0-.02,0Z"/>
    <path class="st6" d="M290,78.51h-27.2c-2.63,0-4.95,1.73-5.7,4.26l-2.22,7.62c-.82,2.83-3.42,4.78-6.37,4.77h-60.26c-2.95,0-5.54-1.94-6.38-4.76l-2.23-7.62c-.74-2.53-3.07-4.26-5.7-4.25h-27.22c-11.93-.02-21.62,9.63-21.65,21.56l.18,340.62c.04,11.93,9.74,21.57,21.67,21.53h0l143.25-.07c11.93.02,21.62-9.63,21.65-21.56l-.18-340.61c-.06-11.9-9.74-21.51-21.64-21.49Z"/>
    <path class="st11" d="M319.39,157.63h0c.73,0,1.32.6,1.33,1.33v43.33c0,.73-.59,1.32-1.32,1.33h0v-45.99Z"/>
    <path class="st11" d="M117.37,186.08h0c-.76,0-1.37.61-1.37,1.37v26.37c0,.76.62,1.37,1.38,1.37h0v-29.11Z"/>
    <path class="st11" d="M117.35,148h0c-.76,0-1.37.61-1.37,1.37,0,0,0,0,0,.01v26.36c0,.76.62,1.37,1.38,1.38h0v-29.12Z"/>
    <path class="st11" d="M117.34,119.49h0c-.66,0-1.19.53-1.19,1.19h0v11.17c0,.65.53,1.18,1.18,1.18,0,0,0,0,.01,0h0v-13.54Z"/>
    <rect class="st4" x="266.33" y="89.6" width="1.39" height="1.95"/>
    <rect class="st4" x="268.59" y="88.73" width="1.39" height="2.81"/>
    <rect class="st4" x="270.85" y="88.08" width="1.39" height="3.46"/>
    <rect class="st4" x="273.11" y="86.82" width="1.39" height="4.72"/>
    <path class="st4" d="M295,91.63h-7c-.27,0-.49-.21-.5-.48,0,0,0,0,0-.01v-3.47c0-.27.22-.49.49-.5h7c.07,0,.13.06.13.13v1.14h.75c.07,0,.12.05.12.12,0,0,0,0,0,.01v1.66c0,.07-.06.13-.13.13h-.75v1.14c0,.07-.04.12-.11.13h0ZM294.87,87.42h-6.87c-.13,0-.24.11-.24.24v3.47c0,.13.11.24.24.24h6.84v-1.14c0-.07.05-.12.12-.12h.75v-1.42h-.71c-.07,0-.12-.05-.12-.12v-1.15Z"/>
    <polygon class="st4" points="288.34 90.81 288.34 88 294.29 87.99 294.29 89.26 294.29 89.54 294.29 90.81 288.34 90.81"/>
    <path class="st4" d="M281.14,91.37c0-.28-.23-.51-.51-.51-.28,0-.51.23-.51.51s.23.51.51.51c.28,0,.51-.23.51-.51h0Z"/>
    <path class="st4" d="M278.89,90.15l.65.64c.6-.6,1.58-.6,2.18,0l.65-.65c-.46-.46-1.09-.72-1.74-.72-.65,0-1.28.26-1.74.73Z"/>
    <path class="st4" d="M280.63,88c-1.03,0-2.03.41-2.76,1.14l.65.65c1.17-1.16,3.05-1.16,4.22,0l.65-.65c-.73-.73-1.72-1.14-2.76-1.14Z"/>
    <path class="st4" d="M276.81,88.07l.65.65c.84-.85,1.98-1.32,3.17-1.32,1.19,0,2.33.47,3.17,1.31l.65-.65c-2.11-2.11-5.53-2.11-7.64,0,0,0,0,0,0,0h0Z"/>
    <path class="st2" d="M163.47,173.7c-.06,7.12-5.88,12.84-13,12.78-7.12-.06-12.84-5.88-12.78-13,.06-7.12,5.88-12.84,13-12.78,7.12.06,12.84,5.88,12.78,13,0,0,0,0,0,0Z"/>
    <path class="st3" d="M227.9,163.77c0,.14-12,.16-26.7,0s-26.71-.33-26.71-.48,12-.16,26.71,0,26.71.34,26.7.48Z"/>
    <path class="st0" d="M271.49,176c0,.14-21.8.08-48.69-.14s-48.69-.52-48.69-.66,21.8-.08,48.7.14,48.68.51,48.68.66Z"/>
    <path class="st0" d="M271.41,185.61c0,.14-21.8.08-48.69-.14s-48.72-.47-48.72-.66,21.79-.08,48.69.14,48.72.51,48.72.66Z"/>
    <path class="st3" d="M300.15,161.92c0,.15-4.72.22-10.53.18s-10.52-.21-10.52-.35,4.71-.22,10.53-.17,10.52.2,10.52.34Z"/>
    <path class="st2" d="M242.16,163.19c-.01,1.34-1.1,2.41-2.44,2.4s-2.41-1.1-2.4-2.44c.01-1.34,1.1-2.41,2.44-2.4,1.34.01,2.41,1.1,2.4,2.44h0Z"/>
    <path class="st0" d="M310.9,139.84c0,.14-41.65-.08-93-.5s-93-.88-93-1,41.64.08,93,.5c51.36.42,93.01.86,93,1Z"/>
    <path class="st0" d="M310.36,206.46c0,.15-41.66-.08-93-.5s-93-.88-93-1,41.65.08,93,.5,93,.86,93,1Z"/>
    <circle class="st2" cx="149.49" cy="306.61" r="12.89" transform="translate(-173.02 195.51) rotate(-45)"/>
    <path class="st3" d="M226.81,296.79c0,.14-11.95.16-26.7,0s-26.71-.33-26.71-.48,12-.16,26.71,0,26.71.34,26.7.48Z"/>
    <path class="st0" d="M270.4,309c0,.14-21.8.08-48.69-.14s-48.69-.52-48.69-.66,21.8-.08,48.7.14,48.68.53,48.68.66Z"/>
    <path class="st0" d="M270.32,318.63c0,.14-21.8.08-48.69-.14s-48.69-.52-48.68-.66,21.79-.08,48.69.14,48.68.51,48.68.66Z"/>
    <path class="st3" d="M299.06,294.94c0,.15-4.71.22-10.53.18s-10.52-.21-10.52-.35,4.71-.22,10.53-.17,10.52.2,10.52.34Z"/>
    <path class="st2" d="M290.9,308.35l.87,1.8c.15.31.44.53.78.59l2,.3c.55.02.98.49.96,1.04-.01.29-.15.57-.39.75l-1.45,1.39c-.25.24-.36.59-.31.93l.33,2c.09.58-.31,1.12-.89,1.21-.22.03-.45,0-.65-.11l-1.76-1c-.31-.17-.69-.17-1,0l-1.78.92c-.46.3-1.08.18-1.39-.28-.16-.25-.21-.55-.12-.84l.36-2c.07-.34-.05-.69-.3-.93l-1.42-1.41c-.41-.41-.42-1.07-.01-1.48.16-.17.38-.27.61-.31l2-.27c.34-.04.64-.26.79-.57l.9-1.78c.29-.51.94-.69,1.45-.4.18.1.33.26.42.45Z"/>
    <circle class="st2" cx="238.66" cy="296.22" r="2.42" transform="translate(-98.4 472.56) rotate(-78.76)"/>
    <path class="st0" d="M309.81,272.86c0,.14-41.65-.08-93-.5s-93-.88-93-1,41.64.08,93,.5c51.36.42,93.01.86,93,1Z"/>
    <path class="st0" d="M309.27,339.48c0,.15-41-.12-91.59-.6s-91.59-1-91.59-1.12,41,.12,91.6.6,91.58.98,91.58,1.12Z"/>
    <path class="st0" d="M161.35,433.22c-.06,7.12-5.88,12.84-13,12.78-7.12-.06-12.84-5.88-12.78-13,.06-7.11,5.87-12.83,12.99-12.78,7.12.06,12.85,5.88,12.79,13Z"/>
    <path class="st3" d="M225.78,423.3c0,.14-12,.16-26.71,0s-26.7-.33-26.7-.48,12-.16,26.71,0,26.7.34,26.7.48Z"/>
    <path class="st0" d="M269.36,435.53c0,.14-21.8.08-48.68-.14s-48.69-.52-48.69-.66,21.8-.08,48.69.14,48.68.51,48.68.66Z"/>
    <path class="st0" d="M269.28,445.13c0,.15-21.8.09-48.68-.13s-48.69-.52-48.69-.66,21.8-.09,48.69.13,48.69.53,48.68.66Z"/>
    <path class="st3" d="M298,421.45c0,.14-4.71.22-10.52.17s-10.53-.2-10.53-.34,4.72-.22,10.53-.18,10.52.21,10.52.35Z"/>
    <path class="st2" d="M240,422.72c-.01,1.34-1.1,2.41-2.44,2.4-1.34-.01-2.41-1.1-2.4-2.44.01-1.34,1.1-2.41,2.44-2.4,1.34.01,2.41,1.1,2.4,2.44h0Z"/>
    <rect class="st10" x="185.09" y="146.3" width="66.62" height="185.45" transform="translate(-22.41 455.45) rotate(-89.53)"/>
    <circle class="st11" cx="150.42" cy="238.8" r="12.89"/>
    <path class="st3" d="M227.74,229c0,.15-12,.17-26.7.05s-26.71-.34-26.71-.48,12-.17,26.71,0,26.7.27,26.7.43Z"/>
    <path class="st0" d="M271.33,241.21c0,.15-21.8.08-48.69-.14s-48.69-.51-48.69-.66,21.8-.08,48.69.14,48.69.52,48.69.66Z"/>
    <path class="st0" d="M271.25,250.82c0,.14-21.8.08-48.69-.14s-48.69-.51-48.69-.66,21.8-.08,48.7.14,48.68.52,48.68.66Z"/>
    <path class="st3" d="M300,227.14c0,.14-4.72.22-10.53.17-3.51.06-7.02-.06-10.52-.35,0-.14,4.71-.22,10.53-.17,3.51-.06,7.02.06,10.52.35Z"/>
    <path class="st2" d="M242,228.41c-.01,1.34-1.1,2.41-2.44,2.4s-2.41-1.1-2.4-2.44c.01-1.34,1.1-2.41,2.44-2.4,1.33.02,2.41,1.11,2.4,2.44Z"/>
    <rect class="st10" x="185.23" y="279.11" width="66.62" height="185.45" transform="translate(-155.07 587.31) rotate(-89.53)"/>
    <circle class="st11" cx="150.56" cy="371.61" r="12.89" transform="translate(-218.67 215.3) rotate(-45)"/>
    <path class="st3" d="M227.88,361.79c0,.14-12,.16-26.7,0s-26.71-.33-26.71-.48,12-.16,26.71,0,26.7.34,26.7.48Z"/>
    <path class="st0" d="M271.47,374c0,.14-21.8.08-48.69-.14s-48.69-.52-48.69-.66,21.8-.08,48.69.14,48.69.53,48.69.66Z"/>
    <path class="st0" d="M271.39,383.63c0,.14-21.8.08-48.69-.14s-48.7-.49-48.7-.66,21.8-.08,48.7.14,48.69.51,48.69.66Z"/>
    <path class="st3" d="M300.13,359.94c0,.15-4.72.22-10.53.18s-10.52-.21-10.52-.35,4.71-.22,10.53-.17,10.52.2,10.52.34Z"/>
    <path class="st3" d="M292,373.35s-.08-.11-.26-.26c-.26-.22-.61-.29-.93-.2-.22.07-.41.21-.53.41-.13.23-.26.53-.4.82s-.3.62-.46.95c-.16.43-.54.74-1,.81l-1.29.19-.68.11c-.45.07-.76.48-.69.93.02.16.1.32.21.44l1.14,1.11.3.29c.12.12.22.26.29.41.15.31.17.67.07,1-.1.57-.2,1.15-.3,1.74-.09.42.17.84.59.93.05.01.1.02.15.02.27-.01.52-.11.74-.26l.85-.44c.29-.17.6-.31.92-.42.37-.07.75.02,1.06.23l1.6.86c.4.2.89.03,1.08-.37,0-.02.02-.04.03-.06.07-.23.07-.48,0-.71,0-.28-.08-.56-.13-.83l-.12-.8c-.06-.32,0-.65.17-.92.17-.22.36-.42.57-.6l.55-.51.52-.5c.14-.12.24-.29.28-.48.06-.36-.1-.72-.42-.9-.36-.12-.73-.2-1.1-.24l-1-.18c-.35-.03-.66-.21-.87-.49-.13-.23-.25-.47-.35-.71-.22-.43-.4-.88-.53-1.35.27.4.51.82.72,1.26.11.22.23.44.36.65.18.21.44.34.72.35l1,.14c.39.03.77.11,1.14.23.47.25.73.77.64,1.3-.04.28-.18.53-.38.72l-.52.5-.53.52c-.18.16-.34.33-.49.52-.1.18-.14.39-.1.6.05.27.09.53.14.8s.09.55.14.83c.1.33.1.67,0,1-.27.68-1.03,1.01-1.71.74-.03-.01-.07-.03-.1-.04-.53-.28-1.07-.56-1.61-.86-.21-.15-.47-.21-.72-.17-.27.11-.54.23-.79.38l-.84.43-.43.22c-.18.07-.38.11-.57.1-.73-.04-1.29-.66-1.25-1.39,0-.06,0-.12.02-.17.11-.59.22-1.17.32-1.74.08-.22.08-.47,0-.69-.13-.21-.3-.4-.49-.56l-1.14-1.15c-.41-.48-.41-1.2,0-1.68.2-.22.46-.36.75-.41l.69-.09,1.3-.16c.35-.03.65-.26.77-.58l.49-.94c.16-.3.29-.56.45-.82.16-.24.41-.42.69-.48.37-.07.74.05,1,.32.27.16.27.3.27.3Z"/>
    <path class="st2" d="M242.14,361.21c-.01,1.34-1.1,2.41-2.44,2.4-1.34-.01-2.41-1.1-2.4-2.44.01-1.34,1.1-2.41,2.44-2.4,1.34.01,2.41,1.1,2.4,2.44h0Z"/>
  </g>
  <g id="freepik--Character--inject-34">
    <path class="st9" d="M287.81,333l-.14,53.74-23.75-4.88-20-4.18s27.38,54,57.16,54,33.63-44.93,33.63-44.93l1.77-53.75h-48.67Z"/>
    <path class="st3" d="M411.18,194.37c-2.18,1.24-5.18-.37-6.18-2.69s-.54-5,.22-7.44,1.82-4.78,2-7.31c.18-4.74-2.76-9.05-7.24-10.6,4.3-3.41,4.65-10.72.7-14.53-1.85-1.78-4.31-2.75-6.46-4.15-1.22-.81-2.36-1.74-3.4-2.77,1.92.47,3.92.53,5.86.18,3.17-.69,5.76-2.96,6.88-6,1.04-3.09.23-6.51-2.08-8.81-2.39-2.24-5.92-2.76-8.86-1.32-2.78,1.47-4.3,4.49-5.65,7.33l-1.26,2.63c-3.91-5.18-7.59-10.53-13.62-12.35-5.47-1.65-11.35.19-17.05-.22-4.15-.31-8.13-1.8-12.27-2.26s-8.85.43-11.29,3.8c-1.44,2-1.89,4.54-3.34,6.51-3,4.06-9.46,4.61-11.92,9-2,3.58-.46,8.1-1.32,12.11-.93,4.36-4.53,7.55-7.47,10.9s-5.51,7.95-3.86,12.09c1.46,3.65,5.71,5.61,7.09,9.28,1,2.68.28,5.65.23,8.51s1.09,6.26,3.88,6.91l31.73,8.38c10.93,4.44,22.2,9,34,8.94s24.39-5.68,29-16.52c-1.72-.06-3.34-.78-4.55-2,3.12-1.46,5.41-4.25,6.23-7.6Z"/>
    <path class="st3" d="M385.17,204.32c2.62-8,5.2-16.15,6.39-24.53s.94-17.12-2-25c-.44-1.2-4.25-9.27-5.53-9.14-.91.09,1.43,7.61,1,8.41-4.4,7.56-5.6,16.65-4.89,25.38.76,8.47,2.46,16.83,5.07,24.93"/>
    <path class="st9" d="M357.15,274.66c13.12-.28,28-29,28-29l.85-73.66c.68-21.21-11.09-39.29-32.31-39.39l-2,.1c-19.73,1.08-35.35,17.1-35.91,36.86-.49,18.39-.81,38.72-.16,48.54,1.34,20.32,21.85,22.39,21.85,22.39,0,0,.12,4.72.18,10.7.14,13.42,14.19,23.88,19.45,23.43l.05.03Z"/>
    <path class="st5" d="M337.52,240.53s12.86.07,26.06-9.25c0,0-5.66,15.14-26.05,14.4v-5.15Z"/>
    <path class="st3" d="M324.61,185.56c.07,1.59,1.41,2.83,3,2.78,1.53.04,2.81-1.17,2.85-2.71,0-.02,0-.04,0-.06-.07-1.6-1.4-2.84-3-2.79-1.53-.04-2.81,1.17-2.85,2.71,0,.02,0,.05,0,.07Z"/>
    <path class="st3" d="M320.63,177.81c.38.36,2.49-1.39,5.62-1.55s5.5,1.29,5.82.88c.15-.17-.25-.84-1.29-1.51-1.4-.87-3.04-1.28-4.68-1.17-1.63.08-3.18.68-4.45,1.7-.92.84-1.21,1.49-1.02,1.65Z"/>
    <path class="st3" d="M352.76,184.81c.07,1.59,1.41,2.83,3,2.78,1.53.04,2.81-1.17,2.85-2.71,0-.02,0-.05,0-.07-.07-1.57-1.38-2.8-2.95-2.78-1.54-.06-2.84,1.14-2.9,2.68,0,.03,0,.07,0,.1Z"/>
    <path class="st3" d="M351.31,177.43c.38.36,2.5-1.38,5.62-1.54s5.5,1.28,5.82.88c.16-.18-.24-.84-1.29-1.52-1.4-.86-3.04-1.27-4.68-1.17-1.63.08-3.18.68-4.45,1.7-.91.79-1.2,1.49-1.02,1.65Z"/>
    <path class="st3" d="M341.39,202.05c0-.18-2-.41-5.13-.64-.8,0-1.56-.16-1.73-.7-.11-.82.03-1.65.41-2.39.67-2,1.33-4.07,2-6.21,2.82-8.82,4.81-16.07,4.45-16.18s-2.93,7-5.74,15.79c-.67,2.17-1.32,4.25-1.93,6.23-.45.99-.54,2.11-.25,3.16.27.56.78.96,1.38,1.09.45.1.9.14,1.36.12,3.21,0,5.17-.09,5.18-.27Z"/>
    <path class="st3" d="M350.7,203.72c-.51,0-.33,3.39-3.11,5.95s-6.4,2.39-6.4,2.86c0,.22.84.62,2.36.58,1.99-.08,3.89-.86,5.36-2.2,1.42-1.29,2.27-3.09,2.39-5,.06-1.4-.37-2.22-.6-2.19Z"/>
    <path class="st3" d="M350.8,164.74c.36.84,3.46.27,7.15.51s6.71,1.09,7.15.3c.2-.38-.36-1.15-1.6-1.91-3.34-1.87-7.36-2.09-10.89-.61-1.32.61-1.96,1.32-1.81,1.71Z"/>
    <path class="st3" d="M321.36,167.35c.59.68,2.71-.17,5.29-.34s4.81.22,5.27-.55c.21-.37-.18-1.07-1.17-1.69-2.72-1.5-6.08-1.22-8.51.72-.88.78-1.14,1.51-.88,1.86Z"/>
    <path class="st9" d="M385.15,187.18c.34-.17,13.75-4.88,14.06,9s-13.75,11.35-13.78,11-.28-20-.28-20Z"/>
    <path class="st5" d="M389.57,201.82c.06,0,.25.16.66.34.58.23,1.23.23,1.81,0,1.46-.57,2.65-2.94,2.67-5.45,0-1.2-.26-2.38-.76-3.46-.28-.87-.98-1.55-1.86-1.82-.58-.14-1.18.16-1.42.7-.18.39-.08.67-.16.69s-.3-.23-.2-.8c.07-.35.26-.66.53-.89.37-.3.85-.44,1.33-.38,1.17.2,2.14,1,2.58,2.1.62,1.19.94,2.52.93,3.87,0,2.81-1.41,5.46-3.41,6.09-.75.24-1.57.12-2.23-.32-.44-.34-.52-.65-.47-.67Z"/>
    <path class="st3" d="M324.55,146.41c-2.27-1.21,4.4-8.6,9.91-11.19,8.32-3.9,21.08-6.4,28.82-4.31,9.33,2.51,17.11,7,21.89,15.44s6.66,18.23,6.51,27.89c-.05,2.95-.31,6-1.86,8.54-1.9,3.1-5.61,5.09-5.39,9.34.13,1.55-.38,3.09-1.39,4.27-2.52,2.74-5.67.23-7.13-2.3-3.14-5.42-3.56-11.93-3.91-18.17-.25-4.44-.49-9,.71-13.26.65-2.33,1.72-4.54,2.24-6.9s.42-5-1.08-6.95c-.34-.41-.73-.79-1.14-1.13-4-3.4-9.52-4.37-14.45-2.56-7.81,2.88-21.15,7.2-24.68,4.58-5.08-3.77-6.32-6.25-6.32-6.25l-2.73,2.96Z"/>
    <path class="st3" d="M362.53,129c-7.68-2.46-16.4-2.21-23.51,1.6-3.78,2-7.18,5.22-8.28,9.35s.72,9.2,4.7,10.76l.28.17c6,1.92,9.82,1.08,15.72-1.05,5-1.79,9.36-4.92,14.33-6.69,5.33-1.87,11.09-2.11,16.56-.69-5.4-5.98-12.11-10.96-19.8-13.45Z"/>
    <path class="st11" d="M389,142.8c-.12.1-1.24-1.23-3.5-2.8-1.32-.92-2.74-1.68-4.23-2.26-1.79-.75-3.72-1.1-5.66-1-3.55.39-6.91,1.78-9.71,4-2.16,1.71-3.16,3.15-3.29,3.05s.15-.43.61-1.07c.66-.91,1.41-1.74,2.25-2.48,2.81-2.48,6.33-4.03,10.06-4.43,2.08-.12,4.15.25,6.06,1.08,1.54.65,2.99,1.5,4.3,2.53,2.25,1.81,3.21,3.32,3.11,3.38Z"/>
    <path class="st11" d="M390.41,147.73c-.12,1.39-.47,2.74-1.06,4-2.5,6.24-7.1,11.42-13,14.65-1.17.73-2.47,1.24-3.82,1.52-.17-.27,5.85-2.55,10.9-8.33s6.69-11.97,6.98-11.84Z"/>
    <path class="st11" d="M396.08,150c.11.52.13,1.05.05,1.58-.07,1.44-.27,2.87-.6,4.28-2.17,9.52-8.97,17.32-18.1,20.77-1.35.51-2.74.91-4.16,1.18-.51.15-1.05.2-1.58.16,0-.16,2.19-.54,5.49-2,8.72-3.67,15.26-11.18,17.71-20.32.94-3.42,1.02-5.65,1.19-5.65Z"/>
    <path class="st11" d="M346.58,127.75c0,.16-1.45.5-3.69,1.39-5.88,2.34-10.88,6.46-14.29,11.78-.63,1.15-1.32,2.27-2.07,3.35.27-1.31.77-2.56,1.5-3.69,1.6-2.82,3.7-5.33,6.2-7.39,2.5-2.06,5.36-3.64,8.44-4.66,1.25-.49,2.57-.76,3.91-.78Z"/>
    <path class="st11" d="M400.45,129.5c.23,0-.38,4-3.53,7.75s-7,5.05-7,4.82,3.37-1.86,6.31-5.42,3.94-7.24,4.22-7.15Z"/>
    <path class="st9" d="M252.46,378.13l8.26-5.07c1.4-.85,3.01-1.31,4.65-1.31h16l16.52,15.05,4.93,2.46-1.84,26-10.74-1.32s-22.93,1-25.15-.49-5.43-6.17-5.43-6.17c0,0-12.57-4.07-13.8-5.17-4.67-4.19-2.79-5.19-2.79-5.19l-2.15-1c-.4.76-3.53-4.34-3.2-6.9.19-1.49-.25-1.48-.25-1.48-2.11-1.21-3.57-3.29-4-5.69-.23-1.52,6-.43,6-.43l15.53.21-2.54-3.5Z"/>
    <path class="st11" d="M266.27,381.28l-14.61-19.89c-1.07-1.47-2.78-2.33-4.6-2.33h-28.88c-1.16,0-2.1.94-2.1,2.1h0c0,.5.19.99.51,1.37l16.55,19.2h0l33.13-.45Z"/>
    <path class="st5" d="M259.19,389.43c-1.06.29-2.16.43-3.26.43-5.29.31-10.6-.15-15.76-1.36-1.09-.2-2.14-.53-3.14-1,1.09.07,2.18.24,3.24.49,2,.35,4.73.78,7.79,1s5.84.32,7.85.31c1.1-.05,2.19-.01,3.28.13Z"/>
    <path class="st5" d="M263.34,398.14c-1.06.28-2.16.43-3.26.43-2.64.16-5.29.12-7.93-.11-2.64-.23-5.26-.64-7.84-1.25-1.08-.19-2.13-.53-3.13-1,1.09.07,2.18.24,3.24.49,2,.35,4.73.78,7.79,1s5.84.32,7.85.31c1.1-.05,2.19-.01,3.28.13Z"/>
    <path class="st5" d="M233.51,381.85c.12.62.28,1.22.48,1.82.66,1.65,1.93,2.97,3.54,3.7l.11.05v.12c-.04,1.76.35,3.5,1.13,5.08.96,1.94,2.55,3.5,4.51,4.42l.27.12-.13.25c-.3.63-.3,1.37,0,2,.34.67.83,1.26,1.42,1.73,1.32,1.02,2.77,1.85,4.32,2.48,3.42,1.42,6.97,2.53,10.59,3.32h.14l.07.12c.93,1.34,2.02,2.57,3.25,3.64,1.18,1.17,2.64,2.04,4.24,2.51,1.23.3,2.5.43,3.77.38l3.8.1,7.33.2,13.2.37h.05l15.73,3.21,4.37.94,1.14.27c.14.02.27.06.39.12-.13.02-.27.02-.4,0l-1.16-.18-4.41-.78-15.78-3h.05l-13.2-.28-7.32-.17-3.81-.09c-1.33.04-2.65-.1-3.94-.42-1.7-.5-3.26-1.41-4.52-2.66-1.27-1.11-2.4-2.39-3.35-3.79l.21.15c-3.66-.8-7.24-1.95-10.69-3.41-1.59-.66-3.09-1.54-4.45-2.6-.67-.54-1.2-1.22-1.57-2-.35-.78-.33-1.68.06-2.44l.14.37c-2.06-.99-3.73-2.66-4.72-4.72-.78-1.65-1.15-3.47-1.07-5.3l.11.17c-1.69-.79-2.98-2.23-3.58-4-.22-.58-.32-1.19-.32-1.8Z"/>
    <path class="st5" d="M268.07,405.79c.08.16-1.86,1.15-4.49,1.5s-4.75-.09-4.72-.26,2.11-.09,4.63-.44,4.51-.99,4.58-.8Z"/>
    <path class="st5" d="M275.49,381.25c0,.19-3.17.46-7.11.61s-7.13.1-7.13-.1,3.17-.46,7.11-.61,7.13-.1,7.13.1Z"/>
    <path class="st5" d="M302.51,387.13s-.3.29-1,.4c-1,.11-2.02-.12-2.88-.64-1.21-.79-2.34-1.69-3.37-2.7l-3.94-3.45-7.2-6.19c-1.05-.8-2.02-1.69-2.92-2.65,1.15.65,2.23,1.41,3.23,2.27,1.93,1.48,4.55,3.6,7.36,6,1.4,1.22,2.72,2.4,3.9,3.49.99,1.01,2.05,1.93,3.19,2.76.77.51,1.67.79,2.6.8.66.01,1.01-.15,1.03-.09Z"/>
    <path class="st3" d="M263.19,381.71c-.14-.13-.28-.27-.39-.43l-1-1.28-3.8-4.79-5.48-7.14-3.22-4.22c-.57-.69-1.32-1.21-2.16-1.51-.43-.15-.88-.24-1.34-.27h-1.44l-20-.08-6.07-.08h-1.65c-.19,0-.39-.01-.58-.05.19-.04.39-.06.58-.05l1.65-.05,6.07-.09,20-.07h1.48c.5.03,1,.14,1.47.3.93.33,1.75.91,2.38,1.68l3.21,4.25,5.39,7.21c1.49,2,2.71,3.67,3.6,4.89.39.54.7,1,1,1.34.12.13.22.28.3.44Z"/>
    <path class="st10" d="M231.78,364.89c.52-.4,1.27-.3,1.67.22.4.52.3,1.27-.22,1.67-.51.39-1.25.31-1.65-.2-.39-.51-.32-1.23.16-1.65"/>
    <path class="st2" d="M386.58,239.87l40.68,23.91,7.48,132,9.72,74.68h-146.2s1.61-90.89,2.11-118.38c.36-19.27-.16-56.62,6.36-79.59,2.78-9.79,30-22.44,30-22.44,14.91,13.17,31.58,9.24,49.85-10.18Z"/>
    <path class="st4" d="M440.16,437.46c0,.14-31.56.26-70.5.26s-70.5-.12-70.5-.26,31.56-.26,70.5-.26,70.5.11,70.5.26Z"/>
    <g class="st8">
      <path d="M299.07,415c11.32,9.49,28.91,14.63,43.39,17.56s29.27,4,43.79,6.66c10.15,1.89,20.8,4.56,30.59,1.26,9.95-3.53,16.93-12.55,17.86-23.07.15-.7-.01-1.43-.44-2-.59-.45-1.34-.63-2.07-.5-43.71,1.94-90,1.67-133.12.06"/>
    </g>
    <path class="st9" d="M291.33,387.64h102.16l.5-53.83,47.14-6.08s.21,54.67.21,72.6c0,21.52-18.6,36.48-34.22,34.18s-115.79-21-115.79-21v-25.87Z"/>
    <path class="st2" d="M444.4,338.91l-54.94,5.71v-64.46s5.4-21.78,24.38-20.87,30.16,21.44,30.56,40.27,0,39.35,0,39.35Z"/>
    <path class="st2" d="M312.54,264.93s-17.61,11.59-22.33,24.38c-4.95,13.41-11.9,56.85-11.9,56.85h24.69l9.54-81.23Z"/>
    <path class="st3" d="M389,282.72c.07.78.07,1.57,0,2.35-.05,1.63-.12,3.79-.2,6.41-.16,5.4-.33,12.87-.31,21.12s.24,15.72.45,21.12c.1,2.62.18,4.78.24,6.41.06.78.06,1.57,0,2.35-.16-.77-.25-1.55-.28-2.34-.14-1.5-.31-3.69-.47-6.39-.33-5.41-.62-12.88-.65-21.15s.22-15.74.52-21.15c.14-2.7.29-4.88.42-6.39.03-.79.13-1.57.28-2.34Z"/>
    <path class="st3" d="M416.66,260.33c0,.14-1.84-.35-4.82-.3-7.91.08-15.12,4.51-18.78,11.52-1.39,2.63-1.78,4.47-1.91,4.44,0-.44.08-.88.22-1.3.3-1.16.72-2.29,1.25-3.36,3.53-7.37,11.05-11.99,19.22-11.8,1.2.02,2.4.16,3.57.41.43.06.86.2,1.25.39Z"/>
    <path class="st3" d="M301.23,295.29c.05.24.07.48.07.73,0,.56,0,1.25.06,2.09,0,1.81.06,4.43.06,7.67,0,6.48-.1,15.43-.29,25.31s-.38,18.73-.51,25.3c-.06,3.16-.11,5.76-.15,7.67,0,.84-.06,1.53-.08,2.09.01.24-.01.48-.07.72-.05-.24-.08-.48-.07-.72,0-.56,0-1.25-.06-2.09,0-1.81-.06-4.43-.06-7.67,0-6.48.1-15.43.29-25.32s.37-18.73.5-25.29c.07-3.17.12-5.76.16-7.67,0-.84.06-1.53.07-2.09,0-.25.02-.49.08-.73Z"/>
    <path class="st4" d="M300.6,316.88c-2.78.24-5.57.3-8.36.19-2.79.06-5.58-.05-8.36-.34,2.78-.24,5.57-.3,8.36-.19,2.79-.07,5.58.05,8.36.34Z"/>
    <path class="st4" d="M388.06,302c0,.14-19,.26-42.35.26s-42.37-.12-42.37-.26,19-.26,42.37-.26,42.35.09,42.35.26Z"/>
    <path class="st4" d="M443.21,293.18c-.19.02-.37.02-.56,0l-1.58-.13-5.8-.5c-4.91-.41-11.69-.86-19.19-1.07s-14.3-.12-19.22,0l-5.83.18h-1.58c-.19.03-.37.03-.56,0,.18-.05.36-.07.55-.08l1.58-.14c1.38-.11,3.36-.23,5.83-.35,4.92-.23,11.72-.36,19.24-.16s14.31.72,19.21,1.22c2.45.25,4.43.48,5.79.67l1.57.22c.19.02.37.07.55.14Z"/>
    <path class="st4" d="M443.73,331.37c0,.15-12.41,0-27.7-.36s-27.71-.75-27.7-.89,12.4,0,27.71.37,27.69.74,27.69.88Z"/>
    <path class="st4" d="M393.82,269.89c0,.15-19.58.26-43.73.26s-43.73-.11-43.73-.26,19.58-.26,43.73-.26,43.73.12,43.73.26Z"/>
    <path class="st4" d="M388.34,342.55c0,.14-19.64.26-43.87.26s-43.87-.12-43.87-.26,19.64-.26,43.87-.26,43.87.11,43.87.26Z"/>
    <path class="st4" d="M394.64,374.63c0,.14-21.36.26-47.7.26s-47.71-.12-47.71-.26,21.36-.26,47.71-.26,47.7.11,47.7.26Z"/>
    <path class="st4" d="M442.93,467.13c0,.14-32.21.26-71.93.26s-71.93-.12-71.93-.26,32.2-.26,71.93-.26,71.93.13,71.93.26Z"/>
    <g class="st8">
      <path d="M388.79,345.23c-.64-12.74-.18-24.66-.83-37.39-4.34,18.68-6.39,37.82-6.1,57,.07,4.55.29,9.18,1.76,13.49s5.54,8,9.7,9.84l.4-43.49c-1.87.14-3.05.46-4.93.55Z"/>
    </g>
  </g>
  <g id="freepik--Plant--inject-34">
    <polygon class="st2" points="105.72 423.48 98.51 470.85 56.62 470.85 46.9 424.16 105.72 423.48"/>
    <path class="st6" d="M52.76,453.84c0,.14,10.73.25,24,.25s24-.11,24-.25-10.73-.24-24-.24-24,.11-24,.24Z"/>
    <path class="st6" d="M52.6,451.51c0,.14,10.8.25,24.13.25s24.13-.11,24.13-.25-10.8-.24-24.13-.24-24.13.11-24.13.24Z"/>
    <path class="st6" d="M52.68,448.88c0,.14,10.8.25,24.13.25s24.13-.11,24.13-.25-10.8-.25-24.13-.25-24.13.11-24.13.25Z"/>
    <path class="st6" d="M93.7,468.15c.58-1.96,1.01-3.97,1.28-6,.43-1.99.7-4.02.8-6.05-.59,1.96-1.02,3.97-1.28,6-.43,1.99-.7,4.01-.8,6.05Z"/>
    <path class="st6" d="M90.85,467.65c.28-1.93.46-3.87.52-5.82.21-1.94.3-3.89.27-5.84-.46,1.9-.71,3.85-.76,5.8-.22,1.95-.23,3.91-.03,5.86Z"/>
    <path class="st6" d="M85.65,467.65c.98-3.92,1.45-7.96,1.41-12-.38,1.98-.65,3.99-.81,6-.31,1.99-.51,3.99-.6,6Z"/>
    <path class="st6" d="M82,467.9c.64-4.02.77-8.11.39-12.16-.22,2.02-.32,4.05-.3,6.08-.15,2.02-.18,4.05-.09,6.08Z"/>
    <path class="st6" d="M75.55,467.65c.32-1.9.47-3.83.45-5.76.14-1.92.12-3.85-.06-5.77-.3,1.9-.45,3.83-.44,5.76-.14,1.92-.12,3.85.05,5.77Z"/>
    <path class="st6" d="M70.84,467.9c.24-1.99.3-4,.2-6,.07-1.99-.03-3.98-.3-5.95-.22,1.99-.29,4-.19,6-.07,1.99.03,3.98.29,5.95Z"/>
    <path class="st6" d="M66.42,467.26c.05-2.08-.07-4.16-.36-6.22-.12-2.08-.4-4.14-.84-6.17-.05,2.08.07,4.16.36,6.22.12,2.08.4,4.14.84,6.17Z"/>
    <path class="st6" d="M60.72,466.64c0-1.79-.24-3.56-.7-5.29-.3-1.76-.83-3.47-1.56-5.1.27,1.75.63,3.49,1.08,5.21.29,1.75.69,3.48,1.18,5.18Z"/>
    <path class="st3" d="M64.76,330c-.01.08-.01.16,0,.24,0,.18.11.4.19.67.2.62.46,1.47.8,2.55s.79,2.47,1.23,4.06,1,3.38,1.51,5.4,1.11,4.21,1.63,6.6,1.07,4.93,1.62,7.63c1,5.4,1.92,11.37,2.56,17.67s.9,12.35,1,17.85c0,2.74,0,5.35-.07,7.8s-.18,4.71-.3,6.79-.28,3.94-.41,5.59-.27,3.06-.41,4.22-.21,2-.27,2.66c0,.28-.02.51-.06.69v.24c.03-.07.05-.15.06-.23,0-.18.06-.41.11-.69.08-.64.21-1.53.36-2.65s.34-2.57.49-4.21.37-3.52.49-5.6.29-4.35.35-6.8.11-5.06.13-7.82c-.06-5.5-.33-11.56-1-17.88s-1.58-12.31-2.61-17.72c-.56-2.7-1.06-5.26-1.66-7.64s-1.14-4.59-1.69-6.59-1.11-3.81-1.59-5.39-.92-2.94-1.31-4-.67-1.91-.88-2.53c-.1-.26-.18-.48-.24-.65,0-.09-.01-.17-.03-.26Z"/>
    <path class="st3" d="M72.32,359.33c-1.15-3.42-3.46-6.33-6.52-8.23-1-.64-2.34-1.16-3.44-.63-1.46.71-1.58,2.76-1.14,4.33.76,2.66,2.46,4.96,4.78,6.46,2.04,1.51,4.6,2.16,7.11,1.79"/>
    <path class="st3" d="M74.86,379.14c-1.08-4.09-4.34-9.9-7.73-12.44-.52-.42-1.12-.74-1.76-.93-.65-.2-1.36-.05-1.88.4-.59.78-.74,1.8-.42,2.72,1.42,6.08,6.15,10.84,12.22,12.3"/>
    <path class="st3" d="M75.56,396.57c-1.68-3.9-4.37-7.29-7.8-9.8-.73-.69-1.71-1.05-2.72-1-1.48.26-2.15,2.07-2,3.57.27,3.08,2.63,5.56,5.06,7.47,2.23,1.55,4.65,2.79,7.21,3.71"/>
    <path class="st3" d="M75.17,409.11c-1.63-2.98-3.89-5.56-6.64-7.56-.59-.45-1.27-.75-2-.89-.75-.16-1.53.13-2,.74-.67,1,0,2.3.68,3.25,2.34,3.26,5.66,5.69,9.47,6.94"/>
    <path class="st3" d="M75.5,404c2.86-3.5,6.04-6.74,9.5-9.65.47-.54,1.18-.81,1.89-.71.52.21.86.71.87,1.27,0,.55-.12,1.09-.36,1.59-2.3,5.1-6.8,8.88-12.22,10.27"/>
    <path class="st3" d="M75.19,387.71l7.46-9.09c.66-.91,1.48-1.69,2.42-2.3.98-.59,2.2-.59,3.18,0,.88.73,1.26,1.89,1,3-.27,1.09-.76,2.12-1.46,3-1.45,2.2-3.28,4.13-5.41,5.68-2.19,1.51-4.18,2.49-6.81,2.1"/>
    <path class="st3" d="M74.16,369.34c1.46-4.35,4.04-8.24,7.5-11.26.55-.55,1.24-.95,2-1.14,1.57-.12,3,.88,3.42,2.4.48,1.67.24,3.46-.68,4.93-.91,1.46-2.1,2.72-3.5,3.71-2.51,1.92-5.31,3.43-8.29,4.48"/>
    <path class="st3" d="M71.18,353c.72-5.27,3.46-9.66,6.64-13.92.67-.9,1.61-1.85,2.71-1.68.71.15,1.3.65,1.56,1.33.25.67.35,1.39.29,2.11-.28,6.53-4.44,12.26-10.56,14.54"/>
    <path class="st3" d="M69.09,344.6c.34-2.7.44-5.42.27-8.14-.17-2.73-1.11-5.36-2.7-7.59-.67-.96-1.59-1.7-2.66-2.16-1.11-.44-2.37-.28-3.32.44-.8.75-1.22,1.83-1.14,2.93.1,1.08.38,2.14.84,3.12,2,4.78,5.3,10.07,8.76,11.4"/>
    <path class="st3" d="M101.57,350.88c-.02.22-.02.45,0,.67v1.91c0,.79,0,1.85-.05,3s0,2.52-.14,4c-.13,3-.42,6.48-.87,10.38s-1.21,8.16-2.12,12.61-2,8.6-3.17,12.36-2.31,7.08-3.38,9.85c-.5,1.39-1,2.63-1.47,3.72s-.84,2-1.18,2.79l-.74,1.76c-.1.2-.18.41-.24.63.13-.19.24-.38.33-.59.21-.44.48-1,.83-1.72s.79-1.67,1.25-2.76,1-2.31,1.55-3.7c1.11-2.76,2.3-6.1,3.48-9.85s2.27-7.95,3.22-12.39,1.57-8.72,2-12.63.68-7.44.76-10.42c.08-1.48.06-2.83.07-4s0-2.2,0-3,0-1.42-.07-1.91c0-.24-.01-.48-.06-.71Z"/>
    <path class="st3" d="M100.4,372.48c-.05-2.57-.99-5.04-2.66-7-.5-.73-1.33-1.17-2.21-1.17-1.15.17-1.67,1.54-1.71,2.7-.06,1.97.59,3.89,1.84,5.42,1.06,1.47,2.66,2.45,4.45,2.75"/>
    <path class="st3" d="M97.87,386.52c.14-3-.83-7.68-2.59-10.13-.26-.4-.6-.74-1-1-.41-.27-.92-.31-1.37-.12-.57.39-.9,1.06-.87,1.75-.34,4.44,1.85,8.7,5.67,11"/>
    <path class="st3" d="M94.59,398.54c-.3-3.02-1.4-5.91-3.19-8.36-.36-.62-.96-1.06-1.65-1.24-1.06-.14-1.91.95-2.14,2-.48,2.15.59,4.34,1.83,6.17,1.19,1.53,2.57,2.9,4.11,4.08"/>
    <path class="st3" d="M91.63,407c-.47-2.38-1.46-4.62-2.89-6.57-.31-.42-.71-.76-1.17-1-.48-.25-1.05-.21-1.49.09-.66.52-.51,1.55-.23,2.35.9,2.73,2.65,5.1,5,6.77"/>
    <path class="st3" d="M93,403.59c2.7-1.77,5.56-3.29,8.54-4.53.43-.27.98-.3,1.44-.08.29.25.41.63.32,1-.12.37-.32.72-.59,1-2.66,2.99-6.54,4.59-10.53,4.37"/>
    <path class="st3" d="M96.25,392.42c2.35-1.52,4.68-3.05,7-4.58.65-.47,1.38-.81,2.15-1,1.01-.35,2.11.18,2.46,1.19.2.58.11,1.22-.24,1.73-.42.68-.98,1.27-1.64,1.72-1.47,1.21-3.14,2.15-4.94,2.76-1.62.69-3.46.69-5.08,0"/>
    <path class="st3" d="M99.5,379.7c1.93-2.65,4.53-4.74,7.53-6.06.49-.25,1.03-.37,1.58-.35,1.09.25,1.85,1.25,1.81,2.37-.03,1.24-.59,2.4-1.53,3.21-.93.8-2.01,1.4-3.18,1.77-2.12.77-4.35,1.19-6.61,1.26"/>
    <path class="st3" d="M101,367.91c1.62-3.43,4.43-5.83,7.51-8.05.58-.57,1.43-.78,2.21-.56.45.25.75.72.78,1.24.02.51-.06,1.02-.26,1.5-1.6,4.38-5.66,7.39-10.32,7.63"/>
    <path class="st3" d="M101.38,361.77c.81-1.77,1.46-3.6,1.93-5.49.48-1.9.41-3.89-.2-5.75-.27-.78-.74-1.47-1.38-2-.66-.54-1.55-.7-2.36-.42-.71.34-1.22.98-1.4,1.75-.17.75-.21,1.53-.1,2.3.32,3.68,1.44,8,3.51,9.66"/>
    <path class="st11" d="M48.61,350.42c-.01.22-.01.45,0,.67,0,.49-.05,1.12-.07,1.91s-.06,1.85,0,3,0,2.53.07,4c.09,3,.34,6.51.76,10.42s1.12,8.19,2,12.63,2.06,8.63,3.21,12.39,2.37,7.09,3.49,9.85c.53,1.39,1.08,2.61,1.55,3.7s.88,2,1.25,2.76l.83,1.72c.09.21.19.41.32.59-.06-.22-.14-.43-.23-.63l-.79-1.72c-.34-.76-.74-1.69-1.17-2.79s-1-2.33-1.48-3.72c-1.07-2.77-2.22-6.11-3.38-9.85s-2.23-7.93-3.17-12.35-1.58-8.69-2.07-12.58-.73-7.42-.86-10.42c-.1-1.48-.11-2.82-.15-4s0-2.2,0-3v-1.91c0-.23-.05-.45-.11-.67Z"/>
    <path class="st11" d="M49.78,372c.05-2.57.99-5.05,2.67-7,.49-.73,1.32-1.17,2.2-1.17,1.15.17,1.67,1.54,1.71,2.7.08,1.99-.57,3.93-1.83,5.47-1.07,1.47-2.67,2.46-4.46,2.75"/>
    <path class="st11" d="M52.31,386.06c-.14-3,.83-7.68,2.59-10.13.26-.4.6-.74,1-1,.4-.27.92-.31,1.36-.12.57.39.9,1.06.87,1.75.35,4.45-1.85,8.7-5.67,11"/>
    <path class="st11" d="M55.59,398.08c.31-3.02,1.41-5.91,3.2-8.36.36-.62.95-1.06,1.64-1.24,1.07-.14,1.91.95,2.15,2,.48,2.15-.59,4.35-1.84,6.17-1.19,1.53-2.57,2.91-4.11,4.08"/>
    <path class="st11" d="M58.56,406.53c.47-2.36,1.45-4.6,2.89-6.53.31-.41.7-.76,1.16-1,.48-.25,1.05-.21,1.49.09.66.52.52,1.56.24,2.35-.91,2.73-2.66,5.1-5,6.77"/>
    <path class="st11" d="M57.24,403.13c-2.7-1.77-5.57-3.29-8.55-4.53-.43-.27-.98-.3-1.44-.08-.3.26-.42.67-.31,1.05.11.37.31.72.58,1,2.66,2.98,6.54,4.59,10.53,4.37"/>
    <path class="st11" d="M53.93,392l-7-4.58c-.64-.46-1.37-.8-2.14-1-.79-.21-1.63.05-2.17.66-.45.68-.47,1.56-.05,2.26.41.66.96,1.22,1.6,1.66,1.47,1.21,3.14,2.15,4.94,2.76,1.63.69,3.46.69,5.09,0"/>
    <path class="st11" d="M50.68,379.24c-1.93-2.65-4.53-4.74-7.53-6.06-.49-.25-1.03-.37-1.57-.35-1.1.25-1.86,1.25-1.82,2.37.03,1.24.59,2.4,1.53,3.21.93.8,2.01,1.4,3.18,1.77,2.12.77,4.35,1.19,6.61,1.26"/>
    <path class="st11" d="M49.19,367.45c-1.63-3.43-4.44-5.83-7.52-8.05-.58-.57-1.43-.78-2.21-.56-.45.26-.74.72-.77,1.24-.03.51.06,1.02.25,1.5,1.6,4.38,5.66,7.39,10.32,7.63"/>
    <path class="st11" d="M48.81,361.31c-.82-1.76-1.47-3.6-1.94-5.49-.47-1.9-.4-3.89.21-5.75.25-.81.73-1.53,1.38-2.07.66-.54,1.55-.7,2.35-.42.71.34,1.23.98,1.41,1.75.16.76.2,1.53.1,2.3-.33,3.69-1.44,8-3.51,9.66"/>
    <path class="st2" d="M110.52,414.1v8.9c0,1.93-1.56,3.49-3.49,3.49h-60.65c-1.93,0-3.49-1.56-3.49-3.49v-8.9h67.63Z"/>
    <g class="st7">
      <polygon points="105.26 426.45 104.76 429.27 48.8 433.26 47.38 426.45 105.26 426.45"/>
    </g>
  </g>
</svg>