<?xml version="1.0" encoding="UTF-8"?>
<svg id="Layer_1" xmlns="http://www.w3.org/2000/svg" version="1.1" viewBox="0 0 750 500">
  <!-- Generator: Adobe Illustrator 29.8.1, SVG Export Plug-In . SVG Version: 2.1.1 Build 2)  -->
  <defs>
    <style>
      .st0 {
        fill: #e0e0e0;
      }

      .st1 {
        fill: #aa6550;
      }

      .st2 {
        fill: #b78876;
      }

      .st3 {
        fill: #ffbe9d;
      }

      .st4 {
        fill: #ebebeb;
      }

      .st5 {
        fill: #263238;
      }

      .st6 {
        fill: #50a7c2;
      }

      .st7 {
        fill: #eb996e;
      }

      .st8 {
        fill: #fff;
      }

      .st9 {
        fill: #fafafa;
      }

      .st10 {
        opacity: .6;
      }

      .st11 {
        opacity: .3;
      }

      .st12 {
        fill: #f5f5f5;
      }

      .st13 {
        fill: #455a64;
      }
    </style>
  </defs>
  <g id="freepik--background-complete--inject-72">
    <path class="st4" d="M544.73,255.13s-7.92-.57-7.19,17.19,2.54,27.23,2.54,27.23c0,0-.23,3.94-3.29,3.16s-8.78-4.6-11.62-1.74-1.89,7.53,2,12.9,12,17.45,12.73,18.54,1,3.09-1.15,2.9-16.76-5.14-18.7,1.92,11.38,20.27,12.81,21.71,1.5,2.39.93,3.28-5.33-1.24-9.54-2.47-9.31-1.94-10.08,2.23,5.09,16.38,27.06,29.21l10.57,5.31,10-6.38c20.58-15,25.2-27.69,24-31.76s-6.19-2.87-10.25-1.22-8.58,4.24-9.25,3.42-.68-1.76.6-3.36,13.21-16,10.58-22.88-16.66-.46-18.79,0-2.05-1.62-1.45-2.76,7.48-14,10.82-19.72,3.93-10.37.71-13-8.44,1.82-11.39,2.9-3.59-2.82-3.59-2.82c0,0,.86-9.6-.19-27.35s-9.06-16.31-9.06-16.31"/>
    <path class="st0" d="M545.33,271.04v.37c0,.25.05.62.09,1.09.07,1,.16,2.39.28,4.19.25,3.65.56,8.92.92,15.44.72,13,1.57,31.05,2.44,51s1.67,37.92,2.32,51c.33,6.51.6,11.78.79,15.45.09,1.8.16,3.22.2,4.19,0,.47,0,.83.05,1.1,0,.12,0,.25,0,.37v-.37c0-.24-.05-.63-.09-1.09-.06-1-.16-2.39-.28-4.2-.24-3.64-.56-8.91-.92-15.43-.72-13-1.57-31.06-2.44-51s-1.67-37.92-2.32-51c-.33-6.5-.6-11.77-.78-15.44-.09-1.81-.16-3.22-.21-4.2v-1.09l-.05-.38Z"/>
    <path class="st0" d="M532.96,306.66c.24.15.47.33.66.54.41.37,1,.93,1.68,1.62,1.39,1.38,3.27,3.34,5.3,5.54l5.17,5.65,1.57,1.71c.21.19.39.41.55.65-.24-.15-.46-.33-.66-.54-.41-.37-1-.92-1.67-1.62-1.38-1.4-3.23-3.38-5.26-5.58l-5.21-5.62-1.58-1.69c-.21-.2-.39-.42-.55-.66Z"/>
    <path class="st0" d="M548.94,322.02c-.08-.07,3.78-4.12,8.63-9s8.84-8.83,8.92-8.75-3.78,4.12-8.63,9-8.84,8.83-8.92,8.75Z"/>
    <path class="st0" d="M548.9,352.65c.22-.18.47-.34.73-.47l2.07-1.16c1.74-1,4.15-2.34,6.75-3.94s4.91-3.11,6.57-4.22l2-1.32c.23-.18.48-.33.75-.44-.2.21-.42.41-.66.57-.44.35-1.08.83-1.9,1.42-1.62,1.18-3.91,2.74-6.52,4.34s-5,2.93-6.83,3.84c-.89.46-1.62.82-2.13,1.05-.26.15-.54.26-.83.33Z"/>
    <path class="st0" d="M531.39,341.93c.26.09.5.2.73.35.45.24,1.11.6,1.91,1.06,1.61.92,3.82,2.2,6.25,3.65s4.61,2.77,6.18,3.74c.79.49,1.42.89,1.85,1.18s.67.45.65.48c-.26-.09-.5-.2-.73-.35-.46-.24-1.11-.6-1.91-1.06-1.61-.92-3.82-2.2-6.25-3.65s-4.61-2.77-6.18-3.74c-.79-.49-1.42-.89-1.85-1.18s-.67-.45-.65-.48Z"/>
    <path class="st0" d="M527.91,368.97c.33.11.64.26.93.45l2.46,1.35c2.07,1.16,4.91,2.79,8,4.61s5.95,3.49,8,4.71l2.4,1.47c.3.17.59.37.85.59-.32-.12-.64-.27-.93-.45l-2.46-1.36c-2.07-1.16-4.91-2.79-8-4.61s-6-3.48-8-4.71l-2.4-1.47c-.3-.17-.59-.36-.85-.58Z"/>
    <path class="st0" d="M550.11,381.68c.29-.23.6-.43.92-.61l2.57-1.57c2.17-1.32,5.16-3.15,8.4-5.27s6.14-4.1,8.22-5.55l2.47-1.72c.29-.23.61-.42.94-.59-.26.26-.54.5-.84.72-.56.44-1.38,1.07-2.4,1.82-2,1.51-4.91,3.54-8.17,5.66s-6.27,3.92-8.47,5.18c-1.11.62-2,1.12-2.64,1.45-.32.19-.65.35-1,.48Z"/>
    <polygon class="st0" points="566 399.92 536.76 399.92 546.3 472.16 556.46 472.16 566 399.92"/>
    <path class="st12" d="M538.28,408.8s0,.1.15.26c.2.22.44.39.71.5,1.03.36,2.17.22,3.09-.38,1.18-.65,2.2-1.93,3.79-2.49,1.75-.56,3.64-.53,5.37.1,1.76.61,3.44,1.42,5,2.43,1.31.82,2.67,1.55,4.07,2.19.95.43,1.96.72,3,.86.28.04.56.06.84.06.1.02.2.02.3,0-1.38-.22-2.73-.63-4-1.21-1.38-.67-2.71-1.43-4-2.26-1.58-1.04-3.29-1.88-5.09-2.5-1.83-.66-3.83-.68-5.68-.06-.77.31-1.48.75-2.1,1.3-.53.47-1.09.9-1.67,1.3-.83.57-1.87.75-2.85.49-.35-.13-.66-.33-.93-.59Z"/>
    <path class="st12" d="M539.34,422.11s.23-.3.69-.78c.67-.65,1.46-1.16,2.34-1.48,1.3-.47,2.68-.68,4.06-.61,1.71.13,3.41.36,5.09.69,1.72.33,3.47.41,5.21.22,1.42-.19,2.8-.58,4.1-1.17.87-.4,1.7-.89,2.47-1.47.29-.2.55-.43.78-.7-1.08.7-2.21,1.32-3.38,1.86-1.28.51-2.63.85-4,1-1.7.16-3.41.07-5.08-.25-1.7-.34-3.42-.56-5.15-.66-1.44-.05-2.87.2-4.21.74-.9.36-1.71.94-2.35,1.67-.17.2-.31.41-.44.64-.06.09-.11.19-.13.3Z"/>
    <path class="st12" d="M562.73,429.23c-.24-.19-.52-.33-.81-.42-.78-.28-1.59-.46-2.42-.52-1.23-.07-2.46,0-3.67.21-1.36.22-2.82.6-4.36.92-1.42.34-2.89.51-4.35.5-1.19-.03-2.36-.29-3.46-.75-1-.47-1.89-1.13-2.62-1.95.11.29.27.54.49.76.56.63,1.24,1.13,2,1.49,1.12.53,2.34.83,3.58.89,1.5.03,3.01-.12,4.47-.47,1.55-.33,3-.72,4.34-1,1.18-.23,2.37-.33,3.57-.3,1.1.08,2.19.3,3.24.64Z"/>
    <path class="st12" d="M541.93,439.25c.9-.38,1.89-.48,2.84-.29,1.04.25,2.05.63,3,1.11,1.21.58,2.51.94,3.85,1.06,2.45.22,4.9-.35,7-1.62.63-.38,1.21-.83,1.74-1.34.35-.38.53-.59.51-.62-.77.61-1.58,1.16-2.42,1.67-2.07,1.14-4.43,1.64-6.79,1.44-2.76-.16-4.89-1.81-6.81-2-.74-.13-1.5-.06-2.2.19-.53.16-.74.38-.72.4Z"/>
    <path class="st12" d="M543.56,453.11c.84.03,1.67-.14,2.43-.48,1.47-.49,3.29-1.62,5.42-2.46.98-.41,2.04-.63,3.1-.65.87,0,1.72.19,2.5.57.71.38,1.33.91,1.81,1.56-.04-.23-.14-.44-.28-.62-.35-.52-.82-.94-1.37-1.24-.81-.45-1.72-.69-2.65-.71-1.12,0-2.24.22-3.28.64-2.2.88-4,2-5.37,2.6s-2.33.72-2.31.79Z"/>
    <path class="st12" d="M544.99,459.57c.58.29,1.21.49,1.85.6,1.52.37,3.07.63,4.63.78,1.56.16,3.13.2,4.69.13.65.03,1.3-.05,1.93-.23,0-.14-3,0-6.58-.38s-6.49-1.04-6.52-.9Z"/>
    <rect class="st9" x="467.03" y="26.23" width="90.81" height="116.9"/>
    <path class="st4" d="M534.61,43.42c-.05.09-.1.17-.17.24l-.52.65c-.29.34-.56.7-.8,1.08-.36.5-.7,1.02-1,1.55-.86,1.45-1.58,2.97-2.15,4.56-.74,2.1-1.3,4.27-1.67,6.47-.43,2.67-.71,5.37-.84,8.07-.17,2.92-.18,6-.34,9.34-.11,3.46-.48,6.9-1.11,10.3-.36,1.8-.85,3.57-1.45,5.3-.65,1.78-1.48,3.49-2.48,5.1-2.02,3.15-4.77,5.79-8,7.68-3.01,1.71-6.22,3.06-9.55,4-3.16,1-6.22,1.64-9.08,2.29s-5.5,1.28-7.88,2c-2.15.62-4.25,1.38-6.3,2.27-1.54.68-3.03,1.48-4.44,2.4-.58.38-1.09.72-1.51,1.05s-.79.59-1.07.84l-.64.53c-.07.07-.15.12-.23.17.06-.08.12-.15.2-.21l.61-.57c.32-.31.65-.61,1-.88.48-.39.98-.76,1.5-1.1,1.4-.96,2.88-1.79,4.43-2.49,2.04-.94,4.15-1.72,6.31-2.36,2.39-.73,5.05-1.38,7.9-2s5.9-1.36,9-2.33c3.29-.95,6.46-2.3,9.43-4,3.17-1.86,5.85-4.44,7.84-7.53.98-1.58,1.8-3.25,2.43-5,.6-1.71,1.08-3.45,1.44-5.22.62-3.37,1.01-6.79,1.14-10.22.16-3.28.19-6.41.38-9.34.14-2.72.45-5.43.91-8.11.4-2.24,1.02-4.43,1.83-6.55.59-1.6,1.34-3.13,2.24-4.57.32-.53.67-1.04,1.05-1.53.26-.37.54-.73.85-1.06l.56-.62c.1-.12.17-.21.18-.2Z"/>
    <path class="st4" d="M547.51,57.22c-.03.09-.07.18-.11.26l-.37.76c-.52.94-1.13,1.83-1.83,2.65-1.11,1.3-2.37,2.46-3.77,3.45-1.85,1.31-3.84,2.39-5.94,3.23-2.54,1-5.17,1.79-7.84,2.36-2.87.67-6,1.22-9.16,2-3.37.7-6.65,1.8-9.76,3.28-3.34,1.55-6.22,3.94-8.36,6.94-1.98,3.11-3.14,6.67-3.37,10.35-.27,3.43-.18,6.88.28,10.29.36,3.27.82,6.38,1.05,9.32.25,2.73.23,5.48-.06,8.2-.27,2.25-.85,4.45-1.71,6.54-.64,1.58-1.51,3.07-2.58,4.4-.67.83-1.42,1.58-2.25,2.25l-.69.49c-.15.11-.23.16-.24.15l.21-.19.65-.53c.81-.7,1.54-1.47,2.19-2.32,1.02-1.34,1.85-2.82,2.47-4.39.82-2.08,1.36-4.26,1.61-6.48.27-2.7.27-5.41,0-8.11-.25-2.92-.72-6-1.1-9.31-.47-3.44-.57-6.93-.31-10.39.25-3.76,1.45-7.4,3.48-10.57,2.19-3.07,5.14-5.52,8.56-7.11,3.14-1.49,6.45-2.61,9.85-3.32,3.22-.73,6.32-1.28,9.17-1.92,2.66-.55,5.27-1.31,7.81-2.28,2.08-.81,4.06-1.86,5.9-3.13,1.39-.95,2.66-2.07,3.78-3.34.71-.8,1.34-1.67,1.9-2.58l.41-.72c.06-.15.12-.24.13-.23Z"/>
    <path class="st4" d="M514.73,102.67c-.91-.51-1.78-1.1-2.59-1.75-1.56-1.13-3.69-2.73-6-4.51s-4.43-3.43-5.94-4.64c-.84-.6-1.63-1.27-2.36-2,.91.5,1.76,1.08,2.57,1.73,1.56,1.13,3.69,2.73,6,4.51s4.43,3.43,5.94,4.64c.85.6,1.65,1.28,2.38,2.02Z"/>
    <path class="st4" d="M521.91,96.05c-.31-.13-.6-.31-.86-.53-.53-.36-1.29-.91-2.22-1.59-1.86-1.36-4.41-3.27-7.2-5.41s-5.31-4.1-7.12-5.53c-.9-.72-1.62-1.31-2.11-1.73-.28-.19-.53-.43-.74-.69.31.14.6.31.86.53.53.37,1.29.91,2.22,1.59,1.86,1.37,4.41,3.28,7.2,5.42s5.31,4.09,7.11,5.53c.9.72,1.63,1.31,2.12,1.72.28.2.53.43.74.69Z"/>
    <path class="st4" d="M524.73,87.93c-.88-.48-1.72-1.04-2.5-1.67-1.5-1.09-3.55-2.62-5.79-4.34s-4.29-3.29-5.71-4.42c-.81-.6-1.57-1.27-2.27-2,.88.48,1.72,1.04,2.5,1.67,1.5,1.09,3.55,2.62,5.79,4.34s4.26,3.29,5.71,4.45c.81.59,1.57,1.25,2.27,1.97Z"/>
    <path class="st4" d="M526.73,78.72c-1.59-.89-3.09-1.93-4.48-3.1-1.49-1.03-2.88-2.2-4.15-3.5,1.59.88,3.08,1.92,4.47,3.09,1.49,1.04,2.89,2.21,4.16,3.51Z"/>
    <path class="st4" d="M537.64,66.5c-1.77-1.01-3.44-2.17-5-3.47-1.66-1.16-3.22-2.46-4.66-3.88,1.77,1.01,3.44,2.17,5,3.47,1.66,1.16,3.22,2.46,4.66,3.88Z"/>
    <path class="st4" d="M546.79,61.44c-.88-.49-1.71-1.05-2.49-1.68-1.5-1.08-3.55-2.62-5.8-4.33s-4.26-3.3-5.7-4.46c-.81-.6-1.57-1.27-2.27-2,.87.49,1.71,1.05,2.49,1.68,1.5,1.09,3.55,2.62,5.8,4.33s4.26,3.3,5.7,4.46c.82.59,1.58,1.26,2.27,2Z"/>
    <path class="st4" d="M506.19,105.6c-1.76-1.02-3.43-2.18-5-3.47-1.66-1.16-3.21-2.46-4.65-3.89,1.76,1.01,3.43,2.17,5,3.47,1.66,1.16,3.22,2.46,4.65,3.89Z"/>
    <path class="st4" d="M495.46,118.95c-1.64-.93-3.2-2-4.64-3.22-1.55-1.07-3-2.29-4.32-3.63,1.64.94,3.19,2.01,4.64,3.22,1.54,1.08,2.99,2.29,4.32,3.63Z"/>
    <path class="st4" d="M495.07,129.43c-.9-.49-1.75-1.07-2.54-1.71-1.53-1.11-3.63-2.67-5.92-4.42s-4.34-3.36-5.82-4.55c-.83-.6-1.6-1.27-2.32-2,.9.49,1.75,1.06,2.55,1.71,1.53,1.11,3.62,2.67,5.91,4.42,2.29,1.75,4.35,3.36,5.82,4.55.82.61,1.6,1.28,2.32,2Z"/>
    <path class="st0" d="M477.07,33.13c0,1-.81,1.81-1.81,1.81s-1.81-.81-1.81-1.81.81-1.81,1.81-1.81h0c1,0,1.81.81,1.81,1.81Z"/>
    <path class="st0" d="M551.41,33.13c0,1-.81,1.81-1.81,1.81s-1.81-.81-1.81-1.81.81-1.81,1.81-1.81h0c1,0,1.81.81,1.81,1.81Z"/>
    <rect class="st0" x="155.93" y="32.6" width="70.96" height="102.85"/>
    <rect class="st12" x="152.37" y="32.6" width="70.96" height="102.85"/>
    <rect class="st8" x="161.19" y="43.74" width="53.33" height="80.57"/>
    <path class="st0" d="M214.51,124.31v-22.55c0-14.21,0-34.32-.08-58l.17.18h-53.32l.19-.2v80.57l-.15-.15,38.81.08h14.54-14.41l-39.07.26h-.16V43.58h53.7v.17c0,23.74-.07,43.9-.09,58.14v22.06c0,.26-.13.36-.13.36Z"/>
    <path class="st0" d="M223.53,32.6c-.36.65-.79,1.27-1.27,1.84-.82,1.1-2,2.6-3.33,4.22s-2.58,3.06-3.5,4.08c-.48.57-1,1.11-1.56,1.6.4-.63.85-1.23,1.35-1.78l3.42-4.14,3.41-4.15c.45-.6.94-1.15,1.48-1.67Z"/>
    <path class="st8" d="M214.79,124.06c2.65,4.22,5.77,8.12,9.3,11.63"/>
    <path class="st0" d="M224.09,135.69c-.59-.44-1.14-.93-1.63-1.48-1.23-1.27-2.4-2.61-3.5-4-1.1-1.38-2.14-2.81-3.09-4.3-.43-.59-.79-1.23-1.08-1.9.47.55.91,1.14,1.3,1.75.79,1.1,1.88,2.6,3.17,4.2s2.5,3,3.4,4c.52.54,1,1.12,1.43,1.73Z"/>
    <path class="st8" d="M152.36,135.37l9.3-11.46"/>
    <path class="st0" d="M161.66,123.91c-1.4,2.02-2.9,3.98-4.5,5.85-1.5,1.95-3.1,3.83-4.8,5.61,1.4-2.03,2.9-3.98,4.5-5.85,1.5-1.96,3.1-3.83,4.8-5.61Z"/>
    <path class="st0" d="M152.37,32.6c1.6,1.71,3.11,3.52,4.51,5.4,1.51,1.79,2.92,3.67,4.21,5.63-1.6-1.71-3.1-3.51-4.51-5.39-1.51-1.8-2.91-3.68-4.21-5.64Z"/>
    <circle class="st0" cx="193.88" cy="85.35" r="5.72"/>
    <path class="st0" d="M202.66,65.21c0,2.36-1.91,4.27-4.27,4.27s-4.27-1.91-4.27-4.27,1.91-4.27,4.27-4.27h0c2.36,0,4.26,1.91,4.27,4.27Z"/>
    <path class="st0" d="M186.03,71.79c0,1.71-1.38,3.09-3.09,3.09s-3.09-1.38-3.09-3.09,1.38-3.09,3.09-3.09h0c1.71,0,3.09,1.38,3.09,3.09Z"/>
    <path class="st0" d="M203.08,104.2c-.75.75-1.97.75-2.72,0s-.75-1.97,0-2.72c.75-.75,1.96-.75,2.71,0,.75.75.75,1.97,0,2.72Z"/>
    <path class="st0" d="M177.04,88.98c0,1.71-1.38,3.09-3.09,3.09s-3.09-1.38-3.09-3.09c0-1.71,1.38-3.09,3.09-3.09h0c1.71,0,3.09,1.38,3.09,3.09Z"/>
    <path class="st0" d="M193.88,85.35c.19-.09,2.1,3.59,4.27,8.21s3.76,8.46,3.57,8.55-2.11-3.59-4.27-8.22-3.72-8.46-3.57-8.54Z"/>
    <path class="st0" d="M193.42,85.92c0,.21-4.14,1-9.32,1.77s-9.37,1.22-9.37,1.01,4.13-1,9.31-1.77,9.35-1.22,9.38-1.01Z"/>
    <path class="st0" d="M193.03,83.18c-.14.15-2.79-2-5.46-5.27s-4.28-6.27-4.11-6.41,2.07,2.69,4.71,5.88,5.01,5.63,4.86,5.8Z"/>
    <path class="st0" d="M198.39,65.21h0v.15l-.1.55c-.14.65-.28,1.32-.43,2-.39,1.7-1,4-1.62,6.61-1.32,5.14-2.42,9.3-2.62,9.26s.55-4.3,1.87-9.45c.66-2.58,1.31-4.89,1.84-6.56.26-.83.49-1.5.68-2,.07-.18.14-.35.23-.52l.09-.13h0s.07,0,.05,0,.01.09.01.09Z"/>
  </g>
  <g id="freepik--character-3--inject-72">
    <path class="st13" d="M469.38,439.68l.6,20.71s-20.84,7.56-21.11,11.39l40.19.28.39-32.29-20.07-.09Z"/>
    <path class="st5" d="M465.1,461.89c0,.19.8.53,1.46,1.36s.85,1.72,1.05,1.71.33-1.12-.52-2.14-1.98-1.12-1.99-.93Z"/>
    <path class="st5" d="M462.67,466.92c.18,0,.46-.94,0-2s-1.42-1.51-1.5-1.35.48.75.87,1.64.44,1.69.63,1.71Z"/>
    <path class="st13" d="M539.73,439.69l4.21,20.69s20.84,7.56,21.1,11.39l-40.18.28-4.89-32.27,19.76-.09Z"/>
    <path class="st5" d="M548.79,461.88c.05.19-.8.53-1.46,1.36s-.85,1.72-1,1.71-.33-1.12.51-2.14,1.95-1.12,1.95-.93Z"/>
    <path class="st5" d="M551.22,466.91c-.18,0-.46-.94,0-2s1.41-1.51,1.49-1.35-.48.75-.87,1.64-.42,1.69-.62,1.71Z"/>
    <polygon class="st6" points="519.4 242.33 549.78 460.3 520.3 459.72 487.19 274.22 494.88 460.59 462.6 458.61 451.26 241.01 519.4 242.33"/>
    <g class="st11">
      <polygon points="452.11 258.13 451.99 254.97 521.46 257.13 522.18 263.18 452.11 258.13"/>
    </g>
    <path class="st5" d="M474.45,459.5c-.15,0-2.29-43.37-4.79-96.88s-4.4-96.9-4.26-96.9,2.28,43.36,4.78,96.88,4.41,96.9,4.27,96.9Z"/>
    <path class="st5" d="M535.67,457.72s0-.16-.1-.49-.13-.82-.23-1.44c-.19-1.29-.47-3.16-.83-5.56-.72-4.84-1.75-11.82-3-20.43-2.58-17.26-6.24-41.08-10.58-67.34s-8.54-50-11.65-67.17c-1.57-8.56-2.83-15.5-3.71-20.32-.43-2.39-.77-4.24-1-5.53-.11-.62-.19-1.1-.25-1.44s-.07-.5-.07-.5c0,0,.05.17.12.49l.3,1.43c.26,1.28.63,3.13,1.1,5.51.94,4.78,2.27,11.72,3.87,20.29,3.21,17.15,7.46,40.88,11.8,67.16s7.95,50.09,10.43,67.36c1.24,8.64,2.22,15.63,2.86,20.47.32,2.4.57,4.27.74,5.57.07.62.13,1.1.18,1.45s.02.49.02.49Z"/>
    <path class="st6" d="M449.87,186.77s-15.22-3.63-15.72-4.27l12.51-32.23c2.45-6.72,7.82-11.95,14.6-14.23,4.75-1.66,9.76-2.43,14.78-2.28l21.13-1.12c5.81.36,11.49,1.93,16.66,4.61,7.11,3.7,12.66,9.82,15.65,17.25l9.48,23.67-23.9,5-.91,25.43,10.93,48.73-76.27-2.49,3.41-66.77h0l-2.35-1.3Z"/>
    <g class="st11">
      <path class="st8" d="M436.73,178.29c0,.07,3.92,1.36,8.82,2.88s8.87,2.68,8.89,2.61-3.92-1.36-8.81-2.87-8.9-2.69-8.9-2.62Z"/>
    </g>
    <path class="st5" d="M505.79,155.63c.16-.17.29-.36.41-.56.24-.36.61-.88,1.09-1.51.56-.73,1.16-1.43,1.79-2.09.78-.81,1.61-1.58,2.48-2.29,1.59-1.28,3.33-2.37,5.18-3.25.71-.34,1.3-.59,1.71-.75.22-.07.43-.16.63-.28-.23.04-.45.1-.67.18-.42.13-1,.36-1.75.67-2.93,1.3-5.57,3.19-7.76,5.54-.63.7-1.23,1.44-1.77,2.21-.36.5-.7,1.03-1,1.57-.13.17-.25.36-.34.56Z"/>
    <path class="st5" d="M508.91,163.32c-.08,0,.66,7.77,1.64,17.34s1.84,17.32,1.92,17.31-.66-7.77-1.65-17.34-1.84-17.32-1.91-17.31Z"/>
    <path class="st5" d="M456.95,148.93c.15-.51.26-1.04.34-1.57.27-1.26.62-2.51,1.05-3.73.44-1.21.96-2.4,1.56-3.54.46-.88.77-1.41.74-1.43s-.11.11-.27.34-.38.57-.64,1c-.65,1.13-1.2,2.31-1.64,3.54-.45,1.23-.79,2.49-1,3.78-.08.5-.13.9-.15,1.18-.01.14,0,.29.01.43Z"/>
    <path class="st5" d="M455.63,176.08c.06-.25.11-.5.13-.76.07-.5.14-1.21.23-2.1.17-1.77.35-4.22.45-6.93s.09-5.17,0-6.95c0-.89-.05-1.61-.08-2.1,0-.26-.03-.52-.08-.77-.03.26-.03.51,0,.77v2.1c0,1.78,0,4.23-.12,6.94s-.25,5.16-.37,6.93l-.15,2.1c-.03.26-.03.51-.01.77Z"/>
    <path class="st8" d="M487.58,171.5c5.55.32,11.11.22,16.64-.31v2.16h-16.64v-1.85Z"/>
    <g class="st11">
      <path class="st8" d="M471.03,135.58c-.03.11-.06.22-.07.33,0,.24-.08.56-.14,1-.11.84-.25,2.07-.37,3.64-.25,3.12-.47,7.56-.55,12.81v.2l.18-.09c3.32-1.61,7-3.37,10.91-5.31l18.91-9.46,5.72-2.9,1.55-.8.4-.21.13-.08-.15.06-.41.19-1.57.75-5.75,2.79-18.95,9.39c-3.87,1.94-7.58,3.7-10.89,5.33l.17.11c.06-5.24.24-9.68.45-12.8.09-1.56.22-2.8.3-3.64,0-.41.08-.73.1-1,.02-.1.03-.21.03-.31Z"/>
    </g>
    <g class="st11">
      <path class="st8" d="M510.73,180.5c.09.01.18.01.27,0l.78-.19,2.84-.72c2.4-.61,5.72-1.46,9.4-2.34s7-1.66,9.42-2.21l2.86-.66.78-.19c.17,0,.27-.07.26-.08h-.27l-.79.14-2.88.57c-2.43.5-5.77,1.24-9.45,2.13s-7,1.76-9.38,2.43l-2.82.8-.76.24c-.15.08-.26.08-.26.08Z"/>
    </g>
    <path class="st5" d="M473.93,131.65c-1.17.62-2.15,1.56-2.81,2.71-1.65,2.71-2.78,5.7-3.34,8.83-.33,1.71-.53,3.43-.61,5.17v2.28c0,.72.05,1.37.11,2s.12,1.14.18,1.62.14.88.2,1.22c.04.34.12.68.25,1,.04-.35.04-.7,0-1.05l-.18-1.23c0-.48-.06-1-.1-1.61s0-1.26,0-2,0-1.45.06-2.24c.1-1.71.32-3.42.64-5.1.55-3.06,1.61-6.01,3.13-8.72.49-.8,1.08-1.54,1.74-2.2.45-.44.76-.65.73-.68Z"/>
    <path class="st5" d="M497.57,131.8c.33.55.69,1.08,1.1,1.58,1,1.42,1.82,2.95,2.45,4.57.91,2.41,1.52,4.91,1.82,7.47.38,2.89.54,6.11.75,9.48s.18,6.59.19,9.52v7.8c0,2.22.06,4,.13,5.26-.02.65.05,1.29.19,1.92.11-.64.15-1.28.12-1.93,0-1.26.08-3.05.14-5.25s.13-4.86.17-7.79.05-6.17-.13-9.57-.39-6.61-.82-9.54c-.33-2.61-1-5.16-2-7.59-.69-1.63-1.61-3.16-2.72-4.54-.39-.53-.86-1-1.39-1.39Z"/>
    <path class="st5" d="M462.61,175.27c.09-.57.13-1.14.11-1.72,0-1.11.05-2.71.07-4.68v-3.24c0-1.16,0-2.41.07-3.69.04-1.32.51-2.6,1.33-3.63.92-1.07,2.25-1.7,3.66-1.73,1.42,0,2.79.53,3.84,1.48.97.91,1.64,2.09,1.93,3.38.32,1.23.46,2.48.65,3.62s.35,2.22.51,3.2c.31,2,.58,3.53.77,4.62.07.57.19,1.13.36,1.68,0-.57-.06-1.14-.15-1.71-.13-1.1-.34-2.69-.6-4.65-.14-1-.28-2-.44-3.2s-.29-2.39-.61-3.69c-.31-1.39-1.03-2.66-2.07-3.64-1.14-1.05-2.64-1.63-4.19-1.64-1.57.04-3.04.74-4.06,1.93-.89,1.12-1.39,2.51-1.43,3.94-.08,1.34,0,2.57,0,3.73v3.24c0,2,.06,3.57.1,4.68,0,.58.06,1.15.15,1.72Z"/>
    <path class="st5" d="M467.63,151.5c.09,1.9.79,3.72,2,5.19-1.11-.24-2.26-.22-3.36.06.71-1.66,1.01-3.45.89-5.25"/>
    <path class="st5" d="M462.59,163.32c.23-.7.51-1.39.83-2.06.39-.68.9-1.27,1.51-1.76.73-.62,1.62-1.04,2.56-1.22.95-.15,1.92-.06,2.82.28.74.28,1.42.69,2,1.22.51.53.99,1.1,1.43,1.7-.17-.77-.58-1.47-1.17-2-.59-.61-1.3-1.09-2.09-1.4-.98-.4-2.05-.52-3.09-.35-1.04.19-2,.67-2.79,1.37-.64.55-1.16,1.24-1.53,2-.38.68-.54,1.45-.48,2.22Z"/>
    <path class="st3" d="M448.73,222.23c-3.1,0-5.86-2.23-7.32-5-1.33-2.81-2.01-5.89-2-9-.38-8.21.64-16.42,3-24.29l13.57,2.37-3.69,36.55-3.56-.63Z"/>
    <polygon class="st5" points="503.57 226.78 459.38 225.17 448.67 173.39 495.21 175.98 503.57 226.78"/>
    <path class="st13" d="M480.83,175.09l-.67-1.32-3.53-.27s-.89-2.32-5.93-2.55c-4.52-.21-4.7,2.06-4.7,2.06h-2.44v1.11l17.27.97Z"/>
    <path class="st3" d="M456.19,210.1l-3.35-1c-.63-.18-1.3-.22-1.94-.09h0c-.79.16-1.51.54-2.08,1.1-1.15,1.05-2.2,2.2-3.15,3.44-.37.84-.37,1.8,0,2.64.37.51-.82,3.08-.67,3.94.08.73.31,1.44.67,2.08.3.36,0,1.58.75,2.51.43.54.91,1.04,1.42,1.5,0,0,9.2.43,10.1,0,.91-.59,1.73-1.29,2.47-2.08,0,0,.82-1.5-.45-1.64l5.23-2c.64-.22.98-.92.76-1.56,0,0,0,0,0,0-.08-.23-.24-.41-.46-.51,0,0,2.35-.74,2.9-1,1.08-.48,1.49-3-.75-2.68-1.19.17-2.8.51-2.8.51.49-.71.34-1.68-.34-2.22-.73-.51-4,.11-4,.11l-4.31-3.07v.03Z"/>
    <path class="st7" d="M455.02,223.9c.92.03,1.84-.1,2.71-.4.9-.21,1.76-.59,2.51-1.13,0-.07-1.13.47-2.58.87s-2.65.59-2.64.66Z"/>
    <path class="st7" d="M457.02,220.63c1.44-.22,2.87-.54,4.27-.95,1.43-.31,2.83-.72,4.21-1.21-1.44.23-2.87.55-4.27.95-1.43.32-2.83.73-4.21,1.21Z"/>
    <path class="st7" d="M455.93,217.38c1.55-.23,3.09-.54,4.6-.94,1.54-.31,3.05-.71,4.54-1.2-1.55.23-3.09.54-4.6.94-1.53.32-3.05.72-4.54,1.2Z"/>
    <path class="st7" d="M452.53,213.19c.38.17.77.29,1.18.37l1.3.34.77.19c.29.07.58.1.88.08.29-.01.59-.06.87-.14l.77-.17,1.3-.32c.41-.08.81-.19,1.19-.35-.42,0-.83.07-1.23.17l-1.32.25c-.52.13-1.05.23-1.59.29-.54,0-1.07-.09-1.58-.24l-1.31-.28c-.4-.11-.81-.17-1.23-.19Z"/>
    <path class="st7" d="M451.94,214.95s-.15.09-.26.34c-.11.32-.11.68,0,1,.1.34.32.63.61.82.23.15.4.17.41.14s-.55-.36-.76-1c-.1-.43-.1-.87,0-1.3Z"/>
    <path class="st7" d="M452.13,218.5c-.07,0-.27.33-.24.84s.27.85.33.81,0-.38-.06-.83.04-.82-.03-.82Z"/>
    <path class="st7" d="M452.08,222.37c-.07,0-.21.22-.15.55s.29.5.35.45,0-.25-.08-.51-.05-.47-.12-.49Z"/>
    <path class="st7" d="M451.07,212.98c.3.04.59.04.89,0l.94-.12c.37-.08.75-.1,1.13-.06.36.08.7.23,1,.45.29.2.54.41.78.55.24.19.54.29.85.29,0,0-.32-.13-.74-.45-.52-.51-1.15-.89-1.85-1.11-.21-.02-.43-.02-.64,0-.21,0-.38.06-.56.09l-.94.18c-.29.01-.58.07-.86.18Z"/>
    <path class="st7" d="M445.73,222.4c-.06-.23-.14-.45-.24-.66-.23-.58-.36-1.2-.37-1.83.02-.43.08-.86.2-1.28.11-.46.32-.91.43-1.46.07-.57.04-1.15-.11-1.7-.06-.57.04-1.15.3-1.67.28-.53.61-1.03,1-1.48.36-.46.71-.9,1.06-1.29.58-.73,1.32-1.31,2.17-1.7.57-.25,1.21-.35,1.83-.28.44.06.67.18.68.15s-.05,0-.16-.09c-.16-.07-.33-.13-.5-.16-.65-.12-1.31-.05-1.92.2-.89.38-1.67.97-2.29,1.71-.36.4-.72.84-1.08,1.29-.39.47-.73.99-1,1.54-.29.56-.4,1.19-.32,1.81.13.53.18,1.08.13,1.62-.1.5-.31,1-.41,1.46-.11.43-.17.88-.17,1.33.03.65.19,1.29.47,1.87.07.22.17.43.3.62Z"/>
    <path class="st3" d="M476.73,196.79l36.28,5.76-1.61-18.93,20.18-3.9,2.45,28,.43,6.43c.28,4.35-1.71,8.54-5.27,11.06h0c-3.24,2.3-7.37,2.92-11.14,1.69l-7.79-2.54-38-13.52"/>
    <path class="st3" d="M454.73,192.89c-.12-.54.22-1.07.76-1.2.08-.02.16-.03.24-.02,2,0,7.57,0,9.52.58,2.41.68,11.4,4.54,11.4,4.54l-3.81,14.07-13.8.15s-5-2.32-5.1-3.32c0-.63.05-1.26.13-1.88l-1.52-.82c-2.27-1.44-.82-4.19-.82-4.19-.9-.52-1.5-1.43-1.64-2.46-.08-.95.4-1.85,1.22-2.33,0,0-.63-2.22.53-2.82s3.13.17,3.13.17c-.13-.12-.22-.29-.24-.47Z"/>
    <path class="st7" d="M453.94,193.12c.14.06.28.11.43.14.28.08.68.17,1.19.26,1,.18,2.43.33,4,.5,1.32.12,2.64.32,3.94.6,1,.23,1.55.54,1.57.5s-.13-.1-.38-.24c-.36-.19-.75-.33-1.14-.44-1.31-.34-2.65-.57-4-.69-1.56-.17-3-.29-4-.42s-1.59-.25-1.61-.21Z"/>
    <path class="st7" d="M451.35,195.93c.3.22.64.39,1,.5.81.31,1.65.56,2.51.73,1,.21,1.92.34,2.58.43.36.07.72.1,1.08.08-1.19-.32-2.39-.58-3.6-.77-1-.21-1.88-.45-2.51-.65-.34-.14-.7-.24-1.06-.32Z"/>
    <path class="st7" d="M451.73,200.82c.95.48,1.96.82,3,1,1.01.28,2.05.4,3.1.37,0-.08-1.38-.25-3-.63s-3.1-.81-3.1-.74Z"/>
    <path class="st7" d="M452.59,204.99c.7.41,1.46.7,2.26.84.78.23,1.59.33,2.4.29-.77-.23-1.54-.41-2.33-.56-1.29-.3-2.31-.64-2.33-.57Z"/>
    <path class="st7" d="M459.78,202.5s.14.12.42.15c.77.06,1.47-.43,1.66-1.18.07-.27,0-.45,0-.45-.16.43-.42.82-.77,1.12-.4.22-.85.35-1.31.36Z"/>
    <path class="st7" d="M460.07,206.86c0,.07.54.1,1-.32s.51-1,.43-1-.21.42-.61.77-.83.47-.82.55Z"/>
    <path class="st7" d="M461.67,198c0,.07.35.2.7-.07s.34-.67.27-.66-.17.25-.43.44-.48.22-.54.29Z"/>
    <path class="st7" d="M476.73,196.79l-.11-.06-.33-.15-1.28-.57c-1.11-.48-2.75-1.19-4.81-2-1-.42-2.16-.88-3.41-1.34-.65-.26-1.32-.47-2-.62-.72-.13-1.46-.22-2.19-.27-1.51-.12-3.11-.17-4.78-.19h-1.9c-.24-.02-.48.03-.69.14-.47.23-.71.75-.59,1.25.03.08.09.14.16.18l.16.1.31.14c.21.09.43.17.65.23.06.02.13,0,.15-.07,0,0,0-.01,0-.02.02-.07-.02-.14-.09-.16-.56-.17-1.14-.3-1.72-.39-.6-.11-1.21-.13-1.82-.06-.33.04-.64.17-.89.39-.23.24-.39.54-.44.87-.1.63-.05,1.28.12,1.9l.07-.16c-.3.17-.56.4-.77.68-.53.71-.67,1.63-.39,2.46.29.79.85,1.46,1.58,1.88l-.06-.18c-.37.75-.52,1.58-.43,2.41.11.83.59,1.57,1.3,2h0l1.52.81-.07-.13c0,.37-.07.73-.1,1.09v.54c0,.09,0,.18,0,.27.01.11.05.21.11.3.22.29.48.55.78.75.29.21.57.39.86.57,1.11.66,2.25,1.26,3.43,1.79h.05l10-.15,2.77-.06h.98c-.08,0-.17,0-.25,0h-3.51l-10,.06h0c-1.1-.53-2.25-1.11-3.39-1.8-.29-.18-.57-.36-.84-.56-.27-.19-.52-.42-.72-.69-.03-.05-.06-.12-.07-.18,0-.09,0-.17,0-.26v-.52c0-.36.06-.72.1-1.08,0-.05-.02-.1-.06-.12l-1.52-.82h0c-.64-.38-1.08-1.04-1.18-1.78-.08-.77.06-1.55.41-2.24.03-.06.01-.14-.05-.18-.67-.39-1.19-1.01-1.46-1.74-.25-.75-.11-1.58.36-2.21.18-.24.41-.45.67-.6.06-.03.09-.09.07-.15-.16-.58-.2-1.19-.11-1.78.03-.31.18-.6.41-.81.21-.18.47-.29.74-.32.58-.06,1.17-.04,1.74.07.57.08,1.14.21,1.69.37l.06-.26c-.21-.05-.41-.12-.61-.21l-.29-.13c-.09,0-.18-.14-.22-.13-.02-.19.01-.38.09-.55.09-.17.23-.31.4-.4.18-.08.37-.12.57-.11h1.9c1.67,0,3.26.06,4.76.17.75.06,1.48.13,2.17.25.66.15,1.32.34,1.95.59,1.25.46,2.39.91,3.42,1.31l4.84,2,1.3.52.33.13h.16Z"/>
    <path class="st7" d="M512.83,202.5c.99.65,1.89,1.43,2.68,2.31.72.94,1.32,1.97,1.78,3.06-.02-.35-.11-.69-.27-1-.63-1.61-1.77-2.97-3.23-3.89-.29-.22-.61-.38-.96-.48Z"/>
    <path class="st3" d="M465.45,90.33c.75-9.54,8.71-16.89,18.28-16.89h.95c10.24.58,15.47,9.59,14.61,19.8l-1.77,41c-.03.69-.44,1.3-1.06,1.59l-23,10.78.71-21.49s-9.84-1.51-10-11.35c-.07-4.79.56-14.58,1.28-23.44Z"/>
    <path class="st7" d="M474.07,125.06c4.57,0,9.04-1.32,12.88-3.8,0,0-3,7.09-12.83,6.22l-.05-2.42Z"/>
    <path class="st5" d="M467.83,98.03c0,.76.6,1.38,1.36,1.41.74.06,1.39-.5,1.45-1.24,0,0,0-.02,0-.03,0-.76-.6-1.38-1.36-1.41-.74-.06-1.39.5-1.45,1.24,0,0,0,.02,0,.03Z"/>
    <path class="st5" d="M467.57,95.14c.18.18,1.24-.61,2.75-.61s2.62.76,2.79.57-.1-.41-.58-.76c-.65-.45-1.43-.69-2.23-.68-.79,0-1.56.24-2.19.71-.47.36-.62.69-.54.77Z"/>
    <path class="st5" d="M482.02,98.39c-.01.76.59,1.39,1.35,1.42.74.06,1.39-.5,1.45-1.24,0,0,0-.02,0-.03,0-.76-.6-1.39-1.36-1.42-.74-.06-1.38.5-1.44,1.23,0,.01,0,.02,0,.04Z"/>
    <path class="st5" d="M482.43,95.39c.18.18,1.24-.61,2.75-.6s2.62.75,2.79.56-.1-.41-.59-.76c-.65-.46-1.43-.69-2.23-.68-.78,0-1.55.25-2.18.71-.47.36-.62.69-.54.77Z"/>
    <path class="st5" d="M476.97,106.61c-.8-.24-1.63-.39-2.46-.44-.38,0-.75-.11-.81-.37-.03-.4.05-.8.25-1.15l1.14-2.94c1.57-4.19,2.71-7.63,2.54-7.69s-1.58,3.28-3.16,7.47c-.38,1-.74,2-1.08,3-.25.46-.32,1-.2,1.51.11.28.35.49.64.56.21.06.43.09.65.09.83.09,1.67.08,2.49-.04Z"/>
    <path class="st5" d="M481.42,107.65c-.25,0-.25,1.63-1.65,2.79s-3.15,1-3.16,1.22.39.32,1.13.34c.96.01,1.9-.32,2.64-.93.71-.59,1.17-1.42,1.27-2.34.08-.69-.12-1.09-.23-1.08Z"/>
    <path class="st5" d="M482.03,89.5c.15.41,1.66.21,3.43.42s3.21.69,3.45.32c.1-.17-.15-.56-.73-1-.77-.49-1.64-.79-2.55-.88-.91-.11-1.83,0-2.69.32-.65.27-.98.59-.91.82Z"/>
    <path class="st5" d="M468.12,90.76c.27.35,1.31,0,2.56,0s2.31.22,2.56-.13c.1-.18-.07-.52-.53-.85-.62-.39-1.35-.59-2.08-.56-.72.02-1.42.27-2,.7-.48.32-.63.68-.51.84Z"/>
    <path class="st3" d="M497.73,100.5c.17-.07,6.76-2,6.56,4.71s-6.91,5.14-6.92,4.94.36-9.65.36-9.65Z"/>
    <path class="st7" d="M498.94,107.7s.11.08.31.18c.28.12.59.12.87,0,.9-.53,1.44-1.51,1.42-2.56.04-.57-.05-1.15-.27-1.68-.12-.43-.44-.78-.86-.93-.28-.08-.57.05-.7.3-.1.19-.06.32-.09.33s-.14-.11-.08-.39c.04-.17.14-.31.28-.41.19-.14.42-.19.65-.16.56.13,1,.54,1.19,1.08.27.59.39,1.24.35,1.89.04,1.23-.67,2.36-1.79,2.85-.37.1-.76.02-1.07-.21-.2-.13-.23-.28-.21-.29Z"/>
    <path class="st5" d="M493.36,80.5l-28.05.62c.96-1.91,2.37-3.55,4.12-4.77,3.65-2.82,8.09-4.41,12.7-4.57,4.57-.08,13.88,5.49,17.2,8.65,2.65,2.52,2.63,4.7,2.63,4.7.42,3.64-1.61,7.77-2.42,11.34-.42,1.84-1.22,7.41-1.22,7.41h0c-1.55,0-2.12-1.23-1.89-2.76l.29-6c-3.19-2.51-4.32-6.82-2.77-10.57.4-.5,1.26-2.99-.59-4.05Z"/>
    <path class="st7" d="M487.47,101.81c.1.03.19-.03.22-.13s-.03-.19-.13-.22c-.1-.03-.19.03-.22.13,0,0,0,0,0,.01-.02.09.04.19.13.21Z"/>
    <path class="st7" d="M484.58,101.16c.1,0,.19-.07.2-.17.03-.1-.02-.21-.12-.24-.1,0-.19.07-.2.17-.03.1.02.21.12.24Z"/>
    <path class="st7" d="M482.63,101.11c.09,0,.18-.1.2-.25s0-.28-.13-.29-.18.1-.2.25.04.28.13.29Z"/>
    <path class="st7" d="M486.05,103.62c.09,0,.17-.05.17-.1s-.08-.11-.17-.11-.17,0-.17.11.08.1.17.1Z"/>
    <path class="st7" d="M483.4,103.01c.1,0,.17-.07.18-.17.02-.09-.04-.18-.14-.2,0,0,0,0-.01,0-.1,0-.17.07-.18.17-.02.09.04.18.14.2,0,0,0,0,.01,0Z"/>
    <path class="st7" d="M469.61,101.4c.1.01.19-.06.2-.16,0,0,0,0,0,0,.03-.09-.03-.18-.12-.21,0,0,0,0,0,0-.1-.01-.18.05-.2.15-.03.09.03.19.12.22Z"/>
    <path class="st7" d="M467.65,101.22c.09,0,.17-.08.18-.19s-.05-.22-.14-.23-.18.08-.19.2c-.02.1.05.2.15.22Z"/>
    <path class="st7" d="M471.35,101.44c.08.02.16-.02.19-.1,0,0,0,0,0-.01.01-.09-.05-.16-.13-.18-.09-.02-.17.03-.19.12-.01.08.05.16.13.17,0,0,0,0,0,0Z"/>
    <path class="st7" d="M469.9,103.41c.09.05.21.02.26-.07.05-.09.02-.21-.07-.26-.09-.05-.21-.02-.26.07,0,0,0,.01,0,.02-.05.08-.02.19.06.23,0,0,.01,0,.02,0Z"/>
    <path class="st7" d="M468.22,103.08c.08-.02.13-.1.12-.18-.03-.08-.12-.12-.2-.09-.08.01-.14.09-.12.17,0,0,0,0,0,0,.03.08.12.12.2.09Z"/>
    <path class="st5" d="M499.51,80.85c1.14-4.43-1.53-8.95-5.97-10.09-.76-.19-1.53-.28-2.31-.26-1.3.2-2.61.29-3.92.28-2.42-.26-4.29-2.21-6.54-3.15-3.65-1.43-7.81-.19-10.09,3-.85,1.28-1.41,2.85-2.72,3.65-1.13.7-2.55.64-3.82,1-2.63.91-4.33,3.45-4.19,6.22.22,2.73,1.94,5.11,4.47,6.18,2.53,1,5.38.8,7.75-.55,2.12-1.18,4-3.18,6.44-3.11s4.69,2.48,7.12,1.98c1.26-.4,2.38-1.15,3.23-2.16.85-1.02,2.03-1.7,3.34-1.93,1.32-.07,2,1.73,1.53,3l5.65-4"/>
    <path class="st13" d="M465.86,77.6v.1l.17.27c.22.34.49.64.8.91.49.44,1.05.78,1.67,1,.82.28,1.7.33,2.54.15,1.03-.22,1.97-.75,2.69-1.53.72-.96,1.39-1.96,2-3,.71-1.08,1.93-1.7,3.22-1.64.67.02,1.32.19,1.91.51.6.34,1.08.84,1.4,1.45.34.61.58,1.29,1,1.89.39.63,1.06,1.04,1.8,1.09.69,0,1.37-.19,1.95-.56.55-.34,1.05-.76,1.49-1.23.72-.92,1.68-1.61,2.78-2,.99-.19,2.02.05,2.82.66.67.49,1.21,1.15,1.55,1.91.26.58.46,1.19.58,1.81.1.51.15.91.18,1.19,0,.14.03.28.06.41v-.42c-.03-.4-.07-.8-.14-1.2-.1-.64-.29-1.26-.55-1.85-.34-.79-.88-1.48-1.57-2-.85-.66-1.94-.92-3-.72-1.14.38-2.14,1.07-2.9,2-.43.46-.92.86-1.45,1.19-.54.35-1.17.53-1.81.52-.66-.06-1.25-.43-1.59-1-.38-.56-.62-1.23-1-1.87-.34-.65-.87-1.19-1.51-1.55-.61-.34-1.3-.52-2-.55-.69-.02-1.38.14-2,.45-.58.32-1.07.77-1.44,1.31-.58,1.01-1.22,2-1.9,2.95-.68.75-1.57,1.27-2.56,1.49-.81.19-1.67.15-2.46-.11-.6-.19-1.15-.5-1.64-.9-.41-.33-.77-.71-1.09-1.13Z"/>
    <path class="st13" d="M460.78,77.7c-.08.17-.12.35-.12.54-.04.5.01,1.01.14,1.5.2.74.56,1.42,1.05,2,.61.7,1.37,1.25,2.22,1.61,1.55.63,3.24.83,4.89.56.5-.07.99-.17,1.47-.3.18-.03.36-.09.52-.17,0,0-.76.14-2,.28-1.61.2-3.25,0-4.76-.61-.81-.35-1.54-.87-2.14-1.53-.47-.55-.83-1.18-1.05-1.87-.19-.65-.26-1.33-.22-2.01Z"/>
    <path class="st0" d="M508.63,186.04c-.1,1.07-.51,2.08-1.18,2.92-.68.88-1.7,1.42-2.8,1.49-1.51.08-2.94-.64-3.78-1.9-1.26-2.56-1.46-5.52-.54-8.22.67-1.61,2.15-3.11,3.89-3.15,2.01-.01,3.76,1.36,4.21,3.32"/>
    <path class="st5" d="M508.43,180.5c-.07-.39-.22-.77-.42-1.12-.23-.42-.52-.8-.86-1.13-.46-.44-1.01-.76-1.62-.95-.35-.11-.72-.17-1.09-.17-.4-.02-.81.03-1.19.15-.84.3-1.57.83-2.12,1.53-.62.75-1.05,1.65-1.25,2.6-.22,1.01-.3,2.05-.23,3.08,0,1.59.47,3.15,1.33,4.49.44.58,1.04,1.03,1.72,1.3.63.25,1.32.37,2,.33h0c.49,0,.97-.12,1.4-.35.38-.19.74-.44,1.05-.73.49-.49.88-1.07,1.15-1.71.18-.4.3-.83.36-1.27,0-.11,0-.23,0-.34v-.12c-.1.57-.27,1.14-.5,1.67-.28.61-.67,1.16-1.16,1.63-.3.27-.64.51-1,.69-.4.21-.85.31-1.3.31h0c-1.34.07-2.63-.52-3.46-1.57-.81-1.3-1.25-2.8-1.26-4.34-.23-1.95.26-3.91,1.4-5.51.51-.67,1.21-1.18,2-1.47.36-.13.74-.18,1.12-.16.34,0,.67.06,1,.15.58.17,1.12.46,1.57.87.34.32.63.68.87,1.07.18.35.35.7.49,1.07Z"/>
    <path class="st0" d="M509.85,186.15c-.11,1.06-.52,2.07-1.18,2.91-.68.88-1.7,1.43-2.81,1.49-1.51.08-2.94-.65-3.78-1.9-1.26-2.56-1.45-5.52-.53-8.22.66-1.61,2.15-3.11,3.89-3.15,1.99-.02,3.73,1.34,4.21,3.27"/>
    <path class="st5" d="M509.65,180.55c-.08-.39-.22-.77-.42-1.12-.23-.41-.52-.79-.86-1.12-.46-.44-1.01-.77-1.62-.95-.35-.11-.72-.17-1.09-.18-.4-.02-.81.03-1.19.16-.84.29-1.58.82-2.12,1.52-.62.75-1.05,1.64-1.25,2.6-.22,1.01-.3,2.05-.23,3.08.01,1.59.47,3.15,1.32,4.49.45.58,1.04,1.03,1.73,1.3.62.25,1.28.36,1.95.33h0c.49,0,.97-.12,1.4-.35.38-.19.74-.44,1.05-.73.49-.49.88-1.07,1.15-1.71.17-.4.3-.83.36-1.26,0-.12,0-.23,0-.35v-.11c-.1.58-.27,1.14-.51,1.67-.28.61-.67,1.16-1.15,1.63-.3.27-.64.5-1,.68-.4.2-.85.31-1.3.31h0c-1.34.06-2.62-.52-3.45-1.57-.81-1.3-1.25-2.8-1.26-4.34-.24-1.95.26-3.91,1.4-5.51.52-.67,1.21-1.18,2-1.47.36-.12.74-.18,1.12-.16.34,0,.67.06,1,.15.59.16,1.13.46,1.57.88.34.31.63.66.87,1.06.2.34.38.7.53,1.07Z"/>
    <path class="st0" d="M507.64,179.97c1.19-.15,2.33.51,2.8,1.61.43,1.09.43,2.3,0,3.39-.18.57-.47,1.09-.87,1.53-.4.45-.95.72-1.55.75-.88-.05-1.68-.52-2.15-1.27-.82-1.16-1.09-2.62-.73-4,.24-.91.9-1.83,1.83-1.85"/>
    <path class="st5" d="M506.96,180.15h-.2c-.2.02-.4.09-.57.19-.62.42-1.05,1.06-1.19,1.79-.25,1.07-.13,2.19.33,3.18.26.6.65,1.12,1.16,1.53.55.48,1.29.66,2,.48.68-.21,1.26-.68,1.6-1.31.32-.56.54-1.16.67-1.79.27-1.07.08-2.21-.52-3.14-.43-.61-1.08-1.03-1.81-1.16-.2-.03-.4-.03-.6,0l-.2.06c.26-.01.52,0,.78.05.69.16,1.29.57,1.67,1.16.55.9.71,1.98.43,3-.12.6-.34,1.18-.65,1.71-.31.56-.83.98-1.44,1.18-.63.15-1.29,0-1.78-.43-.47-.38-.85-.87-1.1-1.42-.44-.94-.56-1.99-.36-3,.12-.7.5-1.32,1.06-1.74.22-.16.46-.27.72-.34Z"/>
    <path class="st5" d="M505.02,188.5s.1-.17.28-.38c.23-.27.54-.47.88-.57.36-.09.73-.15,1.1-.17.29,0,.47,0,.47-.08s-.18-.08-.47-.11c-.4-.04-.8,0-1.18.11-.41.11-.76.36-1,.71-.12.3-.11.49-.08.49Z"/>
    <path class="st5" d="M504.61,179.26s.08.19.32.38c.32.24.7.41,1.1.48.4.07.8.05,1.19-.07.3-.09.45-.21.44-.24-.52.06-1.06.06-1.58,0-.51-.12-1-.31-1.47-.55Z"/>
    <path class="st5" d="M525.08,257.32c0,.15-17.14-.29-38.28-1s-38.26-1.35-38.26-1.49,17.14.29,38.28,1,38.26,1.35,38.26,1.49Z"/>
  </g>
  <g id="freepik--character-2--inject-72">
    <path class="st5" d="M363.53,440.03l8.72,19.94s-11.9,9.09-11,12.8l38.09-11.37-9-30.67-26.81,9.3Z"/>
    <path class="st5" d="M373.73,458.71c0,.19.92.27,1.78.87s1.3,1.37,1.48,1.31,0-1.15-1.1-1.87-2.24-.52-2.16-.31Z"/>
    <path class="st5" d="M372.85,464.17c.18,0,.17-1-.62-1.89s-1.77-1-1.8-.85.67.57,1.3,1.3.93,1.48,1.12,1.44Z"/>
    <path class="st13" d="M381.64,440.12l.77,20.48s-20.55,7.66-20.78,11.45l39.76-.06.11-32-19.86.13Z"/>
    <path class="st5" d="M377.6,462.13c0,.19.8.51,1.46,1.33s.85,1.69,1.05,1.68.31-1.1-.53-2.11-1.97-1.09-1.98-.9Z"/>
    <path class="st5" d="M375.24,467.12c.18,0,.45-.93-.05-2s-1.41-1.48-1.49-1.32.48.73.87,1.61.48,1.69.67,1.71Z"/>
    <path class="st4" d="M347.73,144.98s-7.24,4.85-9.14,13.62c-1.5,6.89-5.6,43.27-5.6,43.27l-7.18,14,4.69,11.15h0c4.01.27,7.98-.88,11.23-3.24l3.15-2.29,5.79-8.58-2.94-67.93Z"/>
    <path class="st6" d="M421.46,184.7l5.9-1s-12.45-34.37-19.85-37.73l-5.38-2.47v-.1l-8.87-3.62-10.38-3.81h0l-.79-.29.33.32-20.8,1.33-1.62,1.23-10.67,5.58h0s-4.75,1.58-9.06,7.19-10.6,34.27-10.6,34.27l13.95,5.74,3.47,23.16-8.86,44.21,76-1.45-16.43-45.92,2.55-22.93,21.11-3.71Z"/>
    <g class="st11">
      <path d="M345.79,222.86c7.77,3.65,16.19,5.72,24.77,6.08,3,.12,6.27,0,8.83-1.65,1-.8,2.07-1.51,3.2-2.11,1.62-.65,3.44-.34,5.17-.15,4.03.44,8.11.17,12.05-.79.6-.09,1.17-.36,1.63-.76.45-.44.47-1.15.05-1.61-.31-.2-.68-.3-1.05-.28l-54.24-2.71-.41,3.98Z"/>
    </g>
    <path class="st5" d="M340.87,168.1c.15,0,1.23,7.11,2.42,15.93s2.05,16,1.91,16-1.23-7.11-2.42-15.93-2.05-15.98-1.91-16Z"/>
    <path class="st5" d="M369.36,162.04c-.29-.21-.55-.46-.77-.74-.48-.5-1.14-1.23-2-2.14l-2.86-3.22c-1.06-1.22-2.26-2.55-3.38-4.06-1.09-1.41-1.95-2.99-2.56-4.67-.47-1.39-.66-2.86-.54-4.33.07-.98.34-1.94.79-2.82.15-.33.35-.63.61-.89-.58,1.17-.92,2.44-1,3.74-.05,1.41.16,2.81.63,4.14.62,1.62,1.47,3.14,2.53,4.52,1.1,1.49,2.28,2.82,3.33,4.05l2.77,3.3c.78.94,1.4,1.71,1.83,2.25.24.27.44.56.62.87Z"/>
    <path class="st5" d="M387.53,137.68c0,.41-.03.81-.12,1.21-.2,1.09-.52,2.17-.93,3.2-1.49,3.37-3.61,6.42-6.25,9-2.93,3.1-5.64,5.85-7.61,7.83l-2.35,2.33c-.27.3-.58.57-.91.81.22-.34.47-.66.76-.95l2.24-2.44,7.49-7.94c2.59-2.53,4.72-5.5,6.29-8.76.55-1.4,1.02-2.83,1.39-4.29Z"/>
    <path class="st4" d="M399.73,188.5l2.41,13.45-32.07,4.72,1.85,14.76s39.61,2.17,44,1.2c5.53-1.22,9.76-7.85,9.62-17.53-.05-3.83-1.83-11.48-4.09-20.39l-21.72,3.79Z"/>
    <path class="st5" d="M403.64,144.55c0,.06-.7.08-1.89.45-1.67.56-3.17,1.52-4.38,2.8-1.78,1.9-2.95,4.3-3.35,6.88-.26,1.52-.33,3.06-.22,4.59.13,1.65.4,3.29.79,4.9,1.47,6.67,2.81,12.7,3.79,17.16.47,2.2.83,4,1,5.23.11.62.19,1.1.23,1.43.03.17.03.34,0,.51,0,0-.17-.68-.46-1.9s-.7-3.06-1.2-5.19c-1-4.38-2.48-10.41-3.94-17.13-.4-1.64-.66-3.31-.79-5-.11-1.57-.02-3.16.26-4.71.43-2.66,1.67-5.12,3.56-7.05,1.3-1.3,2.91-2.24,4.69-2.72.47-.12.95-.2,1.44-.24.16-.02.31-.02.47,0Z"/>
    <path class="st5" d="M414.21,257.24c0,.15-17.05.55-38.08.89s-38.1.52-38.1.37,17-.54,38.09-.89,38.09-.51,38.09-.37Z"/>
    <path class="st6" d="M343.19,251.17l-16.93,89.39c-1.93,10.17-.85,20.69,3.1,30.26l35.92,87,28.32-18.06-29-86,18.36-76.26-6-31.95-33.77,5.62Z"/>
    <path class="st6" d="M357.06,273.83l12.95,102.79,2.24,83.35,32.22.5s-1.16-84.43-1.16-89.52v-83.24c2.35-3.28,4.51-6.69,6.47-10.21,1.85-3.7,0-22.19,0-22.19,0,0-6.87-14.07-32.83-9.76s-19.89,28.28-19.89,28.28Z"/>
    <path class="st5" d="M372.25,459.97c0-.17,0-.34,0-.51,0-.37,0-.87-.07-1.52-.06-1.36-.14-3.32-.24-5.83-.18-5.09-.44-12.41-.77-21.44s-.66-19.84-1.06-31.81c-.22-6-.43-12.27-.74-18.77s-.7-13.25-1.51-20.1c-.4-3.43-.91-6.8-1.47-10.12s-1.15-6.59-1.71-9.8c-1.07-6.43-1.94-12.66-2.7-18.61-1.51-11.88-2.59-22.62-3.58-31.62s-1.86-16.29-2.52-21.31c-.34-2.49-.6-4.44-.78-5.78-.08-.64-.15-1.14-.19-1.5s0-.52,0-.52c0,0,0,.17.1.51s.14.85.25,1.5c.21,1.31.52,3.25.87,5.76.73,5,1.66,12.29,2.68,21.3s2.16,19.73,3.69,31.6c.77,5.94,1.66,12.16,2.74,18.59.56,3.21,1.13,6.48,1.72,9.79s1.06,6.71,1.46,10.15c.82,6.87,1.19,13.62,1.51,20.13s.51,12.8.71,18.78c.36,12,.68,22.75.95,31.81s.46,16.37.6,21.45c.06,2.52.11,4.48.14,5.84v1.51c0,.36-.08.52-.08.52Z"/>
    <path class="st5" d="M382.36,459.97c-.14,0-2.53-42.7-5.32-95.37s-4.94-95.4-4.79-95.41,2.52,42.69,5.31,95.38,4.94,95.4,4.8,95.4Z"/>
    <path class="st5" d="M393.41,262.41c-.17.32-.39.61-.66.86-.67.72-1.42,1.36-2.23,1.92-5.56,3.91-13.06,3.54-18.2-.9-.75-.64-1.42-1.35-2-2.14-.23-.27-.43-.58-.57-.91.88.98,1.83,1.91,2.83,2.77,5.1,4.13,12.28,4.49,17.76.88,1.08-.75,2.11-1.58,3.07-2.48Z"/>
    <path class="st5" d="M372.01,452.87l-.23-.47-.63-1.4-2.36-5.41c-2-4.72-5-11.52-8.59-19.92s-7.85-18.47-12.58-29.61-9.9-23.42-15-36.44c-.3-.82-.61-1.64-.92-2.45-.26-.85-.44-1.72-.54-2.6-.19-1.72-.24-3.45-.16-5.17.13-3.42.52-6.76.94-10,.92-6.54,2.11-12.79,3.33-18.72,2.46-11.87,5.09-22.46,7.35-31.34s4.25-16,5.64-20.95l1.63-5.67c.19-.63.34-1.11.44-1.46s.17-.5.17-.5c0,0,0,.18-.12.51s-.22.85-.39,1.48c-.36,1.33-.87,3.24-1.54,5.7-1.32,4.94-3.24,12.1-5.47,21s-4.81,19.48-7.24,31.34c-1.21,5.93-2.38,12.18-3.29,18.7-.42,3.26-.8,6.59-.93,10-.06,1.67.01,3.35.21,5.01.09.84.26,1.67.51,2.48.31.81.61,1.63.92,2.44,5.09,13,10.29,25.27,15,36.44s8.93,21.21,12.48,29.65l8.44,20c1,2.35,1.74,4.18,2.27,5.44l.58,1.42c.03.33.08.5.08.5Z"/>
    <path class="st5" d="M364.57,353.7c-.14.18-2-2.07-4.12-4.89-1.36-1.66-2.57-3.43-3.64-5.29,1.46,1.56,2.8,3.23,4,5,1.07,1.41,2,2.71,2.68,3.65.4.48.76.99,1.08,1.53Z"/>
    <g class="st11">
      <polygon points="355.7 266.84 360.36 346.7 364.57 353.7 366.1 347.38 355.7 266.84"/>
    </g>
    <g class="st11">
      <polygon points="341.79 258.6 341.15 261.95 410.31 261.95 409.96 257.33 341.79 258.6"/>
    </g>
    <polygon class="st5" points="292.1 201.94 338.44 219.1 377.51 225.07 331.06 202.43 292.1 201.94"/>
    <path class="st3" d="M311.93,220.5c-.37-2.47-1.2-4.84-2.46-7-.27-.41-.49-.85-.64-1.32-.14-.48-.04-1,.27-1.39.59-.64,1.68-.36,2.41.13,1.48,1.08,2.58,2.62,3.12,4.37.52,1.75.86,3.54,1,5.36"/>
    <path class="st3" d="M330,216.03h-2.27c-.55-.55-1.24-.95-2-1.16-.58-.1-1.16.14-1.52.6,1-1.7,2.14-3.57,2.35-4.08.42-1-.5-1.74-2-1.74s-8.05,9.29-8.05,9.29c0,0,4.08-7.47,4.47-8.62,1-2.85-2.13-3.06-3.26-1.68-1.41,1.7-7.09,10.3-7.09,10.3-.62,1.03-.74,2.27-.34,3.4.75,1.66,2.91,1,2.91,1,.06.99.64,1.86,1.52,2.31,1.66.92,3.85-.15,3.85-.15l8.48,1.91,3.07-.31c4.29-.43,7.74-3.73,8.37-8h0l-8.49-3.07Z"/>
    <path class="st7" d="M324.28,215.34c-.71,1.4-1.55,2.74-2.49,4-.74,1.06-1.41,2-1.92,2.7-.25.38-.53.74-.85,1.07.19-.41.43-.81.7-1.18.46-.71,1.12-1.68,1.85-2.74s1.4-2,1.89-2.71l.59-.81c.15-.24.21-.33.23-.33Z"/>
    <path class="st7" d="M323.78,224.79c.2-.48.45-.95.75-1.38.5-.84,1.21-2,2-3.24.39-.63.76-1.23,1.07-1.78.27-.48.34-1.05.19-1.58-.15-.49-.4-.95-.73-1.35,0,0,.15.07.33.28.27.29.46.63.58,1,.19.58.14,1.21-.15,1.74-.31.58-.68,1.18-1.07,1.81-.78,1.27-1.52,2.39-2.06,3.2-.28.45-.58.89-.91,1.3Z"/>
    <path class="st7" d="M328.23,225.64c.09-.46.24-.9.45-1.32l.61-1.38c.25-.56.46-1.13.62-1.72.16-.56.06-1.17-.27-1.65-.16-.19-.37-.34-.6-.43-.2-.1-.41-.16-.63-.18-.32.05-.64.16-.92.32-.21.11-.34.16-.34.14s.09-.1.29-.23c.12-.08.25-.16.38-.23.18-.1.38-.17.59-.19.25,0,.49.06.72.16.27.11.51.27.71.48.39.54.51,1.23.33,1.87-.16.6-.38,1.19-.66,1.75-.24.52-.47,1-.65,1.37-.39.76-.59,1.25-.63,1.24Z"/>
    <path class="st7" d="M329.8,217.62s.13,0,.36.11c.31.14.61.31.88.52,1.92,1.42,2.5,4.04,1.37,6.14-.15.31-.35.59-.58.85-.16.18-.27.26-.28.25s.34-.42.69-1.18c.98-2.04.44-4.49-1.32-5.92-.64-.54-1.19-.73-1.12-.77Z"/>
    <path class="st7" d="M314.87,212.74c-1.2,2.1-2.56,4.1-4.06,6,1.21-2.09,2.56-4.1,4.06-6Z"/>
    <path class="st3" d="M370.13,207.28l-5.29-1.2-5.11-4.79c-.62-.59-1.42-.94-2.27-1l-9.26-.53c-.92-.05-1.83.25-2.54.85l-6.62,5.59,28.89,14.1,4,.35-1.8-13.37Z"/>
    <path class="st7" d="M354.15,204.81s-.69-.08-1.79-.22c-1.41-.25-2.86-.1-4.19.43-.71.34-1.38.76-2,1.25-.58.44-1.11.85-1.57,1.16-.37.25-.75.47-1.15.67-.14.08-.29.13-.45.16,0,0,.61-.32,1.49-1,.44-.33,1-.75,1.54-1.2.61-.51,1.29-.95,2-1.3.75-.33,1.55-.51,2.37-.53.67-.01,1.34.04,2,.15.55.09,1,.19,1.29.27.16.03.32.08.46.16Z"/>
    <path class="st7" d="M356.05,209.96s-.38-.12-1-.18c-.81-.08-1.62.04-2.38.33-.76.3-1.49.67-2.18,1.12-.28.2-.58.37-.9.5.23-.26.5-.48.79-.66.67-.5,1.41-.91,2.2-1.21.79-.31,1.65-.41,2.49-.27.35.04.69.17.98.37Z"/>
    <path class="st7" d="M367.96,210.82c-.06,0-.81-1.07-1.79-2.38-.63-.77-1.22-1.57-1.77-2.4,1.45,1.38,2.65,3,3.56,4.78Z"/>
    <path class="st6" d="M353.38,200.33l11.74-10.93c.45-.42.48-1.13.06-1.58-.04-.05-.09-.09-.14-.13h0c-.43-.33-1.03-.31-1.43.05l-13.77,12.34"/>
    <g class="st11">
      <path d="M353.38,200.33l11.74-10.93c.45-.42.48-1.13.06-1.58-.04-.05-.09-.09-.14-.13h0c-.43-.33-1.03-.31-1.43.05l-13.77,12.34"/>
    </g>
    <path class="st5" d="M351.18,96.14c-1.04-4.4.11-9.04,3.09-12.44,2.32-2.44,5.27-4.2,8.52-5.07,4.31-1.42,8.98-1.32,13.22.3,4.15,1.75,7.52,5.62,8,10.09.21,2-.16,4.15.49,6.09.42.78.59,1.68.51,2.56-.28.78-1,1.33-1.83,1.39-.81.05-1.63-.12-2.36-.48-2.48-1.23-4.75-2.86-6.71-4.82"/>
    <path class="st3" d="M351.11,98.31c.41-6.34,4.63-14.1,10.94-13.42l19.7,5c1.91.21,3.35,1.85,3.31,3.77l-2.21,47.53h0l-12.9,15.31s-8.24-9.59-8.76-12.5h0c-.07-.33-.11-.66-.14-1-.25-2.16-.28-4.35-.08-6.52h0c0-3.84,0-5.41,0-5.38s-8.09-1.36-9.74-11.92c-.86-5.22-.58-13.83-.12-20.87Z"/>
    <path class="st5" d="M354.23,105.97c0,.73.58,1.34,1.31,1.37.72.05,1.35-.49,1.4-1.21,0,0,0,0,0,0,0-.74-.57-1.34-1.31-1.37-.72-.06-1.34.48-1.4,1.19,0,0,0,.02,0,.03Z"/>
    <path class="st5" d="M352.97,102.79c.16.18,1.19-.58,2.65-.57s2.52.74,2.68.56-.09-.4-.56-.74c-.63-.44-1.37-.68-2.14-.67-.76,0-1.5.24-2.11.68-.45.34-.61.66-.52.74Z"/>
    <path class="st5" d="M368.56,105.97c0,.73.57,1.34,1.3,1.37.72.06,1.34-.48,1.4-1.19,0,0,0-.02,0-.03.01-.73-.57-1.34-1.3-1.37-.71-.06-1.34.46-1.4,1.17,0,.02,0,.03,0,.05Z"/>
    <path class="st5" d="M367.29,103.1c.17.17,1.2-.58,2.65-.58s2.53.74,2.69.56-.09-.4-.56-.74c-.63-.43-1.38-.66-2.15-.66-.76,0-1.5.23-2.11.67-.45.35-.6.67-.52.75Z"/>
    <path class="st5" d="M361.98,113.89c-.77-.24-1.57-.38-2.37-.43-.37,0-.72-.12-.78-.37-.03-.38.06-.77.25-1.1.35-.9.72-1.84,1.1-2.83,1.54-4,2.65-7.35,2.49-7.41s-1.54,3.16-3.08,7.19l-1.06,2.85c-.23.45-.3.97-.19,1.46.11.27.33.47.61.54.2.06.42.09.63.09.8.11,1.6.11,2.4.01Z"/>
    <path class="st7" d="M360.93,131.13c4.97.09,9.87-1.2,14.15-3.74,0,0-3.57,7.3-14.13,6.29l-.02-2.55Z"/>
    <path class="st7" d="M362.59,117.4c.56-.72,1.45-1.1,2.35-1,.65.06,1.25.39,1.66.9.4.5.44,1.19.11,1.73-.48.54-1.24.73-1.91.48-.69-.24-1.32-.62-1.86-1.11-.17-.12-.31-.27-.42-.44-.11-.16-.11-.38,0-.54"/>
    <path class="st5" d="M366.26,114.91c-.23,0-.24,1.57-1.59,2.69s-3,.94-3.06,1.16.38.31,1.09.33c.93.01,1.83-.3,2.55-.88.69-.57,1.13-1.38,1.24-2.26.06-.66-.12-1.05-.23-1.04Z"/>
    <path class="st5" d="M366.64,100.5c.14.4,1.6.21,3.31.42s3.09.68,3.32.33c.1-.17-.14-.54-.7-.93-1.49-.94-3.33-1.15-5-.57-.67.29-.99.6-.93.75Z"/>
    <path class="st5" d="M353.51,98.58c.26.33,1.26,0,2.47,0s2.23.23,2.46-.12c.11-.16-.05-.5-.5-.81-.59-.38-1.29-.58-2-.55-.72.01-1.42.24-2,.66-.4.31-.54.65-.43.82Z"/>
    <path class="st5" d="M394.17,118.19c-2.74,1.13-5.18-7.31-7.69-8.88s-5,3.78-5.24.82c-.17-2.6.7-5.46-.65-7.7-1.79-3-6.44-3.07-8.25-6-1-1.71-.84-4-2-5.65s-3-2.2-4.91-2.49-3.82-.36-5.51-1.22-3-2.82-2.38-4.6c7.92-.57,15.88-.21,23.72,1.1,1.82.31,3.74.72,5,2s1.71,3.45,2,5.38c1.38,9.39,4.49,17.84,5.86,27.23"/>
    <path class="st6" d="M350.94,99.7c.53-6.19,4.25-14,9.88-16.68,5.63-2.68,12.26-2.94,17.39.59,5.54,3.81,7,10.23,7.71,16.92s-.35,9.1-1.91,15.65l-.67,14.41c3.87,4.41,8.93-.58,9.67-.93s3.47-5,3.86-5.7c4-7.54-2.18-8.65-1.12-12.89,1.12-4.26.84-8.76-.79-12.85-.8-1.9-1.93-3.67-2.57-5.62-.71-2.14-.81-4.46-1.7-6.53-1.08-2.31-2.86-4.22-5.1-5.44-2.22-1.21-4.62-2.07-7.11-2.55-5.71-1.28-9.5-3.48-15-1.47s-9.33,4.9-11.89,12.07c-1,3.58-1.23,7.33-.66,11"/>
    <path class="st5" d="M353.14,87.41c.09-.21.2-.41.34-.59.36-.55.75-1.07,1.19-1.56,1.58-1.83,3.52-3.33,5.69-4.41,3.24-1.62,6.89-2.23,10.48-1.73,4.41.62,8.46,2.81,11.39,6.17,2.78,3.45,4.56,7.6,5.14,12,.61,3.53.74,7.12.39,10.68-.23,2.42-.85,4.78-1.83,7-.26.6-.57,1.18-.91,1.74-.11.2-.24.39-.39.56,0,0,.47-.82,1.12-2.38.89-2.21,1.44-4.54,1.65-6.92.29-3.53.12-7.08-.5-10.56-.6-4.29-2.35-8.33-5.07-11.7-2.86-3.25-6.78-5.37-11.06-6-3.5-.51-7.07.04-10.25,1.59-2.15,1.03-4.08,2.46-5.7,4.21-1.09,1.13-1.64,1.93-1.68,1.9Z"/>
    <path class="st5" d="M393.98,128.03c0,.05-.36.54-1.25,1-1.17.65-2.52.92-3.85.8-1.33-.14-2.59-.67-3.62-1.52-.77-.66-1.08-1.22-1-1.26s.47.41,1.26,1c2.06,1.49,4.76,1.75,7.07.69.86-.39,1.34-.77,1.39-.71Z"/>
    <path class="st5" d="M389.58,122.21c-.82-.61-1.6-1.28-2.33-2-.84-.57-1.64-1.2-2.39-1.88,1.02.24,1.96.75,2.72,1.48.87.6,1.57,1.43,2,2.4Z"/>
    <path class="st5" d="M390.44,114.26c-.16-.9-.5-1.75-1-2.51-.63-.67-1.39-1.2-2.24-1.55,0-.06.35-.12.89,0,.69.21,1.31.62,1.76,1.19.46.57.74,1.27.8,2-.02.56-.15.88-.21.87Z"/>
    <path class="st5" d="M390.19,110.15c-.13.07-.5-.45-1.11-.88s-1.19-.65-1.17-.8.76-.16,1.48.38.93,1.25.8,1.3Z"/>
    <path class="st5" d="M384.09,84.07c.05.14-.37.41-.85.77s-.86.69-1,.6.12-.6.67-1,1.14-.5,1.18-.37Z"/>
    <path class="st5" d="M382.57,83.61c.09.11-.1.44-.44.73s-.69.45-.78.34.1-.44.44-.73.68-.45.78-.34Z"/>
    <path class="st3" d="M382.03,111.38c0-.79.92-2.64,1.69-2.76,2.08-.32,5.82-.14,5.84,5.12,0,7.2-7.2,5.75-7.22,5.54s-.32-5.19-.31-7.9Z"/>
    <path class="st7" d="M384.53,116.55s.13.08.34.18c.3.12.64.12.94,0,.94-.61,1.48-1.67,1.42-2.79.01-.62-.11-1.23-.36-1.79-.13-.47-.48-.85-.95-1-.3-.08-.61.07-.74.35-.09.2-.05.34-.08.35s-.16-.11-.1-.41c.03-.18.13-.34.28-.45.19-.16.44-.22.69-.19.6.11,1.11.53,1.32,1.11.31.62.46,1.31.44,2,0,1.46-.78,2.82-1.81,3.12-.39.12-.82.05-1.15-.18-.23-.13-.27-.29-.24-.3Z"/>
    <path class="st12" d="M378.21,115.74s-8.45,7.59-16.6,6.47-11-6.47-11-6.47c0,0-1.29,7.79,2.32,11.65,4,4.28,5.83,5.46,14.32,4,8.49-1.46,13.08-11.08,13.08-11.08l-2.12-4.57Z"/>
    <path class="st12" d="M382.55,109.5c-.51,1.21-1.19,2.34-2,3.37-.67,1.13-1.49,2.17-2.43,3.08.52-1.2,1.19-2.34,2-3.37.67-1.13,1.49-2.16,2.43-3.08Z"/>
    <path class="st12" d="M383.84,119.5c0,.15-.79.3-1.74.52s-1.72.44-1.78.3.66-.57,1.67-.8,1.85-.16,1.85-.02Z"/>
    <path class="st5" d="M376.26,119.44c-.23.33-.49.64-.78.91-.76.77-1.58,1.49-2.45,2.15-2.84,2.28-6.27,3.7-9.89,4.08-3.67.29-7.31-.93-10.06-3.38-.81-.74-1.49-1.61-2-2.58-.21-.35-.36-.72-.46-1.11.73,1.27,1.64,2.42,2.71,3.42,2.72,2.29,6.24,3.41,9.78,3.13,3.53-.39,6.88-1.72,9.72-3.85,2.19-1.59,3.36-2.84,3.43-2.77Z"/>
    <path class="st5" d="M371.91,124.78c-.58.58-1.26,1.06-2,1.41-3.57,1.88-7.73,2.35-11.63,1.31-.81-.18-1.58-.49-2.28-.93,0-.08.91.26,2.37.57,3.83.81,7.81.36,11.36-1.28,1.36-.63,2.13-1.16,2.18-1.08Z"/>
  </g>
  <g id="freepik--character-1--inject-72">
    <path class="st5" d="M244.8,77.5c.74-3.48,3.23-5.32,6.53-6.65,3.37-1.32,7.18-.92,10.19,1.09,2,1.33,3.57,3.34,5.85,4,3.77,1.08,8-1.92,11.59-.46,2.59,1.03,3.85,3.97,2.82,6.56-.76,1.91-2.62,3.17-4.68,3.18,2.46.75,3.39,4.15,2.1,6.38s-4.14,3.19-6.69,2.86c-2.54-.47-4.91-1.63-6.84-3.36-2-1.61-3.82-3.45-5.95-4.9-2.07-1.57-4.63-2.35-7.22-2.21-3.46.37-6.3,3.16-7.67,6.35s-1.54,6.78-1.54,10.26.13,7-.72,10.39c-.04.42-.28.79-.64,1-.55.2-1.07-.37-1.37-.88-3.48-5.72-5.8-12.06-6.83-18.68-.6-3.83-.7-7.48,1.24-10.83s7.15-6,9.88-4.13"/>
    <path class="st2" d="M239.61,100.29c-.18-.07-7-1.87-6.62,5.07s7.29,5.09,7.29,4.89-.67-9.96-.67-9.96Z"/>
    <path class="st1" d="M238,107.75s-.11.09-.31.2c-.28.14-.6.17-.9.07-.95-.52-1.54-1.52-1.55-2.6-.05-.59.03-1.19.24-1.75.1-.45.42-.83.85-1,.28-.09.59.03.74.29.1.18.06.33.1.34s.14-.13.07-.41c-.05-.17-.15-.32-.3-.42-.2-.14-.44-.19-.68-.14-.57.15-1.02.59-1.2,1.15-.26.63-.37,1.32-.3,2,.13,1.4.92,2.66,1.94,2.89.39.09.79,0,1.1-.25.2-.2.23-.36.2-.37Z"/>
    <path class="st2" d="M255.53,76.05c10.31-.73,19.25,7.04,19.98,17.35,0,.11.01.22.02.33.46,8.69.86,18.09.76,22.83-.21,10.16-10.38,11.66-10.38,11.66,0,0,.22,3,.47,6.75.5,7.38-5.08,13.76-12.46,14.26-.13,0-.26.02-.39.02h0c-7.38.28-13.6-5.48-13.88-12.86,0,0,0-.01,0-.02l-1.51-41c-.38-10.09,7.33-18.66,17.4-19.36v.04Z"/>
    <path class="st1" d="M265.9,128.22c-4.63-.06-9.14-1.45-13-4,0,0,3.07,7.39,13.22,6.56l-.22-2.56Z"/>
    <path class="st5" d="M272.11,100.88c0,.79-.62,1.44-1.41,1.46-.77.05-1.43-.53-1.48-1.3,0,0,0-.02,0-.02,0-.79.62-1.43,1.41-1.46.76-.06,1.42.52,1.48,1.28,0,.01,0,.03,0,.04Z"/>
    <path class="st5" d="M273.04,97.33c-.18.18-1.28-.64-2.84-.65s-2.71.77-2.88.57.1-.42.6-.78c.68-.46,1.49-.7,2.31-.69.81,0,1.61.26,2.26.75.48.37.64.71.55.8Z"/>
    <path class="st5" d="M257.03,100.66c0,.79-.62,1.43-1.41,1.45-.76.06-1.42-.52-1.48-1.28,0-.01,0-.03,0-.04,0-.78.63-1.42,1.41-1.45.76-.06,1.42.52,1.48,1.28,0,.01,0,.03,0,.04Z"/>
    <path class="st5" d="M257.73,97.5c-.18.19-1.27-.63-2.83-.64s-2.72.77-2.88.57.1-.42.6-.78c.68-.47,1.49-.71,2.31-.69.81,0,1.6.26,2.25.74.43.37.55.71.55.8Z"/>
    <path class="st5" d="M263.26,109.12c.82-.25,1.68-.4,2.54-.44.4,0,.78-.11.84-.38.04-.41-.05-.83-.25-1.19-.37-1-.75-2-1.16-3-1.6-4.34-2.76-7.9-2.58-8s1.61,3.4,3.22,7.74l1.1,3.07c.25.48.32,1.03.2,1.56-.12.28-.36.5-.66.58-.22.06-.45.09-.68.09-.85.1-1.72.09-2.57-.03Z"/>
    <path class="st5" d="M258.65,110.17c.26,0,.25,1.68,1.69,2.89s3.25,1,3.26,1.28-.41.33-1.17.34c-1,0-1.96-.36-2.72-1-.73-.61-1.2-1.48-1.31-2.43-.06-.68.14-1.09.25-1.08Z"/>
    <path class="st5" d="M257.96,92.41c-.16.42-1.72.21-3.55.41s-3.32.7-3.56.31c-.11-.18.15-.58.75-1,1.62-1.02,3.62-1.22,5.42-.56.71.3,1.01.64.94.84Z"/>
    <path class="st5" d="M272.82,92.66c-.28.35-1.35,0-2.65,0s-2.39.22-2.64-.16c-.11-.18.07-.53.55-.86.64-.41,1.4-.61,2.16-.57.76.03,1.49.28,2.1.73.45.32.6.7.48.86Z"/>
    <path class="st5" d="M277.31,89.06c-2,2.86-9.8,1.7-13.71-1.24-2.47-2.07-5.37-3.59-8.48-4.44-2.29-.47-4.66,0-6.6,1.3-1.92,1.3-3.55,2.98-4.79,4.94,2.39,5.32,1.36,11.48.29,17.21-.05.65-.31,1.26-.75,1.74-.83.72-2.16.28-3-.47-1.19-1.3-1.98-2.92-2.27-4.66-1-3.88-1.22-7.92-.63-11.88.59-3.98,2.32-7.69,5-10.69,3.5-3.65,8.28-5.8,13.33-6,5.03-.14,9.97,1.31,14.13,4.13,1.98,1.22,3.63,2.91,4.8,4.92"/>
    <path class="st6" d="M236.96,439.35l.48,20.46s-20.64,7.35-20.92,11.14l39.7.51.58-31.91-19.84-.2Z"/>
    <g class="st10">
      <path class="st8" d="M249.73,458.25c.78.25,1.25,1.05,1.09,1.86-.22.8-1.02,1.29-1.83,1.11-.84-.27-1.34-1.13-1.16-2,.32-.79,1.19-1.19,2-.93"/>
    </g>
    <g class="st10">
      <path class="st8" d="M256.22,471.5l-.06-3.22-38.05.72s-1.78.74-1.59,2l39.7.5Z"/>
    </g>
    <path class="st5" d="M236.8,459.6c0,.19,1,.29,1.91.93s1.45,1.46,1.63,1.38-.1-1.2-1.26-2-2.35-.49-2.28-.31Z"/>
    <path class="st5" d="M232.61,461.27c0,.19.79.53,1.44,1.35s.82,1.7,1,1.7.33-1.1-.5-2.12-1.93-1.12-1.94-.93Z"/>
    <path class="st5" d="M230.18,466.22c.18,0,.46-.92,0-2s-1.38-1.5-1.47-1.34.47.74.86,1.62.42,1.7.61,1.72Z"/>
    <path class="st5" d="M237.21,454.92c.07.18,1-.07,2.06,0s2,.45,2.05.28-.71-.86-2-.95-2.21.52-2.11.67Z"/>
    <path class="st5" d="M237.19,450.79c.65.18,1.35.18,2,0,.72-.12,1.41-.32,2.08-.61.4-.17.78-.37,1.15-.59.22-.12.43-.28.61-.46.25-.27.3-.68.1-1-.19-.28-.5-.45-.84-.46-.25,0-.51.03-.75.09-.42.1-.84.24-1.24.41-.67.3-1.3.7-1.85,1.18-.93.84-1.26,1.56-1.19,1.6s.54-.53,1.49-1.23c.55-.41,1.15-.74,1.79-1,.37-.15.75-.26,1.14-.34.42-.1.78-.1.89.09s0,.1-.05.22c-.13.13-.28.24-.44.33-.34.22-.7.41-1.06.59-.62.3-1.27.54-1.93.71-.64.12-1.28.27-1.9.47Z"/>
    <path class="st5" d="M237.44,451.08c.38-.57.57-1.24.54-1.92.05-.74-.03-1.47-.24-2.18-.12-.42-.29-.82-.49-1.21-.21-.53-.69-.91-1.26-1-.36,0-.68.21-.83.54-.11.23-.18.48-.22.73-.07.44-.07.9,0,1.34.1.74.38,1.45.82,2.06.76,1,1.57,1.28,1.58,1.22s-.6-.48-1.18-1.48c-.34-.57-.55-1.22-.61-1.88-.05-.38-.05-.76,0-1.14.07-.43.23-.76.39-.72s.53.32.69.66c.19.35.35.71.48,1.09.22.65.34,1.32.36,2,.08,1.13-.14,1.85-.03,1.89Z"/>
    <path class="st6" d="M309.21,440.16l-.77,20.45s20.53,7.65,20.76,11.44l-39.71-.06-.11-31.92,19.83.09Z"/>
    <g class="st10">
      <path class="st8" d="M296.17,458.87c-.79.24-1.28,1.04-1.13,1.85.22.8,1.01,1.29,1.82,1.13.86-.25,1.37-1.13,1.18-2-.28-.82-1.17-1.27-2-1"/>
    </g>
    <g class="st10">
      <path class="st8" d="M289.49,471.99l.11-3.22,38,1.27s1.77.77,1.57,2l-39.68-.05Z"/>
    </g>
    <path class="st5" d="M309.09,460.41c0,.19-1,.28-1.94.9s-1.46,1.44-1.64,1.36.11-1.2,1.28-1.93,2.34-.51,2.3-.33Z"/>
    <path class="st5" d="M313.25,462.14c0,.19-.8.51-1.46,1.33s-.85,1.69-1,1.68-.32-1.1.52-2.11,1.93-1.09,1.94-.9Z"/>
    <path class="st5" d="M315.61,467.13c-.18,0-.45-.93.05-2s1.41-1.48,1.49-1.32-.48.73-.88,1.6-.47,1.7-.66,1.72Z"/>
    <path class="st5" d="M308.73,455.73c-.08.17-1-.09-2.06,0s-1.95.41-2,.25.72-.86,2-.93,2.17.53,2.06.68Z"/>
    <path class="st5" d="M308.82,451.6c-.65.18-1.35.18-2,0-.71-.13-1.41-.35-2.07-.65-.4-.18-.78-.38-1.15-.61-.22-.12-.43-.27-.6-.46-.24-.28-.27-.68-.08-1,.2-.27.51-.43.85-.44.25,0,.5.03.74.11.43.1.84.24,1.24.42.67.31,1.29.72,1.83,1.21.92.85,1.23,1.58,1.17,1.62s-.54-.55-1.47-1.25c-.55-.41-1.15-.74-1.78-1-.37-.15-.75-.26-1.14-.35-.42-.11-.78-.11-.88.07s0,.1,0,.23c.13.13.28.25.44.34.32.22.65.42,1,.6.62.3,1.26.55,1.92.74.67.09,1.33.23,1.98.42Z"/>
    <path class="st5" d="M308.57,451.88c-.37-.57-.56-1.25-.52-1.93-.03-.73.06-1.47.27-2.17.13-.42.3-.82.51-1.21.22-.53.7-.91,1.27-1,.36,0,.69.23.83.56.1.23.17.47.21.72.07.44.07.9,0,1.34-.11.75-.4,1.46-.85,2.06-.78,1-1.59,1.26-1.6,1.19s.61-.47,1.21-1.46c.34-.57.55-1.21.63-1.87.05-.38.05-.77,0-1.15-.06-.42-.22-.76-.37-.72s-.54.32-.7.65c-.2.34-.36.71-.49,1.08-.22.65-.35,1.32-.39,2-.11,1.15.15,1.88-.01,1.91Z"/>
    <polygon class="st5" points="285.74 242.74 315.8 458.38 286.64 457.81 254.39 277.14 261.48 458.67 229.55 456.7 218.33 241.43 285.74 242.74"/>
    <path class="st6" d="M239.84,142.9l-.39-12.06s2.4,11,14.95,10.89c12-.13,11.77-9.72,11.77-9.72l.43,4.86v19.63l-7.82,32-10,1.27-11-43.79,2.06-3.08Z"/>
    <path class="st5" d="M265.05,139.04c-.04.09-.08.18-.14.26-.15.24-.31.48-.48.7-.63.83-1.38,1.56-2.23,2.16-1.26.91-2.67,1.59-4.17,2-1.83.49-3.75.63-5.63.39-1.88-.26-3.7-.81-5.41-1.63-1.39-.66-2.71-1.46-3.95-2.38-.83-.62-1.63-1.29-2.39-2-.27-.25-.47-.45-.61-.59s-.2-.21-.19-.22l.23.18.64.55c.55.48,1.37,1.15,2.43,1.91,1.24.89,2.56,1.67,3.94,2.32,1.69.79,3.49,1.32,5.34,1.58,1.85.24,3.73.11,5.54-.36,1.48-.38,2.87-1.02,4.13-1.88.84-.59,1.6-1.29,2.26-2.08.45-.58.67-.92.69-.91Z"/>
    <path class="st4" d="M257.03,304.41l.18-51.76-.22-67.58-17-41.55-.54-12.5-9.84,7.48s-14.34,49.36-14.56,47.64,3.46,43.85,3.46,43.85l-5.66,76.76,44.18-2.34Z"/>
    <path class="st4" d="M270.54,136.33c-2.89-5.05-4.39-4.53-4.39-4.53l.15,1.8v3.79l-1.37,16.23-9.2,30.43,1.43,67.38,3.42,53.28,42.54-3.48-14.79-73.38,5.31-50.68-.38-27.93-22.72-12.91Z"/>
    <path class="st5" d="M246.35,247.65c-.17.36-.38.69-.62,1-.63.9-1.33,1.74-2.1,2.52-5.15,5.31-12.63,7.69-19.9,6.33-1.08-.2-2.14-.48-3.17-.85-.39-.12-.76-.28-1.1-.49,0-.1,1.62.56,4.33,1,7.14,1.13,14.4-1.17,19.59-6.2,1.97-1.92,2.89-3.37,2.97-3.31Z"/>
    <path class="st6" d="M237.62,257.37c-.11-.68-.29-1.35-.51-2l4.48-2.61c-2.57-1.69-5.61-2.53-8.69-2.4-2.76.32-5.4,1.33-7.66,2.95-.55.24-1.05.58-1.48,1-.14.08-.27.17-.4.27-.2.17-.39.36-.56.56h0c-.86,1.15-1.4,2.51-1.57,3.94-.53,3.01-.59,6.08-.17,9.11.16,1.16.6,2.53,1.75,2.75.7.09,1.38-.23,1.76-.82.02,1.31.15,2.62.38,3.91.18,1,.66,2.16,1.66,2.19s1.59-1.23,1.77-2.26c.39-2.18.48-4.41.27-6.62.56,1.12.35,2.45.53,3.69s1.14,2.6,2.37,2.35,1.58-1.75,1.71-3c.32-3.21.65-6.43,1-9.64.66,1.08.63,2.44,1.12,3.6s2.06,2.1,3,1.23c.49-.67.64-1.54.38-2.34-.4-1.93-.76-3.89-1.14-5.86Z"/>
    <path class="st5" d="M240.52,283.8c-.27.37-.59.7-.94,1-.9.85-1.89,1.62-2.94,2.28-1.57,1.01-3.31,1.71-5.14,2.06-2.27.44-4.62.14-6.71-.84-2.07-1.05-3.68-2.83-4.52-5-.68-1.73-1.06-3.56-1.11-5.42-.05-1.24-.03-2.48.06-3.72,0-.45.06-.91.15-1.35.11,0,0,1.95.16,5,.1,1.8.5,3.58,1.18,5.25.81,2.05,2.34,3.73,4.31,4.73,2,.93,4.23,1.22,6.4.84,1.77-.33,3.46-.98,5-1.91,1.42-.9,2.79-1.88,4.1-2.92Z"/>
    <path class="st5" d="M288.47,248.24s-.21.2-.64.48c-.61.39-1.25.72-1.92,1-4.47,1.91-9.51,2.02-14.05.29-.69-.26-1.36-.57-2-.93-.44-.27-.67-.42-.66-.46s1,.46,2.75,1c4.49,1.5,9.36,1.4,13.78-.28,1.72-.59,2.69-1.18,2.74-1.1Z"/>
    <path class="st5" d="M257.19,255.72c-.05-.24-.07-.49-.06-.74v-2.12c0-1.9-.06-4.55-.11-7.81-.1-6.64-.24-15.71-.4-25.74s-.33-19.12-.44-25.76c0-3.25-.08-5.9-.1-7.8v-2.12c-.03-.25-.03-.5,0-.75.05.24.07.49.07.74,0,.54.06,1.24.1,2.12.07,1.9.16,4.55.27,7.81.19,6.58.42,15.69.59,25.75s.26,19.16.25,25.75c0,3.3,0,6-.06,7.81,0,.88,0,1.59-.05,2.12,0,.25-.02.49-.06.74Z"/>
    <polygon class="st0" points="229.75 146.6 231.75 148.11 230.34 157.32 253.94 182.04 232.51 153.9 234.34 146.6 229.75 146.6"/>
    <path class="st4" d="M257.23,212.83l-36.21-10.62-1.2-27.5,9.91-36.21s-23.65,11.78-25.26,19.3-5.5,25.78-5.91,39c-.37,11.81-.42,19.7,2.27,23.47,4.53,6.34,23.94,10.44,43.31,9.5,13.63-.67,27.23-4.26,35.63-9.52"/>
    <path class="st5" d="M254.4,182.63l-.12-.13-.33-.4-1.22-1.6-4.48-5.82-14.72-19.27-1.11-1.46v-.11c.63-2.52,1.24-5,1.83-7.29l.12.15h-4.74v-8.3h0l7.12-5.41,2-1.46.52-.38.18-.12-.17.14-.49.4-1.92,1.51-7.07,5.48v-.08,8.13l-.07-.11h4.74v.15c-.59,2.33-1.2,4.78-1.83,7.3v-.11l1.11,1.45,14.66,19.32,4.42,5.87,1.19,1.6.31.43.07.12Z"/>
    <path class="st4" d="M293.26,149.24s8.58,6.34,9.33,16.53c.6,8.28,2,31,2.24,35.89.39,7.69-5.6,25.69-21.18,20.59-9.34-3.06-43.87-14.8-43.87-14.8l2.29-14.66,41,2.44.81-34.18,9.38-11.81Z"/>
    <path class="st2" d="M241.61,194.5s-11.6-1.25-14.29-.61-6.26,3.79-6.26,3.79l.06,4.58,18.66,5.24,1.83-13Z"/>
    <path class="st5" d="M256.16,183.58l.06-.15c0-.12.1-.27.17-.46.17-.41.4-1,.69-1.73.62-1.52,1.51-3.68,2.6-6.36s2.42-5.87,3.88-9.41c.37-.88.73-1.8,1.19-2.7s.95-1.8,1.48-2.7c1.13-1.84,2.37-3.61,3.69-5.32.67-.86,1.34-1.7,2-2.5v.13l-1.44-3.68v-.12h.13l6-2.06-.06.17-6.82-11.48c-.54-1.15-1.32-2.17-2.28-3-.29-.17-.6-.3-.92-.38l-.34-.08h.35c.33.06.65.17.94.34.46.3.86.68,1.17,1.13.43.58.83,1.18,1.2,1.81l6.88,11.47.07.13h-.13l-6,2.07.07-.16c.47,1.2,1,2.42,1.45,3.67v.07l-.05.06c-.69.8-1.37,1.64-2,2.5-1.31,1.7-2.54,3.46-3.67,5.29-.53.89-1.05,1.78-1.48,2.68s-.82,1.79-1.19,2.68l-3.93,9.39c-1.13,2.66-2,4.82-2.67,6.33l-.74,1.71-.2.45c-.07.13-.09.22-.1.21Z"/>
    <path class="st5" d="M297.97,219.4l-.14.15-.44.43c-.59.53-1.22,1.01-1.89,1.43-1.07.65-2.24,1.13-3.45,1.44-1.61.4-3.28.51-4.93.31-.96-.11-1.91-.31-2.83-.59-1-.31-1.93-.69-2.95-1-2-.73-4.19-1.49-6.48-2.3-4.57-1.6-9.61-3.31-14.93-5.06-10.62-3.49-20.31-6.43-27.34-8.53l-8.32-2.46-2.26-.67-.59-.18-.2-.07h.21l.59.16,2.28.63c2,.55,4.82,1.36,8.34,2.38,7,2,16.74,5,27.37,8.46,5.32,1.74,10.36,3.47,14.93,5.08,2.28.81,4.45,1.58,6.48,2.33,1,.36,2,.74,2.93,1,.91.29,1.84.49,2.79.6,1.63.2,3.28.11,4.88-.27,1.2-.29,2.36-.76,3.43-1.39.67-.41,1.3-.87,1.9-1.38l.46-.41c.1-.05.16-.1.16-.09Z"/>
    <path class="st5" d="M221.12,202.32c0,.05-.66-.09-1.69,0-.61.02-1.21.12-1.8.29-.7.22-1.38.53-2,.92-1.13.75-2.09,1.73-2.81,2.88-.55.89-.79,1.5-.83,1.48s0-.16.14-.44c.14-.39.33-.77.54-1.13.69-1.21,1.66-2.24,2.82-3,.65-.4,1.35-.72,2.09-.93.6-.16,1.23-.25,1.85-.25.42,0,.84.04,1.25.12.15,0,.3.02.44.06Z"/>
    <path class="st5" d="M209.73,198.73v-.13c.05-.12.13-.23.22-.32.35-.34.8-.57,1.29-.64.71-.12,1.42-.12,2.13,0,.86.12,1.7.32,2.52.62,1.49.52,2.86,1.35,4,2.44.34.34.65.7.93,1.09.1.14.19.29.27.45,0,0-.45-.6-1.33-1.4-1.16-1.04-2.52-1.83-4-2.34-.8-.29-1.63-.5-2.47-.62-.68-.13-1.37-.15-2.06-.06-.46.05-.9.23-1.25.53-.17.22-.25.39-.25.38Z"/>
    <path class="st5" d="M223.23,167.14c-.08-.24-.14-.5-.17-.75-.07-.23-.18-.51-.29-.84s-.31-.68-.54-1.05c-.53-.88-1.14-1.71-1.84-2.46-.86-.91-1.81-1.74-2.83-2.48-1.85-1.36-3.95-2.32-6.18-2.84-.68-.15-1.37-.24-2.06-.27-.26,0-.52-.02-.77-.06.26-.02.51-.02.77,0,.7,0,1.4.06,2.09.19,2.28.47,4.43,1.43,6.3,2.81,1.03.74,1.99,1.59,2.85,2.53.7.77,1.32,1.62,1.83,2.53.19.35.36.72.51,1.09.11.34.2.63.26.87.04.24.07.49.07.73Z"/>
    <path class="st5" d="M291.98,209.2v-.7c0-.46,0-1.12-.09-2-.18-2.42-.67-4.8-1.46-7.09-.25-.76-.58-1.48-1-2.16-.46-.72-1.13-1.29-1.92-1.63-1.65-.71-3.63-.62-5.65-.73l-13.21-.55c-10.91-.48-20.61-.89-26.71-1.22l.08-.06c-.37,2.24-.66,4-.86,5.25-.11.6-.19,1.06-.24,1.39,0,.15,0,.27-.07.36v.12-.49c0-.33.12-.79.2-1.39.19-1.24.46-3,.79-5.27v-.06h.08l26.71,1.11,13.21.57c1,.06,2,.08,3,.16.95.05,1.88.26,2.75.62.82.35,1.52.95,2,1.71.42.69.76,1.44,1,2.21.79,2.31,1.25,4.71,1.38,7.15.06.85.06,1.52.05,2v.51c0,.06-.02.13-.04.19Z"/>
    <path class="st5" d="M284.16,177.11c.07,0,.13,4,.13,8.87s-.06,8.86-.13,8.86-.13-4-.13-8.86.06-8.87.13-8.87Z"/>
    <path class="st5" d="M204.73,156.91s0,.11-.1.33-.19.52-.29,1c-.24.85-.55,2.12-.89,3.78-.68,3.31-1.52,8.16-2.47,14.23-.47,3-1,6.38-1.46,10-.25,1.81-.41,3.69-.54,5.64s-.23,3.95-.31,6c-.15,4.13-.24,8.5-.12,13.06,0,1.13.08,2.28.18,3.44,0,.58.12,1.15.19,1.73.11.57.25,1.14.42,1.7.35,1.13.9,2.18,1.63,3.11.73.95,1.7,1.69,2.8,2.16h0c2.34,1.16,4.78,2.09,7.29,2.79,2.55.76,5.17,1.38,7.84,1.92,5.8,1.2,11.69,1.92,17.61,2.15,2.81.07,5.61,0,8.41-.22,2.74-.19,5.41-.48,8-.86,4.88-.7,9.69-1.83,14.38-3.37,4-1.33,7.88-3,11.6-5v.16l-15.91-5.63-4.26-1.53-1.11-.41-.37-.14.38.12,1.1.43,4.3,1.49,15.94,5.51.19.07-.18.09c-3.72,2-7.61,3.67-11.62,5-4.68,1.55-9.49,2.68-14.37,3.37-2.59.39-5.27.68-8,.87-2.81.22-5.62.3-8.44.23-5.93-.23-11.84-.95-17.65-2.14-2.68-.55-5.31-1.17-7.86-1.94-2.53-.71-4.98-1.64-7.34-2.8h0c-1.15-.48-2.15-1.25-2.91-2.23-.75-.95-1.32-2.04-1.67-3.2-.18-.57-.33-1.14-.43-1.73-.07-.59-.17-1.17-.2-1.75-.09-1.17-.13-2.32-.16-3.46-.12-4.56,0-8.93.13-13.07.08-2.07.19-4.07.32-6,.14-1.95.3-3.83.55-5.64.5-3.61,1-7,1.5-10,1-6.07,1.83-10.92,2.55-14.23.35-1.66.67-2.93.92-3.78.11-.43.25-.74.32-1l.11-.25Z"/>
    <path class="st0" d="M221.06,198.92c6.06-6.7,5.79-18.62,2.32-27.08-.32,9.16-1.4,17.29-2.23,26.19"/>
    <path class="st5" d="M223.39,173.55c.01.1.01.2,0,.3,0,.22,0,.49-.06.83-.06.76-.14,1.81-.24,3.08-.21,2.62-.51,6.19-.83,10.14s-.59,7.51-.8,10.14c-.09,1.27-.17,2.31-.23,3.07,0,.34,0,.62-.07.84s0,.29,0,.29c-.02-.1-.02-.19,0-.29v-.84c0-.73.08-1.78.15-3.08.15-2.6.4-6.19.72-10.15s.65-7.55.91-10.14c.14-1.27.24-2.31.32-3.06,0-.34.08-.62.11-.84,0-.1,0-.19.02-.29Z"/>
    <path class="st5" d="M238.32,161.44c.07,0,.13,2.33.13,5.2s-.06,5.2-.13,5.2-.13-2.33-.13-5.2.06-5.2.13-5.2Z"/>
    <path class="st0" d="M234.37,178.71c.1,1.01.49,1.97,1.12,2.76.64.83,1.6,1.34,2.65,1.41,1.43.08,2.79-.6,3.58-1.79,1.19-2.42,1.37-5.22.5-7.78-.55-1.62-1.97-2.79-3.67-3-1.89-.03-3.55,1.25-4,3.09"/>
    <path class="st5" d="M234.56,173.42c.07-.37.21-.73.4-1.06.22-.39.49-.75.82-1.06.43-.42.95-.73,1.53-.9.32-.1.66-.16,1-.17.38-.02.76.03,1.12.15.79.28,1.49.78,2,1.44.58.71.99,1.56,1.18,2.46.21.96.28,1.94.22,2.92-.01,1.5-.45,2.97-1.25,4.24-.42.56-.99.98-1.64,1.23-.58.24-1.21.34-1.84.31h0c-.46,0-.91-.11-1.32-.32-.36-.19-.7-.42-1-.7-.47-.46-.84-1.01-1.09-1.62-.16-.38-.28-.78-.34-1.19,0-.11,0-.22,0-.33v-.11c.1.54.26,1.07.48,1.58.27.58.64,1.1,1.09,1.55.3.26.64.47,1,.64.38.2.8.3,1.23.29h0c1.27.06,2.48-.5,3.27-1.49.77-1.23,1.19-2.66,1.2-4.11.22-1.84-.26-3.7-1.33-5.21-.49-.63-1.14-1.11-1.89-1.39-.34-.11-.7-.16-1.06-.15-.92.01-1.8.37-2.47,1-.32.29-.59.63-.82,1-.18.32-.34.66-.49,1Z"/>
    <path class="st0" d="M233.22,178.81c.1,1.01.49,1.97,1.12,2.76.64.83,1.6,1.35,2.65,1.41,1.43.08,2.79-.6,3.58-1.8,1.19-2.42,1.37-5.22.5-7.77-.55-1.62-1.98-2.78-3.68-3-1.89-.02-3.55,1.26-4,3.1"/>
    <path class="st5" d="M233.41,173.5c.07-.37.21-.73.4-1.06.22-.39.49-.75.81-1.07.44-.41.97-.72,1.54-.9.32-.1.66-.15,1-.16.38-.02.77.03,1.13.15.79.28,1.48.78,2,1.44.58.71.99,1.56,1.18,2.46.21.95.28,1.93.22,2.91-.01,1.51-.45,2.98-1.25,4.25-.43.55-.99.97-1.64,1.23-.59.24-1.22.34-1.85.31h0c-.46,0-.92-.11-1.33-.33-.36-.18-.7-.41-1-.69-.47-.46-.84-1.01-1.09-1.62-.16-.38-.28-.78-.34-1.19,0-.11,0-.22,0-.33,0-.04,0-.07,0-.11.1.54.26,1.07.48,1.58.26.58.63,1.1,1.09,1.54.3.27.64.48,1,.65.38.2.8.3,1.23.29h0c1.26.06,2.48-.49,3.27-1.48.77-1.23,1.19-2.66,1.2-4.11.21-1.84-.26-3.7-1.33-5.21-.49-.63-1.15-1.12-1.9-1.39-.32-.11-.66-.16-1-.15-.34,0-.68.04-1,.14-.56.16-1.08.45-1.5.85-.32.29-.6.63-.82,1-.18.32-.35.66-.5,1Z"/>
    <path class="st0" d="M235.31,172.97c-1.12-.15-2.2.48-2.64,1.52-.41,1.03-.41,2.18,0,3.21.17.53.45,1.02.82,1.44.38.42.91.68,1.47.72.82-.06,1.56-.5,2-1.2.77-1.1,1.03-2.48.7-3.78-.23-.85-.86-1.72-1.74-1.75"/>
    <path class="st5" d="M235.95,173.13h.2c.19.02.37.08.53.18.59.39,1,1,1.13,1.69.23,1.01.12,2.06-.31,3-.24.57-.62,1.06-1.1,1.45-.52.45-1.23.62-1.9.46-.64-.21-1.19-.65-1.52-1.24-.3-.53-.51-1.1-.63-1.7-.26-1.02-.08-2.11.49-3,.41-.57,1.03-.97,1.72-1.09.19-.03.37-.03.56,0,.13,0,.19.05.19.06-.24-.04-.49-.04-.73,0-.65.15-1.22.55-1.59,1.1-.51.85-.66,1.86-.41,2.82.12.57.33,1.12.62,1.62.3.53.79.93,1.37,1.12.59.14,1.22-.01,1.68-.41.43-.37.77-.83,1-1.35.42-.89.54-1.9.34-2.87-.11-.66-.47-1.25-1-1.65-.2-.09-.42-.16-.64-.19Z"/>
    <path class="st5" d="M237.79,181.05s-.09-.15-.26-.35c-.23-.25-.52-.44-.84-.54-.33-.09-.66-.15-1-.16-.28,0-.45,0-.45-.08s.17-.07.45-.1c.37-.04.75,0,1.11.1.37.11.69.35.91.67.12.26.11.46.08.46Z"/>
    <path class="st5" d="M238.18,172.3s-.08.17-.31.35c-.29.23-.64.38-1,.46-.38.06-.76.04-1.13-.07-.28-.09-.43-.2-.41-.22.99.22,2.03.03,2.88-.52h-.03Z"/>
    <path class="st5" d="M271.98,137.06s.06,0,.16.06c.15.06.3.13.44.22.53.3,1.02.66,1.47,1.06,1.51,1.33,2.61,3.06,3.17,5,.58,1.9.99,3.85,1.21,5.83.08.76.13,1.37.16,1.8.02.22.02.44,0,.66-.06-.21-.1-.43-.11-.65-.07-.47-.15-1.07-.24-1.79-.28-1.96-.7-3.89-1.28-5.78-.53-1.89-1.57-3.6-3-4.95-.62-.54-1.28-1.02-1.98-1.46Z"/>
    <path class="st5" d="M265.85,191.21c1.43-.06,2.57-1.48,4-1.4,1.1-.06,2.04.79,2.1,1.89.06,1.1-.79,2.04-1.89,2.1-.18,0-.36,0-.54-.04-1.5-.18-2.37-1.93-3.84-2.27"/>
    <path class="st5" d="M277.94,192.42c-.45,0-.89-.04-1.33-.11l.08-.48c1.52.33,3.11.02,4.4-.86,1.45-1.07,2.39-3,2.79-5.69v-.1c.16-1.08.38-22.12.38-26.11.2-3.49-2.26-6.57-5.71-7.13-.22,0-5.2-.87-7.84,5.95-2.76,7.13-7.18,20.89-7.48,22.5,0,.2-.09.44-.15.72-.46,2.07-1.42,6.36,1.45,8.84,3.19,2.75,5.71,1.69,5.81,1.64l.21.45c-.12.05-2.9,1.25-6.34-1.72-3.09-2.67-2.09-7.16-1.61-9.31l.15-.71c.29-1.62,4.73-15.44,7.5-22.59s8.33-6.26,8.38-6.25c3.67.63,6.29,3.89,6.13,7.61,0,3.29-.22,25-.39,26.18v.1c-.41,2.84-1.42,4.86-3,6-1,.72-2.2,1.1-3.43,1.07Z"/>
    <path class="st5" d="M284.52,163.09c-.21-.86-.55-1.69-1-2.45-.54-.81-1.22-1.53-2-2.11-.94-.71-2.01-1.22-3.16-1.49-2.1-.46-4.3-.17-6.22.81-.78.43-1.51.95-2.17,1.55,0,0,0-.05.11-.15s.19-.23.37-.39c.48-.46,1.02-.85,1.6-1.17.86-.49,1.8-.82,2.77-1,1.19-.22,2.42-.2,3.6.07,1.18.28,2.29.81,3.25,1.56.78.61,1.44,1.35,1.95,2.19.35.57.6,1.19.76,1.84.05.17.08.34.1.52.05.16.05.22.04.22Z"/>
    <path class="st5" d="M297.05,202.42c-.18-.71-.41-1.42-.68-2.1-.7-1.63-1.86-3.02-3.33-4-.83-.51-1.75-.85-2.71-1-.89-.15-1.7-.2-2.38-.25l-1.62-.11c-.2,0-.4-.03-.6-.08.2-.02.4-.02.6,0h1.62c.81.02,1.62.09,2.42.2.99.13,1.95.47,2.8,1,1.52,1.01,2.69,2.46,3.37,4.15.2.51.35,1.03.45,1.57.04.2.06.41.06.62Z"/>
    <path class="st2" d="M272.23,194.21s4.84-7.33,6.08-8.29,11.79-5.72,13-5,.47,2.43.47,2.43c0,0,4.47-1.56,4.95-.95.53.76.53,1.76,0,2.52,0,0,2.47-.38,2.47.38-.02,1.04-.55,2-1.42,2.57-1.14.86-8.57,5.8-9.16,7.16l-2.41-.14-13.98-.68Z"/>
    <path class="st1" d="M286.16,192.11c.04-.17.12-.32.22-.46.23-.4.5-.78.79-1.14.99-1.2,2.17-2.21,3.51-3,1.32-.78,2.71-1.45,4.15-2l1.3-.47c.16-.07.33-.11.5-.13-.15.09-.3.16-.46.23l-1.27.54c-1.41.57-2.77,1.24-4.09,2-1.3.77-2.48,1.73-3.5,2.85-.77.97-1.11,1.61-1.15,1.58Z"/>
    <path class="st1" d="M280.02,192c.05-.19.13-.37.23-.54.17-.34.42-.83.75-1.42.38-.71.82-1.38,1.33-2,.3-.37.63-.7,1-1,.41-.27.84-.53,1.29-.79,1.51-.9,3.09-1.69,4.72-2.36.5-.2,1-.37,1.52-.51.19-.06.38-.09.58-.1,0,0-.8.23-2,.78-1.62.72-3.19,1.53-4.71,2.44-.44.26-.88.52-1.27.78-.37.28-.71.6-1,.95-.5.6-.95,1.24-1.36,1.91l-.81,1.37c-.08.17-.17.33-.27.49Z"/>
  </g>
  <g id="freepik--Plant--inject-72">
    <path class="st5" d="M170.14,443.33c.06-.16.12-.32.2-.48.16-.33.37-.79.64-1.37.79-1.78,1.42-3.62,1.9-5.5,1.25-4.89,1.68-12.36-.17-21.23-1-4.83-2.31-9.59-3.93-14.25-1.67-5.07-3.61-10.44-5.19-16.24-1.79-6.06-2.65-12.35-2.56-18.67.24-6.61,2.2-13.2,4.35-19.76s4.36-13,5-19.46c.74-6.23-.51-12.53-3.57-18-2.85-5.24-6.43-9.73-9.11-14.37-2.5-4.31-4.35-8.97-5.47-13.82-1.61-7.03-1.73-14.33-.35-21.41.5-2.59,1.25-5.12,2.24-7.56-.03.17-.08.34-.14.51l-.45,1.45c-.56,1.86-1.02,3.74-1.39,5.65-1.27,7.06-1.07,14.3.59,21.27,1.14,4.79,2.99,9.39,5.49,13.64,2.67,4.59,6.27,9.06,9.17,14.36,3.13,5.57,4.42,11.99,3.68,18.34-.67,6.57-2.9,13-5.05,19.6s-4.08,13.08-4.29,19.57c-.1,6.25.74,12.48,2.5,18.48,1.55,5.78,3.47,11.15,5.11,16.23,1.6,4.69,2.9,9.49,3.88,14.35,1.8,8.94,1.29,16.48-.06,21.39-.5,1.89-1.17,3.72-2,5.49-.3.57-.54,1-.71,1.35-.09.16-.19.31-.31.44Z"/>
    <path class="st6" d="M161.37,298.6s-5.44-17.4,4.36-27.59c.25-.23.64-.21.86.04.07.07.11.16.14.26.52,2.88,1.17,11.63-5.36,27.29Z"/>
    <path class="st5" d="M164.63,276.81c-.01,1.08-.13,2.15-.36,3.21-.36,2.21-.78,4.81-1.25,7.68l-1.21,7.67c-.1,1.08-.29,2.14-.58,3.18-.1-1.08-.07-2.17.1-3.24.18-2,.53-4.72,1-7.72s1-5.71,1.44-7.66c.17-1.07.46-2.11.86-3.12Z"/>
    <path class="st6" d="M167.73,339.64s3.33-17.92,16.72-22.37c.32-.11.67.06.77.38.04.12.04.25,0,.37-.85,2.79-4.37,10.83-17.5,21.62Z"/>
    <path class="st5" d="M180.84,321.9c-.52.95-1.13,1.84-1.83,2.67-1.35,1.79-2.93,3.89-4.69,6.2l-4.66,6.22c-.58.91-1.25,1.75-2,2.53.43-.99.96-1.94,1.6-2.81,1.09-1.67,2.68-3.93,4.52-6.35,1.84-2.42,3.57-4.57,4.85-6.09.65-.87,1.39-1.67,2.21-2.37Z"/>
    <path class="st6" d="M164.14,384.61s-2-18.12,9.51-26.26c.26-.22.64-.18.86.08.1.12.15.26.14.41-.08,2.92-1.11,11.66-10.51,25.77Z"/>
    <path class="st5" d="M171.5,363.84c-.23,1.06-.56,2.09-1,3.08l-2.68,7.3c-1,2.73-1.9,5.2-2.66,7.3-.3,1.03-.7,2.03-1.17,3,.11-1.08.34-2.14.71-3.16.55-1.92,1.42-4.53,2.48-7.39s2.08-5.4,2.87-7.24c.37-1.02.86-1.99,1.45-2.89Z"/>
    <path class="st6" d="M174.23,429.84s-1.37-18.18,10.44-25.9c.27-.19.65-.12.83.15.07.11.11.24.11.37-.14,2.92-1.48,11.59-11.38,25.38Z"/>
    <path class="st5" d="M182.33,409.35c-.26,1.03-.62,2.04-1.08,3-.85,2.08-1.85,4.51-2.94,7.2s-2.08,5.13-2.92,7.2c-.34,1.04-.76,2.04-1.28,3,.14-1.07.42-2.12.82-3.13.63-1.89,1.59-4.48,2.74-7.29s2.28-5.33,3.14-7.13c.4-1.01.91-1.96,1.52-2.85Z"/>
    <path class="st6" d="M153.55,283.31s-16.16-8.44-16.48-22.54c0-.34.26-.62.6-.62.13,0,.25.03.35.1,2.4,1.66,9.05,7.38,15.53,23.06Z"/>
    <path class="st5" d="M140.43,265.61c.75.77,1.42,1.62,2,2.53l4.56,6.3,4.57,6.28c.7.82,1.31,1.72,1.84,2.66-.82-.7-1.57-1.49-2.22-2.36-1.28-1.53-3-3.71-4.74-6.18s-3.33-4.75-4.4-6.43c-.64-.87-1.18-1.81-1.61-2.8Z"/>
    <path class="st6" d="M170.9,320.68s-16.64-7.44-17.81-21.5c-.03-.34.22-.63.56-.66.12-.01.25.02.35.08,2.5,1.51,9.49,6.82,16.9,22.08Z"/>
    <path class="st5" d="M156.73,303.81c.8.73,1.53,1.53,2.17,2.4,1.42,1.73,3.08,3.77,4.93,6l4.94,6c.74.78,1.41,1.63,2,2.53-.88-.65-1.67-1.4-2.36-2.24-1.37-1.45-3.19-3.53-5.11-5.88s-3.57-4.5-4.78-6.12c-.69-.83-1.29-1.73-1.79-2.69Z"/>
    <path class="st6" d="M161.33,362.36s-11.43-14.2-6.07-27.25c.12-.31.47-.46.78-.34.12.05.23.13.29.24,1.54,2.49,5.4,10.39,5,27.35Z"/>
    <path class="st5" d="M156.4,340.89c.38,1.01.66,2.06.83,3.12.47,2.19,1,4.76,1.65,7.6s1.19,5.4,1.67,7.59c.3,1.04.51,2.1.63,3.17-.49-.97-.86-1.99-1.1-3.05-.56-1.92-1.23-4.59-1.87-7.57s-1.14-5.68-1.46-7.65c-.24-1.05-.36-2.13-.35-3.21Z"/>
    <path class="st6" d="M172.65,411.42s-16.52-7.72-17.45-21.8c-.04-.32.2-.62.52-.65.14-.02.28.02.39.09,2.48,1.55,9.38,6.97,16.54,22.36Z"/>
    <path class="st5" d="M158.73,394.31c.79.74,1.5,1.55,2.12,2.44,1.39,1.75,3,3.81,4.83,6.09l4.85,6.08c.74.79,1.41,1.65,2,2.56-.86-.66-1.64-1.41-2.32-2.25-1.35-1.47-3.13-3.58-5-6s-3.53-4.59-4.68-6.22c-.7-.83-1.3-1.73-1.8-2.7Z"/>
    <path class="st5" d="M205.54,339.74v1.56c0,1.1-.12,2.58-.2,4.43-.21,3.88-.51,9.3-.86,15.78h0c-1.18,6.6-4.54,13.91-9,21-3.31,5.23-6.78,10-9.77,14.4-2.72,3.86-5.17,7.91-7.33,12.12-1.42,2.85-2.56,5.82-3.43,8.88-.29,1.09-.51,1.94-.63,2.52-.05.3-.13.6-.25.88.01-.3.05-.6.11-.9.08-.59.26-1.46.51-2.56.77-3.1,1.86-6.12,3.25-9,2.11-4.26,4.53-8.36,7.24-12.26,3-4.45,6.43-9.21,9.72-14.42,4.49-7.06,7.83-14.26,9.06-20.75h0c.46-6.48.84-11.89,1.11-15.78l.36-4.41c0-.46.08-.84.11-1.16-.01-.11-.01-.22,0-.33Z"/>
    <path class="st6" d="M195.73,381.2s7-16.84-1.8-27.87c-.21-.26-.6-.3-.86-.09-.1.08-.17.18-.2.3-.8,2.81-2.24,11.47,2.86,27.66Z"/>
    <path class="st5" d="M194.44,359.2c.3,1.04.48,2.11.55,3.19.25,2,.53,4.72.74,7.75s.32,5.79.32,7.79c.07,1.08,0,2.17-.19,3.23-.2-1.06-.29-2.14-.29-3.22-.15-2.23-.32-4.85-.52-7.75s-.38-5.52-.54-7.76c-.14-1.07-.16-2.15-.07-3.23Z"/>
    <g class="st11">
      <path d="M195.73,381.2s7-16.84-1.8-27.87c-.21-.26-.6-.3-.86-.09-.1.08-.17.18-.2.3-.8,2.81-2.24,11.47,2.86,27.66Z"/>
    </g>
    <path class="st6" d="M174.05,421.77s5.6-17.35-4.06-27.63c-.25-.23-.63-.21-.86.04-.07.07-.11.16-.14.25-.59,2.87-1.32,11.62,5.06,27.34Z"/>
    <path class="st5" d="M170.99,399.95c.39,1.01.67,2.06.81,3.13.41,1.95.91,4.66,1.37,7.67s.79,5.74,1,7.73c.15,1.07.18,2.16.07,3.24-.28-1.04-.47-2.11-.55-3.18-.33-2.22-.71-4.82-1.14-7.69s-.83-5.47-1.17-7.68c-.24-1.06-.37-2.14-.39-3.22Z"/>
    <g class="st11">
      <path d="M174.05,421.77s5.6-17.35-4.06-27.63c-.25-.23-.63-.21-.86.04-.07.07-.11.16-.14.25-.59,2.87-1.32,11.62,5.06,27.34Z"/>
    </g>
    <path class="st6" d="M204.62,360.63s14.93-10.46,13.43-24.49c-.04-.33-.35-.57-.68-.53-.12.01-.23.06-.32.14-2.17,1.95-8.03,8.49-12.43,24.88Z"/>
    <g class="st11">
      <path d="M204.62,360.63s14.93-10.46,13.43-24.49c-.04-.33-.35-.57-.68-.53-.12.01-.23.06-.32.14-2.17,1.95-8.03,8.49-12.43,24.88Z"/>
    </g>
    <path class="st5" d="M215.34,341.38c-.29,1.05-.71,2.05-1.24,3-.85,1.8-2.09,4.26-3.53,6.93s-2.84,5.06-3.91,6.75c-.52.95-1.16,1.83-1.9,2.62.41-1,.91-1.96,1.49-2.87l3.72-6.82,3.7-6.83c.47-.98,1.03-1.91,1.67-2.78Z"/>
    <path class="st6" d="M180.07,404.57s18-2.8,22.84-16.06c.12-.32-.05-.67-.36-.78-.12-.04-.25-.05-.37-.02-2.81.79-10.95,4.09-22.11,16.86Z"/>
    <g class="st11">
      <path d="M180.07,404.57s18-2.8,22.84-16.06c.12-.32-.05-.67-.36-.78-.12-.04-.25-.05-.37-.02-2.81.79-10.95,4.09-22.11,16.86Z"/>
    </g>
    <path class="st5" d="M198.17,392.02c-.73.8-1.55,1.51-2.44,2.13-1.56,1.25-3.76,2.91-6.23,4.68s-4.78,3.29-6.48,4.33c-.89.62-1.85,1.13-2.86,1.52.8-.72,1.67-1.37,2.6-1.92,1.82-1.3,4-2.81,6.34-4.49l6.34-4.5c.85-.67,1.76-1.26,2.73-1.75Z"/>
    <polygon class="st13" points="158.75 437.73 163.92 471.62 184.56 471.58 191.51 437.73 158.75 437.73"/>
    <path class="st5" d="M188.48,450.8s0,.05-.17.12c-.17.12-.35.23-.54.32-.73.35-1.51.58-2.31.68-1.27.18-2.57.06-3.79-.35-1.65-.52-3.09-1.58-4.08-3-.58-.84-.92-1.81-1-2.83-.12-1.16.42-2.28,1.4-2.91,1.11-.56,2.45-.45,3.46.28,1.04.74,1.76,1.86,2,3.11.27,1.26.36,2.55.26,3.83-.07,1.34-.35,2.67-.84,3.92-.51,1.31-1.33,2.48-2.39,3.41-1.11.98-2.52,1.56-4,1.66-1.47.02-2.9-.4-4.13-1.2-1.18-.75-2.22-1.69-3.08-2.79-.88-1.05-1.41-2.33-1.54-3.69-.11-1.36.43-2.69,1.46-3.59,1.07-.79,2.5-.88,3.66-.23,1.1.54,1.88,1.57,2.11,2.77.32,2.15-.72,4.28-2.61,5.36-1.53.83-3.3,1.09-5,.72-1.25-.26-2.45-.73-3.55-1.39-.69-.41-1.36-.85-2-1.34-.23-.16-.44-.34-.64-.54.25.12.49.27.71.44.64.45,1.31.87,2,1.25,1.09.61,2.27,1.04,3.49,1.27,1.62.31,3.29.05,4.73-.75,1.71-1.02,2.64-2.96,2.35-4.93-.21-1.05-.91-1.95-1.88-2.41-.98-.56-2.2-.49-3.1.19-.89.79-1.36,1.96-1.25,3.15.14,1.27.67,2.46,1.52,3.41.84,1.05,1.86,1.94,3,2.65,1.12.74,2.43,1.12,3.77,1.11,1.34-.09,2.62-.63,3.63-1.52.99-.87,1.76-1.96,2.24-3.19.47-1.2.74-2.46.81-3.74.1-1.23.03-2.46-.22-3.67-.21-1.13-.83-2.14-1.75-2.83-.87-.65-2.02-.76-3-.29-.84.54-1.3,1.5-1.19,2.49.05.94.34,1.85.85,2.64.95,1.35,2.3,2.36,3.86,2.88,1.17.41,2.42.56,3.66.43,1.07-.12,2.12-.43,3.09-.9Z"/>
  </g>
  <g id="freepik--speech-bubble--inject-72">
    <path class="st5" d="M318.86,30h-2.99l-1.26.18-1.48.32-1.66.41c-2.84.72-5.54,1.9-8,3.49-7.39,4.7-12.19,12.54-13,21.26-.11,1.29-.14,2.59-.08,3.88,0,.65,0,1.32.13,2l.3,2c.51,2.75,1.41,5.41,2.69,7.89,1.37,2.59,3.1,4.97,5.15,7.07,2.19,2.15,4.69,3.94,7.42,5.33,2.83,1.45,5.89,2.39,9.05,2.78.8.12,1.6.18,2.41.2.81,0,1.62.08,2.44,0,1.64-.07,3.28-.28,4.89-.62,3.47-.75,6.76-2.14,9.72-4.09h-.29l9.9,4,.59.24-.17-.61-2.89-10.58v.26c2.69-3.56,4.5-7.71,5.29-12.1.37-2.04.5-4.13.38-6.2-.02-1.01-.11-2.01-.28-3-.08-.49-.15-1-.22-1.45s-.24-.94-.35-1.4c-1.68-6.51-5.62-12.22-11.12-16.09-2.02-1.46-4.24-2.63-6.58-3.47l-1.48-.54-1.41-.35-1.29-.31c-.41-.08-.81-.12-1.18-.18-.75-.1-1.41-.22-2-.25l-1.46-.05h-1.19.3l.89.07,1.44.1c.57,0,1.23.19,2,.3,10.98,1.9,19.8,10.1,22.51,20.91.11.46.25.91.34,1.38l.21,1.42c.16.97.24,1.95.26,2.93.11,2.04-.02,4.08-.4,6.08-.79,4.3-2.57,8.36-5.21,11.84l-.09.11v.15c.93,3.42,1.9,7,2.89,10.59l.42-.37-9.91-4-.15-.06-.14.09c-2.89,1.91-6.12,3.27-9.51,4-1.57.34-3.17.54-4.77.6-.8.05-1.59.05-2.39,0-.79-.01-1.58-.08-2.36-.2-3.08-.37-6.08-1.29-8.84-2.7-2.68-1.35-5.13-3.11-7.27-5.21-2.01-2.05-3.72-4.38-5.06-6.92-1.27-2.43-2.17-5.03-2.67-7.72-.1-.65-.2-1.31-.3-1.95s-.08-1.31-.13-2c-.07-1.27-.05-2.54.06-3.8.77-8.57,5.43-16.32,12.65-21,2.42-1.61,5.08-2.81,7.89-3.56l1.63-.43,1.5-.17,1.26-.21c.39,0,.74-.05,1.05-.08l1.43-.1.49-.11Z"/>
    <path class="st6" d="M329.53,53.98c-.59-2.62-3.09-4.88-5.76-4.61-1.61.21-3.06,1.07-4,2.39-.35.43-.66.88-.94,1.36-.27-.48-.58-.93-.93-1.36-.95-1.32-2.39-2.18-4-2.4-2.67-.26-5.17,2-5.76,4.61-.46,2.69.27,5.45,2,7.56,2.13,3.02,5.28,5.15,8.87,6,3-.69,6.81-3.79,8.43-5.94,1.77-2.11,2.54-4.89,2.09-7.61Z"/>
    <path class="st9" d="M329.04,58.85h-4.99.06c-.32,1.19-.7,2.58-1.12,4.1l-.07.25-.08-.24c-.66-1.88-1.39-4-2.16-6.19-.23-.68-.47-1.36-.69-2h.15l-2.4,4.1h-8.78,8.78-.07c.74-1.26,1.54-2.65,2.39-4.11l.1-.16.06.18.7,2c.76,2.22,1.49,4.32,2.14,6.19h-.16c.43-1.52.83-2.91,1.16-4.1h5.03l-.05-.02Z"/>
  </g>
</svg>