<?xml version="1.0" encoding="UTF-8"?>
<svg id="Layer_1" xmlns="http://www.w3.org/2000/svg" version="1.1" viewBox="0 0 500 500">
  <!-- Generator: Adobe Illustrator 29.7.1, SVG Export Plug-In . SVG Version: 2.1.1 Build 8)  -->
  <defs>
    <style>
      .st0 {
        fill: #e0e0e0;
      }

      .st1 {
        fill: #ffbe9d;
      }

      .st2 {
        fill: #ebebeb;
      }

      .st3 {
        fill: #263238;
      }

      .st4 {
        fill: #50a7c2;
      }

      .st5 {
        fill: #eb996e;
      }

      .st6 {
        fill: #fff;
      }

      .st7 {
        fill: #fafafa;
      }

      .st8 {
        opacity: .3;
      }

      .st9 {
        fill: #f5f5f5;
      }

      .st10 {
        fill: #455a64;
      }
    </style>
  </defs>
  <g id="freepik--background-complete--inject-64">
    <path class="st2" d="M382.83,260.63s-7.92-.57-7.19,17.19,2.54,27.23,2.54,27.23c0,0-.23,3.94-3.29,3.16s-8.78-4.6-11.62-1.74-1.89,7.53,2,12.9,12,17.45,12.73,18.54,1,3.09-1.15,2.9-16.76-5.14-18.7,1.92,11.38,20.27,12.81,21.71,1.5,2.39.93,3.28-5.33-1.24-9.54-2.47-9.31-1.94-10.08,2.23,5.09,16.38,27.06,29.21l10.57,5.31,10-6.38c20.58-15,25.2-27.69,24-31.76s-6.19-2.87-10.25-1.22-8.58,4.24-9.25,3.42-.68-1.76.6-3.36,13.21-16,10.58-22.88-16.66-.46-18.79,0-2.05-1.62-1.45-2.76,7.48-14,10.82-19.72,3.93-10.37.71-13-8.44,1.82-11.39,2.9-3.59-2.82-3.59-2.82c0,0,.86-9.6-.19-27.35s-9.06-16.31-9.06-16.31"/>
    <path class="st0" d="M383.43,276.54v.37c0,.25.05.62.09,1.09.07,1,.16,2.39.28,4.19.25,3.65.56,8.92.92,15.44.72,13,1.57,31.05,2.44,51s1.67,37.92,2.32,51c.33,6.51.6,11.78.79,15.45.09,1.8.16,3.22.2,4.19,0,.47,0,.83.05,1.1,0,.12,0,.25,0,.37v-.37c0-.24-.05-.63-.09-1.09-.06-1-.16-2.39-.28-4.2-.24-3.64-.56-8.91-.92-15.43-.72-13-1.57-31.06-2.44-51s-1.67-37.92-2.32-51c-.33-6.5-.6-11.77-.78-15.44-.09-1.81-.16-3.22-.21-4.2v-1.09l-.05-.38Z"/>
    <path class="st0" d="M371.06,312.16c.24.15.47.33.66.54.41.37,1,.93,1.68,1.62,1.39,1.38,3.27,3.34,5.3,5.54l5.17,5.65,1.57,1.71c.21.19.39.41.55.65-.24-.15-.46-.33-.66-.54-.41-.37-1-.92-1.67-1.62-1.38-1.4-3.23-3.38-5.26-5.58l-5.21-5.62-1.58-1.69c-.21-.2-.39-.42-.55-.66Z"/>
    <path class="st0" d="M387.04,327.52c-.08-.07,3.78-4.12,8.63-9s8.84-8.83,8.92-8.75-3.78,4.12-8.63,9-8.84,8.83-8.92,8.75Z"/>
    <path class="st0" d="M387,358.15c.22-.18.47-.34.73-.47l2.07-1.16c1.74-1,4.15-2.34,6.75-3.94s4.91-3.11,6.57-4.22l2-1.32c.23-.18.48-.33.75-.44-.2.21-.42.41-.66.57-.44.35-1.08.83-1.9,1.42-1.62,1.18-3.91,2.74-6.52,4.34s-5,2.93-6.83,3.84c-.89.46-1.62.82-2.13,1.05-.26.15-.54.26-.83.33Z"/>
    <path class="st0" d="M369.49,347.43c.26.09.5.2.73.35.45.24,1.11.6,1.91,1.06,1.61.92,3.82,2.2,6.25,3.65s4.61,2.77,6.18,3.74c.79.49,1.42.89,1.85,1.18s.67.45.65.48c-.26-.09-.5-.2-.73-.35-.46-.24-1.11-.6-1.91-1.06-1.61-.92-3.82-2.2-6.25-3.65s-4.61-2.77-6.18-3.74c-.79-.49-1.42-.89-1.85-1.18s-.67-.45-.65-.48Z"/>
    <path class="st0" d="M366.01,374.47c.33.11.64.26.93.45l2.46,1.35c2.07,1.16,4.91,2.79,8,4.61s5.95,3.49,8,4.71l2.4,1.47c.3.17.59.37.85.59-.32-.12-.64-.27-.93-.45l-2.46-1.36c-2.07-1.16-4.91-2.79-8-4.61s-6-3.48-8-4.71l-2.4-1.47c-.3-.17-.59-.36-.85-.58Z"/>
    <path class="st0" d="M388.21,387.18c.29-.23.6-.43.92-.61l2.57-1.57c2.17-1.32,5.16-3.15,8.4-5.27s6.14-4.1,8.22-5.55l2.47-1.72c.29-.23.61-.42.94-.59-.26.26-.54.5-.84.72-.56.44-1.38,1.07-2.4,1.82-2,1.51-4.91,3.54-8.17,5.66s-6.27,3.92-8.47,5.18c-1.11.62-2,1.12-2.64,1.45-.32.19-.65.35-1,.48Z"/>
    <polygon class="st0" points="404.1 405.42 374.86 405.42 384.4 477.66 394.56 477.66 404.1 405.42"/>
    <path class="st9" d="M376.38,414.3s0,.1.15.26c.2.22.44.39.71.5,1.03.36,2.17.22,3.09-.38,1.18-.65,2.2-1.93,3.79-2.49,1.75-.56,3.64-.53,5.37.1,1.76.61,3.44,1.42,5,2.43,1.31.82,2.67,1.55,4.07,2.19.95.43,1.96.72,3,.86.28.04.56.06.84.06.1.02.2.02.3,0-1.38-.22-2.73-.63-4-1.21-1.38-.67-2.71-1.43-4-2.26-1.58-1.04-3.29-1.88-5.09-2.5-1.83-.66-3.83-.68-5.68-.06-.77.31-1.48.75-2.1,1.3-.53.47-1.09.9-1.67,1.3-.83.57-1.87.75-2.85.49-.35-.13-.66-.33-.93-.59Z"/>
    <path class="st9" d="M377.44,427.61s.23-.3.69-.78c.67-.65,1.46-1.16,2.34-1.48,1.3-.47,2.68-.68,4.06-.61,1.71.13,3.41.36,5.09.69,1.72.33,3.47.41,5.21.22,1.42-.19,2.8-.58,4.1-1.17.87-.4,1.7-.89,2.47-1.47.29-.2.55-.43.78-.7-1.08.7-2.21,1.32-3.38,1.86-1.28.51-2.63.85-4,1-1.7.16-3.41.07-5.08-.25-1.7-.34-3.42-.56-5.15-.66-1.44-.05-2.87.2-4.21.74-.9.36-1.71.94-2.35,1.67-.17.2-.31.41-.44.64-.06.09-.11.19-.13.3Z"/>
    <path class="st9" d="M400.83,434.73c-.24-.19-.52-.33-.81-.42-.78-.28-1.59-.46-2.42-.52-1.23-.07-2.46,0-3.67.21-1.36.22-2.82.6-4.36.92-1.42.34-2.89.51-4.35.5-1.19-.03-2.36-.29-3.46-.75-1-.47-1.89-1.13-2.62-1.95.11.29.27.54.49.76.56.63,1.24,1.13,2,1.49,1.12.53,2.34.83,3.58.89,1.5.03,3.01-.12,4.47-.47,1.55-.33,3-.72,4.34-1,1.18-.23,2.37-.33,3.57-.3,1.1.08,2.19.3,3.24.64Z"/>
    <path class="st9" d="M380.03,444.75c.9-.38,1.89-.48,2.84-.29,1.04.25,2.05.63,3,1.11,1.21.58,2.51.94,3.85,1.06,2.45.22,4.9-.35,7-1.62.63-.38,1.21-.83,1.74-1.34.35-.38.53-.59.51-.62-.77.61-1.58,1.16-2.42,1.67-2.07,1.14-4.43,1.64-6.79,1.44-2.76-.16-4.89-1.81-6.81-2-.74-.13-1.5-.06-2.2.19-.53.16-.74.38-.72.4Z"/>
    <path class="st9" d="M381.66,458.61c.84.03,1.67-.14,2.43-.48,1.47-.49,3.29-1.62,5.42-2.46.98-.41,2.04-.63,3.1-.65.87,0,1.72.19,2.5.57.71.38,1.33.91,1.81,1.56-.04-.23-.14-.44-.28-.62-.35-.52-.82-.94-1.37-1.24-.81-.45-1.72-.69-2.65-.71-1.12,0-2.24.22-3.28.64-2.2.88-4,2-5.37,2.6s-2.33.72-2.31.79Z"/>
    <path class="st9" d="M383.09,465.07c.58.29,1.21.49,1.85.6,1.52.37,3.07.63,4.63.78,1.56.16,3.13.2,4.69.13.65.03,1.3-.05,1.93-.23,0-.14-3,0-6.58-.38s-6.49-1.04-6.52-.9Z"/>
    <rect class="st7" x="305.13" y="31.73" width="90.81" height="116.9"/>
    <path class="st2" d="M372.71,48.92c-.05.09-.1.17-.17.24l-.52.65c-.29.34-.56.7-.8,1.08-.36.5-.7,1.02-1,1.55-.86,1.45-1.58,2.97-2.15,4.56-.74,2.1-1.3,4.27-1.67,6.47-.43,2.67-.71,5.37-.84,8.07-.17,2.92-.18,6-.34,9.34-.11,3.46-.48,6.9-1.11,10.3-.36,1.8-.85,3.57-1.45,5.3-.65,1.78-1.48,3.49-2.48,5.1-2.02,3.15-4.77,5.79-8,7.68-3.01,1.71-6.22,3.06-9.55,4-3.16,1-6.22,1.64-9.08,2.29s-5.5,1.28-7.88,2c-2.15.62-4.25,1.38-6.3,2.27-1.54.68-3.03,1.48-4.44,2.4-.58.38-1.09.72-1.51,1.05s-.79.59-1.07.84l-.64.53c-.07.07-.15.12-.23.17.06-.08.12-.15.2-.21l.61-.57c.32-.31.65-.61,1-.88.48-.39.98-.76,1.5-1.1,1.4-.96,2.88-1.79,4.43-2.49,2.04-.94,4.15-1.72,6.31-2.36,2.39-.73,5.05-1.38,7.9-2s5.9-1.36,9-2.33c3.29-.95,6.46-2.3,9.43-4,3.17-1.86,5.85-4.44,7.84-7.53.98-1.58,1.8-3.25,2.43-5,.6-1.71,1.08-3.45,1.44-5.22.62-3.37,1.01-6.79,1.14-10.22.16-3.28.19-6.41.38-9.34.14-2.72.45-5.43.91-8.11.4-2.24,1.02-4.43,1.83-6.55.59-1.6,1.34-3.13,2.24-4.57.32-.53.67-1.04,1.05-1.53.26-.37.54-.73.85-1.06l.56-.62c.1-.12.17-.21.18-.2Z"/>
    <path class="st2" d="M385.61,62.72c-.03.09-.07.18-.11.26l-.37.76c-.52.94-1.13,1.83-1.83,2.65-1.11,1.3-2.37,2.46-3.77,3.45-1.85,1.31-3.84,2.39-5.94,3.23-2.54,1-5.17,1.79-7.84,2.36-2.87.67-6,1.22-9.16,2-3.37.7-6.65,1.8-9.76,3.28-3.34,1.55-6.22,3.94-8.36,6.94-1.98,3.11-3.14,6.67-3.37,10.35-.27,3.43-.18,6.88.28,10.29.36,3.27.82,6.38,1.05,9.32.25,2.73.23,5.48-.06,8.2-.27,2.25-.85,4.45-1.71,6.54-.64,1.58-1.51,3.07-2.58,4.4-.67.83-1.42,1.58-2.25,2.25l-.69.49c-.15.11-.23.16-.24.15l.21-.19.65-.53c.81-.7,1.54-1.47,2.19-2.32,1.02-1.34,1.85-2.82,2.47-4.39.82-2.08,1.36-4.26,1.61-6.48.27-2.7.27-5.41,0-8.11-.25-2.92-.72-6-1.1-9.31-.47-3.44-.57-6.93-.31-10.39.25-3.76,1.45-7.4,3.48-10.57,2.19-3.07,5.14-5.52,8.56-7.11,3.14-1.49,6.45-2.61,9.85-3.32,3.22-.73,6.32-1.28,9.17-1.92,2.66-.55,5.27-1.31,7.81-2.28,2.08-.81,4.06-1.86,5.9-3.13,1.39-.95,2.66-2.07,3.78-3.34.71-.8,1.34-1.67,1.9-2.58l.41-.72c.06-.15.12-.24.13-.23Z"/>
    <path class="st2" d="M352.83,108.17c-.91-.51-1.78-1.1-2.59-1.75-1.56-1.13-3.69-2.73-6-4.51s-4.43-3.43-5.94-4.64c-.84-.6-1.63-1.27-2.36-2,.91.5,1.76,1.08,2.57,1.73,1.56,1.13,3.69,2.73,6,4.51s4.43,3.43,5.94,4.64c.85.6,1.65,1.28,2.38,2.02Z"/>
    <path class="st2" d="M360.01,101.55c-.31-.13-.6-.31-.86-.53-.53-.36-1.29-.91-2.22-1.59-1.86-1.36-4.41-3.27-7.2-5.41s-5.31-4.1-7.12-5.53c-.9-.72-1.62-1.31-2.11-1.73-.28-.19-.53-.43-.74-.69.31.14.6.31.86.53.53.37,1.29.91,2.22,1.59,1.86,1.37,4.41,3.28,7.2,5.42s5.31,4.09,7.11,5.53c.9.72,1.63,1.31,2.12,1.72.28.2.53.43.74.69Z"/>
    <path class="st2" d="M362.83,93.43c-.88-.48-1.72-1.04-2.5-1.67-1.5-1.09-3.55-2.62-5.79-4.34s-4.29-3.29-5.71-4.42c-.81-.6-1.57-1.27-2.27-2,.88.48,1.72,1.04,2.5,1.67,1.5,1.09,3.55,2.62,5.79,4.34s4.26,3.29,5.71,4.45c.81.59,1.57,1.25,2.27,1.97Z"/>
    <path class="st2" d="M364.83,84.22c-1.59-.89-3.09-1.93-4.48-3.1-1.49-1.03-2.88-2.2-4.15-3.5,1.59.88,3.08,1.92,4.47,3.09,1.49,1.04,2.89,2.21,4.16,3.51Z"/>
    <path class="st2" d="M375.74,72c-1.77-1.01-3.44-2.17-5-3.47-1.66-1.16-3.22-2.46-4.66-3.88,1.77,1.01,3.44,2.17,5,3.47,1.66,1.16,3.22,2.46,4.66,3.88Z"/>
    <path class="st2" d="M384.89,66.94c-.88-.49-1.71-1.05-2.49-1.68-1.5-1.08-3.55-2.62-5.8-4.33s-4.26-3.3-5.7-4.46c-.81-.6-1.57-1.27-2.27-2,.87.49,1.71,1.05,2.49,1.68,1.5,1.09,3.55,2.62,5.8,4.33s4.26,3.3,5.7,4.46c.82.59,1.58,1.26,2.27,2Z"/>
    <path class="st2" d="M344.29,111.1c-1.76-1.02-3.43-2.18-5-3.47-1.66-1.16-3.21-2.46-4.65-3.89,1.76,1.01,3.43,2.17,5,3.47,1.66,1.16,3.22,2.46,4.65,3.89Z"/>
    <path class="st2" d="M333.56,124.45c-1.64-.93-3.2-2-4.64-3.22-1.55-1.07-3-2.29-4.32-3.63,1.64.94,3.19,2.01,4.64,3.22,1.54,1.08,2.99,2.29,4.32,3.63Z"/>
    <path class="st2" d="M333.17,134.93c-.9-.49-1.75-1.07-2.54-1.71-1.53-1.11-3.63-2.67-5.92-4.42s-4.34-3.36-5.82-4.55c-.83-.6-1.6-1.27-2.32-2,.9.49,1.75,1.06,2.55,1.71,1.53,1.11,3.62,2.67,5.91,4.42,2.29,1.75,4.35,3.36,5.82,4.55.82.61,1.6,1.28,2.32,2Z"/>
    <path class="st0" d="M315.17,38.63c0,1-.81,1.81-1.81,1.81s-1.81-.81-1.81-1.81.81-1.81,1.81-1.81h0c1,0,1.81.81,1.81,1.81Z"/>
    <path class="st0" d="M389.51,38.63c0,1-.81,1.81-1.81,1.81s-1.81-.81-1.81-1.81.81-1.81,1.81-1.81h0c1,0,1.81.81,1.81,1.81Z"/>
    <rect class="st0" x="63.98" y="38.1" width="70.96" height="102.85"/>
    <rect class="st9" x="60.42" y="38.1" width="70.96" height="102.85"/>
    <rect class="st6" x="69.24" y="49.24" width="53.33" height="80.57"/>
    <path class="st0" d="M122.56,129.81v-22.55c0-14.21,0-34.32-.08-58l.17.18h-53.32l.19-.2v80.57l-.15-.15,38.81.08h14.54-14.41l-39.07.26h-.16V49.08h53.7v.17c0,23.74-.07,43.9-.09,58.14v22.06c0,.26-.13.36-.13.36Z"/>
    <path class="st0" d="M131.58,38.1c-.36.65-.79,1.27-1.27,1.84-.82,1.1-2,2.6-3.33,4.22s-2.58,3.06-3.5,4.08c-.48.57-1,1.11-1.56,1.6.4-.63.85-1.23,1.35-1.78l3.42-4.14,3.41-4.15c.45-.6.94-1.15,1.48-1.67Z"/>
    <path class="st6" d="M122.84,129.56c2.65,4.22,5.77,8.12,9.3,11.63"/>
    <path class="st0" d="M132.14,141.19c-.59-.44-1.14-.93-1.63-1.48-1.23-1.27-2.4-2.61-3.5-4-1.1-1.38-2.14-2.81-3.09-4.3-.43-.59-.79-1.23-1.08-1.9.47.55.91,1.14,1.3,1.75.79,1.1,1.88,2.6,3.17,4.2s2.5,3,3.4,4c.52.54,1,1.12,1.43,1.73Z"/>
    <path class="st6" d="M60.41,140.87l9.3-11.46"/>
    <path class="st0" d="M69.71,129.41c-1.4,2.02-2.9,3.98-4.5,5.85-1.5,1.95-3.1,3.83-4.8,5.61,1.4-2.03,2.9-3.98,4.5-5.85,1.5-1.96,3.1-3.83,4.8-5.61Z"/>
    <path class="st0" d="M60.42,38.1c1.6,1.71,3.11,3.52,4.51,5.4,1.51,1.79,2.92,3.67,4.21,5.63-1.6-1.71-3.1-3.51-4.51-5.39-1.51-1.8-2.91-3.68-4.21-5.64Z"/>
    <circle class="st0" cx="101.93" cy="90.85" r="5.72"/>
    <path class="st0" d="M110.71,70.71c0,2.36-1.91,4.27-4.27,4.27s-4.27-1.91-4.27-4.27,1.91-4.27,4.27-4.27h0c2.36,0,4.26,1.91,4.27,4.27Z"/>
    <path class="st0" d="M94.08,77.29c0,1.71-1.38,3.09-3.09,3.09s-3.09-1.38-3.09-3.09,1.38-3.09,3.09-3.09h0c1.71,0,3.09,1.38,3.09,3.09Z"/>
    <path class="st0" d="M111.13,109.7c-.75.75-1.97.75-2.72,0s-.75-1.97,0-2.72c.75-.75,1.96-.75,2.71,0,.75.75.75,1.97,0,2.72Z"/>
    <path class="st0" d="M85.09,94.48c0,1.71-1.38,3.09-3.09,3.09s-3.09-1.38-3.09-3.09c0-1.71,1.38-3.09,3.09-3.09h0c1.71,0,3.09,1.38,3.09,3.09Z"/>
    <path class="st0" d="M101.93,90.85c.19-.09,2.1,3.59,4.27,8.21s3.76,8.46,3.57,8.55-2.11-3.59-4.27-8.22-3.72-8.46-3.57-8.54Z"/>
    <path class="st0" d="M101.47,91.42c0,.21-4.14,1-9.32,1.77s-9.37,1.22-9.37,1.01,4.13-1,9.31-1.77,9.35-1.22,9.38-1.01Z"/>
    <path class="st0" d="M101.08,88.68c-.14.15-2.79-2-5.46-5.27s-4.28-6.27-4.11-6.41,2.07,2.69,4.71,5.88,5.01,5.63,4.86,5.8Z"/>
    <path class="st0" d="M106.44,70.71h0v.15l-.1.55c-.14.65-.28,1.32-.43,2-.39,1.7-1,4-1.62,6.61-1.32,5.14-2.42,9.3-2.62,9.26s.55-4.3,1.87-9.45c.66-2.58,1.31-4.89,1.84-6.56.26-.83.49-1.5.68-2,.07-.18.14-.35.23-.52l.09-.13h0s.07,0,.05,0,.01.09.01.09Z"/>
  </g>
  <g id="freepik--character-3--inject-64">
    <path class="st10" d="M307.48,445.18l.6,20.71s-20.84,7.56-21.11,11.39l40.19.28.39-32.29-20.07-.09Z"/>
    <path class="st3" d="M303.2,467.39c0,.19.8.53,1.46,1.36s.85,1.72,1.05,1.71.33-1.12-.52-2.14-1.98-1.12-1.99-.93Z"/>
    <path class="st3" d="M300.77,472.42c.18,0,.46-.94,0-2s-1.42-1.51-1.5-1.35.48.75.87,1.64.44,1.69.63,1.71Z"/>
    <path class="st10" d="M377.83,445.19l4.21,20.69s20.84,7.56,21.1,11.39l-40.18.28-4.89-32.27,19.76-.09Z"/>
    <path class="st3" d="M386.89,467.38c.05.19-.8.53-1.46,1.36s-.85,1.72-1,1.71-.33-1.12.51-2.14,1.95-1.12,1.95-.93Z"/>
    <path class="st3" d="M389.32,472.41c-.18,0-.46-.94,0-2s1.41-1.51,1.49-1.35-.48.75-.87,1.64-.42,1.69-.62,1.71Z"/>
    <polygon class="st4" points="357.5 247.83 387.88 465.8 358.4 465.22 325.29 279.72 332.98 466.09 300.7 464.11 289.36 246.51 357.5 247.83"/>
    <g class="st8">
      <polygon points="290.21 263.63 290.09 260.47 359.56 262.63 360.28 268.68 290.21 263.63"/>
    </g>
    <path class="st3" d="M312.55,465c-.15,0-2.29-43.37-4.79-96.88s-4.4-96.9-4.26-96.9,2.28,43.36,4.78,96.88,4.41,96.9,4.27,96.9Z"/>
    <path class="st3" d="M373.77,463.22s0-.16-.1-.49-.13-.82-.23-1.44c-.19-1.29-.47-3.16-.83-5.56-.72-4.84-1.75-11.82-3-20.43-2.58-17.26-6.24-41.08-10.58-67.34s-8.54-50-11.65-67.17c-1.57-8.56-2.83-15.5-3.71-20.32-.43-2.39-.77-4.24-1-5.53-.11-.62-.19-1.1-.25-1.44s-.07-.5-.07-.5c0,0,.05.17.12.49l.3,1.43c.26,1.28.63,3.13,1.1,5.51.94,4.78,2.27,11.72,3.87,20.29,3.21,17.15,7.46,40.88,11.8,67.16s7.95,50.09,10.43,67.36c1.24,8.64,2.22,15.63,2.86,20.47.32,2.4.57,4.27.74,5.57.07.62.13,1.1.18,1.45s.02.49.02.49Z"/>
    <path class="st4" d="M287.97,192.27s-15.22-3.63-15.72-4.27l12.51-32.23c2.45-6.72,7.82-11.95,14.6-14.23,4.75-1.66,9.76-2.43,14.78-2.28l21.13-1.12c5.81.36,11.49,1.93,16.66,4.61,7.11,3.7,12.66,9.82,15.65,17.25l9.48,23.67-23.9,5-.91,25.43,10.93,48.73-76.27-2.49,3.41-66.77h0l-2.35-1.3Z"/>
    <g class="st8">
      <path class="st6" d="M274.83,183.79c0,.07,3.92,1.36,8.82,2.88s8.87,2.68,8.89,2.61-3.92-1.36-8.81-2.87-8.9-2.69-8.9-2.62Z"/>
    </g>
    <path class="st3" d="M343.89,161.13c.16-.17.29-.36.41-.56.24-.36.61-.88,1.09-1.51.56-.73,1.16-1.43,1.79-2.09.78-.81,1.61-1.58,2.48-2.29,1.59-1.28,3.33-2.37,5.18-3.25.71-.34,1.3-.59,1.71-.75.22-.07.43-.16.63-.28-.23.04-.45.1-.67.18-.42.13-1,.36-1.75.67-2.93,1.3-5.57,3.19-7.76,5.54-.63.7-1.23,1.44-1.77,2.21-.36.5-.7,1.03-1,1.57-.13.17-.25.36-.34.56Z"/>
    <path class="st3" d="M347.01,168.82c-.08,0,.66,7.77,1.64,17.34s1.84,17.32,1.92,17.31-.66-7.77-1.65-17.34-1.84-17.32-1.91-17.31Z"/>
    <path class="st3" d="M295.05,154.43c.15-.51.26-1.04.34-1.57.27-1.26.62-2.51,1.05-3.73.44-1.21.96-2.4,1.56-3.54.46-.88.77-1.41.74-1.43s-.11.11-.27.34-.38.57-.64,1c-.65,1.13-1.2,2.31-1.64,3.54-.45,1.23-.79,2.49-1,3.78-.08.5-.13.9-.15,1.18-.01.14,0,.29.01.43Z"/>
    <path class="st3" d="M293.73,181.58c.06-.25.11-.5.13-.76.07-.5.14-1.21.23-2.1.17-1.77.35-4.22.45-6.93s.09-5.17,0-6.95c0-.89-.05-1.61-.08-2.1,0-.26-.03-.52-.08-.77-.03.26-.03.51,0,.77v2.1c0,1.78,0,4.23-.12,6.94s-.25,5.16-.37,6.93l-.15,2.1c-.03.26-.03.51-.01.77Z"/>
    <path class="st6" d="M325.68,177c5.55.32,11.11.22,16.64-.31v2.16h-16.64v-1.85Z"/>
    <g class="st8">
      <path class="st6" d="M309.13,141.08c-.03.11-.06.22-.07.33,0,.24-.08.56-.14,1-.11.84-.25,2.07-.37,3.64-.25,3.12-.47,7.56-.55,12.81v.2l.18-.09c3.32-1.61,7-3.37,10.91-5.31l18.91-9.46,5.72-2.9,1.55-.8.4-.21.13-.08-.15.06-.41.19-1.57.75-5.75,2.79-18.95,9.39c-3.87,1.94-7.58,3.7-10.89,5.33l.17.11c.06-5.24.24-9.68.45-12.8.09-1.56.22-2.8.3-3.64,0-.41.08-.73.1-1,.02-.1.03-.21.03-.31Z"/>
    </g>
    <g class="st8">
      <path class="st6" d="M348.83,186c.09.01.18.01.27,0l.78-.19,2.84-.72c2.4-.61,5.72-1.46,9.4-2.34s7-1.66,9.42-2.21l2.86-.66.78-.19c.17,0,.27-.07.26-.08h-.27l-.79.14-2.88.57c-2.43.5-5.77,1.24-9.45,2.13s-7,1.76-9.38,2.43l-2.82.8-.76.24c-.15.08-.26.08-.26.08Z"/>
    </g>
    <path class="st3" d="M312.03,137.15c-1.17.62-2.15,1.56-2.81,2.71-1.65,2.71-2.78,5.7-3.34,8.83-.33,1.71-.53,3.43-.61,5.17v2.28c0,.72.05,1.37.11,2s.12,1.14.18,1.62.14.88.2,1.22c.04.34.12.68.25,1,.04-.35.04-.7,0-1.05l-.18-1.23c0-.48-.06-1-.1-1.61s0-1.26,0-2,0-1.45.06-2.24c.1-1.71.32-3.42.64-5.1.55-3.06,1.61-6.01,3.13-8.72.49-.8,1.08-1.54,1.74-2.2.45-.44.76-.65.73-.68Z"/>
    <path class="st3" d="M335.67,137.3c.33.55.69,1.08,1.1,1.58,1,1.42,1.82,2.95,2.45,4.57.91,2.41,1.52,4.91,1.82,7.47.38,2.89.54,6.11.75,9.48s.18,6.59.19,9.52v7.8c0,2.22.06,4,.13,5.26-.02.65.05,1.29.19,1.92.11-.64.15-1.28.12-1.93,0-1.26.08-3.05.14-5.25s.13-4.86.17-7.79.05-6.17-.13-9.57-.39-6.61-.82-9.54c-.33-2.61-1-5.16-2-7.59-.69-1.63-1.61-3.16-2.72-4.54-.39-.53-.86-1-1.39-1.39Z"/>
    <path class="st3" d="M300.71,180.77c.09-.57.13-1.14.11-1.72,0-1.11.05-2.71.07-4.68v-3.24c0-1.16,0-2.41.07-3.69.04-1.32.51-2.6,1.33-3.63.92-1.07,2.25-1.7,3.66-1.73,1.42,0,2.79.53,3.84,1.48.97.91,1.64,2.09,1.93,3.38.32,1.23.46,2.48.65,3.62s.35,2.22.51,3.2c.31,2,.58,3.53.77,4.62.07.57.19,1.13.36,1.68,0-.57-.06-1.14-.15-1.71-.13-1.1-.34-2.69-.6-4.65-.14-1-.28-2-.44-3.2s-.29-2.39-.61-3.69c-.31-1.39-1.03-2.66-2.07-3.64-1.14-1.05-2.64-1.63-4.19-1.64-1.57.04-3.04.74-4.06,1.93-.89,1.12-1.39,2.51-1.43,3.94-.08,1.34,0,2.57,0,3.73v3.24c0,2,.06,3.57.1,4.68,0,.58.06,1.15.15,1.72Z"/>
    <path class="st3" d="M305.73,157c.09,1.9.79,3.72,2,5.19-1.11-.24-2.26-.22-3.36.06.71-1.66,1.01-3.45.89-5.25"/>
    <path class="st3" d="M300.69,168.82c.23-.7.51-1.39.83-2.06.39-.68.9-1.27,1.51-1.76.73-.62,1.62-1.04,2.56-1.22.95-.15,1.92-.06,2.82.28.74.28,1.42.69,2,1.22.51.53.99,1.1,1.43,1.7-.17-.77-.58-1.47-1.17-2-.59-.61-1.3-1.09-2.09-1.4-.98-.4-2.05-.52-3.09-.35-1.04.19-2,.67-2.79,1.37-.64.55-1.16,1.24-1.53,2-.38.68-.54,1.45-.48,2.22Z"/>
    <path class="st1" d="M286.83,227.73c-3.1,0-5.86-2.23-7.32-5-1.33-2.81-2.01-5.89-2-9-.38-8.21.64-16.42,3-24.29l13.57,2.37-3.69,36.55-3.56-.63Z"/>
    <polygon class="st3" points="341.67 232.28 297.48 230.67 286.77 178.89 333.31 181.48 341.67 232.28"/>
    <path class="st10" d="M318.93,180.59l-.67-1.32-3.53-.27s-.89-2.32-5.93-2.55c-4.52-.21-4.7,2.06-4.7,2.06h-2.44v1.11l17.27.97Z"/>
    <path class="st1" d="M294.29,215.6l-3.35-1c-.63-.18-1.3-.22-1.94-.09h0c-.79.16-1.51.54-2.08,1.1-1.15,1.05-2.2,2.2-3.15,3.44-.37.84-.37,1.8,0,2.64.37.51-.82,3.08-.67,3.94.08.73.31,1.44.67,2.08.3.36,0,1.58.75,2.51.43.54.91,1.04,1.42,1.5,0,0,9.2.43,10.1,0,.91-.59,1.73-1.29,2.47-2.08,0,0,.82-1.5-.45-1.64l5.23-2c.64-.22.98-.92.76-1.56,0,0,0,0,0,0-.08-.23-.24-.41-.46-.51,0,0,2.35-.74,2.9-1,1.08-.48,1.49-3-.75-2.68-1.19.17-2.8.51-2.8.51.49-.71.34-1.68-.34-2.22-.73-.51-4,.11-4,.11l-4.31-3.07v.03Z"/>
    <path class="st5" d="M293.12,229.4c.92.03,1.84-.1,2.71-.4.9-.21,1.76-.59,2.51-1.13,0-.07-1.13.47-2.58.87s-2.65.59-2.64.66Z"/>
    <path class="st5" d="M295.12,226.13c1.44-.22,2.87-.54,4.27-.95,1.43-.31,2.83-.72,4.21-1.21-1.44.23-2.87.55-4.27.95-1.43.32-2.83.73-4.21,1.21Z"/>
    <path class="st5" d="M294.03,222.88c1.55-.23,3.09-.54,4.6-.94,1.54-.31,3.05-.71,4.54-1.2-1.55.23-3.09.54-4.6.94-1.53.32-3.05.72-4.54,1.2Z"/>
    <path class="st5" d="M290.63,218.69c.38.17.77.29,1.18.37l1.3.34.77.19c.29.07.58.1.88.08.29-.01.59-.06.87-.14l.77-.17,1.3-.32c.41-.08.81-.19,1.19-.35-.42,0-.83.07-1.23.17l-1.32.25c-.52.13-1.05.23-1.59.29-.54,0-1.07-.09-1.58-.24l-1.31-.28c-.4-.11-.81-.17-1.23-.19Z"/>
    <path class="st5" d="M290.04,220.45s-.15.09-.26.34c-.11.32-.11.68,0,1,.1.34.32.63.61.82.23.15.4.17.41.14s-.55-.36-.76-1c-.1-.43-.1-.87,0-1.3Z"/>
    <path class="st5" d="M290.23,224c-.07,0-.27.33-.24.84s.27.85.33.81,0-.38-.06-.83.04-.82-.03-.82Z"/>
    <path class="st5" d="M290.18,227.87c-.07,0-.21.22-.15.55s.29.5.35.45,0-.25-.08-.51-.05-.47-.12-.49Z"/>
    <path class="st5" d="M289.17,218.48c.3.04.59.04.89,0l.94-.12c.37-.08.75-.1,1.13-.06.36.08.7.23,1,.45.29.2.54.41.78.55.24.19.54.29.85.29,0,0-.32-.13-.74-.45-.52-.51-1.15-.89-1.85-1.11-.21-.02-.43-.02-.64,0-.21,0-.38.06-.56.09l-.94.18c-.29.01-.58.07-.86.18Z"/>
    <path class="st5" d="M283.83,227.9c-.06-.23-.14-.45-.24-.66-.23-.58-.36-1.2-.37-1.83.02-.43.08-.86.2-1.28.11-.46.32-.91.43-1.46.07-.57.04-1.15-.11-1.7-.06-.57.04-1.15.3-1.67.28-.53.61-1.03,1-1.48.36-.46.71-.9,1.06-1.29.58-.73,1.32-1.31,2.17-1.7.57-.25,1.21-.35,1.83-.28.44.06.67.18.68.15s-.05,0-.16-.09c-.16-.07-.33-.13-.5-.16-.65-.12-1.31-.05-1.92.2-.89.38-1.67.97-2.29,1.71-.36.4-.72.84-1.08,1.29-.39.47-.73.99-1,1.54-.29.56-.4,1.19-.32,1.81.13.53.18,1.08.13,1.62-.1.5-.31,1-.41,1.46-.11.43-.17.88-.17,1.33.03.65.19,1.29.47,1.87.07.22.17.43.3.62Z"/>
    <path class="st1" d="M314.83,202.29l36.28,5.76-1.61-18.93,20.18-3.9,2.45,28,.43,6.43c.28,4.35-1.71,8.54-5.27,11.06h0c-3.24,2.3-7.37,2.92-11.14,1.69l-7.79-2.54-38-13.52"/>
    <path class="st1" d="M292.83,198.39c-.12-.54.22-1.07.76-1.2.08-.02.16-.03.24-.02,2,0,7.57,0,9.52.58,2.41.68,11.4,4.54,11.4,4.54l-3.81,14.07-13.8.15s-5-2.32-5.1-3.32c0-.63.05-1.26.13-1.88l-1.52-.82c-2.27-1.44-.82-4.19-.82-4.19-.9-.52-1.5-1.43-1.64-2.46-.08-.95.4-1.85,1.22-2.33,0,0-.63-2.22.53-2.82s3.13.17,3.13.17c-.13-.12-.22-.29-.24-.47Z"/>
    <path class="st5" d="M292.04,198.62c.14.06.28.11.43.14.28.08.68.17,1.19.26,1,.18,2.43.33,4,.5,1.32.12,2.64.32,3.94.6,1,.23,1.55.54,1.57.5s-.13-.1-.38-.24c-.36-.19-.75-.33-1.14-.44-1.31-.34-2.65-.57-4-.69-1.56-.17-3-.29-4-.42s-1.59-.25-1.61-.21Z"/>
    <path class="st5" d="M289.45,201.43c.3.22.64.39,1,.5.81.31,1.65.56,2.51.73,1,.21,1.92.34,2.58.43.36.07.72.1,1.08.08-1.19-.32-2.39-.58-3.6-.77-1-.21-1.88-.45-2.51-.65-.34-.14-.7-.24-1.06-.32Z"/>
    <path class="st5" d="M289.83,206.32c.95.48,1.96.82,3,1,1.01.28,2.05.4,3.1.37,0-.08-1.38-.25-3-.63s-3.1-.81-3.1-.74Z"/>
    <path class="st5" d="M290.69,210.49c.7.41,1.46.7,2.26.84.78.23,1.59.33,2.4.29-.77-.23-1.54-.41-2.33-.56-1.29-.3-2.31-.64-2.33-.57Z"/>
    <path class="st5" d="M297.88,208s.14.12.42.15c.77.06,1.47-.43,1.66-1.18.07-.27,0-.45,0-.45-.16.43-.42.82-.77,1.12-.4.22-.85.35-1.31.36Z"/>
    <path class="st5" d="M298.17,212.36c0,.07.54.1,1-.32s.51-1,.43-1-.21.42-.61.77-.83.47-.82.55Z"/>
    <path class="st5" d="M299.77,203.5c0,.07.35.2.7-.07s.34-.67.27-.66-.17.25-.43.44-.48.22-.54.29Z"/>
    <path class="st5" d="M314.83,202.29l-.11-.06-.33-.15-1.28-.57c-1.11-.48-2.75-1.19-4.81-2-1-.42-2.16-.88-3.41-1.34-.65-.26-1.32-.47-2-.62-.72-.13-1.46-.22-2.19-.27-1.51-.12-3.11-.17-4.78-.19h-1.9c-.24-.02-.48.03-.69.14-.47.23-.71.75-.59,1.25.03.08.09.14.16.18l.16.1.31.14c.21.09.43.17.65.23.06.02.13,0,.15-.07,0,0,0-.01,0-.02.02-.07-.02-.14-.09-.16-.56-.17-1.14-.3-1.72-.39-.6-.11-1.21-.13-1.82-.06-.33.04-.64.17-.89.39-.23.24-.39.54-.44.87-.1.63-.05,1.28.12,1.9l.07-.16c-.3.17-.56.4-.77.68-.53.71-.67,1.63-.39,2.46.29.79.85,1.46,1.58,1.88l-.06-.18c-.37.75-.52,1.58-.43,2.41.11.83.59,1.57,1.3,2h0l1.52.81-.07-.13c0,.37-.07.73-.1,1.09v.54c0,.09,0,.18,0,.27.01.11.05.21.11.3.22.29.48.55.78.75.29.21.57.39.86.57,1.11.66,2.25,1.26,3.43,1.79h.05l10-.15,2.77-.06h.98c-.08,0-.17,0-.25,0h-3.51l-10,.06h0c-1.1-.53-2.25-1.11-3.39-1.8-.29-.18-.57-.36-.84-.56-.27-.19-.52-.42-.72-.69-.03-.05-.06-.12-.07-.18,0-.09,0-.17,0-.26v-.52c0-.36.06-.72.1-1.08,0-.05-.02-.1-.06-.12l-1.52-.82h0c-.64-.38-1.08-1.04-1.18-1.78-.08-.77.06-1.55.41-2.24.03-.06.01-.14-.05-.18-.67-.39-1.19-1.01-1.46-1.74-.25-.75-.11-1.58.36-2.21.18-.24.41-.45.67-.6.06-.03.09-.09.07-.15-.16-.58-.2-1.19-.11-1.78.03-.31.18-.6.41-.81.21-.18.47-.29.74-.32.58-.06,1.17-.04,1.74.07.57.08,1.14.21,1.69.37l.06-.26c-.21-.05-.41-.12-.61-.21l-.29-.13c-.09,0-.18-.14-.22-.13-.02-.19.01-.38.09-.55.09-.17.23-.31.4-.4.18-.08.37-.12.57-.11h1.9c1.67,0,3.26.06,4.76.17.75.06,1.48.13,2.17.25.66.15,1.32.34,1.95.59,1.25.46,2.39.91,3.42,1.31l4.84,2,1.3.52.33.13h.16Z"/>
    <path class="st5" d="M350.93,208c.99.65,1.89,1.43,2.68,2.31.72.94,1.32,1.97,1.78,3.06-.02-.35-.11-.69-.27-1-.63-1.61-1.77-2.97-3.23-3.89-.29-.22-.61-.38-.96-.48Z"/>
    <path class="st1" d="M303.55,95.83c.75-9.54,8.71-16.89,18.28-16.89h.95c10.24.58,15.47,9.59,14.61,19.8l-1.77,41c-.03.69-.44,1.3-1.06,1.59l-23,10.78.71-21.49s-9.84-1.51-10-11.35c-.07-4.79.56-14.58,1.28-23.44Z"/>
    <path class="st5" d="M312.17,130.56c4.57,0,9.04-1.32,12.88-3.8,0,0-3,7.09-12.83,6.22l-.05-2.42Z"/>
    <path class="st3" d="M305.93,103.53c0,.76.6,1.38,1.36,1.41.74.06,1.39-.5,1.45-1.24,0,0,0-.02,0-.03,0-.76-.6-1.38-1.36-1.41-.74-.06-1.39.5-1.45,1.24,0,0,0,.02,0,.03Z"/>
    <path class="st3" d="M305.67,100.64c.18.18,1.24-.61,2.75-.61s2.62.76,2.79.57-.1-.41-.58-.76c-.65-.45-1.43-.69-2.23-.68-.79,0-1.56.24-2.19.71-.47.36-.62.69-.54.77Z"/>
    <path class="st3" d="M320.12,103.89c-.01.76.59,1.39,1.35,1.42.74.06,1.39-.5,1.45-1.24,0,0,0-.02,0-.03,0-.76-.6-1.39-1.36-1.42-.74-.06-1.38.5-1.44,1.23,0,.01,0,.02,0,.04Z"/>
    <path class="st3" d="M320.53,100.89c.18.18,1.24-.61,2.75-.6s2.62.75,2.79.56-.1-.41-.59-.76c-.65-.46-1.43-.69-2.23-.68-.78,0-1.55.25-2.18.71-.47.36-.62.69-.54.77Z"/>
    <path class="st3" d="M315.07,112.11c-.8-.24-1.63-.39-2.46-.44-.38,0-.75-.11-.81-.37-.03-.4.05-.8.25-1.15l1.14-2.94c1.57-4.19,2.71-7.63,2.54-7.69s-1.58,3.28-3.16,7.47c-.38,1-.74,2-1.08,3-.25.46-.32,1-.2,1.51.11.28.35.49.64.56.21.06.43.09.65.09.83.09,1.67.08,2.49-.04Z"/>
    <path class="st3" d="M319.52,113.15c-.25,0-.25,1.63-1.65,2.79s-3.15,1-3.16,1.22.39.32,1.13.34c.96.01,1.9-.32,2.64-.93.71-.59,1.17-1.42,1.27-2.34.08-.69-.12-1.09-.23-1.08Z"/>
    <path class="st3" d="M320.13,95c.15.41,1.66.21,3.43.42s3.21.69,3.45.32c.1-.17-.15-.56-.73-1-.77-.49-1.64-.79-2.55-.88-.91-.11-1.83,0-2.69.32-.65.27-.98.59-.91.82Z"/>
    <path class="st3" d="M306.22,96.26c.27.35,1.31,0,2.56,0s2.31.22,2.56-.13c.1-.18-.07-.52-.53-.85-.62-.39-1.35-.59-2.08-.56-.72.02-1.42.27-2,.7-.48.32-.63.68-.51.84Z"/>
    <path class="st1" d="M335.83,106c.17-.07,6.76-2,6.56,4.71s-6.91,5.14-6.92,4.94.36-9.65.36-9.65Z"/>
    <path class="st5" d="M337.04,113.2s.11.08.31.18c.28.12.59.12.87,0,.9-.53,1.44-1.51,1.42-2.56.04-.57-.05-1.15-.27-1.68-.12-.43-.44-.78-.86-.93-.28-.08-.57.05-.7.3-.1.19-.06.32-.09.33s-.14-.11-.08-.39c.04-.17.14-.31.28-.41.19-.14.42-.19.65-.16.56.13,1,.54,1.19,1.08.27.59.39,1.24.35,1.89.04,1.23-.67,2.36-1.79,2.85-.37.1-.76.02-1.07-.21-.2-.13-.23-.28-.21-.29Z"/>
    <path class="st3" d="M331.46,86l-28.05.62c.96-1.91,2.37-3.55,4.12-4.77,3.65-2.82,8.09-4.41,12.7-4.57,4.57-.08,13.88,5.49,17.2,8.65,2.65,2.52,2.63,4.7,2.63,4.7.42,3.64-1.61,7.77-2.42,11.34-.42,1.84-1.22,7.41-1.22,7.41h0c-1.55,0-2.12-1.23-1.89-2.76l.29-6c-3.19-2.51-4.32-6.82-2.77-10.57.4-.5,1.26-2.99-.59-4.05Z"/>
    <path class="st5" d="M325.57,107.31c.1.03.19-.03.22-.13s-.03-.19-.13-.22c-.1-.03-.19.03-.22.13,0,0,0,0,0,.01-.02.09.04.19.13.21Z"/>
    <path class="st5" d="M322.68,106.66c.1,0,.19-.07.2-.17.03-.1-.02-.21-.12-.24-.1,0-.19.07-.2.17-.03.1.02.21.12.24Z"/>
    <path class="st5" d="M320.73,106.61c.09,0,.18-.1.2-.25s0-.28-.13-.29-.18.1-.2.25.04.28.13.29Z"/>
    <path class="st5" d="M324.15,109.12c.09,0,.17-.05.17-.1s-.08-.11-.17-.11-.17,0-.17.11.08.1.17.1Z"/>
    <path class="st5" d="M321.5,108.51c.1,0,.17-.07.18-.17.02-.09-.04-.18-.14-.2,0,0,0,0-.01,0-.1,0-.17.07-.18.17-.02.09.04.18.14.2,0,0,0,0,.01,0Z"/>
    <path class="st5" d="M307.71,106.9c.1.01.19-.06.2-.16,0,0,0,0,0,0,.03-.09-.03-.18-.12-.21,0,0,0,0,0,0-.1-.01-.18.05-.2.15-.03.09.03.19.12.22Z"/>
    <path class="st5" d="M305.75,106.72c.09,0,.17-.08.18-.19s-.05-.22-.14-.23-.18.08-.19.2c-.02.1.05.2.15.22Z"/>
    <path class="st5" d="M309.45,106.94c.08.02.16-.02.19-.1,0,0,0,0,0-.01.01-.09-.05-.16-.13-.18-.09-.02-.17.03-.19.12-.01.08.05.16.13.17,0,0,0,0,0,0Z"/>
    <path class="st5" d="M308,108.91c.09.05.21.02.26-.07.05-.09.02-.21-.07-.26-.09-.05-.21-.02-.26.07,0,0,0,.01,0,.02-.05.08-.02.19.06.23,0,0,.01,0,.02,0Z"/>
    <path class="st5" d="M306.32,108.58c.08-.02.13-.1.12-.18-.03-.08-.12-.12-.2-.09-.08.01-.14.09-.12.17,0,0,0,0,0,0,.03.08.12.12.2.09Z"/>
    <path class="st3" d="M337.61,86.35c1.14-4.43-1.53-8.95-5.97-10.09-.76-.19-1.53-.28-2.31-.26-1.3.2-2.61.29-3.92.28-2.42-.26-4.29-2.21-6.54-3.15-3.65-1.43-7.81-.19-10.09,3-.85,1.28-1.41,2.85-2.72,3.65-1.13.7-2.55.64-3.82,1-2.63.91-4.33,3.45-4.19,6.22.22,2.73,1.94,5.11,4.47,6.18,2.53,1,5.38.8,7.75-.55,2.12-1.18,4-3.18,6.44-3.11s4.69,2.48,7.12,1.98c1.26-.4,2.38-1.15,3.23-2.16.85-1.02,2.03-1.7,3.34-1.93,1.32-.07,2,1.73,1.53,3l5.65-4"/>
    <path class="st10" d="M303.96,83.1v.1l.17.27c.22.34.49.64.8.91.49.44,1.05.78,1.67,1,.82.28,1.7.33,2.54.15,1.03-.22,1.97-.75,2.69-1.53.72-.96,1.39-1.96,2-3,.71-1.08,1.93-1.7,3.22-1.64.67.02,1.32.19,1.91.51.6.34,1.08.84,1.4,1.45.34.61.58,1.29,1,1.89.39.63,1.06,1.04,1.8,1.09.69,0,1.37-.19,1.95-.56.55-.34,1.05-.76,1.49-1.23.72-.92,1.68-1.61,2.78-2,.99-.19,2.02.05,2.82.66.67.49,1.21,1.15,1.55,1.91.26.58.46,1.19.58,1.81.1.51.15.91.18,1.19,0,.14.03.28.06.41v-.42c-.03-.4-.07-.8-.14-1.2-.1-.64-.29-1.26-.55-1.85-.34-.79-.88-1.48-1.57-2-.85-.66-1.94-.92-3-.72-1.14.38-2.14,1.07-2.9,2-.43.46-.92.86-1.45,1.19-.54.35-1.17.53-1.81.52-.66-.06-1.25-.43-1.59-1-.38-.56-.62-1.23-1-1.87-.34-.65-.87-1.19-1.51-1.55-.61-.34-1.3-.52-2-.55-.69-.02-1.38.14-2,.45-.58.32-1.07.77-1.44,1.31-.58,1.01-1.22,2-1.9,2.95-.68.75-1.57,1.27-2.56,1.49-.81.19-1.67.15-2.46-.11-.6-.19-1.15-.5-1.64-.9-.41-.33-.77-.71-1.09-1.13Z"/>
    <path class="st10" d="M298.88,83.2c-.08.17-.12.35-.12.54-.04.5.01,1.01.14,1.5.2.74.56,1.42,1.05,2,.61.7,1.37,1.25,2.22,1.61,1.55.63,3.24.83,4.89.56.5-.07.99-.17,1.47-.3.18-.03.36-.09.52-.17,0,0-.76.14-2,.28-1.61.2-3.25,0-4.76-.61-.81-.35-1.54-.87-2.14-1.53-.47-.55-.83-1.18-1.05-1.87-.19-.65-.26-1.33-.22-2.01Z"/>
    <path class="st0" d="M346.73,191.54c-.1,1.07-.51,2.08-1.18,2.92-.68.88-1.7,1.42-2.8,1.49-1.51.08-2.94-.64-3.78-1.9-1.26-2.56-1.46-5.52-.54-8.22.67-1.61,2.15-3.11,3.89-3.15,2.01-.01,3.76,1.36,4.21,3.32"/>
    <path class="st3" d="M346.53,186c-.07-.39-.22-.77-.42-1.12-.23-.42-.52-.8-.86-1.13-.46-.44-1.01-.76-1.62-.95-.35-.11-.72-.17-1.09-.17-.4-.02-.81.03-1.19.15-.84.3-1.57.83-2.12,1.53-.62.75-1.05,1.65-1.25,2.6-.22,1.01-.3,2.05-.23,3.08,0,1.59.47,3.15,1.33,4.49.44.58,1.04,1.03,1.72,1.3.63.25,1.32.37,2,.33h0c.49,0,.97-.12,1.4-.35.38-.19.74-.44,1.05-.73.49-.49.88-1.07,1.15-1.71.18-.4.3-.83.36-1.27,0-.11,0-.23,0-.34v-.12c-.1.57-.27,1.14-.5,1.67-.28.61-.67,1.16-1.16,1.63-.3.27-.64.51-1,.69-.4.21-.85.31-1.3.31h0c-1.34.07-2.63-.52-3.46-1.57-.81-1.3-1.25-2.8-1.26-4.34-.23-1.95.26-3.91,1.4-5.51.51-.67,1.21-1.18,2-1.47.36-.13.74-.18,1.12-.16.34,0,.67.06,1,.15.58.17,1.12.46,1.57.87.34.32.63.68.87,1.07.18.35.35.7.49,1.07Z"/>
    <path class="st0" d="M347.95,191.65c-.11,1.06-.52,2.07-1.18,2.91-.68.88-1.7,1.43-2.81,1.49-1.51.08-2.94-.65-3.78-1.9-1.26-2.56-1.45-5.52-.53-8.22.66-1.61,2.15-3.11,3.89-3.15,1.99-.02,3.73,1.34,4.21,3.27"/>
    <path class="st3" d="M347.75,186.05c-.08-.39-.22-.77-.42-1.12-.23-.41-.52-.79-.86-1.12-.46-.44-1.01-.77-1.62-.95-.35-.11-.72-.17-1.09-.18-.4-.02-.81.03-1.19.16-.84.29-1.58.82-2.12,1.52-.62.75-1.05,1.64-1.25,2.6-.22,1.01-.3,2.05-.23,3.08.01,1.59.47,3.15,1.32,4.49.45.58,1.04,1.03,1.73,1.3.62.25,1.28.36,1.95.33h0c.49,0,.97-.12,1.4-.35.38-.19.74-.44,1.05-.73.49-.49.88-1.07,1.15-1.71.17-.4.3-.83.36-1.26,0-.12,0-.23,0-.35v-.11c-.1.58-.27,1.14-.51,1.67-.28.61-.67,1.16-1.15,1.63-.3.27-.64.5-1,.68-.4.2-.85.31-1.3.31h0c-1.34.06-2.62-.52-3.45-1.57-.81-1.3-1.25-2.8-1.26-4.34-.24-1.95.26-3.91,1.4-5.51.52-.67,1.21-1.18,2-1.47.36-.12.74-.18,1.12-.16.34,0,.67.06,1,.15.59.16,1.13.46,1.57.88.34.31.63.66.87,1.06.2.34.38.7.53,1.07Z"/>
    <path class="st0" d="M345.74,185.47c1.19-.15,2.33.51,2.8,1.61.43,1.09.43,2.3,0,3.39-.18.57-.47,1.09-.87,1.53-.4.45-.95.72-1.55.75-.88-.05-1.68-.52-2.15-1.27-.82-1.16-1.09-2.62-.73-4,.24-.91.9-1.83,1.83-1.85"/>
    <path class="st3" d="M345.06,185.65h-.2c-.2.02-.4.09-.57.19-.62.42-1.05,1.06-1.19,1.79-.25,1.07-.13,2.19.33,3.18.26.6.65,1.12,1.16,1.53.55.48,1.29.66,2,.48.68-.21,1.26-.68,1.6-1.31.32-.56.54-1.16.67-1.79.27-1.07.08-2.21-.52-3.14-.43-.61-1.08-1.03-1.81-1.16-.2-.03-.4-.03-.6,0l-.2.06c.26-.01.52,0,.78.05.69.16,1.29.57,1.67,1.16.55.9.71,1.98.43,3-.12.6-.34,1.18-.65,1.71-.31.56-.83.98-1.44,1.18-.63.15-1.29,0-1.78-.43-.47-.38-.85-.87-1.1-1.42-.44-.94-.56-1.99-.36-3,.12-.7.5-1.32,1.06-1.74.22-.16.46-.27.72-.34Z"/>
    <path class="st3" d="M343.12,194s.1-.17.28-.38c.23-.27.54-.47.88-.57.36-.09.73-.15,1.1-.17.29,0,.47,0,.47-.08s-.18-.08-.47-.11c-.4-.04-.8,0-1.18.11-.41.11-.76.36-1,.71-.12.3-.11.49-.08.49Z"/>
    <path class="st3" d="M342.71,184.76s.08.19.32.38c.32.24.7.41,1.1.48.4.07.8.05,1.19-.07.3-.09.45-.21.44-.24-.52.06-1.06.06-1.58,0-.51-.12-1-.31-1.47-.55Z"/>
    <path class="st3" d="M363.18,262.82c0,.15-17.14-.29-38.28-1s-38.26-1.35-38.26-1.49,17.14.29,38.28,1,38.26,1.35,38.26,1.49Z"/>
  </g>
  <g id="freepik--character-2--inject-64">
    <path class="st3" d="M167.22,436.23l-9,30.67,38.09,11.37c.9-3.71-11-12.8-11-12.8l8.72-19.94-26.81-9.3Z"/>
    <path class="st3" d="M181.67,464.52c-1.1.72-1.28,1.81-1.1,1.87s.62-.71,1.48-1.31,1.78-.68,1.78-.87c.08-.21-1.06-.41-2.16.31Z"/>
    <path class="st3" d="M185.83,468.23c.63-.73,1.33-1.15,1.3-1.3s-1.01-.04-1.8.85-.8,1.89-.62,1.89c.19.04.49-.71,1.12-1.44Z"/>
    <path class="st10" d="M156.06,445.49l.11,32,39.76.06c-.23-3.79-20.78-11.45-20.78-11.45l.77-20.48-19.86-.13Z"/>
    <path class="st3" d="M177.98,468.53c-.84,1.01-.73,2.1-.53,2.11s.39-.86,1.05-1.68,1.46-1.14,1.46-1.33c-.01-.19-1.14-.11-1.98.9Z"/>
    <path class="st3" d="M182.99,470.91c.39-.88.95-1.45.87-1.61s-.99.25-1.49,1.32-.23,2-.05,2c.19-.02.28-.83.67-1.71Z"/>
    <path class="st2" d="M206.89,218.41l5.79,8.58,3.15,2.29c3.25,2.36,7.22,3.51,11.23,3.24h0l4.69-11.15-7.18-14s-4.1-36.38-5.6-43.27c-1.9-8.77-9.14-13.62-9.14-13.62l-2.94,67.93Z"/>
    <path class="st4" d="M157.21,193.91l2.55,22.93-16.43,45.92,76,1.45-8.86-44.21,3.47-23.16,13.95-5.74s-6.29-28.66-10.6-34.27c-4.31-5.61-9.06-7.19-9.06-7.19h0l-10.67-5.58-1.62-1.23-20.8-1.33.33-.32-.79.29h0l-10.38,3.81-8.87,3.62v.1l-5.38,2.47c-7.4,3.36-19.85,37.73-19.85,37.73l5.9,1,21.11,3.71Z"/>
    <g class="st8">
      <path d="M211.36,224.38l-54.24,2.71c-.37-.02-.74.08-1.05.28-.42.46-.4,1.17.05,1.61.46.4,1.03.67,1.63.76,3.94.96,8.02,1.23,12.05.79,1.73-.19,3.55-.5,5.17.15,1.13.6,2.2,1.31,3.2,2.11,2.56,1.65,5.83,1.77,8.83,1.65,8.58-.36,17-2.43,24.77-6.08l-.41-3.98Z"/>
    </g>
    <path class="st3" d="M214.78,189.6c-1.19,8.82-2.28,15.93-2.42,15.93s.72-7.18,1.91-16,2.27-15.93,2.42-15.93c.14.02-.72,7.18-1.91,16Z"/>
    <path class="st3" d="M188.82,166.67c.43-.54,1.05-1.31,1.83-2.25l2.77-3.3c1.05-1.23,2.23-2.56,3.33-4.05,1.06-1.38,1.91-2.9,2.53-4.52.47-1.33.68-2.73.63-4.14-.08-1.3-.42-2.57-1-3.74.26.26.46.56.61.89.45.88.72,1.84.79,2.82.12,1.47-.07,2.94-.54,4.33-.61,1.68-1.47,3.26-2.56,4.67-1.12,1.51-2.32,2.84-3.38,4.06l-2.86,3.22c-.86.91-1.52,1.64-2,2.14-.22.28-.48.53-.77.74.18-.31.38-.6.62-.87Z"/>
    <path class="st3" d="M171.42,147.47c1.57,3.26,3.7,6.23,6.29,8.76l7.49,7.94,2.24,2.44c.29.29.54.61.76.95-.33-.24-.64-.51-.91-.81l-2.35-2.33c-1.97-1.98-4.68-4.73-7.61-7.83-2.64-2.58-4.76-5.63-6.25-9-.41-1.03-.73-2.11-.93-3.2-.09-.4-.13-.8-.12-1.21.37,1.46.84,2.89,1.39,4.29Z"/>
    <path class="st2" d="M136.11,190.21c-2.26,8.91-4.04,16.56-4.09,20.39-.14,9.68,4.09,16.31,9.62,17.53,4.39.97,44-1.2,44-1.2l1.85-14.76-32.07-4.72,2.41-13.45-21.72-3.79Z"/>
    <path class="st3" d="M154.39,150.06c.49.04.97.12,1.44.24,1.78.48,3.39,1.42,4.69,2.72,1.89,1.93,3.13,4.39,3.56,7.05.28,1.55.37,3.14.26,4.71-.13,1.69-.39,3.36-.79,5-1.46,6.72-2.94,12.75-3.94,17.13-.5,2.13-.91,3.97-1.2,5.19s-.46,1.9-.46,1.9c-.03-.17-.03-.34,0-.51.04-.33.12-.81.23-1.43.17-1.23.53-3.03,1-5.23.98-4.46,2.32-10.49,3.79-17.16.39-1.61.66-3.25.79-4.9.11-1.53.04-3.07-.22-4.59-.4-2.58-1.57-4.98-3.35-6.88-1.21-1.28-2.71-2.24-4.38-2.8-1.19-.37-1.89-.39-1.89-.45.16-.01.31,0,.47,0Z"/>
    <path class="st3" d="M181.44,263.11c21.09.35,38.09.74,38.09.89s-17.07-.03-38.1-.37-38.08-.74-38.08-.89c0-.14,17,.02,38.09.37Z"/>
    <path class="st4" d="M180.6,251.05l-6,31.95,18.36,76.26-29,86,28.32,18.06,35.92-87c3.95-9.57,5.03-20.09,3.1-30.26l-16.93-89.39-33.77-5.62Z"/>
    <path class="st4" d="M180.61,251.05c-25.96-4.31-32.83,9.76-32.83,9.76,0,0-1.85,18.49,0,22.19,1.96,3.52,4.12,6.93,6.47,10.21v83.24c0,5.09-1.16,89.52-1.16,89.52l32.22-.5,2.24-83.35,12.95-102.79s6.07-23.97-19.89-28.28Z"/>
    <path class="st3" d="M185.23,464.95v-1.51c.03-1.36.08-3.32.14-5.84.14-5.08.33-12.39.6-21.45.27-9.06.59-19.81.95-31.81.2-5.98.39-12.27.71-18.78.32-6.51.69-13.26,1.51-20.13.4-3.44.87-6.84,1.46-10.15s1.16-6.58,1.72-9.79c1.08-6.43,1.97-12.65,2.74-18.59,1.53-11.87,2.67-22.59,3.69-31.6,1.02-9.01,1.95-16.3,2.68-21.3.35-2.51.66-4.45.87-5.76.11-.65.15-1.16.25-1.5s.1-.51.1-.51c0,0,.04.16,0,.52s-.11.86-.19,1.5c-.18,1.34-.44,3.29-.78,5.78-.66,5.02-1.53,12.31-2.52,21.31-.99,9-2.07,19.74-3.58,31.62-.76,5.95-1.63,12.18-2.7,18.61-.56,3.21-1.15,6.48-1.71,9.8s-1.07,6.69-1.47,10.12c-.81,6.85-1.2,13.6-1.51,20.1-.31,6.5-.52,12.77-.74,18.77-.4,11.97-.73,22.78-1.06,31.81s-.59,16.35-.77,21.44c-.1,2.51-.18,4.47-.24,5.83-.07.65-.07,1.15-.07,1.52,0,.17,0,.34,0,.51,0,0-.08-.16-.08-.52Z"/>
    <path class="st3" d="M180,370.07c2.79-52.69,5.16-95.39,5.31-95.38s-2,42.74-4.79,95.41-5.18,95.37-5.32,95.37,2.01-42.71,4.8-95.4Z"/>
    <path class="st3" d="M167.22,270.39c5.48,3.61,12.66,3.25,17.76-.88,1-.86,1.95-1.79,2.83-2.77-.14.33-.34.64-.57.91-.58.79-1.25,1.5-2,2.14-5.14,4.44-12.64,4.81-18.2.9-.81-.56-1.56-1.2-2.23-1.92-.27-.25-.49-.54-.66-.86.96.9,1.99,1.73,3.07,2.48Z"/>
    <path class="st3" d="M185.63,457.87l.58-1.42c.53-1.26,1.27-3.09,2.27-5.44l8.44-20c3.55-8.44,7.77-18.48,12.48-29.65s9.91-23.44,15-36.44c.31-.81.61-1.63.92-2.44.25-.81.42-1.64.51-2.48.2-1.66.27-3.34.21-5.01-.13-3.41-.51-6.74-.93-10-.91-6.52-2.08-12.77-3.29-18.7-2.43-11.86-5.01-22.44-7.24-31.34s-4.15-16.06-5.47-21c-.67-2.46-1.18-4.37-1.54-5.7-.17-.63-.27-1.15-.39-1.48s-.12-.51-.12-.51c0,0,.07.15.17.5s.25.83.44,1.46l1.63,5.67c1.39,4.95,3.38,12.07,5.64,20.95s4.89,19.47,7.35,31.34c1.22,5.93,2.41,12.18,3.33,18.72.42,3.24.81,6.58.94,10,.08,1.72.03,3.45-.16,5.17-.1.88-.28,1.75-.54,2.6-.31.81-.62,1.63-.92,2.45-5.1,13.02-10.27,25.3-15,36.44s-8.99,21.21-12.58,29.61c-3.59,8.4-6.59,15.2-8.59,19.92l-2.36,5.41-.63,1.4-.23.47s.05-.17.08-.5Z"/>
    <path class="st3" d="M194.07,357.67c.68-.94,1.61-2.24,2.68-3.65,1.2-1.77,2.54-3.44,4-5-1.07,1.86-2.28,3.63-3.64,5.29-2.12,2.82-3.98,5.07-4.12,4.89.32-.54.68-1.05,1.08-1.53Z"/>
    <g class="st8">
      <polygon points="191.46 352.88 192.99 359.2 197.2 352.2 201.86 272.34 191.46 352.88"/>
    </g>
    <g class="st8">
      <polygon points="147.6 262.83 147.25 267.45 216.41 267.45 215.77 264.1 147.6 262.83"/>
    </g>
    <polygon class="st3" points="226.5 207.93 180.05 230.57 219.12 224.6 265.46 207.44 226.5 207.93"/>
    <path class="st1" d="M241.93,226.15c.14-1.82.48-3.61,1-5.36.54-1.75,1.64-3.29,3.12-4.37.73-.49,1.82-.77,2.41-.13.31.39.41.91.27,1.39-.15.47-.37.91-.64,1.32-1.26,2.16-2.09,4.53-2.46,7"/>
    <path class="st1" d="M219.07,224.6h0c.63,4.27,4.08,7.57,8.37,8l3.07.31,8.48-1.91s2.19,1.07,3.85.15c.88-.45,1.46-1.32,1.52-2.31,0,0,2.16.66,2.91-1,.4-1.13.28-2.37-.34-3.4,0,0-5.68-8.6-7.09-10.3-1.13-1.38-4.26-1.17-3.26,1.68.39,1.15,4.47,8.62,4.47,8.62,0,0-6.55-9.29-8.05-9.29s-2.42.74-2,1.74c.21.51,1.35,2.38,2.35,4.08-.36-.46-.94-.7-1.52-.6-.76.21-1.45.61-2,1.16h-2.27s-8.49,3.07-8.49,3.07Z"/>
    <path class="st5" d="M233.51,221.17l.59.81c.49.71,1.16,1.65,1.89,2.71s1.39,2.03,1.85,2.74c.27.37.51.77.7,1.18-.32-.33-.6-.69-.85-1.07-.51-.7-1.18-1.64-1.92-2.7-.94-1.26-1.78-2.6-2.49-4,.02,0,.08.09.23.33Z"/>
    <path class="st5" d="M232.87,228.99c-.54-.81-1.28-1.93-2.06-3.2-.39-.63-.76-1.23-1.07-1.81-.29-.53-.34-1.16-.15-1.74.12-.37.31-.71.58-1,.18-.21.33-.28.33-.28-.33.4-.58.86-.73,1.35-.15.53-.08,1.1.19,1.58.31.55.68,1.15,1.07,1.78.79,1.24,1.5,2.4,2,3.24.3.43.55.9.75,1.38-.33-.41-.63-.85-.91-1.3Z"/>
    <path class="st5" d="M228.7,229.9c-.18-.37-.41-.85-.65-1.37-.28-.56-.5-1.15-.66-1.75-.18-.64-.06-1.33.33-1.87.2-.21.44-.37.71-.48.23-.1.47-.15.72-.16.21.02.41.09.59.19.13.07.26.15.38.23.2.13.29.21.29.23,0,.02-.13-.03-.34-.14-.28-.16-.6-.27-.92-.32-.22.02-.43.08-.63.18-.23.09-.44.24-.6.43-.33.48-.43,1.09-.27,1.65.16.59.37,1.16.62,1.72l.61,1.38c.21.42.36.86.45,1.32-.04,0-.24-.48-.63-1.24Z"/>
    <path class="st5" d="M226.64,223.89c-1.76,1.43-2.3,3.88-1.32,5.92.35.76.7,1.17.69,1.18s-.12-.07-.28-.25c-.23-.26-.43-.54-.58-.85-1.13-2.1-.55-4.72,1.37-6.14.27-.21.57-.38.88-.52.23-.11.36-.11.36-.11.07.04-.48.23-1.12.77Z"/>
    <path class="st5" d="M246.75,224.24c-1.5-1.9-2.86-3.9-4.06-6,1.5,1.9,2.85,3.91,4.06,6Z"/>
    <path class="st1" d="M185.63,226.15l4-.35,28.89-14.1-6.62-5.59c-.71-.6-1.62-.9-2.54-.85l-9.26.53c-.85.06-1.65.41-2.27,1l-5.11,4.79-5.29,1.2-1.8,13.37Z"/>
    <path class="st5" d="M203.87,210.15c.29-.08.74-.18,1.29-.27.66-.11,1.33-.16,2-.15.82.02,1.62.2,2.37.53.71.35,1.39.79,2,1.3.54.45,1.1.87,1.54,1.2.88.68,1.49,1,1.49,1-.16-.03-.31-.08-.45-.16-.4-.2-.78-.42-1.15-.67-.46-.31-.99-.72-1.57-1.16-.62-.49-1.29-.91-2-1.25-1.33-.53-2.78-.68-4.19-.43-1.1.14-1.79.22-1.79.22.14-.08.3-.13.46-.16Z"/>
    <path class="st5" d="M202.49,215.09c.84-.14,1.7-.04,2.49.27.79.3,1.53.71,2.2,1.21.29.18.56.4.79.66-.32-.13-.62-.3-.9-.5-.69-.45-1.42-.82-2.18-1.12-.76-.29-1.57-.41-2.38-.33-.62.06-1,.18-1,.18.29-.2.63-.33.98-.37Z"/>
    <path class="st5" d="M193.16,211.54c-.55.83-1.14,1.63-1.77,2.4-.98,1.31-1.73,2.38-1.79,2.38.91-1.78,2.11-3.4,3.56-4.78Z"/>
    <path class="st4" d="M207.72,205.58l-13.77-12.34c-.4-.36-1-.38-1.43-.05h0c-.05.04-.1.08-.14.13-.42.45-.39,1.16.06,1.58l11.74,10.93"/>
    <g class="st8">
      <path d="M207.72,205.58l-13.77-12.34c-.4-.36-1-.38-1.43-.05h0c-.05.04-.1.08-.14.13-.42.45-.39,1.16.06,1.58l11.74,10.93"/>
    </g>
    <path class="st3" d="M183.45,99.26c-1.96,1.96-4.23,3.59-6.71,4.82-.73.36-1.55.53-2.36.48-.83-.06-1.55-.61-1.83-1.39-.08-.88.09-1.78.51-2.56.65-1.94.28-4.09.49-6.09.48-4.47,3.85-8.34,8-10.09,4.24-1.62,8.91-1.72,13.22-.3,3.25.87,6.2,2.63,8.52,5.07,2.98,3.4,4.13,8.04,3.09,12.44"/>
    <path class="st1" d="M206.33,124.68c-1.65,10.56-9.74,11.95-9.74,11.92s0,1.54,0,5.38h0c.2,2.17.17,4.36-.08,6.52-.03.34-.07.67-.14,1h0c-.52,2.91-8.76,12.5-8.76,12.5l-12.9-15.31h0l-2.21-47.53c-.04-1.92,1.4-3.56,3.31-3.77l19.7-5c6.31-.68,10.53,7.08,10.94,13.42.46,7.04.74,15.65-.12,20.87Z"/>
    <path class="st3" d="M203.33,111.44c-.06-.72-.68-1.25-1.4-1.19-.74.03-1.32.63-1.31,1.37,0,0,0,0,0,0,.05.72.68,1.27,1.4,1.21.73-.03,1.31-.64,1.31-1.37,0,0,0-.02,0-.03Z"/>
    <path class="st3" d="M204.07,107.55c-.61-.44-1.35-.68-2.11-.68-.77,0-1.51.23-2.14.67-.47.34-.72.56-.56.74s1.22-.55,2.68-.56,2.49.75,2.65.57c.09-.08-.07-.4-.52-.74Z"/>
    <path class="st3" d="M189,111.42c-.06-.71-.69-1.24-1.4-1.17-.73.03-1.31.64-1.3,1.37,0,0,0,.02,0,.03.06.72.68,1.25,1.4,1.19.73-.03,1.31-.64,1.3-1.37,0-.02,0-.03,0-.05Z"/>
    <path class="st3" d="M189.75,107.85c-.61-.44-1.35-.68-2.11-.67-.77,0-1.52.23-2.15.66-.47.34-.72.56-.56.74s1.24-.56,2.69-.56,2.48.75,2.65.58c.08-.08-.07-.4-.52-.75Z"/>
    <path class="st3" d="M197.98,119.38c.21,0,.43-.03.63-.09.28-.07.5-.27.61-.54.11-.49.04-1.01-.19-1.46l-1.06-2.85c-1.54-4.03-2.92-7.25-3.08-7.19s.95,3.41,2.49,7.41c.38.99.75,1.93,1.1,2.83.19.33.28.72.25,1.1-.06.25-.41.37-.78.37-.8.05-1.6.19-2.37.43.8.1,1.6.1,2.4-.01Z"/>
    <path class="st5" d="M196.61,139.18c-10.56,1.01-14.13-6.29-14.13-6.29,4.28,2.54,9.18,3.83,14.15,3.74l-.02,2.55Z"/>
    <path class="st5" d="M195.04,122.92c.11.16.11.38,0,.54-.11.17-.25.32-.42.44-.54.49-1.17.87-1.86,1.11-.67.25-1.43.06-1.91-.48-.33-.54-.29-1.23.11-1.73.41-.51,1.01-.84,1.66-.9.9-.1,1.79.28,2.35,1"/>
    <path class="st3" d="M191.07,121.45c.11.88.55,1.69,1.24,2.26.72.58,1.62.89,2.55.88.71-.02,1.15-.11,1.09-.33s-1.71-.04-3.06-1.16-1.36-2.69-1.59-2.69c-.11-.01-.29.38-.23,1.04Z"/>
    <path class="st3" d="M189.99,105.25c-1.67-.58-3.51-.37-5,.57-.56.39-.8.76-.7.93.23.35,1.61-.12,3.32-.33s3.17-.02,3.31-.42c.06-.15-.26-.46-.93-.75Z"/>
    <path class="st3" d="M203.62,103.26c-.58-.42-1.28-.65-2-.66-.71-.03-1.41.17-2,.55-.45.31-.61.65-.5.81.23.35,1.25.12,2.46.12s2.21.33,2.47,0c.11-.17-.03-.51-.43-.82Z"/>
    <path class="st3" d="M163.44,123.68c1.37-9.39,4.48-17.84,5.86-27.23.29-1.93.74-4.1,2-5.38s3.18-1.69,5-2c7.84-1.31,15.8-1.67,23.72-1.1.62,1.78-.69,3.74-2.38,4.6s-3.6.93-5.51,1.22-3.75.84-4.91,2.49-1,3.94-2,5.65c-1.81,2.93-6.46,3-8.25,6-1.35,2.24-.48,5.1-.65,7.7-.24,2.96-2.73-2.39-5.24-.82s-4.95,10.01-7.69,8.88"/>
    <path class="st4" d="M206.63,105.18c.57-3.67.34-7.42-.66-11-2.56-7.17-6.39-10.06-11.89-12.07s-9.29.19-15,1.47c-2.49.48-4.89,1.34-7.11,2.55-2.24,1.22-4.02,3.13-5.1,5.44-.89,2.07-.99,4.39-1.7,6.53-.64,1.95-1.77,3.72-2.57,5.62-1.63,4.09-1.91,8.59-.79,12.85,1.06,4.24-5.12,5.35-1.12,12.89.39.7,3.12,5.35,3.86,5.7s5.8,5.34,9.67.93l-.67-14.41c-1.56-6.55-2.62-8.96-1.91-15.65s2.17-13.11,7.71-16.92c5.13-3.53,11.76-3.27,17.39-.59,5.63,2.68,9.35,10.49,9.88,16.68"/>
    <path class="st3" d="M202.74,91.01c-1.62-1.75-3.55-3.18-5.7-4.21-3.18-1.55-6.75-2.1-10.25-1.59-4.28.63-8.2,2.75-11.06,6-2.72,3.37-4.47,7.41-5.07,11.7-.62,3.48-.79,7.03-.5,10.56.21,2.38.76,4.71,1.65,6.92.65,1.56,1.12,2.38,1.12,2.38-.15-.17-.28-.36-.39-.56-.34-.56-.65-1.14-.91-1.74-.98-2.22-1.6-4.58-1.83-7-.35-3.56-.22-7.15.39-10.68.58-4.4,2.36-8.55,5.14-12,2.93-3.36,6.98-5.55,11.39-6.17,3.59-.5,7.24.11,10.48,1.73,2.17,1.08,4.11,2.58,5.69,4.41.44.49.83,1.01,1.19,1.56.14.18.25.38.34.59-.04.03-.59-.77-1.68-1.9Z"/>
    <path class="st3" d="M164.97,134.24c2.31,1.06,5.01.8,7.07-.69.79-.59,1.18-1.04,1.26-1s-.23.6-1,1.26c-1.03.85-2.29,1.38-3.62,1.52-1.33.12-2.68-.15-3.85-.8-.89-.46-1.25-.95-1.25-1,.05-.06.53.32,1.39.71Z"/>
    <path class="st3" d="M169.98,125.31c.76-.73,1.7-1.24,2.72-1.48-.75.68-1.55,1.31-2.39,1.88-.73.72-1.51,1.39-2.33,2,.43-.97,1.13-1.8,2-2.4Z"/>
    <path class="st3" d="M166.91,118.89c.06-.73.34-1.43.8-2,.45-.57,1.07-.98,1.76-1.19.54-.12.89-.06.89,0-.85.35-1.61.88-2.24,1.55-.5.76-.84,1.61-1,2.51-.06,0-.19-.31-.21-.87Z"/>
    <path class="st3" d="M168.17,114.35c.72-.54,1.46-.53,1.48-.38s-.56.37-1.17.8-.98.95-1.11.88c-.13-.05.08-.76.8-1.3Z"/>
    <path class="st3" d="M174.65,89.94c.55.4.81.91.67,1s-.52-.24-1-.6-.9-.63-.85-.77c.04-.13.63-.03,1.18.37Z"/>
    <path class="st3" d="M175.77,89.45c.34.29.53.62.44.73s-.44-.05-.78-.34-.53-.62-.44-.73c.1-.11.44.05.78.34Z"/>
    <path class="st1" d="M175.22,124.78c-.02.21-7.22,1.66-7.22-5.54.02-5.26,3.76-5.44,5.84-5.12.77.12,1.69,1.97,1.69,2.76,0,2.71-.29,7.69-.31,7.9Z"/>
    <path class="st5" d="M172.79,122.35c-.33.23-.76.3-1.15.18-1.03-.3-1.81-1.66-1.81-3.12-.02-.69.13-1.38.44-2,.21-.58.72-1,1.32-1.11.25-.03.5.03.69.19.15.11.25.27.28.45.06.3-.07.42-.1.41s.01-.15-.08-.35c-.13-.28-.44-.43-.74-.35-.47.15-.82.53-.95,1-.25.56-.37,1.17-.36,1.79-.06,1.12.48,2.18,1.42,2.79.3.12.64.12.94,0,.21-.1.34-.18.34-.18.03,0-.01.17-.24.3Z"/>
    <path class="st9" d="M177.23,125.81s4.59,9.62,13.08,11.08c8.49,1.46,10.32.28,14.32-4,3.61-3.86,2.32-11.65,2.32-11.65,0,0-2.85,5.35-11,6.47s-16.6-6.47-16.6-6.47l-2.12,4.57Z"/>
    <path class="st9" d="M177.44,118.08c.81,1.03,1.48,2.17,2,3.37-.94-.91-1.76-1.95-2.43-3.08-.81-1.03-1.49-2.16-2-3.37.94.92,1.76,1.95,2.43,3.08Z"/>
    <path class="st9" d="M175.57,125.02c1.01.23,1.73.66,1.67.8s-.83-.08-1.78-.3-1.74-.37-1.74-.52c0-.14.84-.21,1.85.02Z"/>
    <path class="st3" d="M184.73,127.71c2.84,2.13,6.19,3.46,9.72,3.85,3.54.28,7.06-.84,9.78-3.13,1.07-1,1.98-2.15,2.71-3.42-.1.39-.25.76-.46,1.11-.51.97-1.19,1.84-2,2.58-2.75,2.45-6.39,3.67-10.06,3.38-3.62-.38-7.05-1.8-9.89-4.08-.87-.66-1.69-1.38-2.45-2.15-.29-.27-.55-.58-.78-.91.07-.07,1.24,1.18,3.43,2.77Z"/>
    <path class="st3" d="M187.83,131.36c3.55,1.64,7.53,2.09,11.36,1.28,1.46-.31,2.37-.65,2.37-.57-.7.44-1.47.75-2.28.93-3.9,1.04-8.06.57-11.63-1.31-.74-.35-1.42-.83-2-1.41.05-.08.82.45,2.18,1.08Z"/>
  </g>
  <g id="freepik--Plant--inject-64">
    <path class="st3" d="M82.56,450.02c.06-.16.12-.32.2-.48.16-.33.37-.79.64-1.37.79-1.78,1.42-3.62,1.9-5.5,1.25-4.89,1.68-12.36-.17-21.23-1-4.83-2.31-9.59-3.93-14.25-1.67-5.07-3.61-10.44-5.19-16.24-1.79-6.06-2.65-12.35-2.56-18.67.24-6.61,2.2-13.2,4.35-19.76s4.36-13,5-19.46c.74-6.23-.51-12.53-3.57-18-2.85-5.24-6.43-9.73-9.11-14.37-2.5-4.31-4.35-8.97-5.47-13.82-1.61-7.03-1.73-14.33-.35-21.41.5-2.59,1.25-5.12,2.24-7.56-.03.17-.08.34-.14.51l-.45,1.45c-.56,1.86-1.02,3.74-1.39,5.65-1.27,7.06-1.07,14.3.59,21.27,1.14,4.79,2.99,9.39,5.49,13.64,2.67,4.59,6.27,9.06,9.17,14.36,3.13,5.57,4.42,11.99,3.68,18.34-.67,6.57-2.9,13-5.05,19.6s-4.08,13.08-4.29,19.57c-.1,6.25.74,12.48,2.5,18.48,1.55,5.78,3.47,11.15,5.11,16.23,1.6,4.69,2.9,9.49,3.88,14.35,1.8,8.94,1.29,16.48-.06,21.39-.5,1.89-1.17,3.72-2,5.49-.3.57-.54,1-.71,1.35-.09.16-.19.31-.31.44Z"/>
    <path class="st4" d="M73.79,305.3s-5.44-17.4,4.36-27.59c.25-.23.64-.21.86.04.07.07.11.16.14.26.52,2.88,1.17,11.63-5.36,27.29Z"/>
    <path class="st3" d="M77.05,283.51c-.01,1.08-.13,2.15-.36,3.21-.36,2.21-.78,4.81-1.25,7.68l-1.21,7.67c-.1,1.08-.29,2.14-.58,3.18-.1-1.08-.07-2.17.1-3.24.18-2,.53-4.72,1-7.72s1-5.71,1.44-7.66c.17-1.07.46-2.11.86-3.12Z"/>
    <path class="st4" d="M80.15,346.34s3.33-17.92,16.72-22.37c.32-.11.67.06.77.38.04.12.04.25,0,.37-.85,2.79-4.37,10.83-17.5,21.62Z"/>
    <path class="st3" d="M93.26,328.6c-.52.95-1.13,1.84-1.83,2.67-1.35,1.79-2.93,3.89-4.69,6.2l-4.66,6.22c-.58.91-1.25,1.75-2,2.53.43-.99.96-1.94,1.6-2.81,1.09-1.67,2.68-3.93,4.52-6.35,1.84-2.42,3.57-4.57,4.85-6.09.65-.87,1.39-1.67,2.21-2.37Z"/>
    <path class="st4" d="M76.56,391.3s-2-18.12,9.51-26.26c.26-.22.64-.18.86.08.1.12.15.26.14.41-.08,2.92-1.11,11.66-10.51,25.77Z"/>
    <path class="st3" d="M83.92,370.54c-.23,1.06-.56,2.09-1,3.08l-2.68,7.3c-1,2.73-1.9,5.2-2.66,7.3-.3,1.03-.7,2.03-1.17,3,.11-1.08.34-2.14.71-3.16.55-1.92,1.42-4.53,2.48-7.39s2.08-5.4,2.87-7.24c.37-1.02.86-1.99,1.45-2.89Z"/>
    <path class="st4" d="M86.65,436.54s-1.37-18.18,10.44-25.9c.27-.19.65-.12.83.15.07.11.11.24.11.37-.14,2.92-1.48,11.59-11.38,25.38Z"/>
    <path class="st3" d="M94.75,416.05c-.26,1.03-.62,2.04-1.08,3-.85,2.08-1.85,4.51-2.94,7.2s-2.08,5.13-2.92,7.2c-.34,1.04-.76,2.04-1.28,3,.14-1.07.42-2.12.82-3.13.63-1.89,1.59-4.48,2.74-7.29s2.28-5.33,3.14-7.13c.4-1.01.91-1.96,1.52-2.85Z"/>
    <path class="st4" d="M65.97,290.01s-16.16-8.44-16.48-22.54c0-.34.26-.62.6-.62.13,0,.25.03.35.1,2.4,1.66,9.05,7.38,15.53,23.06Z"/>
    <path class="st3" d="M52.85,272.3c.75.77,1.42,1.62,2,2.53l4.56,6.3,4.57,6.28c.7.82,1.31,1.72,1.84,2.66-.82-.7-1.57-1.49-2.22-2.36-1.28-1.53-3-3.71-4.74-6.18s-3.33-4.75-4.4-6.43c-.64-.87-1.18-1.81-1.61-2.8Z"/>
    <path class="st4" d="M83.32,327.38s-16.64-7.44-17.81-21.5c-.03-.34.22-.63.56-.66.12-.01.25.02.35.08,2.5,1.51,9.49,6.82,16.9,22.08Z"/>
    <path class="st3" d="M69.15,310.51c.8.73,1.53,1.53,2.17,2.4,1.42,1.73,3.08,3.77,4.93,6l4.94,6c.74.78,1.41,1.63,2,2.53-.88-.65-1.67-1.4-2.36-2.24-1.37-1.45-3.19-3.53-5.11-5.88s-3.57-4.5-4.78-6.12c-.69-.83-1.29-1.73-1.79-2.69Z"/>
    <path class="st4" d="M73.75,369.05s-11.43-14.2-6.07-27.25c.12-.31.47-.46.78-.34.12.05.23.13.29.24,1.54,2.49,5.4,10.39,5,27.35Z"/>
    <path class="st3" d="M68.82,347.59c.38,1.01.66,2.06.83,3.12.47,2.19,1,4.76,1.65,7.6s1.19,5.4,1.67,7.59c.3,1.04.51,2.1.63,3.17-.49-.97-.86-1.99-1.1-3.05-.56-1.92-1.23-4.59-1.87-7.57s-1.14-5.68-1.46-7.65c-.24-1.05-.36-2.13-.35-3.21Z"/>
    <path class="st4" d="M85.07,418.12s-16.52-7.72-17.45-21.8c-.04-.32.2-.62.52-.65.14-.02.28.02.39.09,2.48,1.55,9.38,6.97,16.54,22.36Z"/>
    <path class="st3" d="M71.15,401.01c.79.74,1.5,1.55,2.12,2.44,1.39,1.75,3,3.81,4.83,6.09l4.85,6.08c.74.79,1.41,1.65,2,2.56-.86-.66-1.64-1.41-2.32-2.25-1.35-1.47-3.13-3.58-5-6s-3.53-4.59-4.68-6.22c-.7-.83-1.3-1.73-1.8-2.7Z"/>
    <path class="st3" d="M117.96,346.43v1.56c0,1.1-.12,2.58-.2,4.43-.21,3.88-.51,9.3-.86,15.78h0c-1.18,6.6-4.54,13.91-9,21-3.31,5.23-6.78,10-9.77,14.4-2.72,3.86-5.17,7.91-7.33,12.12-1.42,2.85-2.56,5.82-3.43,8.88-.29,1.09-.51,1.94-.63,2.52-.05.3-.13.6-.25.88.01-.3.05-.6.11-.9.08-.59.26-1.46.51-2.56.77-3.1,1.86-6.12,3.25-9,2.11-4.26,4.53-8.36,7.24-12.26,3-4.45,6.43-9.21,9.72-14.42,4.49-7.06,7.83-14.26,9.06-20.75h0c.46-6.48.84-11.89,1.11-15.78l.36-4.41c0-.46.08-.84.11-1.16-.01-.11-.01-.22,0-.33Z"/>
    <path class="st4" d="M108.15,387.9s7-16.84-1.8-27.87c-.21-.26-.6-.3-.86-.09-.1.08-.17.18-.2.3-.8,2.81-2.24,11.47,2.86,27.66Z"/>
    <path class="st3" d="M106.86,365.9c.3,1.04.48,2.11.55,3.19.25,2,.53,4.72.74,7.75s.32,5.79.32,7.79c.07,1.08,0,2.17-.19,3.23-.2-1.06-.29-2.14-.29-3.22-.15-2.23-.32-4.85-.52-7.75s-.38-5.52-.54-7.76c-.14-1.07-.16-2.15-.07-3.23Z"/>
    <g class="st8">
      <path d="M108.15,387.9s7-16.84-1.8-27.87c-.21-.26-.6-.3-.86-.09-.1.08-.17.18-.2.3-.8,2.81-2.24,11.47,2.86,27.66Z"/>
    </g>
    <path class="st4" d="M86.47,428.46s5.6-17.35-4.06-27.63c-.25-.23-.63-.21-.86.04-.07.07-.11.16-.14.25-.59,2.87-1.32,11.62,5.06,27.34Z"/>
    <path class="st3" d="M83.41,406.65c.39,1.01.67,2.06.81,3.13.41,1.95.91,4.66,1.37,7.67s.79,5.74,1,7.73c.15,1.07.18,2.16.07,3.24-.28-1.04-.47-2.11-.55-3.18-.33-2.22-.71-4.82-1.14-7.69s-.83-5.47-1.17-7.68c-.24-1.06-.37-2.14-.39-3.22Z"/>
    <g class="st8">
      <path d="M86.47,428.46s5.6-17.35-4.06-27.63c-.25-.23-.63-.21-.86.04-.07.07-.11.16-.14.25-.59,2.87-1.32,11.62,5.06,27.34Z"/>
    </g>
    <path class="st4" d="M117.04,367.33s14.93-10.46,13.43-24.49c-.04-.33-.35-.57-.68-.53-.12.01-.23.06-.32.14-2.17,1.95-8.03,8.49-12.43,24.88Z"/>
    <g class="st8">
      <path d="M117.04,367.33s14.93-10.46,13.43-24.49c-.04-.33-.35-.57-.68-.53-.12.01-.23.06-.32.14-2.17,1.95-8.03,8.49-12.43,24.88Z"/>
    </g>
    <path class="st3" d="M127.76,348.08c-.29,1.05-.71,2.05-1.24,3-.85,1.8-2.09,4.26-3.53,6.93s-2.84,5.06-3.91,6.75c-.52.95-1.16,1.83-1.9,2.62.41-1,.91-1.96,1.49-2.87l3.72-6.82,3.7-6.83c.47-.98,1.03-1.91,1.67-2.78Z"/>
    <path class="st4" d="M92.49,411.27s18-2.8,22.84-16.06c.12-.32-.05-.67-.36-.78-.12-.04-.25-.05-.37-.02-2.81.79-10.95,4.09-22.11,16.86Z"/>
    <g class="st8">
      <path d="M92.49,411.27s18-2.8,22.84-16.06c.12-.32-.05-.67-.36-.78-.12-.04-.25-.05-.37-.02-2.81.79-10.95,4.09-22.11,16.86Z"/>
    </g>
    <path class="st3" d="M110.59,398.71c-.73.8-1.55,1.51-2.44,2.13-1.56,1.25-3.76,2.91-6.23,4.68s-4.78,3.29-6.48,4.33c-.89.62-1.85,1.13-2.86,1.52.8-.72,1.67-1.37,2.6-1.92,1.82-1.3,4-2.81,6.34-4.49l6.34-4.5c.85-.67,1.76-1.26,2.73-1.75Z"/>
    <polygon class="st10" points="71.17 444.43 76.34 478.32 96.98 478.27 103.93 444.43 71.17 444.43"/>
    <path class="st3" d="M100.9,457.49s0,.05-.17.12c-.17.12-.35.23-.54.32-.73.35-1.51.58-2.31.68-1.27.18-2.57.06-3.79-.35-1.65-.52-3.09-1.58-4.08-3-.58-.84-.92-1.81-1-2.83-.12-1.16.42-2.28,1.4-2.91,1.11-.56,2.45-.45,3.46.28,1.04.74,1.76,1.86,2,3.11.27,1.26.36,2.55.26,3.83-.07,1.34-.35,2.67-.84,3.92-.51,1.31-1.33,2.48-2.39,3.41-1.11.98-2.52,1.56-4,1.66-1.47.02-2.9-.4-4.13-1.2-1.18-.75-2.22-1.69-3.08-2.79-.88-1.05-1.41-2.33-1.54-3.69-.11-1.36.43-2.69,1.46-3.59,1.07-.79,2.5-.88,3.66-.23,1.1.54,1.88,1.57,2.11,2.77.32,2.15-.72,4.28-2.61,5.36-1.53.83-3.3,1.09-5,.72-1.25-.26-2.45-.73-3.55-1.39-.69-.41-1.36-.85-2-1.34-.23-.16-.44-.34-.64-.54.25.12.49.27.71.44.64.45,1.31.87,2,1.25,1.09.61,2.27,1.04,3.49,1.27,1.62.31,3.29.05,4.73-.75,1.71-1.02,2.64-2.96,2.35-4.93-.21-1.05-.91-1.95-1.88-2.41-.98-.56-2.2-.49-3.1.19-.89.79-1.36,1.96-1.25,3.15.14,1.27.67,2.46,1.52,3.41.84,1.05,1.86,1.94,3,2.65,1.12.74,2.43,1.12,3.77,1.11,1.34-.09,2.62-.63,3.63-1.52.99-.87,1.76-1.96,2.24-3.19.47-1.2.74-2.46.81-3.74.1-1.23.03-2.46-.22-3.67-.21-1.13-.83-2.14-1.75-2.83-.87-.65-2.02-.76-3-.29-.84.54-1.3,1.5-1.19,2.49.05.94.34,1.85.85,2.64.95,1.35,2.3,2.36,3.86,2.88,1.17.41,2.42.56,3.66.43,1.07-.12,2.12-.43,3.09-.9Z"/>
  </g>
</svg>