<?xml version="1.0" encoding="UTF-8"?>
<svg id="Layer_1" xmlns="http://www.w3.org/2000/svg" version="1.1" viewBox="0 0 750 500">
  <!-- Generator: Adobe Illustrator 29.7.1, SVG Export Plug-In . SVG Version: 2.1.1 Build 8)  -->
  <defs>
    <style>
      .st0 {
        fill: #e0e0e0;
      }

      .st1 {
        fill: #aa6550;
      }

      .st2 {
        fill: #b78876;
      }

      .st3 {
        fill: #4a9288;
      }

      .st4 {
        fill: #263238;
      }

      .st5 {
        fill: #fff;
      }

      .st6 {
        fill: #fafafa;
      }

      .st7 {
        opacity: .6;
      }

      .st8 {
        opacity: .5;
      }

      .st9 {
        fill: #f5f5f5;
      }

      .st10 {
        fill: #455a64;
      }
    </style>
  </defs>
  <g id="freepik--background-simple--inject-201">
    <path class="st9" d="M534.32,80.04l-1.28.97c-10.75,8.13-16.36,21.49-14.14,34.68.29,1.7.7,3.37,1.24,5.02,4.09,12.04,13.93,21.24,26.22,24.5,7.15,1.85,15.14,1.74,21.13,6.03,7.76,5.58,9.1,16.31,9.75,25.78.65,9.48,2.06,20.19,9.85,25.75,4.88,3.47,11.38,4.06,17.32,3.12,15.75-2.5,28.77-15.01,34.34-29.78s4.49-31.37-.21-46.41c-6.58-21.07-20.63-40.3-40.32-50.68s-45.07-10.89-63.92,1.02h0Z"/>
    <path class="st9" d="M126.58,181.68l1.07,1.19c9.02,10.05,22.76,14.54,35.73,11.24,1.67-.42,3.29-.97,4.88-1.63,11.68-5.06,20.05-15.63,22.3-28.16,1.25-7.27.49-15.23,4.28-21.53,4.93-8.19,15.5-10.41,24.89-11.88s19.96-3.71,24.86-11.93c3.06-5.15,3.12-11.66,1.69-17.52-3.77-15.49-17.31-27.44-32.51-31.79s-31.64-1.89-46.24,4.06c-20.46,8.25-38.46,23.86-47.2,44.3-8.74,20.44-7.15,45.83,6.27,63.63h0Z"/>
    <circle class="st9" cx="462.56" cy="95.6" r="19.17" transform="translate(-1.37 184.29) rotate(-22.5)"/>
  </g>
  <g id="freepik--Character--inject-201">
    <polygon class="st0" points="555.35 149.65 580.48 419.9 555.35 419.9 555.35 149.65"/>
    <rect class="st6" x="193.52" y="149.65" width="361.83" height="270.25"/>
    <rect class="st3" x="193.52" y="149.65" width="361.83" height="66.52"/>
    <path class="st4" d="M193.52,149.63l361.83-.2h.18v270.66h-.21l-361.83-.04h-.18v-.17c.11-163.64.18-268.82.18-270.25,0,1.43.07,106.61.17,270.25l-.17-.17,361.83-.04-.21.21h0V149.66l.2.19-361.78-.22h0Z"/>
    <path class="st4" d="M555.68,215.13c0,.12-81.52.21-182.08.21s-182.08-.09-182.08-.21,81.51-.21,182.08-.21,182.08.1,182.08.21Z"/>
    <rect class="st3" x="299.05" y="300.68" width="227.41" height="38.85" rx="19.42" ry="19.42"/>
    <rect class="st3" x="208.71" y="342.07" width="90.33" height="38.85" rx="19.42" ry="19.42"/>
    <circle class="st4" cx="251.23" cy="161.66" r="7.39"/>
    <path class="st4" d="M251.23,169.45c-4.31,0-7.8-3.48-7.8-7.79,0-4.31,3.48-7.8,7.79-7.8,4.31,0,7.8,3.48,7.8,7.79h0c0,4.31-3.49,7.8-7.79,7.8ZM251.23,154.68c-3.85,0-6.98,3.12-6.99,6.97,0,3.85,3.12,6.98,6.97,6.99,3.85,0,6.98-3.12,6.99-6.97v-.02c0-3.85-3.12-6.97-6.97-6.97Z"/>
    <circle class="st4" cx="312.14" cy="161.66" r="7.39"/>
    <path class="st4" d="M312.14,169.45c-4.31,0-7.8-3.49-7.8-7.8s3.49-7.8,7.8-7.8,7.8,3.49,7.8,7.8h0c0,4.3-3.5,7.79-7.8,7.8ZM312.14,154.68c-3.85,0-6.98,3.13-6.98,6.98s3.13,6.98,6.98,6.98,6.98-3.13,6.98-6.98h0c0-3.86-3.13-6.97-6.98-6.98Z"/>
    <circle class="st4" cx="373.06" cy="161.66" r="7.39"/>
    <path class="st4" d="M373.06,169.45c-4.31,0-7.8-3.49-7.8-7.8s3.49-7.8,7.8-7.8,7.8,3.49,7.8,7.8h0c0,4.3-3.5,7.79-7.8,7.8ZM373.06,154.68c-3.85,0-6.98,3.13-6.98,6.98s3.13,6.98,6.98,6.98,6.98-3.13,6.98-6.98h0c0-3.86-3.13-6.98-6.98-6.98Z"/>
    <circle class="st4" cx="433.98" cy="161.66" r="7.39"/>
    <path class="st4" d="M433.98,169.45c-4.31,0-7.8-3.48-7.8-7.79,0-4.31,3.48-7.8,7.79-7.8,4.31,0,7.8,3.48,7.8,7.79h0c0,4.31-3.49,7.8-7.79,7.8ZM433.98,154.68c-3.85,0-6.98,3.12-6.99,6.97s3.12,6.98,6.97,6.99c3.85,0,6.98-3.12,6.99-6.97v-.02c0-3.85-3.12-6.97-6.97-6.97Z"/>
    <circle class="st4" cx="494.9" cy="161.66" r="7.39"/>
    <path class="st4" d="M494.9,169.45c-4.31,0-7.8-3.49-7.8-7.8s3.49-7.8,7.8-7.8,7.8,3.49,7.8,7.8-3.5,7.79-7.8,7.8ZM494.9,154.68c-3.85,0-6.98,3.13-6.98,6.98s3.13,6.98,6.98,6.98,6.98-3.13,6.98-6.98h0c0-3.86-3.13-6.97-6.98-6.98Z"/>
    <path class="st4" d="M227.84,229.53v14.7h-2.08v-12.87h-3.32v-1.83h5.4Z"/>
    <path class="st4" d="M279.31,242.4v1.83h-10.57v-1.42l5.98-5.78c1.56-1.51,1.85-2.44,1.85-3.36,0-1.51-1.07-2.44-3.13-2.44-1.44-.07-2.83.53-3.76,1.63l-1.42-1.24c1.37-1.51,3.34-2.33,5.37-2.23,3.06,0,5.04,1.58,5.04,4.06,0,1.43-.42,2.71-2.44,4.62l-4.5,4.32h7.57Z"/>
    <path class="st4" d="M323.68,239.9c0,2.48-1.83,4.5-5.56,4.5-1.95.06-3.86-.58-5.4-1.79l.96-1.63c1.24,1.05,2.81,1.61,4.44,1.58,2.2,0,3.46-1.01,3.46-2.6s-1.11-2.57-3.63-2.57h-1.18v-1.46l3.7-4.54h-7.08v-1.86h9.71v1.43l-3.84,4.74c2.94.28,4.43,1.93,4.43,4.2h0Z"/>
    <path class="st4" d="M373.08,240.62h-2.8v3.61h-2.03v-3.61h-8.17v-1.47l7.52-9.62h2.27l-7.2,9.28h5.65v-3.19h1.97v3.19h2.8v1.8h0Z"/>
    <path class="st4" d="M415.85,239.85c0,2.54-1.8,4.58-5.57,4.58-1.95.05-3.86-.59-5.4-1.79l.97-1.63c1.23,1.05,2.8,1.61,4.41,1.58,2.22,0,3.48-1.03,3.48-2.63s-1.05-2.69-4.45-2.69h-3.34l.81-7.68h8.29v1.83h-6.5l-.41,4.06h1.63c4.35-.1,6.07,1.72,6.07,4.37h0Z"/>
    <path class="st4" d="M462.54,239.75c0,2.84-2.29,4.64-5.21,4.64-3.94,0-6.17-2.65-6.17-7.32,0-5.02,2.84-7.71,6.95-7.71,1.27-.05,2.54.25,3.65.86l-.81,1.63c-.85-.5-1.83-.74-2.81-.7-2.98,0-4.88,1.87-4.88,5.54,0,.18,0,.35,0,.53.99-1.32,2.58-2.04,4.22-1.93,2.95,0,5.06,1.75,5.06,4.45ZM460.5,239.84c0-1.72-1.3-2.83-3.36-2.83s-3.38,1.22-3.38,2.85,1.22,2.84,3.49,2.84c1.91,0,3.25-1.11,3.25-2.84v-.02Z"/>
    <path class="st4" d="M507.28,229.53v1.43l-5.94,13.27h-2.23l5.81-12.87h-6.71v2.63h-2.02v-4.45h11.09,0Z"/>
    <path class="st4" d="M234.88,278.87c0,2.67-2.27,4.32-5.86,4.32s-5.82-1.63-5.82-4.32c-.02-1.63,1.02-3.08,2.58-3.55-1.28-.53-2.1-1.79-2.06-3.17,0-2.44,2.12-3.98,5.29-3.98s5.33,1.53,5.33,3.98c.03,1.39-.8,2.65-2.08,3.17,1.57.47,2.63,1.92,2.61,3.55h0ZM232.77,278.8c0-1.63-1.42-2.63-3.76-2.63s-3.71,1.01-3.71,2.63,1.38,2.69,3.71,2.69,3.76-1.06,3.76-2.72v.03ZM225.81,272.24c0,1.45,1.19,2.35,3.21,2.35s3.25-.9,3.25-2.35-1.3-2.37-3.25-2.37-3.21.88-3.21,2.34v.03Z"/>
    <path class="st4" d="M279.92,275.46c0,5.02-2.84,7.71-6.96,7.71-1.28.05-2.54-.25-3.65-.86l.81-1.63c.86.5,1.85.74,2.84.69,2.98,0,4.88-1.87,4.88-5.54v-.53c-.99,1.32-2.59,2.05-4.24,1.93-2.92,0-5.02-1.74-5.02-4.45s2.27-4.63,5.19-4.63c3.93,0,6.15,2.6,6.15,7.32ZM277.34,272.67c0-1.51-1.22-2.84-3.51-2.84-1.91,0-3.25,1.11-3.25,2.85s1.28,2.84,3.33,2.84,3.43-1.24,3.43-2.85Z"/>
    <path class="st4" d="M318.17,268.3v14.7h-2.07v-12.88h-3.32v-1.82h5.4,0Z"/>
    <path class="st4" d="M321.42,275.62c0-4.79,2.56-7.51,6-7.51s5.99,2.72,5.99,7.51-2.57,7.52-5.99,7.52-6-2.71-6-7.52ZM331.31,275.62c0-3.76-1.63-5.65-3.89-5.65s-3.9,1.89-3.9,5.65,1.63,5.69,3.9,5.69,3.85-1.9,3.85-5.69h.03Z"/>
    <path class="st4" d="M364.85,268.3v14.7h-2.07v-12.88h-3.32v-1.82h5.4,0Z"/>
    <path class="st4" d="M372.63,268.3v14.7h-2.08v-12.88h-3.32v-1.82h5.4,0Z"/>
    <path class="st4" d="M410.1,268.3v14.7h-2.08v-12.88h-3.32v-1.82h5.4,0Z"/>
    <path class="st4" d="M423.64,281.17v1.83h-10.57v-1.43l5.98-5.78c1.55-1.51,1.85-2.44,1.85-3.36,0-1.51-1.06-2.44-3.13-2.44-1.44-.07-2.83.53-3.76,1.63l-1.43-1.24c1.37-1.51,3.35-2.32,5.38-2.22,3.06,0,5.04,1.57,5.04,4.06,0,1.43-.42,2.71-2.44,4.63l-4.5,4.32h7.57Z"/>
    <path class="st4" d="M455.71,268.3v14.7h-2.07v-12.88h-3.32v-1.82h5.39,0Z"/>
    <path class="st4" d="M468.98,278.67c0,2.48-1.83,4.5-5.56,4.5-1.95.06-3.86-.57-5.4-1.78l.96-1.63c1.24,1.05,2.82,1.6,4.44,1.57,2.2,0,3.46-1.01,3.46-2.6s-1.11-2.56-3.63-2.56h-1.2v-1.47l3.7-4.54h-7.08v-1.85h9.71v1.43l-3.84,4.75c2.97.26,4.45,1.95,4.45,4.19h0Z"/>
    <path class="st4" d="M501.12,268.3v14.7h-2.08v-12.88h-3.32v-1.82h5.4Z"/>
    <path class="st4" d="M517.12,279.38h-2.79v3.62h-2.04v-3.62h-8.13v-1.47l7.47-9.61h2.27l-7.2,9.28h5.65v-3.19h1.98v3.19h2.79v1.8h0Z"/>
    <path class="st4" d="M227.84,311.08v14.7h-2.08v-12.88h-3.32v-1.83h5.4Z"/>
    <path class="st4" d="M241.37,321.37c0,2.54-1.8,4.58-5.57,4.58-1.95.05-3.86-.58-5.4-1.78l.97-1.63c1.24,1.04,2.8,1.6,4.41,1.57,2.23,0,3.49-1.02,3.49-2.63s-1.06-2.68-4.45-2.68h-3.34l.81-7.69h8.29v1.83h-6.5l-.4,4.06h1.63c4.34-.07,6.06,1.76,6.06,4.37h0Z"/>
    <path class="st4" d="M273.53,311.08v14.7h-2.08v-12.88h-3.32v-1.83h5.4,0Z"/>
    <path class="st4" d="M288.1,321.31c0,2.84-2.29,4.64-5.21,4.64-3.95,0-6.17-2.64-6.17-7.32,0-5.02,2.83-7.71,6.95-7.71,1.28-.05,2.54.25,3.65.86l-.81,1.63c-.85-.5-1.83-.74-2.81-.69-2.98,0-4.88,1.87-4.88,5.54v.52c.99-1.32,2.58-2.04,4.23-1.93,2.97,0,5.06,1.74,5.06,4.45ZM286.06,321.4c0-1.72-1.3-2.84-3.36-2.84s-3.38,1.24-3.38,2.85,1.22,2.84,3.49,2.84c1.94,0,3.28-1.11,3.28-2.85h-.03Z"/>
    <path class="st5" d="M318.17,311.08v14.7h-2.07v-12.88h-3.32v-1.83h5.4,0Z"/>
    <path class="st5" d="M332.1,311.08v1.43l-5.94,13.27h-2.23l5.82-12.88h-6.7v2.63h-2.02v-4.45h11.06Z"/>
    <path class="st5" d="M364.85,311.08v14.7h-2.07v-12.88h-3.32v-1.83h5.4,0Z"/>
    <path class="st5" d="M379.66,321.63c0,2.67-2.27,4.32-5.86,4.32s-5.82-1.63-5.82-4.32c-.03-1.63,1.02-3.07,2.58-3.54-1.28-.53-2.1-1.8-2.06-3.18,0-2.44,2.12-3.98,5.29-3.98s5.33,1.53,5.33,3.98c.03,1.39-.8,2.66-2.08,3.18,1.56.46,2.63,1.91,2.61,3.54ZM377.55,321.56c0-1.63-1.42-2.63-3.76-2.63s-3.71,1.01-3.71,2.63,1.38,2.69,3.71,2.69,3.76-1.03,3.76-2.69h0ZM370.59,314.99c0,1.45,1.19,2.35,3.21,2.35s3.25-.9,3.25-2.35-1.3-2.37-3.25-2.37-3.21.9-3.21,2.37h0Z"/>
    <path class="st5" d="M410.1,311.08v14.7h-2.08v-12.88h-3.32v-1.83h5.4,0Z"/>
    <path class="st5" d="M424.25,318.24c0,5.02-2.84,7.71-6.95,7.71-1.28.05-2.54-.25-3.65-.86l.81-1.63c.86.5,1.85.74,2.84.69,2.98,0,4.88-1.87,4.88-5.54v-.52c-1,1.32-2.59,2.05-4.24,1.93-2.92,0-5.02-1.74-5.02-4.45s2.27-4.64,5.19-4.64c3.92,0,6.15,2.63,6.15,7.32ZM421.67,315.45c0-1.51-1.21-2.84-3.5-2.84-1.91,0-3.25,1.11-3.25,2.85s1.28,2.84,3.34,2.84,3.41-1.23,3.41-2.85Z"/>
    <path class="st5" d="M461.49,323.96v1.83h-10.57v-1.4l5.98-5.77c1.55-1.51,1.85-2.44,1.85-3.37,0-1.51-1.07-2.44-3.13-2.44-1.44-.07-2.83.53-3.76,1.63l-1.43-1.24c1.37-1.51,3.34-2.32,5.37-2.22,3.07,0,5.04,1.57,5.04,4.06,0,1.43-.41,2.71-2.44,4.63l-4.49,4.29h7.57Z"/>
    <path class="st5" d="M463.15,318.43c0-4.79,2.56-7.51,6.01-7.51s5.98,2.72,5.98,7.51-2.56,7.52-5.98,7.52-6.01-2.73-6.01-7.52h0ZM473.04,318.43c0-3.76-1.63-5.64-3.89-5.64s-3.91,1.89-3.91,5.64,1.63,5.65,3.91,5.65,3.89-1.89,3.89-5.65h0Z"/>
    <path class="st5" d="M506.89,323.96v1.83h-10.57v-1.4l5.98-5.77c1.55-1.51,1.85-2.44,1.85-3.37,0-1.51-1.06-2.44-3.12-2.44-1.44-.07-2.83.53-3.76,1.63l-1.43-1.24c1.37-1.51,3.35-2.32,5.38-2.22,3.06,0,5.04,1.57,5.04,4.06,0,1.43-.42,2.71-2.44,4.63l-4.5,4.32,7.57-.03h0Z"/>
    <path class="st5" d="M513.18,311.08v14.7h-2.08v-12.88h-3.32v-1.83h5.4Z"/>
    <path class="st5" d="M233.64,366.35v1.83h-10.57v-1.43l5.98-5.77c1.56-1.51,1.85-2.44,1.85-3.37,0-1.51-1.07-2.44-3.13-2.44-1.44-.07-2.83.53-3.76,1.63l-1.42-1.24c1.37-1.51,3.34-2.33,5.37-2.23,3.06,0,5.04,1.58,5.04,4.06,0,1.42-.42,2.71-2.44,4.62l-4.5,4.32h7.57Z"/>
    <path class="st5" d="M245.67,366.35v1.83h-10.57v-1.43l5.98-5.77c1.56-1.51,1.85-2.44,1.85-3.37,0-1.51-1.07-2.44-3.13-2.44-1.44-.07-2.83.53-3.76,1.63l-1.42-1.24c1.37-1.51,3.34-2.33,5.37-2.23,3.06,0,5.04,1.58,5.04,4.06,0,1.42-.42,2.71-2.44,4.62l-4.5,4.32h7.57Z"/>
    <path class="st5" d="M279.31,366.35v1.83h-10.57v-1.43l5.98-5.77c1.56-1.51,1.85-2.44,1.85-3.37,0-1.51-1.07-2.44-3.13-2.44-1.44-.07-2.83.53-3.76,1.63l-1.42-1.24c1.37-1.51,3.34-2.33,5.37-2.23,3.06,0,5.04,1.58,5.04,4.06,0,1.42-.42,2.71-2.44,4.62l-4.5,4.32h7.57Z"/>
    <path class="st5" d="M291.09,363.85c0,2.48-1.83,4.5-5.57,4.5-1.95.06-3.86-.58-5.4-1.79l.97-1.63c1.24,1.05,2.81,1.61,4.43,1.58,2.21,0,3.47-1.01,3.47-2.61s-1.11-2.56-3.63-2.56h-1.18v-1.47l3.7-4.54h-7.1v-1.82h9.75v1.42l-3.84,4.75c2.91.24,4.4,1.9,4.4,4.17h0Z"/>
    <path class="st4" d="M323.95,366.35v1.83h-10.57v-1.43l5.99-5.77c1.55-1.51,1.85-2.44,1.85-3.37,0-1.51-1.07-2.44-3.13-2.44-1.44-.07-2.83.53-3.76,1.63l-1.43-1.24c1.37-1.51,3.34-2.33,5.37-2.23,3.06,0,5.04,1.58,5.04,4.06,0,1.42-.41,2.71-2.44,4.62l-4.5,4.32h7.57Z"/>
    <path class="st4" d="M338.06,364.57h-2.82v3.61h-2.03v-3.61h-8.13v-1.47l7.52-9.62h2.27l-7.21,9.27h5.69v-3.19h1.89v3.19h2.8l.02,1.81h0Z"/>
    <path class="st4" d="M233.64,403.97v1.82h-10.57v-1.42l5.98-5.78c1.56-1.51,1.85-2.44,1.85-3.36,0-1.51-1.07-2.44-3.13-2.44-1.44-.07-2.83.53-3.76,1.63l-1.42-1.24c1.37-1.51,3.34-2.33,5.37-2.23,3.06,0,5.04,1.58,5.04,4.06,0,1.43-.42,2.71-2.44,4.62l-4.5,4.33h7.57Z"/>
    <path class="st4" d="M246.28,398.25c0,5.02-2.83,7.71-6.95,7.71-1.27.05-2.54-.25-3.65-.86l.81-1.63c.86.5,1.85.74,2.84.69,2.98,0,4.88-1.87,4.88-5.54v-.53c-.99,1.32-2.59,2.05-4.24,1.93-2.92,0-5.02-1.74-5.02-4.45s2.27-4.64,5.19-4.64c3.93,0,6.15,2.64,6.15,7.32h0ZM243.7,395.46c0-1.51-1.22-2.83-3.51-2.83-1.91,0-3.25,1.11-3.25,2.85s1.28,2.84,3.34,2.84,3.42-1.24,3.42-2.86Z"/>
    <path class="st4" d="M279.03,401.47c0,2.48-1.83,4.5-5.57,4.5-1.95.06-3.86-.58-5.39-1.79l.96-1.63c1.24,1.05,2.81,1.61,4.43,1.58,2.21,0,3.47-1.01,3.47-2.6s-1.11-2.56-3.63-2.56h-1.18v-1.47l3.7-4.54h-7.08v-1.83h9.71v1.43l-3.84,4.75c2.93.24,4.43,1.87,4.43,4.16h0Z"/>
    <path class="st4" d="M280.98,398.44c0-4.79,2.57-7.52,6.01-7.52s5.98,2.73,5.98,7.52-2.56,7.52-5.98,7.52-6.01-2.72-6.01-7.52ZM290.88,398.44c0-3.76-1.63-5.69-3.89-5.69s-3.9,1.89-3.9,5.69,1.63,5.65,3.9,5.65,3.89-1.89,3.89-5.65Z"/>
    <path class="st4" d="M323.68,401.47c0,2.48-1.83,4.5-5.56,4.5-1.95.06-3.86-.58-5.4-1.79l.96-1.63c1.24,1.05,2.81,1.61,4.44,1.58,2.2,0,3.46-1.01,3.46-2.6s-1.11-2.56-3.63-2.56h-1.18v-1.47l3.7-4.54h-7.08v-1.83h9.71v1.43l-3.84,4.75c2.94.24,4.43,1.87,4.43,4.16h0Z"/>
    <path class="st4" d="M330.19,391.09v14.7h-2.08v-12.87h-3.32v-1.83h5.4,0Z"/>
    <path class="st4" d="M370.63,366.35v1.83h-10.57v-1.43l5.99-5.77c1.55-1.51,1.85-2.44,1.85-3.37,0-1.51-1.07-2.44-3.13-2.44-1.44-.07-2.83.53-3.76,1.63l-1.43-1.24c1.37-1.51,3.34-2.33,5.37-2.23,3.06,0,5.04,1.58,5.04,4.06,0,1.42-.42,2.71-2.44,4.62l-4.5,4.32h7.57Z"/>
    <path class="st4" d="M382.66,363.76c0,2.54-1.8,4.58-5.57,4.58-1.95.05-3.85-.59-5.39-1.79l.96-1.63c1.23,1.04,2.8,1.6,4.41,1.58,2.23,0,3.49-1.03,3.49-2.63s-1.05-2.69-4.45-2.69h-3.34l.81-7.68h8.29v1.76h-6.5l-.4,4.06h1.63c4.34,0,6.06,1.82,6.06,4.42Z"/>
    <path class="st4" d="M415.87,366.35v1.83h-10.57v-1.43l5.98-5.77c1.55-1.51,1.85-2.44,1.85-3.37,0-1.51-1.07-2.44-3.13-2.44-1.44-.07-2.83.53-3.76,1.63l-1.42-1.24c1.37-1.51,3.34-2.33,5.37-2.23,3.06,0,5.04,1.58,5.04,4.06,0,1.42-.42,2.71-2.44,4.62l-4.5,4.32h7.57Z"/>
    <path class="st4" d="M428.92,363.71c0,2.83-2.29,4.64-5.21,4.64-3.95,0-6.17-2.65-6.17-7.32,0-5.02,2.83-7.71,6.95-7.71,1.28-.05,2.54.25,3.65.86l-.81,1.63c-.85-.5-1.83-.74-2.81-.69-2.98,0-4.88,1.87-4.88,5.54,0,.18,0,.35,0,.53.99-1.32,2.58-2.04,4.22-1.93,2.94,0,5.06,1.71,5.06,4.45h0ZM426.88,363.79c0-1.72-1.3-2.84-3.36-2.84s-3.38,1.24-3.38,2.86,1.22,2.83,3.49,2.83c1.91.02,3.25-1.11,3.25-2.85h0Z"/>
    <path class="st4" d="M461.49,366.35v1.83h-10.57v-1.43l5.98-5.77c1.55-1.51,1.85-2.44,1.85-3.37,0-1.51-1.07-2.44-3.13-2.44-1.44-.07-2.83.53-3.76,1.63l-1.43-1.24c1.37-1.51,3.34-2.32,5.37-2.23,3.07,0,5.04,1.58,5.04,4.06,0,1.42-.41,2.71-2.44,4.62l-4.49,4.33h7.57Z"/>
    <path class="st4" d="M473.86,353.48v1.42l-5.94,13.27h-2.23l5.81-12.9h-6.71v2.63h-2.02v-4.45l11.09.02Z"/>
    <path class="st4" d="M506.89,366.35v1.83h-10.57v-1.43l5.98-5.77c1.55-1.51,1.85-2.44,1.85-3.37,0-1.51-1.07-2.44-3.13-2.44-1.44-.07-2.83.53-3.76,1.63l-1.42-1.24c1.37-1.51,3.34-2.33,5.37-2.23,3.06,0,5.04,1.58,5.04,4.06,0,1.42-.42,2.71-2.44,4.62l-4.5,4.32h7.57Z"/>
    <path class="st4" d="M520.21,364.02c0,2.67-2.27,4.33-5.85,4.33s-5.82-1.67-5.82-4.33c-.02-1.63,1.03-3.07,2.58-3.54-1.28-.53-2.1-1.79-2.06-3.17,0-2.44,2.11-3.99,5.29-3.99s5.33,1.53,5.33,3.99c.03,1.38-.8,2.64-2.08,3.17,1.56.47,2.63,1.92,2.6,3.54ZM518.11,363.96c0-1.63-1.43-2.63-3.76-2.63s-3.72,1.01-3.72,2.63,1.39,2.68,3.72,2.68,3.78-1.02,3.78-2.68h-.02ZM511.14,357.38c0,1.45,1.19,2.35,3.25,2.35s3.25-.9,3.25-2.35-1.3-2.37-3.25-2.37-3.25.9-3.25,2.37h0Z"/>
    <path class="st0" d="M251.23,161.82h0c-2.45,0-4.44-1.98-4.45-4.43h0v-21.87c0-2.45,1.99-4.44,4.45-4.44h0c2.45,0,4.43,1.99,4.44,4.44v21.87c0,2.45-1.98,4.44-4.44,4.44h0Z"/>
    <path class="st4" d="M251.23,161.82s.25,0,.72-.11c1.79-.33,3.19-1.72,3.52-3.5.08-.67.11-1.36.07-2.03v-2.31c0-3.25,0-7.11-.05-11.38v-6.72c.05-1.15-.36-2.26-1.13-3.11-1.58-1.72-4.24-1.83-5.96-.25-.09.08-.17.16-.25.25-.77.85-1.18,1.97-1.13,3.11v20.41c-.04.67-.02,1.36.07,2.03.33,1.79,1.74,3.18,3.53,3.5.46.1.72.08.72.11-.24.03-.49.03-.73,0-.71-.11-1.37-.39-1.95-.81-.93-.66-1.57-1.65-1.8-2.76-.12-.7-.19-1.41-.2-2.12v-2.31c0-3.25,0-7.11-.05-11.38v-6.72c-.06-1.25.39-2.47,1.24-3.4,1.74-1.89,4.67-2.01,6.56-.27.1.09.19.18.27.27.85.93,1.28,2.15,1.24,3.4v6.72c0,4.28,0,8.13-.05,11.38v2.31c.02.7,0,1.39-.11,2.08-.23,1.11-.87,2.11-1.8,2.76-.57.42-1.24.71-1.94.81-.25.05-.51.07-.77.03h0Z"/>
    <path class="st0" d="M312.14,161.82h0c-2.45,0-4.43-1.98-4.44-4.42v-21.88c0-2.45,1.98-4.44,4.44-4.44h0c2.45,0,4.44,1.98,4.44,4.44v21.87c0,2.45-1.98,4.43-4.42,4.44h-.02Z"/>
    <path class="st4" d="M312.14,161.82s.25,0,.72-.11c1.79-.33,3.19-1.72,3.53-3.5.07-.67.1-1.36.07-2.03v-2.31c0-3.25,0-7.11-.05-11.38v-6.72c.05-1.15-.36-2.26-1.13-3.11-.8-.87-1.93-1.37-3.11-1.37s-2.3.5-3.11,1.36c-.77.85-1.18,1.97-1.13,3.11v6.72c0,4.28,0,8.13-.05,11.38v2.31c-.03.67,0,1.36.07,2.03.34,1.78,1.74,3.17,3.53,3.5.46.1.72.08.72.11-.24.03-.49.03-.73,0-.71-.11-1.37-.39-1.94-.81-.93-.66-1.58-1.65-1.8-2.76-.11-.7-.14-1.41-.11-2.11v-2.31c0-3.25,0-7.11-.04-11.38v-6.72c-.05-1.25.39-2.47,1.24-3.4,1.74-1.89,4.67-2.01,6.56-.27.1.09.19.18.27.27.85.93,1.29,2.15,1.24,3.4v20.41c.02.7,0,1.39-.11,2.08-.22,1.11-.86,2.11-1.8,2.76-.57.42-1.24.71-1.94.81-.28.07-.59.07-.88.03h0Z"/>
    <path class="st0" d="M373.06,161.82h0c-2.45,0-4.44-1.98-4.44-4.44v-21.87c0-2.45,1.99-4.43,4.44-4.44h0c2.45,0,4.44,1.98,4.45,4.44v21.87c0,2.45-1.98,4.44-4.44,4.44h0Z"/>
    <path class="st4" d="M373.06,161.82s.25,0,.72-.11c1.79-.33,3.19-1.72,3.52-3.5.08-.67.11-1.36.07-2.03v-2.31c0-3.25,0-7.11-.04-11.38v-6.72c.05-1.15-.36-2.26-1.13-3.11-1.58-1.72-4.23-1.83-5.95-.25-.09.08-.17.16-.25.25-.78.85-1.19,1.97-1.14,3.11v6.72c0,4.28,0,8.13-.05,11.38v2.31c-.04.67-.02,1.36.07,2.03.33,1.78,1.73,3.18,3.52,3.5.46.1.72.08.72.11-.24.03-.49.03-.73,0-.71-.11-1.37-.39-1.94-.81-.93-.66-1.57-1.65-1.8-2.76-.1-.69-.13-1.38-.11-2.08v-2.31c0-3.25,0-7.11-.05-11.38v-6.72c-.05-1.25.4-2.47,1.24-3.4,1.75-1.89,4.69-2,6.57-.25,1.01.93,1.55,2.28,1.49,3.65v6.72c0,4.28,0,8.13-.05,11.38v2.31c.02.7,0,1.39-.1,2.08-.23,1.11-.87,2.11-1.8,2.76-.58.42-1.24.71-1.95.81-.28.04-.55.04-.83,0h0Z"/>
    <path class="st0" d="M433.98,161.82h0c-2.45,0-4.44-1.98-4.45-4.43h0v-21.87c0-2.45,1.99-4.44,4.45-4.44h0c2.45,0,4.43,1.99,4.44,4.44v21.87c0,2.45-1.98,4.44-4.44,4.44Z"/>
    <path class="st4" d="M433.98,161.82s.25,0,.72-.11c1.79-.33,3.19-1.72,3.52-3.5.08-.67.11-1.36.07-2.03v-2.31c0-3.25,0-7.11-.05-11.38v-6.72c.05-1.15-.36-2.26-1.13-3.11-1.58-1.72-4.24-1.83-5.96-.25-.09.08-.17.16-.25.25-.77.85-1.18,1.97-1.13,3.11v6.72c0,4.28,0,8.13-.04,11.38v2.31c-.04.67-.02,1.36.07,2.03.33,1.78,1.73,3.18,3.52,3.5.47.1.72.08.72.11-.24.03-.49.03-.73,0-.71-.11-1.37-.39-1.95-.81-.93-.66-1.57-1.65-1.8-2.76-.09-.69-.12-1.38-.1-2.08v-2.31c0-3.25,0-7.11-.05-11.38v-6.72c-.06-1.25.39-2.47,1.24-3.4,1.74-1.89,4.67-2.01,6.56-.27.1.09.19.18.27.27.85.93,1.28,2.15,1.24,3.4v6.72c0,4.28,0,8.13-.05,11.38v2.31c.02.7,0,1.39-.11,2.08-.23,1.11-.87,2.11-1.8,2.76-.57.42-1.24.71-1.94.81-.28.04-.55.04-.83,0h0Z"/>
    <path class="st0" d="M494.9,161.82h0c-2.45,0-4.43-1.98-4.44-4.42v-21.88c0-2.45,1.98-4.44,4.44-4.44h0c2.45,0,4.44,1.98,4.44,4.44h0v21.87c0,2.45-1.98,4.43-4.42,4.44h-.02Z"/>
    <path class="st4" d="M494.9,161.82s.25,0,.72-.11c1.79-.33,3.19-1.72,3.53-3.5.07-.67.1-1.36.07-2.03v-2.31c0-3.25,0-7.11-.05-11.38v-6.72c.05-1.15-.36-2.26-1.13-3.11-.8-.87-1.93-1.37-3.11-1.37s-2.3.5-3.11,1.36c-.77.85-1.18,1.97-1.13,3.11v6.72c0,4.28,0,8.13-.05,11.38v2.31c-.03.67,0,1.36.07,2.03.34,1.78,1.74,3.17,3.53,3.5.46.1.72.08.72.11-.24.03-.49.03-.73,0-.71-.11-1.37-.39-1.94-.81-.93-.66-1.58-1.65-1.8-2.76-.1-.69-.13-1.38-.11-2.08v-20.41c-.05-1.25.39-2.47,1.24-3.4,1.74-1.89,4.67-2.01,6.56-.27.1.09.19.18.27.27.85.93,1.29,2.15,1.24,3.4v6.72c0,4.28,0,8.13-.04,11.38v2.31c.02.7,0,1.39-.11,2.08-.22,1.11-.86,2.11-1.8,2.76-.57.42-1.24.71-1.94.81-.29.05-.59.05-.89,0Z"/>
    <path class="st4" d="M194.06,92.49c1.86-1.14,2.45-3.57,1.32-5.43-.18-.29-.39-.56-.64-.8-.67-.65-1.57-1.05-2.2-1.75-.48-.62-.89-1.28-1.24-1.98-1.4-2.13-3.73-3.46-6.28-3.58-2.53-.1-5.01.74-6.96,2.36-.7.69-1.53,1.24-2.44,1.63-.94.17-1.91.21-2.87.12-3.62.1-6.47,3.11-6.37,6.73.03,1.15.37,2.27.97,3.24-2.89,1.15-4.32,4.42-3.17,7.32.88,2.22,3.05,3.64,5.43,3.56,1.61-.17,3.17-.66,4.58-1.44,5.97-2.8,12.24-4.89,18.7-6.23"/>
    <path class="st3" d="M168.83,133.37c-3.23-3.46-5.13-7.95-5.38-12.67-.24-4.68.44-10.57,3.25-14.26-2.05-2.16-1.24-4.61.18-7.23s3.97-4.45,6.62-5.8c3.97-2.02,8.32-3.2,12.76-3.45,3.62-.2,8.44.35,8.94,2.95.39,1.41-.06,2.91-1.15,3.88,2.52.8,4.84,2.15,6.78,3.94,4.58,4.27,6.4,8.62,5.86,13.51s-1.54,8.7-4.42,11.83"/>
    <path class="st10" d="M199.5,131.88c.5-.52,1.12-.91,1.8-1.14h-.18c.12-.03.25-.05.38-.06.47-.13.98-.06,1.39.2h0c.78.29,1.41.88,1.77,1.63.59,1.33.37,2.89-.54,4.02-.75,1.02-2.02,1.51-3.25,1.27-1.11-.37-1.94-1.3-2.19-2.44-.34-1.22-.03-2.54.81-3.48Z"/>
    <path class="st2" d="M201.84,116.05c-.44-6.21-4.61-13.82-10.79-13.11l-19.31,5.02c-1.89.2-3.31,1.81-3.25,3.71l2.38,46.63h-.13s4.46,13.13,17.23,9.06c2.53-.81,3.67-3.58,4.16-6.44h.13v-.98c.24-2.13.26-4.28.05-6.41h0c0-3.76,0-5.31,0-5.27s7.93-1.37,9.51-11.75c.81-5.11.5-13.56.02-20.47h0Z"/>
    <path class="st4" d="M198.14,123.92c0,.72-.55,1.32-1.28,1.35-.69.07-1.31-.45-1.37-1.14v-.05c-.02-.72.55-1.32,1.27-1.35.7-.06,1.32.46,1.38,1.16v.02h0Z"/>
    <path class="st4" d="M200.03,120.47c-.16.17-1.18-.57-2.6-.55s-2.48.74-2.63.56.09-.39.54-.72c.62-.44,1.35-.67,2.11-.67s1.47.23,2.07.66c.44.33.59.62.51.72Z"/>
    <path class="st4" d="M184.73,123.92c.02.72-.55,1.32-1.28,1.35-.7.06-1.31-.46-1.37-1.15v-.03c-.02-.72.55-1.32,1.27-1.35.7-.06,1.32.46,1.38,1.16v.02h0Z"/>
    <path class="st4" d="M185.98,120.83c-.16.18-1.18-.56-2.61-.54s-2.44.73-2.63.56.09-.39.54-.73c.62-.43,1.35-.66,2.11-.66.74-.02,1.47.22,2.07.65.44.33.59.65.51.72Z"/>
    <path class="st4" d="M191.24,131.4c.76-.24,1.54-.39,2.32-.44.37-.04.71-.11.76-.37.03-.37-.05-.76-.24-1.08-.35-.88-.72-1.8-1.11-2.77-1.52-3.95-2.63-7.19-2.44-7.26s1.53,3.1,3.06,7.05l1.02,2.77c.24.44.31.94.2,1.43-.11.26-.33.46-.6.54-.2.06-.41.09-.62.09-.78.11-1.58.13-2.37.04h0Z"/>
    <path class="st1" d="M192.34,148.32c-4.88.12-9.69-1.11-13.9-3.57,0,0,3.41,7.1,13.82,6.06l.08-2.49Z"/>
    <path class="st1" d="M191.05,134.8c-.66-.95-1.75-1.52-2.9-1.52-.76.02-1.46.41-1.88,1.04-.42.72-.4,1.61.05,2.31.54.72,1.46,1.05,2.32.81.8-.26,1.51-.72,2.1-1.32.19-.15.34-.33.45-.54.11-.24.1-.51-.06-.72"/>
    <path class="st4" d="M187.04,132.42c.23,0,.24,1.54,1.58,2.63s2.99.91,3,1.13c0,.1-.37.3-1.06.33-.9.03-1.79-.25-2.5-.81-.68-.54-1.12-1.34-1.23-2.2-.07-.69.11-1.07.22-1.06h0Z"/>
    <path class="st4" d="M186.53,116.95c-.14.39-1.57.21-3.25.43s-3.03.67-3.25.33c-.1-.16.13-.53.67-.91,1.48-.95,3.32-1.16,4.97-.58.59.24.91.54.85.73Z"/>
    <path class="st4" d="M199.5,116.3c-.25.33-1.24,0-2.44,0s-2.19.23-2.44-.11c-.1-.17.06-.5.5-.81.58-.38,1.27-.57,1.96-.54.7,0,1.37.23,1.93.64.44.36.58.69.49.82h0Z"/>
    <path class="st3" d="M192.45,105.89s-9.75-.15-17.07,10.84c-4.88,7.23-5.87,16.31-5.87,16.31l-3.76-17.28,2.81-7.88,6.71-3.77,12.75-.72,4.8,2.34"/>
    <path class="st3" d="M173.39,106.8c15.48-3.73,27.87,1.37,30.17,13.57l3.15-7.99-8.09-9.73-8.81-2.29-17.76,2.7,1.34,3.75Z"/>
    <path class="st10" d="M167.13,131.92c.54-.56,1.2-.98,1.94-1.23h-.15c.14-.03.28-.05.41-.07.5-.14,1.05-.06,1.5.22h0c.83.32,1.5.93,1.9,1.73.63,1.44.4,3.11-.59,4.32-1.02,1.48-3.04,1.86-4.52.85-.71-.49-1.19-1.23-1.36-2.07-.38-1.32-.06-2.73.85-3.76h0Z"/>
    <path class="st5" d="M170.79,126.39c-.24-.02-.49-.11-.69-.25-1.5-.9-2.25-2.66-1.87-4.37.12-.55.33-1.1.42-1.63.12-.55-.03-1.13-.41-1.54-.46-.39-.96-.71-1.51-.94-.54-.27-1.02-.64-1.41-1.1-.65-.79-1.03-1.75-1.11-2.76-.06-.67.04-1.36.3-1.98.08-.24.2-.46.37-.63-.33.82-.45,1.71-.37,2.58.11.93.5,1.82,1.11,2.54.37.41.81.75,1.31.98.59.25,1.15.59,1.63,1.02.48.5.67,1.22.52,1.9-.11.62-.33,1.16-.46,1.67-.24.92-.11,1.89.34,2.71.3.56.72,1.05,1.24,1.42.2.11.41.24.59.37h0Z"/>
    <path class="st5" d="M168.09,105.31c-.31.77-.47,1.6-.46,2.44.04.89.32,1.76.81,2.5.67.86,1.5,1.59,2.44,2.15.5.36.92.81,1.23,1.34.27.52.38,1.11.33,1.68-.17.89-.29,1.8-.35,2.7,0,.6.22,1.18.62,1.63.3.29.56.32.55.37-.07.02-.12.02-.19,0-.17-.04-.33-.11-.47-.23-.49-.44-.78-1.05-.81-1.71.02-.92.11-1.84.26-2.75.04-.5-.07-1.02-.3-1.46-.28-.47-.67-.88-1.12-1.19-.98-.6-1.84-1.37-2.54-2.28-.5-.8-.76-1.75-.76-2.7,0-.63.13-1.26.39-1.85.19-.46.36-.65.37-.63Z"/>
    <path class="st5" d="M178.98,112.67s-.11.16-.41.1c-.18-.04-.33-.15-.45-.28-.15-.19-.24-.42-.24-.67.07-.54.16-1.09.28-1.63.04-.54-.44-1.02-1.05-1.32-.65-.27-1.22-.69-1.67-1.23-.35-.46-.59-.99-.7-1.56-.14-.51-.08-1.06.15-1.54,0,.5.06.98.14,1.47.14.5.37.98.71,1.38.44.48.98.85,1.58,1.1.34.16.64.39.89.67s.37.66.35,1.04c-.07.69-.37,1.16-.37,1.63-.04.33.13.66.43.81.21.06.36,0,.37.02Z"/>
    <path class="st5" d="M181.94,104.24s.1,0,.22.08c.15.16.22.38.19.6-.06.28-.14.55-.25.81-.08.28-.08.59,0,.88.17.54.46,1.05.86,1.46.31.35.5.58.46.62s-.29-.1-.67-.4c-.51-.4-.89-.95-1.06-1.58-.09-.37-.07-.75.06-1.11.12-.32.28-.54.33-.72.05-.22,0-.46-.12-.64Z"/>
    <path class="st5" d="M197.43,98.59s0,.16-.17.41-.38.59-.6,1.02c-.25.5-.3,1.09-.13,1.63.26.7.43,1.42.5,2.16.02.77-.21,1.54-.63,2.18-.34.53-.81.95-1.37,1.24-.48.31-1.06.43-1.63.36.51-.15,1.02-.37,1.49-.62,1.09-.67,1.75-1.87,1.73-3.15-.07-.71-.22-1.41-.45-2.08-.18-.62-.09-1.28.24-1.85.22-.34.46-.67.73-.98.17-.23.27-.35.3-.33h0Z"/>
    <path class="st5" d="M204.8,105.83c.07.07-.46.31-.65,1.07-.1.4-.28.87-.43,1.37-.13.59-.33,1.16-.57,1.71-.54,1.02-1.57,1.68-2.72,1.76-.46.07-.93-.02-1.32-.28.43.02.86.02,1.29,0,1-.16,1.87-.77,2.35-1.67.24-.53.42-1.07.57-1.63.18-.54.39-.95.52-1.35.11-.33.32-.61.59-.81.24-.16.36-.2.37-.18h0Z"/>
    <path class="st5" d="M206.21,116.2s0,.27-.21.59c-.63.87-1.77,1.17-2.74.72-.36-.17-.5-.37-.47-.41.6.19,1.24.24,1.86.14,1.01-.27,1.46-1.11,1.56-1.04Z"/>
    <path class="st5" d="M188.22,97.04c.04.07-.44.31-.87.99-.56.88-.66,1.98-.26,2.93.33.53.54,1.14.59,1.76-.03.53-.23,1.03-.57,1.44-.55.67-1.03.92-1.06.89s.36-.39.81-1.06c.26-.37.41-.81.42-1.27-.07-.58-.27-1.14-.59-1.63-.26-.59-.33-1.24-.21-1.88.1-.5.31-.98.62-1.4.54-.67,1.11-.83,1.11-.79h0Z"/>
    <path class="st5" d="M178.47,104.51c-.12-.05.2-.98.2-2.15s-.28-2.1-.16-2.15c.8,1.32.78,2.98-.04,4.29Z"/>
    <path class="st5" d="M171.27,103.52s.09-.11.18-.32c.12-.29.15-.62.08-.93-.15-.81-.96-1.71-1.63-2.87-.33-.55-.54-1.17-.63-1.81-.08-.54,0-1.09.24-1.58.15-.35.4-.63.73-.81.24-.11.39-.08.39-.06s-.12.07-.31.2c-.25.2-.44.46-.54.76-.33,1.06-.16,2.2.46,3.11.64,1.11,1.46,2.07,1.57,3.03.06.37-.02.75-.23,1.06-.15.19-.3.22-.31.2h0Z"/>
    <path class="st5" d="M181.13,98.85s.07-.13.22-.32c.24-.21.4-.5.46-.81-.1-.46-.34-.87-.69-1.18-.38-.41-.89-.81-1.4-1.23-.54-.41-.93-.98-1.1-1.63-.04-.55.1-1.1.38-1.57.2-.44.5-.83.86-1.15-.16.44-.36.87-.59,1.28-.22.43-.31.9-.27,1.38.19.54.53,1.02.99,1.37.97.81,2.07,1.63,2.11,2.75-.09.37-.33.69-.64.9-.19.15-.3.22-.33.2Z"/>
    <path class="st5" d="M190.72,97.14c.28-.25.47-.57.56-.93.07-.39.02-.79-.15-1.15-.21-.46-.46-.91-.76-1.32-.32-.45-.54-.96-.65-1.5-.06-.46.05-.94.29-1.34.38-.7.94-.81.94-.75-.29.24-.52.54-.67.89-.17.35-.24.75-.17,1.13.12.49.33.94.62,1.35.31.44.56.91.76,1.41.17.43.2.91.07,1.36-.08.31-.27.57-.53.76-.19.11-.31.12-.32.1h0Z"/>
    <path class="st4" d="M194.05,96.79c-.39.06-.79.08-1.19.06-.76,0-1.85,0-3.25.12-3.52.27-6.98,1.06-10.27,2.36-3.26,1.36-6.38,3.03-9.31,5.01l-2.68,1.8c-.32.24-.65.45-1,.63.28-.28.59-.54.91-.76.59-.47,1.48-1.12,2.6-1.9,2.9-2.06,6.03-3.8,9.32-5.16,3.32-1.32,6.84-2.08,10.4-2.26,1.08-.06,2.17-.06,3.25,0,.41,0,.8.05,1.2.12h0Z"/>
    <path class="st4" d="M169.61,106.39h.1l.29-.12.46-.21.65-.24c1.39-.51,2.83-.86,4.3-1.03,2.16-.27,4.34-.27,6.5,0,1.23.15,2.5.38,3.83.65s2.67.6,4.06,1.02c5.5,1.63,9.75,5.06,11.65,8.25.76,1.27,1.34,2.63,1.71,4.06.13.5.21.9.27,1.17l.07.31v.11-.11c0-.11,0-.19-.04-.32,0-.27-.11-.67-.23-1.19-.33-1.46-.87-2.85-1.63-4.13-1.89-3.25-6.18-6.78-11.72-8.39-1.37-.42-2.74-.75-4.06-1.02s-2.61-.5-3.84-.63c-2.19-.28-4.41-.28-6.59,0-1.49.21-2.94.6-4.33,1.17l-.64.27-.46.23-.28.15s-.06,0-.06.02h0Z"/>
    <path class="st4" d="M189.87,106.41c-.11-.02-.22-.02-.33,0-.23,0-.54.06-.96.13-1.17.22-2.3.6-3.37,1.12-3.5,1.8-6.53,4.41-8.81,7.61-1.24,1.76-2.32,3.63-3.25,5.57-.8,1.57-1.5,3.18-2.1,4.83-.41,1.11-.74,2.25-.99,3.41-.08.41-.14.73-.16.95,0,.11,0,.22,0,.33.03-.11.06-.21.07-.33,0-.22.11-.54.2-.94.28-1.15.63-2.28,1.06-3.37.63-1.63,1.34-3.24,2.14-4.79.93-1.93,2.02-3.77,3.25-5.52,2.27-3.18,5.24-5.78,8.69-7.6,1.06-.53,2.17-.93,3.32-1.19.41-.08.72-.15.94-.17l.3-.05h0Z"/>
    <polygon class="st2" points="147.29 320.09 158.64 413.72 174.2 413.72 173.77 315.28 147.29 320.09"/>
    <path class="st2" d="M193.52,318.52l-.33,26.75c-1.7,3.63-23.47,43.81-23.47,43.81l-9.93-20.57,22.15-47.37,11.58-2.62Z"/>
    <path class="st1" d="M174.1,331.46c.14,0,.26,18.05.26,40.3s-.12,40.31-.26,40.31-.26-18.05-.26-40.31.11-40.3.26-40.3Z"/>
    <path class="st3" d="M174.74,411.37h0s18.09,5.81,18.35,8.84l-34.77.54-.2-8.31,1.28.25c5.14.99,10.45.54,15.33-1.32Z"/>
    <g class="st7">
      <path class="st5" d="M162.18,413.95c-.67.16-1.09.82-.96,1.5.24.67.94,1.04,1.63.88.72-.18,1.17-.9,1-1.63-.33-.66-1.09-.98-1.79-.74"/>
    </g>
    <g class="st7">
      <path class="st5" d="M158.32,420.76l.05-2.58,33.33.45s1.56.59,1.41,1.59l-34.78.54Z"/>
    </g>
    <path class="st4" d="M175.3,411.21c0,.15-.81.24-1.68.75s-1.26,1.17-1.41,1.11.08-.96,1.09-1.56,2.04-.45,2.01-.3h0Z"/>
    <path class="st4" d="M178.96,412.53c0,.15-.68.43-1.25,1.09s-.72,1.37-.89,1.36-.29-.88.42-1.69,1.71-.9,1.72-.76h0Z"/>
    <path class="st4" d="M181.11,416.49c-.15,0-.41-.74,0-1.63s1.21-1.2,1.28-1.08-.41.59-.74,1.3-.37,1.39-.54,1.41h0Z"/>
    <path class="st4" d="M174.91,411.13c-.57.14-1.17.14-1.74,0-.63-.09-1.24-.25-1.84-.49-.35-.13-.68-.28-1.01-.46-.2-.1-.37-.22-.53-.37-.23-.21-.27-.55-.1-.81.18-.23.45-.37.74-.37.22,0,.44.02.66.07.37.08.73.19,1.08.33.59.23,1.13.54,1.63.93.81.67,1.11,1.24,1.05,1.28s-.48-.42-1.31-.98c-.49-.33-1.02-.58-1.57-.77-.33-.11-.66-.2-1-.27-.37-.08-.68-.08-.81.07s0,.08,0,.18c.12.11.25.2.4.26.3.17.61.33.93.47.54.24,1.11.42,1.69.56.59.07,1.16.2,1.73.37h0Z"/>
    <path class="st4" d="M174.7,411.37c-.33-.44-.5-.98-.49-1.53-.04-.59.02-1.18.2-1.74.11-.34.25-.67.43-.98.2-.44.62-.75,1.1-.81.31,0,.59.16.73.43.1.19.15.38.19.59.06.35.06.72,0,1.06-.09.59-.34,1.15-.72,1.63-.66.81-1.37,1.03-1.38.98s.53-.38,1.03-1.18c.29-.46.47-.97.52-1.5.03-.31.02-.62-.05-.92-.06-.34-.2-.61-.34-.57s-.46.25-.59.53c-.17.28-.32.57-.42.87-.18.51-.28,1.05-.3,1.59,0,.94.18,1.56.09,1.56h0Z"/>
    <path class="st10" d="M170.33,150.65c-1.84.53-6.61,3.49-11.82,11.09s-5.26,22.62-2.85,35.11c1.97,10.24,3.42,14,2.85,19.01-.29,2.56-14.38,23.87-16.57,37.16l53.49-14.88,7.6-74.16-10.57-9.98-22.23-8.19.1,4.84h0Z"/>
    <path class="st4" d="M172.62,156.83c-1.14,0-2.28.09-3.41.27-5.59,1.02-9.71,5.82-9.87,11.51,0,1.14.07,2.28.25,3.41-.14-.28-.24-.58-.28-.89-.19-.83-.28-1.67-.27-2.53,0-5.89,4.29-10.9,10.11-11.79.84-.14,1.69-.18,2.54-.12.32,0,.63.06.93.15h0Z"/>
    <path class="st4" d="M191.27,159.5c-.28-.09-.56-.22-.81-.38l-2.15-1.15c-1.82-.97-4.35-2.27-7.23-3.51-2.46-1.06-4.97-1.98-7.54-2.75-1.98-.59-3.25-.88-3.2-.95.3,0,.6.05.89.12.57.1,1.38.28,2.38.54,2.61.69,5.16,1.58,7.63,2.65,2.47,1.07,4.88,2.28,7.21,3.64.89.51,1.63.95,2.09,1.27.26.15.51.32.73.52h0Z"/>
    <path class="st2" d="M217.9,147.02c-.59-1.11-1.67-1.88-2.91-2.09-.67-.08-1.37,0-2.02-.09-.69-.22-1.37-.49-2.02-.81-1.15-.4-2.41-.31-3.49.24-1.54-.76-3.41-.11-4.16,1.43-.04.09-.08.19-.12.28l6.16,5.27c.26.89.31,1.83.13,2.74-.17.91-.14,1.85.11,2.75.28.91,1.16,1.5,2.11,1.42,1.05-.2,1.53-1.41,1.79-2.44.46-1.89.79-3.8.96-5.74-.07.77,0,1.56.21,2.31.23.76.85,1.32,1.63,1.47.76.03,1.46-.36,1.84-1.02.36-.66.54-1.39.54-2.14.08-1.24-.18-2.48-.75-3.58h0Z"/>
    <path class="st10" d="M161.05,182.64c.25.55,12.19,40.16,20.85,43.77.32.14.63.26.93.37,5.12,1.85,10.77-.81,12.62-5.93.06-.17.11-.33.17-.5,2.84-9.4,8.69-30.51,8.69-44.52l-11.9-5.13-6.23,23.74s-4.6-6.54-4.8-13.39-4.02-24.34-14.08-22.53c0-.02-14.49,5.82-6.24,24.13Z"/>
    <path class="st4" d="M181.99,209.63c-.13-.17-.23-.37-.28-.58-.2-.55-.33-1.13-.4-1.72-.2-1.93.03-3.87.7-5.69.67-1.8,1.55-3.54,2.62-5.14.4-.69.86-1.34,1.38-1.94-.32.73-.7,1.43-1.13,2.1-.97,1.63-1.78,3.34-2.44,5.12-.65,1.77-.93,3.67-.81,5.55.1,1.41.44,2.27.37,2.29h0Z"/>
    <path class="st2" d="M193.03,171.03l1.24-6.36s-3.06-6-3.36-7.85-.49-6.19-.49-6.19l2.58-2.01,2.33-.64s1.07-3.25,2.54-2.73c.85.27,1.58.81,2.06,1.56,0,0,1.85-1.95,3.02-1.63s.81,1.12.81,1.12c0,0,1.11-1.63,2.09-1.16.57.28,1.05.72,1.37,1.26,0,0,1.76-1.82,2.83-1.35s.98,10.57,0,13.49-4.97,9.83-4.97,9.83l-1.69,7.05-10.36-4.38h0Z"/>
    <path class="st1" d="M205.11,168.38c.07-.17.15-.33.24-.49l.74-1.39c.64-1.21,1.63-2.97,2.67-5.21.27-.56.54-1.15.81-1.79.28-.64.5-1.32.63-2.01.26-1.56.41-3.14.45-4.71.07-1.77.03-3.54-.11-5.31-.04-.46-.11-.92-.2-1.37-.04-.22-.11-.44-.2-.64-.02-.07-.07-.15-.13-.2-.08-.04-.16-.06-.25-.07-.45.02-.88.18-1.24.45-.41.27-.78.58-1.12.92l-.2.2-.14-.24c-.16-.29-.38-.54-.64-.76-.24-.23-.54-.38-.85-.47-.59,0-1.19.59-1.63,1.15l-.86,1.19.5-1.39c.06-.17.02-.36-.1-.5-.15-.16-.35-.28-.57-.33-.47-.08-.96.04-1.34.33-.55.34-1.06.75-1.51,1.21l-.19.2-.15-.24c-.29-.46-.68-.83-1.15-1.1-.23-.14-.47-.25-.72-.34-.21-.09-.44-.09-.65,0-.44.27-.8.65-1.02,1.11-.27.46-.49.93-.67,1.43v.11h-.11l-2.33.63h.07l-2.6,2.02.07-.16c.07,1.5.15,2.93.27,4.3.06.68.11,1.36.23,1.99.15.61.34,1.21.58,1.79.92,2.29,1.89,4.27,2.69,5.92v.04h0c-.41,1.98-.74,3.55-.98,4.67-.11.51-.2.92-.28,1.24-.02.15-.07.28-.11.42,0-.15.02-.29.05-.44.06-.32.13-.73.21-1.24.21-1.13.5-2.71.86-4.7v.07c-.81-1.63-1.84-3.6-2.79-5.9-.25-.6-.46-1.21-.61-1.85-.12-.67-.18-1.33-.24-2.02-.12-1.37-.22-2.81-.29-4.32v-.1l.08-.07,2.58-2.01h.11l2.32-.65-.14.13c.19-.53.42-1.03.7-1.51.27-.54.69-.98,1.2-1.28.31-.13.66-.13.97,0,.28.1.55.22.81.37.53.31.97.74,1.29,1.26l-.33-.05c.49-.5,1.03-.93,1.63-1.28.49-.35,1.1-.48,1.69-.37.29.08.55.24.76.46.22.26.28.62.16.93l-.37-.2c.24-.33.5-.63.81-.89.32-.3.74-.46,1.18-.45.21.03.41.11.59.23.17.1.33.21.48.33.3.25.55.55.75.89l-.33-.05c.36-.37.76-.7,1.19-.98.43-.33.95-.5,1.49-.5.15,0,.3.04.44.11.13.1.23.23.28.38.1.23.18.47.22.72.09.47.15.94.2,1.42.13,1.78.15,3.57.07,5.36-.06,1.6-.22,3.19-.5,4.76-.14.71-.37,1.4-.67,2.06-.27.63-.56,1.23-.81,1.79-1.11,2.24-2.11,3.97-2.78,5.16l-.81,1.36c-.11.15-.24.29-.37.42h0Z"/>
    <path class="st1" d="M194.76,150.87c-.24-.49-.28-1.05-.12-1.57.15-.87.54-1.48.64-1.43s-.09.7-.23,1.5-.17,1.48-.29,1.5h0Z"/>
    <path class="st1" d="M200.01,149.25c-.11,0-.24-.58-.26-1.3s.04-1.31.15-1.32.24.58.27,1.3-.05,1.31-.16,1.32h0Z"/>
    <path class="st1" d="M203.46,149.49c-.12,0,0-.81.15-1.76,0-.59.09-1.18.26-1.75.24.57.3,1.19.15,1.8,0,.62-.2,1.22-.56,1.72Z"/>
    <path class="st1" d="M207.18,149.02c-.11-.04,0-.61,0-1.31s-.12-1.26,0-1.3.42.52.43,1.3c0,.78-.33,1.35-.43,1.31Z"/>
    <path class="st4" d="M177.3,162.73l.28.53c.17.35.43.88.7,1.59.79,2.08,1.34,4.24,1.63,6.45.46,2.85.61,6.37,1.41,10.35.46,2.11,1.07,4.19,1.82,6.21.79,2.28,1.85,4.46,3.14,6.5l-.29.06c1.84-7.02,3.93-15.05,6.2-23.75l.07-.22.21.09,11.92,5.11.12.06v.14c-.18,6.81-1,13.59-2.44,20.25-1.25,6.18-2.76,12.14-4.34,17.88l-1.21,4.23c-.34,1.41-.85,2.77-1.5,4.06-1.43,2.5-3.84,4.3-6.65,4.95-2.67.67-5.49.16-7.76-1.38-1.01-.8-1.89-1.75-2.64-2.8-.74-.99-1.42-2.02-2.06-3.09-2.24-3.91-4.22-7.97-5.91-12.14-3.16-7.62-5.3-13.95-6.75-18.32-.72-2.19-1.26-3.89-1.63-5.06-.17-.57-.3-1.01-.4-1.32s-.13-.46-.13-.46c.07.15.12.29.17.44l.44,1.31c.4,1.17.97,2.86,1.7,5.03,1.5,4.35,3.68,10.66,6.88,18.26,1.71,4.15,3.69,8.18,5.93,12.06.63,1.06,1.3,2.07,2.04,3.06.73,1.02,1.6,1.93,2.58,2.72,2.19,1.46,4.89,1.93,7.45,1.3,2.7-.64,5.02-2.37,6.39-4.78.64-1.28,1.13-2.62,1.46-4.01l1.21-4.23c1.58-5.69,3.07-11.66,4.32-17.83,1.44-6.63,2.25-13.38,2.44-20.17l.13.19-11.9-5.13.27-.14c-2.29,8.7-4.41,16.72-6.27,23.74l-.09.35-.2-.29c-1.3-2.06-2.36-4.27-3.15-6.57-.74-2.04-1.34-4.14-1.79-6.27-.81-4.01-.89-7.54-1.33-10.37-.28-2.19-.8-4.35-1.57-6.43-.2-.55-.41-1.1-.66-1.63-.14-.36-.21-.54-.21-.54h0Z"/>
    <path class="st4" d="M154.79,223.24s-14.04,14.9-17.2,31.46c-3.81,19.91,7.67,82.91,7.67,82.91,0,0,7.22,2.75,12.85,4.25,5.49,1.47,17.33-3.46,24.84-4.63,7.51-1.16,10.22,8.02,10.22,8.02,0,0,3.33-76.31,2.65-83.45s0-29.44,0-29.44l-41.02-9.13h0Z"/>
    <path class="st10" d="M195.84,232.38c-.02.1-.05.2-.08.29l-.27.85c-.25.76-.61,1.85-1.07,3.25-.94,2.82-2.32,6.89-4.06,11.9-1.75,5.01-3.93,10.95-6.43,17.52s-5.43,13.71-8.71,21.13-6.7,14.35-10,20.55l-2.5,4.49c-.41.73-.81,1.45-1.2,2.15s-.81,1.37-1.23,2.04l-2.35,3.87c-.76,1.24-1.56,2.37-2.28,3.49s-1.42,2.17-2.11,3.15l-2.01,2.72-1.74,2.37c-.54.72-1.09,1.34-1.55,1.92l-2.18,2.64-.57.68c-.07.08-.14.15-.21.22.06-.09.11-.17.18-.25l.54-.71c.5-.63,1.21-1.53,2.11-2.68.46-.59.99-1.22,1.52-1.94l1.72-2.39c.61-.86,1.27-1.77,1.97-2.75s1.35-2.06,2.07-3.16,1.5-2.26,2.26-3.5l2.32-3.88,1.22-2.04,1.19-2.15,2.49-4.49c3.25-6.21,6.65-13.15,9.96-20.55s6.16-14.56,8.72-21.09,4.73-12.48,6.5-17.48,3.25-9.06,4.21-11.85c.5-1.38.88-2.44,1.15-3.25l.31-.81c.03-.1.07-.19.12-.28h0Z"/>
    <path class="st10" d="M195.48,239.36c-.16.02-.32.02-.48,0h-1.38c-.6,0-1.33,0-2.18-.06s-1.83-.07-2.89-.16c-2.15-.14-4.68-.44-7.49-.81s-5.88-.98-9.07-1.63c-6.41-1.37-12.13-2.92-16.26-4.02l-4.88-1.34-1.32-.38c-.16-.03-.31-.09-.46-.16.16,0,.32.03.47.08l1.35.31,4.93,1.2c4.16,1.02,9.89,2.53,16.26,3.89,3.19.68,6.25,1.25,9.04,1.68s5.33.74,7.46.91c1.06.11,2.03.16,2.88.23s1.58.11,2.18.12l1.37.08c.16,0,.33.02.48.05h0Z"/>
    <path class="st10" d="M195.37,235.97v.31c0,.23,0,.54.06.92,0,.81.08,2,.11,3.54s0,3.42-.11,5.6c-.15,2.47-.53,4.93-1.16,7.32-.39,1.39-.89,2.75-1.5,4.06-.34.67-.67,1.37-1.08,2.03s-.81,1.34-1.31,2.01c-1.81,2.64-4.06,5.4-4.82,8.94s-.76,7.43-2.35,11.15-4.88,6.45-7.17,9.91c-1.17,1.68-1.86,3.65-2,5.69-.04,1.99.13,3.99.5,5.95.37,1.93.48,3.89.34,5.84-.13.96-.41,1.89-.81,2.76-.42.85-.97,1.62-1.63,2.3-1.28,1.24-2.71,2.32-4.27,3.2-1.44.83-2.82,1.76-4.13,2.78-2.53,2.02-3.71,4.88-4.72,7.41s-1.9,4.92-3.32,6.63c-1.15,1.5-2.69,2.66-4.45,3.36-1.11.45-2.34.53-3.5.23-.3-.08-.59-.2-.86-.33-.1-.04-.19-.09-.28-.15l.29.11c.28.12.57.22.86.28,1.15.27,2.35.16,3.43-.29,1.72-.71,3.21-1.86,4.32-3.35,1.37-1.68,2.23-4.06,3.25-6.6.5-1.35,1.11-2.67,1.79-3.94.38-.67.81-1.32,1.29-1.92.51-.62,1.08-1.19,1.7-1.71,1.32-1.03,2.71-1.98,4.15-2.83,1.53-.87,2.93-1.93,4.19-3.15.61-.66,1.12-1.4,1.52-2.2.37-.84.63-1.73.74-2.64.13-1.92,0-3.85-.36-5.74-.38-1.98-.55-4.01-.5-6.03.15-2.11.85-4.15,2.06-5.89,2.32-3.54,5.55-6.25,7.15-9.85s1.45-7.53,2.35-11.07c.42-1.74,1.13-3.41,2.09-4.92.9-1.48,1.91-2.81,2.83-4.14.46-.66.89-1.32,1.3-1.98s.74-1.34,1.08-2.01c.6-1.29,1.11-2.63,1.5-4,.64-2.38,1.05-4.82,1.22-7.28.16-2.17.19-4.06.19-5.58s0-2.7-.04-3.54v-.9c0-.11.02-.21.06-.31h0Z"/>
  </g>
  <g id="freepik--Plant--inject-201">
    <path class="st3" d="M587.1,396.95c-2.15-.11-2.78-3.14-1.98-5.14s2.38-3.77,2.44-5.92c0-1.87-1.17-3.57-1.28-5.43-.2-3.36,3.05-6.1,3.19-9.46.11-2.62-1.72-5.12-1.28-7.71.47-2.77,3.37-4.6,4.06-7.32.71-2.92-1.31-6-.54-8.89s4.17-5.01,3.69-7.96c-.29-.94-.63-1.87-1.02-2.78-.61-2.19.59-4.49,2.05-6.25s3.25-3.32,4.14-5.41c1.37-3.25.41-7.15,2.05-10.25,1.36-2.58,4.38-4.32,4.76-7.21,1.53,2.6,0,5.92.38,8.94.23,1.96,1.24,3.72,1.86,5.59,1.27,3.88.85,8.1-1.14,11.66-1.32,2.31-3.34,4.49-3.25,7.14.13,3.25,3.34,5.54,3.91,8.71.81,4.53-4.01,8.6-3.34,13.15.17,1.17.71,2.28.81,3.46.35,4.02-4.22,6.87-4.88,10.84-.51,2.93,1.18,5.96.48,8.84-.54,2.23-2.44,4.23-1.99,6.5.33.94.73,1.85,1.23,2.71.76,1.79.44,3.85-.81,5.34-1.32,1.45-3.41,1.88-5.19,1.06"/>
    <g class="st8">
      <path class="st5" d="M601.36,394.69c-.5-.86-.9-1.76-1.23-2.71-.47-2.24,1.45-4.23,1.99-6.5.7-2.89-.99-5.92-.48-8.84.69-3.97,5.26-6.82,4.88-10.84-.1-1.19-.63-2.29-.81-3.46-.67-4.55,4.15-8.62,3.34-13.15-.57-3.17-3.78-5.49-3.91-8.71-.1-2.65,1.93-4.83,3.25-7.14,1.99-3.55,2.41-7.78,1.14-11.66-.63-1.87-1.63-3.63-1.86-5.59-.35-3,1.15-6.32-.38-8.94-.38,2.89-3.41,4.63-4.76,7.21-1.63,3.11-.67,7.03-2.05,10.25-.9,2.1-2.68,3.66-4.14,5.41s-2.66,4.06-2.05,6.25c.39.91.72,1.84,1.02,2.78.48,2.95-2.92,5.07-3.69,7.96s1.24,5.97.54,8.89c-.66,2.73-3.56,4.56-4.06,7.32-.44,2.58,1.38,5.09,1.28,7.71-.14,3.37-3.39,6.1-3.19,9.46.11,1.86,1.3,3.56,1.28,5.43,0,2.15-1.63,3.93-2.44,5.92s-.17,5.03,1.98,5.14l8.36,4.23c1.78.81,3.87.38,5.19-1.06,1.25-1.49,1.57-3.55.81-5.34h0Z"/>
    </g>
    <path class="st3" d="M598.55,392.73c-.56-.96-.85-2.06-.81-3.18.23-1.23,2.3-2.31,2.82-4.4.67-2.71-.54-7.49,0-10.22.7-3.71,4.54-6.15,4.38-9.84-.05-1.08.11-3.97,0-5.05-.41-4.15,3.25-6.93,2.7-11.05-.37-2.88-3.35-6.25-3.36-9.2,0-2.44,1.75-4.58,2.91-6.79,1.75-3.32,2.22-7.16,1.32-10.8-.46-1.68-1.24-3.25-1.37-5.03-.2-2.74,1.15-5.89,0-8.19-.41,2.68-2.97,4.49-4.18,6.95-1.45,2.97-.81,6.5-2.02,9.57-.81,1.99-2.34,3.54-3.6,5.26s-2.32,3.9-1.89,5.89c.29.82.54,1.65.76,2.5.31,2.68-2.58,4.88-3.31,7.56s.81,5.43.17,8.13c-.64,2.57-3.15,6.05-3.63,8.63-.45,2.44,1.73,3.98,1.56,6.41-.22,3.11-3.33,6.86-3.25,9.94,0,1.71,1.46,2.26,1.39,3.97-.09,1.98-1.75,5.92-2.44,7.81-.79,1.74-.59,3.76.52,5.32l9.23,4.58c4-1.93,3.79-5.94,2.11-8.77h0Z"/>
    <path class="st4" d="M604.76,323.03v.8c0,.52,0,1.3-.1,2.3-.07,1.23-.35,2.43-.81,3.57-.54,1.36-1.69,2.57-2.78,3.97-.59.72-1.03,1.55-1.31,2.44-.28.94-.41,1.93-.34,2.91.11,2.08.75,4.25,1.05,6.62.19,1.22.15,2.47-.12,3.67-.15.63-.4,1.23-.72,1.78-.35.52-.67,1.06-.97,1.63-.41,1.21-.44,2.53-.06,3.75.13.64.28,1.31.36,1.99.07.69.06,1.39-.06,2.07-.26,1.34-.68,2.65-1.27,3.89-.55,1.18-1.02,2.39-1.43,3.63-.35,1.19-.46,2.45-.32,3.69.18,1.21.22,2.45.13,3.67-.21,1.15-.6,2.26-1.16,3.29-.51.95-.91,1.95-1.17,3-.39,2.04.2,3.99.15,5.8-.11,1.63-.46,3.22-1.06,4.73-.43,1.13-.73,2.31-.9,3.5-.1.76-.02,1.53.24,2.25.19.49.33.72.31.73-.15-.22-.28-.46-.38-.71-.28-.72-.38-1.51-.31-2.28.15-1.22.43-2.41.85-3.56.57-1.5.9-3.07.99-4.67,0-.89-.12-1.81-.22-2.79-.15-1.02-.15-2.06,0-3.08.41-2.14,1.97-3.97,2.29-6.28.08-1.19.03-2.4-.14-3.58-.15-1.28-.04-2.58.32-3.82.72-2.51,2.24-4.8,2.68-7.47.12-.64.15-1.29.11-1.94-.08-.66-.22-1.31-.36-1.96-.39-1.3-.37-2.69.09-3.97.3-.56.63-1.11,1-1.63.3-.52.54-1.09.68-1.67.26-1.16.3-2.37.12-3.55-.28-2.32-.92-4.51-1.01-6.65-.07-1.03.06-2.06.37-3.06.31-.89.77-1.72,1.38-2.44,1.12-1.41,2.25-2.58,2.8-3.89.47-1.11.77-2.29.88-3.5.11-.99.14-1.77.16-2.3v-.59c0-.1,0-.2.04-.29h0Z"/>
    <path class="st3" d="M573.91,398c-3.01.44-4.71-3.59-4.15-6.58s2.26-5.88,1.71-8.86c-.49-2.59-2.59-4.62-3.25-7.17-1.2-4.6,2.54-9.28,1.81-13.98-.57-3.66-3.77-6.62-3.87-10.33-.11-3.97,3.41-7.32,3.58-11.27.18-4.23-3.46-7.94-3.19-12.19s4.41-8.08,2.93-12.03c-.49-1.31-1.54-2.32-2.16-3.58-1.45-2.88-.41-6.38,1.12-9.22s3.58-5.48,4.24-8.63c1.03-4.88-1.37-10.01,0-14.76,1.17-3.95,4.88-7.19,4.62-11.31,2.84,3.19,1.63,8.19,2.98,12.26.81,2.65,2.74,4.82,4.11,7.24,2.82,5.02,3.41,10.98,1.63,16.45-1.19,3.56-3.4,7.13-2.53,10.78,1.05,4.42,6.15,6.77,7.8,11,2.37,6.06-3.2,13.01-1.02,19.14.56,1.58,1.63,2.97,2.06,4.58,1.58,5.48-3.97,10.67-3.84,16.37.1,4.19,3.25,7.93,3.09,12.12-.14,3.25-2.25,6.5-.98,9.5.54,1.29,1.63,2.25,2.44,3.41,1.53,2.27,1.67,5.21.35,7.61-1.42,2.37-4.21,3.54-6.9,2.9"/>
    <g class="st8">
      <path class="st5" d="M593.05,390.98c-.81-1.16-1.89-2.12-2.44-3.41-1.27-2.98.81-6.27.98-9.5.18-4.19-2.99-7.93-3.09-12.12-.13-5.69,5.41-10.89,3.84-16.37-.46-1.63-1.5-3-2.06-4.58-2.18-6.13,3.4-13.09,1.02-19.14-1.63-4.23-6.75-6.58-7.8-11-.87-3.65,1.34-7.22,2.53-10.78,1.78-5.47,1.19-11.44-1.63-16.45-1.37-2.44-3.25-4.59-4.11-7.24-1.31-4.06-.14-9.06-2.98-12.26.26,4.11-3.45,7.36-4.62,11.31-1.41,4.75.99,9.92,0,14.76-.67,3.15-2.71,5.8-4.24,8.63s-2.57,6.34-1.12,9.22c.63,1.25,1.67,2.27,2.16,3.58,1.48,3.95-2.65,7.82-2.93,12.03s3.37,7.94,3.19,12.19c-.17,3.97-3.68,7.32-3.58,11.27.1,3.71,3.3,6.67,3.87,10.33.73,4.7-3.02,9.38-1.81,13.98.67,2.55,2.77,4.58,3.25,7.17.55,2.98-1.15,5.88-1.71,8.86s1.14,7.01,4.15,6.58l12.59,3.49c2.69.64,5.48-.54,6.9-2.9,1.32-2.41,1.18-5.36-.37-7.63h0Z"/>
    </g>
    <path class="st3" d="M588.63,389.02c-.81-.91-2-2.92-2.02-4.18,0-1.76,2.55-3.83,2.7-6.86.19-3.93-2.8-10.23-2.84-14.16-.04-5.32,4.61-9.75,3.38-14.82-.37-1.49-.94-5.54-1.38-6.99-1.71-5.64,2.58-10.49.72-16.05-1.3-3.89-6.36-7.75-7.17-11.83-.67-3.38,1.16-6.82,2.16-10.2,1.53-5.07,1.12-10.53-1.14-15.33-1.1-2.2-2.61-4.15-3.25-6.58-1.02-3.75,0-8.49-2.29-11.34.17,3.84-2.88,7.02-3.88,10.77-1.19,4.5.71,9.24-.18,13.82-.58,2.98-2.27,5.54-3.54,8.27s-2.18,6.04-1.03,8.67c.5,1.14,1.34,2.05,1.72,3.25,1.16,3.63-2.24,7.43-2.51,11.38s2.66,7.32,2.44,11.25c-.18,3.72-2.71,9.23-2.66,12.95,0,3.46,3.5,5.04,3.92,8.44.54,4.37-2.74,10.43-1.8,14.68.52,2.36,2.65,2.72,3.02,5.12.42,2.77-.81,8.68-1.28,11.5s0,4.82,2.17,7.23l14.05,3.81c5.2-3.84,3.85-9.34.71-12.79h0Z"/>
    <path class="st4" d="M578.13,290.75c.33,1.43.58,2.88.72,4.33.21,1.72.15,3.45-.19,5.15-.24,1.06-.61,2.08-1.11,3.04-.5,1.03-1.11,2.07-1.67,3.2-.63,1.15-1.02,2.41-1.18,3.71-.14,1.41-.02,2.84.35,4.2.71,2.88,2.19,5.69,3.25,8.94.58,1.63.85,3.37.81,5.1-.05.9-.22,1.79-.51,2.64-.35.82-.65,1.66-.9,2.52-.43,1.74.23,3.55.95,5.25.36.87.74,1.74,1.03,2.66.29.93.46,1.9.5,2.88,0,1.92-.23,3.83-.7,5.69-.44,1.79-.76,3.61-.98,5.44-.09.89-.09,1.77,0,2.66.11.87.29,1.72.55,2.56.58,1.63.98,3.31,1.18,5.02.02,1.65-.21,3.3-.71,4.88-.46,1.46-.72,2.97-.81,4.49.04,1.42.29,2.83.75,4.18.42,1.26.77,2.54,1.06,3.84.22,1.19.28,2.41.17,3.63-.07,1.14-.21,2.21-.33,3.2-.28,1.69-.37,3.41-.28,5.11.08,1.08.41,2.12.95,3.06.4.63.67.91.65.93-.27-.28-.5-.57-.72-.89-.58-.93-.93-1.99-1.03-3.08-.12-1.72-.05-3.45.21-5.15.12-1,.25-2.06.31-3.19.1-1.19.03-2.39-.2-3.56-.24-1.23-.67-2.44-1.06-3.8-.48-1.37-.76-2.8-.81-4.26.08-1.54.36-3.08.81-4.56.48-1.54.71-3.15.68-4.76-.21-1.69-.61-3.35-1.18-4.95-.27-.85-.46-1.73-.56-2.62-.09-.91-.09-1.82,0-2.73.21-1.85.54-3.67.98-5.48.46-1.84.69-3.72.69-5.62-.04-.94-.2-1.87-.48-2.77-.28-.89-.66-1.76-1.02-2.63-.38-.86-.69-1.76-.92-2.67s-.25-1.88-.05-2.8c.26-.89.57-1.77.93-2.63.28-.82.45-1.67.5-2.54.03-1.69-.24-3.37-.81-4.97-1.04-3.15-2.52-6.01-3.25-8.94-.37-1.41-.49-2.86-.33-4.31.16-1.33.58-2.63,1.22-3.8.57-1.14,1.19-2.17,1.69-3.19.49-.94.86-1.94,1.11-2.98.34-1.67.43-3.4.24-5.1-.12-1.41-.3-2.49-.41-3.25-.05-.35-.1-.63-.13-.81s.02-.25.02-.25h0Z"/>
    <path class="st3" d="M572.03,399.99c-1.72.81-3.52-1.24-3.76-3.13s.22-3.96-.69-5.63c-.81-1.46-2.44-2.27-3.33-3.67-1.63-2.52-.28-6.05-1.63-8.71-1.05-2.08-3.54-3.25-4.32-5.44-.81-2.36.63-5.02,0-7.43-.71-2.57-3.6-4.06-4.25-6.67s1.07-5.69-.58-7.76c-.63-.61-1.29-1.19-1.98-1.72-1.42-1.44-1.48-3.74-1.11-5.69s1.08-3.97.87-5.99c-.32-3.1-2.76-5.73-2.83-8.84-.07-2.59,1.53-5.24.58-7.66,2.32,1.37,2.58,4.58,4.15,6.76,1.02,1.42,2.58,2.36,3.86,3.54,2.65,2.46,4.15,5.92,4.15,9.53,0,2.37-.65,4.93.57,6.94,1.49,2.44,4.99,2.86,6.8,5.07,2.58,3.17.6,8.41,3.08,11.66.64.81,1.54,1.46,2.13,2.34,2,2.98-.32,7.15.86,10.57.87,2.49,3.49,4.11,4.19,6.66.54,1.96-.09,4.34,1.24,5.88.66.59,1.37,1.11,2.12,1.57,1.37,1.06,2.02,2.8,1.68,4.49-.4,1.69-1.84,2.93-3.57,3.06"/>
    <g class="st8">
      <path class="st5" d="M582.12,392.08c-.76-.46-1.46-.98-2.12-1.57-1.33-1.54-.7-3.92-1.24-5.88-.71-2.55-3.32-4.17-4.19-6.66-1.18-3.39,1.14-7.57-.86-10.57-.59-.88-1.49-1.5-2.13-2.34-2.44-3.25-.5-8.49-3.08-11.66-1.8-2.21-5.31-2.63-6.8-5.07-1.22-2.02-.59-4.58-.57-6.94,0-3.62-1.5-7.07-4.15-9.53-1.28-1.18-2.84-2.11-3.86-3.54-1.56-2.18-1.83-5.41-4.15-6.76.95,2.44-.64,5.06-.58,7.66.07,3.11,2.51,5.75,2.83,8.84.21,2.02-.5,4-.87,5.99s-.32,4.29,1.11,5.69c.69.54,1.36,1.11,1.98,1.72,1.63,2.08-.07,5.19.58,7.76s3.54,4.1,4.25,6.67c.67,2.44-.81,5.07,0,7.43.81,2.2,3.25,3.36,4.32,5.44,1.34,2.67,0,6.19,1.63,8.72.89,1.39,2.54,2.19,3.33,3.66.91,1.67.45,3.74.69,5.63s2.04,3.97,3.76,3.13l8.21-.35c1.73-.14,3.17-1.37,3.57-3.06.31-1.67-.33-3.37-1.65-4.42h0Z"/>
    </g>
    <path class="st3" d="M579.1,391.76c-.85-.5-1.55-1.24-2.02-2.11-.36-1.05.81-2.79.28-4.63-.64-2.39-3.65-5.58-4.43-7.93-1.06-3.19.87-6.73-.81-9.53-.5-.81-1.63-3.13-2.18-3.92-2.11-3.04-.48-6.78-2.67-9.75-1.54-2.07-5.31-3.4-6.58-5.69-1.05-1.89-.62-4.31-.67-6.5-.07-3.32-1.37-6.51-3.64-8.94-1.08-1.11-2.37-1.98-3.25-3.31-1.33-2.05-1.63-5.07-3.56-6.35.81,2.27-.37,4.76-.24,7.2.15,2.93,2.2,5.39,2.56,8.3.23,1.89-.28,3.76-.53,5.63s-.12,4.06,1.07,5.39c.59.51,1.14,1.06,1.67,1.63,1.4,1.95.09,4.88.7,7.32s2.99,3.84,3.65,6.26c.61,2.26.16,6.05.91,8.26.69,2.06,3.06,2.34,3.97,4.29,1.17,2.51.38,6.77,1.76,9.14.76,1.31,2.11,1.12,2.8,2.49.81,1.57,1.2,5.35,1.45,7.13.14,1.69,1.17,3.18,2.7,3.9l9.14-.43c2.33-3.36.46-6.39-2.09-7.84h0Z"/>
    <path class="st4" d="M553.83,334.96s.07.1.1.15l.27.46c.23.41.56,1.02.93,1.84.46.99.76,2.05.89,3.13.04,1.44-.11,2.88-.44,4.28-.15.8-.15,1.63,0,2.44.19.87.53,1.69,1.02,2.44.98,1.57,2.44,2.98,3.67,4.68.67.87,1.18,1.85,1.5,2.91.15.55.22,1.12.21,1.7-.06.56-.07,1.12-.06,1.68.2,1.11.75,2.14,1.57,2.92.38.45.81.89,1.14,1.39.36.5.64,1.05.86,1.63.37,1.15.61,2.36.68,3.57.08,1.15.24,2.3.46,3.43.24,1.08.7,2.1,1.34,2.99.66.87,1.23,1.8,1.68,2.8.33.99.5,2.02.52,3.06,0,.96.14,1.91.39,2.83.57,1.74,1.86,3.02,2.61,4.44.63,1.31,1.03,2.7,1.22,4.14.15,1.06.43,2.11.81,3.11.25.62.65,1.18,1.15,1.63.35.29.57.42.55.44-.21-.11-.41-.24-.6-.38-.54-.44-.96-.99-1.24-1.63-.41-1.01-.71-2.06-.88-3.13-.2-1.41-.62-2.78-1.24-4.06-.73-1.37-2.05-2.63-2.67-4.47s-.2-3.93-.93-5.86c-.44-.96-.99-1.87-1.63-2.71-.67-.93-1.15-1.99-1.41-3.11-.54-2.26-.33-4.7-1.14-6.95-.2-.55-.47-1.07-.81-1.55s-.73-.92-1.11-1.37c-.86-.85-1.43-1.94-1.63-3.13-.02-.57,0-1.15.06-1.72.02-.54-.05-1.1-.19-1.63-.3-1.01-.79-1.96-1.43-2.8-1.23-1.68-2.67-3.11-3.66-4.72-.5-.78-.85-1.64-1.03-2.54-.16-.84-.16-1.69,0-2.53.34-1.38.51-2.8.5-4.22-.11-1.06-.38-2.11-.81-3.09-.34-.81-.66-1.43-.86-1.85-.1-.2-.17-.36-.24-.48-.05-.03-.09-.07-.12-.12h0Z"/>
    <polygon class="st10" points="558.89 392.75 562.45 399.98 605.78 399.98 610.66 392.75 558.89 392.75"/>
    <polygon class="st10" points="563.49 397.49 569.97 419.88 599.16 419.9 605.04 397.53 563.49 397.49"/>
    <path class="st4" d="M605.58,399.93c0,.1-9.66.18-21.59.18s-21.59-.08-21.59-.18,9.66-.19,21.59-.19,21.59.08,21.59.19Z"/>
  </g>
</svg>