<?xml version="1.0" encoding="UTF-8"?>
<svg id="Layer_1" xmlns="http://www.w3.org/2000/svg" version="1.1" viewBox="0 0 750 500">
  <!-- Generator: Adobe Illustrator 29.5.1, SVG Export Plug-In . SVG Version: 2.1.0 Build 141)  -->
  <defs>
    <style>
      .st0 {
        fill: none;
      }

      .st1 {
        fill: #e0e0e0;
      }

      .st2 {
        fill: #aa6550;
      }

      .st3 {
        fill: #b78876;
      }

      .st4 {
        fill: #4a9288;
      }

      .st5 {
        fill: #263238;
      }

      .st6 {
        fill: #fff;
      }

      .st7 {
        fill: #fafafa;
      }

      .st8 {
        opacity: .4;
      }

      .st9 {
        opacity: .3;
      }

      .st10 {
        fill: #f5f5f5;
      }

      .st11 {
        fill: #ebebeb;
        fill-rule: evenodd;
      }

      .st12 {
        fill: #455a64;
      }
    </style>
  </defs>
  <g id="freepik--background-complete--inject-95">
    <path class="st1" d="M495.6,30.14c0,1.61-1.3,2.91-2.91,2.91s-2.91-1.3-2.91-2.91,1.3-2.91,2.91-2.91,2.91,1.3,2.91,2.91h0Z"/>
    <path class="st1" d="M510.9,226.42v-1.6c0-1.07,0-2.62-.05-4.6,0-4,0-9.86-.07-17.13,0-14.59-.06-35-.09-58.19l.06.17-12.53-15.09-5.59-6.77-.06-.07v-.09c0-25.9.06-49,.08-65.59,0-8.28.06-15,.08-19.59,0-2.28,0-4.06.05-5.3v-1.84,7.14c0,4.63,0,11.31.08,19.59,0,16.62.05,39.69.09,65.59l-.06-.17,5.59,6.77,12.46,15.09.06.07v.09c0,23.23-.07,43.6-.09,58.19,0,7.27-.06,13.09-.08,17.13v5.79c0,.29.07.41.07.41Z"/>
    <path class="st0" d="M551,216.08c-.86,1.17-1.87,2.22-3,3.13l.77,3.92-6.05,2.69-2.39-3.21c-1.43.23-2.87.26-4.31.11l-2.23,3.32-6.17-2.38.57-4c-1.17-.86-2.22-1.87-3.12-3l-3.85.89-2.69-6,3.21-2.39c-.23-1.43-.27-2.87-.11-4.31l-3.36-2.3,2.38-6.17,4,.58c.85-1.17,1.86-2.23,3-3.13l-.77-3.92,6.05-2.69,2.39,3.21c1.43-.22,2.87-.26,4.31-.11l2.23-3.32,6.17,2.38-.58,4c1.17.86,2.22,1.87,3.13,3l3.92-.77,2.68,6-3.2,2.39c.22,1.43.26,2.87.11,4.31l3.32,2.23-2.38,6.17-4-.58-.03-.05ZM544.32,209.34c1.41-3.66-.41-7.77-4.07-9.18-3.66-1.41-7.77.41-9.18,4.07-1.41,3.66.41,7.77,4.07,9.18,3.66,1.41,7.77-.41,9.18-4.07,0,0,0,0,0,0Z"/>
    <path class="st1" d="M544.32,209.34c-.17.56-.43,1.1-.77,1.58-.91,1.36-2.27,2.35-3.84,2.81-1.08.33-2.22.4-3.33.2-1.28-.23-2.47-.8-3.46-1.65-.54-.45-1-.99-1.37-1.59-.4-.61-.7-1.29-.89-2-.86-3.07.4-6.34,3.1-8.05.61-.4,1.29-.7,2-.89.68-.19,1.38-.28,2.08-.25,3.95.05,7.12,3.3,7.07,7.25,0,.3-.03.59-.07.89-.07.59-.23,1.16-.49,1.69-.05,0,.21-.6.34-1.71.41-3.84-2.36-7.3-6.21-7.71-.21-.02-.41-.04-.62-.04-.68-.02-1.35.07-2,.26-.67.18-1.3.46-1.88.84-2.54,1.62-3.73,4.7-2.94,7.61.18.67.46,1.32.84,1.9.35.56.78,1.07,1.28,1.51,1.77,1.55,4.21,2.1,6.47,1.46,1.52-.43,2.86-1.36,3.79-2.63.66-.9.85-1.5.9-1.48Z"/>
    <path class="st1" d="M551,216.08h.25l.75.09,3,.4h-.07l2.29-6.12v.12l-3.33-2.21h-.06v-.07c.15-1.43.11-2.86-.12-4.28v-.08l.07-.05,3.2-2.4-.05.18-2.7-6,.18.1-3.92.78h-.1l-.06-.08c-.9-1.11-1.94-2.1-3.1-2.94l-.09-.06v-.11c.18-1.22.37-2.58.57-3.95l.12.19-6.18-2.37.22-.07-2.22,3.32-.07.1h-.11c-1.42-.15-2.85-.11-4.26.12h-.12l-.07-.09-2.39-3.21.24.07-6.05,2.68.12-.22c.24,1.24.51,2.57.77,3.92v.12l-.1.08c-1.11.89-2.1,1.93-2.94,3.08h0c-.08,0,.2-.08-.19.09h-.5l-.49-.07-1-.14-2-.29.22-.13c-.8,2.09-1.6,4.15-2.38,6.18l-.08-.24,3.32,2.22.1.07v.12c-.16,1.42-.12,2.85.1,4.26v.12l-.09.07-3.21,2.39.06-.24c.91,2.07,1.81,4.09,2.68,6.05l-.21-.1,3.92-.77h.11l.07.08c.89,1.12,1.93,2.11,3.09,2.95l.08.06v.11c-.2,1.35-.4,2.67-.59,3.95l-.1-.18,6.17,2.39-.19.06,2.24-3.31.05-.08h.08c1.42.16,2.86.13,4.28-.09h.08l.05.07c.86,1.17,1.64,2.22,2.38,3.21h-.15l6.06-2.66-.05.1c-.3-1.57-.54-2.86-.75-3.93h0c.85-.67,1.63-1.43,2.34-2.25l.51-.62c.05-.07.11-.14.17-.21l-.14.23c-.11.14-.26.36-.49.64-.68.85-1.45,1.62-2.3,2.31v-.06l.8,3.91v.08h-.06l-6,2.71h-.09l-.06-.07c-.74-1-1.52-2-2.4-3.2l.13.05c-1.44.24-2.9.28-4.35.12l.14-.06-2.22,3.32-.07.11-.11-.05-6.18-2.36-.13-.05v-.14c.18-1.28.37-2.6.57-4l.07.16c-1.18-.85-2.25-1.86-3.16-3l.18.07-3.93.77h-.14l-.07-.13-2.52-6.17-.07-.14.13-.09,3.2-2.4-.07.19c-.24-1.44-.28-2.91-.12-4.36l.09.18-3.32-2.22-.14-.09.06-.15c.78-2,1.58-4.09,2.38-6.18l.06-.15h.16l2,.28,1,.15.5.07h.5l-.2.09h0c.86-1.18,1.87-2.24,3-3.16l-.07.2c-.26-1.35-.53-2.68-.77-3.92v-.16l.15-.07,6.05-2.68.14-.06.1.12,2.38,3.21-.18-.07c1.44-.23,2.91-.27,4.36-.11l-.18.08,2.23-3.31.08-.13.14.06,6.18,2.38.13.05v.15c-.2,1.38-.4,2.73-.58,3.95l-.07-.16c1.18.86,2.24,1.87,3.15,3l-.17-.06,3.93-.77h.13l.05.11c.93,2.13,1.83,4.15,2.67,6.06v.1l-.09.07-3.21,2.38.05-.12c.23,1.44.26,2.9.09,4.34l-.05-.11,3.31,2.24.07.05v.07c-1,2.51-1.79,4.59-2.41,6.16v.05h0l-2.93-.47-.76-.12h-.4Z"/>
    <path class="st11" d="M582.22,159.31c-1.33,1.85-2.91,3.51-4.69,4.93l1.22,6.19-9.53,4.23-3.78-5.1c-2.25.36-4.54.42-6.8.17l-3.52,5.24-9.74-3.75.92-6.24c-1.85-1.34-3.5-2.92-4.93-4.7l-6.15,1.28-4.24-9.54,5.06-3.77c-.36-2.25-.41-4.54-.17-6.8l-5.24-3.51,3.76-9.74,6.24.91c1.34-1.85,2.91-3.5,4.69-4.93l-1.22-6.19,9.54-4.23,3.77,5.06c2.25-.36,4.54-.42,6.81-.17l3.51-5.24,9.74,3.75-.91,6.24c1.85,1.34,3.5,2.92,4.93,4.7l6.19-1.23,4.23,9.55-5.06,3.77c.36,2.25.41,4.54.17,6.8l5.24,3.51-3.76,9.74-6.24-.91-.04-.02ZM571.68,148.67c2.23-5.77-.64-12.25-6.41-14.48-5.77-2.23-12.25.64-14.48,6.41s.64,12.25,6.41,14.48c0,0,.02,0,.02,0,5.77,2.21,12.23-.66,14.46-6.42Z"/>
    <circle class="st1" cx="204.53" cy="194.95" r="3"/>
    <path class="st1" d="M204.53,290.14c-.14,0-.26-20.82-.26-46.5s.12-46.51.26-46.51.26,20.81.26,46.51-.11,46.5-.26,46.5Z"/>
    <path class="st1" d="M316.69,50.56c0,1.66-1.34,3-3,3s-3-1.34-3-3,1.34-3,3-3,3,1.34,3,3Z"/>
    <path class="st1" d="M313.69,241.69c-.15,0-.26-42.3-.26-94.46s.11-94.48.26-94.48.26,42.29.26,94.48-.12,94.46-.26,94.46Z"/>
    <path class="st1" d="M156.46,162.61c0,1.77-1.44,3.21-3.21,3.21s-3.21-1.44-3.21-3.21c0-1.76,1.42-3.19,3.18-3.21,1.77-.02,3.22,1.41,3.24,3.18,0,.01,0,.02,0,.03Z"/>
    <path class="st1" d="M153.44,162.61v7.71c0,5,0,12.33.07,21.51,0,18.41.05,44.36.09,74.59v.15c-4.55,6.31-9.32,12.91-14.21,19.7l.05-.15v89.7l-.06-.15,17.25,20.89v.13c0,19.26-.07,35.09-.09,46.12v17.23-4.48c0-2.94,0-7.24-.06-12.75,0-11,0-26.86-.09-46.12v.13l-17.35-20.85-.06-.07v-89.87l.05-.06,14.19-19.69-.05.14c0-30.23.07-56.18.09-74.59,0-9.18.06-16.48.07-21.51v-7.21c0-.35.11-.5.11-.5Z"/>
    <circle class="st1" cx="382.05" cy="118.2" r="3.61"/>
    <circle class="st1" cx="362.22" cy="324.92" r="3.61"/>
    <path class="st1" d="M382.58,118.21c0,.11,0,.21,0,.32v4.57c0,3.19,0,7.82.07,13.67,0,11.74.05,28.34.09,47.88v.1l-.07.07-20.35,20.37.08-.18v11.32c0,29.42-.06,56.06-.08,75.36,0,9.62-.06,17.42-.08,22.83v8.37-8.37c0-5.41-.05-13.21-.08-22.83,0-19.3,0-45.94-.08-75.36v-11.43l.08-.08c7.19-7.18,14.07-14.06,20.37-20.34l-.07.17c0-19.54.07-36.14.09-47.88,0-5.85.06-10.48.07-13.67v-4.57c-.02-.11-.04-.21-.04-.32Z"/>
    <path class="st11" d="M115.34,99.45c-1.33,1.85-2.91,3.51-4.69,4.93l1.22,6.19-9.53,4.23-3.78-5.1c-2.25.36-4.54.42-6.8.17l-3.52,5.24-9.74-3.75.92-6.24c-1.85-1.34-3.5-2.92-4.93-4.7l-6.15,1.28-4.24-9.54,5.06-3.77c-.36-2.25-.41-4.54-.17-6.8l-5.24-3.51,3.76-9.74,6.24.91c1.34-1.85,2.91-3.5,4.69-4.93l-1.22-6.19,9.54-4.23,3.77,5.06c2.25-.36,4.54-.42,6.81-.17l3.51-5.24,9.74,3.75-.91,6.24c1.85,1.34,3.5,2.92,4.93,4.7l6.19-1.23,4.23,9.55-5.06,3.77c.36,2.25.41,4.54.17,6.8l5.24,3.51-3.76,9.74-6.24-.91-.04-.02ZM104.8,88.81c2.23-5.77-.64-12.25-6.41-14.48-5.77-2.23-12.25.64-14.48,6.41s.64,12.25,6.41,14.48c0,0,.02,0,.02,0,5.77,2.21,12.23-.66,14.46-6.42Z"/>
    <path class="st0" d="M681.27,374.58c-.86,1.17-1.87,2.22-3,3.13l.77,3.92-6.05,2.69-2.39-3.21c-1.43.23-2.87.26-4.31.11l-2.23,3.32-6.17-2.38.57-4c-1.17-.86-2.22-1.87-3.12-3l-3.85.89-2.69-6,3.21-2.39c-.23-1.43-.27-2.87-.11-4.31l-3.36-2.3,2.38-6.17,4,.58c.85-1.17,1.86-2.23,3-3.13l-.77-3.92,6.05-2.69,2.39,3.21c1.43-.22,2.87-.26,4.31-.11l2.23-3.32,6.17,2.38-.58,4c1.17.86,2.22,1.87,3.13,3l3.92-.77,2.68,6-3.2,2.39c.22,1.43.26,2.87.11,4.31l3.32,2.23-2.38,6.17-4-.58-.03-.05ZM674.59,367.84c1.41-3.66-.41-7.77-4.07-9.18-3.66-1.41-7.77.41-9.18,4.07-1.41,3.66.41,7.77,4.07,9.18,3.66,1.41,7.77-.41,9.18-4.07,0,0,0,0,0,0Z"/>
    <path class="st1" d="M674.59,367.84c-.17.56-.43,1.1-.77,1.58-.91,1.36-2.27,2.35-3.84,2.81-1.08.33-2.22.4-3.33.2-1.28-.23-2.47-.8-3.46-1.65-.54-.45-1-.99-1.37-1.59-.4-.61-.7-1.29-.89-2-.86-3.07.4-6.34,3.1-8.05.61-.4,1.29-.7,2-.89.68-.19,1.38-.28,2.08-.25,3.95.05,7.12,3.3,7.07,7.25,0,.3-.03.59-.07.89-.07.59-.23,1.16-.49,1.69-.05,0,.21-.6.34-1.71.41-3.84-2.36-7.3-6.21-7.71-.21-.02-.41-.04-.62-.04-.68-.02-1.35.07-2,.26-.67.18-1.3.46-1.88.84-2.54,1.62-3.73,4.7-2.94,7.61.18.67.46,1.32.84,1.9.35.56.78,1.07,1.28,1.51,1.77,1.55,4.21,2.1,6.47,1.46,1.52-.43,2.86-1.36,3.79-2.63.66-.9.85-1.5.9-1.48Z"/>
    <path class="st1" d="M681.27,374.58h.25l.75.09,3,.4h-.07l2.29-6.12v.12l-3.33-2.21h-.06v-.07c.15-1.43.11-2.86-.12-4.28v-.08l.07-.05,3.2-2.4-.05.18-2.7-6,.18.1-3.92.78h-.1l-.06-.08c-.9-1.11-1.94-2.1-3.1-2.94l-.09-.06v-.11c.18-1.22.37-2.58.57-3.95l.12.19-6.18-2.37.22-.07-2.22,3.32-.07.1h-.11c-1.42-.15-2.85-.11-4.26.12h-.12l-.07-.09-2.39-3.21.24.07-6.05,2.68.12-.22c.24,1.24.51,2.57.77,3.92v.12l-.1.08c-1.11.89-2.1,1.93-2.94,3.08h0c-.08,0,.2-.08-.19.09h-.5l-.49-.07-1-.14-2-.29.22-.13c-.8,2.09-1.6,4.15-2.38,6.18l-.08-.24,3.32,2.22.1.07v.12c-.16,1.42-.12,2.85.1,4.26v.12l-.09.07-3.21,2.39.06-.24c.91,2.07,1.81,4.09,2.68,6.05l-.21-.1,3.92-.77h.11l.07.08c.89,1.12,1.93,2.11,3.09,2.95l.08.06v.11c-.2,1.35-.4,2.67-.59,3.95l-.1-.18,6.17,2.39-.19.06,2.24-3.31.05-.08h.08c1.42.16,2.86.13,4.28-.09h.08l.05.07c.86,1.17,1.64,2.22,2.38,3.21h-.15l6.06-2.66-.05.1c-.3-1.57-.54-2.86-.75-3.93h0c.85-.67,1.63-1.43,2.34-2.25l.51-.62c.05-.07.11-.14.17-.21l-.14.23c-.11.14-.26.36-.49.64-.68.85-1.45,1.62-2.3,2.31v-.06l.8,3.91v.08h-.06l-6,2.71h-.09l-.06-.07c-.74-1-1.52-2-2.4-3.2l.13.05c-1.44.24-2.9.28-4.35.12l.14-.06-2.22,3.32-.07.11-.11-.05-6.18-2.36-.13-.05v-.14c.18-1.28.37-2.6.57-4l.07.16c-1.18-.85-2.25-1.86-3.16-3l.18.07-3.93.77h-.14l-.07-.13-2.52-6.17-.07-.14.13-.09,3.2-2.4-.07.19c-.24-1.44-.28-2.91-.12-4.36l.09.18-3.32-2.22-.14-.09.06-.15c.78-2,1.58-4.09,2.38-6.18l.06-.15h.16l2,.28,1,.15.5.07h.5l-.2.09h0c.86-1.18,1.87-2.24,3-3.16l-.07.2c-.26-1.35-.53-2.68-.77-3.92v-.16l.15-.07,6.05-2.68.14-.06.1.12,2.38,3.21-.18-.07c1.44-.23,2.91-.27,4.36-.11l-.18.08,2.23-3.31.08-.13.14.06,6.18,2.38.13.05v.15c-.2,1.38-.4,2.73-.58,3.95l-.07-.16c1.18.86,2.24,1.87,3.15,3l-.17-.06,3.93-.77h.13l.05.11c.93,2.13,1.83,4.15,2.67,6.06v.1l-.09.07-3.21,2.38.05-.12c.23,1.44.26,2.9.09,4.34l-.05-.11,3.31,2.24.07.05v.07c-1,2.51-1.79,4.59-2.41,6.16v.05h0l-2.93-.47-.76-.12h-.4Z"/>
  </g>
  <g id="freepik--Chair--inject-95">
    <path class="st12" d="M274.05,322.95c-3.91-6.71-8.1-13.45-14.26-19-15.62-14.08-42.44-18.26-65.23-13.21-17.59,3.9-34.2,13.81-38.81,27.81-2.09,6.31-1.62,13-1,19.46,4.32,42.54,25.61,119.7,26.47,121.54l143.54-.58c-8.47-47-25.6-92.96-50.71-136.02Z"/>
    <path class="st5" d="M324.73,458.92s-.09-.37-.23-1.1-.37-1.8-.65-3.21-.6-3.16-1-5.22-1-4.43-1.55-7.1c-3.44-15.06-7.72-29.91-12.82-44.49-7.61-21.61-16.92-42.57-27.86-62.7l-2.4-4.29-2.42-4.26c-1.63-2.88-3.29-5.78-5.09-8.64-3.58-5.71-7.78-11.3-13.34-15.6-.67-.56-1.38-1.09-2.11-1.57-.73-.49-1.43-1-2.18-1.49-1.54-.87-3-1.86-4.64-2.6l-2.4-1.18-2.49-1-1.25-.51-1.27-.44-2.57-.88c-7.04-2.12-14.32-3.33-21.67-3.58-7.35-.23-14.71.42-21.91,1.94-6.99,1.49-13.72,3.99-20,7.41-3.06,1.65-5.93,3.61-8.58,5.86-2.61,2.18-4.92,4.7-6.86,7.49-.45.72-.93,1.4-1.34,2.13s-.76,1.48-1.13,2.22-.61,1.55-.91,2.32c-.27.77-.5,1.56-.69,2.36-.72,3.18-1.02,6.43-.89,9.69.09,3.22.38,6.4.76,9.52s.69,6.22,1.18,9.24c.85,6.07,1.87,11.93,2.89,17.58,2.06,11.32,4.33,21.79,6.45,31.34,4.29,19.08,8.2,34.43,11,45,1.38,5.29,2.49,9.39,3.25,12.17.39,1.38.69,2.43.89,3.15s.32,1.07.32,1.07c0,0-.13-.35-.37-1.05s-.53-1.77-.94-3.14c-.79-2.77-1.94-6.86-3.35-12.15-2.82-10.57-6.79-25.9-11.12-45-2.14-9.55-4.43-20-6.51-31.34-1-5.66-2.06-11.52-2.92-17.59-.49-3-.8-6.13-1.19-9.26s-.69-6.31-.78-9.56c-.13-3.29.17-6.59.89-9.81.19-.82.43-1.62.71-2.41.3-.79.61-1.57.92-2.36l1.12-2.33c.42-.74.9-1.44,1.35-2.17,1.97-2.83,4.31-5.38,6.95-7.59,2.67-2.27,5.57-4.26,8.66-5.93,6.32-3.44,13.1-5.96,20.13-7.46,7.23-1.55,14.61-2.22,22-2,7.4.25,14.73,1.47,21.82,3.61l2.58.88,1.29.45,1.25.52,2.51,1,2.42,1.19c1.64.75,3.13,1.75,4.68,2.63.76.47,1.47,1,2.21,1.5.74.49,1.45,1.02,2.13,1.59,5.61,4.35,9.85,10,13.44,15.73,1.8,2.88,3.47,5.79,5.1,8.67l2.44,4.3,2.33,4.29c10.93,20.16,20.22,41.16,27.79,62.81,5.07,14.6,9.3,29.48,12.66,44.56l1.51,7.12c.42,2.06.73,3.82,1,5.23s.45,2.49.59,3.22.21,1.22.21,1.22Z"/>
    <path class="st5" d="M161.55,308.56v.41c0,.27-.1.67-.17,1.17-.14,1-.3,2.55-.43,4.51-.19,5.56.22,11.13,1.21,16.61,2.42,13.9,5.38,33.18,9.71,54.26,2.18,10.55,4.56,20.53,7.08,29.5s5.16,17,7.57,23.58,4.69,11.87,6.3,15.47l1.88,4.13.48,1.09c.06.12.1.24.14.37-3.44-6.8-6.49-13.79-9.14-20.93-2.46-6.62-5.16-14.59-7.69-23.58s-5-19-7.13-29.52c-4.33-21.11-7.24-40.39-9.56-54.31-.95-5.51-1.28-11.1-1-16.68.09-2.04.34-4.08.75-6.08Z"/>
    <path class="st5" d="M180.13,342.48c0,.09-1,.31-2.55.87-2.02.74-3.94,1.75-5.7,3-2.43,1.85-4.56,4.06-6.32,6.56.33-.85.79-1.64,1.36-2.35,1.29-1.78,2.87-3.34,4.66-4.62,1.79-1.28,3.78-2.27,5.88-2.92.86-.31,1.76-.49,2.67-.54Z"/>
    <path class="st5" d="M174.48,352.06c0,.16-1.9.1-4.13.62s-3.92,1.38-4,1.24c1.12-.9,2.45-1.51,3.87-1.75,1.39-.4,2.85-.44,4.26-.11Z"/>
    <path class="st5" d="M170.4,400.5c-.06,0,0-.28.18-.62.3-.43.73-.76,1.22-.93.49-.18,1.03-.2,1.53-.05.38.12.56.3.53.36s-.91-.19-1.89.18-1.44,1.12-1.57,1.06Z"/>
    <path class="st5" d="M172.33,404.56c-.14,0-.06-1,.87-1.76s1.94-.6,1.91-.46-.83.25-1.58.87-1.05,1.41-1.2,1.35Z"/>
  </g>
  <g id="freepik--Character--inject-95">
    <path class="st3" d="M357.63,420.14s-3.2-78.48-6.16-92.08c-3.75-17.3-18.32-27.75-18.32-27.75l-5.58,135,5.8,3.47,3.42,1.8c1.53,5.74-1.64,7.14,14.06,11.18,1.26.32,26.33,4.28,26.33,4.28l2.46-25.49-22.01-10.41Z"/>
    <path class="st3" d="M400.42,455.13s-9.06.62-12.76,2.12c-4,1.62-9,.67-12.34-1.5-1.91-1.22-3.7-2.61-5.34-4.17l-12.36.06c-3.7-4.17-4.76-10.06-2.73-15.25.63-1.75,1.56-3.38,2.73-4.83,1.44-1.62,2.09-2.58,6.08-3.36l16.38,2.49s22.7-2.1,26.78-.28c0,0,5.14,2.91,6.74,4.14.6.46,2.52,6.21-1.11,9.3,0,0,3.27,2.49,1.58,4.82l-.82,1s2.23,2.75,1.14,4-10.69,7.14-14.17,5.89-1.06-4.18.45-4.8"/>
    <path class="st2" d="M409.95,438.85c-.41.12-.8.27-1.19.45-.76.31-1.87.75-3.26,1.22-.67.24-1.43.48-2.28.72-.82.24-1.73.44-2.66.76-1.01.3-1.93.88-2.63,1.67-.79.89-1.04,2.14-.65,3.26.25.55.69,1,1.23,1.27.51.24,1.07.37,1.63.41,1.03.04,2.07-.03,3.08-.23,1.71-.31,3.38-.78,5-1.41,1.38-.52,2.46-1,3.21-1.34.4-.16.78-.35,1.15-.58-.41.11-.82.26-1.21.43-.76.29-1.87.74-3.25,1.22-1.61.59-3.26,1.03-4.95,1.32-.99.17-2,.24-3,.2-.51-.04-1.01-.17-1.48-.38-.45-.23-.8-.61-1-1.07-.33-.99-.1-2.07.59-2.85.65-.74,1.5-1.28,2.44-1.56.9-.33,1.81-.54,2.63-.8s1.6-.51,2.29-.77c1.38-.51,2.48-1,3.22-1.34.38-.17.74-.37,1.09-.6Z"/>
    <path class="st2" d="M408.93,431.86c-.41.12-.8.27-1.18.46-.76.31-1.86.75-3.23,1.24s-3,1-4.9,1.52c-1.03.18-2,.6-2.84,1.22-.45.38-.73.92-.81,1.5-.09.6,0,1.2.25,1.75.53,1.03,1.47,1.79,2.58,2.1,1,.3,2.06.36,3.09.18,1.69-.37,3.34-.89,4.94-1.54l3.24-1.22c.4-.14.8-.3,1.18-.49-.42.08-.83.2-1.23.35l-3.29,1.09c-1.59.61-3.22,1.09-4.89,1.44-.97.17-1.97.1-2.92-.19-1.01-.28-1.85-.97-2.33-1.9-.51-.91-.33-2.04.42-2.76.8-.58,1.71-.97,2.68-1.15,1.66-.45,3.3-.99,4.9-1.61,1.37-.53,2.45-1,3.19-1.37.4-.17.79-.38,1.15-.62Z"/>
    <path class="st2" d="M404.31,433.95c.19-.64.32-1.29.4-1.95.2-.63.35-1.28.45-1.94-.84,1.11-1.15,2.53-.85,3.89Z"/>
    <path class="st3" d="M370.15,434.97l8.56-3.5s23.73-11.69,24.15-11.1,1.72.51,1.49,3.44-14.06,9.11-14.48,10.13.42,6.12-4.66,9.9-8.8,3.93-8.8,3.93"/>
    <path class="st2" d="M376.41,447.76h.2l.6-.07c.76-.13,1.51-.32,2.23-.58,2.67-.97,5.13-2.46,7.23-4.37,1.41-1.4,2.4-3.17,2.84-5.11.22-1.07.37-2.14.44-3.23.01-.13.03-.25.07-.37.06-.1.14-.18.23-.24.21-.16.45-.32.69-.47.48-.29,1-.58,1.5-.87,2-1.15,4.24-2.32,6.45-3.65,1.13-.67,2.22-1.39,3.28-2.17.55-.4,1.06-.85,1.54-1.33.25-.26.46-.54.64-.85.09-.17.15-.35.18-.54.01-.18.01-.35,0-.53.07-.72-.08-1.44-.41-2.08-.2-.3-.47-.56-.78-.75-.12-.07-.24-.17-.33-.28l-.09-.08c-.05-.03-.11-.05-.17-.05h-.17l-.26.07c-1.29.42-2.46,1-3.65,1.49-2.34,1-4.59,2.1-6.72,3.11-4.26,2-8.08,3.9-11.28,5.48-.8.39-1.55.8-2.28,1.12l-2.09.88-3.35,1.4-2.11.91-.55.25-.18.09s.07,0,.2-.06l.56-.2,2.14-.84,3.38-1.35,2.11-.84c.74-.33,1.49-.72,2.3-1.1l11.31-5.4c2.14-1,4.38-2.05,6.72-3.09,1.18-.51,2.38-1.06,3.61-1.47l.22-.05h.08v-.1h0c-.27.18-.07.06-.12.1h0c.12.15.27.27.43.36.26.16.49.38.66.63.29.58.41,1.22.35,1.86.02.31-.04.61-.18.89-.16.28-.36.53-.58.76-.46.47-.95.9-1.48,1.29-1.05.77-2.13,1.49-3.25,2.15-2.19,1.33-4.37,2.5-6.42,3.66-.52.3-1,.59-1.52.9-.24.15-.48.31-.72.49-.14.1-.26.23-.33.39-.05.15-.08.3-.09.45-.02,1.06-.11,2.13-.27,3.18-.41,1.89-1.35,3.62-2.71,5-1.16,1.1-2.44,2.05-3.83,2.84-1.04.62-2.13,1.15-3.26,1.58-.71.27-1.44.49-2.19.65-.25.06-.45.09-.58.11l-.24.03Z"/>
    <path class="st2" d="M402.86,448.33c-.32.05-.62.15-.91.29-.81.34-1.56.79-2.23,1.35-.48.38-.9.82-1.28,1.3-.48.55-.72,1.27-.66,2,.18.83.82,1.48,1.64,1.69.83.21,1.7.16,2.51-.13,2.73-.87,5.36-2,7.88-3.36.76-.42,1.49-.87,2.2-1.37.27-.16.53-.35.75-.58-.29.12-.57.27-.83.45-.53.31-1.29.75-2.26,1.25-2.53,1.27-5.16,2.35-7.86,3.22-.73.27-1.52.32-2.28.14-.68-.16-1.21-.69-1.38-1.37-.06-.64.14-1.28.56-1.77.35-.47.75-.9,1.19-1.28.91-.73,1.9-1.34,2.96-1.83Z"/>
    <path class="st5" d="M225.83,218.09c-1.68-.54-2.6-2.33-2.07-4.01.15-.48.42-.92.78-1.28-1.62-.89-1.16-3.45.11-4.8s3.08-2.17,4.07-3.73c-2.05.42-4.05-.9-4.48-2.95-.02-.11-.04-.22-.05-.33-1.7.18-3.22-1.05-3.4-2.75-.12-1.16.42-2.29,1.4-2.92-1.73-.15-1.59-3-.14-4s3.35-.9,4.93-1.64c2.86-3.21,6.65-5.44,10.85-6.37l-7.08-5.27c-.6-.37-1.09-.89-1.43-1.51-.62-1.41.49-3,1.65-4,2.49-2.12,5.56-3.46,8.81-3.85,1-.12,2.36,0,2.69,1,2.2-1,4.75-.93,7.18-.8,1.36.07,2.86.2,3.83,1.16-.65-1.2-1.5-2.27-2.53-3.17-1.03-.91-1.63-2.21-1.64-3.59.14-1.35,1.77-2.53,2.89-1.76-1.26-.59-1.09-2.62,0-3.5,1.19-.77,2.59-1.12,4-1,1,0,2.2.14,2.47,1.08.44-2.17,4.15-2.48,4.93-.41,1.39-1.24,3.52-1.11,4.76.28.03.03.06.06.08.1,2.09-1.14,4.72-.37,5.86,1.73.1.18.18.36.25.54l-3.77-6.31c-.71-1.2-.83-3.43.55-3.29-2,0-3.12-2.7-2.15-4.43s3.21-2.39,5.18-2.14l1.72,2.49c1.77-1.25,4.22-.82,5.46.95.7,1,.9,2.26.54,3.42.8-.86,2.35-.39,3,.59.53,1.05.73,2.24.57,3.4,1.93-1.62,5.47.26,5.2,2.77,1.76-.9,3.73-1.31,5.7-1.18-1.12-1.82-.55-4.19,1.27-5.31,1.13-.69,2.54-.76,3.73-.17.29-2.08,2.22-3.52,4.3-3.23.21.03.41.08.61.14.61-2.3,3.63-4,5.46-2.49s.88,4.61-.28,6.78c-1.27,2.35-2.53,4.71-3.79,7.06l12.32-6.6c.36-.25.79-.38,1.23-.37.6.07,1,.62,1.55.88.8.21,1.62.35,2.44.43,2.17.67,2.14,4,.65,5.71s-3.77,2.54-5.45,4.06l5.47,1c.9-2.95,4.03-4.61,6.98-3.71.06.02.12.04.18.06.75-2,3.45-2.28,5.6-2.19,1.93.08,4.05.24,5.42,1.61,1.74,1.74,1.41,4.8-.05,6.78s-3.77,3.14-6,4.23c.36,1.64,2.49,2.14,4.15,1.9s3.39-.9,5-.3c2.13.8,3,3.56,5.18,4.34.69.13,1.36.35,2,.65.75.65,1.22,1.56,1.31,2.54.27,1.19.54,2.37.8,3.56.18.58.23,1.18.15,1.78-.39,1.94-3.09,2.35-4.91,1.61s-3.39-2.19-5.34-2.47c2.57,1.28,5.29,2.69,6.72,5.18s.85,6.35-1.85,7.32-5.44-1.39-7.43-3.5-4.85-4.38-7.5-3.17"/>
    <path class="st5" d="M229.79,216.39c-2.08-1.54-5.61.5-5.3,3.07-3.9,1.09-6.17,5.14-5.08,9.04.4,1.41,1.21,2.68,2.33,3.62,1.62,1.36,4.83,1.41,5.17-.67.67,1.76,2.17,3.07,4,3.51-1.6,2.6-.78,6.01,1.83,7.6.13.08.27.16.4.23-3.29,2.27-2.67,8.23,1,9.77-1.02,2.28,0,4.94,2.28,5.96s4.94,0,5.96-2.28c.71,1.69,1.49,3.47,3,4.5s4,.85,4.76-.81c.98,3.28,4.43,5.15,7.71,4.17.38-.11.75-.26,1.11-.45-.37,2.18,1.09,4.24,3.27,4.62,2.16.37,4.22-1.07,4.61-3.24l10.32.79c2.28.24,4.58.28,6.86.1,2.92-.34,5.72-1.37,8.17-3,1.5-1.51,3.88-1.72,5.62-.49,5.44,2.07,11.56,1.17,16.17-2.38.66-.62,1.42-1.12,2.24-1.49,1-.26,2.05-.32,3.08-.16,2.54.18,5.09.03,7.59-.43,2.14-.4,4.43-1.17,5.58-3s.25-4.93-1.92-5.09c-.12-1.43.43-2.84,1.49-3.81,1.12-.95,2.78-.88,3.82.16.9,1.1.2,3.15-1.21,3.22,2.19,1.81,6-.14,6.31-3s-2.31-5.42-5.14-5.68c.74-1.98.98-4.12.7-6.22,1.41,1.98,4.12,2.52,6.18,1.24.97,1.97,2.7,3.46,4.8,4.12,2.16.59,4.45-.41,5.48-2.4.84-2-.69-4.74-2.86-4.68,1.72-2.29-.25-6.21-3.12-6.2.64-2.83-.71-5.73-3.29-7.06,1.54,1.02,3.62.6,4.64-.94.1-.15.19-.32.27-.49,1.13,2.19,4.37,2,6.59.9,1.75-.83,3.46-2.09,3.18-4.61-.14-1.19-.69-2.29-1.57-3.1-2-1.92-4.89-2.28-7.59-2.58-1.33-3.37-2.1-6.93-2.28-10.55,3,.35,6.27-1.62,6.9-4.59l-14.95-9.29s-34.59-5.34-35.83-5.34-73.55,37.24-73.55,37.24c-1.68,1.75-4.94,1-6.17-1.13s-.74-4.83.58-6.86c1.45-1.95,3.24-3.62,5.29-4.92-2.32-.16-4.79-.37-6.5-2.05-1.12-1-1.52-2.59-1-4,.83-2,3.14-1.86,4.62-3,.8-.75,1.44-1.64,1.9-2.64"/>
    <path class="st3" d="M326.42,208.56c-.86-12.35-9.15-27.46-21.46-26.07l-38.38,10c-3.74.42-6.53,3.63-6.43,7.39l4.24,82.94-9.25,4.42c-.09,0,9.58,5.38,9.49,5.4s8.88,26.11,34.25,18c5-1.61,7.31-7.13,8.28-12.8h.26c0-.67,8.39-7.1,8.4-7.74,0,.64-8.27-4.69-8.27-4.69v-2.25c0-7.48,0-10.55,0-10.48s15.77-2.73,18.9-23.35c1.56-10.28.93-27.07-.03-40.77Z"/>
    <path class="st5" d="M321.22,223.41c.03,1.44-1.1,2.63-2.53,2.69-1.4.11-2.62-.93-2.74-2.33,0-.01,0-.03,0-.04-.02-1.43,1.1-2.62,2.53-2.68,1.39-.12,2.61.9,2.73,2.29,0,.02,0,.05,0,.07Z"/>
    <path class="st5" d="M322.84,217.3c-.33.34-2.34-1.12-5.18-1.1s-4.92,1.47-5.23,1.12c-.15-.15.18-.78,1.08-1.44,1.22-.86,2.68-1.33,4.18-1.33,1.48-.02,2.93.44,4.13,1.31.88.7,1.18,1.28,1.02,1.44Z"/>
    <path class="st5" d="M294.09,223.56c.03,1.44-1.1,2.63-2.53,2.69-1.39.12-2.62-.91-2.74-2.31,0-.02,0-.04,0-.06-.02-1.43,1.1-2.62,2.53-2.68,1.39-.12,2.61.9,2.73,2.29,0,.02,0,.05,0,.07Z"/>
    <path class="st5" d="M294.9,218.02c-.33.34-2.34-1.12-5.18-1.1s-4.92,1.47-5.23,1.12c-.15-.15.17-.78,1.08-1.44,1.22-.86,2.68-1.33,4.18-1.32,1.48-.02,2.93.44,4.13,1.3.87.66,1.18,1.28,1.02,1.44Z"/>
    <path class="st5" d="M305.36,239.03c0-.16,1.75-.48,4.61-.86.73-.08,1.41-.23,1.53-.73.06-.75-.12-1.5-.5-2.15l-2.18-5.51c-3-7.85-5.24-14.31-4.92-14.43s3,6.15,6.07,14c.73,1.94,1.43,3.78,2.09,5.55.46.87.6,1.88.4,2.84-.21.52-.65.92-1.19,1.07-.4.12-.81.18-1.23.18-2.88.18-4.67.2-4.68.04Z"/>
    <path class="st2" d="M307.55,272.66c-9.7.21-19.27-2.27-27.64-7.17,0,0,6.79,14.1,27.4,12l.24-4.83Z"/>
    <path class="st2" d="M305.69,245.44c-1.33-1.95-3.54-3.12-5.9-3.13-2.4-.04-4.38,1.87-4.42,4.28-.02.9.25,1.79.76,2.53,1.08,1.48,2.95,2.16,4.72,1.7,1.61-.53,3.06-1.44,4.23-2.66.38-.29.69-.67.91-1.1.22-.48.16-1.05-.14-1.48"/>
    <path class="st5" d="M297.01,241.05c.46,0,.48,3.06,3.14,5.23,2.66,2.17,5.94,1.81,6,2.24,0,.2-.73.61-2.12.66-1.81.04-3.58-.56-5-1.7-1.35-1.09-2.22-2.67-2.44-4.39-.13-1.28.2-2.05.42-2.04Z"/>
    <path class="st5" d="M296.14,211.45c-.27.77-3.11.42-6.45.85s-6,1.35-6.47.66c-.2-.33.27-1.06,1.35-1.81,2.93-1.89,6.56-2.31,9.84-1.16,1.23.49,1.81,1.09,1.73,1.46Z"/>
    <path class="st5" d="M321.74,209.08c-.5.65-2.46,0-4.82,0s-4.34.47-4.81-.21c-.2-.32.11-1,1-1.59,2.39-1.5,5.44-1.43,7.75.19.82.63,1.1,1.29.88,1.61Z"/>
    <path class="st5" d="M260.06,220.95c-.56,1.39-.16,2.99,1,3.94,1.11.7,2.57.36,3.27-.75.04-.06.07-.12.1-.18.9,1.21,3,0,2.69-1.6,1.11.63,2.57-.87,2.22-2.27,1.29.5,2.06-1.59,2.74-3,.38-.77.89-1.42,1.33-2.13,1.44-2.33,2.18-5.03,2.14-7.77,1.69-1.91,2.12-4.87,2.47-7.61.21-1.71.43-3.42.64-5.13l1-1.18c-.02,1.19.72,2.26,1.84,2.66,1.02.28,2.09.28,3.11,0l3.07-.58,1.9.56c-.56,1.59,0,3.4.55,5,.24,1.11.87,2.09,1.76,2.79.74.31,1.59-.03,1.9-.77.1-.24.14-.51.1-.77.65.6,1.67.56,2.28-.09.08-.09.15-.19.21-.29.55-.96.8-2.06.7-3.16-.05-2.67-.9-5.26-2.43-7.45l5.31,5c.34.4.79.68,1.3.8-.1.77.44,1.47,1.21,1.57.08.01.17.01.25.01.8-.2,1.5-.67,2-1.33,1.3-1.35,2.68-3.66,1.53-5.2.59-.24.86-.92.62-1.5-.03-.06-.06-.13-.1-.19l6,4.62c-.6-.35-1.27.59-1.14,1.37.19.73.64,1.36,1.25,1.79-.54.86-.79,1.86-.71,2.87-1.08-1-2.72.82-2.38,2.38.39,1.45,1.68,2.47,3.18,2.51,1.22.21,2.4-.55,2.71-1.75,1.32.29,2.61-1.53,2.14-3,1,.64,1.81-1.08,1.87-2.38.11-2.38-.23-4.75-1-7,0,.34.34.62.58.44.2-.2.2-.52,0-.72-.03-.03-.06-.06-.1-.08,1.13,2.77,2.26,5.55,3.38,8.32,1.04,2.17,1.67,4.52,1.84,6.93,0,1,.12,2.35,1,2.44.23,0,.45-.05.65-.17,2.5-1.4,4.44-3.64,5.48-6.31.44-.92.72-1.91.84-2.92.2-2.13-.68-4.18-.82-6.32,0-.94-.06-1.88-.18-2.81-.39-1.4-1.14-2.67-2.17-3.69-3.24-3.78-6.67-7.69-11-9.23-2.66-.93-5.51-.92-8.18-1.83-1.64-.65-3.24-1.39-4.79-2.22-6.58-3.11-13.86-3.53-20.92-2.94-4,.19-7.93,1.1-11.61,2.69-4,1.89-7.58,5-10.91,8.33-5,4.95-9.67,10.48-12.85,17.19-2.44,5.16-4,11.18-3.1,17s4.45,11.3,9.33,12.52l1.92-2.2"/>
    <path class="st3" d="M265.69,224.91c-.28-.13-11.47-3.69-11.37,7.81s11.63,9,11.64,8.7-.27-16.51-.27-16.51Z"/>
    <path class="st2" d="M262.41,237.08c-.05,0-.2.14-.53.3-.48.19-1.02.19-1.5,0-1.22-.44-2.26-2.36-2.33-4.43-.04-.98.14-1.96.53-2.87.21-.73.77-1.31,1.5-1.55.47-.14.97.09,1.18.53.16.32.09.55.15.57s.25-.19.15-.67c-.07-.28-.23-.53-.46-.71-.32-.23-.72-.33-1.11-.28-.96.19-1.75.88-2.08,1.8-.48,1-.71,2.1-.66,3.21.09,2.31,1.3,4.47,3,4.94.63.17,1.3.06,1.83-.32.32-.24.37-.5.33-.52Z"/>
    <path class="st12" d="M303.3,221.39c-.1-1.11-.28-2.21-.53-3.3-.78-2.96-2.55-5.56-5-7.38-1.66-1.27-3.6-2.12-5.66-2.49-2.35-.42-4.76-.22-7,.6-2.49.9-4.65,2.53-6.21,4.67-3.47,4.7-3.47,11.11,0,15.81.78,1.09,1.73,2.05,2.82,2.84,1.03.78,2.17,1.4,3.39,1.83,2.24.82,4.65,1.02,7,.6,2.06-.37,3.99-1.23,5.66-2.49,2.45-1.83,4.21-4.43,5-7.38.25-1.09.43-2.2.53-3.31.02.29.02.58,0,.87,0,.36-.02.71-.08,1.06-.04.48-.13.95-.25,1.42-.72,3.04-2.46,5.73-4.94,7.63-3.73,2.88-8.66,3.65-13.09,2.05-2.58-.94-4.82-2.61-6.45-4.82-3.61-4.87-3.61-11.54,0-16.41,1.62-2.22,3.87-3.89,6.45-4.82,2.33-.84,4.85-1.04,7.28-.58,2.11.41,4.1,1.31,5.8,2.62,2.48,1.9,4.22,4.59,4.95,7.63.12.47.21.95.25,1.43.06.35.09.7.08,1.05.02.29.02.58,0,.87Z"/>
    <path class="st12" d="M335.74,221.39c-.1-1.11-.28-2.21-.53-3.3-.78-2.96-2.55-5.56-5-7.38-1.66-1.27-3.6-2.12-5.66-2.49-2.35-.42-4.76-.21-7,.6-2.49.9-4.65,2.53-6.21,4.67-3.47,4.7-3.47,11.11,0,15.81.78,1.09,1.73,2.05,2.82,2.84,1.03.78,2.17,1.4,3.39,1.83,2.24.81,4.65,1.02,7,.6,2.06-.37,3.99-1.23,5.66-2.49,2.45-1.83,4.21-4.43,5-7.38.25-1.09.43-2.2.53-3.31.02.29.02.58,0,.87,0,.36-.03.71-.09,1.06-.04.48-.13.95-.25,1.42-.72,3.04-2.46,5.73-4.94,7.63-3.73,2.88-8.66,3.65-13.09,2.05-2.58-.94-4.82-2.61-6.45-4.82-3.61-4.87-3.61-11.54,0-16.41,1.62-2.22,3.87-3.89,6.45-4.82,4.42-1.62,9.36-.86,13.09,2,2.47,1.9,4.22,4.59,4.94,7.63.12.47.21.95.25,1.43.06.35.09.7.09,1.05.02.3.02.61,0,.91Z"/>
    <path class="st12" d="M309.07,218.19c-.06.15-1.37-.39-3.08-.44s-3.05.38-3.1.23c1.94-1.08,4.32-1,6.18.21h0Z"/>
    <path class="st12" d="M275.94,222.73c-1.84.74-3.77,1.23-5.74,1.46-1.94.4-3.93.54-5.91.42,0-.15,2.61-.41,5.82-.93s5.79-1.13,5.83-.95Z"/>
    <path class="st6" d="M301.86,219.25c.1.86.05,1.73-.14,2.57-.37,2.06-1.14,4.02-2.26,5.79-1.09,1.79-2.58,3.32-4.34,4.46-.73.52-1.63.72-2.51.56.82-.13,1.61-.43,2.32-.87,1.64-1.19,3.03-2.7,4.09-4.43,1.09-1.72,1.88-3.6,2.34-5.58.36-1.53.41-2.51.5-2.5Z"/>
    <path class="st6" d="M331.53,228c.32-.74.69-1.46,1.1-2.15.4-.76.7-1.56.9-2.39.22-1.02.24-2.07.06-3.1-.22-1.91-.77-3.76-1.63-5.48-.7-1.29-1.4-1.92-1.33-2s.22.1.53.39c.43.42.81.89,1.12,1.4.98,1.72,1.6,3.63,1.82,5.6.19,1.09.16,2.2-.1,3.28-.23.87-.58,1.69-1.05,2.46-.37.73-.85,1.4-1.42,1.99Z"/>
    <path class="st12" d="M257.58,241.03s-.3.14-.76.48c-.63.48-1.09,1.16-1.31,1.92-.36,1.12-.1,2.34.69,3.21.97,1.05,2.44,1.48,3.83,1.12,2.17-.73,3.33-3.08,2.6-5.24-.13-.38-.31-.73-.53-1.06-.45-.66-1.05-1.21-1.75-1.6-.28-.12-.54-.25-.8-.41.31,0,.61.09.89.23.8.33,1.49.87,2,1.57.79,1.03,1.09,2.37.81,3.64-.34,1.57-1.48,2.85-3,3.37-1.58.42-3.25-.09-4.34-1.3-.47-.52-.77-1.17-.87-1.87-.08-.6-.01-1.2.19-1.77.26-.83.81-1.54,1.55-2,.44-.29.79-.32.8-.29Z"/>
    <path class="st12" d="M305.27,188.41c.4-.4.67-.92.77-1.48.11-.62-.08-1.26-.51-1.73-.57-.59-1.42-.81-2.2-.57l-.48.16.21-.46c.35-.89.11-1.91-.61-2.55-.85-.66-2.05-.62-2.86.1l-.37-.32c.07-.09.13-.18.16-.29.11-.37.04-.77-.18-1.08-.23-.31-.56-.53-.94-.6-.38-.08-.78-.05-1.15.06-.41.18-.85.28-1.29.28-.55-.1-.79-.51-1.07-.69-.28-.22-.57-.4-.89-.55-.58-.26-1.21-.4-1.85-.42-.94-.04-1.86.18-2.68.64-.57.33-.84.61-.87.57.19-.3.45-.56.76-.74.83-.56,1.8-.85,2.8-.84.69,0,1.37.13,2,.39.36.16.69.35,1,.59.33.24.58.55.86.58.38-.03.75-.13,1.09-.29.45-.14.93-.16,1.39-.07.51.09.96.38,1.26.8.31.45.4,1.01.25,1.53-.06.17-.15.32-.26.46l-.39-.33c1.05-1.01,2.72-.98,3.73.08.75.78.95,1.94.5,2.92l-.27-.3c.94-.27,1.95.02,2.6.74.8.94.74,2.33-.13,3.2-.22.16-.37.23-.38.21Z"/>
    <path class="st12" d="M318.11,191.73c.45-.39.8-.88,1-1.44.22-.64.17-1.33-.12-1.94-.38-.79-1.13-1.34-2-1.47l-.37-.05.25-.28c.73-.74,1.06-1.79.88-2.81-.13-.52-.5-.95-1-1.16-.5-.26-1.11-.18-1.52.2l-1.47,1.55,1.07-1.85c.38-.69.43-1.52.14-2.25-.3-.77-.96-1.34-1.77-1.52-.58-.14-1.18-.08-1.72.17l-.6.3.24-.63c.35-.88-.55-1.91-1.44-2-.96-.08-1.91.16-2.72.68l-.5.27.16-.54c.14-.68-.1-1.38-.62-1.83-.5-.43-1.12-.7-1.77-.79-1.1-.18-2.21-.15-3.3.08-.96.23-1.89.57-2.77,1,.19-.18.4-.33.64-.45,1.67-.93,3.61-1.28,5.5-1,.73.08,1.43.38,2,.85.66.56.96,1.43.78,2.28l-.34-.27c.89-.58,1.94-.85,3-.76.6.1,1.14.42,1.51.9.43.5.56,1.2.33,1.82l-.35-.33c.64-.31,1.38-.38,2.07-.22.98.22,1.78.91,2.14,1.85.33.88.26,1.86-.2,2.68l-.39-.3c.56-.52,1.38-.64,2.07-.3.64.27,1.12.82,1.29,1.49.21,1.16-.16,2.36-1,3.19l-.11-.33c.99.16,1.84.81,2.25,1.73.29.69.29,1.47,0,2.16-.16.43-.43.81-.78,1.11-.3.16-.45.23-.46.21Z"/>
    <path class="st12" d="M345.8,194.14c-.01-.54-.26-1.06-.67-1.41-.47-.41-1.08-.63-1.71-.62-.85.05-1.68.25-2.46.58l-.28.11v-.31c-.02-1.06-.78-1.96-1.82-2.16-1.25-.17-2.52.03-3.65.58l-1.61.6,1.38-1c.69-.75.64-1.91-.11-2.6-.01-.01-.02-.02-.03-.03-.92-.69-2.09-.97-3.22-.77h-.15l-1,.09.85-.57c.81-.75.85-2.02.09-2.83-.1-.1-.2-.19-.31-.27-1.07-.57-2.37-.44-3.31.32l-1.05.83.7-1.15c.83-1.39.83-3.13,0-4.52-.66-1.07-1.76-1.79-3-1.95-.82-.11-1.66,0-2.43.31-.53.23-.79.43-.81.4s.05-.07.17-.17c.18-.14.37-.27.58-.37.78-.39,1.66-.55,2.53-.46,1.37.11,2.6.85,3.35,2,.95,1.52.98,3.45.08,5l-.35-.32c1.09-.91,2.63-1.06,3.88-.37.64.42,1.05,1.12,1.11,1.88.11.81-.22,1.61-.88,2.09l-.17-.48h.16c1.28-.22,2.59.11,3.61.91.46.45.73,1.06.78,1.7.07.65-.2,1.28-.7,1.69l-.23-.43c1.23-.57,2.6-.76,3.94-.55,1.24.26,2.11,1.37,2.07,2.64l-.25-.2c.82-.33,1.7-.51,2.59-.52.69,0,1.35.28,1.84.76.32.3.52.7.58,1.13.02.15-.02.31-.09.44Z"/>
    <path class="st12" d="M331.29,167.78c-.2.14-.44.22-.68.25-.66.11-1.33.14-2,.1-.99-.1-1.98.05-2.89.44-.51.24-.87.7-1,1.25-.18.57.04,1.19.53,1.52l-.35.25c-.11-.66-.93-1.08-1.67-1.52-.75-.46-1.57-.79-2.43-1-.84-.22-1.73-.08-2.46.38-.69.38-1.1,1.12-1.07,1.91l.08.64-.48-.43c-.95-.82-2.13-1.31-3.38-1.39-.99-.08-1.98.06-2.9.42-.81.35-1.56.83-2.22,1.42,0,0,.12-.23.44-.57.48-.47,1.04-.86,1.66-1.13.94-.42,1.97-.6,3-.55,1.35.06,2.65.56,3.68,1.44l-.4.21c-.07-.98.42-1.91,1.27-2.4.85-.54,1.88-.71,2.85-.46.91.23,1.78.61,2.57,1.11.39.22.77.46,1.13.73.4.28.67.7.77,1.17l.07.49-.43-.24c-.68-.44-.98-1.28-.74-2.05.17-.67.64-1.23,1.27-1.52.98-.39,2.05-.52,3.09-.37.67.06,1.33.06,2,0,.44-.05.68-.13.69-.1Z"/>
    <path class="st12" d="M305.61,157.83c-.46,0-.92.07-1.36.19-.49.17-.94.45-1.3.82-.47.46-.77,1.08-.83,1.74v.28l-.27-.09c-.81-.14-1.6.3-1.89,1.07-.3.92-.34,1.91-.1,2.85l.16,1-.64-.83-.1-.13c-.45-.51-1.1-.78-1.78-.74-.64.01-1.25.28-1.69.74-.76.83-1.12,1.94-1,3.06.07.77.26,1.53.58,2.24.14.26.24.53.31.81-.21-.21-.38-.46-.5-.73-.4-.71-.65-1.49-.76-2.29-.17-1.25.22-2.5,1.07-3.43,1.09-1.17,2.92-1.23,4.08-.14.05.04.09.09.14.14l.13.17-.48.18c-.25-1.04-.19-2.14.17-3.15.4-.98,1.45-1.52,2.48-1.27l-.29.19c.08-.76.44-1.47,1-2,.42-.39.93-.67,1.48-.81.35-.09.71-.11,1.07-.06.2.12.32.17.32.19Z"/>
    <path class="st12" d="M282.95,173.56s-.26,0-.68-.15c-.6-.25-1.13-.63-1.56-1.11-.66-.72-1.08-1.63-1.19-2.6.04-.49-.08-.99-.34-1.41-.29-.37-.92-.6-1.31-1.2-.74-1.16-.45-2.69.66-3.5v.38c-.97-.84-1.72-1.9-2.21-3.08-.23-.44-.35-.92-.36-1.41.23.42.44.85.62,1.29.55,1.09,1.32,2.06,2.26,2.84l.25.2-.27.18c-.86.68-1.07,1.89-.5,2.82.26.44.83.64,1.27,1.15.33.5.48,1.1.43,1.7.08.88.43,1.72,1,2.4.54.62,1.2,1.12,1.93,1.5Z"/>
    <path class="st12" d="M276.28,178.11c-.14.05-.28.07-.43.06-.41,0-.83-.03-1.23-.11-1.48-.28-2.83-1.04-3.83-2.17h.33c-1.22,1.46-3.21,2.01-5,1.38-.7-.19-1.29-.66-1.65-1.29-.09-.25-.16-.5-.21-.75-.06-.19-.17-.35-.32-.48-.36-.25-.77-.43-1.2-.53-.48-.1-.93-.29-1.34-.55-.45-.26-.73-.75-.73-1.27l.33.22c-1.01.4-2.14.43-3.17.08-.79-.25-1.51-.7-2.08-1.31-.37-.38-.66-.84-.86-1.33-.08-.17-.12-.36-.12-.55.3.62.7,1.19,1.18,1.68.57.53,1.25.92,2,1.13.94.29,1.95.24,2.86-.13l.35-.15v.38c.01.36.22.68.54.85.37.22.78.38,1.2.46.5.11.98.32,1.39.63.23.19.4.44.49.72.08.27.1.51.18.69.32.48.79.84,1.35,1,.55.19,1.14.27,1.72.22,1.06-.09,2.05-.58,2.75-1.39l.17-.21.17.2c.93,1.08,2.17,1.86,3.55,2.22,1,.27,1.61.24,1.61.3Z"/>
    <path class="st12" d="M235.31,194.06s0-.06-.06-.18c-.05-.18-.08-.36-.09-.54-.05-.7.04-1.4.25-2.06.33-1.03.8-2.01,1.39-2.91.34-.58.73-1.14,1.16-1.65.25-.29.56-.52.9-.69.4-.21.87-.21,1.27,0l-.32.21c-.19-1.9,1.2-3.59,3.09-3.77.91-.09,1.83.19,2.54.77l-.42.2c0-.77.37-1.49,1-1.94.64-.47,1.48-.57,2.22-.27.4.16.74.43,1,.77l-.47.18c-.02-.47.18-.92.54-1.22.33-.29.74-.46,1.18-.49.78,0,1.54.2,2.22.57l-.32.1c.51-.8,1.31-1.36,2.23-1.59.83-.22,1.71-.22,2.54,0,1.4.42,2.73,1.08,3.91,1.95l-.27.23c-.12-.3-.09-.64.1-.9.17-.21.4-.38.65-.49.43-.19.91-.27,1.38-.21.72.11,1.41.32,2.07.63.41.19.8.42,1.17.69.13.08.25.19.35.31,0,.05-.54-.37-1.61-.81-.64-.27-1.31-.44-2-.52-.42-.03-.83.04-1.21.22-.4.17-.73.55-.54.93l.28.57-.56-.33c-1.16-.81-2.45-1.43-3.81-1.83-.76-.19-1.56-.19-2.32,0-.8.19-1.49.68-1.94,1.37l-.12.19-.2-.09c-.61-.34-1.3-.52-2-.52-.62,0-1.3.56-1.24,1.16l.08.91-.55-.74c-.21-.26-.48-.47-.79-.6-.57-.23-1.22-.15-1.72.21-.48.35-.76.91-.76,1.51v.56l-.43-.36c-1.3-1.03-3.18-.82-4.22.48-.47.59-.7,1.34-.64,2.09v.43l-.36-.22c-.56-.33-1.23.13-1.67.59-.43.48-.81,1.01-1.14,1.56-.6.87-1.09,1.81-1.46,2.8-.28.88-.38,1.82-.28,2.74Z"/>
    <path class="st12" d="M238.22,209.28c-.1-.1-.18-.21-.26-.33-.22-.32-.43-.66-.61-1-.3-.59-.44-1.24-.41-1.9.04-.42.18-.83.39-1.19.26-.42.67-.73,1.14-.87l-.1.28c-.75-1.11-.46-2.62.66-3.37.57-.38,1.27-.51,1.93-.35l-.24.37c-.49-.7-.46-1.64.07-2.31.55-.65,1.37-1.01,2.22-1,.43,0,.83.05,1.16,0,.33-.07.6-.31.72-.62.16-.41.39-.78.67-1.12.32-.35.75-.58,1.22-.67.92-.12,1.85-.15,2.77-.07.8.09,1.61-.14,2.24-.65.25-.32.49-.65.71-1,.28-.35.64-.63,1.05-.81.79-.34,1.68-.29,2.43.13l-.3.32c-.43-.77-.31-1.73.28-2.39.49-.57,1.19-.93,1.94-1,1.15-.07,2.3.07,3.4.42.69.2,1.36.48,2,.82.24.1.46.24.66.41-.9-.39-1.82-.72-2.76-1-1.07-.29-2.18-.4-3.28-.31-.65.06-1.24.37-1.67.86-.47.51-.55,1.26-.22,1.87l.55.82-.86-.5c-.62-.33-1.36-.36-2-.08-.33.15-.62.38-.84.67-.23.35-.48.68-.75,1-.34.34-.77.57-1.23.69-.45.09-.91.13-1.37.13-.88-.07-1.77-.06-2.65.05-.38.06-.74.25-1,.53-.25.3-.45.64-.6,1-.19.45-.6.78-1.08.88-.41.03-.82.03-1.23,0-.71,0-1.38.29-1.85.82-.4.5-.44,1.2-.1,1.74l.41.53-.65-.17c-.86-.2-1.74.17-2.21.91-.4.66-.4,1.49,0,2.15l.14.22-.25.06c-.75.26-1.27.95-1.33,1.74-.05.61.05,1.23.31,1.79.49.98.78,1.47.78,1.5Z"/>
    <path class="st12" d="M239.08,240.89c-.18-.02-.35-.08-.5-.17-.46-.22-.87-.54-1.19-.93-.52-.62-.83-1.39-.87-2.2-.05-1.07.33-2.11,1.06-2.9v.28c-.62-.76-1.08-1.64-1.35-2.59-.12-.55-.08-1.13.12-1.66.2-.59.65-1.05,1.23-1.28v.45c-.89-.61-1.38-1.64-1.3-2.71.03-.6.21-1.18.54-1.69.32-.49.79-.86,1.34-1.07.5-.22.73-.45.74-1,.02-.52.14-1.04.35-1.52.44-.86,1.11-1.57,1.94-2.07.7-.5,1.34-1,1.95-1.4.95-.7,2.03-1.21,3.17-1.49.33-.07.67-.09,1-.07.22,0,.33,0,.33.05s-.46,0-1.24.22c-1.09.35-2.1.88-3,1.59l-1.9,1.45c-.75.47-1.36,1.13-1.76,1.92-.19.43-.28.9-.29,1.37,0,.31-.11.6-.29.85-.2.22-.45.4-.73.52-.95.38-1.58,1.3-1.58,2.33-.08.87.3,1.72,1,2.25l.45.28-.5.18c-.86.45-1.3,1.43-1.05,2.37.25.88.67,1.71,1.24,2.43l.1.15-.13.12c-.66.7-1.02,1.63-1,2.59.03.73.28,1.42.72,2,.38.53.85.99,1.4,1.35Z"/>
    <path class="st12" d="M255.33,227.38c-.24,0-.48-.06-.71-.15-1.69-.58-3.08-1.79-3.89-3.38-.37-.6-.5-1.31-.35-2,.11-.4.4-.73.79-.89.43-.2.93-.12,1.27.21l-.39.24c-.31-.62-.44-1.31-.36-2,.08-.4.3-.75.62-1,.35-.23.79-.29,1.19-.17.29.11.59.15.9.13.19-.06.23-.3.21-.69,0-.82.31-1.61.88-2.2.88-.99,2.26-1.38,3.53-1l-.34.31c-.33-.99-.12-2.07.54-2.87.39-.34.9-.5,1.41-.44.52.03.97.37,1.16.85l-.44.09c-.07-1.32.23-2.64.88-3.79.48-.88,1.14-1.66,1.94-2.28.51-.4,1.08-.71,1.68-.94.21-.1.43-.15.66-.17-.78.35-1.51.79-2.17,1.32-.74.63-1.34,1.39-1.78,2.25-.58,1.1-.84,2.34-.76,3.58l.12,1.88-.56-1.79c-.2-.62-1.28-.72-1.8-.2-.53.67-.67,1.57-.38,2.38l.12.46-.45-.15c-1.09-.32-2.26.02-3,.88-.48.49-.75,1.15-.75,1.83.03.21.03.41,0,.62-.07.25-.25.46-.5.56-.4.07-.81.03-1.19-.11-.26-.11-.56-.08-.79.08-.22.17-.37.41-.43.68-.07.59.04,1.19.31,1.72l.48,1.27-.87-1c-.35-.41-1.2,0-1.31.49-.11.58-.01,1.19.29,1.7.44.93,1.09,1.74,1.89,2.38.72.54,1.51.98,2.35,1.31Z"/>
    <path class="st12" d="M281.36,195.34c-.55-.09-1.08-.3-1.54-.61-.55-.3-1.03-.72-1.4-1.22-.47-.65-.66-1.46-.5-2.25.04-.19.11-.37.21-.54l.11.35c-.66-.35-1.13-.98-1.28-1.71-.11-.58,0-1.19.33-1.69.57-.83,1.24-.91,1.24-.86s-.53.28-.93,1c-.24.43-.3.93-.18,1.41.13.58.52,1.08,1.05,1.35l.23.12-.12.24c-.07.13-.12.27-.16.41-.12.65.03,1.32.4,1.87.33.46.73.85,1.2,1.17.48.28.92.6,1.34.96Z"/>
    <path class="st12" d="M293.44,189.75c.32-.58.44-1.24.36-1.9-.11-.71-.57-1.32-1.22-1.63-.83-.37-1.8-.21-2.48.39l-.33.31-.08-.45c-.09-.54-.3-1.06-.59-1.53-.29-.47-.76-.81-1.3-.92-.83-.12-1.76.65-1.53,1.34l-.49.1c-.12-1.02-.63-1.95-1.43-2.59-.63-.51-1.41-.81-2.22-.85-.74,0-1.48.12-2.18.39,0,0,.15-.17.51-.35.53-.24,1.1-.37,1.68-.36.9,0,1.77.28,2.48.83.91.7,1.51,1.73,1.66,2.87l-.49.1c-.15-.56.05-1.15.51-1.51.43-.37.99-.55,1.56-.49.7.13,1.3.55,1.67,1.16.33.53.54,1.12.64,1.73l-.41-.14c.83-.72,2.01-.88,3-.4.77.38,1.28,1.14,1.34,2,.07.53-.04,1.06-.3,1.52-.19.28-.35.39-.36.38Z"/>
    <path class="st4" d="M344.32,367.75l15.16-6.26c-1.84-12.7-4.88-25.21-9.08-37.34-5.45-15.06-14.39-21.83-17.2-23.65v-.18l-4.57-2.76-19.47-12.5c3.43,15.56-24.43,31.53-48.12-1.89l-39.16,15.84,10.24,110.9-9.71,49.06,98-.29v.95l20.85-.2-4.46-21.77c1.94-20.94,8.17-46.36,7.45-63.16.09-2.11.11-4.38.07-6.75Z"/>
    <path class="st5" d="M339.93,411.35c.12-.26.22-.53.29-.8l.57-2.29c.25-1,.54-2.21.82-3.64s.65-3,.94-4.85.65-3.78.92-5.92.55-4.42.81-6.83c.43-4.82.73-10.14.73-15.73s-.39-10.91-.79-15.74c-.27-2.41-.5-4.7-.83-6.83s-.62-4.11-1-5.91-.66-3.42-1-4.85-.57-2.64-.83-3.63-.43-1.72-.58-2.29c-.06-.27-.14-.53-.24-.79.03.28.07.55.14.82l.48,2.3c.23,1,.49,2.22.75,3.65s.61,3,.88,4.85.62,3.78.88,5.91.53,4.42.78,6.82c.42,4.81.72,10.11.75,15.69s-.29,10.88-.69,15.69c-.25,2.4-.45,4.69-.76,6.82s-.56,4.11-.86,5.91-.6,3.43-.86,4.86-.51,2.65-.73,3.65-.36,1.73-.47,2.3c-.05.27-.09.55-.1.83Z"/>
    <path class="st5" d="M340.22,410.56c0,.17-.01.34-.06.5-.07.39-.15.86-.25,1.43-.25,1.23-.57,3-.95,5.23-1.01,5.75-1.54,11.58-1.6,17.42,0,3.21.2,6.42.58,9.61.34,2.6.82,5.19,1.42,7.74.24,1.1.54,2.07.76,2.93s.45,1.59.64,2.19.3,1,.41,1.39c.06.16.1.32.11.49,0,0-.09-.15-.21-.46l-.5-1.35c-.22-.6-.48-1.32-.73-2.18s-.58-1.82-.83-2.92c-.66-2.56-1.18-5.15-1.54-7.77-.42-3.21-.63-6.44-.63-9.67.05-5.87.64-11.72,1.75-17.48.43-2.21.81-4,1.12-5.21.14-.57.25-1,.35-1.41.03-.17.09-.33.16-.48Z"/>
    <path class="st4" d="M182.86,376.76l20.09-57.48s5.27-16.94,21.27-21.12l11.38,57.49-5.28,31.45-47.46-10.34Z"/>
    <path class="st5" d="M239.48,340.56c.02.16.02.33,0,.49,0,.37-.08.83-.14,1.37-.13,1.2-.36,2.92-.69,5-.66,4.25-1.85,10.07-3.29,16.45s-2.74,12.18-3.61,16.38c-.42,2-.76,3.72-1,5l-.3,1.35c-.02.16-.07.32-.14.47-.02-.16-.02-.33,0-.49.05-.37.12-.82.2-1.36.18-1.19.48-2.9.86-5,.78-4.23,2-10,3.46-16.42s2.68-12.18,3.43-16.4c.39-2.11.67-3.82.86-5,.09-.55.17-1,.23-1.37.02-.16.06-.32.13-.47Z"/>
    <path class="st7" d="M313.44,288.56c.02.25.02.51,0,.76,0,.25,0,.56-.08.92s-.13.79-.21,1.25-.26,1-.42,1.53c-.21.6-.45,1.18-.73,1.75-.67,1.39-1.54,2.67-2.59,3.8-2.8,2.88-6.22,5.1-10,6.48-4.59,1.79-9.56,2.37-14.44,1.67-4.88-.66-9.57-2.34-13.75-4.95-3.35-2.18-6.42-4.75-9.15-7.66-1.85-1.94-3.6-3.97-5.24-6.09-.58-.75-1-1.34-1.3-1.75-.16-.2-.3-.41-.43-.63.19.17.36.36.51.57l1.38,1.68c1.21,1.46,3,3.56,5.35,6,2.74,2.85,5.8,5.36,9.13,7.5,4.12,2.54,8.73,4.18,13.53,4.83,4.8.68,9.7.11,14.22-1.66,3.72-1.33,7.09-3.48,9.88-6.28,1.04-1.09,1.92-2.33,2.6-3.68.28-.55.54-1.12.75-1.7.18-.54.33-1,.46-1.5s.18-.86.26-1.22.09-.67.13-.91c.02-.24.07-.48.14-.71Z"/>
    <g class="st9">
      <path d="M229.78,417.92c5.94-7,6.51-17,6.79-26.23.36-11.66.11-25.12.47-36.78-2.16,10.34-5.42,26.2-7,32.18,0,0,.78,6.09.82,8.48,0,2.18-.15,4.56.06,6.73.52,5.6,1.4,11.79-1.84,16.4"/>
    </g>
    <path class="st7" d="M341.73,343.13c-.08.05-.16.09-.25.11l-.76.24-2.91.9c-1.27.4-2.82.86-4.65,1.33s-3.88,1.08-6.2,1.59-4.83,1.14-7.57,1.65-5.67,1.05-8.77,1.57c-6.2.94-13.05,1.73-20.28,2.15s-14.13.37-20.4.12c-3.13-.17-6.11-.31-8.88-.59s-5.36-.53-7.71-.83-4.48-.63-6.34-.9-3.46-.57-4.76-.83l-3-.59-.78-.17-.26-.07h.27l.79.12,3,.49c1.3.23,2.9.5,4.77.74s4,.6,6.33.83,4.93.56,7.7.76,5.75.38,8.87.54c6.25.22,13.14.22,20.35-.16s14-1.2,20.24-2.11c3.09-.5,6-1,8.75-1.51s5.27-1.07,7.58-1.59,4.38-1.06,6.21-1.51,3.39-.88,4.66-1.24l2.94-.81.77-.2.29-.03Z"/>
    <path class="st7" d="M352.6,330.7c-1.68,1.34-3.47,2.54-5.34,3.6-1.78,1.2-3.66,2.26-5.61,3.16,3.46-2.55,7.12-4.81,10.95-6.76Z"/>
    <path class="st7" d="M238.43,346.07c-.56.02-1.12-.01-1.68-.09-1.07-.09-2.62-.26-4.53-.52-9.93-1.39-19.67-3.95-29-7.63-1.79-.71-3.22-1.32-4.2-1.77-.52-.2-1.02-.45-1.5-.74.54.15,1.07.33,1.58.55,1,.4,2.45.95,4.25,1.62,3.6,1.33,8.64,3,14.3,4.52s10.89,2.47,14.68,3.08c1.9.31,3.43.54,4.5.69.54.05,1.08.15,1.6.29Z"/>
    <path class="st3" d="M266.9,424.73l15.24.32s22.84-8.25,27.54-7.47c4.23.72,19.71,11,22.75,13,.34.23.59.56.73.94h0c.62,1.67-.19,3.54-1.84,4.22l-.32.13.13.46c.19.6.27,1.22.24,1.85-.07,1.23-1.12,2.17-2.35,2.1-.74-.04-1.42-.45-1.8-1.1l.58,1c.24.42.35.9.33,1.39l-.06.94c-.05,1.05-.75,1.95-1.75,2.27h0c-.95.31-1.99.04-2.66-.69-2-2.16-6.2-6.49-9.07-7-3.11-.38-6.25-.53-9.38-.47-1.32-.02-2.51.78-3,2h0c1.71.12,13.58,6.31,17.78,8.53,1.32.66,2.23,1.92,2.44,3.38.15,1.31-.51,2.69-3.11,2.08-5.58-1.3-15.63-5.92-15.63-5.92,0,0-5.18-1.48-8.53.89-4.72,3.33-6.89,4.55-10.94,3.21-2.45-.83-4.8-1.93-7-3.28l-14.65.86s-7.61-13.17,4.33-23.64Z"/>
    <path class="st2" d="M302.22,428.91c1.42-.27,2.85-.48,4.29-.6,7.06-.47,13.92,2.46,18.46,7.88,1.73,2.05,2.46,3.56,2.54,3.51-.13-.37-.3-.73-.51-1.06-.52-.93-1.12-1.81-1.79-2.64-4.5-5.65-11.53-8.65-18.72-8-1.07.09-2.12.27-3.16.53-.38.08-.76.21-1.11.38Z"/>
    <path class="st2" d="M304.6,423.35c1.45-.44,2.95-.7,4.46-.78,3.68,0,7.28,1.03,10.39,2.98,3.09,1.99,5.91,4.37,8.38,7.08l2.29,2.44c.26.32.56.61.88.87-.22-.35-.47-.69-.75-1-.51-.61-1.25-1.48-2.2-2.53-2.43-2.81-5.25-5.25-8.37-7.25-3.18-1.98-6.88-2.98-10.63-2.87-1.13.05-2.24.25-3.31.6-.29.1-.58.21-.86.33-.19.06-.29.12-.28.13Z"/>
    <path class="st3" d="M188.69,378.03c0-.1-7.93,35.63-9,41.91-1.21,7.35-3.21,25.21,13.16,28.69s84.34-1,84.34-1l4.91-22.56-62.27-8.84,6.8-29.9-37.94-8.3Z"/>
  </g>
  <g id="freepik--Device--inject-95">
    <path class="st12" d="M461.82,459.56h-139.45l18-97.86c.63-3.47,3.66-6,7.19-6h125.3c4.04,0,7.31,3.27,7.31,7.31,0,.46-.04.93-.13,1.38l-18.22,95.17Z"/>
    <path class="st12" d="M322.37,459.56h-52.89l.22-.16c4.72-3.54,10.41-5.53,16.31-5.7l37.82-1.14-1.46,7Z"/>
    <path class="st5" d="M355.87,355.79s-.39-.07-1.13-.08c-1.08.01-2.14.28-3.1.77-1.52.77-2.8,1.94-3.71,3.38-1.15,1.95-1.92,4.1-2.28,6.33-.46,2.47-.86,5.22-1.35,8.15s-1,6.07-1.66,9.35c-1.21,6.58-2.65,13.79-4.22,21.35-3.15,15.11-6.06,28.78-8,38.71-1,5-1.7,9-2.2,11.77-.25,1.36-.44,2.44-.58,3.21l-.17.83c-.01.1-.04.19-.07.28-.01-.1-.01-.19,0-.29,0-.22.07-.5.11-.84l.49-3.22c.44-2.8,1.13-6.83,2-11.81,1.81-9.95,4.67-23.64,7.82-38.75,1.57-7.55,3-14.76,4.26-21.33.63-3.28,1.18-6.41,1.7-9.33s.93-5.66,1.42-8.16c.38-2.27,1.19-4.45,2.39-6.41.96-1.46,2.3-2.64,3.87-3.4.99-.49,2.09-.72,3.19-.69.41,0,.82.06,1.22.18Z"/>
    <path class="st10" d="M414.76,405.38c0,3.73-3.01,6.75-6.74,6.76-3.73,0-6.75-3.01-6.76-6.74,0-3.73,3.01-6.75,6.74-6.76h.02c3.72,0,6.74,3.02,6.74,6.74Z"/>
  </g>
  <g id="freepik--Plant--inject-95">
    <path class="st1" d="M578.79,387.56s0-.08-.09-.22l-.33-.61c-.31-.54-.78-1.31-1.45-2.26-1.89-2.71-4.32-5.01-7.14-6.75-1.96-1.2-4.14-2-6.41-2.36-2.62-.38-5.3-.1-7.79.82-2.78.97-5.13,2.87-6.66,5.38-1.53,2.68-2,5.82-2.92,8.81-.42,1.48-1.04,2.9-1.86,4.2-.86,1.22-1.93,2.27-3.16,3.12-1.2.88-2.44,1.67-3.57,2.6-1.11.9-2.09,1.96-2.9,3.14-1.49,2.19-2.51,4.65-3,7.25-.43,2.24-.56,4.53-.39,6.81.27,3.28.85,6.52,1.74,9.69.29,1.13.54,2,.71,2.58.08.3.18.6.3.89-.05-.31-.11-.62-.19-.92-.15-.64-.36-1.5-.62-2.6-.8-3.17-1.32-6.4-1.56-9.66-.14-2.24,0-4.5.45-6.7.49-2.53,1.49-4.93,2.94-7.06.79-1.13,1.74-2.14,2.82-3,1.1-.9,2.34-1.68,3.55-2.57,1.28-.88,2.4-1.98,3.3-3.24.85-1.35,1.51-2.81,1.96-4.34.9-3.05,1.4-6.14,2.86-8.7,1.45-2.44,3.7-4.3,6.38-5.25,2.4-.9,5-1.19,7.54-.84,2.22.33,4.35,1.09,6.28,2.24,2.8,1.69,5.23,3.91,7.17,6.54.69.93,1.19,1.68,1.52,2.19.16.28.33.56.52.82Z"/>
    <path class="st1" d="M539.58,398.56c.82-.76,1.22-.23,2.33,0,1.11.24,2.14.76,3,1.5,3.89,3.2,5.49,8.41,4.09,13.25-5.44.26-10.06-3.94-10.32-9.38-.09-1.9.37-3.78,1.32-5.42"/>
    <path class="st1" d="M573.5,383.07c.42-1.05,1-.74,2.1-1,1.1-.26,2.26-.24,3.35.06,4.89,1.22,8.58,5.23,9.39,10.2-4.78,2.6-10.77.84-13.37-3.95-.92-1.69-1.32-3.61-1.17-5.52"/>
    <path class="st1" d="M532.1,419.41c4.11-4.75,11.3-5.27,16.05-1.16.69.6,1.31,1.28,1.84,2.03-2.54,2.31-5.84,3.62-9.28,3.66-3.47-.09-6.78-1.43-9.34-3.78"/>
    <path class="st1" d="M534.89,403.79c-6.36.2-11.68-4.79-11.88-11.15-.03-.87.04-1.75.21-2.6,5.57-1.27,11.11,2.22,12.37,7.79.44,1.94.31,3.98-.37,5.85"/>
    <path class="st1" d="M546.83,385.45c-5.94,2.29-12.6-.66-14.89-6.6-.31-.81-.53-1.65-.66-2.51,4.84-3.05,11.23-1.6,14.28,3.23,1.06,1.69,1.62,3.64,1.59,5.64"/>
    <path class="st1" d="M550.83,379.47c5.94-2.29,12.61.68,14.9,6.62.31.8.53,1.63.65,2.48-4.83,3.05-11.21,1.62-14.27-3.21-1.07-1.69-1.63-3.66-1.6-5.66"/>
    <path class="st1" d="M555.6,376.23c-6.03-2.04-9.26-8.57-7.23-14.6.28-.82.64-1.6,1.1-2.34,5.67.73,9.67,5.92,8.94,11.59-.26,2-1.09,3.88-2.41,5.41"/>
    <path class="st1" d="M567.83,376.82c-2.17-5.99.92-12.6,6.91-14.77.8-.29,1.64-.49,2.48-.6,2.96,4.88,1.4,11.24-3.49,14.2-1.71,1.04-3.69,1.55-5.69,1.49"/>
    <polyline class="st5" points="518.54 459.48 512.03 418.58 561.95 419.2 557.03 458.94"/>
    <path class="st4" d="M540.08,411.11c2.45,1.66,5.59,1.93,8.29.7,2.61-1.48,4.31-4.17,4.53-7.16-4.65-2.53-10.47-.81-12.99,3.84-.33.6-.59,1.23-.78,1.89"/>
    <path class="st4" d="M562.9,419.92c2.46,1.65,5.59,1.92,8.29.7,2.61-1.48,4.31-4.17,4.53-7.16-4.64-2.53-10.45-.82-12.98,3.82-.33.61-.59,1.25-.79,1.91"/>
    <path class="st4" d="M550.09,400.26c1.13,2.74,3.61,4.69,6.54,5.14,3,.21,5.9-1.1,7.72-3.49-1.43-2.51-3.85-4.29-6.67-4.9-2.85-.48-5.76.3-8,2.12"/>
    <path class="st4" d="M558.42,410.45c-2.96-.15-5.78,1.25-7.45,3.69-1.46,2.62-1.53,5.79-.17,8.47,5.29-.25,9.37-4.73,9.12-10.02-.03-.67-.13-1.34-.3-1.98"/>
    <path class="st4" d="M566.46,426.56c-1.38,2.62-1.3,5.77.2,8.32,1.76,2.43,4.61,3.83,7.61,3.73,1.02-2.7.85-5.7-.47-8.27-1.31-2.38-3.68-3.56-6.64-4.24"/>
    <path class="st4" d="M579.73,428.44c-.58-.55-1.26-.98-2-1.26-.87-.3-1.79-.46-2.71-.47-1.23,0-2.46.07-3.68.21-1.52.2-3.07.06-4.54-.39-1.67-.67-3.01-1.97-3.74-3.62-.79-1.76-1.34-3.61-1.62-5.52-.27-1.99-.92-3.91-1.92-5.66-1.18-1.64-2.6-3.09-4.22-4.3-1.52-1.17-2.87-2.55-4-4.1-1.79-2.78-2.51-6.12-2-9.39.3-2.17,1.14-4.24,2.45-6,.36-.48.76-.92,1.2-1.32.29-.28.46-.42.47-.4-.12.17-.25.33-.4.48-.4.43-.76.88-1.1,1.36-1.22,1.79-1.99,3.85-2.24,6-.45,3.16.26,6.38,2,9.06,1.14,1.51,2.49,2.86,4,4,1.66,1.24,3.13,2.72,4.34,4.4,1.04,1.81,1.71,3.8,2,5.86.27,1.86.79,3.68,1.54,5.4.67,1.55,1.91,2.77,3.46,3.42,1.4.45,2.89.59,4.35.43,1.24-.12,2.48-.17,3.72-.14.95.04,1.89.23,2.78.58.56.24,1.07.58,1.5,1,.11.1.22.22.31.34.03-.02.06.02.05.03Z"/>
    <path class="st4" d="M579.73,428.44c-.58-.55-1.26-.98-2-1.26-.87-.3-1.79-.46-2.71-.47-1.23,0-2.46.07-3.68.21-1.52.2-3.07.06-4.54-.39-1.67-.67-3.01-1.97-3.74-3.62-.79-1.76-1.34-3.61-1.62-5.52-.27-1.99-.92-3.91-1.92-5.66-1.18-1.64-2.6-3.09-4.22-4.3-1.52-1.17-2.87-2.55-4-4.1-1.79-2.78-2.51-6.12-2-9.39.3-2.17,1.14-4.24,2.45-6,.36-.48.76-.92,1.2-1.32.29-.28.46-.42.47-.4-.12.17-.25.33-.4.48-.4.43-.76.88-1.1,1.36-1.22,1.79-1.99,3.85-2.24,6-.45,3.16.26,6.38,2,9.06,1.14,1.51,2.49,2.86,4,4,1.66,1.24,3.13,2.72,4.34,4.4,1.04,1.81,1.71,3.8,2,5.86.27,1.86.79,3.68,1.54,5.4.67,1.55,1.91,2.77,3.46,3.42,1.4.45,2.89.59,4.35.43,1.24-.12,2.48-.17,3.72-.14.95.04,1.89.23,2.78.58.56.24,1.07.58,1.5,1,.11.1.22.22.31.34.03-.02.06.02.05.03Z"/>
    <path class="st4" d="M484.43,432.63c.36-6.96-5-12.89-11.96-13.25-1.75-.09-3.5.19-5.13.81,3.02,6.72,9.33,11.38,16.65,12.28"/>
    <path class="st4" d="M481.14,434.36c-2.44,2.68-2.29,7-.54,10.17s4.75,5.44,7.76,7.45c2.1-7.08-.79-14.7-7.06-18.6"/>
    <path class="st4" d="M492.96,421.79c.79,8.01,7.93,13.87,15.94,13.08.21-.02.42-.05.63-.08-.95-3.93-2.53-7.88-5.56-10.54s-7.81-3.66-11.16-1.42"/>
    <path class="st4" d="M492.89,417.79c-.62-3.57-4.14-6.16-7.75-6.5s-7.17,1.21-10.07,3.39c4.55,5.22,12.37,5.99,17.85,1.76"/>
    <path class="st4" d="M474.29,448.16c-3.43,2.93-4.29,8.14-2.86,12.42s4.76,7.69,8.51,10.19c1.44-4.24,2.34-8.79,1.58-13.2s-3.42-8.67-7.52-10.47"/>
    <path class="st4" d="M492.33,407.76c3.27-4.82,9.82-6.08,14.64-2.81.76.51,1.44,1.12,2.04,1.81-2.04,4.59-7.42,6.65-12.02,4.61-1.9-.85-3.46-2.32-4.4-4.18"/>
    <path class="st4" d="M496.53,397.47c-7.23,2.2-14.88-1.88-17.08-9.12-.16-.52-.29-1.05-.38-1.59,2.74-.32,5.52-.28,8.25.12,2.75.42,5.29,1.68,7.3,3.6,1.84,1.83,2.57,4.49,1.91,7"/>
    <path class="st4" d="M504.45,394.81c-4.79-3.92-5.49-10.97-1.58-15.76.45-.55.96-1.06,1.51-1.52,2.48,3.02,4.16,6.61,4.89,10.44.36,1.42.36,2.9,0,4.32-.4,1.43-1.55,2.51-3,2.83"/>
    <g class="st8">
      <path d="M484.43,432.63c.36-6.96-5-12.89-11.96-13.25-1.75-.09-3.5.19-5.13.81,3.02,6.72,9.33,11.38,16.65,12.28"/>
    </g>
    <g class="st8">
      <path d="M481.14,434.36c-2.44,2.68-2.29,7-.54,10.17s4.75,5.44,7.76,7.45c2.1-7.08-.79-14.7-7.06-18.6"/>
    </g>
    <g class="st8">
      <path d="M492.96,421.79c.79,8.01,7.93,13.87,15.94,13.08.21-.02.42-.05.63-.08-.95-3.93-2.53-7.88-5.56-10.54s-7.81-3.66-11.16-1.42"/>
    </g>
    <g class="st8">
      <path d="M492.89,417.79c-.62-3.57-4.14-6.16-7.75-6.5s-7.17,1.21-10.07,3.39c4.55,5.22,12.37,5.99,17.85,1.76"/>
    </g>
    <g class="st8">
      <path d="M474.29,448.16c-3.43,2.93-4.29,8.14-2.86,12.42s4.76,7.69,8.51,10.19c1.44-4.24,2.34-8.79,1.58-13.2s-3.42-8.67-7.52-10.47"/>
    </g>
    <g class="st8">
      <path d="M492.33,407.76c3.27-4.82,9.82-6.08,14.64-2.81.76.51,1.44,1.12,2.04,1.81-2.04,4.59-7.42,6.65-12.02,4.61-1.9-.85-3.46-2.32-4.4-4.18"/>
    </g>
    <g class="st8">
      <path d="M496.53,397.47c-7.23,2.2-14.88-1.88-17.08-9.12-.16-.52-.29-1.05-.38-1.59,2.74-.32,5.52-.28,8.25.12,2.75.42,5.29,1.68,7.3,3.6,1.84,1.83,2.57,4.49,1.91,7"/>
    </g>
    <g class="st8">
      <path d="M504.45,394.81c-4.79-3.92-5.49-10.97-1.58-15.76.45-.55.96-1.06,1.51-1.52,2.48,3.02,4.16,6.61,4.89,10.44.36,1.42.36,2.9,0,4.32-.4,1.43-1.55,2.51-3,2.83"/>
    </g>
    <path class="st4" d="M518.14,419.91c-.01-.1-.01-.19,0-.29,0-.21,0-.48.05-.82,0-.72.12-1.79.14-3.16.16-3.87-.46-7.73-1.85-11.34-1.01-2.46-2.58-4.66-4.57-6.42-2.28-2.03-5.25-3.11-8.3-3.05-1.63.02-3.23.42-4.68,1.17-1.5.8-2.75,1.99-3.62,3.45-1.81,3-2.26,6.74-2.1,10.43s.66,7.4.25,11c-.19,1.76-.65,3.48-1.37,5.09-.69,1.56-1.74,2.93-3.07,4-1.3.95-2.74,1.69-4.27,2.19-1.39.47-2.73,1.09-4,1.83-2.25,1.41-4.08,3.4-5.29,5.77-1,1.95-1.52,4.12-1.53,6.31,0,1.66.26,3.31.8,4.88.48,1.33,1.12,2.6,1.89,3.79,0,0-.07-.07-.18-.21s-.29-.37-.48-.67c-.59-.89-1.07-1.84-1.43-2.84-.58-1.59-.89-3.26-.9-4.95-.03-2.25.49-4.47,1.49-6.48,1.21-2.46,3.08-4.54,5.4-6,2.47-1.65,5.72-2.05,8.23-4s3.84-5.35,4.22-8.78-.12-7.13-.26-10.9.29-7.6,2.19-10.72c.92-1.54,2.24-2.8,3.83-3.64,1.52-.79,3.2-1.2,4.91-1.21,3.16-.04,6.22,1.11,8.58,3.22,2.03,1.82,3.61,4.08,4.62,6.61.83,2.08,1.36,4.26,1.57,6.48.16,1.66.21,3.33.14,5-.06,1.38-.16,2.44-.24,3.16,0,.33-.07.6-.1.82-.01.1-.04.19-.07.28Z"/>
    <g class="st8">
      <path d="M518.14,419.91c-.01-.1-.01-.19,0-.29,0-.21,0-.48.05-.82,0-.72.12-1.79.14-3.16.16-3.87-.46-7.73-1.85-11.34-1.01-2.46-2.58-4.66-4.57-6.42-2.28-2.03-5.25-3.11-8.3-3.05-1.63.02-3.23.42-4.68,1.17-1.5.8-2.75,1.99-3.62,3.45-1.81,3-2.26,6.74-2.1,10.43s.66,7.4.25,11c-.19,1.76-.65,3.48-1.37,5.09-.69,1.56-1.74,2.93-3.07,4-1.3.95-2.74,1.69-4.27,2.19-1.39.47-2.73,1.09-4,1.83-2.25,1.41-4.08,3.4-5.29,5.77-1,1.95-1.52,4.12-1.53,6.31,0,1.66.26,3.31.8,4.88.48,1.33,1.12,2.6,1.89,3.79,0,0-.07-.07-.18-.21s-.29-.37-.48-.67c-.59-.89-1.07-1.84-1.43-2.84-.58-1.59-.89-3.26-.9-4.95-.03-2.25.49-4.47,1.49-6.48,1.21-2.46,3.08-4.54,5.4-6,2.47-1.65,5.72-2.05,8.23-4s3.84-5.35,4.22-8.78-.12-7.13-.26-10.9.29-7.6,2.19-10.72c.92-1.54,2.24-2.8,3.83-3.64,1.52-.79,3.2-1.2,4.91-1.21,3.16-.04,6.22,1.11,8.58,3.22,2.03,1.82,3.61,4.08,4.62,6.61.83,2.08,1.36,4.26,1.57,6.48.16,1.66.21,3.33.14,5-.06,1.38-.16,2.44-.24,3.16,0,.33-.07.6-.1.82-.01.1-.04.19-.07.28Z"/>
    </g>
    <path class="st4" d="M590.83,410.98c.46-1.17.72-2.41.75-3.66,0-1.47-.34-2.91-1-4.22-.89-1.72-2.32-3.1-4.08-3.93-1-.49-2.09-.78-3.2-.87-1.21-.07-2.43.08-3.59.43-2.45.64-4.87,2-7.76,2.6-1.49.34-3.03.31-4.5-.11-1.53-.51-2.83-1.54-3.66-2.92-1.75-2.71-2.24-6.1-4.34-8.59-1.05-1.21-2.42-2.11-3.95-2.58-1.49-.48-3.06-.64-4.61-.47-2.97.32-5.7,1.75-7.66,4-1.77,2.02-3.07,4.41-3.8,7-.67,2.27-.96,4.64-.85,7,.2,3.42.63,6.83,1.29,10.2.2,1.16.36,2.08.48,2.76,0,.29.08.53.11.72.01.08.01.17,0,.25-.04-.07-.07-.16-.08-.24l-.16-.71-.57-2.75c-.73-3.37-1.21-6.78-1.43-10.22-.14-2.4.13-4.8.8-7.11.72-2.68,2.04-5.16,3.86-7.25,1.01-1.12,2.19-2.06,3.5-2.8,2.86-1.54,6.21-1.86,9.31-.89,1.62.5,3.07,1.45,4.19,2.73,2.23,2.67,2.7,6.09,4.37,8.66.77,1.28,1.97,2.25,3.38,2.72,1.39.39,2.85.43,4.25.11,2.78-.53,5.22-1.9,7.73-2.55,1.21-.35,2.48-.49,3.74-.4,3.21.28,6.06,2.2,7.52,5.08.65,1.36.97,2.85.91,4.36-.03.94-.21,1.88-.54,2.76-.1.31-.24.61-.41.89Z"/>
    <path class="st4" d="M561.64,392.86c2.7,1.62,6.01,1.84,8.9.58,2.61-1.48,4.31-4.17,4.53-7.16-4.65-2.53-10.47-.81-12.99,3.84-.33.6-.59,1.23-.78,1.89"/>
    <path class="st4" d="M571.1,401.45c0,3.15,1.54,6.1,4.12,7.91,2.63,1.46,5.81,1.51,8.48.14-.27-5.29-4.77-9.36-10.06-9.09-.68.03-1.35.14-2,.31"/>
    <path class="st4" d="M587.52,399.56c2.85,1.33,6.18,1.2,8.91-.37,2.46-1.75,3.89-4.61,3.79-7.63-4.9-2.02-10.5.32-12.52,5.21-.26.63-.45,1.28-.57,1.95"/>
    <path class="st4" d="M547.85,387.17c-2.4-2.06-4-5.68-3.54-8.4.64-2.93,2.71-5.35,5.5-6.45,3.79,3.69,3.87,9.76.17,13.55-.48.49-1,.93-1.57,1.3"/>
    <path class="st4" d="M483.74,375.42s0-.08.1-.22l.38-.65c.44-.78.92-1.53,1.45-2.26,1.89-2.72,4.32-5.01,7.14-6.75,1.96-1.2,4.14-2,6.41-2.36,2.62-.37,5.29-.09,7.78.82,2.79,1.02,5.13,2.98,6.62,5.55,1.53,2.67,2,5.81,2.92,8.8.41,1.49,1.03,2.91,1.86,4.21.86,1.22,1.93,2.27,3.16,3.11,1.19.88,2.44,1.67,3.57,2.6,1.11.9,2.08,1.96,2.89,3.14,1.49,2.19,2.51,4.65,3,7.25.44,2.24.57,4.53.4,6.81-.27,3.28-.85,6.53-1.74,9.7-.3,1.12-.55,2-.72,2.57-.07.3-.17.6-.29.89.04-.31.1-.61.19-.91.15-.64.35-1.51.61-2.61.81-3.17,1.33-6.4,1.57-9.66.14-2.24-.01-4.5-.46-6.7-.49-2.53-1.49-4.93-2.94-7.06-.79-1.13-1.74-2.14-2.81-3-1.1-.9-2.34-1.68-3.55-2.57-1.28-.87-2.4-1.97-3.3-3.24-.85-1.35-1.5-2.81-1.93-4.35-.91-3.05-1.4-6.14-2.86-8.7-1.45-2.44-3.71-4.29-6.38-5.25-2.41-.9-5-1.19-7.55-.84-2.22.33-4.35,1.09-6.28,2.24-2.79,1.69-5.23,3.91-7.16,6.54-.7.93-1.2,1.68-1.53,2.19-.16.25-.35.49-.55.71Z"/>
    <path class="st4" d="M522.96,386.41c-.83-.76-1.23-.23-2.34,0-1.11.25-2.13.77-3,1.5-3.88,3.21-5.49,8.41-4.09,13.25,5.43.3,10.08-3.86,10.38-9.29.11-1.93-.36-3.84-1.33-5.51"/>
    <path class="st4" d="M489.04,370.98c-.42-1.05-1-.74-2.1-1-1.1-.26-2.26-.24-3.35.06-4.89,1.22-8.58,5.23-9.4,10.2,4.77,2.61,10.76.86,13.37-3.92.93-1.7,1.33-3.63,1.17-5.55"/>
    <path class="st4" d="M530.43,407.32c-4.12-4.75-11.3-5.26-16.05-1.14-.69.6-1.3,1.27-1.83,2.01,2.54,2.32,5.84,3.62,9.27,3.66,3.47-.09,6.79-1.43,9.34-3.78"/>
    <path class="st4" d="M527.65,391.72c6.37.18,11.67-4.83,11.85-11.2.02-.86-.05-1.72-.21-2.56-5.57-1.29-11.13,2.18-12.42,7.75-.45,1.94-.33,3.98.35,5.85"/>
    <path class="st4" d="M515.71,373.36c5.95,2.26,12.61-.72,14.88-6.68.3-.79.51-1.6.63-2.43-4.84-3.05-11.24-1.6-14.29,3.25-1.06,1.68-1.61,3.64-1.59,5.62"/>
    <path class="st4" d="M511.7,367.38c-5.94-2.29-12.61.68-14.9,6.62-.31.8-.53,1.63-.65,2.48,4.83,3.05,11.21,1.62,14.27-3.21,1.07-1.69,1.63-3.66,1.6-5.66"/>
    <path class="st4" d="M506.93,364.14c6.03-2.03,9.27-8.57,7.24-14.6-.28-.82-.64-1.61-1.1-2.34-5.67.73-9.67,5.92-8.95,11.58.26,2,1.09,3.88,2.41,5.42"/>
    <path class="st4" d="M494.7,364.73c2.17-5.98-.91-12.59-6.89-14.76-.81-.3-1.66-.5-2.52-.61-2.95,4.89-1.38,11.26,3.52,14.21,1.71,1.03,3.68,1.54,5.67,1.48"/>
    <polygon class="st5" points="511.39 454.73 515.21 459.48 562.19 459.48 565.39 454.73 511.39 454.73"/>
    <path class="st12" d="M564.36,454.7c0,.15-11.54.27-25.78.27s-25.79-.12-25.79-.27,11.54-.27,25.79-.27,25.78.13,25.78.27Z"/>
    <path class="st12" d="M559.08,436.85c-.08.14-.18.26-.29.38-.31.35-.65.69-1,1-1.25,1.17-2.67,2.15-4.2,2.91-2.29,1.13-4.78,1.77-7.33,1.88-1.51.07-3.02-.05-4.49-.37-1.57-.37-3.1-.88-4.57-1.52-3-1.29-5.78-2.76-8.46-3.61-2.34-.85-4.85-1.09-7.31-.7-1.66.28-3.21,1-4.49,2.08-.89.78-1.23,1.36-1.28,1.33.06-.15.14-.3.24-.43.27-.38.57-.73.9-1.06,1.27-1.17,2.85-1.97,4.55-2.3,2.52-.46,5.12-.25,7.54.61,2.74.84,5.53,2.31,8.52,3.58,1.45.63,2.94,1.13,4.48,1.5,1.43.31,2.89.45,4.35.4,2.49-.1,4.93-.68,7.19-1.73,2.08-1.02,3.98-2.35,5.65-3.95Z"/>
    <path class="st12" d="M559.55,433.19c-.09.13-.2.26-.33.36-.31.33-.65.65-1,.94-1.32,1.09-2.79,2-4.35,2.7-2.33,1.05-4.84,1.64-7.39,1.76-1.51.08-3.02-.03-4.5-.3-1.58-.31-3.13-.75-4.64-1.31-3.1-1.13-6-2.42-8.67-3.18-2.38-.76-4.89-.99-7.37-.67-1.66.23-3.25.84-4.65,1.78-1,.68-1.4,1.21-1.44,1.17s.08-.15.29-.39c.31-.34.64-.66,1-.95,1.38-1.04,3-1.72,4.71-2,2.53-.37,5.12-.18,7.57.57,2.77.75,5.64,2,8.71,3.15,1.49.55,3.01.98,4.56,1.3,1.44.27,2.91.38,4.38.33,2.49-.1,4.95-.65,7.25-1.62,2.11-.94,4.09-2.17,5.87-3.64Z"/>
  </g>
</svg>