<?xml version="1.0" encoding="UTF-8"?>
<svg id="Layer_1" xmlns="http://www.w3.org/2000/svg" version="1.1" viewBox="0 0 500 500">
  <!-- Generator: Adobe Illustrator 29.5.1, SVG Export Plug-In . SVG Version: 2.1.0 Build 141)  -->
  <defs>
    <style>
      .st0 {
        fill: #e0e0e0;
      }

      .st1 {
        fill: #ebebeb;
      }

      .st2 {
        fill: #4a9288;
      }

      .st3 {
        fill: #263238;
      }

      .st4 {
        fill: #fff;
      }

      .st5 {
        fill: #fafafa;
      }

      .st6 {
        fill: #455a64;
      }
    </style>
  </defs>
  <g id="freepik--Device--inject-35">
    <path class="st6" d="M324.57,467.31l-142.87-.1c-17.18-.01-31.1-13.95-31.1-31.13V77.92c.01-17.19,13.96-31.12,31.15-31.1.02,0,.04,0,.06,0l142.87.09c17.18.01,31.1,13.95,31.1,31.13l-.08,358.15c0,17.18-13.92,31.12-31.1,31.13h-.04Z"/>
    <path class="st5" d="M324.53,59.58h-27.69c-3.79.08-6.8,3.23-6.72,7.02,0,0,0,0,0,0v5.03c.08,3.79-2.92,6.94-6.72,7.02,0,0,0,0,0,0h-54c-3.8-.09-6.81-3.24-6.72-7.04v-5.03c.08-3.8-2.92-6.95-6.72-7.04h-33.98c-12.03-.01-21.8,9.73-21.81,21.76,0,0,0,.02,0,.03l-.06,349.59c0,12.03,9.74,21.79,21.77,21.8l142.58.08c12.03.01,21.8-9.73,21.81-21.76V81.43c.03-12.03-9.7-21.82-21.74-21.85Z"/>
    <rect class="st3" x="298.18" y="70.92" width="1.59" height="2.22"/>
    <rect class="st3" x="300.76" y="69.94" width="1.59" height="3.21"/>
    <rect class="st3" x="303.33" y="69.2" width="1.59" height="3.95"/>
    <rect class="st3" x="305.91" y="67.76" width="1.59" height="5.39"/>
    <path class="st3" d="M330.87,73.25h-7.94c-.31,0-.57-.25-.58-.57v-3.95c0-.31.25-.57.57-.57h7.95s.07-.01.1,0c.01.04.01.08,0,.11v1.26h.86c.08,0,.15.07.15.15v1.9c0,.08-.07.14-.15.14h-.86v1.26c.07.03.11.11.08.18-.03.07-.11.11-.18.08ZM330.71,68.45h-7.8c-.15,0-.28.12-.28.28h0v3.95c0,.15.12.28.28.28,0,0,0,0,.01,0h7.79v-1.26c0-.08.07-.15.15-.15h.84v-1.65h-.84c-.08,0-.14-.05-.15-.13,0,0,0,0,0-.01v-1.31Z"/>
    <polygon class="st3" points="323.29 72.32 323.29 69.11 330.07 69.11 330.07 70.56 330.07 70.87 330.07 72.32 323.29 72.32"/>
    <path class="st3" d="M315.12,72.95c0-.32-.26-.57-.58-.58-.32,0-.58.26-.58.58,0,.31.24.57.55.58,0,0,.02,0,.03,0,.32,0,.58-.26.58-.58Z"/>
    <path class="st3" d="M312.5,71.55l.74.74c.67-.7,1.78-.71,2.47-.04.01.01.03.03.04.04l.74-.74c-.53-.53-1.26-.83-2.01-.82-.74,0-1.46.29-1.99.82Z"/>
    <path class="st3" d="M314.49,69.07c-1.17-.01-2.31.44-3.15,1.26l.73.74c1.33-1.32,3.49-1.32,4.82,0l.74-.74c-.84-.82-1.97-1.27-3.15-1.26Z"/>
    <path class="st3" d="M310.09,69.17l.74.74c2-1.99,5.23-1.99,7.22,0l.74-.74c-2.41-2.4-6.3-2.4-8.71,0h0Z"/>
    <rect class="st3" x="251.95" y="103.08" width="11.98" height="8.9" rx=".95" ry=".95"/>
    <path class="st3" d="M254.59,103.66h-1.26v-1.46c-.13-2.54,1.82-4.71,4.36-4.84,2.54-.13,4.71,1.82,4.84,4.36,0,.16,0,.32,0,.48v.96h-1.26v-.96c.11-1.85-1.29-3.43-3.14-3.55-1.85-.11-3.43,1.29-3.55,3.14,0,.14,0,.27,0,.41v1.46Z"/>
    <path class="st1" d="M161.56,323.58c.25-23.04,12.83-44.17,32.95-55.38,13.85-7.55,29.98-9.52,45.37-13.05s31.35-9.38,40.87-21.98c12.86-17.03,10.41-41.23,19.7-60.42,8.79-17.64,26.44-29.13,46.13-30.04v292.65c0,9.82-7.96,17.78-17.78,17.78h-149.43c-9.83,0-17.8-7.96-17.81-17.78h0v-111.78Z"/>
    <path class="st3" d="M193.03,171.16c0-10.85,5.69-17.32,13.58-17.32s13.62,6.47,13.62,17.32-5.74,17.33-13.62,17.33-13.58-6.48-13.58-17.33ZM216.63,171.16c0-9.1-4.09-14.11-10.07-14.11s-10.07,5.03-10.07,14.11,4.09,14.12,10.07,14.12,10.09-5.05,10.09-14.12h-.03Z"/>
    <path class="st3" d="M249.85,170.87c0,11.58-6.29,17.62-15.57,17.62-2.81.12-5.6-.52-8.08-1.85l1.41-2.82c2.01,1.16,4.31,1.71,6.62,1.6,7.35,0,12.07-4.72,12.07-13.97,0-.77,0-1.75-.15-2.77-1.7,3.78-5.69,5.84-10.41,5.84-6.77,0-11.49-3.99-11.49-10.22s5.03-10.46,11.63-10.46c9.05-.04,13.97,6.26,13.97,17.03ZM245.02,164.11c0-3.78-3.11-7.3-9-7.3-4.92,0-8.32,2.87-8.32,7.39s3.31,7.35,8.56,7.35,8.76-3.21,8.76-7.44h0Z"/>
    <path class="st3" d="M254.96,165.03c-.06-1.39,1.01-2.57,2.4-2.63.06,0,.12,0,.18,0,1.44,0,2.61,1.15,2.62,2.59,0,.01,0,.03,0,.04.01,1.46-1.16,2.66-2.62,2.68-1.45-.02-2.6-1.21-2.58-2.65,0,0,0-.02,0-.03ZM254.96,185.76c-.06-1.39,1.01-2.57,2.4-2.63.06,0,.12,0,.18,0,1.44,0,2.61,1.15,2.62,2.59,0,.01,0,.03,0,.04.01,1.46-1.16,2.66-2.62,2.68-1.45-.02-2.6-1.21-2.58-2.65,0,0,0-.02,0-.03Z"/>
    <path class="st3" d="M288.49,185.08v3.12h-23.91v-2.52l14.16-13.85c3.85-3.78,4.58-6.08,4.58-8.42,0-3.94-2.78-6.37-7.98-6.37-3.51-.22-6.94,1.17-9.3,3.78l-2.52-2.15c2.63-3.11,6.86-4.86,12.07-4.86,6.91,0,11.33,3.5,11.33,9.19,0,3.27-1.02,6.19-5.6,10.66l-11.58,11.33,18.75.09Z"/>
    <path class="st3" d="M292.67,171.16c0-10.85,5.69-17.32,13.58-17.32s13.62,6.47,13.62,17.32-5.74,17.33-13.62,17.33-13.58-6.48-13.58-17.33ZM316.27,171.16c0-9.1-4.09-14.11-10.07-14.11s-10.07,5.03-10.07,14.11,4.18,14.11,10.18,14.11,9.96-5.03,9.96-14.11Z"/>
    <circle class="st0" cx="195.05" cy="122.73" r="24.59" transform="translate(34.07 287.64) rotate(-77.87)"/>
  </g>
  <g id="freepik--Notifications--inject-35">
    <rect class="st4" x="126.38" y="209.59" width="255.43" height="81.89" rx="6.94" ry="6.94"/>
    <path class="st3" d="M373.02,291.48c.57-.04,1.13-.1,1.69-.2,1.64-.33,3.14-1.13,4.33-2.3.88-.84,1.57-1.87,2.01-3.01.51-1.38.72-2.86.62-4.33v-60.49c.11-1.68,0-3.38-.3-5.03-.91-3.46-3.9-5.98-7.46-6.29-1.77-.08-3.65,0-5.51,0l-233.26.1c-1.37,0-2.73.34-3.94.98-1.21.64-2.25,1.57-3.02,2.69-.76,1.13-1.24,2.42-1.41,3.78-.11,1.33,0,2.79,0,4.18v16.75c0,11.09,0,22,0,32.73v12c.05,1.27.39,2.52.98,3.65,1.21,2.26,3.37,3.85,5.88,4.33,1.25.14,2.52.19,3.78.14h34.24l104.83.08,70.67.1,19.22.06h6.73-25.95l-70.67.1-104.83.08h-34.19c-1.32.06-2.63,0-3.94-.15-4.19-.75-7.28-4.32-7.43-8.57v-61.51c0-1.42,0-2.77.06-4.25.33-2.98,2.12-5.59,4.77-6.99,1.31-.69,2.76-1.06,4.24-1.06l233.19.1h5.55c3.74.34,6.87,2.98,7.84,6.61.23.85.33,1.73.3,2.61v63.01c.11,1.49-.12,2.99-.65,4.39-1.13,2.75-3.56,4.75-6.48,5.31-.42.08-.84.12-1.26.14l-.63.29Z"/>
    <path class="st3" d="M363.41,226.39c-.08,0-.17-.03-.23-.09-.12-.13-.12-.33,0-.45l6.29-6.03c.13-.12.33-.12.45,0,.12.12.12.32,0,.44l-6.29,6.03c-.06.06-.14.1-.23.1Z"/>
    <path class="st3" d="M369.68,226.42c-.08,0-.16-.03-.21-.09l-6.23-6.08c-.12-.11-.13-.31-.01-.43,0,0,0,0,.01-.01.12-.12.32-.12.44,0l6.29,6.09c.12.12.12.32,0,.44-.08.07-.19.1-.29.08Z"/>
    <path class="st2" d="M181.42,266.44l-2.52-3.64c-1.55-2.19-2.38-4.81-2.38-7.49v-8.18c0-6.59-4.81-12.19-11.33-13.18v-3.9c0-.99-.81-1.8-1.8-1.8h0c-.99,0-1.79.8-1.79,1.79,0,0,0,0,0,.01v3.78c-6.72.8-11.78,6.49-11.78,13.25v8.47c0,2.91-.98,5.74-2.78,8.03l-2.2,2.81,36.58.05Z"/>
    <path class="st2" d="M161.2,272.38c2.03.82,4.35.42,5.99-1.03.69-.63,1.21-1.43,1.51-2.32l-10.66-.08c.53,1.53,1.67,2.78,3.16,3.42Z"/>
    <path class="st3" d="M325.19,237.25c0,.18-28.61.33-63.9.33s-63.9-.15-63.9-.33,28.61-.33,63.9-.33,63.9.15,63.9.33Z"/>
    <path class="st0" d="M355.25,252.72c0,.18-35.36.33-78.96.33s-78.97-.15-78.97-.33,35.34-.33,78.97-.33,78.96.14,78.96.33Z"/>
    <path class="st0" d="M355.25,262.05c0,.18-35.36.33-78.96.33s-78.97-.15-78.97-.33,35.34-.33,78.97-.33,78.96.08,78.96.33Z"/>
    <rect class="st5" x="165.45" y="304.26" width="175.5" height="56.26" rx="6.94" ry="6.94"/>
    <path class="st3" d="M332.21,360.53s.39,0,1.15-.13c1.12-.15,2.2-.52,3.17-1.1,2.63-1.54,4.27-4.35,4.29-7.4v-4.02c0-5.69,0-12.59-.06-20.68v-12.91c.06-1.14-.03-2.28-.28-3.4-.28-1.13-.8-2.19-1.52-3.11-1.49-1.94-3.75-3.13-6.19-3.27l-158.59.08c-3.83,0-7.19,2.58-8.16,6.29-.22.9-.31,1.83-.26,2.76v38.91c.09.87.31,1.71.64,2.52,1.4,3.24,4.67,5.28,8.19,5.11h20.6l71.28.06,48.07.11,13.06.06h4.56-17.62l-48.07.1-71.28.08h-20.55c-3.79.17-7.3-2.01-8.81-5.49-.35-.86-.58-1.77-.68-2.69-.08-.96,0-1.84,0-2.74v-36.01c-.05-.98.05-1.97.29-2.92,1.03-4.02,4.66-6.82,8.81-6.81l158.59.11c3.88.25,7.16,2.98,8.11,6.75.25,1.15.35,2.33.28,3.5v37.61c-.02,1.19-.28,2.37-.77,3.46-.77,1.71-2.06,3.12-3.69,4.05-.99.57-2.09.93-3.22,1.06-.44.06-.89.08-1.33.06Z"/>
    <path class="st3" d="M328.31,315.91c-.09,0-.17-.04-.23-.1-.12-.11-.13-.31-.01-.43,0,0,0,0,.01-.01l4.32-4.14c.12-.13.32-.13.44,0,0,0,0,0,0,0,.12.12.12.32,0,.44l-4.33,4.14c-.05.06-.13.1-.21.1Z"/>
    <path class="st3" d="M332.62,315.92c-.08,0-.17-.03-.23-.09l-4.28-4.18c-.1-.14-.08-.34.06-.44.11-.08.27-.08.38,0l4.28,4.18c.12.12.12.32,0,.44-.06.05-.13.09-.21.09Z"/>
    <path class="st6" d="M203.26,343.32l-1.76-2.52c-1.06-1.51-1.63-3.3-1.64-5.15v-5.64c0-4.52-3.3-8.36-7.77-9.05v-2.68c0-.7-.56-1.26-1.26-1.26h0c-.7,0-1.26.56-1.26,1.26v2.64c-4.61.54-8.09,4.45-8.09,9.1v5.82c0,2-.67,3.94-1.9,5.51l-1.52,1.94,25.2.03Z"/>
    <path class="st6" d="M189.37,347.41c1.4.56,2.99.29,4.12-.7.47-.44.83-.99,1.03-1.6h-7.33c.38,1.03,1.17,1.87,2.18,2.3Z"/>
    <path class="st3" d="M302,323.27c0,.18-19.66.33-43.91.33s-43.9-.15-43.9-.33,19.66-.33,43.9-.33,43.91.14,43.91.33Z"/>
    <path class="st0" d="M322.67,333.89c0,.19-24.29.33-54.25.33s-54.26-.14-54.26-.33,24.28-.33,54.26-.33,54.25.15,54.25.33Z"/>
    <path class="st0" d="M322.67,340.26c0,.18-24.29.33-54.25.33s-54.26-.15-54.26-.33,24.28-.33,54.26-.33,54.25.15,54.25.33Z"/>
    <rect class="st5" x="166.11" y="369.27" width="174.17" height="55.83" rx="6.94" ry="6.94"/>
    <path class="st3" d="M331.55,425.12s.39,0,1.13-.11c1.11-.15,2.18-.52,3.15-1.1,1.58-.91,2.84-2.3,3.59-3.96.46-1.06.72-2.19.74-3.35v-37.31c.07-1.13-.03-2.27-.28-3.37-.28-1.12-.79-2.17-1.5-3.08-1.47-1.93-3.71-3.13-6.13-3.3l-157.33.06c-3.82.02-7.15,2.6-8.13,6.29-.23.89-.33,1.81-.29,2.73v38.62c.09.87.3,1.71.63,2.52,1.38,3.22,4.6,5.26,8.11,5.12h20.44l70.72.06,47.69.11,12.96.06h4.52-4.52l-12.96.06-47.69.1-70.72.08h-20.47c-3.75.12-7.2-2.06-8.7-5.5-.35-.86-.58-1.76-.68-2.68v-38.6c-.04-.98.07-1.95.31-2.89,1.08-3.98,4.69-6.74,8.81-6.73l157.33.14c2.55.18,4.9,1.45,6.44,3.49.73.97,1.27,2.07,1.57,3.25.24,1.14.33,2.31.28,3.47v12.81c0,7.99,0,14.88-.06,20.52v3.98c-.09,3.09-1.79,5.91-4.48,7.43-.99.56-2.08.92-3.21,1.04-.43.05-.86.07-1.28.05Z"/>
    <path class="st3" d="M327.71,380.84c-.09,0-.17-.04-.23-.1-.12-.11-.13-.31-.01-.43,0,0,0,0,.01-.01l4.29-4.12c.13-.12.33-.12.45,0,.12.12.12.32,0,.44l-4.29,4.12c-.06.07-.14.1-.23.1Z"/>
    <path class="st3" d="M332.01,380.85c-.08,0-.17-.03-.23-.09l-4.24-4.18c-.13-.12-.13-.32,0-.45.12-.13.32-.13.45,0l4.24,4.15c.12.12.12.32,0,.44-.05.07-.13.11-.21.13Z"/>
    <path class="st0" d="M203.64,408.05l-1.8-2.52c-1.06-1.49-1.63-3.28-1.62-5.11v-5.56c0-4.49-3.28-8.31-7.72-9v-2.66c0-.7-.56-1.26-1.26-1.26h0c-.7,0-1.26.56-1.26,1.26v2.62c-4.58.55-8.02,4.43-8.02,9.04v5.78c0,1.98-.66,3.91-1.89,5.48l-1.4,1.94h24.96Z"/>
    <path class="st0" d="M189.84,412.11c1.39.55,2.97.28,4.09-.7.47-.43.82-.98,1.02-1.59h-7.26c.37,1.03,1.15,1.86,2.15,2.29Z"/>
    <path class="st3" d="M301.63,388.14c0,.19-19.51.33-43.57.33s-43.57-.14-43.57-.33,19.51-.33,43.57-.33,43.57.1,43.57.33Z"/>
    <path class="st0" d="M322.17,398.69c0,.19-24.12.33-53.85.33s-53.85-.14-53.85-.33,24.1-.33,53.85-.33,53.85.15,53.85.33Z"/>
    <path class="st0" d="M322.17,405.01c0,.18-24.12.33-53.85.33s-53.85-.15-53.85-.33,24.1-.33,53.85-.33,53.85.15,53.85.33Z"/>
  </g>
</svg>