<?xml version="1.0" encoding="UTF-8"?>
<svg id="Layer_1" xmlns="http://www.w3.org/2000/svg" version="1.1" viewBox="0 0 500 500">
  <!-- Generator: Adobe Illustrator 29.5.1, SVG Export Plug-In . SVG Version: 2.1.0 Build 141)  -->
  <defs>
    <style>
      .st0 {
        fill: #e0e0e0;
      }

      .st1 {
        fill: #ebebeb;
      }

      .st2 {
        fill: #4a9288;
      }

      .st3 {
        fill: #263238;
      }

      .st4 {
        fill: #fff;
      }

      .st5 {
        opacity: .3;
      }

      .st6 {
        fill: #f5f5f5;
      }

      .st7 {
        fill: #455a64;
      }
    </style>
  </defs>
  <g id="freepik--background-complete--inject-86">
    <rect class="st0" x="116.23" y="304.71" width="1.11" height="148.93"/>
    <rect class="st0" x="115.2" y="287.22" width="2.95" height="19.61"/>
    <polygon class="st0" points="127.09 394.12 105.02 394.12 123.99 365.07 107.32 365.07 122.28 337.38 109.67 337.38 109.67 336.27 124.15 336.27 109.17 363.97 126.04 363.97 107.07 393.02 127.09 393.02 127.09 394.12"/>
    <polygon class="st0" points="100.59 471.64 99.5 471.56 111.3 306.29 122.26 306.29 132.75 471.56 131.64 471.64 121.22 307.4 112.33 307.4 100.59 471.64"/>
    <polygon class="st0" points="131.1 454.2 100.81 454.2 127.15 422.49 103 422.49 126.66 393.21 127.52 393.91 105.32 421.38 129.51 421.38 103.17 453.09 131.1 453.09 131.1 454.2"/>
    <rect class="st0" x="360.76" y="220.53" width="1.11" height="224.06"/>
    <rect class="st0" x="358.94" y="194.22" width="4.42" height="29.5"/>
    <polygon class="st0" points="376.81 354.76 344.13 354.76 372.67 311.06 347.53 311.06 370.05 269.39 350.6 269.39 350.6 268.28 371.91 268.28 349.39 309.96 374.72 309.96 346.17 353.65 376.81 353.65 376.81 354.76"/>
    <polygon class="st0" points="383.9 470.96 368.25 224.27 354.35 224.27 336.79 469.98 335.69 469.9 353.31 223.16 369.29 223.16 369.32 223.68 385 470.9 383.9 470.96"/>
    <polygon class="st0" points="382.84 445.14 337.86 445.14 377.5 397.44 341.15 397.44 376.38 353.85 377.25 354.54 343.46 396.33 379.86 396.33 340.22 444.03 382.84 444.03 382.84 445.14"/>
    <path class="st1" d="M203.38,286.89c.54-3.91-5.1-7.14-9.34-7.47-2.03-.16-4.12.14-6.04-.51-4.16-1.42-5.82-6.65-9.88-8.33-3.03-1.25-6.52-.14-9.45,1.31s-5.84,3.27-9.12,3.47c-2.86.18-5.95-.85-8.46.51-1.86,1.02-2.83,3.11-4.54,4.34-1.79,1.08-3.86,1.63-5.95,1.58-2.09-.05-4.17.28-6.14.98-1.9.85-3.46,2.82-3.07,4.81l72-.69Z"/>
    <path class="st1" d="M169.2,123.73c.39-2.84-3.61-5.16-6.65-5.41-1.44.05-2.88-.07-4.29-.38-2.95-1.02-4.12-4.83-6.99-6.04-2.15-.91-4.62-.1-6.65.94s-4.15,2.37-6.47,2.53c-2.03.12-4.22-.63-6,.37-1.32.73-2.02,2.22-3.24,3.15-1.27.77-2.73,1.15-4.21,1.11-1.48-.04-2.96.2-4.36.71-1.43.54-2.34,1.96-2.22,3.49l51.07-.47Z"/>
    <path class="st1" d="M363.38,111.04c.39-2.78-3.61-5.07-6.65-5.3-1.44.06-2.88-.06-4.29-.37-2.95-1-4.12-4.72-6.99-5.91-2.15-.89-4.62-.1-6.65.92s-4.15,2.32-6.47,2.47c-2.03.12-4.22-.61-6,.35-1.32.72-2.02,2.22-3.24,3.09-1.27.75-2.73,1.14-4.21,1.11-1.48-.04-2.96.2-4.36.69-1.43.5-2.34,1.9-2.22,3.41l51.07-.48Z"/>
  </g>
  <g id="freepik--Rocket--inject-86">
    <path class="st0" d="M266.39,450.18c-6.33-4.83-14.54-6.47-22.24-4.43.94-8.98-5.57-17.02-14.55-17.97-1.89-.2-3.8-.07-5.65.39,2.31-12.65-6.07-24.77-18.71-27.08-12.65-2.31-24.77,6.07-27.08,18.71-.51,2.82-.51,5.71.03,8.52-7.88-1.35-15.36,3.95-16.71,11.83-.53,3.09-.04,6.27,1.39,9.06-4.43-1.23-8.98.53-12.69,3.19-6.2,4.43-7.63,10.65-5.73,19.63l131.75-.29c.12-7.86-3.62-16.75-9.81-21.56Z"/>
    <path class="st0" d="M369.85,450.18c-6.33-4.83-14.54-6.46-22.23-4.43.94-8.99-5.59-17.03-14.57-17.97-1.89-.2-3.79-.06-5.63.39,2.33-12.64-6.04-24.78-18.68-27.1-12.64-2.33-24.78,6.04-27.1,18.68-.52,2.84-.51,5.75.03,8.58-7.88-1.35-15.36,3.95-16.71,11.83-.53,3.09-.04,6.27,1.39,9.06-4.43-1.23-8.99.53-12.7,3.19-6.18,4.43-7.67,10.36-5.76,19.34l131.79.09c.12-7.86-3.62-16.84-9.82-21.65Z"/>
    <path class="st2" d="M309.06,131.94c-2.01-2.73-5.84-3.31-8.57-1.3-.4.29-.76.63-1.07,1.01-4.43,5.34-10.19,14.65-10.19,26.78v148.62h27.27s1.71-129.02,1.71-148.62c-.12-9.58-3.33-18.87-9.14-26.49Z"/>
    <path class="st3" d="M309.06,131.94s.78.94,2.05,2.88c1.86,2.84,3.39,5.88,4.57,9.06,1.89,5.06,2.79,10.44,2.66,15.84-.06,6.3-.13,13.47-.21,21.42-.33,31.84-.81,76.12-1.35,125.91v.28h-27.83v-.28c0-52.57.07-99.81.09-133.91v-12.19c0-1.92,0-3.79.14-5.6.14-1.75.4-3.49.78-5.2,1.31-5.66,3.74-11.01,7.15-15.72.69-.98,1.39-1.85,2.05-2.67.61-.79,1.4-1.43,2.31-1.85,1.43-.66,3.06-.75,4.56-.24.91.29,1.73.8,2.41,1.49.23.23.44.48.62.74,0,0-.21-.25-.67-.7-.67-.66-1.49-1.15-2.39-1.43-1.46-.46-3.04-.36-4.43.29-1.7.73-2.84,2.63-4.24,4.5-3.36,4.7-5.74,10.03-7.02,15.66-.38,1.7-.63,3.42-.75,5.15-.16,1.8-.13,3.66-.12,5.54v12.19c0,34.1.06,81.34.09,133.91l-.28-.29h27.27l-.29.28c.61-49.78,1.11-94.05,1.54-125.9.11-7.96.2-15.13.29-21.42.15-5.37-.71-10.71-2.55-15.76-1.15-3.17-2.63-6.21-4.43-9.07-.61-.99-1.11-1.71-1.45-2.22l-.53-.7Z"/>
    <path class="st3" d="M317.75,159.72c0,.16-6.21.28-13.85.28s-13.85-.12-13.85-.28,6.21-.29,13.85-.29,13.85.12,13.85.29Z"/>
    <path class="st3" d="M317.75,194.22c0,.16-6.21.28-13.85.28s-13.85-.12-13.85-.28,6.21-.29,13.85-.29,13.85.13,13.85.29Z"/>
    <path class="st3" d="M317.75,228.73c0,.16-6.21.29-13.85.29s-13.85-.13-13.85-.29,6.21-.28,13.85-.28,13.85.12,13.85.28Z"/>
    <path class="st3" d="M317.75,263.23c0,.17-6.21.29-13.85.29s-13.85-.12-13.85-.29,6.21-.28,13.85-.28,13.85.12,13.85.28Z"/>
    <path class="st3" d="M313.62,225.78c.01.35.3.62.65.61,0,0,0,0,0,0,.34,0,.61-.27.61-.61s-.27-.61-.61-.61c-.35-.01-.64.26-.65.61,0,0,0,0,0,0Z"/>
    <path class="st3" d="M302.61,225.78c.01.35.3.62.65.61,0,0,0,0,0,0,.34,0,.61-.27.61-.61s-.27-.61-.61-.61c-.35-.01-.64.26-.65.61,0,0,0,0,0,0Z"/>
    <path class="st3" d="M291.6,225.78c.02.35.31.62.67.61.34,0,.61-.27.61-.61s-.27-.61-.61-.61c-.35-.01-.65.26-.67.61Z"/>
    <path class="st3" d="M313.62,259.73c.01.35.3.62.65.61,0,0,0,0,0,0,.35.01.65-.26.67-.61-.01-.35-.3-.62-.65-.61,0,0,0,0-.01,0-.34-.02-.63.24-.65.59,0,0,0,.02,0,.02Z"/>
    <path class="st3" d="M302.61,259.73c.01.35.3.62.65.61,0,0,0,0,0,0,.35.01.65-.26.67-.61-.01-.35-.3-.62-.65-.61,0,0,0,0-.01,0-.34-.02-.63.24-.65.59,0,0,0,.02,0,.02Z"/>
    <path class="st3" d="M291.6,259.73c.02.35.31.62.67.61.35.01.64-.26.65-.61,0,0,0,0,0,0,0-.34-.29-.62-.63-.61,0,0-.02,0-.02,0-.35-.02-.65.25-.66.6,0,0,0,0,0,.01Z"/>
    <ellipse class="st3" cx="314.27" cy="189.82" rx=".67" ry=".68"/>
    <path class="st3" d="M302.61,189.82c0,.37.29.67.65.68h0c.37,0,.68-.3.68-.68s-.3-.68-.68-.68c-.37,0-.66.31-.65.68h0Z"/>
    <ellipse class="st3" cx="292.27" cy="189.82" rx=".67" ry=".68"/>
    <rect class="st3" x="312.01" y="163.05" width="1.84" height="3.85"/>
    <rect class="st3" x="308.06" y="163.05" width="1.84" height="3.85"/>
    <rect class="st7" x="293.39" y="362.87" width="17.83" height="34.1"/>
    <path class="st7" d="M316.32,403.27h0c.03-2.1-.89-4.09-2.5-5.43l-2.59-2.5-17.84.21-1.57,1.41c-1.59,1.24-2.6,3.06-2.83,5.07v.25l27.34,1Z"/>
    <rect class="st7" x="286.81" y="402.29" width="31.33" height="3.15" rx="1.37" ry="1.37"/>
    <rect class="st7" x="290.84" y="367.46" width="22.92" height="2.41" rx="1.04" ry="1.04"/>
    <path class="st3" d="M312.6,369.86c0,.07-4.61.11-10.3.11s-10.3,0-10.3-.11,4.61-.12,10.3-.12,10.3.06,10.3.12Z"/>
    <path class="st3" d="M312.6,367.46c0,.07-4.61.12-10.3.12s-10.3-.06-10.3-.12,4.61-.11,10.3-.11,10.3.06,10.3.11Z"/>
    <rect class="st7" x="290.84" y="373.65" width="22.92" height="2.41" rx="1.04" ry="1.04"/>
    <path class="st3" d="M312.6,376.05c0,.07-4.61.12-10.3.12s-10.3-.06-10.3-.12,4.61-.11,10.3-.11,10.3.06,10.3.11Z"/>
    <path class="st3" d="M312.6,373.65c0,.07-4.61.11-10.3.11s-10.3,0-10.3-.11,4.61-.12,10.3-.12,10.3.06,10.3.12Z"/>
    <rect class="st7" x="290.84" y="379.84" width="22.92" height="2.41" rx="1.04" ry="1.04"/>
    <path class="st3" d="M312.6,382.21c0,.07-4.61.11-10.3.11s-10.3,0-10.3-.11,4.61-.12,10.3-.12,10.3.12,10.3.12Z"/>
    <path class="st3" d="M312.6,379.84c0,.07-4.61.12-10.3.12s-10.3-.06-10.3-.12,4.61-.11,10.3-.11,10.3.06,10.3.11Z"/>
    <rect class="st7" x="290.84" y="386.03" width="22.92" height="2.41" rx="1.04" ry="1.04"/>
    <path class="st3" d="M312.6,388.43c0,.07-4.61.12-10.3.12s-10.3-.06-10.3-.12,4.61-.11,10.3-.11,10.3.06,10.3.11Z"/>
    <path class="st3" d="M312.6,386.03c0,.07-4.61.11-10.3.11s-10.3,0-10.3-.11,4.61-.12,10.3-.12,10.3.06,10.3.12Z"/>
    <rect class="st7" x="290.84" y="392.22" width="22.92" height="2.41" rx="1.04" ry="1.04"/>
    <path class="st3" d="M312.6,394.62c0,.07-4.61.11-10.3.11s-10.3,0-10.3-.11,4.61-.11,10.3-.11,10.3.04,10.3.11Z"/>
    <path class="st3" d="M312.6,392.18c0,.07-4.61.12-10.3.12s-10.25-.02-10.25-.12,4.61-.11,10.3-.11,10.25.11,10.25.11Z"/>
    <path class="st2" d="M195.78,131.3c2.01-2.73,5.84-3.31,8.57-1.3.4.29.76.63,1.07,1.01,4.43,5.33,10.19,14.65,10.19,26.78v148.61h-27.27s-1.71-129.01-1.71-148.61c.12-9.58,3.32-18.87,9.14-26.49Z"/>
    <path class="st3" d="M195.78,131.3c-.73.92-1.42,1.88-2.05,2.87-1.85,2.84-3.38,5.88-4.57,9.06-1.88,5.06-2.79,10.44-2.66,15.84,0,6.3.12,13.48.2,21.44.34,31.84.82,76.12,1.35,125.91v.28h27.83v-.29c0-52.56-.07-99.75-.09-133.9v-12.19c0-1.92,0-3.79-.14-5.6-.14-1.75-.4-3.49-.79-5.21-1.3-5.66-3.73-11-7.14-15.71-.69-.98-1.39-1.86-2.05-2.67-.61-.79-1.4-1.42-2.31-1.85-1.43-.66-3.06-.75-4.56-.24-.93.32-1.76.86-2.42,1.58-.23.23-.44.48-.62.74,0,0,.21-.25.67-.7.67-.66,1.49-1.15,2.39-1.43,1.46-.47,3.04-.36,4.43.29,1.68.73,2.84,2.62,4.24,4.5,3.35,4.7,5.74,10.02,7.02,15.65.38,1.7.63,3.43.75,5.16.16,1.8.12,3.65.12,5.54v12.19c0,34.1,0,81.34-.08,133.9l.28-.28h-27.27l.28.28c-.61-49.78-1.11-94.05-1.53-125.9-.11-7.96-.21-15.14-.29-21.44-.15-5.37.71-10.71,2.55-15.76,1.15-3.17,2.63-6.21,4.43-9.07.61-.99,1.11-1.71,1.45-2.22s.54-.79.54-.79Z"/>
    <path class="st3" d="M187.09,159.08c0,.16,6.21.29,13.85.29s13.85-.13,13.85-.29-6.21-.28-13.85-.28-13.85.12-13.85.28Z"/>
    <path class="st3" d="M187.09,193.59c0,.16,6.21.28,13.85.28s13.85-.12,13.85-.28-6.21-.29-13.85-.29-13.85.12-13.85.29Z"/>
    <path class="st3" d="M187.09,228.15c0,.16,6.21.28,13.85.28s13.85-.12,13.85-.28-6.21-.29-13.85-.29-13.85.08-13.85.29Z"/>
    <path class="st3" d="M187.09,262.6c0,.16,6.21.29,13.85.29s13.85-.13,13.85-.29-6.21-.28-13.85-.28-13.85.12-13.85.28Z"/>
    <path class="st0" d="M240.87,63.12c5.93-4.43,14.3-3.69,20.09,1.11,17.25,14.33,25.75,35.78,25.75,52.76v192h-67.95s-4.29-164.54-4.29-191.99c0-16.67,11.28-42.47,26.4-53.88Z"/>
    <path class="st3" d="M240.87,63.12s-.34.25-1,.79c-.99.76-1.93,1.58-2.83,2.45-3.49,3.31-6.58,7.04-9.19,11.08-1.91,2.92-3.65,5.96-5.2,9.09-1.87,3.72-3.47,7.58-4.78,11.54-1.55,4.55-2.63,9.26-3.23,14.03-.07.64-.17,1.27-.2,1.93s-.06,1.3-.09,1.96c-.08,1.32,0,2.64,0,3.99,0,2.7.06,5.48.09,8.31.69,45.44,2.22,108.86,4.05,180.66v.28h68.51V123.69c0-3.24,0-6.38-.1-9.48-.36-5.87-1.5-11.67-3.39-17.25-1.66-4.96-3.85-9.73-6.54-14.22-4.27-7.2-9.75-13.6-16.21-18.92-2.41-1.9-5.26-3.14-8.29-3.61-2.22-.33-4.48-.2-6.65.39-1.31.39-2.57.94-3.74,1.65l-1.11.81,1.16-.76c1.15-.65,2.37-1.15,3.64-1.51,2.14-.56,4.37-.67,6.56-.33,3,.48,5.82,1.73,8.19,3.61,6.41,5.31,11.85,11.68,16.09,18.84,2.65,4.49,4.82,9.24,6.46,14.19,1.87,5.55,2.98,11.32,3.32,17.16v194.69l.29-.28h-67.94l.28.28c-1.83-71.84-3.45-135.22-4.23-180.66,0-2.84-.03-5.62-.1-8.31,0-1.34-.07-2.68,0-3.99,0-.65,0-1.3.08-1.94s.13-1.29.2-1.92c.57-4.75,1.63-9.43,3.17-13.97,1.29-3.95,2.86-7.81,4.72-11.53,1.54-3.13,3.25-6.16,5.14-9.09,2.59-4.03,5.65-7.75,9.1-11.08.88-.87,1.81-1.7,2.78-2.47l.98-.88Z"/>
    <path class="st4" d="M254.54,65.65s26.16,21.06,26.38,49.17v75.06h-11.22l.69-65.39s1.43-12.42-5.32-34.26c-2.68-8.52-6.21-16.75-10.53-24.57Z"/>
    <path class="st3" d="M215.82,124.49c0,.16,15.58.28,34.81.28s34.81-.12,34.81-.28-15.58-.29-34.81-.29-34.81.13-34.81.29Z"/>
    <path class="st3" d="M215.82,150.57c0,.17,15.58.29,34.81.29s34.77-.09,34.77-.29-15.58-.28-34.81-.28-34.77.16-34.77.28Z"/>
    <path class="st3" d="M215.82,176.72c0,.16,15.58.29,34.81.29s34.81-.13,34.81-.29-15.58-.28-34.81-.28-34.81.12-34.81.28Z"/>
    <path class="st3" d="M215.82,202.85c0,.16,15.58.29,34.81.29s34.81-.13,34.81-.29-15.58-.28-34.81-.28-34.81.09-34.81.28Z"/>
    <polygon class="st6" points="335.27 360.06 335.27 326.53 289.92 282.05 270.6 221.52 270.6 369.06 335.27 360.06"/>
    <polygon class="st2" points="335.27 348.99 270.61 357.59 270.61 369.06 335.27 360.06 335.27 348.99"/>
    <path class="st3" d="M335.27,360.04s-.4,0-1.16.13l-3.38.44-12.93,1.74-47.21,6.55.24.21c0-32.2,0-74.81.07-121.42v-26.2l-.55.08c6.94,21.71,13.48,42.12,19.35,60.51v.07h0l45.44,44.41v-.11c0,10.57.07,18.94.09,24.68v8.87c0-.19,0-.38,0-.57v-8.21c0-5.76.06-14.15.09-24.77v-.07h0l-45.29-44.54.07.1c-5.86-18.4-12.37-38.79-19.3-60.54l-.54-1.72v27.93c0,46.61,0,89.22.07,121.42v.24h.24l47.3-6.65,12.98-1.9,3.32-.49,1.11-.21Z"/>
    <rect class="st7" x="191.72" y="362.87" width="17.83" height="34.1"/>
    <path class="st7" d="M214.66,403.27h0c.03-2.09-.89-4.09-2.49-5.43l-2.6-2.5-17.83.21-1.57,1.41c-1.59,1.24-2.62,3.06-2.84,5.07v.25l27.34,1Z"/>
    <rect class="st7" x="185.15" y="402.29" width="31.33" height="3.15" rx="1.37" ry="1.37"/>
    <path class="st1" d="M206.31,345.46c0,.84.68,1.52,1.52,1.52s1.52-.68,1.52-1.52c0-.84-.68-1.52-1.52-1.52h0c-.83,0-1.51.66-1.52,1.5,0,0,0,.01,0,.02Z"/>
    <path class="st6" d="M230.08,203.84c.11-9.22,5.19-17.38,10.33-25.35,1.55-2.56,3.57-4.8,5.95-6.59,2.41-1.72,5.64-1.72,8.05,0,2.35,1.81,4.34,4.04,5.87,6.57,5.13,7.97,10.22,16.13,10.32,25.35.12,10.81,0,165.22,0,165.22h-40.52s-.1-154.39,0-165.2Z"/>
    <path class="st2" d="M239.01,180.17c1.74-3.06,4.04-5.76,6.78-7.97,2.71-2.07,6.47-2.07,9.18,0,2.68,2.22,4.93,4.91,6.65,7.94,3.37,5.35,6.07,11.09,8.05,17.09l-38.66-.11c1.95-5.96,4.63-11.66,8-16.95Z"/>
    <path class="st3" d="M231.01,197.12c0,.16,8.67.31,19.35.34s19.34-.07,19.34-.22-8.66-.31-19.34-.34-19.35.09-19.35.22Z"/>
    <path class="st3" d="M264.42,193.79c0,.4.33.73.73.73.4,0,.73-.33.73-.73s-.33-.73-.73-.73-.73.33-.73.73h0Z"/>
    <path class="st3" d="M257.42,193.79c.05.41.42.7.83.65.34-.04.6-.31.65-.65-.05-.41-.42-.7-.83-.65-.34.04-.6.31-.65.65Z"/>
    <path class="st3" d="M250.43,193.79c0,.41.32.75.73.75.41,0,.75-.32.75-.73,0-.41-.32-.75-.73-.75,0,0,0,0-.01,0-.4,0-.74.32-.74.72,0,0,0,0,0,.01Z"/>
    <circle class="st3" cx="244.18" cy="193.77" r=".73"/>
    <path class="st3" d="M236.45,193.79c0,.4.33.73.73.73s.73-.33.73-.73-.33-.73-.73-.73-.73.33-.73.73Z"/>
    <path class="st3" d="M230.08,203.84v12.4c0,8.04,0,19.74-.08,34.41,0,29.39-.07,70.69-.1,118.4v.28h41.07v-165c-.13-5.43-1.55-10.75-4.16-15.52-1.16-2.29-2.44-4.43-3.72-6.53s-2.52-4.1-3.91-5.96c-1.33-1.83-2.94-3.44-4.78-4.77-1.84-1.2-4.12-1.48-6.2-.76-.96.35-1.84.88-2.6,1.55-.75.62-1.45,1.29-2.11,2.01-1.24,1.38-2.35,2.86-3.32,4.43-1.87,2.94-3.56,5.64-4.92,8.17-2.21,3.82-3.78,7.98-4.64,12.31-.13.74-.23,1.41-.28,1.97s-.1,1.05-.11,1.44v1.11s0-.39.09-1.11c.02-.48.06-.96.13-1.43,0-.57.17-1.22.3-1.96.91-4.29,2.5-8.41,4.72-12.19,1.37-2.52,3.07-5.21,4.97-8.14.96-1.53,2.05-2.98,3.27-4.32.65-.7,1.34-1.36,2.08-1.96.74-.65,1.59-1.16,2.52-1.5,1.98-.67,4.16-.4,5.91.74,1.8,1.31,3.38,2.9,4.68,4.71,1.36,1.83,2.58,3.89,3.88,5.94s2.54,4.22,3.69,6.51c2.55,4.7,3.95,9.95,4.08,15.3v164.72l.28-.28h-40.73l.28.28c0-47.71-.08-89.01-.1-118.39,0-14.69-.07-26.38-.08-34.42v-11.59c0-.55-.1-.85-.1-.85Z"/>
    <path class="st7" d="M250.86,213.09c5.77,0,10.44,4.67,10.44,10.44h0s-20.88,0-20.88,0c0-5.77,4.67-10.44,10.44-10.44Z"/>
    <polygon class="st6" points="165.37 360.06 165.37 326.53 210.71 282.05 230.04 221.52 230.04 369.06 165.37 360.06"/>
    <polygon class="st2" points="230.08 369.06 230.04 359.03 165.37 350.84 165.37 360.06 230.08 369.06"/>
    <path class="st3" d="M165.37,360.04l1.11.18,3.32.49,12.87,1.84,47.3,6.65h.24v-.24c0-32.2,0-74.81.07-121.42v-27.93l-.55,1.72-19.28,60.54.07-.1c-18.12,17.81-33.62,33.05-45.29,44.54h0v.07c0,10.62.07,19.01.09,24.77v8.78-8.67c0-5.74,0-14.11.09-24.68v.11l45.44-44.41h0v-.07c5.87-18.39,12.4-38.79,19.35-60.51l-.55-.08v26.12c0,46.61,0,89.22.07,121.42l.24-.21-47.21-6.46-12.92-1.74-3.38-.44c-.65-.19-1.06-.25-1.06-.25Z"/>
    <g class="st5">
      <path d="M220.56,367.5v-23.56s.74-8.28,6.78-10.36v-96.84l2.69-15.24v147.8l-9.48-1.8Z"/>
    </g>
    <path class="st3" d="M230.47,254.86c0,.17,8.87.29,19.87.29s19.88-.12,19.88-.29-8.87-.28-19.88-.28-19.87.17-19.87.28Z"/>
    <path class="st3" d="M230.47,297.68c0,.16,8.87.29,19.87.29s19.88-.13,19.88-.29-8.87-.29-19.88-.29-19.87.13-19.87.29Z"/>
    <g class="st5">
      <path class="st4" d="M249.5,213.18l8.66,10.35h-5.95l-6.92-8.87c1.31-.74,2.73-1.24,4.21-1.49Z"/>
    </g>
    <rect class="st7" x="189.18" y="367.46" width="22.92" height="2.41" rx="1.04" ry="1.04"/>
    <path class="st3" d="M210.94,369.86c0,.07-4.61.11-10.3.11s-10.3,0-10.3-.11,4.61-.12,10.3-.12,10.3.06,10.3.12Z"/>
    <path class="st3" d="M210.94,367.46c0,.07-4.61.12-10.3.12s-10.3-.06-10.3-.12,4.61-.11,10.3-.11,10.3.06,10.3.11Z"/>
    <rect class="st7" x="189.18" y="373.65" width="22.92" height="2.41" rx="1.04" ry="1.04"/>
    <path class="st3" d="M210.94,376.05c0,.07-4.61.12-10.3.12s-10.3-.06-10.3-.12,4.61-.11,10.3-.11,10.3.06,10.3.11Z"/>
    <path class="st3" d="M210.94,373.65c0,.07-4.61.11-10.3.11s-10.3,0-10.3-.11,4.61-.12,10.3-.12,10.3.06,10.3.12Z"/>
    <rect class="st7" x="189.18" y="379.84" width="22.92" height="2.41" rx="1.04" ry="1.04"/>
    <path class="st3" d="M210.94,382.21c0,.07-4.61.11-10.3.11s-10.3,0-10.3-.11,4.61-.12,10.3-.12,10.3.12,10.3.12Z"/>
    <path class="st3" d="M210.94,379.84c0,.07-4.61.12-10.3.12s-10.3-.06-10.3-.12,4.61-.11,10.3-.11,10.3.06,10.3.11Z"/>
    <rect class="st7" x="189.18" y="386.03" width="22.92" height="2.41" rx="1.04" ry="1.04"/>
    <path class="st3" d="M210.94,388.43c0,.07-4.61.12-10.3.12s-10.3-.06-10.3-.12,4.61-.11,10.3-.11,10.3.06,10.3.11Z"/>
    <path class="st3" d="M210.94,386.03c0,.07-4.61.11-10.3.11s-10.3,0-10.3-.11,4.61-.12,10.3-.12,10.3.06,10.3.12Z"/>
    <rect class="st7" x="189.18" y="392.22" width="22.92" height="2.41" rx="1.04" ry="1.04"/>
    <path class="st3" d="M210.94,394.62c0,.07-4.61.11-10.3.11s-10.3,0-10.3-.11,4.61-.11,10.3-.11,10.3.04,10.3.11Z"/>
    <path class="st3" d="M210.94,392.18c0,.07-4.61.12-10.3.12s-10.3-.06-10.3-.12,4.61-.11,10.3-.11,10.3.11,10.3.11Z"/>
    <polygon class="st6" points="230.47 342.14 225.29 353.6 225.29 406.15 248.93 406.15 248.93 342.14 230.47 342.14"/>
    <polygon class="st6" points="270.06 342.14 275.23 353.6 275.23 406.15 251.59 406.15 251.59 342.14 270.06 342.14"/>
    <polyline class="st6" points="230.47 342.14 225.29 353.6 225.29 406.15 248.93 406.15 248.93 369.34"/>
    <path class="st3" d="M248.93,369.34c.03.23.03.47,0,.7v2.01c0,1.8,0,4.34.08,7.56,0,6.53.06,15.72.1,26.6v.27h-24.19v-2.65c0-20.6.09-38.87.12-50.22v-.07c1.65-3.59,2.97-6.43,3.89-8.42l1.04-2.22.29-.57c.07-.13.1-.19.11-.19l-.07.2-.24.59-.96,2.22-3.75,8.48v-.07c0,11.35.07,29.61.11,50.22v2.33l-.29-.29h23.64l-.25.27c0-10.83.08-20.02.1-26.6,0-3.21.06-5.76.08-7.56v-2.01c.18-.33.19-.58.2-.58Z"/>
    <polyline class="st6" points="270.06 342.14 275.23 353.6 275.23 406.15 251.59 406.15 251.59 369.34"/>
    <path class="st3" d="M251.59,369.34v2.7c0,1.8,0,4.34.08,7.56,0,6.53.07,15.72.1,26.6l-.25-.27h23.64l-.29.29v-2.33c0-20.6.09-38.87.11-50.22v.07l-3.75-8.48-.96-2.22-.24-.59-.07-.2.11.19.29.57c.25.53.6,1.27,1.11,2.22.91,1.99,2.22,4.83,3.88,8.42v.07c0,11.35.08,29.61.12,50.22v2.62h-24.19v-.27c0-10.83.08-20.02.11-26.6,0-3.21.06-5.76.07-7.56v-2.01c.01-.27.06-.53.14-.79Z"/>
    <circle class="st3" cx="237.79" cy="294.73" r=".68"/>
    <circle class="st3" cx="251.28" cy="294.73" r=".68"/>
    <circle class="st3" cx="264.76" cy="294.73" r=".68"/>
    <path class="st3" d="M238.47,339.76c0,.37-.3.68-.68.68s-.68-.3-.68-.68.3-.68.68-.68h0c.37,0,.68.3.68.68Z"/>
    <circle class="st3" cx="251.28" cy="339.44" r=".68"/>
    <circle class="st3" cx="264.76" cy="340.11" r=".68"/>
    <path class="st3" d="M238.47,251.07c0,.37-.3.68-.68.68s-.68-.3-.68-.68.3-.68.68-.68.68.3.68.68h0Z"/>
    <path class="st3" d="M191.19,225.15c.03.37-.24.69-.61.72-.37.03-.69-.24-.72-.61-.03-.37.24-.69.61-.72.02,0,.04,0,.06,0,.35-.01.64.26.65.61,0,0,0,0,0,0Z"/>
    <path class="st3" d="M202.27,225.15c-.02.35-.31.62-.67.61-.35.01-.64-.26-.65-.61,0,0,0,0,0,0,0-.34.29-.62.63-.61,0,0,.02,0,.02,0,.35-.02.65.25.66.6,0,0,0,0,0,.01Z"/>
    <path class="st3" d="M213.23,225.15c0,.37-.3.67-.67.67s-.67-.3-.67-.67.3-.67.67-.67.67.3.67.67Z"/>
    <path class="st3" d="M191.19,259.1c.03.37-.24.69-.61.72-.37.03-.69-.24-.72-.61-.03-.37.24-.69.61-.72.02,0,.04,0,.06,0,.35-.01.64.26.65.61,0,0,0,0,0,0Z"/>
    <path class="st3" d="M202.27,259.1c-.02.35-.31.62-.67.61-.35.01-.64-.26-.65-.61,0,0,0,0,0,0,0-.34.29-.62.63-.61,0,0,.02,0,.02,0,.35-.02.65.25.66.6,0,0,0,0,0,.01Z"/>
    <path class="st3" d="M213.23,259.1c0,.37-.3.67-.67.67s-.67-.3-.67-.67.3-.67.67-.67.67.3.67.67Z"/>
    <ellipse class="st3" cx="190.57" cy="189.19" rx=".67" ry=".68"/>
    <path class="st3" d="M202.27,189.19c0,.37-.29.67-.65.68,0,0,0,0-.01,0-.37,0-.66-.31-.65-.68h0c-.01-.37.28-.67.64-.69,0,0,0,0,.01,0,.37,0,.67.31.67.69h0Z"/>
    <ellipse class="st3" cx="212.57" cy="189.19" rx=".67" ry=".68"/>
    <path class="st3" d="M251.96,251.07c0,.37-.3.68-.68.68-.37,0-.68-.29-.69-.66,0,0,0,0,0-.01,0-.38.31-.69.69-.69.37,0,.68.3.68.68,0,0,0,0,0,.01Z"/>
    <path class="st3" d="M265.45,251.07c0,.37-.3.68-.68.68,0,0,0,0-.01,0-.37,0-.68-.3-.68-.68,0-.37.29-.68.66-.69,0,0,0,0,.01,0,.38,0,.69.31.69.69Z"/>
    <path class="st3" d="M230.47,342.85c0,.16,8.87.28,19.87.28s19.88-.12,19.88-.28-8.87-.29-19.88-.29-19.87.13-19.87.29Z"/>
    <path class="st3" d="M248.93,369.21c0,.17-5.28.29-11.79.29s-11.79-.12-11.79-.29,5.28-.29,11.79-.29,11.79.13,11.79.29Z"/>
    <path class="st3" d="M248.93,376.05c0,.17-5.28.29-11.79.29s-11.79-.12-11.79-.29,5.28-.29,11.79-.29,11.79.13,11.79.29Z"/>
    <path class="st3" d="M248.93,382.88c-3.92.3-7.86.4-11.79.3-3.93.1-7.87,0-11.79-.3,0-.16,5.28-.29,11.79-.29s11.79.13,11.79.29Z"/>
    <path class="st3" d="M248.93,389.73c0,.16-5.28.29-11.79.29s-11.79-.13-11.79-.29,5.28-.29,11.79-.29,11.79.12,11.79.29Z"/>
    <path class="st3" d="M248.93,396.62c0,.16-5.28.29-11.79.29s-11.79-.13-11.79-.29,5.28-.29,11.79-.29,11.79.08,11.79.29Z"/>
    <path class="st3" d="M275.03,369.21c0,.17-5.29.29-11.79.29s-11.8-.12-11.8-.29,5.29-.3,11.79-.3,11.8.14,11.8.3Z"/>
    <path class="st3" d="M275.03,376.05c0,.17-5.29.29-11.79.29s-11.8-.12-11.8-.29,5.29-.29,11.8-.29,11.79.13,11.79.29Z"/>
    <path class="st3" d="M275.03,382.88c-3.92.3-7.86.4-11.79.3-3.94.1-7.88,0-11.8-.3,0-.16,5.29-.29,11.8-.29s11.79.13,11.79.29Z"/>
    <path class="st3" d="M275.03,389.73c0,.16-5.29.29-11.79.29s-11.8-.13-11.8-.29,5.29-.29,11.8-.29,11.79.12,11.79.29Z"/>
    <path class="st3" d="M275.03,396.62c0,.16-5.29.29-11.79.29s-11.8-.13-11.8-.29,5.29-.29,11.8-.29,11.79.08,11.79.29Z"/>
    <rect class="st3" x="190.98" y="162.4" width="1.84" height="3.85"/>
    <rect class="st3" x="194.92" y="162.4" width="1.84" height="3.85"/>
    <circle class="st2" cx="201.5" cy="328.98" r="6.32"/>
    <rect class="st2" x="284.37" y="328.98" width="24.31" height="6.32"/>
  </g>
  <path class="st2" d="M245.72,273.8l2.17-.03c1.58-.02,2.88,1.25,2.9,2.83h0c.02,1.58-1.25,2.88-2.83,2.9l-2.17.03c-1.58.02-2.88-1.25-2.9-2.83h0c-.02-1.58,1.25-2.88,2.83-2.9Z"/>
  <path class="st2" d="M245.71,281.16h0c1.58-.02,2.88,1.25,2.9,2.83h0c.02,1.58-1.25,2.88-2.83,2.9h0c-1.58.02-2.88-1.25-2.9-2.83h0c-.02-1.58,1.25-2.88,2.83-2.9Z"/>
  <path class="st2" d="M258.03,271.73l-12.24.16c-1.58.02-2.88-1.25-2.9-2.83h0c-.02-1.58,1.25-2.88,2.83-2.9l12.24-.16c1.58-.02,2.88,1.25,2.9,2.83h0c.02,1.58-1.25,2.88-2.83,2.9Z"/>
</svg>