<?xml version="1.0" encoding="UTF-8"?>
<svg id="Layer_1" xmlns="http://www.w3.org/2000/svg" version="1.1" viewBox="0 0 750 500">
  <!-- Generator: Adobe Illustrator 29.8.2, SVG Export Plug-In . SVG Version: 2.1.1 Build 3)  -->
  <defs>
    <style>
      .st0 {
        fill: #e0e0e0;
      }

      .st1 {
        fill: #ffbe9d;
      }

      .st2 {
        fill: #ebebeb;
      }

      .st3 {
        fill: #4a9288;
      }

      .st4 {
        fill: #263238;
      }

      .st5 {
        fill: #eb996e;
      }

      .st6 {
        fill: #fff;
      }

      .st7 {
        fill: #fafafa;
      }

      .st8 {
        opacity: .6;
      }

      .st9 {
        opacity: .2;
      }

      .st10 {
        opacity: .3;
      }

      .st11 {
        fill: #455a64;
      }
    </style>
  </defs>
  <g id="freepik--background-complete--inject-160">
    <path class="st0" d="M399.21,342.63c-3.65-2.28-7.78-3.7-12.06-4.15-1.97-.2-4.11-.14-5.7,1.05-.37.21-.59.61-.58,1.04.09.3.29.55.56.71,5.21,3.72,12.06,4.24,17.77,1.35"/>
    <path class="st0" d="M398.89,342.29c-2.79-2.05-5.39-4.34-7.77-6.84-2.39-2.53-4.08-5.64-4.88-9.03-.31-1.01-.17-2.11.39-3.01,6.2,4.84,11.07,11.13,12.26,18.88"/>
    <path class="st0" d="M399.14,342.58c-.58-3.38-.53-6.84.14-10.2.7-3.39,2.64-6.4,5.45-8.42,1.07,2.5.61,5.39-.15,8.01-1.17,4.05-2.99,7.89-5.39,11.35"/>
    <path class="st0" d="M405.22,353.47c-3.63.59-6.99,2.3-9.61,4.89-2.78,2.52-4.73,5.82-5.57,9.48,3.62-.22,6.69-2.78,8.92-5.63s3.77-6,6.22-8.68"/>
    <path class="st0" d="M406.54,355.22c-2.94-7.5-1.89-15.97,2.78-22.53,2.1,7.48,1.33,15.92-2.78,22.53"/>
    <path class="st0" d="M414.57,364.75c-6.89-.43-13.37,3.31-16.47,9.48-.2.41-.39.93-.11,1.29.29.28.69.4,1.09.32,3.25-.21,6.12-2.17,8.5-4.39,2.37-2.22,4.44-4.8,7.07-6.72"/>
    <path class="st0" d="M414.31,364.26c-1.72-5.57-1.83-11.51-.31-17.13.61-2.21,1.62-4.54,3.66-5.57.16-.11.36-.15.56-.1.17.09.29.24.35.42.68,1.54.98,3.23.86,4.91-.12,1.68-.38,3.34-.77,4.98-.64,3.04-.98,6.31-2.65,8.93-.39.63-.75,1.28-1.06,1.96-.32.67-.32.93-.61,1.44"/>
    <path class="st0" d="M435.57,367.42c-1.44-6.33-.02-12.97,3.88-18.16.28-.36.64-.75,1.09-.71.7.06.88.98.84,1.69-.28,6.16-2.3,12.12-5.82,17.18"/>
    <path class="st0" d="M437.49,368.73c7.52,1.78,15.45.17,21.68-4.41-3.63-1.82-7.78-2.33-11.73-1.43-3.92.93-7.5,2.65-9.94,5.84"/>
    <path class="st0" d="M439.1,364.75c4.07-6.64,11.89-10.98,19.68-11.37-.93,3.16-3.5,5.62-6.43,7.11-3.01,1.36-6.19,2.29-9.45,2.78-1.25.24-2.98.51-3.79,1.49"/>
    <path class="st0" d="M435.98,345.39c1.23-3.75,2.07-7.61,2.51-11.53.43-3.95-.37-7.93-2.29-11.4-3.81,7.37-4.19,15.98-.34,23.32"/>
    <path class="st0" d="M448.8,338.91c4.45-8.09,13.53-14.55,22.73-15.46-3.54,8.83-13.22,15.66-22.73,15.46"/>
    <path class="st0" d="M446,340.5c6.64,1.01,12.3,5.25,18.51,7.83,1.3.62,2.74.9,4.18.8,1.81-.03,3.26-1.52,3.23-3.34-.02-.95-.44-1.85-1.17-2.46-.88-.82-1.91-1.45-3.04-1.86-6.76-2.78-14.01-2.88-21.13-1.18"/>
    <path class="st0" d="M442.16,345.15c1.5.44,2.01,1.22,3.2,2.23,4.07,3.44,8.87,5.89,14.04,7.17.54.13,1.24.19,1.5-.3s-.06-.93-.36-1.32c-2.25-2.65-5.18-4.63-8.47-5.75-3.24-1.21-6.05-2.65-9.91-2.35"/>
    <path class="st0" d="M437.82,317.03c5.51,5.07,12.9,7.58,20.36,6.91.34,0,.67-.11.93-.32.51-.57-.1-1.42-.71-1.86-5.98-4.64-13.24-6.6-20.58-4.7"/>
    <path class="st0" d="M442.92,315.14c7.32-5.39,16.78-6.95,25.44-4.19-3.32,3.08-7.59,4.96-12.11,5.32-4.48.41-8.99.03-13.34-1.12"/>
    <path class="st0" d="M440.91,302.21c-.58-5.97-.2-10.69-.62-16.7,0-.48-.14-1.06-.58-1.23-.62-.24-1.14.53-1.35,1.17-1.76,5.64-.82,11.77,2.55,16.62"/>
    <path class="st0" d="M440.49,302.87c3.9-2.52,7.27-5.79,9.9-9.62,1.95-2.67,3.6-5.87,3.15-9.16-2.78.07-5.39,1.37-7.13,3.54-1.71,2.16-2.95,4.65-3.65,7.32-.79,2.63-1.35,5.33-2.27,7.91"/>
    <path class="st0" d="M450.21,300.17c8.91-3.3,17.16-8.16,24.36-14.36-2.91-1.17-6.24-.47-9.16.71-6.6,2.5-12.06,7.34-15.33,13.59"/>
    <path class="st0" d="M443.21,306.15c4.48.64,9.03.66,13.52.06,4.39-.73,8.53-2.47,12.63-4.19.36-.11.66-.34.85-.66.13-.39,0-.81-.31-1.08-.3-.23-.66-.39-1.03-.46-4.45-1.25-9.28-.67-13.65.81-4.18,1.43-8.19,3.3-11.99,5.57"/>
    <path class="st0" d="M417.55,317.23c-2.93-6.26-3.01-13.48-.22-19.8,1.86,2.85,2.1,6.49,1.75,9.84s-1.37,6.86-1.44,10.27"/>
    <path class="st0" d="M405.29,311.04c-7.77-.1-15.22,3.08-20.53,8.75,3.87.46,7.79-.27,11.24-2.09,3.42-1.82,6.65-3.98,9.63-6.45"/>
    <path class="st0" d="M397.05,308.29c-3.71-.3-7.35-.76-10.95.34-3.68,1.03-6.73,3.62-8.35,7.08,3.54.27,7.08-.41,10.27-1.98,3.17-1.55,6.19-3.39,9.03-5.48"/>
    <path class="st0" d="M409.24,308.42c-3.37-2.21-6.83-4.46-10.75-5.37s-8.47-.24-11.21,2.72c3.17,1.86,7.03,2.09,10.71,2.08s8.2,0,11.67,1.19"/>
    <path class="st0" d="M409.27,308.59c-5.77-5.66-7.95-15.83-5.63-23.56,4.55,6.97,6.54,15.29,5.63,23.56"/>
    <path class="st0" d="M425.12,292.56c1.09-2.53,1.86-5.18,2.78-7.75.89-2.61,2.26-5.03,4.04-7.14,1.8-2.12,4.36-3.46,7.13-3.71-1.77,7.87-6.77,14.64-13.78,18.65"/>
    <path class="st0" d="M422.25,295.9c-1.8-2.48-3.88-5.83-6.32-7.68s-5.61-2.97-8.59-2.26c3.12,5.48,8.65,9.17,14.91,9.94"/>
    <path class="st0" d="M422.82,292.77c-1.3-2.95-2.25-6.04-2.85-9.2-.59-3.2-.08-6.5,1.44-9.37,3.16,5.98,4.18,12.4,1.57,18.64"/>
    <path class="st0" d="M425.14,274.2c1.79-5.93,7.22-10.29,13.08-12.29.73-.3,1.51-.41,2.29-.34.79.09,1.46.64,1.69,1.41.21,1.01-.61,1.91-1.4,2.58-4.58,3.91-9.91,6.85-15.66,8.65"/>
    <path class="st0" d="M425.21,269.36c.22-3.82.46-7.7,1.71-11.33,1.24-3.63,3.64-7.01,7.12-8.6.59,3.86-1.1,7.7-3.16,11.02s-4.53,6.49-5.76,10.2"/>
    <path class="st0" d="M425.12,271.99c-1.48-4.31-1.63-9.81-4.22-13.57-1.81-2.63-4.7-4.42-6.26-7.21-.94,2.67-.81,5.61.36,8.19,1.18,2.55,2.8,4.86,4.79,6.85,1.91,2.04,3.55,3.58,5.33,5.74"/>
    <path class="st0" d="M425.14,399.21c-.11,0-.21-28.82-.22-64.36,0-35.54.07-64.37.19-64.37s.21,28.81.22,64.37-.05,64.36-.19,64.36h0Z"/>
    <path class="st0" d="M450.34,312.88c-.35.17-.71.3-1.09.41l-2.98,1c-2.52.86-5.97,2.1-9.72,3.64s-7.21,2.88-9.2,4.64c-.8.66-1.43,1.5-1.86,2.45-.29.68-.33,1.09-.37,1.09s0-.11,0-.31c.05-.29.12-.57.21-.84.38-1.01,1-1.9,1.81-2.61,1.2-1.02,2.55-1.85,3.99-2.48,1.6-.75,3.37-1.52,5.25-2.3,3.76-1.54,7.24-2.78,9.79-3.52,1.27-.4,2.3-.69,3.02-.88.37-.13.75-.22,1.14-.28h.01Z"/>
    <path class="st0" d="M458.58,292.6c-.09.12-.19.23-.31.32l-.93.87-3.45,3.14-11.49,10.2c-4.48,3.99-8.35,7.8-11.05,10.68-1.35,1.44-2.4,2.63-3.13,3.45l-.83.93c-.09.11-.19.22-.31.32.07-.13.15-.26.24-.37.18-.23.44-.58.78-1,.69-.86,1.72-2.09,3.03-3.55,3.47-3.79,7.13-7.39,10.98-10.79,4.51-3.98,8.6-7.56,11.58-10.14l3.54-3.03.97-.82c.11-.08.23-.15.36-.2h.02Z"/>
    <path class="st0" d="M437.56,311.22c-.11-.05.83-2.22,1.75-4.95.93-2.74,1.39-5.04,1.51-5.02-.1,1.77-.48,3.51-1.11,5.16-.4,1.18-.87,2.33-1.39,3.46-.18.49-.44.95-.76,1.35Z"/>
    <path class="st0" d="M425.17,328.67c-.26-.25-.49-.52-.7-.81l-1.77-2.27c-1.48-1.92-3.54-4.57-5.84-7.48s-4.42-5.51-5.96-7.42l-1.81-2.24c-.24-.26-.45-.55-.63-.85.28.22.53.47.75.75.46.5,1.11,1.23,1.91,2.15,1.6,1.86,3.71,4.42,6.06,7.33s4.33,5.57,5.76,7.56c.71.98,1.28,1.79,1.66,2.36.22.29.41.6.57.93h0Z"/>
    <path class="st0" d="M419.65,321.57c-1.12-1.23-1.92-2.71-2.32-4.32-.43-1.41-.61-2.89-.52-4.37h.18c-.07.33-.14.51-.17.51s0-.19,0-.54h.19c.09,1.44.34,2.86.73,4.25.52,1.54,1.16,3.03,1.91,4.47Z"/>
    <path class="st0" d="M412.52,312.61c-.5-.37-1.04-.69-1.61-.93-1.45-.43-2.98-.56-4.48-.36-1.52.12-3.03.36-4.52.73-.61.19-1.23.34-1.86.45.55-.33,1.15-.58,1.78-.73,1.49-.45,3.02-.74,4.56-.86,1.56-.2,3.15-.03,4.64.5.62.22,1.14.64,1.48,1.21h0Z"/>
    <path class="st0" d="M410.83,310.43c0,.06-.93-.37-2.48-.93-4.01-1.37-8.3-1.69-12.47-.93-1.6.29-2.56.58-2.58.51.2-.12.42-.22.65-.28.61-.21,1.23-.39,1.86-.52,2.09-.46,4.24-.61,6.38-.45,2.14.16,4.24.63,6.24,1.4.6.24,1.2.51,1.77.81.22.1.43.23.62.38h.01Z"/>
    <path class="st0" d="M425.12,301.25c-.73-2.05-1.34-4.14-1.81-6.27-.6-2.09-1.07-4.22-1.4-6.37,1.34,4.14,2.41,8.36,3.21,12.64h0Z"/>
    <path class="st0" d="M425.23,301.25c-.57-1.3-1.24-2.55-1.99-3.76-.85-1.14-1.84-2.16-2.95-3.03.42.1.82.3,1.14.58.84.61,1.56,1.35,2.14,2.21.9,1.16,1.47,2.54,1.66,4h0Z"/>
    <path class="st0" d="M425.14,383.84s-.13-.7-.45-1.92c-.48-1.72-1.13-3.39-1.93-4.99-2.77-5.22-6.2-10.05-10.2-14.4-2.28-2.61-4.5-5.06-6.37-7.42-1.69-2.07-3.21-4.27-4.55-6.58-.91-1.56-1.68-3.19-2.3-4.88-.21-.59-.37-1.07-.45-1.39-.06-.16-.1-.33-.12-.5,0,0,.25.66.72,1.86.68,1.65,1.48,3.25,2.4,4.79,1.39,2.27,2.94,4.44,4.64,6.49,1.86,2.33,4.1,4.77,6.39,7.42,4.05,4.36,7.48,9.25,10.2,14.54.8,1.62,1.42,3.33,1.86,5.08.11.48.19.96.25,1.45-.01.15-.04.31-.07.45h-.02Z"/>
    <path class="st0" d="M447.9,358.14c-.38.25-.78.47-1.19.67-1.08.61-2.12,1.29-3.1,2.04-1.45,1.13-2.81,2.37-4.06,3.71-1.43,1.5-2.89,3.26-4.4,5.13-3,3.76-5.8,7.09-7.48,9.74-.85,1.32-1.47,2.43-1.86,3.21-.19.42-.41.82-.66,1.21.02-.12.06-.23.11-.34.08-.21.2-.54.4-.93.52-1.13,1.12-2.23,1.77-3.29,2.28-3.42,4.76-6.71,7.42-9.84,1.5-1.86,3-3.64,4.44-5.14,1.28-1.35,2.67-2.6,4.17-3.71,1.01-.74,2.07-1.4,3.19-1.96.4-.19.72-.32.93-.41s.31-.1.31-.08h.01Z"/>
    <path class="st0" d="M448.34,366.48c-.83.18-1.67.3-2.52.36-2.02.21-4.02.61-5.97,1.18-1.93.62-3.74,1.56-5.35,2.78-1.23.93-1.86,1.74-1.86,1.7.09-.22.21-.41.37-.58.39-.49.83-.94,1.32-1.35,1.6-1.33,3.43-2.34,5.41-2.98,1.98-.59,4.02-.95,6.08-1.08.84-.09,1.69-.1,2.53-.04h-.01Z"/>
    <path class="st0" d="M433.35,371.61c-.13-.07,1.01-1.81,1.86-4.15s1.02-4.42,1.17-4.4c.05.45.04.91-.05,1.35-.13,1.09-.37,2.16-.73,3.19-.39,1.02-.88,2-1.47,2.92-.2.4-.46.76-.78,1.08h0Z"/>
    <path class="st0" d="M455.27,335.75c-.13.09-.26.17-.41.22l-1.19.54c-.51.22-1.14.5-1.86.87s-1.54.75-2.41,1.27l-1.37.78c-.47.28-.93.6-1.45.93-1.01.61-2.03,1.37-3.12,2.14-2.3,1.74-4.47,3.65-6.49,5.71-2,2.09-3.83,4.33-5.49,6.7-.74,1.1-1.47,2.14-2.04,3.18-.3.51-.61.99-.86,1.48s-.5.93-.73,1.4c-.49.88-.84,1.73-1.19,2.45s-.61,1.35-.82,1.86l-.49,1.21c-.05.14-.12.28-.2.41.02-.15.07-.3.12-.44l.43-1.23c.19-.54.42-1.19.75-1.92s.66-1.6,1.13-2.5l.71-1.42c.25-.49.56-.98.85-1.5.57-1.05,1.29-2.11,2.02-3.23,1.65-2.4,3.49-4.66,5.5-6.76,2.04-2.08,4.24-3.99,6.58-5.73,1.09-.77,2.12-1.52,3.15-2.13.51-.31.98-.63,1.47-.93l1.39-.76c.88-.51,1.73-.87,2.45-1.22.62-.31,1.25-.58,1.9-.82l1.22-.47c.14-.05.29-.08.44-.09h.01Z"/>
    <path class="st0" d="M437.26,347.81c.17-.58.52-1.1.99-1.47,1.11-.96,2.52-1.5,3.99-1.53,1.44,0,2.87.27,4.2.83.56.18,1.1.44,1.59.77-.58-.12-1.14-.28-1.69-.49-1.32-.45-2.7-.69-4.09-.69-1.38.03-2.71.5-3.8,1.34-.42.39-.82.81-1.19,1.25h0Z"/>
    <path class="st0" d="M434.57,350.6c.54-1.18.92-2.43,1.13-3.71.08-1.29,0-2.58-.25-3.85.24.32.4.69.46,1.08.24.91.31,1.85.2,2.78-.11.95-.39,1.87-.84,2.71-.35.69-.71,1.02-.71.99h0Z"/>
    <path class="st0" d="M405.24,387.94c.62,11.01,3.94,22.21,9.04,33.53h22.2c4.87-11.22,7.96-22.39,8.51-33.53h-39.75Z"/>
    <path class="st7" d="M441.4,405.79c0,.11-7.31.2-16.33.2s-16.33-.09-16.33-.2,7.31-.21,16.33-.21,16.33.09,16.33.21Z"/>
    <path class="st7" d="M440.89,409.78c0,.11-6.86.2-15.31.2s-15.3-.09-15.3-.2,6.85-.2,15.3-.2,15.31.09,15.31.2Z"/>
    <path class="st7" d="M414.64,395.2c.27,3.4.27,6.81,0,10.2-.28-3.4-.28-6.81,0-10.2Z"/>
    <path class="st7" d="M426.54,395.2c.28,3.53.28,7.07,0,10.59-.27-3.53-.27-7.07,0-10.59Z"/>
    <path class="st7" d="M437.7,395.11c.27,3.59.27,7.2,0,10.8-.28-3.59-.28-7.2,0-10.8Z"/>
    <path class="st7" d="M444.28,395.2c0,.12-8.57.21-19.14.21s-19.15-.09-19.15-.21,8.57-.2,19.15-.2,19.14.09,19.14.2h0Z"/>
    <rect class="st0" x="92.64" y="296.53" width="18.27" height="109.61"/>
    <rect class="st0" x="122" y="296.53" width="18.27" height="109.61"/>
    <rect class="st0" x="151.35" y="296.53" width="18.27" height="109.61"/>
    <rect class="st0" x="180.71" y="296.53" width="18.27" height="109.61"/>
    <rect class="st0" x="210.07" y="296.53" width="18.27" height="109.61"/>
    <rect class="st0" x="239.43" y="296.53" width="18.27" height="109.61"/>
    <rect class="st0" x="268.79" y="296.53" width="18.27" height="109.61"/>
    <rect class="st0" x="81.55" y="308.93" width="202.9" height="5.87" rx="1.42" ry="1.42"/>
    <rect class="st0" x="81.55" y="392.94" width="202.9" height="5.87" rx="1.42" ry="1.42"/>
    <rect class="st0" x="361.61" y="28.57" width="101.82" height="168.53"/>
    <rect class="st2" x="358.22" y="28.57" width="101.82" height="168.53"/>
    <rect class="st7" x="362.57" y="31.99" width="93.14" height="161.7"/>
    <rect class="st2" x="380.29" y="53" width="57.28" height="119.67"/>
    <path class="st0" d="M380.29,130.33c-.13-11.13,9.93-22.1,20.99-23.65,5.28-.74,10.89.31,15.83-1.73,8.8-3.61,11.6-15.31,20.46-18.78l.41,86.5h-57.69v-42.35h0Z"/>
  </g>
  <g id="freepik--Contract--inject-160">
    <path class="st3" d="M292.62,98.99l44.63-1.86c7.99-.33,14.74,5.87,15.07,13.86v.29l1.58,68.93c.17,7.54-5.48,13.95-12.99,14.73h0c-2.52.26-4.4,2.43-4.3,4.96l5.61,145.64c.38,9.93-7.33,18.3-17.25,18.74l-170.5,7.57c-2.65.12-4.9-1.93-5.02-4.58v-.05l-7.52-252.85c-.08-2.58,1.89-4.75,4.46-4.94l146.22-10.44h.01Z"/>
    <g class="st10">
      <path d="M149.33,362.34l.15,4.78,183.54-16.87-3.51-252.81s-44.53,6.75-45.36,6.75-134.82,258.15-134.82,258.15h0Z"/>
    </g>
    <polygon class="st2" points="269.38 85.42 322.65 82.18 328.15 344.2 140.68 363.22 113.07 102.56 269.38 85.42"/>
    <path class="st4" d="M269.43,85.42s-.93.12-2.78.32l-8.11.93-31.14,3.46-114.31,12.61.16-.19c7.42,69.83,17.04,160.55,27.67,260.66l-.27-.21,42.02-4.26,145.46-14.74-.21.23c-2.35-114.57-4.28-208.54-5.38-262.04l.12.11-39.64,2.37-10.2.58-3.45.19s1.16-.09,3.44-.24l10.2-.65,39.64-2.47h.11v.11c1.15,53.51,3.16,147.49,5.62,262.04v.2h-.2l-145.45,14.76-42.02,4.27h-.24v-.23c-10.58-100.1-20.17-190.82-27.55-260.66v-.19h.18l114.27-12.43,31.15-3.37,8.11-.86c1.83-.21,2.81-.3,2.81-.3h0Z"/>
    <polygon class="st6" points="103.75 93.86 129.13 357.57 325.48 339.07 297.16 75.56 103.75 93.86"/>
    <path class="st4" d="M103.75,93.85l193.39-18.49h.19v.19c7.97,73.97,17.77,165.12,28.37,263.51v.24h-.24l-1.39.13-194.92,18.35h-.21v-.22c-14.92-156.12-25-261.79-25.19-263.72.19,1.93,10.45,107.61,25.6,263.7l-.24-.19,194.95-18.39,1.39-.14-.21.27c-10.57-98.42-20.33-189.54-28.27-263.52l.21.18-193.43,18.1h0Z"/>
    <path class="st0" d="M254.33,293.86c.04-15.98,13.03-28.91,29.02-28.87,15.98.04,28.91,13.03,28.87,29.02-.04,15.98-13.03,28.9-29.01,28.87-15.98-.05-28.9-13.03-28.88-29.02h0ZM311.68,294c.04-15.69-12.65-28.45-28.34-28.49-15.69-.04-28.45,12.65-28.49,28.34-.04,15.69,12.65,28.45,28.34,28.49h.02c15.67.02,28.4-12.64,28.47-28.31v-.03Z"/>
    <path class="st0" d="M257.63,293.87c.04-13.94,11.37-25.21,25.31-25.18,13.94.04,25.21,11.37,25.18,25.31-.04,13.94-11.37,25.21-25.31,25.18-13.94-.05-25.2-11.37-25.18-25.31ZM304.38,293.98c.03-11.89-9.58-21.55-21.47-21.58s-21.55,9.58-21.58,21.47,9.58,21.55,21.47,21.58h0c11.86.02,21.5-9.56,21.57-21.42v-.05h0Z"/>
    <path class="st0" d="M263.87,294.24c0-2.9.69-5.76,2-8.35l3.32,1.68c-1.06,2.07-1.6,4.37-1.6,6.7.03,8.26,6.76,14.94,15.02,14.91,2.71-.01,5.37-.76,7.69-2.16l1.95,3.17c-8.82,5.36-20.31,2.56-25.67-6.26-1.77-2.92-2.71-6.27-2.72-9.68h.01Z"/>
    <path class="st0" d="M273.89,277.72c9.15-4.76,20.42-1.21,25.19,7.94,3.06,5.89,2.77,12.95-.76,18.57l-3.14-1.99c4.38-7,2.25-16.23-4.75-20.61-4.48-2.8-10.11-3.03-14.8-.6l-1.73-3.32h0Z"/>
    <path class="st4" d="M292.51,143.4c0,.14-37.04,3.71-82.74,8.06-45.7,4.35-82.79,7.71-82.8,7.57s37.03-3.71,82.75-8.05,82.78-7.71,82.79-7.58Z"/>
    <path class="st4" d="M202.64,141.33c0,.13-17.09,1.86-38.19,3.85s-38.22,3.5-38.23,3.37,17.08-1.86,38.19-3.85,38.23-3.5,38.23-3.37Z"/>
    <path class="st4" d="M293.23,154.15c0,.13-37.04,3.71-82.75,8.05s-82.78,7.71-82.8,7.58,37.03-3.71,82.76-8.06c45.73-4.35,82.77-7.71,82.79-7.57Z"/>
    <path class="st4" d="M293.96,164.89c0,.13-37.04,3.71-82.75,8.05s-82.77,7.71-82.77,7.58,37.03-3.71,82.75-8.05,82.75-7.71,82.77-7.58Z"/>
    <path class="st4" d="M294.67,175.63c0,.14-37.04,3.71-82.74,8.06s-82.79,7.71-82.8,7.57,37.03-3.71,82.75-8.05c45.72-4.34,82.78-7.71,82.79-7.58Z"/>
    <path class="st4" d="M295.41,186.42c0,.13-37.04,3.71-82.74,8.05s-82.8,7.72-82.81,7.54,37.03-3.71,82.75-8.06c45.72-4.35,82.8-7.71,82.8-7.53h0Z"/>
    <path class="st4" d="M296.12,197.13c0,.13-37.04,3.71-82.74,8.05s-82.79,7.71-82.8,7.58,37.03-3.71,82.75-8.05c45.72-4.34,82.78-7.71,82.79-7.58Z"/>
    <path class="st4" d="M296.84,207.87c0,.14-36.56,3.71-81.63,7.96s-81.71,7.61-81.72,7.47,36.55-3.71,81.68-7.95c45.13-4.24,81.66-7.59,81.68-7.48h0Z"/>
    <path class="st4" d="M233.05,228.54c0,.14-22.06,2.24-49.3,4.64s-49.33,4.38-49.34,4.27,22.06-2.23,49.3-4.64,49.33-4.4,49.34-4.27Z"/>
    <path d="M206.24,317.35c0,.14-13.42,1.38-30,2.78s-30.04,2.44-30.05,2.31,13.42-1.38,30.01-2.78,30.03-2.44,30.04-2.31h0Z"/>
    <path d="M180.44,327.61c0,.14-7.53.88-16.84,1.67-9.3.79-16.86,1.33-16.87,1.2s7.52-.93,16.84-1.67,16.86-1.33,16.87-1.2Z"/>
    <path class="st3" d="M178.38,251.99c0,.13-8.86,1.11-19.8,2.2-10.95,1.09-19.84,1.86-19.86,1.71s8.86-1.11,19.81-2.19,19.83-1.85,19.85-1.72Z"/>
    <g class="st10">
      <polygon points="125.08 312.95 143.11 309.46 153.19 294.27 124.46 303.7 125.08 312.95"/>
    </g>
    <polygon class="st3" points="93.47 293.54 141.59 288.97 153.19 294.27 143.94 304.68 95.06 309.95 93.47 293.54"/>
    <path class="st6" d="M115.08,296.56l.61,6.17-1.43.15-.25-2.53-2.78.28.25,2.53-1.43.14-.62-6.17,1.43-.14.25,2.43,2.78-.28-.24-2.44,1.43-.14h0Z"/>
    <path class="st6" d="M121.48,300.15l-3.59.35c.21.6.84.95,1.46.82.44-.02.86-.23,1.14-.58l.82.72c-.46.56-1.13.9-1.86.93-1.34.27-2.65-.6-2.92-1.94-.02-.08-.03-.15-.03-.23-.16-1.33.8-2.53,2.12-2.69.05,0,.11-.01.16-.01,1.29-.2,2.49.68,2.69,1.96.01.08.02.16.03.24-.02.15-.02.3-.02.42h0ZM117.77,299.7l2.34-.23c-.16-.64-.8-1.02-1.44-.86-.51.13-.87.57-.9,1.09Z"/>
    <path class="st6" d="M125.09,296.92l.13,1.27h-.32c-.64,0-1.16.52-1.15,1.16,0,.1.01.2.04.3l.22,2.24-1.37.14-.48-4.74,1.32-.13.06.62c.34-.52.92-.85,1.55-.86Z"/>
    <path class="st6" d="M130.77,299.21l-3.59.36c.22.59.84.94,1.46.82.44-.03.86-.23,1.14-.58l.82.71c-.45.56-1.13.9-1.86.93-1.34.27-2.64-.59-2.91-1.92-.02-.08-.03-.16-.04-.25-.15-1.33.81-2.54,2.14-2.69.05,0,.09,0,.14-.01,1.29-.2,2.5.69,2.69,1.98,0,.08.02.16.02.23-.02.14-.02.3-.02.41h0ZM127.06,298.78l2.34-.24c-.13-.57-.68-.95-1.26-.86-.58.04-1.04.52-1.05,1.1h-.03Z"/>
    <path d="M239.39,250.8c.06,0,.11.03.17.06.17.06.32.13.47.22.58.35,1.11.79,1.55,1.31,1.68,1.99,3,4.27,3.9,6.73,1.55,3.84,2.25,7.97,2.02,12.11-.09,1.26-.31,2.5-.66,3.71-.39,1.28-.88,2.52-1.47,3.71-1.3,2.59-3.03,4.94-5.14,6.94-2.3,2.21-5,3.98-7.95,5.2-3.21,1.33-6.7,1.87-10.16,1.57-7.76-.82-14.53-5.65-17.83-12.73-.87-1.86-1.42-3.86-1.61-5.9-.27-2.09-.04-4.22.65-6.22.64-2.09,1.94-3.92,3.71-5.19.93-.62,1.98-1.01,3.09-1.15,1.12-.12,2.24,0,3.3.38,2.13.77,3.93,2.27,5.08,4.22,1.13,1.97,1.82,4.17,2.02,6.44.45,4.59-.23,9.22-1.99,13.48-1.72,4.29-4.53,8.06-8.15,10.93-3.56,2.74-7.81,4.45-12.28,4.94-4.31.52-8.68-.19-12.6-2.05-3.74-1.85-6.85-4.76-8.97-8.35-2.05-3.38-3.1-7.28-3.02-11.24,0-1.91.37-3.8,1.08-5.57.67-1.73,1.76-3.26,3.17-4.45,1.4-1.17,3.22-1.71,5.03-1.48,1.72.28,3.29,1.15,4.43,2.47,1.11,1.23,1.88,2.73,2.23,4.35.3,1.53.3,3.11,0,4.64-.62,2.83-1.74,5.54-3.3,7.98-1.33,2.2-2.89,4.27-4.64,6.16-2.79,3.05-6.04,5.63-9.63,7.67-2.25,1.3-4.64,2.36-7.12,3.14-1.7.54-2.62.72-2.62.72l.66-.2c.44-.15,1.09-.3,1.93-.61,2.46-.82,4.82-1.9,7.06-3.22,3.55-2.01,6.76-4.57,9.52-7.57,1.72-1.89,3.25-3.95,4.56-6.14,1.54-2.41,2.64-5.08,3.23-7.88.29-1.5.29-3.04,0-4.55-.34-1.56-1.08-2.99-2.15-4.17-1.09-1.24-2.58-2.07-4.21-2.34-1.71-.21-3.42.31-4.73,1.42-1.36,1.15-2.41,2.63-3.04,4.29-.67,1.72-1.03,3.54-1.04,5.39-.06,3.88.98,7.7,3,11.01,2.08,3.51,5.13,6.33,8.78,8.14,3.84,1.82,8.12,2.51,12.35,2,4.39-.48,8.56-2.16,12.06-4.85,3.56-2.82,6.32-6.52,8.01-10.73,1.73-4.19,2.4-8.75,1.95-13.27-.19-2.2-.85-4.32-1.95-6.23-1.09-1.86-2.8-3.29-4.83-4.02-.99-.36-2.04-.48-3.09-.37-1.03.13-2.02.5-2.88,1.08-1.68,1.22-2.92,2.96-3.53,4.95-.67,1.93-.89,3.99-.64,6.02.2,1.99.73,3.94,1.57,5.76,3.22,6.92,9.82,11.67,17.41,12.51,3.4.29,6.82-.24,9.97-1.54,2.91-1.2,5.58-2.93,7.86-5.1,2.09-1.96,3.81-4.28,5.1-6.84.59-1.17,1.09-2.39,1.47-3.65.35-1.18.57-2.4.67-3.63.25-4.11-.41-8.23-1.93-12.06-.87-2.44-2.15-4.72-3.79-6.73-.44-.51-.94-.96-1.5-1.34-.19-.1-.38-.2-.58-.28h-.03Z"/>
    <path class="st11" d="M254.22,121.03s0-.16-.06-.45-.08-.75-.15-1.32c-.13-1.18-.32-2.88-.58-5.1-.48-4.45-1.19-10.94-2.08-19.14l.17.13-100.17,10.57h0l.21-.27c.93,8.93,1.86,17.63,2.72,26.03l-.26-.21,71.48-7.36,21.06-2.13,5.68-.57,1.48-.14h.51l-.48.06-1.45.17-5.61.62-20.99,2.25-71.63,7.6h-.23v-.23c-.87-8.35-1.79-17.1-2.72-25.97v-.24h.24l100.18-10.37h.15v.14c.83,8.25,1.47,14.77,1.92,19.24.22,2.21.38,3.91.5,5.07.05.56.09.99.12,1.3v.32h0Z"/>
  </g>
  <g id="freepik--Character--inject-160">
    <path class="st4" d="M537.91,123.6c.12-.55.43-1.05.87-1.4,1.1-.7,2.41-1.03,3.71-.93.76-1.54,1.26-3.19,1.48-4.9-.61.01-1.22-.16-1.73-.49-.09,0-.19-.05-.29-.08-1.23-.58-1.35-2.42-.58-3.53.89-1.04,2.07-1.8,3.39-2.18-.91.2-1.79.51-2.63.93-.93.28-2.15,0-2.25-.93,0-.28.04-.57.14-.83l.53-1.64c.09-.46.35-.87.72-1.15.3-.11.61-.19.93-.23,1.05-.28,1.59-1.55,2.63-1.86.8-.08,1.6.04,2.34.34.77.19,1.8,0,2.04-.72-1.05-.53-1.96-1.3-2.65-2.24-.69-.99-.59-2.34.25-3.21.77-.5,1.71-.69,2.62-.54,1.02,0,2.29.28,2.56,1.26,1.42-.36,2.86.5,3.22,1.92.01.05.02.1.03.16l2.63-.26c-.73-.79-1.78-1.27-2.41-2.14s-.52-2.44.54-2.67c.38-.08.81.05,1.17-.1s.48-.34.77-.35c.21.02.4.09.57.22l5.57,3.62c-.5-1.16-.99-2.32-1.49-3.49s-.83-2.55.14-3.21,2.28.28,2.48,1.39c1.01-.19,1.98.47,2.17,1.47.01.06.02.13.03.19.97-.33,2.02.19,2.35,1.16.19.54.11,1.14-.21,1.62.94.02,1.85.29,2.64.79.09-.88.87-1.51,1.75-1.42.3.03.58.14.82.33-.02-.55.12-1.1.41-1.58.27-.43.84-.57,1.28-.29.06.04.11.08.16.13-.25-.99.36-2,1.36-2.25.58-.14,1.19,0,1.65.39l.93-1.1c.95-.07,1.86.42,2.32,1.26.39.85-.26,2.09-1.2,2,.66,0,.51,1.04.13,1.58l-1.6,2.23c.69-.65,1.74-.75,2.54-.22.61-.64,1.62-.66,2.26-.04.02.01.03.03.04.04.4-.59,1.2-.75,1.79-.36.26.18.45.44.53.74.16-.43.75-.45,1.21-.41.67,0,1.32.22,1.86.63.47.46.46,1.43-.15,1.66.56-.32,1.28.3,1.29.93-.06.65-.4,1.24-.93,1.63-.52.38-.97.85-1.33,1.39.55-.35,1.21-.49,1.86-.39,1.16-.06,2.31.17,3.36.67.2-.45.83-.47,1.32-.38,1.52.32,2.91,1.08,4.01,2.18.51.52.93,1.3.62,1.94-.19.28-.44.5-.74.65l-3.56,2.21c1.95.61,3.65,1.82,4.87,3.45.71.42,1.62.46,2.26.97s.59,1.86-.22,1.86c.51.43.69,1.14.44,1.75-.13.25-.32.46-.56.61-.11.16-.24.31-.39.44-.27.22-.59.39-.93.5-.37.5-.97.78-1.6.74.68.56,1.25,1.24,1.69,2,.61,1,.61,2.26,0,3.27-.04.05-.08.1-.13.14-.09.41-.33.76-.68.99.14.27.18.57.13.86,1.8.68,2.7,2.69,2.03,4.48-.25.65-.68,1.21-1.25,1.61-.83.58-2.34.47-2.42-.53-.39.81-1.16,1.38-2.05,1.5.65,1.29.13,2.86-1.16,3.51-.07.04-.14.07-.21.1,1.1,1.07,1.13,2.83.06,3.94-.27.28-.59.49-.94.64.44,1.1-.09,2.35-1.18,2.79-1.1.44-2.35-.09-2.79-1.18-.03-.07-.05-.14-.07-.21-.33.81-.88,1.5-1.6,2-.73.46-1.7.25-2.16-.48-.02-.03-.04-.06-.05-.09-.59,1.51-2.3,2.26-3.81,1.66-.18-.07-.35-.16-.51-.26.09,1.04-.68,1.96-1.72,2.05s-1.96-.68-2.05-1.72l-4.91-.05c-1.09.02-2.17-.06-3.25-.24-1.36-.27-2.63-.86-3.71-1.73-.65-.78-1.76-.97-2.63-.46-2.66.76-5.52.09-7.55-1.78-.29-.32-.62-.58-.99-.79-.46-.17-.96-.24-1.45-.2-1.21-.02-2.41-.19-3.57-.51-1.03-.18-1.94-.78-2.51-1.66-.47-.93.08-2.34,1.11-2.32.11-.67-.09-1.35-.55-1.86-.5-.53-1.32-.56-1.86-.07-.36.36-.36.95,0,1.31.12.12.27.21.44.25-1.1.77-2.83-.31-2.86-1.65.09-1.4,1.25-2.48,2.65-2.48-.27-.97-.29-1.99-.07-2.97-.75.88-2.05,1.02-2.97.33-.54.9-1.42,1.53-2.44,1.75-1.05.19-2.08-.38-2.49-1.36-.26-.86.23-1.76,1.09-2.02.15-.04.3-.07.45-.07-.47-.96-.06-2.12.9-2.59.26-.12.54-.19.82-.19-.18-1.37.58-2.69,1.86-3.21-.76.42-1.72.14-2.14-.62-.04-.08-.08-.17-.11-.25-.62.98-2.15.74-3.15.16-.9-.36-1.45-1.28-1.33-2.24h-.05Z"/>
    <path class="st11" d="M537.91,123.6c-.04.13-.06.26-.06.4-.01.41.12.81.38,1.13.43.52,1,.9,1.63,1.12.4.16.84.23,1.27.21.51,0,1-.25,1.29-.68h-.1c.29.86,1.23,1.33,2.09,1.04.09-.03.17-.07.26-.11l-.06-.13c-1.31.53-2.09,1.88-1.9,3.28l.09-.09c-.69-.03-1.34.33-1.69.93-.43.6-.48,1.39-.13,2.03l.09-.14c-.77-.03-1.45.49-1.64,1.23-.22.79.12,1.62.83,2.03.7.46,1.59.54,2.37.22.79-.33,1.46-.9,1.92-1.63h-.17c.98.73,2.35.58,3.14-.35l-.22-.1c-.22,1-.19,2.04.07,3.03l.12-.17c-.68,0-1.33.25-1.86.68-.54.44-.88,1.08-.93,1.77-.04.74.31,1.45.93,1.86.61.47,1.45.52,2.11.11l.32-.21-.38-.05c-.37,0-.61-.51-.55-.93.09-.43.49-.72.93-.68.47,0,.89.27,1.11.68.22.41.31.87.27,1.33l.15-.13c-.38,0-.74.16-.97.45-.23.26-.38.58-.44.93-.06.36-.01.73.13,1.07.16.32.38.61.66.84.55.43,1.18.75,1.86.93.68.19,1.37.34,2.07.43,1.38.3,2.99-.27,3.9,1.01,1.1,1.05,2.47,1.75,3.96,2.04.76.15,1.53.2,2.3.14.77-.09,1.52-.25,2.25-.49.34-.09.7-.05,1.01.11.33.2.64.43.93.68.65.52,1.37.95,2.14,1.27,1.54.54,3.17.77,4.8.69l4.92.06-.18-.16c.14,1.14,1.18,1.96,2.32,1.82,1.09-.13,1.9-1.09,1.83-2.19l-.31.16c1.45.95,3.39.54,4.34-.91.12-.18.22-.38.3-.58h-.37c.18.45.58.77,1.05.87.47.11.95.05,1.38-.16.78-.51,1.39-1.25,1.74-2.11h-.36c.45,1.15,1.69,1.79,2.88,1.47,1.25-.42,1.93-1.75,1.53-3.01l-.12.25c1.53-.64,2.25-2.39,1.61-3.92-.16-.37-.39-.71-.68-1l-.06.35c1.45-.58,2.16-2.22,1.59-3.67-.03-.08-.07-.16-.1-.23l-.15.31c.96-.16,1.78-.78,2.19-1.67l-.39-.07c.02.26.14.5.32.68.18.17.4.28.64.33.46.1.94.06,1.37-.11.83-.42,1.47-1.15,1.76-2.03.33-.91.28-1.91-.14-2.78-.42-.85-1.15-1.51-2.04-1.86l.13.24c.07-.34.02-.69-.14-1l-.08.27c.4-.25.68-.66.78-1.12v.09c.68-.88.84-2.07.4-3.1-.44-1.02-1.11-1.91-1.98-2.61l-.16.36c.69.04,1.36-.26,1.78-.82l-.11.07c.59-.16,1.11-.53,1.47-1.03l-.06.06c.46-.27.74-.75.77-1.28.03-.55-.2-1.08-.63-1.43l-.13.37c.26,0,.51-.12.66-.33.14-.2.21-.43.21-.67.03-.47-.16-.93-.52-1.24-.73-.57-1.63-.59-2.28-.98l.06.06c-1.25-1.67-2.99-2.91-4.98-3.53l.05.39,1.63-1.01,1.23-.77c.44-.24.85-.52,1.24-.83.22-.2.36-.46.4-.75.03-.28-.02-.56-.13-.82-.22-.46-.53-.88-.93-1.21-1.09-1.02-2.44-1.71-3.91-1.99-.26-.05-.53-.05-.79,0-.31.04-.57.24-.71.52l.3-.1c-.84-.43-1.76-.66-2.7-.67h-1.37c-.5,0-.98.14-1.38.44l.32.26c.4-.79,1.37-1.21,1.95-2.09.33-.45.4-1.05.19-1.57-.13-.25-.33-.46-.58-.59-.27-.15-.61-.15-.88,0l.17.38c.27-.11.47-.33.57-.6.07-.25.07-.52,0-.78-.06-.25-.2-.48-.39-.66-.18-.17-.4-.3-.63-.38-.43-.15-.89-.24-1.35-.28-.24-.04-.48-.04-.72,0-.29.05-.53.24-.64.51l.4.06c-.19-.8-1-1.3-1.8-1.11-.38.09-.7.32-.91.64h.34c-.68-.72-1.82-.75-2.54-.07-.02.02-.05.05-.07.07h.28c-.87-.57-2.02-.47-2.78.24l.32.27,1.35-1.86c.28-.31.47-.69.58-1.09.05-.22.05-.45,0-.67-.04-.13-.11-.25-.22-.34-.12-.09-.26-.13-.4-.13v.41c.56.02,1.08-.3,1.32-.81.26-.47.28-1.04.06-1.53-.52-.89-1.51-1.39-2.53-1.3h-.09l-.06.07-.93,1.1h.28c-.87-.73-2.17-.61-2.9.26-.41.49-.57,1.14-.43,1.76l.35-.17c-.23-.26-.58-.38-.93-.32-.32.06-.61.24-.81.5-.31.5-.46,1.08-.44,1.67l.33-.13c-.76-.62-1.88-.51-2.51.25-.23.28-.37.63-.4.99l.3-.18c-.82-.51-1.77-.79-2.74-.82l.15.32c.67-.89.49-2.16-.4-2.83-.57-.43-1.31-.52-1.97-.26l.26.18c-.04-1.09-.95-1.94-2.04-1.91-.13,0-.26.02-.39.05l.23.15c-.1-.49-.36-.94-.74-1.26-.37-.34-.87-.52-1.37-.5-.53.07-.99.43-1.18.93-.17.45-.21.94-.11,1.41.21.87.53,1.71.93,2.5l1.03,2.37.26-.22-3.43-2.24-1.67-1.09c-.28-.21-.6-.39-.93-.52-.21-.05-.42-.02-.6.09-.16.08-.29.19-.41.24-.3.07-.62.1-.93.07-.38,0-.73.17-.97.46-.4.59-.47,1.35-.19,2,.28.6.72,1.12,1.27,1.48.5.35.98.74,1.42,1.17l.1-.28-2.63.27.18.14c-.26-1.51-1.71-2.53-3.22-2.26-.08.01-.17.03-.25.06l.2.11c-.21-.6-.72-1.04-1.35-1.17-.55-.15-1.12-.22-1.69-.22-.57-.04-1.13.03-1.68.19-.56.18-1.01.59-1.25,1.12-.4,1.05-.2,2.24.54,3.09.69.76,1.51,1.38,2.42,1.86l-.06-.16c-.15.38-.52.64-.93.67-.42.06-.84.03-1.24-.1-.42-.14-.85-.24-1.28-.32-.45-.07-.91.02-1.3.25-.76.46-1.21,1.22-1.86,1.54-.33.19-.73.13-1.15.3-.37.19-.65.53-.77.93-.24.73-.46,1.46-.7,2.16-.15.38-.11.8.09,1.15.22.32.55.54.93.62.36.08.73.08,1.09,0,.33-.15.64-.33.94-.54.56-.32,1.17-.54,1.81-.64v-.19c-.75.27-1.47.62-2.15,1.03-.65.4-1.18.97-1.51,1.66-.29.63-.34,1.35-.15,2.02.17.63.67,1.13,1.31,1.3h0c.53.34,1.16.52,1.79.5l-.17-.11c-.22,1.7-.72,3.34-1.47,4.88h0c-.83,0-1.66.1-2.46.31-.56.16-1.08.46-1.49.87-.23.25-.41.54-.53.86-.03.11-.06.21-.07.32.11-.44.33-.83.65-1.15.41-.4.92-.69,1.47-.83.8-.2,1.62-.29,2.44-.27h0c.78-1.54,1.29-3.2,1.53-4.91v-.09h-.09c-.6,0-1.19-.16-1.69-.49h0c-.58-.15-1.03-.61-1.18-1.2-.18-.63-.12-1.31.15-1.9.33-.63.83-1.16,1.45-1.52.67-.4,1.38-.74,2.12-1l.6-.24h-.65c-.65.1-1.28.32-1.86.65-.3.15-.61.26-.93.34-.32.07-.66.07-.98,0-.33-.06-.62-.25-.81-.52-.16-.29-.18-.63-.06-.93l.69-2.14c.09-.35.33-.64.65-.81.39-.08.77-.18,1.15-.3.79-.38,1.23-1.14,1.92-1.55s1.55-.15,2.37.1c.44.14.91.18,1.36.11.51-.05.95-.38,1.13-.85v-.1l-.09-.06c-.88-.48-1.67-1.11-2.33-1.86-.66-.77-.85-1.83-.5-2.78.21-.45.61-.79,1.09-.93.51-.14,1.04-.2,1.57-.17.55,0,1.09.07,1.61.21.51.09.93.44,1.12.93v.16l.16-.05c1.34-.33,2.69.48,3.02,1.82.01.04.02.09.03.14v.16h.15l2.63-.26h.32l-.22-.24c-.45-.44-.94-.84-1.46-1.21-.5-.34-.9-.8-1.16-1.35-.23-.54-.17-1.17.15-1.66.17-.22.44-.34.71-.34.35.03.7,0,1.03-.1.34-.17.56-.39.79-.32.28.13.55.29.8.47l1.68,1.09,3.42,2.24.5.32-.24-.55-1.02-2.38c-.38-.77-.67-1.58-.88-2.42-.09-.4-.06-.82.09-1.2.15-.36.49-.61.87-.65.84.02,1.55.62,1.71,1.45v.2l.2-.06c.87-.19,1.73.37,1.92,1.24.02.08.03.16.03.23v.29l.27-.11c.84-.33,1.8.08,2.13.93.21.53.13,1.12-.21,1.58l-.23.3h.38c.9.02,1.78.28,2.54.76l.32.19v-.36c.1-.77.81-1.3,1.58-1.2.24.03.47.13.66.27l.32.32v-.45c-.03-.51.09-1.02.35-1.46.25-.35.93-.49,1.13-.18l.55.74-.19-.93c-.19-.9.39-1.78,1.28-1.97.49-.1,1.01.02,1.4.34l.16.13.13-.16.93-1.1-.15.06c.86-.08,1.69.34,2.14,1.08.36.7-.19,1.86-.97,1.75v.41c.11-.01.2.07.21.17h0c.04.16.04.32,0,.47-.09.34-.26.66-.49.93l-1.36,1.86.31.28c.62-.59,1.56-.68,2.28-.21l.15.11.13-.14c.52-.55,1.39-.57,1.94-.04.02.01.03.03.04.04l.21.25.13-.3c.36-.49,1.04-.59,1.53-.24.19.14.33.34.4.56l.08,1.04.32-.99c.08-.26.54-.32.93-.28.42.03.83.11,1.23.24.37.11.66.4.77.77.09.35,0,.78-.32.87l.18.38c.28-.18.71.07.93.43.15.39.09.82-.17,1.15-.46.75-1.45,1.16-1.97,2.11l-.49.93.82-.66c.61-.49,1.59-.32,2.46-.31.87,0,1.73.21,2.51.6l.21.13.08-.22c.11-.3.62-.34,1.04-.26.46.09.91.22,1.34.4.87.34,1.67.85,2.36,1.48.35.29.63.66.82,1.07.19.36.12.81-.17,1.09-.37.28-.77.54-1.18.77l-1.23.77-1.5.95-.39.24.44.14c1.9.6,3.57,1.78,4.77,3.38h0c.79.45,1.66.48,2.23.93.26.23.4.58.37.93,0,.34-.19.62-.45.6h-.67l.54.42c.32.26.49.66.47,1.08-.03.39-.24.73-.58.93h-.05c-.3.42-.73.73-1.23.86h-.06l-.05.06c-.33.44-.85.68-1.4.65l-.63-.06.47.43c.81.65,1.44,1.48,1.86,2.43.39.89.26,1.91-.32,2.68h0v.05c-.08.35-.29.66-.59.86l-.17.09.09.18c.12.23.16.48.11.73v.18l.17.06c.79.31,1.44.92,1.8,1.69.37.76.41,1.64.13,2.43-.25.77-.8,1.42-1.52,1.79-.36.15-.75.18-1.12.09-.34-.04-.6-.3-.65-.64l-.05-.81-.33.73c-.37.74-1.08,1.26-1.9,1.38h-.3l.15.27c.59,1.2.1,2.65-1.1,3.24-.05.03-.1.05-.16.07l-.35.11.29.24c.66.61.93,1.53.71,2.39-.14.84-.71,1.55-1.51,1.86l-.2.06.07.19c.32,1.04-.24,2.14-1.27,2.5-.99.25-2.02-.27-2.4-1.22l-.14-.44-.21.41c-.32.8-.87,1.48-1.58,1.96-.65.36-1.47.14-1.86-.5l-.19-.56-.18.57c-.3.79-.96,1.39-1.77,1.61-.76.25-1.59.13-2.25-.32l-.31-.23v.39c.03.95-.71,1.74-1.65,1.78-.88.03-1.64-.6-1.76-1.47v-.16h-.21l-4.93-.05c-1.57.08-3.15-.14-4.64-.66-.72-.28-1.4-.66-2.01-1.12-.29-.26-.6-.49-.93-.7-.38-.2-.82-.26-1.24-.15-.72.24-1.46.4-2.21.49-2.2.18-4.38-.57-6-2.07-.26-.27-.55-.51-.87-.71-.35-.17-.73-.25-1.11-.25-.7,0-1.41-.04-2.11-.13-.68-.09-1.36-.23-2.02-.41-.64-.16-1.25-.45-1.77-.85-.51-.38-.77-1-.7-1.63.03-.61.5-1.11,1.11-1.17h.13v-.13c.08-.55-.02-1.11-.29-1.6-.28-.5-.8-.81-1.37-.82-.58-.05-1.11.35-1.22.93-.12.56.23,1.11.79,1.25l-.06-.26c-.56.33-1.27.29-1.79-.11-.55-.34-.87-.94-.85-1.58.18-1.26,1.25-2.2,2.52-2.2h.17v-.17c-.26-.89-.31-1.84-.15-2.76l.12-.53-.33.43c-.7.81-1.91.95-2.78.32l-.1-.08-.07.11c-.43.69-1.06,1.23-1.8,1.56-.71.29-1.52.22-2.17-.19-.64-.35-.95-1.1-.75-1.8.16-.66.75-1.11,1.43-1.1h.19l-.09-.17c-.45-.92-.07-2.03.85-2.48.24-.12.51-.18.78-.19h.11v-.11c-.18-1.33.55-2.61,1.78-3.13l-.06-.12c-.75.4-1.67.12-2.07-.63-.04-.07-.07-.13-.09-.2v-.13l-.06.12c-.27.4-.72.64-1.21.64-.42.02-.84-.05-1.23-.19-.65-.18-1.23-.53-1.7-1.01-.26-.31-.4-.69-.4-1.09-.04-.26,0-.4,0-.4l-.05.1Z"/>
    <path class="st1" d="M582.84,127.63c.47-8.63-6.15-16-14.77-16.46-.19-.01-.39-.02-.58-.02-8.46-.14-15.6,6.29-16.33,14.72-.64,7.28-1.12,14.63-.93,17.27.62,7.97,5.57,10.77,7.56,11.58.71.2,1.44.34,2.17.39h0s.05.02.05.05h0s-1.21,9.29-1.21,9.29c-.44,6.05-1.76,26.63,4.4,27.11s15.77-19.88,16.29-25.97l3.35-37.94v-.02Z"/>
    <path class="st4" d="M553.6,131.64c-.09.7.4,1.33,1.1,1.42h.04c.67.11,1.31-.35,1.42-1.02v-.02c.06-.69-.44-1.31-1.13-1.38-.67-.11-1.3.33-1.43.99h0Z"/>
    <path class="st4" d="M553.16,127.91c.15.18,1.19-.45,2.57-.34s2.36.87,2.51.71-.06-.38-.47-.73c-.57-.45-1.27-.72-1.99-.77-.72-.06-1.44.1-2.06.47-.42.25-.56.58-.56.66h0Z"/>
    <path class="st4" d="M566.56,132.68c-.06.69.45,1.31,1.14,1.37h0c.67.11,1.31-.35,1.42-1.02v-.02c.06-.69-.44-1.3-1.13-1.37-.68-.11-1.32.35-1.43,1.03h0Z"/>
    <path class="st4" d="M566.82,129.23c.15.18,1.18-.45,2.57-.34s2.35.87,2.51.71-.06-.38-.48-.73c-.57-.46-1.27-.73-1.99-.78-.72-.06-1.44.11-2.06.48-.45.29-.62.58-.55.66h0Z"/>
    <path class="st4" d="M560.94,138.95c-.71-.29-1.46-.48-2.22-.58-.35-.06-.69-.17-.72-.41,0-.36.12-.72.32-1.01.4-.82.83-1.67,1.27-2.57,1.76-3.65,3.08-6.68,2.92-6.74s-1.71,2.84-3.47,6.49l-1.25,2.64c-.26.4-.36.88-.3,1.35.08.26.28.47.54.56.19.06.39.11.59.13.76.14,1.54.19,2.31.14h0Z"/>
    <path class="st5" d="M560.05,155.11s5.32.85,12.36-2.59c-.43.21-2.46,8.04-12.68,5.08l.32-2.5h0Z"/>
    <path class="st5" d="M561.26,142.28c.6-.63,1.47-.91,2.32-.74.6.1,1.15.43,1.5.93.35.49.35,1.15,0,1.63-.5.47-1.23.59-1.86.31-.64-.26-1.23-.64-1.72-1.13-.15-.12-.27-.26-.36-.43-.1-.15-.1-.36,0-.51"/>
    <path class="st4" d="M564.95,140.21c-.22,0-.35,1.45-1.73,2.39s-2.97.67-3,.87.33.32,1.01.38c.88.08,1.76-.14,2.5-.64.69-.47,1.17-1.19,1.35-2.01.14-.62-.03-1-.13-.99Z"/>
    <path class="st4" d="M566.87,124.81c.1.38,1.5.32,3.12.64s2.89.85,3.14.54c.11-.15-.09-.52-.59-.93-.67-.5-1.45-.84-2.27-.98-.83-.17-1.68-.14-2.5.09-.61.19-.94.46-.89.64h0Z"/>
    <path class="st4" d="M553.91,124.33c.22.33,1.2.08,2.36.16s2.11.38,2.36.06c.11-.15,0-.46-.42-.8-1.12-.8-2.61-.87-3.79-.18-.44.29-.59.59-.5.75h-.01Z"/>
    <path class="st4" d="M549.06,116.25c.04-.45.1-.89.19-1.33.24-.64.65-1.21,1.18-1.65,1.69-1.65,3.47-3.37,5.57-3.91,1.3-.33,2.64-.2,3.94-.53.8-.24,1.59-.53,2.36-.85,3.23-1.06,6.68-1.25,10.01-.54,1.88.25,3.7.84,5.37,1.74,1.84,1.17,3.47,2.66,4.81,4.38,2.28,2.55,4.1,5.47,5.37,8.65,1.05,2.59,1.31,5.43.77,8.16-.63,2.72-2.56,5.16-4.92,5.57-.27-.38-.54-.75-.82-1.12l-1.31-1.65c.21.66,0,.61-.56.93-.57.28-1.25.05-1.53-.52-.01-.02-.02-.04-.03-.07-.47.54-1.39-.13-1.2-.86-.56.25-1.19-.52-.93-1.16-.63.18-.93-.83-1.18-1.53-.15-.37-.36-.7-.54-1.06-.59-1.16-.83-2.46-.7-3.76-.64-1.13-.94-2.42-.86-3.71,0-.82-.06-1.63-.09-2.45l-.4-.6c-.04.56-.44,1.04-.98,1.19-.49.08-1,.03-1.47-.15l-1.43-.4-.93.19c.11.81-.06,1.63-.46,2.34-.15.51-.48.96-.93,1.25-.36.14-.76-.04-.9-.4-.05-.13-.06-.28-.03-.42-.33.26-.81.2-1.07-.13-.04-.05-.07-.1-.09-.15-.22-.47-.3-1.01-.2-1.52.14-1.26.64-2.44,1.46-3.41l-2.71,2.15c-.18.17-.41.28-.65.32,0,.37-.3.68-.67.68h-.1c-.36-.13-.67-.38-.88-.7-.56-.7-1.12-1.86-.52-2.53-.28-.07-.38-.57-.18-.82l-3.05,1.93c.3-.14.58.33.48.7-.12.33-.35.61-.66.8.22.43.29.91.21,1.38.56-.42,1.26.5,1.03,1.22-.25.67-.9,1.09-1.6,1.06-.58.04-1.1-.36-1.21-.93-.64.07-1.17-.83-.93-1.52-.47.27-.81-.58-.79-1.21.05-1.08.29-2.14.72-3.14-.05.08-.15.1-.23.05h-.01s-.05-.08-.05-.13l-1.81,3.55c-.58.98-.97,2.06-1.15,3.19-.05.47-.16,1.1-.56,1.11-.11,0-.21-.04-.3-.1-1.13-.76-1.95-1.9-2.33-3.21-.17-.45-.27-.93-.29-1.41.16-1,.4-1.99.71-2.96h.06Z"/>
    <path class="st1" d="M581.32,132.3c.14-.06,5.57-1.28,5.06,4.16s-5.86,3.78-5.85,3.64.8-7.79.8-7.79h-.01Z"/>
    <path class="st5" d="M582.37,138.19s.09.07.25.16c.21.12.47.15.71.08.75-.39,1.24-1.15,1.28-1.99.05-.47,0-.94-.14-1.38-.07-.35-.31-.65-.64-.79-.22-.08-.46,0-.58.2-.08.15-.06.26-.09.26s-.11-.1-.05-.32c.04-.13.13-.25.25-.32.16-.1.35-.13.54-.08.45.12.8.48.93.93.18.49.24,1.03.18,1.55-.03.99-.66,1.87-1.6,2.22-.3.06-.62-.03-.85-.23-.18-.15-.19-.27-.18-.28h-.01Z"/>
    <path class="st11" d="M561.64,115.02c-.17-.21-.27-.46-.31-.73-.02-.3.09-.59.32-.8.29-.25.71-.32,1.07-.18l.22.09-.08-.22c-.13-.44.02-.91.39-1.19.43-.27.99-.2,1.35.17l.19-.15s-.05-.1-.06-.15c-.03-.18.02-.36.13-.5.12-.14.29-.23.47-.24.18-.02.37,0,.54.06.18.11.38.18.59.19.27,0,.4-.21.54-.29.14-.09.29-.17.45-.22.3-.11.61-.15.93-.12.44.02.88.16,1.24.41.25.19.37.32.39.31-.08-.15-.19-.28-.33-.38-.37-.3-.82-.48-1.29-.51-.31-.03-.63,0-.93.1-.18.06-.34.14-.5.24-.17.09-.3.23-.43.23-.18-.03-.35-.09-.5-.18-.21-.09-.43-.12-.66-.09-.24.02-.46.14-.62.32-.17.2-.24.46-.19.71.02.08.06.16.1.23l.19-.16c-.46-.52-1.25-.56-1.77-.1-.38.34-.52.87-.35,1.35l.14-.13c-.43-.17-.92-.08-1.26.24-.25.24-.37.58-.32.93.03.22.12.42.26.58.02.05.05.11.09.15v.03Z"/>
    <path class="st11" d="M555.44,116.06c-.2-.2-.34-.45-.41-.72-.08-.32-.03-.65.14-.93.21-.36.59-.59,1.01-.61h.18l-.1-.15c-.32-.37-.43-.88-.31-1.35.08-.25.29-.44.54-.51.24-.1.53-.04.71.16l.63.8-.43-.93c-.15-.34-.15-.73,0-1.07.18-.36.53-.6.93-.64.28-.04.56,0,.81.15l.27.16-.09-.3c-.13-.44.33-.93.76-.93.46,0,.9.15,1.26.43l.22.15-.05-.26c-.04-.33.1-.65.36-.84.26-.18.56-.28.87-.3.53-.04,1.05.02,1.56.17.44.15.86.35,1.26.58,0,0-.08-.1-.29-.24-.75-.5-1.65-.74-2.55-.7-.35.01-.69.12-.97.32-.34.24-.52.64-.46,1.05l.18-.11c-.4-.31-.9-.48-1.41-.48-.28.03-.55.15-.74.36-.21.22-.3.54-.23.84l.18-.14c-.28-.16-.61-.22-.93-.19-.47.06-.88.36-1.09.79-.19.4-.19.87,0,1.27l.19-.12c-.23-.26-.6-.34-.93-.22-.32.09-.57.34-.67.65-.15.54,0,1.13.36,1.55l.06-.15c-.48.03-.9.31-1.13.72-.17.31-.21.67-.11,1.01.06.21.17.41.32.57.02.14.08.18.09.17h0Z"/>
    <path class="st11" d="M542.26,116.07c.03-.26.16-.49.37-.64.24-.18.54-.26.83-.22.4.06.78.19,1.14.37l.13.06v-.15c.06-.49.44-.87.93-.93.6-.03,1.19.12,1.71.43l.73.34-.61-.54c-.3-.38-.23-.93.15-1.22,0,0,.02-.01.03-.02.46-.28,1.02-.36,1.55-.22h.07l.47.08-.38-.3c-.36-.37-.35-.96.02-1.31.06-.06.13-.11.21-.15.53-.23,1.14-.11,1.55.29l.46.44-.29-.57c-.33-.7-.25-1.52.19-2.14.36-.48.92-.77,1.52-.79.39-.02.78.06,1.13.24.24.13.35.23.37.22l-.07-.08c-.08-.08-.17-.14-.26-.2-.35-.22-.76-.33-1.18-.32-.65,0-1.27.3-1.67.82-.51.68-.6,1.59-.23,2.36l.16-.19c-.49-.49-1.23-.62-1.86-.33-.32.18-.54.49-.6.84-.09.38.04.77.33,1.03l.1-.22h-.08c-.59-.16-1.23-.06-1.74.28-.23.2-.39.47-.44.77-.05.3.04.61.26.83l.13-.19c-.56-.32-1.21-.47-1.86-.43-.6.08-1.05.57-1.09,1.17l.12-.08c-.37-.19-.78-.31-1.2-.35-.34-.03-.67.07-.93.29-.16.13-.27.3-.32.5.08.17.1.24.11.24h.04Z"/>
    <path class="st11" d="M550.18,104.21c.1.07.2.11.32.14.3.08.61.12.93.13.47,0,.94.11,1.35.32.23.14.38.38.43.64.05.28-.07.55-.32.7l.16.13c.07-.31.48-.47.85-.65.37-.19.77-.33,1.19-.4.41-.07.82.03,1.15.28.3.21.46.56.43.93l-.06.3.24-.18c.48-.35,1.06-.54,1.66-.52.47,0,.93.1,1.35.32.37.19.71.45.99.76,0,0-.05-.11-.19-.29-.21-.25-.46-.45-.74-.6-.43-.24-.92-.37-1.41-.38-.64-.03-1.28.16-1.8.53l.19.11c.07-.46-.12-.92-.5-1.18-.38-.29-.86-.41-1.33-.33-.44.07-.87.21-1.26.42-.2.09-.38.19-.57.3-.2.12-.34.3-.41.52l-.06.23.21-.09c.33-.18.51-.56.43-.93-.05-.32-.24-.61-.53-.77-.45-.22-.95-.33-1.45-.3-.31,0-.62-.01-.93-.06-.11-.03-.21-.05-.32-.06v-.02Z"/>
    <path class="st11" d="M562.72,100.54c.22.02.43.07.64.15.22.1.42.25.58.45.21.24.32.54.32.85v.13h.13c.39-.04.74.2.85.58.1.45.08.92-.07,1.35l-.11.48.32-.37.06-.06c.23-.22.55-.32.87-.28.3.04.58.18.77.42.33.42.47.96.37,1.48-.07.36-.19.72-.37,1.04-.12.23-.19.36-.18.37.1-.09.19-.2.26-.32.22-.32.37-.67.45-1.05.13-.58,0-1.19-.36-1.67-.47-.59-1.33-.69-1.93-.22-.02.02-.04.04-.07.06l-.06.07.21.11c.16-.49.18-1.01.05-1.5-.15-.48-.63-.77-1.12-.7l.13.1c-.02-.35-.16-.68-.4-.93-.18-.2-.4-.36-.66-.45-.16-.06-.34-.08-.51-.07-.06-.02-.12-.03-.18-.03h0Z"/>
    <path class="st11" d="M572.79,108.95h.33c.29-.09.56-.25.78-.45.34-.31.58-.72.67-1.18,0-.24.08-.47.21-.66.16-.16.46-.24.68-.51.4-.52.32-1.26-.18-1.68v.18c.49-.36.89-.83,1.17-1.36.12-.2.2-.42.23-.65-.13.18-.25.38-.35.58-.31.49-.71.91-1.19,1.24l-.12.09.12.09c.38.35.43.93.12,1.35-.14.2-.42.28-.65.5-.17.22-.27.5-.27.78-.07.41-.27.79-.57,1.09-.29.26-.63.46-.99.58h.01Z"/>
    <path class="st11" d="M575.76,111.33c.06.03.13.04.2.05.19.01.39.01.58,0,.71-.08,1.38-.39,1.9-.87h-.16c.52.73,1.43,1.07,2.3.85.34-.07.63-.26.83-.55.05-.11.1-.23.13-.34.04-.09.1-.16.18-.21.18-.11.38-.17.58-.2.23-.02.45-.09.65-.2.23-.1.38-.32.4-.58l-.16.1c.46.23.99.28,1.49.16.38-.09.74-.27,1.03-.53.19-.16.35-.37.46-.59.05-.08.08-.17.08-.26-.17.28-.38.53-.63.75-.29.23-.63.38-.99.45-.46.1-.93.03-1.35-.19l-.16-.08v.19c-.02.17-.13.31-.29.37-.18.09-.38.15-.58.18-.24.03-.48.11-.69.24-.12.08-.21.19-.26.32-.03.11-.07.21-.11.32-.17.22-.41.38-.68.44-.27.06-.55.06-.83,0-.5-.08-.95-.36-1.24-.77l-.06-.1-.09.09c-.48.48-1.1.81-1.77.93-.49.06-.78.03-.78.06l.02-.03Z"/>
    <path class="st11" d="M594.47,120.54v-.08c.03-.08.05-.17.06-.25.06-.32.06-.66,0-.98-.11-.5-.29-.99-.54-1.44-.14-.29-.3-.56-.48-.83-.11-.14-.25-.27-.4-.36-.18-.11-.4-.13-.59-.05l.14.11c.11-.61-.13-1.24-.63-1.61-.56-.38-1.29-.38-1.86,0l.19.11c.03-.35-.11-.69-.37-.93-.29-.25-.68-.33-1.04-.21-.2.05-.38.17-.51.32l.21.1c.03-.22-.05-.45-.21-.6-.14-.15-.33-.25-.53-.28-.37-.03-.74.03-1.08.18l.15.06c-.21-.4-.57-.69-1-.83-.38-.13-.8-.17-1.2-.1-.68.13-1.34.37-1.94.72l.12.12c.08-.13.08-.3,0-.43-.07-.11-.16-.2-.28-.26-.2-.11-.42-.16-.65-.16-.34.03-.68.1-1,.21-.2.07-.39.17-.58.28-.07.03-.13.08-.19.14.26-.12.53-.23.8-.32.32-.09.64-.15.97-.17.2,0,.39.06.56.16.19.1.32.29.22.46l-.16.26.28-.14c.58-.34,1.2-.57,1.86-.7.37-.06.74-.02,1.09.1.37.12.68.38.86.72l.05.09h.1c.29-.13.61-.19.93-.17.3,0,.59.32.55.59l-.08.43.3-.32c.11-.12.25-.2.4-.25.28-.09.58-.03.8.17.22.19.33.47.3.75v.26l.22-.15c.49-.34,1.14-.34,1.62,0,.43.33.65.86.57,1.39v.2l.19-.09c.28-.13.58.11.76.34.18.25.35.51.48.79.24.44.44.9.58,1.38.07.42.06.84-.04,1.25v.02Z"/>
    <path class="st11" d="M592.48,127.6s.1-.09.14-.15c.12-.15.23-.31.32-.47.17-.26.27-.57.28-.88,0-.2-.05-.4-.14-.58-.1-.21-.28-.37-.5-.45v.13c.27-.34.33-.81.15-1.21-.22-.46-.72-.72-1.22-.65l.1.18c.26-.31.28-.76.06-1.09-.23-.33-.6-.54-1-.58-.18.01-.37.01-.55,0-.16-.04-.28-.17-.32-.32-.06-.2-.15-.39-.27-.56-.14-.18-.34-.31-.56-.37-.43-.09-.86-.14-1.3-.14-.39.01-.76-.13-1.04-.4-.11-.14-.18-.32-.3-.5-.35-.54-1.04-.73-1.61-.45l.13.16c.26-.34.26-.81,0-1.14-.21-.28-.53-.47-.88-.53-.54-.08-1.08-.06-1.61.06-.34.07-.68.17-1,.31-.11.04-.22.1-.32.17.44-.14.89-.26,1.35-.34.52-.09,1.04-.09,1.56,0,.3.06.57.23.76.47.2.28.2.65,0,.93l-.3.36.43-.19c.29-.14.63-.14.93,0,.15.08.28.21.37.35.09.18.19.35.31.52.15.17.34.3.56.37.21.07.42.11.64.12.42,0,.84.05,1.25.14.17.05.32.14.44.28.1.16.19.33.24.51.07.22.25.39.47.45.19.03.39.05.58.06.33.02.64.19.83.46.18.24.18.57,0,.82l-.21.24.32-.06c.41-.06.82.15,1.01.52.15.33.11.73-.11,1.02l-.07.09h.12c.35.15.57.5.56.88,0,.29-.08.58-.22.83-.2.41-.37.62-.35.64h-.03Z"/>
    <path class="st11" d="M593.24,140.92c.09,0,.17-.02.25-.06.22-.09.43-.22.59-.39.27-.27.45-.62.5-1,.07-.51-.06-1.02-.38-1.42v.14c.32-.34.57-.73.74-1.17.07-.26.07-.53,0-.79-.07-.29-.27-.52-.53-.66v.21c.44-.25.72-.72.71-1.22.02-.29-.04-.57-.18-.83-.14-.24-.34-.44-.59-.56-.2-.07-.33-.27-.32-.48.01-.25-.02-.5-.1-.73-.17-.42-.46-.79-.83-1.06-.32-.27-.59-.52-.87-.74-.42-.37-.91-.66-1.44-.83-.14-.05-.29-.08-.45-.08h-.16c.19.04.39.09.58.15.49.21.95.5,1.34.87l.84.76c.34.25.6.59.75.97.07.21.1.44.08.66,0,.15.03.29.1.42.09.11.2.21.32.27.62.35.83,1.13.48,1.74-.1.18-.25.33-.42.44l-.22.11.22.11c.41.23.58.73.4,1.16-.15.41-.38.78-.68,1.09l-.06.06.06.06c.29.36.42.81.37,1.27-.04.35-.18.67-.42.93-.2.23-.45.43-.72.57l.04.03Z"/>
    <path class="st11" d="M572.64,119.26c.26-.02.52-.1.75-.23.27-.12.51-.29.71-.51.26-.28.38-.67.33-1.05-.01-.09-.04-.18-.07-.26l-.06.16c.33-.14.57-.41.67-.75.08-.27.05-.56-.08-.82-.24-.41-.56-.48-.55-.45s.23.16.39.53c.09.22.09.46,0,.68-.09.27-.29.48-.55.59h-.11l.05.12c.03.06.04.13.06.19.03.31-.07.62-.27.86-.17.21-.38.38-.61.51-.36.32-.64.39-.64.43h-.02Z"/>
    <path class="st11" d="M567.18,116.13c-.13-.29-.16-.62-.09-.93.08-.33.32-.6.64-.72.41-.14.86-.03,1.16.29l.14.16.06-.2c.07-.25.19-.49.34-.7s.39-.35.65-.38c.4,0,.81.38.68.7l.22.06c.1-.47.38-.89.78-1.16.32-.22.7-.33,1.09-.32.35.03.69.12,1.01.27,0,0-.06-.08-.22-.18-.24-.14-.5-.22-.78-.24-.42-.04-.85.06-1.21.29-.47.29-.8.75-.93,1.29l.23.06c.09-.26.02-.55-.19-.73-.19-.19-.45-.3-.71-.3-.34.03-.64.21-.83.48-.18.23-.31.5-.38.79h.2c-.36-.37-.91-.5-1.4-.32-.37.15-.64.48-.71.87-.05.25-.03.5.07.73.08.13.18.19.19.19h0Z"/>
    <polygon class="st1" points="518.31 396.9 515.18 412.29 504.89 413.26 500.56 408.16 504.52 389.79 518.31 396.9"/>
    <path class="st3" d="M498.51,406.45v1.21s-19.68,7.6-20,11.46l38.65.93-.22-13.49c-5.84,2.68-11.86,2.85-18.43-.1h0Z"/>
    <g class="st8">
      <path class="st6" d="M512.9,410.8c.77.29,1.22,1.1,1.05,1.91-.2.81-1.02,1.31-1.83,1.11h-.03c-.82-.31-1.29-1.18-1.09-2.03.29-.8,1.18-1.22,1.98-.93h.01"/>
    </g>
    <path class="st4" d="M517.13,420.08l-.06-3.25-37.02.27c-1.17.63-1.88,1.86-1.86,3.18l38.93-.2h0Z"/>
    <path class="st4" d="M498.34,407.76c0,.2.93.32,1.86.97s1.39,1.5,1.56,1.43-.07-1.22-1.2-2-2.25-.58-2.22-.4h0Z"/>
    <path class="st4" d="M494.25,409.42c-.05.19.76.55,1.38,1.4s.79,1.73.93,1.73.33-1.12-.45-2.16-1.85-1.16-1.86-.97Z"/>
    <path class="st4" d="M491.82,414.45c.18.05.46-.93,0-2.03s-1.34-1.55-1.42-1.38.45.75.82,1.65.42,1.73.6,1.76Z"/>
    <path class="st1" d="M578.1,393.3c.15.5,0,19.68,0,19.68l-5.77,3.59-7.53-4.74-1.6-18.55,14.9.02Z"/>
    <path class="st3" d="M564.29,410.16s10.27,7.63,15.24,1.02l1.3,3.2,5.83,22.81c.42,1.46-.28,3-1.64,3.66-1.03.43-2.21.19-2.99-.6-4.22-4.2-19.68-19.77-19.54-21.87l.06-5.57c0-1.14.68-2.17,1.73-2.62v-.04h.01Z"/>
    <path class="st4" d="M584.49,441.04l-22.05-24.61v1.22c-.09,1.01.29,2.01,1.05,2.7,5.76,7.25,11.95,14.16,18.52,20.69.68.69,1.98.08,2.48-.06v.06Z"/>
    <g class="st8">
      <path class="st6" d="M565.68,412.79c.71.56.91,1.54.48,2.34-.46.75-1.45.98-2.2.52h-.01c-.75-.59-.96-1.64-.49-2.47.54-.72,1.57-.86,2.29-.32.02.02.04.03.06.05"/>
    </g>
    <path class="st4" d="M578.13,428.42c.16.08.78-1.43,2.41-2.25s3.14-.47,3.17-.65-.32-.3-.97-.38c-.85-.1-1.71.06-2.47.46-.78.4-1.43,1.02-1.86,1.78-.32.59-.35,1.02-.29,1.04h0Z"/>
    <path class="st4" d="M580.12,432.28c.13.13,1.01-.82,2.43-1.25s2.65-.19,2.69-.37-1.25-.76-2.87-.23-2.4,1.78-2.25,1.86h0Z"/>
    <path class="st4" d="M574.5,423.48c.13.14,1.48-1.32,3.64-2.2s4.08-.83,4.09-1.02-2.01-.54-4.31.43-3.58,2.73-3.41,2.79h-.01Z"/>
    <path class="st4" d="M573.98,416.53c.07.18,1.59-.49,3.57-.58s3.55.41,3.61.22-1.51-.97-3.64-.86-3.64,1.09-3.54,1.22h0Z"/>
    <path class="st4" d="M578.68,415.89c.02-.37-.03-.74-.16-1.09-.27-.96-.71-1.85-1.32-2.64-.38-.61-.96-1.07-1.63-1.32-.47-.11-.97.09-1.22.51-.22.42-.29.9-.19,1.36.43,1.9,2.16,3.22,4.11,3.13,1.91-.18,3.51-1.52,4.03-3.37.14-.47.08-.97-.17-1.39-.28-.4-.8-.55-1.25-.38-.65.28-1.21.74-1.61,1.32-.63.77-1.12,1.64-1.46,2.57-.15.33-.23.69-.24,1.06.51-1.2,1.19-2.32,2.01-3.33.38-.48.87-.87,1.44-1.11.25-.1.53-.01.68.2.15.29.17.62.06.93-.5,1.57-1.88,2.7-3.52,2.88-1.64.08-3.12-1.01-3.52-2.61-.07-.31-.04-.64.09-.93.13-.24.41-.36.67-.29.57.2,1.07.58,1.41,1.09.79,1.03,1.4,2.18,1.8,3.4h-.01Z"/>
    <path class="st4" d="M588.97,234.93c3.09,6.19,5.5,12.7,7.19,19.41,3.17,11.99,6.74,18.01,5.45,40.1-.66,11.27-9.98,41.86-12.13,52.63-1.77,8.87-7.29,50.51-10.1,61.52h-16l-1.63-123.28s-25.52,71.95-28.76,80.26-14.58,41.27-14.58,41.27l-20.06-5.32s12.2-58.97,15.23-73.65c3.03-14.68,11.29-56.11,14.8-68.58,3.51-12.47,6.82-25.63,6.82-25.63l53.78,1.27h-.01Z"/>
    <path class="st11" d="M587.01,256.76s0,.22.17.61c.19.54.43,1.06.72,1.55.93,1.63,2.19,3.05,3.71,4.16,1.49,1.09,3.21,1.84,5.02,2.19.54.11,1.1.16,1.65.16.2.02.41,0,.6-.05,0-.09-.85-.11-2.19-.44-1.74-.43-3.37-1.2-4.82-2.24-1.47-1.08-2.73-2.41-3.71-3.94-.75-1.2-1.08-2.03-1.15-1.99h0Z"/>
    <path class="st11" d="M526.72,265.72c.18.09.38.14.58.17.55.11,1.1.17,1.66.19.83.01,1.65-.07,2.46-.25.99-.23,1.95-.6,2.85-1.09,1.63-.94,3.06-2.2,4.19-3.71.51-.59.93-1.26,1.24-1.98-.06,0-.56.69-1.47,1.76-1.18,1.39-2.59,2.57-4.17,3.48-1.57.87-3.32,1.35-5.11,1.42-1.37.07-2.23-.08-2.24,0h0Z"/>
    <path class="st11" d="M561.42,258.75c-.1.33-.15.66-.18,1-.08.64-.18,1.58-.27,2.73-.19,2.32-.35,5.57-.32,9.07s.24,6.74.46,9.05c.12,1.16.23,2.09.32,2.74.02.34.08.67.19.98.03-.34.03-.67,0-1.01-.06-.74-.11-1.66-.19-2.78-.15-2.31-.31-5.5-.34-9.04s.08-6.73.19-9.04c.05-1.08.09-1.99.13-2.78.02-.31.02-.62-.02-.93h.03Z"/>
    <path class="st11" d="M582.9,163.73l14.55,6.93-2.03,26.51s-1.72,2-4.5,16.22,6.49,41.85,6.49,41.85l-68.37,1.72s8.03-57.34,8.96-64.93l3.41-29,13.76-.75h3.96l3.42,24.71,17.22-23.96,3.13.71h0Z"/>
    <path class="st4" d="M519.67,215.14c.17-.5.24-1.04.2-1.57,0-1.26-.21-2.52-.63-3.71-.42-1.2-1.05-2.31-1.86-3.28-.62-.74-1.09-1.09-1.13-1.05,1.06,1.37,1.92,2.88,2.56,4.49.51,1.66.79,3.38.85,5.12h.01Z"/>
    <path class="st11" d="M491.94,208.56l24.37-.21,9.21-27.22h0c1.45-3.28,3.06-6.48,4.82-9.6,4.88-8.98,11.09-8.51,11.09-8.51l7.48,11.63-7.98,17.78s-7.6,33.61-16.4,35.08c-14.62,2.45-40.82-7.65-40.82-7.65l8.23-11.31h0Z"/>
    <g class="st9">
      <path d="M534.67,216.9c0-.93-.25-2.11.55-2.51.68-.23,1.43-.17,2.07.16,20.19,7.15,31.87-1.15,52.07,6l4.11,20.74c-8.96.07-13.05-2.02-21.86-4.84-8.98-2.88-17.98-5.75-26.79-9.17-2.49-.83-4.83-2.05-6.93-3.63-2.02-1.66-3.2-4.14-3.21-6.75h-.01Z"/>
    </g>
    <path class="st4" d="M539.57,182.6c-.12.47-.27.93-.47,1.37-.37,1.1-.65,2.22-.84,3.37-.47,2.68-.58,4.9-.71,4.9-.22-1.66-.14-3.35.23-4.99.2-1.17.53-2.31,1-3.4.16-.47.43-.9.79-1.24h0Z"/>
    <path class="st3" d="M663.96,209.17l5.56.14c3.2.08,5.72,2.74,5.64,5.94l-.02.69c-.08,3.2-2.74,5.72-5.94,5.64l-5.56-.14h0l.31-12.26h.01Z"/>
    <path class="st3" d="M419.46,203.92l49.9-4.99,187.46,4.82c1.82.05,3.26,1.56,3.22,3.39l-.45,17.63c-.05,1.82-1.56,3.26-3.38,3.22h0l-188.17-4.93-48.79-10.01.23-9.12h-.02Z"/>
    <path class="st4" d="M419.39,206.49l-4.58-.11-3.9,1.32c-.32.24-.24.55,0,.93l3.92,1.28,4.49.11.06-3.53h0Z"/>
    <rect class="st4" x="458.9" y="209.08" width="24.21" height="3.89" transform="translate(247.97 676.46) rotate(-88.53)"/>
    <path class="st3" d="M660.67,204.78h0c-.07,2.38-2.05,4.26-4.42,4.19l-93.56-2.4c-2.38-.07-4.26-2.04-4.2-4.42h0c.07-2.38,2.05-4.26,4.42-4.19l93.56,2.4c2.38.07,4.26,2.04,4.2,4.42Z"/>
    <path class="st4" d="M660.67,204.78c-.02-.72-.2-1.43-.53-2.08-.42-.77-1.07-1.4-1.86-1.79-.49-.26-1.03-.41-1.59-.45-.58,0-1.23,0-1.91-.05l-22.92-.56-34.04-.82-20.1-.51-10.65-.23-2.71-.06c-.88-.08-1.77-.05-2.64.1-2.17.58-3.46,2.8-2.88,4.97.36,1.33,1.36,2.4,2.68,2.82.86.2,1.75.28,2.63.24l2.71.06,10.64.28,20.1.54,34.04.93,22.95.66c.68,0,1.32.06,1.91.06.55-.02,1.1-.14,1.6-.37.8-.36,1.46-.95,1.91-1.7.36-.62.58-1.32.64-2.04.01.18.01.37,0,.55-.07.55-.25,1.07-.52,1.55-.45.78-1.13,1.4-1.95,1.77-.52.24-1.08.38-1.65.4h-1.93l-22.95-.52-34.04-.83-20.11-.5-10.63-.27-2.71-.06h-1.36c-.48,0-.96-.09-1.42-.23-2.39-.78-3.69-3.35-2.91-5.73.48-1.46,1.66-2.58,3.14-2.98.47-.13.95-.18,1.43-.16h1.36l2.71.06,10.63.28,20.1.54,34.04.93,22.95.67c.68,0,1.31,0,1.92.06.57.06,1.12.22,1.63.49.8.41,1.45,1.06,1.86,1.86.25.49.4,1.02.45,1.57,0,.19,0,.37-.03.56h.01Z"/>
    <polygon class="st4" points="660.06 205.91 664.87 208.34 664.51 222.25 659.57 225.02 660.06 205.91"/>
    <path class="st11" d="M603.38,215.69l-10.61-16.37h0l-.93-1.47h0l-1.43-2.21,6.23-25.41s5.33,2.45,8.27,6.49c2.42,3.71,4.59,7.59,6.49,11.6,0,0,10.39,23.77,12.06,27.31s4.47,10.12,0,13.79-34.32,3.8-34.32,3.8l-2.01-15.02,16.25-2.52h0Z"/>
    <path class="st4" d="M590.26,192.96c.08,0-.15-1.11-.25-2.91-.25-4.7.94-9.36,3.41-13.36.93-1.53,1.67-2.38,1.61-2.43s-.22.18-.57.56c-.48.53-.92,1.1-1.32,1.71-1.33,1.98-2.31,4.18-2.89,6.49-.58,2.31-.78,4.7-.57,7.08.06.72.18,1.43.34,2.12.04.26.11.51.22.74h.02Z"/>
    <path class="st1" d="M583.67,221.02c-.63-1.36-1.54-2.56-2.68-3.53-1.96-1.7-6.25-3.01-6.81-4.64s-2.19-.37-1.81,1.66c.24,1.29,2.9,4.64,2.9,4.64,0,0-3.12.79-5.2-.41s-9.36-3.36-10.14-2.34,1.03,1.54,1.86,2c.62.35,5.46,2.78,5.46,2.78,0,0-9.63-.32-10.84.13s0,1.67.64,1.69c.38,0,2.03,1.49,3.2,2.58.79.74,1.83,1.16,2.91,1.18h2.24l-6.8.71s-1.18,1.08.45,1.63c.73.25,19.58,1.96,21.18,1.86,3.63-.12,8.68-.37,8.68-.37l-.93-10.2-4.32.63h.01Z"/>
    <path class="st5" d="M556.87,223.1c1.44.71,2.99,1.18,4.58,1.39,1.57.36,3.18.45,4.78.28,0-.13-2.12-.25-4.7-.71s-4.66-1.08-4.66-.96h0Z"/>
    <g class="st10">
      <path d="M485.76,211.29c1.86-.41,3.65.77,5.17,1.86.97.68,1.88,1.43,2.74,2.24,2.35,2.35,3.58,5.57,5.57,8.24l-11.13-1.7-2.34-10.63h-.01Z"/>
    </g>
    <path class="st1" d="M502.75,224.11l-4.85-1.01s-4.36-6.96-6.65-7.8l-1.29-.57s-1.69-3.71-3.97-3.22c-1.36-.93-2.58-.54-2.71.82,0,0-.68-3.09-3.21-1.86s3.5,11.97,3.5,11.97c0,0,2.11,5.48,4.74,3.65,0,0,2.62.61,4.38-.37,0,0,1.62,2.29,5.46.55l4.6-2.16Z"/>
    <path class="st5" d="M492.2,224.48c-.05.17-.05.35,0,.52.09.47.32.91.67,1.24.51.52,1.19.84,1.91.93.85.07,1.71-.02,2.52-.28,1.47-.42,2.87-1.04,4.17-1.86.56-.29,1.06-.69,1.48-1.16-1.82,1.06-3.75,1.92-5.76,2.55-.76.24-1.57.34-2.37.3-.64-.05-1.25-.3-1.73-.71-.46-.4-.77-.94-.89-1.53Z"/>
    <path class="st5" d="M487.57,222.02c.11-.07-1.35-2.17-2.6-5.04s-1.86-5.35-1.96-5.32c0,.56.08,1.12.25,1.66.32,1.31.76,2.6,1.3,3.84.54,1.24,1.19,2.43,1.95,3.55.28.49.63.93,1.06,1.31Z"/>
    <path class="st5" d="M490.34,221.79c.12-.06-1.11-2.25-2.31-5.08s-1.92-5.23-2.04-5.19c.71,3.69,2.2,7.19,4.35,10.28h0Z"/>
    <path class="st5" d="M486.62,224.26c-.12,0,0,.93.77,1.55s1.68.61,1.66.49-.71-.27-1.37-.83-.94-1.24-1.06-1.21Z"/>
    <path class="st5" d="M493.36,220.26c-.44-.94-.97-1.85-1.57-2.7-.48-.93-1.05-1.81-1.69-2.64.64,2.02,1.75,3.85,3.26,5.34h0Z"/>
  </g>
  <g>
    <path d="M158.21,119.18l1.39-.28c.13.46.34.79.62.98s.64.27,1.08.23c.46-.05.8-.18,1.02-.4s.31-.46.28-.72c-.02-.17-.08-.31-.19-.42s-.29-.19-.55-.26c-.17-.04-.57-.11-1.18-.2-.79-.11-1.35-.3-1.69-.54-.48-.35-.74-.8-.8-1.37-.04-.36.03-.71.21-1.05s.45-.61.82-.81.83-.33,1.38-.39c.89-.09,1.59.04,2.08.39s.78.85.87,1.5l-1.43.21c-.1-.36-.26-.61-.47-.75s-.53-.19-.93-.15-.74.16-.96.36c-.14.13-.2.28-.18.46.02.17.1.31.26.41.2.13.65.25,1.37.34s1.25.21,1.6.36.64.36.86.65.35.66.4,1.11c.04.41-.03.8-.23,1.18s-.49.68-.88.89-.91.35-1.52.41c-.9.09-1.61-.05-2.14-.42s-.87-.95-1.05-1.73Z"/>
    <path d="M167.05,120.64l-.59-5.92-2.11.21-.12-1.2,5.66-.56.12,1.2-2.11.21.59,5.92-1.44.14Z"/>
    <path d="M177.21,119.62l-1.56.16-.78-1.56-2.85.28-.43,1.68-1.53.15,2.06-7.4,1.52-.15,3.56,6.84ZM174.28,117.07l-1.24-2.55-.7,2.74,1.94-.19Z"/>
    <path d="M177.98,119.55l-.71-7.12,4.88-.49.12,1.2-3.44.34.17,1.69,2.97-.3.12,1.2-2.97.3.3,3.03-1.44.14Z"/>
    <path d="M184.06,118.94l-.71-7.12,4.88-.49.12,1.2-3.44.34.17,1.69,2.97-.3.12,1.2-2.97.3.3,3.03-1.44.14Z"/>
    <path d="M197.19,114.99l1.44.3c-.14.8-.43,1.41-.89,1.84s-1.07.68-1.84.75c-.95.09-1.76-.15-2.43-.74s-1.07-1.44-1.18-2.56c-.12-1.19.1-2.14.64-2.85s1.32-1.13,2.32-1.22c.87-.09,1.6.1,2.2.56.35.27.64.69.86,1.24l-1.39.48c-.12-.36-.33-.63-.61-.82s-.62-.26-1.01-.22c-.53.05-.94.28-1.23.7s-.39,1.04-.31,1.89c.09.9.32,1.53.68,1.88s.8.5,1.32.45c.38-.04.7-.19.95-.46s.41-.67.48-1.21Z"/>
    <path d="M199.43,113.86c-.07-.73-.02-1.35.14-1.86.13-.38.31-.73.57-1.04s.54-.56.86-.73c.42-.23.93-.38,1.51-.43,1.05-.1,1.92.14,2.62.73s1.1,1.46,1.22,2.62-.11,2.08-.67,2.79-1.36,1.12-2.41,1.22-1.93-.13-2.62-.72-1.09-1.44-1.2-2.58ZM200.91,113.66c.08.81.33,1.4.74,1.78s.91.54,1.48.48,1.02-.31,1.35-.76.45-1.09.37-1.91-.32-1.41-.72-1.77-.89-.52-1.49-.46-1.05.31-1.37.75-.44,1.07-.36,1.89Z"/>
    <path d="M207.83,116.57l-.71-7.12,1.4-.14,3.39,4.47-.47-4.76,1.34-.13.71,7.12-1.44.14-3.33-4.36.46,4.64-1.34.13Z"/>
    <path d="M216.61,115.7l-.59-5.92-2.11.21-.12-1.2,5.66-.56.12,1.2-2.11.21.59,5.92-1.44.14Z"/>
    <path d="M221.08,115.25l-.71-7.12,3.03-.3c.76-.08,1.32-.07,1.68.03s.66.29.9.6.38.67.42,1.09c.05.53-.06.99-.34,1.37s-.73.65-1.34.8c.33.15.61.32.83.52s.54.56.93,1.07l1.01,1.3-1.72.17-1.19-1.45c-.42-.52-.71-.84-.86-.97s-.3-.21-.46-.25-.4-.04-.73,0l-.29.03.3,2.97-1.44.14ZM222.11,111l1.06-.11c.69-.07,1.12-.14,1.28-.22s.29-.19.37-.34.11-.34.09-.55c-.02-.24-.11-.43-.25-.56s-.33-.21-.57-.23c-.12,0-.47.02-1.05.08l-1.12.11.18,1.81Z"/>
    <path d="M234.69,113.89l-1.56.16-.78-1.56-2.85.28-.43,1.68-1.53.15,2.06-7.4,1.52-.15,3.56,6.84ZM231.76,111.34l-1.24-2.55-.7,2.74,1.94-.19Z"/>
    <path d="M239.75,110.74l1.44.3c-.14.8-.43,1.41-.89,1.84s-1.07.68-1.84.75c-.95.09-1.76-.15-2.43-.74s-1.07-1.44-1.18-2.56c-.12-1.19.1-2.14.64-2.85s1.32-1.13,2.32-1.22c.87-.09,1.6.1,2.2.56.35.27.64.69.86,1.24l-1.39.48c-.12-.36-.33-.63-.61-.82s-.62-.26-1.01-.22c-.53.05-.94.28-1.23.7s-.39,1.04-.31,1.89c.09.9.32,1.53.68,1.88s.8.5,1.32.45c.38-.04.7-.19.95-.46s.41-.67.48-1.21Z"/>
    <path d="M244.24,112.94l-.59-5.92-2.11.21-.12-1.2,5.66-.56.12,1.2-2.11.21.59,5.92-1.44.14Z"/>
  </g>
</svg>