<?xml version="1.0" encoding="UTF-8"?>
<svg id="Layer_1" xmlns="http://www.w3.org/2000/svg" version="1.1" viewBox="0 0 750 500">
  <!-- Generator: Adobe Illustrator 29.7.1, SVG Export Plug-In . SVG Version: 2.1.1 Build 8)  -->
  <defs>
    <style>
      .st0 {
        fill: #e0e0e0;
      }

      .st1 {
        fill: #439288;
      }

      .st2 {
        fill: #ebebeb;
      }

      .st3 {
        fill: #263238;
      }

      .st4 {
        fill: #fafafa;
      }

      .st5 {
        opacity: .3;
      }

      .st6 {
        fill: #ffbf9d;
      }

      .st7 {
        fill: #f5f5f5;
      }

      .st8 {
        fill: #455a64;
      }

      .st9 {
        fill: #ff9a6c;
      }
    </style>
  </defs>
  <g id="freepik--background-complete--inject-128">
    <rect class="st4" x="190.8" y="52.29" width="192.63" height="172.34"/>
    <path class="st0" d="M383.42,224.62s0-1.11-.04-3.19,0-5.21,0-9.24c0-8.09-.07-19.92-.13-34.98-.04-30.11-.14-73.14-.22-124.92l.44.44-192.67.08h0l.51-.51c0,62.7,0,121.7-.06,172.33l-.45-.44,139.32.22,39.29.13,10.41.06h3.61-3.5l-10.31.06-39.19.13-139.63.32h-.45v-.45c0-50.63,0-109.63-.07-172.33v-.52h.52l192.62.08h.44v.44c-.08,51.89-.17,95.02-.22,125.2,0,15.02-.08,26.82-.11,34.9,0,3.99,0,7.05-.04,9.15s-.03,3.1-.03,3.1h0v-.04h-.01Z"/>
    <path class="st0" d="M264.65,82.91c0,.28-10.14.51-22.65.51s-22.65-.24-22.65-.51,10.14-.52,22.65-.52,22.65.24,22.65.52Z"/>
    <path class="st0" d="M346.29,95.84c0,.28-27.86.52-62.21.52s-62.21-.24-62.21-.52,27.86-.51,62.21-.51,62.21.24,62.21.51Z"/>
    <rect class="st0" x="219.7" y="117.77" width="8.12" height="8.12"/>
    <rect class="st0" x="239.67" y="117.77" width="8.12" height="8.12"/>
    <rect class="st0" x="260.02" y="117.39" width="8.12" height="8.12"/>
    <rect class="st0" x="279.63" y="117.77" width="8.12" height="8.12"/>
    <rect class="st0" x="299.6" y="117.77" width="8.12" height="8.12"/>
    <rect class="st0" x="319.58" y="117.77" width="8.12" height="8.12"/>
    <rect class="st2" x="339.54" y="117.77" width="8.12" height="8.12"/>
    <rect class="st2" x="219.7" y="135.02" width="8.12" height="8.12"/>
    <rect class="st0" x="239.67" y="135.02" width="8.12" height="8.12"/>
    <rect class="st2" x="259.65" y="135.02" width="8.12" height="8.12"/>
    <rect class="st0" x="279.63" y="135.02" width="8.12" height="8.12"/>
    <rect class="st0" x="299.6" y="135.02" width="8.12" height="8.12"/>
    <rect class="st0" x="319.96" y="134.65" width="8.12" height="8.12"/>
    <rect class="st0" x="339.54" y="135.02" width="8.12" height="8.12"/>
    <rect class="st0" x="219.7" y="152.27" width="8.12" height="8.12"/>
    <rect class="st0" x="240.04" y="151.9" width="8.12" height="8.12"/>
    <rect class="st0" x="259.65" y="152.27" width="8.12" height="8.12"/>
    <rect class="st2" x="279.63" y="152.27" width="8.12" height="8.12"/>
    <rect class="st0" x="299.6" y="152.27" width="8.12" height="8.12"/>
    <rect class="st0" x="319.58" y="152.27" width="8.12" height="8.12"/>
    <rect class="st0" x="339.54" y="152.27" width="8.12" height="8.12"/>
    <rect class="st0" x="219.7" y="169.52" width="8.12" height="8.12"/>
    <rect class="st0" x="239.67" y="169.52" width="8.12" height="8.12"/>
    <rect class="st0" x="259.65" y="169.52" width="8.12" height="8.12"/>
    <rect class="st0" x="279.99" y="169.16" width="8.12" height="8.12"/>
    <rect class="st0" x="299.6" y="169.52" width="8.12" height="8.12"/>
    <rect class="st2" x="319.58" y="169.52" width="8.12" height="8.12"/>
    <rect class="st0" x="339.54" y="169.52" width="8.12" height="8.12"/>
    <rect class="st0" x="219.7" y="186.79" width="8.12" height="8.12"/>
    <rect class="st2" x="239.67" y="186.79" width="8.12" height="8.12"/>
    <rect class="st0" x="259.65" y="186.79" width="8.12" height="8.12"/>
    <rect class="st0" x="279.63" y="186.79" width="8.12" height="8.12"/>
    <rect class="st0" x="299.6" y="186.79" width="8.12" height="8.12"/>
    <rect class="st0" x="319.96" y="186.41" width="8.12" height="8.12"/>
    <rect class="st0" x="339.54" y="186.79" width="8.12" height="8.12"/>
    <path class="st2" d="M553.06,283.94c8.6-4.43,18.68-5,28.24-3.43,5.11.84,10.45,2.37,13.92,6.22,3.48,3.84,4.14,10.62.14,13.92-2.39,1.97-5.72,2.28-8.79,2.22-7.43-.08-15.75-1.4-21.7,3.09-3.4,2.56-5.68,6.83-9.74,8.08s-8.47-1.12-10.58-4.71-2.16-8.08-1.19-12.12c.98-5.7,4.58-10.62,9.69-13.29h.03-.01Z"/>
    <path class="st2" d="M533.4,245.97c5.25,7.5,15.45,5.02,20.19.44s6.72-11.21,8.54-17.53c4.16-14.44,8.36-29.61,5.27-44.31-.93-4.4-2.57-8.79-5.68-12.07-3.09-3.27-7.85-5.21-12.19-4.06-5.16,1.35-8.36,6.41-10.65,11.14-6.81,14.15-10.38,29.64-10.45,45.33,0,7.31.83,14.96,4.96,20.99"/>
    <path class="st2" d="M519,256.76c5.7-6.76,6.77-16.63,4.24-25.06-2.53-8.43-8.26-15.68-14.86-21.55-7.77-6.93-16.82-12.25-26.62-15.71-3.84-1.35-7.91-2.43-11.97-2.04s-8.15,2.46-10.04,6.07c-2.8,5.35-.13,11.83,2.8,17.11,5.11,9.33,10.96,18.22,17.48,26.62,5.25,6.76,11.25,13.43,19.25,16.48,7.99,3.06,16.28,2.68,20.52-2.85"/>
    <path class="st0" d="M533.04,359.06c.28-1.12.44-2.26.48-3.41.24-2.49.55-5.56.93-9.29.46-4.58,1.18-9.12,2.11-13.63,1.22-5.49,2.87-10.87,4.94-16.09,2.04-5.21,4.8-10.13,8.22-14.57,2.78-3.61,6.32-6.56,10.4-8.64,2.75-1.36,5.7-2.28,8.75-2.74,1.14-.04,2.28-.2,3.39-.49-1.14-.14-2.3-.17-3.46-.06-3.16.24-6.25,1.05-9.12,2.37-4.28,2.01-8.04,4.99-10.96,8.71-3.55,4.51-6.42,9.51-8.51,14.86-2.11,5.3-3.76,10.78-4.92,16.37-.9,4.55-1.53,9.16-1.87,13.78-.3,3.95-.41,7.14-.46,9.36-.08,1.15-.04,2.3.11,3.44h-.03Z"/>
    <path class="st0" d="M533.69,351.91c.08-.52.13-1.05.08-1.59v-4.52c0-3.92,0-9.59.2-16.61.34-14.02,1.55-29.11,3.89-50.38,2.21-20,5.17-43.27,8.29-58.41.67-3.44,1.35-6.5,1.98-9.29s1.12-5.06,1.63-6.97.77-3.25,1.05-4.4c.15-.51.25-1.03.28-1.56-.24.48-.42.97-.55,1.49l-1.31,4.33c-.59,1.85-1.18,4.2-1.85,6.93s-1.45,5.79-2.18,9.23c-3.89,17.9-6.79,36.01-8.72,54.2-2.33,21.31-3.39,40.73-3.48,54.77-.08,7.02.07,12.71.24,16.65.13,1.85.2,3.32.28,4.52,0,.55.04,1.07.17,1.59h0Z"/>
    <path class="st0" d="M533.77,314.48c.13-1.57.13-3.16,0-4.73-.27-4.28-.74-8.56-1.43-12.8-1.04-6.29-2.43-12.52-4.16-18.63-2.04-7.54-4.64-14.91-7.8-22.06-6.5-15.34-15.24-27.86-22.88-35.65-1.7-1.78-3.48-3.46-5.38-5-.83-.7-1.55-1.39-2.29-1.94l-2.09-1.43c-1.26-.96-2.58-1.81-3.99-2.56-.22.31,5.63,3.76,12.99,11.62,7.36,7.85,15.9,20.3,22.28,35.51,3.1,7.11,5.73,14.4,7.87,21.85,1.8,6.07,3.26,12.24,4.43,18.46.97,5.31,1.53,9.65,1.85,12.67.08,1.57.28,3.13.6,4.68h0Z"/>
    <polygon class="st0" points="497.6 380.51 501.34 431.9 567.35 431.9 571.12 380.51 497.6 380.51"/>
    <rect class="st0" x="491.21" y="360.25" width="87.77" height="20.26"/>
    <polygon class="st2" points="491.21 429.92 491.21 435.54 495.34 435.54 577.55 435.54 577.55 429.92 491.21 429.92"/>
    <polygon class="st0" points="499.38 445.43 495.34 435.54 574.4 435.54 569.68 445.43 499.38 445.43"/>
    <path class="st7" d="M569.89,397.3s-.08.18-.31.48l-.98,1.31-3.84,4.92-.18.22-.17-.24-9.44-13.06h.55l-9.29,13.16-.3.42-.32-.39-11.03-13.14h.63l-.6.76c-3.43,4.28-6.73,8.44-9.88,12.36l-.32.42-.31-.44c-3.34-4.75-6.5-9.17-9.29-13.18h.55l-11.46,13.06-.2.24-.15-.27c-1.52-2.53-2.71-4.57-3.58-6.03l-.93-1.6c-.13-.18-.21-.38-.28-.58.14.15.28.32.39.51.25.41.6.93,1.01,1.55l3.76,5.91h-.37l11.28-13.23.28-.32.25.35,9.4,13.11h-.63l9.85-12.39.6-.76.32-.39.32.38,11,13.15h-.6l9.4-13.09.27-.38.27.38,9.29,13.21h-.34l4-4.8,1.07-1.24c.1-.14.21-.28.34-.41h0l-.03.03h-.01Z"/>
    <path class="st7" d="M572.03,380.17c0,.22-16.53.41-36.95.41s-36.95-.18-36.95-.41,16.55-.41,36.95-.41,36.95.18,36.95.41Z"/>
    <path class="st7" d="M575.36,436.1c0,.22-17.98.41-40.15.41s-40.15-.18-40.15-.41,17.98-.42,40.15-.42,40.15.18,40.15.42Z"/>
  </g>
  <g id="freepik--Character--inject-108">
    <path class="st3" d="M233.31,201.8c2.49-2.14,6-2.74,8.53-4.8s3.71-5.44,3.89-8.7c0-3.27-.46-6.53-1.42-9.67l27.01,33.9c-2.15,3.71-4.47,7.5-7.81,10.21s-8.02,4.16-12.07,2.68-6.8-6.5-4.93-10.35c-3.62,3.37-9.93,3.43-13.47,0s-3.48-10.04.28-13.26h-.01Z"/>
    <path class="st3" d="M311.36,102.75c6.55,4.79,7.63,9.55,7.9,12.07.08.76-.06,1.7-.77,1.92-.35.08-.73.04-1.07-.08l-21.9-6.66"/>
    <path class="st3" d="M250.82,188.23c-4.92-8.84-9.83-17.76-13.16-27.31-3.33-9.55-5.04-19.86-3.43-29.84.24-1.53,2.85-11.87,4.38-12.01,1.08-.1.08,9.29.8,10.1,6.93,7.85,10.42,18.25,11.6,28.64,1.07,10.11,1.01,20.34-.2,30.43"/>
    <path class="st6" d="M261.22,241.95l-18.85-91.43c-5.72-24.72,3.93-48.68,28.78-53.71l2.33-.32c23.42-3.33,45.46,11.88,50.64,34.97,4.83,21.47,9.89,45.25,11.41,56.91,3.12,24.15-20.43,31.33-20.43,31.33,0,0,4.41,24.37,5.72,31.41l-36.44,4.64-8.78.79-14.39-14.6h0Z"/>
    <path class="st9" d="M315.1,219.7s-15.07,3.06-32.72-4.83c0,0,10.11,17.07,33.87,11.48l-1.17-6.64h.01Z"/>
    <path class="st3" d="M319.74,154.95c.28,1.85-.96,3.6-2.8,3.95-1.8.39-3.57-.72-3.98-2.5,0-.03,0-.06-.03-.08-.28-1.85.96-3.6,2.8-3.95,1.8-.39,3.57.72,3.98,2.51,0,.03,0,.07.03.08h0Z"/>
    <path class="st3" d="M320.55,142.89c-.37.51-3.25-1.05-6.94-.51s-6.15,2.8-6.63,2.37c-.22-.18.08-1.05,1.17-2.08,1.45-1.33,3.27-2.19,5.23-2.44,1.91-.28,3.86.03,5.56.93,1.29.7,1.81,1.46,1.62,1.74h0Z"/>
    <path class="st3" d="M287.79,159.49c.28,1.85-.96,3.6-2.8,3.95-1.81.39-3.58-.73-3.98-2.53,0-.03,0-.06-.03-.08-.28-1.87.97-3.61,2.84-3.95,1.81-.38,3.57.77,3.95,2.58v.03h.01Z"/>
    <path class="st3" d="M284.35,148.86c-.37.51-3.25-1.05-6.95-.52s-6.15,2.8-6.62,2.37c-.24-.17.08-1.04,1.15-2.07,1.45-1.33,3.27-2.21,5.23-2.46,1.91-.28,3.86.03,5.56.93,1.29.76,1.81,1.52,1.63,1.76h0Z"/>
    <path class="st3" d="M301.67,175.45c-.04-.21,2.21-.93,5.86-1.94.93-.24,1.81-.55,1.85-1.22s-.42-1.69-1.03-2.71l-3.82-6.83c-5.34-9.71-9.36-17.74-8.95-17.95s5.03,7.49,10.4,17.2l3.71,6.87c.51,1.01,1.29,2.16,1.01,3.64-.18.72-.69,1.31-1.36,1.6-.49.21-1.03.38-1.57.45-3.72.73-6.05,1.07-6.08.87h0v.03h-.01Z"/>
    <path class="st3" d="M283.9,137.1c-.38,1.01-4.1.53-8.49,1.07s-7.95,1.73-8.54.81c-.25-.44.37-1.39,1.8-2.37,3.89-2.46,8.68-2.98,12.99-1.42,1.59.66,2.39,1.45,2.23,1.92h0Z"/>
    <path class="st3" d="M320.17,136.76c-.63.93-3.78.56-7.43,1.1s-6.6,1.62-7.43.84c-.38-.38,0-1.29,1.18-2.3,3.46-2.53,7.97-3.13,11.96-1.56,1.43.66,1.98,1.46,1.7,1.92h.03Z"/>
    <path class="st6" d="M246.88,168.12c-.44-.13-17.27-2.56-14.4,13.87,2.85,16.42,18.78,10.11,18.7,9.68s-4.3-23.53-4.3-23.53h0Z"/>
    <path class="st9" d="M245.08,186.32c-.08-.04-.25.25-.7.55-.63.41-1.39.55-2.12.41-1.85-.32-3.78-2.84-4.38-5.77-.28-1.4-.25-2.85.08-4.23.14-1.1.8-2.05,1.77-2.56.66-.32,1.43-.13,1.85.49.31.44.25.77.34.77s.31-.34.06-1c-.15-.39-.45-.72-.83-.93-.51-.25-1.11-.32-1.64-.14-1.25.31-2.18,1.67-2.54,3.06-.44,1.53-.51,3.17-.18,4.75.67,3.29,2.91,6.08,5.41,6.36.96.08,1.87-.25,2.53-.93.41-.44.44-.81.37-.83h0Z"/>
    <path class="st3" d="M308.58,106.26c2.39-1.95-7.15-9.08-14.22-10.85-10.68-2.68-26.21-2.68-34.83,1.59-10.37,5.11-18.45,12.22-22.11,23.22s-3.6,22.94-1.18,34.24c.73,3.46,1.76,7,4.14,9.58,2.95,3.2,6.55,4.4,8.49,9.71.63,1.76,1.12,3.58,2.61,4.69,3.58,2.64,6.7-1.03,7.84-4.34,2.43-7.08,1.42-14.86.38-22.22-.73-5.27-1.5-10.65-3.89-15.4-1.29-2.58-3.06-4.93-4.21-7.59s-1.64-5.82-.34-8.36c.31-.55.66-1.1,1.07-1.59,3.91-4.92,10.16-7.33,16.38-6.35,9.82,1.57,26.48,3.54,30.02-.34,5.1-5.56,5.97-8.79,5.97-8.79l3.89,2.78h-.03.01Z"/>
    <path class="st3" d="M290.56,179.85c.55-.14,1.28,3.62,4.99,5.68s7.64.93,7.77,1.4c.08.22-.76.93-2.44,1.26-2.19.46-4.47.14-6.45-.93-1.88-1.03-3.32-2.74-3.95-4.8-.44-1.59-.24-2.6.07-2.63h.01Z"/>
    <path class="st8" d="M235.38,169.52c-.37-.22-.83-.2-1.18-.44-22.74-14.86-10.62-35.43-11.37-40.92-1.05-7.63-8.36,3.6-11.31-6.15-3.98-12.92,9.08-21.16,25.36-30.01,6.83-3.71,24.5-7.7,40.73-7.29,14.47.38,25.58,8.56,32.25,15.21,0,0,3.54.98,4.58,2.28,3.27,4.1,2.5,6.17,2.5,6.17,0,0-33.72-10.35-55.7,15.4-21.99,25.75-13.92,43.03-20.74,44.5l-5.14,1.25h.01Z"/>
    <path class="st3" d="M244.63,102.19c-.39.3-.81.58-1.25.81-.42.25-.93.55-1.48.93s-1.24.8-1.85,1.33c-1.64,1.18-3.19,2.49-4.64,3.86-1.76,1.7-3.41,3.54-4.92,5.49-1.48,1.97-2.8,4.05-3.99,6.18-.96,1.77-1.78,3.6-2.5,5.48-.34.8-.55,1.53-.77,2.18s-.39,1.21-.52,1.67c-.11.49-.27.97-.46,1.43.06-.49.14-1,.28-1.48.1-.48.24-1.05.44-1.7s.39-1.42.72-2.22c.66-1.91,1.49-3.78,2.43-5.56,2.3-4.41,5.34-8.4,8.98-11.8,1.49-1.39,3.06-2.67,4.73-3.82.7-.51,1.38-.93,1.95-1.28s1.1-.66,1.53-.93c.44-.24.87-.44,1.33-.59h-.03.01Z"/>
    <path class="st3" d="M310.77,100.18c-.1,0-.2-.03-.31-.06l-.93-.18c-.77-.18-1.92-.41-3.43-.7s-3.32-.55-5.45-.76c-2.42-.25-4.85-.34-7.28-.27-6.34.17-12.59,1.39-18.52,3.61-3.48,1.29-6.83,2.92-10,4.85-3.43,2.08-6.62,4.52-9.55,7.23-2.92,2.74-5.55,5.79-7.82,9.08-2.09,3.09-3.89,6.38-5.37,9.81-2.44,5.84-4.21,11.94-5.25,18.19-.93,5.32-1.33,9.69-1.59,12.7-.13,1.49-.21,2.66-.28,3.48,0,.38-.07.66-.08.93v.31c-.03-.1-.03-.2,0-.31v-.93c0-.8.08-1.97.18-3.48.21-3.02.56-7.43,1.46-12.76,1-6.27,2.74-12.4,5.16-18.26,1.48-3.47,3.27-6.76,5.38-9.89,2.29-3.33,4.93-6.41,7.88-9.17,5.72-5.34,12.45-9.47,19.78-12.18,5.98-2.22,12.29-3.43,18.67-3.54,2.44-.04,4.87.07,7.31.34,2.15.22,3.98.55,5.46.83s2.63.58,3.4.79l.87.24c.1,0,.2.03.3.08h0v.03Z"/>
    <path class="st3" d="M244.44,159.48c-1.45.55-3.02.66-4.52.27-1.53-.21-2.96-.9-4.1-1.94,1.35.6,2.74,1.11,4.19,1.46,1.46.2,2.95.27,4.44.2h0Z"/>
    <path class="st3" d="M250.39,143.38c-.59.08-1.18.08-1.76-.07-1.4-.24-2.75-.69-4-1.36-1.25-.66-2.39-1.53-3.37-2.58-.44-.39-.77-.89-1.01-1.42,2.68,2.91,6.25,4.82,10.16,5.44h-.01Z"/>
    <path class="st3" d="M261.96,122.75c-1.19-1.4-2.49-2.74-3.88-3.98-1.48-1.12-3.02-2.11-4.64-3.02,1.84.48,3.54,1.39,4.97,2.64,1.52,1.14,2.74,2.64,3.54,4.34h0Z"/>
    <path class="st3" d="M275.44,112.58c-.7-1.53-1.49-3.03-2.37-4.48-1.01-1.35-2.09-2.66-3.23-3.89,2.89,1.94,4.89,4.94,5.56,8.36l.03.03h.01Z"/>
    <path class="st3" d="M297.53,107.05c-.07-1.7-.44-3.36-1.1-4.9-.79-1.49-1.85-2.81-3.13-3.91,0-.06.58.18,1.32.77,1.91,1.63,3.06,4,3.12,6.5.06.52,0,1.05-.2,1.53h-.01Z"/>
    <path class="st3" d="M311.6,107.79c-.03-1.31-.11-2.63-.28-3.93-.34-1.26-.76-2.5-1.24-3.71,1.74,2.14,2.32,4.99,1.53,7.64h-.01Z"/>
    <path class="st9" d="M290.54,255.85s0-.72-.04-2.04c-.08-1.85-.32-3.68-.74-5.49-.63-2.68-1.48-5.3-2.54-7.82-1.18-2.88-2.67-5.96-4.14-9.29-1.38-2.94-2.51-5.98-3.43-9.09v-.18l.15-.08c1.97-1.01,3.71-2.44,5.1-4.19l.08-.13.14.08c1.45.8,3.08,1.22,4.73,1.21h.08v.08c.55.97,1.19,1.9,1.94,2.74.51.6.81.93.8.93s-.08-.06-.25-.18-.38-.34-.66-.62c-.8-.81-1.49-1.71-2.07-2.7l.13.08c-1.71.04-3.41-.35-4.92-1.17h.24c-1.39,1.81-3.16,3.29-5.18,4.35l.11-.25c.93,3.08,2.08,6.08,3.43,9,1.48,3.27,2.96,6.36,4.12,9.29,1.07,2.56,1.88,5.21,2.47,7.91.39,1.83.59,3.69.6,5.56,0,.51-.03,1.01-.07,1.53,0,.17-.03.32-.08.49h0v-.03h0Z"/>
    <path class="st1" d="M216.59,258.18l37.85-22.72s29.36,19.34,48.51,12.25c12.92-4.78,12.92-22.28,12.92-22.28l37.19.14,32.92,100.77,8.43,120.6h-164.7l-6.64-141.56-6.48-47.19h.01Z"/>
    <g class="st5">
      <path d="M228.18,417.36c11.51,9.75,26.54,14.54,41.53,16.09,14.99,1.55,30.11.08,45.11-1.38,25.9-2.53,52.34-1.85,78.25-4.34-.73-6.5-1.39-22.65-2.11-29.11l-162.76,11.67v7.07h-.01Z"/>
    </g>
    <path class="st6" d="M214.7,368.63s-3.57-1.71-5.32.07c-1.24,1.33-2.25,2.84-3.05,4.47,0,0-5.73-1.71-8.11,3.03,0,0-4.28,2.7-1.76,8.02,0,0-4.58,6.39-.93,11.91.41.66.91,1.26,1.49,1.77,0,0,1.71,6.66,4,7.77s10.48,3.61,10.76-.14-1.18-3.41-1.18-3.41c0,0,9.69,5.25,13.96,9.12,4.27,3.86,15.57,9.58,22.52,9.57,6.95-.03,3.99-14.96,3.99-14.96l-36.4-37.19h0v-.03h.01Z"/>
    <path class="st6" d="M369.92,297.75c-.45,2.28-.83,14.54-.83,14.54l8.04,50.8c-15.86,3.29-93.77,19.08-93.77,19.08l-7.28,38.31s122.56-2.28,136.23-15c13.67-12.74,6.73-64.26,6.73-69.27s-3.37-38.13-3.37-38.13l-45.74-.34h0Z"/>
    <path class="st9" d="M199.51,384.99c.44.14.84.28,1.24.49l3.32,1.52,4.9,2.29,1.4.66.73.34c.31.13.56.34.72.65.08.18.08.41,0,.6-.08.17-.21.32-.38.41-.28.17-.6.25-.93.28-.6.08-1.18.1-1.78.07-2.4-.15-4.54-.93-6.5-1.24-.91-.2-1.87-.2-2.8,0-.79.21-1.46.72-1.85,1.43-.56,1.07-.81,2.25-.72,3.44.03.44.03.9,0,1.33-.13-.44-.18-.89-.2-1.33-.15-1.24.06-2.5.62-3.62.44-.79,1.14-1.39,2.01-1.64.97-.22,1.98-.22,2.96,0,2.04.31,4.17,1.07,6.5,1.21.56.03,1.12.03,1.7-.06.53,0,1.07-.32.93-.62s-.77-.51-1.24-.76l-1.4-.69-4.87-2.44-3.26-1.64c-.39-.18-.77-.41-1.12-.66h.03Z"/>
    <path class="st9" d="M214.88,382.18c-.79-.38-1.57-.81-2.32-1.28-3.71-2.07-7.74-3.5-11.93-4.23-.87-.11-1.76-.27-2.6-.48.9-.07,1.78-.03,2.66.14,2.12.28,4.23.77,6.25,1.49s3.96,1.64,5.79,2.8c.77.44,1.5.96,2.15,1.57h0Z"/>
    <path class="st9" d="M213.94,375.59c-1.29-.38-2.56-.84-3.76-1.42-.87-.34-1.77-.62-2.68-.81-.39-.03-.77-.13-1.15-.25,0-.07.45-.15,1.21-.08.96.1,1.9.34,2.8.7,1.29.44,2.51,1.07,3.62,1.87h-.03Z"/>
    <path class="st9" d="M211.42,402.51c-.55.08-1.12.06-1.69-.08-1.33-.22-2.64-.6-3.89-1.12-1.25-.49-2.47-1.07-3.65-1.71-.52-.24-1-.55-1.42-.93.08-.14,2.36.98,5.25,2.16,1.24.49,2.5.9,3.78,1.24.55.1,1.1.25,1.62.44h0Z"/>
    <path class="st9" d="M205.05,400.5c.13,0-.1.93-.93,1.74s-1.76.93-1.8.81.73-.48,1.46-1.18,1.12-1.43,1.25-1.39h.01Z"/>
    <path class="st1" d="M352.06,225.52s28.95-1.18,43.72,19.15c14.3,19.71,25.54,60.69,25.54,60.69l-55.28,7.36-8.19-53.3-5.79-33.93h0v.03Z"/>
    <path class="st9" d="M398.62,386.37c-.08,0-.48-1.81-1.62-4.58-.31-.76-.66-1.49-1.03-2.22-.38-.79-.87-1.59-1.38-2.43-1.14-1.81-2.44-3.5-3.89-5.07-1.48-1.55-3.08-2.96-4.8-4.23-.81-.55-1.59-1.11-2.35-1.53-.69-.44-1.4-.83-2.14-1.18-2.68-1.32-4.48-1.81-4.45-1.91.44.07.86.18,1.26.32.49.14.98.3,1.46.49.55.22,1.19.44,1.85.79.76.34,1.49.72,2.19,1.12.79.42,1.57.93,2.39,1.52,3.57,2.5,6.59,5.7,8.84,9.43.49.86.98,1.69,1.35,2.49.38.73.7,1.49,1,2.26.3.7.49,1.35.66,1.92s.31,1.07.39,1.48c.14.42.21.86.25,1.29h0v.04Z"/>
    <path class="st3" d="M357.85,259.42s.13.24.32.7.49,1.18.83,2.04c.67,1.78,1.59,4.4,2.5,7.68,2.3,8.6,4.13,17.29,5.46,26.09,1.66,10.27,2.85,19.63,3.71,26.4.41,3.34.74,6.07.93,8.02.1.93.18,1.64.24,2.18.04.25.07.51.06.76-.08-.24-.13-.49-.14-.76l-.34-2.16c-.27-1.94-.66-4.64-1.12-8.01-.93-6.76-2.16-16.09-3.82-26.35s-3.51-19.5-5.32-26.07c-.87-3.29-1.73-5.91-2.35-7.7l-.76-2.07c-.08-.24-.17-.49-.21-.73h.01Z"/>
    <path class="st6" d="M259.54,268.06l-5.63,59.78-8.64-15.23-44.49,5.3c.45,2.28,16.3,57.91,23.11,73.36,6.83,15.44,25.92,42.92,47.29,33.06,21.38-9.88,19.99-87.6,19.99-96.47s-4.28-61.76-4.28-61.76"/>
    <path class="st9" d="M286.92,266.1s.04.38.11,1.1.15,1.81.28,3.22c.24,2.85.58,7.02,1.01,12.39s.93,11.97,1.5,19.61c.27,3.82.55,7.91.86,12.25.27,4.34.6,8.92.67,13.75.08,9.65,0,20.23-.69,31.57-.56,12.07-2.02,24.09-4.35,35.95-1.24,6.45-3.27,12.7-6.07,18.64-1.45,3.09-3.51,5.86-6.07,8.13-.66.55-1.39,1.04-2.16,1.46-.77.39-1.57.76-2.37,1.07-.81.32-1.64.55-2.49.79-.86.2-1.7.37-2.58.48-1.76.21-3.53.21-5.27,0-1.76-.24-3.48-.66-5.16-1.26-3.36-1.28-6.48-3.06-9.29-5.28-5.68-4.62-10.54-10.13-14.44-16.32-2.22-3.39-4.21-6.93-5.96-10.58-1.7-3.65-3.08-7.43-4.4-11.14-2.61-7.43-4.97-14.86-7.23-22.13s-4.4-14.4-6.45-21.35c-2.05-6.95-4.05-13.77-5.8-20.43l-.06-.24h.24l44.49-5.27h.13l.07.1,8.6,15.17-.32.08c1.78-18.56,3.2-33.49,4.2-43.8.49-5.16.93-9.13,1.17-11.84.14-1.35.24-2.37.32-3.08s.13-1.04.13-1.04c0,0,0,.35-.08,1.05-.08.7-.14,1.73-.27,3.08-.24,2.73-.6,6.7-1.07,11.87-.93,10.31-2.33,25.26-4.06,43.82v.53l-.27-.46-8.65-15.23.18.08-44.48,5.32.18-.25c1.76,6.62,3.76,13.44,5.82,20.43s4.2,14.12,6.5,21.35,4.64,14.67,7.23,22.11c1.31,3.71,2.68,7.43,4.37,11.08,1.71,3.64,3.68,7.16,5.87,10.52,3.88,6.13,8.7,11.6,14.32,16.2,2.77,2.21,5.86,3.96,9.17,5.21,1.64.59,3.33,1.01,5.06,1.24,1.71.21,3.44.21,5.16,0,.84-.1,1.7-.25,2.51-.45.81-.25,1.64-.46,2.44-.77.79-.3,1.57-.65,2.33-1.03.73-.41,1.43-.89,2.08-1.4,2.5-2.23,4.52-4.94,5.94-7.98,2.77-5.9,4.8-12.12,6.04-18.52,2.33-11.84,3.79-23.84,4.37-35.91.66-11.31.81-21.9.74-31.57-.04-4.82-.39-9.41-.65-13.74s-.56-8.43-.81-12.25c-.55-7.64-1.03-14.23-1.43-19.61s-.7-9.55-.93-12.4c-.1-1.4-.18-2.49-.24-3.22s-.03-1.07-.03-1.07h0v-.04Z"/>
    <path class="st9" d="M253.79,326.3c0,.24,0,.49-.04.72-.07.45-.08,1.15-.25,2.01-.41,2.47-1.03,4.9-1.85,7.26-1.24,3.5-2.74,6.88-4.52,10.16-1.95,3.71-4.31,7.64-6.76,11.79-2.33,3.89-4.41,7.9-6.28,12.01-1.52,3.37-2.67,6.87-3.46,10.47-.52,2.44-.79,4.93-.8,7.43,0,.89.04,1.56.04,2.02.03.24.03.48,0,.72-.06-.24-.08-.46-.08-.7,0-.46-.14-1.15-.14-2.04-.06-2.49.17-4.99.66-7.43.74-3.64,1.87-7.18,3.37-10.58,1.84-4.16,3.93-8.18,6.27-12.07,2.44-4.16,4.8-8.09,6.77-11.77,1.76-3.26,3.27-6.64,4.54-10.13.86-2.33,1.53-4.73,1.99-7.18.2-.86.25-1.53.34-2.01.03-.24.1-.48.18-.7h0v.03h.03Z"/>
    <path class="st1" d="M216.59,258.18c-1.22.24-22.08,9.89-21.96,42.05.11,23.99,6.55,47.03,6.55,47.03l50.28-23.69-34.88-65.39h.01Z"/>
    <path class="st6" d="M286.92,266.1s5.93-6.13,5.93-14.12c-.17-5.45-1.21-10.85-3.08-15.97,0,0-1-8.36-1.63-11.66l2.7-5.1s7.38,3.23,8.6-1.53l-4.34-5.94c-.97-1.33-2.36-2.29-3.95-2.74l-6.5-1.85c-2.29-.66-4.76-.25-6.74,1.07l-7.67,5.2,4.76-9.83,7.99-1.7s11.37,4.92,13.51-1.53l-9.52-5.56-18.14.32s-4.16,5.07-5.07,6.6-3.92,6.83-3.92,6.83l-4.54-11.73s.14-7.5,0-13.73c-.2-6.88-4.24-9.19-8.36-6.88-.41.22-2.26,18.67-1.33,22.98s8.85,36.27,8.85,36.27c0,0,2.8,7.28,3.85,9.43,1.55,3.17,2.33,6.67,2.28,10.21.18,3.4-1.11,13.92-1.11,13.92"/>
    <path class="st9" d="M259.45,269.08v-.6c0-.39.1-1.01.18-1.76.15-1.55.39-3.84.6-6.83.14-1.64.2-3.32.14-4.97,0-1.98-.24-3.95-.7-5.87-.25-1.07-.6-2.11-1.01-3.1-.49-1.01-1.01-2.11-1.48-3.22-.93-2.26-1.85-4.64-2.87-7.21h0c-1.31-5.3-2.8-11.14-4.3-17.46-.77-3.16-1.59-6.45-2.42-9.82-.42-1.7-.83-3.43-1.28-5.16-.21-.89-.44-1.76-.65-2.64-.11-.44-.24-.89-.32-1.33s-.13-.93-.15-1.4c-.13-3.82,0-7.63.34-11.44.14-1.95.32-3.92.53-5.91.11-1,.22-1.98.38-3.01,0-.25.08-.49.14-.76v-.37l.08-.11s.08-.08.13-.08h.08l.18-.08c.46-.24.96-.44,1.46-.55,1.05-.28,2.16-.21,3.16.18,1,.44,1.83,1.18,2.37,2.14,1.01,1.91,1.5,4.05,1.39,6.2v12.99-.08c1.43,3.71,2.98,7.7,4.54,11.74h-.44l3.98-6.9c1.53-2.28,3.3-4.4,5.03-6.56l.07-.08h.24l3.4-.07,14.74-.24h.14l9.52,5.56.17.1-.1.08c-.42,1.31-1.38,2.37-2.64,2.91-1.24.48-2.54.66-3.85.55-2.53-.2-5-.8-7.33-1.8h.14l-7.99,1.7.15-.13-4.78,9.83-.32-.28,7.84-5.24c1.33-.84,2.87-1.29,4.44-1.29.77,0,1.53.11,2.28.31l2.14.6,4.2,1.18c1.42.37,2.71,1.12,3.71,2.21,1.76,2.25,3.3,4.47,4.87,6.6l.06.08v.08c-.22.89-.77,1.64-1.55,2.14-.76.44-1.64.65-2.5.6-1.64-.06-3.29-.44-4.8-1.08l.22-.08c-.93,1.85-1.85,3.48-2.7,5.1v-.11c.72,4.17,1.17,8.08,1.59,11.67h0c1.55,4.26,2.53,8.71,2.94,13.22.2,1.83.14,3.67-.13,5.49-.25,1.5-.69,2.98-1.28,4.4-.81,1.92-1.85,3.75-3.12,5.41-.44.56-.77.97-1.01,1.24-.13.14-.25.27-.38.39l.34-.42c.24-.27.56-.7,1-1.26,1.24-1.69,2.25-3.5,3.05-5.42.56-1.4.97-2.88,1.24-4.37.25-1.81.28-3.62.08-5.44-.44-4.48-1.43-8.89-2.98-13.14h0c-.45-3.6-.93-7.5-1.64-11.65v-.11l2.68-5.1.08-.14.14.07c1.48.62,3.05.97,4.64,1.04.81.03,1.6-.15,2.32-.55.69-.44,1.18-1.12,1.39-1.92v.17c-1.59-2.12-3.16-4.4-4.87-6.57-.96-1.01-2.16-1.74-3.53-2.08l-4.2-1.18c-1.39-.49-2.84-.79-4.3-.89-1.49,0-2.95.44-4.21,1.24l-7.8,5.25-.67.45.35-.73,4.76-9.85v-.1h.11l7.98-1.7h.14c2.3.94,4.75,1.49,7.22,1.64,1.24.1,2.49-.08,3.64-.52,1.12-.49,2.01-1.45,2.37-2.63l.1.28-9.52-5.56h.13l-14.74.25-3.4.07.18-.08c-1.73,2.16-3.51,4.3-5,6.5-1.35,2.35-2.68,4.64-3.96,6.88l-.25.44-.18-.48-4.52-11.73v-.04h0v-12.99c.11-2.08-.34-4.14-1.33-5.98-.49-.86-1.25-1.55-2.16-1.95-.91-.37-1.92-.44-2.88-.17-.49.13-.96.28-1.39.52l-.17.08h-.08c.08.17-.14-.22-.08-.11s.1.14.1.11h0v.25c-.06.24-.08.49-.14.73-.14,1-.25,1.99-.38,2.99-.22,1.98-.39,3.95-.55,5.9-.34,3.78-.46,7.57-.37,11.37.03.45.08.9.15,1.35s.2.93.31,1.33c.22.93.44,1.76.66,2.64.42,1.76.83,3.48,1.25,5.16.81,3.39,1.62,6.66,2.39,9.83,1.53,6.31,2.95,12.17,4.23,17.46h0c.93,2.54,1.85,4.96,2.8,7.21.46,1.12.97,2.18,1.46,3.23.44,1.01.81,2.08,1.08,3.16.45,1.94.69,3.93.67,5.91.03,1.67-.03,3.33-.18,4.99-.25,2.96-.51,5.27-.7,6.83-.1.76-.18,1.35-.22,1.76-.1.49-.14.67-.14.67h.06-.01Z"/>
    <path class="st9" d="M289.14,209.31c-.7.17-1.38.42-2.01.76-1.46.97-2.85,2.05-4.14,3.23-1.59,1.32-3.06,2.49-4.12,3.32-.55.49-1.15.91-1.81,1.28.46-.56,1-1.08,1.59-1.53,1.01-.93,2.44-2.11,4.05-3.43,1.32-1.19,2.75-2.26,4.28-3.16.66-.39,1.42-.55,2.16-.44h0v-.03Z"/>
    <path class="st3" d="M237.22,282.16c.14-.04,3.48,9.22,7.52,20.69,4.02,11.48,7.18,20.81,7.05,20.86s-3.48-9.22-7.52-20.69c-4.03-11.48-7.18-20.86-7.05-20.86Z"/>
  </g>
  <g id="freepik--Device--inject-128">
    <path class="st8" d="M552.68,446.02h-180.48l23.28-126.67c.83-4.48,4.73-7.74,9.29-7.75h162.2c5.23,0,9.47,4.26,9.45,9.48,0,.59-.06,1.18-.17,1.76l-23.57,123.17h0v.03h0Z"/>
    <path class="st8" d="M372.21,446.02h-68.46l.28-.2c6.11-4.58,13.49-7.18,21.11-7.43l48.96-1.43-1.87,9.06h-.03Z"/>
    <path class="st3" d="M415.56,311.77s-.49-.08-1.46-.1c-1.39.03-2.77.37-4,1.01-1.97,1.01-3.62,2.5-4.8,4.37-1.49,2.51-2.5,5.3-2.95,8.19-.59,3.2-1.11,6.76-1.76,10.56s-1.35,7.85-2.15,12.07c-1.57,8.51-3.43,17.86-5.45,27.63-4.07,19.56-7.85,37.26-10.31,50.14-1.24,6.42-2.21,11.63-2.85,15.23-.32,1.76-.58,3.15-.76,4.14-.08.44-.15.8-.21,1.07-.03.13-.04.24-.08.37v-.38c0-.25.08-.65.14-1.08.15-1.01.37-2.39.63-4.17.56-3.61,1.46-8.84,2.64-15.28,2.35-12.87,6.05-30.6,10.13-50.14,2.02-9.78,3.89-19.09,5.51-27.6.81-4.24,1.53-8.29,2.22-12.07s1.21-7.33,1.85-10.56c.49-2.95,1.53-5.76,3.1-8.3,1.24-1.91,2.96-3.43,5.02-4.41,1.28-.65,2.68-.97,4.12-.93.49,0,.98.08,1.45.24h-.03.01Z"/>
    <path class="st7" d="M491.78,375.97c0,4.82-3.91,8.72-8.72,8.72s-8.72-3.91-8.72-8.72,3.91-8.72,8.72-8.72h0c4.82,0,8.72,3.91,8.72,8.72Z"/>
  </g>
  <g id="freepik--Desk--inject-128">
    <path class="st3" d="M597.12,446.16c0,.14-95.05.24-212.25.24s-212.28-.1-212.28-.24,95.02-.24,212.28-.24,212.25.11,212.25.24Z"/>
  </g>
</svg>