<?xml version="1.0" encoding="UTF-8"?>
<svg id="Layer_1" xmlns="http://www.w3.org/2000/svg" version="1.1" viewBox="0 0 750 500">
  <!-- Generator: Adobe Illustrator 29.5.1, SVG Export Plug-In . SVG Version: 2.1.0 Build 141)  -->
  <defs>
    <style>
      .st0 {
        fill: #e0e0e0;
      }

      .st1 {
        fill: #aa6550;
      }

      .st2 {
        fill: #b78876;
      }

      .st3 {
        fill: #4a9288;
      }

      .st4 {
        fill: #263238;
      }

      .st5 {
        fill: #fff;
      }

      .st6 {
        fill: #fafafa;
      }

      .st7 {
        opacity: .6;
      }

      .st8 {
        opacity: .5;
      }

      .st9 {
        fill: #f5f5f5;
      }

      .st10 {
        fill: #455a64;
      }
    </style>
  </defs>
  <g id="freepik--background-simple--inject-201">
    <path class="st9" d="M585.91,45.4l-1.57,1.19c-13.23,10-20.13,26.44-17.4,42.67.36,2.09.86,4.15,1.52,6.17,5.03,14.81,17.14,26.13,32.26,30.14,8.79,2.27,18.63,2.14,26,7.42,9.55,6.87,11.2,20.06,12,31.72s2.54,24.84,12.12,31.68c6,4.27,14,5,21.31,3.84,19.38-3.07,35.39-18.46,42.25-36.64s5.52-38.59-.26-57.1c-8.1-25.92-25.38-49.58-49.6-62.35s-55.45-13.4-78.63,1.26Z"/>
    <path class="st9" d="M84.3,170.43l1.32,1.47c11.1,12.36,28,17.89,43.95,13.83,2.05-.52,4.05-1.19,6-2,14.37-6.22,24.67-19.23,27.43-34.64,1.54-8.94.6-18.74,5.26-26.49,6.07-10.08,19.07-12.81,30.62-14.61s24.56-4.57,30.58-14.68c3.77-6.34,3.84-14.35,2.08-21.55-4.64-19.06-21.3-33.76-40-39.11s-38.92-2.33-56.88,5c-25.17,10.15-47.32,29.35-58.07,54.5s-8.8,56.38,7.71,78.28Z"/>
    <circle class="st9" cx="497.62" cy="64.54" r="23.58" transform="translate(100.12 370.77) rotate(-45)"/>
  </g>
  <g id="freepik--Character--inject-201">
    <polygon class="st0" points="611.78 131.03 642.7 463.5 611.78 463.5 611.78 131.03"/>
    <rect class="st6" x="166.65" y="131.03" width="445.13" height="332.47"/>
    <rect class="st3" x="166.65" y="131.03" width="445.13" height="81.83"/>
    <path class="st4" d="M166.65,131l445.13-.24h.22v332.97h-.26l-445.13-.05h-.22v-.21c.13-201.31.22-330.71.22-332.47,0,1.76.08,131.16.21,332.47l-.21-.21,445.13-.05-.26.26h0V131.04l.24.23-445.07-.27Z"/>
    <path class="st4" d="M612.19,211.59c0,.15-100.29.26-224,.26s-224-.11-224-.26,100.27-.26,224-.26,224,.12,224,.26Z"/>
    <rect class="st3" x="296.47" y="316.83" width="279.77" height="47.79" rx="23.89" ry="23.89"/>
    <rect class="st3" x="185.34" y="367.75" width="111.13" height="47.79" rx="23.89" ry="23.89"/>
    <circle class="st4" cx="237.64" cy="145.8" r="9.09"/>
    <path class="st4" d="M237.64,155.39c-5.3,0-9.59-4.28-9.6-9.58,0-5.3,4.28-9.59,9.58-9.6,5.3,0,9.59,4.28,9.6,9.58h0c0,5.3-4.29,9.59-9.58,9.6ZM237.64,137.22c-4.74,0-8.59,3.84-8.6,8.58,0,4.74,3.84,8.59,8.58,8.6,4.74,0,8.59-3.84,8.6-8.58,0,0,0-.01,0-.02,0-4.74-3.84-8.57-8.58-8.58Z"/>
    <circle class="st4" cx="312.58" cy="145.8" r="9.09"/>
    <path class="st4" d="M312.58,155.39c-5.3,0-9.59-4.29-9.59-9.59s4.29-9.59,9.59-9.59c5.3,0,9.59,4.29,9.59,9.59h0c0,5.29-4.3,9.58-9.59,9.59ZM312.58,137.22c-4.74,0-8.59,3.85-8.59,8.59s3.85,8.59,8.59,8.59,8.59-3.85,8.59-8.59h0c-.01-4.75-3.85-8.58-8.59-8.59Z"/>
    <circle class="st4" cx="387.52" cy="145.8" r="9.09"/>
    <path class="st4" d="M387.52,155.39c-5.3,0-9.59-4.29-9.59-9.59s4.29-9.59,9.59-9.59c5.3,0,9.59,4.29,9.59,9.59h0c0,5.29-4.3,9.58-9.59,9.59ZM387.52,137.22c-4.74,0-8.59,3.85-8.59,8.59s3.85,8.59,8.59,8.59,8.59-3.85,8.59-8.59h0c0-4.75-3.85-8.59-8.59-8.59Z"/>
    <circle class="st4" cx="462.47" cy="145.8" r="9.09"/>
    <path class="st4" d="M462.47,155.39c-5.3,0-9.59-4.28-9.6-9.58,0-5.3,4.28-9.59,9.58-9.6,5.3,0,9.59,4.28,9.6,9.58h0c0,5.3-4.29,9.59-9.58,9.6ZM462.47,137.22c-4.74,0-8.59,3.84-8.6,8.58s3.84,8.59,8.58,8.6c4.74,0,8.59-3.84,8.6-8.58v-.02c0-4.74-3.84-8.57-8.58-8.58Z"/>
    <circle class="st4" cx="537.41" cy="145.8" r="9.09"/>
    <path class="st4" d="M537.41,155.39c-5.3,0-9.59-4.29-9.59-9.59s4.29-9.59,9.59-9.59c5.3,0,9.59,4.29,9.59,9.59,0,5.29-4.3,9.58-9.59,9.59ZM537.41,137.22c-4.74,0-8.59,3.85-8.59,8.59s3.85,8.59,8.59,8.59c4.74,0,8.59-3.85,8.59-8.59h0c-.01-4.75-3.85-8.58-8.59-8.59Z"/>
    <path class="st4" d="M208.87,229.3v18.08h-2.56v-15.83h-4.08v-2.25h6.64Z"/>
    <path class="st4" d="M272.19,245.13v2.25h-13v-1.75l7.36-7.11c1.92-1.86,2.28-3,2.28-4.13,0-1.86-1.32-3-3.85-3-1.77-.09-3.48.65-4.63,2l-1.75-1.52c1.68-1.86,4.11-2.87,6.61-2.74,3.77,0,6.2,1.94,6.2,5,0,1.76-.52,3.33-3,5.68l-5.53,5.32h9.31Z"/>
    <path class="st4" d="M326.77,242.06c0,3.05-2.25,5.53-6.84,5.53-2.4.07-4.75-.71-6.64-2.2l1.18-2c1.52,1.29,3.46,1.98,5.46,1.94,2.71,0,4.26-1.24,4.26-3.2s-1.37-3.16-4.47-3.16h-1.45v-1.8l4.55-5.58h-8.71v-2.29h11.94v1.76l-4.73,5.83c3.62.34,5.45,2.38,5.45,5.17Z"/>
    <path class="st4" d="M387.55,242.94h-3.44v4.44h-2.5v-4.44h-10.05v-1.81l9.25-11.83h2.79l-8.86,11.42h6.95v-3.93h2.42v3.93h3.44v2.22Z"/>
    <path class="st4" d="M440.17,242c0,3.12-2.22,5.63-6.85,5.63-2.4.06-4.75-.72-6.64-2.2l1.19-2c1.51,1.29,3.44,1.98,5.43,1.94,2.73,0,4.28-1.27,4.28-3.23s-1.29-3.31-5.47-3.31h-4.11l1-9.45h10.2v2.25h-8l-.5,5h2c5.35-.12,7.47,2.12,7.47,5.37Z"/>
    <path class="st4" d="M497.6,241.88c0,3.49-2.82,5.71-6.41,5.71-4.85,0-7.59-3.26-7.59-9,0-6.17,3.49-9.48,8.55-9.48,1.56-.06,3.12.31,4.49,1.06l-1,2c-1.05-.62-2.25-.91-3.46-.86-3.67,0-6,2.3-6,6.82-.01.22-.01.43,0,.65,1.22-1.62,3.17-2.51,5.19-2.38,3.63,0,6.23,2.15,6.23,5.48ZM495.09,241.98c0-2.12-1.6-3.48-4.13-3.48s-4.16,1.5-4.16,3.5,1.5,3.49,4.29,3.49c2.35,0,4-1.36,4-3.49v-.02Z"/>
    <path class="st4" d="M552.64,229.3v1.76l-7.31,16.32h-2.74l7.15-15.83h-8.26v3.23h-2.48v-5.48h13.64Z"/>
    <path class="st4" d="M217.53,290c0,3.28-2.79,5.32-7.21,5.32s-7.16-2-7.16-5.32c-.03-2,1.26-3.79,3.18-4.37-1.57-.65-2.58-2.2-2.53-3.9,0-3,2.61-4.9,6.51-4.9s6.56,1.88,6.56,4.9c.04,1.71-.98,3.26-2.56,3.9,1.93.58,3.24,2.36,3.21,4.37ZM214.94,289.92c0-2-1.75-3.23-4.62-3.23s-4.57,1.24-4.57,3.23,1.7,3.31,4.57,3.31,4.62-1.31,4.62-3.35v.04ZM206.37,281.84c0,1.78,1.47,2.89,3.95,2.89s4-1.11,4-2.89-1.6-2.92-4-2.92-3.95,1.08-3.95,2.88v.04Z"/>
    <path class="st4" d="M272.94,285.8c0,6.17-3.49,9.48-8.56,9.48-1.57.06-3.12-.31-4.49-1.06l1-2c1.06.61,2.27.91,3.49.85,3.67,0,6-2.3,6-6.82v-.65c-1.22,1.63-3.19,2.52-5.22,2.38-3.59,0-6.17-2.14-6.17-5.48s2.79-5.7,6.38-5.7c4.83,0,7.57,3.2,7.57,9ZM269.76,282.37c0-1.86-1.5-3.49-4.32-3.49-2.35,0-4,1.37-4,3.51s1.57,3.49,4.1,3.49,4.22-1.53,4.22-3.51Z"/>
    <path class="st4" d="M320,277v18.09h-2.55v-15.85h-4.09v-2.24h6.64Z"/>
    <path class="st4" d="M324,286c0-5.89,3.15-9.24,7.38-9.24s7.37,3.35,7.37,9.24-3.16,9.25-7.37,9.25-7.38-3.33-7.38-9.25ZM336.16,286c0-4.62-2-6.95-4.78-6.95s-4.8,2.33-4.8,6.95,2,7,4.8,7,4.74-2.34,4.74-7h.04Z"/>
    <path class="st4" d="M377.42,277v18.09h-2.55v-15.85h-4.09v-2.24h6.64Z"/>
    <path class="st4" d="M387,277v18.09h-2.56v-15.85h-4.08v-2.24h6.64Z"/>
    <path class="st4" d="M433.09,277v18.09h-2.56v-15.85h-4.08v-2.24h6.64Z"/>
    <path class="st4" d="M449.75,292.83v2.25h-13v-1.76l7.36-7.11c1.91-1.86,2.27-3,2.27-4.13,0-1.86-1.31-3-3.85-3-1.77-.09-3.48.65-4.62,2l-1.76-1.53c1.68-1.86,4.12-2.86,6.62-2.73,3.77,0,6.2,1.93,6.2,5,0,1.76-.52,3.34-3,5.69l-5.53,5.32h9.31Z"/>
    <path class="st4" d="M489.2,277v18.09h-2.55v-15.85h-4.08v-2.24h6.63Z"/>
    <path class="st4" d="M505.53,289.75c0,3.05-2.25,5.53-6.84,5.53-2.4.07-4.75-.7-6.64-2.19l1.18-2c1.52,1.29,3.47,1.97,5.46,1.93,2.71,0,4.26-1.24,4.26-3.2s-1.37-3.15-4.47-3.15h-1.48v-1.81l4.55-5.58h-8.71v-2.28h11.94v1.76l-4.73,5.84c3.65.32,5.48,2.4,5.48,5.15Z"/>
    <path class="st4" d="M545.07,277v18.09h-2.56v-15.85h-4.08v-2.24h6.64Z"/>
    <path class="st4" d="M564.75,290.63h-3.43v4.45h-2.51v-4.45h-10v-1.81l9.19-11.82h2.79l-8.86,11.42h6.95v-3.93h2.43v3.93h3.43v2.21Z"/>
    <path class="st4" d="M208.87,329.63v18.09h-2.56v-15.84h-4.08v-2.25h6.64Z"/>
    <path class="st4" d="M225.51,342.29c0,3.13-2.22,5.63-6.85,5.63-2.4.06-4.75-.71-6.64-2.19l1.19-2c1.52,1.28,3.45,1.97,5.43,1.93,2.74,0,4.29-1.26,4.29-3.23s-1.3-3.3-5.48-3.3h-4.11l1-9.46h10.2v2.25h-8l-.49,5h2c5.34-.08,7.46,2.17,7.46,5.37Z"/>
    <path class="st4" d="M265.08,329.63v18.09h-2.56v-15.84h-4.08v-2.25h6.64Z"/>
    <path class="st4" d="M283,342.21c0,3.49-2.82,5.71-6.41,5.71-4.86,0-7.59-3.25-7.59-9,0-6.18,3.48-9.48,8.55-9.48,1.57-.06,3.12.31,4.49,1.06l-1,2c-1.05-.61-2.25-.91-3.46-.85-3.67,0-6,2.3-6,6.82v.64c1.22-1.62,3.18-2.51,5.2-2.37,3.65,0,6.22,2.14,6.22,5.47ZM280.49,342.32c0-2.12-1.6-3.49-4.13-3.49s-4.16,1.52-4.16,3.51,1.5,3.49,4.29,3.49c2.39,0,4.04-1.37,4.04-3.51h-.04Z"/>
    <path class="st5" d="M320,329.63v18.09h-2.55v-15.84h-4.09v-2.25h6.64Z"/>
    <path class="st5" d="M337.13,329.63v1.76l-7.31,16.33h-2.74l7.16-15.84h-8.24v3.23h-2.48v-5.48h13.61Z"/>
    <path class="st5" d="M377.42,329.63v18.09h-2.55v-15.84h-4.09v-2.25h6.64Z"/>
    <path class="st5" d="M395.64,342.6c0,3.28-2.79,5.32-7.21,5.32s-7.16-2-7.16-5.32c-.04-2,1.26-3.78,3.18-4.36-1.57-.65-2.58-2.21-2.53-3.91,0-3,2.61-4.9,6.51-4.9s6.56,1.88,6.56,4.9c.04,1.71-.98,3.27-2.56,3.91,1.92.57,3.24,2.35,3.21,4.36ZM393.05,342.52c0-2-1.75-3.23-4.62-3.23s-4.57,1.24-4.57,3.23,1.7,3.31,4.57,3.31,4.62-1.27,4.62-3.31h0ZM384.48,334.44c0,1.78,1.47,2.89,3.95,2.89s4-1.11,4-2.89-1.6-2.92-4-2.92-3.95,1.11-3.95,2.92h0Z"/>
    <path class="st5" d="M433.09,329.63v18.09h-2.56v-15.84h-4.08v-2.25h6.64Z"/>
    <path class="st5" d="M450.5,338.44c0,6.18-3.49,9.48-8.55,9.48-1.57.06-3.12-.31-4.49-1.06l1-2c1.06.61,2.27.91,3.49.85,3.66,0,6-2.3,6-6.82v-.64c-1.23,1.62-3.19,2.52-5.22,2.37-3.59,0-6.17-2.14-6.17-5.47s2.79-5.71,6.38-5.71c4.82-.01,7.56,3.24,7.56,9ZM447.32,335c0-1.86-1.49-3.49-4.31-3.49-2.35,0-4,1.37-4,3.51s1.58,3.49,4.11,3.49,4.2-1.51,4.2-3.51Z"/>
    <path class="st5" d="M496.31,345.47v2.25h-13v-1.72l7.36-7.1c1.91-1.86,2.27-3,2.27-4.14,0-1.86-1.32-3-3.85-3-1.77-.09-3.48.65-4.62,2l-1.76-1.53c1.68-1.86,4.11-2.86,6.61-2.73,3.78,0,6.2,1.93,6.2,5,0,1.76-.51,3.34-3,5.69l-5.52,5.28h9.31Z"/>
    <path class="st5" d="M498.35,338.67c0-5.89,3.15-9.24,7.39-9.24s7.36,3.35,7.36,9.24-3.15,9.25-7.36,9.25-7.39-3.36-7.39-9.25ZM510.52,338.67c0-4.62-2-6.94-4.78-6.94s-4.81,2.32-4.81,6.94,2,6.95,4.81,6.95,4.78-2.32,4.78-6.95h0Z"/>
    <path class="st5" d="M552.17,345.47v2.25h-13v-1.72l7.36-7.1c1.91-1.86,2.27-3,2.27-4.14,0-1.86-1.31-3-3.84-3-1.77-.09-3.48.65-4.63,2l-1.76-1.53c1.68-1.86,4.12-2.86,6.62-2.73,3.77,0,6.2,1.93,6.2,5,0,1.76-.52,3.34-3,5.69l-5.53,5.32,9.31-.04Z"/>
    <path class="st5" d="M559.9,329.63v18.09h-2.56v-15.84h-4.08v-2.25h6.64Z"/>
    <path class="st5" d="M216,397.62v2.25h-13v-1.76l7.36-7.1c1.92-1.86,2.28-3,2.28-4.14,0-1.86-1.32-3-3.85-3-1.77-.09-3.48.65-4.63,2l-1.75-1.52c1.68-1.86,4.11-2.87,6.61-2.74,3.77,0,6.2,1.94,6.2,5,0,1.75-.52,3.33-3,5.68l-5.53,5.32h9.31Z"/>
    <path class="st5" d="M230.81,397.62v2.25h-13v-1.76l7.36-7.1c1.92-1.86,2.28-3,2.28-4.14,0-1.86-1.32-3-3.85-3-1.77-.09-3.48.65-4.63,2l-1.75-1.52c1.68-1.86,4.11-2.87,6.61-2.74,3.77,0,6.2,1.94,6.2,5,0,1.75-.52,3.33-3,5.68l-5.53,5.32h9.31Z"/>
    <path class="st5" d="M272.19,397.62v2.25h-13v-1.76l7.36-7.1c1.92-1.86,2.28-3,2.28-4.14,0-1.86-1.32-3-3.85-3-1.77-.09-3.48.65-4.63,2l-1.75-1.52c1.68-1.86,4.11-2.87,6.61-2.74,3.77,0,6.2,1.94,6.2,5,0,1.75-.52,3.33-3,5.68l-5.53,5.32h9.31Z"/>
    <path class="st5" d="M286.68,394.55c0,3.05-2.25,5.53-6.85,5.53-2.4.07-4.75-.71-6.64-2.2l1.19-2c1.52,1.29,3.46,1.98,5.45,1.94,2.72,0,4.27-1.24,4.27-3.21s-1.37-3.15-4.47-3.15h-1.45v-1.81l4.55-5.58h-8.73v-2.24h12v1.75l-4.73,5.84c3.58.3,5.41,2.34,5.41,5.13Z"/>
    <path class="st4" d="M327.11,397.62v2.25h-13v-1.76l7.37-7.1c1.91-1.86,2.27-3,2.27-4.14,0-1.86-1.32-3-3.85-3-1.77-.09-3.48.65-4.62,2l-1.76-1.52c1.68-1.86,4.11-2.87,6.61-2.74,3.77,0,6.2,1.94,6.2,5,0,1.75-.51,3.33-3,5.68l-5.53,5.32h9.31Z"/>
    <path class="st4" d="M344.47,395.43h-3.47v4.44h-2.5v-4.44h-10v-1.81l9.25-11.83h2.79l-8.87,11.41h7v-3.92h2.33v3.92h3.44l.03,2.23Z"/>
    <path class="st4" d="M216,443.9v2.24h-13v-1.75l7.36-7.11c1.92-1.86,2.28-3,2.28-4.13,0-1.86-1.32-3-3.85-3-1.77-.09-3.48.65-4.63,2l-1.75-1.53c1.68-1.86,4.11-2.87,6.61-2.74,3.77,0,6.2,1.94,6.2,5,0,1.76-.52,3.33-3,5.68l-5.53,5.33h9.31Z"/>
    <path class="st4" d="M231.55,436.87c0,6.17-3.48,9.48-8.55,9.48-1.56.06-3.12-.31-4.49-1.06l1-2c1.06.61,2.27.91,3.49.85,3.67,0,6-2.3,6-6.82v-.65c-1.22,1.63-3.19,2.52-5.22,2.38-3.59,0-6.17-2.14-6.17-5.48s2.79-5.71,6.38-5.71c4.83-.01,7.56,3.25,7.56,9.01ZM228.38,433.43c0-1.86-1.5-3.48-4.32-3.48-2.35,0-4,1.37-4,3.51s1.58,3.49,4.11,3.49,4.21-1.53,4.21-3.52Z"/>
    <path class="st4" d="M271.85,440.82c0,3.05-2.25,5.53-6.85,5.53-2.4.07-4.75-.71-6.63-2.2l1.18-2c1.52,1.29,3.46,1.98,5.45,1.94,2.72,0,4.27-1.24,4.27-3.2s-1.37-3.15-4.47-3.15h-1.45v-1.81l4.55-5.58h-8.71v-2.25h11.94v1.76l-4.73,5.84c3.6.3,5.45,2.3,5.45,5.12Z"/>
    <path class="st4" d="M274.25,437.1c0-5.89,3.16-9.25,7.39-9.25s7.36,3.36,7.36,9.25-3.15,9.25-7.36,9.25-7.39-3.35-7.39-9.25ZM286.42,437.1c0-4.62-2-7-4.78-7s-4.8,2.33-4.8,7,2,6.95,4.8,6.95,4.78-2.32,4.78-6.95Z"/>
    <path class="st4" d="M326.77,440.82c0,3.05-2.25,5.53-6.84,5.53-2.4.07-4.75-.71-6.64-2.2l1.18-2c1.52,1.29,3.46,1.98,5.46,1.94,2.71,0,4.26-1.24,4.26-3.2s-1.37-3.15-4.47-3.15h-1.45v-1.81l4.55-5.58h-8.71v-2.25h11.94v1.76l-4.73,5.84c3.62.3,5.45,2.3,5.45,5.12Z"/>
    <path class="st4" d="M334.78,428.06v18.08h-2.56v-15.83h-4.08v-2.25h6.64Z"/>
    <path class="st4" d="M384.53,397.62v2.25h-13v-1.76l7.37-7.1c1.91-1.86,2.27-3,2.27-4.14,0-1.86-1.32-3-3.85-3-1.77-.09-3.48.65-4.62,2l-1.76-1.52c1.68-1.86,4.11-2.87,6.61-2.74,3.77,0,6.2,1.94,6.2,5,0,1.75-.52,3.33-3,5.68l-5.53,5.32h9.31Z"/>
    <path class="st4" d="M399.33,394.44c0,3.13-2.22,5.64-6.85,5.64-2.4.06-4.74-.72-6.63-2.2l1.18-2c1.51,1.28,3.44,1.97,5.43,1.94,2.74,0,4.29-1.27,4.29-3.23s-1.29-3.31-5.48-3.31h-4.11l1-9.45h10.2v2.17h-8l-.49,5h2c5.34,0,7.46,2.24,7.46,5.44Z"/>
    <path class="st4" d="M440.19,397.62v2.25h-13v-1.76l7.36-7.1c1.91-1.86,2.28-3,2.28-4.14,0-1.86-1.32-3-3.85-3-1.77-.09-3.48.65-4.63,2l-1.75-1.52c1.68-1.86,4.11-2.87,6.61-2.74,3.77,0,6.2,1.94,6.2,5,0,1.75-.52,3.33-3,5.68l-5.53,5.32h9.31Z"/>
    <path class="st4" d="M456.24,394.37c0,3.48-2.82,5.71-6.41,5.71-4.86,0-7.59-3.26-7.59-9,0-6.17,3.48-9.48,8.55-9.48,1.57-.06,3.12.31,4.49,1.06l-1,2c-1.05-.61-2.25-.91-3.46-.85-3.67,0-6,2.3-6,6.82-.01.22-.01.43,0,.65,1.22-1.62,3.17-2.51,5.19-2.38,3.62,0,6.23,2.1,6.23,5.47ZM453.73,394.47c0-2.12-1.6-3.49-4.13-3.49s-4.16,1.53-4.16,3.52,1.5,3.48,4.29,3.48c2.35.02,4-1.37,4-3.51h0Z"/>
    <path class="st4" d="M496.31,397.62v2.25h-13v-1.76l7.36-7.1c1.91-1.86,2.27-3,2.27-4.14,0-1.86-1.32-3-3.85-3-1.77-.09-3.48.65-4.62,2l-1.76-1.52c1.68-1.86,4.11-2.86,6.61-2.74,3.78,0,6.2,1.94,6.2,5,0,1.75-.51,3.33-3,5.68l-5.52,5.33h9.31Z"/>
    <path class="st4" d="M511.53,381.79v1.75l-7.31,16.33h-2.74l7.15-15.87h-8.26v3.23h-2.48v-5.47l13.64.03Z"/>
    <path class="st4" d="M552.17,397.62v2.25h-13v-1.76l7.36-7.1c1.91-1.86,2.28-3,2.28-4.14,0-1.86-1.32-3-3.85-3-1.77-.09-3.48.65-4.63,2l-1.75-1.52c1.68-1.86,4.11-2.87,6.61-2.74,3.77,0,6.2,1.94,6.2,5,0,1.75-.52,3.33-3,5.68l-5.53,5.32h9.31Z"/>
    <path class="st4" d="M568.55,394.75c0,3.28-2.79,5.33-7.2,5.33s-7.16-2.05-7.16-5.33c-.03-2,1.27-3.78,3.18-4.36-1.57-.65-2.58-2.2-2.53-3.9,0-3,2.6-4.91,6.51-4.91s6.56,1.88,6.56,4.91c.04,1.7-.98,3.25-2.56,3.9,1.92.58,3.23,2.36,3.2,4.36ZM565.97,394.68c0-2-1.76-3.23-4.62-3.23s-4.58,1.24-4.58,3.23,1.71,3.3,4.58,3.3,4.65-1.26,4.65-3.3h-.03ZM557.39,386.59c0,1.78,1.47,2.89,4,2.89s4-1.11,4-2.89-1.6-2.92-4-2.92-4,1.11-4,2.92h0Z"/>
    <path class="st0" d="M237.64,146h0c-3.02,0-5.46-2.43-5.47-5.45,0,0,0,0,0-.01v-26.9c0-3.02,2.45-5.46,5.47-5.46h0c3.01,0,5.45,2.45,5.46,5.46v26.9c0,3.02-2.44,5.46-5.46,5.46h0Z"/>
    <path class="st4" d="M237.64,146s.31,0,.88-.13c2.2-.4,3.92-2.12,4.33-4.31.1-.83.13-1.67.08-2.5v-2.84c0-4,0-8.75-.06-14v-8.27c.06-1.41-.44-2.78-1.39-3.82-1.94-2.11-5.22-2.25-7.33-.31-.11.1-.21.2-.31.31-.95,1.04-1.45,2.42-1.39,3.83v25.11c-.05.83-.02,1.67.08,2.5.41,2.2,2.14,3.91,4.34,4.31.57.12.88.1.88.13-.3.04-.6.04-.9,0-.87-.13-1.69-.48-2.4-1-1.14-.81-1.93-2.03-2.21-3.4-.15-.86-.23-1.73-.24-2.61v-2.84c0-4,0-8.75-.06-14v-8.27c-.07-1.54.48-3.04,1.52-4.18,2.14-2.32,5.75-2.47,8.07-.33.12.11.23.22.33.33,1.04,1.14,1.58,2.64,1.52,4.18v8.27c0,5.26,0,10-.06,14v2.84c.03.86-.01,1.71-.13,2.56-.28,1.37-1.07,2.59-2.21,3.4-.7.52-1.52.87-2.39,1-.31.06-.63.08-.95.04Z"/>
    <path class="st0" d="M312.58,146h0c-3.01,0-5.45-2.43-5.46-5.44v-26.92c0-3.02,2.44-5.46,5.46-5.46h0c3.02,0,5.46,2.44,5.46,5.46v26.9c0,3.01-2.43,5.45-5.44,5.46,0,0-.01,0-.02,0Z"/>
    <path class="st4" d="M312.58,146s.31,0,.88-.13c2.2-.41,3.92-2.12,4.34-4.31.09-.83.12-1.67.08-2.5v-2.84c0-4,0-8.75-.06-14v-8.27c.06-1.41-.44-2.78-1.39-3.82-.98-1.07-2.37-1.68-3.82-1.68-1.45,0-2.83.61-3.82,1.67-.95,1.04-1.45,2.42-1.39,3.83v8.27c0,5.26,0,10-.06,14v2.84c-.04.83-.01,1.67.08,2.5.42,2.19,2.14,3.9,4.34,4.31.57.12.88.1.88.13-.3.04-.6.04-.9,0-.87-.13-1.69-.48-2.39-1-1.15-.81-1.94-2.03-2.21-3.4-.13-.86-.17-1.73-.14-2.6v-2.84c0-4,0-8.75-.05-14v-8.27c-.06-1.54.48-3.04,1.52-4.18,2.14-2.32,5.75-2.47,8.07-.33.12.11.23.22.33.33,1.04,1.14,1.59,2.64,1.52,4.18v25.11c.03.86,0,1.71-.13,2.56-.27,1.37-1.06,2.59-2.21,3.4-.7.52-1.52.87-2.39,1-.35.08-.72.09-1.08.04Z"/>
    <path class="st0" d="M387.52,146h0c-3.02,0-5.46-2.44-5.46-5.46v-26.9c0-3.01,2.45-5.45,5.46-5.46h0c3.02,0,5.46,2.44,5.47,5.46v26.9c0,3.02-2.44,5.46-5.46,5.46,0,0,0,0-.01,0Z"/>
    <path class="st4" d="M387.52,146s.31,0,.89-.13c2.2-.4,3.92-2.12,4.33-4.31.1-.83.13-1.67.08-2.5v-2.84c0-4,0-8.75-.05-14v-8.27c.06-1.41-.44-2.78-1.39-3.82-1.94-2.11-5.21-2.25-7.32-.31-.11.1-.21.2-.31.31-.96,1.04-1.46,2.42-1.4,3.83v8.27c0,5.26,0,10-.06,14v2.84c-.05.83-.02,1.67.08,2.5.41,2.19,2.13,3.91,4.33,4.31.57.12.89.1.88.13-.3.04-.6.04-.9,0-.87-.13-1.69-.48-2.39-1-1.14-.81-1.93-2.03-2.21-3.4-.12-.85-.16-1.7-.13-2.56v-2.84c0-4,0-8.75-.06-14v-8.27c-.06-1.54.49-3.04,1.53-4.18,2.15-2.32,5.77-2.46,8.08-.31,1.24,1.15,1.91,2.8,1.83,4.49v8.27c0,5.26,0,10-.06,14v2.84c.03.86,0,1.71-.12,2.56-.28,1.37-1.07,2.59-2.21,3.4-.71.52-1.53.87-2.4,1-.34.05-.68.05-1.02,0Z"/>
    <path class="st0" d="M462.47,146h0c-3.02,0-5.46-2.43-5.47-5.45h0v-26.91c0-3.02,2.45-5.46,5.47-5.46h0c3.01,0,5.45,2.45,5.46,5.46v26.9c0,3.02-2.44,5.46-5.46,5.46Z"/>
    <path class="st4" d="M462.47,146s.31,0,.88-.13c2.2-.4,3.92-2.12,4.33-4.31.1-.83.13-1.67.08-2.5v-2.84c0-4,0-8.75-.06-14v-8.27c.06-1.41-.44-2.78-1.39-3.82-1.94-2.11-5.22-2.25-7.33-.31-.11.1-.21.2-.31.31-.95,1.04-1.45,2.42-1.39,3.83v8.27c0,5.26,0,10-.05,14v2.84c-.05.83-.02,1.67.08,2.5.41,2.19,2.13,3.91,4.33,4.31.58.12.89.1.89.13-.3.04-.6.04-.9,0-.87-.13-1.69-.48-2.4-1-1.14-.81-1.93-2.03-2.21-3.4-.11-.85-.15-1.7-.12-2.56v-2.84c0-4,0-8.75-.06-14v-8.27c-.07-1.54.48-3.04,1.52-4.18,2.14-2.32,5.75-2.47,8.07-.33.12.11.23.22.33.33,1.04,1.14,1.58,2.64,1.52,4.18v8.27c0,5.26,0,10-.06,14v2.84c.03.86-.01,1.71-.13,2.56-.28,1.37-1.07,2.59-2.21,3.4-.7.52-1.52.87-2.39,1-.34.05-.68.05-1.02,0Z"/>
    <path class="st0" d="M537.41,146h0c-3.01,0-5.45-2.43-5.46-5.44v-26.92c0-3.02,2.44-5.46,5.46-5.46h0c3.02,0,5.46,2.44,5.46,5.46h0v26.9c0,3.01-2.43,5.45-5.44,5.46,0,0-.01,0-.02,0Z"/>
    <path class="st4" d="M537.41,146s.31,0,.88-.13c2.2-.41,3.92-2.12,4.34-4.31.09-.83.12-1.67.08-2.5v-2.84c0-4,0-8.75-.06-14v-8.27c.06-1.41-.44-2.78-1.39-3.82-.98-1.07-2.37-1.68-3.82-1.68-1.45,0-2.83.61-3.82,1.67-.95,1.04-1.45,2.42-1.39,3.83v8.27c0,5.26,0,10-.06,14v2.84c-.04.83-.01,1.67.08,2.5.42,2.19,2.14,3.9,4.34,4.31.57.12.88.1.88.13-.3.04-.6.04-.9,0-.87-.13-1.69-.48-2.39-1-1.15-.81-1.94-2.03-2.21-3.4-.12-.85-.16-1.7-.13-2.56v-25.11c-.06-1.54.48-3.04,1.52-4.18,2.14-2.32,5.75-2.47,8.07-.33.12.11.23.22.33.33,1.04,1.14,1.59,2.64,1.52,4.18v8.27c0,5.26,0,10-.05,14v2.84c.03.86,0,1.71-.13,2.56-.27,1.37-1.06,2.59-2.21,3.4-.7.52-1.52.87-2.39,1-.36.06-.73.06-1.09,0Z"/>
    <path class="st4" d="M167.31,60.71c2.29-1.4,3.02-4.39,1.62-6.68-.22-.36-.48-.69-.79-.98-.83-.8-1.93-1.29-2.71-2.15-.59-.76-1.1-1.57-1.53-2.43-1.72-2.62-4.59-4.26-7.72-4.41-3.11-.12-6.16.91-8.56,2.9-.86.85-1.88,1.53-3,2-1.16.21-2.35.26-3.53.15-4.45.12-7.96,3.83-7.84,8.28.04,1.41.45,2.79,1.19,3.99-3.56,1.41-5.31,5.44-3.9,9.01,1.08,2.73,3.75,4.48,6.68,4.38,1.98-.21,3.9-.81,5.64-1.77,7.35-3.44,15.06-6.01,23-7.67"/>
    <path class="st3" d="M136.27,111c-3.97-4.26-6.31-9.78-6.62-15.59-.29-5.76.54-13,4-17.54-2.52-2.66-1.53-5.67.22-8.9s4.88-5.47,8.14-7.13c4.88-2.49,10.23-3.94,15.7-4.24,4.45-.24,10.38.43,11,3.63.48,1.73-.07,3.58-1.41,4.77,3.1.98,5.95,2.64,8.34,4.85,5.63,5.25,7.87,10.6,7.21,16.62s-1.89,10.7-5.44,14.55"/>
    <path class="st10" d="M174,109.17c.62-.64,1.38-1.12,2.22-1.4h-.22c.15-.04.31-.06.47-.07.58-.16,1.2-.07,1.71.25h0c.96.36,1.74,1.08,2.18,2,.72,1.64.46,3.55-.67,4.94-.92,1.25-2.48,1.86-4,1.56-1.36-.45-2.39-1.6-2.69-3-.42-1.5-.04-3.12,1-4.28Z"/>
    <path class="st2" d="M176.88,89.7c-.54-7.64-5.67-17-13.28-16.13l-23.75,6.18c-2.32.24-4.07,2.23-4,4.57l2.93,57.36h-.16s5.49,16.15,21.2,11.14c3.11-1,4.52-4.41,5.12-7.92h.16v-1.21c.3-2.62.32-5.26.06-7.88h0c0-4.63,0-6.53,0-6.48s9.76-1.69,11.7-14.45c1-6.29.61-16.68.02-25.18Z"/>
    <path class="st4" d="M172.33,99.38c.01.89-.68,1.62-1.57,1.66-.85.08-1.61-.55-1.69-1.4,0-.02,0-.04,0-.06-.02-.89.68-1.62,1.56-1.66.86-.07,1.62.57,1.7,1.43,0,0,0,.02,0,.03Z"/>
    <path class="st4" d="M174.66,95.13c-.2.21-1.45-.7-3.2-.68s-3.05.91-3.24.69.11-.48.67-.89c.76-.54,1.66-.82,2.59-.82.91,0,1.81.28,2.55.81.54.41.73.76.63.89Z"/>
    <path class="st4" d="M155.83,99.38c.02.89-.68,1.63-1.57,1.66-.86.07-1.61-.56-1.69-1.42,0-.01,0-.03,0-.04-.02-.89.68-1.62,1.56-1.66.86-.07,1.62.57,1.7,1.43,0,0,0,.02,0,.03Z"/>
    <path class="st4" d="M157.37,95.57c-.2.22-1.45-.69-3.21-.67s-3,.9-3.23.69.11-.48.67-.9c.76-.53,1.66-.81,2.59-.81.91-.02,1.81.27,2.55.8.54.41.73.8.63.89Z"/>
    <path class="st4" d="M163.84,108.58c.93-.3,1.89-.48,2.86-.54.45-.05.87-.14.94-.45.04-.46-.06-.93-.3-1.33-.43-1.08-.88-2.22-1.36-3.41-1.87-4.86-3.24-8.85-3-8.93s1.88,3.81,3.76,8.67l1.26,3.41c.29.54.38,1.16.25,1.76-.13.32-.4.57-.74.66-.25.07-.5.11-.76.11-.96.14-1.94.16-2.91.05Z"/>
    <path class="st1" d="M165.2,129.39c-6,.15-11.92-1.37-17.1-4.39,0,0,4.2,8.73,17,7.45l.1-3.06Z"/>
    <path class="st1" d="M163.61,112.76c-.81-1.17-2.15-1.87-3.57-1.87-.93.02-1.8.5-2.31,1.28-.52.88-.49,1.98.06,2.84.66.89,1.79,1.29,2.86,1,.98-.32,1.86-.88,2.58-1.62.23-.18.42-.4.55-.66.14-.29.12-.63-.07-.89"/>
    <path class="st4" d="M158.68,109.83c.28,0,.3,1.89,1.94,3.23s3.68,1.12,3.69,1.39c0,.12-.45.37-1.31.4-1.11.04-2.2-.31-3.08-1-.84-.67-1.38-1.65-1.51-2.71-.08-.85.13-1.32.27-1.31Z"/>
    <path class="st4" d="M158.05,90.8c-.17.48-1.93.26-4,.53s-3.73.83-4,.4c-.12-.2.16-.65.83-1.12,1.82-1.17,4.08-1.43,6.12-.71.73.3,1.12.67,1.05.9Z"/>
    <path class="st4" d="M174,90c-.31.4-1.52,0-3,0s-2.69.28-3-.13c-.12-.21.07-.61.61-1,.71-.47,1.56-.7,2.41-.67.86,0,1.69.28,2.38.79.54.44.71.85.6,1.01Z"/>
    <path class="st3" d="M165.33,77.2s-12-.18-21,13.33c-6,8.9-7.22,20.07-7.22,20.07l-4.62-21.26,3.46-9.7,8.25-4.64,15.69-.88,5.91,2.88"/>
    <path class="st3" d="M141.89,78.31c19.05-4.59,34.29,1.69,37.11,16.69l3.88-9.83-9.95-11.97-10.84-2.82-21.85,3.32,1.65,4.61Z"/>
    <path class="st10" d="M134.18,109.22c.67-.69,1.48-1.2,2.39-1.51h-.18c.17-.04.34-.06.51-.08.62-.17,1.29-.07,1.84.27h0c1.02.39,1.85,1.15,2.34,2.13.77,1.77.49,3.82-.72,5.32-1.25,1.82-3.74,2.29-5.56,1.04-.87-.6-1.47-1.51-1.67-2.55-.47-1.62-.07-3.36,1.05-4.62Z"/>
    <path class="st5" d="M138.68,102.41c-.3-.03-.6-.14-.85-.31-1.84-1.11-2.77-3.27-2.3-5.37.15-.68.41-1.35.52-2,.15-.68-.04-1.39-.51-1.9-.56-.48-1.18-.87-1.86-1.16-.67-.33-1.26-.79-1.74-1.35-.8-.97-1.27-2.15-1.37-3.4-.07-.83.05-1.67.37-2.44.1-.29.25-.56.46-.78-.4,1.01-.55,2.1-.46,3.18.13,1.15.61,2.24,1.37,3.12.45.51,1,.92,1.61,1.21.73.31,1.41.73,2,1.25.59.62.83,1.5.64,2.34-.13.76-.4,1.43-.56,2.06-.29,1.13-.14,2.32.42,3.34.37.69.89,1.29,1.53,1.75.25.14.5.29.73.46Z"/>
    <path class="st5" d="M135.36,76.48c-.38.95-.58,1.97-.57,3,.05,1.1.39,2.16,1,3.07.83,1.06,1.85,1.95,3,2.65.61.44,1.13,1,1.51,1.65.33.64.47,1.36.4,2.07-.21,1.1-.36,2.21-.43,3.32,0,.74.27,1.45.76,2,.37.36.69.39.68.45-.08.02-.15.02-.23,0-.21-.05-.41-.14-.58-.28-.6-.54-.96-1.29-1-2.1.02-1.13.13-2.26.32-3.38.05-.62-.08-1.25-.37-1.8-.35-.58-.82-1.08-1.38-1.47-1.2-.74-2.26-1.69-3.12-2.81-.62-.99-.94-2.15-.93-3.32,0-.78.16-1.55.48-2.27.23-.57.44-.8.46-.78Z"/>
    <path class="st5" d="M148.76,85.54s-.14.2-.51.12c-.22-.05-.41-.18-.55-.35-.19-.23-.29-.52-.29-.82.08-.67.2-1.34.35-2,.05-.67-.54-1.26-1.29-1.63-.8-.33-1.5-.85-2.06-1.51-.43-.56-.73-1.22-.86-1.92-.17-.63-.1-1.3.19-1.89.01.61.07,1.21.17,1.81.17.62.46,1.2.87,1.7.54.59,1.2,1.05,1.94,1.35.42.2.79.48,1.09.83.3.35.46.81.43,1.28-.09.85-.46,1.43-.46,2-.05.41.16.81.53,1,.26.07.44-.01.45.03Z"/>
    <path class="st5" d="M152.4,75.17s.12,0,.27.1c.18.2.27.47.23.74-.07.34-.17.68-.31,1-.1.35-.1.73,0,1.08.21.67.57,1.29,1.06,1.79.38.43.61.71.56.76s-.36-.12-.82-.49c-.63-.49-1.09-1.17-1.31-1.94-.11-.45-.09-.92.07-1.36.15-.39.34-.66.4-.89.06-.27,0-.56-.15-.79Z"/>
    <path class="st5" d="M171.46,68.21s0,.2-.21.51-.47.73-.74,1.26c-.31.62-.37,1.34-.16,2,.32.86.53,1.75.61,2.66.02.95-.26,1.89-.78,2.68-.42.65-1,1.17-1.69,1.52-.59.38-1.3.53-2,.44.63-.19,1.25-.45,1.83-.76,1.34-.83,2.15-2.3,2.13-3.87-.09-.87-.27-1.73-.55-2.56-.22-.76-.11-1.58.29-2.27.27-.42.57-.82.9-1.2.21-.28.33-.43.37-.41Z"/>
    <path class="st5" d="M180.53,77.12c.08.09-.57.38-.8,1.32-.12.49-.35,1.07-.53,1.68-.16.72-.4,1.43-.7,2.1-.67,1.25-1.93,2.07-3.35,2.17-.57.09-1.15-.03-1.63-.34.53.03,1.06.03,1.59,0,1.23-.2,2.3-.95,2.89-2.05.29-.65.52-1.32.7-2,.22-.66.48-1.17.64-1.66.14-.4.39-.75.73-1,.29-.2.44-.24.46-.22Z"/>
    <path class="st5" d="M182.26,89.88c.06,0,0,.33-.26.73-.77,1.07-2.18,1.44-3.37.89-.44-.21-.62-.45-.58-.51.74.23,1.52.29,2.29.17,1.24-.33,1.79-1.36,1.92-1.28Z"/>
    <path class="st5" d="M160.13,66.31c.05.08-.54.38-1.07,1.22-.69,1.08-.81,2.43-.32,3.61.41.65.66,1.4.72,2.17-.04.65-.28,1.27-.7,1.77-.68.83-1.27,1.13-1.3,1.09s.44-.48,1-1.3c.32-.46.5-1,.52-1.56-.09-.71-.33-1.4-.72-2-.32-.73-.41-1.53-.26-2.31.12-.62.38-1.21.76-1.72.67-.82,1.36-1.02,1.37-.97Z"/>
    <path class="st5" d="M148.13,75.5c-.15-.06.24-1.2.25-2.64s-.34-2.58-.2-2.64c.98,1.63.96,3.67-.05,5.28Z"/>
    <path class="st5" d="M139.27,74.28s.11-.14.22-.39c.15-.36.18-.76.1-1.14-.18-1-1.18-2.1-2-3.53-.41-.68-.67-1.44-.78-2.23-.1-.66,0-1.34.3-1.94.18-.43.49-.78.9-1,.3-.13.48-.1.48-.07s-.15.09-.38.25c-.31.24-.54.57-.67.94-.41,1.3-.2,2.71.56,3.83.79,1.36,1.8,2.55,1.93,3.73.07.45-.03.92-.28,1.3-.18.23-.37.27-.38.25Z"/>
    <path class="st5" d="M151.4,68.53s.08-.16.27-.39c.29-.26.49-.61.56-1-.12-.56-.42-1.07-.85-1.45-.47-.5-1.09-1-1.72-1.51-.66-.5-1.14-1.2-1.35-2-.05-.68.12-1.35.47-1.93.25-.54.61-1.02,1.06-1.41-.2.54-.44,1.07-.73,1.57-.27.53-.38,1.11-.33,1.7.23.67.65,1.26,1.22,1.69,1.19,1,2.55,2,2.59,3.38-.11.46-.4.85-.79,1.11-.23.18-.37.27-.4.24Z"/>
    <path class="st5" d="M163.21,66.43c.34-.31.58-.7.69-1.14.08-.48.02-.97-.18-1.41-.26-.57-.57-1.12-.93-1.63-.39-.55-.66-1.18-.8-1.84-.07-.57.06-1.16.36-1.65.47-.86,1.16-1,1.16-.92-.36.29-.64.67-.83,1.09-.21.43-.29.92-.21,1.39.15.6.41,1.16.76,1.66.38.54.69,1.12.94,1.73.21.53.24,1.12.08,1.67-.1.38-.33.7-.65.93-.23.14-.38.15-.39.12Z"/>
    <path class="st4" d="M167.3,66c-.48.07-.97.1-1.46.07-.93,0-2.28,0-4,.15-4.33.33-8.59,1.3-12.63,2.9-4.01,1.67-7.85,3.73-11.45,6.16l-3.3,2.21c-.39.29-.8.55-1.23.77.34-.35.72-.66,1.12-.94.73-.58,1.82-1.38,3.2-2.34,3.57-2.54,7.42-4.67,11.47-6.35,4.09-1.62,8.41-2.56,12.8-2.78,1.33-.07,2.67-.07,4,0,.5,0,.99.06,1.48.15Z"/>
    <path class="st4" d="M137.23,77.81h.12l.36-.15.57-.26.8-.3c1.71-.63,3.48-1.06,5.29-1.27,2.66-.33,5.34-.33,8,0,1.51.18,3.08.47,4.71.8s3.29.74,5,1.25c6.77,2,12,6.22,14.33,10.15.94,1.56,1.65,3.24,2.1,5,.16.62.26,1.11.33,1.44l.08.38s0,.09,0,.13v-.13c0-.13,0-.23-.05-.39,0-.33-.13-.83-.28-1.46-.4-1.79-1.07-3.5-2-5.08-2.33-4-7.6-8.34-14.42-10.32-1.69-.52-3.37-.92-5-1.26s-3.21-.61-4.73-.78c-2.69-.34-5.42-.34-8.11,0-1.83.26-3.62.74-5.33,1.44l-.79.33-.57.28-.34.18s-.07.01-.07.02Z"/>
    <path class="st4" d="M162.16,77.84c-.14-.02-.27-.02-.41,0-.28,0-.67.07-1.18.16-1.44.27-2.83.74-4.15,1.38-4.31,2.21-8.03,5.42-10.84,9.36-1.52,2.17-2.86,4.46-4,6.85-.98,1.93-1.84,3.91-2.58,5.94-.5,1.37-.91,2.77-1.22,4.2-.1.51-.17.9-.2,1.17-.01.14-.01.27,0,.41.04-.13.07-.26.09-.4,0-.27.14-.66.25-1.16.35-1.41.78-2.8,1.31-4.15.77-2.01,1.65-3.98,2.63-5.89,1.14-2.37,2.48-4.64,4-6.79,2.79-3.91,6.45-7.11,10.69-9.35,1.3-.65,2.67-1.14,4.08-1.46.5-.1.89-.18,1.16-.21l.37-.06Z"/>
    <polygon class="st2" points="109.77 340.71 123.74 455.9 142.88 455.9 142.35 334.79 109.77 340.71"/>
    <path class="st2" d="M166.65,338.78l-.41,32.91c-2.09,4.46-28.87,53.9-28.87,53.9l-12.22-25.31,27.25-58.28,14.25-3.22Z"/>
    <path class="st1" d="M142.76,354.7c.17,0,.32,22.2.32,49.58s-.15,49.59-.32,49.59-.32-22.2-.32-49.59.14-49.58.32-49.58Z"/>
    <path class="st3" d="M143.54,453h0s22.26,7.15,22.58,10.87l-42.77.67-.24-10.22,1.57.31c6.32,1.22,12.85.66,18.86-1.63Z"/>
    <g class="st7">
      <path class="st5" d="M128.09,456.18c-.82.2-1.34,1.01-1.18,1.84.3.82,1.16,1.28,2,1.08.89-.22,1.44-1.11,1.23-2-.4-.81-1.34-1.2-2.2-.91"/>
    </g>
    <g class="st7">
      <path class="st5" d="M123.35,464.56l.06-3.17,41,.55s1.92.73,1.73,1.95l-42.79.67Z"/>
    </g>
    <path class="st4" d="M144.23,452.81c0,.19-1,.29-2.07.92s-1.55,1.44-1.74,1.37.1-1.18,1.34-1.92,2.51-.55,2.47-.37Z"/>
    <path class="st4" d="M148.74,454.43c0,.19-.84.53-1.54,1.34s-.88,1.68-1.09,1.67-.36-1.08.52-2.08,2.1-1.11,2.11-.93Z"/>
    <path class="st4" d="M151.38,459.3c-.19,0-.5-.91,0-2s1.49-1.48,1.58-1.33-.51.73-.91,1.6-.46,1.71-.67,1.73Z"/>
    <path class="st4" d="M143.76,452.71c-.7.17-1.44.17-2.14,0-.77-.11-1.53-.31-2.26-.6-.43-.16-.84-.35-1.24-.57-.24-.12-.46-.27-.65-.45-.28-.26-.33-.68-.12-1,.22-.28.55-.45.91-.46.27,0,.54.03.81.09.45.1.9.23,1.33.4.72.28,1.39.67,2,1.15,1,.83,1.36,1.53,1.29,1.57s-.59-.52-1.61-1.2c-.6-.4-1.25-.71-1.93-.95-.4-.14-.81-.25-1.23-.33-.46-.1-.84-.1-1,.09s0,.1,0,.22c.15.13.31.24.49.32.37.21.75.41,1.14.58.67.29,1.37.52,2.08.69.72.09,1.43.24,2.13.45Z"/>
    <path class="st4" d="M143.49,453c-.41-.54-.62-1.2-.6-1.88-.05-.72.03-1.45.25-2.14.13-.42.31-.82.53-1.2.25-.54.76-.92,1.35-1,.38,0,.72.2.9.53.12.23.19.47.23.72.07.43.07.88,0,1.31-.11.73-.42,1.42-.88,2-.81,1-1.68,1.27-1.7,1.2s.65-.47,1.27-1.45c.36-.56.58-1.19.64-1.85.04-.38.02-.76-.06-1.13-.07-.42-.25-.75-.42-.7s-.57.31-.73.65c-.21.34-.39.7-.52,1.07-.22.63-.35,1.29-.37,1.95-.01,1.16.22,1.92.11,1.92Z"/>
    <path class="st10" d="M138.12,132.26c-2.26.65-8.13,4.29-14.54,13.64s-6.47,27.83-3.51,43.19c2.42,12.6,4.21,17.22,3.51,23.39-.36,3.15-17.69,29.37-20.39,45.72l65.81-18.31,9.35-91.23-13-12.28-27.35-10.07.12,5.95Z"/>
    <path class="st4" d="M140.94,139.86c-1.4,0-2.8.11-4.19.33-6.88,1.26-11.95,7.16-12.14,14.16-.01,1.4.09,2.8.31,4.19-.17-.34-.29-.71-.35-1.09-.23-1.02-.34-2.06-.33-3.11,0-7.25,5.28-13.41,12.44-14.51,1.03-.17,2.08-.22,3.12-.15.39.01.77.07,1.14.18Z"/>
    <path class="st4" d="M163.88,143.15c-.35-.11-.69-.27-1-.47l-2.65-1.41c-2.24-1.19-5.35-2.79-8.89-4.32-3.03-1.3-6.12-2.43-9.28-3.38-2.43-.72-4-1.08-3.94-1.17.37,0,.74.06,1.1.15.7.12,1.7.35,2.93.66,3.21.85,6.35,1.94,9.39,3.26,3.04,1.32,6,2.81,8.87,4.48,1.09.63,2,1.17,2.57,1.56.32.18.63.39.9.64Z"/>
    <path class="st2" d="M196.64,127.8c-.73-1.36-2.05-2.31-3.58-2.57-.83-.1-1.68,0-2.49-.11-.85-.27-1.69-.6-2.49-1-1.41-.49-2.96-.38-4.29.3-1.9-.93-4.19-.14-5.12,1.76-.05.11-.1.23-.15.34l7.58,6.48c.32,1.09.38,2.25.16,3.37-.21,1.12-.17,2.28.14,3.38.34,1.12,1.43,1.85,2.6,1.75,1.29-.25,1.88-1.73,2.2-3,.57-2.32.97-4.68,1.18-7.06-.09.95,0,1.92.26,2.84.28.93,1.05,1.63,2,1.81.93.04,1.8-.44,2.26-1.25.44-.81.67-1.71.66-2.63.1-1.53-.22-3.05-.92-4.41Z"/>
    <path class="st10" d="M126.7,171.62c.31.68,15,49.4,25.65,53.85.39.17.77.32,1.15.45,6.3,2.27,13.25-1,15.52-7.3.07-.21.14-.41.21-.62,3.49-11.57,10.69-37.53,10.69-54.77l-14.64-6.31-7.67,29.21s-5.66-8.05-5.91-16.47-4.95-29.94-17.32-27.72c0-.02-17.82,7.16-7.68,29.68Z"/>
    <path class="st4" d="M152.46,204.82c-.16-.21-.28-.45-.35-.71-.24-.68-.4-1.39-.49-2.11-.25-2.37.04-4.76.86-7,.82-2.22,1.91-4.35,3.22-6.32.49-.85,1.06-1.65,1.7-2.39-.39.9-.86,1.76-1.39,2.58-1.19,2-2.19,4.11-3,6.3-.8,2.18-1.14,4.51-1,6.83.12,1.74.54,2.79.45,2.82Z"/>
    <path class="st2" d="M166.05,157.33l1.53-7.82s-3.77-7.38-4.13-9.66-.6-7.62-.6-7.62l3.18-2.47,2.87-.79s1.32-4,3.12-3.36c1.04.33,1.94,1,2.53,1.92,0,0,2.28-2.4,3.72-2s1,1.38,1,1.38c0,0,1.37-2,2.57-1.43.7.34,1.29.88,1.68,1.55,0,0,2.16-2.24,3.48-1.66s1.2,13,0,16.59-6.12,12.09-6.12,12.09l-2.08,8.67-12.75-5.39Z"/>
    <path class="st1" d="M180.91,154.07c.08-.21.18-.41.29-.6l.91-1.71c.79-1.49,2-3.65,3.29-6.41.33-.69.67-1.42,1-2.2.35-.79.61-1.62.77-2.47.32-1.92.5-3.86.55-5.8.08-2.18.04-4.36-.13-6.53-.05-.57-.13-1.13-.24-1.69-.05-.27-.13-.54-.24-.79-.03-.09-.08-.18-.16-.24-.1-.05-.2-.07-.31-.08-.55.03-1.08.22-1.52.55-.5.33-.96.71-1.38,1.13l-.24.24-.17-.3c-.2-.36-.47-.67-.79-.93-.3-.28-.66-.47-1.05-.58-.72,0-1.46.73-2,1.42l-1.06,1.46.61-1.71c.07-.21.02-.44-.12-.61-.19-.2-.43-.34-.7-.4-.58-.1-1.18.05-1.65.4-.68.42-1.3.92-1.86,1.49l-.23.24-.18-.29c-.36-.56-.84-1.02-1.41-1.35-.28-.17-.58-.31-.89-.42-.26-.11-.54-.11-.8,0-.54.33-.98.8-1.26,1.37-.33.56-.6,1.15-.82,1.76v.13h-.13l-2.87.78h.08l-3.2,2.49.09-.2c.09,1.84.19,3.61.33,5.29.07.84.14,1.67.28,2.45.18.75.42,1.49.71,2.2,1.13,2.82,2.32,5.25,3.31,7.28v.05h0c-.51,2.43-.91,4.37-1.2,5.75-.14.63-.25,1.13-.34,1.52-.03.18-.08.35-.14.52,0-.18.03-.36.06-.54.07-.39.16-.9.26-1.53.26-1.39.62-3.34,1.06-5.78v.09c-1-2-2.26-4.43-3.43-7.26-.31-.74-.56-1.49-.75-2.27-.15-.82-.22-1.64-.3-2.49-.15-1.69-.27-3.46-.36-5.31v-.12l.1-.08,3.18-2.47h.14l2.86-.8-.17.16c.23-.65.52-1.27.86-1.86.33-.66.85-1.21,1.48-1.58.38-.16.81-.16,1.19,0,.35.12.68.27,1,.46.65.38,1.19.91,1.59,1.55l-.41-.06c.6-.61,1.27-1.14,2-1.58.6-.43,1.35-.59,2.08-.45.36.1.68.29.94.56.27.32.34.76.2,1.15l-.46-.24c.29-.4.62-.77,1-1.09.39-.37.91-.57,1.45-.55.26.04.51.13.73.28.21.12.41.26.59.41.37.31.68.68.92,1.1l-.41-.06c.44-.45.93-.86,1.46-1.2.53-.4,1.17-.61,1.83-.62.19,0,.37.05.54.14.16.12.28.28.35.47.12.28.22.58.27.89.11.58.19,1.16.24,1.75.16,2.19.19,4.39.09,6.59-.07,1.97-.27,3.92-.61,5.86-.17.87-.45,1.72-.82,2.53-.33.78-.69,1.51-1,2.2-1.37,2.76-2.59,4.89-3.42,6.35l-1,1.67c-.14.19-.29.36-.46.52Z"/>
    <path class="st1" d="M168.17,132.53c-.29-.6-.34-1.29-.15-1.93.18-1.07.67-1.82.79-1.76s-.11.86-.28,1.85-.21,1.82-.36,1.84Z"/>
    <path class="st1" d="M174.63,130.54c-.14,0-.29-.71-.32-1.6s.05-1.61.19-1.62.29.71.33,1.6-.06,1.61-.2,1.62Z"/>
    <path class="st1" d="M178.88,130.83c-.15,0,0-1,.18-2.17,0-.73.11-1.45.32-2.15.3.7.37,1.47.19,2.21,0,.76-.24,1.5-.69,2.11Z"/>
    <path class="st1" d="M183.45,130.25c-.14-.05,0-.75,0-1.61s-.15-1.55,0-1.6.52.64.53,1.6c0,.96-.4,1.66-.53,1.61Z"/>
    <path class="st4" d="M146.7,147.12l.34.65c.21.43.53,1.08.86,1.95.97,2.56,1.65,5.22,2,7.93.57,3.5.75,7.84,1.73,12.73.57,2.6,1.32,5.15,2.24,7.64.97,2.81,2.27,5.49,3.86,8l-.36.07c2.26-8.64,4.84-18.51,7.63-29.22l.08-.27.26.11,14.66,6.29.15.07v.17c-.22,8.38-1.23,16.72-3,24.91-1.54,7.6-3.39,14.93-5.34,22l-1.49,5.21c-.42,1.73-1.04,3.41-1.85,5-1.76,3.08-4.72,5.29-8.18,6.09-3.28.82-6.75.2-9.55-1.7-1.24-.99-2.33-2.15-3.25-3.44-.91-1.22-1.75-2.49-2.53-3.8-2.76-4.81-5.19-9.8-7.27-14.93-3.89-9.38-6.52-17.16-8.31-22.54-.89-2.69-1.55-4.79-2-6.22-.21-.7-.37-1.24-.49-1.62s-.16-.56-.16-.56c.08.18.15.36.21.54l.54,1.61c.49,1.44,1.19,3.52,2.09,6.19,1.85,5.35,4.53,13.12,8.46,22.46,2.1,5.1,4.54,10.06,7.3,14.84.77,1.3,1.6,2.55,2.51,3.76.9,1.26,1.97,2.38,3.18,3.35,2.69,1.8,6.02,2.38,9.16,1.6,3.32-.79,6.17-2.92,7.86-5.88.79-1.57,1.39-3.22,1.79-4.93l1.49-5.21c1.94-7,3.78-14.35,5.32-21.93,1.77-8.16,2.77-16.46,3-24.81l.16.23-14.64-6.31.33-.17c-2.82,10.7-5.43,20.57-7.71,29.2l-.11.43-.25-.36c-1.6-2.54-2.9-5.25-3.88-8.08-.91-2.51-1.65-5.09-2.2-7.71-1-4.93-1.1-9.27-1.64-12.76-.35-2.7-.99-5.35-1.93-7.91-.24-.68-.51-1.35-.81-2-.17-.44-.26-.67-.26-.67Z"/>
    <path class="st4" d="M119,221.56s-17.27,18.33-21.16,38.7c-4.69,24.49,9.43,102,9.43,102,0,0,8.88,3.38,15.81,5.23,6.75,1.81,21.32-4.26,30.56-5.69s12.57,9.87,12.57,9.87c0,0,4.1-93.88,3.26-102.66s0-36.22,0-36.22l-50.47-11.23Z"/>
    <path class="st10" d="M169.5,232.81c-.02.12-.06.24-.1.36l-.33,1.05c-.31.94-.75,2.28-1.32,4-1.16,3.47-2.85,8.48-5,14.64-2.15,6.16-4.84,13.47-7.91,21.55s-6.68,16.87-10.71,26-8.24,17.65-12.3,25.28l-3.08,5.52c-.5.9-1,1.78-1.48,2.64s-1,1.69-1.51,2.51l-2.89,4.76c-.94,1.52-1.92,2.92-2.81,4.29s-1.75,2.67-2.59,3.88l-2.47,3.35-2.14,2.92c-.67.88-1.34,1.65-1.91,2.36l-2.68,3.25-.7.84c-.08.1-.17.19-.26.27.07-.11.14-.21.22-.31l.66-.87c.62-.78,1.49-1.88,2.6-3.3.56-.72,1.22-1.5,1.87-2.39l2.11-2.94c.75-1.06,1.56-2.18,2.42-3.38s1.66-2.53,2.55-3.89,1.85-2.78,2.78-4.3l2.86-4.77,1.5-2.51,1.46-2.64,3.06-5.52c4-7.64,8.18-16.18,12.25-25.28s7.58-17.91,10.73-25.95,5.82-15.35,8-21.5,4-11.14,5.18-14.58c.61-1.7,1.08-3,1.41-4l.38-1c.04-.12.09-.23.15-.34Z"/>
    <path class="st10" d="M169.06,241.39c-.2.02-.39.02-.59,0h-1.7c-.74,0-1.64,0-2.68-.07s-2.25-.09-3.56-.2c-2.64-.17-5.76-.54-9.22-1s-7.23-1.2-11.16-2c-7.88-1.68-14.92-3.59-20-4.94l-6-1.65-1.63-.47c-.2-.04-.38-.11-.56-.2.2.01.39.04.58.1l1.66.38,6.06,1.48c5.12,1.26,12.17,3.11,20,4.79,3.92.84,7.69,1.54,11.12,2.07s6.56.91,9.18,1.12c1.31.14,2.5.2,3.54.28s1.94.13,2.68.15l1.69.1c.2,0,.4.02.59.06Z"/>
    <path class="st10" d="M168.92,237.22c0,.13,0,.25,0,.38,0,.28,0,.66.07,1.13,0,1,.1,2.46.14,4.35s0,4.21-.14,6.89c-.18,3.04-.65,6.06-1.43,9-.48,1.71-1.1,3.38-1.84,5-.42.82-.83,1.68-1.33,2.5s-1,1.65-1.61,2.47c-2.23,3.25-5,6.64-5.93,11s-.93,9.14-2.89,13.72-6,7.93-8.82,12.19c-1.44,2.07-2.29,4.49-2.46,7-.05,2.45.16,4.91.62,7.32.45,2.37.59,4.79.42,7.19-.16,1.18-.5,2.32-1,3.4-.52,1.04-1.19,1.99-2,2.83-1.58,1.53-3.34,2.85-5.25,3.94-1.77,1.02-3.47,2.17-5.08,3.42-3.11,2.48-4.57,6-5.81,9.12s-2.34,6.05-4.08,8.16c-1.42,1.85-3.31,3.27-5.48,4.13-1.37.55-2.88.65-4.31.28-.37-.1-.72-.24-1.06-.41-.12-.05-.23-.11-.34-.19l.36.14c.34.15.7.27,1.06.35,1.41.33,2.89.2,4.22-.36,2.11-.87,3.95-2.29,5.32-4.12,1.69-2.07,2.74-5,4-8.12.62-1.66,1.36-3.28,2.2-4.85.47-.83,1-1.62,1.59-2.36.63-.76,1.33-1.46,2.09-2.1,1.62-1.27,3.33-2.44,5.11-3.48,1.88-1.07,3.61-2.37,5.16-3.88.75-.81,1.38-1.72,1.87-2.71.46-1.03.77-2.13.91-3.25.16-2.36.01-4.74-.44-7.06-.47-2.44-.68-4.93-.62-7.42.18-2.6,1.05-5.1,2.53-7.24,2.85-4.35,6.83-7.69,8.79-12.12s1.78-9.26,2.89-13.62c.52-2.14,1.39-4.19,2.57-6.05,1.11-1.82,2.35-3.46,3.48-5.09.56-.81,1.1-1.62,1.6-2.43s.91-1.65,1.33-2.47c.74-1.59,1.36-3.23,1.84-4.92.79-2.93,1.29-5.93,1.5-8.95.2-2.67.23-5,.23-6.87s0-3.32-.05-4.35v-1.11c0-.13.03-.26.07-.38Z"/>
  </g>
  <g id="freepik--Plant--inject-201">
    <path class="st3" d="M650.84,435.26c-2.65-.13-3.42-3.86-2.44-6.32s2.93-4.64,3-7.28c0-2.3-1.44-4.39-1.58-6.68-.25-4.13,3.75-7.5,3.92-11.64.13-3.22-2.11-6.3-1.57-9.48.58-3.41,4.15-5.66,5-9,.87-3.59-1.61-7.38-.66-10.94s5.13-6.16,4.54-9.79c-.36-1.16-.77-2.3-1.25-3.42-.75-2.7.73-5.52,2.52-7.69s4-4.08,5.09-6.66c1.69-4,.51-8.79,2.52-12.61,1.67-3.17,5.39-5.31,5.86-8.87,1.88,3.2,0,7.28.47,11,.28,2.41,1.52,4.58,2.29,6.88,1.56,4.77,1.05,9.97-1.4,14.34-1.62,2.84-4.11,5.52-4,8.78.16,4,4.11,6.82,4.81,10.72,1,5.57-4.93,10.58-4.11,16.18.21,1.44.87,2.8,1,4.26.43,4.95-5.19,8.45-6,13.34-.63,3.6,1.45,7.33.59,10.88-.66,2.74-3,5.2-2.45,8,.4,1.16.9,2.27,1.51,3.33.93,2.2.54,4.74-1,6.57-1.62,1.78-4.19,2.31-6.38,1.31"/>
    <g class="st8">
      <path class="st5" d="M668.38,432.49c-.61-1.06-1.11-2.17-1.51-3.33-.58-2.75,1.79-5.21,2.45-8,.86-3.55-1.22-7.28-.59-10.88.85-4.89,6.47-8.39,6-13.34-.12-1.46-.78-2.82-1-4.26-.82-5.6,5.11-10.61,4.11-16.18-.7-3.9-4.65-6.76-4.81-10.72-.12-3.26,2.37-5.94,4-8.78,2.45-4.37,2.96-9.57,1.4-14.34-.77-2.3-2-4.47-2.29-6.88-.43-3.69,1.41-7.77-.47-11-.47,3.56-4.19,5.7-5.86,8.87-2,3.82-.83,8.65-2.52,12.61-1.11,2.58-3.3,4.5-5.09,6.66s-3.27,5-2.52,7.69c.48,1.12.89,2.26,1.25,3.42.59,3.63-3.59,6.24-4.54,9.79s1.53,7.35.66,10.94c-.81,3.36-4.38,5.61-5,9-.54,3.18,1.7,6.26,1.57,9.48-.17,4.14-4.17,7.51-3.92,11.64.14,2.29,1.6,4.38,1.58,6.68,0,2.64-2,4.83-3,7.28s-.21,6.19,2.44,6.32l10.28,5.21c2.19,1,4.76.47,6.38-1.31,1.54-1.83,1.93-4.37,1-6.57Z"/>
    </g>
    <path class="st3" d="M664.93,430.07c-.69-1.18-1.04-2.54-1-3.91.28-1.51,2.83-2.84,3.47-5.41.82-3.33-.66-9.21,0-12.57.86-4.56,5.58-7.57,5.39-12.1-.06-1.33.13-4.89,0-6.21-.51-5.1,4-8.53,3.32-13.59-.45-3.54-4.12-7.69-4.13-11.32,0-3,2.15-5.63,3.58-8.35,2.15-4.08,2.73-8.81,1.62-13.29-.57-2.07-1.53-4-1.69-6.19-.24-3.37,1.42-7.25,0-10.07-.5,3.3-3.65,5.52-5.14,8.55-1.78,3.65-1,8-2.48,11.77-1,2.45-2.88,4.36-4.43,6.47s-2.86,4.8-2.33,7.24c.36,1.01.67,2.03.93,3.07.38,3.3-3.17,6-4.07,9.3s1,6.68.21,10c-.79,3.16-3.87,7.44-4.46,10.62-.55,3,2.13,4.9,1.92,7.88-.27,3.82-4.1,8.44-4,12.23,0,2.1,1.8,2.78,1.71,4.89-.11,2.44-2.15,7.28-3,9.61-.97,2.14-.72,4.63.64,6.54l11.35,5.63c4.92-2.38,4.66-7.31,2.59-10.79Z"/>
    <path class="st4" d="M672.57,344.33c0,.08,0,.17,0,.25v.74c0,.64,0,1.6-.12,2.83-.09,1.51-.43,2.99-1,4.39-.66,1.67-2.08,3.16-3.42,4.88-.73.89-1.27,1.91-1.61,3-.35,1.16-.5,2.37-.42,3.58.13,2.56.92,5.23,1.29,8.14.23,1.5.18,3.04-.15,4.52-.19.77-.49,1.51-.89,2.19-.43.64-.83,1.31-1.19,2-.51,1.49-.54,3.11-.07,4.61.16.79.34,1.61.44,2.45.09.85.07,1.71-.07,2.55-.32,1.65-.84,3.26-1.56,4.78-.68,1.45-1.26,2.94-1.76,4.46-.43,1.47-.56,3.02-.39,4.54.22,1.49.27,3.01.16,4.51-.26,1.42-.74,2.78-1.43,4.05-.63,1.17-1.12,2.4-1.44,3.69-.48,2.51.24,4.91.19,7.14-.13,2-.57,3.96-1.31,5.82-.53,1.39-.9,2.84-1.11,4.31-.12.93-.02,1.88.29,2.77.23.6.4.89.38.9-.19-.27-.35-.56-.47-.87-.34-.89-.47-1.86-.38-2.81.18-1.5.53-2.96,1.05-4.38.7-1.84,1.11-3.78,1.22-5.74,0-1.09-.15-2.23-.27-3.43-.19-1.26-.19-2.53,0-3.79.5-2.63,2.42-4.88,2.82-7.72.1-1.47.04-2.95-.17-4.41-.18-1.58-.05-3.17.39-4.7.88-3.09,2.76-5.91,3.3-9.19.15-.79.19-1.59.13-2.39-.1-.81-.27-1.61-.44-2.41-.48-1.6-.45-3.31.11-4.89.37-.69.78-1.36,1.23-2,.37-.64.66-1.34.84-2.06.32-1.43.37-2.92.15-4.37-.35-2.86-1.13-5.55-1.24-8.18-.08-1.27.07-2.54.45-3.76.38-1.1.95-2.11,1.7-3,1.38-1.73,2.77-3.17,3.44-4.78.58-1.37.95-2.82,1.08-4.3.14-1.22.17-2.18.2-2.83v-.73c-.01-.12,0-.25.05-.36Z"/>
    <path class="st3" d="M634.61,436.56c-3.7.54-5.8-4.42-5.1-8.09s2.78-7.23,2.1-10.9c-.6-3.19-3.19-5.68-4-8.82-1.48-5.66,3.13-11.42,2.23-17.2-.7-4.5-4.64-8.15-4.76-12.71-.13-4.89,4.19-9,4.4-13.86.22-5.2-4.26-9.77-3.92-15s5.43-9.94,3.61-14.8c-.6-1.61-1.89-2.86-2.66-4.4-1.78-3.54-.51-7.85,1.38-11.34s4.4-6.74,5.22-10.62c1.27-6-1.69-12.32,0-18.16,1.44-4.86,6-8.85,5.68-13.91,3.49,3.93,2,10.08,3.66,15.08,1,3.26,3.37,5.93,5.06,8.91,3.47,6.17,4.19,13.51,2,20.24-1.46,4.38-4.18,8.77-3.11,13.26,1.29,5.44,7.56,8.33,9.59,13.53,2.92,7.45-3.94,16-1.26,23.55.69,1.94,2,3.65,2.54,5.63,1.94,6.74-4.88,13.13-4.72,20.14.12,5.16,4,9.75,3.8,14.91-.17,4-2.77,8-1.21,11.69.67,1.59,2,2.77,3,4.2,1.88,2.79,2.05,6.41.43,9.36-1.75,2.91-5.18,4.36-8.49,3.57"/>
    <g class="st8">
      <path class="st5" d="M658.16,427.92c-1-1.43-2.33-2.61-3-4.2-1.56-3.66,1-7.71,1.21-11.69.22-5.16-3.68-9.75-3.8-14.91-.16-7,6.66-13.4,4.72-20.14-.57-2-1.85-3.69-2.54-5.63-2.68-7.54,4.18-16.1,1.26-23.55-2-5.2-8.3-8.09-9.59-13.53-1.07-4.49,1.65-8.88,3.11-13.26,2.19-6.73,1.47-14.07-2-20.24-1.69-3-4-5.65-5.06-8.91-1.61-5-.17-11.15-3.66-15.08.32,5.06-4.24,9.05-5.68,13.91-1.74,5.84,1.22,12.2,0,18.16-.82,3.88-3.33,7.14-5.22,10.62s-3.16,7.8-1.38,11.34c.77,1.54,2.06,2.79,2.66,4.4,1.82,4.86-3.26,9.62-3.61,14.8s4.14,9.77,3.92,15c-.21,4.89-4.53,9-4.4,13.86.12,4.56,4.06,8.21,4.76,12.71.9,5.78-3.71,11.54-2.23,17.2.82,3.14,3.41,5.63,4,8.82.68,3.67-1.41,7.23-2.1,10.9s1.4,8.63,5.1,8.09l15.49,4.29c3.31.79,6.74-.66,8.49-3.57,1.63-2.97,1.45-6.59-.45-9.39Z"/>
    </g>
    <path class="st3" d="M652.72,425.51c-1-1.12-2.46-3.59-2.48-5.14,0-2.17,3.14-4.71,3.32-8.44.23-4.84-3.45-12.59-3.49-17.42-.05-6.55,5.67-12,4.16-18.23-.45-1.83-1.16-6.82-1.7-8.6-2.1-6.94,3.17-12.91.88-19.75-1.6-4.78-7.83-9.53-8.82-14.55-.83-4.16,1.43-8.39,2.66-12.55,1.88-6.24,1.38-12.96-1.4-18.86-1.35-2.71-3.21-5.1-4-8.1-1.25-4.61,0-10.44-2.82-13.95.21,4.72-3.54,8.64-4.77,13.25-1.47,5.54.87,11.37-.22,17-.71,3.66-2.79,6.82-4.36,10.17s-2.68,7.43-1.27,10.66c.61,1.4,1.65,2.52,2.12,4,1.43,4.47-2.75,9.14-3.09,14s3.27,9,3,13.84c-.22,4.58-3.33,11.36-3.27,15.93,0,4.26,4.3,6.2,4.82,10.38.67,5.37-3.37,12.83-2.22,18.06.64,2.9,3.26,3.35,3.71,6.3.52,3.41-1,10.68-1.58,14.15s0,5.93,2.67,8.89l17.28,4.69c6.4-4.72,4.74-11.49.87-15.73Z"/>
    <path class="st4" d="M639.81,304.62c.41,1.76.71,3.54.89,5.33.26,2.11.19,4.25-.23,6.34-.29,1.3-.75,2.56-1.36,3.74-.62,1.27-1.37,2.55-2.05,3.94-.77,1.42-1.26,2.97-1.45,4.57-.17,1.74-.03,3.49.43,5.17.87,3.54,2.69,7,4,11,.71,2.01,1.05,4.14,1,6.27-.06,1.11-.27,2.2-.63,3.25-.43,1.01-.8,2.04-1.11,3.1-.53,2.14.28,4.37,1.17,6.46.44,1.07.91,2.14,1.27,3.27.36,1.15.56,2.34.61,3.54,0,2.36-.28,4.71-.86,7-.54,2.2-.94,4.44-1.21,6.69-.11,1.09-.11,2.18,0,3.27.14,1.07.36,2.12.68,3.15.71,2,1.2,4.07,1.45,6.18.03,2.03-.26,4.06-.87,6-.56,1.79-.89,3.65-1,5.52.05,1.75.36,3.48.92,5.14.52,1.55.95,3.12,1.3,4.72.27,1.47.34,2.97.21,4.46-.09,1.4-.26,2.72-.41,3.94-.34,2.08-.46,4.19-.34,6.29.1,1.33.5,2.61,1.17,3.76.49.77.82,1.12.8,1.14-.33-.34-.62-.7-.88-1.09-.71-1.15-1.15-2.45-1.27-3.79-.15-2.12-.06-4.24.26-6.34.15-1.23.31-2.54.38-3.93.12-1.46.04-2.94-.24-4.38-.29-1.51-.82-3-1.31-4.68-.59-1.69-.93-3.45-1-5.24.1-1.9.44-3.79,1-5.61.59-1.9.87-3.87.84-5.86-.26-2.08-.75-4.12-1.45-6.09-.33-1.05-.56-2.13-.69-3.22-.11-1.12-.11-2.24,0-3.36.26-2.27.67-4.52,1.21-6.74.57-2.26.85-4.58.85-6.91-.05-1.16-.25-2.3-.59-3.41-.35-1.1-.81-2.16-1.26-3.23-.47-1.06-.85-2.16-1.13-3.29-.28-1.13-.31-2.31-.06-3.45.32-1.1.7-2.18,1.15-3.24.34-1.01.55-2.06.61-3.13.04-2.08-.3-4.15-1-6.11-1.28-3.88-3.1-7.39-4-11-.46-1.73-.6-3.52-.4-5.3.2-1.64.71-3.23,1.5-4.68.7-1.4,1.46-2.67,2.08-3.92.6-1.16,1.06-2.39,1.37-3.66.42-2.06.53-4.18.3-6.27-.15-1.73-.37-3.06-.51-4-.06-.43-.12-.77-.16-1s.02-.31.02-.31Z"/>
    <path class="st3" d="M632.3,439c-2.11,1-4.33-1.52-4.62-3.85s.27-4.87-.85-6.93c-1-1.8-3-2.79-4.1-4.51-2-3.1-.34-7.44-2-10.72-1.29-2.56-4.36-4-5.31-6.69-1-2.9.77-6.18,0-9.14-.87-3.16-4.43-5-5.23-8.21s1.32-7-.71-9.55c-.77-.75-1.59-1.46-2.44-2.12-1.75-1.77-1.82-4.6-1.36-7s1.33-4.89,1.07-7.37c-.39-3.81-3.39-7.05-3.48-10.88-.08-3.19,1.88-6.45.71-9.42,2.85,1.68,3.18,5.64,5.1,8.32,1.26,1.75,3.17,2.9,4.75,4.35,3.26,3.03,5.11,7.28,5.1,11.73,0,2.91-.8,6.06.7,8.54,1.83,3,6.14,3.52,8.36,6.24,3.18,3.9.74,10.35,3.79,14.34.79,1,1.89,1.8,2.62,2.88,2.46,3.66-.39,8.8,1.06,13,1.07,3.06,4.29,5.06,5.16,8.19.67,2.41-.11,5.34,1.53,7.23.81.72,1.68,1.37,2.61,1.93,1.68,1.3,2.48,3.44,2.07,5.52-.49,2.08-2.26,3.6-4.39,3.77"/>
    <g class="st8">
      <path class="st5" d="M644.72,429.27c-.93-.56-1.8-1.21-2.61-1.93-1.64-1.89-.86-4.82-1.53-7.23-.87-3.14-4.09-5.13-5.16-8.19-1.45-4.17,1.4-9.31-1.06-13-.73-1.08-1.83-1.85-2.62-2.88-3-4-.61-10.44-3.79-14.34-2.22-2.72-6.53-3.24-8.36-6.24-1.5-2.48-.73-5.63-.7-8.54.01-4.45-1.84-8.7-5.1-11.73-1.58-1.45-3.49-2.6-4.75-4.35-1.92-2.68-2.25-6.65-5.1-8.32,1.17,3-.79,6.23-.71,9.42.09,3.83,3.09,7.07,3.48,10.88.26,2.48-.62,4.92-1.07,7.37s-.39,5.28,1.36,7c.85.66,1.67,1.37,2.44,2.12,2,2.56-.09,6.39.71,9.55s4.36,5.05,5.23,8.21c.82,3-1,6.24,0,9.14,1,2.71,4,4.13,5.31,6.69,1.65,3.28,0,7.62,2,10.73,1.09,1.71,3.13,2.7,4.1,4.5,1.12,2.06.55,4.6.85,6.93s2.51,4.89,4.62,3.85l10.1-.43c2.13-.17,3.9-1.69,4.39-3.77.38-2.05-.4-4.14-2.03-5.44Z"/>
    </g>
    <path class="st3" d="M641,428.88c-1.05-.62-1.91-1.52-2.48-2.6-.44-1.29,1-3.43.35-5.69-.79-2.94-4.49-6.87-5.45-9.75-1.3-3.92,1.07-8.28-1-11.72-.61-1-2-3.85-2.68-4.82-2.59-3.74-.59-8.34-3.28-12-1.89-2.55-6.53-4.18-8.1-7-1.29-2.33-.76-5.3-.83-8-.09-4.09-1.68-8.01-4.48-11-1.33-1.36-2.91-2.43-4-4.07-1.64-2.52-2-6.24-4.38-7.81,1,2.79-.45,5.86-.29,8.86.19,3.6,2.71,6.63,3.15,10.21.28,2.33-.35,4.63-.65,6.93s-.15,5,1.32,6.63c.72.63,1.4,1.3,2.05,2,1.72,2.4.11,6,.86,9s3.68,4.73,4.49,7.7c.75,2.78.2,7.44,1.12,10.16.85,2.54,3.77,2.88,4.89,5.28,1.44,3.09.47,8.33,2.16,11.24.94,1.61,2.6,1.38,3.44,3.06,1,1.93,1.48,6.58,1.79,8.77.17,2.08,1.44,3.91,3.32,4.8l11.25-.53c2.87-4.13.57-7.86-2.57-9.65Z"/>
    <path class="st4" d="M609.91,359c.05.06.09.12.12.19l.33.56c.28.51.69,1.25,1.14,2.26.57,1.22.94,2.52,1.1,3.85.05,1.77-.13,3.54-.54,5.26-.19.99-.19,2.01,0,3,.23,1.07.65,2.08,1.25,3,1.2,1.93,3,3.66,4.52,5.76.83,1.07,1.45,2.28,1.84,3.58.18.68.27,1.38.26,2.09-.07.69-.09,1.38-.07,2.07.24,1.37.92,2.63,1.93,3.59.47.55,1,1.1,1.4,1.71.44.62.79,1.29,1.06,2,.46,1.42.75,2.9.84,4.39.1,1.42.29,2.83.57,4.22.29,1.33.86,2.58,1.65,3.68.81,1.07,1.51,2.22,2.07,3.44.41,1.22.62,2.49.64,3.77.01,1.18.17,2.35.48,3.48.7,2.14,2.29,3.71,3.21,5.46.77,1.61,1.27,3.32,1.5,5.09.19,1.31.53,2.59,1,3.82.31.76.8,1.45,1.41,2,.43.36.7.52.68.54-.26-.13-.51-.29-.74-.47-.66-.54-1.18-1.22-1.52-2-.5-1.24-.87-2.53-1.08-3.85-.25-1.74-.76-3.42-1.53-5-.9-1.69-2.52-3.23-3.29-5.5s-.24-4.84-1.15-7.21c-.54-1.18-1.22-2.3-2-3.34-.82-1.15-1.41-2.45-1.73-3.83-.66-2.78-.41-5.78-1.4-8.55-.24-.68-.58-1.32-1-1.91-.42-.59-.9-1.13-1.37-1.69-1.06-1.04-1.76-2.39-2-3.85-.02-.7,0-1.41.07-2.11.02-.67-.06-1.35-.23-2-.37-1.24-.97-2.41-1.76-3.44-1.51-2.07-3.28-3.82-4.5-5.81-.61-.96-1.04-2.02-1.27-3.13-.2-1.03-.2-2.08,0-3.11.42-1.7.63-3.44.61-5.19-.13-1.31-.47-2.59-1-3.8-.42-1-.81-1.76-1.06-2.28-.12-.24-.21-.44-.29-.59-.06-.04-.11-.09-.15-.15Z"/>
    <polygon class="st10" points="616.14 430.1 620.52 438.99 673.82 438.99 679.83 430.1 616.14 430.1"/>
    <polygon class="st10" points="621.8 435.93 629.77 463.47 665.68 463.5 672.91 435.98 621.8 435.93"/>
    <path class="st4" d="M673.58,438.93c0,.12-11.89.22-26.56.22s-26.56-.1-26.56-.22,11.89-.23,26.56-.23,26.56.1,26.56.23Z"/>
  </g>
</svg>