<?xml version="1.0" encoding="UTF-8"?>
<svg id="Layer_1" xmlns="http://www.w3.org/2000/svg" version="1.1" viewBox="0 0 750 500">
  <!-- Generator: Adobe Illustrator 30.0.0, SVG Export Plug-In . SVG Version: 2.1.1 Build 123)  -->
  <defs>
    <style>
      .st0 {
        fill: #e0e0e0;
      }

      .st1 {
        fill: #ffbe9d;
      }

      .st2 {
        fill: #ebebeb;
      }

      .st3 {
        fill: #4a9288;
      }

      .st4 {
        fill: #263238;
      }

      .st5 {
        fill: #882ee7;
      }

      .st6 {
        fill: #eb996e;
      }

      .st7 {
        fill: #c78976;
      }

      .st8 {
        fill: #fff;
      }

      .st9 {
        opacity: .2;
      }

      .st10 {
        opacity: .3;
      }

      .st11 {
        fill: #9b6e65;
      }

      .st12 {
        fill: #704c45;
      }

      .st13 {
        fill: #f5f5f5;
      }

      .st14 {
        fill: #455a64;
      }

      .st15 {
        fill: #925b4c;
      }
    </style>
  </defs>
  <g id="freepik--background-complete--inject-101">
    <path class="st2" d="M367.53,51.46c1.98-.87,3.24-2.84,3.19-5,0-2.76-2.24-5-5-5s-5,2.24-5,5c-.04,2.16,1.22,4.13,3.2,5-7.71,1.16-7.36,9.54-7.36,9.54l18.23.09s.39-8.48-7.26-9.63Z"/>
    <path class="st2" d="M653,155.47c4.31-1.91,7.06-6.21,7-10.92,0-6.52-4.9-11.82-11-11.85s-11.09,5.23-11.11,11.75c-.09,4.74,2.67,9.08,7,11-17,2.57-16.26,21.08-16.26,21.08l40.28.19s1.02-18.72-15.91-21.25Z"/>
    <path class="st2" d="M648.87,200.46c-24.49,0-44.34-19.84-44.35-44.33s19.84-44.34,44.33-44.35c24.49,0,44.34,19.84,44.35,44.33h0c-.02,24.49-19.85,44.32-44.33,44.35ZM648.87,113.05c-23.79,0-43.07,19.28-43.07,43.07s19.28,43.07,43.07,43.07,43.07-19.28,43.07-43.07h0c-.03-23.78-19.29-43.04-43.07-43.07Z"/>
    <path class="st2" d="M169.88,98.54c3.95-1.74,6.48-5.68,6.42-10,0-6-4.48-10.79-10.06-10.82s-10.11,4.77-10.14,10.72c-.09,4.35,2.46,8.32,6.44,10.06-15.55,2.34-14.84,19.23-14.84,19.23l36.75.17s.84-17.03-14.57-19.36Z"/>
    <path class="st2" d="M166.08,139.64c-22.37,0-40.51-18.13-40.52-40.5s18.13-40.51,40.5-40.52c22.37,0,40.51,18.13,40.52,40.5h0c-.02,22.37-18.14,40.49-40.5,40.52ZM166.08,59.89c-21.68,0-39.25,17.56-39.26,39.24,0,21.68,17.56,39.25,39.24,39.26,21.68,0,39.25-17.56,39.26-39.24v-.02c-.03-21.66-17.58-39.21-39.24-39.24Z"/>
    <path class="st2" d="M526.55,88.79c3.07-1.37,5.04-4.43,5-7.79.29-4.36-3.01-8.14-7.38-8.43-4.36-.29-8.14,3.01-8.43,7.38-.02.32-.02.65,0,.97-.07,3.39,1.9,6.49,5,7.87-12.16,1.84-11.61,15.06-11.61,15.06l28.87.15s.61-13.38-11.45-15.21Z"/>
    <path class="st2" d="M523.57,121c-17.58,0-31.84-14.26-31.84-31.84,0-17.58,14.26-31.84,31.84-31.84,17.58,0,31.84,14.26,31.84,31.84v.04c-.04,17.56-14.28,31.78-31.84,31.8ZM523.57,58.59c-16.89,0-30.58,13.69-30.58,30.58,0,16.89,13.69,30.58,30.58,30.58,16.88,0,30.56-13.67,30.58-30.55-.02-16.88-13.7-30.56-30.58-30.57v-.04Z"/>
    <path class="st2" d="M411,156.63c2.17-.97,3.56-3.13,3.55-5.51.2-3.08-2.14-5.74-5.22-5.94-3.08-.2-5.74,2.14-5.94,5.22-.01.22-.02.44,0,.67-.03,2.4,1.36,4.58,3.55,5.56-8.58,1.29-8.19,10.63-8.19,10.63l20.3.09s.5-9.44-8.05-10.72Z"/>
    <path class="st2" d="M408.94,179.49c-12.45,0-22.54-10.09-22.54-22.54,0-12.45,10.09-22.54,22.54-22.54,12.45,0,22.54,10.09,22.54,22.54,0,.02,0,.03,0,.05-.04,12.42-10.12,22.48-22.54,22.49ZM408.94,135.43c-11.89,0-21.53,9.64-21.53,21.53,0,11.89,9.64,21.53,21.53,21.53,11.88,0,21.51-9.61,21.53-21.49,0-11.9-9.63-21.55-21.53-21.57h0Z"/>
    <path class="st2" d="M64.87,254.64c1.98-.87,3.25-2.84,3.23-5,.18-2.81-1.96-5.22-4.76-5.4s-5.22,1.96-5.4,4.76c-.01.21-.01.43,0,.64-.04,2.19,1.24,4.18,3.24,5.06-7.82,1.18-7.47,9.67-7.47,9.67l18.49.09s.42-8.65-7.33-9.82Z"/>
    <path class="st2" d="M63,275.62c-11.43,0-20.69-9.25-20.7-20.68,0-11.43,9.25-20.69,20.68-20.7,11.43,0,20.69,9.25,20.7,20.68v.02c-.02,11.41-9.27,20.66-20.68,20.68ZM63,235.51c-10.73,0-19.43,8.69-19.44,19.42s8.69,19.43,19.42,19.44c10.73,0,19.43-8.69,19.44-19.42h0c-.02-10.73-8.7-19.42-19.42-19.44Z"/>
    <path class="st2" d="M76.83,239.22c-.16-.1,15.77-24.39,35.57-54.24s36-54,36.13-53.88-15.78,24.39-35.53,54.25-36,53.97-36.17,53.87Z"/>
    <path class="st2" d="M429.84,151.81c-.08-.12,15.39-10,34.53-22.08s34.74-21.76,34.82-21.64-15.38,10-34.54,22.08-34.73,21.76-34.81,21.64Z"/>
    <path class="st2" d="M387.41,157c0,.14-42-7-93.65-16s-93.6-16.31-93.58-16.45,41.95,7,93.67,15.94,93.59,16.33,93.56,16.51Z"/>
    <path class="st2" d="M610.11,136.81c-.08.12-13-7.59-28.92-17.23s-28.72-17.58-28.65-17.68,13,7.59,28.92,17.23,28.72,17.56,28.65,17.68Z"/>
    <path class="st2" d="M125.46,105.58c0,.14-12,.4-26.92.58s-26.93.21-26.93.06,12-.4,26.92-.58,26.93-.21,26.93-.06Z"/>
    <path class="st2" d="M58,105.49c1.23-.56,2.02-1.8,2-3.15.14-1.76-1.18-3.3-2.94-3.44s-3.3,1.18-3.44,2.94c-.01.17-.01.34,0,.51-.03,1.37.76,2.62,2,3.18-4.91.74-4.68,6.08-4.68,6.08l11.61.05s.28-5.43-4.55-6.16Z"/>
    <path class="st2" d="M56.76,118.91c-7.31,0-13.23-5.93-13.22-13.24s5.93-13.23,13.24-13.22c7.3,0,13.22,5.93,13.22,13.23-.01,7.31-5.93,13.22-13.24,13.23ZM56.76,93.71c-6.63,0-12,5.37-12,12,0,6.63,5.37,12,12,12s12-5.37,12-12h0c0-6.63-5.37-12-12-12,0,0,0,0,0,0Z"/>
    <path class="st2" d="M365.65,72.53c-11.48,0-20.78-9.29-20.79-20.77,0-11.48,9.29-20.78,20.77-20.79s20.78,9.29,20.79,20.77h0c-.01,11.48-9.3,20.77-20.77,20.79ZM365.65,32.96c-10.38,0-18.8,8.41-18.81,18.79,0,10.38,8.41,18.8,18.79,18.81,10.38,0,18.8-8.41,18.81-18.79v-.02c-.03-10.36-8.43-18.74-18.79-18.75v-.04Z"/>
    <path class="st2" d="M397.33,138.68c-.11-.22-.2-.44-.27-.67l-.67-2c-.6-1.76-1.43-4.21-2.46-7.21-2.09-6.08-5.09-14.45-8.68-23.57s-7.11-17.23-9.73-23.13l-3.13-6.94-.84-1.89c-.11-.22-.2-.44-.26-.68.14.2.25.41.35.63l.94,1.85c.8,1.61,1.92,4,3.27,6.88,2.71,5.84,6.28,14,9.88,23.13s6.55,17.52,8.55,23.64c1,3.06,1.79,5.54,2.3,7.26.24.83.44,1.49.58,2,.08.23.14.46.17.7Z"/>
    <path class="st13" d="M26.11,398.21v35.05h-5.85v3.81h5.85v23.46h109.39v-21.35h-8.1v-4.65h8.1v-7h3.6v-3.17h-4.27v-26.15H26.11Z"/>
    <polygon class="st0" points="106.45 398.31 106.45 460.13 135.5 460.13 135.5 438.79 127.4 438.79 127.4 434.53 135.5 434.67 135.5 427.7 139.18 427.7 139.1 424.1 134.83 424 134.83 398.21 106.45 398.31"/>
    <path class="st0" d="M108.52,436.56c0,.22-19.79.39-44.2.39s-44.21-.17-44.21-.39,19.79-.39,44.21-.39,44.2.18,44.2.39Z"/>
    <path class="st0" d="M108.52,433c0,.22-19.79.39-44.2.39s-44.21-.17-44.21-.39,19.79-.39,44.21-.39,44.2.18,44.2.39Z"/>
    <path class="st0" d="M114.2,423.42c0,.22-19.79.39-44.2.39s-44.22-.17-44.22-.39,19.79-.42,44.22-.42,44.2.21,44.2.42Z"/>
    <path class="st0" d="M114.75,449.53c0,.22-19.8.39-44.21.39s-44.21-.17-44.21-.39,19.79-.39,44.21-.39,44.21.18,44.21.39Z"/>
    <path class="st13" d="M38.3,336.51v35.05h-5.86v3.8h5.86v23.46h109.39v-21.34h-8.11v-4.65h8.11v-7h3.6v-3.17h-4.29v-26.15H38.3Z"/>
    <polygon class="st0" points="118.64 336.61 118.64 398.43 147.69 398.43 147.69 377.09 139.58 377.09 139.58 372.83 147.69 372.97 147.69 366 151.36 366 151.29 362.4 147.01 362.29 147.01 336.51 118.64 336.61"/>
    <path class="st0" d="M120.71,374.86c0,.22-19.8.39-44.21.39s-44.21-.17-44.21-.39,19.79-.39,44.21-.39,44.21.18,44.21.39Z"/>
    <path class="st0" d="M120.71,371.3c0,.22-19.8.39-44.21.39s-44.21-.17-44.21-.39,19.79-.39,44.21-.39,44.21.18,44.21.39Z"/>
    <path class="st0" d="M126.39,361.72c0,.21-19.8.39-44.21.39s-44.18-.18-44.18-.39,19.79-.39,44.21-.39,44.18.17,44.18.39Z"/>
    <path class="st0" d="M126.93,387.83c0,.21-19.79.39-44.2.39s-44.22-.18-44.22-.39,19.79-.39,44.22-.39,44.2.18,44.2.39Z"/>
    <path class="st2" d="M684.12,337.17c6.42-3.32,14-3.75,21.11-2.57,3.83.63,7.82,1.78,10.42,4.66s3.1,7.93.11,10.41c-1.78,1.47-4.26,1.69-6.57,1.66-5.58-.06-11.77-1-16.23,2.31-2.55,1.92-4.24,5.1-7.28,6.05s-6.33-.84-7.91-3.52c-1.45-2.8-1.77-6.04-.9-9.07.73-4.26,3.42-7.93,7.25-9.93Z"/>
    <path class="st2" d="M669.41,308.77c3.92,5.61,11.55,3.75,15.09.33s5-8.39,6.4-13.12c3.11-10.81,6.24-22.14,3.93-33.15-.56-3.33-2.02-6.44-4.23-9-2.32-2.44-5.87-3.89-9.12-3-3.85,1-6.24,4.78-8,8.37-5.09,10.59-7.76,22.17-7.81,33.92,0,5.46.62,11.19,3.71,15.7"/>
    <path class="st2" d="M658.63,316.81c4.26-5.05,5.07-12.43,3.17-18.77s-6.18-11.73-11.12-16.13c-5.81-5.17-12.58-9.17-19.92-11.75-2.85-1.16-5.92-1.68-9-1.53-3.1.18-5.92,1.89-7.52,4.55-2.09,4-.08,8.85,2.09,12.8,3.83,6.97,8.21,13.63,13.08,19.92,3.92,5.06,8.41,10,14.39,12.33s12.18,2,15.34-2.13"/>
    <path class="st0" d="M669.14,393.36c.2-.84.32-1.69.36-2.55.18-1.86.4-4.18.67-6.95.35-3.42.87-6.83,1.57-10.2.91-4.09,2.15-8.1,3.7-12,1.53-3.9,3.6-7.57,6.15-10.9,2.08-2.7,4.73-4.91,7.77-6.46,2.06-1.01,4.27-1.68,6.55-2,.86-.04,1.71-.16,2.54-.37-.86-.09-1.73-.09-2.59,0-2.36.18-4.67.78-6.82,1.77-3.2,1.51-6.01,3.74-8.2,6.52-2.66,3.37-4.8,7.11-6.37,11.11-1.58,3.96-2.81,8.06-3.68,12.24-.66,3.41-1.11,6.86-1.36,10.33-.22,2.95-.3,5.34-.34,7-.07.82-.05,1.64.05,2.46Z"/>
    <path class="st0" d="M669.62,388c.07-.39.1-.79.07-1.19v-3.38c0-2.93,0-7.18.15-12.42.26-10.49,1.16-21.77,2.91-37.68,1.65-15,3.86-32.38,6.2-43.7.51-2.57,1-4.89,1.49-6.92s.84-3.79,1.21-5.2.58-2.43.79-3.29c.11-.38.18-.77.21-1.17-.19.35-.32.72-.41,1.11-.26.85-.59,1.92-1,3.24s-.89,3.15-1.4,5.17-1.08,4.34-1.63,6.91c-2.9,13.38-5.08,26.91-6.52,40.52-1.75,15.94-2.53,30.46-2.6,41-.07,5.25,0,9.51.18,12.44.08,1.38.15,2.49.21,3.38,0,.4.05.79.14,1.18Z"/>
    <path class="st0" d="M669.69,360c.09-1.18.09-2.36,0-3.54-.13-2.27-.45-5.55-1.09-9.56-.77-4.72-1.8-9.4-3.11-14-1.52-5.64-3.47-11.15-5.83-16.49-4.83-11.47-11.4-20.85-17.12-26.66-1.25-1.33-2.59-2.59-4-3.75-.61-.52-1.16-1-1.72-1.45l-1.56-1.08c-.95-.71-1.95-1.34-3-1.9-.17.23,4.21,2.81,9.74,8.69,7.03,7.84,12.68,16.82,16.7,26.56,2.31,5.31,4.27,10.78,5.86,16.35,1.53,5.12,2.54,9.83,3.31,13.8s1.15,7.23,1.41,9.48c.05,1.19.18,2.38.41,3.55Z"/>
    <polygon class="st0" points="642.63 409.4 645.43 447.84 694.81 447.84 697.62 409.4 642.63 409.4"/>
    <rect class="st0" x="637.86" y="394.25" width="65.66" height="15.15"/>
    <polygon class="st2" points="637.86 446.37 637.86 450.57 640.94 450.57 702.43 450.57 702.43 446.37 637.86 446.37"/>
    <polygon class="st0" points="643.97 457.96 640.94 450.57 700.08 450.57 696.55 457.96 643.97 457.96"/>
    <path class="st13" d="M696.7,422c-.06.13-.14.25-.23.36-.19.26-.44.58-.74,1l-2.87,3.64-.13.16-.12-.17c-1.81-2.5-4.23-5.84-7.07-9.78h.46l-7,9.86-.22.3-.25-.29-8.25-9.81h.48l-.46.57-7.37,9.25-.25.31-.23-.32c-2.5-3.55-4.84-6.86-7-9.85h.41l-8.55,9.77-.15.17-.16-.17c-1.13-1.89-2-3.41-2.68-4.51l-.69-1.2c-.09-.13-.16-.28-.21-.43.11.12.2.25.29.39l.76,1.15,2.82,4.43h-.27l8.44-9.89.21-.25.19.27,7,9.8h-.47l7.36-9.26.46-.57.23-.3.24.29,8.23,9.84h-.46l7-9.81.2-.28.21.28c2.78,4,5.14,7.36,6.91,9.88h-.25l3-3.59.81-.93c.11-.12.23-.22.37-.31Z"/>
    <path class="st13" d="M698.31,409.15c0,.17-12.38.3-27.64.3s-27.63-.13-27.63-.3,12.37-.31,27.63-.31,27.64.16,27.64.31Z"/>
    <path class="st13" d="M700.8,451c0,.17-13.45.31-30,.31s-30-.14-30-.31,13.45-.31,30-.31,30,.12,30,.31Z"/>
  </g>
  <g id="freepik--character-2--inject-101">
    <path class="st1" d="M426,361.75s10.57-6.58,14.55-6.14l22.87,5.33s2,2.14-2,4.11-9-.86-9-.86l-5.56.78,3.84,3.21,15.17,4.67s11,3.1,9.66,4.72-4.64,1.82-9.38.48l-10.76-3s-1.88-.41,1.15,1.69,16.34,5.37,18.1,6.24,6.54,1.6,6,4.33-6.52.53-6.52.53l-19.7-4.57s7.78,3.36,9.1,4,5.63,1.81,7.93,3,3.4,2.67,3.14,3.88c-.19,1.2-1.28,2.05-2.49,1.94l-16.67-5.73s-7.56-3-8.07-2.9,2.95,3.33,2.95,3.33l5.32,2.73s7.68,2.57,7.7,4.7-1.58,2.05-1.58,2.05l-14-4.83-15.63-7.92-11.71-7.18s2.11-8.26,1.71-8.62,3.88-9.97,3.88-9.97Z"/>
    <path class="st6" d="M431.52,377.27c0-.16,1.47-.55,3.77-1.38s5.54-2.31,7.22-5.58c.74-1.33,1-2.86.76-4.36l-.1-.5.55-.07c2.43-.32,4.69-.85,6.22-1.05s2.51-.27,2.51-.14c-.77.31-1.57.55-2.39.71-1.55.37-3.59,1-6.31,1.43l.45-.57c.33,1.71.05,3.48-.79,5-.88,1.66-2.19,3.04-3.8,4-1.28.78-2.65,1.37-4.09,1.77-2.43.72-3.97.86-4,.74Z"/>
    <polyline class="st4" points="216.6 462.58 214.75 393.56 335.79 395.9 352.26 459.98 216.6 462.58"/>
    <path class="st14" d="M276.84,200.69l-9.1,8.62s-34,8.45-40,14.4-9,97.62-8.65,104,0,61.43,0,61.43c0,0-2,21,0,22.2s40.16,1.7,59.19,2.1,59.38,1.51,61.76-.47-5.91-43.08-5.91-43.08l-3.3-18.95,1-33.14,7-45.59,5.17-47.21s-13.87-8.32-20.61-9.91-46.55-14.4-46.55-14.4Z"/>
    <path class="st14" d="M377.19,333.05l-18.49-77.64c-1.46-6.17-3.6-12.16-6.36-17.86-2.87-5.89-6.42-12.31-8.37-12.54-11.47-1.32-17.44,33.7-17.44,33.7v44.39l10.82,48.08c1.66,7.38,7.11,13.32,14.32,15.61l73.39,23.36,8.51-36.43-56.38-20.67Z"/>
    <path class="st14" d="M246.09,216.77s-27.89,3.94-36.9,25.22c0,0-27.87,108.48-23.21,122.77s40.69,69.42,40.69,69.42l31.59-16.67s-30.87-64.07-30.87-71.14,18.7-129.6,18.7-129.6Z"/>
    <path class="st4" d="M258.26,417.51c-.07-.11-.13-.23-.18-.35-.12-.25-.27-.6-.47-1-.41-.95-1-2.29-1.76-4l-6.38-14.77c-5.34-12.51-12.71-29.75-20.85-48.79-.38-.88-.75-1.75-1.09-2.56v-.06h0c.11-1.26.3-2.52.59-3.75.26-1.22.53-2.43.82-3.61.56-2.38,1.16-4.71,1.75-7,1.19-4.57,2.35-9,3.44-13.17,2.22-8.37,4.19-15.89,5.79-22.21s2.82-11.44,3.67-15c.4-1.75.72-3.11.94-4.07.11-.45.2-.79.26-1.06.02-.12.06-.24.11-.35-.01.12-.03.24-.06.36-.05.27-.12.62-.21,1.07-.2,1-.48,2.34-.85,4.1-.78,3.55-1.94,8.68-3.51,15s-3.49,13.86-5.68,22.24c-1.08,4.2-2.23,8.6-3.41,13.17-.58,2.29-1.18,4.62-1.74,7-.63,2.38-1.09,4.79-1.39,7.23v-.1c.35.81.72,1.69,1.09,2.56l20.72,48.86,6.14,14.75c.71,1.74,1.27,3.09,1.67,4,.17.44.31.79.42,1.05.13.33.17.46.17.46Z"/>
    <path class="st4" d="M338.67,264c.03.21.03.43,0,.64,0,.46-.03,1.06-.09,1.8-.11,1.63-.25,3.87-.43,6.62-.4,5.59-.88,13.31-1.77,21.82s-2.15,16.16-3.11,21.68c-.48,2.76-.89,5-1.19,6.53-.14.72-.26,1.31-.36,1.76-.03.21-.08.42-.15.62,0-.21,0-.42.05-.63.07-.47.15-1.06.26-1.79.25-1.61.6-3.83,1-6.55.86-5.53,2.06-13.18,2.95-21.67s1.43-16.22,1.92-21.8c.25-2.74.45-5,.6-6.61.07-.73.14-1.33.19-1.79.02-.21.06-.43.13-.63Z"/>
    <path class="st1" d="M230.83,432l3.13,5.76s15.51-5.91,22.89-15.87l-2-2-24.02,12.11Z"/>
    <path class="st14" d="M261.43,416.25c-.26.51-.56,1-.89,1.47-.3.47-.67,1-1.15,1.66s-1,1.36-1.64,2.11-1.33,1.6-2.14,2.43-1.69,1.72-2.64,2.62c-2.1,1.92-4.34,3.68-6.71,5.26-2.38,1.56-4.86,2.96-7.42,4.19-2.1.99-4.25,1.85-6.45,2.6-.93.34-1.79.58-2.55.81s-1.4.4-1.94.52c-.55.16-1.11.28-1.68.36.52-.23,1.07-.41,1.62-.55.53-.16,1.18-.35,1.92-.61s1.59-.52,2.51-.88c1.85-.66,4-1.57,6.36-2.69,2.53-1.24,4.99-2.64,7.35-4.18,2.34-1.57,4.57-3.3,6.67-5.18.95-.88,1.86-1.72,2.65-2.57.79-.85,1.52-1.63,2.17-2.37s1.19-1.45,1.68-2.05.9-1.15,1.22-1.6c.31-.48.67-.93,1.06-1.35Z"/>
    <path class="st4" d="M245.67,255.5c-.12,0,.3-1.84.21-4.79-.02-.8-.09-1.61-.21-2.4-.11-.92-.28-1.82-.51-2.72-1.02-4.12-3.03-7.94-5.85-11.11-.63-.69-1.3-1.34-2-1.95-.59-.55-1.21-1.06-1.87-1.53-2.38-1.74-4.12-2.42-4.07-2.52.42.1.83.26,1.21.47.47.19.93.42,1.36.69.59.32,1.17.67,1.72,1.06.68.46,1.33.96,1.94,1.51.71.61,1.37,1.26,2,1.95,1.45,1.6,2.69,3.38,3.71,5.28.99,1.9,1.75,3.92,2.26,6,.21.91.37,1.84.47,2.77.1.81.15,1.63.15,2.45.01.67-.02,1.34-.09,2-.03.51-.1,1.01-.2,1.51-.04.45-.12.89-.23,1.33Z"/>
    <path class="st8" d="M241.47,285.38c0,.14-9.24-2-20.55-4.69s-20.47-5-20.44-5.18,9.24,1.95,20.56,4.68,20.46,5.05,20.43,5.19Z"/>
    <path class="st8" d="M336.69,279.64c0,.15-20.72.62-46.27,1.05s-46.28.68-46.29.53,20.72-.61,46.28-1.05,46.28-.67,46.28-.53Z"/>
    <path class="st8" d="M366.33,284.84c-.37.13-.74.21-1.13.24-.72.13-1.78.28-3.09.46-2.61.36-6.23.79-10.24,1.19s-7.65.67-10.28.83c-1.32.08-2.39.13-3.13.15-.38.05-.77.05-1.15,0,.37-.09.76-.15,1.14-.18l3.11-.32,10.26-1,10.25-1,3.11-.3c.38-.07.77-.09,1.15-.07Z"/>
    <path class="st8" d="M228.26,341.81c0,.14-8.91-1-19.84-2.59s-19.79-3-19.77-3.1,8.9,1,19.84,2.59,19.79,2.96,19.77,3.1Z"/>
    <path class="st8" d="M329.22,349.9c0,.14-21.46,1.74-48,3.57s-48,3.19-48,3,21.46-1.74,48-3.56,47.99-3.15,48-3.01Z"/>
    <path class="st8" d="M375.22,334.3c-.38.4-.78.76-1.22,1.09l-3.44,2.84c-2.9,2.39-6.9,5.71-11.25,9.44s-8.25,7.19-11.05,9.7l-3.33,3c-.39.37-.81.71-1.26,1,.35-.42.72-.82,1.13-1.19.74-.74,1.84-1.8,3.21-3.09,2.74-2.57,6.6-6.07,11-9.81s8.4-7,11.36-9.34c1.49-1.16,2.7-2.09,3.54-2.71.41-.35.85-.66,1.31-.93Z"/>
    <path class="st8" d="M249.78,404.65c-.41.23-.83.43-1.27.59l-3.51,1.46-11.64,4.77-11.61,4.87-3.52,1.46c-.42.2-.87.36-1.32.48.39-.26.81-.48,1.24-.66.81-.4,2-.95,3.46-1.62,2.93-1.34,7-3.12,11.55-5s8.69-3.5,11.71-4.63c1.51-.57,2.73-1,3.59-1.31.42-.18.87-.32,1.32-.41Z"/>
    <path class="st8" d="M417.17,349.35c-.01.49-.08.97-.19,1.44-.16.92-.43,2.24-.79,3.87-.71,3.26-1.86,7.72-3.41,12.57s-3.22,9.16-4.53,12.22c-.66,1.54-1.21,2.77-1.61,3.61-.18.45-.41.88-.68,1.28.13-.47.29-.92.49-1.36l1.46-3.67c1.22-3.09,2.82-7.4,4.37-12.24s2.75-9.27,3.55-12.5c.38-1.54.7-2.82.95-3.82.09-.48.22-.95.39-1.4Z"/>
    <path class="st8" d="M276.4,219.55c-.52.15-1.06.26-1.6.32l-4.38.75c-3.7.65-8.8,1.64-14.37,3s-10.55,2.79-14.14,3.91l-4.24,1.33c-.51.19-1.04.34-1.58.45.48-.26.99-.47,1.51-.64,1-.38,2.41-.89,4.2-1.49,3.56-1.21,8.54-2.72,14.13-4.07s10.7-2.28,14.43-2.84c1.86-.28,3.37-.48,4.41-.59.54-.09,1.08-.13,1.63-.13Z"/>
    <path class="st4" d="M352.12,124.71c7.42,6.39,3.27,16.41,1.78,26.08s.24,20.29.63,30.07c.21,5.17,1.48,10.51-.2,15.4-1.75,5.12-6.34,8.62-9.91,12.7s-6.24,10.13-3.43,14.75c-1.56.59-3.32.35-4.66-.64-1.2,2.15-4.16,2.79-6.53,2.09s-4.29-2.39-6.12-4c-.28,1.77-2.43,2.73-4.19,2.37-1.73-.52-3.26-1.54-4.42-2.92-1.16-1.38-2.6-2.48-4.24-3.23-3.75-1.33-8.13,1.52-11.77-.1-5-2.21-4.51-10.85-9.68-12.62-2.43-.84-5.05.31-7.6.59s-5.29-2-4.94-4.52c-4.39,1.83-10,2.7-14.51,1.07,1.47-1.19,2.16-3.09,1.82-4.95-3.26.57-6.62.16-9.65-1.18,2.76-.69,5.09-2.54,6.39-5.07-2.81.43-5.64-.58-7.54-2.69,5.57.06,9.45-5.7,10.62-11.14s.76-11.26,3-16.36c2.41-5.55,7.57-9.42,10.7-14.6,4.37-7.22,4.49-16.43,9-23.56,3-4.67,5.78-8.65,10.26-11.89,5.66-4.1,8.9-6.22,15.89-6.13,5.86.08,15.88,1.71,20.88,4.77,8.88,5.44,18.31,11.51,22.25,21.15"/>
    <path class="st4" d="M286.4,167.55c-.42-7.72-.79-15.5.12-23.18s3.2-15.34,7.67-21.66c.68-.95,5.94-7.18,7-6.77.78.29-3.06,6.39-2.84,7.2,2.11,7.71,1,16-1.64,23.57-2.66,7.31-6.14,14.3-10.35,20.84"/>
    <path class="st1" d="M304.88,246.11c-11.53-3.33-33.23-25.9-30.15-37.5l18.53-69.78c4.38-18.91,19-32.12,37.81-27.22l1.71.56c17.19,5.58,27.22,23.42,23.05,41-3.89,16.37-8.39,34.39-11.27,42.91-6,17.64-24.57,14.65-24.57,14.65,0,0-1.22,4.14-2.68,9.41-3.28,11.83-10.19,23.43-12.43,26v-.03Z"/>
    <path class="st6" d="M320,210.75s-11.38-3-20.86-14.3c0,0,1.23,15.12,19.42,19.25l1.44-4.95Z"/>
    <path class="st4" d="M344.89,167.68c-.43,1.38-1.88,2.16-3.27,1.76-1.36-.32-2.21-1.69-1.89-3.06,0-.02.01-.04.02-.06.44-1.37,1.88-2.16,3.27-1.77,1.37.34,2.21,1.72,1.88,3.09,0,.01,0,.02,0,.04Z"/>
    <path class="st4" d="M349.53,159.78c-.42.23-1.88-1.81-4.6-2.69s-5.16-.16-5.35-.59c-.1-.19.42-.68,1.49-1,1.44-.44,2.98-.42,4.41.06,1.42.45,2.65,1.35,3.53,2.55.63.89.72,1.57.52,1.67Z"/>
    <path class="st4" d="M320,160.48c-.43,1.38-1.88,2.16-3.27,1.76-1.36-.32-2.21-1.69-1.89-3.06,0-.02.01-.04.02-.06.44-1.37,1.88-2.16,3.27-1.77,1.37.33,2.21,1.71,1.88,3.08,0,.02,0,.04-.01.05Z"/>
    <path class="st4" d="M322.64,151.76c-.42.23-1.88-1.81-4.6-2.69s-5.16-.16-5.35-.59c-.09-.2.41-.69,1.49-1,1.45-.43,2.99-.41,4.42.07,1.42.45,2.65,1.35,3.53,2.55.62.9.71,1.56.51,1.66Z"/>
    <path class="st4" d="M325.62,175.84c0-.16,1.83.1,4.68.64.72.15,1.42.23,1.69-.21.29-.7.37-1.47.21-2.21-.11-1.9-.22-3.88-.34-6-.41-8.46-.47-15.33-.13-15.34s.95,6.83,1.36,15.29c.09,2.08.18,4.08.25,6,.16.98-.03,1.98-.53,2.84-.36.43-.91.67-1.47.65-.42-.02-.84-.1-1.24-.22-2.8-.74-4.52-1.28-4.48-1.44Z"/>
    <path class="st4" d="M325.7,141.51c-.6.57-3-1-6.19-2.13s-6-1.48-6.13-2.3c0-.39.71-.84,2-1,3.48-.37,6.94.87,9.38,3.38.92.95,1.24,1.77.94,2.05Z"/>
    <path class="st4" d="M351,153.21c-.76.44-2.79-.89-5.46-1.74s-5.07-1.11-5.39-1.92c-.13-.38.41-.89,1.59-1.18,1.59-.31,3.23-.19,4.76.36,1.55.48,2.93,1.38,4,2.59.68.93.79,1.68.5,1.89Z"/>
    <path class="st1" d="M290.45,152.41c-.26-.23-11-7.54-14.54,4.69s9.47,13.27,9.59,12.92,4.95-17.61,4.95-17.61Z"/>
    <path class="st6" d="M283.1,164.3c0-.05-.25.09-.66.15-.57.07-1.14-.08-1.6-.43-1.16-.84-1.65-3.21-1.07-5.43.27-1.06.77-2.04,1.48-2.88.45-.71,1.23-1.15,2.07-1.17.54.01,1,.41,1.09.94.07.39-.08.62,0,.66s.32-.13.37-.67c.02-.32-.07-.64-.26-.9-.26-.35-.65-.59-1.09-.66-1.08-.09-2.13.39-2.78,1.26-.82.91-1.41,2-1.72,3.19-.64,2.49,0,5.16,1.58,6.19.6.37,1.33.46,2,.24.49-.2.63-.45.59-.49Z"/>
    <path class="st4" d="M353.58,130.64c2.3-.54-1.86-8.63-6.12-12.21-6.46-5.43-17.12-10.62-24.46-10.6-8.83,0-16.77,2.2-23,8.5s-10.17,14.55-12.31,23.12c-.66,2.61-1.15,5.39-.37,8,.95,3.19,3.76,5.82,2.57,9.52-.48,1.34-.4,2.82.22,4.1,1.58,3,5,1.55,6.85-.35,4-4.05,5.94-9.7,7.72-15.14,1.26-3.86,2.54-7.82,2.49-11.88,0-2.21-.45-4.41-.36-6.63-.04-2.24.91-4.39,2.59-5.88.4-.28.83-.52,1.27-.72,4.33-2.07,9.45-1.64,13.37,1.13,6.22,4.38,17,11.33,20.73,9.85,5.38-2.13,7.06-4,7.06-4l1.75,3.19Z"/>
    <path class="st4" d="M317.64,175.2c-.18,0-.46.62-.52,1.75-.06,1.5.36,2.98,1.2,4.22.8,1.2,1.82,2.24,3,3.07.88.63,1.5.92,1.62.78s-.28-.69-1-1.48c-.91-.97-1.75-2.01-2.51-3.1-1.69-2.51-1.37-5.21-1.79-5.24Z"/>
    <path class="st3" d="M290.2,154.09v.78s0-.28,0-.78Z"/>
    <path class="st14" d="M286.94,150.63s3-1.76,3.26,3.46c-.06-6.74,1.15-55.4,47.82-42.42,0,0-15-9-28-5-.02-.03-24.58,3.56-23.08,43.96Z"/>
    <path class="st4" d="M317.47,201.89c.1.19,1.41-.37,2.62-1.6s1.77-2.53,1.58-2.63-1,.94-2.14,2.07-2.18,1.97-2.06,2.16Z"/>
    <path class="st4" d="M314.94,200.67c.16.15,1.23-.79,2.39-2.1s2-2.48,1.8-2.63-1.24.8-2.4,2.1-1.96,2.49-1.79,2.63Z"/>
    <path class="st4" d="M313.4,199.07c.21.07.79-1.08,1.31-2.57s.76-2.75.55-2.82-.79,1.08-1.3,2.57-.77,2.75-.56,2.82Z"/>
    <path class="st4" d="M311.07,198.61c.22-.05,0-1.52.31-3.27s.95-3.07.75-3.2-1.22,1.13-1.53,3.07.27,3.48.47,3.4Z"/>
    <path class="st4" d="M307.79,196.66c.23,0,.14-1.47.35-3.19s.63-3.09.42-3.18-1,1.23-1.21,3.08.24,3.33.44,3.29Z"/>
    <path class="st4" d="M323.41,355.59s-.12.12-.38.31l-1.14.82c-1,.7-2.46,1.68-4.28,2.87-3.63,2.39-8.73,5.59-14.47,8.93s-11.05,6.17-14.93,8.15c-1.93,1-3.51,1.77-4.61,2.29l-1.27.59c-.3.13-.45.19-.46.17.13-.1.26-.19.41-.26l1.23-.68,4.53-2.44c3.83-2,9.1-4.94,14.84-8.27s10.85-6.48,14.53-8.79l4.37-2.73,1.19-.73c.14-.1.28-.17.44-.23Z"/>
    <path class="st4" d="M377.15,332.93c-5.01,2.88-9.27,6.89-12.45,11.72.29-.8.7-1.56,1.21-2.25,1.15-1.72,2.49-3.31,4-4.72,1.51-1.41,3.17-2.64,4.95-3.68.71-.46,1.48-.82,2.29-1.07Z"/>
  </g>
  <g id="freepik--character-3--inject-101">
    <path class="st4" d="M376.13,319.94s-35.53,4.21-48.67,14.71c-2.09,1.7-4.02,3.58-5.77,5.62-8.23,9.6-13.23,21.55-14.29,34.15l-4.76,52.25.38,8.63c.6,13.47,11.67,24.1,25.16,24.15l146.82,1s19.28-21.52,14.23-54.9c-1.19-7.85-3.09-34.77-10.53-51.34-3.93-8.76-9.95-19.58-25.84-23.8l-37.09-10.49-39.64.02Z"/>
    <path class="st14" d="M342.83,362.44c-.14-.38-.24-.77-.3-1.17-.16-.75-.41-1.84-.74-3.18-.88-3.48-2.03-6.9-3.44-10.2-1.43-3.29-3.12-6.47-5.06-9.49-.75-1.17-1.37-2.09-1.82-2.73-.24-.31-.46-.65-.64-1,.3.27.58.57.81.9.49.6,1.16,1.5,1.95,2.64,2.05,2.99,3.8,6.17,5.24,9.5,1.43,3.32,2.54,6.76,3.32,10.29.29,1.36.48,2.47.58,3.24.08.39.12.8.1,1.2Z"/>
    <path class="st14" d="M349,422c-.15,0-1.72-11.4-3.51-25.51s-3.13-25.56-3-25.57,1.71,11.4,3.51,25.51,3.14,25.57,3,25.57Z"/>
    <path class="st14" d="M342.5,366.93c-.87-.25-1.71-.61-2.5-1.06-3.91-1.98-7.51-4.52-10.69-7.53-.7-.59-1.31-1.26-1.84-2,.73.53,1.43,1.11,2.08,1.73,1.27,1.08,3.05,2.53,5.13,4s4,2.65,5.49,3.47c.81.41,1.59.87,2.33,1.39Z"/>
    <path class="st14" d="M437.64,376.6c-.05-.6-.05-1.19,0-1.79,0-.7.06-1.4.14-2.09.09-.81.15-1.74.35-2.75.17-1.11.39-2.21.67-3.3.25-1.19.65-2.42,1-3.72,1.88-5.62,4.82-10.84,8.65-15.36.91-1,1.75-2,2.63-2.83.79-.8,1.62-1.56,2.48-2.28.76-.7,1.52-1.23,2.17-1.73.55-.43,1.12-.83,1.71-1.2.49-.34,1-.65,1.53-.92-.44.4-.91.76-1.41,1.08-.47.33-1,.74-1.65,1.27s-1.37,1.07-2.11,1.77-1.59,1.44-2.41,2.31-1.68,1.83-2.57,2.84c-3.75,4.51-6.65,9.66-8.56,15.21-.41,1.28-.83,2.49-1.09,3.66s-.54,2.26-.73,3.26-.3,1.92-.42,2.73-.19,1.49-.23,2.07c0,.59-.06,1.18-.15,1.77Z"/>
    <path class="st14" d="M423,436.61c-.14-.6-.18-1.22-.11-1.84.14-1.77,1.12-3.37,2.63-4.3h0c4.24-4.47,9.35-8.04,15.02-10.47l-.15.21c.2-1.88.41-3.83.56-5.84.57-7.32.67-14.67.3-22-.13-2.81-.33-5.09-.44-6.66-.06-.74-.11-1.34-.15-1.81-.02-.21-.02-.43,0-.64.07.2.11.42.12.63.07.46.15,1.06.25,1.8.17,1.57.43,3.84.61,6.66.48,7.35.43,14.73-.15,22.07-.15,2-.36,4-.57,5.86v.15l-.14.06c-5.62,2.39-10.72,5.87-15,10.23h0c-.82.48-1.49,1.17-1.95,2-.34.62-.56,1.3-.65,2-.25,1.28-.11,1.88-.18,1.89Z"/>
    <path class="st14" d="M464.9,432.38c-.09.05-.85-1.39-2.52-3.39-2.17-2.6-4.84-4.75-7.84-6.32-1.65-.86-3.38-1.53-5.18-2-1.47-.37-2.98-.57-4.5-.59-2.6,0-4.21.3-4.22.2.36-.14.73-.23,1.11-.27,1.03-.18,2.07-.28,3.11-.3,1.55-.03,3.1.14,4.61.5,1.84.45,3.63,1.12,5.31,2,3.06,1.6,5.75,3.83,7.89,6.55.64.82,1.22,1.68,1.73,2.59.21.32.38.67.5,1.03Z"/>
    <path class="st14" d="M464.18,418.71c0,.09-1.22-.47-3.25-1-1.18-.3-2.39-.5-3.6-.62-1.49-.14-2.99-.18-4.49-.12-2.72.14-5.42.55-8.06,1.23-2,.53-3.25,1-3.28.89.25-.17.53-.31.82-.4.77-.32,1.56-.6,2.36-.84,2.65-.8,5.38-1.27,8.14-1.4,1.52-.06,3.05,0,4.56.16,1.23.15,2.46.39,3.65.74.46.13.91.28,1.35.46.34.11.68.26,1,.42.29.12.56.28.8.48Z"/>
    <path class="st5" d="M436.35,260.7c-2.93-12.44-8.16-25.15-18.48-32.71-9.18-6.73-22.58-9.29-33.94-8.45-5.59.42-11.83,3.21-16.62,6.13-6.56,4-9.15,11.77-12.15,18.85-6,14.19-4.57,33.08,0,38.2l59.39,28.94c10.17-5.72,21.18-13.42,23.55-24.83,1.59-7.78.07-18.4-1.75-26.13Z"/>
    <path class="st1" d="M413.86,238.63l-37.1-9.63c-11.9-1.34-19.91,13.27-20.75,25.21-.92,13.26-1.53,29.5,0,39.41,3,19.93,18.28,24.66,18.28,24.66,0,0,0,17.32.11,23.23l17.31,52.72,24.61-52.72,3.79-95.71c.11-3.66-2.61-6.78-6.25-7.17Z"/>
    <path class="st4" d="M362.64,270.26c-.02,1.38,1.07,2.53,2.45,2.59,1.34.11,2.52-.88,2.64-2.23,0-.02,0-.04,0-.05.03-1.39-1.06-2.54-2.44-2.6-1.35-.11-2.53.89-2.65,2.24,0,.02,0,.04,0,.05Z"/>
    <path class="st4" d="M359.48,262.66c.31.33,2.26-1.09,5-1.06s4.76,1.41,5.06,1.08c.14-.15-.17-.75-1.05-1.4-1.17-.82-2.57-1.27-4-1.27-1.43-.02-2.83.42-4,1.25-.88.65-1.17,1.25-1.01,1.4Z"/>
    <path class="st4" d="M387.58,270.26c-.02,1.38,1.06,2.53,2.44,2.59,1.35.11,2.53-.89,2.65-2.24,0-.01,0-.03,0-.04.02-1.38-1.06-2.54-2.44-2.6-1.34-.12-2.53.87-2.64,2.22,0,.02,0,.05,0,.07Z"/>
    <path class="st4" d="M386.49,263.35c.31.34,2.26-1.08,5-1.05s4.76,1.41,5.06,1.08c.14-.15-.17-.75-1.05-1.4-1.17-.82-2.57-1.27-4-1.28-1.43-.02-2.83.43-4,1.26-.88.64-1.17,1.24-1.01,1.39Z"/>
    <path class="st4" d="M376.37,283.67c0-.16-1.69-.47-4.45-.84-.71-.08-1.37-.22-1.48-.7-.06-.73.11-1.45.48-2.08l2.11-5.33c2.93-7.58,5.06-13.83,4.76-13.94s-2.94,5.94-5.87,13.53c-.71,1.87-1.38,3.65-2,5.36-.45.84-.59,1.82-.39,2.75.21.49.63.86,1.15,1,.39.12.79.18,1.19.18,2.76.2,4.49.22,4.5.07Z"/>
    <path class="st6" d="M374.22,318.41l.11,5c19.92,2,26.6-11.89,26.6-11.89-8.09,4.73-17.34,7.11-26.71,6.89Z"/>
    <path class="st6" d="M385.42,288.86c-.81-1.24-2.18-1.99-3.66-2-2.09-.17-4.1.82-5.25,2.56-.4.8-.49,1.71-.25,2.57.19.44,0,.23.38.53,1.13,1.18,2.54,2.06,4.09,2.57,1.71.44,3.52-.21,4.56-1.64.91-1.38.96-3.16.13-4.59Z"/>
    <path class="st4" d="M384.45,285.62c-.45,0-.48,3-3,5.05s-5.74,1.76-5.77,2.17c0,.19.71.59,2.05.63,1.75.04,3.45-.54,4.81-1.64,1.31-1.05,2.16-2.57,2.36-4.24.1-1.24-.25-1.98-.45-1.97Z"/>
    <path class="st5" d="M385.25,254.55c.27.75,3,.41,6.24.82s5.82,1.31,6.25.64c.2-.32-.25-1-1.3-1.75-2.83-1.82-6.34-2.23-9.51-1.12-1.19.47-1.79,1.05-1.68,1.41Z"/>
    <path class="st5" d="M360.54,253.17c.48.62,2.38,0,4.65,0s4.21.45,4.65-.2c.2-.31-.1-.94-.94-1.54-2.3-1.47-5.26-1.4-7.49.18-.81.61-1.08,1.25-.87,1.56Z"/>
    <path class="st1" d="M414.72,270c.27-.12,11.08-3.56,11,7.56s-11.24,8.72-11.26,8.4.26-15.96.26-15.96Z"/>
    <path class="st6" d="M417.89,281.79s.19.14.51.29c.46.19.99.19,1.45,0,1.18-.42,2.18-2.27,2.26-4.27.03-.95-.15-1.9-.52-2.78-.2-.71-.75-1.27-1.45-1.5-.45-.12-.93.1-1.14.52-.15.31-.09.53-.14.55s-.24-.19-.15-.65c.07-.28.22-.52.45-.69.31-.23.69-.32,1.07-.27.92.19,1.68.85,2,1.74.46.97.68,2.03.64,3.1-.09,2.24-1.26,4.33-2.87,4.78-.61.16-1.25.05-1.77-.31-.33-.24-.38-.49-.34-.51Z"/>
    <path class="st4" d="M421.56,285.5c.05-.06.48.46.41,1.46-.01.61-.3,1.18-.78,1.56-.64.39-1.44.45-2.13.15-.72-.23-1.28-.81-1.48-1.54-.12-.59-.01-1.2.3-1.71.55-.86,1.25-.94,1.25-.88s-.53.3-.9,1.07c-.22.43-.27.92-.15,1.39.19.55.63.97,1.18,1.14.52.24,1.12.22,1.63-.05.38-.29.63-.71.69-1.18.04-.47.04-.94-.02-1.41Z"/>
    <path class="st5" d="M355.12,257.34c1.5-3.22,4.41-5.57,7.5-7.33s6.43-3,9.5-4.82c7.12-4.17,12.44-10.82,14.94-18.68-5.47-2.83-12.28-2.5-17.8.23-5.48,2.89-9.8,7.57-12.26,13.26-2.42,5.68-3.58,11.83-3.39,18"/>
    <path class="st5" d="M417.27,235.66c-8.22-7.81-23.75-12.12-34.46-8.46,1.59,9.35,8.65,19.86,14.86,27s10,19.87,23.63,15.57c.93-.29,2,.56,2.85.06.68-.5,1.14-1.24,1.31-2.06,3.49-11.39.33-23.78-8.19-32.11Z"/>
    <path class="st5" d="M355.74,270.85c-.65.12-1.32.08-1.95-.11-1.75-.51-3.27-1.62-4.27-3.15-1.44-2.29-2.04-5-1.69-7.68.13-1.56.4-3.1.78-4.61.36-1.59.86-3.19,1.4-4.82,1.96-5.55,4.89-10.7,8.66-15.21,1.14-1.36,2.36-2.65,3.66-3.86l1.08-.95c.12-.12.26-.22.41-.31-.41.5-.86.97-1.34,1.41-.85.92-2.12,2.21-3.5,4-3.65,4.53-6.5,9.65-8.43,15.14-.55,1.56-1.01,3.14-1.4,4.75-.39,1.49-.66,3-.8,4.53-.36,2.57.17,5.19,1.5,7.42.93,1.48,2.34,2.59,4,3.15.62.16,1.25.26,1.89.3Z"/>
    <path class="st5" d="M450,236.91c0-5.22-1.47-10.62-5-14.44-4.93-5.3-13.56-6.49-20-3.12s-10.28,10.8-9.85,18c.58,7.37,4.77,13.97,11.18,17.65l4.59-.52c4.6,2.43,10.63.71,14.17-3.09s4.91-9.28,4.91-14.48Z"/>
    <path class="st8" d="M421.94,233.85s-.06.14-.23.37c-.24.35-.49.68-.77,1-.99,1.19-2.13,2.26-3.37,3.18-8.53,6.47-20.49,5.81-28.26-1.55-1.13-1.06-2.14-2.24-3-3.53-.31-.45-.5-.83-.65-1.08s-.21-.39-.19-.4c1.2,1.71,2.58,3.3,4.1,4.74,1.68,1.52,3.58,2.78,5.64,3.73,5.05,2.42,10.86,2.73,16.14.88,2.14-.72,4.16-1.76,6-3.08,1.67-1.26,3.21-2.68,4.59-4.26Z"/>
    <path class="st8" d="M427.28,249c-.11.14-.23.26-.37.37-.37.36-.76.69-1.17,1-1.5,1.13-3.17,2-4.95,2.6-2.65.88-5.44,1.26-8.23,1.11-3.42-.17-6.77-1.04-9.84-2.54-3.05-1.55-5.83-3.57-8.24-6-1.97-1.95-3.73-4.09-5.28-6.39-1.05-1.54-2.02-3.14-2.89-4.79-.32-.58-.53-1-.69-1.36-.08-.16-.15-.32-.2-.49.12.14.22.29.3.45l.76,1.3c.67,1.14,1.66,2.76,3,4.67,1.57,2.25,3.36,4.35,5.32,6.27,2.39,2.35,5.14,4.32,8.13,5.84,3.02,1.47,6.29,2.32,9.64,2.52,2.73.16,5.47-.18,8.08-1,1.78-.56,3.46-1.37,5-2.42,1.05-.72,1.59-1.2,1.63-1.14Z"/>
    <path class="st8" d="M445.51,232s-.14.26-.47.68c-.48.59-1,1.13-1.57,1.63-.84.75-1.74,1.42-2.7,2-1.18.71-2.42,1.3-3.72,1.76-1.3.44-2.64.75-4,.93-1.11.13-2.24.17-3.36.1-.75-.04-1.5-.15-2.24-.31-.28-.03-.55-.12-.8-.24,0-.09,1.18.15,3.05.18,4.93.08,9.72-1.6,13.53-4.73,1.45-1.15,2.21-2,2.28-2Z"/>
    <path class="st8" d="M449.65,239c.13.28.18.59.14.9-.04.85-.34,1.66-.86,2.33-.77.98-1.78,1.75-2.93,2.23-1.36.61-2.78,1.09-4.24,1.41-2.65.6-5.38.72-8.07.35-.81-.12-1.62-.28-2.41-.49-.3-.06-.58-.17-.84-.32,0-.09,1.25.25,3.29.44,2.65.25,5.32.09,7.92-.49,3-.71,5.76-1.74,7-3.35.5-.61.83-1.35.95-2.13.07-.57,0-.88.05-.88Z"/>
    <path class="st14" d="M424.52,442.18c-.18.04-.37.06-.55.05h-1.58c-1.95-.03-3.88-.22-5.8-.56-12.94-2.23-23.88-10.82-29.13-22.85-.79-1.78-1.43-3.62-1.92-5.5-.19-.66-.27-1.19-.35-1.54-.04-.18-.07-.36-.09-.55.25.65.46,1.32.63,2,.57,1.85,1.26,3.65,2.07,5.41,5.37,11.79,16.13,20.23,28.86,22.64,1.89.37,3.81.61,5.73.72,1.37.13,2.13.14,2.13.18Z"/>
    <path class="st14" d="M377.7,439c-.16-.06-.3-.14-.44-.24l-1.21-.78-4.39-2.98c-4.79-3.26-9.81-6.18-15-8.76-5.18-2.55-10.71-4.32-16.41-5.24-1.73-.26-3.48-.42-5.23-.48-.64,0-1.29-.02-1.93-.08.16-.05.33-.07.5-.06.32,0,.81-.07,1.43-.06,1.77-.02,3.53.09,5.28.32,5.78.82,11.39,2.56,16.62,5.15,5.21,2.59,10.2,5.57,14.95,8.93,1.83,1.26,3.29,2.31,4.3,3.05l1.15.86c.26.19.39.3.38.37Z"/>
    <polygon class="st1" points="427.98 436.36 359.71 439.81 365 459.92 455.98 460.34 427.98 436.36"/>
    <path class="st1" d="M362.88,439.65s-22.06-11-24.79-11.11c-2.09-.07-14.21,2-19.79,2.95-2.18.3-3.71,2.31-3.42,4.49.3,1.54,1.61,2.68,3.18,2.75-1.65.82-2.59,2.6-2.34,4.43.44,3.17,4.36,3.25,4.36,3.25-.17.18-.33.37-.47.57-1.22,1.71-.83,4.08.88,5.3.57.41,1.23.65,1.93.7l1.78.13s-2.18,1.33-1.82,3.49c.7,4.14,10.16,3.52,10.16,3.52l32.46-.23-2.12-20.24Z"/>
    <path class="st1" d="M319.7,426.25c.31,1.35,1.08,4.22,3.61,5.18l12.79-2.43s-10.09-1.85-11.7-3.27c-.64-.59-1.35-1.1-2.11-1.52-.92-.44-2.02-.05-2.45.87-.17.36-.22.77-.14,1.17Z"/>
    <path class="st6" d="M330,429.77c0,.22-2.56.87-5.82,1.31s-5.88.71-5.92.47,2.55-.87,5.81-1.31,5.93-.71,5.93-.47Z"/>
    <path class="st6" d="M328.23,437.39c.06.22-2.15,1-5,1.29s-5.17.11-5.16-.11,2.28-.4,5.06-.73,5.04-.68,5.1-.45Z"/>
    <path class="st6" d="M334.63,435.47c.21.09.07.83-.58,1.41s-1.4.63-1.47.42.4-.59.91-1.05.93-.88,1.14-.78Z"/>
    <path class="st6" d="M330.89,445.32c0,.23-2.45.72-5.51,1.08s-5.57.47-5.61.24,2.43-.71,5.51-1.07,5.59-.48,5.61-.25Z"/>
    <path class="st6" d="M337.71,440.76c.1,0,.34.19.48.68.34,1.38-.45,2.79-1.81,3.21-.5.14-.82.05-.83-.06s1.05-.54,1.64-1.6.31-2.14.52-2.23Z"/>
    <path class="st6" d="M334,453c0,.23-2.24.48-5,.56s-5.05-.05-5.05-.28,2.24-.48,5-.56,5.05.06,5.05.28Z"/>
    <path class="st6" d="M340.61,447.86c.1,0,.3.22.36.73.06.65-.09,1.29-.42,1.85-.77,1.28-1.76,1.85-1.9,1.72s.53-1.06,1.16-2.13.59-2.1.8-2.17Z"/>
  </g>
  <g id="freepik--character-1--inject-101">
    <path class="st11" d="M275.75,449c-4.48-2.13-19.43-8-19.43-8l-7.32-50-29.78,4.47s17.33,63.73,22,64.17,31.23,0,31.23,0l8.66-.13s-2.22-9.03-5.36-10.51Z"/>
    <path class="st12" d="M255,458.08c-.45.3-.96.49-1.49.55-2.58.49-5.25-.22-7.25-1.93-.42-.32-.77-.74-1-1.22.07-.06.48.37,1.25.93,1,.72,2.12,1.25,3.31,1.57,1.19.31,2.43.41,3.65.29.5-.1,1.02-.17,1.53-.19Z"/>
    <path class="st12" d="M272.22,459.49c-.07.05-.69-1-1.83-2.52-.66-.89-1.43-1.69-2.3-2.37-1.11-.78-2.33-1.38-3.63-1.78-2.38-.83-4.67-1.91-6.82-3.22-.92-.49-1.79-1.06-2.6-1.72.96.39,1.89.86,2.78,1.4,2.18,1.21,4.47,2.23,6.82,3.05,1.35.41,2.62,1.05,3.75,1.89.89.72,1.67,1.58,2.3,2.54.43.64.83,1.31,1.19,2,.15.22.26.47.34.73Z"/>
    <path class="st5" d="M185.14,225.9l-11,7.58s-13.7-.82-23.64,2.56c-5.51,1.88-12.19,4.15-19.43,11.48-6.61,6.69-11.38,14.98-13.83,24.06l-13.31,110.87-20.2,78.23h134.47v-99l12.87-45.41s-3.34-5.24-3.24-7.33,7.61-50.48,7.61-50.48l-15.33-18.34-34.97-14.22Z"/>
    <path class="st5" d="M233.64,256.16s7.61,3.55,9.47,16.84,15.34,115.86,15.34,115.86c0,0-14.89,3.44-28.48,5l-17.11,2.91-.43-68.58,21.21-72.03Z"/>
    <g class="st9">
      <path d="M131.37,457.56c22.86-27.4,26.45-67.14,49.6-94.3l-14.17,8c2.51-23.61,4.92-48.16-3-70.55-4.2,53.46-15.33,106.15-33.1,156.74"/>
    </g>
    <path class="st5" d="M168,258.3c-.52,42.29-2.46,84.52-5.82,126.71-.41,3.28-1.14,6.52-2.16,9.67-1.03,3.3-4.32,5.35-7.74,4.83l-27.59-4.16c-4.8-.81-6.62-1.45-8.06-4.55-.97-2.14-1.42-4.48-1.32-6.83,1.06-37.75-2.24-57.75,0-93.44"/>
    <path class="st4" d="M115.39,290.53v.73c0,.48-.05,1.22-.09,2.16-.1,1.9-.23,4.69-.34,8.29s-.2,8-.22,13.13.08,10.94.26,17.38c.36,12.88,1,28.23.75,45.28,0,2.13-.09,4.28-.14,6.47-.08,2.18.31,4.35,1.14,6.36.72,2.12,2.52,3.68,4.72,4.09,2.23.52,4.48.92,6.75,1.2l14,2.1,7.15,1.08c1.19.17,2.42.39,3.59.51,1.18.08,2.37-.16,3.43-.68,1.06-.53,1.97-1.33,2.63-2.32.61-1.03,1.05-2.14,1.3-3.31.67-2.3,1.2-4.63,1.56-7,.44-4.73.76-9.46,1.11-14.08.68-9.25,1.26-18.17,1.77-26.68,1-17,1.69-32.34,2.15-45.22s.72-23.3.88-30.51c.08-3.59.14-6.38.18-8.29,0-.94.02-1.66.06-2.16v-.74,2.9c0,1.91-.05,4.7-.09,8.3-.09,7.2-.29,17.63-.71,30.51s-1.07,28.22-2,45.24c-.5,8.51-1.07,17.44-1.74,26.69-.34,4.63-.66,9.32-1.11,14.11-.37,2.4-.9,4.77-1.57,7.1-.27,1.22-.73,2.38-1.37,3.45-.7,1.07-1.68,1.93-2.83,2.49-1.14.57-2.42.82-3.69.74-1.26-.13-2.43-.35-3.64-.52l-7.15-1.08-14-2.11c-2.29-.29-4.56-.69-6.8-1.22-1.15-.26-2.22-.78-3.13-1.52-.84-.8-1.5-1.78-1.92-2.86-.86-2.07-1.26-4.3-1.18-6.54.05-2.18.1-4.33.15-6.46.31-17-.33-32.37-.63-45.26-.16-6.44-.22-12.27-.19-17.39s.15-9.53.31-13.13.3-6.4.43-8.29l.15-2.16c.04-.53.07-.78.07-.78Z"/>
    <path class="st4" d="M218.2,399.24c-.01-.11-.01-.21,0-.32v-.93c0-.86.07-2.07.12-3.6.06-3.13.45-7.64,1.1-13.19.41-2.77.75-5.82,1.4-9,.3-1.62.57-3.3.94-5s.74-3.48,1.13-5.28c1.62-7.22,3.69-15.07,5.62-23.37,4-16.57,5.43-32,5.12-43.19l-.27-7.52c-.12-2.22-.34-4.12-.46-5.67s-.22-2.73-.29-3.59c0-.39-.05-.69-.06-.93s0-.32,0-.32c.03.1.05.2.06.31l.12.93c.09.85.22,2.05.39,3.58s.39,3.45.54,5.67.22,4.75.35,7.54c.41,11.17-.95,26.71-5,43.31-1.93,8.31-4,16.16-5.66,23.35-.4,1.8-.78,3.56-1.16,5.27s-.64,3.38-1,5c-.66,3.22-1,6.26-1.45,9-.7,5.54-1.14,10-1.26,13.16-.1,1.53-.17,2.73-.23,3.59,0,.39-.05.69-.07.93.01.09.02.18.02.27Z"/>
    <path class="st4" d="M217.25,331.89c-.11.17-.24.32-.39.46l-1.19,1.24c-1,1.08-2.57,2.59-4.5,4.43-3.85,3.68-9.36,8.59-15.76,13.62s-12.47,9.22-17,12.09c-2.25,1.44-4.08,2.58-5.37,3.33l-1.49.85c-.16.11-.34.21-.53.27.15-.13.31-.25.48-.35l1.43-.95c1.26-.8,3.06-2,5.28-3.45,4.43-2.95,10.45-7.18,16.84-12.2s11.92-9.87,15.83-13.48c2-1.8,3.53-3.27,4.61-4.3l1.25-1.17c.15-.15.32-.28.51-.39Z"/>
    <g class="st9">
      <path d="M233.28,310.44c-3.28,30.45-14.12,63.72-15.08,82.93,4.3-13.69,9.74-26.77,13.74-40.55s5.8-28.74,1.34-42.38Z"/>
    </g>
    <path class="st4" d="M253.1,133.35c4.07-1.42,6.23-5.87,4.81-9.94-.22-.64-.53-1.25-.91-1.82-1-1.54-2.61-2.68-3.55-4.29-.66-1.39-1.19-2.85-1.58-4.34-1.83-4.7-5.79-8.24-10.66-9.53-4.85-1.23-9.98-.63-14.42,1.69-1.76.89-3.48,2-5.44,2.18s-3.74-.6-5.61-1c-7.07-1.26-13.82,3.44-15.09,10.51-.39,2.19-.21,4.45.52,6.55-6.08.97-10.22,6.69-9.25,12.77.75,4.71,4.42,8.43,9.12,9.23,3.16.57,6.39-.25,9.52-1,12.69-2.92,25.68-4.37,38.71-4.32"/>
    <path class="st5" d="M187.44,201.89c-4.81-8.03-6.64-17.49-5.18-26.73,1.49-9.14,5.21-20.19,12.26-26.2-3.07-5-.5-9.43,3.32-13.91s9.51-7,15.2-8.48c8.51-2.27,17.4-2.74,26.1-1.38,7.07,1.11,16.18,4.16,16.12,9.4-.07,5.47-4,7.14-4,7.14,4.55,2.58,8.47,6.14,11.48,10.42,7.08,10.14,8.8,19.31,5.74,28.53s-6.57,16.19-13.44,21.06"/>
    <path class="st14" d="M247.25,211.74c1.2-.8,2.57-1.3,4-1.45l-.26-.07c.26,0,.52.01.77.05.97-.04,1.91.32,2.6,1h0c1.37.89,2.35,2.26,2.76,3.84.58,2.83-.47,5.74-2.72,7.55-2.3,2.31-6.05,2.32-8.36.02-1.19-1.18-1.82-2.81-1.73-4.49-.19-2.51.92-4.95,2.94-6.45Z"/>
    <path class="st11" d="M184.63,233.25l11.12-73.36c.68-3.68,4.07-6.22,7.79-5.85l39.46-1.73c12.26,1.21,17.18,17.63,15.45,29.82-1.92,13.55-4.8,30-8.45,39.67-7.33,19.4-23.24,18.78-23.24,18.78,0,0-3,13.89-4.57,21.17l-8.19,28.78-29.37-57.28Z"/>
    <path class="st4" d="M250.65,198c-.27,1.39-1.6,2.32-3,2.09-1.38-.18-2.35-1.44-2.18-2.82,0-.02,0-.03,0-.05.27-1.39,1.6-2.32,3-2.09,1.38.18,2.35,1.44,2.18,2.82,0,.02,0,.03,0,.05Z"/>
    <path class="st4" d="M253.09,189.91c-.39.27-2-1.57-4.81-2.14s-5.08.4-5.31,0c-.12-.18.33-.72,1.35-1.18,1.37-.58,2.88-.73,4.34-.42,1.44.3,2.75,1.04,3.74,2.13.72.83.88,1.49.69,1.61Z"/>
    <path class="st4" d="M224.6,193.23c-.27,1.39-1.6,2.31-3,2.08-1.38-.17-2.35-1.43-2.18-2.8,0-.02,0-.05,0-.07.27-1.39,1.6-2.31,3-2.08,1.38.18,2.35,1.44,2.18,2.82,0,.02,0,.03,0,.05Z"/>
    <path class="st4" d="M225.77,184.8c-.39.27-2.05-1.57-4.81-2.14s-5.09.4-5.32,0c-.12-.18.33-.72,1.35-1.18,1.37-.58,2.89-.73,4.34-.41,1.44.29,2.76,1.03,3.75,2.12.71.81.92,1.49.69,1.61Z"/>
    <path class="st4" d="M231.57,207.41c0-.16,1.8-.1,4.67.12.72.08,1.42.07,1.64-.38.22-.72.22-1.48,0-2.2-.31-1.85-.64-3.78-1-5.81-1.32-8.27-2.12-15-1.79-15.06s1.68,6.61,3,14.88c.3,2,.6,4,.88,5.83.27.95.19,1.95-.21,2.85-.31.46-.82.75-1.37.79-.42.03-.83,0-1.24-.08-2.86-.43-4.6-.78-4.58-.94Z"/>
    <path class="st12" d="M226.71,240.58c-9.48-1.81-18.27-6.22-25.39-12.73,0,0,3.68,15.15,24.14,17.41l1.25-4.68Z"/>
    <path class="st12" d="M229.8,213.91c-.89-2.11-2.76-3.65-5-4.13-1.47-.29-2.99.17-4.06,1.23-1.1,1.22-1.44,2.95-.86,4.49.73,1.62,2.38,2.63,4.16,2.54,1.65-.18,3.23-.75,4.6-1.68.42-.2.8-.49,1.09-.85.31-.41.38-.96.18-1.43"/>
    <path class="st4" d="M223,207.65c.45.06-.16,3.07,2,5.73s5.4,3,5.33,3.42c0,.2-.83.44-2.19.2-1.77-.34-3.36-1.29-4.49-2.69-1.09-1.34-1.61-3.05-1.46-4.77.15-1.28.63-1.95.81-1.89Z"/>
    <path class="st4" d="M228.43,177.52c-.43.7-3.12-.23-6.45-.51s-6.14.06-6.43-.7c-.12-.36.48-1,1.69-1.49,1.59-.61,3.3-.84,5-.67,1.71.14,3.35.69,4.8,1.6,1.11.72,1.58,1.44,1.39,1.77Z"/>
    <path class="st4" d="M253.73,181.69c-.62.53-2.39-.52-4.68-1s-4.32-.45-4.63-1.2c-.13-.36.31-.93,1.28-1.35,2.63-.98,5.6-.26,7.5,1.8.68.78.8,1.48.53,1.75Z"/>
    <path class="st5" d="M244.45,158.6s-18.74-4.3-37.51,13.88c-12.37,12-18.1,29.13-18.1,29.13l-.12-35,8.71-14.07,14.57-4.54,24.95,3.89,8.32,6.6"/>
    <path class="st5" d="M207.24,152.46c31.49-.81,53.31,14.23,52.68,38.65l9.4-14.15-11.58-22.09-16.09-8.09-35.46-2.12,1.05,7.8Z"/>
    <path class="st14" d="M184.73,198.45c1.28-.86,2.74-1.39,4.27-1.56l-.28-.08c.28,0,.55.01.83.05,1.03-.06,2.04.3,2.8,1h0c1.48.96,2.55,2.44,3,4.15.61,3.04-.52,6.17-2.93,8.12-2.48,2.49-6.5,2.5-8.99.02-1.28-1.28-1.96-3.04-1.87-4.84-.18-2.68,1.02-5.26,3.17-6.86Z"/>
    <path class="st8" d="M194.1,189.27c-.47-.15-.89-.42-1.23-.77-1-.9-1.74-2.06-2.16-3.34-.66-1.93-.54-4.04.33-5.88.48-1,1.1-2,1.51-3,.47-1.01.41-2.19-.16-3.15-.72-.94-1.57-1.76-2.53-2.45-.94-.73-1.71-1.65-2.28-2.7-.93-1.79-1.28-3.82-1-5.82.17-1.33.65-2.6,1.4-3.71.25-.43.59-.79,1-1.06-.97,1.45-1.58,3.11-1.8,4.84-.18,1.86.21,3.73,1.11,5.37.53.95,1.26,1.79,2.13,2.45,1.04.73,1.95,1.62,2.71,2.64.71,1.18.79,2.63.21,3.88-.46,1.16-1.11,2.12-1.57,3.07-.83,1.67-1,3.58-.47,5.37.35,1.22.97,2.34,1.83,3.27.58.64,1.01.93.97.99Z"/>
    <path class="st8" d="M197.59,147.39c-.91,1.36-1.56,2.89-1.9,4.49-.31,1.73-.14,3.51.49,5.15.67,1.86,2.3,3.37,3.88,5.18.82.9,1.44,1.95,1.82,3.1.3,1.11.28,2.28-.07,3.38-.61,2-1.6,3.61-1.79,5.08-.25,1.15-.05,2.35.54,3.36.45.69.95.86.9.94s-.13,0-.35-.1c-.31-.15-.59-.37-.81-.64-.76-1.05-1.07-2.36-.86-3.64.14-1.65,1.12-3.31,1.63-5.21.28-.96.28-1.98,0-2.94-.36-1.03-.93-1.98-1.67-2.79-1.49-1.72-3.26-3.37-4-5.45-.65-1.77-.77-3.7-.35-5.54.26-1.23.78-2.39,1.52-3.4.59-.71.99-1,1.02-.97Z"/>
    <path class="st8" d="M215.61,166.14s-.29.26-.85,0c-.32-.15-.59-.41-.75-.73-.21-.43-.28-.91-.18-1.38.16-1,1-2,1.23-3s-.43-2.15-1.48-3c-1.14-.77-2.08-1.8-2.74-3-.5-1.03-.74-2.17-.7-3.31-.05-1.05.28-2.09.94-2.91-.2.95-.32,1.92-.35,2.9.05,1.05.32,2.07.8,3,.64,1.1,1.53,2.05,2.59,2.76.58.46,1.07,1.03,1.43,1.68.36.66.45,1.43.25,2.15-.42,1.31-1.21,2.1-1.39,2.93-.21.62,0,1.31.51,1.71.38.2.68.13.69.2Z"/>
    <path class="st8" d="M224.81,151.06s.21,0,.39.25c.22.37.26.83.11,1.24-.22.51-.5,1-.82,1.45-.27.52-.39,1.1-.37,1.69.1,1.13.46,2.22,1.06,3.19.45.79.72,1.3.62,1.37s-.52-.31-1.11-1.05c-.83-.98-1.33-2.21-1.41-3.49-.03-.74.16-1.48.55-2.11.38-.56.76-.91.93-1.27.19-.4.21-.86.05-1.27Z"/>
    <path class="st8" d="M257.1,146.53s-.12.31-.5.74-1,1-1.58,1.73c-.7.86-1.03,1.97-.91,3.07.21,1.45.23,2.93.06,4.39-.3,1.5-1.05,2.88-2.14,3.95-.88.86-1.97,1.49-3.16,1.82-2.05.55-3.34.08-3.3,0,1.05-.1,2.1-.29,3.12-.57,2.4-.84,4.17-2.89,4.66-5.38.16-1.4.16-2.81,0-4.21-.08-1.27.37-2.52,1.23-3.46.56-.58,1.16-1.11,1.81-1.59.42-.34.67-.53.71-.49Z"/>
    <path class="st8" d="M268.37,163.59c.09.15-1,.4-1.71,1.8-.34.73-.91,1.56-1.39,2.47-.5,1.07-1.11,2.1-1.8,3.06-1.47,1.74-3.74,2.61-6,2.28-.92-.04-1.8-.43-2.45-1.08.07-.14.95.41,2.51.5,2.02.13,3.97-.7,5.29-2.23.66-.92,1.26-1.9,1.78-2.91.56-1,1.14-1.68,1.56-2.39.34-.6.86-1.07,1.49-1.35.44-.18.7-.2.72-.15Z"/>
    <path class="st8" d="M266.79,184.22c.09.06-.08.52-.64,1.05-1.56,1.43-3.92,1.54-5.61.27-.61-.48-.82-.92-.74-1s1.5,1.13,3.55,1,3.28-1.49,3.44-1.32Z"/>
    <path class="st8" d="M239.93,139.73c.06.14-1,.43-2.08,1.57-1.45,1.46-2.09,3.54-1.72,5.56.25,1.14.74,2.44.4,3.66-.28,1.01-.87,1.9-1.7,2.54-.67.65-1.5,1.09-2.41,1.28-.07-.13.87-.6,2-1.71.66-.61,1.13-1.4,1.35-2.28.24-1-.18-2-.47-3.32-.26-1.24-.14-2.54.36-3.71.4-.94,1-1.78,1.78-2.45.65-.69,1.54-1.1,2.49-1.14Z"/>
    <path class="st8" d="M218,150.14c-.2-.14.8-1.79,1.29-4s.33-4.18.58-4.22.8,1.95.24,4.4-1.97,3.97-2.11,3.82Z"/>
    <path class="st8" d="M204.48,145.25c0-.06.22-.18.47-.54.36-.52.55-1.13.54-1.76,0-1.62-1.14-3.7-2-6.22-.4-1.2-.57-2.47-.49-3.73.07-1.09.46-2.13,1.12-3,.44-.58,1.05-1.01,1.75-1.21.51-.11.79,0,.78,0s-.27.08-.68.26c-.56.28-1.04.72-1.37,1.25-1,1.32-1.13,3.72-.32,6.12s2,4.61,1.78,6.5c-.03.75-.35,1.47-.88,2-.38.37-.7.37-.7.33Z"/>
    <path class="st8" d="M225.47,140.3c0-.05.18-.24.56-.53s1-.69,1.21-1.36c0-.93-.3-1.83-.85-2.58-.57-.94-1.39-1.86-2.19-3-.87-1.01-1.39-2.29-1.45-3.63.16-1.08.65-2.08,1.39-2.88,1.18-1.33,2.07-1.93,2.14-1.86-.49.78-1.05,1.53-1.67,2.22-.59.74-.97,1.63-1.09,2.57.13,1.14.6,2.22,1.36,3.09,1.51,2,3.33,4.06,2.93,6.19-.33.68-.9,1.21-1.61,1.47-.44.26-.7.35-.73.3Z"/>
    <path class="st8" d="M244.74,141c-.05-.12.92-.32,1.46-1.58.3-.72.37-1.51.21-2.27-.23-.98-.54-1.94-.93-2.87-.43-1-.64-2.08-.63-3.17.08-.93.47-1.79,1.12-2.46,1-1.19,2.16-1.21,2.13-1.06-.66.34-1.23.83-1.67,1.43-.48.61-.77,1.35-.81,2.12.05.98.26,1.95.64,2.86.41.96.72,1.97.91,3,.15.91,0,1.85-.44,2.66-.29.55-.76.99-1.33,1.24-.4.15-.66.1-.66.1Z"/>
    <path class="st4" d="M251.3,141.73c-.78-.06-1.55-.19-2.31-.39-1.47-.33-3.61-.7-6.26-1.09-6.92-.94-13.94-.84-20.83.31-6.87,1.27-13.6,3.22-20.08,5.84l-5.91,2.36c-.71.33-1.44.6-2.2.79.65-.43,1.35-.79,2.07-1.09,1.35-.66,3.34-1.57,5.82-2.61,6.47-2.79,13.23-4.84,20.16-6.12,6.97-1.17,14.08-1.19,21.06-.07,2.1.34,4.19.8,6.24,1.36.77.17,1.52.41,2.24.71Z"/>
    <path class="st4" d="M200.08,150.11h.21l.61-.12,1-.2,1.36-.22c2.89-.41,5.82-.48,8.73-.22,4.31.4,8.56,1.33,12.64,2.77,2.32.78,4.69,1.76,7.13,2.83s4.93,2.26,7.39,3.64c10,5.35,16.73,13.8,19.1,20.77.96,2.76,1.51,5.64,1.62,8.56.06,1,.05,1.83,0,2.38v.62c0,.07,0,.14,0,.21.01-.07.01-.14,0-.21v-.62c0-.54.08-1.35.06-2.39-.05-2.95-.55-5.87-1.49-8.66-2.31-7.09-9.13-15.68-19.19-21.08-2.48-1.38-5-2.57-7.43-3.65s-4.84-2-7.18-2.82c-4.08-1.42-8.33-2.33-12.64-2.7-2.93-.23-5.88-.1-8.78.38l-1.36.26-1,.25-.6.16c-.12.03-.18.05-.18.06Z"/>
    <path class="st4" d="M239.26,158.53c-.22-.05-.44-.09-.66-.11-.63-.09-1.27-.14-1.91-.15-2.36-.05-4.71.21-7,.78-7.52,2.02-14.44,5.81-20.18,11.07-3.14,2.88-6.03,6.02-8.63,9.4-2.19,2.7-4.21,5.54-6.06,8.48-1.26,1.98-2.37,4.05-3.33,6.19-.32.76-.56,1.36-.7,1.77-.09.21-.15.42-.19.64.11-.19.2-.39.28-.6.17-.41.43-.99.78-1.74,1.02-2.1,2.17-4.13,3.45-6.08,1.88-2.9,3.92-5.7,6.11-8.38,2.61-3.34,5.49-6.46,8.61-9.32,5.69-5.21,12.52-9.01,19.94-11.1,2.25-.59,4.57-.9,6.9-.93.82,0,1.47,0,1.9.07.23.03.46.03.69.01Z"/>
    <path class="st11" d="M69.22,457.2s6.12-2,10-3.14c2.17-.63,11.15-4.6,16.61-5.63,4.56-.86,17.19-7.31,19.15-8.63s9.7-44.45,9.7-44.45l29.2,4.4s-15.57,41.6-16.55,45.57-4.68,14.24-4.68,14.24h-63.43v-2.36Z"/>
    <path class="st12" d="M120.35,458.6c0-.09,1-.17,2.37-.77,3.78-1.54,6.16-5.33,5.88-9.41-.09-1.53-.44-2.44-.35-2.47s.15.2.3.62c.21.59.35,1.2.42,1.82.49,4.29-2.04,8.35-6.11,9.79-.59.21-1.2.35-1.82.42-.23.05-.46.05-.69,0Z"/>
    <path class="st12" d="M116.52,456.47c-.19.1-.39.19-.59.26-.59.21-1.19.36-1.8.47-2.27.24-4.56.29-6.84.15-1.55-.04-3.1.14-4.6.55-1.61.48-3.2,1.36-5,2-4.06,1.28-8.47.95-12.29-.94l-.62-.3.66-.18.59-.17c2.08-.6,4.06-1.5,5.88-2.67,1.67-1.14,3.26-2.41,4.73-3.8,2.63-2.3,5.72-4.01,9.07-5,2.23-.68,4.49-1.23,6.79-1.62l1.88-.31c.21-.05.43-.07.65-.07-.2.09-.42.14-.64.17l-1.85.41c-2.27.47-4.51,1.06-6.72,1.77-3.27,1.02-6.29,2.73-8.86,5-1.48,1.42-3.08,2.71-4.77,3.87-1.86,1.2-3.88,2.12-6,2.74l-.6.17v-.48c3.71,1.82,7.98,2.16,11.93.94,1.79-.57,3.4-1.45,5.06-1.93,1.55-.4,3.14-.57,4.74-.51,2.26.17,4.54.17,6.8,0,1.56-.21,2.38-.58,2.4-.52Z"/>
  </g>
  <g id="freepik--character-4--inject-101">
    <polygon class="st4" points="547.64 383.24 530.67 422.51 514.93 473.09 667.44 473.81 664.84 378.01 589.88 370.37 547.64 383.24"/>
    <path class="st7" d="M466.11,389.27s-12.28,4.67-21.89,7.5-26.76,13.42-26.76,13.42c0,0-17.46,15.73-16.83,17.81s2.7,3.08,5.35.95,15.74-9.86,15.74-9.86c0,0,.84,4.38,3.67,4.88,1.43.35,2.93.28,4.32-.2,0,0,1.16,4.11,3.2,5.45,1.19.79,2.52,1.36,3.92,1.67.08,1.53,1.19,2.8,2.7,3.08,1.76.5,3.58.71,5.41.64,0,0,9.11-5.52,10.56-8.18s3.22-6.25,3.22-6.25l3.76-1.88,11.55-2-7.92-27.03Z"/>
    <path class="st15" d="M453.44,410.05c-.32.51-.7.97-1.13,1.39-1.18,1.17-2.56,2.13-4.06,2.85-2.28,1.11-4.74,1.79-7.27,2-1.53.16-3.07.09-4.58-.19-1.67-.3-3.25-.95-4.65-1.91l.3-.41c1.13.84,2.21,1.75,3.22,2.73.54.52,1.02,1.09,1.45,1.7.44.65.74,1.37.88,2.14.35,1.84-.11,3.74-1.25,5.23l-.12.15-.18-.07c-1.73-.72-3.38-1.64-4.9-2.74-1.48-1-2.84-2.08-4.12-3.09s-2.46-2-3.59-2.9c-1.02-.97-1.51-2.37-1.34-3.77.09-.58.27-1.15.52-1.68.21-.51.42-1,.64-1.41.43-.85.85-1.56,1.21-2.13s.67-1,.89-1.25c.1-.15.22-.29.35-.41-.07.16-.16.32-.27.46-.19.29-.47.73-.81,1.3-.41.7-.79,1.41-1.13,2.15-.21.43-.41.9-.6,1.4-.23.51-.39,1.05-.46,1.61-.14,1.28.33,2.56,1.27,3.44,1.08.88,2.34,1.83,3.6,2.83s2.64,2.05,4.11,3.05c1.5,1.06,3.12,1.96,4.82,2.66l-.3.09c1.05-1.37,1.47-3.12,1.15-4.82-.13-.7-.41-1.36-.8-1.95-.41-.58-.87-1.12-1.38-1.62-.99-.97-2.05-1.87-3.16-2.69l.3-.41c1.33.93,2.84,1.56,4.44,1.85,1.47.29,2.97.37,4.46.23,2.48-.2,4.91-.84,7.16-1.9,1.49-.68,2.87-1.59,4.08-2.7.81-.72,1.2-1.26,1.25-1.21Z"/>
    <path class="st15" d="M437,422.92c.48-.24.98-.44,1.5-.6,1.19-.45,2.29-1.1,3.26-1.92.49-.45.83-1.04,1-1.68.23-1.07-.35-2.14-1.36-2.54,0,0,.17-.06.46,0,.42.13.77.41,1,.78.36.54.5,1.19.39,1.83-.15.77-.55,1.47-1.14,2-1.01.89-2.21,1.54-3.5,1.9-.51.2-1.06.28-1.61.23Z"/>
    <path class="st15" d="M439.57,429.89c.71-.52,1.44-1.01,2.21-1.44.69-.44,1.49-1,2.35-1.62.94-.67,1.81-1.43,2.6-2.26.38-.42.65-.93.79-1.48.11-.5.04-1.03-.19-1.49-.4-.81-1.13-1.42-2-1.67-.6-.18-1.23-.26-1.86-.23-.24.03-.47.03-.71,0,.22-.11.46-.18.7-.2.66-.11,1.34-.09,2,.07,1,.24,1.86.91,2.34,1.82.28.56.36,1.2.25,1.81-.16.63-.46,1.22-.89,1.71-.82.87-1.73,1.64-2.72,2.3-.89.63-1.72,1.15-2.43,1.56-.76.49-1.58.86-2.44,1.12Z"/>
    <path class="st15" d="M451.69,429.09c.18-.44.32-.89.43-1.35.33-1.59-.69-3.15-2.28-3.48-.65-.13-1.32-.05-1.91.25-.8.35-1.13.83-1.2.77s.19-.62,1-1.1c1.52-.91,3.49-.41,4.4,1.12.45.76.57,1.66.33,2.51-.22.94-.74,1.32-.77,1.28Z"/>
    <path class="st7" d="M527.35,442.27l-3.21,4.73h-23.93l-30.48,12.28h78.72c.67-.83,2.72-4,2.72-4l-23.82-13.01Z"/>
    <path class="st14" d="M636.43,296.61c-17.19-27.81-54.13-61.79-57.26-63.36s-53.63-4.74-53.63-4.74l-39.88,28.3-13.24,19.79c-1.81,5.63-5,14.3-3.54,20l1.23,9.76,41.6,26.85,20.69,12.08,11.52,16.34-.92,27.37,16.3-3.1s25.1,2.48,49.16,3.07,57.15-7.05,57.15-7.05c0,0-10.01-54.28-29.18-85.31Z"/>
    <path class="st14" d="M540.47,276.4l14.12,78.34-29.28,86.41,29.28,16s20.92-36.82,30.34-59.09,12.85-34.71,12.85-34.71c0,0,0-84.67-3-94.43s-12.94-29.11-23.4-28.06-35.19,11.78-30.91,35.54Z"/>
    <path class="st14" d="M470.11,306.4l25.23,61.78c-1.37,2.25-2.38,4.71-3,7.27l-31.47,15.55,9.24,29.75s39.26-13,44.82-16,21.6-14.42,24.38-23.69-12.63-42.11-12.63-42.11l-56.57-32.55Z"/>
    <path class="st4" d="M532.4,345.33c-.19-.07-.37-.16-.54-.27l-1.49-.83c-1.29-.74-3.15-1.82-5.43-3.2s-5-3-7.86-5c-1.45-1-3-2.08-4.45-3.29l-4.56-3.77-15.92-13.34-4.78-4.09-1.29-1.13c-.16-.12-.3-.26-.42-.42.18.09.34.2.49.34l1.34,1c1.21,1,2.87,2.33,4.9,4,4.14,3.43,9.78,8.08,16,13.22l4.55,3.79c1.48,1.19,3,2.28,4.4,3.28,2.88,2,5.54,3.71,7.79,5.13l5.33,3.33,1.44.92c.18.09.35.2.5.33Z"/>
    <path class="st4" d="M535.32,232.13c.76.89,1.41,1.86,1.93,2.91,1.44,2.86,2.2,6,2.24,9.2.03,2.21-.24,4.4-.79,6.54-.67,2.46-1.68,4.82-3,7-3.07,4.93-7.23,9.09-12.16,12.16-4.84,3.24-10.46,5.12-16.28,5.42-4.78.19-9.48-1.22-13.37-4-2.62-1.85-4.69-4.37-6-7.3-.21-.45-.39-.92-.53-1.4-.13-.34-.22-.7-.28-1.06-.06-.26-.1-.48-.14-.66-.01-.08-.01-.15,0-.23.32,1.11.71,2.2,1.16,3.27,1.35,2.85,3.41,5.29,6,7.09,3.83,2.7,8.45,4.05,13.13,3.85,5.72-.33,11.24-2.18,16-5.37,4.86-3.04,8.96-7.14,12-12,1.3-2.13,2.31-4.42,3-6.82.55-2.09.83-4.25.83-6.42,0-3.16-.7-6.27-2.06-9.12-.2-.45-.44-.89-.69-1.31-.21-.37-.4-.69-.57-.93l-.37-.56c-.02-.18-.06-.25-.05-.26Z"/>
    <path class="st4" d="M524.46,268.24c-.14.05-.87-1.57-2.1-3.35s-2.48-3.05-2.37-3.16c2.2,1.58,3.78,3.89,4.47,6.51Z"/>
    <path class="st4" d="M534,259.34c-1.04-.91-2.16-1.73-3.35-2.45-1.27-.56-2.58-1.02-3.92-1.36,2.94-.16,5.73,1.3,7.27,3.81h0Z"/>
    <path class="st4" d="M539.19,248.72c-.05.14-1.52-.31-3.37-.56s-3.39-.24-3.4-.39c1.13-.33,2.32-.38,3.47-.13,1.17.08,2.31.45,3.3,1.08Z"/>
    <path class="st4" d="M538.29,236.36c-.98.36-1.98.64-3,.84-.98.36-1.98.66-3,.88.82-.7,1.81-1.17,2.87-1.38,1-.37,2.07-.48,3.13-.34Z"/>
    <path class="st4" d="M508.34,274.23c-.6-.95-.88-2.08-.78-3.2-.08-1.13.2-2.25.81-3.2.15.05-.29,1.44-.29,3.2s.4,3.15.26,3.2Z"/>
    <path class="st4" d="M492.21,271.07c.34-.78.83-1.49,1.44-2.08.9-1.06,1.73-1.84,1.83-1.74s-.53,1-1.43,2.08-1.73,1.83-1.84,1.74Z"/>
    <path class="st4" d="M594.73,268.91s0,.14.12.42c.12.41.21.83.28,1.26.22,1.12.42,2.81.64,5,.42,4.4.8,10.87,1.11,19.13.62,16.51,1,40.15,1.12,68.62v.06c-2.11,7.17-4.77,14.51-7.71,22.09s-6.13,15.39-9.91,23.22c-7.5,15.69-16.22,31.93-25.55,48.55l-.13.23-.22-.13-2.71-1.47-26.58-14.51-.19-.1.07-.21,29.34-86.4v.1c-4.27-23.9-7.77-43.49-10.2-57.11-1.21-6.8-2.14-12.11-2.78-15.73-.31-1.8-.55-3.18-.71-4.12s-.23-1.41-.23-1.41c0,0,.11.48.29,1.4s.43,2.31.77,4.11c.66,3.62,1.64,8.92,2.89,15.71,2.47,13.61,6,33.19,10.38,57.08v.1c-8.29,24.49-18.29,54.08-29.24,86.44l-.12-.31,26.54,14.5,2.71,1.48-.35.1c9.32-16.62,18-32.85,25.55-48.51,3.77-7.82,7-15.63,9.92-23.18s5.62-14.91,7.73-22v.06c0-28.47-.39-52.1-.93-68.61-.28-8.26-.62-14.73-1-19.12-.2-2.2-.38-3.88-.58-5-.06-.43-.14-.85-.24-1.27-.04-.16-.06-.31-.08-.47Z"/>
    <path class="st4" d="M575.68,247.62c-1.54-.77-3.12-1.44-4.74-2-8.02-2.67-16.85-.86-23.17,4.75-1.27,1.16-2.46,2.4-3.57,3.71.2-.42.46-.81.76-1.17.77-1.02,1.62-1.96,2.56-2.82,6.33-5.88,15.41-7.74,23.54-4.82,1.2.42,2.36.95,3.46,1.59.42.2.81.46,1.16.76Z"/>
    <g class="st10">
      <path d="M587.57,391.87c.16-.42.31-.84.47-1.25l-.26.18-.21,1.07Z"/>
      <path d="M603.37,336.78c-1.26-12.84-2.92-25.68-6.26-38.14-2.83,21.63,2.72,43.82-1,65.32-1.58,9.17-4.81,18-8.09,26.66,8.18-5.35,13.11-14.71,15.06-24.3s1.26-19.7.29-29.54Z"/>
    </g>
    <g class="st10">
      <path d="M529,343.3l-34.73-26.21c.39,9.77,7.82,17.79,15.55,23.79,7.73,6,18.23,12.9,25.55,19.38-2.37-5.4-3.94-11.56-6.37-16.96Z"/>
    </g>
    <path class="st8" d="M544.32,295.37c-.17.23-.36.45-.56.66-.38.42-1,1-1.71,1.81-2.11,2.22-4.46,4.2-7,5.91-1.78,1.17-3.73,2.05-5.78,2.62-2.39.61-4.89.61-7.28,0-2.59-.76-5.05-1.9-7.31-3.38-2.37-1.45-4.71-3.14-7.3-4.49-2.47-1.4-5.22-2.23-8.05-2.42-2.64-.04-5.22.8-7.32,2.39-1.92,1.45-3.75,3.02-5.47,4.7-1.53,1.47-3.27,2.72-5.15,3.71-1.57.83-3.34,1.2-5.11,1.07-1.34-.08-2.63-.51-3.75-1.25-.71-.45-1.31-1.07-1.73-1.8-.15-.25-.27-.52-.35-.8,0,0,.14.27.44.74.45.69,1.05,1.27,1.75,1.69,1.11.68,2.36,1.07,3.66,1.13,1.71.09,3.42-.29,4.93-1.11,1.83-1,3.51-2.24,5-3.7,1.72-1.7,3.56-3.3,5.48-4.77,1.08-.78,2.26-1.41,3.51-1.87,1.32-.46,2.71-.68,4.1-.64,2.91.19,5.74,1.03,8.28,2.47,2.64,1.37,5,3.07,7.33,4.52,2.21,1.46,4.62,2.59,7.16,3.34,1.18.33,2.4.49,3.63.47,1.16,0,2.31-.13,3.43-.4,2.01-.54,3.93-1.39,5.69-2.51,2.52-1.67,4.87-3.6,7-5.75l1.77-1.73c.22-.23.45-.43.71-.61Z"/>
    <path class="st8" d="M595.05,289.3c-.12.15-.27.28-.42.4-.44.34-.92.62-1.43.83-1.93.72-4.03.78-6,.18-5.21-1.2-9.83-7.56-17.62-9-1.83-.43-3.7-.66-5.58-.71-1.75-.02-3.5.11-5.23.4-2.93.49-5.77,1.44-8.4,2.82-2.41,1.31-4.63,2.95-6.6,4.86.11-.16.23-.31.37-.44l1.13-1.2c.55-.46,1.2-1.06,2-1.67l1.34-.94c.47-.34,1-.6,1.58-.93,2.65-1.46,5.51-2.47,8.49-3,1.76-.31,3.54-.45,5.32-.44,1.92.03,3.82.27,5.69.71,1.87.43,3.68,1.06,5.41,1.89.81.46,1.63.87,2.38,1.34s1.46,1,2.15,1.48c2.71,2,5.21,3.77,7.66,4.45,1.9.62,3.95.62,5.85,0,.68-.26,1.32-.61,1.91-1.03Z"/>
    <path class="st8" d="M621,275.27s-.46.26-1.2.83c-1.03.82-1.87,1.84-2.49,3-.89,1.75-1.53,3.61-1.89,5.54-.41,2.41-1.05,4.77-1.91,7.06-1,2.29-2.68,4.21-4.82,5.49-1.72,1.06-3.66,1.71-5.67,1.91-1.34.13-2.7.03-4-.31-.34-.09-.68-.2-1-.35-.24-.09-.36-.14-.35-.16s.51.13,1.43.31c1.3.26,2.63.31,3.94.15,1.94-.26,3.81-.94,5.46-2,2.03-1.26,3.63-3.1,4.59-5.29.84-2.26,1.49-4.58,1.92-6.95.38-1.96,1.05-3.86,2-5.62.66-1.19,1.58-2.21,2.69-3,.3-.21.61-.4.95-.54.25-.04.35-.09.35-.07Z"/>
    <path class="st8" d="M504,324.79c-.02.36-.09.72-.2,1.06-.09.41-.2.82-.35,1.22-.18.53-.38,1.06-.61,1.57-.27.63-.58,1.23-.93,1.82-.38.69-.8,1.36-1.26,2-2.13,2.92-4.95,5.26-8.2,6.82-1.33.63-2.72,1.1-4.15,1.43-.55.13-1.1.23-1.66.29-.42.07-.84.1-1.26.1-.36.04-.72.04-1.08,0,0-.11,1.54-.12,3.91-.73,1.38-.37,2.72-.87,4-1.5,1.57-.8,3.04-1.76,4.4-2.87,1.34-1.13,2.56-2.41,3.62-3.81.46-.61.89-1.25,1.28-1.91.37-.56.71-1.15,1-1.76,1.03-2.25,1.36-3.76,1.49-3.73Z"/>
    <path class="st14" d="M661.05,407.53c-.54.15-1.09.24-1.64.29-.65.11-1.3.18-1.95.2-.86.07-1.73.1-2.59.08-1.05.01-2.09-.04-3.13-.15-1.13-.07-2.32-.29-3.58-.48-2.71-.54-5.36-1.33-7.92-2.36-2.54-1.08-4.97-2.4-7.26-3.95-1-.75-2-1.43-2.87-2.19-.81-.66-1.59-1.36-2.32-2.11-.71-.65-1.26-1.33-1.77-1.89-.44-.48-.85-.99-1.23-1.52-.37-.42-.71-.88-1-1.36.41.37.78.79,1.11,1.23.4.51.84.99,1.3,1.45.52.54,1.09,1.2,1.8,1.82.75.72,1.53,1.41,2.35,2.05.84.73,1.84,1.4,2.86,2.13,2.28,1.5,4.68,2.79,7.19,3.86,2.53,1.02,5.14,1.81,7.81,2.36,1.24.21,2.41.45,3.53.53,1.03.13,2.06.2,3.1.22,1,.06,1.81,0,2.57,0,.65,0,1.3-.04,1.94-.11.56-.08,1.13-.11,1.7-.1Z"/>
    <path class="st14" d="M580.88,458c-.14,0,2-9.94,4.79-22.14s5.15-22.06,5.29-22-2,9.95-4.79,22.15-5.17,22.06-5.29,21.99Z"/>
    <path class="st7" d="M533.14,243.75h0c.14-1.93-.2-3.86-1-5.62l-30.35-66.44c-7.07-19.07-24.07-30.86-42.94-23.26l-1.71.81c-17.16,8.09-25.22,28.01-18.51,45.76,6.22,16.5,13.31,34.64,17.44,43.12,8.55,17.55,27.5,12,27.5,12l3.54,6.76s3.7,12.73,19.52,10.95c12.17-1.38,21.17-13.19,24.69-18.58,1.07-1.65,1.69-3.54,1.82-5.5Z"/>
    <path class="st15" d="M483.42,250.09c8.2-3.87,15.12-10.01,19.93-17.69,0,0,.56,15.27-17.81,22l-2.12-4.31Z"/>
    <path class="st4" d="M450,208.27c.63,1.38,2.24,2,3.63,1.4,1.38-.52,2.07-2.06,1.55-3.44,0-.02-.01-.04-.02-.06-.63-1.37-2.24-1.99-3.63-1.4-1.38.51-2.07,2.05-1.56,3.42,0,.03.02.05.03.08Z"/>
    <path class="st4" d="M446.5,201.81c.47.19,1.71-2.13,4.43-3.4s5.34-.86,5.48-1.33c.08-.22-.52-.66-1.69-.88-1.56-.26-3.16-.03-4.58.65-1.41.67-2.58,1.76-3.33,3.13-.53,1.02-.53,1.76-.31,1.83Z"/>
    <path class="st4" d="M474.87,196.72c.63,1.38,2.24,2,3.63,1.4,1.38-.51,2.07-2.05,1.56-3.42,0-.03-.02-.05-.03-.08-.63-1.38-2.24-2-3.63-1.4-1.38.52-2.07,2.06-1.55,3.44,0,.02.01.04.02.06Z"/>
    <path class="st4" d="M473.41,189.73c.46.18,1.71-2.14,4.42-3.41s5.35-.85,5.49-1.33c.07-.21-.52-.66-1.69-.88-1.56-.26-3.16-.03-4.58.66-1.41.66-2.58,1.75-3.33,3.12-.53,1.04-.54,1.76-.31,1.84Z"/>
    <path class="st4" d="M473.06,214.5c-.06-.16-1.88.34-4.78,1.28-.73.26-1.45.43-1.79,0-.4-.69-.57-1.48-.51-2.27-.14-2-.28-4.06-.44-6.24-.7-8.86-1.56-16-1.91-16s-.08,7.23.62,16.08c.19,2.18.37,4.26.55,6.24-.04,1.04.29,2.06.92,2.89.44.4,1.04.57,1.62.47.43-.07.85-.21,1.25-.39,2.82-1.11,4.53-1.9,4.47-2.06Z"/>
    <path class="st4" d="M481.93,212.6c-.45.19.93,3.13-.6,6.41s-4.82,4.44-4.65,4.86c0,.21,1,.24,2.31-.35,1.75-.78,3.17-2.15,4-3.88.79-1.66.9-3.55.32-5.29-.51-1.28-1.19-1.86-1.38-1.75Z"/>
    <path class="st4" d="M467.69,179.43c.61.61,3.16-1,6.52-2.14s6.35-1.46,6.46-2.33c0-.4-.74-.88-2.11-1.11-3.64-.45-7.29.81-9.89,3.4-.95,1.03-1.26,1.88-.98,2.18Z"/>
    <path class="st4" d="M443.79,193.49c.77.39,2.34-1.13,4.57-2.22s4.35-1.55,4.48-2.4c0-.4-.55-.88-1.65-1.07-1.45-.19-2.93.08-4.22.76-1.32.65-2.39,1.7-3.08,3-.49.97-.45,1.73-.1,1.93Z"/>
    <path class="st4" d="M436.5,186.07s-.56-13.25,3.55-18.35c5-6.17,11.1-.4,16.44-5s10.09-10.53,18.62-8.74c9.33,1.95,7.83,7.12,12,14.76,16.72,30.94,26.76,37.18,21.34,21.44-.59-1.72,3.34-5.17.75-12.41-3.37-9.39-8.17-20.46-13.18-25.88-4.23-4.58-9-6.84-16.46-8.34-11.72-2.36-23.69,3.12-31.39,7.75s-18.94,21.28-11.67,34.77Z"/>
    <path class="st7" d="M507.06,190.22c-1.16-2.69.08-5.82,2.77-6.98.07-.03.15-.06.23-.09,3.44-1.24,8-1.1,11,5.81,5.31,12.25-8.09,15.06-8.26,14.72s-3.56-8.32-5.74-13.46Z"/>
    <path class="st15" d="M513.45,197.91c0-.06.27.06.71.07.6-.01,1.17-.25,1.61-.66,1.08-1,1.28-3.57.38-5.8-.42-1.07-1.08-2.02-1.92-2.8-.57-.67-1.43-1.03-2.31-.94-.56.09-.98.56-1,1.13,0,.42.17.63.11.68s-.35-.1-.47-.64c-.07-.34-.02-.69.15-1,.21-.39.57-.69,1-.82,1.11-.25,2.27.11,3.06.93.98.84,1.74,1.9,2.22,3.09,1,2.5.73,5.36-.82,6.64-.58.48-1.35.68-2.09.53-.48-.12-.67-.32-.63-.41Z"/>
    <path class="st4" d="M495.78,166.94c-1.06,1.81-2.19,3.7-4,4.78s-4.48,1-5.68-.71c-.54-.77-.79-1.84-1.65-2.23-1-.47-2.13.35-3.09.94-3.5,2-7.93,1.27-10.6-1.75-.27,1.76-2.38,2.69-4.15,2.46s-3.31-1.26-4.94-2-3.64-1.1-5.13-.12c-.83.55-1.41,1.48-2.35,1.82-1.65.61-3.3-.88-4.28-2.34s-2-3.21-3.78-3.43-3,1-4.38,1.92-3.4,1.45-4.45.2c-.49-.71-.66-1.59-.49-2.44.6-3.96,3.84-6.99,7.83-7.32-.99-6.39,3.38-12.38,9.77-13.37,3.08-.48,6.22.29,8.73,2.13,2.53-6.06,9.49-8.93,15.55-6.4,1.27.53,2.44,1.27,3.45,2.2,3.64-3.06,9.07-2.59,12.13,1.05,1.44,1.71,2.15,3.91,2,6.14,2.76.21,5.63,1.49,6.86,4s0,6.11-2.76,6.59c2.09,1.61,2.48,4.6.88,6.69-1.5,1.95-4.22,2.44-6.31,1.14"/>
    <path class="st14" d="M445.43,160.72s0,.08.11.22c.11.21.24.42.38.61.55.75,1.23,1.39,2,1.91,1.19.83,2.56,1.37,4,1.59,1.92.32,3.89,0,5.61-.92l-.33-.17c.15,1.27.8,2.43,1.81,3.22,1.05.83,2.22,1.5,3.47,2,.64.32,1.31.57,2,.75.76.12,1.53.05,2.25-.2,1.56-.46,2.79-1.67,3.27-3.23l-.51.08c1.53,2.38,4,3.99,6.79,4.45,1.55.31,3.16.11,4.58-.57,1.31-.7,2.49-1.61,3.5-2.7h-.39c1.32,1.16,2.91,1.98,4.62,2.37,1.63.45,3.37.14,4.74-.84,2.33-1.78,3.38-4.78,2.66-7.62l-.21.26c1.59.08,3.16-.4,4.44-1.35.96-.69,1.74-1.6,2.28-2.65.34-.66.56-1.38.65-2.12.04-.25.04-.51,0-.76-.11.97-.4,1.91-.86,2.77-.56,1-1.33,1.85-2.27,2.5-1.23.87-2.72,1.29-4.22,1.2h-.29l.08.28c.61,2.67-.4,5.45-2.59,7.1-1.26.88-2.85,1.15-4.33.72-1.62-.38-3.11-1.16-4.35-2.27l-.2-.18-.19.19c-.96,1.04-2.1,1.91-3.35,2.58-1.32.63-2.8.81-4.23.52-2.63-.43-4.96-1.95-6.42-4.19l-.34-.53-.17.62c-.43,1.36-1.49,2.42-2.85,2.84-.64.23-1.33.29-2,.19-.65-.16-1.28-.4-1.88-.7-1.21-.46-2.34-1.1-3.37-1.88-.92-.71-1.52-1.75-1.68-2.9v-.33l-.29.16c-1.62.91-3.5,1.26-5.34,1-1.4-.18-2.75-.67-3.94-1.44-1.03-.69-1.93-1.56-2.64-2.58Z"/>
    <path class="st4" d="M462.45,205.46c-.18-1.07-.42-2.12-.74-3.15-.96-2.79-2.83-5.18-5.31-6.78-1.7-1.09-3.62-1.78-5.63-2-2.3-.24-4.63.12-6.74,1.07-1.14.5-2.2,1.17-3.14,2-.99.83-1.85,1.82-2.53,2.93-3.02,4.77-2.57,10.95,1.09,15.25.84,1,1.83,1.85,2.93,2.54,1.04.69,2.18,1.2,3.38,1.53,6.9,1.99,14.11-1.98,16.1-8.88.12-.42.22-.85.3-1.28.16-1.07.26-2.14.29-3.22.04.28.06.56.07.84.03.33.03.67,0,1-.01.47-.06.93-.15,1.39-.86,5.13-4.63,9.29-9.66,10.63-2.31.63-4.76.63-7.07,0-1.25-.34-2.44-.87-3.52-1.57-1.13-.71-2.15-1.6-3-2.63-3.83-4.45-4.29-10.89-1.14-15.85.71-1.14,1.6-2.15,2.64-3,.98-.85,2.08-1.54,3.26-2.06,2.2-.97,4.61-1.33,7-1.05,2.07.24,4.05.97,5.78,2.12,2.52,1.65,4.39,4.13,5.3,7,.15.44.26.9.34,1.36.08.33.14.66.16,1,.01.27,0,.54-.01.81Z"/>
    <path class="st4" d="M493.52,190.68c-.17-1.07-.41-2.12-.73-3.15-.96-2.79-2.83-5.18-5.31-6.78-3.69-2.4-8.36-2.75-12.37-.94-2.34,1.04-4.31,2.76-5.67,4.93-3.03,4.77-2.59,10.96,1.09,15.26,1.66,1.95,3.85,3.37,6.31,4.08,2.23.63,4.59.66,6.83.09,4.9-1.28,8.63-5.27,9.57-10.25.17-1.07.27-2.14.28-3.22.05.28.08.56.07.84.03.33.03.67,0,1-.02.47-.07.93-.15,1.39-.48,2.98-1.98,5.71-4.24,7.71-3.4,3.04-8.11,4.12-12.49,2.88-2.56-.72-4.84-2.19-6.57-4.21-3.83-4.45-4.29-10.89-1.14-15.84,1.42-2.25,3.47-4.02,5.9-5.1,2.2-.97,4.61-1.34,7-1.06,5.17.61,9.51,4.19,11.1,9.15.15.44.26.9.34,1.36.08.33.13.66.15,1,.04.29.05.57.03.86Z"/>
    <path class="st4" d="M467.49,195.42c-2.87-.04-5.59,1.28-7.34,3.56,0,0,.11-.5.59-1.15,1.31-1.69,3.34-2.67,5.48-2.66.78.02,1.29.19,1.27.25Z"/>
    <path class="st4" d="M506.43,186.55c-2.26.32-4.55.46-6.83.43-2.28.15-4.57.12-6.84-.09,4.54-.46,9.11-.57,13.67-.34h0Z"/>
  </g>
  <g id="freepik--Device--inject-101">
    <path class="st0" d="M401.48,453.21h60.44c1.66,0,3,1.34,3,3h0c0,1.66-1.34,3-3,3h-60.44c-1.66,0-3-1.34-3-3h0c0-1.66,1.34-3,3-3Z"/>
    <path class="st0" d="M411.12,459.24h-114.32l-11.29-77.24c-.54-3.6,1.94-6.96,5.54-7.5.32-.05.65-.07.97-.07l100.38.81c3.25,0,6.36,1.57,6.85,4.79l11.87,79.21Z"/>
    <path class="st8" d="M352.75,415.92c0,3.47-2.81,6.29-6.28,6.3s-6.29-2.81-6.3-6.28,2.81-6.29,6.28-6.3h.02c3.47,0,6.28,2.81,6.28,6.28Z"/>
    <path class="st4" d="M406.15,458.57c-.14,0-3.33-18.61-7.13-41.6s-6.77-41.67-6.62-41.7,3.33,18.61,7.13,41.61,6.76,41.66,6.62,41.69Z"/>
  </g>
  <g id="freepik--Desk--inject-101">
    <rect class="st14" x="28.24" y="459.24" width="673.51" height="16.56"/>
    <path class="st4" d="M170.92,459.49l-.21.18c-.16.11-.38.28-.71.49-1.06.65-2.19,1.16-3.38,1.53-2.12.65-4.3,1.06-6.51,1.23-3.02.24-6.04.31-9.07.22-3.38-.06-7-.35-10.93-.71s-8-.76-12.44-.83c-8.83-.18-18.42,1.12-28,3s-18.59,4.13-27.18,5.47c-4.29.67-8.45,1.15-12.39,1.38-3.66.21-7.34.21-11,0-5.13-.24-10.2-1.14-15.1-2.68-1.62-.52-3.18-1.19-4.67-2,.11.02.22.06.33.11l.89.38c.79.33,2,.8,3.61,1.31,4.88,1.47,9.91,2.32,15,2.55,3.61.21,7.23.21,10.84,0,3.9-.24,8-.73,12.26-1.41,8.52-1.35,17.46-3.55,27.11-5.49s19.34-3.24,28.3-3c4.48.09,8.65.52,12.53.88s7.51.68,10.84.76c3,.11,6,.06,9-.15,2.17-.15,4.33-.53,6.42-1.13,1.57-.49,3.07-1.19,4.46-2.08Z"/>
    <path class="st4" d="M97.25,459.74c-.65.37-1.31.71-2,1-2.01.85-4.06,1.59-6.15,2.22-3.28.97-6.62,1.74-10,2.3-4.34.69-8.73,1.08-13.13,1.15-7.91.2-15.81-.72-23.47-2.72-2.04-.49-3.97-1.37-5.67-2.6-.36-.28-.67-.62-.92-1-.14-.25-.2-.38-.18-.38.39.46.82.89,1.27,1.29,1.73,1.14,3.65,1.96,5.67,2.42,7.58,1.87,15.38,2.73,23.19,2.55,4.33-.08,8.66-.44,12.94-1.1,3.37-.54,6.71-1.26,10-2.18,2.72-.79,4.82-1.54,6.23-2.08.72-.34,1.46-.63,2.22-.87Z"/>
    <path class="st4" d="M255.28,470.23s.37.07,1,.22,1.72.32,3.11.46c3.95.42,7.95.08,11.78-1v.21c-4.65-1.92-9.6-3-14.62-3.2-6.46-.4-12.93.54-19,2.78-.71.29-1.4.64-1.47,1.07s.49.83,1.26,1.07c.85.26,1.73.43,2.61.52l2.87.36c3.86.48,7.84,1,12,1.3,4.23.38,8.47.54,12.71.49,2.17,0,4.36-.15,6.53-.35,1.09-.11,2.18-.22,3.25-.38,1.06-.13,2.11-.33,3.15-.58,1.45-.3,2.83-.86,4.08-1.65,1-.73,1.35-1.7.78-2.55-.85-.96-1.96-1.65-3.2-2-1.46-.5-2.96-.91-4.47-1.23-6.16-1.29-12.42-2.02-18.71-2.18-10.72-.38-21.44.54-31.94,2.73-6.58,1.37-13.02,3.35-19.23,5.91-2.05.89-3.63,1.6-4.64,2.12l-1.19.56-.42.19c.11-.09.23-.16.36-.22l1.14-.6c1-.55,2.53-1.28,4.56-2.2,6.18-2.65,12.61-4.69,19.19-6.08,10.58-2.28,21.41-3.25,32.23-2.89,6.39.15,12.75.88,19,2.19,1.57.32,3.11.74,4.62,1.26,1.37.38,2.6,1.16,3.53,2.24.69,1,.28,2.17-.9,3-1.34.87-2.84,1.48-4.4,1.8-1.08.26-2.18.46-3.28.6-1.09.16-2.2.28-3.31.39-2.22.2-4.44.33-6.64.35-4.29.05-8.58-.11-12.86-.5-4.15-.35-8.15-.83-12-1.32l-2.87-.38c-.96-.09-1.9-.28-2.82-.56-.42-.13-.82-.33-1.18-.59-.3-.19-.47-.54-.43-.89.14-.66,1-1.06,1.78-1.36,6.23-2.28,12.87-3.23,19.49-2.79,5.11.22,10.13,1.35,14.84,3.35l.27.12-.3.09c-3.92,1.09-8.01,1.41-12.05.94-1.43-.13-2.84-.4-4.21-.82Z"/>
    <path class="st4" d="M342,459.92c.28.22.51.51.66.83.44.75.6,1.63.45,2.49-.22,2.13-2.55,4.93-6.56,7.22-1.94,1.17-4,2.15-6.13,2.93-1.92.69-3.9,1.23-5.91,1.61-1.77.34-3.26.51-4.28.61-.54.07-1.08.09-1.62.07,0-.08,2.26-.26,5.7-1,1.93-.42,3.84-.99,5.69-1.68,2.06-.78,4.05-1.75,5.94-2.89,3.93-2.24,6.22-4.9,6.58-6.94.18-1.11,0-2.25-.52-3.25Z"/>
    <path class="st4" d="M462.9,474.93c-.08,0-.95-.7-3.1-1.69-3.33-1.49-6.89-2.4-10.53-2.67-2.66-.22-5.34-.17-8,.13-3.12.41-6.26.57-9.4.49-3.25-.29-6.42-1.16-9.36-2.58-3-1.41-6.15-2.47-9.4-3.14-6.9-1.28-13.96-1.34-20.88-.18-5.3.87-10.49,2.34-15.45,4.4-3.08,1.26-6.08,2.7-9,4.3l-2.29,1.27c-.26.16-.54.3-.82.42.21-.19.45-.35.7-.49.48-.31,1.21-.76,2.18-1.33,2.85-1.67,5.8-3.15,8.84-4.44,5.01-2.13,10.25-3.65,15.61-4.55,7.08-1.2,14.31-1.15,21.37.16,3.32.68,6.55,1.76,9.62,3.21,2.81,1.38,5.84,2.23,8.95,2.52,3.07.09,6.15-.06,9.2-.44,2.73-.29,5.49-.32,8.23-.08,3.69.3,7.29,1.27,10.63,2.86,1.05.46,2.03,1.08,2.9,1.83Z"/>
    <path class="st4" d="M570.88,459.4c-.23.21-.48.4-.74.57-.52.35-1.21.91-2.3,1.54-3.13,1.91-6.42,3.55-9.83,4.91-5.51,2.24-11.2,4.01-17.01,5.31-3.41.78-7.08,1.48-11,2-4.08.55-8.19.85-12.3.89-7.86-.02-15.7-.93-23.35-2.73-5.81-1.32-11.5-3.13-17-5.41-3.39-1.4-6.65-3.07-9.77-5-1.08-.63-1.78-1.18-2.3-1.54-.26-.16-.51-.35-.74-.56.3.14.59.31.87.5.56.34,1.3.87,2.41,1.48,3.17,1.84,6.47,3.45,9.88,4.81,5.48,2.22,11.13,3.99,16.9,5.28,7.56,1.75,15.3,2.64,23.06,2.66,4.06-.04,8.11-.33,12.13-.87,3.87-.48,7.51-1.16,10.9-1.92,5.8-1.28,11.48-3.01,17-5.19,3.43-1.34,6.75-2.93,9.94-4.77,1.12-.6,1.84-1.14,2.41-1.47.27-.18.55-.35.84-.49Z"/>
    <path class="st4" d="M555.45,459.24s-.18.11-.57.26-1,.4-1.75.67c-1.53.56-3.81,1.32-6.74,2.14-3.51,1-7.07,1.81-10.66,2.44-4.59.85-9.24,1.3-13.91,1.34-8.35-.07-16.65-1.25-24.69-3.51-2.27-.62-4.5-1.36-6.69-2.21-.76-.28-1.31-.53-1.7-.7-.19-.06-.38-.15-.55-.27,0,0,.88.29,2.43.82s3.83,1.28,6.77,2.07c7.97,2.13,16.18,3.25,24.43,3.33,4.59-.04,9.16-.47,13.68-1.28,4.12-.69,7.69-1.54,10.63-2.32s5.26-1.49,6.84-2,2.45-.81,2.48-.78Z"/>
    <path class="st4" d="M673.24,460.94h-1.34l-3.8-.08-2.73-.07h-11.27l-4.62.08-5,.19c-3.46.1-7.08.36-10.92.57-7.61.54-15.86,1.31-24.25,2.36s-16,2.37-22.72,3.65c-3.27.69-6.48,1.3-9.24,2l-4.07.95-3.6.95c-2.34.59-4.27,1.19-6,1.7l-2.42.72-1.91.64-2.69.88c-.33.12-.66.22-1,.29.25-.15.52-.27.8-.35l2.5-.94,1.83-.68,2.35-.74c1.69-.54,3.59-1.16,5.91-1.77l3.57-1,4.06-1c2.75-.7,6-1.33,9.24-2,6.75-1.31,14.45-2.61,22.89-3.71s16.81-1.83,24.51-2.35c3.89-.2,7.55-.45,11-.53l5-.17,4.67-.05c3-.06,5.66,0,8,0h3.29l2.74.11,3.79.17c.48.03.96.09,1.43.18Z"/>
    <path class="st4" d="M475,474.6c-1.16-.93-2.4-1.76-3.71-2.48-4.27-2.12-8.85-3.55-13.57-4.26-3.16-.56-6.73-1-10.59-1.32s-8-.61-12.39-1-8.86-1.1-13.44-1.89-9.3-1.65-14.3-1.99c-9.39-.55-18.81.18-28,2.17-4.12.85-7.88,1.87-11.37,2.87s-6.67,2-9.57,2.92c-5.8,1.84-10.41,3.41-13.6,4.5l-3.65,1.26-1,.32-.34.1c.09-.06.19-.11.29-.14l.91-.36,3.58-1.33c3.13-1.14,7.71-2.76,13.48-4.64,2.88-.94,6.07-1.95,9.55-3s7.26-2.07,11.42-2.93c9.29-2.04,18.82-2.79,28.31-2.23,4.86.42,9.69,1.09,14.48,2,4.58.8,9,1.5,13.35,1.91s8.48.72,12.36,1.08,7.47.8,10.66,1.38c4.77.73,9.38,2.24,13.66,4.46,1.3.65,2.48,1.53,3.48,2.6Z"/>
    <path class="st4" d="M323.3,459.49c.06.36.02.72-.1,1.06-.27,1-.72,1.95-1.32,2.79-1.55,2.26-4.74,5.32-10.35,7.45-5,1.73-10.13,3.07-15.34,4-2.06.38-3.73.66-4.9.83-.61.11-1.22.18-1.84.21.57-.17,1.15-.3,1.74-.39l4.8-1c5.11-1.01,10.15-2.36,15.08-4.05,4.03-1.39,7.58-3.88,10.27-7.18.81-1.15,1.47-2.4,1.96-3.72Z"/>
    <path class="st4" d="M166.94,475.8c.52-.33,1.07-.63,1.64-.88,1.09-.56,2.72-1.31,4.8-2.21,5.61-2.37,11.34-4.45,17.17-6.22,7-2.17,13.54-3.9,18.29-5.12,2.37-.61,4.3-1.1,5.64-1.42.7-.2,1.4-.35,2.12-.46-.65.25-1.32.46-2,.62l-5.53,1.56c-4.68,1.3-11.16,3.07-18.14,5.22s-13,4.36-17.22,6.08c-2.11.86-3.8,1.58-4.94,2.09-.59.29-1.2.54-1.83.74Z"/>
    <path class="st4" d="M198.67,460.17s-1.55-.12-4.34,0c-3.81.21-7.58.86-11.24,1.92-4.97,1.54-9.84,3.38-14.59,5.51-2.87,1.21-5.81,2.28-8.79,3.2-3.45,1.01-6.96,1.77-10.52,2.28-7.13.93-14.32,1.42-21.51,1.45-6.66.11-12.64,0-17.65.15s-9,.38-11.81.65c-1.38.14-2.45.26-3.17.36-.37.06-.74.1-1.11.11,0,0,.36-.08,1.07-.2s1.77-.28,3.15-.45c2.75-.33,6.81-.66,11.84-.8s11-.12,17.65-.25c7.14-.05,14.27-.54,21.35-1.47,3.5-.51,6.95-1.25,10.35-2.23,3.16-.95,6-2.06,8.72-3.15,4.8-2.13,9.74-3.95,14.78-5.45,3.74-1.05,7.58-1.65,11.46-1.8,1.41,0,2.51,0,3.25.06.37.01.74.05,1.11.11Z"/>
  </g>
</svg>