<?xml version="1.0" encoding="UTF-8"?>
<svg id="Layer_1" xmlns="http://www.w3.org/2000/svg" version="1.1" viewBox="0 0 750 500">
  <!-- Generator: Adobe Illustrator 29.8.2, SVG Export Plug-In . SVG Version: 2.1.1 Build 3)  -->
  <defs>
    <style>
      .st0 {
        fill: #e0e0e0;
      }

      .st1 {
        fill: #aa6550;
      }

      .st2 {
        fill: #ebebeb;
      }

      .st3 {
        fill: #263238;
      }

      .st4 {
        fill: #6b3b2f;
      }

      .st5 {
        fill: #fff;
      }

      .st6 {
        fill: #fafafa;
      }

      .st7 {
        opacity: .5;
      }

      .st8 {
        fill: #f5f5f5;
      }

      .st9 {
        fill: #6da5bf;
      }

      .st10 {
        fill: #455a64;
      }
    </style>
  </defs>
  <g id="freepik--background-complete--inject-109">
    <rect class="st0" x="95.35" y="113.87" width="46.75" height="92.67"/>
    <rect class="st0" x="143.9" y="113.87" width="50.51" height="92.67"/>
    <rect class="st0" x="143.9" y="213.02" width="50.51" height="89.54"/>
    <polygon class="st0" points="200.89 112.27 254.09 112.27 254.09 30.06 255.88 30.06 255.88 112.27 299.17 112.27 299.17 28.24 200.89 28.24 200.89 112.27"/>
    <rect class="st0" x="255.88" y="113.87" width="43.29" height="92.67"/>
    <rect class="st0" x="255.88" y="213.02" width="43.29" height="89.54"/>
    <rect class="st0" x="95.35" y="213.02" width="46.75" height="89.54"/>
    <rect class="st0" x="200.89" y="213.02" width="53.2" height="89.54"/>
    <rect class="st0" x="95.35" y="304.16" width="46.75" height="80.69"/>
    <rect class="st0" x="255.88" y="304.16" width="43.29" height="80.69"/>
    <polygon class="st0" points="142.1 112.27 142.1 30.06 143.9 30.06 143.9 112.27 194.41 112.27 194.41 28.24 95.35 28.24 95.35 112.27 142.1 112.27"/>
    <rect class="st0" x="200.89" y="304.16" width="53.2" height="80.69"/>
    <rect class="st0" x="143.9" y="304.16" width="50.51" height="80.69"/>
    <rect class="st0" x="200.89" y="113.87" width="53.2" height="92.67"/>
    <polygon class="st8" points="376.79 338.42 372.96 476.94 544.22 476.94 544.22 340.31 376.79 338.42"/>
    <polygon class="st0" points="469.06 339.47 467.54 476.94 544.22 476.94 544.22 340.31 469.06 339.47"/>
    <polygon class="st0" points="382.17 343.78 382.17 404.67 463.3 404.67 463.3 346.66 382.17 343.78"/>
    <polygon class="st8" points="410.14 360.53 410.14 369.52 434.96 369.52 434.96 359.71 410.14 360.53"/>
    <rect class="st8" x="410.14" y="377.09" width="25.63" height="3.68"/>
    <polygon class="st0" points="382.17 412.42 382.17 473.3 463.3 473.3 463.3 415.29 382.17 412.42"/>
    <polygon class="st8" points="410.14 429.17 410.14 438.16 434.96 438.16 434.96 428.35 410.14 429.17"/>
    <rect class="st8" x="410.14" y="445.72" width="25.63" height="3.68"/>
    <path class="st2" d="M541.15,65.26h-3v-5.68c.1-1.75-1.24-3.24-2.99-3.34,0,0,0,0,0,0h-22.79c-1.75.09-3.09,1.58-3,3.33,0,0,0,0,0,0v5.68h-3v-5.68c-.1-3.41,2.59-6.24,6-6.34,0,0,0,0,0,0h22.83c3.41.09,6.09,2.93,6,6.34,0,0,0,0,0,0l-.04,5.68Z"/>
    <rect class="st2" x="464.48" y="65.26" width="118.12" height="78.98" rx="9.13" ry="9.13"/>
    <rect class="st8" x="520.23" y="88.8" width="7.08" height="31.74"/>
    <rect class="st8" x="507.91" y="101.13" width="31.74" height="7.08"/>
    <path class="st8" d="M550.14,104.74c-.03-.14-.05-.28-.05-.42,0-.31-.03-.73-.09-1.26,0-.28,0-.58-.06-.92s-.11-.71-.17-1.11c-.13-.92-.31-1.83-.56-2.72-.63-2.47-1.62-4.83-2.95-7-6.46-10.78-19.66-15.47-31.47-11.18-2.38.84-4.61,2.05-6.62,3.57-1.05.78-2.06,1.62-3,2.53-.92.94-1.78,1.94-2.56,3-1.63,2.19-2.89,4.62-3.74,7.21-1.8,5.36-1.8,11.16,0,16.52.85,2.59,2.11,5.03,3.74,7.22.79,1.06,1.64,2.06,2.56,3,.95.9,1.95,1.75,3,2.53,1.03.76,2.1,1.45,3.22,2.06,1.1.58,2.24,1.08,3.41,1.5,11.83,4.29,25.04-.39,31.52-11.17,1.32-2.17,2.31-4.53,2.94-7,.25-.9.43-1.81.56-2.73.06-.4.13-.76.17-1.1s0-.64.06-.92c.04-.53.07-.95.09-1.26,0-.14.02-.29.05-.43.01.14.01.29,0,.43v2.19c0,.34-.1.71-.15,1.12-.1.93-.27,1.85-.51,2.75-.59,2.5-1.57,4.9-2.89,7.11-3.89,6.58-10.41,11.18-17.92,12.62-5.97,1.11-12.14.17-17.52-2.65-1.14-.62-2.24-1.32-3.28-2.1-1.06-.79-2.06-1.65-3-2.57-.94-.97-1.82-2-2.62-3.09-1.67-2.23-2.96-4.72-3.83-7.37-.88-2.73-1.35-5.57-1.38-8.44.04-2.87.5-5.71,1.38-8.44.87-2.64,2.16-5.13,3.83-7.36.76-1.06,1.6-2.06,2.49-3.01.94-.92,1.95-1.79,3-2.58,1.04-.77,2.14-1.48,3.28-2.1,1.13-.58,2.29-1.09,3.49-1.52,12.03-4.36,25.46.47,31.95,11.5,1.32,2.21,2.3,4.61,2.89,7.11.24.9.41,1.82.51,2.75.05.4.12.77.15,1.11s0,.65,0,.93v1.27c.04.14.06.28.08.42Z"/>
    <path class="st2" d="M617.95,71.07v-11.94h-8.4v11.94h-8.45v68.31h24.69v-68.31h-7.84Z"/>
    <rect class="st0" x="450.88" y="139.38" width="203.77" height="10.4"/>
    <rect class="st0" x="490.7" y="149.77" width="5.93" height="24.58"/>
    <rect class="st0" x="609.35" y="149.77" width="5.93" height="24.58"/>
    <path class="st6" d="M572,89.44v-8.73h-6.15v8.73h-6.17v49.94h18.05v-49.94h-5.73Z"/>
    <path class="st8" d="M592.49,89.44v-8.73h-6.14v8.73h-6.18v49.94h18.06v-49.94h-5.74Z"/>
    <rect class="st0" x="458.26" y="106.93" width="32.44" height="32.44"/>
    <path class="st2" d="M490.55,115.27c0,.21-7.17.38-16,.38s-16-.17-16-.38,7.16-.38,16-.38,16,.17,16,.38Z"/>
    <path class="st2" d="M475.72,119.58h.33c.31.08.6.22.86.41.96.73,1.6,1.81,1.78,3,.4,1.74.1,3.58-.84,5.1-.59.91-1.48,1.59-2.52,1.91-1.1.31-2.27.31-3.37,0-2.2-.49-3.94-2.16-4.51-4.34-.64-2.72,1.05-5.44,3.77-6.08.32-.08.65-.12.99-.13.43-.06.86.01,1.25.21,0,.07-.45,0-1.23.09-1.09.15-2.1.64-2.89,1.4-1.13,1.15-1.58,2.8-1.21,4.36.54,1.9,2.08,3.34,4,3.76.98.28,2.02.28,3,0,.88-.27,1.65-.83,2.16-1.6.87-1.37,1.18-3.01.88-4.6-.12-1.09-.63-2.1-1.43-2.85-.6-.48-1.05-.64-1.02-.64Z"/>
  </g>
  <g id="freepik--Character--inject-109">
    <path class="st1" d="M287.93,109.83c-1.74-22.12-20.18-39.2-42.37-39.24h-2.2c-23.78,1.34-35.93,22.29-33.93,46l4.1,95.16h0l54.37,21.32-.18-42.51s22.87-3.51,23.2-26.36c.15-11.03-1.37-33.79-2.99-54.37Z"/>
    <path class="st4" d="M267.91,190.54s-14.6.84-29.93-8.83c0,0,7,16.46,29.82,14.45l.11-5.62Z"/>
    <path class="st3" d="M281.43,126.49c0,1.77-1.39,3.23-3.16,3.29-1.72.13-3.22-1.16-3.35-2.88,0-.02,0-.05,0-.07-.02-1.77,1.38-3.23,3.15-3.29,1.72-.13,3.22,1.15,3.35,2.87,0,.03,0,.06,0,.08Z"/>
    <path class="st3" d="M283,121.01c-.41.42-2.87-1.41-6.39-1.41s-6.09,1.75-6.47,1.32c-.18-.19.23-1,1.35-1.77,1.52-1.05,3.33-1.6,5.18-1.59,1.83,0,3.61.58,5.09,1.65,1.07.84,1.44,1.61,1.24,1.8Z"/>
    <path class="st3" d="M249.44,126.49c.01,1.77-1.38,3.23-3.15,3.29-1.72.13-3.23-1.16-3.36-2.89,0-.02,0-.04,0-.06-.02-1.77,1.38-3.23,3.15-3.29,1.72-.13,3.22,1.15,3.35,2.87,0,.03,0,.06,0,.08Z"/>
    <path class="st3" d="M248.47,121.59c-.4.42-2.87-1.41-6.38-1.41s-6.09,1.76-6.47,1.32c-.19-.19.22-1,1.35-1.77,1.52-1.05,3.33-1.6,5.18-1.58,1.83,0,3.61.57,5.08,1.65,1.08.83,1.43,1.6,1.24,1.79Z"/>
    <path class="st3" d="M261.17,147.66c0-.2,2.17-.57,5.7-1,.9-.09,1.75-.27,1.9-.88.08-.93-.13-1.85-.59-2.66l-2.64-6.84c-3.66-9.73-6.31-17.73-5.92-17.87s3.68,7.62,7.35,17.35l2.52,6.88c.34,1,.92,2.18.46,3.52-.26.64-.81,1.13-1.48,1.31-.5.13-1.01.2-1.52.21-3.56.17-5.77.18-5.78-.02Z"/>
    <path class="st3" d="M250.83,150.07c.57,0,.57,3.78,3.82,6.49s7.32,2.31,7.35,2.84c0,.24-.91.74-2.62.78-2.23.03-4.4-.73-6.13-2.15-1.67-1.35-2.74-3.31-3-5.44-.11-1.6.31-2.54.58-2.52Z"/>
    <path class="st3" d="M249.41,107.83c-.35,1-3.86.49-8,1s-7.45,1.61-8,.75c-.24-.41.34-1.31,1.69-2.23,3.64-2.28,8.13-2.77,12.17-1.32,1.53.59,2.29,1.34,2.14,1.8Z"/>
    <path class="st3" d="M281.73,110.84c-.62.79-3,0-5.95-.08s-5.37.52-5.94-.31c-.24-.41.14-1.21,1.22-2,2.96-1.85,6.75-1.72,9.58.32,1.02.86,1.36,1.72,1.09,2.07Z"/>
    <path class="st3" d="M285.76,99.35s-6-14.33-12.9-17.68c-8.34-4.06-12,5.1-19.92,2.86s-15.92-6.14-24.07,0c-8.92,6.72-4.76,11.45-5.33,21.59-2.32,41.11-9.85,52.72-11.94,33.35-.23-2.12-6.12-3.82-7-12.78-1.11-11.63-1.53-25.74,1.08-34,2.2-6.95,6.18-11.74,13.3-17,11.24-8.34,26.65-8.49,37.12-7.41s30.65,13.15,29.66,31.07Z"/>
    <path class="st1" d="M213.05,138.85c-.1-3.42-2.96-6.12-6.38-6.02-.1,0-.2,0-.3.02-4.26.4-9,2.81-8.75,11.62.47,15.62,16.06,11.93,16.07,11.48s-.38-10.56-.64-17.1Z"/>
    <path class="st4" d="M210.12,150.19c-.07,0-.27.2-.72.42-.63.28-1.34.32-2,.1-1.67-.55-3.13-3.13-3.29-5.95-.08-1.34.13-2.68.64-3.92.27-1,1.02-1.81,2-2.15.64-.18,1.32.11,1.63.7.22.43.13.74.21.77s.33-.27.18-.91c-.08-.4-.31-.76-.64-1-.44-.32-.99-.45-1.52-.36-1.3.3-2.35,1.25-2.77,2.51-.62,1.37-.9,2.88-.81,4.38.19,3.15,1.89,6,4.17,6.63.86.23,1.77.05,2.48-.48.42-.37.49-.72.44-.74Z"/>
    <path class="st2" d="M436.98,334.61l-61.25-5.51s-39.86-70.21-45.41-79.3-21.66-29.31-27.47-30.46,28.36,125.15,34.32,136.43,9.69,20.15,21.17,23,78.32-1.28,79.79-1.28-1.15-42.88-1.15-42.88Z"/>
    <path class="st3" d="M436.98,334.61s0,.43.1,1.27.13,2.09.24,3.71c.19,3.27.47,8.08.77,14.29.15,3.1.31,6.56.44,10.33.06,1.89.12,3.87.15,5.92s.07,4.18-.11,6.4c-.03.29-.08.57-.16.85-.02.1-.08.19-.17.25-.06.02-.11.02-.17,0h-.52l-1.7.09-3.47.2-7.28.39-15.83.76c-5.55.23-11.37.46-17.43.62s-12.37.3-18.91.24c-1.63,0-3.28,0-4.94-.1s-3.34-.11-5-.27c-1.71-.1-3.41-.35-5.08-.73-.84-.22-1.66-.49-2.47-.8-.41-.16-.82-.31-1.22-.49l-1.18-.58c-1.57-.81-3.03-1.82-4.34-3-1.34-1.2-2.55-2.54-3.61-4-2.11-2.96-3.98-6.09-5.61-9.34l-2.56-4.92c-.79-1.71-1.48-3.46-2.08-5.24-1.25-3.56-2.4-7.18-3.54-10.86-2.27-7.34-4.47-14.88-6.65-22.57-4.36-15.38-8.65-31.37-12.79-47.81-2.24-8.94-4.38-17.78-6.29-26.53-1-4.37-1.86-8.72-2.61-13.06-.37-2.17-.71-4.34-.91-6.52-.15-1.11-.15-2.23,0-3.34.04-.16.1-.31.19-.45.12-.19.34-.31.57-.29.29.05.57.14.85.24.51.21,1.01.47,1.47.77,1.8,1.2,3.48,2.58,5,4.11,1.54,1.49,3,3,4.42,4.61,2.84,3.14,5.49,6.38,8,9.64s4.93,6.57,7.12,10c.56.84,1.06,1.71,1.55,2.58s1,1.73,1.48,2.59l2.94,5.12,40.19,70.32-.14-.09,45.08,4.15,12,1.12,3.1.3,1,.11-1.07-.07-3.13-.27-12.07-1-45-4h.06v-.08l-40.3-70.23c-1-1.7-1.95-3.4-2.94-5.12-.49-.86-1-1.73-1.48-2.59s-1-1.74-1.55-2.57c-2.17-3.37-4.59-6.65-7.1-9.92s-5.18-6.48-8-9.61c-1.41-1.56-2.87-3.1-4.4-4.58-1.5-1.49-3.15-2.83-4.92-4-.44-.28-.91-.52-1.4-.72-.23-.09-.46-.16-.7-.21,0,0-.17.13-.23.37-.15,1.04-.15,2.11,0,3.15.19,2.16.53,4.32.9,6.48.76,4.33,1.66,8.67,2.61,13,1.92,8.74,4.06,17.58,6.3,26.51,4.13,16.44,8.42,32.42,12.77,47.8,2.18,7.69,4.37,15.22,6.63,22.57,1.14,3.67,2.29,7.29,3.53,10.84.59,1.76,1.27,3.49,2.05,5.18l2.56,4.91c1.61,3.24,3.47,6.34,5.56,9.29,1.04,1.42,2.22,2.73,3.53,3.91,1.28,1.18,2.71,2.19,4.25,3l1.16.58c.39.17.79.31,1.19.47.79.32,1.6.58,2.43.8,1.64.37,3.32.61,5,.72,1.67.16,3.35.21,5,.27s3.31.09,4.94.11c6.52.07,12.83,0,18.89-.21s11.87-.37,17.42-.59l15.83-.72,7.28-.38,3.48-.18,1.7-.08h.58c0,.15,0,0,0,0v-.11c.07-.26.11-.52.14-.78.19-2.18.14-4.32.13-6.37s-.08-4-.13-5.91c-.12-3.78-.26-7.23-.39-10.33-.29-6.2-.52-11-.68-14.29-.08-1.63-.14-2.87-.18-3.72-.13-.88-.14-1.31-.14-1.31Z"/>
    <path class="st2" d="M339.37,332.56c-1.22,1.43,20.29,144.18,20.29,144.18h-56.81l-41.19-194.04,6.29-79.44s29.77,9,34.94,16.08,36.48,113.22,36.48,113.22Z"/>
    <path class="st3" d="M339.37,332.56c-.28-.92-4.61-15.17-12.62-41.5-4.07-13.19-9-29.22-15-47.49-1.51-4.56-3.1-9.26-4.83-14.07-.88-2.39-1.76-4.83-2.8-7.24-.44-1.22-1.09-2.36-1.9-3.38-.92-.95-1.95-1.79-3.07-2.5-4.72-2.86-9.71-5.26-14.89-7.17-5.27-2.07-10.75-4-16.4-5.74l.29-.2c-1.9,24.19-4,51-6.26,79.45v-.07c5.34,25.14,11.07,52.08,17,79.86,8.57,40.35,16.76,78.9,24.25,114.18l-.24-.19h56.76s-.22.24-.22.24c-6.5-43.41-11.75-79.44-15.27-104.63-1.76-12.6-3.09-22.49-3.91-29.24s-1.12-10.36-.91-10.35c-.06.88-.02,1.77.13,2.64.18,1.74.48,4.33.91,7.7.87,6.74,2.23,16.62,4,29.21,3.59,25.18,8.91,61.2,15.45,104.6v.25h-57.18v-.2l-24.33-114.1-17-79.86v-.08c2.26-28.41,4.39-55.25,6.32-79.44v-.28l.26.08c5.67,1.77,11.14,3.69,16.42,5.76,5.22,1.93,10.24,4.35,15,7.24,1.15.72,2.21,1.58,3.15,2.56.85,1.05,1.52,2.23,2,3.5,1,2.43,1.92,4.87,2.8,7.27,1.72,4.81,3.31,9.52,4.81,14.09,6,18.28,10.89,34.32,14.92,47.52s7.11,23.6,9.2,30.69l2.38,8.1c.26.91.46,1.61.6,2.08s.18.71.18.71Z"/>
    <path class="st9" d="M206.89,195.67l4.3-8.65,49.16,32.31,7.56-21.37c0,.51,4.85,30.44,4.85,30.44,0,0,17.73,74.08,19.45,88.53s.68,71.43.68,71.43l-2-10.16s-8.24-39.83-8.86-42-27.63-83.14-31.88-89.15-43.26-51.38-43.26-51.38Z"/>
    <path class="st2" d="M206.43,195.14l-7.39,13.25-25.35,14,26,135.38-11.86,119h115s-9.88-100.8-17.4-132.43-34-97.25-34-97.25l-45-51.95Z"/>
    <path class="st3" d="M206.43,195.14c.74.86,16.51,19,45.14,51.82h0c5,12.57,10.63,27,16.52,43,2.93,8,5.95,16.46,8.92,25.3s5.92,18.11,8.36,27.87c.61,2.44,1.08,4.93,1.64,7.43l1.39,7.6c.87,5.12,1.72,10.32,2.48,15.61,1.57,10.58,3,21.49,4.39,32.68,2.77,22.37,5.36,45.87,7.81,70.2v.28h-115.55v-.28c4.29-42.87,8.3-83,11.89-119v.06c-11-57.8-20-104.88-25.88-135.4v-.09h.08l25.37-13.94h0l7.46-13.21c-.23.43-2.34,4.24-7.33,13.28h0l-25.32,14,.06-.13c5.88,30.5,14.95,77.57,26.08,135.36v.06c-3.57,36-7.56,76.13-11.82,119l-.26-.28h115l-.26.28c-2.44-24.33-5-47.82-7.77-70.19-1.38-11.19-2.81-22.09-4.37-32.67-.76-5.29-1.61-10.49-2.46-15.61-.47-2.55-.94-5.08-1.39-7.59-.56-2.48-1-5-1.63-7.41-2.43-9.73-5.39-19-8.32-27.83s-6-17.28-8.88-25.31c-5.87-16.05-11.44-30.47-16.45-43h0l-44.9-51.89Z"/>
    <path class="st3" d="M273.76,310.97c-.36.44-5.08-5.38-12.25-14.91s-16.95-22.88-27.59-37.7l-2.52-3.51-.05-.07v-.08c.09-4.85.19-9.54.27-14l.18.24-11.34-3.66h-.07v-.05l-15.52-20.84-4.34-5.9-1.13-1.56-.28-.41c-.06-.09-.09-.14-.08-.14s0,0,.11.12l.31.38,1.19,1.53,4.44,5.81,15.63,20.67-.12-.08,11.35,3.68.18.06v.18c-.08,4.47-.16,9.17-.25,14l-.05-.16,2.52,3.51c10.64,14.81,20.34,28.18,27.46,37.78s11.69,15.44,11.95,15.11Z"/>
    <path class="st0" d="M199.58,366.63c2.12,4.82,7.83,7.3,13.09,7s10.15-2.74,14.63-5.51c14.82-9.15,27-21.88,39.08-34.47,4.11-4.3,8.4-8.94,9.52-14.78.45-2.37-.11-5.46-2.44-6.08-1.44-.39-2.91.38-4.2,1.13-25.38,14.75-49.06,32.25-70.6,52.2"/>
    <path class="st2" d="M175.03,221.82s-18.31,7.5-20.82,18.52c-2.79,12.25-6.33,28.07-2,38.74s17,60.09,23.72,72.35,11.69,14.18,27.5,15.37,87.48-66.17,87.48-66.17c0,0,8-7.64-3.49-34.13s-19.4-19.53-19.4-19.53l-53.66,41.93s-3.7-12.41-6.32-20.41"/>
    <path class="st3" d="M208.04,268.49s.16.44.44,1.31.69,2.19,1.24,3.89c1.08,3.45,2.68,8.54,4.76,15.16l-.17-.06,26.35-20.65,17.15-13.43,9.44-7.39.61-.48c.21-.18.45-.32.7-.43.49-.24,1.02-.38,1.56-.44,1.09-.07,2.17.12,3.17.56,1.96.95,3.69,2.32,5.08,4,2.83,3.44,5.23,7.23,7.13,11.26l1.44,3.11.72,1.59.65,1.61,1.31,3.24,1.17,3.34c1.59,4.57,2.6,9.33,3,14.15.16,2.49-.03,5-.57,7.44-.28,1.25-.75,2.44-1.39,3.55-.16.28-.35.55-.56.8-.21.25-.44.48-.69.69l-1.39,1.29c-7.42,6.89-15.16,13.86-23.22,20.9-8.05,7-16.39,14.1-25.1,21-6,4.77-12,9.36-18.22,13.54-3.06,2.1-6.23,4.04-9.49,5.82-1.61.88-3.28,1.64-5,2.29-1.71.72-3.58,1.01-5.43.86-3.58-.22-7.14-.69-10.66-1.42-.88-.17-1.73-.47-2.59-.7-.84-.28-1.67-.62-2.47-1-.81-.38-1.59-.82-2.35-1.3-.73-.5-1.42-1.05-2.07-1.64-2.5-2.4-4.6-5.19-6.22-8.26-1.62-2.95-2.99-6.03-4.11-9.2-9-25-14.37-48.37-21.16-67.28-.6-2.39-.94-4.84-1-7.3-.08-1.2,0-2.38,0-3.55s.08-2.31.2-3.44c.38-4.25,1.01-8.47,1.88-12.64.4-1.96.8-3.84,1.21-5.65.32-1.76.74-3.49,1.27-5.2,1.28-2.87,3.17-5.42,5.55-7.48,1.86-1.67,3.87-3.18,6-4.5,1.81-1.18,3.43-2,4.74-2.73s2.33-1.16,3-1.46,1.06-.44,1.06-.44l-1,.49c-.69.32-1.7.81-3,1.5s-2.9,1.58-4.7,2.77c-2.09,1.34-4.07,2.85-5.91,4.52-2.34,2.04-4.21,4.56-5.48,7.39-.55,1.69-.99,3.41-1.33,5.15-.4,1.81-.8,3.69-1.18,5.65-.86,4.16-1.47,8.37-1.84,12.61-.11,1.12-.13,2.27-.19,3.42s0,2.34,0,3.52c.06,2.44.4,4.86,1,7.22,6.82,18.87,12.27,42.25,21.25,67.21,1.12,3.16,2.49,6.22,4.1,9.15,1.6,3.02,3.67,5.76,6.13,8.13.63.58,1.3,1.11,2,1.6.73.46,1.48.88,2.26,1.25.79.38,1.59.71,2.42,1,.84.23,1.67.52,2.54.69,3.49.71,7.03,1.18,10.59,1.4,1.78.15,3.57-.14,5.22-.83,1.7-.64,3.35-1.4,4.95-2.27,3.24-1.76,6.39-3.69,9.44-5.78,6.17-4.18,12.19-8.77,18.19-13.52,8.7-6.92,17-14,25.08-21s15.8-14,23.22-20.87l1.39-1.29c.23-.2.45-.41.65-.64.19-.24.36-.49.52-.75.61-1.06,1.06-2.21,1.33-3.41.54-2.39.72-4.85.56-7.29-.41-4.77-1.42-9.48-3-14-.39-1.11-.78-2.22-1.16-3.32l-1.31-3.23-.65-1.61-.71-1.56c-.48-1-1-2.07-1.43-3.1-1.88-4-4.25-7.75-7.05-11.17-1.34-1.63-3.02-2.96-4.91-3.89-.94-.42-1.97-.6-3-.53-.5.05-.98.19-1.43.4-.44.23-.85.52-1.22.85l-9.46,7.37-17.18,13.4c-10.64,8.27-19.57,15.23-26.44,20.58l-.13.1v-.16c-2-6.63-3.6-11.73-4.66-15.18-.52-1.72-.92-3-1.19-3.91s-.25-1.39-.25-1.39Z"/>
    <path class="st3" d="M200,256.72c-.33-1.89-.82-3.76-1.45-5.57-1.68-4.33-4.39-8.18-7.89-11.23-3.54-3.02-7.54-5.44-11.85-7.19-1.64-.7-3-1.2-3.94-1.55-.5-.15-.98-.34-1.45-.57.51.08,1.02.21,1.51.38,1,.28,2.35.74,4,1.39,4.38,1.68,8.44,4.1,12,7.15,3.58,3.09,6.31,7.05,7.94,11.49.47,1.34.81,2.73,1,4.14.05.38.09.77.1,1.16.02.13.03.27.03.4Z"/>
    <path class="st3" d="M204.4,324.72c-.04-.5-.04-1,0-1.5,0-1,.1-2.34.26-4.05.44-4.46,1.26-8.87,2.46-13.18,1.2-4.32,2.77-8.52,4.68-12.57.74-1.55,1.38-2.78,1.86-3.61.22-.45.49-.88.79-1.28-.16.47-.37.93-.61,1.37-.42.86-1,2.11-1.7,3.67-3.64,8.14-6.04,16.78-7.11,25.64-.21,1.69-.35,3.07-.43,4-.02.51-.09,1.01-.2,1.51Z"/>
    <path class="st3" d="M209.84,327.35c-.07-.51-.1-1.03-.09-1.54v-4.2c.06-3.55.3-8.46.91-13.85s1.48-10.23,2.22-13.7c.37-1.74.7-3.14,1-4.1.1-.51.25-1,.44-1.48-.04.52-.13,1.03-.25,1.53-.2,1.06-.47,2.45-.79,4.12-.65,3.48-1.45,8.32-2.06,13.69s-.91,10.26-1.06,13.8c-.06,1.7-.11,3.11-.15,4.19,0,.52-.06,1.03-.17,1.54Z"/>
    <path class="st2" d="M289.23,416.69c-2.72-.68-5.48,2.65-4.32,5.21s5.48,2.67,6.79.19-1.16-6-3.94-5.56"/>
    <path class="st3" d="M287.76,416.49s.08,0,.25-.07c.24-.04.49-.04.73,0,.91.13,1.74.58,2.35,1.27.97,1.01,1.38,2.43,1.09,3.8-.2.82-.71,1.54-1.42,2-1.54.95-3.51.9-5-.13-.67-.48-1.14-1.19-1.31-2-.21-1.38.3-2.78,1.34-3.71.66-.64,1.53-1.03,2.45-1.08.25-.01.49.02.73.09.16,0,.24.07.23.09s-.35-.05-.95,0c-2.15.34-3.62,2.34-3.33,4.49.15.7.55,1.31,1.14,1.72.64.44,1.4.68,2.18.7.78.02,1.54-.18,2.21-.58.61-.38,1.05-.97,1.24-1.66.42-2.13-.9-4.21-3-4.74-.58-.19-.92-.09-.93-.19Z"/>
    <path class="st3" d="M278.66,353.04c-1.27.91-2.65,1.67-4.09,2.27-1.36.76-2.81,1.36-4.31,1.8,2.64-1.66,5.46-3.03,8.4-4.07h0Z"/>
    <path class="st3" d="M428.16,336c-.01.17-.05.33-.11.49-.12.36-.26.81-.43,1.34-.38,1.17-1,2.84-1.62,4.93-.78,2.44-1.34,4.94-1.68,7.47-.18,1.49-.26,3-.24,4.5,0,1.58,0,3.21.12,4.86.06,1.61.34,3.2.83,4.73.49,1.42,1.19,2.77,2.06,4,1.52,2.04,3.35,3.84,5.41,5.34,1.74,1.32,3.23,2.27,4.26,2.95.55.32,1.07.68,1.57,1.08-.16-.05-.31-.12-.45-.21l-1.23-.7c-1.06-.62-2.58-1.53-4.37-2.82-2.13-1.48-4.01-3.29-5.58-5.36-.9-1.25-1.63-2.62-2.15-4.07-.51-1.57-.8-3.21-.87-4.86-.1-1.69-.08-3.32-.11-4.9-.02-1.53.08-3.06.28-4.57.35-2.56.96-5.07,1.8-7.51.7-2.08,1.34-3.74,1.78-4.88l.52-1.32c.04-.17.12-.34.21-.49Z"/>
    <path class="st3" d="M270.24,437.92h-4.48l-12.31-.06-42-.33.23-.15-6.02,12.64-.16-.36c1.43.37,3,.8,4.51,1.18,12,2.72,24.34,3.71,36.62,2.94,9.07-.55,18.09-1.65,27.03-3.29l-.12.18c-1-4-1.93-7.2-2.49-9.4-.28-1.09-.48-1.94-.61-2.5-.06-.27-.11-.48-.14-.65-.01-.08-.01-.15,0-.23l.06.21.19.64c.17.59.4,1.43.69,2.49.6,2.18,1.61,5.32,2.63,9.37v.15h-.15c-8.95,1.71-18,2.86-27.09,3.42-12.33.82-24.71-.15-36.76-2.89-1.56-.38-3.09-.81-4.53-1.18l-.3-.08.14-.28,6.11-12.61.07-.14h.16l42.11.55,12.26.2,3.26.07h.84l.25.11Z"/>
    <path class="st3" d="M342.96,434.68c.23-.03.47-.03.7,0l2.11.06c1.83.05,4.49.14,7.73.29h.16v.17c.5,3.26,1.08,7.11,1.71,11.24v.25l-.24.05-1.19.24-8.89,1.81-.25.06v-.25c-.62-4.15-1.1-7.66-1.42-10.11-.16-1.16-.28-2.1-.37-2.84-.06-.33-.1-.66-.1-1,0,0,.09.39.22,1.07s.29,1.7.5,2.88c.42,2.45,1,5.87,1.64,9.89l-.29-.19,8.89-1.86,1.18-.24-.2.29c-.6-4.14-1.16-8-1.63-11.25l.2.18c-3.12-.18-5.72-.38-7.56-.51l-2.15-.17-.75-.06Z"/>
    <path class="st3" d="M268.04,246.97c-.09-.17-.16-.35-.22-.53l-.54-1.56c-.47-1.42-1.13-3.38-1.93-5.81-1.62-5-3.86-11.91-6.39-19.74h.49c-.47,1.84-1,3.77-1.47,5.73-.6,2.34-1.2,4.62-1.77,6.83-.14.55-.29,1.1-.43,1.65-.13.59-.43,1.13-.85,1.56-.48.39-1.11.55-1.72.44-.55-.1-1.08-.28-1.57-.54-3.77-1.86-7.1-3.62-9.88-5.15s-5-2.81-6.52-3.72l-1.74-1.06c-.21-.12-.41-.25-.59-.4.22.08.44.18.64.31l1.79,1c1.55.85,3.8,2.09,6.59,3.57s6.15,3.21,9.91,5c.89.42,2,.81,2.76.15s.8-1.89,1.12-3c.57-2.21,1.15-4.49,1.76-6.83.5-2,1-3.89,1.48-5.73l.22-.87.27.86,6.21,19.84c.74,2.44,1.35,4.43,1.78,5.86.19.65.35,1.17.46,1.58.07.18.12.37.14.56Z"/>
    <path class="st3" d="M272.73,228.56s.27.21.19.74c-.19.73-.8,1.27-1.55,1.37-1.08-.02-2.09-.55-2.72-1.43-.76-.86-1.54-1.81-2.37-2.81-1.66-2-3.14-3.82-4.2-5.16-.61-.69-1.15-1.44-1.62-2.24.7.6,1.34,1.27,1.91,2,1.12,1.28,2.65,3.07,4.31,5.07l2.33,2.82c.52.79,1.37,1.3,2.31,1.38.62-.04,1.16-.43,1.4-1,.13-.47-.06-.72,0-.74Z"/>
    <path class="st3" d="M292.21,298.49c-.16-.11-.31-.24-.45-.38l-1.25-1.17c-.54-.51-1.19-1.14-1.9-1.92s-1.56-1.63-2.39-2.67-1.79-2.14-2.7-3.41-1.86-2.64-2.83-4.1c-2.04-3.23-3.82-6.6-5.35-10.1-1.47-3.52-2.68-7.14-3.62-10.83-.39-1.72-.78-3.34-1-4.89s-.45-3-.6-4.3-.21-2.52-.28-3.57-.09-2-.08-2.71,0-1.26,0-1.7c-.02-.2-.02-.4,0-.6.05.2.07.4.07.6,0,.44,0,1,.08,1.7s.06,1.64.17,2.69.15,2.24.36,3.55.35,2.74.66,4.26.65,3.15,1.05,4.85c1.85,7.36,4.86,14.37,8.9,20.79.95,1.47,1.84,2.87,2.78,4.11s1.8,2.39,2.64,3.42,1.63,1.91,2.32,2.71,1.31,1.45,1.82,2l1.18,1.23c.16.13.3.28.42.44Z"/>
    <path class="st10" d="M336.83,134.11s-33.12,174.78-45.9,211.77l173-12.47s31-131.19,43-188.24l-170.1-11.06Z"/>
    <g class="st7">
      <path class="st5" d="M431,335.49s33.66-74.57,42.66-123.49c5.16-27.68,7.68-68.14,7.68-68.14l-97.39-6.72s-29.9,57.42-45.78,110.35-19.29,96.78-19.29,96.78l50.38-3.93,13.9-49.33s5.34,2.52,12.26-1.5l-14.4,49.91,49.98-3.93Z"/>
    </g>
    <path class="st5" d="M371.13,280.37c.49,2.41.34,8.75,7.24,6s12.86-15.59,12.86-15.59l5.91-.55c-.02,1.75.07,3.5.29,5.24.36,3.3,2.25,8.75,7.15,8.47s7-4.33,12.63-15.39,6.91-19.78,10-27.44,10.92-11.55,14.16-14.84,4.2-5.48,8.1-12.86,5.89-8.28,8.84-20.67-5.31-14.79-5.31-14.79c0,0-6.16-1.18-10.63.29s-6.89,6.43-8.33,12-3.28,23.84-5.49,31.77-13.87,21.65-19.48,25-9.32,10.7-9.32,10.7l-4.45.41c.87-3.95-8.32-19.43-9.74-25.09s2.94-14.84,3.84-17.21,7.38-16.13,10-24.1-3.78-9.13-3.78-9.13l-8.69.8c-7.14.67-13.62,12.33-13.62,12.33-1.59,4.42-2.89,8.94-3.9,13.53-.91,5.17-.19,15.64.33,20.33s5.45,9.5,6.34,14.16-2.55,14.28-3.32,17-2.1,17.21-1.63,19.63ZM404.13,265.15c1.5-9,7.46-11.68,8.73-12.27,1.71-.79,4.05-1.55,4.37-.15l-.1-.12c.09.12.15.25.2.39.31.8.64,2.92-1.54,7.12-2.9,5.6-5.79,12-7.6,13.09s-5.53.89-4.09-8.06h.03ZM377.18,263.69c-.02-2.61.85-5.16,2.48-7.2.13-.16.28-.31.44-.44l-.18.14c1.15-1.54,3.18-1.19,4.53-.67,1,.38,5.69,2.11,2.1,11.26s-7.63,10-8.93,9.26-.65-7-.47-12.35h.03Z"/>
    <path class="st5" d="M397.5,254.89c-1.47,0-.75-5.65-.75-5.65-.29-2.08-.41-4.19-.38-6.29.12-2.64-1.38-5-2.45-7.35s-.45-8.91.49-12.24.17-3.57.17-3.57c-3.83-1-.79-9,1.33-16.5s4.66-7.07,4.66-7.07c0,0,1.68-.16,3,5.75s3.07,7.92,6.69,7.72l1.93-.18c3.62-.14,6.73-2.94,11.51-9.41s6.45-6.62,6.45-6.62c0,0,2.9-.89.82,6.56s-3.51,15.31-8.14,17.13c0,0-.95.4-1.88,3.73s-4.06,10.11-6.57,12.81-5.43,5.45-6.82,8.2-4,6.71-4,6.71c0,0-3.19,5.86-4.75,6.16l-1.31.11Z"/>
    <path class="st5" d="M434.92,143.13s1.83.42.7,3.5-.92,4.84-1.57,5.7c-.75.85-1.55,1.65-2.4,2.4,0,0,2.11.6.76,3.9s-1.56,6.49-2.17,7.93-2.08,2-2.71,2.83,2.23-.21,1.66,2.62-2.27,5-2.12,7.54-.91,6-3.29,7.44-1.81,3.15-1.81,4.53c-.02,1.9-.29,3.79-.79,5.63-.76,3.64-6,9.48-9.35,9.39s-6.85-3.92-6.18-6.36c1.2-3.36,2.89-6.52,5-9.39,1.35-1.51,2.56-1.63,2.21-3.18s-2,1-2-1.2c-.2-2.24.25-4.49,1.3-6.47,1.25-2.1,1.56-4.11,2.71-6.79s3.68-3.32,3.45-3.89-1.63-.25-.61-2.92,1.17-.9,2.18-5,1.44-6.48,2.67-6.2.94-1.47,1.21-4.27-.69-1.72.84-4.84,10.31-2.9,10.31-2.9Z"/>
    <path class="st5" d="M440.27,243.84l-1.85-3.8,2.2-7.94s-4.56-2.44-10.18,6.79-5,13.41-5,13.41l7.24-.66c1.16,2.5,1.41,5.33.7,8-1.25,4.08-3.42,3.71-5,10.85s-1.61,10-1.61,10l-19.55,56,10.08-.93,21.15-59.42s2.68-1.95,6.68-11,7.7-20.73,4.6-23.66-9.46,2.36-9.46,2.36Z"/>
    <path class="st5" d="M359.76,251.29l4.14-4.35,2.28-7.95s6.21-3.43,6.8,5.22-2.51,13.18-2.51,13.18l-7.24.67s-4.3,4.44-5.34,8.5,1.46,3.27-1,10.48c-1.1,3.49-2.46,6.9-4.06,10.2l-11.76,55.31-10.08.93,12-58.55s-1.7-1.54-.68-10.32,3.87-20.37,8.82-24c2.57-2.18,6.43-1.88,8.63.68Z"/>
    <path class="st3" d="M336.83,134.11l3.08.17,9,.56,34.36,2.18,123.59,7.93h.25l-.05.24c-5.73,27.1-12.46,56.77-19.7,88.38-7.24,31.61-15.04,65.16-23.23,99.92l-.05.19h-.19l-13.28,1-159.67,11.43h-.34l.1-.34c2.47-7.62,4.51-15.22,6.39-22.68l2.73-11.09c.85-3.66,1.7-7.28,2.53-10.87,1.67-7.15,3.18-14.16,4.72-21l4.29-19.9c5.47-25.76,10.06-48.38,13.81-67.08l11.66-59.1s-.05.35-.17,1-.31,1.67-.55,3c-.49,2.63-1.23,6.51-2.18,11.57-1.93,10.11-4.79,24.89-8.49,43.6s-8.25,41.34-13.7,67.12c-1.38,6.43-2.8,13.06-4.27,19.9-1.53,6.81-3,13.82-4.7,21l-2.52,10.87c-.9,3.66-1.81,7.36-2.72,11.1-1.88,7.47-3.91,15.07-6.38,22.73l-.24-.32,159.66-11.53,13.29-1-.24.2c8.2-34.74,16-68.27,23.28-99.87s14-61.27,19.75-88.36l.2.27-123.45-8.14-34.4-2.3-9-.61-3.17-.17Z"/>
    <path class="st1" d="M269.8,247s12.49-11.91,15.23-16.51c2.91-5.26,4.62-11.1,5-17.1.24-3.59,1.01-7.13,2.28-10.5,0,0,16.24-14,20.05-16.37,2.43-1.54,8.68-4.38,13.55-4.16s5.67,1.39,6.08,3.51c.12,1.22-.29,2.44-1.13,3.34,0,0,3.32,4.24-.33,7l-6.12.8-6.34,5.39s-4.09,5.75-3.4,6.21,3-.92,3-.92c0,0,8-7.52,10.27-6.84s5,2.47,5.47,4.54v.06c.49,2.53-.32,5.13-2.17,6.92l-.22.22s-3.05,1.07-4.33-.29-7.44,5.89-5.62,5.89,8.22-3.88,10.73-2.74,2.28,3.88.68,5.7-10.95,12.77-11.41,13.69-3,9.12-7.29,13-11.72,5.93-11.72,5.93l-23,27.83c-3.45-6.26-5.93-13-7.36-20-2.32-11.36-1.9-14.6-1.9-14.6Z"/>
    <path class="st4" d="M332.35,192.37s-.11-.46-.46-1.21c-.46-1.06-1.31-1.9-2.38-2.35-.76-.21-1.56-.29-2.35-.25-.93,0-1.86.04-2.79.14-2.11.21-4.18.79-6.1,1.69-1.89.96-3.64,2.19-5.2,3.64-1.3,1.17-2.54,2.4-3.71,3.7l-2.38,2.63c-.28.34-.59.66-.92.94.21-.38.47-.74.76-1.07.52-.66,1.28-1.61,2.26-2.74,1.15-1.34,2.37-2.61,3.67-3.81,1.57-1.51,3.36-2.78,5.3-3.76,1.97-.93,4.1-1.51,6.27-1.7.94-.08,1.89-.11,2.84-.09.85-.02,1.69.1,2.5.36,1.13.5,2.01,1.44,2.42,2.61.12.31.21.62.26.95.02.11.02.21,0,.32Z"/>
    <path class="st4" d="M330.66,209.13c.13.05-.49,1.32-1.92,2.2-.81.61-1.82.88-2.83.77,0-.16,1.25-.38,2.56-1.21s2.03-1.85,2.19-1.76Z"/>
    <path class="st1" d="M436.35,335.4c.63-.79-5.29,5.4-5.29,5.4l-4.42-.37c-3.17,6.07-3.21,13.58-2.69,21.54.08,1.2,1.11,2.11,2.32,2.04.09,0,.18-.02.27-.04l6.52-1.27s8.63,1.72,14.28.62,15.85-5.17,15.85-5.17c0,0,.78.15,5-1.1,2.37-.58,4.01-2.74,3.92-5.18,1.67.02,3.31-.47,4.7-1.41,2.36-1.57,1.92-6.22,1.92-6.22l3-2.84c1.32-1.23,2.05-2.96,2-4.76-.01-.39-.06-.78-.13-1.16-.57-3.29-5.14-6.51-5.14-6.51,0,0,.89-2.67.26-4.4s-12.24-10.82-12.24-10.82c-1.08-1.13-2.87-1.16-4-.08-.03.03-.05.05-.08.08-2,2,1.56,7.39,1.56,7.39-4.9-1.27-5.15,2.07-4.71,4.57.26,1.46,1.14,2.73,2.41,3.48l1.4.83-1.14,3.37s-3.13-2-5-1.71c-1.5.25-2.8,1.17-3.52,2.51l-17.05,1.21Z"/>
    <path class="st4" d="M459.11,324.27c-.08-.33-.08-.67,0-1,.15-.92.66-1.74,1.41-2.29.54-.37,1.18-.57,1.84-.55.73.02,1.45.18,2.12.46,1.4.61,2.79,1.38,4.33,2.13,2.63,1.27,5.18,2.71,7.62,4.32.93.63,1.65,1.19,2.13,1.58.26.19.5.42.71.67-.05.07-1.15-.77-3-1.94s-4.6-2.64-7.65-4.16c-1.52-.75-3-1.56-4.28-2.15-1.11-.61-2.44-.64-3.57-.06-.7.48-1.2,1.19-1.42,2-.19.64-.2.99-.24.99Z"/>
    <path class="st4" d="M471.41,350.63s-.11-.19-.42-.46c-.43-.41-.87-.8-1.34-1.17-1.21-1-3-2.32-5.31-3.9-2.68-1.85-5.45-3.56-8.32-5.1-1.89-.91-3.02-2.91-2.81-5,.2-1.08.81-2.05,1.7-2.69.92-.67,2.08-.92,3.19-.68,1.03.27,2.04.64,3,1.11.94.43,1.87.86,2.77,1.31,1.8.89,3.51,1.82,5.09,2.78s3.05,1.92,4.39,2.87l1.92,1.39c.61.41,1.19.87,1.73,1.37.49.47.9,1.02,1.22,1.62.27.56.4,1.17.38,1.79,0,.97-.2,1.92-.56,2.82-.24.57-.57,1.09-1,1.53-.14.16-.32.29-.51.38,0,0,.18-.13.43-.45.37-.46.65-.98.85-1.54.32-.87.47-1.8.46-2.73,0-.57-.12-1.13-.38-1.64-.31-.57-.71-1.08-1.18-1.52-.54-.48-1.11-.91-1.72-1.3l-1.93-1.37c-1.34-.92-2.81-1.87-4.39-2.81s-3.27-1.85-5.06-2.74c-.9-.44-1.82-.87-2.76-1.28-.93-.45-1.9-.81-2.89-1.08-1.99-.38-3.91.93-4.29,2.93h0c-.12.94.09,1.88.59,2.66.5.77,1.19,1.4,2,1.82,2.87,1.57,5.64,3.31,8.29,5.22,2.27,1.62,4.05,3,5.23,4,.46.39.89.81,1.29,1.26.11.11.2.24.27.38.06.17.08.21.07.22Z"/>
    <path class="st4" d="M459.49,356.16c-.28-.16-.53-.35-.76-.57-.47-.39-1.14-1-2-1.74-.99-.9-1.92-1.84-2.81-2.84-.26-.3-.51-.62-.73-.95-.23-.37-.39-.78-.48-1.21-.2-.9-.16-1.84.11-2.72h0c.38-1.5,1.69-2.58,3.23-2.68.62-.04,1.24.1,1.78.4.5.29.96.65,1.36,1.06l2.16,2.27c1.39,1.44,2.66,2.71,3.7,3.82s1.84,2,2.38,2.68c.3.32.56.68.77,1.06-.33-.28-.64-.59-.92-.93-.58-.61-1.43-1.49-2.5-2.56l-3.77-3.73-2.18-2.25c-.68-.81-1.69-1.29-2.75-1.3-1.31.08-2.42.99-2.76,2.26h0c-.25.79-.29,1.64-.13,2.45.07.38.21.74.41,1.07.21.32.44.62.67.91,1,1.15,1.92,2.1,2.7,2.89l1.86,1.84c.25.23.48.48.66.77Z"/>
    <path class="st4" d="M456.66,341.28c-.2.21-.42.39-.67.53-.64.42-1.31.8-2,1.12-2.33,1.07-4.87,1.6-7.43,1.56-1.41-.03-2.81-.24-4.17-.61-1.1-.31-2.17-.74-3.18-1.28-.69-.35-1.34-.77-1.95-1.24-.43-.33-.66-.53-.64-.56s1,.65,2.75,1.47c1.01.48,2.07.87,3.15,1.15,1.33.33,2.68.52,4.05.55,2.49.04,4.97-.43,7.28-1.38,1.81-.73,2.81-1.39,2.81-1.31Z"/>
    <path class="st4" d="M465.31,351.73s-.34-.2-.44-.75c-.09-.69-.04-1.38.13-2.05.12-.97.57-1.86,1.26-2.55.13.07-.43,1.19-.75,2.67-.15.62-.25,1.25-.28,1.89,0,.47.14.75.08.79Z"/>
    <path class="st4" d="M477.84,342.21s-.1-.37-.36-1c-.4-.86-.93-1.65-1.59-2.33-.98-1.02-2.06-1.94-3.22-2.75-1.39-1.04-2.86-1.98-4.39-2.79-1.63-.88-3.23-1.68-4.59-2.58-1.22-.78-2.35-1.7-3.34-2.76-.63-.77-1.04-1.7-1.18-2.68-.08-.35-.1-.71-.06-1.06.12.32.2.66.26,1,.21.92.64,1.77,1.26,2.48,1,.99,2.12,1.86,3.32,2.59,1.35.86,2.93,1.65,4.58,2.53.82.44,1.61.9,2.36,1.38s1.42,1,2.07,1.48c1.17.85,2.24,1.82,3.2,2.9.67.72,1.18,1.57,1.51,2.5.08.25.14.51.17.78.02.21.02.31,0,.31Z"/>
    <path class="st4" d="M459.11,324.27c-.08-.33-.08-.67,0-1,.15-.92.66-1.74,1.41-2.29.54-.37,1.18-.57,1.84-.55.73.02,1.45.18,2.12.46,1.4.61,2.79,1.38,4.33,2.13,2.63,1.27,5.18,2.71,7.62,4.32.93.63,1.65,1.19,2.13,1.58.26.19.5.42.71.67-.05.07-1.15-.77-3-1.94s-4.6-2.64-7.65-4.16c-1.52-.75-3-1.56-4.28-2.15-1.11-.61-2.44-.64-3.57-.06-.7.48-1.2,1.19-1.42,2-.19.64-.2.99-.24.99Z"/>
    <path class="st4" d="M471.41,350.63s-.11-.19-.42-.46c-.43-.41-.87-.8-1.34-1.17-1.21-1-3-2.32-5.31-3.9-2.68-1.85-5.45-3.56-8.32-5.1-1.89-.91-3.02-2.91-2.81-5,.2-1.08.81-2.05,1.7-2.69.92-.67,2.08-.92,3.19-.68,1.03.27,2.04.64,3,1.11.94.43,1.87.86,2.77,1.31,1.8.89,3.51,1.82,5.09,2.78s3.05,1.92,4.39,2.87l1.92,1.39c.61.41,1.19.87,1.73,1.37.49.47.9,1.02,1.22,1.62.27.56.4,1.17.38,1.79,0,.97-.2,1.92-.56,2.82-.24.57-.57,1.09-1,1.53-.14.16-.32.29-.51.38,0,0,.18-.13.43-.45.37-.46.65-.98.85-1.54.32-.87.47-1.8.46-2.73,0-.57-.12-1.13-.38-1.64-.31-.57-.71-1.08-1.18-1.52-.54-.48-1.11-.91-1.72-1.3l-1.93-1.37c-1.34-.92-2.81-1.87-4.39-2.81s-3.27-1.85-5.06-2.74c-.9-.44-1.82-.87-2.76-1.28-.93-.45-1.9-.81-2.89-1.08-1.99-.38-3.91.93-4.29,2.93h0c-.12.94.09,1.88.59,2.66.5.77,1.19,1.4,2,1.82,2.87,1.57,5.64,3.31,8.29,5.22,2.27,1.62,4.05,3,5.23,4,.46.39.89.81,1.29,1.26.11.11.2.24.27.38.06.17.08.21.07.22Z"/>
    <path class="st4" d="M459.49,356.16c-.28-.16-.53-.35-.76-.57-.47-.39-1.14-1-2-1.74-.99-.9-1.92-1.84-2.81-2.84-.26-.3-.51-.62-.73-.95-.23-.37-.39-.78-.48-1.21-.2-.9-.16-1.84.11-2.72h0c.38-1.5,1.69-2.58,3.23-2.68.62-.04,1.24.1,1.78.4.5.29.96.65,1.36,1.06l2.16,2.27c1.39,1.44,2.66,2.71,3.7,3.82s1.84,2,2.38,2.68c.3.32.56.68.77,1.06-.33-.28-.64-.59-.92-.93-.58-.61-1.43-1.49-2.5-2.56l-3.77-3.73-2.18-2.25c-.68-.81-1.69-1.29-2.75-1.3-1.31.08-2.42.99-2.76,2.26h0c-.25.79-.29,1.64-.13,2.45.07.38.21.74.41,1.07.21.32.44.62.67.91,1,1.15,1.92,2.1,2.7,2.89l1.86,1.84c.25.23.48.48.66.77Z"/>
    <path class="st4" d="M465.31,351.73s-.34-.2-.44-.75c-.09-.69-.04-1.38.13-2.05.12-.97.57-1.86,1.26-2.55.13.07-.43,1.19-.75,2.67-.15.62-.25,1.25-.28,1.89,0,.47.14.75.08.79Z"/>
    <path class="st4" d="M477.84,342.21s-.1-.37-.36-1c-.4-.86-.93-1.65-1.59-2.33-.98-1.02-2.06-1.94-3.22-2.75-1.39-1.04-2.86-1.98-4.39-2.79-1.63-.88-3.23-1.68-4.59-2.58-1.22-.78-2.35-1.7-3.34-2.76-.63-.77-1.04-1.7-1.18-2.68-.08-.35-.1-.71-.06-1.06.12.32.2.66.26,1,.21.92.64,1.77,1.26,2.48,1,.99,2.12,1.86,3.32,2.59,1.35.86,2.93,1.65,4.58,2.53.82.44,1.61.9,2.36,1.38s1.42,1,2.07,1.48c1.17.85,2.24,1.82,3.2,2.9.67.72,1.18,1.57,1.51,2.5.08.25.14.51.17.78.02.21.02.31,0,.31Z"/>
  </g>
  <g id="freepik--speech-bubble--inject-109">
    <path class="st8" d="M189.05,172.67l-9.16-16.06c4.19-6.76,6.4-14.55,6.39-22.5.06-23.81-19.19-43.16-43-43.22s-43.16,19.19-43.22,43c-.06,23.81,19.19,43.16,43,43.22,9.58.02,18.89-3.14,26.47-9h0l19.52,4.56Z"/>
    <path class="st3" d="M189.05,172.67l-19.57-4.45h-.19l.12-.16h0l.19.19c-2.75,2.08-5.72,3.84-8.87,5.24-3.76,1.68-7.73,2.81-11.81,3.36-2.26.31-4.54.43-6.82.35-1.18-.06-2.37-.1-3.58-.19l-3.64-.52c-10.85-2.1-20.49-8.23-27-17.16-3.6-4.95-6.11-10.61-7.35-16.61-1.26-6.34-1.09-12.88.49-19.15.21-.8.4-1.6.63-2.4s.57-1.56.86-2.34c.57-1.57,1.23-3.1,2-4.58.37-.75.79-1.49,1.25-2.19l1.33-2.17,1.53-2c.49-.7,1.03-1.37,1.61-2l1.77-1.93c.58-.66,1.27-1.19,1.9-1.78s1.25-1.2,1.95-1.71l2.08-1.54c.69-.54,1.42-1.02,2.18-1.44l2.19-1.32c.75-.39,1.53-.74,2.29-1.11.75-.38,1.52-.72,2.31-1,6.14-2.43,12.74-3.45,19.32-3,6.22.42,12.28,2.19,17.75,5.18,9.82,5.41,17.18,14.38,20.57,25.07,1.34,4.54,1.98,9.26,1.9,14-.11,4.11-.82,8.19-2.11,12.1-1.07,3.25-2.53,6.36-4.34,9.26v-.12l9,16.12c-.45-.77-3.35-5.77-9.27-16v-.13c1.77-2.9,3.2-5.99,4.26-9.22,1.24-3.88,1.91-7.93,2-12,.07-4.7-.59-9.38-1.93-13.88-3.37-10.57-10.68-19.44-20.41-24.77-5.41-2.95-11.41-4.69-17.56-5.1-6.51-.43-13.03.59-19.09,3-.78.29-1.54.62-2.28,1-.75.37-1.52.72-2.26,1.1l-2.17,1.31c-.74.41-1.44.88-2.11,1.4l-2,1.52c-.7.5-1.28,1.12-1.93,1.68s-1.31,1.12-1.88,1.76l-1.7,1.86c-.58.63-1.11,1.3-1.6,2l-1.51,2-1.31,2.13c-.46.69-.87,1.41-1.23,2.16-.76,1.46-1.43,2.98-2,4.53l-.85,2.31c-.22.78-.42,1.58-.62,2.36-1.57,6.2-1.74,12.66-.5,18.93,1.22,5.93,3.7,11.52,7.25,16.42,6.42,8.84,15.95,14.92,26.68,17l3.6.56c1.2.09,2.38.13,3.54.19,2.26.09,4.53-.02,6.77-.32,4.05-.54,7.99-1.65,11.73-3.29,3.14-1.4,6.11-3.16,8.85-5.24l.79-.6-.61.78h0l-.08-.2,19.49,4.75Z"/>
    <polygon class="st9" points="123.03 133.63 128.64 128.05 139.47 137.62 160.73 117.27 165.94 122.86 138.67 148.4 123.03 133.63"/>
  </g>
</svg>