<?xml version="1.0" encoding="UTF-8"?>
<svg id="Layer_1" xmlns="http://www.w3.org/2000/svg" version="1.1" viewBox="0 0 750 500">
  <!-- Generator: Adobe Illustrator 29.5.1, SVG Export Plug-In . SVG Version: 2.1.0 Build 141)  -->
  <defs>
    <style>
      .st0 {
        fill: #e0e0e0;
      }

      .st1 {
        fill: #ae7461;
      }

      .st2 {
        isolation: isolate;
      }

      .st2, .st3 {
        opacity: .3;
      }

      .st4 {
        fill: #ebebeb;
      }

      .st5 {
        fill: #4a9288;
      }

      .st6 {
        fill: #263238;
      }

      .st7 {
        fill: #6f4439;
      }

      .st8 {
        fill: #fff;
      }

      .st9 {
        fill: #fafafa;
      }

      .st10 {
        fill: #ffbf9d;
      }

      .st11 {
        fill: #f5f5f5;
      }

      .st12 {
        fill: #455a64;
      }

      .st13 {
        fill: #ff9a6c;
      }
    </style>
  </defs>
  <g id="freepik--background-complete--inject-78">
    <path class="st11" d="M75,463.92c-1.32-1.13-4.26-4.71-2-8.88.83-1.53,2.6-2.29,4.2-3,1.65-.55,3.2-1.36,4.6-2.38,2.5-2.13,3.19-5.65,4.84-8.49,1.91-3.25,5.46-5.69,9.21-5.52,4.29.2,7.87,3.71,9.5,7.71s1.68,8.44,1.71,12.76c0,2.39-.08,5.08-1.84,6.69-1.61,1.49-4,1.51-6.24,1.44l-23.41-.68"/>
    <path class="st0" d="M119.9,399.38h-61.73l11.12,66.3c.47,2.83,2.52,5.13,5.28,5.91h.21c.19.05.36.11.55.15.42.08.84.12,1.26.14v.06h27.81c.51,0,1.02-.05,1.52-.15,3.3-.51,5.85-3.16,6.24-6.48l5.41-45.63.24-1.82h0l2.05-18.18.04-.3ZM108.25,441.68h-6.33l.65-19.25h7.34l-1.66,19.25ZM110.51,422.44h6.06l-2.25,19.24h-5.45l1.64-19.24ZM92.41,463.01l-.38-16.71h9.12l-.58,16.7h-8.16ZM82.57,446.29h8.86l.39,16.71h-7.97l-1.28-16.71ZM83.26,463h-7.46c-.7-4.51-1.62-10.38-2.62-16.71h8.76l1.32,16.71ZM82.19,441.68l-1.49-19.24h10.17l.44,19.24h-9.12ZM91.92,441.68l-.44-19.24h10.46l-.64,19.24h-9.38ZM91.37,417.82l-.41-17.82h11.73l-.59,17.82h-10.73ZM90.76,417.82h-10.42l-1.39-17.82h11.4l.41,17.82ZM79.76,417.82h-11c-.39-2.46-.76-4.79-1.1-6.88-1.15-7.21-1.58-9.92-1.82-10.94h12.5l1.42,17.82ZM80.12,422.44l1.45,19.24h-9.11c-.31-1.95-.62-3.93-.93-5.9-.71-4.54-1.43-9.09-2.1-13.34h10.69ZM71.84,441.68h-6l-3.23-19.24h6.16c.98,5.94,2.02,12.55,3.07,19.24ZM72.56,446.3c.91,5.78,1.81,11.49,2.62,16.71h-5.72l-2.8-16.71h5.9ZM101.21,463.01l.55-16.71h6.1l-1.43,16.71h-5.22ZM102.71,417.82l.59-17.82h8.51l-1.52,17.82h-7.58ZM65.2,399.99c.24,1.29,1.37,8.3,2.88,17.82h-6.2l-3-17.82h6.32ZM111.82,462.99h-4.77l1.42-16.71h5.31l-1.96,16.71ZM117.12,417.8h-6.21l1.52-17.82h6.78l-2.09,17.82Z"/>
    <rect class="st9" x="599.72" y="157.42" width="83.2" height="74.44"/>
    <path class="st0" d="M682.92,231.86v-20.5c0-13-.06-31.59-.1-54l.19.19h-83.2l.22-.22v74.44l-.19-.2,60.17.1,17,.05h5.65-22.5l-60.3.1h-.2v-74.85h83.62v.19c0,22.42-.08,41-.1,54.08,0,6.48,0,11.58-.05,15.06v4c0,1-.21,1.56-.21,1.56Z"/>
    <path class="st0" d="M631.62,170.65c0,.12-4.38.22-9.78.22s-9.78-.1-9.78-.22,4.38-.23,9.78-.23,9.78.1,9.78.23Z"/>
    <path class="st0" d="M666.87,176.23c0,.13-12,.23-26.87.23s-26.87-.1-26.87-.23,12-.22,26.87-.22,26.87.1,26.87.22Z"/>
    <rect class="st0" x="612.2" y="185.7" width="3.51" height="3.51"/>
    <rect class="st0" x="620.83" y="185.7" width="3.51" height="3.51"/>
    <rect class="st0" x="629.62" y="185.54" width="3.51" height="3.51"/>
    <rect class="st0" x="638.09" y="185.7" width="3.51" height="3.51"/>
    <rect class="st0" x="646.71" y="185.7" width="3.51" height="3.51"/>
    <rect class="st0" x="655.34" y="185.7" width="3.51" height="3.51"/>
    <rect class="st4" x="663.97" y="185.7" width="3.51" height="3.51"/>
    <rect class="st4" x="612.2" y="193.15" width="3.51" height="3.51"/>
    <rect class="st0" x="620.83" y="193.15" width="3.51" height="3.51"/>
    <rect class="st4" x="629.46" y="193.15" width="3.51" height="3.51"/>
    <rect class="st0" x="638.09" y="193.15" width="3.51" height="3.51"/>
    <rect class="st0" x="646.71" y="193.15" width="3.51" height="3.51"/>
    <rect class="st0" x="655.5" y="192.99" width="3.51" height="3.51"/>
    <rect class="st0" x="663.97" y="193.15" width="3.51" height="3.51"/>
    <rect class="st0" x="612.2" y="200.61" width="3.51" height="3.51"/>
    <rect class="st0" x="620.99" y="200.45" width="3.51" height="3.51"/>
    <rect class="st0" x="629.46" y="200.61" width="3.51" height="3.51"/>
    <rect class="st4" x="638.09" y="200.61" width="3.51" height="3.51"/>
    <rect class="st0" x="646.71" y="200.61" width="3.51" height="3.51"/>
    <rect class="st0" x="655.34" y="200.61" width="3.51" height="3.51"/>
    <rect class="st0" x="663.97" y="200.61" width="3.51" height="3.51"/>
    <rect class="st0" x="612.2" y="208.06" width="3.51" height="3.51"/>
    <rect class="st0" x="620.83" y="208.06" width="3.51" height="3.51"/>
    <rect class="st0" x="629.46" y="208.06" width="3.51" height="3.51"/>
    <rect class="st0" x="638.24" y="207.9" width="3.51" height="3.51"/>
    <rect class="st0" x="646.71" y="208.06" width="3.51" height="3.51"/>
    <rect class="st4" x="655.34" y="208.06" width="3.51" height="3.51"/>
    <rect class="st0" x="663.97" y="208.06" width="3.51" height="3.51"/>
    <rect class="st0" x="612.2" y="215.51" width="3.51" height="3.51"/>
    <rect class="st4" x="620.83" y="215.51" width="3.51" height="3.51"/>
    <rect class="st0" x="629.46" y="215.51" width="3.51" height="3.51"/>
    <rect class="st0" x="638.09" y="215.51" width="3.51" height="3.51"/>
    <rect class="st0" x="646.71" y="215.51" width="3.51" height="3.51"/>
    <rect class="st0" x="655.5" y="215.35" width="3.51" height="3.51"/>
    <rect class="st0" x="663.97" y="215.51" width="3.51" height="3.51"/>
    <circle class="st0" cx="594.35" cy="76.68" r="30.32"/>
    <circle class="st8" cx="594.66" cy="76.38" r="27.44"/>
    <path class="st4" d="M566.95,74.74v2.76c0,.39.07.75.1,1.17s.08.87.13,1.35c.06.51.14,1.03.26,1.53.47,2.62,1.33,5.15,2.56,7.51,1.61,3.14,3.8,5.93,6.47,8.24l1.13,1c.4.3.82.58,1.23.88s.83.61,1.29.86.92.51,1.38.78l.7.39.74.32,1.51.67c.51.21,1,.35,1.59.54.53.2,1.08.36,1.63.48,1.13.29,2.28.5,3.44.63.59.06,1.18.16,1.78.19h2.74l.93-.08c.61-.06,1.24-.09,1.86-.18,1.26-.19,2.5-.47,3.72-.83l.93-.27.47-.14.45-.19,1.83-.73c.6-.28,1.18-.61,1.77-.91.3-.14.6-.3.88-.48l.85-.55c1.14-.75,2.24-1.58,3.27-2.48l1.5-1.44.37-.36.34-.4.69-.8.68-.8.61-.86.61-.87.33-.47.26-.46c.35-.63.71-1.25,1.06-1.87s.58-1.32.88-2c1.09-2.74,1.76-5.62,2-8.55.16-2.94-.13-5.89-.85-8.74-.2-.7-.4-1.39-.61-2.08s-.53-1.33-.8-2l-.2-.5-.25-.47-.49-.94-.49-.94-.58-.89-.57-.88-.29-.43-.32-.41-1.29-1.63c-.91-1.01-1.89-1.96-2.94-2.84l-.77-.66c-.25-.22-.54-.39-.81-.59-.55-.38-1.08-.78-1.64-1.13l-1.71-1-.43-.24c-.14-.08-.29-.14-.44-.2l-.89-.4c-1.16-.51-2.36-.95-3.58-1.31-.61-.17-1.22-.28-1.83-.42l-.9-.2c-.3-.06-.61-.08-.91-.12l-1.85-.1c-.6-.05-1.2,0-1.79-.05-1.17-.02-2.33.04-3.49.17-.57.05-1.13.14-1.69.27-.55.11-1.11.19-1.64.33l-1.58.46-.78.23-.75.29-1.47.59c-.48.19-.92.46-1.38.69s-.91.46-1.34.7l-1.25.81c-2.94,1.94-5.48,4.43-7.49,7.33-1.53,2.18-2.71,4.58-3.52,7.11-.18.48-.33.98-.46,1.48-.11.47-.21.91-.3,1.32-.09.41-.19.79-.25,1.14s-.08.67-.12,1c-.07.57-.13,1-.17,1.3s-.06.45-.06.45v-.45c0-.29.08-.74.14-1.31,0-.29.07-.61.11-1s.15-.73.23-1.15.19-.86.29-1.33c.12-.5.27-1,.44-1.49.8-2.55,1.98-4.97,3.5-7.17,2-2.93,4.55-5.45,7.51-7.41l1.25-.82c.44-.25.9-.47,1.35-.71s.91-.51,1.4-.7l1.48-.6.75-.3.79-.23,1.59-.47c.54-.14,1.1-.22,1.66-.34.56-.13,1.13-.22,1.7-.27,1.17-.14,2.34-.2,3.52-.18h1.81l1.83.21c.3,0,.61.06.92.12l.91.2c.61.14,1.23.26,1.84.42,1.25.37,2.47.83,3.66,1.36l.89.4.45.2.43.24,1.74,1c.56.36,1.1.76,1.65,1.14.28.2.57.38.83.6l.77.66c1.06.89,2.07,1.85,3,2.88l1.33,1.58.33.41.29.44.58.89.58.9.5.94.49,1,.25.48.21.5.81,2c.21.7.41,1.4.62,2.1.73,2.89,1.01,5.87.85,8.84-.22,2.96-.9,5.88-2,8.64-.3.67-.59,1.34-.89,2s-.71,1.27-1.07,1.89c-.09.16-.17.32-.27.47l-.31.44-.61.88-.62.88-.7.81-.69.8-.34.4-.38.37-1.51,1.46c-1.05.89-2.16,1.71-3.32,2.46l-.86.55c-.29.18-.59.34-.89.48-.6.31-1.19.64-1.79.92l-1.85.74-.46.19-.47.14-.94.27c-1.23.36-2.49.64-3.76.84-.63.08-1.26.11-1.88.17l-.94.08h-2.76c-.61,0-1.21-.13-1.8-.19-1.17-.13-2.33-.35-3.47-.64-.56-.13-1.11-.3-1.65-.5-.54-.18-1.08-.33-1.6-.54l-1.52-.68-.75-.33-.7-.4-1.44-.8c-.46-.25-.87-.59-1.3-.88s-.84-.58-1.24-.88l-1.13-1c-2.68-2.33-4.88-5.15-6.48-8.32-1.22-2.38-2.08-4.93-2.53-7.57-.11-.51-.2-1.02-.25-1.54,0-.48-.07-.94-.11-1.36s-.07-.81-.08-1.16,0-.68,0-1v-1.32c.06-.28.08-.43.08-.43Z"/>
    <path class="st0" d="M607.16,77.13c-.33.06-.67.09-1,.07h-2.69c-2.27,0-5.44.06-9,.06h-.18v-2c0-4,0-7.61.05-10.23,0-1.27,0-2.31.06-3.11-.01-.38.01-.76.07-1.13.05.37.07.75.07,1.13,0,.8,0,1.84.05,3.11,0,2.62.05,6.24.05,10.23v1.79l-.17-.17c3.58,0,6.75,0,9,.06l2.69.05c.34.02.67.07,1,.14Z"/>
    <path class="st0" d="M594.56,53.2c.18.76.24,1.54.18,2.32.06.77,0,1.55-.18,2.31-.18-.76-.24-1.54-.18-2.31-.06-.78,0-1.56.18-2.32Z"/>
    <path class="st0" d="M607.14,56.94c-.4.65-.91,1.24-1.49,1.74-.5.59-1.09,1.1-1.74,1.52.4-.65.9-1.24,1.48-1.74.5-.59,1.09-1.11,1.75-1.52Z"/>
    <path class="st0" d="M614.49,64.97c-.58.5-1.22.93-1.9,1.27-.62.44-1.29.81-2,1.11.51-.58,1.12-1.06,1.81-1.41.63-.45,1.34-.77,2.09-.97Z"/>
    <path class="st0" d="M618.8,76.89c-2.1.24-4.22.24-6.32,0,2.1-.23,4.22-.23,6.32,0Z"/>
    <path class="st0" d="M574.96,76.47c-1.99.24-4.01.24-6,0,1.99-.24,4.01-.24,6,0Z"/>
    <path class="st0" d="M578.06,85.35c-.68.75-1.43,1.42-2.26,2-.75.71-1.58,1.34-2.48,1.85.67-.75,1.43-1.42,2.26-2,.75-.72,1.58-1.34,2.48-1.85Z"/>
    <path class="st0" d="M585.72,92.2c-.45.92-.96,1.81-1.54,2.66-.48.91-1.02,1.78-1.63,2.61.3-.99.75-1.93,1.33-2.79.48-.92,1.1-1.76,1.84-2.48Z"/>
    <path class="st0" d="M594.56,101.06c-.18-1.04-.24-2.1-.18-3.16-.06-1.06,0-2.12.18-3.16.17,1.04.23,2.1.16,3.16.07,1.06.01,2.12-.16,3.16Z"/>
    <path class="st0" d="M608.19,96.85c-1.88-.98-3.5-2.39-4.73-4.12.82.65,1.61,1.34,2.36,2.07.83.64,1.62,1.32,2.37,2.05Z"/>
    <path class="st0" d="M614.58,89.96c-.77-.52-1.47-1.14-2.09-1.84-.7-.61-1.32-1.32-1.84-2.09.77.52,1.46,1.14,2.07,1.84.71.61,1.33,1.32,1.86,2.09Z"/>
    <path class="st0" d="M577.77,67.97c-.69-.44-1.31-.97-1.85-1.59-.62-.54-1.15-1.16-1.59-1.85.69.44,1.31.97,1.84,1.59.62.54,1.16,1.16,1.6,1.85Z"/>
    <path class="st0" d="M585.66,59.66c-.68-.43-1.29-.95-1.81-1.56-.61-.52-1.14-1.13-1.57-1.81.68.43,1.29.95,1.82,1.56.61.52,1.13,1.13,1.56,1.81Z"/>
    <path class="st11" d="M570.09,76.65c0-14.52,11.32-26.52,25.81-27.38-.54,0-1.08-.06-1.63-.06-15.15,0-27.44,12.29-27.44,27.44s12.29,27.44,27.44,27.44h1.63c-14.51-.87-25.83-12.9-25.81-27.44Z"/>
    <rect class="st0" x="66.57" y="96.38" width="77.25" height="122.08"/>
    <rect class="st11" x="68.65" y="98.68" width="72.82" height="117.78"/>
    <rect class="st8" x="105.06" y="105.54" width="29.04" height="45.06"/>
    <path class="st0" d="M121.13,109.52c.06.6-.38,1.13-.98,1.19s-1.13-.38-1.19-.98c0-.07,0-.14,0-.21.06-.6.59-1.04,1.19-.98.52.05.93.46.98.98Z"/>
    <rect class="st8" x="75.8" y="163.14" width="29.04" height="45.06"/>
    <path class="st0" d="M91.86,167.12c0,.6-.48,1.09-1.08,1.1-.6,0-1.09-.48-1.1-1.08s.48-1.09,1.08-1.1c0,0,.01,0,.02,0,.6,0,1.08.48,1.08,1.08h0Z"/>
    <rect class="st8" x="75.41" y="105.54" width="24.8" height="35.19"/>
    <path class="st0" d="M88.71,108.73c0,.5-.4.9-.9.9s-.9-.4-.9-.9.4-.9.9-.9.9.4.9.9h0Z"/>
    <rect class="st8" x="109.29" y="165.21" width="26.69" height="14.79" transform="translate(-18.59 14.84) rotate(-6.44)"/>
    <path class="st0" d="M123.03,168.04c0,.51-.41.92-.92.92-.51,0-.92-.41-.92-.92,0-.51.41-.92.92-.92h0c.51,0,.92.41.92.92Z"/>
    <path class="st0" d="M100.96,173.37c0,.12-4.56.22-10.18.22s-10.21-.06-10.21-.22,4.55-.21,10.18-.21,10.21.13,10.21.21Z"/>
    <path class="st0" d="M100.96,176.64c0,.12-4.56.21-10.18.21s-10.21-.09-10.21-.21,4.55-.22,10.18-.22,10.21.1,10.21.22Z"/>
    <path class="st0" d="M100.96,179.86c0,.12-4.56.22-10.18.22s-10.21-.1-10.21-.22,4.55-.22,10.18-.22,10.21.1,10.21.22Z"/>
    <path class="st0" d="M100.96,183.08c0,.12-4.56.22-10.18.22s-10.21-.1-10.21-.22,4.55-.21,10.18-.21,10.21.1,10.21.21Z"/>
    <path class="st0" d="M100.96,186.31c0,.12-4.56.21-10.18.21s-10.21-.09-10.21-.21,4.55-.22,10.18-.22,10.21.1,10.21.22Z"/>
    <path class="st0" d="M100.96,189.53c0,.12-4.56.22-10.18.22s-10.21-.1-10.21-.22,4.55-.21,10.18-.21,10.21.05,10.21.21Z"/>
    <path class="st0" d="M100.96,192.76c0,.12-4.56.21-10.18.21s-10.21-.09-10.21-.21,4.55-.22,10.18-.22,10.21.1,10.21.22Z"/>
    <path class="st0" d="M132.57,169.96c0,.12-4.49.85-10,1.64s-10.1,1.32-10.12,1.21,4.49-.86,10.06-1.64,10.06-1.33,10.06-1.21Z"/>
    <path class="st0" d="M132.97,171.98c0,.11-4.48.85-10.05,1.63-5.57.78-10.1,1.33-10.11,1.21s4.48-.85,10.05-1.64,10.1-1.32,10.11-1.2Z"/>
    <path class="st0" d="M133.34,173.84c0,.12-4.48.85-10,1.64s-10.1,1.32-10.11,1.2,4.48-.85,10-1.63,10.1-1.33,10.11-1.21Z"/>
    <path class="st0" d="M131.57,114.96c0,.12-5.15.22-11.51.22s-11.49-.1-11.49-.22,5.15-.21,11.5-.21,11.5.09,11.5.21Z"/>
    <path class="st0" d="M131.57,116.88c0,.12-5.15.22-11.51.22s-11.49-.1-11.49-.22,5.15-.22,11.5-.22,11.5.1,11.5.22Z"/>
    <path class="st0" d="M131.57,118.8c0,.12-5.15.21-11.51.21s-11.49-.09-11.49-.21,5.15-.22,11.5-.22,11.5.1,11.5.22Z"/>
    <path class="st0" d="M131.57,120.71c0,.12-5.15.22-11.51.22s-11.49-.1-11.49-.22,5.15-.21,11.5-.21,11.5.1,11.5.21Z"/>
    <path class="st0" d="M131.57,122.63c0,.12-5.15.22-11.51.22s-11.49-.1-11.49-.22,5.12-.26,11.47-.26,11.53.14,11.53.26Z"/>
    <path class="st0" d="M131.57,124.55c0,.12-5.15.21-11.51.21s-11.49-.09-11.49-.21,5.12-.18,11.47-.18,11.53.06,11.53.18Z"/>
    <path class="st0" d="M131.57,126.47c0,.11-5.15.21-11.51.21s-11.49-.1-11.49-.21,5.15-.22,11.5-.22,11.5.12,11.5.22Z"/>
    <path class="st0" d="M131.57,132.15c0,.12-5.15.22-11.51.22s-11.49-.1-11.49-.22,5.15-.21,11.5-.21,11.5.09,11.5.21Z"/>
    <path class="st0" d="M131.71,134.18c0,.12-5.15.21-11.51.21s-11.5-.09-11.5-.21,5.15-.22,11.5-.22,11.51.1,11.51.22Z"/>
    <path class="st0" d="M131.87,136.2c0,.12-5.15.22-11.5.22s-11.51-.1-11.51-.22,5.15-.21,11.51-.21,11.5.09,11.5.21Z"/>
    <path class="st0" d="M132.03,138.23c0,.12-5.15.21-11.5.21s-11.51-.07-11.51-.21,5.15-.22,11.51-.22,11.5.1,11.5.22Z"/>
    <path class="st0" d="M132.19,140.25c0,.12-5.15.22-11.5.22s-11.5-.1-11.5-.22,5.15-.21,11.5-.21,11.5.09,11.5.21Z"/>
    <path class="st0" d="M132.36,142.28c0,.12-5.15.21-11.51.21s-11.5-.09-11.5-.21,5.15-.22,11.5-.22,11.51.1,11.51.22Z"/>
  </g>
  <g id="freepik--Clipboard--inject-78">
    <rect class="st0" x="255.37" y="41.62" width="228.6" height="324.47" rx="9.24" ry="9.24"/>
    <path class="st6" d="M474.74,366.09l.71-.05c.68-.06,1.35-.2,2-.4,2.66-.84,4.79-2.85,5.8-5.45.35-.9.55-1.84.6-2.8.05-1,0-2.08,0-3.2v-25.67c0-27.59,0-67.51-.07-116.83v-80.68c0-14.5,0-29.48,0-44.94,0-7.73,0-15.56,0-23.51v-12c-.12-4.1-3-7.61-7-8.52-.99-.2-1.99-.28-3-.23h-209.15c-2.32,0-4.55.89-6.23,2.49-1.67,1.59-2.67,3.77-2.78,6.08v306.87c.07,1.73.64,3.41,1.64,4.82,1.01,1.41,2.4,2.51,4,3.16.79.31,1.61.53,2.45.63.84.07,1.7.05,2.56.06h48.81l116.82.07,31.76.05h11.08-11.08l-31.76.05-116.82.07h-51.51c-.88-.11-1.73-.33-2.55-.66-3.39-1.39-5.66-4.63-5.81-8.29V50.39c.25-5.04,4.41-9,9.46-9h209.07c1.04-.04,2.07.04,3.09.24,4.19.95,7.2,4.61,7.33,8.9,0,4,0,8,0,12v23.54c0,15.44,0,30.42,0,44.94v80.68c0,49.32,0,89.24-.07,116.83v28.88c-.05.97-.26,1.92-.62,2.82-.59,1.5-1.56,2.82-2.81,3.84-.9.71-1.91,1.27-3,1.63-.68.2-1.37.32-2.07.38l-.85.02Z"/>
    <g class="st3">
      <polygon points="275.32 358.76 467.18 358.76 465.07 318.85 465.07 297.61 275.32 327.26 275.32 358.76"/>
    </g>
    <g class="st3">
      <polygon points="427.36 42.28 431.72 55.22 431.72 61.55 426.8 61.55 427.36 42.28"/>
    </g>
    <polygon class="st8" points="265.57 54.62 265.57 352.68 421.06 352.68 473.78 352.68 473.78 54.62 265.57 54.62"/>
    <path class="st6" d="M473.78,299.38v-17.72c0-11.56,0-28.47-.06-49.94,0-43,0-104.15-.08-177.1l.2.2h-208.21l.22-.22v.27c0,114.58,0,219.21-.06,297.79l-.16-.17,113.67.08h41.83-41.83l-113.67.07h-.17V54.2h208.62v.41c0,73-.06,134.14-.08,177.1,0,21.47,0,38.38-.05,49.94v16.58c0,.77-.17,1.15-.17,1.15Z"/>
    <path class="st6" d="M328.33,33.54h92.7c3.5,0,6.33,2.83,6.33,6.33v24.23h-105.35v-24.23c0-3.49,2.83-6.32,6.32-6.33Z"/>
    <polygon class="st6" points="388.09 22.05 361.28 22.05 364.41 45.03 384.61 45.03 388.09 22.05"/>
    <path class="st12" d="M420.59,33.54c0,.12-20.56.22-45.91.22s-45.9-.1-45.9-.22,20.55-.22,45.9-.22,45.91.1,45.91.22Z"/>
    <path class="st12" d="M324.37,59.17c-.13,0-.23-4.32-.23-9.66s.1-9.65.23-9.65.22,4.32.22,9.65-.11,9.66-.22,9.66Z"/>
    <path class="st12" d="M423.95,56.88c-.22-2.91-.3-5.84-.22-8.76-.08-2.93,0-5.85.22-8.77.12,0,.22,3.93.22,8.77s-.1,8.76-.22,8.76Z"/>
    <path class="st12" d="M418.87,60.95c0,.12-21.1.22-47.12.22s-47.13-.1-47.13-.22,21.09-.23,47.13-.23,47.12.1,47.12.23Z"/>
    <rect class="st0" x="332.43" y="111.82" width="114.99" height="7.07"/>
    <rect class="st0" x="332.43" y="126.26" width="52.17" height="7.02"/>
    <rect class="st5" x="294.15" y="108.81" width="26.59" height="26.59" rx="3.86" ry="3.86"/>
    <polygon class="st8" points="307.06 128.43 299.61 122.68 301.62 120.08 306.61 123.94 313.71 115.77 316.19 117.92 307.06 128.43"/>
    <rect class="st0" x="332.43" y="155.59" width="114.99" height="7.07"/>
    <rect class="st0" x="332.43" y="170.02" width="52.17" height="7.02"/>
    <rect class="st5" x="294.15" y="152.57" width="26.59" height="26.59" rx="3.86" ry="3.86"/>
    <polygon class="st8" points="307.06 172.19 299.61 166.44 301.62 163.84 306.61 167.7 313.71 159.53 316.19 161.68 307.06 172.19"/>
    <rect class="st0" x="332.43" y="202.48" width="114.99" height="7.07"/>
    <rect class="st0" x="332.43" y="216.91" width="52.17" height="7.02"/>
    <rect class="st0" x="332.43" y="245.82" width="114.99" height="7.07"/>
    <rect class="st0" x="332.43" y="260.26" width="52.17" height="7.02"/>
    <rect class="st5" x="294.15" y="199.46" width="26.59" height="26.59" rx="3.86" ry="3.86"/>
    <polygon class="st8" points="307.06 219.08 299.61 213.33 301.62 210.73 306.61 214.59 313.71 206.42 316.19 208.57 307.06 219.08"/>
    <path class="st5" d="M317.25,271.07h-19.62c-2.17,0-3.93-1.76-3.94-3.93v-19.62c0-2.17,1.77-3.93,3.94-3.93h19.62c2.17,0,3.93,1.76,3.93,3.93v19.62c0,2.17-1.76,3.93-3.93,3.93ZM297.63,244.49c-1.66,0-3,1.34-3,3h0v19.62c0,1.66,1.34,3,3,3h19.62c1.66,0,3-1.34,3-3h0v-19.59c0-1.66-1.34-3-3-3l-19.62-.03Z"/>
    <rect class="st0" x="332.43" y="295.41" width="114.99" height="7.07"/>
    <rect class="st0" x="332.43" y="309.85" width="52.17" height="7.02"/>
    <path class="st5" d="M317.25,320.66h-19.62c-2.16-.03-3.9-1.77-3.94-3.93v-19.62c.03-2.16,1.78-3.91,3.94-3.94h19.62c2.17,0,3.93,1.77,3.93,3.94v19.62c0,2.17-1.76,3.92-3.93,3.93ZM297.63,294.07c-1.66,0-3,1.34-3,3v19.62c0,1.66,1.34,3,3,3h19.62c1.66,0,3-1.34,3-3v-19.58c0-1.66-1.34-3-3-3l-19.62-.04Z"/>
    <rect class="st5" x="318.59" y="84.46" width="114.64" height="9.82"/>
  </g>
  <g id="freepik--Plant--inject-78">
    <path class="st6" d="M338.37,448.37s-3.45-23.73-3.16-37.53,0-29.34,0-29.34h1.59s-1.07,27.4.1,43.93,4.26,22.94,4.26,22.94h-2.77"/>
    <path class="st12" d="M348.65,354.81c-.25-.85-.75-1.59-1.45-2.13-1.09-.52-2.36-.52-3.45,0-4.81,1.7-9.07,10.66-11,15.37l6.37,21.56c11.51-10.72,13.51-24.73,9.53-34.8Z"/>
    <path class="st6" d="M346.83,353.55c-.01.1-.05.19-.09.28-.08.21-.19.47-.31.79-.28.67-.67,1.66-1.14,2.88-.94,2.44-2.14,5.85-3.21,9.7s-1.8,7.38-2.25,10c-.23,1.29-.4,2.33-.51,3.06-.05.33-.1.61-.13.83-.01.1-.04.2-.07.29,0-.1,0-.2,0-.3,0-.22,0-.5.09-.84.08-.73.22-1.78.43-3.07.54-3.37,1.26-6.71,2.18-10,.91-3.29,2.01-6.53,3.28-9.7.5-1.21.91-2.19,1.22-2.85.15-.31.27-.57.36-.77.04-.1.09-.2.15-.3Z"/>
    <path class="st12" d="M336.28,394.73c-5.89-3.37-9.6-9.57-9.8-16.35-.23-4.77,1.24-9.45,2.9-13.92.1-.4.34-.75.67-1,.55-.2,1.17-.1,1.63.26,4.35,2.47,7,7.19,8.38,12,1.01,3.18,1.35,6.54,1,9.86-.55,3.49-2.21,6.71-4.74,9.18"/>
    <path class="st6" d="M336.28,394.73v-1.12c0-.71,0-1.75-.09-3-.17-3.33-.54-6.64-1.11-9.93-.67-3.85-1.47-7.29-2.07-9.79-.29-1.21-.53-2.21-.7-2.95-.08-.32-.14-.59-.19-.8-.02-.1-.02-.19,0-.29,0,0,0,.1.09.28s.14.47.24.79c.19.69.46,1.69.79,2.93.63,2.48,1.47,5.93,2.14,9.79.56,3.31.9,6.65,1,10v3.83c-.02.09-.06.18-.1.26Z"/>
    <g class="st3">
      <path d="M336.28,394.73c-5.89-3.37-9.6-9.57-9.8-16.35-.23-4.77,1.24-9.45,2.9-13.92.1-.4.34-.75.67-1,.55-.2,1.17-.1,1.63.26,4.35,2.47,7,7.19,8.38,12,1.01,3.18,1.35,6.54,1,9.86-.55,3.49-2.21,6.71-4.74,9.18"/>
    </g>
    <path class="st12" d="M343.03,431.03c5.89,1.29,10.73,5.44,16.41,7.46,3.75,1.34,8,1.81,11,4.44-.72-1.82-2.42-3-4.08-4.07-4.68-2.91-9.66-5.3-14.87-7.1-2.67-.92-5.57-1.69-8.29-.93"/>
    <path class="st12" d="M334.48,436.27c-7.37-.12-15.13-6.39-22.46-6.77,7.67-2.47,18.67-.45,22.46,6.77"/>
    <path class="st12" d="M337.4,418.61c3.8-1.24,7.85-1.52,11.78-.8,3.92.72,7.77,1.77,11.51,3.13-.38-2.56-2.45-4.48-4.4-6.18-1.42-1.33-2.97-2.52-4.62-3.55-1.66-1.04-3.58-1.59-5.54-1.57-2.37.16-4.57,1.27-6.11,3.08-1.49,1.63-2.41,3.7-2.62,5.89"/>
    <path class="st12" d="M322.28,410.46c-4.64-4-11.67-3.58-17.77-3.44,9.8,4.67,19.04,10.43,27.55,17.17.25-4.31-3.92-8.73-9.78-13.73Z"/>
    <g class="st3">
      <path d="M322.28,410.46c-4.64-4-11.67-3.58-17.77-3.44,9.8,4.67,19.04,10.43,27.55,17.17.25-4.31-3.92-8.73-9.78-13.73Z"/>
    </g>
    <path class="st12" d="M339.48,404.99c2.26-1.57,4.65-2.96,7.13-4.15,2.44-1.11,4.72-2.88,7.08-4.15,3.06-1.66,5.71-4,8.52-6s5.89-3.91,9.32-4.45c-2.83-.51-5.74-.34-8.49.49-2.75.82-5.42,1.86-8,3.11-3.62,1.63-7.3,3.3-10.26,5.94s-5.63,5.26-5.32,9.22"/>
    <path class="st6" d="M359.3,436.27l-.23-.1-.64-.33c-.56-.3-1.35-.74-2.36-1.24-.49-.26-1-.54-1.64-.82s-1.24-.58-1.92-.87c-1.46-.66-2.98-1.18-4.53-1.58-1.54-.43-3.17-.47-4.73-.12-.68.14-1.35.34-2,.59-.56.23-1.1.51-1.62.83-.74.47-1.41,1.04-2,1.68-.43.46-.64.74-.66.73.04-.08.08-.15.13-.22.1-.14.25-.33.45-.57.58-.68,1.25-1.28,2-1.77.52-.34,1.06-.64,1.63-.88.65-.26,1.32-.47,2-.63,1.6-.37,3.27-.34,4.85.1,1.57.4,3.1.94,4.57,1.62.68.3,1.32.6,1.91.9s1.15.57,1.64.85c1,.52,1.78,1,2.32,1.31l.62.38c.15.08.22.13.21.14Z"/>
    <path class="st6" d="M329.03,432.61c.16.02.31.06.46.13.41.15.81.33,1.2.53,1.29.65,2.47,1.49,3.52,2.49,1.04,1,1.93,2.15,2.63,3.42.22.38.41.77.57,1.18.07.15.13.3.16.46,0,0-.32-.61-.89-1.54-.74-1.22-1.63-2.34-2.65-3.33-1.03-.98-2.19-1.83-3.43-2.52-.96-.52-1.59-.77-1.57-.82Z"/>
    <path class="st6" d="M312.72,410.09c.11.02.21.05.31.09l.89.31,1.39.52c.55.2,1.14.5,1.8.79,3.46,1.6,6.69,3.65,9.6,6.11,1.58,1.37,3.08,2.84,4.47,4.41,1.27,1.46,2.34,2.83,3.18,4s1.48,2.19,1.92,2.88l.5.79c.06.09.12.18.16.28-.08-.08-.14-.16-.2-.25-.13-.18-.32-.43-.55-.77-.46-.67-1.12-1.64-2-2.82s-1.94-2.53-3.21-4c-1.39-1.55-2.88-3.01-4.46-4.36-2.89-2.45-6.09-4.51-9.51-6.15-.66-.3-1.24-.61-1.77-.83l-1.36-.48-.86-.36-.3-.16Z"/>
    <path class="st6" d="M348.48,414.45c-.2,0-.4-.03-.59-.08l-.67-.12c-.27-.05-.58-.05-.91-.09-1.75-.15-3.5.2-5.06,1-.85.45-1.63,1.02-2.31,1.71-.56.55-1.06,1.17-1.48,1.83-.38.62-.72,1.27-1,1.94.01-.2.07-.4.15-.58.18-.51.42-.99.7-1.45.41-.69.9-1.33,1.47-1.91,1.95-2.04,4.75-3.05,7.56-2.72.34,0,.65.06.91.12l.68.17c.19.04.37.1.55.18Z"/>
    <path class="st6" d="M355.87,391.47l-.28.17-.82.45c-.72.39-1.75.95-3,1.69s-2.71,1.66-4.27,2.78c-1.7,1.19-3.29,2.53-4.76,4-.76.75-1.42,1.6-1.95,2.53-.49.92-.95,1.82-1.37,2.68-.76,1.52-1.45,3.07-2.05,4.66-.4,1.07-.73,2.17-1,3.28-.18.79-.25,1.24-.28,1.23-.01-.11-.01-.21,0-.32,0-.22.07-.53.15-.93.23-1.13.54-2.24.93-3.32.58-1.61,1.24-3.18,2-4.71.42-.86.88-1.76,1.36-2.69.54-.95,1.22-1.82,2-2.59,1.48-1.48,3.09-2.82,4.81-4,1.58-1.11,3.06-2,4.32-2.74s2.31-1.26,3-1.62l.84-.4c.12-.07.24-.12.37-.15Z"/>
    <path class="st6" d="M335.2,413.79c-.07-.2-.12-.42-.14-.63-.09-.45-.2-1-.33-1.7-.36-1.87-.82-3.72-1.39-5.53-.6-1.81-1.3-3.58-2.11-5.3l-.71-1.58c-.1-.19-.18-.38-.24-.59.13.17.24.36.33.55.19.36.47.88.79,1.54.86,1.71,1.6,3.48,2.19,5.3.58,1.82,1.02,3.69,1.33,5.58.11.72.19,1.31.24,1.72.04.21.05.43.04.64Z"/>
    <path class="st12" d="M334.67,397.02c-.23-2.81-1.05-5.53-2.4-8-3.69-6.82-10.2-11.66-17.79-13.23l16.48,24.56,2.13,4.39c1.33-2.34,1.89-5.04,1.58-7.72Z"/>
    <rect class="st5" x="319.99" y="445.43" width="38.32" height="6.79"/>
    <polygon class="st5" points="322.85 450.88 326.11 471.95 351.55 471.95 355.45 450.88 322.85 450.88"/>
    <path class="st6" d="M358.29,452.23c0,.08-8.65.14-19.31.14s-19.3-.06-19.3-.14,8.64-.13,19.3-.13,19.31.06,19.31.13Z"/>
  </g>
  <g id="freepik--speech-bubble-2--inject-78">
    <path class="st8" d="M500.05,209.2l-2-4.83c1.24-3.9,1.24-8.1,0-12-3.31-10.49-14.5-16.31-24.99-13-10.49,3.31-16.31,14.5-13,24.99,3.05,9.65,12.85,15.49,22.78,13.56,4.68-.9,8.87-3.45,11.82-7.19h0l5.39-1.53Z"/>
    <path class="st6" d="M500.05,209.2l-.33.11-1,.3-4,1.17s-.1,0-.12-.05c0,0,0,0,0,0,0-.02,0-.05,0-.07h0l.17.1c-2,2.59-4.61,4.65-7.6,6-1.96.85-4.04,1.4-6.17,1.63-2.43.23-4.88.02-7.24-.62-2.6-.73-5.03-1.96-7.15-3.63-2.31-1.79-4.2-4.08-5.51-6.69-1.4-2.8-2.14-5.87-2.17-9-.03-3.27.76-6.5,2.28-9.4,1.51-2.94,3.74-5.46,6.48-7.31,2.61-1.77,5.58-2.91,8.7-3.35,2.93-.39,5.91-.12,8.72.79,2.59.83,4.99,2.16,7.06,3.93,1.87,1.6,3.42,3.52,4.59,5.68l.73,1.53c.23.51.39,1,.58,1.53.35.97.6,1.98.77,3,.56,3.2.33,6.5-.69,9.59v-.06c.63,1.55,1.13,2.77,1.47,3.62.16.39.28.7.37.93.05.1.08.2.11.31,0,0-.06-.12-.16-.33l-.41-.93c-.36-.83-.88-2-1.55-3.53-.01-.02-.01-.04,0-.06.96-3.07,1.16-6.33.58-9.49-.18-1-.44-1.98-.79-2.94-.19-.49-.35-1-.58-1.5s-.48-1-.73-1.5c-1.16-2.11-2.69-4-4.53-5.56-2.04-1.71-4.4-3.01-6.94-3.81-2.75-.89-5.67-1.15-8.53-.75-3.05.43-5.96,1.55-8.5,3.28-5.37,3.7-8.57,9.81-8.55,16.33.02,3.04.74,6.04,2.1,8.76,1.28,2.56,3.12,4.81,5.38,6.57,2.08,1.64,4.45,2.86,7,3.58,2.3.65,4.71.87,7.09.65,2.1-.2,4.15-.73,6.08-1.56,2.94-1.31,5.52-3.31,7.52-5.83.03-.04.09-.04.13,0,0,0,0,0,0,0,.02.03.02.08,0,.11h0l-.11-.13,4-1.05,1.06-.27c.13-.04.26-.06.39-.07Z"/>
    <circle class="st6" cx="472.23" cy="198.84" r="2.18"/>
    <path class="st6" d="M481.75,198.84c0,1.2-.98,2.18-2.18,2.18s-2.18-.98-2.18-2.18c0-1.2.98-2.18,2.18-2.18h0c1.2,0,2.18.98,2.18,2.18Z"/>
    <circle class="st6" cx="486.71" cy="198.84" r="2.18"/>
  </g>
  <g id="freepik--speech-bubble-1--inject-78">
    <path class="st8" d="M235.39,168.1l1-5.57c-5.16-9.07-1.99-20.6,7.08-25.76,9.07-5.16,20.6-1.99,25.76,7.08,5.16,9.07,1.99,20.6-7.08,25.76-6.83,3.88-15.35,3.14-21.4-1.88h0l-5.36.37Z"/>
    <path class="st6" d="M235.39,168.1h1.33l4-.22s.07-.05.07-.09h0l-.12.11c3.15,2.66,7.08,4.2,11.2,4.4h1.55c.27.02.53.02.8,0l.81-.09c10.43-1.19,17.92-10.6,16.73-21.03-.08-.66-.19-1.32-.33-1.97-.33-1.5-.84-2.96-1.51-4.35-.71-1.4-1.58-2.72-2.6-3.91-1.01-1.25-2.16-2.37-3.44-3.34-1.24-.88-2.58-1.61-4-2.17-2.73-1.11-5.69-1.56-8.63-1.31-10.11.83-17.8,9.42-17.5,19.56.09,3.12.96,6.17,2.53,8.87v-.05c-.29,1.81-.51,3.2-.67,4.17l-.16,1.06c0,.12,0,.23,0,.35,0,0,0-.13.08-.38s.11-.61.2-1.07c.17-.95.42-2.33.75-4.1,0-.02,0-.04,0-.06-5.11-9.05-1.92-20.52,7.13-25.63,2.38-1.34,5.01-2.15,7.73-2.37,2.88-.24,5.78.21,8.46,1.3,2.82,1.11,5.32,2.91,7.27,5.23,1,1.17,1.86,2.45,2.55,3.82.66,1.36,1.16,2.79,1.48,4.26.64,2.85.6,5.8-.1,8.63-1.91,7.52-8.25,13.08-15.95,14l-.8.09h-2.32c-.97-.04-1.93-.15-2.88-.35-3.02-.61-5.84-1.95-8.23-3.9-.02-.03-.07-.04-.1-.01,0,0,0,0-.01.01-.02.03-.02.07,0,.1h0v-.12l-3.92.31-1,.09-.4.16Z"/>
    <polygon class="st5" points="244.6 154.47 246.68 152.38 250.71 155.96 258.61 148.36 260.55 150.44 250.41 159.99 244.6 154.47"/>
  </g>
  <g id="freepik--character-2--inject-78">
    <path class="st12" d="M579.9,372.53c0-.24,0-.47.05-.71.21-4.49-1.62-8.81-3.38-13-4.72-11.12-9.28-22.92-8-34.92,1.76-15.87,13.43-29,17.59-44.34.5-1.8,2.13-3.05,4-3.05h0c2.3-.02,4.17,1.83,4.19,4.13,0,.43-.06.86-.19,1.27-4.64,14.35-15.23,26.94-16.89,42-1.33,12,3.24,23.8,7.95,34.92,1.76,4.15,3.59,8.47,3.39,13s-3.1,9.23-7.55,10h-66.25c-2.3.01-4.18-1.85-4.19-4.15,0,0,0-.01,0-.02v-.9c0-2.31,1.88-4.18,4.19-4.17h0l65.09-.06Z"/>
    <path class="st0" d="M593.23,471.95h-96.24c-1.37-.01-2.65-.69-3.43-1.81-.96-1.35-1.22-3.08-.7-4.65l27.4-83.95,1.42.47-27.39,84c-.37,1.12-.19,2.34.49,3.3.5.73,1.33,1.17,2.21,1.19h96.24c.87,0,1.68-.43,2.18-1.14.68-.92.89-2.1.57-3.2l-23.5-84.18,1.45-.41,23.55,84.13c.44,1.55.14,3.23-.83,4.52-.8,1.09-2.07,1.73-3.42,1.73Z"/>
    <path class="st7" d="M458.25,319.61s3.51-8.52,7-10.32c2.52-1.25,5.16-2.25,7.87-3h15.36l.15,10c-1.42,1.33-3.34,1.99-5.28,1.81-3-.42-10.67-2.3-10.67-2.3l-3.76.2-3.44,4.44s-2.82.85-1.82-1.81l1.43-3.83s-3.33,5.17-4.61,5.41c-.79.12-1.61-.09-2.23-.6Z"/>
    <path class="st1" d="M521.96,287.46l-12.27,17.64-21.21,1.2-.29,9.68,16,3.15c8.29,1.63,16.86-.91,22.92-6.81h0l2.37-21.34-7.52-3.52Z"/>
    <path class="st6" d="M512.48,433.78l14.25,13.95s-10.32,19.88-7.95,22.71l29.76-28-21.27-22.68-14.79,14.02Z"/>
    <path class="st0" d="M534.75,437.85c.72-.4,1.63-.17,2.08.52.37.75.1,1.65-.61,2.08-.77.42-1.73.18-2.2-.56-.3-.83.08-1.74.88-2.11"/>
    <path class="st12" d="M548.54,442.44l-2.24-2.2-27.7,27.67s-.81,1.79.18,2.53l29.76-28Z"/>
    <path class="st8" d="M526.09,448.04c.13.13.92-.49,2.05-.72s2.06,0,2.14-.2-.88-.77-2.25-.46-2.09,1.28-1.94,1.38Z"/>
    <path class="st8" d="M524.12,452.19c.09.17.94-.19,2-.08s1.77.6,1.91.45-.5-1-1.8-1.12-2.23.62-2.11.75Z"/>
    <path class="st8" d="M525.69,457.38c.16-.09-.29-1-1.38-1.37s-2,0-2,.12.85.18,1.74.52,1.48.86,1.64.73Z"/>
    <path class="st8" d="M523.21,444.48c.18.07.67-.75,1.54-1.47s1.74-1.08,1.71-1.27-1.12-.09-2.13.77-1.29,1.93-1.12,1.97Z"/>
    <path class="st6" d="M514.12,334.41c-2.61,0-66.11,18.5-73,24.75s-12,83.64-12,83.64l26.63,9.13s5.61-37.79,9-50c1.65-6.11,2.35-12.44,2.09-18.76l52.72-23-5.44-25.76Z"/>
    <path class="st6" d="M515.72,338.5c-1.18.52-47.32,20.22-51.66,33.42-3.53,10.76.57,20.23,5.51,27.63,5.57,8.35,46.44,45.65,46.44,45.65l23.07-16.5-39.55-40.84s20.75-12.8,21.46-12.8,22.28-1.43,29.12-2.2c6.39-.73,9.88-9.88,9.88-9.88l5.69-26.25-42.79-9.88-7.17,11.65Z"/>
    <path class="st12" d="M515.72,338.5l.45-.77,1.36-2.24,5.3-8.68h.05l42.8,9.81h.14v.14c-1.71,7.89-3.62,16.75-5.67,26.25h0c-.97,2.41-2.35,4.65-4.07,6.6-.89,1-1.95,1.84-3.13,2.49-.29.18-.6.32-.93.43-.32.14-.66.24-1,.31-.33.07-.67.15-1,.19l-1,.11c-5.4.54-11,.93-16.74,1.35l-8.74.6-2.22.13h-.37l-.11.05-.49.24-1,.54c-1.3.74-2.6,1.51-3.9,2.28-5.19,3.11-10.47,6.35-15.85,9.66v-.3c9.88,10.21,20.3,20.92,30.95,31.92l8.67,8.95.16.16-.19.13c-7.86,5.63-15.55,11.12-23.07,16.49l-.12.09-.12-.1c-8.27-7.56-16.17-14.95-23.72-22.17-3.76-3.6-7.42-7.15-10.94-10.67s-6.94-7-10-10.58c-.4-.43-.73-.93-1.1-1.39s-.72-.94-1-1.44c-.63-1-1.24-2-1.8-3-1.12-1.97-2.08-4.04-2.87-6.17-.76-2.07-1.29-4.22-1.59-6.4-.25-2.11-.25-4.25,0-6.36.21-2.06.69-4.07,1.44-6,.85-1.79,2-3.42,3.4-4.82,2.61-2.6,5.45-4.95,8.51-7,5.19-3.53,10.59-6.76,16.15-9.67,4.86-2.6,9.11-4.68,12.59-6.33s6.2-2.87,8-3.68l2.1-.91.72-.29s-.23.12-.7.33l-2.09.93c-1.83.83-4.54,2.07-8,3.74s-7.71,3.77-12.56,6.38c-5.54,2.93-10.92,6.17-16.1,9.7-3.04,2.05-5.87,4.4-8.45,7-1.38,1.37-2.51,2.98-3.34,4.74-.72,1.89-1.2,3.87-1.41,5.89-.23,2.09-.22,4.2.05,6.29.3,2.16.83,4.28,1.59,6.33.78,2.12,1.73,4.16,2.85,6.12.56,1,1.16,2,1.8,3,.3.49.64.97,1,1.42.36.46.68.94,1.09,1.38,3.06,3.58,6.49,7,10,10.55s7.18,7.05,10.95,10.65c7.53,7.19,15.44,14.58,23.72,22.16h-.24l23.07-16.49v.29l-8.67-9-30.87-31.89-.17-.17.2-.13c5.38-3.33,10.67-6.55,15.86-9.65,1.31-.77,2.6-1.54,3.91-2.28l1-.54c.17-.09.33-.18.51-.26l.15-.06h.46l2.22-.13,8.74-.59c5.74-.42,11.33-.81,16.72-1.34,1.33-.05,2.63-.39,3.81-1,1.13-.63,2.14-1.45,3-2.42,1.69-1.91,3.04-4.1,4-6.47h0l5.72-26.24.1.16-42.78-9.94h.08l-5.37,8.66-1.38,2.21c-.35.48-.52.72-.52.72Z"/>
    <path class="st6" d="M519.92,212.28c-2.35.46-4.62-1.07-5.08-3.42-.39-2,.66-3.99,2.52-4.8-1.88-1.62-2.1-4.46-.48-6.35.93-1.08,2.31-1.65,3.73-1.55-.14-2.97,2.16-5.5,5.14-5.63.89-.04,1.77.14,2.57.52,2-1.93,5.06-2.26,7.42-.79,2.29-.64,4.66.69,5.31,2.97.39,1.39.06,2.88-.89,3.98"/>
    <path class="st1" d="M537.04,194.43l-.95.08c-9.53.84-16.81,8.86-16.74,18.43.07,8.9.26,18.73.73,23.47,1,9.8,10.94,10.46,10.94,10.46l.22,11.86,23.75-2.84-1.67-42.95c-.02-10.27-6.02-18.82-16.28-18.51Z"/>
    <path class="st7" d="M531.01,246.87c4.54-.41,8.87-2.12,12.47-4.91,0,0-2.53,7.51-12.4,7.49l-.07-2.58Z"/>
    <path class="st6" d="M522.89,222.04c.06.76.72,1.34,1.48,1.3.75-.01,1.34-.62,1.33-1.37,0,0,0-.01,0-.02-.06-.76-.72-1.34-1.48-1.3-.75.01-1.34.62-1.33,1.37,0,0,0,.01,0,.02Z"/>
    <path class="st6" d="M521.88,217.61c.19.16,1.18-.72,2.69-.84s2.68.52,2.83.32-.13-.4-.64-.71c-.7-.39-1.49-.56-2.29-.49-.78.07-1.53.38-2.12.9-.43.35-.56.69-.47.82Z"/>
    <path class="st6" d="M536.48,221.26c.06.76.72,1.33,1.48,1.3.75-.01,1.34-.62,1.33-1.37,0,0,0-.01,0-.02-.05-.76-.71-1.34-1.47-1.3-.75,0-1.35.61-1.34,1.36,0,.01,0,.02,0,.03Z"/>
    <path class="st6" d="M536.73,216.53c.19.17,1.19-.71,2.69-.84s2.68.52,2.83.32-.13-.4-.64-.71c-.7-.39-1.49-.56-2.29-.49-.78.07-1.53.38-2.12.9-.43.4-.56.74-.47.82Z"/>
    <path class="st6" d="M532.25,228.2c-.82-.18-1.65-.26-2.49-.23-.39,0-.76-.05-.85-.31-.06-.39,0-.8.16-1.16l.88-3c1.21-4.32,2-7.85,1.88-7.9s-1.3,3.41-2.51,7.73c-.29,1.06-.57,2.07-.83,3-.2.49-.23,1.03-.07,1.53.14.26.39.45.68.51.22.03.44.03.66,0,.83.04,1.67-.01,2.49-.17Z"/>
    <path class="st6" d="M534.91,210.84c.23.37,1.49-.16,3.08-.36s2.95,0,3.06-.45c0-.2-.27-.52-.87-.77-.77-.31-1.61-.41-2.43-.29-.82.1-1.59.41-2.24.91-.5.4-.7.79-.6.96Z"/>
    <path class="st6" d="M521.26,211.34c.35.32,1.56-.15,3.06-.3s2.78,0,3-.39c.11-.19-.12-.52-.7-.79-.8-.34-1.68-.46-2.54-.34-.86.09-1.68.4-2.38.9-.45.4-.6.77-.44.92Z"/>
    <path class="st6" d="M519.89,208.36s2-6.38,4.89-8.07c3.43-2.06,5.32,1.74,8.66.49s6.61-3.23,10.34-.9c4.08,2.56,2.47,4.75,3.09,9.08,2.52,17.57,6.18,22.28,6.37,13.88,0-.92,2.48-1.87,2.51-5.75.05-5-.3-11.11-1.72-14.56-1.21-2.9-3.09-4.81-6.34-6.82-5.14-3.16-11.77-2.65-16.22-1.8s-12.67,6.79-11.58,14.45Z"/>
    <path class="st1" d="M552.59,222.61c-.09-1.47,1.03-2.73,2.5-2.82.05,0,.1,0,.15,0,1.84,0,4,.87,4.18,4.66.38,6.73-6.45,5.72-6.47,5.53s-.23-4.53-.36-7.37Z"/>
    <path class="st7" d="M554.27,227.39s.12.07.32.15c.28.11.6.11.88,0,.85-.61,1.31-1.64,1.2-2.68-.02-.58-.16-1.15-.43-1.66-.15-.42-.5-.73-.93-.85-.28-.05-.56.1-.67.36-.08.2,0,.33-.07.34s-.15-.1-.11-.38c.03-.17.11-.33.24-.44.18-.15.41-.22.64-.21.57.09,1.06.47,1.28,1,.32.56.5,1.2.52,1.85.15,1.22-.47,2.41-1.55,3-.36.13-.76.08-1.08-.12-.22-.2-.26-.35-.24-.36Z"/>
    <path class="st6" d="M551.31,209.61c-.77.74-1.7,1.28-2.73,1.56-1.06.26-2.16-.3-2.56-1.32-.13-.46-.06-1-.4-1.35s-1.07-.2-1.62-.09c-1.94.38-4.41-1.57-5.07-3.43-.47.8-1.47,1.1-2.3.69-.65-.33-1.24-.76-1.74-1.29-.59-.71-1.49-1.08-2.41-1-.46.2-.94.35-1.43.45-.89,0-1.41-1-1.62-1.86s-.4-1.87-1.19-2.28c-.8-.23-1.65-.18-2.41.15-.8.19-1.86.09-2.14-.69-.1-.42-.03-.87.19-1.24.98-1.77,3.05-2.64,5-2.1.64-3.2,3.76-5.27,6.96-4.63,1.54.31,2.89,1.22,3.76,2.53,2.25-2.43,6.04-2.58,8.48-.34.52.48.95,1.05,1.27,1.68,2.26-.81,4.75.36,5.56,2.63.38,1.06.33,2.22-.12,3.24,1.33.51,2.29,1.68,2.55,3.08.15,1.38-1.08,2.89-2.45,2.64.69,1.14.34,2.62-.8,3.31-1.04.63-2.38.4-3.14-.55"/>
    <path class="st12" d="M528.54,197.91s0,.08,0,.12c.02.12.04.24.07.36.13.44.34.87.6,1.25.42.6.98,1.1,1.63,1.45.85.49,1.85.68,2.82.54l-.13-.13c-.15.63-.04,1.29.3,1.84.35.57.79,1.09,1.29,1.54.25.26.52.5.82.71.34.18.72.29,1.1.3.82.04,1.61-.34,2.09-1l-.25-.05c.3,1.4,1.19,2.6,2.44,3.3.68.41,1.48.6,2.27.53.74-.1,1.46-.33,2.12-.67l-.18-.07c.41.78,1.02,1.45,1.77,1.93.69.5,1.57.66,2.39.43,1.41-.43,2.43-1.67,2.59-3.14l-.14.08c.74.32,1.56.36,2.33.14.58-.16,1.11-.45,1.55-.86.28-.25.51-.56.68-.89.05-.12.1-.24.14-.36-.23.44-.53.84-.9,1.17-.44.37-.95.64-1.51.78-.73.2-1.51.14-2.21-.16l-.13-.06v.14c-.17,1.37-1.13,2.52-2.46,2.92-.75.2-1.55.04-2.17-.42-.7-.46-1.28-1.09-1.67-1.83l-.06-.12-.13.06c-.63.32-1.3.54-2,.64-.74.06-1.47-.11-2.1-.5-1.17-.66-2.01-1.79-2.31-3.1l-.07-.31-.18.26c-.44.57-1.13.89-1.85.85-.35,0-.7-.09-1-.26-.28-.19-.54-.41-.77-.66-.5-.43-.92-.93-1.27-1.48-.31-.49-.42-1.09-.29-1.66v-.16h-.17c-.92.13-1.87-.03-2.69-.47-.63-.34-1.19-.81-1.62-1.38-.33-.49-.58-1.03-.74-1.6Z"/>
    <path class="st6" d="M532.38,233.03c0-.26,1.69-.06,3.06-1.35s1.4-3.11,1.63-3.09.28.43.21,1.19c-.1.99-.55,1.91-1.27,2.6-.69.65-1.6,1-2.55,1-.71,0-1.11-.24-1.08-.35Z"/>
    <path class="st6" d="M435.18,432.84l-3.1,21.53s-24.13,3.73-25.11,7.64l43.82,8.18,6.28-33.32-21.89-4.03Z"/>
    <path class="st0" d="M445.95,455.1c.81.38,1.2,1.33.89,2.17-.43.8-1.39,1.15-2.23.8-.86-.41-1.27-1.41-.93-2.3.54-.79,1.59-1.05,2.43-.59"/>
    <path class="st12" d="M450.79,470.19l.49-3.38-42.19-6.58s-2.1.44-2.12,1.78l43.82,8.18Z"/>
    <path class="st8" d="M431.4,454.03c0,.2,1,.49,2,1.34s1.34,1.8,1.55,1.76.11-1.27-1-2.28-2.56-1.02-2.55-.82Z"/>
    <path class="st8" d="M426.48,454.97c-.09.18.78.7,1.35,1.7s.61,1.93.83,2,.56-1.08-.18-2.31-2-1.58-2-1.39Z"/>
    <path class="st8" d="M422.92,459.69c.18.08.67-.88.32-2.09s-1.27-1.84-1.39-1.69.39.86.66,1.86.2,1.84.41,1.92Z"/>
    <path class="st8" d="M432.68,449.21c.06.2,1.09.1,2.29.41s2.07.84,2.21.68-.63-1-2-1.38-2.57.11-2.5.29Z"/>
    <path class="st5" d="M530.16,260.26l.9-4.07,23.93-11.89,2.09,3.31s8.95,7.29,12.38,13.61-.63,58.12-1.21,65.68c-1.15,15.23-6.84,35.17-6.84,35.17,0,0-7.68-5.35-30.27-14.62s-23.8-13.48-23.8-13.48l13.31-16.88,9.51-56.83Z"/>
    <path class="st5" d="M530.48,261.69c-.13.75-11,26.72-11,26.72,0,0,5.62,3.14,6.41,3.29s4.59-30.01,4.59-30.01Z"/>
    <path class="st6" d="M529.48,265.95c.11,0-.85,6.61-2.14,14.74s-2.42,14.69-2.53,14.68.85-6.62,2.14-14.75,2.38-14.69,2.53-14.67Z"/>
    <path class="st1" d="M453.48,317.91s6.45-9.51,10.29-11.18c2.8-1.13,5.69-2,8.65-2.58l16.21,2.17-.29,9.68c-1.62,1.32-3.73,1.88-5.79,1.54-3.23-.68-11.24-3.26-11.24-3.26l-4.05-.06-4,4.5s-3.07.7-1.81-2.07,1.82-4,1.82-4c0,0-4,5.29-5.34,5.45-1.49.05-2.97,0-4.45-.19Z"/>
    <path class="st1" d="M538.22,279.81l-11.24,26.12-38.47.37-.29,9.68s37.1,13.08,47,10.54,26.26-37.47,26.26-37.47l-23.26-9.24Z"/>
    <path class="st5" d="M547.32,257.78c-1,.95-4.53,5-8.24,13.91s-8.92,19.26-8.92,19.26l26.53,10.57s6-13.91,8.85-20.1c2.14-4.71,3.63-14,1.69-18.47s-10.68-13.55-19.91-5.17Z"/>
    <path class="st6" d="M547.32,257.78c.08-.08.16-.16.24-.23.17-.15.41-.38.75-.65.99-.8,2.09-1.45,3.27-1.93,1.89-.75,3.97-.91,5.95-.44,2.6.68,4.96,2.09,6.8,4.06,1.09,1.11,2.03,2.37,2.77,3.74.72,1.54,1.11,3.21,1.15,4.91.13,3.72-.34,7.43-1.38,11-.59,1.92-1.32,3.79-2.19,5.6-.8,1.85-1.64,3.77-2.52,5.77-1.71,3.89-3.47,7.89-5.29,12l-.08.17-.18-.07-.38-.15-26.13-10.45-.18-.07.08-.17c2.48-5,4.68-9.59,6.55-13.74s3.33-7.87,4.89-10.79c1.16-2.29,2.51-4.47,4.04-6.53.41-.54.85-1.06,1.31-1.55.16-.17.34-.33.52-.48l-.12.13-.35.39c-.31.34-.74.87-1.27,1.58-1.51,2.07-2.85,4.27-4,6.56-1.53,2.91-2.93,6.65-4.81,10.81s-4,8.8-6.5,13.78l-.09-.25,26.14,10.4.39.16-.25.1c1.81-4.12,3.59-8.15,5.3-12,.86-1.95,1.7-3.86,2.53-5.72.86-1.79,1.6-3.65,2.19-5.55,1.04-3.53,1.51-7.2,1.4-10.88-.03-1.66-.41-3.29-1.1-4.79-.72-1.35-1.63-2.59-2.7-3.69-1.8-1.93-4.1-3.32-6.65-4-1.94-.47-3.98-.34-5.85.37-1.17.47-2.27,1.09-3.27,1.85-.35.26-.6.48-.77.62l-.21.13Z"/>
    <path class="st7" d="M470.48,309.04c-1.41.09-2.8.43-4.1,1-1.24.69-2.35,1.61-3.27,2.69.13-.42.36-.8.66-1.11.67-.8,1.5-1.46,2.43-1.93.93-.47,1.95-.75,3-.81.43-.04.87.01,1.28.16Z"/>
    <path class="st7" d="M532.95,292.06c-.02.09-.05.18-.09.27l-.29.76c-.29.7-.69,1.66-1.18,2.86-1.05,2.48-2.51,6-4.25,10.05v.1h-.12l-11.68.13-18.95.13h-7.3c-.18.02-.36.02-.54,0h2.1l5.74-.12,18.94-.24,11.69-.1-.16.11,4.38-10,1.26-2.81c.15-.3.26-.55.35-.75s.09-.4.1-.39Z"/>
  </g>
  <g id="freepik--Table--inject-78">
    <rect class="st12" x="185.11" y="326.85" width="7.41" height="144.91"/>
    <rect class="st12" x="489.11" y="327.87" width="7.41" height="143.91"/>
    <rect class="st12" x="166.61" y="325.42" width="337.24" height="8.74"/>
    <path class="st6" d="M500.6,334.17c0,.11-39.35.19-87.89.19s-87.89-.08-87.89-.19,39.34-.2,87.89-.2,87.89.09,87.89.2Z"/>
  </g>
  <g id="freepik--Device--inject-78">
    <path class="st6" d="M403.53,274.27h0c.89-.18,1.75.39,1.94,1.27,0,.02,0,.04.01.07l9.13,48.36h44.37c.66,0,1.2.54,1.2,1.2h0c0,.66-.54,1.2-1.2,1.2h-47.1v-.19h-.22l-9.43-50c-.17-.88.41-1.74,1.29-1.91,0,0,0,0,0,0Z"/>
  </g>
  <g id="freepik--character-1--inject-78">
    <path class="st6" d="M181.12,161.43c3.96-6.14,10.5-10.16,17.77-10.91,4.21-.45,6,.27,9.15.82,3.09.47,5.92,2.01,8,4.35,2.56,2.77,4.37,6.15,5.28,9.81.71,3.52.83,7.13.35,10.69-.8,4.58-2.35,9-4.59,13.08l-6.36,1.34c-5.37.67-10.81,1.33-16.16.57s-10.71-3.13-13.93-7.48c-4.47-6.02-3.73-16.09.49-22.27Z"/>
    <path class="st10" d="M189.79,160.61l12.54-6.32,3.43.09c7.64-.66,13.66,7.3,14.26,13.48.67,6.87,1.22,15.28.58,20.45-1.29,10.38-9.91,12-9.91,12,0,0,1.44,12.1,1.79,15.51l-20.81-6.36-5-45.07c-.1-1.88,1.26-3.52,3.12-3.78Z"/>
    <path class="st13" d="M205.1,187.27c.03-.53.25-1.03.63-1.41.7-.72,1.8-.88,2.68-.39.91.58,1.43,1.61,1.37,2.69h0c-.4.67-1.06,1.14-1.83,1.29h-.36c-.61.05-1.21-.13-1.69-.5-.51-.41-.8-1.03-.8-1.68Z"/>
    <path class="st6" d="M218.03,177.12c.03.72-.51,1.33-1.23,1.38-.7.08-1.33-.42-1.41-1.12,0-.01,0-.02,0-.03-.02-.71.52-1.32,1.23-1.38.7-.08,1.33.42,1.41,1.12,0,.01,0,.02,0,.03Z"/>
    <path class="st6" d="M218,171.49c-.16.17-1.19-.53-2.61-.48s-2.45.8-2.61.63.08-.39.52-.74c.61-.44,1.33-.69,2.08-.72.74-.02,1.47.19,2.09.6.45.32.61.63.53.71Z"/>
    <path class="st6" d="M209.88,183.42c.74-.26,1.52-.42,2.3-.49.36,0,.7-.14.76-.39.01-.38-.08-.75-.28-1.07-.38-.87-.77-1.78-1.17-2.73-1.63-3.9-2.83-7.11-2.67-7.17s1.61,3,3.24,6.94l1.12,2.75c.24.43.33.93.24,1.42-.1.26-.31.47-.58.55-.2.06-.41.1-.62.11-.77.13-1.56.16-2.34.08Z"/>
    <path class="st13" d="M210.7,200.28c-4.87.25-9.72-.86-14-3.21,0,0,3.92,7,14.23,5.71l-.23-2.5Z"/>
    <path class="st6" d="M218.01,167.12c-.23.36-1.33.16-2.6.31s-2.32.52-2.61.22c-.13-.15,0-.49.43-.86.58-.45,1.27-.73,2-.8.74-.09,1.49.04,2.15.38.53.24.73.58.63.75Z"/>
    <path class="st6" d="M203.4,178.19c.05.71.65,1.26,1.37,1.24.7,0,1.27-.56,1.28-1.26,0-.01,0-.02,0-.03-.04-.72-.65-1.27-1.37-1.24-.7,0-1.27.56-1.28,1.26,0,.01,0,.02,0,.03Z"/>
    <path class="st6" d="M198.76,172.61c.17.16,1.12-.65,2.54-.75s2.52.54,2.66.35-.12-.38-.6-.68c-.64-.38-1.39-.55-2.14-.49-.74.05-1.44.33-2,.81-.42.4-.55.76-.46.76Z"/>
    <path class="st6" d="M200.63,167.61c.3.31,1.38-.09,2.7-.17s2.45.08,2.69-.27c.11-.17-.09-.49-.59-.77-1.41-.68-3.07-.54-4.35.36-.44.37-.6.71-.45.85Z"/>
    <path class="st10" d="M189.97,181.5c0-.77-1-2.55-1.74-2.65-2-.24-5.69,0-5.55,5.2.2,7,7.23,5.39,7.24,5.19s.15-5.08.05-7.74Z"/>
    <path class="st13" d="M187.9,186.72s-.12.09-.32.19c-.3.12-.62.12-.92,0-.94-.57-1.5-1.59-1.48-2.69-.04-.6.06-1.21.29-1.77.11-.46.45-.84.9-1,.29-.08.6.05.74.31.1.2.05.34.09.35s.15-.12.09-.41c-.05-.17-.15-.32-.29-.43-.2-.15-.45-.2-.69-.16-.58.13-1.06.55-1.25,1.12-.28.63-.41,1.31-.37,2-.04,1.29.7,2.47,1.87,3,.39.11.8.02,1.12-.22.21-.12.25-.28.22-.29Z"/>
    <path class="st6" d="M187.95,178.9l1.94,1.71c11.21-7.4,22.59-27.47,19.67-26.65-3.62-1-7.43-1.07-11.08-.21-5.63,1.48-16.21,5.31-15.44,12s4.91,13.15,4.91,13.15Z"/>
    <path class="st6" d="M184.65,150.74c2.73,1.6,5.16,6.25,4,9.21.82,5.05-2.62,9.81-7.68,10.63-1.38.22-2.79.13-4.12-.27-2.08-.64-3.86-2.01-5-3.87-1.25-2.27-1.64-4.92-1.1-7.46.53-3.16,2.31-5.97,4.94-7.79,2.68-1.78,6.12-1.96,8.96-.45Z"/>
    <path class="st12" d="M184.03,178.92c.45-.14.88-.33,1.29-.56.81-.39,2-1,3.36-1.79,3.66-2.06,7.06-4.57,10.1-7.47,3.05-2.91,5.53-6.37,7.31-10.2.53-1.16.96-2.36,1.3-3.59.15-.44.25-.9.29-1.37-.1,0-.54,1.92-1.93,4.8-1.85,3.73-4.34,7.11-7.34,10-3.03,2.86-6.36,5.38-9.93,7.51-1.37.83-2.49,1.48-3.27,1.93-.42.21-.81.46-1.18.74Z"/>
    <path class="st12" d="M177.89,173.61c.1,0,.14-1.31.53-3.38,1.04-5.42,3.73-10.38,7.7-14.21,1.51-1.46,2.59-2.21,2.54-2.29-.29.11-.56.27-.81.46-.7.47-1.37.99-2,1.55-2.08,1.87-3.83,4.08-5.16,6.54-1.34,2.46-2.23,5.13-2.65,7.89-.13.83-.2,1.67-.21,2.51-.03.31,0,.62.06.93Z"/>
    <path class="st6" d="M185.37,189.97c0,1.46,1.18,2.64,2.64,2.64s2.64-1.18,2.64-2.64-1.18-2.64-2.64-2.64h0c-1.46,0-2.64,1.18-2.64,2.64Z"/>
    <path class="st6" d="M210.21,188.38c0-.25-1.68,0-3.09-1.16s-1.55-3-1.78-3-.25.45-.14,1.19c.15.97.65,1.85,1.39,2.49.71.61,1.63.92,2.57.87.7-.02,1.08-.28,1.05-.39Z"/>
    <path class="st6" d="M172.63,278.07s-7.87,27.75-3.2,42.82c2.81,9,42.15,58.83,44,61,1.32,1.49-16.82,48.53-20.14,58.33l20.86,10.11s26.1-55.5,27.7-65.23c2-12.49-27.31-65.92-26.24-66.64l10.56-22-8.69-22.71s-36.92.4-44.45,1l-.4,3.32Z"/>
    <path class="st6" d="M218.26,294.43s50.88,18.06,56.62,21.11c6.25,3.33,11,15,5.76,24.95s-51,38.38-51,38.38l-11.38-17.38,33.1-26.08-35.88-8.44-11.63-13.84,14.41-18.7Z"/>
    <path class="st12" d="M241.89,384.75c.11-1.17.11-2.36,0-3.53-.47-3.19-1.34-6.32-2.57-9.3-.73-1.91-1.6-4-2.51-6.21-.47-1.11-.91-2.29-1.37-3.48s-1-2.4-1.52-3.65c-2.17-5-4.64-10.38-7.24-16.06-4.2-9.13-8.07-17.56-11.19-24.32v-.14c1.32-5.48,2.49-10,3.37-13.07.45-1.55.83-2.75,1.12-3.56.11-.31.24-.61.38-.9.12-.2.18-.29.19-.28s0,.11-.13.31-.18.51-.32.91c-.26.82-.59,2-1,3.59-.81,3.11-1.91,7.61-3.19,13.1v-.14c3.17,6.72,7.1,15.14,11.29,24.28,2.6,5.69,5,11.11,7.2,16.09.53,1.25,1.06,2.46,1.51,3.68s.88,2.36,1.34,3.48c.9,2.23,1.75,4.31,2.45,6.24,1.21,3.02,2.03,6.18,2.44,9.41.12,1.19.04,2.39-.25,3.55Z"/>
    <path class="st2" d="M218.98,304.88c-.1.37,0,13.37,0,13.37l6.5,11.07-5.22-1.23-4.64-9.66,3.36-13.55Z"/>
    <path class="st12" d="M247.85,302.89c-1.47-1.44-5.77-5.48-8.8-8.32-.69-.69-.68-1.8,0-2.49.31-.31.73-.49,1.16-.51l34.85-.71c.52-.02,1.02.2,1.36.59l7.28,8.18c.65.73.58,1.85-.16,2.5-.31.27-.7.43-1.11.44l-33.31.88c-.49,0-.95-.2-1.28-.56Z"/>
    <path class="st10" d="M237.99,296.61c2.59-1.1,5.31-1.84,8.1-2.2,4-.4,6.07,1.3,8.24,1.1s8.1.38,8.1,2-8.24,2.17-8.24,2.17l7.23,2.31s8.24-1,8.39,0-7.38,2-10.85,2.46-23.58.72-26.47,0-23.43-13.16-23.43-13.16l9.84-10.12,19.09,15.44Z"/>
    <path class="st5" d="M187.34,206.1c-6.07,1.29-10.94,5.8-12.69,11.75-2.69,8.56,2.44,43.75,4.62,50.11s25.66,26.8,27.73,25.06,13.48-11.86,13.48-11.86l-18.35-21.72s1-25.78-.24-30.65-9.41-23.18-14.55-22.69Z"/>
    <path class="st5" d="M175.86,249.02c1.34,12.23-1.28,17.48-1.28,17.48-1.91,1.56-3.14,3.81-3.42,6.26-.12.98.57,1.87,1.54,1.99.1.01.2.02.3.01l44.45-1s6.22.59,6.09-5.31c-.15-6.58,1.66-29.71-.73-38.81-.82-3.14-11-18.44-11-18.44l-21.19-12-2.25,5.78s-6.72,2.45-9.79,6.41c-2.03,2.53-3.48,5.48-4.25,8.64-1.85,6.3.81,22.44,1.53,28.99Z"/>
    <path class="st10" d="M287.62,228.61s-.38-.35-1.73.08-5.18,2.32-6.92,2.77-5.51,1.9-5.51,1.9c-1.72-.03-3.4.54-4.76,1.6-2.66,1.84-10.18,6.8-10.18,6.8l2.58,7.32c1.23-.24,2.48-.32,3.73-.24,1.77.34,3.59.26,5.33-.22,2-.62,4.81-1.72,4.81-1.72,0,0,2.69.22,3.4-.76s0-2.74,0-2.74h0s2.64-2.43,1.51-3.79-2.55-2.88-2.55-2.88c0,0,7.84-4.16,9.32-5.26s1.73-1.96.97-2.86Z"/>
    <polygon class="st10" points="258.52 241.79 234.12 250 224.26 254.98 238.1 262.44 261.1 249.1 258.52 241.79"/>
    <path class="st13" d="M273.3,235.76c.45,2.08.35,4.25-.3,6.28l-.12.39-.2-.33c1.62.29,3.06.57,4.1.81s1.63.66,1.57.71c-.54-.15-1.09-.27-1.64-.36-1-.14-2.5-.37-4.12-.65l-.28-.05.08-.28c0-.12.07-.25.1-.38.46-2.02.73-4.07.81-6.14Z"/>
    <path class="st13" d="M273.18,239.23c0-.05.22,0,.5.16.39.27.68.68.8,1.14l-.27-.19c.46-.08.92-.12,1.39-.13,1.08-.11,2.16.11,3.11.64,0,.14-1.41-.16-3.1-.12-.48,0-.93,0-1.33.08h-.22v-.2c-.23-.93-.95-1.3-.88-1.38Z"/>
    <path class="st13" d="M276.85,237.35c.09.13-.57.68-1.16,1.53s-.91,1.64-1.05,1.61,0-1,.62-1.91,1.53-1.35,1.59-1.23Z"/>
    <path class="st5" d="M211.38,205.82l2.45,6.59c2.66,2.52,9.3,9.63,10.56,14.52,1.65,6.4,9.09,22.48,9.09,22.48,0,0,16.86-7.19,18-6s7.07,15,5.13,17.94-19.13,10.52-26.13,8.8-13.57-11.79-13.57-11.79l-5.53-52.54Z"/>
    <path class="st6" d="M222.48,227c.22.49.41.99.55,1.5.21.59.37,1.2.5,1.81.21.8.38,1.61.5,2.43.35,2.13.54,4.29.58,6.45,0,2.44,0,5.11-.22,7.91-.38,5.6-.78,10.65-.73,14.31v2.47c0,.72.06,1.36.1,1.87.07.53.1,1.06.07,1.59-.13-.52-.22-1.04-.27-1.57-.07-.51-.15-1.14-.19-1.87s-.13-1.56-.13-2.48c-.14-3.69.2-8.77.58-14.35.18-2.79.28-5.45.26-7.87-.02-2.14-.17-4.28-.46-6.4-.5-3.62-1.29-5.77-1.14-5.8Z"/>
    <path class="st6" d="M233.22,258.94c-.3-3.26-.25-6.53.14-9.78.24,1.62.3,3.26.19,4.89.07,1.64-.04,3.28-.33,4.89Z"/>
    <path class="st6" d="M201.77,225.85c.02.2.02.39,0,.59v1.69c0,1.54.05,3.65.08,6.22.06,5.25.34,12.51.12,20.53-.13,1.91.21,3.83,1,5.57.94,1.53,2.05,2.95,3.3,4.24l6.21,6.92,4,4.74,1.09,1.3c.13.15.25.3.35.47-.16-.12-.3-.25-.43-.4l-1.16-1.24-4.19-4.6-6.16-6.87c-1.29-1.31-2.42-2.76-3.39-4.32-.85-1.81-1.23-3.81-1.1-5.81.22-8,0-15.27,0-20.52,0-2.63,0-4.76.08-6.23,0-.73.06-1.3.08-1.69.02-.2.06-.4.12-.59Z"/>
    <path class="st6" d="M186.48,206.1c0,.06-1,.35-2.68,1.26-2.36,1.3-4.41,3.1-6,5.27-1.11,1.48-1.97,3.13-2.57,4.88-.34.97-.59,1.98-.74,3-.14,1.05-.23,2.15-.3,3.28-.14,2.35-.14,4.72,0,7.07.16,2.44.5,5,.76,7.57.55,5.2,1.07,10.15,1.55,14.66.27,3.99.86,7.95,1.76,11.85.67,2.61,1.84,5.06,3.45,7.22.45.58.94,1.13,1.46,1.65.19.17.37.35.54.54,0,0-.06,0-.17-.1s-.26-.2-.44-.37c-.56-.48-1.07-1.02-1.54-1.59-1.7-2.14-2.95-4.61-3.65-7.25-.97-3.91-1.6-7.89-1.89-11.9-.49-4.51-1-9.46-1.59-14.65-.26-2.6-.59-5.13-.75-7.6-.15-2.37-.15-4.76,0-7.13.08-1.14.17-2.24.33-3.32.17-1.04.43-2.06.78-3.05,1.56-4.4,4.74-8.05,8.89-10.19.64-.34,1.31-.63,2-.86.26-.1.53-.18.8-.24Z"/>
    <path class="st6" d="M211.7,212.61c-.36-.17-.69-.37-1-.62l-2.71-1.84.28-.14v5.16l-.35-.17-5.61-2.82c-3.83-1.94-7.28-3.73-9.77-5l-3-1.57c-.35-.18-.69-.4-1-.64.4.1.78.26,1.14.46l3,1.43c2.53,1.23,6,3,9.83,4.91l5.6,2.86-.35.21c.06-1.79.12-3.41.16-4.79v-.35l.28.2,2.61,2c.32.2.62.44.89.71Z"/>
    <path class="st6" d="M219.57,434.93l-8.22,17.21s15.78,14.46,14.59,17.8l-35.94-15.33,11.64-27.4,17.93,7.72Z"/>
    <path class="st0" d="M200.87,445.92c-.77-.12-1.51.38-1.69,1.14-.09.79.44,1.52,1.23,1.67.82.13,1.61-.41,1.79-1.22,0-.84-.64-1.54-1.48-1.61"/>
    <path class="st12" d="M190,454.61l1.29-2.71,34,15.75s1.31,1.34.67,2.33l-35.96-15.37Z"/>
    <path class="st8" d="M212.01,452.21c-.08.17-1-.13-2.08,0s-1.86.67-2,.53.54-1,1.87-1.15,2.31.49,2.21.62Z"/>
    <path class="st8" d="M215.14,455.3c0,.18-.91.14-1.81.58s-1.39,1.12-1.56,1,.12-1.06,1.25-1.6,2.19-.14,2.12.02Z"/>
    <path class="st8" d="M215.48,460.48c-.17,0-.06-1,.78-1.68s1.82-.73,1.84-.56-.7.44-1.39,1-1.09,1.3-1.23,1.24Z"/>
  </g>
</svg>