<?xml version="1.0" encoding="UTF-8"?>
<svg id="Layer_1" xmlns="http://www.w3.org/2000/svg" version="1.1" viewBox="0 0 750 500">
  <!-- Generator: Adobe Illustrator 29.6.0, SVG Export Plug-In . SVG Version: 2.1.1 Build 207)  -->
  <defs>
    <style>
      .st0 {
        fill: #e0e0e0;
      }

      .st1 {
        fill: #ae7461;
      }

      .st2 {
        fill: #ebebeb;
      }

      .st3 {
        fill: #4a9288;
      }

      .st4 {
        fill: #263238;
      }

      .st5 {
        fill: #6f4439;
      }

      .st6 {
        fill: #fff;
      }

      .st7 {
        fill: #fafafa;
      }

      .st8 {
        opacity: .3;
      }

      .st9 {
        fill: #ffbf9d;
      }

      .st10 {
        fill: #f5f5f5;
      }

      .st11 {
        fill: #455a64;
      }

      .st12 {
        fill: #ff9a6c;
      }
    </style>
  </defs>
  <g id="freepik--background-complete--inject-47">
    <rect class="st10" x="154.36" y="195.96" width="50.94" height="13.47"/>
    <path class="st0" d="M183.75,223.63v-3.59c0-2.32,0-5.67-.08-9.89l.15.16-50.93.1.26-.25h0v13.45l-.25-.25,36.3.11,10.71.07h3.92-3.8l-10.74.28-36.47.11h-.25v-13.7h0l.26-.26,50.93.1h.16v.15c0,4.26-.06,7.64-.09,10v3.28s-.05.09-.08.13Z"/>
    <rect class="st10" x="351.05" y="164.45" width="50.94" height="13.47"/>
    <path class="st0" d="M380.45,192.11c0-.08,0-.16,0-.24v-3.34c0-2.33-.05-5.68-.09-9.89l.16.16-50.93.1c.11-.12-.26.26.26-.26h0v13.45l-.25-.25,36.29.11,10.72.08h3.92-3.8l-10.66.07-36.47.12h-.26v-13.56h0c.52-.52.14-.15.26-.26l50.93.1h.16v.16c0,4.26-.07,7.63-.09,10v3.28c0,.17-.14.18-.15.17Z"/>
    <rect class="st0" x="165.65" y="27.63" width="121.64" height="126.8"/>
    <rect class="st7" x="157.42" y="27.63" width="121.64" height="126.8"/>
    <path class="st0" d="M279.15,154.47h-121.77V27.59h121.77v126.88ZM157.45,154.4h121.57V27.67h-121.57v126.73Z"/>
    <rect class="st6" x="173.77" y="44.68" width="88.94" height="92.71"/>
    <path class="st0" d="M173.77,138.01c-.64.93-1.37,1.79-2.2,2.55-1.42,1.5-3.41,3.52-5.65,5.73s-4.29,4.17-5.77,5.53c-.77.81-1.63,1.53-2.57,2.14.62-.93,1.35-1.78,2.18-2.54,1.42-1.5,3.42-3.53,5.67-5.74s4.3-4.18,5.82-5.57c.75-.8,1.6-1.51,2.52-2.1Z"/>
    <path class="st0" d="M262.71,137.82c.93.63,1.79,1.36,2.55,2.19,1.5,1.42,3.53,3.42,5.73,5.66s4.17,4.29,5.56,5.81c.82.76,1.54,1.63,2.14,2.57-.93-.65-1.78-1.39-2.54-2.23-1.5-1.42-3.53-3.42-5.74-5.66s-4.18-4.31-5.57-5.82c-.81-.75-1.53-1.6-2.13-2.52Z"/>
    <path class="st0" d="M262.46,44.92c.64-.93,1.37-1.79,2.2-2.55,1.42-1.5,3.41-3.53,5.65-5.73s4.3-4.17,5.81-5.56c.77-.81,1.63-1.53,2.57-2.14-.62.93-1.35,1.78-2.18,2.54-1.42,1.5-3.42,3.53-5.67,5.74s-4.3,4.18-5.82,5.57c-.76.82-1.62,1.53-2.56,2.13Z"/>
    <path class="st0" d="M173.52,45.15c-.93-.63-1.79-1.36-2.55-2.19-1.5-1.42-3.52-3.42-5.73-5.66s-4.17-4.29-5.56-5.81c-.81-.77-1.53-1.63-2.14-2.57.93.63,1.78,1.36,2.54,2.19,1.5,1.42,3.53,3.42,5.74,5.66s4.18,4.31,5.57,5.82c.81.76,1.53,1.62,2.13,2.56Z"/>
    <path class="st0" d="M262.46,137.39v-6.75c0-4.39-.06-10.78-.09-18.9-.05-16.23-.11-39.37-.18-67.06l.34.34h-88.68l.39-.39v92.71l-.34-.34,64.22.17,18,.09h6.43-6.29l-18,.08-64.43.18h-.34v-.34c0-26.85,0-58.68-.06-92.71v-.4h89.44v.35c-.07,27.79-.13,51-.18,67.28,0,8.08-.07,14.45-.09,18.82v6.2c0,.23-.05.46-.14.67Z"/>
    <rect class="st2" x="203.4" y="76.19" width="29.68" height="29.68"/>
    <rect class="st0" x="440.04" y="29.36" width="139.83" height="202.68"/>
    <rect class="st10" x="433.04" y="29.36" width="139.83" height="202.68"/>
    <rect class="st6" x="450.41" y="51.32" width="105.08" height="158.77"/>
    <path class="st0" d="M555.49,210.09v-11.74c0-7.61-.06-18.7-.1-32.7,0-28-.1-67.65-.17-114.33l.35.34h-105.07l.38-.38c0,59.89-.06,115.12-.08,158.77l-.3-.3,76.49.16,21.13.07h7.46-7.34l-21.07.07-76.67.16h-.35v-.3c0-43.65,0-98.88-.07-158.77v-.38h105.81v.35c-.07,46.78-.13,86.5-.17,114.56,0,14-.07,25-.1,32.62v10.85c0,.51-.13.95-.13.95Z"/>
    <path class="st0" d="M573.26,29.36c-.72,1.28-1.56,2.5-2.5,3.63-1.62,2.17-3.93,5.12-6.56,8.32s-5.09,6-6.91,8c-.93,1.13-1.96,2.19-3.07,3.14.79-1.24,1.68-2.4,2.66-3.49l6.74-8.14,6.72-8.17c.88-1.18,1.86-2.28,2.92-3.29Z"/>
    <path class="st6" d="M556.03,209.58c5.23,8.31,11.38,16,18.33,22.92"/>
    <path class="st0" d="M574.36,232.5c-1.17-.85-2.24-1.83-3.2-2.91-4.88-4.96-9.23-10.41-13-16.26-.84-1.17-1.56-2.43-2.13-3.75.94,1.09,1.8,2.24,2.57,3.45,1.55,2.17,3.71,5.13,6.24,8.29s4.94,5.93,6.71,7.9c1.01,1.03,1.95,2.12,2.81,3.28Z"/>
    <path class="st6" d="M433.02,231.88c6.1-7.53,12.2-15.07,18.31-22.6"/>
    <path class="st0" d="M451.33,209.28c.16.13-3.8,5.3-8.86,11.54s-9.29,11.19-9.45,11.06,3.8-5.3,8.86-11.54,9.27-11.19,9.45-11.06Z"/>
    <path class="st0" d="M433.04,29.36c.16-.13,4.14,4.63,8.89,10.63s8.45,11,8.29,11.1-4.15-4.63-8.89-10.63-8.46-10.97-8.29-11.1Z"/>
    <rect class="st0" x="487.57" y="83.55" width="35.19" height="99.9"/>
    <path class="st0" d="M369.43,87.47c0-.08,0-.17,0-.25v-3.34c0-2.32,0-5.67-.09-9.89l.16.16-50.94.1.26-.25h0v13.47l-.26-.25,36.3.11,10.71.07h3.85-3.81l-10.65.07-36.48.11h-.25v-13.56h0l.26-.26,50.94.1h.16v.15c0,4.26-.07,7.64-.09,10v3.28c-.02.06-.04.12-.07.18Z"/>
    <path class="st0" d="M376.33,73.99v-3.67c0-2.36-.06-5.7-.1-9.8l.18.19-30.6.07.26-.26h0v13.46l-.25-.24,21.89.11,6.38.07h2.33c-.18.01-.37.01-.55,0h-1.67l-6.32.06-22.06.12h-.25v-13.57h0l.26-.26,30.6.07h.19v.19c0,4.15-.08,7.53-.1,9.92v2.66c-.04.3-.1.59-.19.88Z"/>
    <path class="st0" d="M593.34,317.64v-3.59c0-2.32-.05-5.67-.09-9.89l.16.16-50.93.1.26-.26h0v13.45l-.25-.25,36.29.11,10.72.07h3.92-3.8l-10.66.07-36.47.11h-.34v-13.7h0l.26-.25,50.93.1h.16v.15c0,4.26-.07,7.64-.09,10v3.28c0,.12-.02.23-.07.34Z"/>
    <path class="st0" d="M600.25,304.16c-.01-.08-.01-.17,0-.25v-.72c0-.66,0-1.56-.05-2.7,0-2.36-.06-5.7-.1-9.8l.19.19-30.6.07c-.24.23.31-.32.25-.26h0v13.46l-.25-.24,21.9.11,6.37.07h2.34c-.19.01-.37.01-.56,0h-1.67l-6.32.06-22.06.12h-.24v-13.71h0c-.05.06.5-.49.27-.26l30.6.07h.19v.19c0,4.15-.07,7.53-.1,9.92v2.66c0,.66-.15,1.04-.16,1.02Z"/>
  </g>
  <g id="freepik--character-1--inject-47">
    <path class="st1" d="M282.26,237.94l1.17-96.12c1.07-23.91-11.95-44.46-35.89-44.87l-2.21.09c-22.28.92-40.12,18.79-41,41.07-.81,20.71-1.44,43.61-.85,54.71,1.23,22.93,24.33,25.55,24.33,25.55,0,0,.14,14,.13,20.7l1.28,15.84,12.21-4.69,40.83-12.28Z"/>
    <path class="st5" d="M227.93,218.48s14.5.26,29.52-10.06c0,0-6.48,17.55-29.46,16.43l-.06-6.37Z"/>
    <path class="st4" d="M214.54,157.08c.06,1.78,1.52,3.18,3.3,3.17,1.73.07,3.18-1.28,3.25-3.01,0-.03,0-.06,0-.08-.05-1.78-1.51-3.19-3.29-3.18-1.74-.06-3.2,1.3-3.26,3.04,0,.02,0,.04,0,.06Z"/>
    <path class="st4" d="M209.63,147.21c.42.41,2.83-1.53,6.36-1.66s6.18,1.52,6.55,1.07c.18-.2-.27-1-1.43-1.73-1.57-.99-3.41-1.48-5.27-1.38-1.82.07-3.57.72-5,1.86-1.08.87-1.42,1.66-1.21,1.84Z"/>
    <path class="st4" d="M245.6,156.44c.06,1.78,1.52,3.19,3.3,3.18,1.73.07,3.19-1.28,3.26-3.02,0-.02,0-.05,0-.07-.05-1.78-1.52-3.19-3.3-3.18-1.73-.07-3.19,1.28-3.26,3.02,0,.02,0,.05,0,.07Z"/>
    <path class="st4" d="M244.23,146.6c.43.41,2.84-1.53,6.36-1.66s6.18,1.52,6.55,1.07c.18-.2-.26-.95-1.43-1.73-1.57-.99-3.41-1.47-5.26-1.38-1.82.07-3.57.72-5,1.86-1.09.87-1.43,1.66-1.22,1.84Z"/>
    <path class="st4" d="M232.7,174.22c0-.2-2.2-.49-5.77-.79-.91-.06-1.76-.2-1.94-.81-.11-.93.06-1.87.49-2.7.76-2.21,1.55-4.55,2.38-7,3.29-9.92,5.64-18.06,5.24-18.19s-3.4,7.81-6.69,17.72c-.79,2.45-1.55,4.78-2.27,7-.52,1.11-.63,2.37-.32,3.55.29.63.86,1.1,1.54,1.26.5.11,1.02.16,1.53.15,3.59.09,5.8.01,5.81-.19Z"/>
    <path class="st4" d="M258.54,133.82c-.32-1-3.85-.63-8-1.27s-7.43-1.88-8-1c-.26.4.29,1.33,1.61,2.3,3.57,2.43,8.06,3.08,12.17,1.76,1.56-.56,2.36-1.29,2.22-1.79Z"/>
    <path class="st4" d="M222.08,131.02c-1-.5-3.37,1.28-6.6,2.51s-6.17,1.71-6.52,2.73c-.13.48.58,1.08,2,1.34,4.01.51,8.01-1.09,10.57-4.22.9-1.19.99-2.11.55-2.36Z"/>
    <path class="st1" d="M282.26,158.06c.38-.18,15.57-5.31,15.72,10.4s-15.66,12.61-15.69,12.16-.03-22.56-.03-22.56Z"/>
    <path class="st5" d="M287.03,174.63c.07-.05.28.19.74.39.64.25,1.36.25,2,0,1.65-.63,3-3.28,3.08-6.11.02-1.35-.25-2.68-.81-3.91-.31-.99-1.08-1.77-2.07-2.08-.65-.17-1.33.16-1.61.77-.21.44-.11.75-.19.78s-.34-.26-.22-.91c.08-.39.3-.75.61-1,.43-.33.97-.48,1.51-.42,1.31.25,2.4,1.16,2.88,2.41.69,1.35,1.03,2.85,1,4.37-.07,3.17-1.66,6.15-3.93,6.82-.85.26-1.77.12-2.5-.39-.45-.34-.54-.69-.49-.72Z"/>
    <path class="st4" d="M172.62,116.61c.27-.92.89-1.71,1.73-2.19,1.79-1.08,3.86-1,5.86-1,5-.16,9.91-1.45,14.34-3.77-1.56-.74-3-1.73-4.26-2.92-2.57-2.51-4.08-6.37-3-9.77.14-.67.59-1.23,1.21-1.52,1-.33,1.92.67,2.64,1.45,2.37,2.59,4.55,3.69,8,3.3,2.11-.15,4.16-.78,6-1.84.06-.07.12-.15.19-.22.81-.85,1.6-1.67,2.37-2.45h0c5.84-5.92,10.87-10,16.08-12.21,7.64-3.17,20.45-4.57,28.47-2.56s15.28,8.41,16.48,16.59c4.44-3.84,11.18-3.89,16.66-1.75l.14-.07c6.11,2.1,9.64,8.49,11.5,14.67.1.34.19.68.29,1,2.08,3.26,4.92,5.98,8.28,7.91.59.33,1.27.74,1.35,1.42s-.49,1.23-1,1.63c-1.46,1.06-3.13,1.77-4.9,2.1.56,1.48,1.25,2.9,2.07,4.25.7,1.16,1.53,2.54.94,3.76-.55.92-1.62,1.4-2.67,1.2-1.03-.21-2-.64-2.85-1.25.7,1.62,1.4,3.23,2.09,4.85-2.21.4-4.47.27-6.62-.37-1.22,5.82-2.07,16.57-3.52,20.52-4.17.12-5.19-.32-7.29.4-2.7.94-1.61,5.74-5.17,4.41-1.81-.67-4.65-7.47-5.28-9.3-4.14-12.19-5.61-25.12-4.31-37.93-2.57-2.66-5.62-4.81-9-6.32l.28.24c-6.45-2.16-13.74-4.27-19.8-1.18-4.7,2.39-7.43,7.33-10.92,11.28-6.61,7.49-14.15,11.54-24.13,12.08-.82,6.95-1,18.29-1.22,24.77l-5.64-12.9v.05c-.45-.75-.83-1.51-1.2-2.28l-.12-.23h0c-.58-1.22-1.14-2.45-1.86-3.66l-.07.06c-3.47,3.13-8.69-1.54-6-5.34.53-.76,1.19-1.44,1.93-2-1.6,1.57-3.9,2.2-6.08,1.65-2.18-.63-3.65-2.65-3.6-4.92.17-1.52,1.14-2.83,2.54-3.43-2.85.25-5.71-.34-8.22-1.72-1.63-.94-3.18-2.44-2.71-4.49Z"/>
    <path class="st11" d="M261.58,100.19c.83.63,1.61,1.33,2.33,2.08,1.84,2.18,3.08,4.8,3.61,7.6.41,1.92.63,3.87.66,5.83,0,2.12-.11,4.39-.25,6.78-.19,2.51-.22,5.03-.09,7.54.09,1.35.28,2.68.57,4,.21,1.4.78,2.72,1.66,3.84.83.9,2.06,1.3,3.26,1.06,1.13-.22,2.15-.82,2.9-1.69,1.46-1.74,1.8-3.93,2.15-5.87l-.48.07c.72,1.72,1.68,3.33,2.85,4.78,1.14,1.34,2.75,2.2,4.5,2.39.82.07,1.64-.08,2.37-.45.68-.36,1.24-.92,1.59-1.6.33-.61.49-1.3.46-2-.03-.67-.3-1.3-.76-1.78l-.24.22c1.39,1.55,3.1,2.79,5,3.64.5.23,1.01.42,1.54.58.18.07.36.11.55.13-.17-.08-.34-.15-.52-.21-.34-.14-.85-.34-1.49-.65-1.84-.9-3.47-2.16-4.81-3.71l-.24.22c.77.99.84,2.34.19,3.41-.33.61-.83,1.11-1.44,1.43-.67.32-1.41.44-2.15.37-1.64-.23-3.13-1.08-4.15-2.38-1.14-1.42-2.06-3-2.75-4.68l-.34-.73-.14.79c-.35,1.94-.72,4-2,5.61-.67.78-1.58,1.31-2.59,1.51-1.02.2-2.06-.14-2.77-.89-.81-1.05-1.34-2.29-1.54-3.6-.29-1.28-.48-2.58-.56-3.89-.13-2.49-.12-4.98.05-7.47.13-2.39.25-4.67.2-6.82-.04-1.99-.28-3.97-.73-5.91-.57-2.85-1.89-5.49-3.83-7.65-.74-.78-1.61-1.42-2.57-1.9Z"/>
    <path class="st11" d="M190.71,123.37s.06.06.18.15l.58.42c.32.22.65.43,1,.61.46.27.93.51,1.41.72,3.1,1.36,6.49,1.93,9.86,1.66,5.02-.39,9.82-2.23,13.82-5.28,4.81-3.77,8.8-8.47,11.74-13.83,1.64-2.8,3-5.67,4.45-8.32,1.34-2.58,3.04-4.96,5.05-7.06,1.82-1.89,4.08-3.3,6.58-4.1,1.13-.32,2.31-.47,3.49-.44,1.09.05,2.17.25,3.21.58,3.17,1.05,5.83,3.25,7.46,6.17.54,1.09.95,2.24,1.22,3.43.01-.08.01-.16,0-.24,0-.19-.07-.42-.12-.7-.19-.9-.49-1.77-.9-2.59-.66-1.31-1.53-2.5-2.59-3.51-1.4-1.34-3.08-2.37-4.91-3-1.07-.36-2.18-.57-3.31-.63-1.23-.05-2.45.09-3.63.43-2.58.79-4.92,2.23-6.8,4.17-2.06,2.12-3.8,4.53-5.17,7.15-1.49,2.67-2.83,5.54-4.45,8.31-2.9,5.32-6.85,9.99-11.6,13.75-3.92,3.02-8.62,4.86-13.55,5.3-3.32.3-6.66-.2-9.74-1.47-1.12-.5-2.22-1.06-3.28-1.68Z"/>
    <path class="st11" d="M188.5,113.29c.25.23.53.42.83.57.79.46,1.61.87,2.46,1.21,1.26.51,2.55.92,3.88,1.22,3.26.73,6.63.8,9.92.21,1.34-.25,2.65-.6,3.93-1.07.86-.31,1.7-.68,2.5-1.11.31-.14.6-.31.86-.53,0-.09-1.31.58-3.49,1.28-1.27.41-2.56.73-3.88.94-3.23.52-6.53.45-9.74-.2-1.31-.27-2.59-.64-3.84-1.1-2.15-.79-3.38-1.51-3.43-1.42Z"/>
    <path class="st4" d="M233.03,184.96c.18-.57,3.89.86,7.75-1.29,3.86-2.15,5-6.25,5.52-6.08.25,0,.38,1.16-.23,2.84-.81,2.19-2.36,4.01-4.39,5.16-1.95,1.11-4.25,1.41-6.41.84-1.6-.46-2.36-1.23-2.24-1.47Z"/>
    <path class="st11" d="M227.93,235.43s-38.3,16-48.57,23.51-3,58.87-3.84,69.54.74,90,.74,90c0,0-5.46,42.2-3.36,49.66,0,0,62,2.27,86.08,1.08s73,.34,73,.34l-1.47-56.09-2-87.77,15-76.31-59.35-21.91-1.26-3.78s-21.69,19.57-35.13,18.78-19.84-7.05-19.84-7.05Z"/>
    <g class="st8">
      <path d="M332.91,398.41c-1.35-3.5-4-6.31-6.68-8.94-19.18-18.83-41.97-33.59-67-43.39-9.66-3.78-19.76-6.82-30.13-7.12s-21.1,2.35-29.12,8.93c-10.59,8.71-15,22.84-17,36.41s-1.83,27.52-5.95,40.62l-2.39,12.07c4,1.74,8.79.25,12.06-2.6s5.3-6.85,7.11-10.8c5.81-12.66,10.17-25.94,13-39.58,1.61-7.78,3.12-16.39,9.29-21.41,6.78-5.52,16.71-4.59,25.07-2,27.61,8.5,48.52,30.6,72.75,46.33,5.32,3.46,12.9,6.44,17.43,2,2.65-2.65,2.91-7.03,1.56-10.52Z"/>
    </g>
    <path class="st11" d="M343.55,249.41s10.13,5.59,14.26,12.14,20.61,56,20.61,56l-54.9,16.27-7.19-42.85,27.22-41.56Z"/>
    <path class="st11" d="M181.15,257.68c-5.72,2.03-10.61,5.9-13.91,11-4.38,6.59-23.7,57.56-23.7,57.56l37.19,19.68.42-88.24Z"/>
    <path class="st4" d="M176.26,290.55c.14,0,.26,22,.26,49.26s-.12,49.26-.26,49.26-.26-22.05-.26-49.26.15-49.26.26-49.26Z"/>
    <path class="st4" d="M339.92,252.82c-.31.42-.64.81-1,1.18-.7.73-1.69,1.81-2.88,3.18-6.19,7.13-11.08,15.29-14.44,24.11-.65,1.69-1.14,3.07-1.45,4-.14.5-.33,1-.55,1.47.07-.52.19-1.03.36-1.53.25-1,.69-2.39,1.29-4.1,3.2-8.95,8.13-17.19,14.52-24.23,1.22-1.35,2.26-2.4,3-3.08.35-.37.73-.71,1.15-1Z"/>
    <path class="st4" d="M327.15,335.96c-.14,0-1.24-9.14-2.45-20.45s-2.07-20.5-1.93-20.51,1.24,9.14,2.45,20.45,2.06,20.5,1.93,20.51Z"/>
    <path class="st1" d="M273.81,327.61l55.39,28,.55-1.35-2.41-21.53,46-13.65s4.47,51.35,7,62.15c3.91,16.87-9.82,37.31-34.81,37.28-13.36,0-92.55-62.6-92.55-62.6l20.83-28.3Z"/>
    <path class="st1" d="M188.77,325.59l15.14,29.28-9.59,28.85-4.1,11.59s-10.95,42.61-22.78,43.64-20.82-.79-30-18.77c-10-19.56,4.3-73.06,8.82-92.57l29.07,14.45,13.46-16.47"/>
    <path class="st1" d="M248.72,314.07c-2.25-.76-7.82,3.55-11.13,6.38-2.91,2.23-6.03,4.18-9.32,5.8,0,0,24-21.08,24-24.3s-1.55-5.48-5.68-3.63c0,0,4.74-3.79.64-7.94s-30,19.55-30,19.55l-1.16-1.11s22.51-19.59,21.17-21.39-5.07-3.33-9.74.69-22.78,18.51-26.35,22.32c-6.22,6.65-8.7,5.75-10.87,5.69l-15,25.93,27.47,15.22s13.21-4.57,27.23-20.38c0,0,14.6-11,17.61-14.74s3.37-7.34,1.13-8.09Z"/>
    <path class="st1" d="M254.15,356.67s-14.87-1-33.7-13.42c0,0-18.09-7.27-22.23-10.27s-5.47-6.62-3.38-8,9,1.48,13.23,3.47,11.17,3.37,11.17,3.37c0,0-30.58-15-31.42-18.35s.06-6.07,4.83-5.32c0,0-5.93-2.59-2.87-8,2.8-4.93,30.75,8.95,35.61,11.41.4.21.89.06,1.11-.34h0c.23-.4.09-.92-.31-1.15-.01,0-.03-.02-.04-.02-3.53-1.81-18-9.3-24-13.51-3.8-2.66,1.55-7.64,7.47-4.8s28.43,13.85,34,14.4c5.57.55,12.89,1.56,13.48.08s-2.64-7.48-4-10.08-3.61-8.29,3.06-10c0,0,9.49,11.88,12.55,16.34s8.22,26.5,8.22,26.5"/>
    <path class="st5" d="M276.82,329.02s-.08-.28-.22-.82-.35-1.35-.61-2.4c-.55-2.11-1.35-5.24-2.49-9.24-.56-2-1.22-4.23-2-6.65-.39-1.2-.82-2.46-1.32-3.74-.48-1.34-1.11-2.63-1.87-3.83-3.46-4.83-7.7-10.15-12.39-16l.18.06c-.97.23-1.88.65-2.7,1.22-.82.6-1.38,1.49-1.59,2.48-.19,1.03-.13,2.09.19,3.09.3,1.04.71,2.05,1.23,3,1.05,2,2.12,4,3,6.13.51,1.09.84,2.25,1,3.44,0,.17-.01.34-.06.5-.05.19-.16.35-.32.46-.28.18-.59.3-.92.36-.6.11-1.22.17-1.83.17-2.47-.04-4.94-.21-7.4-.51-1.25-.15-2.5-.22-3.78-.43-1.28-.24-2.54-.6-3.76-1.05-4.91-1.73-9.81-3.92-14.83-6.19s-10.06-4.82-15.28-7.25c-1.3-.57-2.73-.76-4.14-.56-1.41.15-2.68.9-3.5,2.06-.37.57-.42,1.28-.15,1.9.34.62.85,1.12,1.47,1.46,1.22.84,2.51,1.62,3.79,2.4,5.19,3.09,10.61,6,16.14,8.89l2.09,1.09,1,.54.54.27c.53.31.71.99.4,1.52-.1.17-.24.31-.4.4-.23.13-.49.17-.75.12-.21-.06-.42-.15-.61-.26l-2.12-1.06c-2.85-1.39-5.73-2.76-8.66-4.07-5.49-2.58-11.18-4.72-17-6.41-1.42-.39-2.87-.63-4.34-.73-.7-.05-1.41.04-2.08.27-.3.12-.55.31-.74.57-.17.28-.31.63-.47.94-.58,1.28-.54,2.76.11,4,.7,1.2,1.74,2.16,3,2.75l1.44.71-1.58-.22c-.95-.19-1.94-.16-2.88.07-.91.25-1.6.97-1.81,1.89-.19.94-.15,1.91.1,2.84.01.11.04.22.1.31.04.1.09.19.16.27.14.18.3.35.47.51.35.34.72.65,1.11.94,3.16,2.24,6.46,4.28,9.87,6.12,6.67,3.71,13.25,7.09,19.61,10.25l1.62.8-1.77-.37c-2.87-.58-5.71-1.34-8.49-2.28-1.37-.48-2.7-1.03-4-1.67-1.28-.58-2.56-1.13-3.84-1.63-1.27-.49-2.56-.91-3.87-1.26-1.23-.41-2.55-.48-3.82-.2-.56.23-.97.71-1.12,1.3-.12.6-.06,1.22.17,1.79.46,1.17,1.17,2.22,2.08,3.08.87.87,1.84,1.64,2.89,2.28,1.06.62,2.12,1.19,3.2,1.72,2.13,1.07,4.25,2,6.32,3,4.13,1.84,8,3.5,11.71,5h0c7.47,5.01,15.65,8.88,24.25,11.51,2.28.68,4.6,1.24,6.94,1.67.8.14,1.41.22,1.82.28l.61.09-.62-.05c-.41,0-1-.11-1.82-.24-2.36-.38-4.7-.91-7-1.59-8.64-2.57-16.86-6.41-24.37-11.4h0c-3.67-1.48-7.6-3.12-11.74-4.95-2.07-.92-4.19-1.88-6.34-2.95-.88-.56-1.88-1.14-2.99-1.71-1.09-.65-2.1-1.44-3-2.33-.95-.91-1.7-2-2.19-3.22-.25-.64-.31-1.33-.18-2,.17-.72.68-1.31,1.36-1.59,1.36-.34,2.79-.29,4.12.14,1.33.35,2.64.77,3.92,1.27,1.3.5,2.58,1,3.87,1.63,1.27.62,2.58,1.17,3.91,1.64,2.76.93,5.58,1.69,8.44,2.26l-.14.43c-6.39-3.23-13-6.56-19.66-10.23-3.43-1.84-6.75-3.89-9.93-6.14-.41-.31-.8-.64-1.16-1-.19-.18-.37-.37-.52-.58-.18-.22-.3-.48-.35-.76-.27-1-.31-2.05-.1-3.07.11-.54.36-1.04.72-1.45.38-.39.86-.67,1.38-.83,1.02-.26,2.09-.29,3.12-.09l-.14.49c-1.39-.64-2.54-1.68-3.31-3-.73-1.38-.77-3.03-.13-4.45.18-.35.31-.68.52-1,.25-.35.6-.62,1-.77.74-.26,1.52-.36,2.3-.3,1.5.1,3,.34,4.45.74,5.83,1.7,11.51,3.85,17,6.43,2.94,1.33,5.83,2.7,8.68,4.09l2.13,1.06c.15.09.31.16.47.21.31.06.62-.14.68-.45.02-.11.01-.22-.02-.32-.04-.13-.13-.24-.25-.31l-.51-.26-1-.54-2.09-1.09c-5.54-2.9-11-5.81-16.16-8.91-1.29-.79-2.58-1.57-3.82-2.42-.69-.39-1.26-.97-1.64-1.67-.35-.77-.28-1.66.18-2.36.89-1.29,2.3-2.13,3.86-2.3,1.49-.22,3.02-.01,4.4.59,5.26,2.48,10.33,5,15.35,7.24s9.9,4.48,14.78,6.21c1.2.43,2.43.77,3.68,1,1.23.21,2.52.29,3.76.44,2.43.32,4.88.51,7.33.57.59,0,1.18-.05,1.76-.15.26-.05.52-.14.74-.29.2-.12.22-.34.22-.62-.16-1.14-.5-2.24-1-3.28-.91-2.13-2-4.14-3-6.1-.53-.98-.95-2.02-1.25-3.09-.33-1.06-.39-2.18-.19-3.27.23-1.08.85-2.04,1.74-2.69.86-.6,1.82-1.04,2.84-1.28h.1l.08.1c4.67,5.92,8.89,11.25,12.34,16.11.77,1.22,1.4,2.53,1.88,3.9.5,1.29.92,2.55,1.31,3.76.78,2.42,1.42,4.65,2,6.66,1.11,4,1.88,7.15,2.39,9.27l.57,2.42c.09.46.14.75.14.75Z"/>
    <path class="st5" d="M179.15,335.74c-.12.26-.25.51-.4.76-.29.49-.69,1.22-1.26,2.13-1.12,1.83-2.82,4.43-5,7.58-4.34,6.33-10.84,14.71-17.45,24.34-3.15,4.48-6.02,9.16-8.59,14-2.1,3.97-3.56,8.25-4.3,12.68-.48,2.98-.48,6.02,0,9,.14.81.31,1.61.53,2.4.08.27.15.55.21.83-.13-.26-.23-.53-.31-.8-.26-.79-.47-1.59-.63-2.4-.58-2.99-.64-6.06-.2-9.08.67-4.47,2.08-8.8,4.16-12.82,2.56-4.88,5.43-9.59,8.59-14.1,6.63-9.66,13.17-18,17.58-24.26,2.23-3.12,4-5.68,5.13-7.48.6-.89,1-1.6,1.35-2.07.17-.26.37-.49.59-.71Z"/>
    <path class="st5" d="M223.68,322.58c-.42-.13-.82-.29-1.21-.5-.76-.35-1.85-.88-3.19-1.55l-10.44-5.27c-4.08-2-7.84-3.75-10.59-4.93l-3.26-1.39c-.41-.14-.81-.33-1.18-.56.43.08.85.21,1.25.37.8.27,1.93.69,3.33,1.24,2.79,1.09,6.59,2.76,10.68,4.8s7.74,4,10.38,5.42l3.12,1.69c.4.18.77.41,1.11.68Z"/>
    <path class="st5" d="M352.32,370.15c-.4-.24-.76-.52-1.1-.84-.7-.56-1.72-1.35-3-2.28-2.59-1.86-6.32-4.22-10.53-6.67s-8.13-4.51-11-6l-3.38-1.71c-.43-.18-.84-.41-1.22-.67.45.12.89.29,1.31.49.82.35,2,.87,3.45,1.56,2.9,1.38,6.83,3.41,11.07,5.85,3.63,2.07,7.13,4.35,10.49,6.83,1.28,1,2.27,1.81,2.93,2.41.36.31.69.65.98,1.03Z"/>
  </g>
  <g id="freepik--character-2--inject-47">
    <path class="st4" d="M381.83,115.37c.64-3.63,2.24-7.3,5.27-9.4,3.72-2.57,8.67-2.24,13.13-1.52,6.39,1,13.27,3,16.91,8.37,2.01,3.18,2.92,6.93,2.58,10.68-.35,3.72-1.29,7.37-2.77,10.8l-16.8,7.09c-4-6.37-13-8.3-16.75-14.79-1.83-3.44-2.38-7.42-1.57-11.23Z"/>
    <path class="st4" d="M545.15,257.38c.61-1.64,2.45-2.38,4-3.2,8.39-4.44,11.6-14.84,7.16-23.23-1.67-3.15-4.27-5.7-7.45-7.31-1.47-.55-2.82-1.35-4-2.38-2.61-2.83-1-7.36-1.55-11.17-1.24-8.05-12-11.19-14.9-18.81-1.76-4.65-.18-9.8.77-14.68s.87-10.75-3-13.84c-2.1-1.66-4.95-2.16-7-3.9-4.19-3.6-3-10.19-3.95-15.63-1.77-8.82-9.53-15.15-18.52-15.13,0,0,4.47-6.91-3.89-12-10.09-6.15-11.93,1.48-16.17-4.07-4.82-5.96-13.12-7.79-20-4.42-2.05,1.07-3.87,2.6-6.05,3.37-2.67.93-5.58.65-8.4.85-10.74.76-30.25,10.82-26.22,25.2l55.29,128.4s12.74,4.58,22.09,10.68c2.05,1.34,2.73,19.2,5.05,20,2.95.83,6.08.78,9-.14,6.46-1.82,11.96-6.09,15.33-11.89,7.7,4.9,17.92,2.63,22.82-5.08,3.08-4.83,3.43-10.92.93-16.07-.85-1.8-2.05-3.72-1.34-5.55Z"/>
    <path class="st9" d="M411.66,155.42l-.66-8.25,49-12.42c15.2-2.53,32.66,11.8,34.55,27.09,2.1,17,4,37.82,2.74,50.66-2.48,25.83-21.9,30.32-21.9,30.32l1.42,25.4-56.54,4.12-8.61-116.92Z"/>
    <path class="st4" d="M485.32,185.67c.12,1.79-1.21,3.35-3,3.5-1.72.24-3.31-.97-3.55-2.69,0-.02,0-.05,0-.07-.12-1.79,1.22-3.34,3-3.5,1.73-.23,3.32.98,3.55,2.71,0,.02,0,.03,0,.05Z"/>
    <path class="st4" d="M489.83,173.04c-.38.45-3-1.24-6.51-1s-6,2.14-6.42,1.73c-.2-.18.17-1,1.25-1.86,1.46-1.15,3.25-1.82,5.11-1.92,1.83-.12,3.66.35,5.21,1.34,1.14.75,1.55,1.49,1.36,1.71Z"/>
    <path class="st4" d="M453.49,186.6c.12,1.79-1.21,3.35-3,3.51-1.72.24-3.31-.97-3.55-2.69,0-.02,0-.05,0-.07-.12-1.79,1.21-3.35,3-3.5,1.72-.24,3.31.97,3.55,2.69,0,.02,0,.04,0,.06Z"/>
    <path class="st4" d="M455.15,175.82c-.38.46-3-1.23-6.51-1s-6,2.14-6.42,1.73c-.19-.18.17-1,1.25-1.87,1.46-1.15,3.25-1.82,5.11-1.91,1.83-.12,3.66.35,5.21,1.34,1.15.71,1.56,1.47,1.36,1.71Z"/>
    <path class="st4" d="M469.55,201.2c0-.2,2.15-.71,5.68-1.38.89-.15,1.74-.38,1.85-1,.02-.94-.24-1.86-.76-2.64-.98-2.13-2.01-4.37-3.08-6.7-4.29-9.56-7.46-17.43-7.07-17.6s4.18,7.43,8.47,17l3,6.75c.4,1,1.06,2.13.68,3.51-.23.66-.75,1.18-1.41,1.41-.49.17-1,.27-1.51.3-3.6.4-5.82.55-5.85.35Z"/>
    <path class="st12" d="M475.38,242.82c-12.32.93-24.66-1.52-35.69-7.08,0,0,9.72,17.39,36.06,13.46l-.37-6.38Z"/>
    <path class="st4" d="M436.93,170c.06-1,3.57-1.59,7.41-3.25s6.73-3.7,7.51-3c.35.33.05,1.36-1,2.64-2.85,3.26-7.04,5.02-11.36,4.78-1.63-.19-2.58-.69-2.56-1.17Z"/>
    <path class="st4" d="M478.15,159.1c.9-.48,2.78,1.27,5.44,2.5s5.16,1.72,5.34,2.72c.06.47-.62,1.05-1.92,1.3-3.48.49-6.92-1.17-8.69-4.21-.64-1.17-.61-2.07-.17-2.31Z"/>
    <path class="st4" d="M494.49,143.44c-5.84-7.6-14.06-13.03-23.34-15.42l-41.42,5.21-11.32,6.81c-.78-2.61,1.32-5.58,1.32-5.58-3.89-3-17.19-7.78-26.59,2-3.39,3.55-6.22,13-6.3,17.88,0,1.86.15,4.12-1.4,5.14-.57.31-1.2.52-1.84.61-10.54,2.31-18,14-15.69,24.54.23.71.31,1.45.24,2.19-.33,1.08-.97,2.04-1.84,2.75-5.06,5.54-6.21,13.62-2.9,20.35,1,2,2.46,3.88,2.81,6.11.64,4-2.27,7.53-4.52,10.88-6.76,10-8.21,24.61-.28,33.75,1.93,2.22,4.42,4.2,5.14,7,.26,1.42.33,2.86.23,4.3-.06,7.29,3.79,15.44,10.91,17,4,.85,8.76-.26,11.58,2.64,1.22,1.27,1.74,3,2.52,4.62,3.25,6.13,10.32,9.17,17,7.33,6.43-2,8.56-28.06,7.63-34.72,7.78-2.83,13.54-3.33,13.18-11.61,0,0-1.2-14.24,1.1-21.18s-2.32-21.71-4.95-28.88.5-23.86,1.21-30.5c.04-1.91-.14-3.82-.55-5.68h0c-.29-1.62-.67-3.43-1.12-5.38-.14-1.78-.19-3.57-.14-5.35.12-5.22,4.45-9.35,9.67-9.22.91.02,1.81.17,2.68.45,1.44.49,2.95.75,4.47.8,4.98.09,9.71-2.15,12.79-6.06,5.82,6.04,14.48,8.41,22.57,6.17,3.2,4.47,6.45,9,10.71,12.46s9.72,5.83,15.17,5.22c.15-9.6-2.93-18.98-8.73-26.63Z"/>
    <path class="st11" d="M490.15,150.82c-.07,0,.05-.94-.09-2.61-.21-2.38-.93-4.68-2.12-6.75-1.75-3.14-4.56-5.55-7.93-6.81-4.21-1.57-8.89-1.28-12.88.79l-.3.16-.22-.26c-1.6-1.94-3.51-3.61-5.64-4.94-4.59-2.87-10.01-4.11-15.39-3.5-4.38.56-8.52,2.35-11.93,5.15-2.31,1.89-4.27,4.17-5.78,6.74-1.05,1.84-1.45,3-1.53,2.92.05-.28.13-.56.25-.82.28-.78.61-1.53,1-2.26,1.44-2.67,3.37-5.05,5.69-7,3.46-2.95,7.7-4.85,12.21-5.46,8.27-1.03,16.49,2.23,21.8,8.65l-.52-.1c4.2-2.16,9.12-2.43,13.53-.74,3.5,1.35,6.39,3.91,8.15,7.22,1.17,2.15,1.83,4.55,1.93,7,.04.67.02,1.34-.07,2-.02.21-.08.42-.16.62Z"/>
    <path class="st11" d="M395.69,150.53c.15.08.92-1.6,2.89-3.72,5.21-5.74,13.57-7.39,20.57-4.05,2.63,1.21,4,2.48,4.08,2.34s-.25-.4-.86-1c-.89-.78-1.87-1.45-2.92-2-7.21-3.85-16.14-2.09-21.35,4.21-.77.91-1.42,1.92-1.94,3-.24.37-.4.78-.47,1.22Z"/>
    <path class="st11" d="M397.28,227.08c1.23-.49,2.34-1.23,3.28-2.16,2.63-2.54,4.26-5.93,4.62-9.57.52-3.96-.65-7.95-3.22-11-.94-1.02-1.66-2.23-2.09-3.55-.24-1.39.21-2.81,1.2-3.81,1-1.14,2.23-2.12,3.39-3.31,1.26-1.21,2.12-2.79,2.45-4.51.29-1.75.21-3.54-.24-5.25-.88-3.46-2.73-6.34-3.88-9.31-3.15-7.9-.52-16.92,6.37-21.9,2.89-2.02,6.27-3.21,9.79-3.45,2.5-.17,3.88.14,3.89,0-.32-.12-.66-.2-1-.24-.97-.15-1.94-.21-2.92-.18-3.63.1-7.15,1.24-10.16,3.27-4.51,3.09-7.46,7.99-8.06,13.42-.39,3.18.02,6.41,1.2,9.39,1.19,3.07,3,6,3.82,9.19.42,1.58.5,3.23.24,4.84-.3,1.53-1.07,2.92-2.19,4-1.1,1.14-2.36,2.13-3.41,3.38-1.17,1.22-1.68,2.94-1.37,4.6.47,1.45,1.25,2.77,2.29,3.88,2.49,2.85,3.65,6.62,3.21,10.37-.29,3.51-1.77,6.82-4.21,9.37-.93.92-1.93,1.77-3,2.53Z"/>
    <path class="st11" d="M390.55,140.44c.2.14,1.16-2.76,4.82-5.43,2.13-1.54,4.58-2.59,7.16-3.07,3.18-.54,6.43-.43,9.57.31.64.16,1.26.36,1.87.6l.57.22.17-.57c1.68-5.18,4.91-9.72,9.26-13,3.31-2.5,5.79-3.32,5.7-3.51-.61.07-1.2.25-1.75.52-1.55.63-3.03,1.42-4.4,2.38-4.66,3.23-8.13,7.92-9.87,13.32l.74-.34c-.65-.27-1.32-.49-2-.66-3.28-.78-6.69-.86-10-.24-2.72.55-5.27,1.73-7.44,3.45-1.47,1.14-2.7,2.56-3.61,4.18-.38.55-.65,1.18-.79,1.84Z"/>
    <path class="st12" d="M467,209.76c-1.26-1.75-3.33-2.73-5.48-2.59-1.54.07-2.98.76-4,1.91-1,1.13-1.2,2.77-.48,4.11.87,1.36,2.81,1.76,4.48,1.38,1.66-.5,3.21-1.32,4.56-2.42.39-.27.73-.61,1-1,.28-.38.3-.89.06-1.29"/>
    <path class="st4" d="M458.57,203.38c.56,0,.38,3.75,3.47,6.58s7.1,2.62,7.1,3.14c.05.24-.92.69-2.62.65-2.2-.08-4.3-.93-5.94-2.41-1.57-1.42-2.53-3.4-2.67-5.51-.06-1.58.4-2.49.66-2.45Z"/>
    <path class="st3" d="M384.43,271.04l27.83-11.15s30.45,11.62,45.83,10.67,29.51-10.67,29.51-10.67l41.72,12.45,2.57,48.32-3.16,82.46s7.06,27.89,6.2,37.62-9.61,14.37-9.61,14.37l2.06,12.51h-132.88l2.72-12.8s-17.41-1.46-13-27.65c1.34-7.86,13.49-23,8.27-54.83-5.49-33.71-8.06-101.3-8.06-101.3Z"/>
    <g class="st8">
      <path d="M516.15,369.2c-3.13-5.67-6.65-11.41-12-15.09-5.6-3.85-12.63-5-19.43-5.17-10.09-.22-20.42,1.73-29.09,6.91-12,7.15-19.67,19.6-26.45,31.79s-13.43,25-24.3,33.74l-21.82,16c22.17,3.66,46-5.59,59.9-23.24,11.89-15.1,17-35.7,32.46-47.16,2.96-2.24,6.28-3.97,9.82-5.09,5.25-1.59,11.28-1.45,15.82,1.61,5.77,3.88,7.82,11.28,9.29,18.07,4.34,20,7.83,41.27,20.92,57,.88,1.06,2.45,2.15,3.48,1.23.46-.54.68-1.23.62-1.93,1.05-24.05-7.61-47.58-19.22-68.67Z"/>
    </g>
    <path class="st3" d="M528.84,272.29s18.92.73,29.08,44.54c4.52,19.51,25,86.42,15,106-9.2,18-18.2,19.81-30,18.78s-26.27-43.34-26.27-43.34v-10.45l-10.2-23.82,15.14-35.75"/>
    <path class="st4" d="M521.58,328.22s-.07.22-.24.63l-.75,1.83-2.95,7.06c-2.58,6.16-6.34,15.11-11.05,26.29v-.13c3,7.05,6.47,15.05,10.24,23.81h0v10.46-.07c2.13,6.05,4.62,12.32,7.52,18.71,1.45,3.19,3,6.4,4.78,9.58,1.74,3.25,3.75,6.35,6,9.27,1.16,1.48,2.5,2.81,4,3.95.37.29.76.54,1.18.76.4.24.82.43,1.26.58.44.14.89.24,1.35.31l1.44.1c1.93.15,3.88.15,5.81,0,.97-.07,1.94-.2,2.9-.37,4.91-.98,9.32-3.64,12.49-7.52,2.65-3.11,4.91-6.53,6.74-10.18,1.28-2.5,2.13-5.21,2.49-8,.39-2.75.58-5.53.56-8.31-.05-5.41-.43-10.8-1.15-16.16-1.37-10.64-3.45-20.79-5.61-30.4s-4.49-18.69-6.7-27.18c-1.09-4.25-2.15-8.34-3.17-12.29-.95-4-1.93-7.74-2.86-11.35-1.81-6.45-4.23-12.72-7.22-18.71-2.26-4.53-5.21-8.69-8.76-12.3-2.24-2.28-4.9-4.12-7.83-5.4-.51-.2-1-.35-1.36-.49l-1-.27-.84-.14h.22l.63.09,1,.24c.4.14.87.27,1.38.47,2.97,1.25,5.67,3.07,7.93,5.36,3.6,3.6,6.6,7.75,8.88,12.3,3.03,6,5.48,12.28,7.31,18.75.94,3.62,1.94,7.4,2.9,11.35s2.09,8,3.2,12.28c2.22,8.48,4.56,17.56,6.75,27.18s4.26,19.78,5.65,30.44c.74,5.42,1.14,10.88,1.19,16.35.02,2.8-.17,5.6-.57,8.38-.37,2.84-1.23,5.59-2.54,8.14-1.84,3.69-4.13,7.14-6.81,10.28-2.61,3.13-6,5.51-9.82,6.92-.95.32-1.92.58-2.9.78-1,.15-2,.33-3,.38-1.96.15-3.92.15-5.88,0l-1.45-.11c-.5-.07-.99-.18-1.47-.33-.47-.16-.92-.37-1.35-.61-.43-.23-.84-.5-1.23-.8-1.51-1.16-2.88-2.51-4.07-4-2.28-2.94-4.31-6.07-6.06-9.35-1.76-3.21-3.34-6.43-4.79-9.63-2.9-6.4-5.38-12.69-7.51-18.76v-10.53.08l-10.16-23.84v-.13l11.19-26.23c1.31-3.05,2.33-5.41,3-7,.35-.78.61-1.39.8-1.81l.31-.71Z"/>
    <path class="st4" d="M528.84,297.32c-.03.51-.11,1.01-.24,1.5-.2,1.06-.47,2.43-.79,4.08-.86,4.47-1.41,9-1.66,13.55-.2,4.55.06,9.1.76,13.6.28,1.73.54,3.12.75,4.08.13.49.22.99.25,1.5-.19-.47-.34-.96-.45-1.45-.27-.95-.58-2.34-.91-4.06-.82-4.52-1.13-9.11-.92-13.7.24-4.57.85-9.12,1.82-13.6.37-1.72.7-3.1.95-4.05.11-.49.25-.98.44-1.45Z"/>
    <path class="st3" d="M392.72,272.43c-3.54-2.36-4.51-7.85-2.88-12s5.25-7,9.11-8.72c6.4-2.8,13.57-2.81,20.41-1.79,13.95,2.2,27.04,8.11,37.92,17.11,10.76-9.06,22.71-16.6,35.52-22.4,2.93-1.32,6.2-2.55,9.19-1.41,2.54,1,4.33,3.52,5.21,6.27.76,2.81,1.13,5.7,1.08,8.61.13,4.2.05,9-2.85,11.78-1.87,1.8-4.49,2.32-7,2.76-17.78,3.19-36,6.38-53.71,2.72-8.7-1.8-17.06-5.23-25.78-6.88s-17.38,2.47-26.26,3.94"/>
    <path class="st4" d="M551.42,308.46c0,.08-1.6.66-4.1,1.87-6.54,3.14-12.3,7.69-16.86,13.33-1.75,2.16-2.69,3.61-2.77,3.56.16-.38.35-.74.59-1.07.58-.94,1.21-1.85,1.89-2.72,2.22-2.9,4.79-5.51,7.66-7.78,2.87-2.26,6-4.16,9.33-5.66,1.28-.56,2.34-1,3.09-1.21.37-.16.77-.26,1.17-.32Z"/>
    <path class="st4" d="M458.4,272.41c.1-.2.22-.38.36-.55.25-.34.63-.85,1.16-1.47,1.49-1.79,3.25-3.33,5.23-4.57.66-.39,1.34-.72,2.05-1,.38-.18.79-.3,1.21-.37.48-.08.98.06,1.34.39.69.75.77,1.88.2,2.72-.56.8-1.27,1.48-2.1,2-7.11,5.05-16.63,5.05-23.74,0-.42-.27-.8-.58-1.14-.94-.19-.21-.31-.46-.35-.74-.04-.29.05-.59.24-.82.37-.35.86-.56,1.37-.56.45-.02.91.02,1.35.11,1.57.32,3.1.79,4.57,1.42,2.12.89,4.18,1.93,6.17,3.1.7.41,1.23.75,1.59,1,.19.11.37.24.53.39-.21-.08-.4-.18-.59-.3l-1.7-1c-2.01-1.09-4.08-2.07-6.2-2.94-1.45-.59-2.97-1.04-4.51-1.33-.41-.08-.82-.12-1.24-.1-.39,0-.77.15-1.06.42-.24.31-.19.75.12,1,0,0,0,0,0,0,.32.32.68.61,1.06.85,6.96,4.88,16.22,4.88,23.18,0,.78-.47,1.46-1.08,2-1.81.47-.66.43-1.56-.1-2.18-.54-.53-1.41-.26-2.11,0-.69.28-1.36.62-2,1-1.95,1.19-3.71,2.66-5.22,4.37-.55.59-.95,1.07-1.23,1.4-.13.18-.28.35-.44.51Z"/>
    <path class="st4" d="M454.06,309.64c-.08-.49-.12-.98-.12-1.48-.05-.95-.07-2.33-.06-4,.07-8.89,1.1-17.74,3.07-26.4.39-1.66.73-3,1-3.91.1-.48.26-.96.46-1.41-.04.49-.13.98-.26,1.46-.22,1-.49,2.35-.83,3.94-.67,3.33-1.49,7.95-2.1,13.1s-.86,9.83-1,13.23c0,1.62-.08,3-.11,4,.04.49.02.98-.05,1.47Z"/>
    <path class="st4" d="M468.81,293.64c-.5-.88-.92-1.8-1.28-2.74l-2.91-6.68-3-6.66c-.46-.9-.85-1.84-1.15-2.8.57.83,1.07,1.72,1.49,2.64.85,1.67,2,4,3.11,6.61s2.12,5,2.78,6.75c.41.93.73,1.89.96,2.88Z"/>
    <path class="st4" d="M451,274.76c-.2-.05-.39-.12-.58-.21l-1.62-.68c-.69-.31-1.54-.67-2.56-1.05s-2.13-.86-3.43-1.28-2.68-.93-4.22-1.36-3.18-.87-4.92-1.31c-7.58-1.79-15.36-2.56-23.14-2.31-1.79.08-3.5.14-5.08.31s-3.07.31-4.41.49-2.56.4-3.62.58-2,.35-2.72.52l-1.71.35c-.2.05-.4.08-.61.08.19-.08.38-.14.58-.19l1.7-.44c.74-.19,1.64-.41,2.71-.61s2.26-.48,3.61-.65,2.83-.43,4.43-.56,3.3-.26,5.1-.36c3.91-.14,7.82-.02,11.72.35,3.89.42,7.75,1.09,11.55,2,1.75.46,3.41.87,4.93,1.37s2.95,1,4.23,1.43,2.41.94,3.41,1.35,1.85.8,2.54,1.14l1.57.77c.19.07.37.16.54.27Z"/>
    <path class="st4" d="M504.99,263.89c-.53.25-1.09.46-1.65.63-1.06.38-2.62.89-4.56,1.49-3.87,1.19-9.26,2.69-15.3,4s-11.56,2.27-15.57,2.82c-2,.28-3.63.47-4.76.58-.58.09-1.17.13-1.76.13.57-.15,1.15-.26,1.73-.33l4.73-.74c4-.65,9.5-1.63,15.52-3s11.42-2.77,15.31-3.88l4.6-1.32c.56-.18,1.13-.3,1.71-.38Z"/>
    <path class="st9" d="M535.04,344.7s-15-19.92-19.67-22.13-36.93-16.62-39.56-17.84-6.4.7-5.64,2.17,3,4.93,3,4.93l-5.3-2.43-4.24,13.17s15.52,19.74,20.06,25.25,22.75,9.71,22.75,9.71l3.57,7.16c17.9-.77,25.03-19.99,25.03-19.99Z"/>
    <path class="st9" d="M454.03,336.75s4.39-17.92,6.42-21.36,10.14-13,11.16-16.44.75-6.08,2.2-6.49,5.1,3,5.1,6.7-5.1,14.6-5.1,14.6c0,0,17.48-6.49,22.75-8.31s20.29-2.44,20.29-2.44c0,0,2.43,3.65-.81,6.09l8.11-.81s.81,4.46-1.82,5.68l4.46-1.22s3,4.87-3.25,7.71l-1.82.81s2.23,3.45-.61,5.88-14.81,8.12-16.84,10.35-14.2,13.79-19.88,15.62c-4.82,1.71-9.55,3.69-14.16,5.91l-16.2-22.28Z"/>
    <path class="st12" d="M454.03,336.75l.3.38.85,1.12,3.22,4.37,12,16.31-.2-.05c3.78-1.79,8-3.71,12.64-5.42,1.2-.36,2.37-.83,3.48-1.41,1.14-.62,2.25-1.31,3.3-2.07,2.17-1.53,4.3-3.25,6.44-5.09s4.29-3.79,6.42-5.86c.53-.52,1.06-1,1.57-1.59.55-.55,1.16-1.04,1.82-1.46,1.28-.85,2.62-1.62,4-2.4,2.71-1.55,5.53-3.05,8.31-4.71.7-.42,1.39-.85,2.05-1.31.67-.42,1.24-.98,1.66-1.65.71-1.45.59-3.16-.31-4.5l-.15-.25.25-.12c1.66-.77,3.53-1.39,4.68-2.89.61-.72.96-1.61,1-2.55.01-.95-.23-1.89-.69-2.72l.29.12-4.47,1.22-2.4.65,2.23-1.14c.42-.21.78-.52,1.05-.9.26-.42.45-.88.56-1.37.21-1.03.24-2.09.07-3.13l.28.21-8.12.82-.81.08.63-.55h0c.88-.62,1.44-1.59,1.54-2.66.03-1.06-.26-2.1-.82-3l.23.11c-4,.18-7.88.46-11.72.88-1.92.21-3.82.47-5.67.83-.92.17-1.83.4-2.73.68l-2.64,1-20.21,7.37-.53.19.24-.52c1.13-2.47,2.18-4.93,3.12-7.37.46-1.22.89-2.44,1.26-3.66.41-1.17.65-2.41.7-3.65-.06-1.2-.44-2.37-1.09-3.38-.6-1.01-1.42-1.88-2.39-2.54-.47-.28-1-.55-1.47-.34-.45.28-.75.74-.83,1.26-.29,1.09-.43,2.24-.68,3.34-.11.55-.26,1.09-.41,1.63-.09.27-.2.53-.29.8l-.38.74c-.53,1-1.1,1.88-1.69,2.75-1.19,1.74-2.4,3.37-3.58,4.94l-3.37,4.49c-1.08,1.32-1.97,2.78-2.64,4.35-1.17,3-2,5.84-2.68,8.27s-1.28,4.53-1.74,6.23l-1,3.89c-.12.43-.21.76-.27,1-.03.12-.06.23-.11.34,0,0,0-.12.07-.35s.13-.57.23-1c.22-.9.55-2.21,1-3.91s1-3.8,1.66-6.25,1.47-5.26,2.64-8.32c.67-1.59,1.56-3.08,2.64-4.42,1.07-1.45,2.19-2.95,3.36-4.52s2.37-3.2,3.54-4.94c1.32-1.71,2.25-3.69,2.7-5.8.24-1.09.36-2.21.67-3.36.11-.64.5-1.2,1.06-1.53.32-.13.68-.13,1,0,.3.09.59.23.85.4,1.04.69,1.91,1.6,2.54,2.67.69,1.08,1.09,2.31,1.16,3.59-.04,1.29-.28,2.57-.71,3.79-.37,1.23-.8,2.46-1.27,3.69-.93,2.46-2,4.92-3.11,7.41l-.3-.32,20.2-7.4,2.65-1c.92-.28,1.85-.51,2.79-.69,1.88-.37,3.79-.63,5.71-.84,3.86-.42,7.78-.7,11.76-.89h.15l.07.13c.64,1,.96,2.18.91,3.37-.13,1.2-.76,2.29-1.74,3h0l-.18-.47,8.12-.81h.24v.24c.18,1.11.15,2.24-.07,3.34-.12.55-.34,1.07-.65,1.54-.32.46-.75.83-1.26,1.08l-.17-.48,4.46-1.22.19-.05.1.16c.52.91.78,1.95.76,3-.04,1.04-.42,2.04-1.08,2.85-.32.39-.68.74-1.07,1.06-.4.29-.81.55-1.24.78-.86.47-1.72.8-2.56,1.19l.11-.37c.46.76.74,1.6.84,2.48.11.88-.07,1.78-.51,2.55-.46.73-1.08,1.34-1.81,1.8-.69.48-1.38.91-2.08,1.33-2.81,1.67-5.62,3.16-8.33,4.7-1.36.77-2.69,1.54-3.95,2.38-.63.4-1.21.86-1.74,1.38-.52.56-1.05,1.08-1.59,1.6-2.14,2.09-4.3,4-6.45,5.88s-4.3,3.56-6.49,5.09c-1.08.76-2.19,1.46-3.35,2.09-1.14.57-2.32,1.05-3.54,1.41-4.66,1.68-8.85,3.58-12.63,5.35l-.12.06-.08-.11-11.86-16.45-3.15-4.4-.8-1.13c-.27-.34-.39-.47-.39-.47Z"/>
    <path class="st12" d="M516.04,309.1c-.38.09-.78.15-1.17.16-.75.07-1.84.19-3.17.36-3.48.45-6.92,1.13-10.31,2.05-2,.56-3.83,1.17-5.5,1.79s-3.14,1.25-4.34,1.85c-2.43,1.16-3.84,2.06-3.89,2,.29-.27.61-.5.95-.7.31-.21.7-.46,1.17-.72s1-.59,1.6-.89c1.41-.74,2.86-1.41,4.34-2,1.67-.65,3.54-1.28,5.54-1.84,3.41-.93,6.89-1.58,10.4-1.92,1.35-.12,2.44-.18,3.2-.19.39-.03.79-.02,1.18.05Z"/>
    <path class="st12" d="M496.29,323.04c.24-.26.52-.49.82-.68.54-.41,1.37-1,2.41-1.6,2.75-1.62,5.68-2.93,8.72-3.9,3.04-.97,6.14-1.69,9.29-2.18,1.21-.19,2.19-.32,2.87-.39.35-.07.71-.08,1.06-.05-.32.12-.66.2-1,.25l-2.83.55c-3.11.59-6.18,1.37-9.2,2.32-3.01.96-5.92,2.21-8.69,3.72-2.16,1.18-3.4,2.03-3.45,1.96Z"/>
    <path class="st12" d="M520.83,320.56c0,.08-1.33.32-3.45.86-2.76.71-5.46,1.65-8.06,2.83-2.6,1.19-5.08,2.59-7.44,4.2-1.8,1.25-2.86,2.1-2.91,2s.21-.27.67-.68,1.15-1,2-1.66c4.64-3.45,9.97-5.87,15.62-7.09.85-.19,1.71-.34,2.58-.44.33-.06.66-.06.99-.02Z"/>
    <path class="st3" d="M384.9,271.82c-1.05.35-3.93,1-13.06,9.18-7.69,6.82-12.59,19.7-15.64,31.41-2.92,11.37-4.5,23.04-4.71,34.78-.35,15.93-1,45.53-1,49.13-.07,7.33-.74,35.08,32.58,38.71,23.55,2.56,63-34.08,64.73-40.09s3.66-14.94,3.66-14.94l21.39-19.18-19.78-27.2-55.8,33.72,6.88-43.65"/>
    <path class="st4" d="M404.15,323.69s0,.26-.1.75-.18,1.24-.33,2.21l-1.31,8.54c-1.16,7.48-2.86,18.38-5,32.14l-.23-.16,55.77-33.78.17-.1.12.16,19.8,27.19.13.17-.16.15-21.41,19.23.08-.14c-1,4.44-2,8.93-3.23,13.45-.16.57-.29,1.13-.5,1.7-.24.56-.53,1.1-.89,1.6-.68.97-1.42,1.91-2.21,2.8-1.57,1.8-3.24,3.51-5,5.19-7.08,6.82-14.78,12.97-23,18.37-6.5,4.4-13.57,7.92-21,10.46-3.66,1.24-7.51,1.83-11.37,1.75-3.78-.25-7.52-.94-11.14-2.06-3.57-1.08-6.95-2.72-10-4.88-2.99-2.12-5.54-4.81-7.51-7.91-3.95-6.12-5.41-13.32-5.64-20.16-.11-3.44,0-6.82.1-10.16s.14-6.64.21-9.89c.14-6.49.27-12.8.4-18.89s.21-12,.42-17.65c.23-5.43.74-10.84,1.54-16.22,1.34-9.25,3.65-18.34,6.87-27.12,2.89-7.71,6.49-14,10.55-18.2,2.08-2.05,4.09-3.66,5.81-5.08,1.46-1.19,2.98-2.31,4.56-3.34.96-.65,1.98-1.2,3.05-1.66.36-.15.74-.28,1.12-.38l-.27.11c-.28.09-.56.2-.83.32-1.05.48-2.05,1.05-3,1.7-1.56,1.04-3.07,2.17-4.52,3.37-1.71,1.43-3.72,3.06-5.76,5.1-4,4.19-7.57,10.46-10.43,18.16-3.19,8.76-5.46,17.84-6.78,27.07-.78,5.37-1.28,10.77-1.5,16.19-.2,5.64-.25,11.54-.39,17.63s-.25,12.4-.37,18.9c-.07,3.25-.13,6.54-.2,9.88s-.2,6.73-.09,10.14c.23,6.79,1.69,13.89,5.57,19.91.97,1.5,2.08,2.92,3.31,4.22,1.25,1.31,2.61,2.49,4.08,3.55,3.01,2.12,6.34,3.74,9.86,4.8,3.57,1.1,7.27,1.77,11,2,3.81.07,7.59-.51,11.2-1.73,7.38-2.52,14.39-6.02,20.84-10.4,8.19-5.38,15.86-11.5,22.92-18.3,1.72-1.67,3.39-3.37,4.94-5.15.77-.88,1.5-1.8,2.17-2.76.34-.46.61-.95.83-1.48.2-.52.34-1.11.5-1.66,1.24-4.5,2.27-9,3.23-13.42v-.08l.06-.06,21.41-19.21v.32c-6.93-9.53-13.56-18.67-19.76-27.21l.29.06-55.78,33.69-.28.18.05-.33c2.2-13.75,3.94-24.64,5.14-32.11.61-3.72,1.07-6.59,1.39-8.54l.37-2.19c.13-.5.13-.75.13-.75Z"/>
    <path class="st4" d="M366.56,292.43c.17.03.33.08.48.16l1.34.55c.71.28,1.41.6,2.09.95.8.4,1.73.83,2.71,1.4s2.06,1.15,3.17,1.88,2.28,1.53,3.5,2.39c5.23,3.84,9.84,8.48,13.64,13.74.85,1.23,1.68,2.38,2.36,3.52s1.33,2.2,1.86,3.19,1,1.91,1.38,2.71c.35.68.66,1.38.94,2.1.22.54.4,1,.54,1.34.07.16.13.32.16.49-.11-.13-.19-.28-.26-.44-.16-.36-.37-.79-.62-1.31s-.59-1.27-1-2-.85-1.71-1.44-2.66-1.17-2-1.9-3.14-1.53-2.26-2.38-3.47c-3.82-5.18-8.39-9.77-13.54-13.63-1.21-.87-2.33-1.72-3.45-2.41s-2.15-1.37-3.12-1.93-1.87-1-2.66-1.46-1.47-.76-2-1l-1.3-.64c-.36-.23-.51-.31-.5-.33Z"/>
    <path class="st4" d="M426.35,349.02c.2.48.36.98.48,1.49.3,1,.76,2.33,1.46,4,1.87,4.29,4.31,8.3,7.26,11.92,2.99,3.61,6.2,7.04,9.6,10.26l3.06,3c.39.35.75.73,1.07,1.14-.43-.3-.83-.63-1.21-1-.76-.66-1.85-1.63-3.17-2.86-3.5-3.16-6.76-6.58-9.75-10.23-2.99-3.65-5.42-7.73-7.2-12.1-.53-1.33-.97-2.69-1.31-4.08-.13-.49-.19-.88-.24-1.14s-.07-.4-.05-.4Z"/>
    <path class="st4" d="M572.49,397.32c-.06,0-.08-1-.32-2.88-.32-2.6-1.05-5.14-2.18-7.51-1.74-3.48-3.97-6.71-6.6-9.58l-4.57-5.2c-.78-.91-1.6-1.82-2.36-2.82s-1.48-2-2.18-3.1c-2.78-4.29-5.11-8.55-7.4-12.32-1.95-3.38-4.17-6.59-6.65-9.6-2.17-2.51-4.43-4.12-6.23-4.54-.93-.22-1.9-.25-2.85-.1.24-.08.48-.14.73-.18.72-.11,1.46-.08,2.17.08,1.88.38,4.23,2,6.45,4.5,2.54,2.99,4.82,6.2,6.79,9.59,2.31,3.76,4.66,8,7.42,12.28.7,1.06,1.4,2.1,2.16,3.07s1.56,1.89,2.34,2.8c1.57,1.81,3.12,3.54,4.55,5.23,2.64,2.92,4.85,6.2,6.56,9.74,1.11,2.41,1.81,5,2.06,7.64.08.71.12,1.43.12,2.15.01.25.01.5-.01.75Z"/>
    <path class="st4" d="M535.21,342.39c-.04.49-.14.98-.29,1.45-.35,1.3-.81,2.57-1.35,3.8-3.62,8.29-10.91,14.42-19.7,16.56-1.31.32-2.65.55-4,.67-.49.05-.99.05-1.48,0,.48-.12.96-.2,1.45-.24,1.32-.2,2.62-.48,3.9-.83,8.59-2.3,15.72-8.29,19.47-16.36.57-1.2,1.06-2.44,1.48-3.7.14-.46.32-.91.52-1.35Z"/>
    <path class="st4" d="M551.99,367.3c0,.15-.01.3-.06.45-.07.43-.16.86-.28,1.28-.4,1.55-.95,3.05-1.64,4.49-4.62,9.87-14.72,16-25.61,15.54-1.6-.05-3.19-.26-4.75-.62-.55-.11-1-.26-1.25-.34-.15-.03-.3-.08-.43-.16.58.07,1.15.17,1.72.3,12.21,2.36,24.49-3.73,30-14.88.71-1.41,1.3-2.88,1.78-4.39.14-.57.32-1.12.52-1.67Z"/>
    <path class="st4" d="M523.92,455.97c0,.14-27.76.26-62,.26s-62-.12-62-.26,27.75-.26,62-.26,62,.11,62,.26Z"/>
    <path class="st4" d="M371.39,275.31c4.49,7.67,14.34,10.25,22.01,5.77,2.93-1.71,5.24-4.31,6.61-7.42,8.08,5.1,18.76,2.7,23.87-5.38,2.71-4.29,3.4-9.55,1.89-14.39,5.46-.13,9-5.89,10.27-11.2,2.76-12.41-1.19-25.36-10.39-34.13"/>
    <path class="st4" d="M381.75,382.96c.02-.3.1-.6.22-.87.26-.78.57-1.54.93-2.27,2.39-4.91,6.35-8.88,11.25-11.29.73-.37,1.48-.69,2.26-.95.28-.12.57-.19.87-.23,0,.09-1.17.53-3,1.5-4.69,2.56-8.54,6.43-11.06,11.14-.96,1.83-1.39,3-1.47,2.97Z"/>
  </g>
  <polyline class="st10" points="96.36 320.86 45.43 320.86 45.43 307.39 96.36 307.39"/>
  <path class="st0" d="M71.1,334.98l-10.74.28-36.47.11h-.25v-13.7h0l.26-.26,50.93.1"/>
  <path class="st0" d="M74.89,321.74l-50.93.1.26-.25h0v13.45l-.25-.25,36.3.11,10.71.07"/>
  <path class="st0" d="M600.51,113.08l50.93.1h.16v.15c0,4.26-.07,7.64-.09,10v3.28c0,.12-.02.23-.07.34v-3.59c0-2.32-.05-5.67-.09-9.89l.16.16-50.93.1"/>
  <path class="st0" d="M636.88,126.78l10.72.07h3.92-3.8l-10.66.07"/>
  <path class="st0" d="M627.82,99.61l30.6.07h.19v.19c0,4.15-.07,7.53-.1,9.92v2.66c0,.66-.15,1.04-.16,1.02-.01-.08-.01-.17,0-.25v-.72c0-.66,0-1.56-.05-2.7,0-2.36-.06-5.7-.1-9.8l.19.19-30.6.07"/>
  <path class="st0" d="M627.79,113.22l21.9.11,6.37.07h2.34c-.19.01-.37.01-.56,0h-1.67l-6.32.06-22.06.12"/>
</svg>