<?xml version="1.0" encoding="UTF-8"?>
<svg id="Layer_1" xmlns="http://www.w3.org/2000/svg" version="1.1" viewBox="0 0 750 500">
  <!-- Generator: Adobe Illustrator 30.0.0, SVG Export Plug-In . SVG Version: 2.1.1 Build 123)  -->
  <defs>
    <style>
      .st0 {
        fill: #e0e0e0;
      }

      .st1 {
        fill: #aa6550;
      }

      .st2 {
        fill: #b78876;
      }

      .st3 {
        fill: #ffbe9d;
      }

      .st4 {
        fill: #ebebeb;
      }

      .st5 {
        fill: #263238;
      }

      .st6 {
        fill: #eb996e;
      }

      .st7, .st8 {
        fill: #fff;
      }

      .st9 {
        fill: #619bb7;
      }

      .st10 {
        fill: #fafafa;
      }

      .st11 {
        opacity: .78;
      }

      .st12 {
        opacity: .3;
      }

      .st13 {
        fill: #f5f5f5;
      }

      .st14 {
        fill: #455a64;
      }

      .st8 {
        isolation: isolate;
        opacity: .7;
      }
    </style>
  </defs>
  <g id="freepik--background-complete--inject-103">
    <rect class="st0" x="99.64" y="73.95" width="14.11" height="63.25"/>
    <rect class="st0" x="75.07" y="98.52" width="63.25" height="14.11"/>
    <path class="st0" d="M159.22,105.73c-.06-.28-.09-.56-.1-.85,0-.62-.1-1.45-.18-2.5,0-.56-.08-1.17-.12-1.84s-.22-1.41-.34-2.2c-.25-1.83-.62-3.65-1.12-5.43-1.24-4.92-3.21-9.63-5.86-13.96-12.88-21.52-39.23-30.86-62.78-22.25-4.75,1.66-9.21,4.06-13.21,7.11-2.08,1.53-4.05,3.2-5.91,5-1.84,1.88-3.54,3.89-5.11,6-3.25,4.36-5.76,9.21-7.46,14.37-3.59,10.68-3.59,22.25,0,32.93,1.7,5.16,4.21,10.01,7.45,14.37,1.57,2.13,3.27,4.16,5.11,6.06,1.87,1.79,3.84,3.46,5.92,5,2.04,1.52,4.18,2.89,6.4,4.12,2.2,1.15,4.48,2.15,6.81,3,23.56,8.54,49.87-.79,62.78-22.27,2.64-4.32,4.62-9.02,5.86-13.94.5-1.78.87-3.6,1.12-5.43.12-.79.26-1.52.34-2.2s.08-1.28.12-1.84c.08-1,.14-1.88.18-2.5,0-.29.04-.57.1-.85.02.28.02.57,0,.85,0,.62,0,1.46-.07,2.52,0,.55,0,1.17-.06,1.85s-.19,1.41-.3,2.22c-.19,1.85-.53,3.68-1,5.48-1.18,4.99-3.11,9.76-5.74,14.16-12.93,21.98-39.7,31.62-63.67,22.92-2.38-.84-4.7-1.84-6.95-3-2.27-1.24-4.46-2.64-6.54-4.18-2.11-1.58-4.12-3.29-6-5.13-1.88-1.94-3.63-4-5.23-6.17-3.31-4.45-5.89-9.4-7.63-14.67-3.66-10.91-3.66-22.72,0-33.63,1.74-5.27,4.31-10.22,7.63-14.67,1.6-2.17,3.35-4.22,5.22-6.16,1.89-1.84,3.89-3.55,6-5.13,4.09-3.1,8.64-5.53,13.49-7.22,8.97-3.24,18.63-4.01,28-2.24,14.97,2.87,27.98,12.03,35.72,25.16,2.63,4.39,4.56,9.17,5.74,14.15.47,1.8.81,3.64,1,5.49.11.8.24,1.54.3,2.22.06.68,0,1.29.06,1.85,0,1.06.06,1.9.07,2.52.01.3,0,.61-.04.91Z"/>
    <path class="st4" d="M40.97,222.73s-11.86,4.09.23,29.43,20.58,38,20.58,38c0,0,2.11,5.87-2.8,6.64s-15.62-1.24-18,4.68c-2.43,6.14,1.92,12.11,10.91,17.49s28.27,17.88,30,19,3.37,3.86.11,4.92-27.53,2.93-25.95,14.4,29.1,22.32,32.08,23.56,3.67,2.55,3.38,4.2-8.5,1.51-15.38,2.32-14.72,3-13.25,9.51,17.56,20.61,57.42,25.61l18.62,1.1,10.57-15.47c20.6-34.5,19.4-55.85,15.15-61s-10.77-.33-15.65,4.59-9.82,11.48-11.3,10.7-2.08-2.13-1.22-5.25,9.23-31.49,1.17-39.79-24.48,9.68-27.32,11.59-4-1.08-3.81-3.12,2.18-25,3.47-35.35-.68-17.54-7.01-19.4c-6.11-1.8-11.12,7.87-14.75,11.27s-7-1.87-7-1.87c0,0-4.66-14.47-17.2-39.54s-23.29-18.07-23.29-18.07"/>
    <path class="st0" d="M139.82,427.95c-9.14-18.48-24.83-51.61-38.44-80s-26-54-35-72.56c-4.52-9.24-8.18-16.73-10.73-21.93-1.25-2.57-2.23-4.58-2.91-6l-.76-1.51c-.16-.35-.23-.54-.23-.54l.29.51.79,1.53c.7,1.38,1.72,3.37,3,5.92,2.61,5.14,6.34,12.61,10.9,21.85,9.15,18.53,21.57,44.17,35.17,72.53s29.24,61.52,38.29,80.05"/>
    <path class="st0" d="M55.89,304.85c.44.08.88.22,1.29.4.82.28,2,.73,3.43,1.3,2.88,1.15,6.82,2.83,11.13,4.77l11,5,3.35,1.49c.42.15.83.36,1.21.6-.44-.08-.88-.21-1.29-.39-.82-.29-2-.74-3.43-1.33-2.87-1.17-6.78-2.9-11.1-4.84l-11.03-4.9-3.35-1.47c-.42-.17-.83-.38-1.21-.63Z"/>
    <path class="st0" d="M88.63,317.25c-.15-.06,3-8.33,7-18.47s7.34-18.32,7.49-18.27-3,8.33-7,18.48-7.35,18.32-7.49,18.26Z"/>
    <path class="st0" d="M107.57,361.75c.22-.4.49-.78.79-1.13l2.29-3c1.92-2.5,4.57-6,7.36-9.9s5.19-7.58,6.91-10.23c.81-1.24,1.5-2.29,2-3.14.22-.4.5-.77.81-1.11-.16.43-.37.84-.61,1.23-.43.78-1.07,1.89-1.89,3.24-1.63,2.71-4,6.4-6.79,10.34s-5.5,7.39-7.51,9.83c-1,1.21-1.85,2.19-2.44,2.85-.27.38-.57.72-.92,1.02Z"/>
    <path class="st0" d="M75.49,357.05c.42-.03.85,0,1.27.06l3.45.37c2.9.33,6.9.83,11.32,1.42s8.42,1.16,11.31,1.6l3.42.55c.42.04.84.14,1.24.28-.42.03-.85,0-1.27-.06l-3.44-.37c-2.91-.33-6.91-.83-11.33-1.42s-8.42-1.16-11.31-1.6l-3.42-.55c-.42-.04-.84-.14-1.24-.28Z"/>
    <path class="st0" d="M87.22,398.47c.54-.02,1.09,0,1.63.08l4.41.46c3.73.41,8.86,1,14.53,1.71s10.81,1.37,14.52,1.88l4.39.64c.54.05,1.08.16,1.6.31-.54.02-1.09,0-1.63-.09l-4.41-.45c-3.73-.41-8.86-1-14.54-1.71s-10.8-1.37-14.51-1.89l-4.39-.63c-.54-.05-1.08-.16-1.6-.31Z"/>
    <path class="st0" d="M127.35,403.15c.29-.51.63-1,1-1.46.72-1,1.65-2.29,2.77-3.86,2.33-3.26,5.54-7.77,8.93-12.86s6.37-9.76,8.49-13.17l2.52-4c.29-.51.63-.99,1-1.44-.21.54-.47,1.07-.78,1.56-.54,1-1.34,2.4-2.36,4.13-2,3.46-4.94,8.18-8.35,13.27s-6.67,9.58-9.09,12.79c-1.21,1.6-2.21,2.88-2.92,3.75-.36.47-.77.9-1.21,1.29Z"/>
    <path class="st13" d="M598.87,419.63c-27.48-16.82-35.52-50.66-36.34-81.45-.13-5.14-1-10.52,1.15-15.17s7.67-8.07,12.4-6.18c3.92,1.56,5.84,5.89,8.2,9.43,3.14,4.72,7.55,8.45,12.72,10.77,3.37,1.5,7.48,2.29,10.59.31,4.28-2.7,4.43-8.85,4.09-13.95-.63-9.51-1.27-19.01-1.9-28.52-.33-5.1-.66-10.31.63-15.25s4.53-9.65,9.3-11.3,11,.79,12.27,5.72c.55,2.05.26,4.23.53,6.34s1.4,4.4,3.45,4.87,4-1.1,5.46-2.69c5-5.46,8.13-12.32,11.07-19.12s5.77-13.75,10.21-19.66,10.78-10.76,18.07-11.62,15.34,3.19,17.62,10.25-1.47,14.64-5.69,20.73c-6.25,9.04-13.78,17.12-22.35,24-1.54,1.24-3.21,2.58-3.71,4.51-.9,3.46,2.53,6.65,5.95,7.56,3.88,1,8,.4,12,.62s8.42,1.73,10.16,5.4c2.4,5.09-1.63,10.82-5.71,14.66-8.17,7.69-17.59,13.91-27.87,18.41-3.67,1.6-7.54,3-10.41,5.86s-4.42,7.52-2.37,11,6.81,4.35,10.69,3.39,7.28-3.32,10.94-5c6.85-3.07,15.94-3.13,20.8,2.66,3.19,3.81,3.78,9.34,2.58,14.18s-4,9.11-7,13.07c-10.44,13.87-24.19,25.35-40.11,32s-30.91,9.06-47.43,4.12"/>
    <path class="st0" d="M605.64,399.89c3.59-15.79,8.95-32.76,15.18-50.32l4.65-13c1.54-4.26,3.07-8.48,4.81-12.52,3.37-7.75,7.17-15.3,11.37-22.63,4-7,8-13.54,11.78-19.61s7.48-11.65,11-16.6c5.57-7.84,11.76-15.22,18.5-22.08,2.38-2.42,4.28-4.25,5.59-5.46l1.5-1.38c.16-.16.34-.31.53-.44-.13.19-.29.36-.46.51l-1.44,1.45c-1.26,1.26-3.13,3.12-5.46,5.58-6.62,6.94-12.71,14.36-18.22,22.21-3.51,5-7.14,10.55-10.92,16.63s-7.75,12.62-11.65,19.64c-4.16,7.31-7.92,14.84-11.27,22.56-1.73,4-3.24,8.21-4.78,12.48l-4.65,13c-6.22,17.55-11.59,34.47-15.22,50.2"/>
    <path class="st0" d="M630.55,324.01c-.28-.69-.49-1.41-.63-2.15-.35-1.39-.8-3.42-1.31-5.94-1-5-2.21-12.05-3.48-19.77s-2.56-14.7-3.66-19.71c-.54-2.5-1-4.53-1.34-5.92-.22-.72-.36-1.45-.42-2.2.33.67.59,1.37.77,2.1.45,1.37,1,3.37,1.64,5.87,1.27,5,2.66,12,3.93,19.7s2.36,14.53,3.21,19.8c.41,2.38.75,4.39,1,6,.17.73.27,1.47.29,2.22Z"/>
    <path class="st0" d="M695.4,307.79c-.85.24-1.72.39-2.6.47-1.67.25-4.09.6-7.08,1.13-6,1-14.16,2.7-23.12,4.95s-17,4.68-22.74,6.58c-2.88.93-5.2,1.75-6.8,2.31-.81.34-1.66.6-2.52.78.76-.45,1.56-.83,2.39-1.13,1.57-.66,3.85-1.58,6.72-2.6,5.71-2.07,13.73-4.58,22.72-6.86,7.66-1.96,15.42-3.53,23.25-4.69,3-.45,5.45-.7,7.14-.84.87-.12,1.76-.16,2.64-.1Z"/>
    <path class="st0" d="M606.37,398.63c-.2-.23-.37-.49-.5-.77l-1.26-2.31c-1.09-2-2.59-5-4.4-8.61-3.62-7.33-8.3-17.6-13.31-29s-9.59-21.71-13.05-29.1l-4.12-8.74-1.11-2.39c-.15-.27-.26-.56-.33-.86.2.23.37.49.5.77.34.63.75,1.39,1.26,2.31,1.09,2,2.59,4.95,4.4,8.61,3.62,7.33,8.3,17.6,13.31,29s9.59,21.72,13,29.11c1.7,3.59,3.09,6.54,4.12,8.74.45.95.81,1.74,1.11,2.38.17.27.3.56.38.86Z"/>
    <path class="st0" d="M691.85,365.28c-.26.17-.54.31-.84.4l-2.48,1-9.15,3.58c-7.73,3-18.36,7.35-30.09,12.12s-22.41,9-30.21,11.87c-3.89,1.44-7.06,2.57-9.26,3.31l-2.54.83c-.29.12-.6.19-.91.23.26-.17.55-.31.85-.41l2.48-1,9.15-3.59c7.73-3,18.35-7.34,30.09-12.12s22.41-9,30.2-11.87c3.9-1.43,7.06-2.56,9.26-3.3l2.54-.84c.29-.11.6-.18.91-.21Z"/>
  </g>
  <g id="freepik--Device--inject-103">
    <rect class="st14" x="125.7" y="109.74" width="498.15" height="329.42" rx="14.57" ry="14.57"/>
    <path class="st14" d="M106.23,417.89h539.71v11c0,9.83-7.97,17.8-17.8,17.8H124.03c-9.83,0-17.8-7.97-17.8-17.8,0,0,0-11,0-11Z"/>
    <rect class="st5" x="139.07" y="122.83" width="470.02" height="278.19"/>
    <polygon class="st5" points="325.67 414.8 332.37 425.45 426.61 425.45 432.83 414.8 325.67 414.8"/>
    <rect class="st4" x="148.75" y="132.25" width="451.62" height="267.89" rx="3.27" ry="3.27"/>
    <polygon class="st7" points="600.38 401.49 148.56 401.49 149.39 153.23 600.38 153.23 600.38 401.49"/>
    <path class="st5" d="M186.59,142.59c0,1.99-1.62,3.61-3.61,3.61s-3.61-1.62-3.61-3.61,1.62-3.61,3.61-3.61,3.61,1.62,3.61,3.61h0Z"/>
    <path class="st5" d="M164.73,142.59c0,1.99-1.62,3.61-3.61,3.61s-3.61-1.62-3.61-3.61,1.62-3.61,3.61-3.61,3.61,1.62,3.61,3.61h0Z"/>
    <path class="st5" d="M175.66,142.59c0,1.99-1.62,3.61-3.61,3.61s-3.61-1.62-3.61-3.61c0-1.99,1.62-3.61,3.61-3.61,0,0,0,0,0,0,1.99,0,3.6,1.62,3.6,3.61Z"/>
    <path class="st5" d="M603.43,414.88c0,.18-103,.32-230,.32s-230-.14-230-.32,103-.33,230.05-.33,229.95.15,229.95.33Z"/>
    <rect class="st9" x="148.75" y="356.42" width="451.7" height="44.93"/>
    <rect class="st8" x="148.75" y="356.42" width="451.7" height="44.93"/>
    <circle class="st9" cx="422.61" cy="379.1" r="16.68"/>
    <path class="st7" d="M422.6,382.82c-1.66,0-3-1.34-3-3h0v-6.55c0-1.66,1.34-3,3-3s3,1.34,3,3v6.55c0,1.66-1.34,3-3,3h0ZM422.6,370.88c-1.31,0-2.37,1.07-2.38,2.38v6.55c0,1.31,1.07,2.38,2.38,2.38s2.38-1.07,2.38-2.38v-6.55c0-1.31-1.07-2.37-2.38-2.38Z"/>
    <path class="st7" d="M422.6,384.95c-1.58.09-3.13-.52-4.22-1.67-1.92-2.12-1.61-5.44-1.6-5.58,0-.18.13-.33.3-.34.18,0,.33.13.34.3,0,.03,0,.06,0,.09,0,0-.29,3.19,1.44,5.1.98,1.01,2.35,1.54,3.75,1.46,1.42.07,2.8-.46,3.8-1.46,1.85-1.92,1.74-5.09,1.74-5.12-.01-.17.12-.32.29-.33,0,0,0,0,.01,0,.17,0,.31.14.33.31,0,.14.11,3.47-1.91,5.58-1.13,1.12-2.67,1.72-4.26,1.65Z"/>
    <path class="st7" d="M422.6,389.54c-.17,0-.31-.14-.32-.31v-4.61c0-.18.14-.32.32-.32h0c.17,0,.31.14.31.31,0,0,0,0,0,.01v4.61c0,.17-.14.31-.31.31Z"/>
    <circle class="st9" cx="334.02" cy="379.1" r="16.68"/>
    <path class="st7" d="M328.71,380.72c-.91,0-1.65-.74-1.65-1.65,0-.91.74-1.65,1.65-1.65.91,0,1.65.74,1.65,1.65h0c0,.91-.72,1.64-1.63,1.65,0,0-.01,0-.02,0Z"/>
    <path class="st7" d="M333.83,380.72c-.91.07-1.7-.61-1.77-1.52-.07-.91.61-1.7,1.52-1.77.09,0,.17,0,.26,0,.91.07,1.59.86,1.52,1.77-.06.81-.71,1.45-1.52,1.52Z"/>
    <path class="st7" d="M339.3,380.72c-.91,0-1.65-.74-1.65-1.65,0-.91.74-1.65,1.65-1.65.91,0,1.65.74,1.65,1.65h0c0,.91-.74,1.65-1.65,1.65Z"/>
    <circle class="st9" cx="378.3" cy="379.07" r="16.4"/>
    <path class="st7" d="M376.84,374.54c-1.23-.97-3.01-.76-3.98.46-.1.13-.19.26-.26.4-.4.71-.23,1.61.4,2.13,1.5,1.48,4.67,4.45,6,5.73.75.72,1.78,1.05,2.81.91.81-.11,1.53-.56,2-1.23,1.55-2.13-2.17-3.79-2.17-3.79l-1.62,1.71-3.72-3.66,1.66-1.83-1.12-.83Z"/>
    <path class="st4" d="M568.93,196.57h0c-9.39,0-17-7.61-17-17h0c0-9.39,7.61-17,17-17h0c9.39,0,17,7.61,17,17h0c0,9.39-7.61,17-17,17Z"/>
    <path class="st5" d="M568.3,179.71c1.43-.46,2.22-1.99,1.77-3.42-.46-1.43-1.99-2.22-3.42-1.77s-2.22,1.99-1.77,3.42c.27.84.93,1.5,1.77,1.77-2.3.35-4,2.33-4,4.66h9.46c.01-2.27-1.59-4.22-3.81-4.66Z"/>
    <path class="st5" d="M573.64,180.51c-.21,0-.38-.16-.39-.37,0,0,0-.01,0-.02v-4.35c0-.22.17-.39.39-.39s.39.17.39.39v4.35c0,.21-.16.38-.37.39,0,0-.01,0-.02,0Z"/>
    <path class="st5" d="M575.82,178.34h-4.36c-.21,0-.38-.18-.39-.39,0-.22.17-.39.39-.39h4.36c.22,0,.39.17.39.39h0c0,.21-.18.38-.39.39Z"/>
    <polygon class="st10" points="257.62 401.43 148.75 400.91 148.75 153.17 257.62 153.17 257.62 401.43"/>
    <path class="st5" d="M257.62,399.42c-.15,0-.26-55.13-.26-123.12s.11-123.13.26-123.13.26,55.12.26,123.13-.12,123.12-.26,123.12Z"/>
    <path class="st0" d="M254.3,353.79c0,.14-23.17.26-51.74.26s-51.76-.12-51.76-.26,23.17-.27,51.76-.27,51.74.12,51.74.27Z"/>
    <path class="st0" d="M230.3,217.54v2.41h-.25v-2.2h-.57v-.22h.82Z"/>
    <path class="st0" d="M231.57,217.54v2.41h-.27v-2.2h-.57v-.22h.84Z"/>
    <path class="st0" d="M232.15,218.31c0-.1.08-.18.18-.18,0,0,0,0,.01,0,.09,0,.17.07.18.16,0,0,0,.01,0,.02,0,.1-.07.18-.17.19,0,0,0,0-.01,0-.1,0-.19-.09-.19-.19h0ZM232.15,219.79c0-.1.09-.19.19-.19h0c.1,0,.19.09.19.19s-.09.19-.19.19-.19-.09-.19-.19h0Z"/>
    <path class="st0" d="M234.54,219.74v.21h-1.7v-.17l1-1c.27-.27.33-.44.33-.6s-.2-.46-.57-.46c-.25-.01-.5.08-.67.27l-.17-.15c.22-.24.54-.37.86-.35.49,0,.8.25.8.66-.01.3-.16.58-.4.76l-.82.81,1.34.02Z"/>
    <path class="st0" d="M236.5,219.25c0,.41-.29.73-.88.73-.32.01-.63-.1-.87-.31l.12-.2c.2.2.47.3.75.29.41,0,.63-.21.63-.5s-.2-.51-.81-.51h-.52l.12-1.21h1.33v.22h-1.07l-.08.77h.31c.69,0,.97.29.97.72Z"/>
    <path class="st0" d="M232.79,330.66v2.43h-.25v-2.21h-.57v-.22h.82Z"/>
    <path class="st0" d="M234.04,330.66v2.43h-.25v-2.21h-.57v-.22h.82Z"/>
    <path class="st0" d="M234.63,331.44c0-.1.07-.18.17-.19,0,0,0,0,.01,0,.1,0,.19.09.19.19h0c0,.1-.09.18-.19.19-.1,0-.18-.09-.18-.19ZM234.63,332.91c0-.1.08-.18.18-.18.1,0,.18.08.19.18,0,.11-.08.19-.19.2-.09,0-.17-.07-.18-.16v-.04Z"/>
    <path class="st0" d="M237.42,332.45h-.48v.64h-.25v-.64h-1.39v-.18l1.28-1.61h.28l-1.24,1.57h1v-.56h.25v.56h.48l.07.22Z"/>
    <path class="st0" d="M239.3,332.37c0,.42-.29.74-.88.74-.32.01-.63-.1-.87-.31l.12-.2c.21.19.47.29.75.28.41,0,.63-.2.63-.5s-.2-.5-.81-.5h-.52l.13-1.22h1.32v.22h-1.11l-.08.77h.32c.7,0,1,.3,1,.72Z"/>
    <path class="st4" d="M217.38,212.4h-48.56l-.14-21.12c-.08-11.74,9.37-21.33,21.11-21.41.05,0,.1,0,.15,0h27.44c11.75,0,21.27,9.52,21.27,21.27h0c0,11.74-9.53,21.26-21.27,21.26Z"/>
    <path class="st0" d="M240.1,390.37h-77c-5.2,0-9.41-4.22-9.42-9.42v-.41c0-5.2,4.22-9.41,9.42-9.42h77c5.2,0,9.41,4.22,9.42,9.42v.41c0,5.2-4.22,9.41-9.42,9.42ZM163.1,371.71c-4.87,0-8.82,3.96-8.83,8.83v.41c0,4.87,3.96,8.82,8.83,8.83h77c4.87,0,8.82-3.96,8.83-8.83v-.41c0-4.87-3.96-8.82-8.83-8.83h-77Z"/>
    <path class="st9" d="M245.35,380.45c0,2.65-2.13,4.79-4.78,4.8-2.65,0-4.79-2.13-4.8-4.78,0-2.65,2.13-4.79,4.78-4.8h0c2.64,0,4.78,2.13,4.79,4.77,0,0,0,0,0,.01Z"/>
    <path class="st7" d="M240.44,383.41h0c-.06,0-.11-.05-.13-.11l-.62-2.27-2.12-.75c-.06-.02-.1-.08-.1-.14,0-.06.04-.11.1-.13l5-1.79s.11-.03.16,0c.04.05.04.11,0,.16l-2.17,4.9c0,.07-.05.12-.12.13ZM238.05,380.14l1.81.64s.07.06.09.1l.52,1.94,1.86-4.21-4.28,1.53Z"/>
    <path class="st7" d="M239.81,381.07s-.08-.02-.11-.05c-.06-.06-.06-.15,0-.21l2.8-2.56c.07-.05.16-.03.21.04.04.06.03.13,0,.18l-2.8,2.56s-.06.04-.09.04Z"/>
    <path class="st5" d="M175.74,379.15h-.92v-.2h2.13v.24h-.93v2.39h-.28v-2.43Z"/>
    <path class="st5" d="M178.87,379.57l-1,2.21c-.07.3-.35.51-.66.51-.18,0-.35-.06-.48-.18l.13-.2c.09.1.22.16.36.15.17,0,.29-.08.41-.33l.08-.19-.88-2h.28l.74,1.68.75-1.68.27.03Z"/>
    <path class="st5" d="M181.3,380.55c0,.55-.45,1-1,1-.3.01-.59-.14-.75-.39v1.1h-.25v-2.7h.25v.39c.16-.26.45-.42.76-.41.55,0,1,.46.99,1.01h0ZM181.03,380.55c-.02-.41-.37-.72-.78-.7-.41.02-.72.37-.7.78.02.4.35.7.75.7.4-.03.71-.37.68-.78,0,0,0,0,0,0h.05Z"/>
    <path class="st5" d="M183.52,380.64h-1.66c.03.4.37.71.78.69.23,0,.45-.09.61-.26l.15.17c-.33.44-.95.54-1.4.21-.28-.21-.44-.55-.4-.9,0-.55.45-1,1-1,.52-.03.97.36,1,.88,0,.04,0,.08,0,.12l-.08.09ZM181.86,380.44h1.44c-.05-.39-.4-.67-.79-.62-.33.04-.58.3-.62.62h-.03Z"/>
    <path class="st5" d="M186.55,380.32v1.22h-.25v-.31c-.15.23-.41.36-.68.33-.45,0-.72-.23-.72-.57s.19-.56.76-.56h.64v-.12c.03-.27-.17-.51-.44-.53-.04,0-.08,0-.12,0-.24,0-.48.08-.66.24l-.12-.2c.23-.18.51-.28.8-.27.39-.05.74.23.79.62,0,.05,0,.1,0,.15ZM186.3,380.95v-.32h-.62c-.39,0-.51.15-.51.35s.18.37.5.37c.27.02.53-.15.63-.4Z"/>
    <path class="st5" d="M191.52,380.4v1.14h-.22v-1.12c0-.41-.21-.63-.56-.63-.35-.02-.65.25-.67.6,0,.04,0,.08,0,.12v1h-.26v-1.12c0-.41-.21-.63-.57-.63-.35-.02-.65.25-.67.6,0,.04,0,.08,0,.12v1h-.27v-2h.25v.47c.16-.25.44-.4.73-.38.3-.02.58.14.7.42.16-.27.46-.43.78-.42.41,0,.76.32.76.74,0,.03,0,.06,0,.09Z"/>
    <path class="st5" d="M193.98,380.64h-1.68c.03.4.37.71.78.69.23,0,.45-.09.61-.26l.15.17c-.33.44-.95.54-1.4.21-.28-.21-.44-.55-.4-.9,0-.55.45-1,1-1,.52-.03.97.36,1,.88,0,.04,0,.08,0,.12l-.06.09ZM192.32,380.44h1.4c-.01-.38-.32-.67-.7-.66,0,0,0,0,0,0-.38-.02-.7.28-.72.66,0,0,0,0,0,0h.02Z"/>
    <path class="st5" d="M194.3,381.32l.12-.21c.21.14.46.22.71.22.37,0,.53-.13.53-.32,0-.52-1.29-.11-1.29-.9,0-.32.28-.56.79-.56.24,0,.48.06.69.18l-.11.22c-.17-.12-.37-.17-.58-.17-.36,0-.52.14-.52.33,0,.53,1.28.13,1.28.89,0,.34-.3.56-.81.56-.29.01-.57-.07-.81-.24Z"/>
    <path class="st5" d="M196.09,381.32l.12-.21c.21.14.45.22.7.22.38,0,.53-.13.53-.32,0-.52-1.28-.11-1.28-.9,0-.32.28-.56.78-.56.25,0,.49.06.7.18l-.11.22c-.17-.12-.38-.18-.59-.17-.35,0-.51.14-.51.33,0,.53,1.28.13,1.28.89,0,.34-.3.56-.81.56-.29.01-.57-.07-.81-.24Z"/>
    <path class="st5" d="M199.7,380.32v1.22h-.26v-.31c-.15.23-.41.36-.68.33-.45,0-.72-.23-.72-.57s.19-.56.76-.56h.63v-.12c.03-.27-.17-.51-.44-.53-.04,0-.08,0-.12,0-.24,0-.48.08-.66.24l-.12-.2c.23-.18.52-.28.81-.27.39-.05.75.22.8.61,0,.05,0,.11,0,.16ZM199.43,380.95v-.32h-.62c-.38,0-.51.15-.51.35s.19.37.5.37c.27.02.53-.14.63-.4h0Z"/>
    <path class="st5" d="M202.3,379.57v1.73c.08.47-.24.92-.72,1-.09.02-.19.02-.28,0-.33.01-.66-.09-.92-.3l.14-.21c.22.18.5.28.78.27.5,0,.73-.22.73-.71v-.26c-.17.26-.47.41-.78.39-.53.15-1.09-.15-1.24-.68-.15-.53.15-1.09.68-1.24.18-.05.38-.05.56,0,.32-.01.62.14.79.4v-.38h.26ZM202.04,380.51c.02-.41-.31-.76-.72-.78s-.76.31-.78.72c-.02.41.31.76.72.78,0,0,.02,0,.03,0,.39,0,.71-.32.71-.71,0,0,0,0,0-.01h.04Z"/>
    <path class="st5" d="M204.73,380.64h-1.65c.02.4.36.71.77.69,0,0,0,0,.01,0,.23,0,.45-.09.6-.26l.15.17c-.2.21-.47.33-.76.32-.55,0-1-.45-1-1-.14-.53.17-1.08.7-1.23.53-.14,1.08.17,1.23.7.05.17.05.35,0,.52,0,0-.05.05-.05.08ZM203.08,380.44h1.4c0-.39-.32-.7-.7-.7-.38,0-.7.31-.7.7Z"/>
    <path class="st5" d="M205.11,381.36c0-.11.09-.2.2-.2.11,0,.2.09.2.2h0c0,.11-.09.2-.2.2-.11,0-.2-.09-.2-.2Z"/>
    <path class="st5" d="M205.91,381.36c0-.11.09-.2.2-.2.11,0,.2.09.2.2h0c0,.11-.09.2-.2.2-.11,0-.2-.09-.2-.2Z"/>
    <path class="st5" d="M206.7,381.36c0-.11.08-.2.19-.21,0,0,0,0,.01,0,.11-.03.23.05.25.16.03.11-.05.23-.16.25-.03,0-.06,0-.09,0-.11,0-.2-.09-.2-.2h0Z"/>
    <path class="st0" d="M163.03,382.39c-.37.44-1.03.5-1.47.13s-.5-1.03-.13-1.47h0l2.16-2.58c.22-.3.64-.36.94-.14.02.02.04.03.06.05.28.24.32.66.08.95l-1.83,2.19h0c-.14.11-.34.11-.48,0-.14-.12-.17-.32-.09-.48l1.4-1.69-.19-.16-1.35,1.62h0l-.06.07h0c-.16.27-.11.61.13.81.23.2.58.2.81,0h0l1.79-2.14h0c.31-.39.25-.96-.13-1.28-.38-.32-.95-.28-1.29.09h0l-2.25,2.7h0c-.45.55-.37,1.37.18,1.82s1.37.37,1.82-.18h0l1.81-2.18-.19-.16-1.72,2.03Z"/>
    <path class="st5" d="M223.41,181.54c0,.09-9.18.16-20.5.16s-20.5-.07-20.5-.16,9.17-.16,20.5-.16,20.5.07,20.5.16Z"/>
    <path class="st5" d="M223.41,186.61c0,.09-9.18.16-20.5.16s-20.5-.07-20.5-.16,9.17-.16,20.5-.16,20.5.07,20.5.16Z"/>
    <path class="st5" d="M223.41,191.68c0,.09-9.18.16-20.5.16s-20.5-.07-20.5-.16,9.17-.16,20.5-.16,20.5.07,20.5.16Z"/>
    <path class="st5" d="M223.41,196.75c0,.09-9.18.16-20.5.16s-20.5-.07-20.5-.16,9.17-.16,20.5-.16,20.5.07,20.5.16Z"/>
    <path class="st5" d="M202.98,201.82c-.27.05-.54.07-.81.06l-2.2.06h-14.55l-2.21-.06c-.27.01-.54,0-.8-.06.26-.05.53-.07.8-.06l2.21-.05h14.55l2.2.05c.27,0,.54.02.81.06Z"/>
    <path class="st4" d="M179.56,228.02h30c6.01-.03,10.9,4.82,10.93,10.83,0,.03,0,.07,0,.1v1.33c0,6.01-4.87,10.88-10.88,10.88h-40.93v-12.21c-.03-6.01,4.82-10.9,10.83-10.93.02,0,.03,0,.05,0Z"/>
    <path class="st5" d="M212.61,236.79c0,.09-8.07.17-18,.17s-18-.08-18-.17,8.07-.16,18-.16,18,.08,18,.16Z"/>
    <path class="st5" d="M198.57,242.42c-.28.04-.57.06-.86.06l-2.36.05c-2,0-4.75.05-7.79.05s-5.79,0-7.78-.05l-2.36-.05c-.29,0-.58-.02-.87-.06.29-.05.58-.08.87-.07h20.29c.29,0,.58.02.86.07Z"/>
    <path class="st0" d="M170.85,300.45v2.43h-.25v-2.21h-.57v-.22h.82Z"/>
    <path class="st0" d="M172.1,300.45v2.43h-.25v-2.21h-.55v-.22h.8Z"/>
    <path class="st0" d="M172.68,301.23c0-.1.07-.18.17-.19,0,0,.01,0,.02,0,.1,0,.19.09.19.19s-.09.19-.19.19c-.1,0-.18-.07-.19-.17,0,0,0-.01,0-.02ZM172.68,302.71c0-.1.07-.18.17-.19,0,0,.01,0,.02,0,.1,0,.18.08.18.18,0,0,0,0,0,.01.02.1-.04.2-.14.23-.1.02-.2-.04-.23-.14,0-.03,0-.06,0-.09Z"/>
    <path class="st0" d="M175.02,302.18c0,.41-.3.72-.88.72-.32.01-.64-.1-.88-.31l.13-.2c.2.19.47.29.75.28.4,0,.62-.19.62-.49s-.2-.48-.65-.48h-.18v-.18l.68-.85h-1.25v-.22h1.57v.18l-.69.86c.52.03.78.3.78.69Z"/>
    <path class="st0" d="M175.37,301.67c0-.78.4-1.24,1-1.24s1,.46,1,1.24-.41,1.23-1,1.23-1-.46-1-1.23ZM177.05,301.67c0-.65-.29-1-.71-1s-.72.36-.72,1,.29,1,.72,1,.71-.36.71-1Z"/>
    <path class="st4" d="M240.69,294.24h-63.18c-6.01,0-10.88-4.87-10.88-10.88h0v-1.33c0-6.01,4.87-10.88,10.88-10.88h52.3c6.01,0,10.88,4.87,10.88,10.88h0v12.21h0Z"/>
    <path class="st5" d="M228.69,279.68c0,.09-11.38.16-25.42.16s-25.43-.07-25.43-.16,11.39-.16,25.43-.16,25.42.07,25.42.16Z"/>
    <path class="st5" d="M228.69,285.16c0,.09-11.38.16-25.42.16s-25.43-.07-25.43-.16,11.39-.16,25.43-.16,25.42.07,25.42.16Z"/>
    <path class="st4" d="M177.67,314.27h30c6.01,0,10.88,4.87,10.88,10.88h0v1.33c0,6.01-4.87,10.88-10.88,10.88h-40.88v-12.2c0-6.01,4.86-10.88,10.87-10.89h0Z"/>
    <path class="st5" d="M211.77,322.67c0,.09-8.54.16-19.08.16s-19.07-.07-19.07-.16,8.54-.16,19.07-.16,19.08.07,19.08.16Z"/>
    <path class="st5" d="M198.15,328.15c-.33.06-.67.09-1,.07l-2.63.05c-2.22,0-5.29.05-8.67.05s-6.46,0-8.68-.05l-2.63-.05c-.33.02-.67,0-1-.07.33-.05.67-.07,1-.06l2.63-.05h17.35l2.63.05c.33,0,.67.01,1,.06Z"/>
  </g>
  <g id="freepik--Hearts--inject-103">
    <path class="st9" d="M715.79,156.59c-1.1-8.91-8.63-17.21-17.61-17.22-5.29,0-10.33,2.77-14,6.64-1.29,1.31-2.47,2.71-3.54,4.2-.76-1.67-1.65-3.27-2.65-4.81-2.79-4.51-7.18-8.22-12.38-9.26-8.79-1.76-17.81,4.9-20.65,13.41s-.47,18.07,4.19,25.73,12.74,17.67,27.53,22.67c10.2-1.3,23.86-10.35,29.94-17s10.28-15.46,9.17-24.36Z"/>
    <path class="st10" d="M712.56,172.58h-.26l-.86-.06-3.32-.27-12.21-1.12.22-.13-5.08,13.25-.31.8-.2-.83c-1.55-6.43-3.28-13.64-5.11-21.23-.56-2.36-1.12-4.67-1.66-6.93l.52.1-9.35,12.79-.09.12h-.15l-21.4-2.23-6.07-.68-1.61-.2c-.19-.02-.37-.05-.55-.09.19-.02.37-.02.56,0l1.61.12,6.09.53,21.46,2-.24.11,9.27-12.84.37-.51.15.62c.54,2.26,1.09,4.57,1.66,6.92l5.06,21.24h-.51l5.19-13.22.06-.15h.16l12.18,1.31,3.31.38.86.12.25.08Z"/>
    <path class="st9" d="M112.22,188.08c-2-5.75-8.19-10.19-14.15-8.92-3.53.9-6.54,3.22-8.32,6.4-.67,1.05-1.25,2.15-1.75,3.29-.75-1-1.57-1.94-2.45-2.82-2.45-2.7-5.9-4.28-9.54-4.38-6.09.09-11.14,5.8-11.81,11.85s2.27,12.07,6.46,16.5c5.57,6.2,13.2,10.16,21.48,11.13,6.59-2.32,14.38-10.28,17.47-15.53s4.62-11.76,2.61-17.52Z"/>
    <path class="st10" d="M112.36,199.17h-.2l-.58.09-2.25.29-8.26,1,.12-.12c-.43,2.75-.93,6-1.48,9.52l-.09.58-.25-.53-6.43-13.37-2.09-4.36h.36l-4.36,9.84v.09h-.1l-14.56,1.57-4.13.42-1.09.09c-.13.01-.25.01-.38,0,.12-.04.24-.06.37-.07l1.09-.15,4.11-.52,14.55-1.71-.15.1,4.33-9.85.17-.39.19.39,2.05,4.42c2.29,4.79,4.46,9.33,6.39,13.39l-.34.05,1.56-9.52v-.11h.1l8.28-.87,2.26-.22h.59l.22-.05Z"/>
  </g>
  <g id="freepik--character-1--inject-103">
    <path class="st10" d="M436.67,330.95l4.32,4.32c.47.46,1.1.72,1.76.73,1.38,0,2.49-1.1,2.5-2.48,0,0,0-.01,0-.02,0-.66-.27-1.29-.73-1.76l-4.32-4.32c-.95-.97-2.52-.99-3.49-.04-.01.01-.02.02-.04.04-.47.47-.74,1.1-.74,1.76.01.66.28,1.3.74,1.77Z"/>
    <path class="st14" d="M452.35,265.8c-3.22.35-6.46.35-9.68,0,3.22-.35,6.46-.35,9.68,0Z"/>
    <path class="st2" d="M486.15,154.36c-1.71-5.19,1.38-23.8-2.69-23.83-5.2-.05-3.71,21-3.72,22.92s-2.73,1.86-2.63.16c.14-2.44,1-26.49-4.24-26.07-2.89.23-2.52,5.48-2.52,5.48,0,0,1.61,24.06-.85,24.18s-3.34-13.92-3.54-18.86c-.2-4.73-2.19-6.61-4.37-5s-1.74,15.83-1.62,20.58.68,17.76-4.81,11.43-12-9.18-14.32-8.73-2.4,3.8-.05,4.89c1.9.88,4.64,3.32,6.62,5.24,1.53,1.66,2.88,3.48,4,5.44,1.54,2.46,2.66,5.17,3.31,8,1.1,4.51,4.08,8.32,8.19,10.48h0l-.26,8.82,25.35-2.2.49-16.68c.26-12.75,2.49-21.33,3.83-28.91,2.15-12.09.59-12.46-.86-12.39-3.16.11-3.63,20.11-5.31,15.05Z"/>
    <path class="st1" d="M486.15,170.72c-1.18.22-2.34.51-3.48.87-2.7,1-5.01,2.85-6.58,5.27-.47.74-.86,1.52-1.17,2.34l-.15.38-.31-.26c-1.76-1.46-3.74-2.63-5.88-3.45-1.6-.62-2.62-.83-2.6-.92.94.04,1.86.23,2.73.57,2.23.72,4.31,1.86,6.12,3.35l-.46.13c.32-.86.72-1.68,1.21-2.46.9-1.38,2.04-2.58,3.38-3.55,1.09-.78,2.3-1.39,3.57-1.8.86-.27,1.74-.45,2.64-.51.33-.04.66-.02.98.04Z"/>
    <path class="st1" d="M482.62,188.55c-1.92.96-4.01,1.55-6.15,1.72-2.12.36-4.29.31-6.39-.15,0-.18,2.85,0,6.31-.45s6.18-1.29,6.23-1.12Z"/>
    <path class="st0" d="M414.58,189.31s13.21,6.75,20.16,16.47,27.94,39.86,27.94,39.86l-3-45.74,32.42-4.2s9.43,46.07,11.64,62c2.06,14.91,1.2,29.58-13.36,37.58-17.18,9.44-36.69-3.31-43.18-8.15-8.06-6-22.94-15.81-22.94-15.81l-9.68-82.01Z"/>
    <polygon class="st9" points="398.29 183.6 389.04 173.27 348.61 170.17 343.37 178.64 357.54 267.08 351.15 356.42 403.84 356.42 398.29 183.6"/>
    <g class="st12">
      <path d="M353.6,335.17c1.39-1.48,3.67-3.53,5.7-3.57,14.56-.32,29.43-1.78,44-2.1l.56,26.92-7.09-3.32c-.4-3-.91-6.71-3.7-8-1.58-.75-3.43-.46-5.14-.12-5.26,1-10.48,2.4-15.83,2.73s-10.95-.44-15.44-3.37c-1.6-.94-2.88-2.33-3.69-4-.81-1.7-.56-3.71.63-5.17Z"/>
    </g>
    <polygon class="st0" points="389.04 173.27 414.94 190.03 420.42 208.01 425.65 264.07 419.88 321.44 429.86 356.42 403.84 356.42 403.79 342.62 401.01 245.48 398.29 183.6 389.04 173.27"/>
    <path class="st5" d="M402.99,258.87c.16-.23.3-.47.43-.72.28-.52.67-1.23,1.15-2.13s.94-2.13,1.55-3.5c.28-.69.52-1.45.8-2.25s.59-1.64.82-2.55c2.18-7.2,3.63-17.59,3.32-29.06,0-.89-.06-1.77-.12-2.64v-.15l-.14-.06-4.06-1.71.06.42,4.05-3.25.09-.07v-.1c.04-3.94-.59-7.86-1.85-11.6-1-3.39-2.13-6.31-3.11-8.71s-1.84-4.28-2.45-5.56c-.3-.64-.54-1.12-.71-1.45-.08-.17-.17-.34-.28-.49.05.18.12.35.2.52l.65,1.49c.56,1.29,1.37,3.19,2.31,5.6s2,5.34,3,8.72c1.21,3.69,1.81,7.56,1.76,11.44l.09-.17-4.06,3.25-.32.26.38.16,4.05,1.71-.15-.21c.06.85.09,1.73.12,2.61.31,11.42-1.07,21.77-3.16,29-.22.91-.52,1.75-.78,2.55s-.49,1.56-.76,2.25c-.58,1.37-1,2.58-1.47,3.52s-.8,1.63-1.06,2.16c-.14.23-.25.47-.35.72Z"/>
    <path class="st5" d="M421.18,295.37c.09-.25.16-.5.22-.76.14-.54.32-1.27.55-2.18s.51-2.12.78-3.48.62-2.91.9-4.64.63-3.62.89-5.66.52-4.23.76-6.53c.42-4.61.7-9.7.7-15.05s-.32-10.43-.75-15c-.26-2.3-.48-4.49-.8-6.53s-.59-3.93-.9-5.66-.64-3.27-.92-4.63-.55-2.53-.79-3.48-.42-1.64-.56-2.18c-.05-.26-.13-.51-.23-.75.03.26.07.52.13.77.12.55.27,1.29.47,2.21s.46,2.12.71,3.49.58,2.91.84,4.64.59,3.61.84,5.65.51,4.21.75,6.51c.4,4.6.69,9.67.71,15s-.27,10.4-.66,15c-.23,2.3-.42,4.48-.72,6.52s-.54,3.93-.82,5.65-.58,3.28-.82,4.64-.49,2.54-.7,3.5-.34,1.65-.46,2.2c-.07.25-.11.5-.12.75Z"/>
    <path class="st5" d="M414.9,342.29c.27.82.65,1.6,1.12,2.33,1.04,1.81,2.23,3.53,3.55,5.14,1.32,1.62,2.78,3.12,4.35,4.5.62.61,1.32,1.13,2.07,1.56-.57-.65-1.18-1.25-1.83-1.82-1.48-1.44-2.88-2.96-4.2-4.55-1.3-1.6-2.52-3.27-3.63-5-.43-.75-.91-1.47-1.43-2.16Z"/>
    <g class="st12">
      <path d="M401.98,295.35c-2.74-1.43-6.09-.68-9,.43s-5.75,2.6-8.84,2.57c-4.2,0-10.15-1.57-12.34-5.14-2.41-4.09-4.2-8.51-5.31-13.13-3.34-15.37-4.1-28.86-7.44-44.24-1.82-8.36-4.13-18-7.23-26-3-7.73-5.8-15.73-8.16-23.68.42,18,.84,36.14,3.62,54,1.8,11.47,4.56,22.77,6.07,34.27,1.29,9.85,1.65,19.8,2,29.73l9.37,11.46,25.83.52,13.49-17.4-2.06-3.39Z"/>
    </g>
    <path class="st0" d="M308.36,188.54c-9.9,3.84-17.25,12.34-19.6,22.7-7.58,33.44-20.56,77.91-20.76,92.26-.26,18.27,7.73,30.78,18.16,33.09,8.25,1.82,83-2.27,83-2.27l3.54-31.2-60.59-5.57,8.29-46.33-8.21-64.17-3.83,1.49Z"/>
    <path class="st0" d="M312.21,187.05l16.75-6.84,19.13-10.34.18.56h0c-2.16,3.7-4.46,10.53-3.65,14.74l14.68,76.62-3.33,56-4.81,38.65h-48.23l17.49-41.17-8.61-77.32.4-50.9Z"/>
    <path class="st5" d="M320.9,246.54c-.07.16-.12.33-.14.51-.07.4-.17.89-.29,1.49-.25,1.36-.59,3.21-1,5.47-.82,4.69-1.92,11.05-3.15,18.08s-2.23,13.41-3,18.11c-.35,2.27-.64,4.13-.86,5.5l-.2,1.5c-.03.18-.03.35,0,.53.06-.17.1-.34.13-.52.09-.39.18-.88.31-1.48.25-1.36.59-3.21,1-5.47.84-4.62,2-11,3.17-18.08s2.26-13.47,3-18.11c.35-2.27.64-4.13.85-5.5.08-.61.14-1.1.19-1.5.01-.18,0-.35-.01-.53Z"/>
    <path class="st5" d="M338.9,175.27s0,.06-.07.18-.09.34-.16.56c-.12.5-.34,1.22-.53,2.18-.6,2.72-1.02,5.48-1.28,8.25-.39,4.18-.5,8.38-.32,12.58.16,4.78.67,10.07,1.39,15.67v.18h.17l5.48,1-.19-.34c-.31.84-.64,1.75-.89,2.68-1.51,6.13-1.29,12.56.63,18.58,1.53,4.88,3.69,9.53,6.43,13.85,2.28,3.7,4.35,6.55,5.77,8.53l1.66,2.25.44.58c.1.12.16.19.17.18-.04-.07-.08-.14-.13-.21-.1-.17-.24-.36-.4-.61l-1.58-2.31c-1.37-2-3.39-4.88-5.63-8.6-2.68-4.31-4.79-8.94-6.29-13.79-1.87-5.94-2.07-12.28-.58-18.32.24-.91.56-1.8.86-2.62l.11-.29-.29-.05-5.48-1,.2.21c-.73-5.59-1.25-10.86-1.45-15.63-.2-4.18-.13-8.36.21-12.53.22-2.77.6-5.52,1.13-8.24.17-1,.36-1.69.45-2.2,0-.22.08-.41.11-.57.02-.05.04-.1.06-.15Z"/>
    <path class="st9" d="M338.9,253.86v-12.22s-.16-3,2.38-2.38,2.06,5.39,2.06,5.39c0,0,.48,18.58-.63,18.42s-1.54-1.59-1.54-1.59v-7.14l-2.27-.48Z"/>
    <path class="st5" d="M328.3,254.62c4.36.33,8.74.33,13.1,0-4.36-.33-8.74-.33-13.1,0Z"/>
    <path class="st5" d="M304.15,195.8c.44.2.9.36,1.37.5,1.24.45,2.46.98,3.64,1.57,3.87,2,7.24,4.87,9.82,8.38.73.99,1.38,2.04,1.93,3.14.48,1.04.87,2.13,1.16,3.24.5,1.89.84,3.83,1,5.78.14,1.66.17,3,.18,4-.04.49-.04.97,0,1.46.11-.48.16-.97.16-1.46.07-1.33.07-2.67,0-4-.1-1.98-.39-3.95-.88-5.87-.29-1.14-.67-2.26-1.16-3.33-.57-1.13-1.24-2.21-2-3.23-2.62-3.59-6.08-6.48-10.07-8.42-1.2-.58-2.45-1.06-3.73-1.44-.46-.15-.94-.26-1.42-.32Z"/>
    <path class="st5" d="M369.18,334.32c-.01-.2-.01-.39,0-.59,0-.42.09-1,.16-1.7.15-1.52.37-3.69.65-6.41.61-5.53,1.46-13.32,2.46-22.53l.21.27-22.5-1.91-38-3.35c-3.84-.36-7.7.4-11.11,2.19-.92.49-1.81,1.05-2.65,1.66l-.65.5c-.07.06-.15.11-.23.15,1.02-.99,2.18-1.83,3.44-2.49,3.42-1.89,7.33-2.72,11.23-2.38l38.05,3.2,22.5,1.95h.24v.24c-1.08,9.19-2,17-2.64,22.51l-.8,6.39c-.09.71-.17,1.27-.22,1.69-.03.21-.08.41-.14.61Z"/>
    <path class="st5" d="M352.9,335.15c-.1-.43-.16-.87-.18-1.31-.08-.85-.16-2.09-.22-3.62-.29-7.97.42-15.95,2.1-23.75.33-1.49.62-2.69.86-3.52.09-.43.23-.86.41-1.26-.03.44-.1.88-.21,1.31-.19.94-.42,2.13-.7,3.54-.56,3-1.22,7.16-1.63,11.79s-.49,8.84-.47,11.88c0,1.45.05,2.66.06,3.61.04.44.03.89-.02,1.33Z"/>
    <path class="st5" d="M361.49,325.37s.25-.13.74-.13c.7.03,1.38.27,1.94.7.88.64,1.38,1.67,1.33,2.76-.07,1.35-.91,2.53-2.15,3.06-1.27.44-2.69.11-3.63-.86-.78-.79-1.05-1.94-.72-3,.18-.68.58-1.29,1.15-1.71.19-.17.43-.28.69-.32,0,.05-.22.16-.56.47-.47.44-.79,1.02-.92,1.65-.23.91.03,1.88.7,2.54.81.81,2.02,1.09,3.11.71,1.05-.46,1.76-1.46,1.85-2.6.07-.94-.33-1.85-1.07-2.44-.5-.42-1.1-.69-1.74-.78-.24,0-.48-.02-.72-.05Z"/>
    <path class="st5" d="M348.3,169.61l-.31.19-1,.55-3.69,2.09-14.26,7.89h0l-24,10.06c-4.97,2-9.2,5.49-12.09,10-1.59,2.41-2.87,5-3.82,7.73-1.04,2.85-1.76,5.82-2.13,8.83h0c-4.44,19-9.48,40.81-14.37,64-1,5-2,9.92-3,14.79-.25,1.22-.45,2.44-.67,3.65s-.45,2.41-.6,3.62c-.34,2.38-.47,4.79-.37,7.2.17,4.69,1.25,9.3,3.18,13.58.94,2.07,2.14,4,3.58,5.75,1.42,1.69,3.11,3.14,5,4.28,3.68,2.2,7.94,3.25,12.22,3l12.16-.25c7.84-.19,15.15-.42,21.82-.65l31.6-1.15,8.59-.33,2.24-.07h.76l-.76.06-2.23.13-8.59.42c-7.46.35-18.25.83-31.59,1.32-6.67.25-14,.5-21.83.71l-12.17.28c-4.37.26-8.71-.81-12.47-3.05-1.94-1.17-3.67-2.65-5.14-4.37-1.46-1.79-2.69-3.76-3.65-5.86-1.96-4.34-3.07-9.01-3.24-13.77-.1-2.44.02-4.88.37-7.29.15-1.23.39-2.43.6-3.64s.42-2.44.67-3.65c.92-4.88,1.92-9.82,3-14.8,4.89-23.18,9.95-45,14.43-64h0c.37-3.03,1.08-6.02,2.12-8.89.96-2.76,2.27-5.38,3.89-7.81,2.95-4.57,7.25-8.1,12.3-10.11l24.06-10h0l14.32-7.77,3.78-2,1-.51.29-.16Z"/>
    <rect class="st5" x="409.35" y="249.96" width="22.86" height="7.13"/>
    <polygon class="st5" points="516.75 263.07 440.7 344.19 366.52 344.65 364.76 341.28 437.88 262.06 516.75 263.07"/>
    <path class="st0" d="M444.87,262.06s4.94,0,6.41,1.72c1.71,2.06,5,6.7-2.18,18.51-2.86,4.73-16.89,21-22.66,37.67-5.39,15.56-2.93,20.7-2.93,20.7l53.52-1.71,1-1.93s23.27-63,17.11-75c-2.84-5.47-50.65-1.98-50.27.04Z"/>
    <path class="st10" d="M485.92,337.35l-57.57.48c-.69-14.58,4.37-25.17,11.9-37.68,2.88-4.79,6.82-8.89,9.69-13.69,3.02-5.06,4.79-10.76,5.15-16.64.15-2.34,0-4.87-1.43-6.72s-6.57-1.95-8.79-1c2.49-1.8,5.42-2.88,8.48-3.13,4.65-.39,42.71-.13,49.79-.07,1.71.07,3.4.35,5.05.82,5.16,2.67,6.22,9.7,5.49,14.76-.69,4.79-3.66,9.31-7.39,14.37-1.08,1.45-2.09,2.96-3,4.52-3.93,6.81-14.78,25.91-16.73,32.5-.95,3.75-1.16,7.65-.64,11.48Z"/>
    <path class="st5" d="M485.92,337.23l-13.86.11-26.48.22-11.12.1h-3.72c-.69.07-1.39.07-2.08,0h-.31s.08-1.07.07-1.19v-1.51c0-.98.03-1.96.09-2.94.23-3.75.89-7.46,1.94-11.06,2.14-7.26,5.81-14,9.69-20.42,2.13-3.54,4.77-6.71,7.21-10,2.35-3.11,4.26-6.55,5.66-10.19,1.37-3.62,2.15-7.45,2.29-11.32.07-2.48-.29-5.88-2.9-7-1.19-.46-2.47-.69-3.75-.66-.85,0-2.82-.11-3.55.48-.21.16-.1.22.05.18.12-.06.24-.15.34-.24.39-.26.8-.51,1.21-.73,1.4-.76,2.9-1.32,4.45-1.67,3.1-.69,6.46-.49,9.62-.52,9.86-.08,19.73,0,29.6,0l11.39.07c1.79-.01,3.58.16,5.34.51,3,.63,5,3.66,5.88,6.41.93,3,1.11,6.19.5,9.27-.76,3.91-2.91,7.41-5.14,10.65-2,2.92-4.09,5.74-5.87,8.82-1.22,2.15-2.44,4.29-3.65,6.45-2.89,5.16-5.73,10.36-8.37,15.67-2.27,4.55-4.46,9.06-4.81,14.22-.16,2.14-.09,4.29.21,6.42,0,.16.27.09.24-.07-.75-5.2,0-10.52,2.15-15.31,2.26-5.15,4.94-10.13,7.63-15.06,2.45-4.5,4.96-8.97,7.52-13.4,3.73-6.45,9.73-12.08,10.56-19.84.51-4.85-.61-12-5.7-14.17-1.77-.61-3.64-.88-5.51-.81h-4.16c-9.69-.06-19.39-.11-29.08-.1-4.18,0-8.36,0-12.54.08-3.79.07-7.42.44-10.8,2.41-.46.26-.91.56-1.33.88-.09.07,0,.25.13.21,2.21-.77,4.62-.8,6.85-.1,3,1,3.35,4.6,3.23,7.35-.34,6.59-2.45,12.97-6.1,18.47-1.78,2.7-3.84,5.21-5.77,7.81-1.82,2.48-3.48,5.07-5,7.75-2.91,4.84-5.33,9.96-7.24,15.27-2.08,6.14-2.99,12.62-2.69,19.1,0,.07.06.13.13.13h0l19.45-.16,31-.26,7.11-.06c.07.02.14-.03.16-.1s-.03-.14-.1-.16c-.02,0-.05,0-.07,0Z"/>
    <path class="st5" d="M482.52,325.33c0,.15-10.15.26-22.68.26s-22.68-.11-22.68-.26,10.16-.26,22.68-.26,22.68.12,22.68.26Z"/>
    <path class="st5" d="M483.79,317.75c0,.14-10.15.26-22.68.26s-22.68-.12-22.68-.26,10.16-.26,22.68-.26,22.68.11,22.68.26Z"/>
    <path class="st5" d="M489.89,309.61c0,.14-10.16.26-22.68.26s-22.68-.12-22.68-.26,10.15-.26,22.68-.26,22.68.11,22.68.26Z"/>
    <path class="st5" d="M493.64,302.17c0,.14-10.15.26-22.68.26s-22.68-.12-22.68-.26,10.16-.26,22.68-.26,22.68.12,22.68.26Z"/>
    <path class="st5" d="M496.14,295.37c0,.14-10.15.26-22.67.26s-22.68-.12-22.68-.26,10.15-.26,22.68-.26,22.67.11,22.67.26Z"/>
    <path class="st5" d="M502.3,286.43c0,.15-10.15.26-22.68.26s-22.68-.11-22.68-.26,10.16-.26,22.68-.26,22.68.12,22.68.26Z"/>
    <path class="st5" d="M508.1,277.88c0,.14-10.15.26-22.68.26s-22.68-.12-22.68-.26,10.16-.26,22.68-.26,22.68.12,22.68.26Z"/>
    <path class="st5" d="M507.68,269.75c0,.14-10.15.26-22.67.26s-22.71-.12-22.71-.26,10.15-.26,22.68-.26,22.7.11,22.7.26Z"/>
    <path class="st14" d="M437.88,262.06c.11.06.22.13.31.22l.9.71,3.44,2.8.09.08-.08.09c-6.19,6.77-19.61,21.24-35.18,37.93-10.74,11.77-21.09,21.86-28.58,29.13-3.75,3.64-6.8,6.55-8.92,8.56l-2.46,2.3-.65.58-.23.19s.06-.08.19-.22l.62-.63,2.39-2.37,8.81-8.67c7.42-7.35,17.71-17.45,28.45-29.23,15.57-16.69,29.07-31.08,35.39-37.73v.17l-3.38-2.89-.86-.75c-.09-.08-.18-.17-.25-.27Z"/>
    <path class="st2" d="M372.64,306.7h10.86s7.34-6.4,9-6.89c3.49-1.05,12.5-2.15,12.5-2.15l-6.15,6.68h0c-1.43,1.54-4.05,2.93-2.5,2.93h11.3s11.55-5.54,13.27-4.53c1.44.85,1.94,2.39.47,4.53s-11.6,7.2-12.77,7.59l-3.31,1,3.11,1,14.73-5.15c.95-.17,2.28-.33,2.71.23.77.8.74,2.06-.06,2.83,0,0-.02.01-.02.02-2.1,1.89-4.32,3.64-6.66,5.23,0,0,2.35,3.46.4,5.21s-7.59,7-7.59,7c0,0-.59,2.92-2.34,4.28s-21,1.36-22.39,1.36-9.15-4.47-9.15-4.47l-8.45-.63,3.04-26.07Z"/>
    <path class="st1" d="M406.22,325.54c.68.22,1.39.32,2.11.29.79,0,1.56-.13,2.3-.41.88-.35,1.72-.8,2.51-1.33,1.67-1.09,3.16-2.09,4.23-2.84.61-.36,1.17-.79,1.68-1.28-.65.27-1.27.6-1.85,1-1.12.67-2.64,1.64-4.31,2.72-.76.52-1.56.96-2.41,1.32-.69.28-1.42.44-2.16.48-1.28.07-2.1-.02-2.1.05Z"/>
    <path class="st1" d="M405.3,332.75c.37.44.9.73,1.47.82,1.37.31,2.8.07,4-.66,1.17-.66,2.26-1.47,3.23-2.4.74-.71,1.14-1.21,1.09-1.25-1.46,1.16-2.97,2.25-4.54,3.25-1.1.67-2.41.94-3.69.75-.54-.12-1.06-.29-1.56-.51Z"/>
    <path class="st1" d="M399.88,316.8c1.02.12,2.06.04,3.05-.24,1.02-.13,2-.47,2.89-1-1.01.09-2.02.28-3,.55-1,.13-1.99.36-2.94.69Z"/>
    <path class="st5" d="M326.2,100.23c-5.92-10.57-19.29-14.35-29.86-8.43-.09.05-.18.1-.27.15-4.31,2.5-7.9,7-7.61,12,.27,4.7,3.77,8.49,7.07,11.84-5.26,2.19-7.89,8.85-6.17,14.27s7.14,9.25,12.8,9.77,11.37-1.94,15.46-5.9c4-4.09,6.8-9.2,8.08-14.78"/>
    <path class="st5" d="M308.24,112.35c-.91.4-1.89.65-2.88.73-2.73.26-5.48-.31-7.88-1.64-1.67-.9-3.13-2.13-4.31-3.61-1.35-1.72-2.25-3.75-2.63-5.9-.88-4.99.65-10.1,4.13-13.78,3.57-3.55,8.47-5.44,13.5-5.2,4.1.08,8.03,1.7,11,4.53,1.97,1.94,3.12,4.56,3.24,7.32.02.74-.05,1.48-.21,2.2-.05.25-.13.43-.16.55s-.07.18-.08.18c.2-.96.28-1.95.25-2.93-.2-2.68-1.37-5.19-3.3-7.06-2.92-2.72-6.75-4.25-10.74-4.31-4.89-.21-9.64,1.63-13.11,5.08-3.36,3.57-4.84,8.51-4,13.34.35,2.08,1.21,4.04,2.49,5.71,2.82,3.58,7.2,5.56,11.75,5.31.99-.11,1.97-.28,2.94-.52Z"/>
    <path class="st14" d="M314.7,116.71c-.21.18-.44.33-.69.44-.64.36-1.31.67-2,.91-1.04.37-2.11.64-3.2.8-1.34.18-2.7.23-4.05.14-1.36-.1-2.7-.36-4-.75-1.05-.33-2.08-.75-3.05-1.27-.66-.35-1.28-.75-1.87-1.2-.41-.33-.62-.52-.6-.55s1,.62,2.64,1.42c.97.46,1.97.84,3,1.14,2.54.72,5.2.92,7.82.59,1.07-.14,2.12-.36,3.15-.67,1.78-.54,2.8-1.09,2.85-1Z"/>
    <path class="st14" d="M288.44,104.83c.07-.42.21-.82.4-1.2.46-1.08,1.19-2.02,2.12-2.74,1.45-.96,3.13-1.53,4.87-1.64,2.09-.17,4.2-.07,6.27.3,3.76.6,7.38,1.85,10.71,3.69,1,.56,1.97,1.17,2.9,1.85.37.22.7.49,1,.8-.39-.17-.75-.39-1.09-.64-.69-.42-1.69-1-3-1.68-3.33-1.72-6.92-2.9-10.62-3.51-2.02-.36-4.08-.47-6.13-.33-1.66.08-3.28.59-4.7,1.46-.91.66-1.65,1.52-2.15,2.53-.17.38-.37.75-.58,1.11Z"/>
    <path class="st14" d="M318.98,124.89s0,.12-.14.34-.3.51-.54.9c-.72,1.08-1.57,2.06-2.52,2.94-1.42,1.3-3.05,2.36-4.82,3.12-2.18.93-4.54,1.4-6.91,1.37-2.37,0-4.71-.52-6.87-1.51-1.76-.82-3.31-2.03-4.53-3.54-.82-1.02-1.39-2.22-1.67-3.5-.08-.35-.12-.7-.13-1.05v-.36s.06.5.3,1.36c.35,1.22.95,2.35,1.77,3.32,1.22,1.42,2.73,2.56,4.44,3.34,2.1.93,4.38,1.42,6.68,1.42,2.3.03,4.58-.41,6.71-1.29,1.74-.74,3.35-1.75,4.76-3,1.29-1.16,2.45-2.45,3.47-3.86Z"/>
    <path class="st14" d="M320.89,130.09c-.32.48-.69.92-1.1,1.33-.74.82-1.84,2-3.3,3.33-.73.67-1.56,1.38-2.48,2.1-3.2,2.7-7.34,4.02-11.51,3.69-2.91-.08-5.72-1.05-8.06-2.78-1.84-1.48-3.29-3.39-4.23-5.55-.65-1.44-1.02-2.99-1.11-4.57-.03-.43-.03-.86,0-1.29,0-.15.03-.3.07-.44.02.15.02.3,0,.45,0,.42.02.84.07,1.26.15,1.54.57,3.04,1.23,4.44.96,2.08,2.4,3.9,4.2,5.32,2.27,1.64,4.99,2.56,7.79,2.64,2.8.17,5.6-.36,8.14-1.54,1.09-.56,2.13-1.23,3.08-2,.92-.7,1.75-1.39,2.49-2,1.48-1.29,2.62-2.41,3.41-3.19.41-.43.85-.83,1.31-1.2Z"/>
    <path class="st9" d="M329.3,99.63l1.46,1.15c-.59-2.48-3.37-4-5.91-3.78-2.56.41-4.8,1.95-6.09,4.2-1.26,2.23-2.09,4.68-2.45,7.22-.78,4.2-1.17,8.68.5,12.6s6,7,10.12,6,6.43-5.51,7.05-9.71c.88-6.28-.8-12.66-4.68-17.68Z"/>
    <path class="st5" d="M323.57,118.65c-1.2.72-2.61,1.02-4,.86-.97-.04-1.93-.26-2.83-.63-.73-.29-1-.84-.86-.85.3.22.64.4,1,.51.89.25,1.81.4,2.73.45,1.33-.02,2.65-.13,3.96-.34Z"/>
    <path class="st5" d="M325.6,111.23c-1.59.22-3.2.25-4.8.11-1.6.04-3.21-.1-4.78-.41,1.59-.21,3.2-.24,4.8-.11,1.6-.03,3.21.11,4.78.41Z"/>
    <path class="st5" d="M324,103.3c0,.17-1.48,0-3.22-.2-.74-.06-1.48-.02-2.2.13-.55.12-.88.26-.92.19s.24-.32.81-.55c.75-.26,1.55-.36,2.34-.29,1.1.03,2.18.28,3.19.72Z"/>
    <path class="st5" d="M334.15,83.24c-.12-4.18,3.76-7.42,7.66-9s8.23-2.11,11.71-4.45c3.08-2.07,5.15-5.3,7.75-7.95,10.01-10.14,26.34-10.25,36.49-.25,3.37,3.32,5.75,7.5,6.9,12.09,1.5,6,.48,13-4.22,17-5.46,4.6-13.56,3.58-20.55,2.15s-14.91-2.85-20.75,1.26c-3.52,2.48-5.54,6.51-7.7,10.24-2.16,3.73-4.85,7.53-8.92,8.93s-9.6-1-9.76-5.32"/>
    <path class="st5" d="M334.44,85.54c.46,3.52-2.08,6.66-4.61,9.14s-5.38,5.11-5.83,8.62c-.52,4.11,2.47,8.15,1.6,12.19-.55,2.57-2.54,4.55-3.75,6.88-1.62,3.36-1.89,7.21-.75,10.76,1,3.54,2.7,11.44,5.16,14.19,6.8,7.6,17.62,14.16,27.56,16.44s20.26,2.3,30.44,1.67c8.33-.51,17.91-.13,24.86-11.59,3.59-5.94,5.38-13.83,7.29-20.5,1.64-5.75,3.07-11.9,1.35-17.63-1-3.34-3-6.3-4-9.64-1.23-4.17-.78-8.64-1.28-13-1.86-16.31-16.59-28.02-32.9-26.16-3.26.37-6.43,1.28-9.39,2.69"/>
    <path class="st2" d="M348.61,180.95s0,.25.05.37l-.05-.37Z"/>
    <path class="st2" d="M408.52,99.95c-.78-11.95-8.74-26.61-20.65-25.32l-37.19,9.49c-3.62.39-6.33,3.48-6.25,7.12l4.08,87.71c.06,1.49.4,2.96,1,4.32,2.76,6.08,11.94,21.55,31.86,15.29,4.88-1.53,7.11-6.87,8.07-12.35,0-.65.27-1.23.28-1.85.48-4.09.53-8.22.15-12.32.07-7.24.06-10.21.06-10.14s15.27-2.57,18.4-22.51c1.59-9.91,1.05-26.16.19-39.44Z"/>
    <path class="st2" d="M348.65,181.31c0,.07,0,0,0,0Z"/>
    <path class="st5" d="M402.53,112.95c.02,1.39-1.08,2.53-2.46,2.58-1.34.11-2.52-.89-2.64-2.23,0-.02,0-.05,0-.07-.02-1.38,1.07-2.53,2.45-2.58,1.35-.11,2.53.89,2.65,2.24,0,.02,0,.04,0,.06Z"/>
    <path class="st5" d="M405.01,108.41c-.32.33-2.26-1.1-5-1.09s-4.76,1.4-5.06,1.06c-.15-.15.18-.75,1.05-1.39,1.19-.83,2.6-1.27,4.05-1.26,1.44-.01,2.84.44,4,1.28.83.64,1.12,1.25.96,1.4Z"/>
    <path class="st5" d="M375.3,112.95c.02,1.38-1.07,2.53-2.45,2.58-1.34.11-2.52-.89-2.64-2.23,0-.02,0-.05,0-.07-.02-1.38,1.07-2.53,2.45-2.58,1.34-.11,2.52.89,2.64,2.23,0,.02,0,.05,0,.07Z"/>
    <path class="st5" d="M377.97,108.95c-.32.33-2.26-1.1-5-1.08s-4.76,1.39-5.06,1.06c-.15-.15.17-.76,1-1.4,1.19-.83,2.61-1.27,4.06-1.26,1.44,0,2.84.44,4,1.28.87.68,1.16,1.28,1,1.4Z"/>
    <path class="st5" d="M388,129.36c0-.16,1.7-.46,4.47-.82.7-.07,1.36-.21,1.48-.69.06-.72-.11-1.45-.47-2.08-.67-1.7-1.36-3.48-2.09-5.35-2.9-7.61-5-13.86-4.7-14s2.91,6,5.81,13.57c.7,1.88,1.37,3.67,2,5.38.45.84.58,1.82.37,2.75-.21.49-.63.86-1.15,1-.39.11-.79.17-1.19.17-2.79.21-4.52.22-4.53.07Z"/>
    <path class="st1" d="M389.97,161.95c-9.38.14-18.61-2.32-26.67-7.11,0,0,6.74,13.79,26.69,11.88l-.02-4.77Z"/>
    <path class="st1" d="M386.85,135.95c-1.07-1.33-2.75-2.02-4.45-1.83-1.22.12-2.35.72-3.12,1.68-.75.94-.83,2.25-.21,3.28.91,1.01,2.33,1.36,3.61.91,1.3-.47,2.49-1.18,3.51-2.11.31-.22.58-.5.78-.82.2-.3.2-.7,0-1"/>
    <path class="st5" d="M379.9,131.28c.45,0,.46,3,3,5.07s5.74,1.78,5.76,2.2c0,.18-.71.58-2.05.62-1.75.03-3.45-.56-4.81-1.67-1.3-1.06-2.14-2.58-2.34-4.25-.1-1.25.23-1.99.44-1.97Z"/>
    <path class="st5" d="M379.2,104.16c-.27.75-3,.4-6.24.8s-5.84,1.28-6.27.61c-.19-.32.26-1,1.31-1.75,2.84-1.81,6.36-2.21,9.53-1.08,1.19.48,1.77,1.06,1.67,1.42Z"/>
    <path class="st5" d="M403.98,100.45c-.48.62-2.38,0-4.66,0s-4.2.43-4.65-.22c-.2-.32.11-.94.95-1.54,2.31-1.45,5.28-1.37,7.5.22.81.59,1.07,1.23.86,1.54Z"/>
    <path class="st5" d="M336.77,149.68c9.58,1.91,18.89-4.32,20.8-13.9.37-1.87.44-3.78.2-5.67-.62-4.89-3.26-9.88-1.56-14.51,2.24-6.12,10.83-8,13.11-14.12,1.33-3.56.14-7.71,1.64-11.19,1.41-3.28,4.85-5.16,8.21-6.38s6.95-2,9.76-4.23,4.57-6.32,2.76-9.39c-14.89,1.78-29.51,5.34-43.56,10.58-3.25,1.22-6.67,2.68-8.59,5.57-2,3.06-1.94,7-1.77,10.68.83,17.9,1.67,35.8,2.5,53.7"/>
    <path class="st14" d="M338.02,156.54c-.12-.05-.23-.13-.33-.21l-.88-.67c-.77-.61-1.91-1.5-3.3-2.74-1.72-1.49-3.29-3.14-4.69-4.93-1.91-2.38-3.19-5.21-3.73-8.21-.78-3.7.17-7.56,2.57-10.48,1.44-1.45,3-2.79,4.65-4,1.66-1.26,2.91-2.98,3.62-4.94,1.47-4.07.82-8.77,1.39-13.58.56-5.02,2.52-9.78,5.65-13.74,1.61-2,3.63-3.65,5.91-4.83,2.25-1.02,4.59-1.8,7-2.35,2.23-.55,4.32-1.58,6.12-3,1.7-1.42,3.2-3.07,4.45-4.9,2.5-3.55,4.35-7.34,6.74-10.5,1.13-1.55,2.45-2.95,3.93-4.17,1.39-1.12,2.96-1.98,4.65-2.54,2.93-1.11,6.21-.78,8.86.88,1.87,1.45,3.01,3.64,3.14,6,.12,1.47-.31,2.93-1.2,4.11-.23.29-.5.55-.81.77-.2.16-.31.23-.32.21s.08-.1.26-.27c.28-.24.52-.52.73-.82.8-1.17,1.16-2.59,1-4-.2-2.22-1.34-4.25-3.13-5.58-2.53-1.53-5.63-1.78-8.37-.69-1.61.56-3.11,1.39-4.43,2.47-1.42,1.21-2.68,2.6-3.76,4.12-2.31,3.11-4.13,6.89-6.66,10.54-1.29,1.9-2.83,3.61-4.58,5.08-1.88,1.5-4.07,2.59-6.4,3.19-2.34.54-4.63,1.32-6.82,2.31-2.18,1.13-4.1,2.7-5.64,4.61-3.02,3.83-4.91,8.43-5.47,13.27-.58,4.65.09,9.43-1.48,13.75-.77,2.08-2.12,3.9-3.89,5.25-1.63,1.17-3.16,2.45-4.6,3.85-2.28,2.76-3.2,6.39-2.5,9.9.5,2.91,1.71,5.66,3.51,8,1.35,1.8,2.87,3.47,4.52,5,1.36,1.26,2.46,2.2,3.19,2.85.39.3.76.63,1.1.99Z"/>
    <path class="st5" d="M418.92,125.37c.53-.53.93-1.19,1.16-1.91.46-2.02.05-4.15-1.14-5.85-.69-1.11-1.62-2.21-2.56-3.46-1.07-1.31-1.86-2.83-2.3-4.46-.4-1.82-.47-3.69-.22-5.53.21-1.91.59-3.85.84-5.83.49-3.74.04-7.54-1.3-11.06-1.09-2.88-2.71-5.52-4.77-7.81-1.39-1.54-2.98-2.89-4.73-4-1.24-.79-2-1.15-2-1.19.19.05.38.12.55.22.52.24,1.02.5,1.51.8,1.82,1.06,3.47,2.39,4.9,3.93,2.14,2.29,3.82,4.97,4.95,7.89,1.4,3.59,1.87,7.47,1.37,11.29-.25,2-.64,3.95-.85,5.82-.26,1.79-.2,3.6.18,5.37.42,1.57,1.15,3.04,2.17,4.31.92,1.25,1.85,2.38,2.54,3.53,1.21,1.79,1.57,4.02,1,6.11-.18.55-.49,1.05-.89,1.47-.12.14-.26.26-.41.36Z"/>
    <path class="st5" d="M600.17,356.77c-189.55,0-342.63.12-342.63.26s153.08.26,342.63.26v-.52Z"/>
  </g>
  <g id="freepik--character-2--inject-103">
    <rect class="st4" x="505.37" y="297.89" width="85.53" height="98"/>
    <path class="st5" d="M590.9,395.89v-7.14c0-4.64,0-11.41-.06-20,0-17.18-.07-41.65-.11-70.85l.23.23h-85.53l.26-.26v98l-.22-.22,62,.11,17.35.06h6.17-6.08l-17.3.05-62.16.12h-.22v-98.48h86.03v.23c-.05,29.26-.09,53.78-.12,71,0,8.58-.05,15.33-.06,20v6.59c0,.34-.18.56-.18.56Z"/>
    <path class="st3" d="M522.89,332.55c1-1.57,1.73-8.08,3.1-7.71,1.73.46-.71,7.37-.88,8s.74.87.87.3c.17-.83,2.12-8.94,3.82-8.32.94.34.33,2.06.33,2.06,0,0-2.75,7.89-1.94,8.16s2.4-4.35,2.92-6,1.34-2,1.92-1.27-.88,5.45-1.35,7-1.87,5.87.55,4.27,4.87-2,5.59-1.6.45,1.49-.44,1.64c-.94.26-1.85.64-2.69,1.14-.67.41-1.29.89-1.85,1.44-.74.68-1.36,1.48-1.84,2.36-.79,1.41-2.14,2.41-3.71,2.75h0l-.72,3-8.27-3.07,1.37-5.61c.77-3.28,1.23-6.63,1.39-10,.4-4.24,1-4.22,1.43-4.06,1.06.33-.63,7.06.4,5.52Z"/>
    <path class="st6" d="M521.38,338.02c.37.18.73.38,1.08.61.81.58,1.41,1.42,1.71,2.37.09.29.15.58.18.88v.15l.13-.06c.72-.33,1.49-.53,2.28-.61.59-.06.95,0,.95-.07-.33-.08-.67-.1-1-.06-.81.04-1.61.22-2.35.55l.14.09c-.03-.32-.09-.63-.18-.94-.17-.54-.44-1.05-.8-1.49-.28-.36-.62-.67-1-.93-.26-.17-.54-.31-.83-.42-.19-.06-.31-.09-.31-.07Z"/>
    <path class="st6" d="M520.9,344.3c.56.5,1.2.88,1.9,1.14.67.32,1.41.5,2.15.54,0-.06-1-.26-2.07-.73s-1.94-1-1.98-.95Z"/>
    <path class="st9" d="M518.5,385.77c1.82-.18,3.54-.91,4.94-2.09l13.34-11.27-.12,13-2.64.19.74,9.66h41.29v-.22c2.57-2.35,4.22-5.54,4.66-9,1-6.43,1.38-16.91,2.27-24.32.64-5.22-.51-12-5.15-14.44l-3.53-1.41h0l-11.29-4.44-14.49.66-9.68,2.72c-2.68,1-5,4.23-6.65,6.6l-8.06,11.23c.09-1.84,3.42-12.9,3.64-13.39l-9.87-4.07s-10.17,22.61-8.8,32.38c1.1,8.12,9.4,8.21,9.4,8.21Z"/>
    <path class="st5" d="M567.7,308.11c2.65,2.52,3.69,6.29,2.72,9.81v.08c-1.21,4.27-3.25,8.26-6,11.75-.24.31-.62.65-1,.47s-.31-.43-.35-.7c-.16-2.31-.04-4.63.36-6.91.39-2.29.33-4.63-.2-6.89-.57-2.29-2.3-4.12-4.56-4.8-1.7-.3-3.45.01-4.94.88-1.52.78-2.86,1.86-4.31,2.76-1.41.98-3.06,1.56-4.78,1.67-1.75.08-3.39-.86-4.19-2.42-.67-1.57.22-3.74,1.9-4-1.53-.19-2.33-1.67-2.44-3.21,0,0,.1-2.61,3.88-2.43,0,0,.5-3.91,4.3-2.49,3.4,1.28,3.85,2.28,9.22,1.09,0,0,7.24-1.76,9.45,4.47l.94.87Z"/>
    <path class="st3" d="M566.79,318.58l-3.35,25.72c-.55,4.22-4.41,7.2-8.64,6.66-.12-.02-.24-.03-.36-.06h0c-4.05-.74-6.81-4.52-6.28-8.6.26-1.94.46-3.55.48-3.75,0,0-6.47-1.47-6.1-8,.18-3.16,1.08-9.65,2-15.5.95-6.29,6.57-10.8,12.91-10.36h.63c6.72.91,9.76,7.14,8.71,13.89Z"/>
    <path class="st6" d="M548.61,338.45c3.01.26,6.04-.37,8.69-1.83,0,0-2.34,4.56-8.82,3.53l.13-1.7Z"/>
    <path class="st5" d="M545.3,319.95c.11.13.85-.35,1.86-.27s1.7.62,1.82.51,0-.28-.35-.54c-.41-.33-.92-.53-1.45-.56-.52-.03-1.04.09-1.49.37-.32.18-.39.39-.39.49Z"/>
    <path class="st5" d="M554.99,320.47c.1.13.85-.35,1.85-.28s1.71.63,1.82.51,0-.27-.35-.53c-.41-.33-.92-.53-1.45-.56-.52-.04-1.04.09-1.48.37-.33.22-.45.43-.39.49Z"/>
    <path class="st5" d="M551.36,326.41c-.52-.21-1.06-.34-1.61-.41-.25,0-.49-.11-.52-.29,0-.26.07-.52.22-.74l.89-1.91c.82-1.61,1.51-3.28,2.06-5-.95,1.54-1.77,3.15-2.45,4.82-.3.67-.59,1.3-.87,1.91-.18.3-.25.65-.2,1,.06.19.21.34.4.4.14.06.28.09.43.09.54.12,1.1.16,1.65.13Z"/>
    <path class="st5" d="M554.3,327.31c-.16,0-.24,1.07-1.23,1.78s-2.14.51-2.15.66.24.23.73.28c.64.05,1.28-.12,1.8-.49.51-.35.87-.89,1-1.5,0-.45-.1-.73-.15-.73Z"/>
    <path class="st5" d="M555.52,315.26c.09.28,1.1.22,2.27.44s2.1.61,2.27.38-.07-.38-.44-.67c-.49-.37-1.05-.61-1.65-.72-.6-.11-1.21-.08-1.8.09-.45.17-.68.35-.65.48Z"/>
    <path class="st5" d="M546.3,315.46c.16.24.87.05,1.71.1s1.52.26,1.7,0,0-.35-.31-.58c-.39-.3-.87-.46-1.36-.47-.49-.03-.97.1-1.38.36-.31.25-.43.47-.36.59Z"/>
    <path class="st3" d="M565.92,323.38c.12,0,4.59-1,4.13,3.44s-4.83,3.09-4.83,3,.7-6.44.7-6.44Z"/>
    <path class="st6" d="M566.76,328.23s.07.06.2.14c.17.09.38.12.57.07.62-.32,1.02-.94,1.07-1.64.05-.38.01-.77-.11-1.13-.06-.29-.25-.54-.52-.66-.18-.07-.38,0-.48.17-.07.12-.05.21-.08.22s-.09-.09,0-.27c.03-.11.11-.2.2-.26.13-.08.29-.11.44-.07.36.11.64.4.74.77.16.4.21.84.15,1.27-.03.82-.56,1.54-1.33,1.81-.25.05-.51-.02-.7-.19-.16-.12-.17-.22-.15-.23Z"/>
    <path class="st5" d="M543.19,313.59c2.89.95,6.06.46,8.52-1.32,1.68-1.23,3-3.09,5.07-3.56,1.39-.26,2.83.04,4,.83,1.15.8,2.13,1.82,2.88,3-1.49,3.24-.9,7-.28,10.51.03.4.19.77.45,1.07.59.36,1.35.24,1.81-.27.74-.79,1.23-1.77,1.41-2.83.64-2.36.79-4.83.46-7.25-.34-2.43-1.38-4.71-3-6.56-2.12-2.24-5.02-3.57-8.1-3.71-3.07-.12-6.1.73-8.66,2.43-1.24.73-2.27,1.76-3,3"/>
    <path class="st6" d="M558.57,323.71c.05.02.11-.01.13-.06,0,0,0-.01,0-.02.02-.06,0-.12-.06-.15,0,0,0,0-.01,0-.06-.02-.12.02-.14.07,0,0,0,.01,0,.02-.02.06.01.12.07.14,0,0,0,0,0,0Z"/>
    <path class="st6" d="M556.68,323.15c.07,0,.13-.04.14-.11,0-.07,0-.15-.07-.16s-.12,0-.14.1c-.03.07,0,.14.07.17Z"/>
    <path class="st6" d="M555.39,323.02c.06,0,.12-.05.14-.15s0-.19-.07-.2-.13.06-.15.16-.01.18.08.19Z"/>
    <path class="st6" d="M557.54,324.85c.06,0,.11,0,.11-.06s0-.07-.1-.08c-.05,0-.09.02-.12.06,0,0,.05.08.11.08Z"/>
    <path class="st6" d="M555.81,324.32c.06,0,.12-.04.13-.1.01-.07-.03-.13-.09-.15-.07,0-.12.04-.13.11,0,0,0,0,0,0-.01.06.03.13.09.14Z"/>
    <path class="st6" d="M546.71,322.6c.06,0,.12-.03.14-.09.02-.06,0-.12-.06-.15,0,0,0,0-.01,0-.06-.02-.12.02-.14.07,0,0,0,.01,0,.02-.02.06.01.13.07.15Z"/>
    <path class="st6" d="M545.42,322.39c.06,0,.12-.05.13-.12,0-.06-.06-.1-.12-.1-.06,0-.1.06-.1.12,0,.05.04.09.09.1Z"/>
    <path class="st6" d="M547.87,322.71c.06.02.12-.01.14-.07,0,0,0,0,0,0,.02-.06-.01-.12-.07-.14-.06-.02-.12.01-.14.07-.02.06.01.12.07.14Z"/>
    <path class="st6" d="M546.81,323.95c.06.03.13,0,.16-.06,0,0,0,0,0,0,.04-.05.03-.12-.01-.16-.05-.04-.12-.03-.16.01-.01.01-.02.03-.02.04-.04.05-.03.12.02.15,0,0,0,0,0,0Z"/>
    <path class="st6" d="M545.7,323.65c.05,0,.1-.05.09-.11,0,0,0,0,0,0-.01-.05-.07-.08-.12-.07-.05,0-.1.05-.09.11,0,0,0,0,0,0,.01.05.07.08.12.07Z"/>
    <path class="st14" d="M552.69,308.51c-.37.67-.93,1.22-1.6,1.59-3.1,2.03-7.25,1.16-9.28-1.94-.12-.18-.23-.36-.32-.55-.41-.65-.63-1.4-.62-2.17.28.68.59,1.35.94,2,1.87,3.15,5.93,4.2,9.09,2.35,1.18-.66,1.72-1.35,1.79-1.28Z"/>
    <path class="st14" d="M566.85,309.64c-.44-.93-1.13-1.71-2-2.26-.95-.57-2.03-.89-3.13-.91-1.37-.02-2.73.14-4.06.48-1.35.35-2.73.6-4.12.76-1.16.13-2.34,0-3.45-.37-.75-.24-1.43-.65-2-1.2-.22-.18-.39-.42-.51-.68.75.7,1.65,1.22,2.63,1.53,1.07.3,2.19.38,3.29.24,1.37-.18,2.72-.44,4.06-.79,1.37-.35,2.79-.5,4.2-.45,1.18.05,2.32.42,3.3,1.08.66.44,1.2,1.04,1.55,1.75.25.51.27.82.24.82Z"/>
    <path class="st14" d="M568.96,315.06c-2.13.43-4.29-.61-5.28-2.55.77.62,1.58,1.19,2.44,1.69.92.36,1.87.64,2.84.86Z"/>
    <path class="st14" d="M568.42,318.01c0,.07-.39.05-1-.07-.77-.14-1.5-.42-2.18-.81-.7-.41-1.25-1.02-1.59-1.76-.23-.58-.18-1-.12-1s.16.34.45.81c.39.61.91,1.11,1.53,1.48.64.36,1.31.67,2,.91.59.22.93.38.91.44Z"/>
    <path class="st5" d="M536.79,385.42c-.06,0-.11-6.59-.11-14.72s0-14.73.11-14.73.1,6.6.1,14.73-.04,14.72-.1,14.72Z"/>
    <path class="st5" d="M577.89,350.37c-.67-.04-1.33-.04-2,0-1.58.11-3.1.62-4.43,1.48-1.31.88-2.37,2.08-3.09,3.49-.28.6-.52,1.21-.73,1.83.02-.18.05-.36.1-.53.12-.47.29-.92.5-1.36.69-1.46,1.76-2.71,3.11-3.61,1.35-.88,2.92-1.38,4.53-1.45.48-.02.97,0,1.45.08.19,0,.38.02.56.07Z"/>
    <path class="st5" d="M524.01,361.21c0,.21-.02.41-.05.62v1.69c0,1.42.31,3.38.41,5.57.15,1.88-.19,3.77-1,5.48-.26.51-.6.97-1,1.38-.14.15-.3.28-.47.4.53-.55.99-1.17,1.34-1.85.78-1.69,1.12-3.54,1-5.4-.1-2.17-.38-4.14-.35-5.58,0-.57.04-1.14.11-1.7,0-.2.06-.35.08-.45s-.08-.16-.07-.16Z"/>
    <path class="st3" d="M534.13,386.84l.76,8.4h-4l-3.52-.06c-1.33.14-2.67.18-4,.11-.06.01-.12.01-.18,0-.21-.03-.42-.08-.62-.15h0c-.36-.13-.73-.36-.67-.76.17-1.2.89-1.3.89-1.3h.36v-.11h-1.25c-.25,0-.18,0-.19,0s-1.4-.17-1.3-.91c.18-1.21.89-1.3.89-1.3l1.16-.08h-1.29c-.06.01-.12.01-.18,0,0,0-1.41-.17-1.3-.91.17-1.21.89-1.31.89-1.31l1-.06h-1.19s-1.4-.17-1.29-.91c.17-1.21.89-1.3.89-1.3,0,0,2.21-.16,3.73-.23,0,0,1.73-1.55,2.41-1.48,1,.11,6.91,2.29,6.91,2.29l1.09.07Z"/>
    <path class="st6" d="M526.68,392.78c-.66.14-1.33.2-2,.18-.65.07-1.31.05-1.95-.06.66-.14,1.33-.21,2-.19.65-.06,1.31-.04,1.95.07Z"/>
    <path class="st6" d="M526.69,390.39c-1.86.24-3.73.31-5.6.2.92-.16,1.86-.24,2.79-.23.94-.07,1.88-.06,2.81.03Z"/>
    <g class="st11">
      <path class="st6" d="M526.49,387.95c-1.86.24-3.73.31-5.6.2.92-.16,1.86-.24,2.79-.23.94-.07,1.88-.06,2.81.03Z"/>
    </g>
    <path class="st6" d="M523.01,385.69c.29.06.59.08.89.07l2.15.07,2.15.08c.3.04.59.04.89,0-.29-.08-.58-.13-.88-.14-.55-.05-1.31-.1-2.15-.13s-1.61,0-2.16,0c-.3-.02-.6,0-.89.05Z"/>
    <path class="st5" d="M534.01,385.59h.54l1.55-.09,5.7-.35c4.82-.29,11.47-.71,18.81-1.08l3.94-.18h.09v-.1c.06-1.6.21-3.16.32-4.65s.25-2.93.37-4.29c.24-2.72.45-5.15.63-7.18s.33-3.64.42-4.77c0-.55.08-1,.11-1.29v-.44s0,.07,0,.11v.33c0,.31-.08.73-.14,1.28-.11,1.13-.28,2.76-.48,4.77s-.42,4.45-.68,7.17c-.12,1.36-.25,2.8-.38,4.29s-.27,3.05-.34,4.67l.1-.1-3.94.17c-7.35.37-14,.82-18.81,1.15l-5.69.41-1.55.13h-.4l-.17.04Z"/>
  </g>
</svg>