<?xml version="1.0" encoding="UTF-8"?>
<svg id="Layer_1" xmlns="http://www.w3.org/2000/svg" version="1.1" viewBox="0 0 500 500">
  <!-- Generator: Adobe Illustrator 29.6.0, SVG Export Plug-In . SVG Version: 2.1.1 Build 207)  -->
  <defs>
    <style>
      .st0 {
        fill: #ebebeb;
      }

      .st1 {
        fill: #4a9288;
      }

      .st2 {
        fill: #263238;
      }

      .st3 {
        fill: #fff;
      }

      .st4 {
        fill: #fafafa;
      }

      .st5 {
        opacity: .2;
      }

      .st6 {
        opacity: .3;
      }

      .st7 {
        fill: #455a64;
      }
    </style>
  </defs>
  <g id="freepik--background-complete--inject-1">
    <path class="st0" d="M319.32,252.3l-123-1.15-37.32-.15h-12.78c-.59,0-.9,0-.9.05.3.05.6.07.9.06l2.64.06,10.13.12,37.29.2,123,.08c48,0,91.51.05,123,.28,15.74.11,28.48.26,37.28.42,4.4.08,7.82.17,10.14.26,1.18-.03,2.37.06,3.53.26-1.17.18-2.35.25-3.53.22-2.32.07-5.74.12-10.14.16-8.81.07-21.55.09-37.29.05-31.45-.06-74.93-.43-122.95-.92Z"/>
    <path class="st0" d="M318.36,262.84l-121.36-19.73-36.8-5.8-10-1.5-2.61-.37c-.29-.05-.59-.08-.89-.08.28.09.58.15.87.19l2.6.46,10,1.66,36.83,5.83,121.53,18.64c47.39,7.24,90.34,13.86,121.4,18.86,15.53,2.48,28.09,4.55,36.76,6,4.33.75,7.7,1.35,10,1.79,1.17.15,2.33.42,3.45.8-1.18,0-2.36-.1-3.53-.31-2.3-.29-5.69-.75-10-1.38-8.71-1.25-21.3-3.15-36.84-5.58-31.15-4.81-74.05-11.75-121.41-19.48Z"/>
    <path class="st0" d="M315.72,273.1l-116.64-38.1-35.4-11.36-9.65-3-2.52-.76c-.28-.1-.57-.17-.87-.22.27.14.54.25.83.33l2.49.85,9.6,3.17,35.44,11.4,117,37c45.67,14.4,87,27.52,116.88,37.19,14.93,4.83,27,8.8,35.32,11.6,4.16,1.4,7.38,2.51,9.56,3.29,1.13.33,2.23.77,3.27,1.32-1.17-.17-2.32-.45-3.43-.84-2.23-.64-5.5-1.61-9.7-2.9-8.4-2.56-20.52-6.37-35.47-11.14-29.96-9.52-71.2-22.93-116.71-37.83Z"/>
    <path class="st0" d="M311.45,282.82l-109-55.42-33.15-16.63-9-4.46-2.37-1.13c-.27-.14-.54-.26-.82-.36.24.17.5.32.77.45l2.32,1.22,9,4.6,33.11,16.65,109.54,54.45c42.77,21.22,81.47,40.5,109.4,54.61,14,7.06,25.24,12.82,33,16.86,3.88,2,6.88,3.61,8.9,4.71,1.06.5,2.06,1.1,3,1.8-1.12-.36-2.22-.81-3.26-1.36-2.09-1-5.16-2.44-9.1-4.35-7.88-3.82-19.23-9.43-33.23-16.43-28.02-14.03-66.56-33.55-109.11-55.21Z"/>
    <path class="st0" d="M305.66,291.77l-98.77-71.3-30-21.47-8.21-5.77-2.16-1.48c-.23-.18-.49-.34-.75-.47.21.21.44.39.69.56l2.09,1.55c1.88,1.37,4.61,3.36,8.12,5.9l30,21.49c25.48,18,60.61,42.92,99.44,70.42s74,52.37,99.27,70.56c12.66,9.09,22.88,16.49,29.89,21.66,3.51,2.58,6.22,4.61,8,6,.97.65,1.87,1.4,2.7,2.23-1.05-.52-2.06-1.14-3-1.84-1.91-1.27-4.71-3.18-8.29-5.67-7.17-5-17.48-12.24-30.18-21.28-25.38-18.07-60.31-43.24-98.84-71.09Z"/>
    <path class="st0" d="M298.51,299.73l-86.16-85.36-26.24-25.75-7.19-6.94-1.92-1.79c-.2-.21-.43-.41-.67-.58.18.23.38.45.59.65l1.82,1.86,7.08,7.05,26.22,25.77,87,84.59c34,33,64.67,62.92,86.77,84.71,11.05,10.89,19.95,19.75,26.06,25.92,3.05,3.08,5.4,5.49,7,7.14.85.8,1.62,1.68,2.31,2.62-.96-.67-1.85-1.43-2.67-2.27-1.69-1.55-4.14-3.86-7.28-6.86-6.29-6-15.31-14.73-26.41-25.58-22.23-21.7-52.7-51.84-86.31-85.18Z"/>
    <path class="st0" d="M290.18,306.51l-71.45-97.35-21.81-29.39c-2.58-3.44-4.6-6.11-6-8l-1.59-2c-.17-.24-.36-.47-.57-.68.14.26.3.5.48.74l1.5,2.11,5.86,8,21.79,29.41,72.36,96.71c28.25,37.76,53.84,71.94,72.18,96.83,9.17,12.43,16.55,22.53,21.59,29.54,2.52,3.51,4.46,6.25,5.75,8.12.71.91,1.34,1.89,1.86,2.93-.84-.81-1.6-1.69-2.27-2.64-1.42-1.79-3.47-4.44-6.1-7.88-5.25-6.87-12.76-16.87-22-29.26-18.44-24.79-43.76-59.17-71.58-97.19Z"/>
    <path class="st0" d="M280.86,312c-21.45-41.79-40.85-79.6-54.91-107-7.09-13.64-12.83-24.68-16.81-32.35l-4.63-8.76-1.24-2.27c-.13-.26-.28-.51-.45-.75.09.28.21.55.35.8l1.14,2.31c1.05,2.05,2.56,5,4.5,8.83,4,7.67,9.7,18.72,16.78,32.36l55.91,106.46c21.86,41.56,41.59,79.22,55.71,106.57,7.06,13.67,12.72,24.76,16.57,32.46,1.93,3.84,3.4,6.84,4.38,8.89.56,1.01,1.02,2.08,1.36,3.18-.7-.94-1.31-1.94-1.82-3-1.11-2-2.72-4.91-4.76-8.7-4.07-7.59-9.89-18.61-17-32.25-14.25-27.25-33.69-65.05-55.08-106.78Z"/>
    <path class="st0" d="M270.77,315.9l-36.9-114.08-11.36-34.51c-1.36-4-2.43-7.19-3.16-9.36l-.85-2.43c-.08-.28-.2-.55-.33-.81.05.29.12.57.22.85.18.58.43,1.39.75,2.45l3,9.41c2.69,8.18,6.56,20,11.33,34.52l38,113.74c14.86,44.38,28.25,84.59,37.76,113.76,4.77,14.56,8.55,26.4,11.11,34.56,1.28,4.09,2.25,7.28,2.88,9.45.39,1.08.66,2.2.83,3.34-.55-1.01-.99-2.08-1.32-3.19-.78-2.12-1.89-5.27-3.29-9.32-2.8-8.12-6.76-19.89-11.58-34.45-9.65-29.09-22.72-69.4-37.09-113.93Z"/>
    <path class="st0" d="M260.17,318.25c-7-46.19-13.37-88-18-118.29-2.37-15.11-4.29-27.33-5.63-35.82l-1.6-9.73c-.19-1.09-.34-1.93-.45-2.53-.04-.29-.1-.57-.19-.85,0,.29.03.58.08.87.08.6.2,1.45.35,2.54.33,2.26.82,5.54,1.45,9.75,1.32,8.49,3.24,20.72,5.6,35.83,4.89,30.25,11.63,72,19.09,118.13,7.46,46.13,14.2,87.85,18.87,118.11,2.34,15.13,4.17,27.38,5.37,35.86.6,4.24,1.05,7.53,1.32,9.77.21,1.13.3,2.28.28,3.43-.35-1.08-.58-2.19-.71-3.32-.43-2.21-1-5.48-1.74-9.7-1.45-8.44-3.46-20.67-5.86-35.79-4.86-30.28-11.25-72.08-18.23-118.26Z"/>
    <path class="st0" d="M249.32,319c.43-46.69.82-89,1.11-119.57.06-15.28.12-27.65.15-36.24v-12.41c0-.29-.02-.59-.05-.88-.05.29-.07.58-.06.87,0,.61,0,1.46-.06,2.57,0,2.28-.07,5.59-.12,9.85,0,8.59-.11,21-.18,36.24v119.57c0,46.69,0,88.94-.21,119.53-.1,15.3-.25,27.68-.41,36.24-.08,4.27-.17,7.6-.26,9.85.02,1.15-.07,2.3-.26,3.43-.2-1.13-.28-2.28-.24-3.43-.06-2.26-.12-5.58-.16-9.86-.09-8.55-.11-20.94-.08-36.23,0-30.63.36-72.89.83-119.53Z"/>
    <path class="st0" d="M238.48,318.05c7.89-46.06,15-87.74,20.22-118,2.51-15.08,4.53-27.29,5.94-35.77.67-4.2,1.19-7.48,1.55-9.74.16-1.09.28-1.93.37-2.53s.1-.87.09-.87c-.1.28-.16.56-.2.85-.12.6-.27,1.43-.48,2.52l-1.69,9.71c-1.42,8.48-3.46,20.69-6,35.77-4.89,30.26-11.64,72-19.11,118.13s-14.17,87.88-19.29,118.09c-2.55,15.09-4.67,27.3-6.2,35.73-.76,4.21-1.38,7.48-1.83,9.69-.17,1.15-.45,2.28-.85,3.37,0-1.15.11-2.3.32-3.43.29-2.23.76-5.53,1.41-9.76,1.28-8.46,3.23-20.7,5.71-35.81,5-30.23,12.11-71.92,20.04-117.95Z"/>
    <path class="st0" d="M227.92,315.48l39.08-113.38c4.92-14.51,8.91-26.26,11.67-34.42l3.1-9.38c.34-1.05.59-1.87.78-2.45.09-.27.17-.56.23-.84-.14.26-.26.53-.34.81-.21.57-.5,1.37-.87,2.42-.76,2.16-1.85,5.3-3.26,9.33l-11.69,34.43c-9.74,29.13-23.17,69.32-38,113.73s-28.26,84.58-38.19,113.61c-5,14.52-9,26.25-11.92,34.34-1.44,4-2.58,7.18-3.38,9.29-.35,1.1-.8,2.17-1.35,3.19.17-1.14.46-2.26.86-3.34.65-2.17,1.65-5.35,3-9.43,2.64-8.16,6.55-19.95,11.45-34.48,9.75-29.1,23.54-69.19,38.83-113.43Z"/>
    <path class="st0" d="M217.92,311.34c22.23-41.39,42.36-78.85,57-106,7.2-13.58,13-24.57,17.09-32.2l4.58-8.79,1.17-2.3c.14-.26.26-.52.36-.8-.18.23-.33.49-.46.75l-1.26,2.25c-1.09,2-2.68,5-4.72,8.72l-17.12,32.19-55.95,106.5c-21.81,41.58-41.62,79.21-56.12,106.36-7.25,13.58-13.17,24.54-17.33,32.09-2.07,3.77-3.7,6.69-4.84,8.66-.52,1.04-1.13,2.02-1.84,2.94.36-1.1.83-2.16,1.4-3.17,1-2,2.49-5,4.46-8.85,3.93-7.66,9.7-18.7,16.89-32.3,14.33-27.22,34.43-64.7,56.69-106.05Z"/>
    <path class="st0" d="M208.71,305.72l73.29-96,22.07-29.21,5.94-8,1.52-2.09c.18-.23.34-.48.48-.74-.21.21-.4.44-.57.68l-1.6,2-6.07,7.9-22.08,29.19-72.4,96.69c-28.23,37.76-53.84,71.91-72.54,96.52-9.34,12.31-17,22.24-22.27,29.06-2.66,3.42-4.74,6-6.17,7.82-.68.95-1.45,1.83-2.3,2.63.53-1.04,1.16-2.01,1.89-2.92,1.31-1.86,3.27-4.58,5.83-8.06,5.11-7,12.59-17,21.88-29.34,18.58-24.7,44.46-58.67,73.1-96.13Z"/>
    <path class="st0" d="M200.51,298.78l87.77-83.78,26.48-25.52,7.14-7,1.84-1.84c.22-.2.42-.41.6-.65-.25.17-.47.36-.68.58l-1.91,1.77-7.25,6.88-26.5,25.49-87,84.57c-33.92,33-64.69,62.89-87.1,84.38-11.2,10.75-20.31,19.41-26.65,25.34-3.17,3-5.65,5.26-7.35,6.79-.82.81-1.72,1.55-2.67,2.21.69-.94,1.47-1.81,2.33-2.6,1.59-1.64,4-4,7-7.08,6.17-6.11,15.15-14.88,26.31-25.68,22.36-21.54,53.36-51.18,87.64-83.86Z"/>
    <path class="st0" d="M193.52,290.68l100.12-69.51,30.24-21.17,8.17-5.83,2.11-1.54c.25-.17.48-.35.7-.55-.27.14-.52.29-.76.47l-2.17,1.45-8.27,5.7-30.25,21.18-99.41,70.37c-38.8,27.5-74,52.35-99.55,70.19-12.78,8.93-23.17,16.1-30.38,21-3.61,2.45-6.42,4.34-8.35,5.59-.94.7-1.94,1.31-3,1.81.83-.82,1.74-1.56,2.72-2.21,1.83-1.38,4.56-3.38,8.09-5.93,7.07-5.1,17.35-12.41,30.1-21.39,25.43-17.94,60.8-42.53,99.89-69.63Z"/>
    <path class="st0" d="M187.92,281.62l110.08-53.43,33.28-16.35,9-4.51,2.33-1.2c.27-.13.53-.28.77-.45-.28.1-.55.22-.82.35l-2.38,1.11-9.08,4.37-33.29,16.33-109.56,54.41c-42.74,21.27-81.48,40.47-109.61,54.21-14.06,6.87-25.47,12.38-33.39,16.13-4,1.87-7,3.31-9.14,4.25-1.04.55-2.14.99-3.27,1.33.94-.68,1.95-1.27,3-1.77,2-1.08,5-2.64,8.95-4.63,7.8-4,19.13-9.62,33.17-16.55,28.1-13.86,67.04-32.77,109.96-53.6Z"/>
    <path class="st0" d="M183.85,271.83l117.35-35.94,35.51-11.06,9.63-3.08,2.49-.83c.29-.08.57-.19.84-.32-.3.05-.59.12-.87.22l-2.53.73-9.68,2.93-35.51,11-117,37c-45.66,14.47-87,27.51-117,36.77-15,4.63-27.15,8.33-35.58,10.82-4.21,1.25-7.49,2.19-9.72,2.8-1.12.38-2.27.66-3.44.82,1.05-.54,2.15-.98,3.29-1.29,2.18-.76,5.41-1.84,9.58-3.2,8.35-2.73,20.46-6.58,35.44-11.28,29.93-9.37,71.35-22.1,117.2-36.09Z"/>
    <path class="st0" d="M181.42,261.52l121.71-17.52,36.85-5.5,10-1.56,2.6-.44c.3-.03.59-.1.88-.19-.3,0-.6.04-.9.08l-2.61.34-10,1.42-36.86,5.46-121.56,18.61c-47.43,7.31-90.39,13.86-121.53,18.42-15.57,2.28-28.17,4.07-36.9,5.24-4.36.59-7.75,1-10,1.29-1.17.2-2.35.29-3.53.27,1.12-.36,2.28-.61,3.45-.76,2.28-.42,5.65-1,10-1.7,8.69-1.41,21.27-3.37,36.82-5.71,31.07-4.7,74.08-10.93,121.58-17.75Z"/>
    <path class="st0" d="M180.68,251l123,1,37.29.13h12.77c.3.02.6.02.9,0-.3-.05-.6-.07-.9-.06l-2.64-.06-10.1-.25-37.29-.15-123,.07c-48,.07-91.51.06-123-.13-15.74-.09-28.48-.22-37.28-.38-4.4-.07-7.82-.16-10.14-.24-1.18.03-2.36-.06-3.53-.26,1.17-.18,2.35-.26,3.53-.23,2.32-.06,5.74-.12,10.14-.16,8.81-.09,21.55-.13,37.29-.1,31.46.05,74.94.37,122.96.82Z"/>
    <path class="st0" d="M181.62,240.44l121.38,19.56,36.81,5.75,10,1.5,2.61.35c.3.06.6.09.9.09-.29-.09-.58-.15-.88-.19l-2.6-.46-10-1.64-36.81-5.79-121.52-18.47c-47.45-7.14-90.41-13.76-121.51-18.7-15.53-2.46-28.09-4.52-36.76-6-4.34-.74-7.7-1.34-10-1.78-1.17-.15-2.33-.41-3.45-.79,1.18,0,2.37.1,3.53.31,2.3.28,5.69.74,10,1.36,8.72,1.24,21.31,3.13,36.85,5.53,31.18,4.81,74.09,11.69,121.45,19.37Z"/>
    <path class="st0" d="M184.25,230.18l116.69,37.91,35.42,11.32,9.66,3,2.52.75c.28.1.57.17.87.22-.27-.13-.55-.24-.84-.33l-2.49-.84-9.6-3.16-35.41-11.34-117.07-36.86c-45.7-14.35-87-27.41-116.93-37-14.94-4.81-27-8.76-35.34-11.56-4.16-1.39-7.39-2.5-9.56-3.28-1.13-.33-2.23-.77-3.28-1.31,1.17.17,2.32.45,3.44.84,2.22.63,5.49,1.6,9.7,2.88,8.4,2.56,20.53,6.35,35.49,11.1,29.95,9.48,71.2,22.82,116.73,37.66Z"/>
    <path class="st0" d="M188.51,220.45l109.1,55.28,33.15,16.6,9,4.45,2.37,1.13c.27.13.54.25.82.35-.24-.17-.5-.32-.77-.45l-2.32-1.22-9-4.58-33.14-16.62-109.54-54.31c-42.8-21.17-81.52-40.4-109.47-54.48-14-7-25.26-12.78-33-16.81-3.88-2-6.89-3.6-8.91-4.7-1.06-.5-2.06-1.1-3-1.8,1.1.36,2.17.82,3.2,1.36,2.1,1,5.17,2.43,9.11,4.33,7.88,3.81,19.24,9.42,33.25,16.4,28.01,13.96,66.64,33.47,109.15,55.07Z"/>
    <path class="st0" d="M194.29,211.5l98.86,71.17,30.07,21.43,8.22,5.77,2.16,1.47c.24.18.49.34.75.48-.21-.21-.44-.4-.69-.56l-2.09-1.56-8.13-5.89-30.05-21.44-99.53-70.3c-38.87-27.41-74-52.29-99.37-70.44-12.67-9.08-22.89-16.47-29.91-21.63-3.51-2.58-6.23-4.6-8-6-.96-.66-1.87-1.41-2.7-2.23,1.06.51,2.06,1.13,3,1.83,1.92,1.27,4.71,3.18,8.3,5.66,7.17,5,17.49,12.22,30.2,21.25,25.38,18.05,60.34,43.18,98.91,70.99Z"/>
    <path class="st0" d="M201.43,203.53l86.27,85.25,26.3,25.71,7.2,6.94,1.89,1.79c.21.21.44.4.67.58-.17-.24-.37-.46-.59-.66l-1.82-1.85-7.09-7.05-26.26-25.73-87.09-84.51c-34-33-64.75-62.83-86.88-84.6-11.03-10.86-19.98-19.7-26.09-25.86-3.06-3.08-5.41-5.49-7-7.14-.85-.79-1.62-1.67-2.31-2.61.96.67,1.85,1.42,2.67,2.26,1.7,1.55,4.16,3.86,7.3,6.85,6.29,6,15.33,14.72,26.44,25.55,22.22,21.67,52.74,51.78,86.39,85.08Z"/>
    <path class="st0" d="M209.75,196.73l71.58,97.27,21.84,29.37,6,7.95,1.58,2c.17.24.36.47.57.68-.13-.26-.29-.51-.48-.74-.35-.5-.85-1.2-1.5-2.1l-5.87-8-21.82-29.38-72.49-96.62c-28.32-37.69-53.91-71.86-72.28-96.71-9.19-12.45-16.58-22.51-21.63-29.52-2.53-3.51-4.47-6.24-5.76-8.11-.72-.91-1.35-1.89-1.87-2.93.84.81,1.6,1.69,2.28,2.64,1.42,1.78,3.48,4.43,6.1,7.87,5.26,6.86,12.79,16.85,22,29.23,18.52,24.77,43.85,59.12,71.75,97.1Z"/>
    <path class="st0" d="M219.07,191.28l55.05,107,16.88,32.27,4.65,8.76,1.24,2.26c.13.26.28.52.45.76-.09-.28-.21-.55-.35-.81-.28-.54-.65-1.31-1.15-2.3l-4.5-8.83-16.83-32.34c-14.35-27.27-34.16-64.88-56.05-106.45s-41.69-79.16-55.84-106.49c-7.12-13.67-12.8-24.75-16.62-32.44-1.93-3.85-3.41-6.84-4.38-8.89-.57-1.01-1.02-2.08-1.37-3.18.7.94,1.31,1.95,1.82,3,1.11,2,2.72,4.91,4.77,8.7,4.09,7.58,9.91,18.58,17,32.22,14.29,27.23,33.77,65.01,55.23,106.76Z"/>
    <path class="st0" d="M229.15,187.32c14.46,44.53,27.56,84.82,37,114l11.4,34.5c1.37,4,2.44,7.19,3.17,9.36l.86,2.42c.09.28.2.56.33.82-.05-.29-.12-.57-.22-.85l-.76-2.46c-.7-2.18-1.72-5.34-3-9.4l-11.38-34.51c-9.76-29.12-23.24-69.3-38.13-113.69s-28.32-84.51-37.87-113.68c-4.78-14.58-8.59-26.39-11.16-34.58-1.29-4.09-2.26-7.27-2.89-9.44-.4-1.08-.68-2.21-.84-3.35.54,1.02.98,2.09,1.32,3.2.78,2.12,1.9,5.26,3.3,9.32,2.81,8.1,6.79,19.87,11.63,34.43,9.68,29.11,22.81,69.4,37.24,113.91Z"/>
    <path class="st0" d="M239.74,185c7.08,46.19,13.49,88,18.13,118.28,2.4,15.1,4.34,27.32,5.68,35.81.7,4.2,1.24,7.47,1.62,9.73.19,1.08.34,1.92.45,2.52.04.29.1.58.19.86,0-.29-.03-.58-.08-.87-.08-.61-.2-1.45-.35-2.54l-1.46-9.79c-1.34-8.49-3.27-20.72-5.65-35.82-4.93-30.25-11.73-72-19.24-118.11s-14.32-87.85-19.03-118.07c-2.36-15.12-4.21-27.37-5.42-35.85-.61-4.24-1.05-7.53-1.33-9.77-.21-1.13-.3-2.28-.28-3.43.37,1.09.63,2.21.78,3.35.43,2.22,1,5.49,1.76,9.71,1.46,8.44,3.48,20.66,5.9,35.78,4.85,30.21,11.29,72,18.33,118.21Z"/>
    <path class="st0" d="M250.59,184.22c-.37,46.7-.71,89-1,119.58,0,15.28-.08,27.65-.11,36.24v12.41c-.02.29-.02.58,0,.87.05-.29.07-.58.06-.87,0-.61,0-1.46.06-2.56,0-2.29.06-5.6.11-9.85,0-8.59.07-21,.13-36.24,0-30.63-.09-72.88-.15-119.58s-.11-88.93.06-119.53c.08-15.3.21-27.68.36-36.23.08-4.28.16-7.6.25-9.85-.03-1.15.06-2.31.26-3.44.18,1.14.26,2.29.24,3.44.07,2.25.13,5.57.17,9.85.1,8.56.14,20.94.12,36.24.15,30.59-.15,72.86-.56,119.52Z"/>
    <path class="st0" d="M261.44,185.13c-7.84,46.07-14.93,87.76-20.07,118-2.49,15.09-4.5,27.3-5.9,35.78-.66,4.21-1.17,7.48-1.53,9.74-.16,1.09-.28,1.94-.36,2.54-.06.29-.09.58-.09.87.09-.28.15-.56.2-.85.11-.6.26-1.44.46-2.53.4-2.25,1-5.51,1.69-9.71,1.4-8.48,3.43-20.69,5.93-35.78,4.85-30.26,11.55-72,19-118.15s14.04-87.89,19.11-118.04c2.52-15.1,4.63-27.31,6.15-35.74.76-4.21,1.37-7.48,1.82-9.69.16-1.14.43-2.27.81-3.36.01,1.15-.09,2.31-.31,3.44-.29,2.23-.76,5.52-1.4,9.76-1.27,8.46-3.2,20.7-5.67,35.81-4.92,30.17-11.97,71.87-19.84,117.91Z"/>
    <path class="st0" d="M272,187.68c-15.21,44.3-29,84.38-38.94,113.44-4.9,14.51-8.86,26.27-11.62,34.43-1.33,4.05-2.37,7.21-3.09,9.38-.33,1.06-.59,1.87-.77,2.45-.1.28-.17.56-.23.85.14-.26.26-.53.34-.81.21-.58.49-1.38.87-2.42l3.24-9.34,11.65-34.42c9.7-29.14,23.07-69.35,37.86-113.78s28.15-84.62,38-113.66c4.94-14.53,9-26.26,11.87-34.35,1.43-4.05,2.57-7.18,3.37-9.3.36-1.09.82-2.15,1.38-3.15-.17,1.14-.45,2.27-.85,3.35-.65,2.16-1.65,5.34-3,9.42-2.63,8.17-6.52,20-11.4,34.5-9.68,29.05-23.45,69.15-38.68,113.41Z"/>
    <path class="st0" d="M282,191.82c-22.19,41.41-42.26,78.9-56.81,106.06-7.19,13.59-13,24.59-17.06,32.23-2,3.8-3.51,6.75-4.57,8.79-.5,1-.88,1.76-1.16,2.3-.14.26-.26.53-.36.81.17-.24.33-.5.46-.76.3-.53.71-1.28,1.25-2.25l4.71-8.73,17.08-32.21,55.83-106.56c21.75-41.61,41.5-79.26,56-106.43,7.23-13.59,13.13-24.56,17.28-32.11,2.07-3.78,3.69-6.7,4.83-8.67.51-1.04,1.13-2.02,1.84-2.94-.37,1.1-.84,2.16-1.4,3.17-1,2-2.49,5-4.45,8.85-3.94,7.63-9.69,18.71-16.87,32.33-14.34,27.23-34.39,64.73-56.6,106.12Z"/>
    <path class="st0" d="M291.22,197.42l-73.17,96.14c-9.29,12.32-16.8,22.3-22,29.23-2.56,3.46-4.56,6.14-5.93,8l-1.52,2.09c-.18.23-.34.48-.49.74.21-.21.41-.44.58-.68l1.6-2c1.4-1.84,3.44-4.49,6-7.9l22.05-29.23,72.3-96.81c28.18-37.8,53.75-72,72.41-96.62,9.33-12.31,16.95-22.25,22.23-29.08,2.66-3.41,4.73-6,6.17-7.82.68-.95,1.44-1.83,2.29-2.63-.53,1.03-1.16,2.01-1.88,2.92-1.31,1.86-3.27,4.58-5.82,8.07-5.11,7-12.57,17-21.84,29.37-18.55,24.72-44.39,58.71-72.98,96.21Z"/>
    <path class="st0" d="M299.43,204.36l-87.67,83.9-26.43,25.55-7.14,7-1.83,1.84c-.22.2-.42.42-.6.65.24-.17.46-.36.67-.57l1.91-1.77,7.24-6.9c6.28-6.05,15.31-14.76,26.46-25.53l86.88-84.67c33.88-33.08,64.61-63,87-84.5,11.18-10.76,20.27-19.42,26.61-25.36,3.16-3,5.64-5.26,7.34-6.8.82-.83,1.72-1.58,2.68-2.25-.69.94-1.47,1.82-2.33,2.6-1.58,1.64-4,4-7,7.09-6.15,6.12-15.13,14.91-26.27,25.71-22.32,21.65-53.28,51.29-87.52,84.01Z"/>
    <path class="st0" d="M306.43,212.44l-100,69.63-30.21,21.25-8.22,5.83-2.1,1.54c-.25.17-.48.36-.7.56.27-.14.52-.29.76-.47l2.17-1.46,8.26-5.71,30.22-21.23,99.39-70.51c38.76-27.55,73.9-52.44,99.45-70.31,12.78-8.94,23.15-16.13,30.36-21,3.6-2.46,6.42-4.35,8.34-5.61.94-.7,1.94-1.31,3-1.81-.83.82-1.74,1.56-2.71,2.21-1.84,1.38-4.56,3.39-8.09,5.94-7.06,5.11-17.34,12.44-30.07,21.43-25.46,17.94-60.79,42.58-99.85,69.72Z"/>
    <path class="st0" d="M312,221.49l-110,53.58-33.25,16.39-9,4.52-2.33,1.21c-.27.12-.53.27-.77.44.28-.1.56-.21.82-.35l2.38-1.11,9.08-4.39,33.26-16.37c28-14,66.74-33.24,109.49-54.55s81.43-40.57,109.54-54.34c14.06-6.88,25.46-12.41,33.37-16.17,3.95-1.88,7-3.31,9.14-4.26,1.05-.54,2.14-.99,3.26-1.34-.94.69-1.94,1.29-3,1.78-2,1.08-5.05,2.65-8.95,4.64-7.8,4-19.12,9.65-33.14,16.59-28.05,13.89-66.9,32.86-109.9,53.73Z"/>
    <path class="st0" d="M316.12,231.29l-117.3,36.08-35.49,11.11-9.63,3.09-2.49.83c-.29.08-.57.19-.84.32.3-.05.59-.12.87-.22l2.53-.73,9.67-2.94,35.5-11.08,117-37.13c45.63-14.53,87-27.62,117-36.92,15-4.65,27.15-8.37,35.57-10.87,4.21-1.25,7.49-2.2,9.72-2.81,1.12-.38,2.27-.66,3.44-.82-1.05.53-2.16.96-3.29,1.29-2.18.76-5.41,1.84-9.58,3.21-8.35,2.74-20.45,6.61-35.42,11.32-30.02,9.43-71.47,22.22-117.26,36.27Z"/>
    <path class="st0" d="M318.56,241.59l-121.68,17.69-36.88,5.54-10,1.58-2.6.44c-.3.04-.59.1-.88.19.3,0,.6-.03.9-.08l2.61-.34,10-1.43,36.85-5.51,121.51-18.78c47.42-7.37,90.37-14,121.5-18.57,15.56-2.3,28.16-4.11,36.88-5.29,4.36-.59,7.75-1,10.05-1.29,1.17-.2,2.35-.3,3.54-.29-1.13.37-2.28.63-3.46.77-2.28.42-5.64,1-10,1.71-8.68,1.43-21.25,3.4-36.81,5.76-31.03,4.74-74.03,11.03-121.53,17.9Z"/>
    <path class="st4" d="M407.23,464c-.82-2.55-1.99-4.97-3.47-7.2-1.51-2.24-3.87-3.78-6.53-4.24-2.65-.33-5.59,1.1-6.45,3.63-.38-5.7-1.19-11.54-4-16.49s-8.18-8.83-13.88-8.49c-5.37.33-10,4.32-12.53,9.06s-3.44,10.18-4.28,15.5c-2-2.5-6.33-1.72-8.46.71s-2.67,5.81-3.12,9h64.1l-1.38-1.48Z"/>
  </g>
  <g id="freepik--Clock--inject-1">
    <path class="st1" d="M302,358.58c-7.1-3.57-13.4-8.56-18.49-14.67-1.32-1.6-2.56-3.27-3.71-5-.85-1.28-2.78-3.48-3-5-.4-3,4.53-6.24,6.92-7.09s7.37-1.44,9.23.66c1.47,1.66,1.65,5.89,2.4,8,2.14,6.06,5.34,11.7,9.46,16.64.95.97,1.69,2.12,2.18,3.38.47,1.31,0,2.78-1.14,3.57-1.16.68-2.62.12-3.85-.49Z"/>
    <g class="st6">
      <path d="M345.31,241.15l-7.31,1.53-7.66,54.72s5.76-3.86,8.68-4.51c3.89-6.88,6.46-14.43,7.58-22.26,1.4-9.85,2.46-20.26-1.29-29.48Z"/>
    </g>
    <g class="st6">
      <path d="M157.53,236.69s14.15-33.55,26.41-46.38c0,0,8.65,3.88,12.46,4.37s-.33,1.1-1.32,1.1-31.08,51.22-31.08,51.22c0,0-3.75-7.49-6.47-10.31Z"/>
    </g>
    <ellipse class="st1" cx="335.46" cy="195.56" rx="10.5" ry="41.29" transform="translate(-50.83 234.99) rotate(-36.07)"/>
    <path class="st1" d="M357.26,177.07c13.5,18.32,14.65,37.52,5,47.41-6.66,6.85-19.33-8.6-32.83-26.92s-25.84-34.88-17.64-39.77c13.09-7.79,31.97.96,45.47,19.28Z"/>
    <g class="st6">
      <ellipse cx="335.46" cy="195.56" rx="10.5" ry="41.29" transform="translate(-50.83 234.99) rotate(-36.07)"/>
    </g>
    <path class="st1" d="M208.08,179.18s-14.34,6.33-40.3,49.5l107.41,123.71s38.3-22.54,49.43-49.14l-116.54-124.07Z"/>
    <path class="st1" d="M318.53,278.85c0,45.61-33.86,82.14-78.27,82.14s-85.26-41.99-85.26-87.64c-.01-13.9,3.42-27.58,10-39.82,13.69-25.49,40.12-42.76,70.47-42.76,44.38,0,83.06,42.47,83.06,88.08Z"/>
    <path class="st1" d="M342.83,253.49c0,46.64-35.13,84-81.21,84s-88.45-43-88.45-89.61c-.03-14.22,3.52-28.22,10.32-40.71,14.51-26.88,42.57-43.67,73.12-43.73,46.09,0,86.22,43.41,86.22,90.05Z"/>
    <path class="st3" d="M338,256.74c0,45.62-33.85,82.14-78.27,82.14s-85.25-42-85.25-87.63,36-82.59,80.42-82.59,83.1,42.47,83.1,88.08Z"/>
    <path class="st2" d="M338,256.74s0-.45-.06-1.34,0-2.22-.19-4c-.35-5.06-1.15-10.08-2.4-15-.4-1.6-.9-3.27-1.42-5s-1.16-3.57-1.93-5.43c-1.56-4.07-3.42-8.02-5.56-11.81-5.18-9.29-11.9-17.64-19.88-24.68-4.63-4.08-9.68-7.67-15.06-10.71-2.86-1.6-5.81-3.04-8.84-4.3-3.16-1.29-6.39-2.37-9.69-3.23-13.37-3.61-28.81-3.13-43.55,1.92-15.5,5.41-28.99,15.41-38.66,28.68-5.09,6.99-9.05,14.72-11.76,22.93-4.25,12.72-5.34,26.28-3.15,39.51.75,4.35,1.84,8.63,3.25,12.81,2.79,8.18,6.73,15.92,11.69,23,9.35,13.47,22.07,24.26,36.89,31.28,6.89,3.21,14.21,5.41,21.73,6.53,7.1,1.04,14.3,1.04,21.4,0,12.8-1.8,24.92-6.86,35.19-14.7,8.47-6.45,15.54-14.55,20.8-23.81,3.95-6.99,6.89-14.51,8.75-22.32,1.16-4.93,1.9-9.95,2.21-15,.15-1.74.12-3.07.17-4s.06-1.35.06-1.35v1.35c0,.89,0,2.23-.11,4-.27,5.08-.98,10.12-2.12,15.07-1.83,7.84-4.76,15.39-8.7,22.41-5.24,9.33-12.33,17.5-20.83,24-16.22,12.34-36.71,17.69-56.89,14.84-7.57-1.12-14.93-3.33-21.87-6.55-14.9-7.05-27.68-17.89-37.09-31.42-5-7.11-8.96-14.89-11.77-23.11-1.42-4.21-2.51-8.52-3.27-12.89-2.2-13.31-1.12-26.96,3.17-39.75,2.72-8.25,6.72-16.03,11.84-23.05,9.73-13.35,23.31-23.41,38.91-28.84,14.83-5.06,30.37-5.53,43.82-1.87,3.31.87,6.57,1.95,9.74,3.25,3.04,1.27,6.01,2.72,8.88,4.34,5.4,3.05,10.46,6.67,15.1,10.78,7.97,7.06,14.69,15.42,19.87,24.72,2.14,3.81,3.99,7.77,5.54,11.86.77,1.87,1.32,3.72,1.92,5.45s1,3.44,1.4,5.05c1.22,4.92,1.99,9.94,2.31,15,.14,1.73.09,3.07.13,4,.04.93.03,1.38.03,1.38Z"/>
    <path class="st2" d="M276.28,188.2l-3.77,13.85-3.21-.87,3.07-11.28-2.77-.75.7-2.57,5.98,1.62Z"/>
    <path class="st2" d="M286,202.91l-.71,2.61-10.47-2.85.57-2.07,6.71-3.59c.56-.28,1.08-.64,1.53-1.08.28-.31.49-.68.61-1.08.16-.48.08-1.02-.22-1.43-.39-.46-.93-.78-1.53-.9-.56-.16-1.15-.19-1.73-.1-.56.1-1.08.35-1.51.71l-1.95-2.13c.78-.67,1.73-1.11,2.75-1.28,1.15-.2,2.33-.12,3.45.21.93.23,1.81.65,2.57,1.24.64.49,1.13,1.15,1.41,1.91.25.76.25,1.58,0,2.34-.18.73-.52,1.42-1,2-.7.73-1.53,1.32-2.45,1.75l-4,2.14,5.97,1.6Z"/>
    <path class="st2" d="M310.12,209.16l-2.55,14.13-3.26-.59,2.07-11.5-2.83-.51.47-2.62,6.1,1.09Z"/>
    <path class="st2" d="M325.12,247.83l-.47,2.67-10.65-1.93.38-2.12,6.38-4.16c.53-.33,1.01-.74,1.42-1.21.26-.33.44-.72.52-1.13.12-.49,0-1.02-.34-1.4-.44-.42-1-.69-1.6-.76-.58-.11-1.17-.09-1.74.05-.54.15-1.04.44-1.44.84l-2.11-2c.72-.74,1.63-1.26,2.63-1.52,1.13-.29,2.31-.33,3.45-.1.95.15,1.86.49,2.67,1,.68.44,1.22,1.06,1.57,1.79.32.73.42,1.54.26,2.32-.13.75-.43,1.46-.88,2.08-.64.8-1.41,1.48-2.29,2l-3.8,2.48,6.04,1.1Z"/>
    <path class="st2" d="M322.81,275.86c.53.85.71,1.87.51,2.85-.14.81-.51,1.55-1.06,2.16-.61.65-1.4,1.1-2.26,1.31-1.1.24-2.25.24-3.35,0-.99-.18-1.96-.49-2.87-.92-.84-.39-1.6-.92-2.25-1.57l1.72-2.27c.49.52,1.07.95,1.7,1.28.66.35,1.37.59,2.11.72.66.16,1.36.11,2-.13.51-.21.87-.67.95-1.21.21-1.16-.57-1.89-2.33-2.21l-1.49-.27.38-2.16,3.5-2.76-6-1.09.47-2.62,9.89,1.78-.38,2.12-3.84,3.13c1.05.3,1.97.96,2.6,1.86Z"/>
    <path class="st2" d="M308.71,304.64l-2.3-.42-.54,3-3.19-.57.54-3-7.61-1.37.4-2.2,8.27-7.76,3.43.62-7.7,7.38,3.79.69.48-2.65,3.08.56-.47,2.64,2.3.41-.48,2.67Z"/>
    <path class="st2" d="M282,315.82c.8.95,1.11,2.23.84,3.44-.14.83-.5,1.61-1.06,2.24-.61.66-1.4,1.13-2.28,1.34-1.11.27-2.26.28-3.37.05-.99-.18-1.95-.49-2.86-.92-.85-.38-1.62-.91-2.27-1.57l1.74-2.26c.49.52,1.06.95,1.69,1.27.65.35,1.36.59,2.09.72.67.15,1.36.11,2-.14.84-.38,1.21-1.37.83-2.21-.09-.19-.21-.37-.37-.52-.73-.51-1.58-.83-2.47-.92l-3.61-.65,2.16-7.82,8.61,1.55-.47,2.63-5.84-1.05-.71,2.64,1.15.21c1.58.16,3.06.86,4.2,1.97Z"/>
    <path class="st2" d="M248.53,315.14c.65.47,1.16,1.12,1.47,1.86.31.77.39,1.61.23,2.42-.14.89-.55,1.71-1.16,2.36-.6.63-1.37,1.08-2.22,1.3-.92.23-1.89.26-2.82.08-1.75-.21-3.33-1.18-4.31-2.65-.94-1.68-1.2-3.65-.72-5.51.22-1.43.79-2.79,1.65-3.95.76-1,1.81-1.75,3-2.15,1.27-.39,2.62-.47,3.92-.21.73.13,1.44.35,2.12.65.6.24,1.15.58,1.64,1l-1.64,2.18c-.7-.63-1.58-1.04-2.52-1.18-1.03-.23-2.11-.04-3,.54-.91.69-1.51,1.71-1.68,2.84,1.1-.7,2.45-.93,3.72-.62.84.16,1.64.52,2.32,1.04ZM246.11,320.43c1-.67,1.26-2.01.6-3.01-.02-.02-.03-.05-.05-.07-.42-.49-1-.8-1.64-.89-.63-.13-1.29-.03-1.86.28-.53.29-.89.81-1,1.4-.12.58.02,1.18.39,1.64.44.51,1.05.83,1.71.91.63.15,1.29.05,1.85-.26h0Z"/>
    <path class="st2" d="M224.93,294.48l-.38,2.12-7.41,11.06-3.55-.64,7.13-10.54-4.68-.85-.41,2.3-2.91-.52.89-5,11.32,2.07Z"/>
    <path class="st2" d="M206.05,275.87c.27.65.34,1.36.2,2.05-.13.83-.54,1.6-1.16,2.16-.67.59-1.49.98-2.37,1.13-1.06.2-2.16.2-3.22,0-1.06-.18-2.08-.55-3-1.1-.76-.45-1.39-1.11-1.81-1.89-.37-.75-.49-1.6-.32-2.42.11-.7.43-1.34.91-1.86.5-.52,1.13-.89,1.83-1.08-.45-.39-.8-.88-1-1.44-.2-.56-.24-1.17-.12-1.76.12-.77.5-1.47,1.07-2,.61-.54,1.36-.91,2.17-1.06,1.95-.33,3.96.02,5.68,1,.71.41,1.29,1.02,1.67,1.75.35.7.46,1.49.3,2.26-.09.59-.34,1.15-.72,1.61-.39.45-.9.79-1.46,1,.59.42,1.06.99,1.35,1.65ZM202,278.58c.54-.26.91-.76,1-1.35.13-.58-.04-1.18-.45-1.6-.5-.5-1.15-.81-1.85-.9-.67-.16-1.37-.09-2,.2-.95.5-1.3,1.68-.8,2.62.07.14.16.26.26.38.49.49,1.13.8,1.82.89.68.14,1.39.06,2.02-.24ZM200,269.17c-.45.24-.76.68-.83,1.19-.11.49.02,1.01.36,1.38.4.42.94.68,1.51.75.57.13,1.16.07,1.69-.17.45-.23.77-.67.84-1.17.11-.5-.03-1.03-.37-1.41-.41-.42-.95-.68-1.53-.76-.56-.13-1.15-.07-1.67.19Z"/>
    <path class="st2" d="M204,239.57c.94,1.67,1.21,3.63.74,5.49-.21,1.45-.77,2.82-1.64,4-.76,1-1.81,1.75-3,2.15-1.27.4-2.62.47-3.93.2-.73-.13-1.44-.34-2.11-.64-.6-.24-1.15-.58-1.63-1l1.64-2.18c.7.64,1.58,1.05,2.52,1.18,1.03.24,2.12.04,3-.55.9-.7,1.51-1.72,1.69-2.85-1.11.71-2.46.94-3.74.64-.86-.14-1.67-.49-2.37-1-.65-.47-1.16-1.12-1.47-1.86-.32-.77-.4-1.62-.23-2.43.14-.88.54-1.7,1.15-2.35.6-.63,1.37-1.08,2.22-1.3.92-.23,1.89-.26,2.82-.08,1.76.18,3.34,1.12,4.34,2.58ZM200.58,243.35c.51-.3.86-.82.95-1.4.13-.58-.01-1.18-.38-1.64-.44-.5-1.04-.83-1.7-.91-.61-.14-1.26-.04-1.81.26-1,.67-1.26,2.01-.6,3.01.02.02.03.05.05.07.9.96,2.32,1.21,3.49.61Z"/>
    <path class="st2" d="M209.58,207.61l-3.45,13.93-3.22-.8,2.81-11.34-2.79-.69.64-2.59,6.01,1.49Z"/>
    <path class="st2" d="M211.6,222.24c-.78-.84-1.3-1.88-1.51-3-.41-2.73.27-5.52,1.91-7.74,2.1-2.56,5.88-2.94,8.44-.84.16.13.31.27.46.41.78.84,1.3,1.88,1.51,3,.4,2.73-.29,5.51-1.92,7.74-2.1,2.56-5.88,2.94-8.44.84-.16-.13-.31-.27-.46-.41h.01ZM217.42,220.53c.81-.9,1.35-2.01,1.56-3.2.38-1.15.42-2.39.11-3.56-.41-1.28-1.78-1.98-3.06-1.56-.35.11-.67.31-.94.56-.81.9-1.35,2.01-1.56,3.2-.38,1.15-.42,2.39-.11,3.57.24.8.9,1.4,1.71,1.58.81.23,1.69,0,2.29-.59h0Z"/>
    <path class="st2" d="M240.8,188l-3.46,13.93-3.22-.8,2.81-11.34-2.78-.69.64-2.59,6.01,1.49Z"/>
    <path class="st2" d="M248.6,189.89l-3.46,13.93-3.22-.8,2.81-11.34-2.79-.69.65-2.59,6.01,1.49Z"/>
    <g class="st6">
      <path d="M176.74,256.62c0-45.61,36-82.58,80.43-82.58,32.75,0,62.37,23.11,75.67,53.53-12-33-43.18-58.91-77.85-58.91-44.41,0-80.42,37-80.42,82.59.07,11.54,2.56,22.93,7.31,33.44-3.36-8.98-5.1-18.48-5.14-28.07Z"/>
    </g>
    <path class="st1" d="M263.29,150.51c-.3-1.61-18.35.34-40.33,4.37s-39.55,8.6-39.26,10.21,18.35-.35,40.33-4.37,39.55-8.6,39.26-10.21Z"/>
    <path class="st1" d="M223.48,154.77l-39.78,10.3s-4.37-26.7,34.08-34.39"/>
    <path class="st1" d="M263.29,150.51s-4-25.9-39.81-21.07c-1.06.15-5.7,1.24-5.7,1.24l4.7,24.24,40.81-4.41Z"/>
    <path class="st1" d="M209.34,133.52c-.66-4.73,2.64-9.1,7.37-9.76,4.45-.62,8.63,2.26,9.63,6.64"/>
    <path class="st1" d="M350,171.53c3.85-2.83,9.27-2.01,12.1,1.84s2.01,9.27-1.84,12.1h0"/>
    <g class="st5">
      <path d="M268.94,264.85l.34-3.85-8.12.19v-.19c0-1.31-.44-2.58-1.24-3.61l5.34-28.57c.09-.47.06-.95-.09-1.4-.6-1.62-2.4-2.45-4.02-1.86-.32.12-.62.29-.89.51h-.06c-.52.43-.87,1.03-1,1.69l-4.56,22.49-14.35-39.9-.79-1.1c-1.57-2.17-5.18-.73-4.58,1.84,0,.05,0,.09,0,.14.66,2.65,8.71,25.8,15.51,45.21-1.32,1.13-2.09,2.78-2.1,4.52v.49l-63.85,1.55,65,1.43c1.1,1.54,2.83,2.51,4.72,2.66,3.36,9.58,5.81,16.51,5.81,16.51l5.81-2.21-6-16.62.08-.11,9.04.19Z"/>
    </g>
    <path class="st7" d="M256.22,259.84l6.9-35.68c.12-.69.48-1.31,1-1.77h.06c1.29-1.09,3.23-.93,4.33.36.26.31.46.67.58,1.06h0c.15.47.19.98.1,1.47l-6.44,36.09-6.53-1.53Z"/>
    <path class="st7" d="M243.42,204.74c-.79-1.15-2.36-1.45-3.52-.67-.84.57-1.26,1.6-1.05,2.6v.15c1.16,4.87,25,75.86,25,75.86l5.81-2.32-25.51-74.47-.73-1.15Z"/>
    <polygon class="st2" points="272.89 263.02 273.23 258.98 188.44 261.07 272.89 263.02"/>
    <circle class="st1" cx="258.71" cy="258.98" r="6.42"/>
    <g class="st6">
      <path d="M263.29,150.51c-.3-1.61-18.35.34-40.33,4.37s-39.55,8.6-39.26,10.21,18.35-.35,40.33-4.37,39.55-8.6,39.26-10.21Z"/>
    </g>
    <path class="st2" d="M230.7,128.8c0,.09-1.52.11-4,.33-3.17.29-6.32.78-9.43,1.47-3.1.71-6.16,1.61-9.15,2.71-2.29.85-3.67,1.48-3.71,1.4.28-.22.6-.4.93-.53.6-.32,1.51-.74,2.65-1.21,2.97-1.22,6.04-2.18,9.17-2.88,3.13-.71,6.32-1.15,9.52-1.33,1.22-.06,2.22-.07,2.91,0,.37-.03.74-.02,1.11.04Z"/>
    <path class="st1" d="M218.25,155.7c.07,1.06,3.2,16.44,3.2,16.44l9.12-2.31-3.79-16.39-8.53,2.26Z"/>
    <path class="st2" d="M242,151.43c-.15.06-.3.1-.46.12l-1.35.26-5,.87c-4.2.74-10,1.78-16.38,3s-12.14,2.48-16.31,3.38l-4.93,1.07-1.35.28c-.16.03-.32.05-.48.06.14-.08.3-.14.46-.17l1.32-.36c1.15-.31,2.83-.74,4.9-1.23,4.15-1,9.9-2.29,16.29-3.54s12.21-2.24,16.42-2.88c2.11-.32,3.82-.56,5-.71l1.36-.16c.17-.02.34-.02.51.01Z"/>
    <path class="st2" d="M249.16,163.85c-.55.11-1.11.19-1.67.23-1.08.1-2.64.29-4.55.59s-4.18.73-6.66,1.33-5.19,1.41-8,2.4-5.36,2.14-7.66,3.25-4.32,2.24-6,3.24-3,1.85-3.88,2.46c-.45.33-.93.63-1.43.89.41-.39.85-.74,1.32-1.06.86-.66,2.15-1.56,3.79-2.6s3.66-2.19,6-3.36c2.5-1.24,5.07-2.34,7.69-3.31,2.62-.94,5.29-1.73,8-2.38,2.51-.57,4.8-1,6.73-1.22s3.5-.4,4.58-.44c.58-.06,1.16-.07,1.74-.02Z"/>
    <polygon class="st1" points="319.9 195.26 339.25 182.1 344.87 189.48 324.29 202.4 319.9 195.26"/>
    <path class="st2" d="M351.3,200c-.3-.33-.57-.68-.8-1.06-.55-.79-1.23-1.78-2.06-3-1.73-2.51-4.16-5.94-6.94-9.66s-5.41-7-7.39-9.31c-1-1.16-1.79-2.08-2.36-2.72-.31-.3-.59-.64-.84-1,.37.25.7.55,1,.88.61.6,1.47,1.48,2.49,2.62,2.05,2.26,4.73,5.52,7.53,9.24s5.17,7.2,6.83,9.76c.83,1.28,1.48,2.33,1.92,3.06.25.37.45.77.62,1.19Z"/>
    <path class="st2" d="M364.88,191c-.08,0-.69-1.5-1.85-3.88-1.51-3.1-3.26-6.08-5.22-8.91-1.97-2.83-4.15-5.5-6.53-8-1.83-1.91-3-3-3-3.09.33.2.64.44.92.7.57.48,1.37,1.2,2.32,2.14,2.48,2.45,4.72,5.13,6.7,8,1.98,2.86,3.69,5.89,5.12,9.06.54,1.21.94,2.21,1.19,2.92.15.34.27.7.35,1.06Z"/>
    <path class="st2" d="M325.15,200.8c-.34-.34-.66-.7-.93-1.1-.57-.72-1.4-1.77-2.47-3-2.75-3.3-5.71-6.42-8.84-9.36-3.13-2.94-6.44-5.7-9.9-8.25-1.33-1-2.42-1.75-3.18-2.28-.41-.25-.8-.54-1.15-.86.44.19.86.42,1.26.69.8.47,1.92,1.21,3.29,2.15,3.53,2.48,6.87,5.21,10,8.17,3.16,2.95,6.09,6.13,8.78,9.51,1,1.29,1.82,2.38,2.34,3.14.3.37.57.77.8,1.19Z"/>
    <path class="st2" d="M169,227.35s-.07.19-.22.54l-.69,1.54c-.59,1.36-1.48,3.36-2.5,6-7.7,18.44-8.03,39.14-.91,57.82,2.31,6.57,5.34,12.85,9.04,18.75,3.96,6.34,8.63,12.21,13.91,17.5,2.68,2.69,5.5,5.22,8.45,7.6,2.88,2.28,5.89,4.4,9,6.35,3.02,1.87,6.13,3.57,9.34,5.1,3.09,1.43,6.26,2.68,9.5,3.75,5.99,1.99,12.21,3.23,18.5,3.7,5.47.38,10.97.19,16.41-.56,7.89-1.09,15.57-3.39,22.76-6.81,2.55-1.2,4.46-2.27,5.75-3l1.46-.85.5-.28c-.15.12-.31.22-.48.32l-1.43.9c-1.27.76-3.17,1.86-5.71,3.1-7.19,3.5-14.88,5.86-22.79,7-5.46.78-10.99.99-16.5.62-6.32-.45-12.57-1.68-18.59-3.66-3.26-1.06-6.45-2.32-9.56-3.75-3.23-1.53-6.37-3.24-9.4-5.12-3.15-1.95-6.18-4.08-9.08-6.38-2.97-2.38-5.81-4.93-8.5-7.63-5.32-5.32-10.01-11.22-14-17.6-3.72-5.93-6.78-12.25-9.11-18.85-4.03-11.18-5.63-23.09-4.7-34.94.84-7.95,2.82-15.73,5.89-23.11,2.15-5.29,3.66-8.05,3.66-8.05Z"/>
    <path class="st1" d="M162.7,336.09c9.1-1.46,17.66-5.28,24.82-11.09,1.1-.9,3.4-2.31,4-3.63,1.18-2.57-2.18-6.92-4-8.38s-6-3.44-8.21-2.09c-1.74,1.06-3.08,4.8-4.34,6.49-3.55,4.79-7.93,8.9-12.92,12.16-1.1.6-2.06,1.41-2.84,2.39-.77,1.05-.77,2.48,0,3.53.84.88,2.27.81,3.49.62Z"/>
    <path class="st2" d="M161.17,330.31c0-.06,1.08-.92,2.82-2.38,2.27-1.89,4.45-3.89,6.51-6,2.06-2.13,4.01-4.36,5.84-6.69.71-1,1.48-1.96,2.3-2.88-.12.31-.28.6-.48.87-.34.54-.86,1.31-1.53,2.23-3.51,4.83-7.69,9.14-12.41,12.79-.9.7-1.65,1.24-2.19,1.59-.26.2-.55.36-.86.47Z"/>
    <path class="st2" d="M189.83,322.87c-.63.8-1.35,1.52-2.15,2.15-1.85,1.6-3.83,3.04-5.93,4.3-2.09,1.26-4.28,2.36-6.54,3.29-.91.44-1.87.77-2.86,1,.87-.5,1.78-.94,2.71-1.32,2.2-1.02,4.34-2.16,6.42-3.4,2.08-1.25,4.09-2.64,6-4.14.74-.67,1.53-1.3,2.35-1.88Z"/>
    <path class="st2" d="M190.71,322c.1-.93.14-1.87.1-2.8-.18-2.24-1.15-4.34-2.75-5.91-1.65-1.52-3.82-2.34-6.06-2.29-.93.07-1.85.21-2.76.41.21-.16.44-.27.69-.34.66-.25,1.36-.4,2.06-.44,2.37-.16,4.7.67,6.44,2.29,1.69,1.66,2.68,3.9,2.75,6.27.03.7-.03,1.41-.2,2.09-.04.26-.13.5-.27.72Z"/>
    <path class="st2" d="M304.48,244.29c.07.26.13.52.17.78.09.52.27,1.28.38,2.27.37,2.81.48,5.65.32,8.48-.68,14.76-8.2,28.36-20.35,36.78-3.44,2.42-7.19,4.38-11.14,5.82-2.65.99-5.4,1.72-8.19,2.19-1,.19-1.76.24-2.28.31-.26.05-.53.07-.8.06.26-.07.52-.12.78-.16.52-.11,1.29-.19,2.26-.41,2.76-.54,5.47-1.32,8.1-2.33,3.9-1.49,7.59-3.46,11-5.87,8.44-5.9,14.72-14.41,17.88-24.21,2.18-6.66,2.93-13.69,2.22-20.66-.08-1-.23-1.76-.28-2.28-.05-.25-.07-.51-.07-.77Z"/>
    <path class="st2" d="M296.47,259.14c.11.4.17.82.18,1.24.06.49.09.98.08,1.47.04.67.04,1.33,0,2-.1,1.69-.35,3.36-.75,5-.51,2.02-1.21,3.99-2.1,5.87-.92,1.87-2.02,3.64-3.28,5.29-1.04,1.34-2.21,2.58-3.48,3.71-.52.5-1,.88-1.5,1.24-.38.31-.78.59-1.2.85-.34.25-.7.47-1.09.64-.06-.09,1.46-1,3.54-3,1.21-1.15,2.33-2.4,3.35-3.73,2.47-3.28,4.27-7.02,5.3-11,.41-1.62.69-3.27.84-4.94.21-2.85.01-4.63.11-4.64Z"/>
    <g class="st6">
      <path class="st3" d="M218.11,132.08c-6.8,2.54-13.69,5.14-19.48,9.51s-10.42,10.84-10.84,18.08l26.16-6c-1.53-7.46-.04-15.23,4.16-21.59Z"/>
    </g>
    <g class="st6">
      <path class="st3" d="M315.09,158l.31.28c9.52,5.44,17.7,12.96,23.91,22,3.89-3.24,8.4-5.65,13.25-7.1-8.66-11.69-23.12-17.55-37.47-15.18Z"/>
    </g>
    <path class="st3" d="M203.35,139.13c0,.1-1.44.59-3.59,1.85-1.25.73-2.44,1.57-3.55,2.51-1.35,1.16-2.58,2.45-3.69,3.84-1.08,1.41-2.03,2.92-2.83,4.51-.64,1.3-1.17,2.66-1.58,4.06-.7,2.39-.82,3.94-.92,3.93-.05-.36-.05-.73,0-1.09.03-.43.08-.85.17-1.27.08-.56.2-1.12.35-1.67.37-1.43.88-2.83,1.51-4.17.79-1.63,1.75-3.18,2.85-4.62,1.12-1.42,2.39-2.72,3.79-3.88,1.14-.94,2.38-1.77,3.68-2.47.49-.28,1-.53,1.53-.75.38-.19.78-.35,1.19-.47.35-.15.72-.25,1.09-.31Z"/>
    <path class="st3" d="M215.45,126.27c.07.14-.91.71-1.86,1.69s-1.51,2-1.64,1.91c.44-1.74,1.77-3.12,3.5-3.6Z"/>
    <path class="st3" d="M285.84,170.5l-.24-.05-.69-.19c-.61-.16-1.49-.46-2.64-.75-3.25-.89-6.54-1.6-9.87-2.13-22.17-3.6-44.88,1.43-63.46,14.06-2.78,1.88-5.45,3.92-8,6.09-.92.76-1.59,1.4-2.07,1.8l-.55.47c-.12.1-.19.15-.2.14.05-.06.1-.12.16-.18l.51-.5c.46-.43,1.11-1.1,2-1.88,2.53-2.25,5.2-4.34,8-6.25,18.56-12.86,41.42-17.94,63.67-14.13,3.33.56,6.62,1.33,9.86,2.3,1.15.33,2,.66,2.62.85l.68.24.22.11Z"/>
    <path class="st3" d="M351.36,172.82c-.38-.42-.73-.86-1.05-1.33-.93-1.22-1.93-2.38-3-3.48-7.2-7.38-17.32-11.18-27.6-10.37-1.54.11-3.07.32-4.58.62-.55.14-1.11.24-1.68.31.13-.07.27-.13.41-.16.28-.08.68-.22,1.22-.35,1.51-.38,3.04-.64,4.59-.79,10.42-1.03,20.73,2.84,27.9,10.48,1.07,1.13,2.05,2.34,2.94,3.62.32.44.53.82.69,1.06s.18.38.16.39Z"/>
    <path class="st3" d="M361.24,174.53c-.09,0-.23-.45-.7-1-.63-.77-1.46-1.35-2.4-1.67-.97-.31-1.98-.5-3-.55-.78-.06-1.27-.11-1.27-.19.41-.15.85-.21,1.28-.18,1.06-.05,2.12.1,3.13.43,1.03.35,1.92,1.03,2.52,1.94.48.69.49,1.22.44,1.22Z"/>
    <path class="st3" d="M172.42,272c-.21-.54-.38-1.1-.5-1.67-.15-.54-.32-1.2-.48-2s-.37-1.67-.52-2.66c-.36-2-.66-4.35-.87-7-.42-5.76-.13-11.54.85-17.23.47-2.61,1-5,1.55-6.88.25-1,.55-1.83.79-2.59s.47-1.4.67-1.93c.18-.55.4-1.09.66-1.61-.12.57-.28,1.13-.47,1.68-.17.53-.38,1.18-.58,2s-.49,1.63-.71,2.6c-.51,1.93-1,4.26-1.44,6.86s-.74,5.5-.9,8.54c-.13,2.86-.11,5.72.06,8.58.18,2.63.44,5,.75,7,.13,1,.31,1.88.45,2.66s.27,1.45.39,2c.15.54.25,1.09.3,1.65Z"/>
    <g class="st6">
      <path d="M178.27,331.37s9.74.79,12.74-1.06-1.18-7.44-1.18-7.44l-11.56,8.5Z"/>
    </g>
    <path class="st3" d="M102.17,236.18c-.16-.6-.2-1.22-.1-1.83.14-1.49.6-2.94,1.35-4.24.75-1.31,1.77-2.45,3-3.32.47-.4,1.03-.7,1.63-.85-.45.41-.92.79-1.41,1.14-1.09.93-2.01,2.04-2.73,3.28-.71,1.24-1.19,2.59-1.43,4-.06.61-.17,1.22-.31,1.82Z"/>
    <path class="st3" d="M374.84,283c-2.24-1.68-4.36-3.51-6.37-5.46-2.12-1.82-4.12-3.77-6-5.84,2.24,1.68,4.37,3.51,6.38,5.46,2.12,1.82,4.12,3.77,5.99,5.84Z"/>
  </g>
</svg>