<?xml version="1.0" encoding="UTF-8"?>
<svg id="Layer_1" xmlns="http://www.w3.org/2000/svg" version="1.1" viewBox="0 0 750 500">
  <!-- Generator: Adobe Illustrator 29.5.1, SVG Export Plug-In . SVG Version: 2.1.0 Build 141)  -->
  <defs>
    <style>
      .st0 {
        fill: #e0e0e0;
      }

      .st1 {
        fill: #ffbe9d;
      }

      .st2 {
        fill: #ebebeb;
      }

      .st3 {
        fill: #263238;
      }

      .st4 {
        fill: #eb996e;
      }

      .st5 {
        fill: #4468f8;
      }

      .st6 {
        fill: #fff;
      }

      .st7 {
        fill: #fafafa;
      }

      .st8 {
        opacity: .6;
      }

      .st9 {
        opacity: .5;
      }

      .st10 {
        opacity: .3;
      }

      .st11 {
        fill: #f5f5f5;
      }

      .st12 {
        fill: #455a64;
      }
    </style>
  </defs>
  <g id="freepik--background-complete--inject-37">
    <rect class="st6" x="27.62" y="94.24" width="124.58" height="36.8"/>
    <path class="st0" d="M152.7,131.54H27.12v-37.8h125.58v37.8ZM28.12,130.54h123.58v-35.8H28.12v35.8Z"/>
    <circle class="st2" cx="46.98" cy="113.45" r="11.37"/>
    <path class="st6" d="M47.9,113.62c.95-.43,1.55-1.37,1.55-2.41.12-1.35-.87-2.54-2.22-2.66-1.35-.12-2.54.87-2.66,2.22-.01.15-.01.3,0,.44-.02,1.05.59,2.01,1.55,2.44-3.76.56-3.58,4.64-3.58,4.64h8.88s.2-4.11-3.52-4.67Z"/>
    <path class="st0" d="M137.88,113c0,.15-16,.26-35.84.26s-35.83-.11-35.83-.26,16-.26,35.83-.26,35.84.1,35.84.26Z"/>
    <rect class="st6" x="116.47" y="37.75" width="124.58" height="36.8"/>
    <path class="st0" d="M241.55,75.05h-125.55v-37.8h125.55v37.8ZM117,74.05h123.55v-35.8h-123.55v35.8Z"/>
    <circle class="st2" cx="135.82" cy="56.96" r="11.37"/>
    <path class="st6" d="M136.74,57.13c.95-.42,1.56-1.37,1.55-2.41.12-1.35-.87-2.54-2.22-2.66-1.35-.12-2.54.87-2.66,2.22-.01.15-.01.3,0,.44,0,1.05.62,2,1.59,2.41-3.75.56-3.58,4.64-3.58,4.64h8.88s.16-4.08-3.56-4.64Z"/>
    <path class="st0" d="M226.72,56.5c0,.14-16,.26-35.83.26s-35.84-.12-35.84-.26,16-.26,35.84-.26,35.83.11,35.83.26Z"/>
    <path class="st11" d="M622.26,242c-22.5-18.25-25.67-49.37-22.75-76.92.49-4.6.33-9.49,2.81-13.38s7.8-6.29,11.79-4c3.31,1.86,4.52,5.95,6.19,9.38,2.24,4.58,5.74,8.43,10.08,11.11,2.82,1.73,6.39,2.92,9.4,1.53,4.14-1.91,5-7.37,5.3-12l1.68-25.72c.3-4.58.62-9.27,2.36-13.52s5.18-8.06,9.63-9,9.67,2,10.26,6.55c.25,1.89-.27,3.81-.28,5.72s.73,4.08,2.5,4.74,3.72-.5,5.19-1.74c5.06-4.29,8.7-10,12.13-15.74s6.78-11.52,11.45-16.26,10.89-8.32,17.48-8.22,13.3,4.66,14.5,11.22-3,12.87-7.52,17.81c-6.65,7.33-14.32,13.65-22.77,18.79-1.52.92-3.17,1.91-3.84,3.57-1.22,3,1.46,6.23,4.41,7.45,3.33,1.39,7.07,1.3,10.61,2s7.31,2.53,8.42,6c1.54,4.82-2.74,9.45-6.82,12.39-8.18,5.89-17.32,10.32-27,13.12-3.46,1-7.09,1.82-10,4s-4.83,6.18-3.41,9.53,5.55,4.68,9.13,4.28,6.88-2.09,10.34-3.12c6.47-1.93,14.58-.91,18.22,4.83,2.4,3.77,2.28,8.77.63,12.94s-4.64,7.65-7.77,10.84c-11,11.12-24.56,19.73-39.55,23.75s-28.62,4.42-42.77-1.94"/>
    <path class="st0" d="M630.64,225.17c5.06-13.65,11.86-28.15,19.48-43.07l5.69-11c1.88-3.62,3.74-7.2,5.77-10.6,3.92-6.51,8.2-12.79,12.81-18.83,4.37-5.79,8.72-11.13,12.83-16.09s8-9.5,11.8-13.49c5.89-6.33,12.28-12.18,19.1-17.49,2.41-1.88,4.33-3.28,5.64-4.21l1.5-1.05c.16-.13.34-.24.53-.33-.15.14-.31.28-.48.4l-1.45,1.12c-1.28,1-3.16,2.41-5.54,4.33-6.72,5.4-13.03,11.3-18.87,17.65-3.71,4-7.6,8.56-11.69,13.53s-8.41,10.32-12.75,16.11c-4.58,6.03-8.83,12.3-12.72,18.79-2,3.37-3.86,6.93-5.73,10.55l-5.69,11c-7.3,13.96-13.81,28.32-19.51,43"/>
    <path class="st0" d="M661.82,160.47c-.17-.65-.27-1.32-.3-2-.15-1.28-.31-3.15-.47-5.46-.32-4.61-.54-11-.76-18s-.54-13.41-.93-18c-.19-2.3-.36-4.16-.5-5.44-.11-.66-.14-1.33-.11-2,.22.65.37,1.32.44,2,.24,1.28.5,3.13.76,5.43.55,4.59,1,11,1.18,18,.18,7,.38,13.23.52,18,.08,2.17.14,4,.2,5.47.07.67.06,1.34-.03,2Z"/>
    <path class="st0" d="M721.57,153.68c-.78.12-1.58.16-2.37.12-1.52,0-3.73,0-6.45.17-5.44.19-13,.73-21.2,1.68s-15.7,2.15-21,3.17c-2.68.49-4.84.94-6.33,1.25-.77.21-1.56.34-2.35.4.73-.31,1.49-.56,2.27-.73,1.48-.4,3.62-1,6.29-1.51,5.34-1.18,12.79-2.47,21.07-3.44,7.07-.84,14.17-1.32,21.29-1.43,2.73,0,4.94,0,6.47.1.78,0,1.55.08,2.31.22Z"/>
    <path class="st0" d="M631.44,224.14c-.15-.23-.27-.48-.35-.75l-.86-2.21c-.73-1.91-1.72-4.72-2.9-8.2-2.36-7-5.31-16.67-8.43-27.43s-6-20.5-8.19-27.49l-2.65-8.29-.7-2.25c-.1-.26-.17-.53-.2-.81.15.23.28.48.36.75l.85,2.2c.74,1.92,1.73,4.72,2.9,8.2,2.36,7,5.32,16.68,8.44,27.44s6,20.49,8.19,27.49c1.09,3.4,2,6.2,2.64,8.28l.71,2.26c.1.26.16.53.19.81Z"/>
    <path class="st0" d="M711.59,204.51c-.25.13-.52.22-.8.27l-2.33.6-8.58,2.11c-7.25,1.79-17.23,4.38-28.26,7.25s-21,5.37-28.33,7c-3.64.82-6.6,1.45-8.65,1.85l-2.36.44c-.27.07-.56.1-.84.1.25-.13.52-.22.8-.27l2.33-.6,8.58-2.11c7.25-1.79,17.24-4.38,28.26-7.25s21.05-5.37,28.33-7c3.65-.82,6.6-1.45,8.65-1.85l2.37-.44c.27-.07.55-.1.83-.1Z"/>
    <path class="st2" d="M49,390.91c-4.62-2.39-10.06-2.7-15.18-1.85-2.76.46-5.63,1.28-7.51,3.35s-2.22,5.71-.07,7.49c1.39.94,3.06,1.37,4.73,1.2,4-.05,8.46-.76,11.67,1.66,1.83,1.38,3,3.67,5.24,4.34,2.25.52,4.57-.51,5.69-2.53,1.04-2.01,1.27-4.34.64-6.52-.53-3.06-2.46-5.7-5.21-7.14Z"/>
    <path class="st2" d="M59.54,370.48c-2.82,4-8.31,2.7-10.86.24s-3.62-6-4.6-9.44c-2.23-7.77-4.49-15.93-2.83-23.85.39-2.39,1.43-4.63,3-6.48,1.64-1.84,4.14-2.67,6.56-2.18,2.77.73,4.49,3.44,5.73,6,3.66,7.61,5.58,15.94,5.62,24.39,0,3.93-.45,8.06-2.67,11.3"/>
    <path class="st2" d="M67.3,376.27c-3.07-3.64-3.65-8.95-2.29-13.51s4.45-8.44,8-11.6c4.18-3.72,9.05-6.59,14.33-8.45,2.04-.83,4.24-1.2,6.44-1.1,2.23.13,4.25,1.36,5.4,3.27,1.51,2.88.07,6.36-1.5,9.21-2.75,5.02-5.9,9.81-9.41,14.33-2.82,3.63-6,7.22-10.34,8.86s-8.77,1.45-11-1.53"/>
    <path class="st0" d="M59.73,431.32c-.15-.6-.23-1.21-.25-1.83-.13-1.33-.3-3-.49-5-.25-2.46-.62-4.92-1.13-7.34-.65-2.95-1.54-5.85-2.66-8.66-1.1-2.8-2.59-5.44-4.42-7.83-1.5-1.95-3.41-3.54-5.59-4.66-1.48-.73-3.07-1.23-4.71-1.47-.62-.03-1.23-.11-1.83-.26.62-.06,1.24-.06,1.86,0,1.7.13,3.36.56,4.91,1.28,2.3,1.09,4.32,2.69,5.9,4.69,1.91,2.43,3.46,5.12,4.58,8,1.13,2.85,2.02,5.8,2.65,8.8.48,2.45.82,4.94,1,7.43.16,2.12.22,3.84.25,5,.05.62.02,1.24-.07,1.85Z"/>
    <path class="st0" d="M59.39,427.48c-.04-.29-.04-.57,0-.86v-2.43c0-2.11,0-5.16-.1-8.93-.19-7.55-.84-15.66-2.09-27.11-1.19-10.76-2.79-23.29-4.47-31.43-.36-1.85-.72-3.52-1.07-5s-.66-2.72-.92-3.72l-.57-2.36c-.08-.27-.13-.56-.15-.84.14.25.24.51.3.79.18.62.42,1.39.7,2.33s.64,2.27,1,3.72.78,3.12,1.17,5c2.09,9.63,3.66,19.36,4.7,29.16,1.25,11.47,1.82,21.91,1.87,29.48,0,3.78,0,6.84-.13,8.95-.06,1-.11,1.79-.15,2.43,0,.28-.03.55-.09.82Z"/>
    <path class="st0" d="M59.34,407.33c-.07-.85-.07-1.69,0-2.54.1-1.63.32-4,.78-6.88.56-3.37,1.31-6.71,2.24-10,1.09-4.07,2.49-8.05,4.2-11.91,2.91-7.09,7.09-13.58,12.32-19.18.91-.96,1.88-1.86,2.9-2.69.44-.38.83-.75,1.23-1l1.13-.77c.67-.51,1.39-.97,2.14-1.36.12.16-3,2-7,6.25-5.06,5.64-9.12,12.1-12,19.11-1.69,3.8-3.12,7.72-4.28,11.71-.95,3.27-1.73,6.58-2.34,9.93-.53,2.86-.83,5.2-1,6.82-.04.84-.15,1.68-.32,2.51Z"/>
    <polygon class="st0" points="78.8 442.86 76.79 470.51 41.27 470.51 39.25 442.86 78.8 442.86"/>
    <rect class="st0" x="35.01" y="431.96" width="47.23" height="10.9"/>
    <polygon class="st2" points="82.23 469.45 82.23 472.48 80.02 472.48 35.79 472.48 35.79 469.45 82.23 469.45"/>
    <polygon class="st0" points="77.84 477.79 80.02 472.48 37.48 472.48 40.02 477.79 77.84 477.79"/>
    <path class="st11" d="M39.91,451.9s0,.09.16.25l.53.71c.51.64,1.2,1.53,2.07,2.65l.09.11.09-.12,5.09-7h-.3c1.52,2.14,3.2,4.53,5,7.09l.16.22.17-.21,5.94-7.06h-.34l.32.41,5.31,6.66.18.22.16-.23,5-7.09h-.29l6.16,7,.11.13.09-.14,1.93-3.25.49-.86c.06-.1.12-.2.15-.31-.08.08-.14.17-.2.27l-.55.84-2,3.18h.19l-6.06-7.12-.16-.18-.13.2-5.06,7.05h.34l-5.29-6.66-.33-.41-.17-.21-.17.2-5.92,7.08h.33l-5.05-7.05-.15-.21-.15.21-5,7.11h.18c-.91-1.08-1.63-1.95-2.15-2.58l-.58-.67-.19-.23Z"/>
    <path class="st11" d="M38.75,442.68c0,.12,8.9.22,19.88.22s19.88-.1,19.88-.22-8.9-.22-19.88-.22-19.88.1-19.88.22Z"/>
    <path class="st11" d="M37,472.77c0,.13,9.67.22,21.6.22s21.6-.09,21.6-.22-9.67-.22-21.6-.22-21.6.1-21.6.22Z"/>
    <rect class="st6" x="220.53" y="388.02" width="124.58" height="36.8"/>
    <path class="st0" d="M345.61,425.32h-125.61v-37.8h125.61v37.8ZM221.03,424.32h123.58v-35.8h-123.61l.03,35.8Z"/>
    <circle class="st2" cx="239.89" cy="407.23" r="11.37"/>
    <path class="st6" d="M240.81,407.39c.95-.42,1.56-1.36,1.55-2.4.12-1.35-.87-2.54-2.22-2.66-1.35-.12-2.54.87-2.66,2.22-.01.15-.01.3,0,.44-.02,1.05.59,2.01,1.55,2.43-3.75.57-3.58,4.65-3.58,4.65h8.88s.2-4.07-3.52-4.68Z"/>
    <path class="st0" d="M330.79,406.76c0,.15-16.05.26-35.83.26s-35.84-.11-35.84-.26,16-.26,35.84-.26,35.83.12,35.83.26Z"/>
    <rect class="st6" x="316.85" y="350.83" width="124.58" height="36.8"/>
    <path class="st0" d="M441.93,388.13h-125.58v-37.8h125.58v37.8ZM317.35,387.13h123.58v-35.8h-123.58v35.8Z"/>
    <circle class="st2" cx="336.2" cy="370.04" r="11.37"/>
    <path class="st6" d="M337.12,370.2c.95-.42,1.56-1.36,1.55-2.4.12-1.35-.87-2.54-2.22-2.66-1.35-.12-2.54.87-2.66,2.22-.01.15-.01.3,0,.44-.02,1.05.6,2.01,1.56,2.43-3.76.57-3.59,4.65-3.59,4.65h8.88s.2-4.11-3.52-4.68Z"/>
    <path class="st0" d="M427.1,369.57c0,.15-16,.26-35.83.26s-35.84-.11-35.84-.26,16-.26,35.84-.26,35.83.12,35.83.26Z"/>
    <path class="st5" d="M481.8,414.67l-1.69,31.19c-.06,1.11-.97,1.99-2.09,2l-56.11.41c-1.16,0-2.11-.93-2.12-2.09l-.18-24.27c-.01-1.16.92-2.11,2.08-2.12,0,0,.01,0,.02,0h34.51c.56,0,1.09-.22,1.49-.61l6-5.95c.39-.39.92-.61,1.48-.62l14.55-.11c1.17.03,2.09.99,2.06,2.16,0,0,0,0,0,.01Z"/>
    <g class="st10">
      <path d="M481.8,414.67l-1.69,31.19c-.06,1.11-.97,1.99-2.09,2l-56.11.41c-1.16,0-2.11-.93-2.12-2.09l-.18-24.27c-.01-1.16.92-2.11,2.08-2.12,0,0,.01,0,.02,0h34.51c.56,0,1.09-.22,1.49-.61l6-5.95c.39-.39.92-.61,1.48-.62l14.55-.11c1.17.03,2.09.99,2.06,2.16,0,0,0,0,0,.01Z"/>
    </g>
    <rect class="st11" x="419.7" y="415.88" width="61.31" height="36.64" transform="translate(-3.17 3.31) rotate(-.42)"/>
    <path class="st7" d="M485.78,418.91l-4.4,38.24c-.08.68-.65,1.19-1.34,1.2l-59.75.43c-.7,0-1.3-.53-1.36-1.23l-3.28-38.18c-.07-.74.48-1.4,1.22-1.46.04,0,.08,0,.13,0l67.43-.5c.75,0,1.36.61,1.36,1.36,0,.05,0,.1,0,.15Z"/>
    <path class="st0" d="M498.31,408.79l-1.69,31.21c-.05,1.12-.97,2-2.09,2l-56.11.42c-1.16,0-2.11-.93-2.12-2.09l-.18-24.33c-.01-1.16.92-2.11,2.08-2.12,0,0,.01,0,.02,0h34.51c.56,0,1.09-.22,1.49-.61l5.95-6c.39-.39.93-.61,1.48-.61l14.54-.11c1.16-.01,2.11.92,2.12,2.08,0,.05,0,.11,0,.16Z"/>
    <rect class="st11" x="436.21" y="409.99" width="61.31" height="36.64" transform="translate(-3.13 3.43) rotate(-.42)"/>
    <path class="st0" d="M502.29,413l-4.4,38.24c-.09.68-.66,1.19-1.34,1.19l-59.75.44c-.71,0-1.3-.53-1.36-1.24l-3.29-38.18c-.06-.75.5-1.4,1.25-1.47.03,0,.06,0,.09,0l67.44-.49c.75,0,1.36.6,1.37,1.35,0,.05,0,.11,0,.16Z"/>
    <path class="st11" d="M516.92,416.09l-1.7,31.19c-.05,1.12-.97,2-2.09,2l-56.11.41c-1.16,0-2.11-.93-2.12-2.09l-.18-24.27c0-1.17.94-2.12,2.11-2.13h34.51c.55,0,1.09-.22,1.48-.61l6-5.95c.39-.4.92-.62,1.47-.62l14.55-.11c1.17.02,2.1.97,2.08,2.14,0,.01,0,.03,0,.04Z"/>
    <rect class="st11" x="454.82" y="417.3" width="61.31" height="36.64" transform="translate(-3.18 3.57) rotate(-.42)"/>
    <path class="st11" d="M520.89,420.33l-4.4,38.24c-.08.68-.65,1.19-1.33,1.2l-59.75.43c-.71.01-1.3-.53-1.36-1.23l-3.29-38.19c-.06-.75.5-1.4,1.25-1.47.03,0,.06,0,.09,0l67.44-.49c.75,0,1.35.59,1.36,1.34,0,.06,0,.11,0,.17Z"/>
    <path class="st2" d="M450.75,425.53v53h76.52v-53h-76.52ZM475.75,435.07c0-2.16,1.76-3.91,3.92-3.91h18.73c2.16-.11,4,1.55,4.11,3.72.11,2.16-1.55,4-3.72,4.11-.13,0-.26,0-.4,0h-18.75c-2.16,0-3.91-1.76-3.92-3.92h.02Z"/>
    <path class="st0" d="M409.5,425.53v53h41.25v-53h-41.25Z"/>
  </g>
  <g id="freepik--Window--inject-37">
    <polygon class="st6" points="647.39 320.69 168.07 320.69 169.04 49.04 648.36 49.04 647.39 320.69"/>
    <ellipse class="st3" cx="177.36" cy="56.24" rx="2.24" ry="2.21"/>
    <ellipse class="st3" cx="186.56" cy="56.24" rx="2.24" ry="2.21"/>
    <rect class="st5" x="236.66" y="67.33" width="44.11" height="23.83"/>
    <ellipse class="st3" cx="195.77" cy="56.24" rx="2.24" ry="2.21"/>
    <path class="st3" d="M647.39,67.32c0,.15-107.11.27-239.2.27s-239.19-.12-239.19-.27,107.08-.26,239.21-.26,239.18.12,239.18.26Z"/>
    <rect class="st11" x="168.07" y="88.2" width="34.23" height="232.82"/>
    <rect class="st2" x="201.61" y="87.86" width="35.05" height="232.82"/>
    <rect class="st11" x="236.66" y="87.86" width="34.23" height="232.82"/>
    <rect class="st2" x="270.2" y="87.86" width="35.05" height="232.82"/>
    <rect class="st11" x="305.25" y="87.86" width="34.23" height="232.82"/>
    <rect class="st2" x="338.79" y="87.86" width="35.05" height="232.82"/>
    <rect class="st11" x="373.84" y="87.86" width="34.23" height="232.82"/>
    <rect class="st2" x="407.38" y="87.86" width="35.05" height="232.82"/>
    <rect class="st11" x="442.43" y="87.86" width="34.23" height="232.82"/>
    <rect class="st2" x="475.98" y="87.86" width="35.05" height="232.82"/>
    <rect class="st11" x="511.02" y="87.86" width="34.23" height="232.82"/>
    <rect class="st2" x="544.57" y="87.86" width="35.05" height="232.82"/>
    <rect class="st11" x="579.62" y="87.86" width="34.23" height="232.82"/>
    <rect class="st2" x="613.16" y="87.86" width="34.23" height="232.82"/>
    <path class="st5" d="M242,320c-.14,0-.26-52-.26-116.06s.12-116.07.26-116.07.26,52,.26,116.07-.07,116.06-.26,116.06Z"/>
    <rect class="st5" x="187" y="121.43" width="99.32" height="29.11"/>
    <ellipse class="st6" cx="202.57" cy="136.62" rx="9.15" ry="8.99"/>
    <path class="st5" d="M203.31,136.75c.77-.31,1.27-1.07,1.25-1.9.21-1.09-.51-2.13-1.59-2.34s-2.13.51-2.34,1.59c-.05.25-.05.5,0,.75-.01.83.48,1.59,1.25,1.92-3,.45-2.88,3.68-2.88,3.68h7.15s.16-3.25-2.84-3.7Z"/>
    <path class="st6" d="M274.66,136.25c0,.15-12.67.27-28.3.27s-28.31-.12-28.31-.27,12.67-.26,28.31-.26,28.3.12,28.3.26Z"/>
    <path class="st5" d="M488.19,241.44h-19.86c-20.27,0-36.76-16.21-36.76-36.14v-36.54c0-19.38-16-35.14-35.75-35.14l-109.5.54v-1l109.49-.54c20.27,0,36.76,16.21,36.76,36.14v36.54c0,19.38,16,35.14,35.76,35.14h19.86v1Z"/>
    <rect class="st6" x="475.4" y="228.18" width="76.48" height="29.11"/>
    <path class="st5" d="M552.39,257.79h-77.49v-30.11h77.49v30.11ZM475.9,256.79h75.49v-28.11h-75.49v28.11Z"/>
    <ellipse class="st5" cx="490.98" cy="243.38" rx="9.15" ry="8.99"/>
    <path class="st6" d="M491.72,243.51c.77-.32,1.28-1.07,1.28-1.91.21-1.09-.51-2.13-1.59-2.34-1.09-.21-2.13.51-2.34,1.59-.05.25-.05.5,0,.75-.01.84.48,1.6,1.25,1.93-3,.44-2.88,3.67-2.88,3.67h7.14s.14-3.2-2.86-3.69Z"/>
    <path class="st5" d="M532.68,243c-.33.07-.66.11-1,.1-.67,0-1.63.06-2.81.08-2.37.05-5.65.08-9.27.08s-6.9,0-9.27-.08c-1.19,0-2.15-.05-2.81-.08-.34,0-.67-.03-1-.1.33-.08.66-.11,1-.1l2.81-.09c2.37,0,5.65-.07,9.27-.07s6.9,0,9.27.07l2.81.09c.34-.01.67.02,1,.1Z"/>
    <rect class="st6" x="570.2" y="180.55" width="29.11" height="64.94" transform="translate(369.79 797.06) rotate(-89.81)"/>
    <path class="st3" d="M617.67,228.18l-65.94-.18.11-30.11,65.93.22-.1,30.07ZM552.73,227l63.94.21.1-28.11-63.94-.21-.1,28.11Z"/>
    <path class="st3" d="M576.44,213.63c-.03,4.94-4.06,8.91-9,8.88-4.94-.03-8.91-4.06-8.88-9,.03-4.93,4.04-8.9,8.97-8.88,4.94.05,8.91,4.06,8.91,9Z"/>
    <path class="st6" d="M568.22,213.73c.75-.33,1.24-1.08,1.23-1.9,0-1.06-.86-1.92-1.92-1.92s-1.92.86-1.92,1.92c-.02.83.46,1.59,1.22,1.93-3,.44-2.84,3.67-2.84,3.67h7s.16-3.24-2.77-3.7Z"/>
    <path class="st3" d="M610,213.39c-.35.08-.72.12-1.08.1-.69,0-1.69,0-2.93.07-2.48,0-5.9.06-9.68,0s-7.21-.06-9.69-.12l-2.93-.09c-.36.01-.73-.02-1.08-.11.36-.07.72-.1,1.08-.09.69,0,1.7-.06,2.94-.08,2.47,0,5.9-.05,9.68,0s7.2.06,9.68.12c1.24,0,2.24.06,2.93.09.36,0,.73.03,1.08.11Z"/>
    <rect class="st6" x="286.42" y="170.69" width="112.29" height="29.11"/>
    <path class="st12" d="M399.21,200.3h-113.29v-30.11h113.29v30.11ZM286.92,199.3h111.29v-28.11h-111.29v28.11Z"/>
    <path class="st12" d="M386.15,185.52c0,.14-13.76.26-30.73.26s-30.72-.12-30.72-.26,13.75-.26,30.72-.26,30.73.12,30.73.26Z"/>
    <ellipse class="st12" cx="303.66" cy="185.52" rx="9.15" ry="8.99"/>
    <path class="st6" d="M304.4,185.65c.76-.33,1.25-1.07,1.25-1.9.21-1.09-.51-2.13-1.59-2.34-1.09-.21-2.13.51-2.34,1.59-.05.25-.05.5,0,.75-.03.84.47,1.61,1.25,1.92-3,.45-2.89,3.68-2.89,3.68h7.15s.16-3.25-2.83-3.7Z"/>
    <rect class="st6" x="375.25" y="200.42" width="99.32" height="29.11"/>
    <path class="st3" d="M475.07,230h-100.32v-30.08h100.32v30.08ZM375.75,229h98.32v-28.08h-98.32v28.08Z"/>
    <ellipse class="st3" cx="390.82" cy="215.62" rx="9.15" ry="8.99"/>
    <path class="st6" d="M391.56,215.75c.76-.32,1.26-1.07,1.25-1.9.21-1.09-.51-2.13-1.59-2.34-1.09-.21-2.13.51-2.34,1.59-.05.25-.05.5,0,.75,0,.83.48,1.59,1.25,1.92-3,.45-2.88,3.68-2.88,3.68h7.15s.16-3.25-2.84-3.7Z"/>
    <path class="st3" d="M462.91,215.25c0,.15-12.67.26-28.3.26s-28.31-.11-28.31-.26,12.7-.25,28.31-.25,28.3.11,28.3.25Z"/>
    <path class="st3" d="M647.39,321c0-1.6.29-104.92.77-272l.2.2-479.29.06h0l.26-.26c-.35,96.21-.69,188.2-1,272l-.24-.24,479.32.24-479.32.25h-.25v-.25c.3-83.78.62-175.77,1-272v-.26h.29l479.29.06h.2v.2c-.78,167.1-1.23,270.42-1.23,272Z"/>
  </g>
  <g id="freepik--Plant--inject-37">
    <path class="st5" d="M595.46,387.82c-13.38-6.42-28.8-18.17-35.57-31.59,14.68,6.84,27.04,17.82,35.57,31.59"/>
    <path class="st5" d="M601.63,389.19c-11.66,9.19-29,17.88-44,18.06,12.6-10.17,27.89-16.45,44-18.06"/>
    <path class="st5" d="M616.88,395.93c-9.68,11.25-25,23.09-39.75,26.14,10.42-12.4,24.24-21.48,39.75-26.14"/>
    <path class="st5" d="M632.72,410c-9.19,7.25-22.86,14.1-34.71,14.24,9.94-8.03,22-12.98,34.71-14.24"/>
    <path class="st5" d="M610.2,392.87c-10.45-10.54-21.05-26.78-22.93-41.69,11.54,11.37,19.51,25.86,22.93,41.69"/>
    <path class="st5" d="M645.8,409.82c-15.53-8.39-33-23.67-39.77-41,16.79,8.66,30.93,23.26,39.77,41"/>
    <path class="st5" d="M644.79,383.79c-15.53-8.39-33-23.67-39.78-41,16.79,8.66,30.94,23.25,39.78,41"/>
    <path class="st5" d="M642.47,358.34c-15.53-8.39-33-23.67-39.78-41,16.79,8.66,30.94,23.26,39.78,41"/>
    <path class="st5" d="M639.07,331.61c-14.4-10.5-29.91-28.09-34.59-46.25,15.63,10.94,27.93,27.39,34.59,46.25"/>
    <path class="st5" d="M634.69,311c-9.75-15.6-18.07-38.22-16.16-57,10.88,17,16.5,36.82,16.16,57"/>
    <path class="st5" d="M636.9,320.81c4.11-19.46,14.1-43.47,28.48-57-4.21,21.21-14.05,40.9-28.48,57"/>
    <path class="st5" d="M640.1,342.82c5.88-19.91,18.26-44.05,34.35-56.88-6.13,21.7-17.99,41.35-34.35,56.88"/>
    <path class="st5" d="M643.63,369.62c5.88-19.9,18.26-44,34.35-56.88-6.13,21.7-17.99,41.35-34.35,56.88"/>
    <path class="st5" d="M645.41,402.29c5.88-19.9,18.25-44,34.35-56.88-6.13,21.7-17.99,41.35-34.35,56.88"/>
    <path class="st3" d="M634.3,307.06s.05.11.1.32l.22.94c.19.87.46,2.08.79,3.61.69,3.14,1.58,7.7,2.6,13.36s2.11,12.41,3.18,19.93,2,15.83,2.84,24.56,1.32,17.07,1.68,24.66.49,14.44.51,20.18,0,10.4-.12,13.61c-.05,1.57-.08,2.81-.11,3.7v1.33c-.02-.11-.02-.22,0-.33v-4.7c0-3.21,0-7.86-.09-13.6s-.29-12.58-.65-20.16-.94-15.91-1.73-24.63-1.78-17-2.78-24.54-2.07-14.28-3-19.94-1.79-10.23-2.4-13.38c-.29-1.54-.51-2.76-.67-3.64-.07-.39-.12-.7-.16-.95-.08-.1-.15-.21-.21-.33Z"/>
    <g class="st9">
      <path d="M645.8,409.82c-15.53-8.39-33-23.67-39.77-41,16.79,8.66,30.93,23.26,39.77,41"/>
      <path d="M644.79,383.79c-15.53-8.39-33-23.67-39.78-41,16.79,8.66,30.94,23.25,39.78,41"/>
      <path d="M642.47,358.34c-15.53-8.39-33-23.67-39.78-41,16.79,8.66,30.94,23.26,39.78,41"/>
      <path d="M639.07,331.61c-14.4-10.5-29.91-28.09-34.59-46.25,15.63,10.94,27.93,27.39,34.59,46.25"/>
      <path d="M634.69,311c-9.75-15.6-18.07-38.22-16.16-57,10.88,17,16.5,36.82,16.16,57"/>
      <path d="M636.9,320.81c4.11-19.46,14.1-43.47,28.48-57-4.21,21.21-14.05,40.9-28.48,57"/>
      <path d="M640.1,342.82c5.88-19.91,18.26-44.05,34.35-56.88-6.13,21.7-17.99,41.35-34.35,56.88"/>
      <path d="M643.63,369.62c5.88-19.9,18.26-44,34.35-56.88-6.13,21.7-17.99,41.35-34.35,56.88"/>
      <path d="M645.41,402.29c5.88-19.9,18.25-44,34.35-56.88-6.13,21.7-17.99,41.35-34.35,56.88"/>
    </g>
    <path class="st5" d="M652.62,416.54c-7.22-15.13-12.48-36.42-8.93-53,8.07,16.42,11.17,34.84,8.93,53"/>
    <path class="st5" d="M664.65,396.94c-7.23-15.14-12.49-36.42-8.94-53,8.08,16.42,11.18,34.84,8.94,53"/>
    <path class="st5" d="M675.43,377c-7.23-15.14-12.48-36.42-8.94-53,8.08,16.42,11.18,34.84,8.94,53"/>
    <path class="st5" d="M686.06,355.51c-5.38-16-8.08-37.86-2.59-53.84,6.06,17.32,6.96,36.02,2.59,53.84"/>
    <path class="st5" d="M693,337.91c.53-17.05,5.54-38.4,16.13-51-.23,18.22-5.85,35.96-16.13,51"/>
    <path class="st5" d="M689.77,346.36c12.54-11.83,31.61-23.58,48.75-25.11-13.41,13.01-30.37,21.75-48.75,25.11"/>
    <path class="st5" d="M681.32,364.29c14-11.13,34.93-21.58,53-21.62-15.13,12.31-33.58,19.83-53,21.62"/>
    <path class="st5" d="M670.75,385.92c14-11.13,34.93-21.59,53-21.63-15.13,12.31-33.58,19.84-53,21.63"/>
    <path class="st5" d="M656,410.82c14.05-11.14,34.93-21.59,53-21.63-15.13,12.31-33.58,19.84-53,21.63"/>
    <path class="st3" d="M694.61,334.82c0,.1-.04.19-.08.28-.08.21-.17.48-.29.8-.29.75-.68,1.77-1.17,3.07-1,2.66-2.59,6.47-4.6,11.16-4,9.37-10,22.16-17.34,35.86-3.7,6.84-7.4,13.27-10.87,19.05s-6.75,10.89-9.58,15.13-5.16,7.65-6.83,10l-1.92,2.66-.51.68c-.12.15-.19.23-.2.22.04-.09.09-.18.14-.26l.47-.72,1.82-2.72c1.6-2.36,3.88-5.79,6.65-10.07s6-9.42,9.45-15.19,7.13-12.21,10.83-19c7.42-13.77,13.42-26.5,17.48-35.77,2.06-4.66,3.68-8.45,4.78-11.08l1.28-3,.35-.78c.09-.24.13-.33.14-.32Z"/>
    <path class="st3" d="M565.16,386c.08-.03.16-.05.25-.06l.72-.12c.63-.09,1.57-.28,2.79-.4,3.43-.4,6.89-.54,10.34-.43,5.13.14,10.24.81,15.23,2,12.31,2.88,23.67,8.87,33,17.4,3.8,3.45,7.24,7.28,10.26,11.43,2.04,2.79,3.87,5.73,5.48,8.79.59,1.07,1,1.95,1.25,2.52l.3.67c.04.07.07.15.09.23-.05-.07-.1-.14-.14-.21-.09-.17-.2-.38-.35-.64-.31-.56-.71-1.42-1.33-2.48-1.67-3.01-3.54-5.9-5.6-8.66-13.73-18.53-35.14-29.82-58.19-30.69-3.44-.13-6.88-.04-10.31.27-1.22.09-2.16.25-2.8.3l-.73.07c-.09.02-.17.02-.26.01Z"/>
    <polygon class="st3" points="673.44 478.76 628.62 478.76 620.76 420.67 681.73 420.1 673.44 478.76"/>
    <path class="st5" d="M581.45,385.42c-15.57,6.25-37.14,10.15-53.5,5.55,16.91-7.02,35.51-8.95,53.5-5.55"/>
    <rect class="st3" x="617.57" y="420.1" width="67.34" height="8.81"/>
    <path class="st12" d="M685,429c0,.14-15.15.26-33.82.26s-33.81-.12-33.81-.26,15.13-.26,33.81-.26,33.82.14,33.82.26Z"/>
    <path class="st6" d="M677.28,443.15s-.54-.58-1.67-1.44c-1.62-1.18-3.49-1.97-5.47-2.31-2.93-.52-5.94-.28-8.75.69-3.44,1.22-6.72,2.87-9.74,4.92-3.04,2.06-6.2,3.95-9.46,5.66-2.69,1.39-5.63,2.24-8.65,2.51-2.03.18-4.07-.05-6-.68-.53-.17-1.04-.38-1.53-.64-.18-.08-.34-.18-.5-.3,0-.05.73.34,2.09.74,1.93.55,3.95.73,5.94.51,2.96-.32,5.83-1.19,8.47-2.57,3.23-1.72,6.36-3.62,9.39-5.67,3.06-2.07,6.38-3.73,9.87-4.94,2.9-.97,6-1.18,9-.6,2.01.39,3.91,1.25,5.52,2.52.25.2.5.41.72.64.17.16.33.33.48.51.19.3.31.44.29.45Z"/>
    <path class="st6" d="M675.76,449.28c0,.06-.67-.34-2-.74-.78-.22-1.58-.37-2.39-.43-1.08-.07-2.16-.01-3.22.16-2.78.5-5.43,1.53-7.81,3.05-2.74,1.62-5.51,3.81-8.68,5.76-2.97,1.88-6.29,3.15-9.76,3.72-2.83.47-5.72.47-8.55,0-1.9-.32-3.75-.86-5.52-1.62-.49-.2-.96-.43-1.42-.68-.17-.07-.33-.17-.47-.28,0,0,.7.29,2,.77,1.78.68,3.63,1.16,5.51,1.44,6.26.98,12.66-.36,18-3.77,3.13-1.92,5.92-4.1,8.71-5.73,2.44-1.52,5.16-2.54,8-3,1.09-.16,2.2-.19,3.3-.09.83.08,1.65.26,2.44.53.5.17.97.38,1.43.64.15.08.3.17.43.27Z"/>
  </g>
  <g id="freepik--Character--inject-37">
    <path class="st5" d="M91.52,446l-1.42,21.43s21.35,7.09,21.48,11.08l-41.73.3.84-33.52,20.83.71Z"/>
    <g class="st8">
      <path class="st6" d="M77.26,465.24c-.85.22-1.4,1.04-1.26,1.91.2.85,1.02,1.39,1.88,1.24.88-.24,1.43-1.1,1.3-2-.29-.87-1.23-1.34-2.1-1.07"/>
    </g>
    <g class="st8">
      <path class="st6" d="M69.85,478.81l.09-3.37,40.3,1.11c.86.44,1.45,1.29,1.55,2.26h-41.94Z"/>
    </g>
    <path class="st3" d="M90.78,467.24c0,.21-1,.27-2,.89s-1.59,1.47-1.77,1.38.15-1.25,1.4-2,2.42-.45,2.37-.27Z"/>
    <path class="st3" d="M95.1,469.18c0,.2-.85.52-1.57,1.36s-.94,1.75-1.15,1.73-.29-1.17.62-2.2,2.1-1.07,2.1-.89Z"/>
    <path class="st3" d="M97.43,474.49c-.19,0-.44-1,.11-2.08s1.53-1.52,1.61-1.35-.53.76-1,1.67-.52,1.75-.72,1.76Z"/>
    <path class="st3" d="M90.56,462.32c-.09.18-1-.13-2.17-.09s-2.06.38-2.16.21.78-.88,2.14-.91,2.3.63,2.19.79Z"/>
    <g class="st10">
      <polygon points="90.5 461.39 90.24 465.34 70.2 464.55 70.28 461.1 90.5 461.39"/>
    </g>
    <path class="st3" d="M90.77,458c-.69.17-1.41.15-2.09-.07-.75-.15-1.47-.4-2.16-.74-.41-.2-.8-.42-1.18-.67-.23-.14-.44-.31-.62-.51-.27-.31-.29-.76-.06-1.09.22-.28.55-.44.91-.44.27,0,.53.05.78.14.44.12.87.28,1.28.48.69.34,1.33.79,1.89,1.32.94.93,1.25,1.7,1.18,1.74s-.55-.59-1.51-1.36c-.56-.44-1.18-.82-1.83-1.11-.38-.17-.78-.3-1.19-.4-.44-.13-.82-.15-.93.05s0,.1,0,.23c.13.14.29.27.46.37.34.25.7.47,1.08.67.64.34,1.31.62,2,.83.68.14,1.34.33,1.99.56Z"/>
    <path class="st3" d="M90.49,458.27c-.36-.6-.53-1.3-.48-2-.02-.77.1-1.54.35-2.27.15-.44.34-.86.57-1.26.25-.55.76-.92,1.36-1,.38.02.71.26.86.61.1.25.16.51.19.77.07.47.07.94,0,1.41-.15.78-.5,1.51-1,2.13-.85,1.05-1.7,1.27-1.72,1.2s.66-.47,1.31-1.49c.38-.59.63-1.25.72-1.95.06-.4.06-.8,0-1.2-.05-.45-.21-.81-.37-.77s-.57.31-.75.66c-.22.36-.41.73-.56,1.12-.25.66-.41,1.36-.46,2.07-.1,1.17.1,1.94-.02,1.97Z"/>
    <path class="st5" d="M135.74,447.19l-3.74,21.17s20.46,9.37,20.15,13.35l-41.51-4.23,4.48-33.24,20.62,2.95Z"/>
    <g class="st8">
      <path class="st6" d="M119.47,464.78c-.86.14-1.47.9-1.43,1.77.1.86.86,1.49,1.73,1.44.91-.15,1.56-.96,1.51-1.88-.2-.91-1.09-1.49-2-1.3"/>
    </g>
    <g class="st8">
      <path class="st6" d="M110.64,477.48l.45-3.35,39.91,5.48c.81.53,1.3,1.45,1.3,2.42l-41.66-4.55Z"/>
    </g>
    <path class="st3" d="M132.7,468.25c0,.2-1.06.15-2.14.66s-1.73,1.28-1.91,1.17.29-1.22,1.62-1.82,2.5-.19,2.43-.01Z"/>
    <path class="st3" d="M136.78,470.64c0,.21-.9.43-1.7,1.18s-1.13,1.64-1.33,1.6-.17-1.2.85-2.12,2.21-.85,2.18-.66Z"/>
    <path class="st3" d="M138.52,476.18c-.19,0-.33-1,.34-2.07s1.68-1.34,1.74-1.16-.6.69-1.14,1.55-.74,1.68-.94,1.68Z"/>
    <path class="st3" d="M133,463.33c-.11.17-1-.24-2.15-.32s-2.09.15-2.17,0,.87-.79,2.23-.67,2.23.84,2.09.99Z"/>
    <g class="st10">
      <polygon points="133.6 459.18 132.6 465.05 112.68 462 113.13 458.58 133.6 459.18"/>
    </g>
    <path class="st3" d="M133.69,459c-.7.09-1.41-.02-2.06-.3-.73-.25-1.43-.58-2.08-1-.38-.24-.75-.51-1.1-.8-.21-.16-.4-.35-.55-.57-.25-.32-.25-.77,0-1.09.26-.27.63-.39,1-.33.26.03.52.1.76.21.43.17.84.38,1.23.62.65.41,1.24.93,1.73,1.52.84,1,1.06,1.82,1,1.85s-.47-.64-1.35-1.51c-.51-.51-1.08-.94-1.7-1.3-.36-.21-.74-.38-1.13-.53-.43-.18-.8-.23-.94,0s-.06.1,0,.24c.11.16.25.3.4.42.34.29.68.54,1,.77.6.39,1.23.72,1.89,1,.65.22,1.29.49,1.9.8Z"/>
    <path class="st3" d="M133.39,459.29c-.31-.64-.4-1.37-.27-2.07.08-.77.28-1.53.6-2.23.19-.42.43-.81.71-1.18.3-.52.86-.85,1.46-.86.38.06.68.34.79.7.07.25.1.52.1.78.01.47-.05.95-.19,1.4-.22.75-.63,1.44-1.18,2-1,1-1.84,1.08-1.84,1s.7-.4,1.46-1.34c.44-.54.76-1.17.93-1.85.09-.4.14-.8.13-1.21,0-.44-.12-.82-.29-.8s-.6.25-.82.58c-.25.31-.48.65-.67,1-.32.63-.56,1.3-.69,2-.23,1.28-.12,2.07-.23,2.08Z"/>
    <polygon class="st3" points="136.76 459.94 152.02 364.98 117.78 362.88 111.77 459.91 136.76 459.94"/>
    <polygon class="st3" points="104.46 264.37 63.1 269.69 63.49 279.88 67.27 461.02 93.52 461.39 106.17 307.12 104.46 264.37"/>
    <polygon class="st3" points="125.43 260.22 152.02 364.98 119.12 370.98 104.83 321.33 92.91 266.09 125.43 260.22"/>
    <path class="st12" d="M94.53,271.4v1.93c0,1.28-.13,3.14-.23,5.53-.21,4.8-.56,11.75-1.06,20.34-1,17.17-2.64,40.88-4.36,67.06-.86,13.1-1.61,25.58-2.2,36.93-.16,2.84-.25,5.61-.46,8.3s-.43,5.3-.64,7.82c-.4,5-.77,9.73-1.11,14-.68,8.58-1.19,15.52-1.51,20.31-.16,2.4-.27,4.27-.33,5.53v1.44c-.01.12-.01.24,0,.36,0,.1.06,0,.05,0h-.07s0-.21-.05-.37v-1.44c0-1.27.1-3.13.23-5.54.27-4.8.74-11.74,1.37-20.32.32-4.29.67-9,1.06-14,.19-2.52.4-5.13.61-7.81s.28-5.46.43-8.29c.57-11.36,1.31-23.84,2.17-36.94,1.72-26.19,3.44-49.89,4.5-67.06.51-8.57.92-15.51,1.21-20.33.14-2.38.24-4.24.32-5.53,0-.62.07-1.09.09-1.43s-.02-.49-.02-.49Z"/>
    <path class="st12" d="M109,277c.15,0-1,14.43-2.64,32.21s-3,32.18-3.16,32.17,1-14.43,2.64-32.22,3.02-32.16,3.16-32.16Z"/>
    <path class="st12" d="M122.33,384.12c-.13,0-4.17-14-9-31.32s-8.64-31.43-8.5-31.47,4.17,14,9,31.33,8.64,31.42,8.5,31.46Z"/>
    <path class="st12" d="M82.44,270.71c.14.32.22.65.23,1,.14.89.14,1.81,0,2.7-.2,1.33-.64,2.61-1.32,3.78-.83,1.44-1.99,2.66-3.39,3.56-1.41.87-3.01,1.39-4.67,1.5-1.35.11-2.71-.04-4-.44-.86-.26-1.68-.65-2.43-1.15-.29-.17-.54-.38-.76-.63,1.05.59,2.15,1.07,3.3,1.42,5.38,1.59,11.03-1.49,12.62-6.87.12-.4.21-.81.28-1.23.18-1.2.22-2.43.14-3.64Z"/>
    <path class="st12" d="M128,273.61c-.62.1-1.25.06-1.85-.12-1.47-.35-2.84-1.03-4-2-1.17-.96-2.1-2.19-2.71-3.58-.29-.56-.45-1.17-.47-1.8.3.53.56,1.08.8,1.64,1.36,2.58,3.7,4.52,6.49,5.38.59.13,1.17.29,1.74.48Z"/>
    <path class="st12" d="M128.91,461s0-.17.07-.48.13-.81.23-1.41c.21-1.26.53-3.08.93-5.41.84-4.71,2.05-11.48,3.54-19.85l11.86-65.47.12-.65v.09c-3.91-21.68-9.01-43.13-15.29-64.25-2.41-8.09-4.5-14.6-6-19.08l-1.72-5.16c-.19-.57-.33-1-.44-1.34-.05-.15-.1-.3-.13-.46,0,0,.07.14.18.44l.49,1.33c.41,1.17,1,2.89,1.81,5.13,1.55,4.46,3.7,11,6.16,19,6.38,21.1,11.54,42.56,15.44,64.26v.1c0,.2-.08.42-.12.64-4.69,25.55-8.93,48.68-12,65.45-1.56,8.35-2.82,15.12-3.7,19.82-.44,2.32-.79,4.13-1,5.39-.12.59-.21,1.06-.28,1.39s-.15.52-.15.52Z"/>
    <path class="st5" d="M117.81,165.69c4.32,2.57,7.09,7.11,7.4,12.13.2,4.49,1.25,20.46,1.25,20.46l11.54-10.78,11.69,19s-17,23.45-18.74,24.62-8.84,4.19-11.95,2.67-1.19-68.1-1.19-68.1Z"/>
    <path class="st5" d="M80.37,149.93l-3.47,9-20.81,13.07,10.5,66s-8.5,14.38-8.28,24.94c0,2.49,4.8,6.74,4.8,6.74,0,0,22.85,1.64,40.08-.1,16.62-1.68,22.63-7.68,22.63-7.68l3.09-6.51-2.81-8.39-4.18-66.85s-1.54-11.32-4.11-14.41l-7.4-5.6-4-7.06-26.04-3.15Z"/>
    <path class="st3" d="M110.41,160.09c.02.29.02.57,0,.86v2.44c0,2.18-.06,5.19-.1,8.82v.51l-.35-.37-5.5-5.76.43-.14c-.33,2.52-.69,5.25-1.06,8.09l-.05.39-.34-.2-1.17-.7c-7-4.23-13.26-8-17.9-10.85l-5.37-3.34-1.45-.93c-.18-.1-.34-.22-.49-.36.19.07.37.16.54.27l1.5.85,5.48,3.19,18,10.72,1.17.7-.39.19c.38-2.84.74-5.56,1.08-8.08l.07-.52.35.38,5.44,5.81-.36.14c.11-3.63.21-6.64.28-8.82,0-1,.08-1.82.11-2.44,0-.29.03-.57.08-.85Z"/>
    <g class="st10">
      <path d="M60.34,251.85c3.82.96,7.73,1.59,11.66,1.87,3.81.26,7.61-.54,11-2.3,2.31-1.47,4.47-3.17,6.43-5.08,5.5-4.79,11.75-8.63,18-12.45l10-6.17c.88-.46,1.66-1.1,2.29-1.88.83-.9.77-2.3-.13-3.12-.57-.52-1.37-.71-2.11-.5-.88.2-1.71.57-2.46,1.07l-10.93,6.45c-13.4,7.92-27.22,16-42.59,18.43l-1.16,3.68Z"/>
    </g>
    <path class="st5" d="M74.59,219.44c.08-.24.23-.45.44-.59l2-1.48c.33-.24.52-.64.49-1.05l-.6-9.61v-.09c0-1.07.37-22.18-2-29.07-2.35-6.68-7.87-9.69-18.36-5.85-.98.64-1.92,1.36-2.79,2.14h0c-2.02,3.32-3.14,7.11-3.24,11l-.64,22.64s-2,20.92-2.26,23.76c-.72,7.06,1.9,18.48,7.9,19.28,2.71.36,20.23-3.37,23.7-4.35,1.04-.72,1.88-1.71,2.43-2.85l2.09-21.59c.1-1.03-.66-1.95-1.69-2.05-.04,0-.09,0-.13,0l-7.34-.23Z"/>
    <path class="st3" d="M76.42,186.6c-.07,0-.71-1.09-1.94-2.76-3.21-4.37-7.45-7.87-12.35-10.18-1.88-.89-3.11-1.29-3.08-1.38.3.03.6.09.89.2.8.23,1.58.51,2.34.84,2.52,1.08,4.88,2.51,7,4.25,2.12,1.74,3.98,3.78,5.51,6.06.47.68.9,1.39,1.28,2.13.25.52.39.82.35.84Z"/>
    <path class="st3" d="M77.51,188.88c.08.42.12.86.12,1.29l.16,3.52c.1,3,.21,7.08.3,11.61l.1,6.4c.18,1.78-.17,3.58-1,5.17-.64,1.02-1.51,1.87-2.54,2.48-.36.26-.76.44-1.19.54,0,0,.41-.23,1.08-.7.95-.66,1.75-1.52,2.34-2.51.74-1.56,1.02-3.29.81-5l-.14-6.4c-.09-4.53-.14-8.64-.15-11.62v-3.52c0-.42.03-.85.11-1.26Z"/>
    <path class="st3" d="M55.35,250.62c.2-.06.41-.1.62-.11l1.78-.23c1.55-.2,3.78-.49,6.53-.95,2.75-.46,6-1.09,9.59-1.93l2.74-.68c.95-.21,1.88-.49,2.78-.84.89-.36,1.57-1.09,1.86-2,.25-1,.4-2.02.45-3.05.42-4.23.81-8.26,1.17-11.94l.53-5.21c.12-.76.15-1.54.08-2.31-.05-.68-.55-1.24-1.22-1.37-.64-.08-1.29-.08-1.93,0l-1.77.1-2.84.15-1.8.07c-.21.02-.41.02-.62,0,.2-.06.41-.09.62-.1l1.78-.22,2.84-.23,1.77-.14c.66-.08,1.34-.08,2,0,.38.07.73.27,1,.55.27.31.45.69.52,1.1.09.81.06,1.62-.06,2.42-.14,1.64-.3,3.38-.47,5.22-.35,3.67-.73,7.71-1.13,11.94-.05,1.07-.21,2.13-.48,3.17-.17.53-.45,1.01-.82,1.42-.37.39-.82.7-1.32.91-.93.37-1.89.65-2.87.86l-2.75.67c-3.6.82-6.88,1.41-9.64,1.82s-5,.65-6.57.79c-.77.07-1.38.11-1.79.13-.19.02-.39.01-.58-.01Z"/>
    <path class="st3" d="M65.92,229.75c-.02-.62.08-1.25.3-1.83.42-1.44,1.1-2.8,2-4,.91-1.21,2.04-2.23,3.35-3,.52-.35,1.11-.58,1.73-.68-1.79,1.03-3.37,2.39-4.66,4-2.07,2.76-2.55,5.57-2.72,5.51Z"/>
    <path class="st3" d="M61.82,224.73c.28-.6.68-1.14,1.18-1.58,1.14-1.14,2.5-2.04,4-2.64,1.49-.61,3.09-.91,4.7-.89.68-.04,1.36.06,2,.3-.67.06-1.33.08-2,.06-3.12.17-6.1,1.38-8.45,3.44-.45.47-.93.9-1.43,1.31Z"/>
    <path class="st3" d="M110.17,252.76c.27-.02.53-.02.8,0,.52,0,1.28,0,2.27-.1,1.19-.06,2.38-.22,3.55-.45,1.54-.29,3.02-.88,4.34-1.73,1.57-1.07,2.68-2.7,3.1-4.55.38-2.16.49-4.37.33-6.56-.08-4.68-.18-9.82-.27-15.21-.15-10.77-.29-20.52-.39-27.64,0-3.5,0-6.35-.06-8.38v-2.28c-.02-.26-.02-.53,0-.79.05.26.07.53.07.79,0,.57.03,1.33.09,2.28,0,2,.13,4.88.22,8.37.14,7.12.33,16.87.54,27.64.08,5.4.16,10.53.23,15.21.15,2.23.02,4.47-.39,6.67-.46,1.95-1.64,3.64-3.31,4.75-1.37.86-2.89,1.44-4.49,1.71-1.19.22-2.39.34-3.6.37h-2.28c-.25-.01-.5-.04-.75-.1Z"/>
    <path class="st3" d="M121.47,255.67c-.53.23-1.07.42-1.63.56-1.06.34-2.61.76-4.54,1.22-10.09,2.38-20.52,2.98-30.82,1.77-2-.23-3.56-.47-4.65-.69-.57-.08-1.13-.21-1.68-.37.57.01,1.15.07,1.71.17,1.1.15,2.69.34,4.66.53,10.26.99,20.62.4,30.7-1.77,1.93-.41,3.49-.77,4.56-1,.55-.18,1.12-.32,1.69-.42Z"/>
    <path class="st3" d="M108.14,250.91c-.03-.29-.03-.57,0-.86,0-.6.06-1.42.1-2.45.1-2.17.24-5.24.41-9,.32-7.6.65-18.12.33-29.72s-1.31-22.09-2.28-29.63c-.49-3.77-.92-6.82-1.26-8.93-.16-1-.28-1.82-.37-2.42s-.1-.85-.09-.85c.09.27.16.55.2.83.11.6.26,1.4.46,2.41.4,2.09.88,5.14,1.43,8.91,1.36,9.83,2.17,19.74,2.43,29.66.32,11.63-.07,22.15-.48,29.76-.21,3.8-.41,6.87-.58,9-.08,1-.15,1.84-.2,2.44-.02.29-.05.57-.1.85Z"/>
    <path class="st6" d="M77,199.39s-.37-.23-1.07-.52c-.99-.39-2.06-.57-3.12-.52-1.59.1-3.16.42-4.67.93-.87.25-1.79.53-2.77.74-4.68.98-9.53-.46-12.93-3.82-.77-.77-1.44-1.64-2-2.57-.21-.34-.39-.7-.52-1.08.83,1.21,1.77,2.35,2.82,3.38,2.63,2.39,6.03,3.77,9.59,3.87,1.95-.04,3.88-.38,5.73-1,1.55-.5,3.16-.79,4.79-.84,1.11-.01,2.21.23,3.22.7.36.18.67.42.93.73Z"/>
    <path class="st6" d="M68.79,220.45c-.35.19-.69.42-1,.67-.79.78-1.32,1.78-1.5,2.88-.16.69-.26,1.46-.41,2.3-.18.89-.42,1.76-.72,2.62-1.98,5.63-6.57,9.94-12.31,11.57-1.1.3-2.22.5-3.36.59-.42.05-.83.05-1.25,0,1.52-.22,3.02-.53,4.5-.94,5.55-1.71,9.99-5.92,12-11.37.31-.83.55-1.68.74-2.55.18-.81.3-1.59.48-2.29.21-1.17.82-2.23,1.72-3,.25-.19.52-.35.82-.45.09-.03.19-.04.29-.03Z"/>
    <path class="st6" d="M80.83,241.51s-.31-.11-.77-.45c-.66-.5-1.24-1.09-1.73-1.75-1.58-2.24-2.4-4.92-2.33-7.66.11-2.7.69-5.36,1.72-7.86.37-.95.7-1.71,1-2.23.1-.28.24-.55.43-.78-.27,1.07-.6,2.11-1,3.14-.9,2.48-1.42,5.09-1.54,7.73-.06,2.63.67,5.22,2.09,7.44.62.88,1.34,1.69,2.13,2.42Z"/>
    <path class="st6" d="M83.68,163.68c.07.28.1.57.07.86,0,.78-.08,1.56-.24,2.33-1.03,5.23-4.89,9.45-10,10.95-.75.23-1.52.39-2.3.47-.28.06-.58.06-.86,0,0-.09,1.21-.18,3-.82,4.86-1.66,8.53-5.69,9.73-10.68.53-1.89.51-3.12.6-3.11Z"/>
    <path class="st6" d="M85.69,154.88c-1.16.53-2.26,1.18-3.29,1.94-.92.89-1.74,1.86-2.46,2.91.28-1.33,1.04-2.5,2.13-3.31.98-.94,2.27-1.49,3.62-1.54Z"/>
    <path class="st6" d="M99.58,163.29c.46,1.21.46,2.55,0,3.76-.29,1.26-1.04,2.38-2.1,3.12.63-1.04,1.16-2.14,1.6-3.27.27-1.19.43-2.39.5-3.61Z"/>
    <path class="st6" d="M109.76,165.46c-.59-.93-1.12-1.89-1.59-2.89-.62-.91-1.18-1.85-1.68-2.83.91.66,1.65,1.55,2.13,2.57.63.94,1.03,2.02,1.14,3.15Z"/>
    <path class="st6" d="M107.43,190.62s-.49.07-1.32.34c-1.15.41-2.21,1.06-3.1,1.91-1.31,1.28-2.46,2.72-3.41,4.28-1.18,1.96-2.69,3.71-4.45,5.17-3.34,2.56-7.5,3.81-11.7,3.52-1.25-.11-2.49-.36-3.68-.76-.44-.14-.86-.32-1.26-.55,1.63.49,3.3.8,5,.94,1.82.09,3.65-.12,5.41-.61,2.16-.59,4.18-1.61,5.94-3,1.72-1.42,3.19-3.11,4.37-5,.99-1.58,2.19-3.02,3.56-4.28.95-.85,2.08-1.47,3.3-1.82.33-.09.66-.15,1-.17.21,0,.34.01.34.03Z"/>
    <path class="st6" d="M123.79,196.49c-.43.63-.97,1.17-1.61,1.59-1.49,1.09-3.19,1.85-5,2.22-1.81.37-3.68.34-5.47-.09-.75-.14-1.46-.42-2.1-.84,0-.08.84.23,2.18.48,3.54.64,7.2-.1,10.21-2.07,1.11-.78,1.72-1.36,1.79-1.29Z"/>
    <path class="st6" d="M125,175.28c-1.68-2.03-3.69-3.76-5.93-5.14-2.34-1.21-4.86-2.04-7.47-2.43.78-.1,1.58-.07,2.35.1,1.89.3,3.71.94,5.37,1.88,1.67.94,3.15,2.17,4.38,3.63.55.57.99,1.24,1.3,1.96Z"/>
    <path class="st6" d="M107.21,242c-.16.09-.33.17-.5.23-.49.18-.96.4-1.41.65-1.67.93-3.16,2.14-4.42,3.58-1.66,1.76-3.37,4.1-5.57,6.48-1.16,1.26-2.48,2.36-3.93,3.26-.4.2-.78.45-1.2.62l-1.28.5c-.9.26-1.83.42-2.77.47-3.83.15-7.24-1.23-10.24-2.34-2.6-1.12-5.34-1.92-8.14-2.37-1.88-.31-3.81-.16-5.63.42-1.27.44-1.89.89-1.92.84.13-.13.28-.23.44-.32.44-.29.92-.53,1.41-.71,1.84-.67,3.81-.87,5.75-.6,2.84.4,5.62,1.18,8.26,2.3,3,1.08,6.37,2.41,10,2.26.9-.05,1.79-.2,2.65-.45l1.22-.47c.41-.16.77-.4,1.15-.59,1.44-.88,2.76-1.95,3.92-3.18,2.19-2.32,3.94-4.66,5.66-6.4,1.3-1.45,2.85-2.64,4.59-3.51.47-.24.96-.43,1.47-.57.16-.06.32-.09.49-.1Z"/>
    <path class="st6" d="M124.19,246.62c-.62-.76-1.18-1.56-1.68-2.4-1.28-1.95-2.8-3.74-4.52-5.31-1.74-1.54-3.85-2.62-6.12-3.12-.95-.14-1.92-.22-2.88-.24.24-.11.5-.17.77-.17.72-.08,1.45-.06,2.17.05,2.38.4,4.6,1.47,6.4,3.08,1.76,1.6,3.28,3.46,4.48,5.51.56.81,1.02,1.68,1.38,2.6Z"/>
    <path class="st6" d="M105.91,258.22v.73c-.09.65-.24,1.3-.45,1.92-.31.94-.71,1.84-1.21,2.69-.62,1.03-1.35,1.99-2.19,2.86-.86.85-1.81,1.61-2.83,2.25-.84.51-1.73.94-2.66,1.26-.62.22-1.27.38-1.92.48-.24.04-.48.04-.72,0,0-.1,1-.27,2.51-.88.89-.35,1.75-.77,2.56-1.27.97-.64,1.88-1.38,2.7-2.2.81-.84,1.53-1.76,2.16-2.75.51-.81.93-1.67,1.27-2.56.54-1.52.69-2.54.78-2.53Z"/>
    <path class="st6" d="M141.77,217.87c-.09,0-.54-1-1.61-2.47-2.8-3.87-7.23-6.23-12-6.42-1.8-.08-2.92.12-2.94,0,.25-.12.51-.19.78-.21.72-.13,1.44-.19,2.17-.19,4.93,0,9.54,2.47,12.27,6.58.4.61.75,1.25,1.05,1.92.14.24.24.51.28.79Z"/>
    <path class="st1" d="M185,164.21c-.24-.76-1.65-1-1.65-1l.31-.42c.44-.57.53-1.34.25-2-.04-.11-.09-.21-.15-.31-.38-.57-.93-1.01-1.57-1.27,0,0,1.12-1.35.9-2.06-.53-1.25-1.75-2.06-3.1-2.06-2.29.39-4.55.93-6.77,1.63-.77.25-1.6-.18-1.85-.96-.02-.08-.04-.15-.05-.23-.28-2.18-.89-4.3-1.81-6.29-1.11-2.11-2.55-2.26-3.43-2.12-.38.06-.63.42-.57.79,0,.04.01.07.03.11.54,1.44.98,2.91,1.33,4.4.17,1.11-1.06,9-1.06,9l-1.89,4-6,6.75-19.09,16.7,10,16.23,17.51-22,1.18-1.5,4.13-4.47,2.63-2.52,8.86-3.34s1.75-2,1.61-2.69c-.12-.48-.4-.9-.79-1.19l1.16-1.45c.07-.58.03-1.17-.12-1.73Z"/>
    <path class="st4" d="M183,159.39c-.06.05-.12.09-.19.11l-.55.28-2,1-3,1.43c-.57.26-1.15.58-1.81.81-.69.29-1.49.23-2.13-.16-.31-.23-.52-.57-.6-.95-.09-.36-.09-.73,0-1.09.21-.65.63-1.22,1.2-1.6.5-.34,1.01-.65,1.55-.92l1.38-.72,2-1,.55-.27.2-.09c-.05.05-.11.09-.18.12l-.53.31-2,1.09-1.37.75c-.53.27-1.03.58-1.52.92-.53.36-.92.89-1.12,1.5-.22.65-.03,1.37.49,1.82.28.2.61.3.95.31.34,0,.68-.05,1-.17.63-.22,1.22-.53,1.8-.79l3-1.39,2.06-.93.57-.24.25-.13Z"/>
    <path class="st4" d="M183.49,163.59l-1.22.47c-1,.39-2.45.92-4.05,1.46-.38.14-.77.25-1.16.35-.35.1-.73.1-1.08,0-.6-.19-1.04-.71-1.13-1.33-.05-.42.05-.85.29-1.2.09-.13.19-.25.3-.36l-.11.06c-.1.07-.18.16-.25.26-.29.35-.42.81-.38,1.26.09.69.56,1.27,1.22,1.49.39.1.79.1,1.18,0,.4-.1.8-.22,1.19-.36,1.6-.53,3-1.09,4-1.52l1.2-.53c.28-.13.43-.21.42-.23-.14.05-.28.11-.42.18Z"/>
    <path class="st4" d="M183.76,167.3l-1.19.24c-1,.22-2.37.53-3.89.89-.38.08-.74.18-1.1.23-.34.05-.68.01-1-.12-.28-.11-.5-.33-.6-.62-.08-.25-.08-.51,0-.76.15-.37.41-.67.75-.88.13-.07.25-.15.37-.23-.14.03-.28.08-.41.16-.37.19-.67.51-.84.89-.12.28-.14.58-.06.87.11.34.35.61.68.74.34.15.72.2,1.09.14.38-.05.75-.13,1.12-.23,1.52-.35,2.89-.69,3.87-.94l1.17-.31c.15-.02.3-.07.43-.14-.13,0-.26.03-.39.07Z"/>
    <path class="st4" d="M182.75,170.6c-.81,0-1.93,0-3.16-.06h-.9c-.27,0-.55,0-.82-.05-.23-.05-.44-.17-.59-.35-.13-.15-.18-.35-.14-.55.07-.3.27-.55.54-.69.19-.11.32-.13.32-.15-.12-.01-.24.02-.35.08-.32.13-.56.4-.65.73-.06.24,0,.5.15.69.17.21.41.36.68.42.28.06.56.08.85.07h4.07c.43.02.87,0,1.3-.06-.43-.06-.87-.09-1.3-.08Z"/>
    <path class="st4" d="M173.75,166.61c.74.16,1.47.39,2.17.69-.62-.49-1.36-.8-2.14-.89-.77-.17-1.57-.11-2.31.17.76-.07,1.52-.06,2.28.03Z"/>
    <path class="st1" d="M79.63,115.12l1.37,35.79,23.55,15.28,1.92-12.76v-4.24s10.18-1.1,10.78-11.19c.29-4.9.07-15.06-.24-24.23-.34-10.16-8.73-18.19-18.9-18.08h0c-10.34.13-18.62,8.61-18.49,18.95,0,.16,0,.32.01.48Z"/>
    <path class="st4" d="M106.49,149.21c-4.67-.13-9.2-1.65-13-4.36,0,0,2.77,7.41,12.88,7l.12-2.64Z"/>
    <path class="st3" d="M113.71,121c-.03.78-.68,1.4-1.46,1.39-.76.02-1.4-.58-1.42-1.34,0-.01,0-.02,0-.03.03-.78.68-1.4,1.46-1.39.76-.02,1.4.58,1.42,1.34,0,.01,0,.02,0,.03Z"/>
    <path class="st3" d="M114.61,118.93c-.19.18-1.24-.68-2.79-.75s-2.73.65-2.89.45.12-.41.64-.75c.69-.44,1.5-.65,2.32-.6.81.04,1.58.33,2.21.83.46.39.6.74.51.82Z"/>
    <path class="st3" d="M99,121c-.03.78-.68,1.4-1.46,1.39-.76.02-1.39-.59-1.41-1.35,0-.01,0-.03,0-.04.03-.78.68-1.4,1.46-1.39.76-.02,1.39.59,1.41,1.35,0,.01,0,.03,0,.04Z"/>
    <path class="st3" d="M99.35,118.5c-.19.18-1.25-.68-2.8-.75s-2.72.65-2.88.45.12-.42.63-.75c.69-.44,1.5-.65,2.32-.6.81.04,1.58.33,2.21.83.46.39.61.74.52.82Z"/>
    <path class="st3" d="M104.43,130.27c.83-.22,1.69-.33,2.55-.33.39,0,.77-.09.85-.36.05-.41-.02-.82-.21-1.18-.32-1-.67-2-1-3.07-1.42-4.38-2.43-8-2.25-8s1.47,3.44,2.89,7.81l1,3.09c.23.49.27,1.05.13,1.57-.13.28-.37.48-.67.55-.22.05-.45.07-.68.06-.87.07-1.75.02-2.61-.14Z"/>
    <path class="st3" d="M99.82,131.13c.25,0,.17,1.68,1.56,2.94s3.18,1.17,3.19,1.4-.42.31-1.18.29c-.99-.03-1.93-.41-2.66-1.07-.71-.63-1.14-1.51-1.2-2.46-.04-.71.17-1.12.29-1.1Z"/>
    <path class="st3" d="M100,112.44c-.18.41-1.72.14-3.55.27s-3.32.56-3.55.17c-.1-.19.18-.57.79-.95,1.65-.93,3.64-1.06,5.4-.34.7.3,1.02.65.91.85Z"/>
    <path class="st3" d="M114.25,114.41c-.29.34-1.34-.07-2.62-.15s-2.39.12-2.62-.26c-.1-.18.09-.53.58-.84,1.34-.76,3.01-.63,4.22.33.44.39.57.76.44.92Z"/>
    <path class="st3" d="M118.16,102.66c2.13-1.64,3.07-4.4,2.39-7-.75-2.56-2.77-4.55-5.35-5.24-2.58-.64-5.31-.1-7.45,1.48-.07-1.24-.94-2.29-2.14-2.58-1.18-.27-2.43-.11-3.5.46-1.96.9-3.54,2.46-4.46,4.4-1.67-2.66-5.18-3.45-7.83-1.78-.96.6-1.71,1.47-2.17,2.5-.26.77-.57,1.52-.93,2.24-.54.74-1.41,1.16-2.33,1.14h0c-1.37.14-2.68.66-3.77,1.5-2.35,1.74-3.78,4.46-3.88,7.39.08,7.28,2.35,11,2.56,18-.03.46.07.93.3,1.33.67,1,2.24.51,3.16-.27,2.22-1.88,3.35-4.76,3.91-7.61s.63-5.79,1.16-8.65v-.21c.23-1.19.73-2.3,1.45-3.27.84.59,1.72,1.12,2.63,1.58,3.45,1.49,7.47.56,9.92-2.29,2.31,1.8,5.17,2.75,8.1,2.67,2.89-.08,5.75-.71,7.91-2.64.57-.49.99-1.13,1.21-1.85.17-.52-.36-1.15-.89-1.3Z"/>
    <path class="st1" d="M82.81,120c-.17-.08-6.84-2.38-7,4.53-.16,6.91,6.86,5.6,6.87,5.4s.13-9.93.13-9.93Z"/>
    <path class="st4" d="M80.66,127.3s-.12.08-.32.17c-.29.12-.61.12-.9,0-.9-.59-1.41-1.62-1.34-2.69,0-.59.11-1.18.36-1.72.14-.44.48-.78.92-.91.29-.07.59.07.71.34.09.19,0,.33.08.34s.15-.11.1-.4c-.04-.17-.14-.32-.27-.43-.19-.15-.42-.22-.66-.19-.57.09-1.05.47-1.28,1-.3.6-.45,1.25-.44,1.92-.09,1.25.59,2.44,1.71,3,.37.11.78.05,1.1-.17.22-.1.26-.25.23-.26Z"/>
    <path class="st12" d="M77.31,113.57c.6-.34,1.22-.65,1.85-.91,1.45-.77,2.76-1.78,3.87-3,1.1-1.22,1.98-2.62,2.59-4.15.2-.66.44-1.3.72-1.93.01.7-.11,1.4-.37,2.06-1.08,3.28-3.5,5.95-6.65,7.36-.63.32-1.31.52-2.01.57Z"/>
    <path class="st12" d="M88.56,106c-.04.76-.23,1.51-.56,2.2-1.39,3.52-4.28,6.24-7.89,7.39-.72.27-1.49.4-2.26.37,0-.09.85-.23,2.14-.72,3.4-1.3,6.15-3.88,7.67-7.18.62-1.27.81-2.12.9-2.06Z"/>
    <path class="st12" d="M112.54,102.3c-.07,0-.47-.44-1.31-1-1.08-.7-2.35-1.05-3.63-1-1.28.09-2.51.58-3.51,1.39-.77.63-1.11,1.17-1.18,1.13s.18-.65.94-1.4c1-.98,2.32-1.56,3.72-1.64,1.4-.07,2.77.37,3.88,1.22.83.67,1.14,1.27,1.09,1.3Z"/>
    <path class="st12" d="M117,91.5c-.89-.17-1.81-.2-2.71-.07-1.01.17-1.97.6-2.76,1.25-1.01.84-1.71,2-2,3.28l-.11.44-.3-.35c-.85-.99-2.01-1.66-3.29-1.91-1.41-.3-2.88-.03-4.09.75-1.4.9-2.35,2.36-2.62,4l-.08.53-.35-.4c-1.16-1.3-2.8-2.07-4.54-2.14-1.39-.07-2.75.32-3.89,1.12-.75.53-1.38,1.22-1.86,2-.15.29-.31.58-.5.85.06-.33.19-.65.36-.94,1.15-2.17,3.42-3.51,5.87-3.47,1.86.05,3.62.87,4.87,2.25l-.43.13c.27-1.8,1.3-3.39,2.83-4.37,1.33-.85,2.94-1.14,4.48-.8,1.39.28,2.63,1.02,3.54,2.11l-.4.09c.34-1.37,1.13-2.59,2.24-3.47.87-.67,1.91-1.09,3-1.22.69-.09,1.38-.06,2.06.09.24.04.47.13.68.25Z"/>
    <path class="st1" d="M145.6,192.64l-6.89,3.18-3.24,3.29s7.53-.89,7.73.37.23,2.7-.27,3.1c-.47.48-.88,1.01-1.23,1.58,0,0,1.81,2,1.12,3-.44.66-.81,1.36-1.1,2.09l-1.08-.09s.12,3.92-.7,4.45c-.5.43-1.12.69-1.77.75-1.11.21-3.45.32-3.45.32l-1.23-.11s-6.46,8.13-8.77,7.92-6.57-.26-6.57-.26l-36.2,21,1.66-18.82.22-3.44,35.55-12.8,12.62-14.02,5.92-2.9,8.61-1.89c.4,1.18.03,2.49-.93,3.28Z"/>
    <path class="st4" d="M118.15,222.27c.11-.02.22-.02.33,0h1l3.72.1h1.27c.45.05.89-.05,1.28-.28.9-.54,1.73-1.18,2.47-1.92,1.83-1.79,3.55-3.7,5.14-5.71l.07-.09h.11l1.23.1h0c.75,0,1.53-.09,2.31-.17.4-.04.79-.09,1.18-.17.38-.04.76-.17,1.09-.36l.53-.35c.11-.12.19-.26.24-.42.13-.39.22-.8.25-1.21.09-.87.12-1.75.09-2.63v-.26h.26l1.08.09-.25.16c.18-.44.38-.88.61-1.3.2-.42.6-.86.62-1.17,0-.44-.14-.88-.38-1.25-.23-.42-.51-.81-.82-1.17l-.13-.14.1-.15c.28-.46.59-.9.93-1.31.1-.11.2-.21.31-.3.07-.06.13-.14.17-.23.09-.22.15-.45.16-.69.03-.52.02-1.04-.05-1.56l-.06-.39c0-.07,0-.08-.11-.15-.21-.11-.44-.18-.68-.21-2.22-.19-4.45-.13-6.66.18l-.72.07.51-.51.11-.12,3.12-3.17h0l6.9-3.18h-.06c.91-.71,1.27-1.91.89-3l.29.15-8.6,1.93h.05l-5.93,2.87h.06l-9.3,10.23-2.57,2.78-.68.72c-.16.16-.24.24-.25.23s.06-.1.2-.27l.64-.76c.6-.68,1.44-1.64,2.49-2.86,2.21-2.49,5.34-6,9.16-10.35h0l5.91-2.92h.05l8.61-1.91.22-.05.06.2c.21.63.24,1.3.06,1.94-.18.64-.56,1.21-1.09,1.62h0l-6.89,3.2.07-.06c-1,1.05-2.06,2.1-3.11,3.17l-.12.12-.22-.44c1.15-.13,2.29-.22,3.42-.27,1.13-.08,2.27-.04,3.39.1.31.04.6.14.87.29.18.11.3.29.34.5l.06.41c.06.56.06,1.11,0,1.67-.02.3-.09.59-.21.86-.07.15-.17.29-.3.39-.09.08-.18.16-.25.26-.33.38-.63.79-.89,1.23v-.3c.34.39.64.81.89,1.26.29.46.44,1,.43,1.54-.04.27-.15.53-.32.75-.13.2-.25.4-.36.6-.22.41-.42.83-.59,1.24l-.07.17h-.17l-1.08-.1.26-.24c.02.9-.02,1.8-.11,2.69-.05.45-.14.89-.28,1.32-.08.25-.23.47-.43.64l-.52.34c-.38.23-.81.37-1.25.42-.41.08-.82.13-1.22.17-.8.07-1.58.12-2.34.16h0l-1.23-.12.18-.07c-1.62,2.01-3.37,3.91-5.24,5.69-.77.75-1.63,1.4-2.56,1.93-.22.12-.46.21-.71.27-.24.03-.48.03-.72,0l-1.27-.07-3.7-.2-1-.07-.29-.13Z"/>
    <path class="st4" d="M141.75,204c-.38-.13-.76-.29-1.13-.46-.92-.29-1.88-.38-2.84-.27-.97.13-1.93.35-2.86.66-.73.21-1.19.33-1.22.26s.39-.3,1.1-.61c.93-.42,1.91-.7,2.92-.83,1.02-.12,2.06.04,3,.45.76.35,1.07.8,1.03.8Z"/>
    <path class="st4" d="M140.67,209.39c-.04-.35-.23-.68-.52-.88-.85-.31-1.76-.4-2.65-.26-1.3.21-2.58.56-3.8,1.06,1.01-.97,2.35-1.53,3.75-1.58.54-.06,1.08-.06,1.62,0,.46.03.91.18,1.29.45.27.2.43.51.44.85,0,.27-.1.37-.13.36Z"/>
    <path class="st4" d="M137.21,212.21c0,.06-.31.2-.86.26-.67.02-1.34.1-2,.26-.6.15-1.04.66-1.08,1.28,0,.47.27.69.22.75s-.45-.08-.58-.71c-.07-.37.02-.74.23-1.05.25-.35.6-.61,1-.76.7-.18,1.43-.23,2.15-.14.57.04.9.03.92.11Z"/>
    <g class="st10">
      <path d="M115,252.41c-12.87,2.07-26.26,1.44-39.1-.79-1.17-.21-2.67-.28-3.22.77-.31.76-.1,1.63.52,2.17.62.5,1.36.84,2.14,1,5.57,1.52,11.44,1.42,17.21,1.16,10.71-.43,21.3-2.5,31.38-6.14l-8.93,1.83Z"/>
    </g>
    <g class="st10">
      <path d="M73.28,219.63c-5.14-1.65-10.77-.44-14.78,3.18-.49.46-1,1.09-.8,1.73.18.47.62.79,1.12.82.49.02.98-.07,1.43-.27,2.22-1.01,4.36-2.17,6.41-3.49,2.08-1.33,4.53-1.96,7-1.79"/>
    </g>
  </g>
</svg>