<?xml version="1.0" encoding="UTF-8"?>
<svg id="Layer_1" xmlns="http://www.w3.org/2000/svg" version="1.1" viewBox="0 0 750 500">
  <!-- Generator: Adobe Illustrator 29.5.1, SVG Export Plug-In . SVG Version: 2.1.0 Build 141)  -->
  <defs>
    <style>
      .st0 {
        fill: #e0e0e0;
      }

      .st1 {
        isolation: isolate;
        opacity: .5;
      }

      .st2 {
        fill: #4a9288;
      }

      .st3 {
        fill: #263238;
      }

      .st4 {
        fill: #fafafa;
      }

      .st5 {
        fill: #455a64;
      }
    </style>
  </defs>
  <g id="freepik--Documents--inject-45">
    <path class="st0" d="M177.17,265.59s98.28-3.87,119.1-70.02l-43.19,8.51s-7.94,25.05-20.26,38.3c0,0-5.43,1.88-27.96-6.25l-27.7,29.46h.01Z"/>
    <path class="st5" d="M204.9,236.13s1.48.54,4.15,1.54c3.76,1.39,7.62,2.46,11.55,3.19,5.82,1.09,11.79,1.35,17.69.79,7.23-.71,14.25-2.74,20.75-5.99,11.85-5.93,22.03-14.72,29.61-25.59,2.27-3.29,4.22-6.78,5.86-10.44,1.13-2.61,1.65-4.09,1.75-4.06-.06.38-.17.75-.3,1.11-.24.69-.53,1.78-1.09,3.1-1.5,3.74-3.4,7.32-5.63,10.68-7.49,11.12-17.74,20.09-29.74,26.06-6.59,3.3-13.76,5.35-21.1,6.03-5.99.54-12.02.21-17.89-1.01-3.96-.81-7.83-1.97-11.57-3.51-1.33-.51-2.31-1.05-2.99-1.35-.36-.15-.71-.34-1.03-.54h-.02Z"/>
    <path class="st5" d="M282.8,212.36c-1.31.75-2.72,1.33-4.19,1.77-2.65.94-6.37,2.1-10.51,3.14s-8,1.75-10.78,2.14c-1.48.32-3,.43-4.53.38,1.43-.49,2.91-.84,4.41-1.07,2.74-.56,6.52-1.37,10.65-2.38s7.85-2.08,10.53-2.85c1.43-.53,2.91-.9,4.41-1.11h0v-.02Z"/>
    <path class="st5" d="M277.94,221.33c-1.31.75-2.72,1.35-4.19,1.77-3.45,1.22-6.97,2.27-10.51,3.15-4.17,1.01-7.98,1.73-10.76,2.12-1.5.32-3.02.45-4.54.39,1.41-.49,2.85-.83,4.34-1.03,2.74-.56,6.52-1.37,10.67-2.4s7.85-2.07,10.53-2.85c1.45-.53,2.95-.9,4.47-1.15h-.01Z"/>
    <path class="st5" d="M264.87,233.1c-.96.64-2.01,1.13-3.12,1.43-2.59.98-5.24,1.73-7.94,2.29-2.7.53-5.43.92-8.17,1.16-1.13.23-2.27.26-3.42.15,0-.32,5.13-1.11,11.4-2.27s11.15-3.08,11.25-2.76h0Z"/>
    <path class="st4" d="M456.94,209.54s31.13,74.24,82.99,86.92c0,0,32.15-18.34,47.66-22.74,0,0-58.7-43.88-70.06-84.12-.02,0-22.64,27.41-60.59,19.94h0Z"/>
    <path class="st3" d="M456.94,209.54l1.15.13,3.45.43c.77,0,1.63.23,2.57.32l3.08.09c1.11,0,2.31.13,3.59.11l4.07-.26c6.95-.6,13.76-2.35,20.15-5.16,3.96-1.73,7.74-3.85,11.27-6.35,4-2.72,7.66-5.91,10.89-9.52l.47-.53.19.68c4.17,14.33,13.93,28.82,26.08,42.85,13.22,14.93,27.81,28.56,43.58,40.73l.34.24.77.6-.94.26c-4.37,1.35-8.64,2.99-12.79,4.9-4.15,1.88-8.19,3.76-12.15,5.75-7.89,3.94-15.45,8-22.53,12.04l-.17.09h-.19c-8.45-2.2-16.49-5.78-23.77-10.61-6.61-4.37-12.77-9.41-18.38-15.02-9.18-9.37-17.33-19.7-24.32-30.79-4.64-7.27-8.86-14.8-12.66-22.55-1.33-2.69-2.29-4.81-2.91-6.23l-.68-1.63c-.09-.19-.15-.38-.21-.56.11.17.21.34.28.53l.75,1.61c.68,1.41,1.67,3.49,3.04,6.16,3.91,7.64,8.19,15.06,12.86,22.25,7.04,11,15.23,21.26,24.41,30.55,5.58,5.61,11.72,10.65,18.31,15.02,7.21,4.75,15.15,8.28,23.51,10.44h-.34c7.17-4.06,14.74-8.11,22.64-12.07,3.96-1.99,8.04-3.92,12.19-5.78,4.19-1.93,8.51-3.59,12.92-4.94l-.15.86-.36-.26c-15.83-12.22-30.44-25.93-43.66-40.95-12.17-14.1-21.95-28.71-26.12-43.19l.68.13c-3.3,3.62-7.02,6.85-11.1,9.59-3.61,2.5-7.44,4.62-11.47,6.35-6.48,2.8-13.39,4.49-20.43,4.99l-4.09.21c-1.3,0-2.5-.11-3.61-.15l-3.1-.15c-.94-.11-1.75-.28-2.5-.38l-3.44-.58-1.2-.24h.03Z"/>
    <path class="st3" d="M521.4,215.02s.15,0,0,.09c-.08.09-.17.17-.28.23-.38.24-.77.45-1.18.66-1.03.53-2.57,1.24-4.47,2.07-3.76,1.65-9.11,3.76-15.02,6.12-5.91,2.37-11.27,4.34-15.15,5.75-2.07.86-4.19,1.58-6.37,2.1,1.97-1.07,4.02-1.99,6.12-2.74,3.76-1.58,9.14-3.76,15.02-6.01l15.02-5.86c4-1.48,6.53-2.42,6.31-2.4h0Z"/>
    <path class="st3" d="M525.23,224.13c.11.24-8.37,4.68-18.96,9.9s-19.28,9.24-19.42,9.01,8.37-4.68,18.98-9.9,19.28-9.16,19.4-9.01h0Z"/>
    <path class="st3" d="M532.61,232.35c.13.24-8.13,5.2-18.46,11.1-10.33,5.9-18.78,10.48-18.93,10.25s8.11-5.2,18.44-11.1,18.8-10.48,18.95-10.25h0Z"/>
    <path class="st3" d="M539.16,242.12c.15.23-7.29,5.63-16.64,11.98s-17.05,11.4-17.2,11.27,7.3-5.63,16.64-11.98,17.05-11.47,17.2-11.27Z"/>
    <path class="st3" d="M546.69,251.34c-4.73,4.22-9.69,8.21-14.83,11.94-4.96,4.02-10.12,7.77-15.45,11.27,4.73-4.24,9.69-8.24,14.85-11.96,4.94-4.02,10.1-7.77,15.43-11.25h0Z"/>
    <path class="st3" d="M560.92,260.29c.15.23-7.7,5.16-17.5,11.02s-17.89,10.42-18.03,10.2,7.7-5.16,17.52-11.04,17.88-10.42,18.01-10.18h0Z"/>
    <path class="st4" d="M295.21,177.17s45.06-26.01,55.73-40.33c0,0,58.88,28.16,110.31,11.87l-39.43,45.81s-64.27,13.8-126.61-17.35h0Z"/>
    <path class="st3" d="M295.21,177.17l8.9,3.89c2.76,1.35,6.46,2.55,10.67,4.15s9.2,2.95,14.68,4.66c13.24,3.45,26.76,5.71,40.41,6.68,1.88.19,3.94.28,5.95.34l6.12.23c4.15,0,8.39,0,12.73-.19,9.05-.3,18.06-1.24,26.98-2.85l-.26.15,36.88-42.79,2.61-3.04.53.79c-10.14,3-20.64,4.69-31.23,4.99h-7.66l-7.51-.43c-2.48-.09-4.92-.49-7.34-.75l-3.62-.41c-1.2-.17-2.38-.39-3.57-.58-9.03-1.45-17.95-3.53-26.68-6.25-7.85-2.37-15.55-5.26-23.02-8.62l.47-.11c-3.25,3.91-6.93,7.44-10.97,10.51-3.76,3.02-7.42,5.63-10.85,8.11-6.93,4.86-13.14,8.79-18.18,11.96s-9.09,5.63-11.81,7.15l-3.14,1.78c-.71.41-1.05.56-1.09.58s.34-.24,1.03-.68l3.06-1.88c2.7-1.65,6.67-4.09,11.72-7.32s11.15-7.21,18.04-12.11c3.42-2.46,7.08-5.11,10.78-8.15,3.98-3.06,7.6-6.55,10.8-10.42l.19-.24.28.13c7.45,3.32,15.12,6.16,22.93,8.47,8.69,2.7,17.57,4.79,26.57,6.23,1.18.19,2.35.39,3.55.56l3.59.41c2.42.24,4.84.66,7.32.73l7.51.41h7.6c10.5-.32,20.9-1.99,30.96-4.96l1.61-.51-1.09,1.28-2.63,3.04-36.9,42.75-.11.13h-.15c-8.96,1.61-18.03,2.55-27.13,2.84-4.36.23-8.62.13-12.79.13l-6.14-.24c-2.03,0-4.02-.17-5.97-.36-13.73-1.03-27.3-3.36-40.6-6.95-5.48-1.77-10.51-3.04-14.68-4.81s-7.87-2.85-10.7-4.32l-8.66-4.13h0v.02Z"/>
    <path class="st3" d="M363.26,150.99c.17.21-7.79,6.91-17.76,15.02s-18.21,14.42-18.38,14.21,7.77-6.93,17.76-15.02,18.18-14.46,18.38-14.21Z"/>
    <path class="st3" d="M374.85,153.43c.19.19-7.08,7.36-16.24,16.02s-16.71,15.51-16.9,15.32,7.08-7.38,16.24-16.04,16.71-15.51,16.9-15.3h0Z"/>
    <path class="st3" d="M385.08,157.38c.21.19-5.5,7.15-12.73,15.57s-13.29,15.02-13.48,14.91,5.48-7.14,12.73-15.55,13.29-15.1,13.48-14.93Z"/>
    <path class="st3" d="M399.74,158.26c.21.17-4.81,7.15-11.27,15.6-3.72,5.22-7.72,10.23-11.96,15.02,3.49-5.39,7.25-10.59,11.27-15.6,3.74-5.2,7.72-10.21,11.96-15.02Z"/>
    <path class="st3" d="M412.55,159.93c-3.57,5.3-7.42,10.38-11.51,15.28-6.59,8.26-12.09,14.83-12.3,14.66,3.59-5.3,7.44-10.38,11.53-15.28,3.85-5.09,7.94-9.99,12.28-14.66h0Z"/>
    <path class="st3" d="M427.55,160.66c-2.69,5.09-5.65,10.03-8.88,14.8-2.95,4.94-6.18,9.71-9.69,14.27,2.69-5.09,5.65-10.03,8.88-14.8,2.95-4.94,6.18-9.71,9.69-14.27Z"/>
  </g>
  <g id="freepik--character-2--inject-45">
    <path class="st3" d="M672.62,301.07l-37.55,79.48h-101.79l38.42-79.59h47.35c4.06-3.64,9.31-5.65,14.76-5.63h35.15c2.23,0,4.04,1.84,4.04,4.07,0,.58-.13,1.15-.38,1.67h0Z"/>
    <polygon class="st4" points="648.37 299.85 548.47 299.48 536.51 372.31 636.39 372.82 648.37 299.85"/>
    <path class="st3" d="M648.46,299.87s0,.41-.17,1.28-.34,2.18-.58,3.76c-.54,3.42-1.31,8.37-2.31,14.68-2.05,12.81-4.98,31.09-8.52,53.23v.34h-.34l-99.82-.43h-.64l.09-.56c4.32-26.16,8.39-50.94,12-72.83v-.38h.38l72.29.51,20.41.21h7.19-100l.45-.38-11.9,73.02-.47-.56h0l99.82.6-.39.34c3.76-22.01,6.76-40.18,8.9-52.89,1.09-6.33,1.88-11.27,2.53-14.76.28-1.67.51-2.97.68-3.89.21-.81.41-1.28.41-1.28h0Z"/>
    <path class="st3" d="M557.07,361.85c-.26,0,1.46-11.92,3.87-26.51,2.4-14.59,4.54-26.38,4.81-26.29s-1.45,11.9-3.85,26.51c-2.4,14.61-4.56,26.32-4.83,26.29Z"/>
    <path class="st3" d="M568.1,361.14c-.26,0,1.35-11.27,3.62-25.03s4.32-24.94,4.58-24.9-1.35,11.27-3.62,25.05-4.3,24.94-4.58,24.88Z"/>
    <path class="st3" d="M579.72,360.22c-.28,0,1.35-11.27,3.61-25.05,2.25-13.78,4.32-24.94,4.58-24.88s-1.35,11.27-3.61,25.03c-2.25,13.76-4.32,24.94-4.58,24.9Z"/>
    <path class="st3" d="M590.78,360.93c-.26,0,1.35-11.27,3.61-25.03,2.25-13.76,4.32-24.94,4.58-24.9s-1.35,11.27-3.61,25.05-4.32,24.99-4.58,24.88Z"/>
    <path class="st3" d="M603.09,362.31c-.26,0,1.35-11.27,3.62-25.05s4.32-24.92,4.58-24.88-1.35,11.27-3.62,25.05-4.28,24.92-4.58,24.88Z"/>
    <path class="st3" d="M612.88,361.54c-.28,0,1.35-11.27,3.61-25.05,2.25-13.78,4.32-24.92,4.58-24.88s-1.35,11.27-3.62,25.05-4.3,24.92-4.56,24.88h-.01Z"/>
    <path class="st5" d="M635.15,380.56l-41.14-70.21c-.49-.75-1.33-1.18-2.22-1.16h-97c-1.88,0-3.04,1.69-2.2,3.1l40.69,68.33,101.86-.06h.01Z"/>
  </g>
  <g id="freepik--character-1--inject-45">
    <path class="st3" d="M124.59,351.21c-.26-.77-.47-1.56-.58-2.37-.28-2.2-.28-4.43,0-6.63.45-3.23,1.15-6.44,2.07-9.58,1.15-3.79,2.03-7.66,2.65-11.57.6-3.87.19-7.83-1.22-11.49-1.28-2.95-3-5.67-5.16-8.06-3.64-4.15-6.23-6.44-6.1-6.57.68.43,1.31.94,1.88,1.5,1.67,1.45,3.25,2.99,4.75,4.6,2.27,2.38,4.13,5.16,5.48,8.17,1.5,3.79,1.97,7.94,1.35,11.98-.62,3.96-1.54,7.87-2.76,11.68-.94,3.08-1.69,6.22-2.23,9.39-.36,2.14-.47,4.32-.34,6.48.17.81.24,1.63.23,2.46h-.02Z"/>
    <path class="st4" d="M108.84,314.48c.51,0,1.01.19,1.43.49,1.22.75,2.14,1.92,2.57,3.29.32.94.41,1.95.24,2.95-.21,1.16-.77,2.22-1.61,3.04-1.93,1.92-4.84,2.48-7.36,1.41-2.38-1.26-3.85-3.76-3.76-6.46.06-2.18,1.2-4.19,3.06-5.33,1.18-.79,2.57-1.18,4-1.16,1,0,1.5.26,1.48.32s-.54,0-1.46,0c-1.31.11-2.55.58-3.62,1.35-1.58,1.09-2.53,2.87-2.57,4.79-.04,2.37,1.26,4.54,3.36,5.63,2.16.88,4.64.41,6.33-1.18,1.37-1.31,1.9-3.3,1.31-5.13-.34-1.26-1.07-2.37-2.1-3.17-.81-.58-1.33-.75-1.3-.83h0Z"/>
    <path class="st4" d="M139.48,333.35c.53,0,1.03.19,1.45.49,1.22.75,2.12,1.92,2.55,3.29.32.94.41,1.95.24,2.95-.21,1.16-.75,2.22-1.6,3.04-1.93,1.92-4.84,2.48-7.36,1.41-2.42-1.22-3.92-3.74-3.85-6.46.08-2.18,1.22-4.19,3.08-5.33,1.18-.79,2.57-1.18,4-1.16,1,0,1.5.26,1.48.32s-.54,0-1.48,0c-1.3.11-2.55.58-3.61,1.35-1.58,1.09-2.53,2.87-2.57,4.79-.04,2.37,1.26,4.54,3.36,5.63,2.16.88,4.62.41,6.31-1.18,1.39-1.31,1.92-3.3,1.33-5.13-.34-1.26-1.07-2.37-2.1-3.17-.75-.58-1.26-.75-1.24-.83h.01Z"/>
    <path class="st4" d="M179.46,344.47c.51.02,1.01.19,1.43.49,1.22.75,2.14,1.93,2.57,3.3.32.94.41,1.95.24,2.95-.21,1.15-.77,2.22-1.61,3.02-1.93,1.92-4.84,2.48-7.36,1.43-2.42-1.24-3.91-3.74-3.85-6.46.08-2.18,1.22-4.19,3.08-5.35,1.18-.79,2.57-1.18,4-1.16.51-.02,1.03.09,1.48.32,0,.09-.54,0-1.46,0-1.31.11-2.57.58-3.62,1.35-1.58,1.07-2.53,2.85-2.57,4.77-.04,2.37,1.26,4.54,3.36,5.63,2.16.88,4.62.43,6.33-1.16,1.37-1.33,1.88-3.32,1.31-5.14-.34-1.26-1.07-2.37-2.1-3.17-.73-.56-1.26-.71-1.22-.81h0Z"/>
    <path class="st4" d="M212.56,332.3c.53.02,1.01.19,1.45.49,1.24.75,2.16,1.92,2.59,3.29.32.96.41,1.97.24,2.97-.21,1.15-.77,2.2-1.6,3.02-1.93,1.92-4.84,2.48-7.36,1.41-2.38-1.24-3.85-3.76-3.76-6.44.08-2.18,1.22-4.19,3.08-5.35,1.18-.79,2.57-1.18,4-1.16,1,0,1.5.26,1.48.32s-.54,0-1.48,0c-1.3.11-2.55.56-3.61,1.33-1.58,1.09-2.53,2.87-2.57,4.79-.04,2.37,1.26,4.54,3.36,5.63,2.14.88,4.62.43,6.31-1.16,1.39-1.31,1.9-3.32,1.33-5.14-.34-1.26-1.07-2.37-2.1-3.17-.88-.56-1.39-.71-1.37-.81h0v-.02Z"/>
    <path class="st2" d="M87.39,296.02l37.55,79.5h101.88l-38.44-79.54h-47.43c-4.02-3.7-9.29-5.75-14.76-5.75h-35.13c-2.23,0-4.06,1.8-4.07,4.04,0,.6.13,1.2.39,1.75h0Z"/>
    <path class="st1" d="M87.39,296.02l37.55,79.5h101.88l-38.44-79.54h-47.43c-4.02-3.7-9.29-5.75-14.76-5.75h-35.13c-2.23,0-4.06,1.8-4.07,4.04,0,.6.13,1.2.39,1.75h0Z"/>
    <path class="st2" d="M226.75,375.52h-101.88l41.14-70.26c.49-.75,1.31-1.2,2.22-1.16h97c1.88,0,3.06,1.69,2.22,3.1"/>
    <path class="st4" d="M99.73,359.68c.53,0,1.03.19,1.45.49,1.22.75,2.14,1.92,2.57,3.29.3.96.38,1.95.23,2.95-.21,1.16-.75,2.22-1.6,3.04-1.93,1.92-4.84,2.48-7.36,1.41-2.42-1.24-3.92-3.74-3.85-6.46.08-2.18,1.22-4.19,3.08-5.33,1.18-.79,2.57-1.18,4-1.16,1,0,1.5.26,1.48.32s-.54,0-1.48,0c-1.3.11-2.55.58-3.61,1.35-1.58,1.09-2.53,2.87-2.57,4.79-.04,2.37,1.26,4.54,3.36,5.63,2.16.88,4.64.41,6.33-1.18,1.37-1.31,1.9-3.3,1.31-5.13-.34-1.26-1.07-2.37-2.1-3.17-.79-.58-1.26-.75-1.24-.83h0Z"/>
  </g>
</svg>