<?xml version="1.0" encoding="UTF-8"?>
<svg id="Layer_1" xmlns="http://www.w3.org/2000/svg" version="1.1" viewBox="0 0 500 500">
  <!-- Generator: Adobe Illustrator 29.6.0, SVG Export Plug-In . SVG Version: 2.1.1 Build 207)  -->
  <defs>
    <style>
      .st0 {
        fill: #e0e0e0;
      }

      .st1 {
        fill: #4462e4;
      }

      .st2 {
        fill: #ffbe9d;
      }

      .st3 {
        fill: #ebebeb;
      }

      .st4 {
        fill: #4a9288;
      }

      .st5 {
        fill: #263238;
      }

      .st6 {
        fill: #eb996e;
      }

      .st7 {
        fill: #fafafa;
      }

      .st8 {
        opacity: .2;
      }

      .st9 {
        opacity: .3;
      }

      .st10 {
        fill: #455a64;
      }
    </style>
  </defs>
  <g id="freepik--background-complete--inject-103">
    <path class="st3" d="M380.65,399.06c-4.95-4.24-11.34-6.49-17.56-8.5-45.01-14.56-84.04-11.28-135.23-21.06l-167.46,18.29c9.51,13.53,24.9,21.72,41.44,22.04,10.73.13,22.46-2.91,31.53,2.81,6.03,3.81,9.33,10.65,14.36,15.71,8.21,8.24,20.5,11.15,32.12,11.04s23.09-2.65,34.69-3.62c27.69-2.31,55.19,4.62,82.79,7.82,27.6,3.19,57.61,2.03,80.17-14.18,4.56-3.29,8.94-7.43,10.15-12.99,1.43-6.39-2-13.08-7-17.37v.02h0Z"/>
    <path class="st0" d="M262.24,277.97c-1.98.23-3.97.23-5.95,0,1.98-.23,3.97-.23,5.95,0Z"/>
    <path class="st0" d="M262.24,284.27c-1.98.23-3.97.23-5.95,0,1.98-.23,3.97-.23,5.95,0Z"/>
    <path class="st0" d="M286.1,284.27c0,.08-3.46.17-7.72.17s-7.73-.08-7.73-.17,3.46-.17,7.73-.17,7.72.07,7.72.17Z"/>
    <path class="st0" d="M286.1,277.97c0,.1-3.46.17-7.72.17s-7.73-.07-7.73-.17,3.46-.17,7.73-.17,7.72.07,7.72.17Z"/>
  </g>
  <g id="freepik--Screens--inject-103">
    <path class="st0" d="M74.45,203.07s-3.22.08-7.19.08-7.19,0-7.19-.08,3.22-.08,7.19-.08,7.19.04,7.19.08Z"/>
    <path class="st0" d="M67.25,203.24h-5.09c-1.45,0-2.18-.05-2.18-.14,0-.14,0-.11,2.18-.14h10.19c1.45,0,2.18.05,2.18.14,0,.14,0,.11-2.18.14h-5.1ZM63.84,203.07h0Z"/>
    <path class="st0" d="M82.69,218.77s-4.74.08-10.61.08-10.61,0-10.61-.08,4.74-.08,10.61-.08,10.61.04,10.61.08Z"/>
    <path class="st0" d="M72.08,218.93h-7.5c-2.12,0-3.19-.05-3.19-.14,0-.14,0-.11,3.19-.14h15c2.12,0,3.19.05,3.19.14,0,.14,0,.11-3.19.14h-7.5ZM67.03,218.77h0Z"/>
    <path class="st0" d="M76.39,212.49s-4.76.08-10.62.08-10.61,0-10.61-.08,4.74-.08,10.61-.08,10.62.05,10.62.08Z"/>
    <path class="st0" d="M65.78,212.65h-7.43c-2.12,0-3.19-.05-3.19-.14,0-.14,0-.11,3.19-.14h14.94c2.12,0,3.19.05,3.19.14,0,.14,0,.11-3.19.14h-7.51ZM60.82,212.49h0Z"/>
    <path class="st0" d="M102.33,212.49s-4.76.08-10.62.08-10.61,0-10.61-.08,4.74-.08,10.61-.08,10.62.05,10.62.08Z"/>
    <path class="st0" d="M91.7,212.65h-7.5c-2.12,0-3.19-.05-3.19-.14,0-.14,0-.11,3.19-.14h15c2.12,0,3.19.05,3.19.14,0,.14,0,.11-3.19.14h-7.5ZM86.69,212.49h0Z"/>
    <path class="st0" d="M93.31,206.21s-4.76.08-10.62.08-10.61,0-10.61-.08,4.74-.07,10.61-.07,10.62.04,10.62.07Z"/>
    <path class="st0" d="M82.69,206.37h-7.5c-2.12,0-3.19-.05-3.19-.14,0-.14,0-.1,3.19-.14h15c2.12,0,3.19.05,3.19.14,0,.14,0,.11-3.19.14h-7.5ZM77.67,206.21h0Z"/>
    <path class="st0" d="M107.96,218.77s-4.76.08-10.61.08-10.62,0-10.62-.08,4.74-.08,10.62-.08,10.61.04,10.61.08Z"/>
    <path class="st0" d="M97.36,218.93h-7.5c-2.12,0-3.19-.05-3.19-.14,0-.14,0-.11,3.19-.14h14.94c2.12,0,3.19.05,3.19.14,0,.14,0,.11-3.19.14h-7.44ZM92.3,218.77h0Z"/>
    <path class="st10" d="M104.99,209.35s-7.43.08-16.47.08-16.47,0-16.47-.08,7.37-.08,16.47-.08,16.47.04,16.47.08Z"/>
    <path class="st10" d="M88.57,209.52h-11.64c-3.5,0-4.49,0-4.8-.07h0c-.07,0-.1-.02-.1-.06,0-.06,0,0,.1-.06h0c.29,0,1.3,0,4.8-.06h23.29c3.5,0,4.49,0,4.78.06h0c.07,0,.1.02.1.06,0,.06,0,0-.1.06h0c-.28,0-1.24,0-4.78.07h-11.65ZM80.79,209.35h0Z"/>
    <path class="st4" d="M112.57,212.49s-1.72.08-3.84.08-3.85,0-3.85-.08,1.72-.08,3.85-.08,3.84.05,3.84.08Z"/>
    <path class="st4" d="M108.71,212.65c-3.93,0-3.93-.07-3.93-.16s0-.16,3.93-.16,3.92.07,3.92.16.03.16-3.92.16ZM106.89,212.49h0Z"/>
    <path class="st0" d="M74.45,225.04s-3.22.08-7.19.08-7.19,0-7.19-.08,3.22-.08,7.19-.08,7.19.04,7.19.08Z"/>
    <path class="st0" d="M67.25,225.2h-5.09c-1.45,0-2.18-.05-2.18-.14,0-.14,0-.11,2.18-.14h10.19c1.45,0,2.18.05,2.18.14,0,.14,0,.1-2.18.14h-5.1ZM63.84,225.04h0Z"/>
    <path class="st0" d="M76.39,234.46s-4.76.08-10.62.08-10.61,0-10.61-.08,4.74-.08,10.61-.08,10.62.04,10.62.08Z"/>
    <path class="st0" d="M65.78,234.61h-7.43c-2.12,0-3.19-.05-3.19-.14,0-.14,0-.11,3.19-.14h14.94c2.12,0,3.19.05,3.19.14,0,.14,0,.11-3.19.14h-7.51ZM60.73,234.46h0Z"/>
    <path class="st0" d="M102.33,234.46s-4.76.08-10.62.08-10.61,0-10.61-.08,4.74-.08,10.61-.08,10.62.04,10.62.08Z"/>
    <path class="st0" d="M91.7,234.61h-7.5c-2.12,0-3.19-.05-3.19-.14,0-.14,0-.11,3.19-.14h15c2.12,0,3.19.05,3.19.14,0,.14,0,.11-3.19.14h-7.5ZM86.67,234.46h0Z"/>
    <path class="st0" d="M93.31,228.18s-4.76.08-10.62.08-10.61,0-10.61-.08,4.74-.08,10.61-.08,10.62,0,10.62.08Z"/>
    <path class="st0" d="M82.69,228.33h-7.5c-2.12,0-3.19-.05-3.19-.14,0-.14,0-.11,3.19-.14h15c2.12,0,3.19.05,3.19.14,0,.14,0,.11-3.19.14h-7.5ZM77.67,228.18h0Z"/>
    <path class="st10" d="M104.99,231.31s-7.43.08-16.47.08-16.47,0-16.47-.08,7.37-.07,16.47-.07,16.47.04,16.47.07Z"/>
    <path class="st10" d="M88.57,231.48h-11.64c-3.5,0-4.49,0-4.8-.06h0c-.07,0-.1-.02-.1-.07,0-.07,0,0,.1,0h0c.29,0,1.3,0,4.8-.07h23.29c3.5,0,4.49,0,4.78.07h.1l-.1.07h0c-.28,0-1.24,0-4.78.06h-11.65ZM80.79,231.31h0Z"/>
    <path class="st4" d="M112.57,234.46s-1.72.08-3.84.08-3.85,0-3.85-.08,1.72-.08,3.85-.08,3.84.04,3.84.08Z"/>
    <path class="st4" d="M108.71,234.61c-3.93,0-3.93-.07-3.93-.16s0-.16,3.93-.16,3.92.07,3.92.16.03.16-3.92.16ZM106.87,234.46h0Z"/>
  </g>
  <g id="freepik--Character--inject-103">
    <path class="st2" d="M132.5,60.85c-3.78-.4-7.24,2.16-7.95,5.89h0l-16.57,97.51c-2.28,11.45,13.02,21.45,25.3,23.8h0c12.39,2.38,14.09-3.6,16.58-14.41,4.16-18.08,5.61-24.89,5.6-24.78s16.11.74,23.71-18.92c3.72-9.77,6.8-26.48,8.83-40.22,1.83-12.39-3.06-29.08-15.5-30.38l-40.01,1.48h0v.03Z"/>
    <path class="st5" d="M180.7,101.9c-.29,1.42-1.66,2.34-3.08,2.1-1.4-.19-2.38-1.47-2.19-2.87v-.05c.28-1.42,1.65-2.35,3.08-2.11,1.41.19,2.39,1.5,2.2,2.91v.03h0Z"/>
    <path class="st5" d="M182.57,99.26c-.39.27-2.06-1.62-4.87-2.21s-5.16.38-5.4,0c-.11-.18.35-.73,1.39-1.24,1.39-.59,2.94-.72,4.41-.39,1.46.3,2.78,1.07,3.78,2.18.72.88.88,1.57.7,1.66h-.01Z"/>
    <path class="st5" d="M152.72,95.87c-.26,1.45-1.65,2.41-3.09,2.15h-.05c-1.39-.18-2.37-1.46-2.19-2.85v-.08c.28-1.42,1.65-2.35,3.08-2.1,1.41.16,2.42,1.44,2.24,2.85v.03h0Z"/>
    <path class="st5" d="M154.86,93.06c-.39.27-2.06-1.61-4.87-2.21s-5.16.38-5.4,0c-.11-.18.35-.73,1.39-1.24,1.39-.58,2.94-.71,4.41-.39,1.46.3,2.78,1.07,3.78,2.18.72.8.89,1.47.7,1.66h-.01Z"/>
    <path class="st5" d="M160.6,115.2c1.57-.15,3.17-.09,4.73.15.74.07,1.45.08,1.67-.38.23-.72.23-1.5,0-2.23-.31-1.87-.62-3.84-.95-5.91-1.24-8.4-2.06-15.25-1.72-15.28s1.66,6.72,2.95,15.11l.85,5.92c.27.96.19,1.99-.22,2.9-.32.47-.83.76-1.4.8-.41.03-.83,0-1.24-.08-1.59-.13-3.16-.46-4.67-.98h0v-.02Z"/>
    <path class="st6" d="M155.46,148.81c-9.61-1.89-18.5-6.41-25.69-13.04,0,0,3.82,15.82,24.59,18.26l1.1-5.22h0Z"/>
    <path class="st6" d="M157.98,121.72c-.8-1.6-2.36-2.67-4.14-2.85-1.27-.16-2.55.22-3.55,1.03-.97.8-1.35,2.11-.93,3.29.7,1.24,2.08,1.92,3.48,1.72,1.43-.19,2.79-.66,4.04-1.37.37-.16.7-.38.98-.66s.37-.69.22-1.05"/>
    <path class="st5" d="M151.93,115.37c.46.07-.18,3.12,1.96,5.85s5.46,3.08,5.4,3.51c0,.2-.85.43-2.23.18-1.79-.37-3.4-1.34-4.55-2.76-1.09-1.37-1.61-3.11-1.45-4.86.16-1.27.66-1.92.87-1.92h0Z"/>
    <path class="st5" d="M157.17,87.56c-.45.7-3.18-.26-6.55-.57s-6.2,0-6.52-.74c-.13-.38.49-.99,1.72-1.5,1.62-.62,3.37-.85,5.09-.66,1.73.16,3.4.72,4.87,1.65,1.1.76,1.58,1.47,1.39,1.82h0Z"/>
    <path class="st5" d="M183.27,94.21c-.63.53-2.48-.55-4.74-1.06s-4.38-.49-4.7-1.24c-.14-.38.31-.94,1.3-1.36,2.68-.98,5.68-.24,7.61,1.87.68.81.81,1.54.53,1.79Z"/>
    <path class="st5" d="M147.26,57.13c-3.97-4.3-9.61-6.67-15.46-6.49-5.76.39-11.31,4.31-12.69,9.8-.89,3.57-.17,7.72-2.48,10.62-2.31,2.9-6.2,3.19-9.32,4.87-4.99,2.75-7.46,8.56-5.99,14.06,1.35,4.56,5.37,8.55,4.77,13.23-.57,4.41-4.95,7.29-6.8,11.35-2,4.48-.45,9.91,2.62,13.83s5.42,12.02,9.65,14.67c3.3,2.07,8.35,3.51,12.69,1.89,4.75-2.16,8.48-6.05,10.45-10.87,1.42-4.41.84-9.23-1.58-13.18-2-3.44-5.13-6.68-4.95-10.61.29-6.2,8.38-9.46,9.24-15.53.43-3.13-1.24-6.2-2.48-9.08s-2.14-6.44-.41-9.11c2.24-3.44,7.43-3.36,10.97-5.47,3.01-1.81,4.75-5.16,4.49-8.68-.4-3.53-2.72-6.55-6.02-7.87"/>
    <path class="st5" d="M146.06,52.03c-1.71,7.68,3.12,15.29,10.8,17.01.87.19,1.76.31,2.65.34,3.23.1,6.97-.74,9.32,1.5s1.65,6.64,3.72,9.35c2.92,3.89,9.25,2.2,13.5,4.53,3.29,1.79,4.77,5.63,6.49,8.96s4.65,6.76,8.38,6.48c.59-3.19.79-6.43.62-9.67-.18-3.27-1.5-6.38-3.72-8.79-1.24-1.24-2.81-2.21-3.93-3.58-2.41-2.98-2.21-7.24-3.29-10.92-1.46-4.8-5.15-8.6-9.91-10.2-3.92-1.24-8.3-.95-11.98-2.79-2.73-1.34-4.84-3.72-7.64-4.95-5.45-2.31-11.62.63-16.63,3.82"/>
    <path class="st1" d="M178.09,183.39c8.22,8.63,12.73,20.15,12.55,32.08-.38,19.94,2.84,56.12,2.84,56.12l55.23,33.73-15.58,23.85-60.85-26.97-12.78-26.1,18.58-92.7h.02-.01Z"/>
    <path class="st1" d="M194.93,320.05s2.06-3.96-3.72-6.97h-9.42l-18.31-31.58,14.6-98.1-24.97-18.95-55.24-4.95-19.3,99.28,24.67,45.12,48.94,20.12,42.74-3.94v-.02h0Z"/>
    <path class="st1" d="M107.68,160.25l1.1-9.35c.22-1.63,1.71-2.77,3.34-2.55.13.02.26.05.38.07,13.63,10.72,27.76,16.11,42.61,11.88,2.01.56,3.22,2.63,2.73,4.66l-5.78,23.4-15.13,4.52-19.96-3.9-9.32-17.23v-11.5h.03Z"/>
    <path class="st5" d="M155.52,166.7c-.55.42-1.14.78-1.78,1.08-1.67.87-3.42,1.59-5.23,2.16-12.19,3.88-25.53.87-34.86-7.87-1.38-1.28-2.65-2.68-3.79-4.19-.44-.54-.81-1.12-1.14-1.74,1.67,1.94,3.43,3.78,5.3,5.53,9.34,8.34,22.3,11.27,34.32,7.74,2.44-.77,4.83-1.67,7.18-2.71h0Z"/>
    <g class="st9">
      <path d="M110.34,157.98c-.72,1.83-.47,3.9.68,5.49,1.15,1.56,2.57,2.9,4.19,3.96,5.36,3.99,10.93,7.95,17.34,9.77s13.94,1.14,18.85-3.36c1.43-1.31,2.54-3.72,1.05-4.95-1.1-.93-2.77-.36-4.13.16-13.6,5.19-28.99.41-37.25-11.57"/>
    </g>
    <path class="st1" d="M102.72,264.17l90.22,48.39-32.57,19.69-62.08-18.21c-32.94-8.68-41.94-22.4-41.6-36.52.11-5.14-.49-55.33,1.72-79.95,3.02-33.53,39.47-38.05,39.47-38.05l-.63,28.67.41,35.01,1.24,32.12c3.29-1.65,4.11,4.53,4.11,4.53l-.29,4.31h0Z"/>
    <path class="st5" d="M98.34,259.15c-.21,0-.49-12.15-.63-27.12s-.07-27.13.14-27.13.49,12.15.62,27.13c.14,14.99.07,27.12-.13,27.12Z"/>
    <path class="st5" d="M102.4,265.82c-.1-.06.17-.6.32-1.52.44-2.44-.96-4.85-3.3-5.67-.87-.34-1.48-.36-1.48-.47s.62-.27,1.64,0c2.68.57,4.39,3.19,3.83,5.88-.03.15-.06.28-.11.42-.34.95-.77,1.41-.88,1.36h-.02Z"/>
    <path class="st5" d="M102.4,265.82l.16.14c.16.14.28.2.53.34.47.28,1.24.7,2.11,1.24,1.86,1.02,4.57,2.48,7.93,4.19l26.3,13.48,26.27,13.41,7.95,4.13,2.14,1.16c.26.12.5.27.73.45-.27-.07-.54-.17-.8-.31l-2.21-1.03-8.05-3.92c-6.79-3.34-16.11-8.02-26.42-13.27-10.32-5.25-19.56-10.07-26.21-13.63-6.65-3.55-10.65-6.09-10.42-6.37h0Z"/>
    <path class="st5" d="M97.96,196.65c-.11,0-.31-2.03-.78-5.29-.53-4.24-1.66-8.38-3.33-12.31-1.75-3.9-4.47-7.28-7.91-9.81-1.48-.97-3.03-1.83-4.63-2.56.49.05.95.16,1.4.36,1.25.44,2.44,1.03,3.54,1.76,3.62,2.48,6.49,5.9,8.29,9.91,1.74,3.98,2.84,8.22,3.23,12.55.17,1.66.26,3,.28,3.93.04.49,0,.99-.1,1.47h0Z"/>
    <g class="st9">
      <path d="M180.79,306.93c3-5.76,2.27-12.75.57-19.02s-4.27-12.39-4.74-18.84c-.43-5.61.74-11.21,1.87-16.72s2.21-11.15,1.64-16.72-3.08-11.26-7.79-14.34c1.87,4.65,3.72,9.35,4.38,14.33s-.15,10.32-3.18,14.31c-1.55,2.04-3.72,3.72-4.67,6.07-1.34,3.13-1.14,6.69-2.14,9.84-1.09,3.44-3.08,15.02-3.08,15.02-.14.64,3.42,7.18,6.95,11.85s7.78,8.87,10.33,14.13"/>
    </g>
    <path class="st5" d="M181.02,306.53c-.14-.13-.27-.27-.38-.43-.26-.35-.59-.8-.99-1.33l-3.72-5.08-12.72-18.03-.08-.11v-.15c1.43-6.96,3.02-14.86,4.73-23.24.18-.89.36-1.78.53-2.63v-.11l.08-.07c5.27-5.26,8.27-12.37,8.37-19.82-.19-5.73-2.22-11.24-5.78-15.72h0v-.07c-.22-3.72-.41-6.69-.55-8.82,0-.97-.08-1.74-.13-2.34-.03-.27-.03-.54,0-.81.07.26.11.52.13.8.06.6.14,1.37.24,2.34.18,2.11.45,5.09.78,8.8l-.06-.14c3.72,4.52,5.86,10.14,6.1,16,.08,3.63-.6,7.24-2.02,10.58-1.48,3.67-3.67,7.01-6.44,9.84l.1-.18c-.17.85-.35,1.74-.53,2.63-1.74,8.37-3.37,16.28-4.81,23.23v-.26l12.53,18.19c1.47,2.17,2.64,3.92,3.5,5.18.38.56.67,1.02.91,1.39.09.12.17.26.24.39v-.02h-.03Z"/>
    <g class="st9">
      <path d="M115.49,258.9c-.91-.7-2.31.39-2.25,1.54.2,1.14.94,2.12,2,2.63,2.75,1.54,5.93,2.17,9.07,1.81,3.92-.21,7.65-1.74,10.59-4.34,2.94-2.66,4.28-6.65,3.57-10.55-.04-.31-.16-.61-.38-.85-.73-.76-1.96.08-2.69.85-5.05,5.31-11.94,8.48-19.27,8.89"/>
    </g>
    <g class="st9">
      <path d="M97.89,258.27c-3.49-1.47-7.53-.47-9.91,2.48-.83.86-1.06,2.13-.59,3.23.61.78,1.62,1.12,2.58.87.92-.29,1.76-.77,2.48-1.4,1.67-1.24,3.32-2.63,4.95-4.02.24-.18.43-.42.56-.7.12-.28,0-.61-.26-.77"/>
    </g>
    <path class="st5" d="M90.26,265.89c-.08,0,0-.74.43-1.82.6-1.39,1.51-2.63,2.66-3.62,1.14-1.01,2.49-1.75,3.95-2.17,1.12-.29,1.83-.27,1.85-.17s-2.77.66-5.3,2.91-3.39,4.95-3.6,4.87h.01Z"/>
    <path class="st10" d="M213.57,386.45c-.15.14-19.08-19.82-42.26-44.52-23.18-24.69-41.87-44.88-41.73-45.02s19.08,19.82,42.28,44.5,41.87,44.88,41.72,45.03h-.01Z"/>
    <path class="st7" d="M73.56,201.82c-.51-2.03-.81-4.1-.89-6.2-.29-2.09-.38-4.2-.25-6.31.49,2.03.8,4.11.89,6.2.29,2.09.38,4.2.25,6.31Z"/>
    <path class="st7" d="M80.47,222.42c.16-3.97.74-7.92,1.75-11.77.05,2-.14,3.98-.55,5.93-.19,1.99-.59,3.94-1.2,5.84h0Z"/>
    <path class="st7" d="M67.27,236.38c-.42-2.04-.64-4.11-.64-6.2-.22-2.06-.22-4.14,0-6.2.42,2.04.63,4.11.63,6.2.23,2.06.23,4.14,0,6.2h.01Z"/>
    <path class="st7" d="M86.41,253.82c-1.07-1.4-1.97-2.93-2.66-4.55-.89-1.52-1.58-3.15-2.1-4.83,1.07,1.4,1.97,2.93,2.66,4.55.89,1.52,1.58,3.15,2.1,4.83Z"/>
    <path class="st7" d="M71.65,264.28c-.99,1.09-2.14,2.01-3.4,2.76-1.14.92-2.43,1.67-3.79,2.23.99-1.08,2.12-2,3.37-2.76,1.16-.92,2.45-1.67,3.83-2.23h-.01Z"/>
    <path class="st7" d="M101.53,272.96c-.79-1.05-1.41-2.22-1.82-3.47-.61-1.16-1.03-2.42-1.24-3.72.8,1.05,1.41,2.22,1.82,3.47.61,1.16,1.03,2.42,1.24,3.72Z"/>
    <path class="st7" d="M133.49,286.73c-2.12-.69-4.18-1.57-6.13-2.65-2.05-.89-4.02-1.96-5.86-3.22,2.12.68,4.18,1.57,6.13,2.65,2.05.89,4.02,1.96,5.86,3.22Z"/>
    <path class="st7" d="M141.1,304.11c.58-1.48,1.35-2.87,2.29-4.15.75-1.41,1.69-2.7,2.8-3.84-.57,1.49-1.33,2.89-2.25,4.19-.77,1.39-1.72,2.67-2.84,3.81h0Z"/>
    <path class="st7" d="M156.09,318.54c-.26-2.29-.28-4.59-.1-6.87-.03-2.3.16-4.59.55-6.86.28,4.58.13,9.17-.45,13.73h0Z"/>
    <path class="st7" d="M108.46,174.51c-1.62-.29-3.18-.87-4.59-1.69-1.51-.64-2.91-1.54-4.13-2.64,1.53.55,3.01,1.24,4.41,2.06,1.5.63,2.95,1.39,4.31,2.28h0Z"/>
    <path class="st7" d="M85.99,178.26c-2.54-1.15-4.9-2.7-6.97-4.57,1.34.48,2.59,1.16,3.72,2.02,1.21.68,2.31,1.54,3.26,2.55h-.01Z"/>
    <path class="st7" d="M107.75,204.78c1.28-4.07,2.96-8.02,5.02-11.76-1.26,4.08-2.95,8.02-5.02,11.76Z"/>
    <path class="st7" d="M111.91,231.82c-1.17-1.63-2.23-3.33-3.19-5.09-1.13-1.66-2.17-3.38-3.08-5.16,1.45,1.42,2.66,3.05,3.63,4.83,1.15,1.67,2.05,3.5,2.65,5.43h0Z"/>
    <path class="st7" d="M135.49,201.99c-1.21,1.36-2.56,2.58-4.05,3.63-1.35,1.21-2.85,2.25-4.45,3.11,2.56-2.57,5.41-4.83,8.5-6.74h0Z"/>
    <path class="st7" d="M132.67,188.46c-1.36-1.67-2.55-3.48-3.55-5.39-1.19-1.8-2.19-3.73-3-5.72,1.36,1.67,2.55,3.48,3.55,5.39,1.19,1.8,2.19,3.73,3,5.72Z"/>
    <path class="st7" d="M151.51,177.31c-.52,1.7-1.25,3.33-2.17,4.86-.73,1.63-1.65,3.16-2.75,4.56.54-1.7,1.26-3.33,2.18-4.86.72-1.63,1.65-3.16,2.74-4.56h0Z"/>
    <path class="st7" d="M131.34,169.29c.09-1.1.27-2.19.5-3.26.05-1.1.16-2.2.35-3.29.44,1.07.55,2.24.29,3.37-.05,1.15-.45,2.26-1.15,3.18h0Z"/>
    <path class="st7" d="M148.54,168.41c-1.03-.33-1.99-.87-2.8-1.58-1.45-1.02-2.48-1.97-2.48-2.11,1.03.34,1.99.88,2.8,1.58,1.5,1.02,2.58,1.97,2.48,2.11Z"/>
    <path class="st7" d="M116.74,156.87c0,.17-.83.32-1.86.32s-1.85-.15-1.85-.32.83-.32,1.85-.32,1.86.14,1.86.32Z"/>
    <path class="st7" d="M170.37,186.88c-1.58-1.15-3.04-2.47-4.34-3.94-1.45-1.32-2.75-2.8-3.88-4.4,1.58,1.15,3.04,2.47,4.34,3.94,1.45,1.32,2.75,2.8,3.88,4.4Z"/>
    <path class="st7" d="M159.84,213.94c.16-4.31,1-8.58,2.48-12.62-.22,2.14-.58,4.26-1.09,6.34-.31,2.12-.78,4.22-1.39,6.28Z"/>
    <path class="st7" d="M147.18,226.37c-.59-2.36-1.03-4.76-1.3-7.18-.49-2.38-.82-4.8-1.01-7.22,1.41,4.68,2.19,9.52,2.31,14.4Z"/>
    <path class="st7" d="M130.47,243.77c-2.42-3.27-4.19-6.96-5.25-10.87,1.02,1.74,1.92,3.54,2.7,5.4.96,1.77,1.81,3.6,2.55,5.47h0Z"/>
    <path class="st7" d="M119.38,254.12c-2.11-.28-4.18-.78-6.2-1.47-2.07-.49-4.09-1.2-6.02-2.11,2.11.28,4.18.79,6.2,1.48,2.08.49,4.09,1.19,6.02,2.1h0Z"/>
    <path class="st7" d="M127.88,265.42c-1.01.97-2.07,1.87-3.19,2.7-.98.99-2.02,1.91-3.13,2.75,1.46-2.46,3.67-4.37,6.32-5.45h0Z"/>
    <path class="st7" d="M142.74,278.89c-.58-1.83-.93-3.72-1.06-5.63-.35-1.88-.49-3.79-.42-5.7.92,3.71,1.42,7.5,1.48,11.32h0Z"/>
    <path class="st7" d="M159.65,274.29c-3.13-.66-6.05-2.08-8.5-4.14,1.47.55,2.91,1.23,4.27,2,1.46.59,2.88,1.3,4.23,2.13h0Z"/>
    <path class="st7" d="M164.26,246.75c-1.84.94-3.73,1.78-5.67,2.48-1.85.91-3.76,1.7-5.71,2.38,1.67-1.25,3.51-2.25,5.46-2.97,1.87-.92,3.86-1.56,5.92-1.89Z"/>
    <path class="st7" d="M167.95,238.76c-1.5-1.35-2.86-2.86-4.03-4.51-1.35-1.52-2.54-3.19-3.53-4.95,1.5,1.35,2.86,2.86,4.03,4.51,1.35,1.52,2.54,3.19,3.53,4.95Z"/>
    <path class="st7" d="M158.26,295c-.81-2.46-1.17-5.03-1.1-7.61.79,2.46,1.16,5.03,1.1,7.61Z"/>
    <path class="st7" d="M185.4,270.54c-1.54-1.31-2.94-2.76-4.17-4.36-1.41-1.46-2.65-3.07-3.72-4.8,1.54,1.31,2.93,2.77,4.16,4.37,1.41,1.46,2.66,3.06,3.73,4.78h0Z"/>
    <path class="st7" d="M183.62,255.77c.43-1.86,1.06-3.66,1.89-5.37.63-1.78,1.46-3.5,2.48-5.09-1.07,3.64-2.54,7.14-4.41,10.44l.04.03h0Z"/>
    <path class="st7" d="M185.65,228.69c-1.2-1.1-2.25-2.35-3.13-3.72-1.04-1.24-1.92-2.62-2.62-4.09,1.2,1.1,2.25,2.34,3.13,3.72,1.05,1.24,1.93,2.62,2.62,4.09Z"/>
    <path class="st7" d="M182.35,204.31c-2.97-2.96-5.63-6.22-7.92-9.74,2.97,2.97,5.62,6.23,7.92,9.74Z"/>
    <path class="st7" d="M190.18,296.31c.73-1.89,1.67-3.7,2.77-5.39.92-1.8,2.05-3.5,3.34-5.05-.74,1.89-1.67,3.69-2.79,5.37-.92,1.8-2.04,3.51-3.33,5.07h0Z"/>
    <path class="st7" d="M205.81,306.95c-.94-2.11-1.68-4.29-2.21-6.54-.72-2.19-1.25-4.44-1.57-6.73.94,2.11,1.67,4.3,2.21,6.55.72,2.19,1.25,4.43,1.57,6.72h0Z"/>
    <path class="st7" d="M223.67,304.13c-.8-1.09-1.42-2.29-1.85-3.57-.61-1.2-1.03-2.49-1.24-3.82,1.44,2.29,2.49,4.81,3.11,7.43l-.03-.05h.01Z"/>
    <path class="st5" d="M184.01,326.15l96.42-46.84c9.84-4.78,21.44-4.22,30.77,1.5h0c15.11,9.24,19.87,28.99,10.63,44.1-.89,1.45-1.89,2.82-2.98,4.11l-41.77,48.9-106.67,14.74-9.99-60.41,11.85-18.36,11.73,12.26h.01Z"/>
    <path class="st10" d="M242.24,346.14s-.38.38-1.24.98-1.95,1.4-3.4,2.39c-2.88,1.99-6.95,4.63-11.53,7.43-4.59,2.8-8.83,5.12-11.94,6.75-1.55.81-2.81,1.45-3.72,1.87-.44.26-.92.46-1.41.59.38-.34.79-.62,1.24-.85l3.77-2.17c3.04-1.75,7.21-4.17,11.8-6.94s8.68-5.33,11.64-7.18l3.51-2.2c.4-.27.82-.5,1.27-.68h0Z"/>
    <path class="st5" d="M38.6,349.73s9.57-46.25,14.5-53.36c4.91-7.11,15.32-23.03,28.49-24.67s39.97,14.11,44.86,20.31c12.39,15.66,90.36,98.24,89.41,97.16l-25.13,17.34-26.56-8.42h-76.29s-52.81-8.93-49.27-48.35h0Z"/>
    <path class="st10" d="M164.12,398.08c-.39.03-.79.03-1.18,0-1.12-.1-2.21-.28-3.3-.53-4-.98-7.88-2.35-11.61-4.1-12.26-5.82-23.8-13.05-34.37-21.55-12.58-9.64-23.54-18.99-30.72-26.49-2.9-2.9-5.57-6.04-7.98-9.36-.66-.91-1.25-1.85-1.78-2.84-.22-.32-.4-.67-.55-1.03.26.3.49.61.68.95.59.95,1.24,1.87,1.95,2.75,2.49,3.24,5.21,6.31,8.13,9.17,9.7,9.4,20,18.17,30.81,26.25,10.53,8.42,21.95,15.66,34.06,21.57,3.68,1.78,7.51,3.21,11.46,4.3,1.07.28,2.16.5,3.26.67.39.05.78.13,1.15.25v-.02h0Z"/>
    <path class="st10" d="M129.95,387.77c-.31.22-.65.42-.99.59l-2.91,1.61c-1.24.7-2.91,1.33-4.78,2.17-.93.43-1.99.72-3.08,1.13s-2.24.84-3.51,1.13c-5.83,1.67-11.84,2.55-17.9,2.66-7.42.16-14.82-.81-21.96-2.84-7.14-2.05-13.9-5.25-20.01-9.49-1.36-1.04-2.75-1.96-4-3.01-1.19-1.03-2.31-2.16-3.32-3.37-1.8-2.18-3.38-4.53-4.7-7.04-1.95-3.6-3.29-7.5-3.95-11.53-.19-1.09-.28-2.2-.29-3.3-.04-.38-.04-.77,0-1.15.08,0,0,1.6.55,4.41.78,3.97,2.18,7.8,4.14,11.34,1.34,2.47,2.94,4.8,4.76,6.94,1,1.17,2.1,2.27,3.27,3.27,1.24,1.02,2.62,1.93,3.96,2.94,6.06,4.16,12.76,7.31,19.82,9.34,7.07,2.01,14.39,2.98,21.73,2.86,6-.06,11.97-.9,17.76-2.48,1.24-.26,2.39-.73,3.5-1.06s2.16-.64,3.08-1.06c1.87-.81,3.53-1.39,4.81-2.04l2.97-1.46c.33-.21.69-.39,1.05-.53v-.02h0Z"/>
    <path class="st1" d="M134.87,386.09s-17.23,7.03-15.44,15.06c1.79,8.03,10.69,11.77,19.69,10.92,9-.85,25.54-8.27,25.54-8.27l8.52-4.51s-10.36-.16-15.6-2.03c-6.06-2.18-22.71-11.15-22.71-11.15h0v-.02Z"/>
    <path class="st10" d="M156.19,400.18l61.17,9.63,129.21-12.87-70.83-19.42-119.51,17.18c-1.36.2-2.38,1.37-2.38,2.75h0c0,1.36,1,2.53,2.34,2.74h0Z"/>
    <path class="st10" d="M233.83,312.45l-14.86,87.55c-.7,4.13,2.09,8.04,6.21,8.74.67.11,1.35.14,2.01.07l119.38-11.88c3.37-.33,6.11-2.86,6.72-6.2l16.11-88.63c.75-4.13-1.99-8.08-6.11-8.83-.71-.13-1.44-.16-2.16-.08l-120.62,12.95c-3.39.37-6.11,2.95-6.66,6.31h-.02Z"/>
    <path class="st5" d="M153.85,397.44c.11-.02.22-.02.32,0l.94.11,3.63.5,13.48,2.02,45.68,7.07-.42.31c.74-4.56,1.52-9.32,2.32-14.18,3.6-21.54,6.86-41.03,9.22-55.22,1.24-7.01,2.2-12.71,2.88-16.71l.81-4.53.24-1.18c.02-.14.05-.27.1-.39v.41c0,.27-.08.7-.16,1.24l-.67,4.56c-.64,4.02-1.54,9.73-2.65,16.76-2.31,14.19-5.49,33.68-9.01,55.24-.8,4.86-1.58,9.6-2.34,14.18l-.06.38-.36-.06-45.64-7.32-13.44-2.24-3.62-.63-.93-.17-.34-.13h.02v-.02Z"/>
    <path class="st7" d="M308.42,350.38c0,4.74-3.43,8.59-7.67,8.59s-7.67-3.85-7.67-8.59,3.43-8.61,7.67-8.61,7.67,3.85,7.67,8.61Z"/>
    <path class="st2" d="M220.2,342.2c-4.21-3.78.52-8.19-7.08-15.38-5.68-5.36-16.46-14.56-37.31-21.52l-13.07,23.34,22.74,7.33-.22,14.86c-.05,2.99,2.35,5.45,5.35,5.5h.14l11.81-.14s-3.44,14.56-2.87,15.45c.92,1.46,2.86,1.89,4.31.96.58-.37,1.02-.92,1.25-1.56.47-1.97,10.19-25.5,10.19-25.5,0,0,6.35,5.49,7.25,2.34-.06-.03,1.68-1.92-2.46-5.71h-.02v.03Z"/>
    <path class="st6" d="M188.38,356.69c0-.08.56-.45,1.34-1.24,2.04-2.04,3.04-4.91,2.7-7.77-.14-.59-.23-1.18-.28-1.78.37.5.6,1.1.68,1.72.59,3.02-.49,6.12-2.83,8.13-.45.45-1.01.77-1.61.94h0Z"/>
    <path class="st6" d="M195.98,356.19c2.16-2.71,3.07-6.22,2.48-9.64.29.43.47.94.5,1.46.2,1.24.15,2.5-.16,3.72-.31,1.23-.88,2.38-1.67,3.37-.62.81-1.12,1.14-1.15,1.09h0Z"/>
    <path class="st6" d="M205.13,347.65c.06,0,.21.47.24,1.24,0,2.14-.87,4.18-2.42,5.67-.59.55-1.04.78-1.09.72,2.01-2.05,3.18-4.79,3.27-7.66v.04h0Z"/>
    <path class="st10" d="M115.15,140.87h-.32l-.94-.11c-.5-.07-1-.19-1.48-.35-.68-.17-1.35-.41-1.99-.7-1.75-.8-3.36-1.88-4.76-3.19-1.86-1.77-3.33-3.89-4.32-6.26-.59-1.37-1.02-2.81-1.24-4.28-.2-1.61-.16-3.24.13-4.83.59-3.3,2.48-6.51,2.48-10.15-.11-1.86-.6-3.68-1.47-5.33-.94-1.79-1.53-3.75-1.74-5.78.05-2.16.97-4.21,2.55-5.68,1.55-1.5,3.32-2.75,5.25-3.72,1.88-.92,3.64-2.06,5.26-3.39,1.48-1.34,2.58-3.05,3.18-4.95,1.24-3.81,1.24-7.75,1.96-11.42.34-1.82,1-3.56,1.96-5.14.94-1.48,2.24-2.71,3.78-3.55,2.79-1.35,5.81-2.14,8.91-2.34,2.51-.16,5-.56,7.43-1.16,1.83-.46,3.57-1.26,5.11-2.37.97-.7,1.78-1.6,2.38-2.64.39-.7.55-1.13.59-1.1-.12.4-.27.8-.47,1.16-.56,1.09-1.36,2.04-2.34,2.77-1.55,1.14-3.29,1.99-5.15,2.48-2.43.64-4.92,1.05-7.43,1.24-3.01.23-5.96,1.03-8.68,2.35-1.46.81-2.68,1.98-3.55,3.4-.92,1.53-1.55,3.2-1.86,4.95-.74,3.6-.7,7.57-1.95,11.51-.61,2.03-1.78,3.85-3.34,5.28-1.66,1.35-3.46,2.52-5.37,3.46-1.87.92-3.59,2.12-5.11,3.55-1.46,1.35-2.32,3.24-2.38,5.23.15,3.92,3.25,7.15,3.18,11.15-.06,1.84-.43,3.65-1.08,5.37-.59,1.59-1.06,3.21-1.44,4.87-.28,1.54-.34,3.11-.16,4.67.19,1.44.57,2.84,1.12,4.17.94,2.32,2.35,4.44,4.15,6.2,1.35,1.33,2.91,2.42,4.62,3.23,1.46.64,3,1.11,4.57,1.4h-.04Z"/>
  </g>
  <g id="freepik--Plant--inject-5">
    <rect class="st5" x="393.89" y="385.32" width="45.79" height="7.02"/>
    <path class="st5" d="M439.75,392.43h-45.93v-7.2h45.94v7.2h-.01ZM393.97,392.24h45.62v-6.84h-45.62v6.84Z"/>
    <polygon class="st5" points="398.14 390 404.73 426.27 429.12 426.27 435.49 392.34 398.14 390"/>
    <polygon class="st10" points="398.14 422.83 401.65 428.23 431.3 428.23 435.49 422.83 398.14 422.83"/>
    <path class="st5" d="M415.06,391.05c-.09,0-.21-16.79-.26-37.55-.06-20.74,0-37.55.07-37.55s.21,16.79.26,37.55c.06,20.74.02,37.55-.07,37.55Z"/>
    <path class="st5" d="M425.27,349.01c-.03.14-.07.27-.13.39-.11.29-.24.65-.41,1.09-.09.24-.19.5-.3.78s-.19.62-.3.96l-.36,1.1c-.12.39-.22.78-.34,1.24-.55,2.05-.97,4.15-1.29,6.25-.35,2.59-.58,5.2-.7,7.82-.17,4.76-.04,9.54.37,14.28.14,1.83.29,3.29.41,4.32.04.48.08.87.11,1.17v.42c-.04-.13-.07-.27-.08-.41-.05-.3-.11-.69-.18-1.16-.14-1.02-.34-2.49-.51-4.3-.48-4.75-.63-9.55-.46-14.33.11-2.64.34-5.25.7-7.86.32-2.11.78-4.2,1.35-6.25.13-.44.23-.86.36-1.24l.38-1.1.34-.95c.11-.29.22-.54.32-.78l.47-1.07c.06-.14.14-.27.23-.38h0l.03.02h-.01Z"/>
    <path class="st5" d="M424.09,335.42c-.04.19-.09.37-.14.56-.12.38-.28.91-.48,1.56l-.35,1.13c-.11.42-.24.88-.37,1.36-.27.97-.57,2.07-.85,3.31l-.46,1.95c-.14.68-.28,1.4-.43,2.11-.32,1.46-.56,3.05-.85,4.7-.51,3.33-.95,7.04-1.25,10.91s-.41,7.62-.46,11,0,6.44.16,9c.03,1.28.11,2.43.17,3.44s.11,1.89.17,2.61.08,1.24.11,1.65v.57c-.04-.19-.07-.37-.08-.56-.04-.42-.1-.96-.18-1.64s-.16-1.56-.22-2.61-.16-2.17-.22-3.44c-.16-2.56-.22-5.61-.22-9.02s.14-7.13.43-11.03.77-7.61,1.29-10.96c.3-1.67.55-3.26.88-4.7.16-.74.31-1.45.45-2.12l.48-1.94c.29-1.24.62-2.34.91-3.31.14-.48.27-.92.4-1.35s.26-.78.38-1.12l.53-1.56c.06-.18.14-.35.23-.51h-.03Z"/>
    <path class="st5" d="M412.17,394.03v-.2c0-.15,0-.34-.04-.58-.03-.53-.08-1.28-.13-2.21-.11-1.97-.27-4.74-.46-8.19-.4-6.9-.97-16.43-2-26.94-.53-5.25-1.14-10.23-1.79-14.76-.34-2.25-.65-4.39-1-6.4s-.7-3.85-.98-5.56-.64-3.21-.91-4.56-.52-2.5-.7-3.43-.36-1.64-.48-2.17c-.04-.23-.08-.42-.11-.56v-.2c.03.06.05.12.06.19l.14.56c.13.52.31,1.24.54,2.15s.51,2.07.8,3.41.64,2.86.96,4.56.7,3.54,1.02,5.56.7,4.15,1.03,6.4c.66,4.51,1.29,9.51,1.82,14.76,1.05,10.52,1.58,20.06,1.93,26.97.17,3.47.29,6.25.36,8.2,0,.95.06,1.68.07,2.22v.58c-.02.07-.05.14-.08.2h-.06.01Z"/>
    <path class="st1" d="M414.69,324.09c-.21-2.34-2.36-4.17-4.5-4.2-2.18.11-4.18,1.33-5.45,3.29-1.24,1.97-2.12,4.16-2.63,6.5-1.45,5.61-2.22,11.5-1.61,17.3.62,5.79,2.73,11.5,6.45,15.59.61.68,1.4,1.34,2.22,1.13.45-.14.85-.42,1.17-.78,7.38-7.54,11.5-18.28,11.27-29.45-.06-2.2-.32-4.5-1.4-6.33s-3.64-3.79-5.5-3.05"/>
    <path class="st1" d="M398.7,305l-3.02,6.1c-.07.14-.16.3-.31.31s-.28-.15-.37-.3l-7.98-13.62,1.84-1.17,9.83,8.67h.01Z"/>
    <g class="st8">
      <path d="M398.7,304.76l-3.02,6.1c-.07.14-.16.3-.31.31s-.28-.15-.37-.3l-7.98-13.62,1.84-1.17,9.83,8.67h.01Z"/>
    </g>
    <path class="st1" d="M414.88,316l-27.21-17.91c-.31-.14-.57-.4-.7-.74-.11-.45.19-.89.48-1.22,3.79-4.38,9.1-6.71,14.55-6.37,5.46.44,10.39,3.85,13.15,9.12,2.63,5.24,2.72,12.16-.3,17.12"/>
    <path class="st5" d="M391.62,292.35c.12-.04.24-.05.36-.05.23,0,.58-.06,1.03-.06,1.25-.02,2.53.09,3.77.33,1.86.35,3.66.97,5.38,1.82,6.01,3.02,10.5,8.87,12.24,15.96.35,1.35.58,2.75.7,4.16.06.49.04.89.06,1.14v.4s-.06-.55-.18-1.56c-.16-1.39-.41-2.76-.77-4.1-2.32-9.1-9.09-15.93-17.44-17.6-1.24-.26-2.49-.41-3.73-.45-.96,0-1.42.02-1.42,0h0Z"/>
    <path class="st5" d="M411.19,303.64c-.44.3-.91.53-1.4.7-.87.38-2.11.87-3.43,1.35s-2.6.86-3.51,1.11c-.48.17-.98.27-1.49.31.45-.24.92-.43,1.4-.56l3.47-1.22,3.46-1.24c.49-.2,1-.36,1.51-.45h-.01Z"/>
    <path class="st5" d="M406.9,290.79c.24,1.11.35,2.25.32,3.39.08,1.13.02,2.28-.17,3.4-.13-1.13-.18-2.27-.16-3.4-.08-1.13-.08-2.27,0-3.4h.01Z"/>
    <path class="st5" d="M387.41,297.75c.64-.33,1.3-.59,1.98-.78,1.24-.43,2.96-.97,4.91-1.49s3.68-.91,4.91-1.16c.69-.17,1.4-.28,2.11-.31-.67.24-1.35.43-2.04.56-1.25.31-2.99.78-4.91,1.27-1.9.49-3.63,1.01-4.91,1.36-.67.23-1.35.41-2.05.54h0Z"/>
    <path class="st1" d="M402.32,318.45c-2.33-1.98-4.81-2.34-7.76-2.25-2.94.21-5.82,1.03-8.48,2.42-4.59,2.23-8.91,5.56-11.64,10.22-2.74,4.69-3.71,10.87-1.65,15.98.16.53.5.98.92,1.25.51.16,1.06.11,1.54-.13,5.23-1.9,10.48-3.82,15.28-6.79,4.81-2.97,9.17-7.11,11.74-12.51.66-1.27,1.08-2.65,1.24-4.1.14-1.47-.29-2.97-1.2-4.06"/>
    <path class="st5" d="M402.37,317.84c-.12.07-.24.13-.37.17l-1.1.42-.8.29c-.29.12-.59.26-.92.41-.66.3-1.4.59-2.23,1.03l-1.28.65c-.45.23-.89.51-1.35.78-.95.52-1.89,1.19-2.93,1.86-4.37,3.03-8.26,6.84-11.51,11.28-.7,1.03-1.44,2.01-2.01,3-.3.48-.61.94-.87,1.4l-.7,1.33c-.49.84-.86,1.65-1.21,2.34-.17.35-.34.66-.48.97s-.25.58-.36.84l-.52,1.16c-.05.14-.12.27-.19.39.03-.14.08-.29.14-.42l.46-1.19c.11-.26.22-.54.34-.86s.29-.63.46-.99c.34-.7.7-1.56,1.16-2.39.24-.43.48-.89.7-1.35s.56-.92.86-1.42c.57-1.01,1.29-1.99,2-3.05,1.64-2.25,3.42-4.34,5.35-6.25,1.95-1.89,4.05-3.61,6.24-5.13,1.03-.68,2-1.33,2.95-1.84.48-.27.92-.54,1.4-.78l1.3-.63c.81-.43,1.58-.7,2.27-.99.34-.13.65-.27.94-.38l.8-.27,1.12-.35c.12-.03.24-.06.36-.07h-.02v.04Z"/>
    <path class="st5" d="M384.09,328.88c-1.86.79-3.76,1.47-5.69,2.04-1.89.69-3.83,1.25-5.79,1.69,1.86-.79,3.76-1.47,5.69-2.04,1.89-.68,3.83-1.24,5.79-1.69Z"/>
    <path class="st5" d="M383.85,342.87c-.09-.66-.14-1.32-.13-1.98v-4.79c0-1.86.14-3.55.23-4.79.02-.66.09-1.33.22-1.97.04.66.04,1.33,0,1.99-.04,1.34-.08,2.97-.13,4.78s-.08,3.43-.11,4.78c.03.66,0,1.33-.08,1.98h0Z"/>
    <path class="st5" d="M394.61,336.77c-.09,0-.38-3.43-.64-7.68s-.41-7.7-.32-7.7.37,3.42.64,7.67c.27,4.25.41,7.7.32,7.71h0Z"/>
    <path class="st5" d="M381.22,321.07c.61-.09,1.22-.11,1.82-.06,1.12,0,2.67.05,4.39.11s3.27.14,4.39.21c.61,0,1.22.07,1.82.2-.61.09-1.22.11-1.82.06-1.12,0-2.67-.04-4.39-.11s-3.27-.14-4.39-.21c-.61,0-1.21-.07-1.8-.2h-.02Z"/>
    <path class="st5" d="M408.12,364.19c-.03-.14-.04-.28-.04-.42,0-.3,0-.7-.05-1.19-.04-1.03-.05-2.54,0-4.39s.14-4.06.34-6.5c.19-2.44.52-5.13.96-7.92s.99-5.41,1.55-7.82,1.16-4.48,1.71-6.25,1.01-3.13,1.4-4.12c.17-.45.3-.78.41-1.1.04-.13.09-.25.16-.38-.02.14-.05.27-.11.4l-.4,1.14c-.32.97-.77,2.34-1.28,4.15s-1.07,3.92-1.63,6.25-1.07,5-1.52,7.77-.75,5.47-.97,7.88-.35,4.63-.41,6.48-.09,3.35-.09,4.38v1.19c0,.15,0,.29-.03.44h0Z"/>
    <path class="st5" d="M409.55,343.48c-.32.48-.68.92-1.09,1.33-.7.78-1.71,1.83-2.84,2.95s-2.21,2.09-2.99,2.75c-.41.39-.85.74-1.32,1.02.36-.45.75-.86,1.18-1.23l2.93-2.84,2.89-2.86c.38-.42.8-.81,1.24-1.13h0v.02h0Z"/>
    <path class="st5" d="M418.17,351.22c-.43-.56-.81-1.16-1.16-1.78l-2.69-4.38-2.75-4.34c-.41-.58-.78-1.19-1.1-1.83.47.51.91,1.07,1.29,1.67.76,1.07,1.77,2.58,2.81,4.28s1.98,3.29,2.62,4.45c.38.61.7,1.24.99,1.91h0v.02h0Z"/>
    <path class="st5" d="M413.67,326.88c.05.09-2.81,2.23-6.39,4.81s-6.53,4.59-6.57,4.5,2.81-2.23,6.39-4.81,6.53-4.58,6.56-4.5h.01Z"/>
    <path class="st5" d="M421.77,336.62c-1.51-1.4-2.96-2.89-4.32-4.48-1.45-1.47-2.82-3.05-4.1-4.7,1.52,1.4,2.97,2.88,4.34,4.48,1.45,1.47,2.82,3.05,4.09,4.7h0Z"/>
    <path class="st1" d="M423.76,336.41l2.45-.23c1.75-.16,3.43-.74,4.96-1.69.75-.48,1.52-.92,2.31-1.3,3.04-1.35,6.43-1.11,9.69-1.3,5.35-.3,10.6-1.79,15.43-4.39.29-.14.53-.38.7-.68.51-1.02-.43-1.94-1.24-2.5-4.15-2.85-8.36-5.73-13.04-7.14s-10.02-1.17-14.02,1.9c-4.7,3.62-6.42,11.03-7.21,17.33"/>
    <path class="st5" d="M459.34,326.44c-.14-.06-.28-.14-.41-.22l-1.16-.68c-1.01-.59-2.45-1.46-4.3-2.44-2.13-1.18-4.37-2.14-6.65-2.86-2.8-.9-5.73-1.17-8.63-.78-2.89.36-5.64,1.67-7.87,3.76-1.74,1.8-3.14,3.98-4.09,6.42-.86,2.06-1.4,3.82-1.78,5l-.44,1.38c-.04.16-.1.32-.17.48.02-.17.06-.34.11-.5.1-.35.22-.81.38-1.4.47-1.71,1.02-3.39,1.67-5.02.95-2.49,2.34-4.71,4.1-6.56,2.26-2.18,5.05-3.53,8.02-3.92,2.94-.4,5.91-.13,8.75.78,2.31.76,4.54,1.74,6.68,2.96,1.83,1.02,3.27,1.91,4.27,2.55l1.13.74c.14.08.28.19.41.3h0v.03h.02l-.04-.02Z"/>
    <path class="st5" d="M453.44,329.99c-.05.08-3.27-2.23-7.18-5.17-3.92-2.94-7.05-5.4-7.01-5.47s3.27,2.23,7.17,5.17c3.92,2.94,7.07,5.38,7.02,5.47h0Z"/>
    <path class="st5" d="M450.35,319c-1.64.58-3.37.75-5.06.53.83-.19,1.67-.3,2.54-.33.84-.15,1.68-.21,2.54-.2h-.02Z"/>
    <path class="st5" d="M435.95,316.12c-.61,1.62-1.42,3.14-2.39,4.51.25-.83.61-1.63,1.05-2.34.35-.79.8-1.53,1.34-2.18h0Z"/>
    <path class="st5" d="M438.82,332.11c-.55-.25-1.06-.56-1.55-.94-.92-.63-2.19-1.56-3.51-2.64s-2.52-2.11-3.38-2.86c-.48-.38-.92-.81-1.34-1.28.52.3,1.02.66,1.46,1.07l3.42,2.77c1.34,1.08,2.56,2.02,3.46,2.72.5.34.96.72,1.4,1.14h.02v.02h.02Z"/>
    <path class="st1" d="M427.38,348.04c-2.33-.7-5.14,1.85-5.6,4.5s.41,5.35,1.45,7.82c2.23,5.47,5.55,10.31,9.68,14.15,4.17,3.83,9.4,5.96,14.8,6.06-.99-5.13.26-10.5-.29-15.71-1.01-9.46-7.74-16.9-16.23-17.91-1.5-.18-3.22-.44-3.83,1.1"/>
    <path class="st5" d="M447.71,380.57c-.12-.04-.23-.1-.34-.17-.31-.19-.59-.42-.88-.66-.98-.96-1.77-2.14-2.31-3.44-.37-.78-.8-1.68-1.2-2.66s-.81-2-1.25-3.13c-.45-1.14-.97-2.26-1.55-3.32-.62-1.13-1.33-2.21-2.11-3.24-1.6-2.1-3.32-3.92-4.81-5.66-1.35-1.52-2.58-3.17-3.68-4.92-.73-1.19-1.34-2.48-1.79-3.83-.14-.48-.26-.86-.32-1.12-.04-.13-.06-.26-.07-.4,0,0,.16.53.51,1.46.5,1.32,1.13,2.56,1.87,3.73,1.12,1.72,2.36,3.32,3.71,4.83,1.5,1.73,3.24,3.53,4.85,5.66.8,1.03,1.51,2.12,2.15,3.29.58,1.09,1.1,2.21,1.55,3.38l1.24,3.13c.4.97.8,1.86,1.16,2.66.51,1.31,1.25,2.49,2.19,3.47.67.68,1.13.92,1.1.96h0v-.02h-.02Z"/>
    <path class="st5" d="M435.6,376.31c.02-.59.09-1.19.22-1.76.18-1.08.48-2.55.89-4.17s.84-3.05,1.2-4.06c.16-.57.37-1.12.64-1.63-.09.58-.23,1.14-.42,1.71-.29,1.05-.7,2.49-1.1,4.09s-.7,3.06-.98,4.13c-.09.58-.24,1.14-.44,1.71h0v-.02h-.01Z"/>
    <path class="st5" d="M447.28,363.71c-.56-.09-1.12-.24-1.66-.43-1.01-.29-2.41-.7-3.95-1.09s-2.97-.69-3.98-.91c-.56-.08-1.12-.22-1.66-.41.57-.02,1.13.04,1.68.16,1.03.15,2.47.42,4.03.78,1.56.37,2.95.84,3.94,1.2.55.17,1.08.4,1.58.7h.02Z"/>
    <path class="st5" d="M426.89,367.37c.03-.69.11-1.36.25-2.04.21-1.24.53-2.97.97-4.83s.91-3.55,1.27-4.75c.18-.66.42-1.3.7-1.91-.1.68-.25,1.35-.45,2-.31,1.22-.75,2.89-1.18,4.76s-.8,3.58-1.06,4.81c-.12.68-.29,1.34-.51,1.99h.02v-.03Z"/>
    <path class="st5" d="M441.89,352.73c0,.09-2.94-.16-6.53-.59s-6.51-.86-6.5-.95c2.19.07,4.37.27,6.53.59,2.18.19,4.36.52,6.5.96h0Z"/>
    <path class="st10" d="M439.75,392.31c0,.1-10.29.18-22.97.18s-22.97-.08-22.97-.18,10.29-.18,22.97-.18,22.97.08,22.97.18Z"/>
    <path class="st10" d="M432.6,407.07c0,.1-6.93.19-15.48.19s-15.48-.09-15.48-.19,6.93-.18,15.48-.18,15.48.12,15.48.18Z"/>
    <path class="st10" d="M432.87,409.18c0,.1-6.93.18-15.48.18s-15.48-.08-15.48-.18,6.93-.18,15.48-.18,15.48.08,15.48.18Z"/>
    <path class="st10" d="M432.87,405.33c0,.1-7.17.18-16.01.18s-16.01-.08-16.01-.18,7.17-.18,16.01-.18,16.01.08,16.01.18Z"/>
  </g>
</svg>