<?xml version="1.0" encoding="UTF-8"?>
<svg id="Layer_1" xmlns="http://www.w3.org/2000/svg" version="1.1" viewBox="0 0 750 500">
  <!-- Generator: Adobe Illustrator 29.8.2, SVG Export Plug-In . SVG Version: 2.1.1 Build 3)  -->
  <defs>
    <style>
      .st0 {
        fill: #e0e0e0;
      }

      .st1 {
        fill: #9d6054;
      }

      .st2 {
        fill: #ebebeb;
      }

      .st3 {
        fill: #263238;
      }

      .st4 {
        fill: #724a44;
      }

      .st5 {
        fill: #fafafa;
      }

      .st6 {
        opacity: .4;
      }

      .st7 {
        opacity: .3;
      }

      .st8 {
        fill: #f5f5f5;
      }

      .st9 {
        fill: #455a64;
      }

      .st10 {
        fill: #ddbe6c;
      }
    </style>
  </defs>
  <g id="freepik--background-complete--inject-54">
    <rect class="st8" x="154.97" y="44.12" width="222.11" height="146.28"/>
    <path class="st0" d="M189.76,79.07s-3.08-1.72-5.08.39c-.7.75-.88,3.21,1.86,3.7,0,0,5.93-.32,8.63-.81s8.84-3.2,8.84-3.2l3.19-7.11s.41-3.36.82-3.44,1.66,3.44,1.66,3.44l6.88,2,.73,1.39-5.61,2.28s.82,8.84.08,10.39c-.77,1.29-1.73,2.45-2.86,3.44l.32,12.85s1.23-.49,1.31.41h-3.26s-1.31-8-3.19-8.6l.49-3.35-12.89-1.09s.9,3-2.78,5.48c-1.95,1.25-3.72,2.76-5.28,4.47v2.45s1.07.41,1.15,1.31h-3.93s.49-6.79,0-7.94c0,0,4.82-4.92,4.17-11,0,0-5.48-1.39-4.17-6.71s7.45-5.41,8.92-.75Z"/>
    <path class="st0" d="M190.58,120.03s-1.93-1.06-3.16.25c-.47.65-.32,1.56.32,2.02.24.17.53.27.83.28,0,0,3.69-.21,5.36-.51,1.88-.53,3.72-1.2,5.5-2l2-4.42s.25-2.08.51-2.14,1,2.14,1,2.14l4.28,1.22.46.84-3.45,1.43s.5,5.49,0,6.46c-.48.8-1.08,1.52-1.78,2.13l.2,8s.76-.31.81.25h-2s-.81-5-2-5.34l.3-2.08-8-.67s.56,1.89-1.73,3.41c-1.22.77-2.33,1.69-3.31,2.75v1.52s.66.26.72.82h-2.4s.3-4.22,0-4.94c0,0,3-3.06,2.59-6.81,0,0-3.41-.86-2.59-4.17s4.64-3.34,5.54-.44Z"/>
    <path class="st0" d="M189.18,154.03s-1.46-.8-2.38.19c-.35.49-.25,1.17.24,1.52.18.13.4.21.63.21,0,0,2.77-.16,4-.39,1.41-.39,2.79-.89,4.13-1.49l1.5-3.33s.19-1.57.38-1.61.77,1.61.77,1.61l3.23.97.34.65-2.6,1.07s.38,4.14,0,4.87c-.36.6-.81,1.14-1.34,1.6l.16,6s.57-.23.61.19h-1.47s-.62-3.75-1.5-4l.23-1.57-6-.5c.18,1.05-.35,2.09-1.3,2.57-.92.58-1.75,1.27-2.49,2.06v1.06s.49.2.53.62h-1.85c.12-1.24.12-2.48,0-3.72,1.32-1.38,2.04-3.22,2-5.13-1.4-.29-2.31-1.66-2.02-3.06,0-.03.01-.06.02-.08.62-2.45,3.49-2.49,4.18-.31Z"/>
    <path class="st0" d="M343.51,84.82c0,.14-23.09.26-51.58.26s-51.58-.12-51.58-.26,23.09-.26,51.58-.26,51.58.15,51.58.26Z"/>
    <path class="st0" d="M343.51,88.8c0,.14-23.09.26-51.58.26s-51.58-.12-51.58-.26,23.09-.26,51.58-.26,51.58.11,51.58.26Z"/>
    <path class="st0" d="M343.51,92.77c0,.15-23.09.26-51.58.26s-51.58-.11-51.58-.26,23.09-.26,51.58-.26,51.58.12,51.58.26Z"/>
    <path class="st0" d="M343.51,96.71c0,.15-23.09.26-51.58.26s-51.58-.11-51.58-.26,23.09-.26,51.58-.26,51.58.16,51.58.26Z"/>
    <path class="st0" d="M343.51,119.29c0,.15-23.09.26-51.58.26s-51.58-.11-51.58-.26,23.09-.26,51.58-.26,51.58.12,51.58.26Z"/>
    <path class="st0" d="M343.51,123.27c0,.15-23.09.26-51.58.26s-51.58-.11-51.58-.26,23.09-.26,51.58-.26,51.58.12,51.58.26Z"/>
    <path class="st0" d="M343.51,127.25c0,.14-23.09.26-51.58.26s-51.58-.12-51.58-.26,23.09-.26,51.58-.26,51.58.12,51.58.26Z"/>
    <path class="st0" d="M343.51,131.23c0,.14-23.09.26-51.58.26s-51.58-.12-51.58-.26,23.09-.26,51.58-.26,51.58.11,51.58.26Z"/>
    <path class="st0" d="M343.51,153.77c0,.14-23.09.26-51.58.26s-51.58-.12-51.58-.26,23.09-.26,51.58-.26,51.58.12,51.58.26Z"/>
    <path class="st0" d="M343.51,157.71c0,.14-23.09.26-51.58.26s-51.58-.12-51.58-.26,23.09-.26,51.58-.26,51.58.15,51.58.26Z"/>
    <path class="st0" d="M343.51,161.71c0,.14-23.09.26-51.58.26s-51.58-.12-51.58-.26,23.09-.26,51.58-.26,51.58.13,51.58.26Z"/>
    <path class="st0" d="M343.51,165.71c0,.15-23.09.26-51.58.26s-51.58-.11-51.58-.26,23.09-.26,51.58-.26,51.58.11,51.58.26Z"/>
    <path class="st0" d="M334.37,64.96c0,1.44-22.92,2.61-51.18,2.61s-51.19-1.17-51.19-2.61,22.91-2.6,51.19-2.6,51.18,1.16,51.18,2.6Z"/>
    <path class="st2" d="M503.21,40.82h-2.81v-5.32c.07-1.62-1.16-3-2.78-3.12h-21.39c-1.61.12-2.84,1.5-2.77,3.12v5.32h-2.78v-5.32c-.09-3.18,2.4-5.83,5.58-5.94h21.39c3.18.1,5.68,2.76,5.59,5.94l-.03,5.32Z"/>
    <rect class="st2" x="431.37" y="40.82" width="110.69" height="74.01" rx="9.13" ry="9.13"/>
    <rect class="st8" x="483.61" y="62.88" width="6.64" height="29.75"/>
    <rect class="st8" x="472.05" y="74.44" width="29.75" height="6.64"/>
    <path class="st8" d="M511.68,77.83v-.4c0-.26-.05-.68-.09-1.18,0-.26,0-.55-.05-.86s-.11-.66-.17-1c-.11-.86-.28-1.71-.52-2.55-.58-2.31-1.51-4.53-2.76-6.56-6.79-11.21-21.14-15.18-32.73-9.06-1.04.57-2.05,1.22-3,1.93-.98.73-1.91,1.52-2.78,2.37-.86.89-1.67,1.84-2.4,2.84-1.52,2.05-2.71,4.33-3.51,6.76-1.69,5.02-1.69,10.47,0,15.49.8,2.43,1.98,4.71,3.5,6.76.74,1,1.55,1.95,2.41,2.85.87.85,1.8,1.64,2.78,2.37.95.71,1.96,1.36,3,1.93,1.03.54,2.1,1.01,3.2,1.41,4.13,1.5,8.59,1.88,12.91,1.08,6.93-1.3,12.98-5.51,16.62-11.55,1.25-2.03,2.18-4.25,2.76-6.56.24-.84.41-1.69.52-2.55.06-.38.13-.72.17-1s0-.6.05-.86c0-.5.07-.89.09-1.18s0-.4,0-.4c.02.13.02.27,0,.4v2.05c0,.32-.09.67-.14,1.05-.1.87-.26,1.73-.48,2.58-.56,2.34-1.47,4.59-2.7,6.66-3.65,6.17-9.76,10.48-16.8,11.83-4.39.84-8.93.5-13.15-1-1.12-.4-2.21-.88-3.27-1.43-1.07-.6-2.1-1.26-3.08-2-1-.74-1.95-1.55-2.84-2.41-.88-.91-1.71-1.88-2.46-2.9-1.56-2.1-2.77-4.43-3.59-6.91-.83-2.55-1.26-5.22-1.29-7.9.03-2.69.47-5.35,1.29-7.91.82-2.48,2.04-4.8,3.59-6.9.76-1.02,1.58-1.99,2.46-2.9.86-.9,1.78-1.73,2.75-2.51.97-.74,2-1.41,3.07-2,1.06-.55,2.15-1.03,3.27-1.43,4.21-1.5,8.75-1.84,13.14-1,7.04,1.35,13.16,5.66,16.81,11.83,1.23,2.07,2.14,4.32,2.7,6.66.22.85.38,1.71.48,2.58.05.38.11.72.14,1s0,.61,0,.88v1.18c.05.13.09.28.1.42Z"/>
    <path class="st2" d="M575.18,46.27v-11.19h-7.87v11.19h-7.92v64h23.15V46.27h-7.36Z"/>
    <rect class="st0" x="418.62" y="110.28" width="190.96" height="9.74"/>
    <rect class="st0" x="455.94" y="120.03" width="5.56" height="23.03"/>
    <rect class="st0" x="567.12" y="120.03" width="5.56" height="23.03"/>
    <path class="st5" d="M532.12,63.49v-8.18h-5.76v8.18h-5.79v46.79h16.92v-46.79h-5.37Z"/>
    <path class="st8" d="M551.33,63.49v-8.18h-5.75v8.18h-5.79v46.79h16.9v-46.79h-5.36Z"/>
    <rect class="st0" x="425.54" y="79.88" width="30.4" height="30.4"/>
    <path class="st2" d="M455.79,87.71c0,.2-6.71.36-15,.36s-15-.16-15-.36,6.71-.35,15-.35,15,.14,15,.35Z"/>
    <path class="st2" d="M441.89,91.71s.11,0,.31.05c.29.08.56.21.81.38.9.68,1.5,1.69,1.67,2.8.38,1.64.1,3.35-.79,4.78-.56.85-1.39,1.48-2.36,1.79-1.03.29-2.13.29-3.16,0-2.06-.45-3.69-2.03-4.22-4.07-.37-1.68.17-3.42,1.43-4.59.82-.75,1.89-1.18,3-1.23.4-.05.81.02,1.18.2,0,.06-.43,0-1.15.08-1.02.14-1.97.59-2.71,1.31-1.06,1.07-1.49,2.62-1.13,4.09.95,2.69,3.77,4.23,6.54,3.57.82-.26,1.52-.79,2-1.5.81-1.28,1.1-2.82.82-4.31-.11-1.02-.59-1.97-1.34-2.67-.5-.5-.92-.62-.9-.68Z"/>
    <path class="st2" d="M172.76,333.02c-6.37-3.28-13.86-3.71-20.93-2.54-3.8.63-7.76,1.76-10.35,4.61s-3.07,7.88-.1,10.33c1.76,1.46,4.23,1.68,6.52,1.65,5.53-.06,11.67-1,16.1,2.29,2.52,1.9,4.2,5.06,7.21,6s6.28-.83,7.85-3.49c1.44-2.78,1.75-6,.89-9-.73-4.23-3.39-7.87-7.19-9.85Z"/>
    <path class="st2" d="M187.35,304.86c-3.89,5.56-11.46,3.72-15,.32s-5-8.31-6.34-13c-3.09-10.72-6.2-22-3.9-32.89.55-3.31,2-6.4,4.2-8.94,2.29-2.42,5.82-3.86,9-3,3.82,1,6.19,4.75,7.9,8.3,5.05,10.5,7.7,21.99,7.75,33.64,0,5.42-.62,11.1-3.68,15.58"/>
    <path class="st2" d="M198.05,312.84c-4.23-5-5-12.34-3.15-18.63s6.13-11.63,11-16c5.77-5.13,12.49-9.09,19.78-11.65,2.82-1.14,5.85-1.65,8.88-1.51,3,.29,6.05,1.83,7.45,4.51,2.08,4,.09,8.78-2.07,12.7-3.8,6.92-8.15,13.52-13,19.75-3.89,5-8.34,10-14.27,12.23s-12.08,2-15.22-2.11"/>
    <path class="st0" d="M187.62,388.71c-.22-.83-.34-1.68-.36-2.53-.18-1.83-.4-4.14-.67-6.89-.34-3.4-.86-6.78-1.55-10.12-.9-4.07-2.13-8.07-3.68-11.94-1.51-3.87-3.56-7.51-6.09-10.8-2.06-2.68-4.7-4.87-7.71-6.41-2.04-1-4.24-1.68-6.49-2-.85-.04-1.69-.16-2.52-.36.85-.1,1.71-.1,2.56,0,2.34.17,4.64.77,6.77,1.76,3.17,1.5,5.96,3.71,8.13,6.46,2.64,3.33,4.77,7.04,6.32,11,1.57,3.93,2.79,7.99,3.65,12.14.66,3.38,1.11,6.8,1.35,10.24.22,2.93.3,5.3.34,6.94.07.84.06,1.68-.05,2.51Z"/>
    <path class="st0" d="M187.14,383.45c-.07-.39-.1-.79-.07-1.18v-3.35c0-2.91,0-7.12-.15-12.32-.26-10.4-1.15-21.6-2.88-37.38-1.64-14.84-3.84-32.11-6.16-43.33-.49-2.56-1-4.86-1.47-6.87s-.83-3.75-1.2-5.16-.58-2.4-.78-3.26c-.11-.38-.18-.77-.21-1.16.17.35.31.72.41,1.1.25.85.58,1.91,1,3.22s.88,3.12,1.38,5.13,1.08,4.29,1.62,6.84c2.88,13.28,5.04,26.7,6.48,40.21,1.73,15.82,2.51,30.22,2.58,40.64.06,5.22-.05,9.44-.18,12.35-.09,1.36-.15,2.47-.21,3.35,0,.39-.06.79-.16,1.17Z"/>
    <path class="st0" d="M187.07,355.71c-.09-1.16-.09-2.34,0-3.5.2-3.18.57-6.35,1.1-9.5.77-4.66,1.79-9.28,3.08-13.83,1.51-5.59,3.45-11.06,5.79-16.36,4.79-11.37,11.31-20.68,17-26.44,1.25-1.32,2.59-2.56,4-3.71.61-.52,1.16-1,1.71-1.45l1.55-1.06c.95-.71,1.95-1.34,3-1.89.16.23-4.18,2.78-9.67,8.62-7,7.76-12.63,16.66-16.64,26.32-2.3,5.27-4.24,10.68-5.81,16.21-1.32,4.51-2.42,9.07-3.28,13.69-.73,3.94-1.15,7.16-1.4,9.39-.05,1.18-.2,2.35-.43,3.51Z"/>
    <polygon class="st0" points="213.91 404.66 211.13 442.79 162.15 442.79 159.37 404.66 213.91 404.66"/>
    <rect class="st0" x="153.53" y="389.64" width="65.12" height="15.03"/>
    <polygon class="st2" points="218.64 441.33 218.64 445.49 215.59 445.49 154.6 445.49 154.6 441.33 218.64 441.33"/>
    <polygon class="st0" points="212.59 452.82 215.59 445.49 156.94 445.49 160.44 452.82 212.59 452.82"/>
    <path class="st8" d="M160.28,417.12c.06.13.14.24.23.35l.73,1,2.85,3.65.13.17.12-.17c1.8-2.48,4.19-5.8,7-9.7h-.4l6.9,9.77.22.31.24-.29,8.18-9.74h-.47l.45.56,7.32,9.18.24.3.23-.31c2.48-3.52,4.81-6.8,6.9-9.77h-.4l8.51,9.68.15.18.11-.2c1.12-1.88,2-3.38,2.66-4.47l.69-1.19c.09-.13.16-.28.21-.43-.11.11-.21.24-.29.38-.2.3-.45.68-.75,1.15l-2.8,4.39h.27l-8.37-9.81-.21-.25-.19.27-7,9.73h.47c-2.32-2.91-4.77-6-7.3-9.19l-.45-.56-.23-.29-.24.28-8.17,9.76h.46c-2.52-3.52-4.86-6.79-7-9.72l-.2-.29-.2.29-6.86,9.8h.25l-3-3.56c-.32-.37-.58-.68-.8-.92s-.18-.35-.19-.34Z"/>
    <path class="st8" d="M158.68,404.41c0,.17,12.27.31,27.41.31s27.41-.14,27.41-.31-12.27-.3-27.41-.3-27.41.13-27.41.3Z"/>
    <path class="st8" d="M156.22,445.9c0,.17,13.33.31,29.78.31s29.79-.14,29.79-.31-13.33-.3-29.79-.3-29.78.11-29.78.3Z"/>
    <rect class="st0" x="494.44" y="155.79" width="92.35" height="96.27"/>
    <rect class="st2" x="488.19" y="155.79" width="92.35" height="96.27"/>
    <rect class="st5" x="500.61" y="168.73" width="67.52" height="70.39"/>
    <path class="st0" d="M500.61,239.58c-.49.7-1.05,1.34-1.68,1.92-1.09,1.13-2.61,2.67-4.3,4.34s-3.26,3.17-4.41,4.23c-.58.61-1.23,1.16-1.93,1.64.5-.69,1.06-1.32,1.68-1.9,1.09-1.14,2.61-2.68,4.31-4.35s3.27-3.18,4.41-4.24c.59-.61,1.23-1.16,1.92-1.64Z"/>
    <path class="st0" d="M568.13,239.41c.69.5,1.33,1.07,1.91,1.69,1.13,1.08,2.67,2.6,4.34,4.3s3.17,3.26,4.24,4.4c.61.59,1.16,1.24,1.65,1.93-.69-.49-1.33-1.05-1.91-1.68-1.13-1.08-2.67-2.6-4.35-4.31s-3.18-3.26-4.24-4.41c-.61-.58-1.16-1.23-1.64-1.92Z"/>
    <path class="st0" d="M567.94,168.92c.5-.69,1.07-1.33,1.69-1.92,1.09-1.13,2.6-2.67,4.3-4.34s3.26-3.17,4.41-4.23c.58-.62,1.23-1.17,1.93-1.65-.5.69-1.06,1.33-1.68,1.91-1.09,1.13-2.61,2.67-4.31,4.35s-3.27,3.17-4.41,4.23c-.59.61-1.23,1.17-1.93,1.65Z"/>
    <path class="st0" d="M500.42,169.09c-.69-.5-1.33-1.07-1.91-1.69-1.14-1.08-2.67-2.6-4.35-4.3s-3.16-3.26-4.23-4.4c-.61-.59-1.16-1.24-1.65-1.93.69.49,1.33,1.05,1.91,1.68,1.13,1.08,2.67,2.6,4.35,4.31s3.17,3.26,4.24,4.41c.61.58,1.16,1.23,1.64,1.92Z"/>
    <path class="st0" d="M567.94,239.12v-19.48c0-12.33-.07-29.89-.12-50.93l.22.22h-67.33l.26-.25v70.39l-.22-.22,48.77.11,13.7.06h4.87-18.43l-48.91.11h-.21v-70.86h67.82v.44c0,21.09-.08,38.71-.11,51.07,0,6.14,0,11-.06,14.29v4.76c0,.28-.25.29-.25.29Z"/>
    <path class="st2" d="M518.43,198.13s-1.45,17.43,17.42,17.43c0-9.3-7.67-16.64-17.42-17.43Z"/>
    <path class="st2" d="M552.96,198.15s-17.43-1.45-17.43,17.42c9.3,0,16.64-7.67,17.43-17.42Z"/>
    <path class="st0" d="M535.02,188.61s-14.24,12.78.78,26.95c6.98-7.4,6.39-19-.78-26.95Z"/>
  </g>
  <g id="freepik--Characters--inject-54">
    <path class="st9" d="M336.45,282.86s-20.15-3.16-21.83-3.1-17.66,3.19-17.66,3.19c0,0-22.61,4-24.89,5.64s-.6,6.79-.6,6.79c2.51,1,10.42-.57,10.42-.57.09,1.75.56,3.46,1.38,5,1.42,2.86,5.3,2.14,5.3,2.14l-3,1.56c.25,1.81.71,3.59,1.36,5.3,1.1,3,8.31,2.57,8.31,2.57,0,0,1.9,4.28,4.89,5s18.55-2.93,23.17-3.43,13.48-6,13.48-6c3.56,1.27,7.19,2.34,10.87,3.23l2.27-29.36c-1.7-.11-13.47,2.04-13.47,2.04Z"/>
    <path class="st10" d="M255.68,375.98c-8.59-2.16-15.09-9.67-18-18s-2.84-17.47-2-26.28c.33-1.63.19-3.31-.39-4.87-1.15-2.36-4.31-3.18-6.82-2.4s-4.44,2.76-6,4.83c-12.65,16.35-9.65,39.87,6.7,52.52,7.35,5.68,16.54,8.43,25.8,7.72"/>
    <path class="st10" d="M320.8,293.08s20.13,34.87,25.22,48.89,11.57,52.57,11.57,52.57c0,0,30.22,7.78,11.5,40.28-6.92,12-6.3,17.58-14.06,17.94-6,.27-54.72-.1-54.72-.1l.88,4.77s-4.08,13.78-12.32,9.89-18-14.66-18-14.66l-14.17-.19-33.73.24-9.87-.19v-.27c.69-5.48,4.53-10.04,9.81-11.65l7.24-2.2s-9.41-39.52-1.26-49,21.41-8.83,21.41-8.83l-6.09-40.67c-1.21-9.53-.25-19.22,2.81-28.33l4.57-13.59,69.21-4.9Z"/>
    <path class="st3" d="M250.85,381.93c14,7.93,23.38,21.22,28.07,36.4,0,.16.29.09.24-.06-3.63-11.77-10.08-22.67-19.59-30.63-2.68-2.23-5.56-4.21-8.59-5.93-.14-.08-.27.14-.13.22Z"/>
    <path class="st10" d="M251.15,299.37s-6.57,17.55-7.12,26.32c-.91,14.55,6.3,54.86,6.3,54.86,0,0-2.47,39.51-4.61,45.37s-1.25,11.26-11,13.25c-2.63.54-7.22,9.07-7.22,13.3h27.27s7.38-8.34,7.73-16.14,13.33-50.18,13.33-50.18"/>
    <path class="st3" d="M275.83,386.15s0,.11-.08.32-.15.54-.27.94c-.24.83-.59,2.05-1.05,3.62-.93,3.2-2.27,7.85-4,13.75s-3.71,13.1-5.75,21.38c-.51,2.07-1,4.21-1.44,6.43-.1.55-.2,1.11-.3,1.68-.1.56-.14,1.13-.21,1.7l-.18,1.76c-.1.59-.2,1.18-.35,1.77-1.46,4.85-3.94,9.32-7.28,13.12l-.06.08h-27.64v-.25c.24-2.65,1.04-5.22,2.33-7.54.61-1.21,1.31-2.37,2.11-3.46.41-.55.86-1.07,1.36-1.55.51-.52,1.15-.89,1.86-1.06,2.6-.57,5.31-1.54,7-3.66s2.18-5,3-7.7c.14-.51.32-1,.49-1.51s.27-1,.41-1.48c.2-1,.42-2,.56-3,.32-2,.57-4.08.8-6.11.47-4.06.83-8.07,1.18-12,.68-7.9,1.24-15.53,1.72-22.81v.06c-2.07-11.94-3.72-23-4.89-33-.58-5-1-9.67-1.26-14-.34-4.01-.17-8.04.51-12,.69-3.59,1.58-6.75,2.38-9.49s1.58-5.05,2.22-6.93,1.17-3.3,1.52-4.27l.42-1.09c.1-.25.16-.37.16-.37l-.12.38c-.09.27-.22.63-.38,1.11-.33,1-.82,2.43-1.45,4.29s-1.35,4.21-2.14,6.95-1.65,5.9-2.32,9.48c-.65,3.97-.8,8-.44,12,.24,4.36.71,9,1.31,14,1.19,9.94,2.87,21,5,33v.06c-.47,7.29-1,14.92-1.69,22.82-.34,3.95-.71,8-1.17,12-.24,2-.49,4.08-.81,6.13-.14,1-.36,2.05-.56,3.08-.15.51-.28,1-.43,1.54s-.34,1-.48,1.48c-.4,1.35-.72,2.72-1.15,4.08-.4,1.37-1.06,2.66-1.93,3.79-.92,1.09-2.07,1.97-3.37,2.56-1.28.58-2.62,1.02-4,1.29-.62.15-1.18.47-1.62.93-.47.46-.91.95-1.3,1.48-.78,1.07-1.47,2.2-2.06,3.38-1.26,2.25-2.04,4.74-2.29,7.31l-.25-.25h27.27l-.17.07c3.3-3.74,5.76-8.15,7.21-12.92.14-.57.25-1.15.35-1.72l.18-1.73c.07-.58.12-1.17.21-1.74s.21-1.13.32-1.69c.44-2.22.95-4.37,1.46-6.44,2.07-8.29,4.15-15.45,5.86-21.37s3.13-10.54,4.1-13.71c.49-1.56.86-2.77,1.12-3.61l.3-.92c.04-.15.1-.3.17-.44Z"/>
    <path class="st3" d="M323.58,317.61s.1.21.27.64l.72,1.92c.63,1.7,1.54,4.19,2.72,7.39,2.33,6.43,5.7,15.73,9.61,27.32,1,2.9,2,5.94,2.95,9.14.5,1.59,1,3.23,1.43,4.91.41,1.73.71,3.48.91,5.24.87,7.15,1.28,14.83,1.74,22.9s.84,16.55,1.43,25.32c.31,4.38.63,8.85,1.25,13.33.16,1.12.34,2.25.59,3.35.12.56.28,1.1.48,1.64.09.25.21.48.36.7.07.08.15.18.22.2.12.05.24.1.37.14,1.14.33,2.22.84,3.19,1.52.49.34.94.73,1.36,1.16.41.44.77.93,1.07,1.45,1.16,2.14,1.52,4.62,1,7v.2h-30.96v-.25c.12-2.55.51-5.07,1.15-7.54.58-2.43,1.24-4.8,2-7.12v.1c-1.84-12-3.58-23.11-5.21-33-.83-4.94-1.6-9.59-2.46-13.87-.12-.53-.21-1.07-.35-1.58l-.2-.76c-.08-.24-.19-.48-.31-.7-.5-.89-1.07-1.73-1.71-2.52-1.22-1.58-2.49-3-3.69-4.39-4.87-5.44-8.93-9.55-11.69-12.38l-3.18-3.23-.81-.83c-.19-.19-.27-.29-.27-.29l.29.26.85.8c.74.74,1.82,1.8,3.23,3.18,2.79,2.8,6.89,6.88,11.8,12.29,1.21,1.37,2.49,2.8,3.73,4.4.66.8,1.25,1.66,1.75,2.57.14.24.25.48.34.74l.2.78c.15.52.24,1.05.36,1.59.89,4.29,1.67,8.93,2.51,13.88,1.67,9.89,3.44,21,5.29,33v.11c-.71,2.31-1.37,4.67-1.94,7.09-.63,2.43-1.01,4.92-1.13,7.43l-.25-.25,30.49-.06-.26.2c.47-2.25.11-4.58-1-6.59-.29-.48-.62-.94-1-1.36-.39-.4-.82-.76-1.28-1.08-.92-.64-1.93-1.13-3-1.45-.15-.05-.3-.11-.44-.17-.17-.08-.32-.21-.42-.37-.18-.25-.33-.53-.43-.82-.21-.55-.37-1.11-.5-1.68-.26-1.13-.44-2.26-.6-3.39-.62-4.52-.94-9-1.25-13.38-.58-8.78-1-17.26-1.4-25.33s-.84-15.74-1.68-22.87c-.2-1.75-.49-3.48-.89-5.19-.45-1.67-.92-3.31-1.41-4.9-1-3.19-2-6.23-2.92-9.13-3.86-11.6-7.18-20.92-9.45-27.37-1.14-3.21-2-5.71-2.63-7.43-.29-.83-.52-1.48-.67-1.93s-.27-.68-.27-.68Z"/>
    <path class="st3" d="M296.95,409.71c-.2-.13-.39-.27-.56-.43l-1.53-1.3c-1.3-1.16-3.14-2.9-5.27-5.18-5.51-5.99-10.61-12.33-15.27-19-4.73-6.61-9.01-13.53-12.8-20.72-1.43-2.78-2.45-5.09-3.1-6.71-.28-.78-.51-1.4-.69-1.88-.09-.22-.16-.44-.21-.67.13.2.23.41.31.63l.78,1.84c.71,1.59,1.77,3.87,3.24,6.62,3.88,7.12,8.19,13.99,12.9,20.59,4.65,6.63,9.7,12.97,15.11,19,2.09,2.31,3.88,4.08,5.14,5.28l1.46,1.37c.18.17.34.36.49.56Z"/>
    <path class="st10" d="M280.18,405.88c1.85,5.91,3.07,12,3.65,18.16.04,1.37,1.13,2.46,2.5,2.5,1.38,0,2.49-1.12,2.5-2.5-.59-6.61-1.87-13.15-3.83-19.49-.37-1.33-1.74-2.11-3.07-1.75-1.33.37-2.11,1.74-1.75,3.08h0Z"/>
    <path class="st10" d="M251.31,303.39c-.85-21.39-2.39-46.36-.06-54.5s18.7-24.22,28.11-28,25,1.24,29.7,5.41l29.62-7.12s5.81,13.47-1.35,24.27-28.28,10.68-28.28,10.68c0,0-1.89,11.75,7.14,12.78s21.05-.38,22.2,9.44l-18.55,1.66,1,16.36-35.3,18.76-33.05-9.54"/>
    <path class="st3" d="M276.68,233.92c.11.29.17.59.19.89l.37,2.58c.3,2.37.7,5.58,1.2,9.49s1,8.83,1.65,14.1c.38,2.79.6,5.59.66,8.4.11,3.07-.4,6.13-1.49,9-1.18,2.92-3.45,5.26-6.32,6.55-2.68,1.11-5.64,1.37-8.48.75-2.55-.53-4.93-1.7-6.9-3.41-1.66-1.51-3.02-3.33-4-5.35-1.42-2.91-2.18-6.1-2.23-9.34-.03-.87,0-1.74.09-2.61,0-.31.06-.61.16-.9.08,0-.05,1.25.09,3.49.18,3.16,1.02,6.25,2.45,9.07,1,1.93,2.36,3.65,4,5.08,1.89,1.6,4.16,2.69,6.59,3.17,2.68.57,5.47.31,8-.75,2.66-1.2,4.76-3.39,5.85-6.1,1.04-2.76,1.53-5.69,1.44-8.64-.06-2.78-.26-5.55-.6-8.31-.55-5.29-1.05-10.07-1.47-14.13s-.68-7.15-.91-9.53c-.08-1-.15-1.9-.21-2.59-.08-.3-.12-.6-.13-.91Z"/>
    <path class="st3" d="M329.85,221.44c-.04,1.6.54,3.15,1.62,4.33,1.07,1.05,2.39,1.8,3.83,2.18,1.81.74,3.82.8,5.67.18,0-2.38-.37-4.74-1.1-7-.15-.72-.59-1.35-1.22-1.74-.39-.14-.81-.18-1.22-.12-2.65.2-5.23.95-7.58,2.2"/>
    <g class="st7">
      <path d="M251.62,269.45c.8,5.29,2.26,11.08,5.87,15s9.3,6.26,14.46,4.88c6.35-1.7,10.27-8.45,10.78-15s-1.68-13-3.84-19.18c1,5.91,2.07,12,.68,17.84s-5.83,11.37-11.78,12.08c-4.22.37-8.36-1.33-11.11-4.56-2.86-3.03-4.65-6.92-5.08-11.06"/>
    </g>
    <path class="st3" d="M341.07,230.47c.08.51.08,1.04,0,1.55-.11,1.41-.34,2.8-.67,4.17-.49,2.04-1.21,4.02-2.14,5.9-1.13,2.35-2.75,4.43-4.77,6.08-2.06,1.57-4.35,2.8-6.79,3.65-1.97.71-3.99,1.26-6.05,1.63-1.38.26-2.78.44-4.18.53-.51.08-1.03.08-1.54,0,0-.14,2.17-.32,5.59-1.12,2-.45,3.97-1.05,5.89-1.78,2.34-.86,4.54-2.07,6.53-3.58,1.91-1.58,3.48-3.54,4.59-5.75.94-1.82,1.7-3.72,2.26-5.69.97-3.41,1.12-5.6,1.28-5.59Z"/>
    <path class="st3" d="M297.91,234.95c-1.39.57-2.05,2.16-1.48,3.55s2.16,2.05,3.55,1.48,2.05-2.16,1.48-3.55c-.54-1.32-2.01-1.99-3.36-1.55"/>
    <path class="st3" d="M287.68,238.12c-.33.13-.88-.3-1.29-1.24-.5-1.25-.6-2.62-.3-3.93.26-1.32.92-2.52,1.89-3.45.76-.69,1.44-.86,1.69-.61.51.56-.52,2.33-1,4.62s-.25,4.31-.99,4.61Z"/>
    <path class="st3" d="M324.54,413.06c0,.06-1,0-2.87.09-1.12.05-2.23.18-3.33.39-1.45.26-2.85.77-4.13,1.49-2.87,1.59-5.66,4.44-8.86,7.39s-6.09,6.9-10.25,9.89c-2.02,1.48-4.36,2.47-6.83,2.9-2.39.39-4.7.34-6.87.51-2.04.07-4.05.57-5.88,1.48-1.57.85-2.91,2.05-3.92,3.52-1.5,2.12-2.29,4.67-2.26,7.27.06.95.18,1.9.37,2.83-.35-.9-.54-1.85-.57-2.82-.12-2.67.64-5.3,2.16-7.49,1.02-1.53,2.39-2.79,4-3.69,1.88-.96,3.94-1.49,6.05-1.57,2.2-.19,4.5-.16,6.82-.54,2.39-.43,4.66-1.39,6.62-2.82,4.07-2.93,7-6.81,10.22-9.81s6-5.77,9-7.38c1.33-.71,2.77-1.2,4.26-1.45,1.11-.19,2.24-.29,3.37-.3.93,0,1.65,0,2.14.05.25,0,.51.02.76.06Z"/>
    <path class="st3" d="M287.3,443.53c.3-.07.61-.1.92-.08.84.01,1.67.11,2.49.3,5.63,1.23,9.84,5.94,10.44,11.67.09.83.09,1.68,0,2.51,0,.31-.07.61-.18.9-.1,0,.11-1.31-.2-3.37-.78-5.49-4.79-9.98-10.17-11.35-1.99-.54-3.31-.48-3.3-.58Z"/>
    <path class="st3" d="M297.17,456.71c-.08.8-.34,1.58-.74,2.28-1.81,3.57-5.47,5.82-9.47,5.83-.81.06-1.62-.07-2.37-.37,0-.08.91.09,2.35,0,3.81-.2,7.27-2.32,9.16-5.64.73-1.25.98-2.1,1.07-2.1Z"/>
    <path class="st3" d="M288.54,450.26c0,.08-.8.24-2,.75-3.2,1.32-5.66,3.98-6.73,7.27-.42,1.25-.51,2.07-.6,2.06-.07-.73.02-1.47.25-2.17.94-3.51,3.56-6.33,7-7.51.66-.28,1.37-.42,2.08-.4Z"/>
    <path class="st3" d="M345.49,453.4c.02-.67.09-1.34.21-2,.21-1.6.06-3.23-.43-4.77-.55-1.51-1.65-2.74-3.09-3.46-.62-.24-1.26-.42-1.92-.52.69-.19,1.42-.12,2.07.18,1.6.67,2.84,1.99,3.43,3.62.53,1.61.64,3.34.3,5-.08.68-.27,1.34-.57,1.95Z"/>
    <path class="st3" d="M246.75,441.94c0,.09-.93,0-2.37.19-1.88.27-3.65,1.04-5.14,2.21-1.47,1.2-2.6,2.77-3.29,4.54-.52,1.36-.61,2.28-.7,2.27-.06-.82.06-1.64.36-2.4,1.23-3.88,4.67-6.64,8.72-7,.81-.12,1.64-.06,2.42.19Z"/>
    <path class="st3" d="M371.25,432.82s.48-.63,1.24-1.83c1.06-1.69,1.9-3.51,2.48-5.42.85-2.84,1.22-5.8,1.1-8.76-.13-3.62-.98-7.18-2.5-10.47-1.51-3.3-3.86-6.13-6.82-8.22-2.4-1.71-5.12-2.91-8-3.51-1.95-.4-3.97-.36-5.91.11-.52.15-1.04.33-1.54.54-.17.09-.35.15-.54.19.15-.12.32-.22.5-.29.49-.26.99-.47,1.52-.63,1.95-.56,4.01-.66,6-.28,2.97.55,5.79,1.73,8.26,3.47,1.47,1.01,2.8,2.21,3.95,3.57,1.22,1.48,2.25,3.1,3.07,4.83,1.55,3.35,2.41,6.99,2.51,10.68.1,3.01-.31,6.01-1.23,8.88-.62,1.93-1.52,3.76-2.66,5.43-.42.58-.76,1-1,1.3-.13.15-.27.29-.43.41Z"/>
    <path class="st3" d="M250.26,381.71c-4.66-1.06-9.54-.44-13.78,1.75-2.69,1.35-5.06,3.26-6.94,5.61-.97,1.2-1.74,2.55-2.26,4-.46,1.37-.8,2.78-1,4.21-.33,2.45-.48,4.92-.43,7.39,0,2.11.08,3.82.11,5v1.36c.03.16.03.32,0,.48-.05-.15-.07-.31-.07-.47,0-.38-.07-.82-.11-1.36-.09-1.19-.21-2.9-.28-5-.1-2.49.01-4.99.33-7.46.19-1.47.53-2.91,1-4.31.53-1.51,1.32-2.92,2.33-4.17,1.93-2.41,4.37-4.36,7.14-5.71,2.25-1.11,4.68-1.81,7.18-2.07,1.67-.17,3.35-.09,5,.24.45.08.9.2,1.33.34.16.04.31.09.45.17Z"/>
    <path class="st3" d="M209.01,360.02c-.14-.35-.22-.72-.26-1.09-.18-.99-.3-1.99-.36-3-.46-6.77.97-13.53,4.13-19.53.46-.93.98-1.83,1.56-2.69.18-.33.41-.63.67-.9.08.05-.79,1.39-1.91,3.69-2.92,6.02-4.33,12.66-4.08,19.35.09,2.59.34,4.16.25,4.17Z"/>
    <path class="st3" d="M205.8,361.58c-.14-.35-.24-.72-.29-1.09-.17-.7-.34-1.74-.51-3-.82-6.73-.16-13.56,1.94-20,.41-1.23.78-2.21,1.08-2.87.12-.35.29-.69.49-1,.09,0-.5,1.53-1.22,4-1.89,6.45-2.54,13.2-1.92,19.89.23,2.48.52,4.06.43,4.07Z"/>
    <g class="st7">
      <path d="M271.03,401.23c4.16,4.58,7.14,10.1,8.66,16.1.44,1.29.46,2.7.05,4-1.15,2.7-4.86,2.82-7.39,4.28-2.13,1.22-3.44,3.44-4.66,5.57l-12.4,21.56c3.83-.32,5.25.08,9.08-.23l6.16.13c-.23.1-1.2-2.93-1.28-4.35-.25-4.34,2.68-9.59,6.58-11.52,4.89-2.43,10.52-.4,15.49-2.68,4.75-2.19,7.58-5.53,10.67-8.59,3.88-3.85,7.73-9,12.7-11.23,2.25-1,7.62-1.12,7.62-1.12-2.55-3-7.23-2.85-11-1.83s-7.71,2.69-11.56,1.82c-3.23-.72-5.8-3.11-8.19-5.4-6.13-5.86-12.47-12-15.21-20.07l-5.11,13.21"/>
    </g>
    <g class="st7">
      <path d="M355.03,452.76c2-4.86-2.54-10.6-4.36-15.52s-1.44-10.48-1.43-15.79c.03-11.22-1.78-22.37-5.36-33-.4,14.58,1.27,30.06,2.14,44.61.18,3.09-.06,6.66,2.21,8.76,1.16,1.08,1.85.61,3.15,1.51s3.85,3,3.65,9.4"/>
    </g>
    <path class="st3" d="M296.14,309.14c-3.73-1.32-6.78-4.09-8.46-7.68,1.18,1.51,2.45,2.95,3.81,4.3,1.47,1.23,3.03,2.36,4.65,3.38Z"/>
    <path class="st3" d="M299.89,307.09c-3.21-.97-6.01-2.94-8-5.64.12-.1,1.63,1.49,3.84,3s4.22,2.49,4.16,2.64Z"/>
    <path class="st3" d="M304.83,306.91c-1.57-.28-3.06-.93-4.33-1.9-1.37-.82-2.52-1.96-3.37-3.31.12-.11,1.53,1.45,3.66,2.88s4.09,2.18,4.04,2.33Z"/>
    <path class="st3" d="M270.82,349.86c-1.82-.78-3.42-2-4.66-3.55-1.36-1.43-2.35-3.18-2.87-5.09.98,1.66,2.07,3.24,3.27,4.75,1.33,1.39,2.76,2.69,4.26,3.89Z"/>
    <path class="st3" d="M274.51,349.91c-2.83-1.75-5-4.38-6.19-7.48.14-.07,1.17,1.86,2.88,3.92s3.4,3.44,3.31,3.56Z"/>
    <path class="st3" d="M280.94,351.16c-1.3-1.01-2.48-2.16-3.54-3.42-1.18-1.14-2.24-2.41-3.16-3.78,1.3,1.02,2.48,2.17,3.54,3.43,1.18,1.14,2.24,2.41,3.16,3.77Z"/>
    <path class="st3" d="M261.1,267.94s-.45-.18-1-.72c-.65-.73-1.13-1.58-1.42-2.51-.32-.92-.44-1.9-.35-2.87.08-.74.26-1.17.32-1.16,0,1.3.18,2.6.52,3.86.49,1.22,1.13,2.36,1.93,3.4Z"/>
    <path class="st3" d="M262.86,267.17c-.75-.72-1.28-1.64-1.51-2.66-.38-.97-.48-2.03-.27-3.05.16,0,.28,1.34.77,2.89s1.13,2.74,1.01,2.82Z"/>
    <path class="st3" d="M266.83,269.71c-1.89-2.17-3.1-4.85-3.48-7.7.15,0,.68,1.78,1.64,3.89s1.96,3.67,1.84,3.81Z"/>
    <path class="st3" d="M384.61,85.06c-7.75,4.75-10.38,16.22-10.71,25.3-.33,9.08,2.14,18,4.15,26.87s3.56,18.16,1.38,27c-2,8.18-7.12,16.8-3.45,24.38,2.77,5.72,9.86,8.69,11.82,14.74,2.28,7.06-3.49,14-8.79,19.15,2.64,4,7.87,5.35,12.11,3.13-.14,2.17-1.17,4.19-2.86,5.57,6.19,1.49,12.67-.78,16.59-5.79-.73,2.52-1.47,5-2.2,7.56,6.09-1.44,11.37-5.19,14.74-10.46l2.55,4.78c9.75-6.7,16.53-17.24,19.86-28.6s3.36-23.49,1.45-35.17c-5.75-33.49-26.66-62.45-56.64-78.44"/>
    <path class="st3" d="M498.02,168.34c-3.47-4.17-7.75-8.31-8.23-13.72-.21-2.38.36-4.83-.18-7.17-1.4-6-9.24-8.41-11.6-14.13-3-7.18,3.78-16.68-1.22-22.63-2.4-2.85-6.53-3.41-9.68-5.4-8-5.07-6.06-19-25.25-29.14l1.43,30.62c6.47,25.9,11.6,52.11,15.39,78.53l43.31-2.14c2.47-4.82-.49-10.65-3.97-14.82Z"/>
    <path class="st3" d="M375.43,96.22c.46-7.72,4.01-14.92,9.84-20,6.35-5.48,14.92-7.92,23.3-8s16.67,1.91,24.65,4.49c4.48,1.45,9,3.13,12.63,6.12,6.64,5.45,9.28,14.26,11.59,22.53,1.86,6.69,3.74,13.72,2.2,20.49-1.49,6.3-5.75,11.59-11.6,14.38"/>
    <path class="st3" d="M377.75,90.46c-9.37,15.9-6.5,36.17,6.93,48.83.22-19.31,2.13-38.55,5.69-57.53"/>
    <path class="st1" d="M375.99,117.02c-2-13.53,3.37-31.8,17-33.22l32.45,1.23c10.41.4,18.78,7.32,21.69,17.32.14.5.06-.13.13.26l15.08,81.1c2.45,13.29-6.29,26.07-19.56,28.63h0c-13.14,2.53-25.89-5.91-28.7-19-1.41-6.49-3.06-14.15-3.06-14.11s-17.66.79-25.93-20.71c-4.11-10.7-6.88-26.47-9.1-41.5Z"/>
    <path class="st4" d="M405.08,103.48c-3.92,2.23-8.26,3.64-12.75,4.13,0-.16,2.9-.8,6.41-1.94s6.27-2.33,6.34-2.19Z"/>
    <path class="st4" d="M399.93,103.76c-2.43,1.4-5.19,2.15-8,2.17,1.3-.47,2.64-.84,4-1.11,1.31-.45,2.64-.81,4-1.06Z"/>
    <path class="st4" d="M418.68,145.81c-.14.05-.53-.81-1.55-1.19s-1.88,0-1.95-.19.14-.26.54-.4c.53-.17,1.1-.14,1.61.07.52.2.95.57,1.23,1.05.18.38.17.65.12.66Z"/>
    <path class="st3" d="M384.68,133.39c.32,1.55,1.81,2.57,3.37,2.29,1.52-.2,2.6-1.59,2.4-3.11,0-.03,0-.06-.01-.09-.31-1.55-1.8-2.57-3.36-2.29-1.53.2-2.61,1.61-2.41,3.14,0,.02,0,.04,0,.06Z"/>
    <path class="st3" d="M381.94,125.62c.43.3,2.25-1.76,5.33-2.41s5.65.41,5.9,0c.13-.2-.37-.8-1.51-1.31-1.52-.63-3.21-.78-4.82-.43-1.6.34-3.05,1.17-4.14,2.38-.79.86-.97,1.64-.76,1.77Z"/>
    <path class="st3" d="M412.27,127.36c.29,1.59,1.82,2.64,3.41,2.35,1.53-.2,2.6-1.6,2.4-3.13,0-.02,0-.05,0-.07-.31-1.55-1.8-2.57-3.36-2.3-1.53.18-2.63,1.56-2.45,3.1,0,.02,0,.04,0,.05Z"/>
    <path class="st3" d="M412.25,119.77c.44.3,2.26-1.76,5.33-2.41s5.65.42,5.91,0c.12-.2-.38-.8-1.51-1.3-1.53-.64-3.21-.8-4.83-.44-1.6.34-3.05,1.17-4.14,2.39-.79.89-.97,1.63-.76,1.76Z"/>
    <path class="st3" d="M405.95,144.92c0-.18-2-.1-5.18.16-.8.09-1.58.09-1.82-.42-.25-.79-.25-1.64,0-2.43.33-2.06.68-4.21,1.05-6.47,1.41-9.19,2.25-16.68,1.88-16.73s-1.81,7.35-3.23,16.54c-.33,2.26-.65,4.42-.94,6.48-.29,1.05-.2,2.18.25,3.17.35.51.91.83,1.53.87.46.02.92-.01,1.37-.1,3.18-.49,5.12-.89,5.09-1.07Z"/>
    <path class="st4" d="M438.83,164.97s-4,16.83-26.68,19.49l-1.13-5.23c10.41-2.09,20.04-7.02,27.81-14.26Z"/>
    <path class="st4" d="M408.83,152.05c.87-1.75,2.58-2.92,4.53-3.11,1.4-.17,2.8.24,3.89,1.13,1.06.88,1.45,2.32,1,3.61-.77,1.34-2.28,2.08-3.81,1.87-1.56-.2-3.07-.72-4.43-1.51-.4-.17-.76-.42-1.07-.72-.3-.3-.39-.75-.24-1.14"/>
    <path class="st3" d="M415.44,145.12c-.5.08.2,3.42-2.15,6.39s-6,3.36-5.91,3.83c0,.22.93.48,2.44.2,1.97-.38,3.74-1.44,5-3,1.2-1.5,1.77-3.4,1.59-5.31-.2-1.43-.73-2.17-.97-2.11Z"/>
    <path class="st3" d="M409.58,110.94c.48.77,3.46-.28,7.16-.61s6.82,0,7.14-.82c.13-.4-.54-1.08-1.89-1.64-3.6-1.33-7.62-.93-10.89,1.09-1.21.81-1.73,1.61-1.52,1.98Z"/>
    <path class="st3" d="M381.18,116.49c.69.58,2.65-.59,5.19-1.17s4.79-.53,5.14-1.36c.14-.4-.35-1-1.43-1.49-2.92-1.07-6.2-.28-8.32,2-.75.95-.89,1.73-.58,2.02Z"/>
    <path class="st3" d="M377.68,95.4c.64-3.64,3.88-6.44,7.45-7.4s7.39-.35,10.91.79c14.89,4.81,25.61,18.41,40.4,23.52,3.64,1.26,7.52,2,10.81,4s6,5.74,5.18,9.51c1.38-2.73,2.35-5.65,2.89-8.66.53-3.05-.28-6.18-2.23-8.59-1.55-1.72-3.87-2.79-4.9-4.87-.9-1.83-.57-4-1.08-6-.66-1.98-1.78-3.77-3.26-5.24-7.07-8-15.89-14.65-26.07-17.8-6.66-2.16-13.79-2.45-20.61-.85-6.85,1.63-12.88,5.67-17,11.37-2.34,3.35-4.82,6.84-2.5,10.22"/>
    <path class="st3" d="M460.89,129.18c-.58-.15-.64-1.67-1.08-4.07-.21-1.34-.65-2.63-1.31-3.81-.18-.29-.38-.56-.6-.81-.11-.12-.22-.23-.34-.34l-.48-.44c-.72-.64-1.48-1.22-2.29-1.74-.66-.46-1.42-.78-2.21-.93-.26,0-.3.06-.18.07l-.75.32-.8.38c-1.04.51-2.01,1.14-2.9,1.87-.47.38-.93.8-1.4,1.25l-.35.35-.6.56c-.4.36-.83.69-1.27,1-1.79,1.24-3.85,2.06-6,2.4-1.31.2-2.65.16-3.95-.13l-.54-.14-.43-.15c-.28-.1-.58-.19-.85-.31-.56-.24-1.1-.51-1.62-.81-1.89-1.15-3.56-2.64-4.93-4.38-1.33-1.61-2.33-3.18-3.33-4.61-3.57-5.2-7.93-9.8-12.93-13.64-4.13-3.17-8.62-5.84-13.38-7.94-3.12-1.51-6.44-2.56-9.85-3.14-2.39-.35-3.89-.26-4.1-.84s1-1.72,3.9-2.43,7.23-.52,12,.8c5.68,1.52,11.07,3.97,15.94,7.26,6.04,4.03,11.25,9.18,15.35,15.17,1,1.54,2,2.93,2.88,4.09.74,1,1.65,1.86,2.67,2.57.2.13.41.25.63.35.1.05.21.1.32.14l.15.06h.07c.32.1.66.13,1,.08,1.01-.13,1.98-.47,2.85-1,.22-.13.42-.26.61-.39l.27-.2.49-.42c.67-.56,1.37-1.09,2.09-1.58,1.42-.97,2.96-1.75,4.57-2.34.38-.13.75-.26,1.12-.37l.54-.17.63-.17c1.22-.33,2.5-.3,3.7.08,1.59.52,3.05,1.38,4.27,2.53.97.86,1.84,1.82,2.62,2.85.19.25.34.44.54.75.2.29.39.59.55.9.3.56.54,1.15.73,1.76.52,1.83.59,3.76.22,5.62-.64,2.96-1.71,4.24-2.24,4.09Z"/>
    <path class="st1" d="M448.43,119.71c.1-.69,10.81-7.37,13.61,4.93,2.73,12-9.87,12.19-10,11.86s-3.61-16.79-3.61-16.79Z"/>
    <path class="st4" d="M454.74,131.12s.24.1.63.18c.54.1,1.11-.02,1.57-.32,1.15-.75,1.77-3,1.34-5.16-.2-1.03-.62-2.01-1.25-2.85-.4-.71-1.12-1.18-1.93-1.25-.52-.01-.98.34-1.1.85-.09.37,0,.59,0,.62s-.31-.14-.32-.65c0-.31.11-.62.3-.86.27-.32.66-.52,1.08-.56,1.04-.03,2.03.48,2.6,1.36.74.92,1.25,2.01,1.47,3.17.46,2.43-.26,5-1.88,5.85-.61.34-1.35.38-2,.11-.42-.21-.57-.46-.51-.49Z"/>
    <path class="st0" d="M408.19,206.63c-4.87,2.09-8.69,6.05-10.6,11-3.31,8.38-17.69,59.39-17.69,59.39l-30,3.85-2.27,27.72c8.68,2.26,17.53,3.79,26.46,4.56,11.06,1,28.94-.65,33.6-3.26s-.46-102.07-.46-102.07l.96-1.19Z"/>
    <path class="st9" d="M414.27,199.06c9.5,10.79,34.46-11.09,45.57-28.48l-35.74,167.85-6.1-1.49-3.73-137.88Z"/>
    <path class="st0" d="M413.53,191.71l-2.3,10.9-8.55,7.74c-.11,14.24,7.59,42.68,5.67,48.38-2.73,8.15-3.82,16.59-.55,28.47,1.67,6.08,11.78,49.74,11.78,49.74,0,0-2.9,114.25-2.58,115.77h23.24l-22.69-152-.87-95.21-3.15-13.79Z"/>
    <path class="st0" d="M562.62,380.27c-7.2-18-33.83-64.06-33.83-64.06,0,0-2.16-16.19-4-51.82s-17.23-75.57-20.47-81.68-39.24-12.12-39.24-12.12l-6.3-9.17s-13.42,35.29-14.1,36.29-15.09,43.36-16.53,55.24c-1.44,11.88-5.47,75.86-5.47,75.86l17.56,123.9h130.92s-1.34-54.45-8.54-72.44Z"/>
    <path class="st3" d="M441.36,375.79l65.12-7.35h.23v.23c1.85,19.93,4,43.59,6.4,68.88.26,2.79.51,5.55.77,8.3v.27h-.19l-52.35,1.2h-.18l-.05-.18c-5.8-21.24-10.67-39.09-14.1-51.64-1.74-6.25-3.11-11.18-4.06-14.56l-1.11-3.84-.31-1c-.08-.22-.13-.32-.12-.32.06.1.12.2.16.31.08.22.2.54.34,1,.29.86.68,2.14,1.18,3.82,1,3.35,2.42,8.27,4.19,14.53,3.53,12.51,8.47,30.34,14.28,51.59l-.23-.17,52.35-1.26-.25.29c-.25-2.75-.5-5.51-.77-8.3-2.32-25.3-4.49-49-6.32-68.89l.24.2-65.22,6.89Z"/>
    <path class="st3" d="M508,384.96c0,.14-14,1.28-31.22,2.54s-31.25,2.17-31.26,2,14-1.28,31.22-2.54,31.25-2.15,31.26-2Z"/>
    <path class="st3" d="M528.31,316.02c-.23.2-.49.37-.77.5-.51.29-1.28.68-2.24,1.12-2.52,1.14-5.16,1.98-7.88,2.5-2.71.49-5.47.72-8.23.68-1.06,0-1.91-.05-2.5-.1-.31,0-.61-.04-.91-.12,1.13-.12,2.26-.17,3.4-.15,2.73-.07,5.46-.34,8.15-.82,2.68-.52,5.3-1.3,7.83-2.33,1.03-.48,2.08-.91,3.15-1.28Z"/>
    <path class="st3" d="M528.79,316.21c-.67.83-1.41,1.6-2.22,2.3-1.43,1.36-3.46,3.18-5.74,5.14l-5.83,5c-.78.72-1.6,1.39-2.46,2,.66-.84,1.4-1.61,2.22-2.3,1.43-1.36,3.46-3.18,5.73-5.15l5.83-5c.77-.72,1.6-1.39,2.47-1.99Z"/>
    <path class="st10" d="M484.3,413.05c-2.51-.91-5.25-1.27-7.57.06-1.84,1.21-2.82,3.37-2.52,5.55.34,2.15,1.4,4.12,3,5.59.97,1.11,2.32,1.82,3.79,2,1.66-.07,3.22-.79,4.35-2,1.27-1.08,2.26-2.45,2.88-4,.61-1.59.44-3.36-.45-4.81-1.08-1.6-3.06-2.3-4.91-2.9"/>
    <path class="st10" d="M475.75,411.71c.21-1.06.1-2.16-.33-3.16-.44-.99-1.31-1.72-2.36-2-1.07-.27-2.2.12-2.87,1-.42.66-.58,1.45-.45,2.22.15,1.4,1.04,2.6,2.34,3.15,1.35.55,2.9.05,3.67-1.19"/>
    <path class="st10" d="M486.93,412.23c1.08-.02,2.12-.37,3-1,.89-.63,1.44-1.63,1.51-2.72.04-1.1-.57-2.13-1.56-2.61-.74-.28-1.54-.28-2.28,0-1.33.43-2.33,1.55-2.61,2.92-.27,1.44.54,2.85,1.91,3.36"/>
    <path class="st10" d="M492.39,415.71c.75,0,1.48-.23,2.09-.66.6-.45.96-1.14,1-1.88.03-.76-.39-1.47-1.08-1.8-.51-.19-1.06-.19-1.57,0-.92.3-1.6,1.06-1.8,2-.17.99.38,1.96,1.32,2.32"/>
    <path class="st10" d="M480.8,410.4c1.18-.48,2.2-1.31,2.9-2.38.7-1.08.87-2.42.47-3.65-.44-1.22-1.55-2.08-2.85-2.17-.92.01-1.81.37-2.49,1-1.28,1.06-1.88,2.72-1.59,4.35.36,1.68,1.85,2.87,3.56,2.85"/>
    <path class="st3" d="M428.11,285.71c0-.1.03-.2.07-.29.06-.22.15-.5.25-.86.25-.78.59-1.88,1-3.27.92-2.88,2.24-7,3.88-12.05l13-39.93h0c.1-.7.21-1.45.31-2.21,1-6.77,1.88-13.28,2.74-19.33v-.06h.05l11.92-13.34-.05.11,2.66-17.39c.32-2,.58-3.64.76-4.77.09-.53.16-.94.21-1.25.02-.14.06-.28.1-.42.02.14.02.29,0,.43,0,.31-.09.73-.15,1.25-.15,1.14-.37,2.75-.65,4.8-.6,4.18-1.45,10.14-2.48,17.41v.06h0l-11.86,13.4.06-.13c-.85,6.05-1.76,12.56-2.71,19.33-.11.76-.21,1.52-.31,2.22h0c-5.18,15.63-9.83,29.69-13.2,39.88-1.7,5-3.07,9.14-4,12-.48,1.38-.85,2.47-1.12,3.24-.12.35-.22.63-.3.84-.13.2-.17.33-.18.33Z"/>
    <path class="st3" d="M416.95,298.12c-.01-.07-.01-.13,0-.2,0-.16-.07-.35-.11-.59-.09-.56-.21-1.32-.36-2.28-.31-2-.74-4.91-1.28-8.48-1.05-7.26-2.5-17.33-4.15-28.79v-.07c.36-2.87.74-5.85,1.12-8.9.67-5.21,1.31-10.22,1.9-14.91l.07.2-7.46-7.74-.08-.09v-.11l3.13-17.11c.39-2,.7-3.64.91-4.78.11-.52.2-.94.26-1.26.02-.14.06-.28.11-.42.02.14.02.29,0,.43-.05.33-.11.75-.19,1.27-.19,1.15-.46,2.77-.79,4.8-.72,4.18-1.74,10.07-3,17.15l-.05-.19,7.46,7.71.08.08v.12c-.59,4.69-1.23,9.71-1.88,14.92-.39,3-.77,6-1.13,8.89v-.06l4,28.82c.48,3.58.86,6.47,1.13,8.51.11,1,.21,1.73.27,2.29l.07.59c-.01.13-.02.2-.03.2Z"/>
    <path class="st3" d="M440.22,452.55c-.14,0-3.68-24.07-7.91-53.81s-7.54-53.88-7.4-53.9,3.69,24.08,7.91,53.83,7.54,53.86,7.4,53.88Z"/>
    <polyline class="st1" points="357.68 321.38 377.91 315.56 390.49 344.84 362.31 343.96 357.68 322.57"/>
    <path class="st0" d="M377.91,315.56l16.45,38.3s82.24-23.47,88.12-30.06,18.32-66,20.44-77.55,4.46-58.33-5.41-65.82-19.5-5.85-28.9,4.49c-7.61,8.37-20,56.29-24.45,74.19-1.09,4.41-1.38,8.97-.86,13.48l.87,7.49s-7.75,7.05-8.22,13.63l-58.04,21.85Z"/>
    <path class="st3" d="M457.68,210.47s-.1.42-.31,1.23-.55,2-1,3.6c-.87,3.16-2.14,7.81-3.78,13.78l-6,21.74c-.59,2.11-1.19,4.3-1.82,6.56-.69,2.3-1.16,4.67-1.39,7.06-.26,2.53-.26,5.08,0,7.61.31,2.61.63,5.28.94,8v.1l-.07.07c-1.91,1.81-3.62,3.82-5.09,6-1.63,2.22-2.68,4.81-3.06,7.54v.13l-.12.05-58,21.89.14-.33,16.46,38.29-.31-.14c6.78-2,14-4.06,21.21-6.24,14.12-4.24,27.88-8.5,41.05-13,6.58-2.25,13-4.5,19.17-7.14,1.53-.65,3-1.36,4.47-2.15.72-.38,1.39-.84,2-1.37.27-.28.51-.6.72-.93.2-.35.41-.69.59-1.05,1.36-2.91,2.51-5.92,3.44-9,1.92-6.09,3.52-12.11,5-18s2.85-11.58,4.12-17.12c2.53-11.08,4.77-21.43,6.6-30.91,1.54-8.55,2.64-17.18,3.3-25.85.56-6.54.63-13.11.23-19.66-.42-5.38-1.36-9.52-2.63-12.07-.58-1.33-1.45-2.51-2.55-3.45l.83.72c.25.27.53.63.87,1.05.35.52.67,1.07.95,1.63,1.3,2.55,2.28,6.72,2.73,12.1.44,6.56.4,13.15-.14,19.7-.63,8.68-1.71,17.32-3.23,25.89-1.81,9.5-4,19.86-6.54,31-1.26,5.54-2.61,11.26-4.09,17.14s-3.09,11.9-5,18c-.93,3.11-2.08,6.15-3.45,9.1-.19.37-.41.73-.61,1.09-.23.36-.49.69-.79,1-.63.57-1.33,1.06-2.08,1.46-1.46.8-3,1.52-4.51,2.18-6.17,2.65-12.62,4.91-19.2,7.17-13.18,4.47-26.94,8.74-41.07,13-7.26,2.18-14.44,4.29-21.22,6.23l-.22.07-.09-.21-16.45-38.32-.1-.24.25-.09,58-21.82-.14.19c.39-2.8,1.46-5.46,3.14-7.73,1.5-2.18,3.23-4.19,5.16-6l-.06.17c-.31-2.74-.61-5.41-.92-8-.26-2.55-.26-5.13,0-7.68.24-2.41.72-4.8,1.43-7.12l1.83-6.55c2.37-8.45,4.41-15.75,6.08-21.72l3.88-13.75c.44-1.57.79-2.76,1-3.58s.45-1.32.45-1.32Z"/>
    <path class="st3" d="M446.68,302.48c-1.27-2.01-2.83-3.82-4.62-5.38-1.91-1.42-4.02-2.55-6.26-3.35.72.02,1.42.17,2.08.45,3.29,1.13,6.09,3.38,7.91,6.35.41.59.71,1.24.89,1.93Z"/>
    <path class="st3" d="M465.08,286.94c-.08.06-.83-1.11-2.43-2.63-4.21-4.04-10.11-5.8-15.85-4.73-2.17.4-3.44,1-3.48.88.27-.19.56-.34.87-.45.82-.33,1.67-.6,2.54-.79,5.86-1.3,11.98.52,16.18,4.82.62.64,1.19,1.32,1.69,2.06.2.26.36.54.48.84Z"/>
    <path class="st10" d="M376.33,357.12c-11.18,0-26.67-3.87-46.06-11.51-14.35-5.66-25.62-11.4-25.74-11.45l1.82-3.57c.44.23,44.42,22.53,70,22.53,10.1,0,17.92-4.88,23.23-14.5,2.53-4.68,4.26-9.75,5.11-15,.27-1.6,6.3-37.57,8.37-47.17,1.08-5,4-13.22,6.76-21.16,2.56-7.27,5.2-14.78,5.73-18,1.09-6.53.3-20.8.3-20.94l4-.23c0,.61.82,14.86-.34,21.82-.59,3.55-3.17,10.89-5.9,18.65s-5.6,15.92-6.63,20.68c-2,9.51-8.26,46.54-8.32,46.92s-4.54,32.93-32.33,32.93Z"/>
    <g class="st6">
      <path d="M376.33,357.12c-11.18,0-26.67-3.87-46.06-11.51-14.35-5.66-25.62-11.4-25.74-11.45l1.82-3.57c.44.23,44.42,22.53,70,22.53,10.1,0,17.92-4.88,23.23-14.5,2.53-4.68,4.26-9.75,5.11-15,.27-1.6,6.3-37.57,8.37-47.17,1.08-5,4-13.22,6.76-21.16,2.56-7.27,5.2-14.78,5.73-18,1.09-6.53.3-20.8.3-20.94l4-.23c0,.61.82,14.86-.34,21.82-.59,3.55-3.17,10.89-5.9,18.65s-5.6,15.92-6.63,20.68c-2,9.51-8.26,46.54-8.32,46.92s-4.54,32.93-32.33,32.93Z"/>
    </g>
    <path class="st0" d="M425.16,217.6c-2.49.03-4.9-.91-6.7-2.64-6.89-6.83-14.23-35.2-14.54-36.4l1.93-.5c.08.29,7.52,29,14,35.48,1.78,1.66,4.24,2.39,6.63,1.95,3.26-.51,6.17-2.81,8-6.31,5.32-10.25,19.82-80.24,20-80.95l2,.41c-.6,2.89-14.7,71-20.15,81.46-2.11,4.07-5.56,6.76-9.45,7.37-.57.09-1.14.14-1.72.13Z"/>
    <path class="st0" d="M453.68,133.99c.14-2.81-.54-5.09-1-7.86-.2-1.17.17-3.16,1.15-3.84s2.48.15,2.9,1.3c.35,1.35.41,2.75.19,4.12-.45,3.32-1.39,4.29-1.93,6.28"/>
    <path class="st10" d="M426.15,218.16h-.62c-4.48-.18-8.51-2.79-10.51-6.8-2.53-5-5.83-11.74-7.18-15.43l3.75-1.37c1,2.73,3.49,8.06,7,15,1.36,2.73,4.09,4.5,7.13,4.62,2.99.17,5.84-1.3,7.42-3.84l.11-.18c.08-.15.43-1,1.66-4.52l.14-.4c.72-2,2.23-6.54,4.25-14l3.86,1c-2.05,7.63-3.6,12.27-4.35,14.35l-.13.38c-1.52,4.32-1.79,4.92-2,5.25l-.16.26c-2.24,3.56-6.16,5.71-10.37,5.68Z"/>
    <g class="st6">
      <path d="M426.15,218.16h-.62c-4.48-.18-8.51-2.79-10.51-6.8-2.53-5-5.83-11.74-7.18-15.43l3.75-1.37c1,2.73,3.49,8.06,7,15,1.36,2.73,4.09,4.5,7.13,4.62,2.99.17,5.84-1.3,7.42-3.84l.11-.18c.08-.15.43-1,1.66-4.52l.14-.4c.72-2,2.23-6.54,4.25-14l3.86,1c-2.05,7.63-3.6,12.27-4.35,14.35l-.13.38c-1.52,4.32-1.79,4.92-2,5.25l-.16.26c-2.24,3.56-6.16,5.71-10.37,5.68Z"/>
    </g>
    <circle class="st0" cx="298.24" cy="328.75" r="9.68"/>
    <circle class="st3" cx="298.78" cy="329.31" r="5.51"/>
    <path class="st9" d="M292.14,338.43s-2.12-5,0-6.82,24.3-7.81,24.3-7.81c0,0,15.64-4.52,17.31-4.73s22,1.15,22,1.15c0,0,11.54-3.18,13.21-3.18s-.76,10.62-1.06,14.12-2.58,5.59-.46,7.27,7.76,6.41,7.76,6.41c0,0-5.94,1.65-10,1.2-2.41-.26-4.77-.87-7-1.83,0,0-8.35,6.23-12.91,7.14s-19.73,5.92-22.77,5.47-5.31-4.56-5.31-4.56c0,0-7.14,1.06-8.51-1.82-.79-1.65-1.4-3.38-1.82-5.16l2.89-1.83s-3.8,1.07-5.47-1.67c-.95-1.46-1.58-3.11-1.82-4.84,0,0-7.8,2.24-10.34,1.49Z"/>
    <path class="st3" d="M406.11,247.1c0,.2-.03.39-.09.58-.09.43-.21.98-.36,1.65-.16.71-.36,1.58-.54,2.6s-.44,2.18-.6,3.48-.41,2.7-.55,4.23-.28,3.16-.4,4.88c-.39,7.48.19,14.98,1.71,22.32.38,1.69.72,3.29,1.14,4.77s.8,2.85,1.19,4.1.79,2.36,1.13,3.34.65,1.81.93,2.49.45,1.16.6,1.57c.09.18.15.37.18.57-.1-.17-.19-.35-.27-.53l-.7-1.53c-.3-.67-.66-1.49-1-2.47s-.81-2.07-1.2-3.33-.87-2.61-1.26-4.1-.79-3.09-1.18-4.78c-.78-3.68-1.32-7.41-1.63-11.16-.27-3.75-.3-7.52-.1-11.28.13-1.73.23-3.38.45-4.91s.39-2.95.61-4.24.48-2.46.69-3.48.43-1.88.63-2.59l.45-1.63c.03-.19.09-.38.17-.55Z"/>
  </g>
</svg>