<?xml version="1.0" encoding="UTF-8"?>
<svg id="Layer_1" xmlns="http://www.w3.org/2000/svg" version="1.1" viewBox="0 0 750 500">
  <!-- Generator: Adobe Illustrator 30.0.0, SVG Export Plug-In . SVG Version: 2.1.1 Build 123)  -->
  <defs>
    <style>
      .st0 {
        fill: #e0e0e0;
      }

      .st1 {
        fill: #4462e4;
      }

      .st2 {
        fill: #ffbe9d;
      }

      .st3 {
        fill: #ebebeb;
      }

      .st4 {
        fill: #263238;
      }

      .st5 {
        fill: #eb996e;
      }

      .st6 {
        fill: #4468f8;
      }

      .st7 {
        fill: #fff;
      }

      .st8 {
        fill: #fafafa;
      }

      .st9 {
        fill: #f5f5f5;
      }

      .st10 {
        fill: #455a64;
      }
    </style>
  </defs>
  <g id="freepik--Window--inject-37">
    <polygon class="st7" points="622.99 262.13 205.67 262.13 206.52 25.62 623.83 25.62 622.99 262.13"/>
    <ellipse class="st4" cx="213.76" cy="31.89" rx="1.95" ry="1.92"/>
    <ellipse class="st4" cx="221.77" cy="31.89" rx="1.95" ry="1.92"/>
    <ellipse class="st4" cx="229.8" cy="31.89" rx="1.95" ry="1.92"/>
    <path class="st4" d="M622.99,41.54c0,.13-93.25.23-208.26.23s-208.24-.1-208.24-.23,93.23-.22,208.27-.22,208.23.1,208.23.22h0Z"/>
    <rect class="st9" x="205.67" y="59.71" width="29.8" height="202.71"/>
    <rect class="st3" x="234.88" y="59.42" width="30.52" height="202.71"/>
    <rect class="st9" x="265.39" y="59.42" width="29.8" height="202.71"/>
    <rect class="st3" x="294.59" y="59.42" width="30.52" height="202.71"/>
    <rect class="st9" x="325.1" y="59.42" width="29.8" height="202.71"/>
    <rect class="st3" x="354.31" y="59.42" width="30.52" height="202.71"/>
    <rect class="st9" x="384.83" y="59.42" width="29.8" height="202.71"/>
    <rect class="st3" x="414.02" y="59.42" width="30.52" height="202.71"/>
    <rect class="st9" x="444.54" y="59.42" width="29.8" height="202.71"/>
    <rect class="st3" x="473.75" y="59.42" width="30.52" height="202.71"/>
    <rect class="st9" x="504.26" y="59.42" width="29.8" height="202.71"/>
    <rect class="st3" x="533.46" y="59.42" width="30.52" height="202.71"/>
    <rect class="st9" x="563.98" y="59.42" width="29.8" height="202.71"/>
    <rect class="st3" x="593.18" y="59.42" width="29.8" height="202.71"/>
    <path class="st6" d="M270.04,261.53c-.12,0-.22-45.27-.22-101.04s.1-101.06.22-101.06.22,45.27.22,101.06-.06,101.04-.22,101.04Z"/>
    <rect class="st6" x="222.15" y="88.65" width="86.48" height="25.34"/>
    <ellipse class="st7" cx="235.71" cy="101.87" rx="7.97" ry="7.83"/>
    <path class="st6" d="M236.36,101.98c.67-.27,1.11-.93,1.09-1.65.19-.95-.44-1.85-1.38-2.04s-1.85.44-2.04,1.38c-.05.22-.05.43,0,.65,0,.72.42,1.38,1.09,1.68-2.61.4-2.5,3.2-2.5,3.2h6.23s.14-2.83-2.48-3.22h-.01Z"/>
    <path class="st7" d="M298.47,101.55c0,.13-11.03.23-24.64.23s-24.64-.1-24.64-.23,11.03-.22,24.64-.22,24.64.1,24.64.22Z"/>
    <path class="st6" d="M484.38,193.13h-17.29c-17.65,0-32.01-14.11-32.01-31.46v-31.81c0-16.87-13.93-30.59-31.13-30.59l-95.33.47v-.87l95.32-.47c17.65,0,32.01,14.11,32.01,31.46v31.81c0,16.87,13.93,30.59,31.14,30.59h17.29v.87h0Z"/>
    <rect class="st7" x="473.25" y="181.58" width="66.59" height="25.34"/>
    <path class="st6" d="M540.27,207.37h-67.46v-26.22h67.46v26.22ZM473.68,206.5h65.72v-24.47h-65.72v24.47h0Z"/>
    <ellipse class="st6" cx="486.8" cy="194.83" rx="7.97" ry="7.83"/>
    <path class="st7" d="M487.46,194.93c.67-.28,1.12-.93,1.12-1.66.19-.95-.44-1.85-1.38-2.04-.95-.19-1.85.44-2.04,1.38-.05.22-.05.43,0,.65,0,.73.42,1.4,1.09,1.68-2.61.38-2.5,3.2-2.5,3.2h6.21s.12-2.78-2.49-3.21h-.01Z"/>
    <path class="st6" d="M523.12,194.49c-.29.06-.57.09-.87.08-.58,0-1.42.05-2.44.07-2.06.05-4.92.07-8.08.07s-6,0-8.08-.07c-1.04,0-1.87-.05-2.44-.07-.29,0-.58-.02-.87-.08.29-.07.57-.09.87-.08l2.44-.08c2.06,0,4.92-.06,8.08-.06s6,0,8.08.06l2.44.08c.29,0,.58.01.87.08Z"/>
    <rect class="st7" x="555.78" y="140.12" width="25.34" height="56.54" transform="translate(398.18 736.28) rotate(-89.81)"/>
    <path class="st4" d="M597.11,181.58l-57.41-.15.09-26.22,57.4.19-.08,26.18ZM540.57,180.56l55.67.19.08-24.47-55.67-.19-.08,24.47h0Z"/>
    <path class="st4" d="M561.21,168.92c-.02,4.31-3.54,7.76-7.83,7.73s-7.76-3.54-7.73-7.83c.02-4.29,3.51-7.75,7.81-7.73,4.31.05,7.76,3.54,7.76,7.83h-.01Z"/>
    <path class="st7" d="M554.06,169.01c.65-.29,1.08-.94,1.07-1.65,0-.92-.74-1.68-1.68-1.68s-1.68.74-1.68,1.68c-.01.72.4,1.38,1.06,1.68-2.61.38-2.48,3.2-2.48,3.2h6.1s.14-2.82-2.41-3.22h.01Z"/>
    <path class="st4" d="M590.43,168.72c-.3.07-.63.1-.94.08-.61,0-1.47,0-2.55.06-2.16,0-5.13.05-8.42,0s-6.27-.05-8.44-.1l-2.55-.08c-.31,0-.64-.01-.94-.09.31-.06.63-.08.94-.08.61,0,1.48-.05,2.56-.07,2.15,0,5.13-.05,8.42,0s6.27.05,8.42.1c1.08,0,1.95.05,2.55.08.31,0,.64.02.94.09h0Z"/>
    <rect class="st7" x="308.71" y="131.54" width="97.76" height="25.34"/>
    <path class="st10" d="M406.91,157.31h-98.64v-26.22h98.64v26.22ZM309.15,156.44h96.89v-24.47h-96.89v24.47Z"/>
    <path class="st10" d="M395.55,144.44c0,.12-11.98.22-26.75.22s-26.75-.1-26.75-.22,11.97-.22,26.75-.22,26.75.1,26.75.22Z"/>
    <ellipse class="st10" cx="323.72" cy="144.44" rx="7.97" ry="7.83"/>
    <path class="st7" d="M324.37,144.56c.66-.29,1.09-.93,1.09-1.65.19-.95-.44-1.85-1.38-2.04-.95-.19-1.85.44-2.04,1.38-.05.22-.05.43,0,.65-.02.73.41,1.4,1.09,1.68-2.61.4-2.51,3.2-2.51,3.2h6.23s.14-2.83-2.47-3.22h-.01Z"/>
    <rect class="st7" x="386.05" y="157.42" width="86.48" height="25.34"/>
    <path class="st4" d="M472.96,183.17h-87.34v-26.19h87.34v26.19ZM386.48,182.31h85.6v-24.45h-85.6v24.45Z"/>
    <ellipse class="st4" cx="399.61" cy="170.65" rx="7.97" ry="7.83"/>
    <path class="st7" d="M400.25,170.76c.66-.28,1.09-.93,1.09-1.65.19-.95-.44-1.85-1.38-2.04-.95-.19-1.85.44-2.04,1.38-.05.22-.05.43,0,.65,0,.72.42,1.38,1.09,1.68-2.61.4-2.5,3.2-2.5,3.2h6.23s.14-2.83-2.48-3.22h-.01Z"/>
    <path class="st4" d="M462.37,170.33c0,.13-11.03.22-24.64.22s-24.64-.09-24.64-.22,11.05-.22,24.64-.22,24.64.09,24.64.22Z"/>
    <path class="st4" d="M622.99,262.39c0-1.4.26-91.35.67-236.81l.17.17-417.28.05h0l.22-.22c-.3,83.77-.61,163.85-.87,236.81l-.21-.21,417.31.21-417.31.22h-.22v-.22c.26-72.94.54-153.03.87-236.81v-.22h.26l417.28.05h.17v.17c-.67,145.48-1.07,235.44-1.07,236.81h0Z"/>
  </g>
  <g id="freepik--background-complete--inject-217">
    <path class="st3" d="M651.63,318.66s-6.61-6.54-19.5,9.8c-6.75,8.28-12.96,16.98-18.57,26.07,0,0-3.21,3.33-5.33.31-2.11-3.02-4.3-10.8-9.01-10.41s-7.42,5.25-8.05,12.99c-.63,7.74-2.62,24.67-2.82,26.2s-1.41,3.51-3.23,1.69-10.97-17.3-18.09-12.53-5.32,26.68-5.16,29.06-.49,3.29-1.68,3.62-3.79-5.16-6.6-9.46-6.8-8.83-10.66-5.71-7.97,18.44,1.79,46.6l5.37,12.69,13.75,1.96c29.71,2.38,43.53-5.41,45.57-9.94s-3.31-7.26-8.19-8.9-10.86-2.82-10.81-4.02.73-2.07,3.09-2.52,23.97-4.23,26.79-12.28-14.45-13.1-16.67-14.37c-2.21-1.27-.58-3,.83-3.55s17.31-6.74,24.66-9.28,11.39-6.23,10.56-11.05c-.83-4.82-8.88-4.81-12.34-6.12s-1.03-5.23-1.03-5.23c7.43-7.68,14.34-15.86,20.68-24.46,12.59-16.58,4.38-21.42,4.38-21.42"/>
    <path class="st0" d="M640.01,333.22c-.06.13-.14.24-.23.35l-.72,1.02c-.68.9-1.62,2.19-2.82,3.82-2.47,3.31-6.06,8.08-10.55,13.94-8.95,11.73-21.47,27.83-35.38,45.54l-35.56,45.42-10.73,13.8-2.93,3.74-.78.96c-.18.21-.27.32-.28.31.06-.13.14-.24.23-.35l.72-1,2.82-3.84c2.45-3.31,6.06-8.08,10.53-13.94,8.95-11.73,21.49-27.83,35.4-45.54,13.92-17.71,26.42-33.75,35.55-45.42,4.5-5.79,8.16-10.49,10.73-13.79,1.24-1.59,2.23-2.82,2.92-3.75l.79-.96c.17-.21.27-.32.28-.31h0Z"/>
    <path class="st0" d="M601.84,355.45c.31,1.21.48,2.45.52,3.69.21,2.28.39,5.46.52,8.97.13,3.51.18,6.42.25,8.97.1,1.24.1,2.48,0,3.72-.31-1.21-.48-2.45-.51-3.69-.18-2.3-.34-5.47-.47-8.97s-.21-6.42-.31-8.97c-.11-1.24-.11-2.48-.01-3.72Z"/>
    <path class="st0" d="M604.32,381.3c4.82-.78,9.69-1.31,14.56-1.59,8.05-.66,14.61-1.04,14.62-.85-4.82.78-9.69,1.3-14.56,1.58-8.05.68-14.59,1.06-14.62.86h0Z"/>
    <path class="st0" d="M580.93,408.48c1.27.1,2.52.3,3.75.61,2.31.44,5.48,1.04,9.01,1.61,3.52.56,6.73.99,9.05,1.28,1.27.1,2.52.31,3.76.61-1.27.11-2.54.08-3.81-.08-2.35-.17-5.64-.51-9.12-1.09s-6.73-1.25-9.01-1.82c-1.25-.24-2.47-.62-3.64-1.11h0Z"/>
    <path class="st0" d="M573.54,385.61c.59,1.02,1.06,2.1,1.41,3.23.75,2.04,1.75,4.86,2.82,7.99s1.97,5.98,2.61,8.07c.39,1.1.69,2.24.87,3.4-.59-1.03-1.07-2.11-1.41-3.24-.76-2.03-1.75-4.85-2.82-7.98-1.07-3.13-1.97-5.99-2.61-8.07-.41-1.1-.7-2.24-.87-3.4h0Z"/>
    <path class="st0" d="M549.84,406.98c.68,1.34,1.25,2.74,1.72,4.16.97,2.61,2.27,6.22,3.67,10.22,1.4,4,2.61,7.64,3.47,10.28.54,1.41.94,2.86,1.23,4.34-.69-1.35-1.27-2.78-1.72-4.23-.97-2.59-2.27-6.2-3.67-10.21-1.4-4-2.62-7.64-3.47-10.29-.52-1.38-.94-2.82-1.23-4.27h0Z"/>
    <path class="st0" d="M559.88,435.23c1.61.1,3.2.3,4.78.62,2.93.47,7.05,1.1,11.49,1.69,4.44.59,8.57,1.04,11.52,1.41,1.61.1,3.2.32,4.78.63-1.61.1-3.21.06-4.82-.11-2.98-.2-7.05-.56-11.58-1.17-4.53-.61-8.57-1.31-11.49-1.89-1.59-.27-3.16-.66-4.68-1.18h0Z"/>
  </g>
  <g id="freepik--Device--inject-217">
    <polygon class="st4" points="423.66 341.55 376.87 457.28 292.48 457.28 292.48 462.51 543.83 462.51 595.26 341.55 423.66 341.55"/>
    <path class="st8" d="M495.2,409.88c-1.69,5.82-6.63,9.5-11.03,8.23s-6.58-7.05-4.89-12.87c1.69-5.82,6.64-9.5,11.04-8.23s6.58,7.05,4.88,12.87h0Z"/>
  </g>
  <g id="freepik--background-complete--inject-37">
    <rect class="st7" x="574.15" y="200.39" width="144.96" height="42.82"/>
    <path class="st0" d="M719.69,243.79h-146.12v-43.98h146.12v43.98ZM574.73,242.63h143.79v-41.66h-143.79s0,41.66,0,41.66Z"/>
    <circle class="st3" cx="596.67" cy="222.74" r="13.23"/>
    <path class="st7" d="M597.74,222.94c1.11-.5,1.8-1.59,1.8-2.8.14-1.57-1.01-2.96-2.58-3.1-1.57-.14-2.96,1.01-3.1,2.58v.51c-.02,1.22.69,2.34,1.8,2.84-4.38.65-4.17,5.4-4.17,5.4h10.33s.23-4.78-4.1-5.43Z"/>
    <path class="st0" d="M702.44,222.22c0,.17-18.62.3-41.7.3s-41.69-.13-41.69-.3,18.62-.3,41.69-.3,41.7.12,41.7.3Z"/>
    <path class="st3" d="M59.21,351.7c-5.38-2.78-11.71-3.14-17.66-2.15-3.21.54-6.55,1.49-8.74,3.9s-2.58,6.64-.08,8.72c1.62,1.09,3.56,1.59,5.5,1.4,4.65-.06,9.84-.88,13.58,1.93,2.13,1.61,3.49,4.27,6.1,5.05,2.62.61,5.32-.59,6.62-2.94,1.21-2.34,1.48-5.05.74-7.59-.62-3.56-2.86-6.63-6.06-8.31Z"/>
    <path class="st3" d="M71.47,327.93c-3.28,4.65-9.67,3.14-12.64.28s-4.21-6.98-5.35-10.98c-2.59-9.04-5.22-18.54-3.29-27.75.45-2.78,1.66-5.39,3.49-7.54,1.91-2.14,4.82-3.11,7.63-2.54,3.22.85,5.22,4,6.67,6.98,4.26,8.85,6.49,18.55,6.54,28.38,0,4.57-.52,9.38-3.11,13.15"/>
    <path class="st3" d="M80.5,334.66c-3.57-4.24-4.25-10.41-2.66-15.72s5.18-9.82,9.31-13.5c4.86-4.33,10.53-7.67,16.67-9.83,2.37-.97,4.93-1.4,7.49-1.28,2.59.15,4.95,1.58,6.28,3.8,1.76,3.35.08,7.4-1.75,10.72-3.2,5.84-6.87,11.41-10.95,16.67-3.28,4.22-6.98,8.4-12.03,10.31-5.05,1.91-10.2,1.69-12.8-1.78"/>
    <path class="st0" d="M71.69,398.72c-.17-.7-.27-1.41-.29-2.13-.15-1.55-.35-3.49-.57-5.82-.29-2.86-.72-5.72-1.31-8.54-.76-3.43-1.79-6.81-3.1-10.08-1.28-3.26-3.01-6.33-5.14-9.11-1.75-2.27-3.97-4.12-6.5-5.42-1.72-.85-3.57-1.43-5.48-1.71-.72-.03-1.43-.13-2.13-.3.72-.07,1.44-.07,2.16,0,1.98.15,3.91.65,5.71,1.49,2.68,1.27,5.03,3.13,6.87,5.46,2.22,2.83,4.03,5.96,5.33,9.31,1.31,3.32,2.35,6.75,3.08,10.24.56,2.85.95,5.75,1.16,8.65.19,2.47.26,4.47.29,5.82.06.72.02,1.44-.08,2.15Z"/>
    <path class="st0" d="M71.29,394.25c-.05-.34-.05-.66,0-1v-2.83c0-2.46,0-6-.12-10.39-.22-8.78-.98-18.22-2.43-31.54-1.38-12.52-3.25-27.1-5.2-36.57-.42-2.15-.84-4.1-1.25-5.82s-.77-3.16-1.07-4.33l-.66-2.75c-.09-.31-.15-.65-.17-.98.16.29.28.59.35.92.21.72.49,1.62.81,2.71s.74,2.64,1.16,4.33.91,3.63,1.36,5.82c2.43,11.21,4.26,22.53,5.47,33.93,1.45,13.35,2.12,25.49,2.18,34.3,0,4.4,0,7.96-.15,10.41-.07,1.16-.13,2.08-.17,2.83,0,.33-.03.64-.1.95h0Z"/>
    <path class="st0" d="M71.24,370.81c-.08-.99-.08-1.97,0-2.96.12-1.9.37-4.65.91-8.01.65-3.92,1.52-7.81,2.61-11.64,1.27-4.74,2.9-9.37,4.89-13.86,3.39-8.25,8.25-15.8,14.34-22.32,1.06-1.12,2.19-2.16,3.37-3.13.51-.44.97-.87,1.43-1.16l1.31-.9c.78-.59,1.62-1.13,2.49-1.58.14.19-3.49,2.33-8.14,7.27-5.89,6.56-10.61,14.08-13.96,22.24-1.97,4.42-3.63,8.98-4.98,13.63-1.11,3.8-2.01,7.66-2.72,11.55-.62,3.33-.97,6.05-1.16,7.94-.05.98-.17,1.95-.37,2.92Z"/>
    <polygon class="st0" points="93.88 412.15 91.54 444.32 50.21 444.32 47.86 412.15 93.88 412.15"/>
    <rect class="st0" x="42.93" y="399.46" width="54.96" height="12.68"/>
    <polygon class="st3" points="97.87 443.09 97.87 446.61 95.3 446.61 43.83 446.61 43.83 443.09 97.87 443.09"/>
    <polygon class="st0" points="92.76 452.79 95.3 446.61 45.8 446.61 48.76 452.79 92.76 452.79"/>
    <path class="st9" d="M48.63,422.67s0,.1.19.29l.62.83c.59.74,1.4,1.78,2.41,3.08l.1.13.1-.14,5.92-8.14h-.35c1.77,2.49,3.72,5.27,5.82,8.25l.19.26.2-.24,6.91-8.21h-.4l.37.48,6.18,7.75.21.26.19-.27,5.82-8.25h-.34l7.17,8.14.13.15.1-.16,2.25-3.78.57-1c.07-.12.14-.23.17-.36-.09.09-.16.2-.23.31l-.64.98-2.33,3.7h.22l-7.05-8.28-.19-.21-.15.23-5.89,8.2h.4l-6.16-7.75-.38-.48-.2-.24-.2.23-6.89,8.24h.38l-5.88-8.2-.17-.24-.17.24-5.82,8.27h.21c-1.06-1.26-1.9-2.27-2.5-3l-.67-.78-.22-.27h0Z"/>
    <path class="st9" d="M47.28,411.94c0,.14,10.36.26,23.13.26s23.13-.12,23.13-.26-10.36-.26-23.13-.26-23.13.12-23.13.26Z"/>
    <path class="st9" d="M45.24,446.95c0,.15,11.25.26,25.13.26s25.13-.1,25.13-.26-11.25-.26-25.13-.26-25.13.12-25.13.26Z"/>
    <rect class="st7" x="83.52" y="144.98" width="144.96" height="42.82"/>
    <path class="st0" d="M229.06,188.38H82.94v-43.98h146.12v43.98ZM84.1,187.22h143.79v-41.66H84.1s0,41.66,0,41.66Z"/>
    <circle class="st3" cx="106.05" cy="167.33" r="13.23"/>
    <path class="st7" d="M107.12,167.53c1.11-.5,1.8-1.59,1.8-2.8.14-1.57-1.01-2.96-2.58-3.1-1.57-.14-2.96,1.01-3.1,2.58v.51c-.02,1.22.69,2.34,1.8,2.84-4.38.65-4.17,5.4-4.17,5.4h10.33s.23-4.78-4.1-5.43Z"/>
    <path class="st0" d="M211.82,166.81c0,.17-18.62.3-41.7.3s-41.69-.13-41.69-.3,18.62-.3,41.69-.3,41.7.12,41.7.3Z"/>
  </g>
  <g id="freepik--Character--inject-217">
    <path class="st1" d="M229.78,372.93l-42.57-42.76,21.4-39.31c21.4-27.41,66.72-25.65,66.72-25.65,22.36-1.52,44.81-.14,66.82,4.1,36,7.05,33.09,30.82,33.09,30.82l4.82,88.22,5.17,71.84-132.75,2.68-22.71-89.89"/>
    <path class="st1" d="M301.29,458.67l-118.9,1.41c-21.35.25-38.84-16.85-39.1-38.2-.07-5.85,1.2-11.65,3.69-16.93l50.84-94.28,46.32,31.3-31.6,65.52,96.24,1.72-7.5,49.46h0Z"/>
    <path class="st1" d="M371.04,285.76l95.41,147.31-55.67,3.64s-33.25-52.38-32.5-51.31c1.33,1.97-7.25-99.64-7.25-99.64h0Z"/>
    <path class="st4" d="M241.75,350.44c0-.25.04-.52.13-.76.14-.56.3-1.27.51-2.14.44-1.85,1.09-4.53,1.75-7.85s1.41-7.33,1.88-11.79c.58-4.82.58-9.71,0-14.54-.76-4.79-2.44-9.39-4.92-13.55-2-3.43-4.36-6.63-7.05-9.55-1.82-1.99-3.74-3.88-5.78-5.64-.78-.61-1.52-1.25-2.23-1.95.23.11.45.25.65.41.39.3,1.03.7,1.76,1.31,2.11,1.68,4.12,3.5,5.98,5.46,2.78,2.89,5.22,6.11,7.28,9.55,2.57,4.23,4.3,8.91,5.08,13.8.56,4.89.52,9.83-.11,14.71-.48,3.98-1.16,7.91-2.03,11.82-.73,3.34-1.41,6.01-1.99,7.84-.25.92-.48,1.62-.63,2.1-.06.27-.14.52-.25.78h0Z"/>
    <path class="st4" d="M237.91,355.52c-.2.73-.48,1.45-.82,2.13-.56,1.41-1.41,3.3-2.5,5.64-2.16,4.78-5.22,11.35-8.74,18.54-3.52,7.19-6.85,13.63-9.32,18.33-1.24,2.31-2.26,4.23-2.98,5.46-.34.68-.73,1.34-1.18,1.96.25-.72.56-1.42.93-2.09.72-1.41,1.65-3.3,2.82-5.57l9.12-18.33c3.45-7.15,6.6-13.61,8.94-18.44,1.1-2.27,2-4.16,2.71-5.64.28-.69.62-1.35,1.02-1.99Z"/>
    <path class="st4" d="M301.29,458.67v-.97c.07-.68.17-1.62.28-2.82.28-2.51.68-6.08,1.17-10.57,1.04-9.12,2.54-21.95,4.23-37.08l.34.37h-35.12l-61.35-.1-18.61-.11-5.06-.07h-1.78c.16-.01.3-.01.45,0h1.33l5.06-.07,18.61-.11,61.45-.1h35.5v.37c-1.86,15.11-3.43,27.95-4.55,37.05-.56,4.48-1.03,8.05-1.41,10.56-.16,1.18-.28,2.13-.38,2.82l-.11.72s-.03.13-.04.13h0Z"/>
    <path class="st4" d="M213.38,408.54c-.85-.94-1.65-1.93-2.37-2.98-3.81-4.77-8.5-8.74-13.85-11.69-1.14-.55-2.26-1.17-3.33-1.83,1.25.3,2.45.76,3.57,1.41,5.56,2.75,10.38,6.81,14.02,11.83.8.99,1.47,2.09,1.96,3.26h0Z"/>
    <path class="st4" d="M382.04,417.87c-.1-.41-.17-.82-.2-1.23-.1-.86-.23-2.03-.39-3.51-.32-3.05-.76-7.46-1.23-12.92-.97-10.93-2.09-26.04-3.07-42.74s-1.68-31.84-2.07-42.79c-.2-5.48-.34-9.87-.39-12.99,0-1.48,0-2.65-.07-3.52-.03-.41-.03-.82,0-1.23.08.41.13.82.13,1.23,0,.86.11,2.04.2,3.52.16,3.13.37,7.54.63,12.96.52,10.96,1.3,26.07,2.28,42.78.99,16.71,2.03,31.79,2.82,42.74.42,5.4.76,9.87,1,12.94.11,1.41.2,2.65.27,3.51.07.41.1.83.1,1.24h0Z"/>
    <path class="st0" d="M275.9,337.71c0-.65.06-1.3.16-1.93.17-1.34.38-3.13.65-5.33.62-4.65,1.41-11.03,2.45-18.41l.54.34-9.12,6.39-9.28,6.46-.66.47.11-.8c1.13-7.32,2.09-13.63,2.82-18.33.37-2.16.65-3.93.87-5.26.07-.63.21-1.27.39-1.88,0,.65-.06,1.28-.17,1.92-.17,1.33-.38,3.1-.66,5.29-.63,4.62-1.52,10.96-2.54,18.33l-.54-.34,9.26-6.49,9.14-6.36.66-.47-.11.8c-1.09,7.36-2.03,13.73-2.71,18.33-.35,2.19-.63,3.98-.85,5.3-.08.66-.23,1.33-.42,1.97h0Z"/>
    <path class="st0" d="M328.97,343.42c-.51-.41-.99-.85-1.41-1.34-.92-.99-2.16-2.3-3.68-3.91l-12.59-13.65.61-.21c-.3,3.45-.61,7.2-.93,11.1s-.66,7.75-.96,11.28l-.07.82-.54-.61-12.25-13.82-3.5-4.03c-.45-.47-.85-.97-1.18-1.51.51.44.97.9,1.41,1.41l3.64,3.89,12.44,13.63-.61.21c.3-3.51.61-7.32.94-11.28s.65-7.64.94-11.1l.07-.8.54.59,12.41,13.83,3.54,4.05c.44.45.83.93,1.18,1.44h0Z"/>
    <path class="st0" d="M355.67,341.53c-.27.59-.58,1.16-.96,1.69l-2.82,4.54-10.07,15.62-.34-.54,10.94-1.89,11.14-1.88.8-.14-.38.61-10.29,15.31-3.1,4.43c-.34.54-.73,1.06-1.16,1.54.28-.58.59-1.13.96-1.66l2.82-4.51,10.08-15.51.35.54-11.14,1.93-10.98,1.86-.8.13.45-.66,10.28-15.51,3.02-4.44c.37-.51.78-.99,1.2-1.45h0Z"/>
    <path class="st0" d="M320.16,368.86c-.27.59-.59,1.16-.96,1.68l-2.82,4.55-10.05,15.61-.35-.54,10.97-1.89,11.15-1.89.8-.13-.47.66-10.29,15.33-3.03,4.4c-.34.54-.72,1.06-1.16,1.52.28-.58.61-1.13.96-1.66.73-1.13,1.69-2.64,2.82-4.5l10.08-15.51.35.54-11.14,1.93-10.98,1.85-.8.14.45-.68,10.28-15.51c1.24-1.83,2.26-3.33,3.03-4.44.35-.52.73-1,1.16-1.47h0Z"/>
    <path class="st0" d="M396.9,341.22c-.28.58-.61,1.14-.96,1.68l-2.82,4.55-10.05,15.61-.35-.54,10.97-1.89,11.15-1.89.8-.13-.45.66-10.31,15.33c-1.24,1.8-2.26,3.29-3.03,4.38-.34.55-.72,1.06-1.16,1.54.28-.58.61-1.13.97-1.66l2.82-4.5,10.08-15.51.35.54-11.14,1.92-10.98,1.86-.79.14.44-.68,10.28-15.51,3.03-4.44c.34-.52.72-1.02,1.14-1.47Z"/>
    <path class="st0" d="M441.17,412.2c-.51-.38-.97-.8-1.41-1.27l-3.86-3.72-13.27-13,.59-.24c-.11,3.47-.23,7.22-.35,11.12-.13,3.91-.28,7.78-.41,11.28v.82l-.58-.58-12.92-13.18-3.69-3.85c-.47-.44-.89-.9-1.27-1.41.51.38.97.8,1.41,1.27l3.84,3.71,13.11,13-.61.24c.11-3.52.24-7.33.37-11.28.13-3.95.28-7.66.41-11.12v-.8l.56.56,13.07,13.2,3.74,3.86c.47.42.89.9,1.27,1.4h0Z"/>
    <path class="st0" d="M217.2,318.58c-.28.58-.59,1.14-.96,1.68l-2.82,4.55-10.05,15.62-.35-.54,10.97-1.9,11.15-1.88.8-.14-.45.68-10.31,15.31-3.02,4.4c-.34.54-.73,1.04-1.16,1.52.27-.58.59-1.13.96-1.65l2.82-4.51c2.55-3.91,6.05-9.26,10.08-15.51l.35.54-11.14,1.93-10.98,1.86-.79.13.44-.66c4.13-6.2,7.68-11.56,10.28-15.51l3.03-4.44c.34-.52.72-1.02,1.14-1.48h0Z"/>
    <path class="st0" d="M161.45,424.02c.48.42.9.9,1.3,1.41l3.44,4.13,11.69,14.42-.62.17c.51-3.43,1.04-7.15,1.62-11.03s1.14-7.7,1.66-11.18l.11-.8.51.65,11.36,14.55,3.23,4.23c.41.49.78,1.02,1.1,1.57-.47-.44-.89-.9-1.28-1.41l-3.38-4.12-11.49-14.4.62-.16c-.51,3.48-1.06,7.26-1.64,11.18s-1.13,7.59-1.65,11.01l-.11.8-.51-.63-11.51-14.58-3.29-4.23c-.42-.51-.82-1.04-1.17-1.59h0Z"/>
    <path class="st0" d="M288.77,355.75c-.63.14-1.27.23-1.92.25l-5.36.47-18.53,1.41.23-.59,8.12,7.61,8.22,7.75.59.56h-.82l-18.43,1.02-5.33.23c-.63.06-1.28.06-1.92,0,.63-.13,1.27-.21,1.9-.24l5.32-.42,18.41-1.27-.21.59-8.25-7.73-8.09-7.64-.59-.56h.8l18.54-1.11,5.36-.27c.65-.07,1.3-.08,1.95-.06h0Z"/>
    <path class="st0" d="M257.53,426.81c.47.44.92.92,1.33,1.41l3.51,4.06,12,14.18-.62.17c.44-3.44.92-7.16,1.41-11.04s1-7.73,1.41-11.21l.11-.82.51.63,11.67,14.31,3.31,4.23c.41.49.79,1.02,1.13,1.55-.48-.44-.92-.9-1.31-1.41l-3.47-4.05-11.84-14.1.61-.18c-.44,3.5-.92,7.28-1.41,11.21s-.99,7.61-1.41,11.05l-.11.8-.51-.62-11.8-14.35-3.36-4.23c-.44-.49-.82-1.03-1.16-1.61h0Z"/>
    <path class="st0" d="M201.68,374.7c-.63.14-1.27.23-1.92.25l-5.34.45-18.53,1.41.21-.61,8.14,7.63,8.22,7.75.59.56h-.82l-18.43,1.02-5.33.23c-.62.06-1.25.06-1.88,0,.62-.14,1.27-.21,1.9-.24l5.32-.42,18.41-1.28-.21.61-8.25-7.73-8.11-7.64-.58-.56h.8l18.54-1.13,5.36-.25c.63-.06,1.25-.07,1.89-.04Z"/>
    <path class="st0" d="M249.66,425.22c-.63.14-1.27.21-1.92.24l-5.36.47-18.53,1.41.23-.61,8.12,7.63,8.22,7.75.59.56h-.8l-18.44,1-5.33.24c-.63.06-1.28.06-1.92,0,.62-.14,1.27-.21,1.9-.24l5.32-.42,18.41-1.28-.21.61-8.25-7.73-8.09-7.61-.59-.55h.8l18.54-1.13,5.37-.25c.63-.08,1.28-.11,1.93-.08h0Z"/>
    <path class="st0" d="M357.96,296.68c-.63.14-1.27.23-1.92.25l-5.36.45-18.51,1.41.21-.59,8.12,7.61,8.22,7.75.59.56h-.8l-18.44,1.02-5.33.23c-.63.06-1.28.06-1.92,0,.62-.14,1.27-.21,1.9-.24l5.32-.42,18.43-1.27-.23.59-8.22-7.71-8.09-7.64-.59-.56h.8l18.54-1.13,5.37-.25c.63-.07,1.27-.08,1.9-.06h0Z"/>
    <path class="st2" d="M305.28,425.22s23.72-6.84,31.57-8.84c3.06-.78,16.16,6.13,25.21,11.89,0,0,12.46,7.39,11.46,9.66-1.11,2.51-5.64,2-13.04-1.41,0,0,2.57,7.43-2.47,7.26,0,0,2.5,8.04-2.21,8.87s-5.81-9.42-9.95-9.97-12.69-1.11-12.69-1.11c0,0-7.15,11.84-12.69,12.69s-18.33-.66-18.33-.66l3.14-28.37Z"/>
    <path class="st5" d="M345.76,426.85c2.33,1.03,4.54,2.28,6.63,3.74,2.21,1.25,4.3,2.72,6.23,4.37-4.54-2.27-8.85-4.99-12.86-8.11h0Z"/>
    <path class="st5" d="M344.37,431.46c2.71.85,5.34,1.93,7.87,3.23,2.61,1.06,5.13,2.34,7.53,3.82-2.71-.85-5.34-1.92-7.87-3.21-2.62-1.06-5.13-2.34-7.53-3.84Z"/>
    <path class="st5" d="M346.9,442.47c3.58,0,7.15.47,10.6,1.41-3.58,0-7.15-.47-10.6-1.41Z"/>
    <path class="st4" d="M274.42,180.49c.79,2.57-.66,5.29-3.23,6.08-1.21.37-2.51.25-3.64-.32-3.21-1.62-3.62-6.06-2.99-9.6s1.83-7.33.35-10.62c-1.14-2.51-3.61-4.1-5.53-6.08-3.43-3.48-5.03-8.36-4.33-13.2.83-4.85,4.3-8.83,9-10.29,4.72-1.31,10.55.14,14.1-3.29,2.55-2.48,2.71-6.53,4.68-9.49,3.06-4.6,9.53-5.33,15-4.58s11.03,2.51,16.38,1.17c4.47-1.11,8.14-4.23,12.34-6.15,12.13-5.54,26.47-.21,32.01,11.93,3.1,6.78,2.89,14.62-.56,21.23-1.55,3.27-4.2,5.88-7.49,7.4"/>
    <path class="st2" d="M301.63,296.96h0c15-.03,27.14-12.22,27.11-27.23v-.32l-.35-25.92s21.77-2.19,23.21-23.76c1.44-21.57.41-71.36.41-71.36h0c-24.39-12.1-53.42-10.07-75.88,5.32l-3.33,2.3,1.62,114.12c.18,14.89,12.31,26.87,27.21,26.85Z"/>
    <path class="st4" d="M346.31,187.54c-1.78-.2-3.05-1.8-2.83-3.58.17-1.49,1.35-2.66,2.83-2.83.17-.04.35-.04.52,0,1.78.2,3.05,1.8,2.83,3.58-.17,1.49-1.35,2.66-2.83,2.83-.17.03-.35.03-.52,0Z"/>
    <path class="st4" d="M350.54,180.57c-.35.37-2.38-1.41-5.36-1.57-2.98-.16-5.22,1.24-5.51.85s.21-.83,1.2-1.49c2.71-1.73,6.23-1.51,8.69.58.89.79,1.17,1.55.99,1.64h0Z"/>
    <path class="st4" d="M316.15,181.31c1.42.99,1.79,2.95.79,4.37-.99,1.42-2.95,1.79-4.37.79-1.42-.99-1.79-2.95-.79-4.37h0c.99-1.42,2.95-1.78,4.37-.79Z"/>
    <path class="st4" d="M318.11,181.43c-.37.37-2.4-1.41-5.36-1.57s-5.22,1.24-5.53.85c-.16-.18.23-.83,1.2-1.49,2.71-1.73,6.23-1.51,8.69.58.89.79,1.17,1.48,1,1.64h0Z"/>
    <path class="st4" d="M328.74,206.61c0-.23,1.85-.51,4.86-.76.78,0,1.41-.18,1.48-.59.06-.78-.1-1.55-.44-2.26-.66-2.02-1.33-4.05-2.03-6.18-2.82-8.78-4.67-16.02-4.23-16.16s3.06,6.87,5.84,15.65c.65,2.14,1.28,4.23,1.89,6.2.45,1.03.54,2.17.25,3.26-.25.59-.78,1.03-1.41,1.17-.44.1-.89.13-1.34.1-3.05-.06-4.88-.2-4.88-.44Z"/>
    <path class="st7" d="M318.87,209.38c4.53,2.33,9.36,4.02,14.35,5.03-2.26,3.1-6.34,4.23-9.87,2.74-6.36-2.72-4.48-7.77-4.48-7.77Z"/>
    <path class="st5" d="M328.48,243.19c-9.98-.35-19.63-3.68-27.72-9.53,0,0,5.81,15.89,27.45,15.13l.27-5.6Z"/>
    <path class="st4" d="M352.19,153.84s-13.04,6.63-30.31-1.58c-11.28-5.39-24.49-7.88-27.34-5.56s-3.23,13.89-14.28,17.48c0,0,1.2,22.08-7.63,21.46-8.83-.62-3.98-34.92-3.98-34.92l21.33-10.94,23.42-4.89,22.21,2.69,17.23,4.36-.65,11.9Z"/>
    <path class="st2" d="M274.23,178.56c-.35-.18-14.59-5.2-14.92,9.59s14.58,12.07,14.61,11.65.31-21.23.31-21.23Z"/>
    <path class="st5" d="M269.53,194.08s-.27.18-.7.37c-.62.25-1.31.25-1.93,0-1.55-.61-2.82-3.12-2.82-5.78,0-1.27.27-2.52.8-3.68.31-.93,1.04-1.65,1.99-1.93.61-.11,1.23.2,1.51.75.18.41.08.7.16.73s.32-.24.23-.85c-.07-.37-.28-.7-.56-.94-.39-.31-.9-.47-1.41-.41-1.24.21-2.28,1.06-2.75,2.23-.65,1.27-.99,2.68-.99,4.1,0,2.98,1.49,5.81,3.61,6.47.8.24,1.66.13,2.37-.34.51-.35.51-.69.51-.72h0Z"/>
    <path class="st4" d="M266.71,132.27c3.47-1.02,7.19.37,9.14,3.41-1.31-1-2.74-1.85-4.23-2.54-1.61-.47-3.24-.75-4.91-.87Z"/>
    <path class="st4" d="M275.6,123.41c.27,0-.14,3.12.37,6.81.44,2.23,1.13,4.38,2.07,6.44,0,0-.62-.52-1.24-1.62-.79-1.47-1.33-3.06-1.55-4.71-.41-2.3-.3-4.67.35-6.92h0Z"/>
    <path class="st4" d="M336.36,173.44c-.08-.17.55-.69,1.75-1.17,3.19-1.23,6.71-1.2,9.87.1,1.18.51,1.82,1.03,1.73,1.2-.18.39-3.03-.72-6.68-.72s-6.5,1.03-6.67.59h0Z"/>
    <path class="st4" d="M303.36,170.36c-.08-.17.55-.68,1.75-1.17,1.58-.61,3.26-.92,4.95-.89,1.69,0,3.38.34,4.95.99,1.18.51,1.8,1.03,1.73,1.21s-3.03-.72-6.7-.73-6.49.99-6.68.59h0Z"/>
    <path class="st4" d="M333.81,175.81c.03.3.03.58,0,.87,0,.62,0,1.41.07,2.38s0,2.28.08,3.69c-.06,1.62.18,3.26.7,4.79,1.38,4.07,4.75,7.15,8.94,8.14,1.18.28,2.4.39,3.61.31,1.25-.06,2.51-.32,3.68-.78,2.51-.94,4.64-2.66,6.09-4.92,1.37-2.16,2.06-4.67,1.97-7.22v-7.28l.34.34-18.33-.17-5.32-.1h-1.93c.61-.07,1.21-.1,1.82-.08l5.23-.1,18.53-.17h.47v7.63c.1,2.69-.63,5.34-2.07,7.61-1.54,2.38-3.79,4.22-6.46,5.2-1.25.48-2.57.75-3.91.8-1.27.07-2.55-.04-3.79-.35-4.38-1.06-7.91-4.33-9.28-8.63-.51-1.61-.72-3.3-.62-4.99,0-1.41,0-2.72.07-3.79s0-1.73.07-2.35c0-.28,0-.56.03-.85h0Z"/>
    <path class="st4" d="M299.25,175.07v3.26c0,1.04,0,2.28.07,3.71-.04,1.62.2,3.24.7,4.79.65,1.86,1.72,3.54,3.12,4.92,1.62,1.57,3.62,2.68,5.82,3.2,2.43.58,4.98.42,7.3-.47,2.5-.94,4.64-2.66,6.08-4.91,1.37-2.16,2.07-4.67,1.99-7.22v-7.29l.34.34-18.33-.17-5.3-.08h-1.93c.59-.07,1.2-.1,1.8-.08l5.23-.08,18.53-.17h.34v7.63c.08,2.69-.65,5.34-2.09,7.61-1.54,2.38-3.79,4.2-6.44,5.19-1.25.48-2.57.75-3.91.8-1.28.07-2.57-.04-3.81-.35-2.3-.56-4.41-1.75-6.09-3.43-1.45-1.47-2.55-3.24-3.19-5.2-.51-1.61-.72-3.3-.62-4.99,0-1.41,0-2.72.08-3.79s0-1.73,0-2.35c.06-.3.16-.59.3-.86h0Z"/>
    <path class="st4" d="M334.12,176.84c-3.23.49-6.5.49-9.73,0,3.23-.51,6.5-.51,9.73,0Z"/>
    <path class="st4" d="M272.35,177.02c4.48-.38,8.98-.51,13.48-.41,4.5-.13,9.01-.01,13.49.32-4.48.39-8.98.52-13.48.41-4.5.14-9.01.04-13.49-.32Z"/>
    <path class="st2" d="M417.39,443.09c6.47,12.01,19.39,19.12,32.99,18.15h0c16.21-1.13,29.47-13.38,31.88-29.45l8.18-93.61-32.75-8.09-13.38,73.32s-6.99,30.72-26.92,39.69h0Z"/>
    <path class="st2" d="M457.39,336.87l1.09-16.43s4.64-36.86,4.64-40.47c0-4.15,1.99-5.16,3.52-5.05,2.38.16,4.07,3.1,4.23,6.67,0,1.23-.11,20.71-.11,20.71,1.13-1.85,2.38-3.6,3.76-5.26,2.82-3.65,9.64-5.74,16.6-5.51,6.95.23,8.85.9,8.9,3.6-.06,1.04-.56,2-1.41,2.62-1.28,1.07-2.92,1.64-4.58,1.58-11.12-.2-14.1,5.74-14.1,5.74l-.14,2.16s6.75-4.84,12.14-2.82c.79.3,1.52.75,2.14,1.33,4.81.01,8.69,3.93,8.67,8.73,0,1.48-.39,2.95-1.13,4.24-.59,1.38-1.99,2.26-3.5,2.19-.75-.23-1.42-.63-1.96-1.2-.31-.27-.65-.51-1-.73l-1.24,5.96s-3.51,13.25-4.38,19.2"/>
    <path class="st2" d="M460.59,335.58c2.03.56,4.13-.93,5.23-2.74s1.57-3.93,2.52-5.82c2.9-5.64,9.87-8.32,12.53-14.1.37-.8.56-1.9-.14-2.44s-1.58-.1-2.3.3l-18.33,10.15"/>
    <path class="st5" d="M460.1,320.91c.56-.51,1.2-.94,1.88-1.3,1.24-.78,3.06-1.85,5.32-3.16l7.97-4.55,2.3-1.3c.86-.68,1.95-.99,3.03-.86.69.23,1.16.85,1.2,1.57.04.58-.07,1.16-.3,1.69-.42.94-.96,1.83-1.58,2.65-2.54,3.3-5.82,5.37-8.19,7.78-1.16,1.09-2.13,2.35-2.9,3.74-.69,1.3-1.13,2.65-1.66,3.88-.66,2.07-2.21,3.75-4.23,4.57-1.51.45-2.35,0-2.3-.08.73.03,1.45-.1,2.14-.35,1.78-.92,3.1-2.52,3.64-4.46.45-1.37.97-2.71,1.57-4.02.78-1.49,1.79-2.86,3-4.05,2.43-2.54,5.64-4.67,8.01-7.73.56-.73,1.03-1.54,1.41-2.38.35-.8.3-1.61-.16-1.69s-1.34.3-2.11.73l-2.34,1.27-8.08,4.4c-2.31,1.23-4.23,2.19-5.5,2.82-.66.38-1.37.65-2.1.83h0Z"/>
    <path class="st5" d="M479.53,307.38c.13-1.34.56-2.62,1.28-3.75.83-1.16,2.02-2.02,3.38-2.45,1.71-.56,3.5-.85,5.29-.85,1.85.01,3.68-.14,5.5-.48,1.52-.31,2.93-1.02,4.09-2.04.78-.72,1.18-1.76,1.1-2.82-.01-.38-.14-.76-.37-1.07-.07,0,0,.41.07,1.09,0,.96-.45,1.86-1.18,2.47-1.13.89-2.45,1.48-3.86,1.75-1.78.3-3.57.42-5.37.39-1.86-.01-3.72.27-5.48.86-1.48.52-2.75,1.51-3.6,2.82-.55.89-.87,1.89-.93,2.93-.08.38-.06.79.08,1.16h0Z"/>
    <path class="st5" d="M470.77,280.21c-.11,1.28-.11,2.59,0,3.88,0,2.65,0,5.82.1,9.32s0,6.67,0,9.32c-.08,1.3-.06,2.59.08,3.88.31-1.27.47-2.57.47-3.86.17-2.38.28-5.64.27-9.33s-.16-6.97-.32-9.35c-.06-1.3-.25-2.59-.59-3.85h0Z"/>
    <path class="st5" d="M483.92,311.71c.39-.1.78-.24,1.13-.44.93-.48,2.02-.52,2.99-.14.59.32.99.94,1.02,1.62.04.85-.01,1.68-.18,2.51-.24,1.04-.07,2.13.47,3.05.68.96,1.78,1.54,2.96,1.55,1.16,0,2.26-.49,3.05-1.33.73-.73,1.23-1.68,1.41-2.71.23-1.66.2-3.34-.07-4.99-.14-1.11-.48-2.2-1-3.2-.39-.7-.76-.97-.79-.94s.23.38.52,1.07c.38,1.02.63,2.07.72,3.16.18,1.59.16,3.2-.07,4.78-.37,1.85-1.9,3.21-3.78,3.38-.93,0-1.8-.45-2.35-1.2-.42-.78-.56-1.68-.38-2.54.16-.89.2-1.79.11-2.69-.08-.87-.62-1.64-1.41-2.02-1.11-.42-2.35-.28-3.36.37-.66.39-1.06.61-.97.7Z"/>
    <path class="st5" d="M495.02,317.95c-.1.37-.06.76.11,1.1.41.99,1.24,1.72,2.26,2,1.55.34,3.14-.17,4.23-1.33,1.27-1.4,1.96-3.23,1.9-5.12,0-1.86-.58-3.68-1.66-5.2-.89-1.24-2.09-2.21-3.48-2.82-.92-.41-1.9-.65-2.9-.69-.7,0-1.09,0-1.09.11,1.3.17,2.57.54,3.76,1.07,1.25.62,2.33,1.55,3.13,2.69.93,1.42,1.42,3.09,1.41,4.79.04,1.69-.54,3.34-1.64,4.62-.9,1.03-2.28,1.51-3.64,1.28-.9-.2-1.66-.78-2.1-1.59-.2-.54-.2-.93-.3-.93h0Z"/>
    <path class="st5" d="M481.63,330.97c-.61-.2-1.25-.2-1.86,0-1.59.35-3.02,1.21-4.06,2.45l.65.2c-.08-.87-.23-1.73-.42-2.59-.56-3.03-1.95-5.85-4.02-8.14,1.38,2.65,2.48,5.43,3.27,8.3.2.87.34,1.72.44,2.51l.11.87.55-.69c.93-1.16,2.19-2.02,3.6-2.47,1.06-.32,1.75-.35,1.75-.45h0Z"/>
    <path class="st5" d="M481.98,297.83c-.18.08.56,1.41,2.28,2.21s3.24.34,3.17.14-1.41-.18-2.82-.85-2.45-1.65-2.64-1.51Z"/>
    <path class="st1" d="M451.75,347.5l41.16,2.95s-6.33,72.82-7.56,84.12c-1.23,11.29-8.46,28.33-33.6,28.33s-29.82-8.56-41-26.18c13.18-9.14,34.12-36.42,34.12-36.42l6.88-52.79h0Z"/>
    <path class="st0" d="M471.15,357.3c-.21.62-.47,1.21-.76,1.79l-2.3,4.85-8.12,16.76-.41-.49,10.67-3.17,10.84-3.19.79-.23-.38.72-8.46,16.43-2.5,4.72c-.28.58-.61,1.13-.97,1.65.21-.61.47-1.2.76-1.76.59-1.21,1.41-2.82,2.31-4.81l8.19-16.54.41.49-10.83,3.21-10.69,3.13-.78.23.37-.72,8.42-16.6c1.03-1.96,1.86-3.57,2.48-4.77.27-.59.58-1.17.94-1.72h0Z"/>
    <path class="st0" d="M467.26,427.34c-.63.14-1.27.23-1.92.25l-5.36.47-18.53,1.41.23-.61,8.12,7.61,8.22,7.75.59.56h-.82l-18.43,1.02-5.33.23c-.63.06-1.28.06-1.92,0,.63-.13,1.27-.2,1.9-.23l5.32-.44,18.41-1.27-.21.61-8.25-7.74-8.09-7.64-.59-.55h.8l18.54-1.11,5.37-.27c.63-.07,1.28-.08,1.93-.06h0Z"/>
  </g>
</svg>