<?xml version="1.0" encoding="UTF-8"?>
<svg id="Layer_1" xmlns="http://www.w3.org/2000/svg" version="1.1" viewBox="0 0 750 500">
  <!-- Generator: Adobe Illustrator 29.5.1, SVG Export Plug-In . SVG Version: 2.1.0 Build 141)  -->
  <defs>
    <style>
      .st0 {
        fill: #e0e0e0;
      }

      .st1 {
        fill: #ae7461;
      }

      .st2, .st3, .st4 {
        isolation: isolate;
      }

      .st2, .st5 {
        opacity: .3;
      }

      .st3, .st6 {
        opacity: .1;
      }

      .st4, .st7 {
        opacity: .4;
      }

      .st8 {
        fill: #ebebeb;
      }

      .st9 {
        fill: #4a9288;
      }

      .st10 {
        fill: #263238;
      }

      .st11 {
        fill: #6f4439;
      }

      .st12 {
        fill: #fff;
      }

      .st13 {
        fill: #fafafa;
      }

      .st14 {
        fill: #ffbf9d;
      }

      .st15 {
        fill: #f5f5f5;
      }

      .st16 {
        fill: #455a64;
      }

      .st17 {
        fill: #ff9a6c;
      }
    </style>
  </defs>
  <g id="freepik--background-complete--inject-126">
    <rect class="st15" x="191.2" y="68.6" width="37.38" height="9.89"/>
    <path class="st0" d="M212.77,88.9v-.68c0-.47,0-1.13,0-2,0-1.71,0-4.16-.06-7.25l.11.11-37.37.08c.08-.09-.19.19.19-.19h0v9.86l-.18-.18,26.63.08,7.87.06h2.87-2.79l-7.82.06-26.82.28h-.19v-10.1h0c.38-.38.1-.11.19-.19l37.37.07h.12v.12c0,3.12,0,5.6-.06,7.32v2.41c0,.13-.05.15-.06.14Z"/>
    <rect class="st15" x="539.7" y="220.02" width="37.38" height="9.89"/>
    <path class="st0" d="M561.27,240.32v-2.63c0-1.71,0-4.16-.06-7.26l.11.12-37.37.07.19-.19h0v9.87l-.19-.19,26.64.09h10.04-9.91l-26.77.09h-.26v-10.01h0l.2-.19,37.37.08h.12v.11c0,3.13-.05,5.6-.07,7.33v2.4c0,.12-.03.31-.04.31Z"/>
    <rect class="st15" x="206.94" y="428.76" width="37.38" height="9.89"/>
    <path class="st0" d="M228.51,449.07c0-.06,0-.12,0-.18v-2.46c0-1.7,0-4.16-.06-7.25l.11.11-37.38.08.19-.19h0v9.88l-.19-.19,26.64.08,7.86.06h2.88-.71l-2.16.12-7.82.06-26.77.08h-.18v-10.05h0l.19-.19,37.38.07h.12v.12c0,3.12,0,5.6-.07,7.32v2.41s-.02.08-.03.12Z"/>
    <path class="st8" d="M485.43,258.35h24c15.24,0,27.6,12.36,27.6,27.6h0v89h-79.2v-89c0-15.24,12.36-27.6,27.6-27.6Z"/>
    <polygon class="st0" points="529.9 383.73 544.35 466.34 540.08 466.34 520.35 383.73 529.9 383.73"/>
    <polygon class="st0" points="472.69 383.73 458.25 466.67 462.52 466.67 482.25 383.73 472.69 383.73"/>
    <path class="st8" d="M542.84,383.54l-87.76.19c-3.05,0-5.53-2.47-5.54-5.52h0c0-3.06,2.48-5.54,5.53-5.54h87.62c3.05,0,5.52,2.46,5.53,5.51v.02h0c.08,2.87-2.18,5.26-5.05,5.34-.11,0-.22,0-.33,0Z"/>
    <path class="st0" d="M543.82,372.72c0,.1-20,.19-44.61.19s-44.62-.09-44.62-.19,20-.19,44.62-.19,44.61.08,44.61.19Z"/>
    <path class="st0" d="M543.82,383.49c0,.14-20,.24-44.61.24s-44.62-.1-44.62-.24,20-.24,44.62-.24,44.61.11,44.61.24Z"/>
    <rect class="st0" x="644.46" y="53.2" width="7.14" height="35.55" transform="translate(-.37 3.51) rotate(-.31)"/>
    <rect class="st8" x="582.81" y="51.66" width="18.5" height="19.62" transform="translate(-.59 5.92) rotate(-.57)"/>
    <rect class="st15" x="601.21" y="51.48" width="18.5" height="19.62" transform="translate(-.58 6.11) rotate(-.57)"/>
    <path class="st0" d="M582.51,58.81c12.29.1,24.59.04,36.91-.17.11-.02.18-.13.15-.24-.02-.07-.08-.13-.15-.15-12.29-.07-24.6,0-36.91.22-.09,0-.17.08-.17.17s.08.17.17.17h0Z"/>
    <rect class="st8" x="571" y="72.67" width="33.61" height="15.99" transform="translate(-.43 3.18) rotate(-.31)"/>
    <rect class="st15" x="604.45" y="72.49" width="33.61" height="15.99" transform="translate(-.43 3.36) rotate(-.31)"/>
    <path class="st0" d="M570.97,77.22c22.33.25,44.73,0,67.06-.34.11-.02.18-.13.15-.24-.02-.07-.08-.13-.15-.15-22.32-.12-44.73-.1-67.05.39-.09,0-.17.08-.17.17,0,.09.08.17.17.17h-.01Z"/>
    <rect class="st0" x="558.4" y="88.76" width="130.21" height="5.73"/>
    <rect class="st0" x="579.72" y="91.51" width="5.29" height="19.55"/>
    <rect class="st0" x="658.63" y="91.51" width="5.29" height="19.55"/>
    <rect class="st8" x="651.47" y="39.94" width="7.14" height="48.89" transform="translate(-.34 3.55) rotate(-.31)"/>
    <rect class="st15" x="658.65" y="49.05" width="11.1" height="39.62" transform="translate(-.36 3.59) rotate(-.31)"/>
    <path class="st0" d="M669.56,56.68c-1.84.19-3.7.25-5.55.19-1.85.06-3.71,0-5.55-.19,3.7-.27,7.4-.27,11.1,0h0Z"/>
    <path class="st0" d="M669.56,55.05c-1.84.2-3.7.27-5.55.2-1.85.07-3.71,0-5.55-.2,3.7-.25,7.4-.25,11.1,0h0Z"/>
    <path class="st0" d="M669.56,82.7c-3.7.25-7.4.25-11.1,0,3.7-.25,7.4-.25,11.1,0Z"/>
    <path class="st0" d="M669.56,81.05c-3.7.25-7.4.25-11.1,0,3.7-.27,7.4-.27,11.1,0Z"/>
    <path class="st0" d="M664.19,77.41c-.1,0-.19-4-.19-8.93s.09-8.93.19-8.93.2,4,.2,8.93-.09,8.93-.2,8.93Z"/>
    <rect class="st8" x="669.68" y="58.77" width="12.08" height="29.9"/>
    <path class="st0" d="M656.85,48.29c0,1.13-.92,2.05-2.05,2.05s-2.05-.92-2.05-2.05.92-2.05,2.05-2.05h0c1.13,0,2.05.92,2.05,2.05Z"/>
    <rect class="st0" x="654.17" y="53.94" width="1.27" height="29.08"/>
    <path class="st0" d="M344.04,60.62v-2.63c0-1.71,0-4.17-.06-7.26l.11.12-37.4.07.19-.19h0v9.86l-.19-.16,26.63.09h10.55c.06-.01.13-.01.19,0h-2.79l-7.82.05-26.76.24h-.19v-10.06h0l.19-.19,37.37.07h.12v.12c0,3.12-.05,5.6-.06,7.33v2.4c0,.13-.07.14-.08.14Z"/>
    <path class="st0" d="M349.11,50.73c0-.06,0-.13,0-.19v-2.52c0-1.74,0-4.19-.07-7.2l.13.14-22.48.07c-.18.17.23-.23.18-.19h0v9.89l-.19-.18,16.07.09,4.68.05h1.71c-.14.02-.27.02-.41,0h-1.22l-4.64.05-16.18.17h-.18v-10.05h0s.36-.36.2-.19l22.45.06h.14v.13c0,3-.06,5.53-.07,7.28v1.95c-.03.22-.07.43-.12.64Z"/>
    <path class="st0" d="M283.26,200.79c0-.06,0-.12,0-.18v-2.42c0-1.71,0-4.17-.06-7.26l.11.12-37.38.07.19-.19h0v9.87l-.19-.19,26.64.09,7.86.05h2.68-10.41l-26.77.08h-.24v-10.05h0l.19-.19,37.38.07h.12v.12c0,3.12-.05,5.6-.07,7.32v2.41c0,.13-.04.28-.05.28Z"/>
    <path class="st0" d="M288.33,190.9c0-.06,0-.13,0-.19v-2.52c0-1.73-.05-4.18-.08-7.19l.14.14h-22.46l.19-.19h0v9.97l-.18-.18,16.07.08,4.68.05h1.26c.15-.01.3-.01.45,0-.14,0-.27,0-.41,0h-1.22l-4.64.05-16.19.09h-.25v-9.98h0l.19-.19,22.46.05h.14v.14c0,3.05-.06,5.52-.08,7.28,0,.82,0,1.49,0,2-.01.2-.04.39-.07.59Z"/>
    <path class="st0" d="M424.89,409.26c0-.06,0-.12,0-.18v-2.45c0-1.71,0-4.17-.06-7.26l.12.12-37.38.07.19-.19h0v9.87l-.18-.19,26.64.09,7.86.05h2.68-2.6l-7.81.05-26.77.08h-.19v-9.93h0l.19-.19,37.38.07h.11v.12c0,3.12-.05,5.6-.06,7.32v2.41c0,.13-.12.14-.12.14Z"/>
    <path class="st0" d="M429.95,399.37v-2.71c0-1.74,0-4.19-.07-7.2l.13.14-22.45.05.19-.19h0v9.87l-.18-.18,16.06.08,4.68.05h1.71c-.13,0-.27,0-.4,0h-1.23l-4.64.06-16.18.08h-.18v-9.92h0s.36-.36.19-.19h22.59v.14c0,3,0,5.52-.07,7.28v1.95c-.03.23-.08.46-.15.69Z"/>
    <rect class="st15" x="81.2" y="365.33" width="37.38" height="9.74"/>
    <path class="st0" d="M102.77,385.32c0-.06,0-.12,0-.18v-2.42c0-1.67,0-4.1-.06-7.14l.11.11-37.38.08.19-.19h0v9.73l-.19-.19,26.64.08,7.86.06h2.88-.71l-2.16.12-7.82.06-26.77.08h-.18v-9.89h0l.19-.19,37.38.07h.12v.12c0,3.07,0,5.51-.07,7.21v2.37s-.02.08-.03.12Z"/>
  </g>
  <g id="freepik--Desk--inject-126">
    <rect class="st10" x="438.61" y="314.01" width="73.39" height="5.49" rx="2.59" ry="2.59"/>
    <path class="st10" d="M527.76,272.26h-46.07c-1.69,0-3.13,1.22-3.42,2.89l-7.58,44.35h50.17c1.69,0,3.14-1.21,3.42-2.88l6.88-40.31c.32-1.89-.95-3.68-2.84-4-.18-.03-.37-.05-.56-.05Z"/>
    <path class="st16" d="M482.58,272.26c.14,0-1.46,10.69-3.56,23.83s-3.93,23.77-4.07,23.75,1.46-10.69,3.56-23.83,3.93-23.77,4.07-23.75Z"/>
    <path class="st12" d="M506.69,296.4c-.54,1.5-2.2,2.28-3.7,1.74-1.5-.54-2.28-2.2-1.74-3.7.51-1.4,1.99-2.19,3.44-1.82,1.59.47,2.49,2.15,2.01,3.73,0,.02,0,.03-.01.05Z"/>
    <path class="st9" d="M572.94,305.05h-28.09v-1.16h28.09c.32,0,.58.26.58.58h0c0,.32-.26.58-.58.58h0Z"/>
    <path class="st10" d="M544.47,304.56h-10.57,5.28c2.91,0,5.29-.02,5.29,0Z"/>
    <path class="st9" d="M548.34,305.05h-12.65c-1.94,0-3.51-1.57-3.51-3.51h0c0-1.94,1.57-3.51,3.51-3.51h12.63l.02,7.02Z"/>
    <path class="st9" d="M572.94,299.2h-27.83c-.15,0-.26-.12-.26-.27v-.63c0-.15.11-.26.26-.27h27.83c.32,0,.58.26.58.58,0,0,0,0,0,.01h0c0,.32-.26.58-.58.58Z"/>
    <path class="st15" d="M572.69,303.89h-24.64c-1.3,0-2.35-1.05-2.35-2.35h0c0-1.29,1.06-2.34,2.35-2.34h24.64c-.66,1.49-.66,3.2,0,4.69Z"/>
    <g class="st5">
      <path d="M545.69,305.05h-10.83c-1.47,0-2.66-1.19-2.66-2.66h0v-1.72c0-1.46,1.18-2.64,2.64-2.64h11.13c-2.54,1.54-2.35,5.23-.28,7.02Z"/>
    </g>
    <path class="st10" d="M569.69,301.76h-22.58,11.29c6.23,0,11.29-.02,11.29,0Z"/>
    <path class="st10" d="M572,302.8h-22.57,11.28c6.23,0,11.29-.02,11.29,0Z"/>
    <path class="st10" d="M571.31,300.28h-22.57,11.29c6.24,0,11.28-.02,11.28,0Z"/>
    <path class="st10" d="M544.47,298.62h-10.57s2.37-.05,5.28-.05,5.29.02,5.29.05Z"/>
    <path class="st9" d="M545.33,319.02h-14.52c-2.5,0-4.52-2.02-4.52-4.52h0c0-2.5,2.02-4.52,4.52-4.52h14.52c.97,0,1.75.77,1.76,1.74,0,0,0,0,0,.01v5.54c0,.97-.78,1.75-1.75,1.75,0,0,0,0,0,0Z"/>
    <path class="st9" d="M578.76,311.48h-35.74c-.24,0-.43-.19-.44-.43v-.64c0-.24.2-.43.44-.43h35.74c.41,0,.74.34.75.75h0c0,.41-.34.74-.75.75Z"/>
    <path class="st9" d="M578.76,319.02h-35.74c-.24,0-.43-.19-.44-.43v-.64c0-.24.2-.43.44-.43h35.74c.41,0,.74.34.75.75h0c0,.41-.34.74-.75.75Z"/>
    <path class="st15" d="M578.41,317.52h-31.72c-1.66,0-3-1.34-3-3h0c0-1.66,1.34-3,3-3h31.71c-.84,1.91-.83,4.09.01,6Z"/>
    <g class="st5">
      <path d="M543.69,319.02h-12.93c-2.47,0-4.47-2-4.47-4.47h0c0-2.52,2.05-4.56,4.57-4.57h13.17c-3.28,1.98-3.03,6.73-.34,9.04Z"/>
    </g>
    <path class="st10" d="M574.56,314.78h-29.07,14.53c8.03,0,14.54-.02,14.54,0Z"/>
    <path class="st10" d="M577.55,316.13h-29.07,29.07Z"/>
    <path class="st10" d="M576.69,313.53s-6.51.05-14.54.05-14.53,0-14.53-.05,6.5,0,14.53,0,14.54-.02,14.54,0Z"/>
    <path class="st10" d="M542.09,318.39h-13.6s3-.05,6.8-.05,6.8.02,6.8.05Z"/>
    <path class="st10" d="M542.09,310.73h-13.6,6.8c3.8,0,6.8-.02,6.8,0Z"/>
    <path class="st16" d="M552.37,310.01h-14.19c-1.43,0-2.59-1.16-2.59-2.59h0c0-1.43,1.16-2.58,2.59-2.58h14.19c.07,0,.12.05.12.12v4.93c0,.07-.05.12-.12.12Z"/>
    <path class="st16" d="M578.22,306.06h-29.12c-.15,0-.27-.13-.27-.28v-.65c0-.15.12-.27.27-.27h29.12c.34,0,.61.27.61.61h0c-.01.33-.28.59-.61.59Z"/>
    <path class="st16" d="M578.22,310.01h-29.12c-.15,0-.27-.12-.27-.27v-.67c0-.15.12-.27.27-.28h29.12c.34,0,.61.27.61.61h0c0,.34-.27.61-.61.61h0Z"/>
    <path class="st15" d="M577.93,308.79h-26.84c-.76,0-1.37-.61-1.37-1.37h0c0-.75.61-1.36,1.36-1.36,0,0,0,0,.01,0h26.84c-.69.78-.69,1.95,0,2.73Z"/>
    <g class="st5">
      <path d="M549.69,310.01h-11.53c-1.42,0-2.56-1.14-2.57-2.56h0c0-1.44,1.17-2.61,2.61-2.61h11.8c-2.66,1.13-2.46,3.85-.31,5.17Z"/>
    </g>
    <path class="st10" d="M574.81,307.21h-23.62,11.81c6.53,0,11.81-.02,11.81,0Z"/>
    <path class="st10" d="M577.24,307.95h-23.62s5.28-.05,11.81-.05,11.81.02,11.81.05Z"/>
    <path class="st10" d="M548.43,309.5h-11.06,5.53c3.05,0,5.53-.02,5.53,0Z"/>
    <path class="st10" d="M548.43,305.45h-11.06s2.48-.05,5.53-.05,5.53.02,5.53.05Z"/>
    <path class="st10" d="M578.48,304.84h-40.56,20.28c11.2,0,20.28-.03,20.28,0Z"/>
    <polygon class="st9" points="562.2 300.2 562.2 303.02 563.17 302.39 564.26 303.02 564.26 300.2 562.2 300.2"/>
    <polygon class="st0" points="583.98 466.6 588.26 466.6 568.96 326.08 560.96 326.08 583.98 466.6"/>
    <path class="st10" d="M583.98,466.6s-.05-.23-.13-.7-.21-1.19-.36-2.1c-.32-1.86-.78-4.59-1.37-8.09-1.18-7.07-2.88-17.29-5-29.94-4.18-25.39-10-60.53-16.43-99.64l-.05-.31h8.53v.23c9.43,68.58,17.2,125.75,19.11,140.54v.07h-4.32,4.28l-.05.06c-2.13-14.87-10.07-72.02-19.5-140.59l.26.22h-8l.26-.3,16.2,99.51,4.83,30c.57,3.54,1,6.29,1.3,8.17.15.92.26,1.63.33,2.13.08.48.11.74.11.74Z"/>
    <polygon class="st0" points="423.32 466.6 419.04 466.6 438.35 326.08 446.34 326.08 423.32 466.6"/>
    <path class="st10" d="M423.32,466.6s0-.26.1-.74.19-1.21.33-2.13c.3-1.88.74-4.63,1.3-8.17,1.14-7.09,2.79-17.33,4.84-30,4.12-25.36,9.84-60.45,16.2-99.51l.25.3h-8l.26-.22c-9.43,68.58-17.37,125.73-19.51,140.48l-.06-.06h4.28-4.32v-.07c1.92-14.79,9.69-72,19.11-140.54v-.23h8.59v.31c-6.45,39.11-12.24,74.25-16.43,99.64-2.11,12.65-3.81,22.87-5,29.94-.6,3.5-1.06,6.23-1.37,8.09-.16.91-.28,1.61-.36,2.1-.16.58-.21.81-.21.81Z"/>
    <rect class="st1" x="413.25" y="323.11" width="172.13" height="45.32"/>
    <rect class="st11" x="413.25" y="319.5" width="174.39" height="7.23"/>
    <rect class="st2" x="413.24" y="319.54" width="42.98" height="48.94"/>
    <path class="st10" d="M456.2,368.48c-.14,0-.26-10.91-.26-24.35s.12-24.35.26-24.35.26,10.9.26,24.35-.12,24.35-.26,24.35Z"/>
  </g>
  <g id="freepik--Shelf--inject-126">
    <path class="st9" d="M217.93,88.45c-.28-.28-.67-.41-1.06-.35-1.32.04-2.59.55-3.58,1.42.38-.97.67-1.98.86-3,.08-.42.1-.94-.26-1.16s-.92.09-1.24.45c-.88.98-1.51,2.17-1.81,3.46-.19-1.1-.37-2.2-.55-3.3-.06-.36-.17-.78-.51-.9s-.84.28-1,.7c-.55,1.18-.61,2.52-.16,3.74l-2.3-2.28c-.23-.23-.52-.48-.84-.41-.51.11-.51.86-.3,1.34.52,1.18,1.46,2.12,2.64,2.63l4.34.72c1.7.11,4.35-.22,5.47-1.49.35-.46.66-1.12.3-1.57Z"/>
    <path class="st16" d="M217.98,93.49c-4.13-3.24-11.38-3.7-16.16-1.52-5.3,2.64-8.86,7.82-9.45,13.71-.5,5.23,2,10.53,4.16,15.33l20.84.09c2.5-4.13,5.1-8.75,5.28-13.58s-.88-11.04-4.67-14.03Z"/>
    <g class="st6">
      <path d="M201.92,91.93c-5.37,2.67-8.99,7.92-9.56,13.89-.4,5.24,2.11,10.49,4.26,15.28h3.24s-2.88-7.66-3.17-9-1.24-5.44,0-8.78,1.42-5.26,4.66-8.58c1.98-2,4.45-3.45,7.16-4.2-2.27.01-4.51.48-6.59,1.39Z"/>
    </g>
    <path class="st10" d="M208.63,90.63h-.09l-.28.07-.44.09c-.2.04-.4.09-.6.16-1.26.37-2.45.95-3.53,1.71-1.58,1.14-2.93,2.56-4,4.18-.63.96-1.2,1.96-1.68,3-.52,1.12-.96,2.28-1.32,3.46-.65,2.3-.77,4.72-.35,7.07.35,1.92.87,3.8,1.57,5.62.58,1.56,1.09,2.81,1.43,3.67.17.43.3.76.39,1l.1.26v.09-.08l-.11-.26c-.11-.24-.25-.57-.43-1-.36-.86-.89-2.1-1.49-3.66-.72-1.82-1.27-3.7-1.62-5.63-.43-2.38-.31-4.82.34-7.15.35-1.19.79-2.36,1.31-3.49.5-1.04,1.07-2.04,1.71-3,1.09-1.64,2.48-3.06,4.09-4.19,1.09-.75,2.31-1.31,3.59-1.65.2-.06.4-.11.61-.14l.45-.08h.27s.08-.06.08-.05Z"/>
    <path class="st10" d="M214.69,120.94c.02-.11.05-.21.09-.31l.32-.88c.27-.77.67-1.87,1.14-3.24s1-3,1.44-4.87c.51-2.01.82-4.06.93-6.13.09-2.07-.12-4.15-.64-6.16-.43-1.64-1.1-3.21-2-4.65-.6-.97-1.32-1.86-2.13-2.66-.28-.29-.54-.48-.69-.62l-.24-.23c.09.05.18.12.26.19.25.19.49.39.72.61.85.78,1.58,1.66,2.19,2.64.91,1.45,1.58,3.03,2,4.68.52,2.02.74,4.11.66,6.2-.11,2.08-.43,4.15-.95,6.17-.47,1.87-1,3.51-1.49,4.88s-.91,2.46-1.2,3.21l-.35.87c0,.2-.06.3-.06.3Z"/>
    <path class="st10" d="M210.69,90.75c-.02.1-.04.2-.08.3-.07.22-.16.5-.27.87s-.27.83-.42,1.36-.35,1.14-.54,1.82c-.39,1.35-.79,3-1.21,4.78s-.79,3.81-1.1,5.93-.51,4.15-.64,6c0,.92-.11,1.8-.12,2.63v4.18c0,.55,0,1,.07,1.43s0,.68,0,.91v.31c-.02-.1-.04-.21-.05-.31l-.09-.9c0-.39-.08-.87-.1-1.43s-.07-1.19-.08-1.9v-2.3c0-.82.06-1.7.1-2.63.12-1.86.31-3.9.62-6s.72-4.13,1.13-5.94.84-3.43,1.25-4.78c.19-.67.39-1.28.56-1.81s.32-1,.46-1.36.23-.64.3-.85.21-.31.21-.31Z"/>
    <rect class="st9" x="189.73" y="119.29" width="35.89" height="6.36"/>
    <polygon class="st9" points="192.41 124.39 196.77 143.39 218.16 143.39 222.94 124.39 192.41 124.39"/>
    <path class="st10" d="M225.6,125.66c0,.07-8.1.12-18.08.12s-18.08-.05-18.08-.12,8.09-.13,18.08-.13,18.08.06,18.08.13Z"/>
    <path class="st3" d="M210.69,90.75s-6,17.38-4.35,28.54h9.04s3.09-7.85,3.44-13.73c.07-3.64-.8-7.23-2.52-10.43-.83-1.54-1.96-2.9-3.33-4-.65-.5-1.5-.64-2.28-.38Z"/>
    <path class="st10" d="M192.47,107.52c0,.07-.48,0-.9-.41s-.63-.76-.56-.81.36.25.75.58.74.56.71.64Z"/>
    <path class="st10" d="M193.89,105.64c.06.06-.24.48-.67.95s-.82.81-.89.75.24-.48.67-.95.83-.81.89-.75Z"/>
    <path class="st10" d="M196.69,97.4c0,.06-.46.57-1.15,1.13-.39.38-.84.69-1.34.9-.06-.06.46-.57,1.15-1.13.38-.38.84-.69,1.34-.9Z"/>
    <path class="st10" d="M199.04,97.48c0,.06-.54-.24-.93-.82s-.51-1.15-.43-1.17.31.46.68,1,.73.92.68.99Z"/>
    <path class="st10" d="M201.89,96.86c-.37.36-.85.58-1.36.63-.49.15-1.02.11-1.49-.09.48-.1.96-.17,1.44-.21.46-.14.93-.25,1.41-.33Z"/>
    <path class="st10" d="M196.18,104.2c-.06.05-.4-.27-.75-.72s-.58-.85-.52-.9.41.27.76.72.58.83.51.9Z"/>
    <path class="st10" d="M198.17,102.89c0,.06-.33.42-.84.8s-1,.63-1,.56.32-.42.84-.8.95-.63,1-.56Z"/>
    <path class="st10" d="M196.49,112.13c0,.08-.5,0-1.06-.16s-1-.37-1-.45.5,0,1.06.16,1.02.32,1,.45Z"/>
    <path class="st10" d="M198.03,109.79c.07,0-.22.59-.65,1.21s-.83,1.1-.9,1,.22-.59.65-1.22.83-1.04.9-.99Z"/>
    <path class="st10" d="M196.38,111.75c-.08,0-.42-.43-.78-1.05-.26-.36-.43-.77-.51-1.2.07,0,.42.43.78,1,.26.37.44.8.51,1.25Z"/>
    <path class="st10" d="M194.86,115.57c0,.08-.53.09-1.14-.06s-1.08-.38-1-.46.52,0,1.12.16,1.03.27,1.02.36Z"/>
    <path class="st10" d="M195.45,113.78c.08,0,0,.45-.23.93s-.44.84-.52.81,0-.45.24-.93.44-.84.51-.81Z"/>
    <path class="st10" d="M194.57,115.45c-.07.05-.46-.46-.86-1.12-.29-.38-.5-.82-.61-1.29.08,0,.46.46.87,1.13.28.38.49.82.6,1.28Z"/>
    <path class="st10" d="M194.44,99.7c-.07.05-.45-.39-.85-1s-.68-1.1-.61-1.15.46.39.86,1,.67,1.1.6,1.15Z"/>
    <path class="st10" d="M191.57,104.36c.25.38.41.82.47,1.27.16.42.22.88.18,1.33-.25-.38-.41-.81-.47-1.26-.16-.43-.22-.89-.18-1.34Z"/>
    <path class="st10" d="M206.53,106.5c-.06.06-.55-.38-1-1.05-.32-.38-.54-.83-.63-1.32.08,0,.43.5.87,1.14.31.37.57.79.76,1.23Z"/>
    <path class="st10" d="M209.07,104.32c.06.06-.42.61-1.08,1.23-.36.41-.8.75-1.29,1-.06-.06.43-.61,1.08-1.23s1.23-1.07,1.29-1Z"/>
    <path class="st10" d="M206.82,106.13c-.21-.5-.33-1.03-.36-1.57-.11-.53-.13-1.07-.06-1.61.34,1.02.48,2.1.42,3.18Z"/>
    <path class="st10" d="M205.43,108.24c-.07,0,.14-.51.46-1s.65-.93.72-.89-.13.51-.46,1-.65.93-.72.89Z"/>
    <path class="st10" d="M208.03,108.87c-.08,0-.46-.48-.78-1.21-.24-.42-.37-.9-.38-1.39.29.38.51.81.66,1.27.23.42.4.86.5,1.33Z"/>
    <path class="st10" d="M208.55,97.55c-.07,0-.52-.47-1-1.15-.33-.39-.59-.84-.74-1.33.4.32.74.71,1,1.16.33.39.58.84.74,1.32Z"/>
    <path class="st10" d="M210.11,96.05c.06.06-.25.46-.68.89s-.82.73-.88.67.24-.45.67-.88.83-.74.89-.68Z"/>
    <path class="st10" d="M208.51,93.86c.16.6.22,1.22.18,1.84.07.62.03,1.24-.1,1.85-.17-.6-.24-1.22-.2-1.84-.06-.62-.02-1.24.12-1.85Z"/>
    <path class="st10" d="M218.13,99.53c0,.08-.54,0-1.12-.26s-1-.56-.95-.63.51.1,1.07.35,1.02.46,1,.54Z"/>
    <path class="st10" d="M218.69,97.13c.09,0,.11.58,0,1.27s-.44,1.19-.52,1.16c.09-.83.27-1.64.52-2.43Z"/>
    <path class="st10" d="M217.88,99.47c-.45-.38-.83-.83-1.13-1.34-.37-.45-.67-.96-.88-1.51.83.82,1.51,1.78,2,2.84h.01Z"/>
    <path class="st10" d="M217.18,102.05c-.04-.45,0-.9.16-1.33.16-.72.36-1.28.45-1.26.04.45,0,.9-.16,1.33-.05.45-.21.88-.45,1.26Z"/>
    <path class="st10" d="M219.91,101.13c-.42-.13-.8-.35-1.12-.64-.57-.42-1-.81-.95-.88s.56.22,1.13.63.99.89.94.89Z"/>
    <path class="st10" d="M206.53,115.02c-.46-.06-.88-.25-1.24-.54-.62-.41-1-.87-1-.93s.54.28,1.14.68,1.14.71,1.1.79Z"/>
    <path class="st10" d="M207.69,113.2c.07.05-.23.52-.66,1s-.84.9-.91.85.24-.52.67-1,.8-.92.9-.85Z"/>
    <path class="st10" d="M205.44,111.26c.26.5.42,1.03.49,1.59.16.54.22,1.09.18,1.65-.26-.5-.42-1.03-.48-1.59-.16-.53-.23-1.09-.19-1.65Z"/>
    <path class="st10" d="M199.32,95.13c.08,0,.12.52,0,1.13s-.47,1-.54,1,.09-.5.24-1.08.21-1.05.3-1.05Z"/>
    <path class="st10" d="M217.79,111.71c-.07,0-.5-.42-1-1-.32-.36-.57-.78-.73-1.23.07,0,.51.42,1,1s.8,1.18.73,1.23Z"/>
    <path class="st10" d="M219.58,109.37c-.19.51-.48.97-.85,1.37-.53.71-1,1.24-1.09,1.19.2-.5.49-.96.85-1.37.54-.71,1.02-1.24,1.09-1.19Z"/>
    <path class="st10" d="M218.82,106.56c-.06.06-.53-.33-.91-1-.27-.36-.43-.79-.45-1.24.09,0,.34.49.71,1.08s.71,1.1.65,1.16Z"/>
    <path class="st10" d="M219.84,104.05c-.01.42-.11.83-.3,1.2-.24.63-.49,1.12-.57,1.09s0-.57.29-1.2.5-1.12.58-1.09Z"/>
    <path class="st10" d="M215.38,117.72c-.06.06-.5-.39-1-1-.32-.34-.57-.75-.74-1.19.07-.05.51.4,1,1s.81,1.14.74,1.19Z"/>
    <path class="st10" d="M218.24,115.91c0,.07-.51.55-1.24,1.08-.42.36-.89.64-1.41.84-.05-.07.5-.56,1.23-1.08.42-.36.9-.65,1.42-.84Z"/>
    <path class="st10" d="M224.34,105.53c-.23.52-.51,1.02-.85,1.48-.25.52-.56,1.01-.92,1.46.09-.58.32-1.13.66-1.61.25-.53.63-.99,1.11-1.33Z"/>
    <path class="st10" d="M222.63,108.03c-.3-.44-.5-.94-.59-1.46-.2-.49-.3-1.02-.3-1.55.29.44.49.94.59,1.46.19.49.29,1.02.3,1.55Z"/>
    <path class="st10" d="M223.04,104.2c.11.62.11,1.24,0,1.86-.01.62-.12,1.23-.33,1.82-.08-1.24.04-2.48.35-3.68h-.02Z"/>
    <path class="st10" d="M221.4,113.32c-.07,0-.3-.32-.5-.78s-.31-.88-.23-.91.3.32.5.79.31.87.23.9Z"/>
    <path class="st10" d="M223.96,111.47c0,.07-.46.58-1.16,1.15-.39.38-.85.69-1.35.91.32-.45.71-.84,1.16-1.15.39-.38.85-.69,1.35-.91Z"/>
    <path class="st10" d="M220.83,97.85c-.06,0-.55-.36-1.1-.94s-.94-1.08-.88-1.14.56.36,1.1.94.94,1.08.88,1.14Z"/>
    <rect class="st16" x="169.33" y="142.12" width="75.08" height="7.09"/>
    <rect class="st16" x="180.4" y="147.66" width="6.62" height="10.82"/>
    <rect class="st16" x="225.74" y="147.66" width="6.62" height="10.82"/>
  </g>
  <path class="st11" d="M161.79,466.8c.37-1.2,10.57-58.83,10.57-58.83h11l-15.67,58.83h-5.9Z"/>
  <path class="st11" d="M277.85,466.8c-.36-1.2-10.56-58.83-10.56-58.83h-11l15.69,58.83h5.87Z"/>
  <rect class="st11" x="143.74" y="246.86" width="36.11" height="173.96"/>
  <rect class="st1" x="167.78" y="247.26" width="118.62" height="173.47"/>
  <rect class="st1" x="163.77" y="246.86" width="126.62" height="5.86"/>
  <path class="st11" d="M290.17,252.83c0,.15-28.45.26-63.53.26s-63.54-.11-63.54-.26,28.44-.26,63.54-.26,63.53.12,63.53.26Z"/>
  <path class="st11" d="M279.96,293.89v-8.82c0-5.7-.06-14-.1-24.39l.17.17-105.74.09h0l.26-.26v33.21l-.26-.26,75.59.12,22.13.07h8.03-7.91l-22.08.07-75.84.24h-.25v-33.72h.27l105.74.09h.17v.17c0,10.46-.07,18.77-.09,24.49v8.16c0,.39-.09.57-.09.57Z"/>
  <path class="st11" d="M279.96,333.84v-8.82c0-5.7-.06-14-.1-24.39l.17.17-105.74.09h0l.26-.26v33.21l-.26-.26,75.59.12,22.13.07h8.03-7.91l-22.08.07-75.84.29h-.25v-33.72h.27l105.74.09h.17v.17c0,10.46-.07,18.77-.09,24.49v8.16c0,.39-.09.52-.09.52Z"/>
  <path class="st11" d="M279.96,373.79v-8.82c0-5.7-.06-14-.1-24.39l.17.17-105.74.09h0l.26-.26v33.21l-.26-.26,75.59.12,22.13.07h8.03-7.91l-22.08.07-75.76.12h-.25v-33.72h.27l105.74.09h.17v.17c0,10.46-.07,18.77-.09,24.49v8.16c0,.39-.17.69-.17.69Z"/>
  <path class="st11" d="M279.96,413.74v-8.82c0-5.7-.06-14-.1-24.39l.17.17-105.74.09h0l.26-.26v33.21l-.26-.26,75.59.12,22.13.07h8.03-7.91l-22.08.07-75.76.12h-.25v-33.72h.27l105.74.09h.17v.17c0,10.46-.07,18.77-.09,24.49v8.16c0,.39-.17.69-.17.69Z"/>
  <rect class="st11" x="135.54" y="246.86" width="18.02" height="5.98"/>
  <path class="st15" d="M228.98,274.35c1.59.46,2.51,2.13,2.04,3.72-.46,1.59-2.13,2.51-3.72,2.04-1.56-.45-2.48-2.07-2.06-3.64.42-1.6,2.06-2.56,3.66-2.14.03,0,.05.01.08.02Z"/>
  <path class="st15" d="M228.98,313.54c1.59.46,2.51,2.13,2.04,3.72-.46,1.59-2.13,2.51-3.72,2.04-1.56-.45-2.48-2.07-2.06-3.64.42-1.6,2.06-2.56,3.66-2.14.03,0,.05.01.08.02Z"/>
  <path class="st15" d="M228.98,354.25c1.59.46,2.51,2.13,2.04,3.72-.46,1.59-2.13,2.51-3.72,2.04-1.56-.45-2.48-2.07-2.06-3.64.42-1.6,2.06-2.56,3.66-2.14.03,0,.05.01.08.02Z"/>
  <path class="st15" d="M228.98,394.86c1.59.46,2.5,2.13,2.04,3.72-.46,1.59-2.13,2.5-3.72,2.04-1.56-.46-2.48-2.08-2.06-3.65.43-1.6,2.07-2.55,3.67-2.13.02,0,.05.01.07.02Z"/>
  <g id="freepik--speech-bubble-2--inject-126">
    <path class="st12" d="M411.87,132.62c.03-11.33,9.24-20.5,20.57-20.47,11.33.03,20.5,9.24,20.47,20.57-.03,11.33-9.24,20.5-20.57,20.47-4.55-.01-8.97-1.54-12.56-4.33h0l-6.89.89,2-6.38c-1.99-3.23-3.03-6.96-3.02-10.75Z"/>
    <path class="st10" d="M411.87,132.62c-.05,1,0,2.01.15,3,.37,2.78,1.31,5.45,2.76,7.85v-.08l-2,6.37c-.02.07.02.15.09.17h.06l6.89-.86c.08-.02.14-.09.13-.17v-.08h0l-.21.22c2.44,1.91,5.28,3.24,8.31,3.91,1.64.37,3.32.51,5,.44l1.3-.06c.44,0,.87-.12,1.31-.18.89-.13,1.76-.33,2.62-.58,1.76-.53,3.44-1.3,5-2.28l.61-.37.57-.42c.38-.29.77-.55,1.14-.87.74-.62,1.43-1.29,2.08-2,.66-.73,1.27-1.5,1.83-2.3.55-.83,1.04-1.7,1.47-2.6.43-.91.81-1.84,1.13-2.79.29-.98.51-1.99.67-3,.37-2.3.34-4.65-.08-6.94-.42-2.22-1.19-4.36-2.28-6.34-1.06-1.9-2.41-3.62-4-5.1-.78-.72-1.6-1.39-2.47-2-.86-.56-1.76-1.07-2.69-1.51l-.69-.33c-.23-.11-.47-.18-.71-.27-.47-.17-.93-.36-1.41-.51-.94-.28-1.89-.49-2.86-.63-.94-.15-1.89-.24-2.84-.25-.46-.03-.93-.03-1.39,0-.45,0-.91.04-1.36.1-6.18.73-11.69,4.21-15,9.48-.6.96-1.13,1.96-1.58,3-.36.88-.65,1.79-.89,2.71-.11.42-.21.81-.29,1.18s-.11.72-.16,1-.09.63-.13.9,0,.53,0,.76v1.35-.35c0-.23,0-.58.08-1,0-.22,0-.47.05-.75s.09-.57.15-.89.11-.67.17-1,.2-.75.3-1.16c.25-.91.56-1.81.92-2.68.46-1.04.99-2.04,1.59-3,1.48-2.3,3.41-4.29,5.66-5.84,2.74-1.87,5.9-3.05,9.2-3.43.45-.06.9-.09,1.35-.1.45,0,.91-.07,1.37,0,.93.02,1.86.11,2.78.26.95.15,1.89.36,2.82.63.46.15.92.34,1.38.5.23.09.47.17.7.27l.67.33c.91.43,1.8.93,2.64,1.49.85.61,1.66,1.28,2.42,2,1.58,1.44,2.91,3.13,3.95,5,1.07,1.94,1.82,4.04,2.23,6.22.42,2.25.44,4.55.08,6.8-.15.99-.37,1.97-.66,2.93-.62,1.87-1.48,3.64-2.55,5.29-.55.79-1.14,1.55-1.79,2.26-.62.71-1.29,1.38-2,2-.35.31-.75.57-1.12.85l-.56.42-.59.36c-1.54.96-3.2,1.72-4.94,2.25-.85.24-1.71.43-2.58.57-.43.06-.86.14-1.28.18l-1.29.07c-1.66.07-3.32-.07-4.94-.42-2.99-.65-5.79-1.95-8.21-3.82-.06-.06-.15-.06-.21,0-.04.06-.04.13,0,.19h0l.11-.25-6.89.91.15.17c.72-2.36,1.37-4.51,2-6.39,0-.03,0-.06,0-.09-1.46-2.37-2.43-5-2.84-7.75-.14-1-.18-1.69-.22-2.19v-.56c-.17-.14-.17-.2-.18-.2Z"/>
    <path class="st10" d="M426.56,132.67c0,1.07-.86,1.93-1.93,1.93s-1.93-.86-1.93-1.93c0-1.07.86-1.93,1.93-1.93,0,0,0,0,0,0,1.06,0,1.92.87,1.92,1.93Z"/>
    <path class="st10" d="M434.27,132.69c0,1.07-.86,1.93-1.93,1.93s-1.93-.86-1.93-1.93c0-1.07.86-1.93,1.93-1.93,0,0,0,0,0,0,1.06.01,1.91.87,1.92,1.93Z"/>
    <path class="st10" d="M441.95,131.75c.54.92.22,2.1-.7,2.64-.92.54-2.1.22-2.64-.7s-.22-2.1.7-2.64c0,0,.01,0,.02-.01.92-.52,2.09-.2,2.62.71Z"/>
  </g>
  <g id="freepik--speech-bubble-1--inject-126">
    <path class="st12" d="M381.5,63.44c-11.03,1.05-19.11,10.85-18.06,21.88,0,0,0,0,0,.01.32,3.88,1.66,7.6,3.88,10.8l5.11,4.59h0c3.9,2.27,8.43,3.2,12.91,2.66,11.05-.87,19.3-10.54,18.43-21.59-.87-11.05-10.54-19.3-21.59-18.43-.23.02-.46.04-.68.07h0Z"/>
    <path class="st10" d="M402.46,77.13c-.06-.09-.11-.19-.14-.3-.1-.22-.22-.52-.38-.89-.18-.49-.4-.97-.66-1.42-.31-.64-.67-1.26-1.07-1.85-1.05-1.65-2.35-3.12-3.84-4.38-7.32-6.29-18.07-6.5-25.63-.5-.76.59-1.47,1.23-2.13,1.92-1.34,1.45-2.47,3.08-3.38,4.83-.44.91-.82,1.86-1.13,2.83-.67,1.98-1,4.06-1,6.15-.01,4.33,1.39,8.54,4,12,1.24,1.68,2.75,3.15,4.46,4.35,1.63,1.19,3.44,2.11,5.37,2.71.93.31,1.88.55,2.84.73.94.15,1.9.24,2.85.26,9.64.27,18.13-6.33,20.24-15.74.44-1.9.59-3.86.45-5.81-.03-.71-.12-1.42-.25-2.12-.06-.52-.17-1.03-.31-1.53l-.24-.94c-.03-.1-.05-.21-.06-.32.05.1.09.2.11.31l.29.93c.16.5.28,1.01.36,1.53.16.7.26,1.41.3,2.13.18,1.97.05,3.95-.38,5.88-1.23,5.75-4.87,10.69-10,13.57-4.1,2.25-8.83,3.05-13.44,2.29-.99-.17-1.96-.42-2.91-.73-.97-.32-1.92-.7-2.84-1.14-.92-.48-1.81-1.03-2.66-1.63-1.76-1.22-3.31-2.73-4.59-4.45-1.28-1.78-2.3-3.74-3-5.82-.66-2.1-1-4.3-1-6.5-.01-2.14.33-4.27,1-6.3.32-.99.71-1.96,1.17-2.9.47-.9,1-1.78,1.59-2.61.58-.82,1.21-1.6,1.89-2.33.68-.72,1.41-1.39,2.18-2,2.9-2.28,6.35-3.73,10-4.22,5.83-.77,11.72,1.01,16.15,4.88,1.5,1.29,2.78,2.81,3.82,4.49.38.6.72,1.23,1,1.88.25.47.46.95.63,1.45.13.38.24.68.33.91.02.13.03.27.01.4Z"/>
    <path class="st12" d="M386,108.13c.92,1.96.09,4.29-1.87,5.22-1.96.92-4.29.09-5.22-1.87-.92-1.96-.09-4.29,1.87-5.22,1.95-.93,4.28-.1,5.21,1.85,0,0,0,.01,0,.02Z"/>
    <path class="st10" d="M386,108.13s-.19-.3-.59-.75c-.57-.64-1.34-1.07-2.18-1.23-2.01-.4-3.96.9-4.37,2.91s.9,3.96,2.91,4.37c1.61.32,3.24-.45,4.01-1.9.4-.75.55-1.62.43-2.46-.1-.6-.25-.92-.21-.93.21.25.35.56.4.89.22.9.11,1.84-.3,2.67-.63,1.25-1.85,2.1-3.24,2.25-2.28.21-4.29-1.47-4.5-3.75-.11-1.2.31-2.38,1.15-3.25,1-.99,2.43-1.4,3.8-1.09.9.2,1.69.72,2.25,1.45.38.49.47.83.44.83Z"/>
    <path class="st9" d="M392.44,82.13c-.1-1.13-.56-2.21-1.3-3.07-.69-.87-1.64-1.51-2.71-1.82-1.88-.5-3.85.32-4.83,2-.3-.56-.72-1.05-1.22-1.44-.96-.71-2.17-.99-3.34-.79-1.09.22-2.09.78-2.85,1.59-.81.82-1.35,1.87-1.54,3-.23,1.43,0,2.9.67,4.19.79,1.31,1.87,2.41,3.16,3.22,2.1,1.38,4.87,3.11,4.87,3.11,0,0,2.46-1.69,4.67-2.9,1.36-.7,2.53-1.71,3.41-2.95.77-1.24,1.13-2.69,1.01-4.14Z"/>
  </g>
  <g id="freepik--Calendar--inject-126">
    <rect class="st13" x="604.87" y="178.46" width="87.66" height="78.43"/>
    <path class="st10" d="M692.53,256.89v-21.58c0-13.71-.06-33.29-.11-56.85l.21.2h-87.65l.24-.24v78.43l-.21-.22,63.4.11,17.88.06h6.38-6.29l-17.83.05-63.54.11h-.22v-78.89h88.12v.21c-.05,23.62-.08,43.24-.11,57,0,6.83,0,12.2-.05,15.87v4.16c0,.95-.22,1.58-.22,1.58Z"/>
    <path class="st10" d="M692.53,256.89v-5.66c0-3.68,0-9.07-.06-15.92,0-13.71-.06-33.29-.1-56.85l.2.2h-87.65l.23-.23v78.43l-.2-.21,63.4.1,17.89.06h6.37-6.29l-17.83.06-63.54.1h-.21v-78.87h88.1v.2c0,23.62-.08,43.24-.1,57,0,6.84,0,12.21-.05,15.88v4.16c0,.95-.16,1.55-.16,1.55Z"/>
    <path class="st10" d="M638.48,192.41c0,.13-4.61.24-10.3.24s-10.35-.13-10.35-.24,4.61-.23,10.31-.23,10.34.08,10.34.23Z"/>
    <path class="st10" d="M675.63,198.28c0,.13-12.68.24-28.31.24s-28.32-.11-28.32-.24,12.68-.23,28.32-.23,28.31.1,28.31.23Z"/>
    <rect class="st10" x="618.02" y="208.26" width="3.69" height="3.69"/>
    <rect class="st10" x="627.11" y="208.26" width="3.69" height="3.69"/>
    <rect class="st9" x="636.37" y="208.09" width="3.69" height="3.69"/>
    <rect class="st10" x="645.29" y="208.26" width="3.69" height="3.69"/>
    <rect class="st10" x="654.39" y="208.26" width="3.69" height="3.69"/>
    <rect class="st10" x="663.48" y="208.26" width="3.69" height="3.69"/>
    <rect class="st10" x="672.57" y="208.26" width="3.69" height="3.69"/>
    <rect class="st10" x="618.02" y="216.11" width="3.69" height="3.69"/>
    <rect class="st10" x="627.11" y="216.11" width="3.69" height="3.69"/>
    <rect class="st10" x="636.2" y="216.11" width="3.69" height="3.69"/>
    <rect class="st10" x="645.29" y="216.11" width="3.69" height="3.69"/>
    <rect class="st10" x="654.39" y="216.11" width="3.69" height="3.69"/>
    <rect class="st9" x="663.64" y="215.94" width="3.69" height="3.69"/>
    <rect class="st10" x="672.57" y="216.11" width="3.69" height="3.69"/>
    <rect class="st10" x="618.02" y="223.96" width="3.69" height="3.69"/>
    <rect class="st9" x="627.28" y="223.79" width="3.69" height="3.69"/>
    <rect class="st10" x="636.2" y="223.96" width="3.69" height="3.69"/>
    <rect class="st10" x="645.29" y="223.96" width="3.69" height="3.69"/>
    <rect class="st10" x="654.39" y="223.96" width="3.69" height="3.69"/>
    <rect class="st10" x="663.48" y="223.96" width="3.69" height="3.69"/>
    <rect class="st10" x="672.57" y="223.96" width="3.69" height="3.69"/>
    <rect class="st10" x="618.02" y="231.81" width="3.69" height="3.69"/>
    <rect class="st10" x="627.11" y="231.81" width="3.69" height="3.69"/>
    <rect class="st10" x="636.2" y="231.81" width="3.69" height="3.69"/>
    <rect class="st9" x="645.46" y="231.64" width="3.69" height="3.69"/>
    <rect class="st10" x="654.39" y="231.81" width="3.69" height="3.69"/>
    <rect class="st10" x="663.48" y="231.81" width="3.69" height="3.69"/>
    <rect class="st10" x="672.57" y="231.81" width="3.69" height="3.69"/>
    <rect class="st10" x="618.02" y="239.66" width="3.69" height="3.69"/>
    <rect class="st10" x="627.11" y="239.66" width="3.69" height="3.69"/>
    <rect class="st10" x="636.2" y="239.66" width="3.69" height="3.69"/>
    <rect class="st10" x="645.29" y="239.66" width="3.69" height="3.69"/>
    <rect class="st10" x="654.39" y="239.66" width="3.69" height="3.69"/>
    <rect class="st9" x="663.64" y="239.5" width="3.69" height="3.69"/>
    <rect class="st10" x="672.57" y="239.66" width="3.69" height="3.69"/>
  </g>
  <g id="freepik--Character--inject-126">
    <path class="st14" d="M274.5,232.03l-7.44-3.1c-4.07.64-12.34-4.12-13.33-5.59-.5-.84-1.42-1.33-2.4-1.29,0,0-9.42.25-10.31-2.53l.42-1.15h10.19c.19,0,.71-.91-.54-1.89s-5.7-2.37-5.7-2.37c-1.77.11-3.54-.09-5.23-.6-.77-.48-1.31-1.25-1.49-2.14l-.14-.75s7.74-.3,9.31.26,5.09,1.56,5.09,1.56l-.14-.66-7.4-3.77s-7.13-1.49-7.86-3.45.48-1.51.48-1.51c0,0,7.61.84,9.33,1.48.7.26,7.11,3.39,7.11,3.39l.09-1.24-5.78-3.36s-6.52-1.77-6.21-3.88l.68-1.46s8.47,2.54,8.91,2.57,8.72,5.71,8.72,5.71l1,.06-.89-1.76c-.84-1.09-1.27-2.43-1.23-3.8-.09-2.65,1.19-3.14,1.19-3.14l3.33,4.94s4.22,5.1,5,6.7c.88,2.28,1.55,4.64,2,7.05,0,.67,2.49,2.09,2.49,2.09l4.47.81-3.72,12.82Z"/>
    <path class="st17" d="M263.69,210.26c.08,0-.37.87-.7,2.32-.95,3.82.19,7.85,3,10.61,1,1.05,1.87,1.52,1.82,1.59-.77-.29-1.48-.74-2.06-1.33-3.1-2.74-4.33-7.03-3.15-11,.2-.8.58-1.55,1.09-2.19Z"/>
    <path class="st0" d="M346.56,195.49s-5.65.45-15.39,11.19c-8,8.81-26.3,24.19-26.3,24.19l-30-14.58-7,15.13s16.07,10.51,25.38,16.07c10.33,6.17,15.89,7.57,26.18-.77,12.25-9.93,21.12-27.35,21.12-27.35l6.01-23.88Z"/>
    <path class="st10" d="M306.18,238.13c-.15,0,0-1.68-.32-3.69s-1-3.52-.91-3.59c.8,1.01,1.29,2.23,1.42,3.51.3,1.25.24,2.56-.19,3.77Z"/>
    <polygon class="st14" points="301.84 116.99 301.37 121.95 305.24 128.95 293.31 134.97 290.7 127.51 284.46 113.63 286.64 113.56 293.62 109.68 298.86 112.71 301.84 116.99"/>
    <path class="st0" d="M286.05,129.58l-2.09-2.91c.11-.09,10.94-9.09,9.48-17-.57-3.12-2.08-4.93-4.63-5.52-2-.46-6.76.14-6.78.15l-.64-3.66c.11,0,13.6-2.83,15.59,8.06,1.88,10.25-10.41,20.43-10.93,20.88Z"/>
    <path class="st10" d="M286.05,129.58s.2-.21.63-.61,1-1,1.79-1.76c2.15-2.19,4.05-4.63,5.64-7.26,1.09-1.81,1.91-3.77,2.44-5.81.61-2.34.52-4.81-.26-7.1-.86-2.53-2.8-4.54-5.3-5.5-2.71-.95-5.6-1.24-8.44-.83l-1.09.17.19-.29c.21,1.24.43,2.46.64,3.65l-.32-.2c1.92-.26,3.86-.36,5.8-.29,1.93.06,3.71,1.07,4.75,2.69.88,1.51,1.32,3.25,1.26,5-.08,1.6-.47,3.16-1.15,4.61-1.15,2.43-2.66,4.67-4.47,6.66-1.28,1.43-2.66,2.77-4.13,4v-.14c.62.92,1.12,1.64,1.48,2.17l.39.59c.05.07.09.14.13.21-.2-.22-.39-.46-.56-.7l-1.61-2.15-.06-.07.08-.07c1.43-1.27,2.76-2.63,4-4.09,1.76-1.98,3.22-4.2,4.33-6.61.65-1.4,1.02-2.91,1.09-4.45.04-1.66-.38-3.31-1.22-4.74-.96-1.49-2.6-2.4-4.37-2.45-.93-.05-1.87-.05-2.8,0l-1.43.11-.72.07h-.69c.19,1-.46,1.97-1.47,2.17s-1.97-.46-2.17-1.47c-.19-1,.46-1.97,1.47-2.17.91-.18,1.82.35,2.11,1.24h-.26c-.21-1.19-.43-2.41-.65-3.65v-.25h.23c.42-.09.78-.13,1.17-.18,2.92-.43,5.91-.13,8.69.87,2.63,1.01,4.67,3.14,5.57,5.81.79,2.38.86,4.94.22,7.36-.56,2.08-1.42,4.06-2.54,5.9-1.63,2.64-3.59,5.06-5.82,7.21-.78.77-1.42,1.33-1.86,1.7-.21.24-.45.46-.71.65Z"/>
    <path class="st0" d="M241.89,102.34l3.38,8.23,10.74,7.88-2.43-15,29.59-4.06,3.19,32.4c-8.15,3.02-16.86,4.22-25.52,3.5l-18-21.62-7.9,2.43,6.95-13.76Z"/>
    <path class="st14" d="M286.48,107.3s-1.18-3.5,2.07-3.1,4.41,2.45,4.15,3c-.45.62-.98,1.19-1.56,1.69,1.05.94,2.01,1.97,2.86,3.09.18.58.12,1.21-.17,1.75,0,0,1,2.72-.75,2.71-.89.06-1.77-.23-2.45-.81,0,0,1.4,1.62,1.16,2.45-.29.74-1.12,1.11-1.86.82-.11-.04-.22-.1-.32-.17-.39-.24-3.23-3.21-3.23-3.21l-1.83-2.16s-.82-2,.86-2.32c0,0-1.15-3.13,1.07-3.74Z"/>
    <path class="st17" d="M286.48,107.3c-.34.16-.64.39-.89.67-.46.95-.46,2.05,0,3l.06.16h-.17c-.4.07-.74.35-.87.73-.09.46-.04.94.14,1.37v-.05c.56.65,1.15,1.34,1.79,2.07s1.39,1.43,2.15,2.18c.36.39.75.75,1.17,1.07.43.25.95.25,1.38,0,.19-.13.33-.33.38-.55,0-.25-.05-.5-.16-.72-.27-.53-.6-1.02-1-1.46l.38-.34c.55.43,1.22.68,1.92.7.26.05.53.02.77-.08.19-.14.31-.35.32-.59.04-.57-.04-1.14-.23-1.67v-.21c.22-.41.3-.89.23-1.35-.2-.43-.48-.82-.82-1.14-.67-.74-1.37-1.42-2-2l-.19-.18.19-.17c.34-.3.68-.62,1-.93s.66-.65.54-.91c-.27-.72-.79-1.31-1.46-1.67-.6-.36-1.26-.61-1.94-.75-.57-.13-1.17-.13-1.74,0-.45.13-.79.48-.9.93-.1.34-.13.7-.09,1.06,0,.58.14.89.11.9-.15-.27-.24-.58-.26-.89-.07-.37-.07-.75,0-1.12.11-.53.49-.96,1-1.14.62-.16,1.27-.16,1.89,0,.73.12,1.43.37,2.07.74.78.4,1.38,1.08,1.69,1.9.04.14.04.29,0,.43-.04.13-.11.25-.19.35-.14.19-.29.36-.45.53-.31.34-.64.66-1,1v-.34c.69.63,1.4,1.31,2.09,2,.17.19.35.39.51.6.2.22.34.47.43.75.12.59.03,1.2-.26,1.72v-.2c.23.61.32,1.26.27,1.91-.02.4-.23.78-.57,1-.34.15-.71.2-1.07.15-.83-.03-1.62-.34-2.26-.87l.38-.34c.4.48.74,1.01,1,1.58.16.31.23.66.19,1-.07.36-.29.67-.59.87-.58.35-1.31.35-1.89,0-.46-.35-.88-.73-1.27-1.15-.76-.78-1.47-1.51-2.14-2.24l-1.76-2.1h0c-.21-.51-.25-1.08-.11-1.62.17-.49.6-.85,1.12-.93l-.11.2c-.46-1.04-.39-2.23.19-3.21.24-.35.61-.58,1.03-.65Z"/>
    <path class="st17" d="M291.02,116.13c-.99-.81-1.92-1.69-2.77-2.64-1.5-1.48-3-2.34-2.9-2.47,1.26.39,2.38,1.11,3.25,2.1.99.84,1.81,1.86,2.42,3.01Z"/>
    <path class="st17" d="M293.61,113.68c-.06,0-.41-.39-.94-1.09-.67-.93-1.4-1.81-2.19-2.64-1.17-1.11-2.53-2.02-4-2.68.49-.02.98.09,1.42.32,1.1.46,2.1,1.14,2.92,2,.81.85,1.52,1.78,2.12,2.79.49.75.75,1.26.67,1.3Z"/>
    <path class="st14" d="M297.27,118.99c-1.05-1.17-1.64-2.67-1.65-4.24v-2.81l-1.29-.42s-1.93,3.41-4.78-.54c0,0,2.14-3.47,3.88-3.64s5.76,1.08,6.28,2.61,2.84,5.67,1.95,7.83"/>
    <path class="st17" d="M301.69,117.78c.08-.45.11-.91.1-1.37-.16-1.25-.49-2.46-1-3.61-.33-.74-.68-1.55-1.06-2.41-.21-.92-1.09-1.43-2-1.87-.99-.45-2.05-.75-3.13-.89-.53-.11-1.08-.06-1.59.13-.51.28-.97.64-1.36,1.06-.66.71-1.26,1.47-1.78,2.29v-.28c.5.85,1.3,1.49,2.25,1.79.89.06,1.72-.42,2.13-1.21l.1-.15.16.05,1.28.43h.15v3.22c.03.77.19,1.53.47,2.25.26.61.6,1.2,1,1.73,0,0-.16-.1-.4-.35-.34-.39-.62-.82-.83-1.29-.32-.73-.52-1.52-.58-2.32,0-.93,0-2-.05-3.09l.14.2-1.29-.4.26-.11c-.25.44-.59.81-1,1.1-.45.32-1.01.45-1.56.37-1.09-.31-2.02-1.03-2.6-2l-.1-.14.09-.14c.54-.85,1.16-1.65,1.85-2.39.44-.47.95-.86,1.51-1.16.59-.24,1.24-.3,1.87-.17,1.14.16,2.24.5,3.27,1,.49.22.95.5,1.37.84.21.18.39.38.55.6.06.12.12.26.18.37l.12.33c.35.87.71,1.68,1,2.44.51,1.18.82,2.44.91,3.73,0,.34-.05.67-.14,1-.29.32-.29.43-.29.42Z"/>
    <path class="st0" d="M240.42,110.71c-2.18,3.71-5,6.11-6.29,5.35s-.59-4.39,1.58-8.11,5.11-6.66,6.18-5.61c.71.7.7,4.65-1.47,8.37Z"/>
    <path class="st10" d="M240.42,110.71s.21-.45.55-1.27c.48-1.15.82-2.35,1-3.58.14-.84.15-1.69.05-2.53-.08-.44-.19-.92-.57-1-.46-.01-.9.15-1.25.45-1.73,1.45-3.18,3.2-4.26,5.18-1.22,1.9-1.99,4.04-2.27,6.28-.05.47.05.94.27,1.35.24.34.68.47,1.07.33.8-.27,1.52-.72,2.12-1.31.91-.85,1.73-1.8,2.44-2.82.25-.39.52-.76.82-1.11-.03.12-.08.23-.15.33-.1.21-.28.51-.51.89-.67,1.09-1.46,2.1-2.37,3-.63.65-1.4,1.14-2.25,1.44-.27.06-.54.06-.81,0-.28-.08-.53-.26-.7-.5-.29-.49-.41-1.05-.36-1.61.07-1.13.31-2.23.73-3.28.42-1.12.95-2.19,1.56-3.22,1.12-2.04,2.62-3.83,4.42-5.3.44-.37,1.02-.55,1.59-.5.3.07.56.28.67.57.1.24.17.49.2.75.09.88.05,1.78-.11,2.65-.22,1.25-.62,2.46-1.19,3.6-.15.31-.32.61-.51.9-.1.22-.17.32-.18.31Z"/>
    <ellipse class="st0" cx="268.44" cy="101.51" rx="14.84" ry="2.99" transform="translate(-11.45 38.05) rotate(-7.94)"/>
    <path class="st10" d="M283.13,99.46s.11.25-.14.62c-.39.48-.88.87-1.44,1.14-2.01.99-4.13,1.74-6.32,2.23-3.22.78-6.5,1.32-9.8,1.63-1.95.19-3.91.28-5.87.25-1.04-.01-2.08-.09-3.11-.23-.54-.08-1.07-.2-1.59-.37-.27-.08-.53-.2-.77-.36-.3-.16-.52-.45-.59-.78-.02-.34.11-.67.35-.91.19-.21.41-.4.65-.56.45-.3.92-.57,1.42-.78.95-.42,1.93-.78,2.93-1.08,1.88-.56,3.79-1.02,5.72-1.37,3.26-.6,6.56-.97,9.88-1.1,2.24-.14,4.48,0,6.68.41.61.1,1.19.34,1.69.7.35.29.32.57.31.56-.07-.19-.2-.36-.37-.48-.51-.31-1.08-.52-1.67-.6-2.19-.33-4.42-.42-6.63-.26-3.29.18-6.57.58-9.81,1.2-1.91.36-3.8.82-5.66,1.38-.98.3-1.94.65-2.87,1.07-.47.2-.92.45-1.35.74-.41.27-.84.68-.8,1s.58.6,1.05.76c.49.15.99.27,1.5.34.99.14,2,.22,3,.24,1.95.03,3.89-.05,5.83-.23,3.3-.27,6.58-.77,9.81-1.49,2.17-.45,4.29-1.14,6.31-2.06.54-.23,1.03-.57,1.44-1,.14-.17.22-.39.22-.61Z"/>
    <path class="st10" d="M263.69,132c.27-.76.48-1.55.62-2.35.17-1.95-.32-3.89-1.39-5.53-1.12-1.62-2.53-3.01-4.17-4.1-.7-.43-1.36-.91-2-1.42.79.26,1.54.63,2.22,1.11,1.75,1.04,3.25,2.45,4.4,4.13,1.15,1.72,1.62,3.81,1.32,5.86-.1.61-.3,1.2-.59,1.75-.24.39-.41.57-.41.55Z"/>
    <path class="st10" d="M237.87,106.96c-.28.11-.51.61-.24.75.22.08.46-.02.54-.24.03-.06.03-.13.03-.2l-.33-.31"/>
    <path class="st10" d="M239.69,108.41c-.28.12-.51.62-.24.76.22.08.46-.02.54-.24.03-.06.03-.13.03-.2l-.33-.32"/>
    <path class="st10" d="M236.37,109.13c-.28.11-.51.61-.24.75.22.08.46-.02.54-.24.03-.06.03-.13.03-.2l-.33-.31"/>
    <path class="st10" d="M238.14,110.61c-.27.11-.5.61-.24.75.21.09.46,0,.55-.22.03-.07.04-.14.03-.22l-.34-.31"/>
    <path class="st10" d="M239.85,105.91c-.27.11-.5.61-.24.75.22.08.47-.03.55-.25.02-.06.03-.13.03-.19l-.34-.31"/>
    <path class="st10" d="M236,112.03c-.27.11-.5.61-.24.75.21.09.46,0,.55-.22.03-.07.04-.14.03-.22l-.34-.31"/>
    <path class="st0" d="M359.79,192.25s-37.46-28-38.68-31.17-16.81-33.85-16.81-33.85l-13.33,6.81s7.41,25,12.28,34.78,34.71,40.47,34.71,40.47l21.83-17.04Z"/>
    <path class="st10" d="M323.27,171.33c-2.01.17-3.98.62-5.87,1.34-1.81.87-3.5,1.99-5,3.33.28-.54.67-1.02,1.14-1.41,1.07-1.01,2.31-1.82,3.66-2.4,1.35-.58,2.8-.92,4.27-1,.6-.08,1.22-.03,1.8.14Z"/>
    <path class="st14" d="M403.42,175.41l3.51,2.23,3.47-5.09.57-3.4,4.46-6c.28,1.04.5,2.09.65,3.15l4.31,5.32,2.3,11.09,4.31,5.39-11.2,5.94-3.7-6.91c-2.1-.72-4.08-1.73-5.9-3-2.17-1.75-5.46-8.8-5.46-8.8.84-.46,1.87-.43,2.68.08Z"/>
    <path class="st0" d="M413.03,176c.25-.34.29-.8.09-1.18l-2.81-5.49-8.11-14.7c-.3-.55-.99-.75-1.53-.45-.14.08-.27.19-.37.32l-5.49,7.34c-.3.36-.35.88-.12,1.29l11.22,20c.32.55,1.02.74,1.57.42.14-.08.26-.18.35-.31l5.2-7.24Z"/>
    <path class="st10" d="M412.1,175.67c.24-.31.27-.74.08-1.08l-2.63-5.16-7.51-13.85c-.24-.5-.83-.71-1.33-.48-.17.08-.31.2-.41.36l-5.08,6.67c-.25.32-.28.77-.07,1.12l10.73,18.76c.24.5.84.7,1.34.46.16-.08.3-.2.4-.36l4.48-6.44Z"/>
    <path class="st14" d="M410.97,169.13s-.58.33-2.08,1.3c-1.79,1.16-2.48.24-2.48.24h0c-.43-.65-.25-1.52.39-1.95l3.6-2.39-.22-.82s-2,.67-3.49,1c-3.14.64-2.51-2.3-2.51-2.3l3.52-1.21-2.38-2.29c-.9-.65-1.1-1.9-.45-2.79.05-.07.11-.14.17-.21l7.95,4.21s2.15.41,2.44,1.21c.28,1.04.5,2.09.65,3.15l-5.11,2.85Z"/>
    <path class="st17" d="M407.23,171.03c.54.02,1.07-.09,1.55-.33,1.17-.49,2.29-1.1,3.32-1.84l.45-.32h-.3c.92,1,1.63,1.92,2.22,2.55s1,1,1,.94c-.23-.4-.49-.78-.8-1.13-.65-.94-1.37-1.83-2.13-2.68l-.13-.14-.17.12-.44.31c-1.01.72-2.08,1.36-3.19,1.92-.81.39-1.39.53-1.38.6Z"/>
    <path class="st17" d="M410.4,166.53s.3-.2.78-.48c.6-.37,1.29-.56,2-.56.71,0,1.4.21,2,.58.47.29.72.54.77.49s-.12-.37-.58-.75c-.61-.5-1.38-.78-2.17-.78-.79,0-1.57.26-2.19.75-.49.35-.65.72-.61.75Z"/>
    <path class="st17" d="M404.69,164.03c.06.12,1.83-.67,4.13-1.24s4.24-.71,4.23-.85c-2.94-.18-5.85.55-8.36,2.09Z"/>
    <path class="st17" d="M414.03,184.73c.07,0-.23-.63-.48-1.65-.67-2.68.01-5.51,1.82-7.6.68-.8,1.22-1.19,1.18-1.25-.54.22-1.03.56-1.42,1-2.06,2.08-2.78,5.13-1.89,7.91.13.59.4,1.13.79,1.59Z"/>
    <path class="st0" d="M406.57,195.73l-.57-.92c3.49,1,10.55,1.69,12.17,5.21l2.84,4.86-5.72-10.75,14.49-7.6s11.11,16.84,16.19,26c3.93,7,7.43,22.14.52,26.72-6.55,3.65-16.73,2.46-23.4-5.23l-10.22-10.89-6.3-27.4Z"/>
    <path class="st10" d="M429.78,186.54c-.1.03-.2.07-.29.12l-.81.38-3,1.51-10.48,5.4-.19.1.1.19,4.76,9c1.73,3.22,3.41,6.27,4.84,9.1s2.77,5.36,4.08,7.38c1.02,1.61,2.2,3.11,3.52,4.48.46.49.85.84,1.11,1.07.13.13.27.25.42.35,0,0-.51-.55-1.4-1.54-1.25-1.41-2.38-2.93-3.37-4.53-1.27-2-2.56-4.57-4-7.4s-3.08-5.91-4.81-9.13l-4.78-8.94-.09.29,10.4-5.55,3-1.62.77-.44c.13-.15.23-.21.22-.22Z"/>
    <path class="st10" d="M369.78,115.4c-1.15-1.3-2.84-1.99-4.57-1.86-.67.17-1.37.12-2-.15-.37-.33-.68-.72-.92-1.16-1.01-1.18-2.78-1.32-3.96-.31-.01.01-.03.02-.04.03-.23.29-.51.55-.83.75-1.37.65-2.74-1.93-4.11-1.28.6.26,1.1.69,1.44,1.24.34.57.24,1.31-.24,1.77-1.3,1-3.25-1.51-4.69-.65-.77.46-.93,1.73-1.82,1.91-.34.01-.67-.03-1-.12-1.21-.14-2.32.68-2.54,1.88-.14,1,.31,2.22-.47,2.86-.54.31-1.19.37-1.78.17-.06.91.09,1.81.44,2.65-1.69.96-2.32,3.08-1.43,4.81-.84.53-1.58,1.2-2.18,2-.58.84-.64,1.94-.14,2.84.15.17.27.37.36.58.07.24.07.49,0,.73-.34.89-.57,1.82-.69,2.76,0,1,.65,2,1.6,2,.22,0,.47-.08.65.05.12.12.19.27.21.44.03.67-.05,1.35-.23,2-.18.67-.1,1.39.23,2,.33.55,1.04.73,1.59.4.06-.03.11-.07.16-.11-.32,1-.64,2.09-1,3.14-.29.59-.26,1.3.09,1.86.57.63,1.68.2,2.16-.5s.65-1.59,1.15-2.28c.24-.26.44-.54.61-.84.12-.25.17-.55.38-.72.45-.33,1.08.29,1,.84-.17.53-.49,1-.91,1.36-.42.37-.58.96-.41,1.5.13.23.37.39.49.63.41.83-.8,1.56-1,2.47-.03.69.27,1.36.8,1.8.56.61,1.68,1.13,2.08.4.09-.27.16-.55.22-.83.17-.3.4-.55.69-.73.65-.55,1.12-1.27,1.37-2.08-.74.84-1.53,2-1.07,3,.23.41.53.77.88,1.08.6.69,1,1.57,1.56,2.26.55.76,1.53,1.08,2.42.78-.4,1.06.14,2.24,1.2,2.64.74.28,1.58.1,2.15-.45.16-.19.36-.35.59-.47.27-.06.54-.04.8.05,1.63.35,3.32-.25,4.38-1.54l-.81-.32c1.63-.02,3.22-.41,4.67-1.16,1.38-.86,2.32-2.64,1.69-4.13-.28-.65-.82-1.33-.54-2,.27-.41.7-.68,1.18-.76l5.81-1.77c.97-.21,1.86-.67,2.58-1.34.72-.73.72-1.89,0-2.62.48-.87,1.2-1.58,2.07-2.06,1-.53,2.1-.74,3.1-1.23,1.06-.41,1.8-1.38,1.91-2.51,0-1.11-1.52-2-2.31-1.26.22-1.66,3.2-1.64,3.52-3.28.27-1.34-1.42-2.11-2.27-3.18.21-.46.7-.74.91-1.19.45-1-.51-2-1.44-2.46s-2.07-1-2.26-2,.76-2.21.25-3.15c-.32-.53-.99-.74-1.55-.46-.68-2-4.37-.66-5.34-2.49-.09-.14-.13-.31-.11-.47.04-.14.1-.26.2-.37.5-.45,1.06-.83,1.65-1.15.6-.34.92-1.02.81-1.7-.21-.64-1.4-.67-1.42,0-.62-.53-1.56-.46-2.09.16-.08.09-.15.2-.2.31-.51-.56-1.36-.67-2-.27-.61.4-1.13.94-1.49,1.57"/>
    <path class="st9" d="M359.76,136.25c.78-2.72,3-4.82,5.32-6.38.95-.71,2.06-1.18,3.24-1.36,1.2-.15,2.38.42,3,1.46l-.29,2c0,3.15-2.55,5.63-3.9,8.48-.59,1.24-1.1,2.74-2.39,3.2-.7.21-1.44.15-2.1-.16-2.59-1.14-3.66-4.52-2.88-7.24Z"/>
    <path class="st10" d="M358.51,150.72c-1.57-2.61-1.06-5.98,1.22-8-1-1.54-.44-3.73.84-5.07,1.39-1.24,3.05-2.15,4.84-2.66,1.48-4.27,6.04-6.63,10.38-5.38,2.46-3,7.17-3.17,10.83-1.78.87.41,1.78.69,2.73.83.7,0,1.4-.03,2.1-.11,3.85-.21,7.41,2.78,8.6,6.45.15.6.38,1.17.68,1.71.51.63,1.1,1.19,1.76,1.66,1.32,1.2,2.05,2.91,2,4.69-.06,1.48-.65,3-.14,4.41.37.65.71,1.31,1,2,.54,2.08-1.88,4-1.63,6.12.05.44.21.86.29,1.29.18.89.02,1.82-.44,2.6-.45.54-.79,1.16-1,1.82,0,.53.06,1.06.18,1.57.16,1.28-2.95,5.91-4.1,6.51l-32.54-2.36c-2.47-.77-4.19-3.02-4.28-5.61.05-.42-.02-.84-.2-1.22-.23-.27-.52-.49-.84-.65-2-1.3-2-4.19-1.61-6.54.08-.33.1-.67.06-1-.15-.47-.4-.91-.73-1.28Z"/>
    <path class="st14" d="M367.82,151.53c.6-6.35,4.62-11.87,10.47-14.4,2.71-1.01,5.59-1.46,8.47-1.33,2.68-.04,5.31.74,7.54,2.23,1.76.57,7.84,7.12,7.65,13.67-.21,7.28-.76,16.16-2.11,21.48-2.73,10.68-11.15,11.29-11.15,11.29l-.31,8.19-12.53,7-7.19-5-3-2.1,2.16-41.03Z"/>
    <path class="st17" d="M384.56,170.03c.09-.51.38-.97.79-1.29.77-.62,1.85-.64,2.65-.06.71.65.97,1.67.66,2.58h0c-.47.61-.83,1.21-1.59,1.24h-.38c-.6-.02-1.17-.27-1.59-.69-.44-.48-.64-1.14-.54-1.78Z"/>
    <path class="st10" d="M395.93,160.24c-.06.76-.71,1.33-1.47,1.28-.74-.01-1.33-.62-1.32-1.36,0-.01,0-.02,0-.03.06-.75.71-1.32,1.47-1.28.74.01,1.33.62,1.32,1.36,0,.01,0,.02,0,.03Z"/>
    <path class="st10" d="M399.07,155.61c-.19.16-1.17-.71-2.67-.85s-2.67.52-2.81.32.13-.4.64-.71c.69-.39,1.48-.56,2.27-.48.78.07,1.52.39,2.11.91.43.39.55.73.46.81Z"/>
    <path class="st10" d="M389.21,166.64c.81-.18,1.65-.25,2.48-.22.38,0,.75,0,.84-.3.07-.39.01-.8-.15-1.16-.28-1-.56-2-.86-3-1.19-4.29-2-7.81-1.84-7.86s1.27,3.4,2.46,7.7c.29,1,.56,2.06.82,3,.2.48.22,1.02.06,1.52-.14.26-.39.44-.68.5-.22.03-.44.03-.66,0-.83.04-1.66-.02-2.47-.18Z"/>
    <path class="st17" d="M388.69,184.47c-5.14-.39-10.07-2.2-14.24-5.22,0,0,3.17,8,14.13,8l.11-2.78Z"/>
    <path class="st10" d="M399.3,150.66c-.29.34-1.41,0-2.76,0s-2.5.24-2.76-.12c-.12-.17.06-.52.56-.84,1.39-.8,3.1-.76,4.45.11.48.32.64.68.51.85Z"/>
    <path class="st10" d="M378.95,158.99c-.05.76.51,1.42,1.27,1.48.73.1,1.4-.41,1.5-1.14,0-.01,0-.03,0-.04.05-.75-.51-1.41-1.26-1.48-.73-.1-1.4.4-1.5,1.13,0,.02,0,.03,0,.05Z"/>
    <path class="st10" d="M378.51,154.31c.16.19,1.26-.54,2.77-.45s2.56.9,2.73.72-.07-.41-.53-.79c-.63-.49-1.39-.77-2.18-.8-.78-.05-1.56.15-2.22.58-.48.33-.65.65-.57.74Z"/>
    <path class="st10" d="M377.41,149.66c.28.36,1.46.07,2.85.13s2.57.37,2.86,0c.13-.16,0-.52-.54-.87-1.4-.86-3.16-.91-4.6-.12-.51.33-.69.69-.57.86Z"/>
    <path class="st14" d="M368.63,161.98c.07-.81-.69-2.8-1.48-3-2.1-.53-6-.71-6.5,4.7-.73,7.4,6.85,6.61,6.89,6.4s.83-5.3,1.09-8.1Z"/>
    <path class="st17" d="M365.76,167.18s-.14.07-.36.15c-.33.11-.69.09-1-.07-.91-.71-1.36-1.86-1.19-3,.04-.64.23-1.25.54-1.81.19-.45.59-.79,1.07-.9.31-.04.62.13.73.43.07.22,0,.36.05.38s.17-.11.14-.42c-.02-.19-.1-.36-.24-.49-.19-.17-.44-.27-.7-.26-.63.06-1.18.44-1.46,1-.38.6-.6,1.29-.65,2-.1,1.5.53,3,1.57,3.38.39.16.83.13,1.19-.08.24-.14.34-.3.31-.31Z"/>
    <path class="st10" d="M403.58,151.92c-1.42-.89-2.2-2.52-2-4.18-1,.2-1.91-1.17-2.41-2.08s-1.17-1.41-1-2.44c.05-.2.05-.41,0-.61-.18-.27-.45-.46-.77-.54-1.55-.67-2.66-2.08-2.95-3.75-1.66.55-3.43.68-5.15.37-1.4,1.71-3.91,1.97-5.63.57-.49-.4-.88-.91-1.13-1.48-.59.86-1.53,1.43-2.57,1.55-1.03.11-2.07.08-3.09-.11.21,2.11-1.17,4.05-3.23,4.55-.4-.06-.78.23-.83.63-.03.19.03.39.14.55.42,1.8-.7,3.6-2.5,4.02-.04,0-.08.02-.13.03.95,1.01.89,2.6-.12,3.55-.14.13-.3.25-.46.34-.28.14-.65.3-.64.62.01.12.06.23.13.33.55.74.88,1.63.95,2.55.02.96-.7,1.77-1.65,1.85.49.44.77,1.06.79,1.71-.05.64-.76,1.24-1.34,1-1.36-.41-2.69-.88-4-1.42-1.83-3,1.09-5.94,1.62-9.45.6-3.51,2.01-6.84,4.12-9.71.83-1.23,1.83-2.35,2.95-3.33,1.35-1.03,2.81-1.91,4.35-2.62,1.93-1.09,4.02-1.87,6.2-2.29,4.08-.58,8.1,1.25,11.67,3.32,1.38.72,2.65,1.62,3.79,2.68,1.27,1.39,2.29,2.99,3,4.73,1.2,2.44,1.88,5.11,2,7.83"/>
    <path class="st16" d="M405.27,149.47c-.06-.3-.17-.58-.32-.84-.14-.26-.34-.56-.51-.95-.19-.45-.29-.93-.29-1.42.01-.61.08-1.23.2-1.83.14-.72.19-1.46.14-2.2-.09-.85-.35-1.68-.77-2.43-.23-.4-.5-.78-.81-1.13-.34-.36-.7-.69-1.09-1-.39-.3-.73-.66-1-1.07-.26-.46-.45-.95-.58-1.46-.7-2.28-2.19-4.22-4.21-5.49-.54-.34-1.12-.62-1.72-.84-.94-.32-1.94-.45-2.93-.4-.34,0-.67.06-1,.09-.67.08-1.35.02-2-.18-.66-.19-1.28-.49-1.95-.72-.67-.24-1.37-.43-2.07-.56-.72-.13-1.44-.2-2.17-.21-.74,0-1.48.06-2.21.2-1.51.28-2.89,1.03-3.95,2.13l-.3.34h.12c-2.17-.65-4.52-.39-6.5.72-1.9,1-3.33,2.7-4,4.74l.06-.07c-.93.32-1.84.71-2.72,1.14-.86.43-1.64,1.01-2.29,1.71-.62.7-1.03,1.55-1.19,2.47-.18.88,0,1.8.48,2.56v-.12c-1.07.95-1.78,2.24-2,3.65-.24,1.27-.09,2.57.44,3.75.12.27.27.53.43.78.16.24.32.46.45.7.12.23.19.49.2.75,0,.26-.04.52-.09.77-.17.93-.23,1.88-.18,2.82.03.76.22,1.51.54,2.2.23.51.57.96,1,1.31.36.29.69.41.87.57.09.07.18.16.25.25-.06-.11-.13-.2-.23-.27-.18-.17-.51-.31-.85-.59-.43-.35-.77-.8-1-1.3-.3-.69-.47-1.43-.5-2.18-.04-.93.02-1.87.19-2.79.06-.26.09-.52.1-.79,0-.28-.07-.56-.21-.81-.13-.25-.3-.48-.45-.72-.15-.24-.29-.5-.41-.76-.51-1.15-.65-2.43-.41-3.66.23-1.38.94-2.63,2-3.54l.06-.05v-.07c-.45-.72-.61-1.59-.44-2.43.16-.88.56-1.7,1.15-2.37.64-.68,1.4-1.24,2.24-1.65.87-.43,1.77-.81,2.69-1.13h.05v-.05c1.47-4.21,5.96-6.54,10.25-5.32h.07l.05-.06.3-.33c1.03-1.07,2.37-1.79,3.83-2.06.71-.14,1.44-.21,2.16-.2.71,0,1.43.08,2.13.21.68.12,1.35.31,2,.55.66.22,1.29.52,2,.72.33.1.66.17,1,.2.33.03.67.03,1,0l1-.09c.33-.02.67-.02,1,0,.64.05,1.27.18,1.87.39.59.2,1.16.47,1.69.8,1.98,1.25,3.45,3.15,4.15,5.38.13.52.33,1.02.6,1.49.29.43.66.8,1.08,1.11.39.3.75.64,1.08,1,.3.33.57.7.8,1.09.42.73.68,1.54.76,2.37.06.73.02,1.46-.12,2.17-.11.61-.17,1.23-.18,1.85,0,.5.11,1,.32,1.45.18.39.39.69.53.95.11.19.2.39.28.59.02.06.03.11.04.17Z"/>
    <path class="st16" d="M379.42,128.28s.2-.09.58-.24c.53-.2,1.09-.31,1.65-.33.84-.03,1.67.17,2.41.58.88.5,1.58,1.27,2,2.2.13.28.23.57.3.87.07.27.03.55-.13.78l-.2.23h.31c.79-.14,1.6.03,2.26.47.53.36.93.88,1.14,1.49.14.4.2.82.18,1.24,0,.15,0,.31,0,.46v-.11c.04-.11.06-.22.07-.34.06-.44.01-.88-.12-1.3-.2-.65-.61-1.21-1.16-1.59-.7-.49-1.57-.68-2.41-.54l.1.18c.21-.29.27-.66.18-1-.31-1.37-1.21-2.54-2.45-3.21-.77-.41-1.64-.6-2.51-.55-.58.03-1.16.16-1.69.4-.14.07-.28.14-.41.22-.06.05-.11.08-.1.09Z"/>
    <path class="st16" d="M366.69,135.71c.06.11.14.2.23.29.24.25.51.47.79.66.43.29.92.48,1.44.57.66.11,1.33-.03,1.89-.39h-.17c.07.1.13.21.19.32.07.11.15.21.23.32.47.57,1.07,1.02,1.75,1.31.52.22,1.08.33,1.65.34.4,0,.8-.04,1.19-.16.14-.04.28-.1.41-.17-.52.12-1.06.18-1.59.17-.58-.03-1.14-.17-1.67-.41-.65-.28-1.21-.71-1.65-1.26l-.22-.3-.18-.3-.06-.11-.1.07c-.51.34-1.13.47-1.74.38-.49-.07-.96-.24-1.38-.51-.68-.4-1.01-.85-1.01-.82Z"/>
    <path class="st16" d="M362.11,142.23v.14c.02.13.06.26.13.37.25.43.65.75,1.12.9.7.2,1.44.2,2.14,0,.41-.1.81-.22,1.21-.36.45-.14.84-.44,1.1-.84l.06-.11h-.18c.61.61,1.31,1.12,2.08,1.51.64.32,1.35.46,2.06.4.48-.04.94-.2,1.34-.47.11-.07.2-.16.29-.25.03-.03.06-.06.08-.1,0,0-.14.11-.42.28-.4.23-.84.36-1.3.38-.69.05-1.39-.09-2-.42-.74-.4-1.41-.91-2-1.5l-.11-.1-.07.14v.09c-.23.36-.59.63-1,.75-.39.14-.78.26-1.18.36-.65.21-1.34.24-2,.09-.45-.13-.84-.41-1.1-.79-.09-.15-.18-.31-.25-.47Z"/>
    <path class="st16" d="M356.54,115.07s.13,0,.35.09c.31.12.58.34.78.61.3.43.45.95.43,1.47-.05.69-.2,1.36-.46,2v.12h.05c.92.06,1.79.41,2.49,1,.83.67,1.28,1.71,1.21,2.77-.03.95-.52,1.83-1.3,2.37l-.27.17h.32c1.07.09,2.05.63,2.7,1.48.51.68.77,1.51.74,2.36-.02.56-.15,1.11-.39,1.62-.18.35-.31.52-.29.53l.1-.12c.09-.12.18-.25.25-.38.72-1.31.62-2.91-.26-4.12-.68-.9-1.71-1.48-2.83-1.59l.05.2c.84-.58,1.36-1.52,1.4-2.54.04-.56-.06-1.12-.29-1.63-.24-.49-.58-.92-1-1.26-.74-.61-1.66-.97-2.62-1l.08.12c.25-.64.39-1.31.43-2,.02-.55-.16-1.09-.5-1.53-.21-.28-.5-.49-.84-.6-.09-.01-.18-.01-.27,0l-.06-.14Z"/>
    <path class="st16" d="M341.89,129.94l.11.08c.08,0,.19.12.36.2.46.23.95.39,1.46.47.78.13,1.58.11,2.35-.07.99-.22,1.91-.71,2.64-1.41h-.16c.6,1.29,1.75,2.24,3.13,2.59,1.53.36,3.11-.32,3.91-1.67h-.19c.14.51.41.97.78,1.34.33.33.72.6,1.15.8.7.3,1.46.45,2.23.43.5,0,.99-.03,1.48-.1.18-.02.35-.05.52-.09-.18-.02-.35-.02-.53,0-.49.05-.97.06-1.46.05-.75-.01-1.48-.17-2.17-.47-.86-.37-1.52-1.1-1.8-2l-.06-.25-.13.23c-.77,1.22-2.23,1.83-3.64,1.51-1.32-.33-2.42-1.23-3-2.46l-.07-.13-.1.1c-.71.68-1.58,1.16-2.54,1.39-.75.19-1.53.23-2.29.12-.69-.12-1.36-.34-1.98-.66Z"/>
    <path class="st16" d="M347.77,141.47c.01.05.04.1.08.14.11.11.25.19.4.22.55.1,1.12.06,1.66-.12.8-.25,1.49-.75,2-1.41.62-.83.91-1.86.81-2.89h0l-.17.11c.88.53,1.91.77,2.93.68.83-.08,1.63-.34,2.34-.77.47-.28.9-.61,1.28-1,.15-.14.28-.3.38-.48-.52.53-1.11.99-1.74,1.38-.7.4-1.48.64-2.28.7-.98.08-1.96-.15-2.8-.66l-.18-.12v.25c.09.98-.18,1.96-.76,2.75-.48.65-1.15,1.13-1.91,1.38-.51.18-1.05.25-1.59.19-.19-.06-.35-.18-.45-.35Z"/>
    <path class="st16" d="M372.69,116.79c.18.76.23,1.54.13,2.31-.26,1.88-1.56,3.45-3.36,4.06-.56.19-1.14.29-1.73.29h-.14v.14c.17.79.18,1.61.05,2.41-.1.64-.3,1.27-.59,1.85-.1.22-.22.43-.36.63-.09.15-.25.25-.42.27-.11,0-.22-.04-.29-.12,0-.06-.05-.1-.06-.1-.01.04-.01.08,0,.12.07.1.19.17.32.17.2,0,.39-.1.51-.27.15-.2.29-.41.4-.64.71-1.34.93-2.89.62-4.37l-.11.13c.62.02,1.23-.08,1.81-.29,1.01-.35,1.89-1,2.52-1.86.51-.71.83-1.53.93-2.39.07-.58.04-1.16-.09-1.73-.03-.15-.08-.3-.13-.45.04-.11-.01-.16-.01-.16Z"/>
    <path class="st10" d="M384.75,167.95c.21,0,.37,1.39,1.7,2.27s2.83.55,2.87.75-.31.31-.95.4c-.83.1-1.68-.09-2.38-.55-.68-.44-1.16-1.12-1.34-1.9-.12-.59.04-.96.1-.97Z"/>
    <path class="st10" d="M371.93,459.86v1s-18,7.19-18.17,10.51l35.89-.51-.66-11.54c-5.36,2.56-11.55,2.76-17.06.54Z"/>
    <path class="st16" d="M389.69,470.89l-.16-2.77-34.34,1.5s-1.59.7-1.39,1.78l35.89-.51Z"/>
    <path class="st12" d="M371.81,460.99c0,.17.89.24,1.76.77s1.34,1.24,1.5,1.17-.11-1.05-1.18-1.67-2.12-.42-2.08-.27Z"/>
    <path class="st12" d="M368.07,462.55c0,.17.73.45,1.33,1.15s.79,1.47,1,1.46.27-1-.5-1.84-1.83-.93-1.83-.77Z"/>
    <path class="st12" d="M366,466.94c.16,0,.39-.82-.07-1.74s-1.29-1.28-1.36-1.14.44.64.81,1.4.45,1.47.62,1.48Z"/>
    <polygon class="st10" points="384.18 440.33 387.02 467.13 400.33 459.19 397.04 439.01 384.18 440.33"/>
    <path class="st10" d="M400.17,458.13s-8.9,8.72-13.77,3.91l-.89,2.63-3.34,18.46c-.23,1.22.52,2.42,1.72,2.75.93.26,1.92-.01,2.58-.71,3.37-3.66,15.71-17.17,15.41-18.83l-.49-4.4c-.28-1.11-.61-2.21-1-3.29l-.22-.52Z"/>
    <path class="st16" d="M384.35,485.95l17.39-21.15.09,1c.2,1-.25,1.5-.71,2.22-1.36,2.12-5.25,7-14.58,17.17-.56.6-1.37.9-2.19.8v-.04Z"/>
    <path class="st12" d="M388.93,475.52c-.64-.66-1.4-1.2-2.24-1.59-.92-.25-1.88-.33-2.83-.25,0-.05.26-.26.82-.38.73-.15,1.5-.09,2.2.17.69.24,1.3.67,1.75,1.25.29.41.36.77.3.8Z"/>
    <path class="st12" d="M387.5,478.72c-.73-.3-1.47-.57-2.23-.79-.79-.07-1.59-.09-2.39-.08.72-.51,1.64-.66,2.49-.41,1.46.26,2.25,1.21,2.13,1.28Z"/>
    <path class="st12" d="M391.77,471.33c-1.09-.56-2.21-1.04-3.36-1.44-1.21-.25-2.43-.4-3.66-.47,1.23-.43,2.58-.43,3.81,0,1.26.24,2.4.92,3.21,1.91Z"/>
    <path class="st16" d="M385.95,459.03c.15.94.21,1.9.18,2.85h0c-.19,1.23-.46,2.8-.77,4.5-.36,2-.72,3.84-1,5.16-.11.72-.29,1.43-.54,2.11,0-.73.07-1.46.23-2.17.19-1.33.5-3.16.86-5.17.31-1.71.62-3.27.87-4.49h0c-.02-.93.04-1.87.17-2.79Z"/>
    <path class="st10" d="M345.82,211.46c-.1.57-.25,1.13-.45,1.67-.17.53-.38,1.18-.56,1.95s-.45,1.63-.6,2.61c-.46,2.28-.75,4.59-.86,6.92-.09,2.85,0,5.7.27,8.54.57,6,1.48,11.5,1.91,15.47.22,2,.38,3.59.46,4.71.06.57.09,1.15.08,1.73-.15-.56-.24-1.13-.28-1.71-.16-1.19-.37-2.77-.63-4.68-.52-4-1.48-9.39-2.06-15.47-.27-2.86-.35-5.74-.23-8.61.13-2.36.47-4.7,1-7,.18-1,.48-1.85.68-2.62s.45-1.41.64-1.93c.17-.54.38-1.07.63-1.58Z"/>
    <path class="st14" d="M450.91,277.98l13.38,12.94,4.23,8.13,2.61,9.46s-1.36,1.69-3-.59c-1.02-1.44-1.73-3.07-2.09-4.79l-.25,8.79c-1.19.45-2.52-.15-2.96-1.34-.13-.33-.17-.69-.14-1.05-.11-3.32,0-6,0-6l-.9-2.57s.12,3.16-.22,3.81c-1.13,1.29-2.35,2.5-3.64,3.63l-3.71,1.84c-.71-.46-.91-1.41-.45-2.12,0-.01.02-.02.02-.03.52-.82,1.25-1.48,2.12-1.91l-3.83.94c-.42-.76-.15-1.72.61-2.15.12-.07.25-.12.39-.15l1.53-.55,1.19-1.47-.11-1.67c-1.48-.85-2.41-2.41-2.46-4.12-.35-3.19-2.92-3.77-5.66-7.33-.39-.52-.35-2.14-.89-2.55-1.25-.76-2.74-1.05-4.19-.82l8.42-8.33Z"/>
    <path class="st17" d="M456.08,288.51c-.48,1.44-.5,2.98-.06,4.43.26.92.6,1.83,1,2.7.44.87.78,1.8,1,2.75.17.82-.05,1.67-.59,2.31-.39.41-.97.6-1.53.51-.15-.02-.29-.08-.42-.16-.08-.06-.12-.09-.11-.1.18.07.36.13.55.16.51.04,1.01-.16,1.36-.54.48-.6.66-1.39.49-2.14-.23-.93-.57-1.83-1-2.68-.41-.89-.75-1.81-1-2.75-.2-.78-.29-1.58-.26-2.38.03-.54.13-1.07.31-1.58.05-.19.14-.37.26-.53Z"/>
    <path class="st17" d="M466.31,303.54s-.12-.13-.29-.41-.4-.67-.68-1.17c-.56-1-1.31-2.41-2.08-4-.62-1.25-1.15-2.43-1.57-3.38l.08.06-1.85-.49c-.23-.05-.46-.13-.67-.23.24,0,.47.03.7.1l1.87.4h.05v.05l1.61,3.35c.77,1.57,1.48,3,2,4,.32.55.6,1.13.83,1.72Z"/>
    <path class="st17" d="M461.97,300.37c-.5.26-1.08.3-1.61.13-.55-.08-1.04-.37-1.39-.8.05-.07.63.35,1.45.53.51.07,1.03.12,1.55.14Z"/>
    <path class="st17" d="M458.63,300.61c-.06,1.1-.21,2.2-.45,3.28-.1.45-.36.84-.74,1.11-.32.25-.63.43-.86.61-.25.2-.47.42-.66.67,0,0,.06-.42.54-.82.22-.21.52-.41.81-.66.33-.24.56-.6.64-1,.16-1.08.4-2.15.72-3.19Z"/>
    <path class="st0" d="M406,193.83s9.5,2.37,11.15,14.75c1.3,9.8,5.36,42.31,5.36,42.31l30.72,27.47-9.73,11.52s-29.35-17.27-34.9-22.34-8-35.26-8-35.26l5.4-38.45Z"/>
    <path class="st0" d="M404.15,220.49l1.85-26.66-15.53-3.5h-26.3l-16,3.22-6.31,17.13c.78,7.24,4.24,43.12,4.24,43.12,0,0-4.09,7.69-7.61,21.86l19.82,11.65,38.53-11.61s-.52-16.47-.6-21.5l7.91-33.71Z"/>
    <path class="st10" d="M369.06,277.48c.03-.29.08-.58.16-.86.14-.61.32-1.42.56-2.45s.55-2.37.87-3.89.71-3.24,1.08-5.16c.79-3.83,1.58-8.41,2.4-13.51s1.52-10.74,2.15-16.66c1.24-11.87,1.78-22.65,2-30.47.11-3.9.16-7.06.17-9.25v-2.52c0-.29.01-.58.05-.87.05.29.07.58.06.87l.06,2.52c.05,2.19.06,5.35,0,9.26-.11,7.82-.6,18.63-1.84,30.51-.63,5.94-1.4,11.57-2.2,16.68s-1.67,9.69-2.51,13.51c-.39,1.92-.8,3.64-1.16,5.15s-.67,2.82-.95,3.87-.5,1.84-.66,2.44c-.05.28-.13.56-.24.83Z"/>
    <polygon class="st0" points="362.95 190.86 365.78 183.62 378.4 190.82 388.58 185.94 391.09 191.72 375.3 205.93 362.95 190.86"/>
    <path class="st10" d="M378.52,191.43c-.18.93-.46,1.83-.83,2.7-.87,2.24-1.87,4.42-3,6.54l-.14.26-.24-.18-2-1.5c-2.74-2.09-5.21-4-7-5.42-.88-.7-1.6-1.28-2.08-1.69-.27-.19-.51-.42-.72-.68.3.13.58.31.84.52.53.36,1.27.89,2.18,1.56,1.83,1.33,4.33,3.21,7.08,5.3l2,1.51-.38.08c1.34-2.51,2.39-4.79,3.1-6.42.34-.88.74-1.75,1.19-2.58Z"/>
    <path class="st10" d="M390.83,190.88c-.57.98-1.24,1.9-2,2.74-1.69,2.16-3.63,4.11-5.77,5.82-.32.24-.66.46-1,.67-.38.29-.87.36-1.32.2-.36-.26-.6-.64-.67-1.08-.1-.34-.19-.69-.28-1-.37-1.34-.66-2.55-.87-3.58-.3-1.09-.45-2.23-.43-3.36.07,0,.26,1.27.79,3.28.26,1,.58,2.21,1,3.53l.3,1c.09.34.22.67.43.77s.51,0,.83-.21c.34-.19.68-.4,1-.63,2.1-1.69,4.04-3.58,5.79-5.64.69-.88,1.42-1.71,2.2-2.51Z"/>
    <path class="st10" d="M422.51,250.89c-.06-.2-.1-.42-.1-.63-.06-.46-.13-1.06-.21-1.8-.19-1.64-.45-3.9-.77-6.65-.64-5.62-1.61-13.37-2.47-22-.45-4.3-.46-8.43-1.38-12-.78-3.2-2.22-6.2-4.24-8.8-1.41-1.71-3.15-3.12-5.12-4.14-1.4-.72-2.24-1-2.22-1.05.21.04.41.1.61.18.58.2,1.15.43,1.7.69,2.04.97,3.85,2.36,5.31,4.09,2.1,2.61,3.61,5.65,4.42,8.91,1,3.67,1,7.83,1.43,12.1.91,8.55,1.73,16.29,2.33,22,.28,2.81.49,5.09.6,6.67.06.79.1,1.4.11,1.82.02.2.02.41,0,.61Z"/>
    <path class="st10" d="M405.08,206.13c.03.17.03.34,0,.51v1.46c0,1.28-.1,3.12-.28,5.39-.5,5.91-1.36,11.79-2.57,17.6-1.38,6.81-2.93,12.91-4.07,17.31l-1.39,5.21-.4,1.41c-.04.17-.1.33-.18.48,0-.17.03-.34.08-.51.08-.39.18-.86.31-1.43.31-1.32.72-3.09,1.23-5.25,1-4.42,2.54-10.53,3.91-17.32,1.2-5.79,2.11-11.64,2.72-17.53.22-2.26.37-4.1.44-5.37,0-.58.08-1.06.11-1.46.01-.17.04-.34.09-.5Z"/>
    <path class="st0" d="M328.07,221.13c-2.23,8.1-4,21.41-6.6,34.43-3.08,15.45-6.48,28.66-8.75,43.89l12.51-.85,15.08-37.67,7.19-30.49s-2.08-17-.82-21.13c1.43-4.83,2.41-9.78,2.94-14.79-5.76.46-11.11,3.2-14.84,7.61-3.16,3.68-4.49,10.88-6.71,19Z"/>
    <path class="st14" d="M322.4,330.87s2.37-11,2.33-16.19-1.1-5.13-2.15-8.23l2-7.89-11.42.79-2,11.18-2,17.63s6.6,8.54,7.86,8.64c.64.09,1.24-.35,1.34-1,0-.03,0-.07.01-.1,0,0,3.83.94,4.1-.38s-3.59-3.64-3.59-3.64l-3-4.43,3.29-10.63s.35,6.94.39,7.56-1.87,6.8,2.84,6.69Z"/>
    <path class="st10" d="M319.49,329.31c-.23.19-.48.35-.75.47-.27.19-.53.4-.78.62-.32.31-.61.65-.88,1-.67.96-1.21,2-1.61,3.09-.49,1.35-.87,2.73-1.13,4.14-.47,2.58-.69,5.19-.65,7.81,0,2,.19,3.25.1,3.27-.11-.28-.18-.57-.2-.86-.14-.79-.23-1.6-.27-2.4-.14-2.65.03-5.3.51-7.91.26-1.44.66-2.86,1.19-4.23.44-1.14,1.03-2.21,1.77-3.18.31-.36.64-.69,1-1,.28-.21.57-.41.87-.58.26-.12.54-.2.83-.24Z"/>
    <path class="st10" d="M327.69,350.56c-.14-1.09-.22-2.19-.23-3.29-.12-2-.33-4.81-.77-7.87s-.9-5.85-1.85-7.61c-.49-.95-1.17-1.8-2-2.48.29.08.56.23.78.44.65.5,1.19,1.14,1.58,1.86,1.09,1.81,1.59,4.65,2,7.71.38,2.63.59,5.28.63,7.94.07,1.1.02,2.21-.14,3.3Z"/>
    <polygon class="st16" points="301.36 349.14 316.44 350.86 324.81 417.54 294.04 418.9 301.36 349.14"/>
    <polygon class="st16" points="294.04 418.9 273.86 416.46 289.82 347.64 301.36 349.14 294.04 418.9"/>
    <polygon class="st4" points="301.36 349.14 316.44 350.86 324.81 417.54 294.04 418.9 301.36 349.14"/>
    <polygon class="st9" points="315.13 347.66 333.8 347.66 347.91 408.68 320.52 408.68 315.13 347.66"/>
    <polygon class="st9" points="320.52 408.68 301.36 408.68 308.52 347.66 315.13 347.66 320.52 408.68"/>
    <polygon class="st4" points="315.13 347.66 333.8 347.66 347.91 408.68 320.52 408.68 315.13 347.66"/>
    <path class="st10" d="M317.17,328.48c-.29-.21-.64-.33-1-.34-1.03.06-2.02.36-2.92.86-3.03,1.59-5.64,3.86-7.64,6.63-1.88,2.88-3.55,5.89-5,9-.55,1.1-1,2-1.38,2.81-.14.35-.33.69-.55,1,.08-.38.2-.75.37-1.1.27-.68.68-1.67,1.22-2.88,1.37-3.18,3.02-6.23,4.92-9.12,2.04-2.84,4.76-5.12,7.91-6.65.95-.5,2.01-.75,3.08-.73.77.06,1.03.53.99.52Z"/>
    <path class="st10" d="M331.07,211.46c0,.08,0,.15,0,.23,0,.17-.08.39-.13.66-.14.62-.32,1.46-.55,2.52-.51,2.24-1.22,5.39-2.09,9.27-1.76,7.82-4.16,18.64-6.66,30.62-2.5,11.98-4.63,22.86-6.16,30.74l-1.82,9.32c-.22,1.07-.39,1.91-.52,2.53l-.14.66c.06.01.11.08.09.14s-.08.11-.14.09c-.06-.01-.11-.08-.09-.14,0-.05.05-.08.09-.09,0-.18.03-.4.09-.66.1-.63.24-1.48.42-2.55.4-2.26,1-5.44,1.66-9.36,1.44-7.89,3.51-18.78,6-30.77s5-22.8,6.81-30.61c.93-3.9,1.7-7,2.25-9.23.27-1.05.49-1.88.65-2.5l.18-.65c.02-.15.05-.23.06-.22Z"/>
    <path class="st16" d="M333.1,288.66s-6.94,23.44,4.83,53.41,18.34,53.93,18.79,60.38,1.17,13.13,7.35,33.57c4.52,14.92,7.86,23.84,7.86,23.84,4.69,2.57,9.67,3.26,14.2.77,0,0-.43-35.59-7.22-59.56s-11.44-61.43-9.12-75-2.71-21.24-2.71-21.24l-33.98-16.17Z"/>
    <path class="st16" d="M407.69,322.51c4.51-21.08-9.4-42.63-9.4-42.63l-36.18,28.5s-7.66,85.31-3.13,96.38,26.24,56.2,26.24,56.2l16.66-3.9s-6.17-36.79-11.12-46.12c-3.56-6.73-9.38-9.92-6.67-18.68s19.91-52.5,23.6-69.75Z"/>
    <path class="st16" d="M332.93,289.13c-.13-.05,28.86,20.56,28.86,20.56l38.9-25.56-4.09-14.69s-23,9.6-33.3,7.53-21.62-11-21.62-11c-3.42,7.52-6.34,15.26-8.75,23.16Z"/>
    <path class="st10" d="M351.95,294.13s.07.07.19.23l.53.71,2,2.77,7.55,10.51h0c-.37,3.93-.51,8.5-.76,13.59s-.53,10.68-.82,16.69-.67,12.44-1,19.17-.77,13.77-1.47,21c-.72,6-1.36,11.94-.83,17.63.12,1.41.32,2.81.59,4.19.23,1.36.57,2.69,1,4,1,2.55,2.13,5,3.22,7.43,4.39,9.62,8.51,18.21,11.94,25.44s6.22,13.06,8.16,17.11l2.21,4.66.56,1.21c.13.28.18.42.18.42,0,0-.08-.13-.22-.4s-.34-.68-.61-1.19l-2.28-4.62-8.3-17.05c-3.46-7.22-7.61-15.8-12-25.42-1.09-2.41-2.24-4.86-3.25-7.46-.43-1.33-.77-2.69-1-4.07-.27-1.4-.47-2.81-.6-4.23-.54-5.74.1-11.7.83-17.72.69-7.21,1.05-14.26,1.47-21s.74-13.16,1.08-19.17.61-11.61.88-16.69.44-9.65.84-13.59v.09l-7.45-10.58-2-2.81-.49-.73c-.1-.07-.15-.12-.15-.12Z"/>
    <path class="st16" d="M411.44,200.24l-20.34-.11,1.44,11.19s1.28,5.52,4.37,5.54l8.81.07c2.2-1.33,3.77-3.49,4.33-6l1.39-10.69Z"/>
    <path class="st10" d="M411.44,200.24c-.03.11-.06.23-.07.35,0,.25-.08.58-.15,1-.12.89-.3,2.14-.53,3.72s-.49,3.5-.8,5.69c-.58,2.41-2.11,4.48-4.24,5.74h.04l-7-.07h-1.88c-.61-.04-1.18-.29-1.62-.71-.92-.91-1.61-2.02-2-3.25-.18-.47-.33-.95-.45-1.44h0c-.51-4-1-7.73-1.45-11.2l-.16.19h20.34c-.12-.02-.25-.02-.37,0h-1.09l-4.17-.08-14.71-.2h-.18v.19l1.42,11.19h0c.12.5.28,1,.46,1.48.42,1.29,1.15,2.45,2.12,3.39.5.47,1.15.75,1.84.79h8.94c2.21-1.32,3.78-3.49,4.35-6,.31-2.24.52-4.19.72-5.8s.33-2.83.43-3.72c.05-.41.08-.73.11-1s.1-.27.1-.26Z"/>
    <path class="st16" d="M392.59,205.85l-.3-.07h0c.17,0-.05,0-.09,0h-.66c.22,0,0,0-.08,0s-.23,0-.34.09-.2.06-.3.09,0,0,.06,0l-.19.09c-.19.1-.38.22-.56.34h0s-.08.06-.11.1l-.26.24c-.06.07-.19.24-.07.07-.07.1-.14.2-.2.3-.05.09-.09.18-.15.27s0,0,0-.05l-.07.19c0,.12-.07.23-.1.35s-.06.34,0,.2,0,.15,0,.2v.57c0,.07,0,.19,0,0s0,.15.05.2.05.2.08.3.13.36,0,.15c.09.2.2.4.32.59l.09.13s-.12-.14,0-.05c.09.1.19.2.29.3l.15.13.16.11c.09.05.18.11.27.15l.14.07c-.15-.08-.08,0,0,0,.23.08.46.14.69.19.14,0-.05,0-.07,0h.76s.25,0,.09,0,0,0,0,0h.2l.39-.12s.18-.07.05,0,.13-.07.13-.07c.61-.3,1.35-.04,1.64.57.27.55.09,1.22-.42,1.56-2.44,1.24-5.43.39-6.86-1.94-.66-1.18-.85-2.56-.55-3.87.31-1.29,1.13-2.4,2.26-3.09,1.25-.77,2.77-.98,4.18-.59.65.19,1.03.86.84,1.51s-.86,1.03-1.51.84l.05-.05Z"/>
    <path class="st10" d="M392.59,205.85c.13.07.28.1.42.08.42-.03.79-.26,1-.62.37-.6.17-1.39-.43-1.76,0,0-.01,0-.02-.01-.37-.18-.78-.29-1.19-.32-.45-.05-.91-.05-1.36,0-1.04.15-2.01.6-2.8,1.3-.92.8-1.51,1.92-1.67,3.13-.19,1.33.12,2.69.87,3.81.84,1.2,2.13,1.99,3.58,2.18.63.09,1.27.07,1.9-.05.31-.06.61-.15.91-.26l.42-.19c.16-.07.3-.17.42-.3.52-.57.47-1.46-.1-1.98-.45-.41-1.11-.48-1.64-.17l.24.15c0-.08-.06-.15-.14-.16h-.22c0-.09-.13.25.07.29h.22c.09-.36-.25-.26-.15-.27h-.18c-.17.05-.34.09-.51.12h0l-.09.05c-.09.05-.06,0,0,.14s.13.13.14.13h.21s.09,0,0-.19-.11-.08-.12-.09h-.92v.31h.14s.07.02.1,0c.05-.04.07-.11.05-.17h0c-.09-.07-.06,0-.07,0h-.14l-.27-.08-.26-.07h-.12c.07-.06,0,.3-.09.26h-.06.06l.13-.27-.34-.19-.16-.1h-.05s-.06,0-.09,0h-.09c-.05.06-.05.14,0,.2h.05s.06,0,.09,0c.05,0,.1-.04.12-.09,0-.08-.06-.2,0-.17h0c-.1-.08-.19-.17-.28-.26l-.13-.14h0c-.08-.02-.16.02-.18.1,0,.14,0,.07,0,.09h0l.05.06.23-.17c-.16-.22-.27-.47-.4-.69l-.25.11v.05h.1c.1,0,.13-.15.13-.15h0v-.1l-.06-.17-.09-.35v-.11h0l-.05-.08s-.09-.03-.13,0h0v.1h0v.09h0c-.09.11.38.06.25,0h0v-.07s0-.05,0-.08c-.01-.11-.01-.23,0-.34v-.43s0-.06-.06-.1c-.04-.02-.09-.02-.13,0v.05h0v.11s0,.03,0,.05c.01.02.03.04.06.05.06.02.12,0,.15-.06,0-.07,0-.13,0-.2.05-.2.11-.4.18-.59l-.21-.08h0c0,.06.04.12.1.13.03.01.06.01.09,0h0l.06-.1.1-.19.21-.33-.17-.12h0s-.02.07,0,.1c.11.14.19,0,.17,0h0l.07-.08.13-.14c.09-.09.18-.17.27-.25l-.13-.14h-.05c.21.29.08.06.12.13h0l.12-.07.22-.14c.13-.09.27-.16.41-.23l-.06-.15h-.07s-.05.1,0,.12,0,0,0,0h.22c.09-.04.18-.06.27-.08l.25-.07h.13s.11.06,0-.13h-.11v.12h.81v-.06h-.14.07c.22.05.33.07.34.05l-.33-.11h-.06c0,.07,0,0,0,0h.1-.81v.12h.1c-.1-.19.06-.11,0-.13h-.14l-.26.06c-.1.01-.19.04-.28.07h-.15c.05.22.06.14.07.15h.08l-.06-.15c-.15.06-.3.14-.44.23l-.23.13-.12.07h0l.05.07s0-.07,0,0,0,0,0,0h.07l-.13-.14c-.1.08-.19.16-.28.25l-.15.14-.07.08h.06l-.17-.12c-.08.11-.16.22-.23.34l-.1.18s-.07.06,0,.1l.06.05h.08v-.06l-.21-.08c-.08.21-.15.42-.2.63v.14h.23-.2v.42c-.01.12-.01.24,0,.36v.1h.25v-.06h-.05s-.09,0-.07,0c-.2,0-.12,0-.14,0h0v.08c.02.13.04.26.08.38l.06.19v.08c.35-.14.23-.1.24-.13h0l-.25.11c.14.24.25.51.42.75l.23-.17-.06-.07h-.05s-.06,0-.08.06h0l.14.14c.08.1.18.19.28.27h0s.07-.1.09-.09,0,0,0,0v-.08h0s-.05,0,0,.06,0,.08,0,.08c0,0,0-.05,0,0,0,.04-.02.07-.05.09h0l.18.11.36.2.14-.27h-.18c-.12,0-.15.32-.08.26h0l.14.05.27.08.28.07h.13s0,.07,0-.13c0-.06,0-.11,0-.17h-.08v.31c.18.02.37.02.55,0,.09,0,.19,0,.28,0h.09s0-.1,0-.15c0-.05,0-.09,0-.14h-.1v.09h0v.07s0,.05,0,.08h0c.19-.03.37-.08.55-.13h.21v-.06s0-.06,0-.09c-.12-.24-.06-.12-.08-.15h-.06v.13l.08.12h.06-.09c-.05,0-.09-.04-.12-.08,0-.02,0-.03,0-.05h.12l.11.15c.5-.3,1.15-.13,1.45.37.24.4.19.91-.12,1.25-.21.18-.45.32-.71.4-.27.1-.55.18-.84.24-.59.1-1.2.1-1.79,0-1.34-.18-2.56-.9-3.35-2-.7-1.05-1-2.33-.83-3.58.12-1.16.67-2.22,1.54-3,.74-.67,1.66-1.11,2.65-1.27.81-.15,1.64-.07,2.41.21.28.17.48.44.56.76.07.27.02.55-.13.78-.19.34-.53.58-.92.62-.1.25-.26.46-.47.63Z"/>
    <path class="st14" d="M378.59,200.8s-6.59,4-8.36,6.54-10.54,16.1-10.54,16.1l11.06,8,5.32-10.92s10.36-1.44,11.5-2.89.39-3.64.39-3.64c0,0,1.75-1.62,1.59-2.91,0,0,4.41-.5,4.55-1.84s-.37-2.82-2-2.92-5.35.18-4.15-.59,5.64-.07,6-2-.62-3.29-2.61-3-2.68.46-2.68.46c0,0,2.95-.95,2.9-3.58-.02-.37-.33-.66-.7-.64-.08,0-.16.02-.23.05-.62.25-1.21.55-1.78.9-2.52,1.56-8.82,1.97-10.26,2.88Z"/>
    <path class="st17" d="M389.42,201.13c-2.17.2-4.33.54-6.46,1-2.1.62-4.15,1.37-6.15,2.25.49-.42,1.05-.76,1.65-1,1.4-.71,2.87-1.26,4.39-1.65,1.52-.39,3.07-.62,4.63-.68.65-.07,1.3-.04,1.94.08Z"/>
    <path class="st17" d="M389.51,210.85c0,.12-.46.23-1,.34s-1,.17-1.07.06.39-.37,1-.49,1.07-.03,1.07.09Z"/>
    <path class="st17" d="M387.97,213.98c0,.11-.19.29-.52.4s-.62.11-.66,0,.2-.29.52-.4.63-.12.66,0Z"/>
    <path class="st0" d="M347.16,195.13s-14.38,2.19-16.09,16.3-2.23,29.73-1,39.5c.91,7.43,4.73,16.44,13,16.72,5.87.19,12.39-6.38,15.55-10.45,5.46-7,12.11-25.81,12.11-25.81l-11.06-8-12.51,16.74,1.76-15.66-1.76-29.34Z"/>
    <path class="st10" d="M359.79,192.25s-.17.06-.49.14l-1.44.36-5.56,1.38-4,1c-.74.18-1.51.35-2.3.51-4.71,1.19-8.8,4.09-11.48,8.14-2.44,3.67-3.7,8.48-4.3,13.61-.31,2.58-.48,5.27-.65,8s-.28,5.62-.33,8.55c-.16,6.08.21,12.17,1.11,18.19.41,3.19,1.38,6.29,2.86,9.15,1.55,2.93,4.19,5.12,7.35,6.12,2.18.58,4.5.33,6.52-.69,1.01-.48,1.99-1.02,2.93-1.64l1.4-.92c.45-.3.87-.64,1.27-1,3-3.12,5.63-6.59,7.83-10.32,4.19-6.72,7.55-13.93,10-21.47l.08.24-11-8h.28l-12.6,16.53-.05.06h-.07c-.97.01-1.91.37-2.65,1-.69.52-1.3,1.14-1.83,1.82-.86,1.05-1.54,2.24-2,3.51-.28.78-.43,1.6-.45,2.43,0,.56.06.84,0,.85-.06-.28-.1-.56-.12-.85,0-.84.12-1.67.39-2.47.46-1.31,1.13-2.52,2-3.6.53-.7,1.15-1.33,1.84-1.87.79-.66,1.79-1.02,2.82-1h-.12l12.43-16.69.12-.16.15.12,11.08,8,.13.1v.15c-2.44,7.58-5.8,14.84-10,21.61-2.22,3.77-4.88,7.27-7.91,10.43-.42.39-.86.75-1.33,1.08l-1.41.93c-.96.63-1.96,1.19-3,1.68-1.06.5-2.19.84-3.35,1-1.18.14-2.38.04-3.53-.28-3.29-1.03-6.05-3.32-7.66-6.37-1.51-2.91-2.5-6.07-2.91-9.32-.91-6.08-1.28-12.23-1.1-18.37.05-2.94.19-5.79.36-8.57s.35-5.46.67-8.06c.63-5.17,1.91-10,4.42-13.77,2.27-3.35,5.51-5.94,9.28-7.42.8-.31,1.62-.57,2.45-.77.8-.16,1.58-.32,2.31-.49l4-.91,5.57-1.23,1.46-.31c.35-.12.53-.14.53-.14Z"/>
    <path class="st10" d="M348.92,237.74c-.24-2.19-.32-4.4-.23-6.61-.08-2.22,0-4.45.26-6.66.26,2.21.35,4.44.26,6.66.08,2.21-.02,4.42-.29,6.61Z"/>
    <path class="st10" d="M349.56,210.13c-.16,0-.3-2.88-1.11-6.32s-2-6.08-1.81-6.14c.39.5.69,1.07.9,1.67,1.19,2.82,1.9,5.83,2.08,8.89.08.63.06,1.27-.06,1.9Z"/>
  </g>
  <g id="freepik--Cat--inject-126">
    <path class="st9" d="M226.27,211.55s-.55-5.5,1.91-8.81,4.87-3.75,12-4.35c7.13-.6,13,2.1,14.8,5.8s1.47,8.75-.31,13.05l-1,2.32s1.5,2.22,1.69,10.33-5,14.94-5,14.94l-8.41,2.5h-51.26s-3.67-9-3.22-13.33c.62-6.05,5.1-18.26,18.81-18.26,3.47,0,8.89,1.63,11.06,1.87,8.91,1,9.68.34,9.68.34l-.75-6.4Z"/>
    <g class="st5">
      <path d="M234.27,223.88s2.85.25,6.21,3.78c3.36,3.53,4.21,12.19,4.21,12.19l-.47-.2-9.95-15.77Z"/>
    </g>
    <path class="st9" d="M261.17,245.19c-.92-.25-1.86-.43-2.81-.54,0,0-2.69-1.07-5.53-2.42l-8.58-2.58c-.57-3.55-1.7-6.98-3.34-10.18-4-7.09-12.57-6.65-12.57-6.65l-5.13,10.38s4.7,5,5.63,9.15,0,4.94,0,4.94h34.01c-.1-.97-.76-1.79-1.68-2.1Z"/>
    <g class="st7">
      <path class="st12" d="M246.33,207.07l-.65-.28c-.31-.22-.64-.39-1-.5l-1.16-7.94c-1.33-.08-2.67-.05-4,.09,1.27,2.47,2.07,5.16,2.37,7.92-.31.11-.6.27-.86.46-1.35,1.02-1.94,2.77-1.48,4.4.66,2.15,2.94,3.35,5.09,2.69,1.13-.35,2.06-1.17,2.53-2.26.66-1.56.33-3.36-.84-4.58Z"/>
    </g>
    <path class="st12" d="M240.23,206.39c0,1.99-1.61,3.61-3.6,3.62s-3.61-1.61-3.62-3.6c0-1.99,1.61-3.61,3.6-3.62,0,0,.01,0,.02,0,1.99,0,3.59,1.61,3.6,3.6Z"/>
    <path class="st10" d="M240.23,206.39c-.03-.29-.07-.58-.14-.87-.2-.8-.66-1.5-1.31-2-.44-.33-.96-.56-1.5-.65-.62-.11-1.26-.06-1.86.15-.32.12-.62.28-.89.49-.29.21-.54.46-.75.75-.92,1.24-.92,2.94,0,4.18.41.57.98,1,1.64,1.24.59.22,1.24.27,1.86.16.55-.1,1.06-.32,1.5-.66.65-.5,1.12-1.2,1.31-2,.07-.29.11-.58.14-.88,0,.02,0,.04,0,.06v.17c0,.09,0,.19,0,.28-.01.13-.03.26-.07.38-.07.35-.2.69-.39,1-.23.39-.54.73-.91,1-.45.35-.98.59-1.54.7-.64.12-1.31.06-1.92-.16-.33-.12-.65-.28-.93-.49-.3-.22-.56-.48-.78-.78-.95-1.29-.95-3.05,0-4.34.22-.3.48-.56.78-.77.28-.22.59-.39.93-.5,1.17-.42,2.47-.22,3.46.54.36.27.67.61.91,1,.18.31.32.65.39,1,.03.12.06.24.07.37,0,.09,0,.19,0,.28v.17c.04.05.04.13,0,.18Z"/>
    <path class="st9" d="M237.03,206.13c-.32-1.28,0-2.46.73-2.65s1.58.71,1.9,2c.32,1.29,0,2.47-.73,2.65s-1.58-.74-1.9-2Z"/>
    <path class="st9" d="M228.69,203.13s1.24-9.45,2.69-10.53,6.91,6.53,6.91,6.53l-7.45,3.39-2.15.61Z"/>
    <path class="st9" d="M244.26,199.04s2.71-4.09,3.28-4.65,1.88-2.69,3.18-1.91,2.08,9,2.08,9l-5.73-1.13-2.81-1.31Z"/>
    <path class="st10" d="M241.96,206.72c.89-.36,1.87-.39,2.78-.08.17,0,.32.13.32.3,0,.08-.02.15-.07.21l-1,1.21c-.1.12-.27.14-.4.06l-1.75-1.14c-.14-.1-.18-.29-.08-.43.05-.07.12-.11.2-.13Z"/>
    <path class="st9" d="M195.42,265c-.76-5.21-5.28-9-9.84-11.66-.75-.38-1.42-.88-2-1.48-.58-.62-.78-1.51-.5-2.32.45-1,1.7-1.32,2.79-1.5l5.24-.88-1.42-7.34c-3.03.33-6.01,1.03-8.88,2.07-2.89,1.06-5.31,3.12-6.81,5.81-1.48,2.75-1.18,6.12.75,8.57,1.51,1.71,3.83,2.51,5.38,4.18,1.76,1.94,2.27,4.7,1.31,7.14-.71,1.73-2.15,3.26-2.09,5.12.09,2.54,3,4.1,5.52,4.17,5.73.15,10.5-4.37,10.66-10.1.02-.6-.02-1.19-.11-1.78h0Z"/>
    <path class="st10" d="M217.31,223.07c-.6-.29-1.17-.63-1.72-1-.57-.32-1.12-.68-1.65-1.07.59.29,1.17.63,1.72,1,.57.32,1.13.68,1.65,1.07Z"/>
    <path class="st12" d="M238.91,205.84c.07.12-.23.45-.68.73s-.88.43-1,.31.23-.44.68-.73.93-.42,1-.31Z"/>
    <path class="st10" d="M243.78,208.32c.03.09.05.18.06.27.04.25.04.51,0,.76-.04.37-.16.73-.34,1.06-.23.42-.58.77-1,1-.4.24-.87.35-1.34.33-.38-.03-.74-.15-1.06-.36-.21-.14-.4-.32-.54-.53-.05-.08-.1-.16-.13-.25.2.28.44.51.72.7.3.18.65.29,1,.32.44.02.88-.1,1.26-.33.38-.22.71-.55.93-.93.18-.31.29-.65.35-1,.06-.34.09-.69.09-1.04Z"/>
    <path class="st10" d="M247.82,209.81s0,.09-.12.23c-.11.2-.25.39-.4.57-.22.28-.51.5-.85.62-.42.13-.88.09-1.27-.12-.41-.18-.76-.48-1-.86-.17-.31-.3-.65-.38-1-.05-.23-.08-.46-.1-.69-.02-.09-.02-.17,0-.26,0,0,0,.37.18.93.08.33.22.64.4.93.21.36.52.64.89.82.36.19.79.23,1.18.11.32-.11.6-.3.82-.56.45-.4.63-.73.65-.72Z"/>
    <path class="st10" d="M245.22,211.69s-.06.16-.27.35c-.55.5-1.34.6-2,.26-.14-.05-.26-.14-.35-.26.13.05.26.11.39.18.32.13.66.17,1,.13.33-.05.65-.18.92-.38.19-.16.3-.29.31-.28Z"/>
    <g class="st5">
      <path d="M231.17,201.84s0-8,.79-8.14,5,5.52,5,5.52c0,0-3.34,3.28-5.79,2.62Z"/>
    </g>
    <path class="st9" d="M237.27,199.13c-1.14-.19-2.32-.12-3.43.21.42.1.79.32,1.07.65-1.73.43-3.33,1.28-4.64,2.49l1.23.28,4.69-.71,1.08-2.92Z"/>
    <g class="st5">
      <path d="M245.15,199.35s4.65-6.52,5.37-6.17.82,7.37.82,7.37c0,0-4.58.76-6.19-1.2Z"/>
    </g>
    <path class="st9" d="M251.69,200.71c-.82-.82-1.82-1.44-2.92-1.82.28.32.46.72.5,1.15-1.66-.66-3.46-.89-5.23-.67l.84.95,4.24,2.14,2.57-1.75Z"/>
    <path class="st12" d="M253.12,205.86c0,1.99-1.61,3.61-3.6,3.62s-3.61-1.61-3.62-3.6,1.61-3.61,3.6-3.62c0,0,.01,0,.02,0,1.99,0,3.59,1.61,3.6,3.6Z"/>
    <path class="st10" d="M253.12,205.86c-.03-.29-.07-.58-.14-.87-.2-.8-.66-1.5-1.31-2-.44-.33-.96-.56-1.5-.65-.62-.11-1.26-.06-1.86.15-.32.12-.63.28-.9.49-.29.21-.54.46-.74.75-.92,1.24-.92,2.94,0,4.18.2.29.45.55.74.76.27.2.58.37.9.48,1.13.42,2.4.23,3.36-.5.64-.49,1.1-1.17,1.31-1.95.07-.29.11-.58.14-.88v.31c0,.09,0,.19,0,.28-.01.13-.03.26-.07.38-.07.35-.2.69-.39,1-.23.39-.54.73-.91,1-.45.35-.98.59-1.54.7-.64.12-1.31.06-1.92-.16-.33-.12-.65-.28-.93-.49-.95-.7-1.51-1.82-1.49-3,0-.78.25-1.54.71-2.17.22-.3.48-.56.78-.77.28-.22.59-.39.93-.5.61-.22,1.28-.27,1.92-.15.56.11,1.09.35,1.54.69.36.27.67.61.91,1,.18.31.32.65.39,1,.03.12.06.24.07.37,0,.09,0,.19,0,.28v.27Z"/>
    <g class="st7">
      <path class="st12" d="M253.96,242.65c-1.25,1.66-3.06,2.82-5.1,3.26-.24.05-.55.07-.68-.14s0-.49.15-.7c.75-1.1,1.44-2.25,2.25-3.3l.17-.22,2.08.68,1.13.42Z"/>
    </g>
    <path class="st9" d="M250.05,205.61c-.25-1.3.15-2.47.89-2.61s1.53.81,1.77,2.1-.15,2.47-.89,2.61-1.53-.81-1.77-2.1Z"/>
    <path class="st12" d="M251.69,205.5c.06.12-.29.41-.77.63s-.93.31-1,.18.28-.41.77-.63.91-.31,1-.18Z"/>
    <path class="st9" d="M252.83,240.6c1.81-2.87,3.31-7.47,2.65-10.8l.68,1.74c.07-1.93-.22-3.85-.85-5.67l1.28,1.65c-.54-2.82-1.55-5.52-3-8"/>
    <path class="st10" d="M253.62,219.56l.09.13c.06.09.15.22.25.4.3.5.57,1.02.81,1.55.83,1.88,1.47,3.84,1.88,5.86v.25l-.16-.2-1.28-1.64.11-.06c.45,1.32.73,2.7.83,4.1v1.92l-.12-.3c-.22-.6-.45-1.18-.67-1.75h.13c.16.76.22,1.53.2,2.31-.04.72-.14,1.44-.29,2.15-.25,1.18-.61,2.33-1.07,3.44-.28.73-.61,1.45-1,2.13-.13.24-.25.42-.33.54l-.09.14v.05-.05l.08-.15c.07-.13.19-.31.32-.55.37-.7.71-1.41,1-2.15.44-1.11.77-2.25,1-3.42.15-.71.24-1.42.28-2.14.05-.78,0-1.56-.14-2.33h.12c.22.56.45,1.14.68,1.74h-.13v-1.58c-.1-1.39-.37-2.75-.82-4.07l-.12-.36.23.3,1.28,1.65-.11.05c-.4-2.01-1.02-3.98-1.83-5.86-.23-.54-.49-1.06-.78-1.57-.09-.17-.18-.3-.23-.4s-.13-.13-.12-.13Z"/>
    <g class="st7">
      <path class="st12" d="M207.95,247.13c.97-1.51,2.36-2.71,4-3.44,1.34-.39,2.78-.3,4.06.26,1.46.49,2.5,1.8,2.65,3.33l-10.71-.15Z"/>
    </g>
    <path class="st10" d="M213.49,244.74c.25-.02.49-.02.74,0,.61,0,1.21.15,1.75.42.3.16.56.38.76.66.16.22.27.48.31.76.04.18.04.37,0,.55-.02.07-.04.13-.08.19.04-.24.04-.49,0-.73-.05-.26-.16-.49-.32-.7-.19-.26-.44-.47-.72-.62-.53-.26-1.1-.4-1.69-.43-.25-.02-.5-.05-.75-.1Z"/>
    <path class="st10" d="M177.75,249.74l-.06.13-.21.37-.79,1.32-.07.13v-.15c-.13-.74-.02-1.51.32-2.18l.11.07c-.18.2-.37.42-.57.63l-1,1.15-.12.14v-.22c.07-.87.31-1.71.68-2.5.1-.23.22-.45.36-.66.04-.08.09-.15.15-.22-.03.08-.07.16-.12.24-.08.15-.2.38-.32.67-.35.79-.56,1.62-.62,2.48h-.11l1-1.16.56-.62.33-.37-.22.44c-.34.64-.46,1.38-.36,2.1h-.1l.8-1.3.23-.36c.07-.1.13-.14.13-.13Z"/>
    <path class="st10" d="M187.9,262.88c-.08-.04-.16-.1-.23-.16l-.62-.46c-.52-.39-1.24-.95-2-1.59l.1-.07.29.69.62,1.46.05.13-.13-.05c-.65-.24-1.2-.71-1.53-1.32-.09-.17-.17-.35-.23-.54v-.21c.09.24.19.48.32.71.34.58.88,1.01,1.51,1.24l-.07.09c-.2-.45-.41-.94-.63-1.45l-.29-.7-.1-.24.2.16c.81.64,1.52,1.21,2,1.63l.59.49c.06.06.11.12.15.19Z"/>
    <path class="st9" d="M196.26,218.59c-3,1.25-8.19,6.83-9,9.48.63-.66,1.27-1.32,1.91-2-2.31,2.95-3.18,6.77-2.37,10.43.05-1.23.4-2.43,1-3.5-.61,2.35-.42,4.84.54,7.07"/>
    <path class="st10" d="M188.33,240.13l-.06-.11c-.06-.11-.09-.19-.15-.35-.17-.45-.31-.92-.42-1.39-.17-.74-.28-1.5-.31-2.26-.03-.47-.03-.95,0-1.42.04-.53.14-1.05.31-1.55h.09c-.29.5-.52,1.04-.68,1.6-.16.61-.26,1.24-.32,1.87v.36l-.08-.35c-.44-1.95-.4-3.99.12-5.92.43-1.66,1.2-3.21,2.26-4.56l.09.08-1.91,2-.2.21.1-.27c.34-.88.8-1.7,1.36-2.45.52-.72,1.06-1.39,1.59-2,.93-1.07,1.93-2.07,3-3,.69-.61,1.44-1.15,2.24-1.62.21-.13.43-.24.66-.34l.17-.08h.06-.06l-.16.09c-.22.11-.44.23-.65.36-.79.48-1.53,1.03-2.21,1.64-1.07.93-2.07,1.93-3,3-.53.6-1.06,1.27-1.58,2-.54.76-.97,1.59-1.29,2.46l-.11-.06,1.91-2,.1.09c-.61.77-1.12,1.61-1.52,2.5-.3.64-.54,1.31-.72,2-.17.66-.29,1.33-.36,2-.12,1.28-.04,2.57.23,3.83h-.14c.06-.64.17-1.27.33-1.89.16-.57.39-1.11.69-1.62l.26-.44-.16.48c-.17.5-.27,1.01-.32,1.53-.03.47-.03.94,0,1.41.03.76.12,1.51.28,2.25.1.47.24.94.4,1.39.05.16.1.27.13.35l.03.18Z"/>
    <path class="st10" d="M196.26,242.8l-.07-.06-.17-.16c-.16-.15-.37-.37-.64-.66-.72-.82-1.34-1.72-1.85-2.69h.11c-.06.73,0,1.47.14,2.19v.21l-.15-.15c-.47-.47-.86-1.03-1.14-1.63-.35-.73-.53-1.52-.55-2.33h.12c-.28.86-.33,1.77-.17,2.66l.08.48-.18-.45c-.34-.81-.55-1.67-.61-2.54v-.91s0-.05,0-.07c.01.09.01.17,0,.26v.72c.08.86.3,1.7.64,2.5h-.1c-.17-.9-.11-1.83.16-2.71l.12-.36v.37c.02.79.2,1.57.54,2.29.28.59.65,1.13,1.11,1.59l-.1.06c-.16-.73-.2-1.48-.13-2.23v-.19l.09.17c.5.96,1.1,1.86,1.79,2.69.26.3.47.53.61.68.13.08.24.17.35.27Z"/>
    <path class="st10" d="M231.27,247.33h-.76l-2-.13h-.2l.18-.09c.61-.28,1.11-.76,1.43-1.35l.07.09-1.3.28h-.1v-.1c.14-.51.23-1.04.27-1.57.07-1.01-.04-2.03-.33-3-.22-.78-.56-1.53-1-2.22-.29-.46-.63-.9-1-1.3l-.33-.32-.11-.12.13.1.34.3c.4.39.76.82,1.07,1.29.44.69.78,1.45,1,2.24.29.97.4,1.99.34,3-.04.54-.13,1.07-.28,1.59l-.08-.08,1.29-.3h.13l-.06.12c-.34.6-.85,1.08-1.48,1.37v-.09l2,.17.57.06.21.06Z"/>
    <path class="st10" d="M248.11,217.13v.09l-.14.25c-.19.31-.4.61-.62.89-.78,1-1.74,1.85-2.82,2.5l-.15.09.06-.16c.17-.47.24-.96.22-1.46h.12c-.2.36-.44.69-.72,1-.38.39-.82.73-1.3,1l-.13.07v-.14c.15-.62.3-1.21.44-1.76h.1c-.58.62-1.28,1.12-2.06,1.45h-.13l.08-.11c.26-.41.47-.85.61-1.31.05-.16.08-.29.1-.37s0-.13,0-.13c0,.04,0,.09,0,.13,0,.09,0,.22-.09.39-.12.47-.32.92-.58,1.33l-.05-.06c.76-.34,1.44-.84,2-1.45l.15-.17v.23c-.14.55-.28,1.14-.43,1.76l-.09-.07c.46-.27.89-.61,1.26-1,.27-.29.51-.6.71-.94l.11-.19v.22c.02.51-.06,1.02-.23,1.5l-.09-.07c1.07-.64,2.03-1.47,2.82-2.44.29-.36.5-.66.64-.87l.21-.2Z"/>
    <path class="st10" d="M216.6,224.4c-.1-.04-.2-.09-.29-.16l-.79-.48c-.87-.5-1.78-.95-2.72-1.32-.94-.37-1.9-.68-2.88-.92l-.89-.21c-.11-.01-.22-.04-.33-.08.11-.01.22-.01.33,0,.22,0,.53.09.91.17.99.21,1.97.51,2.91.89.94.38,1.85.83,2.72,1.36.33.21.59.38.76.51s.27.24.27.24Z"/>
    <path class="st10" d="M230.75,202.26l.06-.08c.06-.07.12-.14.18-.21.23-.25.49-.46.77-.65.93-.63,1.98-1.06,3.08-1.28h0v.11c-.27-.31-.61-.55-1-.69l-.14-.06.14-.06c.78-.32,1.62-.44,2.46-.34.24.03.48.08.71.15.09.01.17.04.25.09,0,0-.36-.1-1-.16-.82-.07-1.64.06-2.4.38v-.12c.39.16.73.41,1,.72l.07.08h-.11c-1.08.23-2.12.64-3.06,1.23-.36.27-.7.57-1.01.89Z"/>
    <path class="st10" d="M244.58,199.28h.38c.33-.03.67-.03,1,0,1.16.06,2.3.35,3.35.85l-.1.06v-.07c-.04-.2-.12-.4-.23-.58-.1-.18-.21-.35-.32-.52l-.07-.14h.15c.85.25,1.64.69,2.3,1.28.19.18.36.37.52.57.06.07.11.15.15.24-.22-.26-.46-.52-.72-.75-.67-.56-1.45-.98-2.29-1.22l.07-.09c.1.17.22.34.33.53.12.19.2.41.24.63v.18h-.1c-1.04-.49-2.15-.78-3.29-.87-.33-.02-.67-.02-1,0l-.37-.1Z"/>
    <g class="st7">
      <path class="st12" d="M226.46,207.4c1.25.4,2.55.59,3.86.58.44.03.86-.16,1.12-.51.13-.35.04-.74-.23-1-.29-.25-.63-.44-1-.55l-3.13-1.27c-.32.89-.52,1.81-.62,2.75Z"/>
    </g>
    <g class="st7">
      <path class="st12" d="M255.91,207.83c-.22-.57-.08,1.23-.46,1.71-.4.47-.85.89-1.35,1.24-.5.35-.92.82-1.22,1.35-.29.48-.25,1.1.1,1.54.36.27.82.39,1.27.34.54.07,1.08-.14,1.43-.56,0,0,1.2-3.19.23-5.62Z"/>
    </g>
    <g class="st7">
      <path class="st12" d="M252.84,226.7c-.84-2.03-2.44-3.64-4.47-4.49-2.09-.8-4.46-.06-5.72,1.8-.49.95-.69,2.02-.56,3.08.13,1.05.34,2.09.64,3.11.93,3.16,1.6,6.38,2,9.65l6.59,1.89c1.26-2.84,2.53-5.76,2.71-8.86.12-2.13-.29-4.25-1.19-6.18Z"/>
    </g>
    <g class="st7">
      <path class="st12" d="M214.98,228.88c.7,1.55-7,9-12.49,9.89-.45.13-.94.06-1.33-.21-.35-.41-.35-1.01,0-1.42.36-.37.81-.65,1.3-.81,2.2-1.05,4.15-2.56,5.71-4.44,1.7-1.86,3.15-4.45,2.75-6.93.05,0,3.07,1.71,4.06,3.92Z"/>
    </g>
    <g class="st7">
      <path class="st12" d="M256.25,247.33l2.12-2.62s3.16-.05,4,1.38c.12.16.22.33.3.52.08.23.13.48.16.72h-6.58Z"/>
    </g>
    <path class="st10" d="M261.5,247.53c-.06-.18-.11-.36-.14-.55-.07-.44-.3-.83-.65-1.1-.39-.21-.84-.28-1.28-.21-.18.03-.37.05-.56.06.18-.08.36-.13.55-.15.21-.02.41-.02.62,0,.26.02.52.09.74.23.22.15.39.35.5.59.08.19.14.39.17.6.04.17.05.35.05.53Z"/>
    <g class="st7">
      <path class="st12" d="M245.54,240.03c-2.17,3.01-5.33,5.17-8.92,6.11-.46.12-1.14.08-1.19-.4.01-.25.13-.48.32-.63,2.57-2.78,5.27-5.56,7.85-8.35l.65,2.89,1.29.38Z"/>
    </g>
    <g class="st7">
      <path class="st12" d="M241.52,230.5s-4.92,4.76-7.92,6c-.32.19-.71.23-1.06.11-.37-.24-.51-.71-.33-1.11.17-.39.44-.73.77-1,2.32-2.28,4.37-4.82,6.12-7.57,0,0,.68.51,2.42,3.57Z"/>
    </g>
    <g class="st7">
      <path class="st12" d="M190.29,275.51c.8-.56,1.28-1.47,1.28-2.45.37-3.5-2.17-6.63-5.67-7-1.56-.16-3.12.25-4.39,1.17,0,0-.67,1.56-.95,2.06s-2.58,3.49-.13,5.81c1.69,1.55,4.03,2.17,6.26,1.67,1.27-.18,2.49-.61,3.6-1.26Z"/>
    </g>
    <path class="st10" d="M262.85,247.33v-.34c-.08-.32-.23-.62-.42-.89h0c-.38-.48-.89-.83-1.48-1-.82-.26-1.67-.39-2.53-.38h0l-5.54-2.41h0l-8.58-2.56h0c-.11-.6-.23-1.24-.36-1.88-.51-2.9-1.49-5.7-2.91-8.28-.65-1.1-1.45-2.11-2.37-3-.81-.77-1.72-1.42-2.72-1.92-.83-.4-1.69-.73-2.57-1-.78-.24-1.46-.41-2-.54l-1.28-.3-.34-.08h-.11.11l.34.07c.3,0,.73.14,1.3.27s1.24.29,2,.52c.89.26,1.76.59,2.59,1,1.01.5,1.94,1.15,2.76,1.92.93.89,1.73,1.9,2.39,3,1.43,2.59,2.43,5.4,2.94,8.31.13.64.25,1.28.36,1.88h0l8.58,2.58h0l5.53,2.44h0c.87,0,1.73.13,2.55.41.6.18,1.13.55,1.5,1.06h0c.2.27.34.58.41.91-.04.07-.09.14-.15.21Z"/>
    <g class="st5">
      <path d="M218.28,243.06c-.96-.99-2.29-1.52-3.67-1.48,1.96-2.28,2.78-5.33,2.21-8.29-.25-1.24-.73-2.42-1.44-3.47.37,1.36.49,2.78.35,4.19-.28,3.42-1.5,6.68-3.54,9.44,1.55-.16,3.1.11,4.51.77,1.02.49,1.74,1.44,1.92,2.56l.1.56h.91c.1-1.55-.38-3.07-1.35-4.28Z"/>
    </g>
    <g class="st7">
      <path class="st12" d="M205.52,223.8c-1.93-.07-3.87.19-5.71.78-1.27.96-2.44,2.05-3.5,3.24-.37.33-.57.81-.56,1.31.18.58.76.93,1.35.83.57-.11,1.11-.38,1.55-.76,2.3-1.66,4.68-3.62,6.87-5.4"/>
    </g>
    <path class="st10" d="M190.41,247.29h28.22l-.06.07c-.04-.3-.1-.6-.18-.89-.08-.29-.2-.57-.36-.83-.32-.53-.78-.96-1.33-1.24-1.16-.55-2.42-.85-3.7-.87-.29,0-.58.02-.87.06h-.15l.09-.13c1.4-1.9,2.41-4.04,3-6.32.28-1.08.46-2.18.54-3.29.08-1.07.02-2.14-.17-3.19-.18-.99-.57-1.94-1.13-2.78-.53-.79-1.21-1.47-2-2-1.41-.98-3.04-1.62-4.74-1.87-1.4-.17-2.83-.17-4.23,0-1.06.12-2.12.29-3.16.52-.86.18-1.53.33-2,.44l-.51.11h-.18.17l.51-.13,2-.46c1.04-.24,2.1-.42,3.16-.54,1.41-.18,2.84-.18,4.25,0,1.72.24,3.36.88,4.79,1.87.39.28.75.59,1.09.92.35.34.66.72.93,1.13.58.85.97,1.82,1.16,2.83.19,1.06.25,2.14.17,3.22-.25,3.5-1.48,6.86-3.56,9.68l-.07-.11c.29-.04.59-.06.89-.06,1.3.03,2.58.33,3.76.88.57.3,1.05.74,1.38,1.29.16.27.29.56.38.86.08.3.13.6.17.91v.07h-28.26v-.15Z"/>
    <path class="st10" d="M240.54,209.84s-4.5.71-10.06,1.5-10.07,1.41-10.07,1.38,4.49-.71,10.06-1.51,10.07-1.41,10.07-1.37Z"/>
    <path class="st10" d="M241.02,210.36l-.16.05-.47.14-1.75.46c-1.48.38-3.53.87-5.82,1.34s-4.36.83-5.87,1.06l-1.79.27-.48.06h-.17.16l.49-.08,1.78-.31c1.5-.26,3.58-.63,5.86-1.1s4.33-.94,5.82-1.3l1.75-.42.48-.11.17-.06Z"/>
    <path class="st10" d="M260.69,209.84s-3.33,0-7.43-.11-7.43-.21-7.43-.24,3.33,0,7.43.11,7.43.2,7.43.24Z"/>
    <path class="st10" d="M258.12,212.36s-2.59-.42-5.77-1-5.76-1.1-5.76-1.13,2.6.41,5.78,1,5.76,1.09,5.75,1.13Z"/>
    <path class="st12" d="M244.14,206.74h-1c-.53,0-1,.18-1,.15.3-.18.65-.27,1-.28.34-.04.68,0,1,.13Z"/>
    <path class="st12" d="M230.11,196.84c-.02.23-.05.45-.1.67-.08.45-.17,1-.28,1.59l-.24,1.6c-.02.22-.06.44-.12.66-.03-.22-.03-.45,0-.67,0-.42.1-1,.21-1.61s.21-1.19.31-1.59c.05-.22.12-.44.22-.65Z"/>
    <path class="st12" d="M248.15,194.53c-.44.67-.92,1.31-1.43,1.92-.83,1-1.52,1.86-1.54,1.84.44-.67.92-1.31,1.43-1.92.83-1.04,1.52-1.86,1.54-1.84Z"/>
    <path class="st12" d="M242.62,214.01c-.89.18-1.8-.11-2.42-.77.36.24.75.43,1.15.58.42.11.84.17,1.27.19Z"/>
    <path class="st12" d="M222.96,219.92s-.55-.19-1.23-.4-1.25-.36-1.24-.4c.44.03.87.12,1.28.27.42.12.82.3,1.19.53Z"/>
    <path class="st12" d="M225.13,219.7s-.8-.21-1.77-.48c-.6-.14-1.18-.31-1.76-.51.18,0,.36.03.53.08.33.06.77.17,1.26.31.42.11.83.24,1.24.39.17.05.34.12.5.21Z"/>
    <path class="st12" d="M190.48,224.32c.85-.8,1.75-1.55,2.7-2.23-.41.42-.84.81-1.31,1.17-.43.39-.9.74-1.39,1.06Z"/>
    <path class="st12" d="M189.76,227.47c.09-.25.21-.48.35-.71.29-.56.63-1.09,1-1.6.38-.51.79-1,1.24-1.45.18-.2.38-.37.59-.53-.16.21-.34.4-.52.59-.33.36-.76.87-1.21,1.47s-.81,1.15-1.06,1.56c-.11.23-.24.46-.39.67Z"/>
    <path class="st12" d="M194.91,239.7c-.29-.34-.52-.74-.66-1.17-.19-.41-.29-.85-.3-1.3,0,0,.16.58.43,1.26s.56,1.19.53,1.21Z"/>
    <path class="st12" d="M197.18,242.05c-.17-.15-.33-.33-.46-.52-.34-.44-.64-.91-.89-1.41-.25-.5-.45-1.02-.6-1.56-.08-.22-.13-.45-.14-.68.09.21.17.43.23.65.17.53.38,1.04.63,1.53.25.49.53.97.84,1.42.24.35.4.56.39.57Z"/>
    <path class="st12" d="M179.55,242.77c.17-.12.35-.22.54-.29.45-.21.91-.39,1.39-.52.48-.13.96-.23,1.45-.29.2-.02.41-.02.61,0-.2.06-.4.1-.6.12-.37.07-.88.17-1.43.33-.47.13-.94.29-1.39.47-.18.08-.37.14-.57.18Z"/>
    <path class="st12" d="M179.05,244.33c.14-.19.3-.36.49-.5.44-.37.92-.67,1.45-.9.52-.22,1.07-.38,1.63-.45.23-.03.47-.03.7,0,0,0-.26,0-.68.12-.55.1-1.09.26-1.6.48-.51.23-.99.51-1.44.85-.34.2-.54.41-.55.4Z"/>
    <path class="st12" d="M228.94,235.93c-.37-.5-.7-1.03-1-1.57-.33-.53-.61-1.07-.86-1.64.68,1.03,1.3,2.1,1.83,3.21h.03Z"/>
    <path class="st12" d="M229.35,238.52c-.14-.25-.27-.5-.38-.76-.29-.61-.63-1.2-1-1.76-.4-.56-.83-1.09-1.31-1.58-.36-.38-.6-.6-.59-.62s.08,0,.19.13.28.24.47.42c.49.48.94,1.01,1.34,1.57.39.57.73,1.17,1,1.8.11.24.19.44.24.58.02.07.03.15.04.22Z"/>
    <path class="st12" d="M241.04,214.92c-.38.03-.76-.02-1.12-.15-.37-.09-.71-.26-1-.5,0,0,.47.2,1.06.37s1.07.24,1.06.28Z"/>
  </g>
  <rect class="st15" x="640.56" y="290.47" width="37.38" height="9.89"/>
  <path class="st0" d="M624.55,310.74v-10.01h0l.2-.19,37.37.08h.12v.11c0,3.13-.05,5.6-.07,7.33v2.4"/>
  <path class="st0" d="M662.13,310.59v-2.45c0-1.71,0-4.16-.06-7.26l.11.12-37.37.07.19-.19h0v9.87"/>
  <rect class="st15" x="62.25" y="182.11" width="37.38" height="9.89"/>
  <path class="st0" d="M46.24,202.38v-10.01h0l.2-.19,37.37.08h.12v.11c0,3.13-.05,5.6-.07,7.33v2.4"/>
  <path class="st0" d="M83.82,202.23v-2.45c0-1.71,0-4.16-.06-7.26l.11.12-37.37.07.19-.19h0v9.87"/>
</svg>