<svg width="219" height="50" viewBox="0 0 219 50" fill="none" xmlns="http://www.w3.org/2000/svg">
<rect x="0.240234" y="0.640381" width="217.802" height="48.4005" rx="24.2002" fill="url(#paint0_linear_500_571)"/>
<path d="M35.543 24.4656V26.1609H27.7461V24.4656H35.543ZM32.5586 21.2781V29.5593H30.7383V21.2781H32.5586ZM47.6445 19.325H49.5977V26.9265C49.5977 27.7911 49.4102 28.5151 49.0352 29.0984C48.6602 29.6817 48.1497 30.1218 47.5039 30.4187C46.8633 30.7104 46.1471 30.8562 45.3555 30.8562C44.5378 30.8562 43.8086 30.7104 43.168 30.4187C42.5273 30.1218 42.0221 29.6817 41.6523 29.0984C41.2878 28.5151 41.1055 27.7911 41.1055 26.9265V19.325H43.0586V26.9265C43.0586 27.4734 43.1523 27.9239 43.3398 28.2781C43.5273 28.627 43.793 28.8848 44.1367 29.0515C44.4805 29.2182 44.8867 29.3015 45.3555 29.3015C45.8242 29.3015 46.2279 29.2182 46.5664 29.0515C46.9102 28.8848 47.1758 28.627 47.3633 28.2781C47.5508 27.9239 47.6445 27.4734 47.6445 26.9265V19.325ZM60.7539 19.325V30.7H58.793L53.6914 22.5515V30.7H51.7305V19.325H53.6914L58.8086 27.489V19.325H60.7539ZM65.1836 19.325V30.7H63.2227V19.325H65.1836ZM76.6914 24.7V25.325C76.6914 26.1843 76.5794 26.9552 76.3555 27.6375C76.1315 28.3197 75.8112 28.9005 75.3945 29.3796C74.9831 29.8588 74.4883 30.226 73.9102 30.4812C73.332 30.7312 72.6914 30.8562 71.9883 30.8562C71.2904 30.8562 70.6523 30.7312 70.0742 30.4812C69.5013 30.226 69.0039 29.8588 68.582 29.3796C68.1602 28.9005 67.832 28.3197 67.5977 27.6375C67.3685 26.9552 67.2539 26.1843 67.2539 25.325V24.7C67.2539 23.8406 67.3685 23.0723 67.5977 22.3953C67.8268 21.713 68.1497 21.1322 68.5664 20.6531C68.9883 20.1687 69.4857 19.8015 70.0586 19.5515C70.6367 19.2963 71.2747 19.1687 71.9727 19.1687C72.6758 19.1687 73.3164 19.2963 73.8945 19.5515C74.4727 19.8015 74.9701 20.1687 75.3867 20.6531C75.8034 21.1322 76.1237 21.713 76.3477 22.3953C76.5768 23.0723 76.6914 23.8406 76.6914 24.7ZM74.7305 25.325V24.6843C74.7305 24.0489 74.668 23.489 74.543 23.0046C74.4232 22.5151 74.2435 22.1062 74.0039 21.7781C73.7695 21.4447 73.4805 21.1947 73.1367 21.0281C72.793 20.8562 72.4049 20.7703 71.9727 20.7703C71.5404 20.7703 71.1549 20.8562 70.8164 21.0281C70.4779 21.1947 70.1888 21.4447 69.9492 21.7781C69.7148 22.1062 69.5352 22.5151 69.4102 23.0046C69.2852 23.489 69.2227 24.0489 69.2227 24.6843V25.325C69.2227 25.9604 69.2852 26.5229 69.4102 27.0125C69.5352 27.502 69.7174 27.9161 69.957 28.2546C70.2018 28.588 70.4935 28.8406 70.832 29.0125C71.1706 29.1791 71.556 29.2625 71.9883 29.2625C72.4258 29.2625 72.8138 29.1791 73.1523 29.0125C73.4909 28.8406 73.7773 28.588 74.0117 28.2546C74.2461 27.9161 74.4232 27.502 74.543 27.0125C74.668 26.5229 74.7305 25.9604 74.7305 25.325ZM87.6758 19.325V30.7H85.7148L80.6133 22.5515V30.7H78.6523V19.325H80.6133L85.7305 27.489V19.325H87.6758ZM100.715 26.9968H102.668C102.605 27.7416 102.397 28.4057 102.043 28.989C101.689 29.5671 101.191 30.0229 100.551 30.3562C99.9102 30.6895 99.1315 30.8562 98.2148 30.8562C97.5117 30.8562 96.8789 30.7312 96.3164 30.4812C95.7539 30.226 95.2721 29.8666 94.8711 29.4031C94.4701 28.9343 94.1628 28.3692 93.9492 27.7078C93.7409 27.0463 93.6367 26.3067 93.6367 25.489V24.5437C93.6367 23.726 93.7435 22.9864 93.957 22.325C94.1758 21.6635 94.4883 21.0984 94.8945 20.6296C95.3008 20.1557 95.7878 19.7937 96.3555 19.5437C96.9284 19.2937 97.5716 19.1687 98.2852 19.1687C99.1914 19.1687 99.957 19.3354 100.582 19.6687C101.207 20.002 101.691 20.463 102.035 21.0515C102.384 21.6401 102.598 22.3145 102.676 23.075H100.723C100.671 22.5854 100.556 22.1661 100.379 21.8171C100.207 21.4682 99.9518 21.2026 99.6133 21.0203C99.2747 20.8328 98.832 20.739 98.2852 20.739C97.8372 20.739 97.4466 20.8223 97.1133 20.989C96.7799 21.1557 96.5013 21.4005 96.2773 21.7234C96.0534 22.0463 95.8841 22.4447 95.7695 22.9187C95.6602 23.3875 95.6055 23.9239 95.6055 24.5281V25.489C95.6055 26.0619 95.6549 26.5828 95.7539 27.0515C95.8581 27.5151 96.0143 27.9135 96.2227 28.2468C96.4362 28.5802 96.707 28.838 97.0352 29.0203C97.3633 29.2026 97.7565 29.2937 98.2148 29.2937C98.7721 29.2937 99.2227 29.2052 99.5664 29.0281C99.9154 28.851 100.178 28.5932 100.355 28.2546C100.538 27.9109 100.658 27.4916 100.715 26.9968ZM113.52 24.7V25.325C113.52 26.1843 113.408 26.9552 113.184 27.6375C112.96 28.3197 112.639 28.9005 112.223 29.3796C111.811 29.8588 111.316 30.226 110.738 30.4812C110.16 30.7312 109.52 30.8562 108.816 30.8562C108.118 30.8562 107.48 30.7312 106.902 30.4812C106.329 30.226 105.832 29.8588 105.41 29.3796C104.988 28.9005 104.66 28.3197 104.426 27.6375C104.197 26.9552 104.082 26.1843 104.082 25.325V24.7C104.082 23.8406 104.197 23.0723 104.426 22.3953C104.655 21.713 104.978 21.1322 105.395 20.6531C105.816 20.1687 106.314 19.8015 106.887 19.5515C107.465 19.2963 108.103 19.1687 108.801 19.1687C109.504 19.1687 110.145 19.2963 110.723 19.5515C111.301 19.8015 111.798 20.1687 112.215 20.6531C112.632 21.1322 112.952 21.713 113.176 22.3953C113.405 23.0723 113.52 23.8406 113.52 24.7ZM111.559 25.325V24.6843C111.559 24.0489 111.496 23.489 111.371 23.0046C111.251 22.5151 111.072 22.1062 110.832 21.7781C110.598 21.4447 110.309 21.1947 109.965 21.0281C109.621 20.8562 109.233 20.7703 108.801 20.7703C108.368 20.7703 107.983 20.8562 107.645 21.0281C107.306 21.1947 107.017 21.4447 106.777 21.7781C106.543 22.1062 106.363 22.5151 106.238 23.0046C106.113 23.489 106.051 24.0489 106.051 24.6843V25.325C106.051 25.9604 106.113 26.5229 106.238 27.0125C106.363 27.502 106.546 27.9161 106.785 28.2546C107.03 28.588 107.322 28.8406 107.66 29.0125C107.999 29.1791 108.384 29.2625 108.816 29.2625C109.254 29.2625 109.642 29.1791 109.98 29.0125C110.319 28.8406 110.605 28.588 110.84 28.2546C111.074 27.9161 111.251 27.502 111.371 27.0125C111.496 26.5229 111.559 25.9604 111.559 25.325ZM116.277 19.325H118.027L121.316 28.0984L124.598 19.325H126.348L122.004 30.7H120.613L116.277 19.325ZM115.48 19.325H117.145L117.434 26.9187V30.7H115.48V19.325ZM125.48 19.325H127.152V30.7H125.191V26.9187L125.48 19.325ZM133.801 26.4578H130.84V24.9031H133.801C134.316 24.9031 134.733 24.8197 135.051 24.6531C135.368 24.4864 135.6 24.2572 135.746 23.9656C135.897 23.6687 135.973 23.3302 135.973 22.95C135.973 22.5906 135.897 22.2546 135.746 21.9421C135.6 21.6244 135.368 21.3692 135.051 21.1765C134.733 20.9838 134.316 20.8875 133.801 20.8875H131.441V30.7H129.48V19.325H133.801C134.681 19.325 135.428 19.4812 136.043 19.7937C136.663 20.101 137.134 20.5281 137.457 21.075C137.78 21.6166 137.941 22.2364 137.941 22.9343C137.941 23.6687 137.78 24.2989 137.457 24.825C137.134 25.351 136.663 25.7546 136.043 26.0359C135.428 26.3171 134.681 26.4578 133.801 26.4578ZM146.824 29.1453V30.7H141.113V29.1453H146.824ZM141.66 19.325V30.7H139.699V19.325H141.66ZM150.434 19.325V30.7H148.473V19.325H150.434ZM157.441 20.8406L154.043 30.7H151.988L156.27 19.325H157.582L157.441 20.8406ZM160.285 30.7L156.879 20.8406L156.73 19.325H158.051L162.348 30.7H160.285ZM160.121 26.4812V28.0359H153.934V26.4812H160.121ZM172.645 19.325V30.7H170.684L165.582 22.5515V30.7H163.621V19.325H165.582L170.699 27.489V19.325H172.645ZM179.426 19.325V30.7H177.48V19.325H179.426ZM182.996 19.325V20.8875H173.941V19.325H182.996Z" fill="white"/>
<defs>
<linearGradient id="paint0_linear_500_571" x1="109.141" y1="0.640381" x2="109.141" y2="49.0409" gradientUnits="userSpaceOnUse">
<stop offset="0.203125" stop-color="#034DAE"/>
<stop offset="0.536458" stop-color="#0386AD"/>
<stop offset="1" stop-color="#03D5AC"/>
</linearGradient>
</defs>
</svg>
