<svg width="256" height="47" viewBox="0 0 256 47" fill="none" xmlns="http://www.w3.org/2000/svg">
<rect x="2.93652" y="0.842041" width="252.093" height="46.158" rx="23.079" fill="url(#paint0_linear_500_568)"/>
<path d="M24.8101 21.7656V23.4609H17.0132V21.7656H24.8101ZM21.8257 18.5781V26.8594H20.0054V18.5781H21.8257ZM32.6226 16.625V28H30.6617V16.625H32.6226ZM44.0835 16.625V28H42.1226L37.021 19.8516V28H35.0601V16.625H37.021L42.1382 24.7891V16.625H44.0835ZM53.1382 24.2969H55.0913C55.0288 25.0417 54.8205 25.7057 54.4663 26.2891C54.1122 26.8672 53.6148 27.3229 52.9742 27.6562C52.3335 27.9896 51.5549 28.1562 50.6382 28.1562C49.9351 28.1562 49.3023 28.0312 48.7398 27.7812C48.1773 27.526 47.6955 27.1667 47.2945 26.7031C46.8934 26.2344 46.5861 25.6693 46.3726 25.0078C46.1643 24.3464 46.0601 23.6068 46.0601 22.7891V21.8438C46.0601 21.026 46.1669 20.2865 46.3804 19.625C46.5992 18.9635 46.9117 18.3984 47.3179 17.9297C47.7242 17.4557 48.2111 17.0938 48.7788 16.8438C49.3518 16.5938 49.995 16.4688 50.7085 16.4688C51.6148 16.4688 52.3804 16.6354 53.0054 16.9688C53.6304 17.3021 54.1148 17.763 54.4585 18.3516C54.8075 18.9401 55.021 19.6146 55.0992 20.375H53.146C53.0939 19.8854 52.9794 19.4661 52.8023 19.1172C52.6304 18.7682 52.3752 18.5026 52.0367 18.3203C51.6981 18.1328 51.2554 18.0391 50.7085 18.0391C50.2606 18.0391 49.87 18.1224 49.5367 18.2891C49.2033 18.4557 48.9247 18.7005 48.7007 19.0234C48.4768 19.3464 48.3075 19.7448 48.1929 20.2188C48.0835 20.6875 48.0288 21.224 48.0288 21.8281V22.7891C48.0288 23.362 48.0783 23.8828 48.1773 24.3516C48.2814 24.8151 48.4377 25.2135 48.646 25.5469C48.8596 25.8802 49.1304 26.138 49.4585 26.3203C49.7867 26.5026 50.1799 26.5938 50.6382 26.5938C51.1955 26.5938 51.646 26.5052 51.9898 26.3281C52.3387 26.151 52.6018 25.8932 52.7788 25.5547C52.9611 25.2109 53.0809 24.7917 53.1382 24.2969ZM56.8726 16.625H60.896C61.7606 16.625 62.4976 16.7552 63.107 17.0156C63.7163 17.276 64.1825 17.6615 64.5054 18.1719C64.8335 18.6771 64.9976 19.3021 64.9976 20.0469C64.9976 20.6146 64.8934 21.1146 64.6851 21.5469C64.4768 21.9792 64.1825 22.3438 63.8023 22.6406C63.4221 22.9323 62.9689 23.1589 62.4429 23.3203L61.8492 23.6094H58.232L58.2163 22.0547H60.9273C61.396 22.0547 61.7867 21.9714 62.0992 21.8047C62.4117 21.638 62.646 21.4115 62.8023 21.125C62.9637 20.8333 63.0445 20.5052 63.0445 20.1406C63.0445 19.7448 62.9663 19.401 62.8101 19.1094C62.659 18.8125 62.4247 18.5859 62.107 18.4297C61.7893 18.2682 61.3856 18.1875 60.896 18.1875H58.8335V28H56.8726V16.625ZM63.3648 28L60.6929 22.8906L62.7476 22.8828L65.4585 27.8984V28H63.3648ZM74.396 26.4453V28H68.357V26.4453H74.396ZM68.9117 16.625V28H66.9507V16.625H68.9117ZM73.607 21.375V22.9062H68.357V21.375H73.607ZM74.357 16.625V18.1875H68.357V16.625H74.357ZM80.4273 18.1406L77.0288 28H74.9742L79.2554 16.625H80.5679L80.4273 18.1406ZM83.271 28L79.8648 18.1406L79.7163 16.625H81.0367L85.3335 28H83.271ZM83.107 23.7812V25.3359H76.9195V23.7812H83.107ZM92.5913 25.0703C92.5913 24.8359 92.5549 24.6276 92.482 24.4453C92.4143 24.263 92.2919 24.0964 92.1148 23.9453C91.9377 23.7943 91.6877 23.6484 91.3648 23.5078C91.0471 23.362 90.6408 23.2135 90.146 23.0625C89.6044 22.8958 89.1044 22.7109 88.646 22.5078C88.1929 22.2995 87.7971 22.0599 87.4585 21.7891C87.12 21.513 86.857 21.1979 86.6695 20.8438C86.482 20.4844 86.3882 20.0703 86.3882 19.6016C86.3882 19.138 86.4846 18.7161 86.6773 18.3359C86.8752 17.9557 87.1538 17.6276 87.5132 17.3516C87.8778 17.0703 88.3075 16.8542 88.8023 16.7031C89.2971 16.5469 89.8439 16.4688 90.4429 16.4688C91.2867 16.4688 92.0132 16.625 92.6226 16.9375C93.2372 17.25 93.7085 17.6693 94.0367 18.1953C94.37 18.7214 94.5367 19.3021 94.5367 19.9375H92.5913C92.5913 19.5625 92.5106 19.2318 92.3492 18.9453C92.1929 18.6536 91.9533 18.4245 91.6304 18.2578C91.3127 18.0911 90.909 18.0078 90.4195 18.0078C89.9559 18.0078 89.5705 18.0781 89.2632 18.2188C88.9559 18.3594 88.7268 18.5495 88.5757 18.7891C88.4247 19.0286 88.3492 19.2995 88.3492 19.6016C88.3492 19.8151 88.3986 20.0104 88.4976 20.1875C88.5965 20.3594 88.7476 20.5208 88.9507 20.6719C89.1538 20.8177 89.409 20.9557 89.7163 21.0859C90.0236 21.2161 90.3856 21.3411 90.8023 21.4609C91.4325 21.6484 91.982 21.8568 92.4507 22.0859C92.9195 22.3099 93.3101 22.5651 93.6226 22.8516C93.9351 23.138 94.1695 23.4635 94.3257 23.8281C94.482 24.1875 94.5601 24.5964 94.5601 25.0547C94.5601 25.5339 94.4637 25.9661 94.271 26.3516C94.0783 26.7318 93.8023 27.0573 93.4429 27.3281C93.0887 27.5938 92.6617 27.7995 92.1617 27.9453C91.6669 28.0859 91.1148 28.1562 90.5054 28.1562C89.9585 28.1562 89.4195 28.0833 88.8882 27.9375C88.3622 27.7917 87.883 27.5703 87.4507 27.2734C87.0184 26.9714 86.6747 26.5964 86.4195 26.1484C86.1643 25.6953 86.0367 25.1667 86.0367 24.5625H87.9976C87.9976 24.9323 88.0601 25.2474 88.1851 25.5078C88.3153 25.7682 88.495 25.9818 88.7242 26.1484C88.9533 26.3099 89.2189 26.4297 89.521 26.5078C89.8283 26.5859 90.1564 26.625 90.5054 26.625C90.9637 26.625 91.3465 26.5599 91.6538 26.4297C91.9663 26.2995 92.2007 26.1172 92.357 25.8828C92.5132 25.6484 92.5913 25.3776 92.5913 25.0703ZM103.74 26.4453V28H97.7007V26.4453H103.74ZM98.2554 16.625V28H96.2945V16.625H98.2554ZM102.951 21.375V22.9062H97.7007V21.375H102.951ZM103.701 16.625V18.1875H97.7007V16.625H103.701ZM115.31 25.0703C115.31 24.8359 115.274 24.6276 115.201 24.4453C115.133 24.263 115.011 24.0964 114.834 23.9453C114.656 23.7943 114.406 23.6484 114.084 23.5078C113.766 23.362 113.36 23.2135 112.865 23.0625C112.323 22.8958 111.823 22.7109 111.365 22.5078C110.912 22.2995 110.516 22.0599 110.177 21.7891C109.839 21.513 109.576 21.1979 109.388 20.8438C109.201 20.4844 109.107 20.0703 109.107 19.6016C109.107 19.138 109.203 18.7161 109.396 18.3359C109.594 17.9557 109.873 17.6276 110.232 17.3516C110.597 17.0703 111.026 16.8542 111.521 16.7031C112.016 16.5469 112.563 16.4688 113.162 16.4688C114.005 16.4688 114.732 16.625 115.341 16.9375C115.956 17.25 116.427 17.6693 116.755 18.1953C117.089 18.7214 117.255 19.3021 117.255 19.9375H115.31C115.31 19.5625 115.229 19.2318 115.068 18.9453C114.912 18.6536 114.672 18.4245 114.349 18.2578C114.031 18.0911 113.628 18.0078 113.138 18.0078C112.675 18.0078 112.289 18.0781 111.982 18.2188C111.675 18.3594 111.446 18.5495 111.294 18.7891C111.143 19.0286 111.068 19.2995 111.068 19.6016C111.068 19.8151 111.117 20.0104 111.216 20.1875C111.315 20.3594 111.466 20.5208 111.669 20.6719C111.873 20.8177 112.128 20.9557 112.435 21.0859C112.742 21.2161 113.104 21.3411 113.521 21.4609C114.151 21.6484 114.701 21.8568 115.169 22.0859C115.638 22.3099 116.029 22.5651 116.341 22.8516C116.654 23.138 116.888 23.4635 117.044 23.8281C117.201 24.1875 117.279 24.5964 117.279 25.0547C117.279 25.5339 117.182 25.9661 116.99 26.3516C116.797 26.7318 116.521 27.0573 116.162 27.3281C115.807 27.5938 115.38 27.7995 114.88 27.9453C114.386 28.0859 113.834 28.1562 113.224 28.1562C112.677 28.1562 112.138 28.0833 111.607 27.9375C111.081 27.7917 110.602 27.5703 110.169 27.2734C109.737 26.9714 109.393 26.5964 109.138 26.1484C108.883 25.6953 108.755 25.1667 108.755 24.5625H110.716C110.716 24.9323 110.779 25.2474 110.904 25.5078C111.034 25.7682 111.214 25.9818 111.443 26.1484C111.672 26.3099 111.938 26.4297 112.24 26.5078C112.547 26.5859 112.875 26.625 113.224 26.625C113.682 26.625 114.065 26.5599 114.373 26.4297C114.685 26.2995 114.919 26.1172 115.076 25.8828C115.232 25.6484 115.31 25.3776 115.31 25.0703ZM123.693 16.625V28H121.748V16.625H123.693ZM127.263 16.625V18.1875H118.209V16.625H127.263ZM132.443 18.1406L129.044 28H126.99L131.271 16.625H132.584L132.443 18.1406ZM135.287 28L131.88 18.1406L131.732 16.625H133.052L137.349 28H135.287ZM135.123 23.7812V25.3359H128.935V23.7812H135.123ZM140.584 16.625V28H138.623V16.625H140.584ZM145.224 21.6016V23.1562H140.084V21.6016H145.224ZM145.873 16.625V18.1875H140.084V16.625H145.873ZM149.396 16.625V28H147.435V16.625H149.396ZM154.037 21.6016V23.1562H148.896V21.6016H154.037ZM154.685 16.625V18.1875H148.896V16.625H154.685ZM158.341 16.625V28H156.38V16.625H158.341ZM169.802 16.625V28H167.841L162.74 19.8516V28H160.779V16.625H162.74L167.857 24.7891V16.625H169.802ZM180.873 22.1875V26.5312C180.711 26.7448 180.459 26.9792 180.115 27.2344C179.776 27.4844 179.326 27.7005 178.763 27.8828C178.201 28.0651 177.5 28.1562 176.662 28.1562C175.948 28.1562 175.294 28.0365 174.701 27.7969C174.107 27.5521 173.594 27.1953 173.162 26.7266C172.735 26.2578 172.404 25.6875 172.169 25.0156C171.935 24.3385 171.818 23.5677 171.818 22.7031V21.9141C171.818 21.0547 171.925 20.2891 172.138 19.6172C172.357 18.9401 172.669 18.3672 173.076 17.8984C173.482 17.4297 173.972 17.0755 174.544 16.8359C175.123 16.5911 175.776 16.4688 176.505 16.4688C177.438 16.4688 178.209 16.625 178.818 16.9375C179.432 17.2448 179.906 17.6719 180.24 18.2188C180.573 18.7656 180.784 19.3906 180.873 20.0938H178.951C178.888 19.6979 178.766 19.3438 178.584 19.0312C178.406 18.7188 178.151 18.474 177.818 18.2969C177.49 18.1146 177.063 18.0234 176.537 18.0234C176.084 18.0234 175.685 18.1094 175.341 18.2812C174.998 18.4531 174.711 18.7057 174.482 19.0391C174.258 19.3724 174.089 19.7786 173.974 20.2578C173.86 20.737 173.802 21.2839 173.802 21.8984V22.7031C173.802 23.3281 173.867 23.8828 173.998 24.3672C174.133 24.8516 174.326 25.2604 174.576 25.5938C174.831 25.9271 175.141 26.1797 175.505 26.3516C175.87 26.5182 176.281 26.6016 176.74 26.6016C177.188 26.6016 177.555 26.5651 177.841 26.4922C178.128 26.4141 178.354 26.3229 178.521 26.2188C178.693 26.1094 178.826 26.0052 178.919 25.9062V23.6484H176.552V22.1875H180.873ZM194.544 21.375V22.9297H188.505V21.375H194.544ZM188.99 16.625V28H187.029V16.625H188.99ZM196.052 16.625V28H194.099V16.625H196.052ZM207.459 22V22.625C207.459 23.4844 207.347 24.2552 207.123 24.9375C206.899 25.6198 206.578 26.2005 206.162 26.6797C205.75 27.1589 205.255 27.526 204.677 27.7812C204.099 28.0312 203.459 28.1562 202.755 28.1562C202.057 28.1562 201.419 28.0312 200.841 27.7812C200.268 27.526 199.771 27.1589 199.349 26.6797C198.927 26.2005 198.599 25.6198 198.365 24.9375C198.136 24.2552 198.021 23.4844 198.021 22.625V22C198.021 21.1406 198.136 20.3724 198.365 19.6953C198.594 19.013 198.917 18.4323 199.334 17.9531C199.755 17.4688 200.253 17.1016 200.826 16.8516C201.404 16.5964 202.042 16.4688 202.74 16.4688C203.443 16.4688 204.084 16.5964 204.662 16.8516C205.24 17.1016 205.737 17.4688 206.154 17.9531C206.571 18.4323 206.891 19.013 207.115 19.6953C207.344 20.3724 207.459 21.1406 207.459 22ZM205.498 22.625V21.9844C205.498 21.349 205.435 20.7891 205.31 20.3047C205.19 19.8151 205.011 19.4062 204.771 19.0781C204.537 18.7448 204.248 18.4948 203.904 18.3281C203.56 18.1562 203.172 18.0703 202.74 18.0703C202.307 18.0703 201.922 18.1562 201.584 18.3281C201.245 18.4948 200.956 18.7448 200.716 19.0781C200.482 19.4062 200.302 19.8151 200.177 20.3047C200.052 20.7891 199.99 21.349 199.99 21.9844V22.625C199.99 23.2604 200.052 23.8229 200.177 24.3125C200.302 24.8021 200.485 25.2161 200.724 25.5547C200.969 25.888 201.261 26.1406 201.599 26.3125C201.938 26.4792 202.323 26.5625 202.755 26.5625C203.193 26.5625 203.581 26.4792 203.919 26.3125C204.258 26.1406 204.544 25.888 204.779 25.5547C205.013 25.2161 205.19 24.8021 205.31 24.3125C205.435 23.8229 205.498 23.2604 205.498 22.625ZM215.802 16.625H217.755V24.2266C217.755 25.0911 217.568 25.8151 217.193 26.3984C216.818 26.9818 216.307 27.4219 215.662 27.7188C215.021 28.0104 214.305 28.1562 213.513 28.1562C212.696 28.1562 211.966 28.0104 211.326 27.7188C210.685 27.4219 210.18 26.9818 209.81 26.3984C209.446 25.8151 209.263 25.0911 209.263 24.2266V16.625H211.216V24.2266C211.216 24.7734 211.31 25.224 211.498 25.5781C211.685 25.9271 211.951 26.1849 212.294 26.3516C212.638 26.5182 213.044 26.6016 213.513 26.6016C213.982 26.6016 214.386 26.5182 214.724 26.3516C215.068 26.1849 215.334 25.9271 215.521 25.5781C215.709 25.224 215.802 24.7734 215.802 24.2266V16.625ZM219.888 16.625H223.912C224.776 16.625 225.513 16.7552 226.123 17.0156C226.732 17.276 227.198 17.6615 227.521 18.1719C227.849 18.6771 228.013 19.3021 228.013 20.0469C228.013 20.6146 227.909 21.1146 227.701 21.5469C227.492 21.9792 227.198 22.3438 226.818 22.6406C226.438 22.9323 225.985 23.1589 225.459 23.3203L224.865 23.6094H221.248L221.232 22.0547H223.943C224.412 22.0547 224.802 21.9714 225.115 21.8047C225.427 21.638 225.662 21.4115 225.818 21.125C225.979 20.8333 226.06 20.5052 226.06 20.1406C226.06 19.7448 225.982 19.401 225.826 19.1094C225.675 18.8125 225.44 18.5859 225.123 18.4297C224.805 18.2682 224.401 18.1875 223.912 18.1875H221.849V28H219.888V16.625ZM226.38 28L223.709 22.8906L225.763 22.8828L228.474 27.8984V28H226.38ZM235.951 25.0703C235.951 24.8359 235.914 24.6276 235.841 24.4453C235.774 24.263 235.651 24.0964 235.474 23.9453C235.297 23.7943 235.047 23.6484 234.724 23.5078C234.406 23.362 234 23.2135 233.505 23.0625C232.964 22.8958 232.464 22.7109 232.005 22.5078C231.552 22.2995 231.156 22.0599 230.818 21.7891C230.479 21.513 230.216 21.1979 230.029 20.8438C229.841 20.4844 229.748 20.0703 229.748 19.6016C229.748 19.138 229.844 18.7161 230.037 18.3359C230.235 17.9557 230.513 17.6276 230.873 17.3516C231.237 17.0703 231.667 16.8542 232.162 16.7031C232.656 16.5469 233.203 16.4688 233.802 16.4688C234.646 16.4688 235.373 16.625 235.982 16.9375C236.597 17.25 237.068 17.6693 237.396 18.1953C237.729 18.7214 237.896 19.3021 237.896 19.9375H235.951C235.951 19.5625 235.87 19.2318 235.709 18.9453C235.552 18.6536 235.313 18.4245 234.99 18.2578C234.672 18.0911 234.268 18.0078 233.779 18.0078C233.315 18.0078 232.93 18.0781 232.623 18.2188C232.315 18.3594 232.086 18.5495 231.935 18.7891C231.784 19.0286 231.709 19.2995 231.709 19.6016C231.709 19.8151 231.758 20.0104 231.857 20.1875C231.956 20.3594 232.107 20.5208 232.31 20.6719C232.513 20.8177 232.768 20.9557 233.076 21.0859C233.383 21.2161 233.745 21.3411 234.162 21.4609C234.792 21.6484 235.341 21.8568 235.81 22.0859C236.279 22.3099 236.669 22.5651 236.982 22.8516C237.294 23.138 237.529 23.4635 237.685 23.8281C237.841 24.1875 237.919 24.5964 237.919 25.0547C237.919 25.5339 237.823 25.9661 237.63 26.3516C237.438 26.7318 237.162 27.0573 236.802 27.3281C236.448 27.5938 236.021 27.7995 235.521 27.9453C235.026 28.0859 234.474 28.1562 233.865 28.1562C233.318 28.1562 232.779 28.0833 232.248 27.9375C231.722 27.7917 231.242 27.5703 230.81 27.2734C230.378 26.9714 230.034 26.5964 229.779 26.1484C229.524 25.6953 229.396 25.1667 229.396 24.5625H231.357C231.357 24.9323 231.419 25.2474 231.544 25.5078C231.675 25.7682 231.854 25.9818 232.084 26.1484C232.313 26.3099 232.578 26.4297 232.88 26.5078C233.188 26.5859 233.516 26.625 233.865 26.625C234.323 26.625 234.706 26.5599 235.013 26.4297C235.326 26.2995 235.56 26.1172 235.716 25.8828C235.873 25.6484 235.951 25.3776 235.951 25.0703Z" fill="white"/>
<defs>
<linearGradient id="paint0_linear_500_568" x1="128.983" y1="0.842041" x2="128.983" y2="47" gradientUnits="userSpaceOnUse">
<stop stop-color="#24D9DC"/>
<stop offset="0.640625" stop-color="#169CC8"/>
<stop offset="1" stop-color="#034DAE" stop-opacity="0.79"/>
</linearGradient>
</defs>
</svg>
