<svg width="166" height="166" viewBox="0 0 166 166" fill="none" xmlns="http://www.w3.org/2000/svg">
<path d="M106.203 98.3142L118.829 98.1512C128.048 98.0321 135.425 90.462 135.306 81.2429C135.187 72.0238 127.616 64.6467 118.397 64.7658L105.771 64.9289C96.5522 65.048 89.1752 72.6181 89.2943 81.8372C89.4133 91.0563 96.9834 98.4333 106.203 98.3142Z" fill="#24D9DC"/>
<path d="M101.953 39.0647C102.072 48.2838 109.642 55.6609 118.861 55.5418C128.08 55.4227 135.457 47.8526 135.338 38.6335C135.219 29.4144 127.649 22.0374 118.43 22.1564C109.211 22.2755 101.834 29.8456 101.953 39.0647Z" fill="#2D3BEA"/>
<path d="M118.438 109.539L47.1331 110.46C37.914 110.579 30.537 118.149 30.656 127.368C30.7751 136.588 38.3452 143.965 47.5643 143.846L118.869 142.925C128.088 142.805 135.465 135.235 135.346 126.016C135.227 116.797 127.657 109.42 118.438 109.539Z" fill="#03F9BE"/>
</svg>
