<svg width="166" height="166" viewBox="0 0 166 166" fill="none" xmlns="http://www.w3.org/2000/svg">
<path d="M59.7974 67.6858L47.1714 67.8488C37.9523 67.9679 30.5753 75.538 30.6944 84.7571C30.8134 93.9762 38.3835 101.353 47.6026 101.234L60.2287 101.071C69.4478 100.952 76.8248 93.3819 76.7057 84.1628C76.5867 74.9437 69.0166 67.5667 59.7974 67.6858Z" fill="#24D9DC"/>
<path d="M64.0474 126.935C63.9283 117.716 56.3582 110.339 47.1391 110.458C37.92 110.577 30.5429 118.147 30.662 127.367C30.7811 136.586 38.3512 143.963 47.5703 143.844C56.7894 143.724 64.1664 136.154 64.0474 126.935Z" fill="#2D3BEA"/>
<path d="M47.562 56.4608L118.867 55.5398C128.086 55.4207 135.463 47.8507 135.344 38.6315C135.225 29.4124 127.655 22.0354 118.436 22.1545L47.1308 23.0755C37.9117 23.1945 30.5347 30.7646 30.6537 39.9837C30.7728 49.2028 38.3429 56.5799 47.562 56.4608Z" fill="#03F9BE"/>
</svg>
